<svg height="18" viewBox="0 0 18 18" width="18" xmlns="http://www.w3.org/2000/svg"><path d="m0 0h18v18h-18z" fill="#f0f3fa"/><path d="m4 4h10v10h-10zm7 3.33v-1.33h2v5.5h-1.33v-4.17zm-.86 1.34c.04.52-.02 1.04-.08 1.16l-.73-1.18c.77-.54.96-1.44.33-2-.52-.39-1.05-.39-1.6 0-.54.5-.52 1.1.11 1.82-1.07.65-1.15 1.55-.69 2.33.5.73 1.6.9 2.54.27l.19.43h1l-.63-1c.28-.27.48-1.04.42-1.83zm-1.46.45c-.5.33-.68.88-.42 1.28.29.31.73.31 1.23 0zm.14-1.1-.2-.3c-.15-.32-.07-.58.24-.58.34.03.47.26.23.61l-.27.28zm-3.82-.68v-1.34h2v5.5h-1.33v-4.17h-.67z" fill="#003d8f" fill-rule="evenodd"/></svg>