<svg height="18" width="18" xmlns="http://www.w3.org/2000/svg"><path d="m0 0h18v18h-18z" fill="#0d2c58"/><path d="m11.08 5-1.63 2.5c-.12.19-.16.4-.12.52.09.31.22.67.22.67h.67c.12 0 .3-.13.41-.3l2.2-3.39z" fill="#fac319"/><path d="m6.93 5 1.63 2.5c.12.18.16.4.12.52-.09.31-.22.67-.22.67h-.67c-.12 0-.3-.13-.41-.31l-2.2-3.38z" fill="#71be4b"/><path d="m11.24 13-1.79-2.58c-.12-.17-.16-.37-.12-.48l.23-.63h.66c.13 0 .3.12.41.3l2.37 3.39z" fill="#00a1df"/><path d="m6.75 13 1.81-2.58c.12-.17.16-.37.12-.49-.09-.29-.22-.62-.22-.62h-.67c-.12 0-.3.12-.41.29l-2.38 3.4z" fill="#e84b50"/></svg>