<svg height="18" viewBox="0 0 18 18" width="18" xmlns="http://www.w3.org/2000/svg"><path d="m0 0h18v18h-18z" fill="#d54d21"/><path d="m6 14h6v-2.9c-.14 0-.26.02-.37.03-.28.03-.52.06-.8.06-.38 0-.83-.17-.83-.63v-1.56h-1.07c-.25 0-.49 0-.49.2 0 .19.15.24.28.24h.42c.29 0 .47.02.56.16.1.1.14.3.14.6 0 .92-.58.99-1.32.99-.24 0-.56-.03-1.05-.1l-.04-.64c.35.08.65.13.95.13h.04c.18 0 .55 0 .55-.28 0-.17-.13-.24-.26-.24h-.47c-.46 0-.77-.28-.77-.83 0-.86.67-.86 1.3-.86h1.23l.61-.62h.39v.63h1v-4.38h-4.48l-.08.28c-.02.1-.04.2-.08.29-.37 1.03-1.48 1.47-2.36 1.49v2.94h1zm6-5h-1v1.12c0 .18.21.44.38.44h.62z" fill="#fff"/></svg>