<svg height="18" viewBox="0 0 18 18" width="18" xmlns="http://www.w3.org/2000/svg"><path d="m0 0h18v18h-18z" fill="#f0f3fa"/><g fill="#5c8099"><path d="m13.98 8.5h-.4c-.4.6-1.14 1.83-1.14 1.83l-.19-1.83h-.87l.4 2.5h.97l1.25-1.75a5 5 0 0 1 -9.58 1.75h1.7l.15-.7h-1.56v-.03l.74-.6c.23-.18.43-.36.6-.53.19-.17.33-.35.43-.54.1-.2.15-.4.15-.64a.96.96 0 0 0 -.11-.46.89.89 0 0 0 -.37-.36c-.17-.1-.39-.14-.65-.14-.29 0-.54.05-.77.16a3 3 0 0 0 -.49.3 5 5 0 0 1 9.74 1.04zm-6.7-.81c.09.05.2.07.32.07.17 0 .3-.04.39-.13.08-.08.13-.19.13-.33 0-.11-.05-.19-.13-.23a.64.64 0 0 0 -.3-.07c-.11 0-.2.02-.29.05a.4.4 0 0 0 -.18.15.46.46 0 0 0 -.06.25c0 .11.04.19.13.24zm.72.81h-.8s-.36 1-.52 1.75c-.12.55 0 .75.52.75.42 0 .7-.17.8-.25v-.25c-.64.2-.62-.08-.53-.25l.52-1.75zm.9 0-.68 2.5h.86l.29-1.02c.05-.17.11-.33.19-.47.08-.15.17-.26.27-.35.11-.08.23-.12.36-.12.1 0 .18.02.23.06.05.05.08.11.08.2a1.15 1.15 0 0 1 -.05.26l-.4 1.44h.88l.38-1.4a2.06 2.06 0 0 0 .07-.4.73.73 0 0 0 -.1-.37.6.6 0 0 0 -.27-.24 1.07 1.07 0 0 0 -.47-.09 1.21 1.21 0 0 0 -.74.24c-.1.08-.19.16-.27.26h-.03l.06-.5h-.67z"/><path d="m4.18 7.65.34.46c.11-.1.22-.17.31-.23l.27-.14a.79.79 0 0 1 .26-.04c.13 0 .23.03.3.1.08.07.12.18.12.31 0 .08-.02.15-.05.23s-.07.17-.14.26l-.27.3-.41.38-.81.7a5.02 5.02 0 0 1 .08-2.33z"/></g></svg>