<svg height="18" viewBox="0 0 18 18" width="18" xmlns="http://www.w3.org/2000/svg" xmlns:xlink="http://www.w3.org/1999/xlink"><linearGradient id="a" gradientUnits="userSpaceOnUse" x1="9" x2="9" y1="4" y2="14"><stop offset="0" stop-color="#fde35a"/><stop offset="1" stop-color="#ffd50d"/></linearGradient><linearGradient id="b" gradientUnits="userSpaceOnUse" x1="9.09" x2="9.09" y1="4" y2="7.19"><stop offset="0" stop-color="#64b22e"/><stop offset="1" stop-color="#3e9235"/></linearGradient><linearGradient id="c" gradientUnits="userSpaceOnUse" x1="8.92" x2="8.92" y1="14" y2="10.81"><stop offset=".41" stop-color="#3e9235"/><stop offset="1" stop-color="#64b22e"/></linearGradient><linearGradient id="d" gradientUnits="userSpaceOnUse" x1="7.9" x2="9.61" y1="7.04" y2="11.03"><stop offset="0" stop-color="#57ac30"/><stop offset="1" stop-color="#1b8f32"/></linearGradient><path d="m0 0h18v18h-18z" fill="#f0f3fa"/><circle cx="9" cy="9" fill="url(#a)" r="5"/><path d="m4.87 6.18a4.6 4.6 0 0 1 3-1.4c1.56 0 2.33.78 3 1.46.5.5.93.76 1.59.76.29 0 .54 0 .85-.54a5 5 0 0 0 -8.44-.28z" fill="url(#b)"/><path d="m13.13 11.82a4.6 4.6 0 0 1 -3 1.4c-1.55 0-2.33-.78-3-1.46-.49-.5-.91-.76-1.57-.76-.31 0-.56 0-.86.54a5 5 0 0 0 8.43.28z" fill="url(#c)"/><path d="m8.82 7c-.18 0-.32.18-.32.4v1.1h-1.1c-.22 0-.4.14-.4.32v.36c0 .18.18.32.4.32h1.1v1.1c0 .22.14.4.32.4h.36c.18 0 .32-.18.32-.4v-1.1h1.1c.22 0 .4-.14.4-.32v-.36c0-.18-.18-.32-.4-.32h-1.1v-1.1c0-.22-.14-.4-.32-.4z" fill="url(#d)"/></svg>