<svg height="18" viewBox="0 0 18 18" width="18" xmlns="http://www.w3.org/2000/svg" xmlns:xlink="http://www.w3.org/1999/xlink"><linearGradient id="a" gradientUnits="userSpaceOnUse" x1="11.39" x2="5.59" y1="4.36" y2="12.98"><stop offset=".04" stop-color="#7a3425"/><stop offset=".14" stop-color="#b53926"/><stop offset=".23" stop-color="#9f2a11"/><stop offset=".45" stop-color="#74371b"/><stop offset=".72" stop-color="#e15a14"/><stop offset="1" stop-color="#7e321b"/></linearGradient><linearGradient id="b" gradientUnits="userSpaceOnUse" x1="13.04" x2="4.04" y1="6.09" y2="10.73"><stop offset=".1" stop-color="#e5561d"/><stop offset=".45" stop-color="#f6ea8c"/><stop offset=".68" stop-color="#eca95e"/><stop offset=".9" stop-color="#dd4216"/></linearGradient><linearGradient id="c" gradientUnits="userSpaceOnUse" x1="8.35" x2="11.36" y1="3.47" y2="14.02"><stop offset="0" stop-color="#f38519" stop-opacity="0"/><stop offset=".24" stop-color="#f6820e"/><stop offset=".36" stop-color="#f48a15"/><stop offset=".64" stop-color="#f6ea8c" stop-opacity="0"/><stop offset=".92" stop-color="#e6681c"/></linearGradient><path d="m0 9a9 9 0 1 1 18 0 9 9 0 0 1 -18 0z" fill="#f0f3fa"/><path d="m9.55 4.36s.24 1.68-1.18 2.43c-1.41.76 4.25-.21 4.25-.21s.17-.89-.7-1.5c-.86-.62-2.37-.72-2.37-.72zm2.6 5.1s.66.54-.56 1.66c-1.21 1.12-3.38 2.33-3.38 2.33l2.93-.4 1.34-.84.6-.7.46-1.9-1.4-.15zm-6.51 3.32c-.03-.03-.03-.05-.03-.05l-.1-.56 1.23-1.78 4.02-.86s-2.78 2.59-3.94 3.1c-.85.39-1.1.22-1.18.15z" fill="url(#a)"/><path d="m8.9 4c1.16 0 2.23.35 3.1 1.01.2.23.3.42.3.42s-.5-.43-2.78-.43c-2.29 0-5.19 2.47-5.29 2.44-.03 0-.04-.04-.05-.08a5.03 5.03 0 0 1 4.72-3.36zm4.45 2.55c.42.72.65 1.56.65 2.45a5.05 5.05 0 0 1 -6.56 4.77c-.04-.05-.07-.1-.07-.13l.01-.05c.1-.18 2.14-.66 3.03-.74.9-.09 2.56-.77 2.59-1.94 0-.91-1.43-.9-1.6-.91-.9 0-5.78 1.87-5.76 2.79a5.1 5.1 0 0 1 -1.64-2.8c-.05-.7.34-1.15.87-1.48.53-.34 3.29-2.32 5.92-2.32 1.44 0 2.18.2 2.56.36z" fill="url(#b)"/><path d="m8.9 4c1.16 0 2.23.35 3.1 1.01.2.23.3.42.3.42s-.5-.43-2.78-.43c-2.29 0-5.19 2.47-5.29 2.44-.03 0-.04-.04-.05-.08a5.03 5.03 0 0 1 4.72-3.36zm4.45 2.55c.42.72.65 1.56.65 2.45a5.05 5.05 0 0 1 -6.56 4.77c-.04-.05-.07-.1-.07-.13l.01-.05c.1-.18 2.14-.66 3.03-.74.9-.09 2.59-.85 2.59-1.85s-1.3-1-1.6-1c-.9 0-5.78 1.87-5.76 2.79a5.1 5.1 0 0 1 -1.64-2.8c-.05-.7.34-1.15.87-1.48.53-.34 3.29-2.32 5.92-2.32 1.44 0 2.18.2 2.56.36z" fill="url(#c)"/></svg>