<svg height="18" width="18" xmlns="http://www.w3.org/2000/svg"><path d="m0 0h18v18h-18z" fill="#ee1b2d"/><path d="m12.467 6-.861 4.07-.866-4.07h-2.495v1.6c-.303-1.264-1.415-1.582-2.41-1.6-1.212-.017-2.555.57-2.602 2.359h1.677c0-.54.443-.85.861-.842.514-.005.75.24.762.621-.018.331-.192.561-.757.561h-.564v1.299h.511c.291 0 .696.177.712.64.02.55-.324.792-.746.797-.754-.031-.949-.879-.949-1.435h-1.74c.007.375-.004 3.018 2.724 3 1.306.013 2.257-.6 2.526-1.446v1.442h1.75v-4.369l.856 4.369h1.5l.931-4.364v4.368h1.713v-7zm-4.216 4.06c-.214-.494-.515-.71-.684-.778.355-.176.541-.416.684-.893v1.67z" fill="#fff"/></svg>