<svg fill="none" height="18" width="18" xmlns="http://www.w3.org/2000/svg"><path d="m0 0h18v18h-18z" fill="#b0282c"/><path d="m12.95 3.003c.023-.01.05.006.05.031v2.3c0 .812-.488 1.277-1.241 1.62l-5.256 2.38c-.459.208-.833.624-.833 1.118v.158c0 .033-.02.063-.05.076l-.57.31a.035.035 0 0 1 -.05-.03l.003-.633c-.003-1 .497-1.441 1.251-1.785l5.138-2.215c.459-.209.942-.5.942-1.333v-.833l-5.724 2.616c-.456.21-.941.484-.941.976v.157c0 .034-.02.063-.05.076l-.57.338a.035.035 0 0 1 -.017.003.034.034 0 0 1 -.032-.033l.003-.54c0-.81.487-1.346 1.238-1.69l6.71-3.066zm-7.9 11.994a.035.035 0 0 1 -.05-.031v-2.3c0-.812.488-1.277 1.241-1.62l5.256-2.38c.459-.208.833-.624.833-1.118v-.158c0-.033.02-.063.05-.076l.57-.31a.035.035 0 0 1 .016-.004c.018 0 .034.015.034.034l-.003.633c.003 1-.498 1.441-1.251 1.785l-5.138 2.215c-.459.209-.942.5-.942 1.333v.833l5.723-2.617c.456-.208.941-.483.941-.975v-.157c0-.034.02-.063.05-.076l.57-.338a.035.035 0 0 1 .017-.003.035.035 0 0 1 .033.033l-.003.54c0 .81-.487 1.346-1.238 1.69l-6.71 3.066z" fill="#fff"/></svg>