<svg height="18" viewBox="0 0 18 18" width="18" xmlns="http://www.w3.org/2000/svg"><path d="m0 0h18v18h-18z" fill="#180f5e"/><path d="m8 9v2l-2-2 2-2z" fill="#9ddbd0"/><path d="m4 9v2l2-2-2-2z" fill="#0e4870"/><path d="m6 7h2l-2 2-2-2z" fill="#048394"/><path d="m6 11h2l-2-2-2 2z" fill="#2dbab4"/><path d="m8.14 6.8 2.93-.8.78 3z" fill="#9ddbd0"/><path d="m10.28 3 .79 3 2.93-.8z" fill="#0e4870"/><path d="m11.85 9-.78-3 2.93-.8z" fill="#048394"/><path d="m8.14 6.8 2.93-.8-.79-3z" fill="#2dbab4"/><path d="m11.86 9-.8 3-2.92-.8z" fill="#9ddbd0"/><path d="m14 12.8-2.93-.8-.8 3z" fill="#0e4870"/><path d="m8.14 11.2 2.93.8-.8 3z" fill="#048394"/><path d="m11.86 9-.8 3 2.94.8z" fill="#2dbab4"/></svg>