<svg height="18" viewBox="0 0 18 18" width="18" xmlns="http://www.w3.org/2000/svg"><path d="m0 0h18v18h-18z" fill="#f0f3fa"/><path d="m4.01 9.32a5 5 0 0 1 7.48-4.66c.03.01.03.03.03.06-.4 1.45-1.97 1.68-3.35 1.87l-.9.15c-1.47.3-2.7 1.11-3.19 2.59a.04.04 0 0 1 -.06.01v-.02zm1.48 3a9.42 9.42 0 0 1 .01-1.14c.08-.9.5-1.49 1.35-1.86.52-.22.94-.37 1.26-.43.6-.12 1.2-.28 1.78-.47a4.33 4.33 0 0 0 1.83-1.11 3.34 3.34 0 0 0 .83-1.7c.45 2.01-.6 3.82-2.72 4.11-1.61.23-3.76.8-4.3 2.6-.02.06-.04.06-.04 0zm1.18 1.11.33.15c1.6.67 3.32.54 4.76-.41a4.96 4.96 0 0 0 2.24-3.95c0-.05 0-.06-.03 0-.53 1.39-1.83 2.1-3.27 2.23-1.54.14-3.22.36-4.07 1.88a.07.07 0 0 0 .01.08z" fill="#c56211"/></svg>