<svg height="18" viewBox="0 0 18 18" width="18" xmlns="http://www.w3.org/2000/svg"><path d="m0 0h18v18h-18z" fill="#f0f3fa"/><path d="m11.5 5a2.5 2.5 0 0 1 2.08 3.89l-2.03 3.88a.43.43 0 0 1 -.37.23c-.24 0-.64-.2-.64-.44v-.02c0-.08.02-.16.06-.23l1.22-2.33-.32.02a2.5 2.5 0 0 1 0-5zm0 1a1.5 1.5 0 1 1 0 3 1.5 1.5 0 0 1 0-3zm-7 1a2 2 0 0 0 .6 1.43 2.5 2.5 0 1 0 2.8 0 2 2 0 0 0 -1.4-3.43 2 2 0 0 0 -2 2zm1 0a1 1 0 0 0 .99 1h.02a1 1 0 1 0 -1.01-1zm1 5a1.5 1.5 0 1 0 0-3 1.5 1.5 0 0 0 0 3z" fill="#9eacb4" fill-rule="evenodd"/></svg>