<svg height="18" width="18" xmlns="http://www.w3.org/2000/svg"><path d="m0 0h18v18h-18z" fill="#e2231a"/><path d="m10.934 7h-1.407l-.446.81-.445-.81h-1.405l1.054 2-1.095 2h1.38l.473-.905.486.905h1.379l-1.096-2zm-5.124 2.034c.055-.068.568-.702.568-1.323 0-1.08-.878-1.674-1.96-1.674-1.35.013-1.945.837-1.945 1.674 0 .5.216.837.527 1.107-.176.135-.797.661-.797 1.417 0 .918.743 1.796 2.148 1.796 1.433 0 2.149-.878 2.149-1.769 0-.58-.297-.958-.69-1.228zm-1.417-1.742c.378 0 .608.216.608.54 0 .351-.149.621-.203.716-.513-.216-.932-.419-.932-.797 0-.256.162-.459.527-.459zm-.04 3.483c-.393 0-.703-.297-.703-.675 0-.31.175-.553.31-.702.568.257 1.082.46 1.082.783 0 .392-.257.594-.69.594zm10.755-1.741c.054-.068.568-.702.568-1.323 0-1.08-.879-1.674-1.96-1.674-1.351 0-1.946.823-1.946 1.66 0 .5.216.837.527 1.107-.175.135-.797.662-.797 1.404 0 .918.743 1.796 2.149 1.796 1.432 0 2.148-.878 2.148-1.769 0-.553-.297-.931-.689-1.201zm-1.418-1.742c.379 0 .608.216.608.54 0 .351-.148.621-.202.716-.514-.216-.933-.419-.933-.797 0-.256.162-.459.527-.459zm-.04 3.483c-.392 0-.703-.297-.703-.675 0-.31.176-.553.31-.702.568.257 1.082.46 1.082.783 0 .392-.257.594-.69.594z" fill="#fff"/></svg>