<svg height="18" width="18" xmlns="http://www.w3.org/2000/svg"><path d="m0 0h18v18h-18z" fill="#3f4f7d"/><path d="m8.647 4v1.136c.007.096-.088.291-.395.286a44.717 44.717 0 0 0 -1.1 0c-.28.007-.84.208-.823.915.016.707.557.856.824.873h4.668c.056 0 .165.057.16.183-.007.127-.102.175-.16.175h-6.032c-.278-.005-.839.166-.844.891s.562.898.844.898h6.488c.06.002.17.059.173.181s-.112.176-.173.176h-6.104c-.27.02-.802.211-.786.883.016.671.53.874.786.906h4.66c.068 0 .154.062.154.187s-.084.171-.153.171h-1.351c-.256.005-.83.117-.836.884a86.887 86.887 0 0 0 -.001 1.255c-3.149-.153-5.646-2.333-5.646-5s2.498-4.847 5.647-5zm.704 0c-.001.209-.002.605.002 1.249.005.897-.594.903-.903.888h-1.236a.163.163 0 0 0 -.153.172c.004.135.12.178.153.186h4.745c.245.025.738.22.754.898s-.496.868-.754.89h-6.137c-.066 0-.145.072-.148.176s.095.177.148.177h6.587c.256.025.77.205.77.882 0 .678-.514.887-.77.912h-6.157c-.06 0-.151.045-.154.167s.099.19.154.19h4.754c.233 0 .724.22.73.891.005.672-.49.9-.73.898a70.552 70.552 0 0 0 -1.35 0c-.17.006-.303.169-.303.264v1.16c3.15-.152 5.647-2.333 5.647-5 0-2.668-2.499-4.848-5.649-5z" fill="#fff"/></svg>