<svg height="18" viewBox="0 0 18 18" width="18" xmlns="http://www.w3.org/2000/svg"><path d="m0 0h18v18h-18z" fill="#f0f3fa"/><path d="m8.53 12.29c1.18 1.24 3.43.78 5.02-1.04s1.92-4.3.74-5.55-3.42-.78-5.02 1.04c-1.59 1.81-1.92 4.3-.74 5.55zm1.8-.64c.68.73 2 .46 2.93-.6.93-1.07 1.12-2.52.43-3.25s-2-.46-2.93.6c-.93 1.07-1.13 2.52-.44 3.25z" fill="#ed1c24" fill-rule="evenodd"/><path d="m3.71 12.29c1.19 1.25 3.44.8 5.04-1 1.6-1.82 1.93-4.31.75-5.57-1.2-1.26-3.45-.81-5.04 1-1.6 1.82-1.94 4.3-.75 5.57zm.69-2.14c.7.74 2 .5 2.92-.54.92-1.03 1.1-2.48.4-3.22-.7-.75-2.02-.5-2.93.53-.92 1.04-1.09 2.49-.39 3.23z" fill="#f5de5a" fill-rule="evenodd"/><path d="m8.2 11.84c.19-.17.37-.36.55-.56 1.42-1.61 1.84-3.76 1.08-5.1-.2.16-.38.35-.56.56-1.42 1.62-1.84 3.76-1.08 5.1z" fill="#f3961f"/></svg>