<svg height="18" viewBox="0 0 18 18" width="18" xmlns="http://www.w3.org/2000/svg" xmlns:xlink="http://www.w3.org/1999/xlink"><linearGradient id="a" gradientUnits="userSpaceOnUse" x1="9.56" x2="9.56" y1="3.44" y2="13.44"><stop offset="0" stop-color="#9a3231"/><stop offset=".16" stop-color="#eeeaed"/><stop offset=".4" stop-color="#773134"/><stop offset=".62" stop-color="#742e2d"/><stop offset=".84" stop-color="#f4dfe6"/><stop offset="1" stop-color="#993137"/></linearGradient><linearGradient id="b" gradientUnits="userSpaceOnUse" x1="8.1" x2="8.1" y1="6.6" y2="12.6"><stop offset="0" stop-color="#ebebeb"/><stop offset=".17" stop-color="#aaa8a9"/><stop offset=".51" stop-color="#fdfdfd"/><stop offset=".75" stop-color="#bbb7b8"/><stop offset="1" stop-color="#676161"/></linearGradient><linearGradient id="c" gradientUnits="userSpaceOnUse" x1="10.17" x2="10.17" y1="6.6" y2="12.6"><stop offset="0" stop-color="#eee"/><stop offset=".14" stop-color="#afadae"/><stop offset=".22" stop-color="#b7b5b6"/><stop offset=".46" stop-color="#f2f2f2"/><stop offset=".63" stop-color="#f2f2f2"/><stop offset=".78" stop-color="#b6b0b0"/><stop offset="1" stop-color="#625c5c"/></linearGradient><path d="m0 0h18v18h-18z" fill="#f0f3fa"/><circle cx="9" cy="9" r="6"/><path d="m9 14.63a5.63 5.63 0 1 0 0-11.26 5.63 5.63 0 0 0 0 11.25zm0 .37a6 6 0 1 0 0-12 6 6 0 0 0 0 12z" fill="#b82b31" fill-rule="evenodd"/><path d="m9 13.82a4.82 4.82 0 1 0 0-9.64 4.82 4.82 0 0 0 0 9.64zm0 .18a5 5 0 1 0 0-10 5 5 0 0 0 0 10z" fill="url(#a)" fill-rule="evenodd"/><path d="m6.75 6h1.5l.75 6h-1.2l-.11-1h-.39l-.11 1h-1.19zm.75 1.5-.19 2.5h.38z" fill="url(#b)"/><path d="m12 6h-3v6h3v-1h-2v-1.5h2v-1h-2v-1.5h2z" fill="url(#c)"/></svg>