<svg height="18" viewBox="0 0 18 18" width="18" xmlns="http://www.w3.org/2000/svg"><path d="m0 0h18v18h-18z" fill="#f0f3fa"/><circle cx="9" cy="9" fill="#bde3fa" r="5"/><path d="m9.63 8.6c-1.63 1.1-4.4 2.45-6.06 3.32l.25.18c.4-.15 2.73-1.32 3.85-1.9l-.41.46c-.25.27-.9.99-1.48 1.44-.45.36-2.04 1.41-2.78 1.89.68-.24 2.3-.88 3.36-1.53 1.3-.81 3.27-2.88 3.27-2.25s-1.88 2.25-2.37 2.6c-.5.37-.33.82-.17.73.17-.1 3.6-2.97 4.26-3.7.66-.71 3.44-3.78 3.6-4.05.17-.27-.16-.36-.4-.36-.25 0-1.89 2.25-1.97 2.07-.06-.14 1.45-2.4 2.21-3.51-1.36 1.3-2.78 2.99-5.16 4.6z" fill="#3a6091"/></svg>