<svg height="18" width="18" xmlns="http://www.w3.org/2000/svg"><path d="m0 0h18v18h-18z" fill="#18b2f0"/><path d="m9.14 8.04 3.36-5.04-3.75 9.21-.38-2.33-3.7 5.12 4.2-9.1zm-.16-3.04c-2.38 0-4.44 1.48-4.44 3.98a3.8 3.8 0 0 0 1.2 2.81l-.59.92a5.21 5.21 0 0 1 -1.42-1.94 4.84 4.84 0 0 1 .43-4.45 4.81 4.81 0 0 1 2.33-1.9 6.94 6.94 0 0 1 2.51-.42c.72 0 1.4.08 2.02.27l-.58.87a8.55 8.55 0 0 0 -1.46-.14zm3.98.33c.57.5 1 1.1 1.26 1.83a4.85 4.85 0 0 1 -2.72 6.43c-.76.26-1.6.41-2.52.41s-1.76-.15-2.49-.46l.58-.89a5.9 5.9 0 0 0 1.91.35c2.34 0 4.48-1.45 4.48-3.94 0-1.32-.6-2.45-1.65-3.23l.61-.88c.2.11.39.23.54.38z" fill="#fff"/></svg>