<svg height="18" width="18" xmlns="http://www.w3.org/2000/svg"><path d="m0 0h18v18h-18z" fill="#68737a"/><g fill="#fff"><path d="m10.045 10.578a7.236 7.236 0 0 1 -1.32-.292l-.946 2.717h1.465l.8-2.425zm1.398-.729c.343.073.95.182 1.346.182l-.463-5.031h-1.504l-1.752 4.485c.396.145.844.254 1.266.364l.95-2.477.158 2.477zm1.346.218c-.317.17-.95.297-1.32.383l.134 2.547h1.397z"/><path d="m9.694 6.069a5.195 5.195 0 0 0 -.753-.069c-1.13 0-2.934.31-2.934 1.24 0 1.586 3.876 2.826 6.19 2.826.107 0 .457-.035.592-.035-1.507-.172-4.952-1.377-4.952-2.79 0-.759.996-1.068 1.857-1.172z"/><path d="m6.562 6.07a4.966 4.966 0 0 0 -.739-.07c-1.213 0-2.823.451-2.823 1.492 0 1.908 3.615 3.157 6.227 3.157.105 0 .686-.035.818-.069-1.72-.27-5.303-1.388-5.303-3.157 0-.903.844-1.25 1.82-1.354z"/></g></svg>