<svg height="18" viewBox="0 0 18 18" width="18" xmlns="http://www.w3.org/2000/svg"><path d="m0 0h18v18h-18z" fill="#f0f3fa"/><path d="m8.91 12h-4.11l10.2-7z" fill="#add084"/><path d="m11.71 12h-4.08l7.37-7z" fill="#6cb545"/><path d="m8.52 11.16-.94-1.62 2.3-3.48.9 2.94z" fill="#46537d"/><path d="m4.31 12h1.63l3.94-5.94z" fill="#9493b6"/><path d="m3 12h3l.55-4.22z" fill="#92cce8"/><path d="m7.63 12h-1.69l1.03-1.55.6-.91 1.45 2.46z" fill="#7374a1"/><path d="m6.28 9.9-1.98 2.1h1.7z" fill="#80abd5"/><path d="m6.55 7.78-.53 4.1.95-1.43.6-.91-.42-.73z" fill="#61a2d2"/><path d="m11.71 12h-4.08l3.16-3 .93 3z" fill="#203d76"/></svg>