<svg fill="none" height="18" width="18" xmlns="http://www.w3.org/2000/svg"><path d="m0 0h18v18h-18z" fill="#f0f3fa"/><circle cx="9" cy="9" fill="#b7bf33" r="5"/><path clip-rule="evenodd" d="m9.142 6c-.782-.013-1.477.28-2.145.691.129.245.242.516.395.744.002.004.95-.456 1.41-.478.848-.04 1.103.438 1.198 1.165l-.573.083c-1.81.282-2.627.903-2.627 1.994 0 .912.675 1.616 1.536 1.59.918-.026 1.7-.72 1.7-.72l.153.63h.811c0-1.192.021-2.386 0-3.577-.021-1.194-.607-2.1-1.858-2.122zm-1.302 4.09c0-.517.505-.906 1.447-1.114.314-.07.69-.143.714-.145v1.418c-.41.29-.797.62-1.319.62-.531 0-.842-.287-.842-.78z" fill="#1e4020" fill-rule="evenodd"/></svg>