<svg height="18" viewBox="0 0 18 18" width="18" xmlns="http://www.w3.org/2000/svg"><path d="m0 0h18v18h-18z" fill="#f0f3fa"/><g fill-rule="evenodd"><path d="m13.41 11.49-3.14-7.23c-.47-1.09-2.07-1.09-2.54 0l-3.14 7.23c-.53 1.22.74 2.45 2.02 1.95l.85-.34a4.2 4.2 0 0 1 3.07 0l.86.34c1.28.5 2.55-.73 2.02-1.95zm-2.72-7.4c-.63-1.45-2.76-1.45-3.4 0l-3.13 7.23c-.69 1.58.96 3.18 2.62 2.53l.86-.34a3.73 3.73 0 0 1 2.71 0l.87.34c1.66.65 3.3-.95 2.62-2.53z" fill="#41a857"/><path d="m8.18 4.52c.3-.7 1.34-.7 1.64 0l3.1 7.02c.4.93-.68 1.82-1.6 1.31l-.3-.17c-1.24-.7-2.8-.7-4.05 0l-.3.17c-.91.51-1.99-.38-1.58-1.3zm.43 2.7c.15-.3.63-.3.78 0l1.58 3.31c.14.3-.23.59-.56.42a3.16 3.16 0 0 0 -2.82 0c-.33.17-.7-.12-.56-.42l1.58-3.3z" fill="#8f8784"/></g></svg>