<svg height="18" viewBox="0 0 18 18" width="18" xmlns="http://www.w3.org/2000/svg"><path d="m0 0h18v18h-18z" fill="#f0f3fa"/><path d="m11.63 4.09a.31.31 0 0 0 0 .44c.27.29.62.83.72 1.47.1.63-.04 1.37-.73 2.13a.31.31 0 0 0 .46.42 3.1 3.1 0 0 0 .88-2.65 3.46 3.46 0 0 0 -.89-1.8.31.31 0 0 0 -.44-.01zm-5.26 0c.13.12.13.32 0 .44-.27.29-.62.83-.72 1.47-.1.63.04 1.37.73 2.13a.31.31 0 0 1 -.46.42 3.1 3.1 0 0 1 -.88-2.65c.12-.79.54-1.44.89-1.8a.31.31 0 0 1 .44-.01zm1.03 1.11a.31.31 0 0 0 -.45-.44c-.24.26-.53.7-.62 1.26-.09.57.05 1.23.62 1.85a.31.31 0 1 0 .46-.43 1.55 1.55 0 0 1 -.46-1.32c.06-.4.28-.74.45-.92zm3.23-.45a.31.31 0 0 0 -.01.45c.17.18.39.51.45.92.06.38-.02.85-.46 1.32a.31.31 0 1 0 .46.43c.57-.62.7-1.28.62-1.85a2.4 2.4 0 0 0 -.62-1.26.31.31 0 0 0 -.44 0zm-.63 1.91a1 1 0 0 1 -.64.93l2.3 5.97a.32.32 0 1 1 -.6.23l-.7-1.81-3.1.97-.31.84a.32.32 0 1 1 -.6-.22l2.22-6a1 1 0 1 1 1.43-.9zm-2.46 5.54 2.04-.64-1.57-.63zm1.2-1.67 1.24.5-.3-.82zm.7-.92-.48-1.25-.6 1.63z" fill="#233b7a"/></svg>