<svg height="18" viewBox="0 0 18 18" width="18" xmlns="http://www.w3.org/2000/svg"><path d="m0 0h18v18h-18z" fill="#f0f3fa"/><path d="m6.78 7.21-.56-1.29c-.64.2-1.2.6-1.6 1.15a3.3 3.3 0 0 0 0 3.86c.4.56.96.96 1.6 1.15l.56-1.28a4.53 4.53 0 0 0 0-3.59z" fill="#d8354c"/><path d="m14.6 8.34-8.08-4.78a.67.67 0 0 0 -.76.15c-.1.1-.17.23-.2.38-.03.14-.01.3.04.43l.6 1.4a2.9 2.9 0 0 1 2.67.52c.38.3.68.69.9 1.13a3.33 3.33 0 0 1 -.9 3.98 2.98 2.98 0 0 1 -2.66.52l-.6 1.38a.77.77 0 0 0 .15.84.67.67 0 0 0 .8.15l8.02-4.77a.7.7 0 0 0 .3-.27.76.76 0 0 0 0-.79.7.7 0 0 0 -.3-.27z" fill="#da2027"/></svg>