<svg fill="none" height="18" width="18" xmlns="http://www.w3.org/2000/svg"><path d="m0 0h18v18h-18z" fill="#f0f3fa"/><path d="m8.696 10-.506 1-1.19-.8c.547-.93 1.135-2.118 1.829-3.272 0 0 .386-.928 1.358-.928 1.153 0 1.253 1.182 1.253 1.182l.56 3.818h-1.497l-.142-1zm1.605-1c-.094-.7-.189-1.27-.212-1.75h-.037c-.227.538-.551 1.068-.915 1.75z" fill="#05419e"/><path d="m11 5.674s-2.358-2.098-4.726-1.596c-1.431.302-2.274 1.766-2.274 3.26 0 3.349 3.066 6.662 6.838 6.662 1.434 0 3.162-.879 3.162-1.777.015-.425-.334-.708-.741-.704-.754 0-.839.481-2.42.481-2.581 0-5.839-1.95-5.839-5.313-.02-1.416.9-2.386 2.315-2.401 1.855-.02 3.685 1.388 3.685 1.388z" fill="#cb005e"/></svg>