<svg height="18" width="18" xmlns="http://www.w3.org/2000/svg"><path d="m0 0h18v18h-18z" fill="#0061aa"/><path d="m11.659 13.404-.527-1.062h-4.25l-.542 1.062h-2.84l5.507-11 5.493 11zm-1.81-3.615-.844-1.689-.855 1.688h1.697z" fill="#fff"/><path d="m9.012 3.243 4.884 9.779h-2.264l-.498-1.002h-4.243l-.51 1.002h-2.266l4.896-9.779zm-1.112 6.747h2.213l-1.1-2.205zm1.114-7.586-.373.628-2.421 4.896-2.514 4.876-.205.6h3.1l.107-.207.407-.796h3.785l.394.793.107.21h3.1l-.277-.556-4.878-9.778-.333-.666zm-.499 7.198.497-.981.492.981z" fill="#0061aa"/></svg>