<svg height="18" viewBox="0 0 18 18" width="18" xmlns="http://www.w3.org/2000/svg"><path d="m0 0h18v18h-18z" fill="#f0f3fa"/><g fill="#0f8ec7"><path d="m9 15a6 6 0 1 0 0-12 6 6 0 0 0 0 12zm0-1a5 5 0 1 0 0-10 5 5 0 0 0 0 10z" fill-rule="evenodd"/><circle cx="9.18" cy="5.65" r=".53"/><circle cx="11.65" cy="8.47" r=".53"/><circle cx="8.82" cy="8.82" r=".53"/><circle cx="6" cy="9.18" r=".53"/><circle cx="9.53" cy="12" r=".53"/><path d="m9.12 5.6 1.64-1.38-.16-.19-1.77 1.49-3.25-.68 3.03 3.93-2.63.42-.8-3.52-.25.05.82 3.58c-.49.58-1.6 1.8-1.64 1.86l.2.15v-.01c.46-.57 1.12-1.24 1.6-1.8l3.27 2.51-1.55 1.96.2.15 1.58-2.01 4.3-.1-1.77-3.58 2.52-1.2-.76-.4zm2.69 2.63-2.51-2.33 4.3 1.17.32.15-2.12 1zm-.3.07-2.62.42-2.7-3.5 2.61.54 2.72 2.54zm-2.7.68 4.34 2.82-3.76.06-3.2-2.45zm4.44 2.6-4.08-2.66 2.54-.42 1.54 3.06z"/></g></svg>