<svg fill="none" height="18" width="18" xmlns="http://www.w3.org/2000/svg"><path d="m0 0h18v18h-18z" fill="#f0f3fa"/><path clip-rule="evenodd" d="m8.86 4a.5.5 0 0 1 .45.284l1.834 3.834 1.643-.776a.5.5 0 1 1 .426.904l-1.637.774 1.561 3.264a.5.5 0 0 1 -.63.683l-5.333-2.04a.5.5 0 0 1 -.035-.918l3.1-1.464-1.382-2.89-3.407 7.062a.5.5 0 0 1 -.9-.434l3.858-8a.5.5 0 0 1 .452-.283zm1.811 5.447-2.045.965 3.069 1.173z" fill="#509789" fill-rule="evenodd"/><circle cx="14.375" cy="7.16" fill="#e4ae3c" r=".627"/></svg>