<svg height="18" viewBox="0 0 18 18" width="18" xmlns="http://www.w3.org/2000/svg"><path d="m0 0h18v18h-18z" fill="#f0f3fa"/><path d="m5 11 .63-4h1.44c.32-.01.95.1.93.71l-.35 2.59a.97.97 0 0 1 -.97.7zm1.16-.67.4-2.66h.21c.07.03.19.14.17.29l-.37 2.24a.18.18 0 0 1 -.18.13zm-4.16.67h1.12l.16-.67h.43l-.03.67h1.12v-4h-1.6zm1.75-1.33.09-1.68-.4 1.68h.3zm4.54-2.67v4h1.74l1.17-4h-1.17l-.65 2.6.08-2.6zm2.5 4h1.08l.25-1.67h.66l.14-.66h-.7l.16-1h.75l.1-.67h-1.83l-.6 4zm2.14 0 .6-4h.92l.29 1.69h.08l.26-1.69h.92l-.6 4h-1l-.26-1.68h-.08l-.23 1.68z" fill-rule="evenodd"/></svg>