<svg height="18" viewBox="0 0 18 18" width="18" xmlns="http://www.w3.org/2000/svg"><path d="m0 0h18v18h-18z" fill="#f0f3fa"/><path d="m13.6 7.8c.46 0 .85-.28.93-.72.05-.25-.07-.53-.19-.75-.13-.26-.31-.5-.45-.75l-.28-.58-.3.58c-.13.25-.31.49-.44.75-.12.22-.24.5-.19.75.08.44.47.72.92.72z" fill="#c60c30"/><path d="m16 12h-.6a2.67 2.67 0 0 1 -1.9-.79c-.21.23-.47.42-.76.55-.36.16-.74.24-1.14.24h-.6v-1.08h.6a1.41 1.41 0 0 0 .93-.34c.11-.1.2-.23.27-.37a1.05 1.05 0 0 0 0-.89 1.2 1.2 0 0 0 -.27-.36 1.41 1.41 0 0 0 -.92-.34h-.61v-1.09h.6a2.68 2.68 0 0 1 1.9.8 2.51 2.51 0 0 1 1.9-.8h.6v1.09h-.6a1.46 1.46 0 0 0 -.92.34 1.02 1.02 0 0 0 -.28 1.25c.07.14.16.26.28.37a1.46 1.46 0 0 0 .93.34h.59z" fill="#c60c30"/><path d="m3.26 10.56c0 .35.27.6.64.6.73 0 .75-.77.75-1.27-.45 0-1.4-.02-1.4.67zm-1.06-1.66c0-.53.24-.92.6-1.1.35-.2.82-.28 1.3-.28.88 0 1.9.31 1.9 1.58v2.3c0 .21 0 .46.03.59h-1.31c-.07-.12-.07-.5-.07-.69-.3.49-.62.69-1.21.69-.84.01-1.44-.44-1.44-1.26 0-.3.14-1.01.94-1.34a3.74 3.74 0 0 1 1.59-.22v-.4c0-.17-.02-.52-.48-.52s-.6.46-.59.66h-1.26zm6.37 2.29c.68 0 .91-.8.91-1.36s-.23-1.35-.91-1.35c-.82 0-.92.73-.92 1.35 0 .63.1 1.36.92 1.36zm.78-5.19h1.4v5.06c0 .27.03.67.05.94h-1.45v-.7c-.28.48-.63.7-1.18.7-1.25 0-1.84-1.11-1.84-2.16 0-1.1.68-2.17 2-2.17.44 0 .96.3 1.02.6z" fill="#5e6a71"/></svg>