<svg height="18" width="18" xmlns="http://www.w3.org/2000/svg"><path d="m0 0h18v18h-18z" fill="#f15d22"/><path d="m9.69 4a.066.066 0 0 0 -.055.034l-5.626 9.863a.07.07 0 0 0 0 .067c.011.021.032.036.054.036h1.37a.065.065 0 0 0 .056-.036l2.145-3.964h2.844c.02.107.697 3.944.697 3.944.006.032.032.056.063.056h1.698c.02 0 .038-.01.05-.027.012-.016.017-.037.012-.056l-2.166-9.863a.065.065 0 0 0 -.064-.054zm-.028 2.093c.062.308.504 2.764.532 2.907-.137.004-1.818-.006-2.015 0 .098-.185 1.338-2.632 1.483-2.907z" fill="#fff"/></svg>