<svg height="18" viewBox="0 0 18 18" width="18" xmlns="http://www.w3.org/2000/svg" xmlns:xlink="http://www.w3.org/1999/xlink"><linearGradient id="a" gradientUnits="userSpaceOnUse" x1="7.25" x2="12" y1="8.34" y2="5.94"><stop offset=".26" stop-color="#dddad8"/><stop offset="1" stop-color="#817f80"/></linearGradient><linearGradient id="b" gradientUnits="userSpaceOnUse" x1="6.53" x2="12.58" y1="11.93" y2="12.57"><stop offset=".06" stop-color="#817f80"/><stop offset=".95" stop-color="#dddad8"/></linearGradient><path d="m0 0h18v18h-18z" fill="#f0f3fa"/><path d="m4.73 6.53a3.8 3.8 0 0 1 3.44-2.2c1.53 0 2.84.98 3.44 2.27h1.86a4.7 4.7 0 0 0 -4.37-3.13 4.66 4.66 0 0 0 -4.4 3.06h.02zm-.29 4.5c.63 1.32 1.96 2.88 3.56 2.88s2.9-1.09 3.53-2.41h1.97a4.59 4.59 0 0 1 -4.45 3c-2.12 0-3.94-1.65-4.62-3.47z" fill="#304266"/><path d="m11.66 7.74a2.5 2.5 0 0 0 -4.14-.26l-1.77-.5c.46-1.14 1.96-3.04 4.34-2.75 1.76.21 2.3 1.4 2.5 2.02z" fill="url(#a)"/><path d="m11.24 11.19a2.5 2.5 0 0 1 -3.84-.45l-1.7.26c.08.69.37 2.57 2.05 3.1 2.27.72 4.44-.88 4.75-2.21z" fill="url(#b)"/><path d="m13.45 11.5c-.63 1.3-1.9 2-3.5 2-1.61 0-3.07-1.2-3.7-2.5h-1.95a4.85 4.85 0 0 0 4.66 3.5c2.12 0 3.95-1.18 4.54-3zm-9.15-4.5h2.2c.43-1.33 1.47-2.5 3.15-2.5s2.93.5 3.73 2.1h.09c-.66-1.94-2.22-3.1-4.57-3.1-2.1 0-4.17 1.48-4.6 3.5z" fill="#2d55a8"/><path d="m3.66 9.3-.38-1.07-.36 1.07zm1.34 1.2h-1.33v-.17c.07 0 .09-.01.16-.03.1-.02.14-.05.14-.08v-.04l-.02-.06-.22-.61h-.89l-.06.2-.07.2a1.24 1.24 0 0 0 -.05.25c0 .04.03.08.1.11.08.04.14.06.24.06v.17h-1v-.17l.13-.01.12-.05a.48.48 0 0 0 .12-.13.7.7 0 0 0 .09-.17l.42-1.17.46-1.3h.36a222.54 222.54 0 0 1 .9 2.56c.01.04.03.07.06.1a.4.4 0 0 0 .22.16l.12.01zm1.02-1.24v-.23c0-.17-.05-.36-.25-.36-.04 0-.09 0-.13.03-.1.07-.12.2-.12.33v.24h.5zm.63.73-.13.2a.94.94 0 0 1 -.41.27 1.06 1.06 0 0 1 -.7-.04.84.84 0 0 1 -.3-.21.9.9 0 0 1 -.17-.32 1.31 1.31 0 0 1 0-.77c.04-.12.1-.22.18-.32a.86.86 0 0 1 .67-.3c.53 0 .86.37.86.81v.12h-1.13c0 .26 0 .46.1.6.08.13.24.2.41.2.22 0 .4-.17.5-.35l.12.1zm8.76-.73v-.23c0-.17-.05-.36-.24-.36-.04 0-.08 0-.12.03-.1.07-.11.2-.11.33v.24h.47zm.59.74-.1.2a.88.88 0 0 1 -.4.27.98.98 0 0 1 -.66-.04.8.8 0 0 1 -.47-.53 1.37 1.37 0 0 1 0-.77c.05-.12.1-.22.18-.32a.83.83 0 0 1 .65-.3c.5 0 .8.37.8.81v.12h-1.06c0 .26 0 .46.08.6.09.13.25.22.4.2.21 0 .38-.17.48-.35l.1.1zm-7.39-1.11c0 .21-.13.38-.32.38-.17 0-.32-.09-.32-.3 0-.06 0-.1.02-.15-.16.01-.25.09-.34.22v1.08c0 .08 0 .15.06.18a.8.8 0 0 0 .26.07v.13h-1.3v-.13l.19-.02c.1-.02.15-.1.14-.21v-1.14c0-.12-.04-.23-.15-.26l-.17-.03v-.14l.92-.07.05.03v.3c.12-.16.38-.33.6-.33s.36.16.36.39m1.14 1.61c-.15 0-.3-.02-.43-.07a1.44 1.44 0 0 1 -.34-.15l-.12.22h-.16v-1h.14c.12.35.4.8.87.8.25 0 .51-.2.5-.47 0-.1-.04-.2-.11-.28-.23-.21-.57-.27-.85-.4a.8.8 0 0 1 -.38-.32.94.94 0 0 1 -.06-.8.85.85 0 0 1 .49-.46c.12-.05.26-.07.4-.07.13 0 .26.02.39.07.1.03.2.07.28.13l.11-.12h.17v.92h-.15c-.12-.34-.34-.8-.74-.8a.42.42 0 0 0 -.44.42c0 .1.03.2.1.28.17.16.4.22.6.3.4.14.76.3.76.9a.86.86 0 0 1 -.6.83c-.14.05-.29.07-.44.07m2.32-1.09c-.12.05-.2.1-.3.18a.44.44 0 0 0 -.13.34c0 .14.07.24.2.24a.3.3 0 0 0 .23-.12zm.82 1.09h-.36a.54.54 0 0 1 -.3-.07.38.38 0 0 1 -.16-.2c-.03.04-.06.08-.1.1a.72.72 0 0 1 -.47.17.47.47 0 0 1 -.34-.13.5.5 0 0 1 -.15-.35c0-.18.1-.37.25-.46l.14-.07.37-.13.3-.12v-.31c-.01-.15-.08-.27-.23-.26-.08 0-.14 0-.2.05l.02.12c.03.08.04.16.01.23-.03.1-.18.2-.28.2a.3.3 0 0 1 -.29-.31.3.3 0 0 1 .08-.2c.05-.06.11-.1.18-.14a1.16 1.16 0 0 1 .5-.12l.26.01c.25.04.58.21.58.67v.96c0 .12.08.22.2.22v.14zm1.44 0h-1.26v-.13l.22-.04a.14.14 0 0 0 .08-.07.3.3 0 0 0 .02-.12v-2.14c0-.14-.06-.25-.19-.28a.55.55 0 0 0 -.13-.03v-.15l.92-.05.02.03v2.58l.03.12c.01.03.04.06.07.07.07.03.15.06.22.07v.13z" fill="#2f4165"/></svg>