<svg height="18" viewBox="0 0 18 18" width="18" xmlns="http://www.w3.org/2000/svg" xmlns:xlink="http://www.w3.org/1999/xlink"><linearGradient id="a" gradientUnits="userSpaceOnUse" x1="3.92" x2="5.52" y1="11.4" y2="10.95"><stop offset="0" stop-color="#675ffd"/><stop offset="1" stop-color="#314ffc"/></linearGradient><linearGradient id="b" gradientUnits="userSpaceOnUse" x1="3.74" x2="3.7" y1="11.82" y2="9.69"><stop offset=".44" stop-color="#675ffd"/><stop offset="1" stop-color="#9e6fff"/></linearGradient><linearGradient id="c" gradientUnits="userSpaceOnUse" x1="11.2" x2="9.87" y1="8.95" y2="6.75"><stop offset="0" stop-color="#9e6fff"/><stop offset="1" stop-color="#8980fb"/></linearGradient><linearGradient id="d" gradientUnits="userSpaceOnUse" x1="8.18" x2="8.8" y1="6.93" y2="11.84"><stop offset="0" stop-color="#8980fb"/><stop offset=".86" stop-color="#2ccbeb"/></linearGradient><linearGradient id="e" gradientUnits="userSpaceOnUse" x1="13.34" x2="14.37" y1="11.12" y2="6.38"><stop offset="0" stop-color="#29ceeb"/><stop offset=".27" stop-color="#2bc79f"/><stop offset="1" stop-color="#2bbf37"/></linearGradient><path d="m0 0h18v18h-18z" fill="#f0f3fa"/><path d="m11.8 10v1.15a3.6 3.6 0 0 1 -2.3.85v-1.13c1 0 1.67-.58 1.89-.87h.4z" fill="#2ccbeb"/><path d="m3.27 7.93-.92-.43a2.17 2.17 0 0 1 2.13-1.5 1.93 1.93 0 0 1 2.07 1.93v4.07h-1.05v-.76c-.39.55-1.13.68-1.45.71v-1.02c1.04 0 1.4-1.02 1.45-1.51v-1.17c0-.11-.04-1.13-1.05-1.13-.81 0-1.11.5-1.18.81z" fill="#314ffc"/><path d="m3.75 12c1.1 0 1.7-.53 1.85-.8l-.25-1.11c-.38.73-1.23.82-1.6.78z" fill="url(#a)"/><path d="m3.75 10.87v1.13c-1.31 0-1.71-1.18-1.75-1.77 0-1.66 1.9-2.03 2.8-1.98h6.3s.17.8.35 1.12h-6.31c-1.14 0-2.07.06-2.07.77 0 .56.45.72.68.73z" fill="url(#b)"/><path d="m11.61 9.37h-.17l-.7-1.04c0-1-.93-1.2-1.39-1.2v-1.13c2.22 0 2.45 2.15 2.45 2.59 0 .35-.13.67-.19.78z" fill="url(#c)"/><path d="m9.35 6c0 .34.01 1.11 0 1.12-1.23 0-1.42 1.12-1.4 1.72 0 1.56 1.01 1.99 1.57 2.03v1.13c-2.28 0-2.64-2.11-2.62-3.16 0-2.26 1.58-2.84 2.45-2.84z" fill="url(#d)"/><path d="m12.23 10h-.5l-.07 1c.19.36.92.98 2.32.98 1.41 0 1.92-1.02 2-1.53.08-.5-.06-1.6-1.32-1.89-1.57-.36-1.55-.78-1.55-.88s.13-.62.88-.62c.6 0 .91.57 1 .86l.93-.32a1.9 1.9 0 0 0 -1.94-1.6c-1.68 0-1.96 1.28-1.96 1.68s.2 1.36 1.5 1.64 1.43.75 1.43.89c0 .13-.08.66-1.04.66-.77 0-1.44-.59-1.68-.87z" fill="url(#e)"/></svg>