<svg height="18" viewBox="0 0 18 18" width="18" xmlns="http://www.w3.org/2000/svg" xmlns:xlink="http://www.w3.org/1999/xlink"><linearGradient id="a" gradientUnits="userSpaceOnUse" x1="8.99" x2="8.93" y1="2.79" y2="10.26"><stop offset=".45" stop-color="#fbb040"/><stop offset="1" stop-color="#b56536"/></linearGradient><path d="m0 0h18v18h-18z" fill="#f0f3fa"/><path d="m12.44 10.09c.77.1 1.56.35 1.56.35-.6-.38-1.5-.75-2.76-.99l-.47-1a1.5 1.5 0 1 0 -2.76.85c-1.46.11-2.46.42-2.46.42.8-.07 1.63-.08 2.42-.06v.36l.8 1.37-.39.84 1.05 2.77.99-.17 1.13-1.5.16-.77.83-.82-.32-1.33zm-1.37-.67c-.04 0-.08 0-.11-.02l-.1-.01-.1-.61.3.64zm-.36-.05-.2-.03c.06-.09.11-.18.15-.28l.05.3zm-.55-.21-.5-.51h.71c-.02.19-.1.36-.2.5zm.21-.82h-.73l.52-.52c.11.15.19.33.21.52zm-.94-.95c.19.03.36.1.51.21l-.51.51v-.71zm.42 1.9-.42-.03v-.4l.42.42zm-.73-1.9v.72l-.51-.5c.14-.12.32-.2.5-.22zm-.73.43.51.52h-.73c.03-.2.1-.37.22-.52zm.5.83-.5.5a1.1 1.1 0 0 1 -.22-.5zm.23.21v.4h-.4z" fill="#5d3c1b"/><path d="m12.85 8-1.66-2.5.15-.6-1.9-.18-.25.26-1.44-.37.1-.6-2.33.38-1.49 2.29-.03 1.09 1.43 1.32 1.34-.23.61-.29-1.17-.73 1.38-.01-.77-1.14 1.27.54-.24-1.35.94 1.01.33-1.33.44 1.3.86-1.08-.14 1.37 1.22-.64-.68 1.2 1.38-.1-1.1.83 1.29.47-1.13.25c.5.1 1 .22 1.51.4l1.13-1.71z" fill="url(#a)"/></svg>