<svg height="18" width="18" xmlns="http://www.w3.org/2000/svg" xmlns:xlink="http://www.w3.org/1999/xlink"><linearGradient id="a"><stop offset="0" stop-color="#001cb0"/><stop offset="1" stop-color="#29e4f0"/></linearGradient><linearGradient id="b" gradientUnits="userSpaceOnUse" x1="8.33" x2="9.27" xlink:href="#a" y1="4.77" y2="5.49"/><linearGradient id="c" gradientUnits="userSpaceOnUse" x1="12.14" x2="11.19" y1="6.01" y2="6.6"><stop offset="0" stop-color="#002db5"/><stop offset="1" stop-color="#29e4f0"/></linearGradient><linearGradient id="d" gradientUnits="userSpaceOnUse" x1="13.67" x2="13.09" y1="7.85" y2="8.57"><stop offset="0" stop-color="#0037b8"/><stop offset="1" stop-color="#29e4f0"/></linearGradient><linearGradient id="e" gradientUnits="userSpaceOnUse" x1="4.91" x2="6.26" y1="6.89" y2="7.7"><stop offset="0" stop-color="#002ab5"/><stop offset="1" stop-color="#29e4f0"/></linearGradient><linearGradient id="f" gradientUnits="userSpaceOnUse" x1="4.24" x2="4.79" xlink:href="#a" y1="11.21" y2="12.1"/><path d="m0 0h18v18h-18z" fill="#f0f3fa"/><path d="m8.24 4.95a.44.44 0 0 1 .88-.1l.45 3.87a.44.44 0 0 1 -.87.1z" fill="url(#b)"/><path d="m11.32 5.74a.44.44 0 0 1 .83.3l-1.08 2.94a.44.44 0 0 1 -.82-.3z" fill="url(#c)"/><path d="m13.05 7.88a.44.44 0 1 1 .65.6l-1.23 1.35a.44.44 0 0 1 -.65-.6z" fill="url(#d)"/><path d="m5 7.13a.44.44 0 1 1 .68-.55l2.44 3.04a.44.44 0 1 1 -.69.55z" fill="url(#e)"/><path d="m4.44 12.07a.44.44 0 0 1 .13-.87l2.82.45a.44.44 0 0 1 -.14.87z" fill="url(#f)"/></svg>