<svg height="18" viewBox="0 0 18 18" width="18" xmlns="http://www.w3.org/2000/svg"><path d="m0 0h18v18h-18z" fill="#f0f3fa"/><g fill="#b2204a" fill-rule="evenodd"><path d="m9 14a5 5 0 1 0 0-10 5 5 0 0 0 0 10zm0-.31a4.69 4.69 0 1 0 0-9.39 4.69 4.69 0 0 0 0 9.38z"/><path d="m10.34 11c.08 0 .14-.07.1-.14l-.84-1.73h1.52l.84 1.8c.02.05.06.07.11.07h.81c.09 0 .14-.07.11-.14l-2.21-4.57c-.2-.39-.82-.39-1.01 0l-.77 1.59-.77-1.59c-.19-.39-.82-.39-1 0l-2.23 4.57c-.03.07.02.14.1.14h.39c.04 0 .08-.02.1-.06l.88-1.81h1.93l-.85 1.73c-.03.07.03.14.11.14h.38c.05 0 .09-.02.1-.06l.66-1.34.63 1.34c.02.04.06.06.1.06h.82zm-1-2.5h1.48l-.73-1.56-.76 1.56zm-1.06 0h-1.5l.77-1.56z"/></g></svg>