<svg height="18" width="18" xmlns="http://www.w3.org/2000/svg"><path d="m0 0h18v18h-18z" fill="#fdd000"/><path d="m5.38 7.64h.4c.6-1.24 2.72-3.8 5.33-4.3 1.24-.23 2.5-.02 3 1.36.45 1.24.08 1.81-.65 2.63a1.58 1.58 0 0 0 -.33.6h.13c1.5.14 1.57 3.17.2 3.78.32.58.38 1 .12 1.64-.52 1.22-1.92 1.56-3.2 1.04l-2.18-.86c-.56 1.38-2.43 1.39-3.15.95s-1.18-1.27-.89-2.51c-1.13-.43-1.38-1.77-1.08-2.73.32-1 1.23-1.6 2.3-1.6z" fill="#fff"/><path d="m5.52 8.4c-.81 0-1.3.47-1.51 1-.35.84.15 1.69.98 1.98-.37 1.08-.08 2.31 1 2.47 1.01.14 1.49-.22 1.87-1.23l2.46 1c1.33.48 2.07.1 2.4-.47a1.38 1.38 0 0 0 -.26-1.77c1.44-.3 1.38-2.98.06-2.98h-.42c.17-.42.36-.83.56-1.1.27-.38.54-.57.66-.84.33-.72.09-1.6-.67-2.12-.7-.47-2.74.16-3.83.96a9.19 9.19 0 0 0 -2.67 3.1z" fill="#231815"/><path d="m12.46 9.85a.62.62 0 0 0 -.61-.62h-.78a5.19 5.19 0 0 1 1.42-2.84.77.77 0 0 0 .17-.84.7.7 0 0 0 -.36-.38c-.2-.08-.4-.03-.6 0-2.73.5-3.94 2.25-4.78 4.06h-1.36c-.31 0-.57.27-.57.61 0 .27.15.49.36.58l.44.16.48.19-.25.85-.12.37c-.13.38.05.8.4.93.34.14.72-.05.85-.43l.11-.34a9.41 9.41 0 0 0 .1-.32l.16-.5 3.62 1.55a.62.62 0 0 0 .35.03.66.66 0 0 0 .44-.3.78.78 0 0 0 -.06-.9 3.7 3.7 0 0 1 -.71-1.25h.69c.34 0 .61-.28.61-.62zm-2.48-1.78a5.2 5.2 0 0 0 -.25 1.16h-1.28a6.1 6.1 0 0 1 1.96-2.15c-.17.31-.31.64-.43.98zm-.07 2.78-.88-.39h.76l.06.2z" fill="#fdd000"/></svg>