<svg height="18" viewBox="0 0 18 18" width="18" xmlns="http://www.w3.org/2000/svg"><path d="m0 0h18v18h-18z" fill="#f0f3fa"/><path d="m11.57 12.05c-2.36 2.19-5.43 2.6-6.86.9-1.42-1.68-.65-4.82 1.72-7 .33-.31.67-.58 1.03-.82.3-.08.67-.16 1.05-.2-.57.26-1.13.63-1.65 1.11-1.98 1.81-2.62 4.4-1.43 5.8.55.64 1.4.92 2.34.84a2.27 2.27 0 0 1 -1.57-.75c-1.06-1.25-.49-3.57 1.29-5.19 1.48-1.34 3.33-1.78 4.51-1.16-.28-.72-.72-1.15-1.55-1.15-.42 0-.73.06-1.19.2-.2-.02-.53-.04-.88-.03 1.9-.9 3.85-.8 4.9.44.37.44.59.98.67 1.57h-1.42a1.65 1.65 0 0 0 -1.46-.87 2.2 2.2 0 0 0 -1.66.87v.22h4.57v.65h-1.66l.21-.44h-3.53l-.2.66h5.17c-.02.21-.06.43-.12.65h-1.72l.2-.44h-3.75l-.2.66h5.42a6.5 6.5 0 0 1 -.32.86h-1.77l.2-.43h-3.73l-.21.65h5.42c-.14.3-.31.59-.5.87h-1.8v-.43h-3.34c0 1.52 1.04 1.95 1.67 1.95.58 0 1.25-.43 1.25-1.08h-.42l-.09.1c-.12.16-.24.33-.74.33-.63 0-.84-.5-.84-.65h4.15c-.33.46-.71.9-1.16 1.31z" fill="#2b3b86"/></svg>