<svg height="18" width="18" xmlns="http://www.w3.org/2000/svg"><path d="m0 0h18v18h-18z" fill="#8f1417"/><path d="m6.55 10.18c.18-.89.45-1.7.77-2.44-.1.55-.08 1.33.37 1.85a6.9 6.9 0 0 1 1.19 2.5c.8.5 1.05-.35.8-.91a7.95 7.95 0 0 1 -2.24-3.72c.32-.7.68-1.3 1.05-1.85-.06.77.05 2.02.5 2.6.58.73 1.9 3.1 1.9 4.04.95-.19.9-.93.65-1.57-1.46-1.09-2.64-4.12-2.9-5.28a9.75 9.75 0 0 1 2.32-2.4 3.92 3.92 0 0 0 .6 5.27 3.93 3.93 0 0 1 1.44 2.72c.1 1.4-1.31 2.6-2.03 3.01h-3.77c-1.33-.13-2.21-.64-2.19-1.25.02-.5.93-1.38 1.38-1.76.86.23.12 1.27-.36 1.76l2.03-1.1a7.22 7.22 0 0 1 -1.5-1.47z" fill="#d99408"/></svg>