<svg height="18" viewBox="0 0 18 18" width="18" xmlns="http://www.w3.org/2000/svg"><path d="m0 0h18v18h-18z" fill="#f0f3fa"/><path d="m5 5h8v8h-8z" fill="#223268"/><path d="m13 11.01v1.1l-.65.66-.95-.96.56-.55c.5-.5.89-.35 1.04-.25zm0-4.5v3.29c-.18.24-.4.5-.66.76l-2.44 2.44h-1.38l-1.37-1.4 2.02-2.03.92.92.72-.73s.47-.5 0-.97c0 0-.33-.33-.83-.03l2.52-2.53c.16.06.33.15.5.28zm-5.3.44c.65-.66 1.1-.19 1.1-.19.48.48.01.97.01.97l-.72.73-.96-.96.56-.55zm4.19-.87c-.73 0-1.24.49-1.24.49.4-.67.44-1.2.36-1.57h-3.63l-.39.34-1.99 2v2.09l1.78 1.78 5.1-5.13z" fill="#54b4dd"/><path d="m4.67 4.71h8.66v8.58h-8.66v-8.59zm9.33-.71h-10v10h10z" fill="#223268"/></svg>