<svg height="18" viewBox="0 0 18 18" width="18" xmlns="http://www.w3.org/2000/svg"><path d="m0 0h18v18h-18z" fill="#f0f3fa"/><path d="m3 12.98 6-9.98 6 10zm.61-.34 10.78.01-5.39-8.98z" fill="#007e57"/><path d="m9 5-4.04 7h8.08z" fill="#328b67"/><path d="m13.04 12-.72-.3h-6.72l-.64.3z" fill="#1b573e"/><path d="m9 5v.88l3.32 5.81.7.31h.02z" fill="#284938"/><path d="m9 5v.88l-3.4 5.82-.64.3z" fill="#60a486"/><g fill="#f0f3fa"><path d="m8.98 5.88-1.13 2.01c.01.05.09.16.3.16.25 0 .4-.25.44-.25s.1.1.1.14c0 .03.03.06.09.06s.08 0 .23-.11c.11-.1.17-.1.19-.1s.08 0 .13.04c.06.05.1.08.15.08s.07-.01.08-.02h.1c.04 0 .08-.09.17-.09.08 0 .2.08.28.08.06 0 .04-.08.02-.12z"/><path d="m7 9h4v2h-4z" opacity=".7"/></g></svg>