<svg height="18" viewBox="0 0 18 18" width="18" xmlns="http://www.w3.org/2000/svg"><path d="m0 0h18v18h-18z" fill="#f0f3fa"/><path d="m6.38 7.22c-1.4.88-3.5 1-4.38.96 1.72 1.46 5.27 3.82 7.83 3.82a4.41 4.41 0 0 0 3.74-2.2 5.79 5.79 0 0 1 -3.9 1.47c-2.58 0-5.94-1.95-7.3-2.92a9.56 9.56 0 0 0 4.01-.56 10.71 10.71 0 0 1 3.92-1.09c1.24 0 2 .8 2.42 1.24.33.36.77.88.95 1.1-.56-2.47-2.47-3.04-3.24-3.04-.78 0-2.29.12-4.05 1.22z" fill="#037f4a"/><path d="m13.95 10.1h2.05a5.18 5.18 0 0 1 -2.6-1.16l-.8-.7c-.75-.68-1.27-1.14-2.37-1.27.22.11.72.38.95.56.09.07.32.3.61.6.68.71 1.73 1.8 2.16 1.98zm-4.45-2.42c-.36 0-.74.25-.89.38.09-.05.33-.13.64-.13.3 0 .37.2.43.35l.04.11a2 2 0 0 0 .35.38c-.2.14-.65.4-.87.4-.12 0-.21-.1-.33-.23-.15-.18-.33-.39-.63-.39a.97.97 0 0 0 -.77.33c.3 0 .55.48.64.73.03.1.15.3.41.3s.45-.07.51-.1c-.24.82-1 .9-1.34.85.06.06.26.18.62.18.38 0 .53-.17.84-.53l.17-.2.11-.13c.38-.44.7-.8 1.6-.8.8 0 1.41.2 1.62.31-1.5-1.91-2.55-2.34-2.88-2.3.54.1 1.3 1.06 1.6 1.52-.1.01-.38.03-.62 0-.23-.03-.45-.32-.53-.47-.1-.18-.37-.56-.72-.56zm-1.43 1.1-.25.03.05.02c.07.02.17.05.26.2l.07.11c.11.2.25.44.5.44.24 0 .34-.1.36-.14-.35.07-.47-.1-.6-.28a2.18 2.18 0 0 0 -.07-.1l-.02-.03c-.15-.18-.21-.26-.3-.26zm.28 1.42c-1.37.53-4.2-.87-5.43-1.63a11.06 11.06 0 0 0 4.23 1.31l-.2-.3h-.25c-.42 0-.88-.51-.97-.7-.08-.15-.28-.3-.37-.36 0-.02.1-.08.49-.17.47-.1 1.26.74 1.5 1.16s1 .7 1.02.7zm-2.3-1.6c-.13-.12-.32-.1-.4-.08.11.11.37.38.52.56.16.17.38.16.47.14l-.6-.61zm-.7.15c-.11-.13-.4-.14-.54-.12.05.02.17.1.26.26.1.16.36.14.48.1a1.75 1.75 0 0 0 -.2-.24z" fill="#845120" fill-rule="evenodd"/></svg>