<svg height="18" viewBox="0 0 18 18" width="18" xmlns="http://www.w3.org/2000/svg"><path d="m0 0h18v18h-18z" fill="#f0f3fa"/><path d="m9 14.03a5 5 0 1 0 0-10 5 5 0 0 0 0 10zm2.23-4.2a1.59 1.59 0 1 0 0-3.19 1.59 1.59 0 0 0 0 3.18z" fill="#567ec3" fill-opacity=".8" fill-rule="evenodd"/><path d="m12.34 9.65c-.04.32-.1.63-.17.93.34.07.71.12 1.1.15a9.4 9.4 0 0 0 -.01-1.13c-.33.03-.64.05-.92.05z" fill="#d0dd2b"/><path d="m10.4 6.38c-.27-.21-.53-.4-.8-.57.23-.33.45-.62.66-.86.29.24.57.5.83.79-.22.18-.46.4-.7.64z" fill="#233d6e"/><path d="m6.11 5.62.26-.2c.34-.12.7-.24 1.06-.32 0 .38.04.83.12 1.3-.42.15-.83.33-1.2.53a5.45 5.45 0 0 1 -.24-1.31z" fill="#72bd46"/><path d="m9.6 9.8c-.35.02-.72.03-1.1.03-.02.47 0 .92.03 1.34.42-.04.86-.12 1.3-.23a12.37 12.37 0 0 1 -.23-1.14z" fill="#1fb7bc"/><path d="m8.68 11.35c-.42.03-.83.03-1.26 0 .03.52.1 1.03.22 1.53.45 0 .9-.05 1.36-.12a8.48 8.48 0 0 1 -.32-1.4z" fill="#b2b0b5"/><path d="m6.83 9.92c-.5-.34-1-.75-1.46-1.24-.2.67-.31 1.33-.37 1.95.44.43.98.82 1.6 1.14.03-.56.1-1.2.23-1.85z" fill="#d0dd2b"/></svg>