<svg height="18" viewBox="0 0 18 18" width="18" xmlns="http://www.w3.org/2000/svg"><path d="m0 0h18v18h-18z" fill="#f0f3fa"/><path d="m5.91 12-1.74-3.02 1.72-2.98h3.31l.67.94c.02.03.06.06.1.06h.8c.1 0 .15-.1.1-.18l-.8-1.27a1.1 1.1 0 0 0 -.93-.55h-3.37c-.39 0-.75.2-.94.55l-1.68 2.9c-.2.34-.2.76 0 1.1l1.68 2.9c.2.34.56.55.94.55h1.85c.1 0 .16-.1.1-.18l-.41-.75c-.02-.04-.06-.07-.1-.07h-1.31z" fill="#228bc4"/><path d="m11.99 6 1.86 3-1.74 3h-3.13l-.69-.93c-.02-.03-.06-.07-.1-.07h-.97c-.1 0-.15.11-.1.2l.8 1.25c.19.34.55.55.94.55h3.37c.38 0 .75-.2.94-.55l1.68-2.9c.2-.34.2-.76 0-1.1l-1.68-2.9a1.1 1.1 0 0 0 -.94-.55h-1.85c-.1 0-.16.1-.1.18l.47.76c.02.04.06.06.1.06h1.15z" fill="#1f4280"/></svg>