<svg height="18" viewBox="0 0 18 18" width="18" xmlns="http://www.w3.org/2000/svg"><path d="m0 0h18v18h-18z" fill="#f0f3fa"/><path d="m14.23 11.44c-.92 0-1.8-.41-2.44-1.02a3.13 3.13 0 0 1 -.8-3.46c.11-.26.27-.5.49-.7.24-.24.57-.4.92-.42.34-.02.69.1.97.29l-.04-.13a1.52 1.52 0 0 0 -.59-.72c-.27-.17-.6-.27-.92-.27h-1.42c-.73 0-1.44.21-2.04.6-.6.4-1.05.95-1.3 1.59l-1.1 2.8c-.15.4-.44.74-.81.99a2.4 2.4 0 0 1 -1.27.44h-.88l.24.56h3.3c.73 0 1.44-.21 2.04-.6.6-.4 1.05-.95 1.3-1.59l.5-1.28c.1.95.59 1.83 1.35 2.47.75.64 1.74 1 2.76 1h.27l.24-.56h-.77zm-4.75-4.25-1.1 2.82c-.15.4-.44.74-.8.98a2.4 2.4 0 0 1 -1.27.45h-.12c.58-.39 1.02-1 1.27-1.63l1.1-2.81c.15-.4.44-.74.81-.98a2.4 2.4 0 0 1 1.27-.45h.12c-.59.39-1.03 1-1.28 1.63z" fill="#009490"/></svg>