<svg height="18" width="18" xmlns="http://www.w3.org/2000/svg" xmlns:xlink="http://www.w3.org/1999/xlink"><linearGradient id="a" gradientUnits="userSpaceOnUse" x1="8.96" x2="8.96" y1="8.99" y2="13.24"><stop offset="0" stop-color="#0d6539"/><stop offset="1" stop-color="#094026"/></linearGradient><linearGradient id="b" gradientUnits="userSpaceOnUse" x1="8.98" x2="8.98" y1="4.19" y2="9.6"><stop offset="0" stop-color="#1bca74"/><stop offset=".3" stop-color="#12864c"/><stop offset=".58" stop-color="#0e6a3c"/><stop offset=".72" stop-color="#159153"/><stop offset="1" stop-color="#1bca74"/></linearGradient><path d="m0 0h18v18h-18z" fill="#f0f3fa"/><path d="m15 7.27-6-4.27-6 4.27 2.29 6.73h7.43z" fill="#118b4b"/><path d="m9.02 3.45 5.45 3.92-2.06 6.18h-6.76l-2.08-6.18zm-.02.8 4.94 3.4-1.9 5.59h-6.15l-1.9-5.59z" fill="#f0f3fa"/><path d="m13.51 9h-9.1l1.46 4.24h6.25l1.4-4.25z" fill="url(#a)"/><path d="m13.75 7.33-4.75-3.13-5.03 3.43.45 1.38c.6.2 2.31.59 4.43.59s4.04-.4 4.73-.59c.63-.98.38-1.53.17-1.68z" fill="url(#b)"/><g fill="#f0f3fa" fill-rule="evenodd"><path d="m5.45 6.3-1.02 3.38.5 1.32h2.51l.7 2.42 1.1-.08-2.36-7.84-1.44.8zm.82.43-.93 3.27h1.83z"/><path d="m9 5.55h2.36l2.37 1.75.6.49-.75 1.23-.56 1.56-.06.04c-.2.1-.69.39-1.39.38h-1.57v2.27h-1zm1 .93h1.97c.32.06 1.01.44 1.23 1.47.07.58-.12 1.85-1.4 2.05h-1.8z"/></g></svg>