<svg height="18" viewBox="0 0 18 18" width="18" xmlns="http://www.w3.org/2000/svg"><path d="m0 0h18v18h-18z" fill="#f0f3fa"/><path d="m9.84 11.67c-1.01.03-1.69-.38-2.22-1.11-.25.27-.47.55-.74.77a3 3 0 0 1 -4.74-1.41 3.1 3.1 0 0 1 1.1-3.41c.6-.46 1.3-.56 2.04-.5 1.18.11 1.95.77 2.48 1.76l1.96 3.65zm-6.72-2.67c-.07 1.26 1.03 1.87 1.9 1.88a1.9 1.9 0 0 0 1.87-1.9c.02-1.3-.99-1.88-1.89-1.88-1.08 0-1.92.9-1.88 1.91z" fill="#3e007a"/><path d="m8.12 6.33a2.5 2.5 0 0 1 2.2 1.13l.25-.32c1.36-1.71 4.22-1.46 5.15.51a2.93 2.93 0 0 1 -2.09 4.12 2.96 2.96 0 0 1 -3.28-1.4c-.75-1.29-1.45-2.54-2.18-3.87zm6.78 2.58c-.01-1.09-.83-1.86-1.96-1.85a1.91 1.91 0 0 0 -1.92 1.91c-.01 1.27 1.11 1.84 1.96 1.83a1.9 1.9 0 0 0 1.92-1.9z" fill="#9c7cb8"/></svg>