<svg height="18" viewBox="0 0 18 18" width="18" xmlns="http://www.w3.org/2000/svg" xmlns:xlink="http://www.w3.org/1999/xlink"><linearGradient id="a" gradientUnits="userSpaceOnUse" x1="4" x2="14" y1="13" y2="13"><stop offset=".3" stop-color="#0c0561"/><stop offset="1" stop-color="#02c2bb"/></linearGradient><path d="m0 0h18v18h-18z" fill="#f0f3fa"/><path d="m9.54 4.45c-.15-.28-.35-.45-.55-.45s-.4.18-.54.45c-1.14 1.93-4.38 7.78-4.38 7.78a.58.58 0 0 0 -.07.23v.1c0 .03.02.05.03.06a.5.5 0 0 0 .14.23l.05.04c.1.07.22.11.34.11h3.47c.08 0 .16-.02.23-.06s.12-.1.16-.16l.78-1.35c.01-.02 0-.03-.01-.03h-2.53c-.03 0-.04-.03-.03-.05l2.34-4.18c0-.02.02-.02.03-.02.02 0 .03 0 .03.02l3.27 5.8.02.02h1.12c.13 0 .24-.04.34-.1l.05-.05a.5.5 0 0 0 .16-.28l.01-.07v-.03c-.03-.08-.04-.16-.09-.23 0 0-3.25-5.85-4.37-7.78z" fill="url(#a)"/></svg>