<svg height="18" viewBox="0 0 18 18" width="18" xmlns="http://www.w3.org/2000/svg"><path d="m0 0h18v18h-18z" fill="#f0f3fa"/><g fill="#015691"><path d="m5.83 4.72c0-.03.02-.04.04-.04h6.26c.03 0 .04 0 .04.04v3.61c0 .03 0 .05-.04.05h-6.52a.35.35 0 0 0 -.28.16l-1.96 3.5c-.17.26 0 .63.28.63h10.7c.3 0 .46-.39.27-.64l-1.12-1.45a.14.14 0 0 0 -.2-.02.18.18 0 0 0 -.02.24l1.1 1.44c.03.04.01.08-.03.08h-10.7c-.04 0-.06-.04-.04-.07l1.96-3.5c.01-.02.03-.02.04-.02h6.52c.2 0 .35-.19.35-.4v-3.61c0-.22-.15-.39-.35-.39h-6.26c-.2 0-.35.17-.35.39v2.44c0 .09.07.15.15.15.09 0 .16-.06.16-.15zm2.17 3.28v-3h.5v1h1v-1h.5v3h-.5v-1.5h-1v1.5z"/><path d="m13.28 10.8a.18.18 0 0 1 .01-.24.14.14 0 0 1 .21.02l1.12 1.45c.19.25.03.64-.27.64h-10.7c-.29 0-.45-.37-.28-.62l1.96-3.5c.07-.1.17-.16.28-.16h6.52c.03 0 .04-.02.04-.05v-3.62c0-.03 0-.04-.04-.04h-6.26c-.02 0-.04 0-.04.04v2.43c0 .1-.07.16-.16.16a.15.15 0 0 1 -.15-.16v-2.43c0-.22.16-.39.35-.39h6.26c.2 0 .35.17.35.39v3.47c0 .21-.15.4-.35.4h-6.52l-.04.01-1.96 3.65c-.02.03 0 .07.04.07h10.7c.04 0 .06-.04.04-.08zm.52 1.2-.75-1a.53.53 0 0 1 .05-.69.42.42 0 0 1 .63.06l1.12 1.45c.35.46.06 1.18-.5 1.18h-10.7c-.54 0-.84-.68-.52-1.15l1.96-3.5c.12-.17.3-.35.52-.35h6.39v-3h-6v2.15c0 .34-.3.49-.48.49-.21 0-.52-.18-.52-.49v-2.43c0-.4.36-.72.72-.72h6.41c.37 0 .87.33.87.72v3.47c0 .38-.5.81-.87.81h-6.4l-1.59 3z"/><path d="m6.84 9-1.12 3h6.76l-1.1-3h-4.55z" fill-opacity=".4"/></g></svg>