<svg fill="none" height="18" width="18" xmlns="http://www.w3.org/2000/svg"><path d="m0 0h18v18h-18z" fill="#015e70"/><path d="m9 12h-1.053c0-.13-.052-.317-.144-.563-.092-.245-.285-.704-.47-1.151h-1.79l-.306.805c-.096.288-.263.597-.263.909h-.974c.282-.155.456-.743.566-1.024l1.947-4.976 2.026 5.048c.07.23.328.815.461.952zm-2.5-3.995-.671 1.603h1.355zm4.706 3.138c.45 0 .794-.25.794-.857 0-1.05-2-.654-2-2.653 0-1.166 1.023-1.633 1.83-1.633.393 0 .791.074 1.17.188l-.014 1.116c-.235-.33-.644-.447-1.005-.447-.406 0-.981.145-.981.704 0 1.332 2 .782 2 2.725-0 1.064-.788 1.714-1.644 1.714-.45 0-.951-.08-1.356-.317v-1.083c.09.477.869.542 1.206.542z" fill="#f0f3fa"/></svg>