<svg height="18" viewBox="0 0 18 18" width="18" xmlns="http://www.w3.org/2000/svg" xmlns:xlink="http://www.w3.org/1999/xlink"><linearGradient id="a" gradientUnits="userSpaceOnUse" x1="10.51" x2="12.12" y1="8.95" y2="8.04"><stop offset="0" stop-color="#ba9223"/><stop offset=".29" stop-color="#f4c012"/></linearGradient><path d="m0 0h18v18h-18z" fill="#f0f3fa"/><path d="m9 15a6 6 0 1 0 0-12 6 6 0 0 0 0 12zm0-.5a5.5 5.5 0 1 0 0-11 5.5 5.5 0 0 0 0 11z" fill="#c9c3ae" fill-rule="evenodd"/><path d="m6.3 11h-1.88l2.87-5 2.78 5h-1.89l-.9-1.7z" fill="#a7905c"/><path d="m11.78 11-2.78-5h1.83l2.76 5z" fill="url(#a)"/></svg>