<svg height="18" viewBox="0 0 18 18" width="18" xmlns="http://www.w3.org/2000/svg"><path d="m0 0h18v18h-18z" fill="#0259ba"/><path d="m13.43 5.88h.57c-.32-.63-1.55-1.88-3.9-1.88-2.96 0-7.1 2.2-7.1 5.69-.03 1.1.77 3.31 4.17 3.31a8.45 8.45 0 0 0 5.72-2.43l-.18-.16a7.67 7.67 0 0 1 -5.14 2.18c-1.2-.01-3.6-.6-3.6-2.9 0-2.88 3.68-5.03 6.44-5.03 1.72 0 2.73.81 3.02 1.22zm-5.83 5.12h-1.6l2.54-4.27c.26-.45.75-.73 1.26-.73h1.2v5h-1.43v-1h-1.45l-.51 1zm1.96-3.82v1.82h-.93z" fill="#fff" fill-rule="evenodd"/></svg>