<svg height="18" viewBox="0 0 18 18" width="18" xmlns="http://www.w3.org/2000/svg"><path d="m0 0h18v18h-18z" fill="#f0f3fa"/><g opacity=".6"><path d="m12.3 5.25h-6.6a4.98 4.98 0 0 1 6.6 0z" fill="#5f376e"/><path d="m12.3 5.25c.41.36.76.78 1.03 1.25h-8.66c.27-.47.62-.9 1.02-1.25h6.62z" fill="#003058"/><path d="m13.33 6.5c.22.39.4.8.51 1.25h-9.68c.11-.44.29-.86.5-1.25z" fill="#0185ad"/><path d="m13.84 7.75c.1.4.16.82.16 1.25h-10a5 5 0 0 1 .16-1.25z" fill="#008262"/><path d="m13.84 10.25c.1-.4.16-.82.16-1.25h-10a5 5 0 0 0 .16 1.25z" fill="#f1c403"/><path d="m4.67 11.5c-.22-.39-.4-.8-.51-1.25h9.68c-.11.44-.29.86-.5 1.25h-8.68z" fill="#e57204"/><path d="m5.7 12.75c-.41-.36-.76-.78-1.03-1.25h8.66c-.27.47-.62.9-1.02 1.25h-6.62z" fill="#c70d2c"/><path d="m12.3 12.75a4.98 4.98 0 0 1 -6.6 0z" fill="#a5152b"/></g></svg>