<svg height="18" viewBox="0 0 18 18" width="18" xmlns="http://www.w3.org/2000/svg" xmlns:xlink="http://www.w3.org/1999/xlink"><linearGradient id="a" gradientUnits="userSpaceOnUse" x1="9" x2="9" y1="4" y2="14"><stop offset=".01" stop-color="#f26531"/><stop offset=".34" stop-color="#e63325"/><stop offset=".48" stop-color="#e31b23"/><stop offset=".55" stop-color="#df1a22"/><stop offset=".65" stop-color="#d31820"/><stop offset=".75" stop-color="#c0151b"/><stop offset=".81" stop-color="#b11116"/></linearGradient><path d="m0 0h18v18h-18z" fill="#f0f3fa"/><path d="m12.76 12h-1.56a2.2 2.2 0 0 1 -1.9-1.03v-.01l-.58-.9-1.43-2.5a.13.13 0 0 0 -.1-.06.13.13 0 0 0 -.1.05l-1.25 1.92-.67 1-.47.74a.32.32 0 0 0 -.05.17c0 .06.02.1.04.15a5 5 0 0 0 4.31 2.47c1.77 0 3.4-1.06 3.87-1.82a.12.12 0 0 0 .01-.06c0-.07-.05-.12-.12-.12zm-5.6-1.53a.6.6 0 1 1 0-1.2.6.6 0 0 1 0 1.2zm6.63-2.91c-.02-.05-.06-.03-.12-.03h-4.67c-.21 0-.39-.25-.39-.47s.18-.4.4-.41h4.19c.07 0 .12-.05.12-.12l-.01-.05a5 5 0 0 0 -9.18 3.69c.02.05.06.09.12.09.04 0 .08-.02.1-.05l2.2-3.37a.77.77 0 0 1 1.27 0l2.09 3.5c.37.55.69.66 1.17.66h2.4c.06 0 .1-.05.12-.1a4.95 4.95 0 0 0 .18-3.34zm-.7 2.44h-2.61c-.22 0-.4-.28-.4-.5s.19-.5.4-.5h2.61c.22 0 .4.28.4.5s-.17.5-.4.5zm-.36-3.85a5.4 5.4 0 0 0 -7.45 0 4.87 4.87 0 0 1 7.45 0z" fill="url(#a)"/></svg>