<svg height="18" viewBox="0 0 18 18" width="18" xmlns="http://www.w3.org/2000/svg" xmlns:xlink="http://www.w3.org/1999/xlink"><linearGradient id="a" gradientUnits="userSpaceOnUse" x1="9.23" x2="5.52" y1="7.42" y2="10.89"><stop offset="0" stop-color="#61708f"/><stop offset="1" stop-color="#61708f" stop-opacity="0"/></linearGradient><path d="m0 0h18v18h-18z" fill="#f0f3fa"/><circle cx="9.88" cy="8.13" fill="#61708f" r="1.88"/><path d="m10.55 15a5.54 5.54 0 0 0 -.54-7.47 4.76 4.76 0 0 0 -7.01.57l.76.7a3.81 3.81 0 0 1 5.6-.47 4.44 4.44 0 0 1 .44 5.98z" fill="url(#a)"/><path d="m12.32 10a3.17 3.17 0 0 0 -.32-4.27 2.72 2.72 0 0 0 -4 .33l.43.4a2.18 2.18 0 0 1 3.2-.27c.96.87 1.07 2.4.25 3.42z" fill="#61708f"/></svg>