<svg height="18" width="18" xmlns="http://www.w3.org/2000/svg"><path d="m0 0h18v18h-18z" fill="#0c203d"/><path d="m8.963 6.774a.833.833 0 0 0 -.854.81.855.855 0 0 0 1.707 0 .833.833 0 0 0 -.853-.81zm-2.497 4.484c.279-.135.353-.554.169-.935-.184-.38-.56-.578-.837-.444-.276.135-.354.554-.163.935.192.38.56.58.837.444m.925-1.228a.838.838 0 0 0 .808-.865.838.838 0 0 0 -.804-.872h-.004a.839.839 0 0 0 -.81.867l.001.005a.838.838 0 0 0 .81.865zm-2.325.948c-.142.096-.095.41.1.702.195.293.47.452.613.357.141-.095.095-.41-.101-.702s-.471-.452-.612-.357zm6.373.28c.282.136.655-.064.836-.444.182-.38.11-.8-.167-.935-.278-.136-.653.065-.838.444-.186.38-.11.8.169.935zm-.931-1.228a.839.839 0 0 0 .809-.865.812.812 0 1 0 -1.616 0 .838.838 0 0 0 .809.865m2.222 1.65c.195-.293.241-.606.1-.7-.142-.095-.416.063-.612.355-.197.293-.241.607-.1.702.142.096.415-.064.612-.357z" fill="#fff"/><g fill="#73c92d"><path d="m13.312 11.452c-.055-.034-.029-.248.069-.498.098-.248.233-.453.286-.416.158.105-.265.974-.355.918m-8.747-4.874a3.342 3.342 0 0 0 -.306.654c.071-.094.129-.198.173-.307.06-.11.105-.227.133-.349m8.778.002c.125.206.227.426.305.654a1.5 1.5 0 0 1 -.172-.308 1.404 1.404 0 0 1 -.133-.346zm-5.751-2.341a.993.993 0 0 1 -.364.064c0-.027.66-.234.71-.197a1.07 1.07 0 0 1 -.346.133zm-2.314 1.406c.03.017-.069.188-.215.373-.145.186-.298.333-.309.304-.042-.072.445-.726.524-.677zm.362 1.871c-.184.373-.11.798.169.933.278.136.652-.065.837-.444.183-.38.11-.8-.169-.934-.278-.134-.652.064-.836.444zm-1.179 1.155c.125.028.286-.208.358-.53.072-.32.03-.602-.094-.63-.124-.03-.285.207-.358.529-.074.32-.03.603.094.63zm4.502 2.84a.81.81 0 1 0 -.854-.81c.013.46.396.823.854.81zm-4.137-1.29c-.078-.318-.249-.552-.373-.52-.124.03-.162.314-.082.632.08.32.249.553.373.522.124-.03.16-.313.082-.634zm-.103-1.05c0 .386.181.698.407.698.227 0 .407-.312.407-.698s-.183-.692-.407-.692c-.223 0-.407.312-.407.697m-.563-.494c-.078 0-.141.232-.141.519s.063.523.14.523c.078 0 .141-.237.141-.523s-.062-.52-.14-.52zm2.733-1.978c.146.277.569.343.943.146.374-.198.56-.583.416-.86-.144-.278-.569-.343-.943-.146-.374.196-.555.583-.416.86zm-.445-1.308c-.29.198-.45.471-.355.611.094.14.408.09.699-.11.29-.199.448-.471.354-.61-.095-.14-.407-.09-.698.109zm-1.266 1.251c-.194.294-.236.609-.095.702.142.093.414-.067.61-.362.194-.295.235-.609.094-.701-.142-.092-.415.067-.61.36zm-.957 1.181c.06.029.188-.163.291-.417s.124-.478.07-.498c-.055-.02-.194.161-.291.414-.097.252-.13.479-.07.498m3.982 4.483c.145-.278-.04-.662-.414-.86s-.798-.132-.943.143c-.146.275.04.663.413.86.375.199.799.132.944-.145m-3.608-.858c.055-.032.029-.248-.07-.497-.098-.249-.232-.455-.286-.42-.158.106.265.975.356.918zm.644-5.085c.173-.23.26-.456.197-.498-.064-.042-.249.1-.427.331-.177.23-.26.456-.196.498.063.042.255-.1.426-.331zm3.024-1.035c0 .223.311.404.696.404.386 0 .697-.18.697-.405 0-.224-.312-.405-.697-.405-.384 0-.696.181-.696.405zm-1.513 7.082c-.29-.199-.603-.249-.698-.11-.094.14.065.412.356.612.29.199.603.248.697.108.095-.141-.063-.41-.355-.61zm-1.952-.802c-.064.046.024.272.196.497s.363.373.426.332c.064-.04-.023-.274-.196-.504s-.363-.373-.426-.331m4.858 1.358c0-.224-.312-.405-.696-.405-.385 0-.697.18-.697.405s.311.405.697.405c.385 0 .696-.18.696-.405zm-1.832-8.388c-.317.076-.55.238-.522.362.028.125.312.162.629.086s.55-.238.52-.361-.31-.163-.62-.087m-1.842.631c-.229.173-.373.365-.327.427s.27-.027.497-.202c.228-.174.373-.364.328-.427-.044-.062-.27.029-.497.202m1.879 8.052c-.318-.076-.598-.037-.622.087-.024.125.204.285.522.361.319.076.598.036.628-.087s-.214-.282-.528-.361zm-1.395.036c.047-.062-.1-.248-.327-.427-.228-.178-.451-.264-.497-.201-.046.062.043.174.186.307.116.092.235.18.36.26.124.081.248.102.28.061m1.966-8.93c0 .078.233.14.517.14.285 0 .517-.062.517-.14 0-.077-.232-.138-.517-.138-.284 0-.517.063-.517.138zm-1.746.43c.023.06.25.027.505-.07.254-.1.442-.225.42-.289-.023-.063-.249-.027-.498.071-.248.099-.442.228-.419.288m-.859.452c.183-.147.315-.289.294-.315s-.188.071-.373.217c-.185.148-.316.288-.296.315.02.028.19-.07.373-.217m3.632 8.675c0-.076-.231-.137-.516-.137-.284 0-.517.06-.517.138 0 .077.23.138.513.138h.108c.235-.014.412-.07.412-.136m4.311-3.543c.007.057.2-.844.154-.802-.07.13-.111.272-.124.42a1.612 1.612 0 0 0 -.026.381m-5.635-6.094c.248-.035.436-.096.43-.136s-.21-.043-.451-.008c-.243.034-.437.097-.43.137.006.04.207.043.45.007zm-1.443.361c.206-.102.361-.205.347-.231-.014-.027-.189.036-.392.136-.204.101-.36.206-.348.232.013.026.19-.036.393-.137zm1.854-.602c0 .024.177.044.393.044s.392-.02.392-.044c0-.025-.09-.033-.223-.044h-.328c-.137.008-.234.023-.234.04m2.862 3.033c-.277.135-.353.553-.168.934.186.38.56.579.838.444.278-.134.352-.554.167-.933-.186-.38-.559-.58-.837-.445zm1.753.44c-.124.028-.166.31-.094.63s.232.558.358.53c.125-.029.167-.312.093-.631-.074-.32-.232-.557-.357-.53zm.268 2.183c-.125-.031-.289.204-.373.521-.085.318-.043.604.082.634.124.03.29-.203.372-.522.084-.318.043-.602-.082-.633zm-.673.175c.226 0 .408-.312.408-.698 0-.385-.182-.692-.407-.692s-.41.313-.41.697c0 .385.183.699.41.699m.969-1.193c-.078 0-.141.231-.141.519 0 .287.063.523.142.523.078 0 .14-.233.14-.52 0-.286-.063-.518-.14-.518m-4.091-2.696c-.146.277.039.662.414.86.376.198.797.132.943-.146.145-.277-.037-.662-.41-.86-.372-.198-.803-.132-.948.146zm1.104-.704c-.094.14.065.412.355.611.29.2.604.25.699.11.094-.14-.065-.412-.356-.611-.29-.2-.603-.25-.697-.11zm2.059 2.062c.142-.093.1-.407-.094-.701s-.466-.456-.608-.362c-.142.093-.1.408.095.702.194.293.465.456.607.362zm.862.48c.06-.022.029-.249-.07-.498-.098-.249-.226-.44-.284-.417-.059.022-.029.25.068.498.097.249.226.44.286.417zm-2.625 3.763c-.145-.278-.568-.342-.942-.145-.374.196-.56.582-.415.86.145.277.568.343.942.145.375-.198.562-.582.415-.86zm2.033-4.896c.064-.047-.023-.272-.194-.498-.172-.225-.365-.384-.427-.332s.025.273.196.498c.172.225.363.373.427.331m-1.943 5.716c-.29.2-.451.472-.355.61.095.138.406.09.697-.108.29-.2.45-.473.356-.611-.095-.139-.408-.09-.698.11zm1.529-.472c-.173.23-.26.457-.196.504.063.048.254-.1.426-.33.172-.232.26-.458.197-.505-.064-.047-.25.101-.427.331zm-.051-6.294c-.028.017.07.189.215.373.146.184.294.33.311.301.042-.072-.445-.725-.526-.677m-2.548-1.069c-.317-.076-.6-.038-.628.087-.029.124.203.285.52.361.318.076.6.037.628-.086.03-.123-.203-.286-.52-.362zm1.834.631c-.227-.173-.45-.264-.497-.202-.046.062.1.25.329.427.228.178.45.264.497.202.046-.063-.1-.25-.327-.427m-1.877 8.052c-.318.076-.552.236-.522.361s.31.162.621.087c.311-.074.553-.237.522-.36-.03-.124-.31-.164-.627-.088m2.223-.592c-.047-.063-.27.027-.497.201-.228.175-.373.365-.327.427.032.041.142.014.28-.06.138-.075.24-.168.355-.258.145-.135.227-.261.19-.31m-1.552-7.943c.249.098.48.124.497.07.018-.053-.164-.187-.418-.287-.255-.1-.48-.124-.498-.071-.017.054.164.188.419.288zm1.353.523c.185.147.351.249.374.217.022-.03-.11-.167-.295-.315-.184-.146-.35-.248-.372-.217-.023.03.11.168.294.315zm-1.29 8.311c-.248.103-.44.234-.415.294l.918-.373c-.024-.06-.25-.026-.498.078"/><path d="m10.77 13.555c-.248.103-.457.249-.415.293.043.045.907-.33.918-.373.015-.062-.249-.025-.497.079m-1.025-9.269c.249.036.445.032.452-.007.006-.04-.187-.101-.43-.137-.244-.036-.446-.031-.45.008-.005.04.185.101.428.136zm1.442.361c.204.1.381.162.393.137.013-.025-.142-.124-.347-.232-.205-.107-.383-.163-.393-.137-.01.027.142.125.347.232zm-.875-.406a.98.98 0 0 0 .364.065c0-.027-.66-.234-.71-.197.107.064.224.108.346.132zm3.502 4.128c-.04-.25-.036-.437 0-.454.081-.033.178.872.144.883s-.109-.185-.148-.43m-6.677 5.19c.248.104.457.249.416.294-.04.045-.907-.331-.919-.374-.015-.062.25-.024.498.08m2.763.377c.121-.035.247-.047.373-.037 0 .028-.676.183-.723.142.111-.056.231-.091.355-.105m-1.842 0a1.038 1.038 0 0 0 -.374-.037c0 .028.676.183.724.142a1.08 1.08 0 0 0 -.356-.105"/></g></svg>