<svg height="18" width="18" xmlns="http://www.w3.org/2000/svg"><path d="m0 0h18v18h-18z" fill="#f6f8fd"/><path d="m5.703 10.153s.678.17.839-.114c.376-.667-.702-2.798-.702-2.798s1.25 2.758 2.686 4.034c.787.7 1.69.742 2.31.423 1.265-.651 2.958-3.888 3.147-4.213.188-.326-1.232 2.928-1.728 3.66s-.924 1.578-2.532 1.626c-1.922.059-4.02-2.618-4.02-2.618z" fill="#1f99d6"/><path d="m4 8.278c0-.338.28-.611.625-.611.346 0 .625.273.625.61 0 .338-.28.612-.625.612a.618.618 0 0 1 -.625-.611z" fill="#bcdcf5"/><path d="m8.749 4.882c.725-.237.756.183.29.684a91.303 91.303 0 0 1 -1.522 1.544s2.314-1.971 2.959-1.773c.531.162.309.878.222 1.138-.085.262-1.128 2.946-4.908 8.525-.041.061 5.558-6.295 5.8-8.995.204-2.294-.976-2.001-1.061-1.984-1.003.19-1.78.861-1.78.861z" fill="#1f3462"/></svg>