<svg height="18" viewBox="0 0 18 18" width="18" xmlns="http://www.w3.org/2000/svg"><path d="m0 0h18v18h-18z" fill="#363935"/><path d="m11.13 6.43a5.3 5.3 0 0 0 -5.06 2.77c0 .43.14 1.29.59 1.3.1 0 .42-.1.87-.57-.1.33-.48 1.02-1.17 1.06-.2.02-.6-.22-.68-1.38-.41.46-1.5 1.38-2.63 1.38-1.12 0-1.13-.95-.99-1.43.25-.8 1.16-2.42 2.8-2.55.38-.02 1.15.18 1.24 1.26.5-.79 2.22-2.26 5.03-1.85zm-5.37 2.35c.09-.48.07-1.47-.75-1.54-1.02-.08-2.02 1.43-2.2 1.9-.16.43-.23.89-.03 1.3.25.5 1.5.23 2.98-1.66z" fill="#0f0"/><path d="m8 9.88v-3.68a.87.87 0 0 1 .43-.2v3.7c-.04 1.14.8 1.12 1.24.98l-.08.23c-1.35.36-1.59-.46-1.59-1.03zm4.67.99a4.5 4.5 0 0 1 -.91.13c-.46 0-1.69-.08-1.75-1.45-.06-1.36.15-1.77.3-1.98.14-.17.46-.58 1.23-.57.77 0 1.34.5 1.37 1.2v.23c0 .36 0 .72-.24.72h-2.24c-.04.54.17 1.6 1.33 1.6.22-.01.73-.04.98-.13zm-.15-1.89v-.46c.02-.38-.14-1.13-.99-1.12-1 .01-1.05.75-1.08 1.06v.52zm1.45-1.66c.64-.49 1.63-.3 2.03-.18l-.12.37a2.24 2.24 0 0 0 -1.15-.06c-.7.12-.82.64-.86 1.67-.03 1.1.64 1.59 1.2 1.6.45.01.8-.08.93-.12l-.07.25c-.23.12-.67.15-.86.15-1.1 0-1.52-.66-1.6-1.13-.1-.66-.16-2.04.5-2.55z" fill="#fff"/></svg>