<svg height="18" viewBox="0 0 18 18" width="18" xmlns="http://www.w3.org/2000/svg"><path d="m0 0h18v18h-18z" fill="#f0f3fa"/><path d="m5.64 10.7h.83l1.07-1.13c.16-.07.58-.15 1-.15h.87l-1.56 4.16h.78l1.25-4.16h1.45c.06 0 .14.05.21.08l.04.02.24-.6-.13.05c-.16.05-.4.13-.57.13h-1.14l.71-2.22h-.77zm2.54-1.69 1.62-1.6c.1-.08.31-.22.46-.23l-.71 1.92h-1.09c-.09-.01-.23-.03-.28-.09z"/><path d="m14 6h-10v5h1.7c-.18-.14-.3-.73-.37-.93-.29-.99 1.17-2.27 3.25-2.87 2.09-.6 4.02-.28 4.3.7.27.9-.88 2.45-2.64 3.1h3.76z" fill="#013c80"/></svg>