<svg height="18" width="18" xmlns="http://www.w3.org/2000/svg" xmlns:xlink="http://www.w3.org/1999/xlink"><linearGradient id="a" gradientUnits="userSpaceOnUse" x1="3.647" x2="15.144" y1="8.965" y2="7.627"><stop offset="0" stop-color="#0097cc" stop-opacity="0"/><stop offset=".22" stop-color="#0097cc" stop-opacity=".01"/><stop offset=".445" stop-color="#0097cc"/><stop offset=".71" stop-color="#0097cc" stop-opacity="0"/></linearGradient><path d="m0 0h18v18h-18z" fill="#f0f3fa"/><path d="m8.778 7.865h-1.111v-2.865l-3.667 7h2.903c.46-.8.851-1.636 1.172-2.393.28-.123.825-.33 1.192-.465zm2.753.598a67.754 67.754 0 0 1 2.472-.621c.565-.135.98-.658.997-1.298.017-.744-.548-1.366-1.265-1.384-.706-.019-1.294.584-1.312 1.335-.006.596.344 1.107.834 1.298l-1.97.08zm2.886-1.236c-.152-.111-.408-.179-.7-.179-.291 0-.548.074-.7.179l-.35-.597.152-.277.216.388.292-.074-.187-.468.571-.731.572.731-.187.468.291.074.216-.388.152.277z" fill="#0b3b60"/><path d="m8.77 7.864h-1.102v-2.864l-3.668 7h2.903c.46-.8.852-1.636 1.173-2.393.28-.123.816-.322 1.183-.457l-.488-1.286zm2.761.6a67.754 67.754 0 0 1 2.472-.622c.565-.135.98-.658.997-1.298.017-.744-.548-1.366-1.265-1.384-.706-.019-1.294.584-1.312 1.335-.006.596.344 1.107.834 1.298l-1.97.08.244.59zm2.886-1.237c-.152-.111-.408-.179-.7-.179-.291 0-.548.074-.7.179l-.35-.597.152-.277.216.388.292-.074-.187-.468.571-.732.572.732-.187.468.291.074.216-.388.152.277z" fill="url(#a)"/><path d="m10.354 12h2.903l-2.938-6.994h-.759l-1.893-.006z" fill="#0b3b60"/></svg>