<svg height="18" viewBox="0 0 18 18" width="18" xmlns="http://www.w3.org/2000/svg" xmlns:xlink="http://www.w3.org/1999/xlink"><mask id="a" height="9" maskUnits="userSpaceOnUse" width="8" x="6" y="4"><path d="m7.58 4-.78 2.08 1.54.46s.36.11.41-.12c0 0 .46-.67.49-1.11 0 0 .04 1.62.35 1.71 0 0 2.79 1.59 4.3 5.4 0 0-.47-6.03-6.31-8.42z" fill="#fff"/></mask><mask id="b" height="7" maskUnits="userSpaceOnUse" width="9" x="5" y="6"><path d="m14 13s-3.3-4.49-8.36-3.94l1.03-2.58s1.93.14 1.93 1.13l.12 1.3s.22-1.53.88-1.32c0 0 2.78 1.57 4.4 5.41z" fill="#fff"/></mask><path d="m0 0h18v18h-18z" fill="#f0f3fa"/><g mask="url(#a)"><path d="m6.95 4h-.15v8.43h.15z" fill="#2e70ac"/><path d="m7.1 4h-.15v8.43h.15z" fill="#2e71ad"/><path d="m7.25 4h-.15v8.43h.15z" fill="#2f72ae"/><path d="m7.4 4h-.15v8.43h.15z" fill="#2f74af"/><path d="m7.56 4h-.16v8.43h.16z" fill="#3075b0"/><path d="m7.7 4h-.14v8.43h.15v-8.43z" fill="#3076b1"/><path d="m7.86 4h-.16v8.43h.15v-8.43z" fill="#3177b2"/><path d="m8 4h-.14v8.43h.14z" fill="#3178b3"/><path d="m8.16 4h-.16v8.43h.15v-8.43z" fill="#3279b3"/><path d="m8.31 4h-.15v8.43h.15z" fill="#327ab4"/><path d="m8.46 4h-.15v8.43h.15z" fill="#337cb5"/><path d="m8.61 4h-.15v8.43h.15z" fill="#347db5"/><path d="m8.76 4h-.15v8.43h.15z" fill="#347eb6"/><path d="m8.91 4h-.15v8.43h.15z" fill="#357fb7"/><path d="m9.06 4h-.15v8.43h.15z" fill="#3580b8"/><path d="m9.21 4h-.15v8.43h.15z" fill="#3680b9"/><path d="m9.37 4h-.17v8.43h.16v-8.43z" fill="#3680ba"/><path d="m9.52 4h-.15v8.43h.15z" fill="#3781ba"/><path d="m9.67 4h-.15v8.43h.15z" fill="#3782bb"/><path d="m9.82 4h-.15v8.43h.15z" fill="#3884bc"/><path d="m9.97 4h-.15v8.43h.15z" fill="#3885bd"/><path d="m10.12 4h-.15v8.43h.15z" fill="#3986be"/><path d="m10.27 4h-.15v8.43h.15z" fill="#3987bf"/><path d="m10.42 4h-.15v8.43h.15z" fill="#3a88bf"/><path d="m10.57 4h-.15v8.43h.15z" fill="#3a89c0"/><path d="m10.72 4h-.15v8.43h.15z" fill="#3b8ac0"/><path d="m10.87 4h-.15v8.43h.15z" fill="#3b8bc1"/><path d="m11.02 4h-.15v8.43h.15z" fill="#3c8cc2"/><path d="m11.18 4h-.16v8.43h.16z" fill="#3c8dc3"/><path d="m11.33 4h-.15v8.43h.15z" fill="#3d8dc4"/><path d="m11.48 4h-.15v8.43h.15z" fill="#3d8ec4"/><path d="m11.63 4h-.15v8.43h.15z" fill="#3e8fc5"/><path d="m11.78 4h-.15v8.43h.15z" fill="#3e90c6"/><path d="m11.93 4h-.15v8.43h.15z" fill="#3f91c6"/><path d="m12.08 4h-.15v8.43h.15z" fill="#3f92c7"/><path d="m12.23 4h-.15v8.43h.15z" fill="#4093c7"/><path d="m12.38 4h-.15v8.43h.15z" fill="#4094c8"/><path d="m12.53 4h-.15v8.43h.15z" fill="#4195c9"/><path d="m12.68 4h-.15v8.43h.15z" fill="#4196ca"/><path d="m12.83 4h-.15v8.43h.15zm.15 0h-.15v8.43h.15z" fill="#4296cb"/><path d="m13.14 4h-.16v8.43h.16z" fill="#4297cc"/><path d="m13.29 4h-.15v8.43h.15z" fill="#4298cc"/><path d="m13.44 4h-.15v8.43h.15z" fill="#4399cc"/><path d="m13.59 4h-.15v8.43h.15z" fill="#449acd"/><path d="m13.74 4h-.15v8.43h.15z" fill="#449ace"/></g><g mask="url(#b)"><path d="m6 6.48h-.18v6.52h.17v-6.52z" fill="#2e71ad"/><path d="m6.17 6.48h-.17v6.52h.18v-6.52z" fill="#2f72ae"/><path d="m6.35 6.48h-.18v6.52h.18z" fill="#2f74af"/><path d="m6.53 6.48h-.18v6.52h.18z" fill="#3075b0"/><path d="m6.7 6.48h-.17v6.52h.17z" fill="#3076b1"/><path d="m6.88 6.48h-.17v6.52h.17z" fill="#3177b2"/><path d="m7.06 6.48h-.18v6.52h.18z" fill="#3178b3"/><path d="m7.24 6.48h-.18v6.52h.18z" fill="#3279b3"/><path d="m7.42 6.48h-.18v6.52h.18z" fill="#327ab4"/><path d="m7.6 6.48h-.18v6.52h.17v-6.52z" fill="#337cb5"/><path d="m7.77 6.48h-.17v6.52h.18v-6.52z" fill="#347db5"/><path d="m7.95 6.48h-.18v6.52h.18z" fill="#347eb6"/><path d="m8.13 6.48h-.18v6.52h.18z" fill="#357fb7"/><path d="m8.3 6.48h-.17v6.52h.18v-6.52z" fill="#3580b8"/><path d="m8.48 6.48h-.17v6.52h.17z" fill="#3680b9"/><path d="m8.66 6.48h-.18v6.52h.18z" fill="#3680ba"/><path d="m8.84 6.48h-.18v6.52h.18z" fill="#3781ba"/><path d="m9.02 6.48h-.18v6.52h.18z" fill="#3782bb"/><path d="m9.2 6.48h-.18v6.52h.17v-6.52z" fill="#3884bc"/><path d="m9.37 6.48h-.17v6.52h.17z" fill="#3885bd"/><path d="m9.55 6.48h-.18v6.52h.18z" fill="#3986be"/><path d="m9.73 6.48h-.18v6.52h.18z" fill="#3987bf"/><path d="m9.9 6.48h-.17v6.52h.18v-6.52z" fill="#3a88bf"/><path d="m10.08 6.48h-.17v6.52h.17z" fill="#3a89c0"/><path d="m10.26 6.48h-.18v6.52h.18z" fill="#3b8ac0"/><path d="m10.44 6.48h-.18v6.52h.18z" fill="#3b8bc1"/><path d="m10.62 6.48h-.18v6.52h.18z" fill="#3c8cc2"/><path d="m10.8 6.48h-.18v6.52h.18z" fill="#3c8dc3"/><path d="m10.97 6.48h-.17v6.52h.17z" fill="#3d8dc4"/><path d="m11.15 6.48h-.18v6.52h.18z" fill="#3d8ec4"/><path d="m11.33 6.48h-.18v6.52h.18z" fill="#3e8fc5"/><path d="m11.5 6.48h-.17v6.52h.18v-6.52z" fill="#3e90c6"/><path d="m11.69 6.48h-.18v6.52h.18z" fill="#3f91c6"/><path d="m11.86 6.48h-.17v6.52h.17z" fill="#3f92c7"/><path d="m12.04 6.48h-.18v6.52h.18z" fill="#4093c7"/><path d="m12.22 6.48h-.18v6.52h.18z" fill="#4094c8"/><path d="m12.4 6.48h-.18v6.52h.18z" fill="#4195c9"/><path d="m12.57 6.48h-.17v6.52h.17z" fill="#4196ca"/><path d="m12.75 6.48h-.18v6.52h.18zm.18 0h-.18v6.52h.18z" fill="#4296cb"/><path d="m13.1 6.48h-.17v6.52h.18v-6.52z" fill="#4297cc"/><path d="m13.29 6.48h-.18v6.52h.18z" fill="#4298cc"/><path d="m13.46 6.48h-.17v6.52h.17z" fill="#4399cc"/><path d="m13.64 6.48h-.18v6.52h.18z" fill="#449acd"/><path d="m13.82 6.48h-.18v6.52h.18z" fill="#449ace"/><path d="m14 6.48h-.18v6.52h.18z" fill="#449bce"/></g><path d="m13.68 12.87s-5.08-2.47-9.68 0l1.4-3.44s4.55-.63 8.28 3.44z" fill="#2a4b8f"/></svg>