<svg height="18" width="18" xmlns="http://www.w3.org/2000/svg" xmlns:xlink="http://www.w3.org/1999/xlink"><linearGradient id="a" gradientUnits="userSpaceOnUse" x1="3.349" x2="21.904" y1="3.122" y2="24.434"><stop offset="0" stop-color="#1a1e21"/><stop offset="1" stop-color="#06060a"/></linearGradient><path d="m0 0h18v18h-18z" fill="url(#a)"/><path d="m6 4h-2v2h2z" fill="#004f7f"/><path d="m10 4h-2v2h2z" fill="#faa61a"/><path d="m14 4h-2v2h2z" fill="#8e181b"/><path d="m6 4h2v2h-2zm0 2v2h-2v-2z" fill="#0084c3"/><path d="m8 6h-2v2h2z" fill="#68c3ee"/><path d="m10 6h-2v2h2z" fill="#f58020"/><path d="m10 4h2v2h-2zm2 2h2v2h-2z" fill="#c3262d"/><path d="m6 8h-2v2h2z" fill="#76cccd"/><path d="m8 8h-2v2h2z" fill="#00b3c2"/><path d="m12 8h-2v2h2z" fill="#df9d88"/><path d="m10 6h2v2h-2zm2 2v2h2v-2z" fill="#ed1c24"/><path d="m8 8h2v2h-2zm2 2h2v2h-2z" fill="#e2c197"/><path d="m6 12h-2v2h2z" fill="#00aa4f"/><path d="m4 10h2v2h-2zm2 2h2v2h-2z" fill="#75c043"/><path d="m6 10h2v2h-2zm2 2h2v2h-2z" fill="#c4d92d"/><path d="m12 10h2v2h-2zm-2 2h2v2h-2z" fill="#d7a96f"/><path d="m8 10h2v2h-2zm4 2h2v2h-2z" fill="#eee1c5"/></svg>