<svg height="18" viewBox="0 0 18 18" width="18" xmlns="http://www.w3.org/2000/svg"><path d="m0 0h18v18h-18z" fill="#f0f3fa"/><path d="m6.67 11.62c0 .21-.15.38-.33.38a.33.33 0 0 1 -.3-.24l-.44-1.26h-2.53l-.43 1.26a.32.32 0 0 1 -.3.24c-.2 0-.34-.17-.34-.37l.03-.15 1.78-5.08c.09-.24.29-.4.53-.4s.44.16.52.4l1.78 5.07.03.14zm-1.2-1.62-1.14-3.3-1.11 3.3h2.24zm2.53 1.6v-5.22c0-.2.14-.37.32-.37.16 0 .35.17.35.37v4.88h2.04c.15 0 .29.24.29.42s-.14.33-.29.33h-2.38c-.21 0-.33-.14-.33-.4zm7.05-5.25c.12-.21.23-.35.5-.35.23 0 .3.1.3.22 0 .09-.04.18-.13.32l-1.45 2.3 1.6 2.6c.1.15.13.24.13.32 0 .14-.1.24-.34.24-.27 0-.38-.13-.5-.36l-1.36-2.27-1.34 2.28c-.12.21-.24.35-.5.35-.22 0-.3-.1-.3-.22 0-.1.04-.18.14-.33l1.61-2.59-1.41-2.3c-.1-.15-.14-.24-.14-.33 0-.14.1-.23.33-.23.27 0 .38.12.52.36l1.14 1.98 1.2-2z" fill="#b8024a"/></svg>