<svg height="18" viewBox="0 0 18 18" width="18" xmlns="http://www.w3.org/2000/svg"><path d="m0 0h18v18h-18z" fill="#c1fe00"/><path d="m6.26 5.78c.02.2.1.38.24.52l1.81 1.84c.33.33.87.33 1.2 0l1.81-1.84a.87.87 0 0 0 0-1.21l-1.81-1.84a.84.84 0 0 0 -1.2 0l-1.8 1.85c-.1.1-.18.22-.22.34h1.73l.03-.01-.06-.64a.1.1 0 0 1 .16-.1l1.48.75c.16.08.16.3 0 .38l-1.48.79a.1.1 0 0 1 -.16-.1l.06-.7s-.01-.02-.03-.02h-1.76z" fill="#fc383a"/><path d="m11.57 12.39a.86.86 0 0 1 -.24.52l-1.83 1.84a.84.84 0 0 1 -1.2 0l-1.8-1.84a.87.87 0 0 1 0-1.21l1.8-1.84a.84.84 0 0 1 1.2 0l1.82 1.84c.1.1.17.22.2.34h-1.72a.02.02 0 0 1 -.02-.02l.05-.63a.1.1 0 0 0 -.15-.1l-1.49.75a.22.22 0 0 0 0 .38l1.49.78a.1.1 0 0 0 .15-.1l-.05-.69.02-.02z" fill="#1c364d"/><path d="m12.26 6.3a.84.84 0 0 0 -.51.25l-1.82 1.85a.87.87 0 0 0 0 1.21l1.82 1.84c.33.34.86.34 1.19 0l1.81-1.84a.87.87 0 0 0 0-1.2l-1.81-1.85a.84.84 0 0 0 -.34-.2v1.74c0 .01 0 .02.02.02l.63-.05c.08-.01.14.08.1.15l-.75 1.51a.21.21 0 0 1 -.37 0l-.77-1.5c-.04-.08.02-.17.1-.16l.68.05.02-.02zm.1 0h-.03z" fill="#ff7b1f"/><path d="m5.74 11.7c.19-.02.37-.1.51-.25l1.82-1.85a.87.87 0 0 0 0-1.21l-1.82-1.83a.84.84 0 0 0 -1.19 0l-1.81 1.84a.87.87 0 0 0 0 1.2l1.81 1.85c.1.1.22.17.34.21v-1.76a.02.02 0 0 0 -.02-.02l-.63.05a.1.1 0 0 1 -.1-.15l.75-1.51c.07-.16.3-.16.37 0l.77 1.5c.04.08-.02.17-.1.16l-.68-.05-.02.02z" fill="#007060"/></svg>