<svg height="18" width="18" xmlns="http://www.w3.org/2000/svg"><path d="m0 0h18v18h-18z" fill="#e51937"/><path d="m14 9.007c0 2.768-2.239 4.993-5.02 4.993-2.741 0-4.98-2.239-4.98-4.993a5 5 0 1 1 10 0zm-4.886-.66c-.312-.242-.474-.347-.787-.347-.556.014-.89.402-.89.958v.74c0 .204.09.302.252.302.163 0 .258-.085.258-.274v-.727c0-.285.163-.434.448-.42.258 0 .42.162.434.434v.713c0 .217.13.274.285.274s.258-.125.258-.274v-.673c0-.284.176-.474.448-.46.271 0 .416.176.43.474v.645c0 .16.12.288.284.288.163 0 .25-.133.25-.274v-.808c0-.448-.353-.918-.89-.918-.536 0-.78.348-.78.348zm-1.804.774v-.836c0-.176-.095-.271-.258-.285-.923-.081-1.83.389-2.25 1.23-.096.19-.136.292-.177.51-.027.135.054.26.177.26h1.52c.148 0 .244-.125.244-.288s-.105-.2-.295-.2h-.855c-.095 0-.108-.042-.081-.11.23-.556.771-.713 1.314-.767.095-.013.168.021.168.116v.988c.027.163.126.261.275.261.15-.014.231-.119.231-.295-.013-.23-.013-.584-.013-.584zm4.708.879c.41 0 .69-.145.95-.5.054-.15.075-.257-.06-.31-.136-.055-.258-.052-.326.07-.136.272-.367.364-.665.336-.299-.04-.49-.244-.503-.543-.014-.298.136-.542.421-.61.34-.081.682.023.804.308.04.095.099.167.194.167.203.027.285-.128.23-.272-.163-.42-.653-.646-1.045-.646-.559 0-1.062.406-1.062 1 0 .774.651 1 1.062 1z" fill="#fff"/></svg>