<svg fill="none" height="18" width="18" xmlns="http://www.w3.org/2000/svg" xmlns:xlink="http://www.w3.org/1999/xlink"><linearGradient id="a" gradientUnits="userSpaceOnUse" x1="5.42" x2="3.97" y1="6.381" y2="10.398"><stop offset="0" stop-color="#02102f"/><stop offset="1" stop-color="#01122c"/></linearGradient><linearGradient id="b" gradientUnits="userSpaceOnUse" x1="8.788" x2="5.663" y1="4.739" y2="8.368"><stop offset="0" stop-color="#05a0cd"/><stop offset=".143" stop-color="#1197d1"/><stop offset="1" stop-color="#034d78"/></linearGradient><linearGradient id="c" gradientUnits="userSpaceOnUse" x1="10.779" x2="13.484" y1="4.22" y2="5.57"><stop offset="0" stop-color="#43a95c"/><stop offset="1" stop-color="#1c9443"/></linearGradient><linearGradient id="d" gradientUnits="userSpaceOnUse" x1="11.021" x2="7.884" y1="5.128" y2="6.868"><stop offset="0" stop-color="#74c598"/><stop offset=".685" stop-color="#dcebf1"/><stop offset="1" stop-color="#92bdd1"/></linearGradient><linearGradient id="e" gradientUnits="userSpaceOnUse" x1="13.999" x2="10.681" y1="8.059" y2="11.361"><stop offset="0" stop-color="#01a3db"/><stop offset=".472" stop-color="#227fb4"/><stop offset="1" stop-color="#196285"/></linearGradient><linearGradient id="f" gradientUnits="userSpaceOnUse" x1="12.483" x2="11.011" y1="5.748" y2="10.501"><stop offset="0" stop-color="#65bf88"/><stop offset=".634" stop-color="#c4e3ef"/><stop offset="1" stop-color="#7caec3"/></linearGradient><linearGradient id="g" gradientUnits="userSpaceOnUse" x1="7.713" x2="6.756" y1="7.814" y2="9.699"><stop offset="0" stop-color="#81d1ef"/><stop offset=".513" stop-color="#a2d8f0"/><stop offset="1" stop-color="#78b0cb"/></linearGradient><linearGradient id="h" gradientUnits="userSpaceOnUse" x1="6.676" x2="6.09" y1="9.761" y2="12.458"><stop offset="0" stop-color="#08496c"/><stop offset="1" stop-color="#003557"/></linearGradient><linearGradient id="i" gradientUnits="userSpaceOnUse" x1="7.493" x2="9.326" y1="10.693" y2="11.519"><stop offset="0" stop-color="#6299b5"/><stop offset="1" stop-color="#badee6"/></linearGradient><linearGradient id="j" gradientUnits="userSpaceOnUse" x1="6.555" x2="7.808" y1="12.544" y2="13.602"><stop offset="0" stop-color="#010d25"/><stop offset="1" stop-color="#01122e"/></linearGradient><linearGradient id="k" gradientUnits="userSpaceOnUse" x1="10.878" x2="9.888" y1="10.991" y2="11.589"><stop offset="0" stop-color="#a7cedf"/><stop offset="1" stop-color="#7caec3"/></linearGradient><linearGradient id="l" gradientUnits="userSpaceOnUse" x1="10.22" x2="7.903" y1="11.97" y2="12.666"><stop offset="0" stop-color="#3379ac"/><stop offset="1" stop-color="#0f3d60"/></linearGradient><linearGradient id="m" gradientUnits="userSpaceOnUse" x1="12.002" x2="9.16" y1="11.863" y2="13.771"><stop offset="0" stop-color="#054682"/><stop offset="1" stop-color="#012146"/></linearGradient><path d="m0 0h18v18h-18z" fill="#f0f3fa"/><path d="m5.272 6.308c-1.444 1.141-1.772 2.194-1.772 2.677 0 .863.561 1.766 1.125 2.432.854 1.01 2.316 2.062 3.543 2.444 2.058.641 4.031-1.04 4.938-2.953-.752 1.337-2.748 1.002-3.89.51a8.773 8.773 0 0 1 -2.057-1.257c-1.446-1.196-2.579-3.176-1.196-4.358-.238.16-.468.329-.691.505z" fill="#31209e" opacity=".5"/><path d="m4.225 7.332c.257-.323.598-.67 1.047-1.024.223-.176.453-.345.691-.505-.988.844-.691 2.097.086 3.18a7.919 7.919 0 0 0 -.265.306 4.258 4.258 0 0 0 -.375.538c-.369.644-.486 1.084-.487 1.403-.002.335.123.545.22.708l.037.061a7.283 7.283 0 0 1 -.765-.842c-.484-.631-.914-1.417-.914-2.172 0-.06.005-.13.017-.207.053-.349.242-.86.708-1.446z" fill="url(#a)"/><path d="m6.049 8.983a10.23 10.23 0 0 1 1.665-1.464c.217-.808.528-1.632.959-2.296.29-.448.592-.824 1.108-1.098a6.734 6.734 0 0 0 -.373.09 11.76 11.76 0 0 0 -3.445 1.588c-.988.845-.691 2.097.086 3.18z" fill="url(#b)"/><path d="m5.31 12.12a8.469 8.469 0 0 0 0 0zm2.973 1.775a3.367 3.367 0 0 1 -.115-.034c-.93-.29-1.997-.965-2.83-1.715l-.028-.026c.469.38 1.123.39 1.684.325.146-.017.293-.04.44-.067.244 1.005.68 1.417.85 1.517z" fill="#076a2e" opacity=".5"/><path d="m10.292 4.038a5.515 5.515 0 0 0 -.176.025c.627.022 1.064.73 1.27 1.777.134-.025.268-.045.403-.061 1.505-.179 1.992.365 2.159.889a4.419 4.419 0 0 0 -.12-.543c-.222-.773-.83-2.017-2.679-2.118a4.622 4.622 0 0 0 -.857.031z" fill="url(#c)"/><path d="m9.78 4.125c-.515.274-.816.65-1.107 1.098-.43.664-.742 1.488-.96 2.296a11.459 11.459 0 0 1 2.814-1.45c.282-.099.569-.175.86-.229-.207-1.048-.644-1.755-1.271-1.777a5.469 5.469 0 0 1 -.335.062z" fill="url(#d)"/><path d="m8.717 13.979c1.636.195 3.16-.99 4.064-2.47.129-.212.245-.429.347-.65.291-.626.893-2.15.871-3.588a4.272 4.272 0 0 0 -.017-.322c-.032.763-.4 1.353-.79 1.87-.528.719-1.31 1.433-2.212 2.037l-.078.243c-.555 1.662-1.432 2.88-2.185 2.88z" fill="url(#e)"/><path d="m11.79 5.774c1.489-.176 1.982.362 2.154.88.004.01.007.02.008.032.008.053.022.18.03.239a.3.3 0 0 1 0 .071c-.044.743-.405 1.32-.787 1.826-.528.72-1.311 1.434-2.213 2.038.278-.898.451-1.849.516-2.79.057-.824.02-1.587-.11-2.231.134-.025.268-.049.403-.065z" fill="url(#f)"/><path d="m6.049 8.983a6.416 6.416 0 0 0 1.228 1.274 13.619 13.619 0 0 1 .436-2.739 10.162 10.162 0 0 0 -1.665 1.464z" fill="url(#g)"/><path d="m7.277 10.257a6.413 6.413 0 0 1 -1.227-1.275 7.913 7.913 0 0 0 -.265.307 4.258 4.258 0 0 0 -.375.538c-.369.644-.486 1.084-.487 1.403-.002.335.123.545.22.708.057.095.135.16.22.224.471.345 1.089.346 1.632.283.146-.017.293-.04.44-.067-.127-.53-.202-1.222-.157-2.12z" fill="url(#h)"/><path d="m9.216 11.417c.148.064.31.125.482.18-.741.365-1.515.64-2.263.78-.128-.528-.203-1.221-.158-2.12a8.813 8.813 0 0 0 1.939 1.16z" fill="url(#i)"/><path d="m7.435 12.378c-.148.027-.295.05-.44.067-.562.065-1.216.056-1.685-.324a9.043 9.043 0 0 0 0 0l.028.025c.833.75 1.9 1.425 2.83 1.715l.115.034c-.169-.1-.605-.512-.848-1.517z" fill="url(#j)"/><path d="m10.633 11.81a9.712 9.712 0 0 0 .347-.954c-.407.273-.839.523-1.282.741.29.094.61.17.935.214z" fill="url(#k)"/><path d="m8.717 13.979c.64 0 1.37-.882 1.916-2.168a5.462 5.462 0 0 1 -.935-.214c-.741.365-1.515.64-2.263.78l.01.045c.184.726.467 1.134.669 1.335a.91.91 0 0 0 .17.138c.144.039.289.067.433.084z" fill="url(#l)"/><path d="m12.78 11.509c.12-.196.23-.398.326-.601-.49.87-1.508 1.032-2.473.903-.545 1.286-1.275 2.168-1.916 2.168.233.028.465.028.693.002a3.642 3.642 0 0 0 1.48-.525c.755-.457 1.41-1.16 1.89-1.947z" fill="url(#m)"/></svg>