<svg height="18" width="18" xmlns="http://www.w3.org/2000/svg" xmlns:xlink="http://www.w3.org/1999/xlink"><linearGradient id="a" gradientUnits="userSpaceOnUse" x1="4.91" x2="15.516" y1="8.829" y2="8.829"><stop offset=".017" stop-color="#fdd815"/><stop offset=".105" stop-color="#fca91d"/><stop offset=".263" stop-color="#f98932"/><stop offset=".474" stop-color="#f45454"/><stop offset=".728" stop-color="#ed0d83"/><stop offset=".771" stop-color="#ec008c"/></linearGradient><path d="m0 0h18v18h-18z" fill="#08090d"/><path d="m10.633 4.5h-5.633l.4 1.5h5.233c.442 0 .867.558.867 1.011v.989h-5.066c-1.323 0-2.4 1.113-2.4 2.474 0 1.36 1.077 2.526 2.4 2.526h4.198c1.324 0 2.368-1.165 2.368-2.526v-3.464c0-1.36-1.044-2.511-2.367-2.511zm.867 6.173c0 .453-.426.827-.867.827h-4.198c-.441 0-.924-.39-.924-1.026 0-.743.483-.974.924-.974h5.064v1.173z" fill="url(#a)"/><path d="m15.539 8h-1.539v1.5h2z" fill="#ec008c"/></svg>