<svg height="18" viewBox="0 0 18 18" width="18" xmlns="http://www.w3.org/2000/svg"><path d="m0 0h18v18h-18z" fill="#f0f3fa"/><path d="m12.54 7.73.16-.73h2.3l-.21.73zm-.9 3.27.22-.7h2.25l-.22.7h-2.24zm.7-2.46-.19.71h1.98l.22-.71zm-5.22.57.23 1.89.78-2.9.27 2.9h1.06l1.78-2.9-.73 2.9h.91l.93-4h-1.56l-1.57 2.57-.28-2.57h-1.4l-.42 2.1zm-4.12 1.89 2.7-4h1.01l.48 4h-.84l-.13-1h-1.61l-.65 1zm2-1.6h1.14l-.19-1.46z" fill="#232361"/><path d="m3.49 9.67c-.42-.04-1.52.28-1.43 1.04.35-.18.8-.7 1.43-1.04z" fill="#0e5743"/><path d="m2.04 10.7c.8.41 1.88 1.11 6.66.83-4.6 1.2-7.03-.2-6.66-.82z" fill="#858585"/></svg>