<svg height="18" width="18" xmlns="http://www.w3.org/2000/svg" xmlns:xlink="http://www.w3.org/1999/xlink"><linearGradient id="a" gradientUnits="userSpaceOnUse" x1="11.186" x2="11.186" y1="9.665" y2="16.173"><stop offset=".335" stop-color="#ed1c24"/><stop offset=".755" stop-color="#751317"/></linearGradient><linearGradient id="b" gradientUnits="userSpaceOnUse" x1="8.301" x2="10.613" y1="10.206" y2="10.206"><stop offset="0" stop-color="#641f1f"/><stop offset=".719" stop-color="#d32828"/></linearGradient><linearGradient id="c" gradientUnits="userSpaceOnUse" x1="8.048" x2="10.66" y1="9.86" y2="8.332"><stop offset=".224" stop-color="#f2f6f7"/><stop offset="1" stop-color="#97a7ad"/></linearGradient><linearGradient id="d" gradientUnits="userSpaceOnUse" x1="6.5" x2="6.5" y1="8.521" y2="4.047"><stop offset="0" stop-color="#202f6e"/><stop offset=".678" stop-color="#25b3ed"/></linearGradient><path d="m0 0h18v18h-18z" fill="#f0f3fa"/><circle cx="9" cy="9" fill="#f6f8fd" r="9"/><path d="m8.394 11.303 1.048 1.772c.558.943 1.45.925 1.688.925h2.87l-3.386-4.224c-1.562.066-2.39 1.096-2.22 1.527z" fill="url(#a)"/><path d="m8.301 10.825c0 .258.089.471.093.478-.17-.431.657-1.46 2.22-1.527l-.535-.666c-.946.199-1.778.752-1.778 1.715z" fill="url(#b)"/><path d="m7.207 8.984c0 .211.064.395.238.717l.949 1.602a1.325 1.325 0 0 1 -.093-.478c0-.963.832-1.516 1.778-1.715.274-.059.555-.086.832-.086.231 0 .448.012.616.074-.1-.369-.36-.93-1.826-.93-1.428 0-2.494.242-2.494.816z" fill="url(#c)"/><path d="m4 4 1.837 3.177c.381.658.522.822 1.43.823h1.733l-2.39-3.177c-.527-.687-.83-.813-1.315-.823z" fill="url(#d)"/></svg>