<svg height="18" viewBox="0 0 18 18" width="18" xmlns="http://www.w3.org/2000/svg"><path d="m0 0h18v18h-18z" fill="#0d2852"/><path d="m3 8.27c0 1.86 2 2.8 3 3.05-.54-.36-1.62-1.42-1.62-2.86 0-2.7 3.2-3.35 4.8-3.34-2.63-.55-6.18.83-6.18 3.15zm5.3 3.99c-2.39 0-4.05-.65-4.58-.98.53.58 2.3 1.72 5.18 1.72 3.6 0 6.1-1.51 6.1-2.98 0-1.17-.93-1.79-1.4-1.95 1.56 2.52-2.3 4.19-5.3 4.19zm.1-2.75-.39.12v.37h1.13v-.37l-.3-.12v-1.44l1.04 1.93h.54v-2.5l.31-.12v-.38h-.98v.38l.25.13v1.45l-1.05-1.96h-.95v.38l.4.13zm5.08-.15a.14.14 0 0 0 .02-.05c0-.03 0-.06-.03-.09a.08.08 0 0 0 -.07-.04.1.1 0 0 0 -.08.03 1.26 1.26 0 0 1 -.43.46.92.92 0 0 1 -.51.16.62.62 0 0 1 -.35-.1.93.93 0 0 1 -.26-.28 1.54 1.54 0 0 1 -.2-.64 2.81 2.81 0 0 1 .02-.74c.02-.16.07-.3.13-.44a1.07 1.07 0 0 1 .42-.46.38.38 0 0 1 .18-.04c.06 0 .14.02.22.05.09.04.15.08.2.13.06.06.12.14.16.24a1.31 1.31 0 0 1 .12.42c.03.06.08.1.15.1.04 0 .08-.02.12-.04.03-.03.05-.07.05-.12s0-.1-.02-.16a4.9 4.9 0 0 1 -.06-.52l-.16-.03c-.06 0-.1-.02-.16-.04l-.3-.11a.96.96 0 0 0 -.34-.05c-.28 0-.52.07-.72.2-.2.14-.34.32-.44.55s-.15.5-.15.78c0 .29.05.55.15.77s.26.39.45.51c.2.13.44.19.72.19.14 0 .28-.02.41-.04a.95.95 0 0 0 .38-.18l.2-.17a.83.83 0 0 0 .17-.25zm-5.88.64h-1.13v-.36l.27-.12-.09-.27h-.78l-.08.27.27.12v.36h-1.06v-.36l.26-.12.77-2.5.56-.02.76 2.52.24.12v.36zm-1.32-2.25-.28 1h.54z" fill="#fff"/></svg>