<svg height="18" width="18" xmlns="http://www.w3.org/2000/svg"><path d="m0 0h18v18h-18z" fill="#0a4d93"/><path d="m9 4c-3.312 0-6 2.234-6 4.996s2.688 5.004 6 5.004 6-2.242 6-5.004-2.688-4.996-6-4.996z" fill="#fff"/><g fill="#0a4d93"><path d="m9.73 11.037c.034-.032-.01-.037.086-.04h1.184v-.997h-2.206l-1.504 3h1.505l.936-1.963z"/><path d="m11.276 6c-.173.004-.366.076-.568.203-.505.32-1.405 2.231-1.546 2.797.16 0 1.406-.01 1.453 0l.66-1.566 2.364 4.853c.003-.003.004-.006.008-.008.033-.018.07-.035.1-.055l.009-.008c.197-.234.614-.83.718-.96.108-.135.072-.152-.008-.301a9.909 9.909 0 0 1 -.16-.31 36.064 36.064 0 0 1 -.308-.642c-.397-.844-.78-1.72-1.22-2.545-.306-.577-.755-1.474-1.502-1.458z"/></g></svg>