<svg height="18" width="18" xmlns="http://www.w3.org/2000/svg" xmlns:xlink="http://www.w3.org/1999/xlink"><linearGradient id="a" gradientUnits="userSpaceOnUse" x1="10.032" x2="6.33" y1="7.521" y2="5.314"><stop offset="0" stop-color="#1ea7e7"/><stop offset=".208" stop-color="#5ecbf5"/><stop offset=".481" stop-color="#79d4f7"/><stop offset=".539" stop-color="#7fd6f7"/><stop offset="1" stop-color="#74d2f6"/></linearGradient><linearGradient id="b" gradientUnits="userSpaceOnUse" x1="8.194" x2="7.072" y1="11.538" y2="13.588"><stop offset="0" stop-color="#3263b7"/><stop offset=".581" stop-color="#68cef6"/><stop offset="1" stop-color="#73d2f6"/></linearGradient><linearGradient id="c" gradientUnits="userSpaceOnUse" x1="6.355" x2="8.42" y1="7.071" y2="10.073"><stop offset="0" stop-color="#1c63b7"/><stop offset=".484" stop-color="#5cbeee"/><stop offset=".584" stop-color="#65ccf5"/><stop offset=".609" stop-color="#66cef5"/><stop offset="1" stop-color="#1c63b8"/></linearGradient><linearGradient id="d"><stop offset="0" stop-color="#1c63b7"/><stop offset="1" stop-color="#0db1ef"/></linearGradient><linearGradient id="e" gradientUnits="userSpaceOnUse" x1="9.844" x2="9.831" xlink:href="#d" y1="6.292" y2="4.001"/><linearGradient id="f" gradientUnits="userSpaceOnUse" x1="6.146" x2="4.559" xlink:href="#d" y1="9.637" y2="7.386"/><linearGradient id="g" gradientUnits="userSpaceOnUse" x1="6.541" x2="10.147" y1="8.148" y2="5.362"><stop offset="0" stop-color="#73d2f6"/><stop offset=".06" stop-color="#7cd5f7"/><stop offset=".079" stop-color="#7fd6f7"/><stop offset=".092" stop-color="#7ed6f7"/><stop offset=".284" stop-color="#4ac5f4"/><stop offset=".337" stop-color="#00adef"/><stop offset=".416" stop-color="#59caf5"/><stop offset=".436" stop-color="#58c8f4"/><stop offset="1" stop-color="#1c63b8"/></linearGradient><linearGradient id="h"><stop offset="0" stop-color="#1c63b7"/><stop offset="1" stop-color="#59c9f4"/></linearGradient><linearGradient id="i" gradientUnits="userSpaceOnUse" x1="9.291" x2="13.753" xlink:href="#h" y1="9.186" y2="10.152"/><linearGradient id="j" gradientUnits="userSpaceOnUse" x1="8.495" x2="12.048" y1="9.631" y2="4.058"><stop offset="0" stop-color="#59caf5"/><stop offset=".519" stop-color="#79d4f7"/><stop offset=".648" stop-color="#7ed6f7"/><stop offset=".686" stop-color="#7fd6f7"/><stop offset=".712" stop-color="#7ed6f7"/><stop offset="1" stop-color="#74d2f6"/></linearGradient><linearGradient id="k" gradientUnits="userSpaceOnUse" x1="4.723" x2="8.253" xlink:href="#h" y1="9.711" y2="9.711"/><linearGradient id="l" gradientUnits="userSpaceOnUse" x1="6.948" x2="8.369" y1="13.859" y2="9.651"><stop offset="0" stop-color="#1c63b7"/><stop offset=".416" stop-color="#12a5e7"/><stop offset="1" stop-color="#66cef5"/></linearGradient><linearGradient id="m" gradientUnits="userSpaceOnUse" x1="4.229" x2="12.188" y1="12.292" y2="11.748"><stop offset="0" stop-color="#1a8ad3"/><stop offset=".487" stop-color="#7dd4f6"/><stop offset=".523" stop-color="#7fd6f7"/><stop offset="1" stop-color="#67cef5"/></linearGradient><linearGradient id="n" gradientUnits="userSpaceOnUse" x1="9.652" x2="11.22" y1="10.715" y2="13.062"><stop offset="0" stop-color="#1c63b7"/><stop offset=".318" stop-color="#61c5f1"/><stop offset=".376" stop-color="#65cdf5"/><stop offset=".413" stop-color="#65ccf5"/><stop offset="1" stop-color="#1c63b8"/></linearGradient><linearGradient id="o" gradientUnits="userSpaceOnUse" x1="10.755" x2="13.57" xlink:href="#d" y1="10.963" y2="12.426"/><linearGradient id="p" gradientUnits="userSpaceOnUse" x1="9.879" x2="11.652" y1="10.386" y2="11.531"><stop offset="0" stop-color="#1c63b7"/><stop offset=".441" stop-color="#65ccf5"/><stop offset=".446" stop-color="#66cef5"/><stop offset="1" stop-color="#01adef"/></linearGradient><linearGradient id="q" gradientUnits="userSpaceOnUse" x1="12.116" x2="12.903" y1="11.124" y2="10.302"><stop offset="0" stop-color="#33bdf2"/><stop offset=".26" stop-color="#66cef5"/><stop offset=".307" stop-color="#65ccf5"/><stop offset="1" stop-color="#1c63b8"/></linearGradient><linearGradient id="r" gradientUnits="userSpaceOnUse" x1="12.668" x2="9.531" y1="6.9" y2="6.9"><stop offset="0" stop-color="#1c63b7"/><stop offset=".709" stop-color="#63c9f3"/><stop offset=".767" stop-color="#65cdf5"/><stop offset="1" stop-color="#1fa8e7"/></linearGradient><linearGradient id="s" gradientUnits="userSpaceOnUse" x1="9.537" x2="13.794" y1="9.452" y2="9.452"><stop offset="0" stop-color="#1c63b7"/><stop offset=".367" stop-color="#5bcaf5"/><stop offset="1" stop-color="#73d2f6"/></linearGradient><path d="m0 0h18v18h-18z" fill="#1c2a5b"/><path d="m5.497 12.469c-.158.315-.065.473.398.382.964-.189 1.47-.69 2.072-1.218l.065-.058a5.506 5.506 0 0 0 -.065.693c-.019.52.117 1.258.367 1.615.11.149.276.178.5-.046a4.812 4.812 0 0 1 -.39-1.033 2.572 2.572 0 0 1 -.013-1.19 20.483 20.483 0 0 0 -.331-.102l-.055-.017a6.113 6.113 0 0 0 -.36-.102c-.848.85-1.515 1.063-2.188 1.075z" fill="url(#b)"/><path d="m4.903 9.576c.508.365 1.395.71 2.048.762.417.033.878-.022 1.214-.227l.004-.002c.074-.123.115-.294.055-.539-.06.245-.55.51-1.239.423-.394-.032-.832-.235-1.179-.438-.346-.203-.52-.35-.59-.399a.361.361 0 0 0 -.222-.08c-.245 0-.418.284-.09.5z" fill="url(#k)"/><path d="m6.402 6.493.017.072c.039.143.089.427.225.832.28.315.575.644.707.794.982 1.113.988 1.638.818 1.918a.914.914 0 0 0 .366-.383c.167-.383-.157-.915-.564-1.41-.395-.478-1.467-1.706-1.57-1.823z" fill="url(#c)"/><path d="m9.65 4.363c-.018.203-.066.63-.104 1.053-.019.213-.035.413-.041.562a2.088 2.088 0 0 0 0 .183.277.277 0 0 0 .007.061.088.088 0 0 0 .063.07.099.099 0 0 0 .109-.05.37.37 0 0 0 .029-.063c.018-.047.04-.116.063-.2.048-.163.103-.383.159-.61.104-.427.208-.868.235-.971.062-.262-.072-.398-.22-.398-.136 0-.285.118-.3.363z" fill="url(#e)"/><path d="m4.185 8.105c.215.084.661.213 1.096.46a9.4 9.4 0 0 1 1.128.717c.087.063.125.087.172.049.074-.063-.064-.21-.114-.271-.203-.246-.932-1.076-1.976-1.404a.542.542 0 0 0 -.152-.022c-.335 0-.484.354-.154.47z" fill="url(#f)"/><path d="m8.342 4.814c-.039.124-.073.242-.104.358.285.567.437 1.027.438 1.584-.006.848-.403 2.472-.975 2.47-.22 0-.513-.559-.78-1.139-.358-.773-.444-1.308-.502-1.522l-.017-.072-.019-.022c-.175-.187-.387-.074-.396.114-.01.245.33 1.19.532 1.64.428.956.779 1.446 1.13 1.43.455-.02.887-.616 1.15-1.35.217-.61.351-1.188.351-1.583 0-.739-.28-1.34-.739-2.165a3.373 3.373 0 0 1 -.069.257z" fill="url(#g)"/><path d="m10.663 9.248a8.156 8.156 0 0 0 -1.309.326c-.02.139-.04.28-.057.424.405-.13.759-.255 1.129-.334 1.434-.305 2.706-.12 3.133-.05.563.09.554-.34.16-.415-.392-.074-.66-.09-1.41-.09-.625 0-1.186.061-1.646.14z" fill="url(#i)"/><path d="m12.182 4.437c-1.81.6-2.959 2.319-3.288 5.4-.023.24.223.214.403.161.34-2.903 1.567-4.7 3.213-5.193.046-.015.107-.026.139-.035-.019-.253-.13-.361-.3-.361-.05 0-.107.01-.167.028z" fill="url(#j)"/><path d="m7.968 4.577c-.347 1.089-.357 1.922-.218 2.46.227.875 1.032 1.903 1.229 2.145.025-.16.052-.315.082-.466-.169-.2-.721-1.046-.887-1.687-.173-.67-.11-1.333.168-2.215.03-.1.068-.243.07-.257-.056-.107-.141-.153-.222-.153a.232.232 0 0 0 -.222.173z" fill="url(#a)"/><path d="m7.033 10.909c-.672.433-1.3 1.08-1.536 1.56.18-.004.36-.021.545-.062a5.3 5.3 0 0 1 1.446-1.312c.797-.514 1.321-.702 1.448.46.072.6.031 1.359-.31 1.821.067.17.142.329.207.46.367-.364.6-1.196.543-1.95-.08-.631-.162-1.555-.941-1.555-.328 0-.778.162-1.402.578z" fill="url(#l)"/><path d="m4.529 11.114c-.572.205-.416.712.195.486 1.149-.44 2.166-.448 3.183-.146 1.205.357 1.917.586 2.905 1.591.297.322.639.167.532-.174-.146-.564-2.05-1.476-3.26-1.792a7.608 7.608 0 0 0 -1.854-.229c-.608 0-1.212.077-1.701.264z" fill="url(#m)"/><path d="m9.57 10.671c-.087.11-.15.245-.088.417.093.17.226.326.402.518.027.028.12.137.248.286.589.31 1.064.646 1.189.916-.066-.19-.225-.424-.44-.705-.088-.114-.704-.787-.832-.934-.184-.212-.402-.491-.129-.735a.817.817 0 0 0 -.35.237z" fill="url(#n)"/><path d="m11.035 10.451c-.05.028-.04.082-.014.122.017.025.038.048.059.07.067.072.139.141.21.21.223.215.447.428.665.647.225.226.457.483 1.009 1.04.418.383.77-.006.36-.386a18.394 18.394 0 0 0 -1.173-1.027c-.216-.171-.439-.337-.67-.49a2.983 2.983 0 0 0 -.232-.142.819.819 0 0 0 -.082-.041.233.233 0 0 0 -.077-.016.118.118 0 0 0 -.055.013z" fill="url(#o)"/><path d="m10.055 10.388c.042.876 1.159.963 1.662.877l-.341-.33c-.364.018-.951-.12-.974-.621-.125.018-.24.043-.347.074z" fill="url(#p)"/><path d="m11.805 10.863c.117.086.232.174.346.264l.03.023c.388-.13.783-.34 1.15-.577a5.796 5.796 0 0 0 -.576-.138 3.52 3.52 0 0 1 -.95.428z" fill="url(#q)"/><path d="m12.211 4.905c.11-.066.234-.11.358-.138.096-.02.12-.062.108-.142.049.126.032.257.014.384-.112.85-.473 1.608-.953 2.325-.266.395-.556.77-.914 1.094-.344.31-.737.546-1.176.719-.036.014-.078.018-.117.027a1.81 1.81 0 0 1 .098-.482.284.284 0 0 1 .107-.074c.29-.128.534-.315.763-.524.59-.533.98-1.187 1.297-1.888.12-.264.222-.533.31-.809.04-.126.056-.255.073-.384.005-.036 0-.078.032-.108z" fill="url(#r)"/><path d="m11.147 9.152a1.37 1.37 0 0 0 -.441.455.927.927 0 0 0 -.144.262c-.022.057-.007.071.058.066.266-.023.532-.034.8-.02.622.034 1.241.096 1.846.248.093.023.183.055.197.16.018.113 0 .214-.121.274-.169.014-.325-.057-.488-.071-.063-.005-.127-.025-.19-.032-.33-.035-.659-.083-.988-.117-.38-.04-.758-.06-1.139-.019-.134 0-.256.06-.39.062-.049-.002-.083.03-.122.046a1.378 1.378 0 0 0 -.204.12c-.11.073-.203.16-.222.296-.005.032.002.08-.056.085-.01-.138-.01-.271.017-.409.053-.255.226-.404.473-.487.112-.037.175-.09.187-.202.005-.048.03-.094.047-.14a.79.79 0 0 1 .241-.44c.354-.528.888-.838 1.478-1.077.439-.177.895-.296 1.38-.27.098.004.193.018.288.043.143.039.178.092.16.236a.264.264 0 0 1 -.229.221c-.017 0-.034.002-.048 0-.503-.12-.961.034-1.417.198a3.885 3.885 0 0 0 -.973.512z" fill="url(#s)"/></svg>