<svg height="18" viewBox="0 0 18 18" width="18" xmlns="http://www.w3.org/2000/svg" xmlns:xlink="http://www.w3.org/1999/xlink"><linearGradient id="a"><stop offset="0" stop-color="#3f3f3f"/><stop offset=".51" stop-color="#f6f6f6"/><stop offset="1" stop-color="#3f3f3f"/></linearGradient><linearGradient id="b" gradientUnits="userSpaceOnUse" x1="9.76" x2="8.33" xlink:href="#a" y1="5.44" y2="7.91"/><linearGradient id="c" gradientUnits="userSpaceOnUse" x1="7.4" x2="5.97" xlink:href="#a" y1="8.97" y2="11.44"/><linearGradient id="d" gradientUnits="userSpaceOnUse" x1="12.11" x2="10.68" xlink:href="#a" y1="8.97" y2="11.44"/><linearGradient id="e" gradientUnits="userSpaceOnUse" x1="7.62" x2="10.38" y1="8.07" y2="8.07"><stop offset="0" stop-color="#d15138"/><stop offset=".53" stop-color="#ea632d"/><stop offset="1" stop-color="#d25239"/></linearGradient><path d="m0 0h18v18h-18z" fill="#f0f3fa"/><path d="m9 14a5 5 0 1 0 0-10 5 5 0 0 0 0 10zm0-.59a4.41 4.41 0 1 0 0-8.81 4.41 4.41 0 0 0 0 8.82z" fill="#3f3f3f" fill-rule="evenodd"/><path d="m9 8.9a2.35 2.35 0 1 0 0-4.71 2.35 2.35 0 0 0 0 4.7zm0-.49a1.76 1.76 0 1 0 0-3.53 1.76 1.76 0 0 0 0 3.53z" fill="#3f3f3f" fill-rule="evenodd"/><circle cx="9" cy="6.65" fill="url(#b)" r="1.47"/><path d="m6.65 12.53a2.35 2.35 0 1 0 0-4.7 2.35 2.35 0 0 0 0 4.7zm0-.59a1.76 1.76 0 1 0 0-3.53 1.76 1.76 0 0 0 0 3.53z" fill="#3f3f3f" fill-rule="evenodd"/><circle cx="6.65" cy="10.18" fill="url(#c)" r="1.47"/><path d="m11.35 12.53a2.35 2.35 0 1 0 0-4.7 2.35 2.35 0 0 0 0 4.7zm0-.59a1.76 1.76 0 1 0 0-3.53 1.76 1.76 0 0 0 0 3.53z" fill="#3f3f3f" fill-rule="evenodd"/><circle cx="11.35" cy="10.18" fill="url(#d)" r="1.47"/><path d="m9 6.03 2.35 3.7h-4.7l2.35-3.69z" fill="url(#e)"/><path d="m11.65 10-2.65-4.24-2.65 4.24h1.77l.14-.26h-1.52l2.26-3.56 2.26 3.56h-1.6l.08.26h1.9z" fill="#f0f3fa"/><path d="m9 8.41.88 1.33h-1.76l.88-1.34z" fill="#3f3f3f"/><path d="m10.18 9.85-1.18-1.7-1.18 1.7h.47v-.11h1.47l.03.11zm-2.06-.11.88-1.34.88 1.33h-1.76z" fill="#f0f3fa"/></svg>