<svg height="18" viewBox="0 0 18 18" width="18" xmlns="http://www.w3.org/2000/svg"><path d="m0 0h18v18h-18z" fill="#f0f3fa"/><path d="m7.62 14c1.31 0 2.5-.52 3.38-1.36v1.36h3v-10h-3v1.66h-.5l-1.02 2.9 2.67 1.88h-3.36l-1.34 3.53-.3-.97h-2.48c.82.63 1.85 1 2.95 1zm-.68-1.67-.25-.8h-3.31c.16.29.36.56.57.8zm-.46-1.46-.13-.43h-3.44l.14.43zm-3.58-.45.52-.35h-.6zm1.51-1.02 1.2-.8h-2.91a5.15 5.15 0 0 0 0 .8h1.7zm1.23-1.47-.3-.8h-2.27c-.1.26-.19.52-.25.8h2.83zm-.54-1.47-.3-.8h-.85c-.22.25-.41.52-.58.8zm.24-.8h4.6l-2.41 1.57-2.18-1.57zm-.67-.66h5.9a4.85 4.85 0 0 0 -5.9 0z" fill="#0b57a3"/></svg>