<svg height="18" viewBox="0 0 18 18" width="18" xmlns="http://www.w3.org/2000/svg" xmlns:xlink="http://www.w3.org/1999/xlink"><linearGradient id="a"><stop offset=".08" stop-color="#d1daf1"/><stop offset=".59" stop-color="#2378bf"/><stop offset="1" stop-color="#0565b2"/></linearGradient><linearGradient id="b" gradientUnits="userSpaceOnUse" x1="5.44" x2="3.76" xlink:href="#a" y1="11.3" y2="12.26"/><linearGradient id="c" gradientUnits="userSpaceOnUse" x1="14.5" x2="12.82" xlink:href="#a" y1="6.18" y2="7.14"/><linearGradient id="d"><stop offset="0" stop-color="#f3f6fb"/><stop offset=".39" stop-color="#839ed3"/><stop offset=".73" stop-color="#086ab6"/><stop offset="1" stop-color="#0960a7"/></linearGradient><linearGradient id="e" gradientUnits="userSpaceOnUse" x1="10.44" x2="8.14" xlink:href="#d" y1="7.86" y2="9.64"/><linearGradient id="f" gradientUnits="userSpaceOnUse" x1="7.88" x2="6.59" xlink:href="#d" y1="9.8" y2="10.82"/><linearGradient id="g" gradientUnits="userSpaceOnUse" x1="12.09" x2="10.79" xlink:href="#d" y1="7.24" y2="8.26"/><path d="m0 0h18v18h-18z" fill="#f0f3fa"/><ellipse cx="4.47" cy="11.72" fill="url(#b)" rx=".97" ry=".96"/><ellipse cx="13.53" cy="6.6" fill="url(#c)" rx=".97" ry=".96"/><path d="m7.28 7.44c-.21-.28-.6-.37-.94-.47a1.01 1.01 0 0 1 -.74-.96c0-.56.47-1.01 1.05-1.01.59 0 1.06.45 1.06 1 0 .34-.02.7.19.97l2.86 3.67c.18.23.5.3.8.36.47.1.84.5.84 1 0 .55-.47 1-1.05 1-.59 0-1.06-.45-1.06-1 0-.33.02-.68-.19-.94z" fill="url(#e)"/><path d="m6.78 10.56c-.24-.33-.7-.41-1.09-.57a.94.94 0 0 1 -.57-.86c0-.51.42-.93.94-.93.51 0 .93.42.93.93 0 .33-.03.7.15.98.24.37.5.7.92.7l.1.01a.93.93 0 0 1 -.1 1.86.93.93 0 0 1 -.94-.93c0-.33.03-.7-.17-.96z" fill="url(#f)"/><path d="m10.99 8c-.25-.33-.71-.41-1.1-.57a.94.94 0 0 1 -.57-.86c0-.51.42-.93.94-.93s.94.42.94.93c0 .33-.03.7.15.98.24.37.5.7.92.7l.1.01a.93.93 0 0 1 -.1 1.86.93.93 0 0 1 -.94-.93c0-.33.03-.7-.17-.96z" fill="url(#g)"/></svg>