<svg height="18" viewBox="0 0 18 18" width="18" xmlns="http://www.w3.org/2000/svg"><path d="m0 0h18v18h-18z" fill="#f0f3fa"/><g fill="#da4606"><path d="m11.78 10.11a1.67 1.67 0 1 0 0-3.33 1.67 1.67 0 0 0 0 3.33zm0 .56a2.22 2.22 0 1 0 0-4.45 2.22 2.22 0 0 0 0 4.45z" fill-rule="evenodd"/><path d="m7.89 4h.55v6.11h.56v.56h-1.11v-.77a2.22 2.22 0 0 1 -3.89-1.46 2.22 2.22 0 0 1 2.78-2.14v.58a1.66 1.66 0 1 0 1.1 1.58v-4.46zm-2.22 8.89v-.28c.65.28 2.16.83 3.05.83.9 0 2.41-.55 3.06-.83v.28c-.46.28-1.72 1.11-3.06 1.11-1.33 0-2.59-.83-3.05-1.11z"/></g></svg>