<svg height="18" width="18" xmlns="http://www.w3.org/2000/svg" xmlns:xlink="http://www.w3.org/1999/xlink"><linearGradient id="a" gradientUnits="userSpaceOnUse" x1="6.65" x2="10.91" y1="14.34" y2="13.22"><stop offset=".09" stop-color="#0051a1"/><stop offset=".22" stop-color="#cdb8da"/><stop offset=".28" stop-color="#f1deee"/><stop offset=".43" stop-color="#dfd2e8"/><stop offset=".6" stop-color="#b396c8"/><stop offset=".91" stop-color="#1e3695"/></linearGradient><linearGradient id="b" gradientUnits="userSpaceOnUse" x1="5.46" x2="12.9" y1="10.04" y2="9.77"><stop offset=".09" stop-color="#0051a1"/><stop offset=".22" stop-color="#cdb8da"/><stop offset=".28" stop-color="#f1deee"/><stop offset=".43" stop-color="#dfd2e8"/><stop offset=".6" stop-color="#b396c8"/><stop offset=".71" stop-color="#8069af"/><stop offset=".88" stop-color="#1e3695"/></linearGradient><linearGradient id="c" gradientUnits="userSpaceOnUse" x1="5.81" x2="11.71" y1="11.82" y2="11.15"><stop offset=".09" stop-color="#ff509a"/><stop offset=".26" stop-color="#ffbfc5"/><stop offset=".47" stop-color="#ff779c"/><stop offset=".8" stop-color="#ff4687"/></linearGradient><linearGradient id="d" gradientUnits="userSpaceOnUse" x1="8.52" x2="7.03" y1="15.49" y2="15.73"><stop offset=".23" stop-color="#ff5c8e"/><stop offset=".38" stop-color="#ff81a2"/><stop offset=".62" stop-color="#ffc6c6"/><stop offset=".85" stop-color="#ff4e9a"/></linearGradient><path d="m0 0h18v18h-18z" fill="#f0f3fa"/><path d="m8.8 8.07v-1.01c1.77.57 2.14 1.23 2.22 1.47-.06.72-.37.77-.37.77s-.51-.95-1.85-1.23z" fill="#ff1683"/><path d="m8 15.4c-.2-.33-.33-.51-.56-.74-.15-.14-.28-.37-.28-.37-.1.13-.12.24-.16.43.08.3.75.77 1 1.28zm.31-6.03c-1-.68-1.87-1.8-1.87-1.8-.18.32-.36.58-.44 1.11 1.08 1.13 2.8 2.18 4.1 3.14.15-.17.26-.36.3-.59a7.69 7.69 0 0 0 -2.09-1.86z" fill="#002c6e"/><path d="m6.5 13.42.03-.68c.09.16.64.55.72.63.08.07.95.7.95.95 0 .32-.06.37-.11.7-.04-.38-.26-.64-.54-.86-.56-.4-.88-.45-1.05-.74z" fill="#ff1282"/><path d="m10.4 12.4v-1.17c-.16.85-1.25 1.22-1.93 1.55-.8.39-1.47.8-1.47.96v.99c.13-.45.32-.7.72-.9.76-.37 2.43-.9 2.68-1.43z" fill="url(#a)"/><path d="m12 4.7v-1.7s-1.26.15-3.33 1.37c-2.08 1.21-2.67 2.58-2.67 2.58v1.73s.1-.33.19-.52l.23-.48s.89-1.86 5.58-2.98z" fill="url(#b)"/><path d="m11.02 8.55v1.55c-1 1.23-2.38 1.49-3.66 2.33-.45.3-.64.5-.75.67a.62.62 0 0 0 -.11.31v-1.29s.34-.52 2.07-1.37a5.76 5.76 0 0 0 2.45-2.2z" fill="url(#c)"/><path d="m7 15.44c.08-.32.34-.42.7-.66.3-.19.5-.48.5-.48v.6c0 .1-.41.38-.63.47-.22.1-.45.36-.57.65z" fill="url(#d)"/></svg>