<svg height="18" viewBox="0 0 18 18" width="18" xmlns="http://www.w3.org/2000/svg"><path d="m0 0h18v18h-18z" fill="#f0f3fa"/><path d="m8 4.1a5 5 0 0 0 1 9.9 5.05 5.05 0 0 0 4.98-4.32l-.14-.16c-.17-.15-.43-.09-.6.05l-.36.28a.62.62 0 0 1 -.78 0l-.43-.31a.42.42 0 0 0 -.53.01l-.32.27a.63.63 0 0 1 -.84-.02l-.35-.3a.42.42 0 0 0 -.48-.06l-1.15.56z" fill="#fd0304"/><path d="m14 8.1a.77.77 0 0 0 -.86.07l-.4.31a.42.42 0 0 1 -.52 0l-.44-.32a.63.63 0 0 0 -.8.02l-.28.24a.42.42 0 0 1 -.57-.01l-.26-.23a.63.63 0 0 0 -.73-.1l-.2.12v-4.2h.06a5.09 5.09 0 0 1 5 4.1z" fill="#fd0304"/><path d="m6 11h6v1h-6z" fill="#f0f3fa" fill-opacity=".5"/></svg>