<svg height="18" viewBox="0 0 18 18" width="18" xmlns="http://www.w3.org/2000/svg" xmlns:xlink="http://www.w3.org/1999/xlink"><linearGradient id="a" gradientUnits="userSpaceOnUse" x1="9" x2="9" y1="4" y2="14"><stop offset="0" stop-color="#166baf"/><stop offset=".5" stop-color="#1464a9"/><stop offset=".81" stop-color="#1a82ba"/><stop offset="1" stop-color="#1e95c5"/></linearGradient><linearGradient id="b" gradientUnits="userSpaceOnUse" x1="8.84" x2="8.84" y1="4" y2="12.75"><stop offset="0" stop-color="#1e7ab4"/><stop offset="1" stop-color="#166fae"/></linearGradient><linearGradient id="c" gradientUnits="userSpaceOnUse" x1="8.84" x2="8.84" y1="4" y2="10.88"><stop offset="0" stop-color="#207cb6"/><stop offset="1" stop-color="#3097c8"/></linearGradient><linearGradient id="d" gradientUnits="userSpaceOnUse" x1="9" x2="9" y1="4" y2="9.94"><stop offset="0" stop-color="#2880b9"/><stop offset="1" stop-color="#44aed1"/></linearGradient><linearGradient id="e" gradientUnits="userSpaceOnUse" x1="9" x2="9" y1="4.94" y2="9.31"><stop offset="0" stop-color="#2995d1"/><stop offset="1" stop-color="#79c5e2"/></linearGradient><linearGradient id="f" gradientUnits="userSpaceOnUse" x1="9.16" x2="9.16" y1="5.56" y2="9"><stop offset="0" stop-color="#40aad4"/><stop offset="1" stop-color="#a0d3e8"/></linearGradient><linearGradient id="g" gradientUnits="userSpaceOnUse" x1="9.16" x2="9.16" y1="6.19" y2="8.38"><stop offset="0" stop-color="#8ac9e1"/><stop offset="1" stop-color="#cbe5ef"/></linearGradient><path d="m0 0h18v18h-18z" fill="#f0f3fa"/><circle cx="9" cy="9" fill="url(#a)" r="5"/><ellipse cx="8.84" cy="8.38" fill="url(#b)" rx="4.22" ry="4.38"/><ellipse cx="8.84" cy="7.44" fill="url(#c)" rx="3.28" ry="3.44"/><ellipse cx="9" cy="6.97" fill="url(#d)" rx="2.81" ry="2.97"/><circle cx="9" cy="7.13" fill="url(#e)" r="2.19"/><circle cx="9.16" cy="7.28" fill="url(#f)" r="1.72"/><circle cx="9.16" cy="7.28" fill="url(#g)" r="1.09"/><circle cx="9" cy="7.44" fill="#cde9f1" r=".63"/><path d="m8.78 4c1.82.09 2.88 1.45 2.88 2.8 0 1.1-1.01 1.88-1.84 1.88-.66 0-.98-.44-1.07-.62 1.1 0 1.68-.7 1.68-1.25 0-.73-.3-1.56-1.83-1.56-.92 0-1.84.77-1.84 1.87 0 .82.57 1.91 2.24 2.19 1.88.31 3.75.8 3.75 2.19 0 .55-.23 1-.5 1.3-.22.18-.44.34-.67.48-.07.03-.13.05-.2.06-1.1.22-2.33-.76-2.7-1.22h.01c.37.1 1.25.31 1.87.31.63 0 .94-.15.94-.78 0-.47-.47-.67-.94-.78l-.7-.15c-1.96-.4-4.32-.9-4.32-3.6 0-1.44.85-2.42 1.84-2.86.44-.15.91-.24 1.4-.26zm-1.7 9.61c.14-.42.26-1 .26-1.73 0-1.98-2.02-2.66-3.03-2.75.78.33 1.38.83 1.65 2.2.13.62-.03 1.09-.26 1.42a5 5 0 0 0 1.38.86z" fill="#f0f3fa"/></svg>