<svg height="18" width="18" xmlns="http://www.w3.org/2000/svg" xmlns:xlink="http://www.w3.org/1999/xlink"><linearGradient id="a" gradientUnits="userSpaceOnUse" x1="2.34" x2="16.04" y1="3.12" y2="15.11"><stop offset="0" stop-color="#00b09c"/><stop offset="1" stop-color="#006fa6"/></linearGradient><path d="m0 0h18v18h-18z" fill="url(#a)"/><path d="m9.5 3.5h-1l-3 8.5h1.14l.68-2h3.35l.7 2h1.13zm-1.84 5.5 1.34-3.9 1.35 3.9zm.56 3.53c-.71-.08-1.42.1-2.15.36-.26.12-1.25.56-1.04 1.11l.22-.07c.87-.63 1.88-.44 2.8-.26.22.04.44.08.64.1.7.12 1.42.23 2.13.23.6 0 1.16-.2 1.7-.74l.48-.6-.03-.16c-.6.33-1.22.41-1.83.44-.58-.01-1.15-.12-1.72-.22-.4-.08-.8-.15-1.2-.2z" fill="#fff"/></svg>