<svg height="18" viewBox="0 0 18 18" width="18" xmlns="http://www.w3.org/2000/svg"><path d="m0 0h18v18h-18z" fill="#f0f3fa"/><path d="m5.53 12.32c.04.18.19.2.22.23.14.11.37.34.17.35-.25.02.22.1.61.25s.44.08 1.18.15c.74.08 2.46-.02 3.08 0s1.68-.4 1.84-.53c.13-.1-.18-.14-.35-.14l.39-.07.33-.2-.1-.32-.55-.5-.07-.24.57-1.03v-.23l-.25-.16-.16.07-.32.56v-.29l-.13-.7-.2-.07.27-.27-.27-.2.2-.55-.17-.07.17-.25-.25-.21h-.28l-.72.82.4-1.73-.68-.31v-.28l-.2-.11v-.11l-.12-.16h-.24v-.24l-.25-.13v-.65l-.42-.32-.27.1-.05 1.52-.34-.06-.38.17-.26.82-.32-.05-.39.3.11.48-.37-.15-.04-.33-.44-.14-.16.14.22 1.39-.17.05-.08.13.2.67-.31-.06-.23-.1-.09-.24-.21-.05-.12.1.05.25-.05.1.16.11-.11.13.37.85v.1l-.26-.1-.11.1-.15.07v.16l.32.2v.28l-.6-.52-.15.19.58.57c-.02.02-.05.07-.05.1s-.04.18 0 .37z" fill="#a9a9a9"/><path d="m6.97 11.44a6.55 6.55 0 0 1 -.6-.23c-.09-.04-.07.37-.05.45a.38.38 0 0 1 -.3.06c-.19-.04-.3.08-.31.1-.02.04-.11.62-.08.75s.64.21.7.23l.68.35c.04.02 1.03-.06 1.15-.12.12-.05 1.22.06 1.5 0 .3-.05 1.65-.29 1.8-.3.13-.01.7-.38.81-.44.12-.06.1-.5.08-.61-.02-.09-.18-.2-.26-.24l.54-.92-.36-.2-.45.67-.17-.37.38-.48-.08-.54-.3-.15v-.23l.3-.83-.15-.1-.62.16-.69.87c.15-.45.44-1.33.47-1.33s-.13-.2-.22-.3l-.5.55c-.01.31-.06.94-.07.98a5.36 5.36 0 0 1 -.38-1.23c.03-.08-.01-.24-.04-.3l-.63-.2-.27.05-.13.85.13 1.16.37.83-.24.2-.22-.59-.29.04-.2-.23-.1-.55-.26.07-.23-.78c0-.03-.26-.21-.4-.3l.1 1.2a.14.14 0 0 1 -.1-.08c-.02-.07-.14.13-.2.24-.06.1-.17.3-.16.4 0 .1.09.55.28 1.06.2.51-.17.4-.23.38z" fill="#6f6f6f"/><path d="m6.79 7.5a6.44 6.44 0 0 0 -.45-.06l.2 1.4c.01.03.1-.01.15-.03a9.33 9.33 0 0 1 -.07-.76c.02 0 .17.1.17.08v-.62zm1.05 1.49-.34-1.07.23-.18.15.3-.18.1.3.76-.06.1.3.85-.1.1zm.63-.18-.3-.81.22-.2-.34-.25.37-.28.1.53c0 .05.05.1.08.12l-.04-.65.3-.15-.09 1.11-.2-.16.2.63-.3.12zm-.37-1.67-.15.06.22-.8.4-.16.05.12.28.06-.28.66-.21.12z" fill="#cdcdcd"/><path d="m8.93 5.7v-.92l.5.22v.53l-.27.05.12.2.07.35-.2.02.04.48.17.12-.08.56h.13l.17-1.14-.06-.34.22.08v.52l-.13-.02-.03.6-.09 1.27-.08.48-.08.05-.12-.67-.05-.83-.2-.1.04-.54-.04-.37.15-.56-.18-.05z" fill="#d9d9d9"/><path d="m5.65 9.25-.14.1.08.24.06.02.25.12.13.07.03-.1-.21-.1-.08-.23z" fill="#d1d1d1"/><path d="m5.8 12-.14.27.2.28.14.25c.03.06 0 .08-.06.15-.06.06.08-.03.3.05.24.08 1 .24 1.03.24s-.2-.24-.23-.36-.18-.23-.44-.3c-.26-.06-.48.04-.5.04a1.7 1.7 0 0 1 -.24-.23v-.3z" fill="#c0c0c0"/><path d="m9.93 6.7v-.6l.21.18.03.42h.16l-.02.25-.17.76-.03.81.2.83-.64.6.26-.97-.12.09h-.28l.44-1.62h-.17l-.1.34h-.12l.03-.53h.19l.05-.52.07-.04z" fill="#ccc"/><path d="m10.79 7.2a3.43 3.43 0 0 0 -.3-.04v1.1l.23-.55.24.06.18-.8z" fill="#cacaca"/><path d="m6.7 9.2-.3-.02.55 1.73.1-.05-.33-1.23.2.3h.12a.28.28 0 0 0 .05-.09l.41 1.1.11-.03-.55-1.8h-.1l.08.62-.17-.1-.18-.43zm-.51.6.05-.15.26.1.17.33-.05.08-.28-.37h-.15z" fill="#d1d1d1"/><path d="m7.24 9.05-.2-.8.14-.02.2.77z" fill="#cdcdcd"/><path d="m10.81 8.77-.23.6.96-.94-.2.52.17.15.27-.52.22-.44-.38.08-.03-.11-.24.08z" fill="#ccc"/><path d="m10.51 9.64v.23l.52-.42.04.15-.5.42.07.26.3-.32-.14.37-.29.43.21.18.59-.88-.16-.26.29-.22.1.35-.29.49.13.12.3-.31.03.19.21-.26-.07-.56a.93.93 0 0 0 -.14-.15h-.17l-.03-.21-.13.14v-.18l-.23.18.08-.36z" fill="#b3b3b3"/><path d="m12.2 11.28-.29-.12.52-.95.18-.3.18.3-.09.09z" fill="#c3c3c3"/><path d="m5.86 10.4-.2-.42.35.24-.15.19z" fill="#c0c0c0"/><path d="m6.12 10.18-.22-.28.27.12-.04.16z" fill="#d1d1d1"/><path d="m6.32 11.08-.07-.51.2.12.25.08-.03.1.19.15.05.42.3.18v.11l-1.57-.86.06-.06 1.03.63-.03-.33-.2-.18z" fill="#ccc"/><path d="m7.4 12.5-.12.17.69.3-.4.3.49-.19.39.06.82-.18c.07-.04.23-.14.26-.23.03-.1.12-.04.17 0 0 .11.07.34.22.35l.32.06s.2-.3.24-.33c.02-.02-.17-.17-.27-.25.15.04.46.12.55.17.1.06-.12-.17-.17-.2-.06-.03-.3-.2-.3-.23s.11-.1.19-.05c.07.05.3-.05.34-.05.02 0 .09-.24.12-.36h-.44l-.26.23-.23.08-.05.24-.36.04-.07.13-.38.1a.45.45 0 0 1 -.06-.13l.3-.06.14-.27h-.38c-.03 0-.2.15-.27.23l.09.24-.14.11.09.14-.2.08-.04-.27c0-.07-.01-.2-.03-.23a2.8 2.8 0 0 1 -.2-.4l.05-.36-.15.03c-.01.13-.03.41 0 .48.04.07.06.22.07.28l-.28.07-.05.25-.2-.12-.5-.23z" fill="#d6d6d6"/><path d="m11.36 10.69.23-.2v.51l-.06.43-.13.28v-.46z" fill="#c2c2c2"/><path d="m11.21 12.1a1.9 1.9 0 0 0 -.15.25c.09 0 .29 0 .36.02.1.03.05.13.03.18-.02.04-.2.21-.3.3l.6-.08c.09-.01.18-.24.18-.27 0-.02.23.02.27 0 .03 0 .01-.13 0-.19.04.02.13.07.18.06.05 0 .06-.09.07-.13l.19-.13.3.13-.04-.2-.52-.44-.1.09-.27.09-.2-.23-.09.1.03.17h-.06l-.1.16.31-.1.36.06c.02.07.05.21.02.21a.77.77 0 0 0 -.2.1l-.18.03-.15-.13-.15.16-.39-.2z" fill="#c9c9c9"/><path d="m14 4h-10v10h10zm-.5.5h-9v9h9z" fill="#4174c3" fill-rule="evenodd"/></svg>