<svg height="18" viewBox="0 0 18 18" width="18" xmlns="http://www.w3.org/2000/svg"><path d="m0 0h18v18h-18z" fill="#f0f3fa"/><path d="m9 4.1-4 2.45v4.92l4 2.43 4-2.43v-4.93l-4-2.43zm.26-1.03a.5.5 0 0 0 -.52 0l-4.5 2.74a.51.51 0 0 0 -.24.44v5.5c0 .18.1.35.24.44l4.5 2.74c.16.1.36.1.52 0l4.5-2.74c.15-.1.24-.26.24-.44v-5.5c0-.18-.1-.35-.24-.44z" fill="#002c5d" fill-rule="evenodd"/><path d="m8.99 5.6-3.42 5.84h1.42l2-3.38 1.87 3.38h1.42l-3.3-5.84z" fill="#002c5d"/><path d="m8.23 9.57h1.41v1.43h-1.4v-1.43z" fill="#ac171d"/></svg>