<svg height="18" width="18" xmlns="http://www.w3.org/2000/svg"><path d="m0 0h18v18h-18z" fill="#054899"/><path d="m8.14 5.2c-2-1.11-2.04-2.53-1.8-3.1-.03.75.49 2.4 2.73 3h.1c.03-.04 0-.08 0-.08-.52-.32-1.53-1.13-1.47-1.88.06-.76.32-1.08.44-1.14-.2.5-.43 1.59.32 2.04l.33.2c.82.5 1.63.97 1.9 1.91.09.29.12.59.16.89.1.82.2 1.7 1.31 2.6.2.16.43.53-.2.66-.17.02-.67-.06-1.34-.49-.22-.1-.67-.18-.74.3-.06.47-.5 1.37-.72 1.76-.05.1-.1.3.1.16l.04-.03c.24-.17.62-.44.83-.42.21 0 .6.46.18 2.23a4.5 4.5 0 0 0 .79-8.28l-.22-.65a5 5 0 1 1 -4.05.12l.46.34a4.5 4.5 0 0 0 -2.45 5.87c1.05-.23 1.3-.35 2.07-.73h.01c.98-.48 2.15-2.14 2.33-2.45s.06-.8-.09-1.02c-.12-.17-.1-.28-.09-.32.13-.2.37.05.47.2.11.23.35.5.34-.2 0-.6-.91-1.07-1.49-1.37l-.25-.13zm1.19 8.79a4.55 4.55 0 0 1 -1.6-.19c.2-.02.7-.15 1.12-.57l.26-.27c.26-.27.31-.32.67-.52.1-.05.2-.1.2 0 0 .14.03.97-.11 1.3-.06.12-.26.2-.54.25z" fill="#fff" fill-rule="evenodd"/></svg>