<svg height="18" viewBox="0 0 18 18" width="18" xmlns="http://www.w3.org/2000/svg"><path d="m0 0h18v18h-18z" fill="#f0f3fa"/><path d="m9.05 5.32a3.03 3.03 0 0 1 2.42 2.34l-.17.18c-.74-1.7-1.86-1.59-4.05-2.37-1.75-.63-2.23-1.9-2.25-2.47.27.9 1.9 1.84 4.05 2.32zm-1.63 6.68a1.92 1.92 0 0 1 -.86-1.84c.57 1.44 1.79 1.67 4.03 2.41 1.8.6 2.35 1.87 2.41 2.43-.47-1-1.8-1.54-2.41-1.69-.7-.22-2.32-.76-3.17-1.31z" fill="#b91f12"/><path d="m6.56 10.57c-.12-.54-.1-1.88.92-2.9l.48-.48c1.2-1.17 2.58-2.5 2.37-4.09.34.43.74 1.59-.3 2.83-.37.43-.78.85-1.19 1.27-1.06 1.09-2.11 2.17-2.28 3.37zm.9 4.05a3.31 3.31 0 0 1 .91-2.91l.49-.48c1.2-1.17 2.57-2.5 2.36-4.09.34.43.74 1.59-.3 2.83-.37.43-.78.85-1.19 1.27-1.06 1.1-2.1 2.17-2.28 3.38z" fill="#da7e63"/></svg>