<svg height="18" viewBox="0 0 18 18" width="18" xmlns="http://www.w3.org/2000/svg"><path d="m0 0h18v18h-18z" fill="#f0f3fa"/><path d="m8.24 6.8-.24.02v1.24h.15c.6 0 1.38 0 1.37-.66 0-.6-.71-.59-1.28-.58zm-2.53 1.77-.61-1.45-.52 1.24h.69l.32.72h-1.26l-.42.92h-.17-.74l1.67-4h.8l1.78 4h-.91l-.64-1.44zm2.3 1.43h-.76v-4h.42c.7 0 1.2 0 1.48.05.94.17 1.32 1.01 1.06 1.85-.27.89-1.28.88-2.03.87h-.18v1.23zm3.45 0h-.77v-4h.93l.92 1.7.92-1.7h.92v4h-.76v-2.52c0 .01-.06.14-1.08 1.6l-1.08-1.6z" fill="#f99d25"/><path d="m3.3 11h1.4c.16 0 .3.17.3.36v.28c0 .2-.14.36-.3.36h-1.4c-.16 0-.3-.16-.3-.36v-.28c0-.2.14-.36.3-.36zm2.48 0h2.87c.18 0 .35.17.35.36v.28c0 .2-.17.36-.35.36h-2.87c-.17 0-.32-.16-.32-.36v-.28c0-.2.14-.36.32-.36zm4 0h4.9c.18 0 .32.17.32.36v.28c0 .2-.14.36-.32.36h-4.9c-.17 0-.32-.16-.32-.36v-.28c0-.2.14-.36.32-.36z" fill="#1f355e"/></svg>