<svg height="18" viewBox="0 0 18 18" width="18" xmlns="http://www.w3.org/2000/svg"><path d="m0 0h18v18h-18z" fill="#f0f3fa"/><path d="m9 9.94c.6 0 1.65 1.07 1.93 1.35.3.3.45.74.3 1.18-.21.63-1.93 2.23-2.23 2.53-.3-.3-2.02-1.9-2.23-2.53-.14-.44 0-.89.3-1.18l.06-.07c.37-.35 1.32-1.28 1.87-1.28zm3.48-3.17c.62.21 2.22 1.93 2.52 2.23-.3.3-1.9 2.02-2.52 2.23-.45.15-.9 0-1.2-.3-.27-.28-1.34-1.34-1.34-1.93 0-.6 1.07-1.65 1.35-1.93.3-.3.74-.45 1.19-.3zm-5.77.3c.29.28 1.35 1.33 1.35 1.93s-1.07 1.65-1.35 1.93c-.3.3-.74.45-1.19.3-.62-.21-2.22-1.93-2.52-2.23.3-.3 1.9-2.02 2.52-2.23.45-.15.9 0 1.2.3zm2.3-4.07c.29.3 2 1.9 2.22 2.53.15.44 0 .89-.3 1.18-.28.29-1.33 1.35-1.93 1.35-.59 0-1.65-1.07-1.93-1.35-.3-.3-.44-.74-.3-1.18.21-.63 1.93-2.23 2.23-2.53z" fill="#ff2701"/></svg>