<svg height="18" viewBox="0 0 18 18" width="18" xmlns="http://www.w3.org/2000/svg"><path d="m0 0h18v18h-18z" fill="#f0f3fa"/><path d="m14.17 8.36.72-3.36h-11.13l-.76 3.38s.84 1.09.84 2.35c0 1.33-.8 2.27-.8 2.27h11.2s.76-.92.76-2.44c0-1.4-.83-2.2-.83-2.2z" fill="#0054a4"/><path d="m8.8 7v4h-.5v-.75a1.87 1.87 0 0 1 -1.53.75 1.96 1.96 0 0 1 -1.95-2 1.92 1.92 0 0 1 .57-1.41c.39-.4.85-.59 1.4-.59a1.8 1.8 0 0 1 1.51.8v-.8h.48zm-1.97.48a1.48 1.48 0 0 0 -1.3.76 1.54 1.54 0 0 0 0 1.54 1.5 1.5 0 0 0 2.81-.76 1.51 1.51 0 0 0 -1.5-1.54zm2.59-.48h.46v.76c.33-.47.86-.77 1.43-.76 1.01 0 1.88.86 1.86 1.88a1.85 1.85 0 0 1 -3.3 1.19v1.93h-.45zm1.85.45c-.8-.02-1.42.68-1.42 1.46-.02.79.63 1.41 1.43 1.41a1.44 1.44 0 0 0 0-2.87z" fill="#e8e8e8"/></svg>