<svg height="18" viewBox="0 0 18 18" width="18" xmlns="http://www.w3.org/2000/svg" xmlns:xlink="http://www.w3.org/1999/xlink"><linearGradient id="a" gradientUnits="userSpaceOnUse" x1="7.11" x2="6.81" y1="6.06" y2="15.1"><stop offset=".08" stop-color="#167fac"/><stop offset=".33" stop-color="#2dabe5"/><stop offset=".53" stop-color="#31a8e0"/><stop offset=".84" stop-color="#1084b7"/></linearGradient><linearGradient id="b" gradientUnits="userSpaceOnUse" x1="10.9" x2="10.9" y1=".42" y2="14.97"><stop offset=".13" stop-color="#9d1e21"/><stop offset="1" stop-color="#e52a2b"/></linearGradient><path d="m0 0h18v18h-18z" fill="#f0f3fa"/><path d="m8.8 6.72-.54-.72a4.36 4.36 0 0 0 -4.26 4.24 4.13 4.13 0 0 0 4.06 4.36c.84 0 1.45-.26 1.94-.6-2.45-.22-4-1.66-4-3.53 0-.98.4-2.16 1.6-2.64.18-.5.73-.92 1.2-1.1z" fill="url(#a)"/><path d="m9.38 2c.2 3.73 4.62 4.78 4.62 8.36 0 2.86-2.32 4.64-4.97 4.64a3.96 3.96 0 0 0 1.97-1.33c-.69 0-1.86-.1-2.32-.67h.35a2.5 2.5 0 0 0 0-5c-.36 0-.74.11-1.05.26a2.32 2.32 0 0 1 1.78-1.48 2.59 2.59 0 0 1 -1.26-2.18c0-1 .38-1.73.88-2.59z" fill="url(#b)"/></svg>