<svg height="18" viewBox="0 0 18 18" width="18" xmlns="http://www.w3.org/2000/svg"><path d="m0 0h18v18h-18z" fill="#f0f3fa"/><path d="m8 8.96c.16-.43.64-1.23 2-1v-2.28c-.1-.83-.8-2.28-3.22-1.4.38.05 1.22.35 1.22 1.12v3.57zm-1 .26v-3.21c-.61-.07-1.87.2-2 1.77v1c.07.41.4 1.22 1.1 1.22.72 0 .9-.52.9-.78z" fill="#1276c1"/><path d="m8 13.15v-3.37c.03-.84.6-2.29 3.28-1.41-.42.06-1.28.36-1.28 1.1v3.68c-.03.28-.26.85-1.1.85-.65 0-.82-.57-.9-.85zm3-.16v-3.23c.05-.25.27-.76.8-.76.68 0 1.2.5 1.2 1.54 0 1.02-.2 2-.97 2.32-.38.14-.85.15-1.03.13z" fill="#283a8c"/></svg>