<svg height="18" viewBox="0 0 18 18" width="18" xmlns="http://www.w3.org/2000/svg"><path d="m0 0h18v18h-18z" fill="#f0f3fa"/><path d="m8.3 8-1.87 6h1.4l.85-2.5h2.05l.27-1h-2.02l.57-1.5h2.6l.35-1z" fill="#f9cd04"/><path d="m7.9 7-1.9 6h1.41l.86-2.5h2.04l.23-1h-2.01l.49-1.5h2.65l.33-1z" fill="#0e3a79"/><path d="m13 3s-1.24.72-2.84.72c-2.14 0-3.52.98-4.16 2.28 0 0 .85-.67 1.45-.94 1.24-.55 2.1-.36 3.44-.36 1.25 0 2.11-1.7 2.11-1.7z" fill="#143169"/><path d="m6 6s.43-.26 1.15-.31c1.37-.1 1.9 0 3.1 0 1.9 0 2.75-1.69 2.75-1.69s-.87.64-2.13.64h-1.83c-1.43 0-2.24.54-3.04 1.36z" fill="#d8080f"/></svg>