<svg height="18" width="18" xmlns="http://www.w3.org/2000/svg"><path d="m0 0h18v18h-18z" fill="#ec1521"/><g fill="#fff"><path d="m10.542 6.868c.284 0 .555-.14.726-.374a.945.945 0 0 0 .18-.56.946.946 0 0 0 -.18-.56.904.904 0 0 0 -.726-.374c-.5 0-.906.419-.906.934s.407.934.906.934z"/><path d="m13.993 6.924c-.01-.012-.03-.014-.053-.006l-.013.005c-.68.257-2.18.537-4.197.167-2.404-.44-3.266-.218-3.69-.059l-.011.005c-.026.01-.042.028-.04.045 0 .018.02.033.046.04l.004.002c3.034.702 1.156 3.315-2.986 5.781a.132.132 0 0 0 -.02.012c-.024.017-.037.038-.032.055.006.02.034.03.069.029l.01-.001c.722-.067 1.786-.465 3.064-1.051l.002-.001c.149-.068.3-.14.455-.213.646-.291 1.38-.564 1.845-.413.613.2.731.67.805 1.563l.001.014c.003.023.012.04.027.044.015.005.034-.006.05-.027a.132.132 0 0 1 .005-.008c.299-.422 1.405-2.073 1.468-3.377 1.486-.888 2.726-1.799 3.174-2.527a.147.147 0 0 0 .015-.024c.01-.022.012-.043.002-.055z"/></g></svg>