<svg height="18" viewBox="0 0 18 18" width="18" xmlns="http://www.w3.org/2000/svg"><path d="m0 0h18v18h-18z" fill="#f0f3fa"/><path d="m8.98 13.7c-2.88-.02-3.73-3.4-2.32-5.46.5-.72.41-1.82.3-2.27 4.63 0 5.37 2.93 5.17 4.4-.26-2.43-2.82-3.34-4.07-3.5.08.55-.2 1.38-.49 2.17a4.91 4.91 0 0 0 -.45 1.93c.13.7.72 1.6 2.08 1.74zm1.5-.22a4.87 4.87 0 0 0 3.52-4.63 4.93 4.93 0 0 0 -5-4.85c-2.76 0-5 2.17-5 4.85 0 .78.19 1.52.53 2.17-.32-2.29.17-6 4.31-6.11 1.46 0 4.35.85 4.22 4.24-.05 1.01-.62 3.12-2.5 3.49l-.2.03z" fill="#7dab3c"/><path d="m9 14c1.25-1.7.52-4.75 0-6.06 1.5 1.82 1.25 4.8.94 6.06z" fill="#28408e"/></svg>