<svg height="18" width="18" xmlns="http://www.w3.org/2000/svg"><path d="m0 0h18v18h-18z" fill="#f0f3fa"/><circle cx="9" cy="9" fill="#f6f8fd" r="9"/><path d="m5.095 14.71c.01-.213.146-.805.43-1.683.534-1.647 1.666-4.045 3.763-4.794l.003.648s-2.027.714-3.572 4.23c-.31.707-.522 1.435-.61 1.603l-.014-.005zm2.88-.556c2.206-.592 2.676-3.402 2.674-5.695 0-1.708-.262-3.13-.262-3.13-4.919 2.098-6.026 4.087-6.035 5.445 0 .502.129.91.234 1.082l.008-.006a2.944 2.944 0 0 1 -.09-.647c-.01-1.206.934-2.97 5.341-4.85 0 0 .235 1.263.237 2.78.003 1.953-.353 4.32-2.12 5.01l.014.01z" fill="#00a94f"/><path d="m10.592 4.912c-1.874.787-3.301 1.572-4.336 2.37-1.045.805-1.701 1.622-2.008 2.498-.073.211-.15.507-.164.803l-.4-.368c-.331-.305-.684-.655-.684-1.215s.352-.91.685-1.215l5.071-4.655c.099-.093.16-.13.244-.13s.145.037.244.129l5.072 4.656c.332.305.684.655.684 1.215s-.352.91-.684 1.215l-5.072 4.655c-.1.092-.16.13-.244.13s-.145-.038-.244-.13l-.518-.476c1.02-.34 1.749-1.184 2.18-2.38.34-.946.513-2.142.513-3.554 0-1.755-.267-3.222-.339-3.548z" fill="#004b91"/></svg>