<svg height="18" width="18" xmlns="http://www.w3.org/2000/svg"><path d="m0 0h18v18h-18z" fill="#00b0b9"/><path d="m11.99 8.925 2.09-1.17-4.78-2.49v2.33zm-5.836-.005 2.546-1.325v-2.33l-4.78 2.49 2.233 1.165zm-2.572 1.325 1.96-1.004-1.96-1.005v2.01zm8.124 1.49v-2.33l-2.706-1.33-2.233 1.165 4.938 2.495zm.595 0 2.113-1.17v-2.33l-2.114 1.17v2.33zm-6.146.156 2.234-1.165-2.236-1.166-2.233 1.166 2.234 1.165zm5.71.578-2.865-1.423-2.72 1.419a.276.276 0 0 1 -.253 0l-2.902-1.514a.225.225 0 0 1 -.125-.196v-3.029c0-.083.05-.159.13-.199l5.745-2.996a.275.275 0 0 1 .252 0l5.746 2.998c.079.04.127.116.127.197v3.029c0 .08-.048.156-.125.196l-2.758 1.518a.276.276 0 0 1 -.253 0z" fill="#fff"/></svg>