<svg height="18" viewBox="0 0 18 18" width="18" xmlns="http://www.w3.org/2000/svg"><path d="m0 0h18v18h-18z" fill="#f0f3fa"/><path d="m6.35 13.65h1.05c.3-4.36 3.68-5.58 5.61-5.45v-.13l-.02-.05-1.76.11-.98.25-2.29 1.52-1.33 2-.28 1.74z" fill="#f8b041"/><path d="m5.77 13.23 3.39-9.23h.81l1.41 3.86c.6-.1 1.15-.11 1.62-.11v.32c-.5-.01-1 .04-1.5.14l.78 2.02c.1.25.33.42.6.42h.12v.35h-2.39v-.35h.4c.23 0 .38-.22.3-.43l-.67-1.76a6.04 6.04 0 0 0 -3.07 2.41 7.43 7.43 0 0 0 -.8 1.77c-.08.26-.28 1 .22 1h.4v.36h-2.39v-.35h.17c.27 0 .5-.17.6-.42zm1.73-3.11a7.23 7.23 0 0 1 3-2.03l-1.13-3.1z" fill="#282c6c"/></svg>