<svg height="18" width="18" xmlns="http://www.w3.org/2000/svg" xmlns:xlink="http://www.w3.org/1999/xlink"><linearGradient id="a" gradientUnits="userSpaceOnUse" x1="7.94" x2="5.77" y1="8.56" y2="12.76"><stop offset="0" stop-color="#8cabbd"/><stop offset="1" stop-color="#6a869b"/></linearGradient><linearGradient id="b" gradientUnits="userSpaceOnUse" x1="11.76" x2="10.35" y1="9.09" y2="14.38"><stop offset="0" stop-color="#58708d"/><stop offset="1" stop-color="#164466"/></linearGradient><path d="m0 0h18v18h-18z" fill="#f0f3fa"/><path d="m9.01 3.5-5.01 2.8v3l5.01-3 4.99 3v-3z" fill="#bfa667"/><path d="m6.23 8.27-2.23 1.3v2.25l3.64 1.97a17.3 17.3 0 0 1 2.14-4.18l-.45-.45.6-.36z" fill="url(#a)"/><path d="m9 14.5-1.41-.74c.92-2.3 1.83-3.72 2.18-4.14l-.45-.46.58-.38 4.09.8v2.24l-5 2.68z" fill="url(#b)"/></svg>