<svg height="18" width="18" xmlns="http://www.w3.org/2000/svg"><path d="m0 0h18v18h-18z" fill="#003c69"/><path d="m10.944 9 3.056-4-4.394 4zm.193 0h1.03l1.819-3.943zm2.807-3.976-6.36 3.976h1.743zm-2.695 6.158.79-1.818c-.46.02-.85.047-1.262.08l-1.144 1.554c.552.024 1.08.046 1.616.184zm-4.176 0c.432-.073 1.221-.208 2.114-.208h.174l1.193-1.514c-.62.049-1.248.13-1.806.228l-.126.105-1.55 1.389zm-.313.223-.356.073 2.012-1.75c-2.992.585-4.928 1.718-5.416 2.027.188 0 2.916-.04 4.938 1.245l1.389-1.831h-.14c-1.311 0-2.427.236-2.427.236z" fill="#fff"/></svg>