<svg height="18" viewBox="0 0 18 18" width="18" xmlns="http://www.w3.org/2000/svg" xmlns:xlink="http://www.w3.org/1999/xlink"><linearGradient id="a" gradientUnits="userSpaceOnUse" x1="9.15" x2="9.15" y1="3" y2="15"><stop offset="0" stop-color="#5699d0"/><stop offset=".85" stop-color="#22488a"/></linearGradient><linearGradient id="b" gradientUnits="userSpaceOnUse" x1="6.71" x2="6.71" y1="7" y2="11"><stop offset=".16" stop-color="#5699d0"/><stop offset=".3" stop-color="#5698ce"/><stop offset="1" stop-color="#22488a"/></linearGradient><path d="m0 0h18v18h-18z" fill="#f0f3fa"/><path d="m8.83 15c3.4 0 6.17-2.69 6.17-6s-2.76-6-6.17-6a6.19 6.19 0 0 0 -5.53 3.34 4.6 4.6 0 1 1 0 5.32c1 1.98 3.1 3.34 5.53 3.34z" fill="url(#a)"/><path d="m3.6 11 4.13-4h1.93l.17 4h-1.33v-.73h-2.84l-.76.73zm2.7-1.34 2.12-2.04v2.04z" fill="url(#b)" fill-rule="evenodd"/></svg>