<svg height="18" viewBox="0 0 18 18" width="18" xmlns="http://www.w3.org/2000/svg" xmlns:xlink="http://www.w3.org/1999/xlink"><linearGradient id="a" gradientUnits="userSpaceOnUse" x1="10.16" x2="13.91" y1="5.72" y2="5.72"><stop offset="0" stop-color="#2079bb"/><stop offset=".64" stop-color="#82b3d8"/><stop offset="1" stop-color="#1c78bb"/></linearGradient><linearGradient id="b" gradientUnits="userSpaceOnUse" x1="8.37" x2="15.28" y1="7.87" y2="7.87"><stop offset="0" stop-color="#2f398e"/><stop offset=".6" stop-color="#9892c0"/><stop offset="1" stop-color="#322883"/></linearGradient><linearGradient id="c" gradientUnits="userSpaceOnUse" x1="5.53" x2="14.33" y1="9.76" y2="12.18"><stop offset="0" stop-color="#8abce1"/><stop offset=".5" stop-color="#c8dcf4"/><stop offset="1" stop-color="#8abce1"/></linearGradient><linearGradient id="d" gradientUnits="userSpaceOnUse" x1="3.89" x2="12.18" y1="5.24" y2="13.81"><stop offset="0" stop-color="#27388f"/><stop offset="1" stop-color="#007dc1"/></linearGradient><linearGradient id="e" gradientUnits="userSpaceOnUse" x1="3.23" x2="9.43" y1="9.79" y2="14.92"><stop offset="0" stop-color="#74b6e3"/><stop offset="1" stop-color="#1358a4"/></linearGradient><path d="m0 0h18v18h-18z" fill="#f0f3fa"/><path d="m12.05 4.58-.95-.82.28.47a1.39 1.39 0 0 0 -1.42 1.44c0 1.34 1.39 2.62 2.61 2.62 1.23 0 1.34-.99 1.34-1.38 0-.3-.2-.78-.3-.97h-.28c.3 1.05.04 1.48-.12 1.56-.34.16-1.2.26-1.93-.59-.9-1.06-.38-1.85-.15-2 .18-.12.47-.1.59-.08l.3.72z" fill="url(#a)"/><path d="m14.42 6.02h-.12c.77 1.8.48 2.8-.19 3.44a2.6 2.6 0 0 1 -1.71.62c-2.8-.07-4.16-3.06-4.16-4.38 0-1.05.4-1.52.6-1.63l.79.26-.48-.85-1.65.23.64.2c-1.05 1.11-.6 2.82-.25 3.53 1.45 2.95 4.25 3.44 4.94 3.3a2.8 2.8 0 0 0 1.65-.95c.35-.46.53-.78.52-1.83 0-.84-.4-1.64-.58-1.94z" fill="url(#b)"/><path d="m13.16 10.95-.12.73c-4.39 1.05-6.98-3.42-7.12-5.75-.12-1.87 1.37-2.73 2.13-2.93-3.71.74-3.62 4.83-.8 7.7 2.25 2.3 4.63 2.3 5.54 2.02l-.32.54a7.29 7.29 0 0 0 1.33-1.5l-.64-.8z" fill="url(#c)"/><path d="m5.56 10.68c-2.53-3.23-1.2-5.73-.22-6.57-3.1 1.96-1.56 5.41-.4 6.9 4.09 4.81 7.43 3.36 8.59 2.03-1.18 1.04-4.8 1.68-7.97-2.36z" fill="url(#d)"/><path d="m5.14 13.28c2.16 1.94 4.22 1.85 4.99 1.57l-.05-.06c-2.27.36-3.83-.99-4.78-1.73a9.18 9.18 0 0 1 -1.87-2.5l.33-.42c-.46-.16-.7-.56-.76-.74-.03.82.2 1.5.32 1.74l.04-.2c.47 1.07 1.38 2 1.78 2.34z" fill="url(#e)"/></svg>