<svg height="18" width="18" xmlns="http://www.w3.org/2000/svg"><path d="m0 0h18v18h-18z" fill="#eae4e1"/><path d="m14.441 8.89c0 2.928-2.439 5.301-5.448 5.301-3.01 0-5.449-2.373-5.449-5.3 0-2.929 2.44-5.302 5.449-5.302s5.447 2.373 5.447 5.301z" fill="#f8f5f5"/><path d="m8.993 14.06c2.94 0 5.317-2.318 5.317-5.17s-2.377-5.17-5.317-5.17-5.318 2.318-5.318 5.17 2.378 5.17 5.318 5.17zm0 .131c3.009 0 5.448-2.373 5.448-5.3 0-2.929-2.439-5.302-5.448-5.302-3.01 0-5.449 2.373-5.449 5.301s2.44 5.301 5.449 5.301z" fill="#577f73" fill-rule="evenodd"/><path d="m6.09 12.277c.736-1.62 2.81-7.215 2.81-7.215h.294c.932 2.405 2.857 7.245 3.092 7.362.236.118.442.148.59.148.343 0 .365.294.147.294h-2.504c-.071 0-.147-.294 0-.294s.24-.104.24-.148l-1.86-5.3-1.914 5.3s-.147.148.589.148c.115 0 .115.294 0 .294h-2.356c-.147 0-.115-.294 0-.294.282 0 .727.024.871-.295z" fill="#7c7c7f"/><path d="m9.963 10.068h-2.209l.147-.441h1.915z" fill="#7c7c7f"/><g fill="#577f73"><path d="m9.103 14.78v-11.78h-.131v11.78h.13z"/><path d="m12.838 5.193h-7.543v7.542h7.543zm-7.674-.131v7.804h7.805v-7.804z" fill-rule="evenodd"/><path d="m12.821 12.802-7.593-7.592.084-.084 7.593 7.594-.084.083z"/><path d="m5.228 12.832 7.594-7.594-.084-.083-7.593 7.593zm3.322-7.279a.196.196 0 1 0 0-.393.196.196 0 0 0 0 .393zm0 .098a.295.295 0 1 0 0-.59.295.295 0 0 0 0 .59zm.987-.095a.196.196 0 1 0 0-.393.196.196 0 0 0 0 .393zm0 .098a.295.295 0 1 0 0-.59.295.295 0 0 0 0 .59zm.929 6.909a.196.196 0 1 0 0-.393.196.196 0 0 0 0 .393zm0 .098a.294.294 0 1 0 0-.589.294.294 0 0 0 0 .589zm-3.235-.131a.196.196 0 1 0 0-.392.196.196 0 0 0 0 .393zm0 .099a.294.294 0 1 0 0-.589.294.294 0 0 0 0 .589zm5.476-.09a.564.564 0 1 0 0-1.13.564.564 0 0 0 0 1.13zm0 .098a.663.663 0 1 0 0-1.326.663.663 0 0 0 0 1.326z" fill-rule="evenodd"/><path d="m5.532 12.547a.564.564 0 1 0 0-1.129.564.564 0 0 0 0 1.13zm0 .098a.663.663 0 1 0 0-1.325.663.663 0 0 0 0 1.325z" fill-rule="evenodd"/></g></svg>