<svg height="18" viewBox="0 0 18 18" width="18" xmlns="http://www.w3.org/2000/svg"><path d="m0 0h18v18h-18z" fill="#f0f3fa"/><path d="m13.96 12.38.04 1.54c-.38.06-.77.08-1.16.08-1.14 0-1.9-.63-2.01-1.62-.58 1.09-1.58 1.62-3.34 1.62-1.77 0-3.49-.86-3.49-2.73 0-2.06 1.89-2.63 3.53-2.92l3.47-.6c0-1.47-.82-2.38-2.29-2.38-1.8 0-2.53.61-2.53 2.07l-1.83-.24c.04-1.15.48-1.99 1.29-2.49a6.18 6.18 0 0 1 3.16-.71c2.63 0 4.2 1.09 4.2 3.17v4.56c0 .75.2.83.96.65zm-2.96-3.36-3.18.63c-1.1.23-1.82.51-1.82 1.6 0 .9.76 1.4 1.78 1.4 2.26 0 3.22-1.1 3.22-2.47z" fill="#ff4a00"/></svg>