<svg height="18" viewBox="0 0 18 18" width="18" xmlns="http://www.w3.org/2000/svg" xmlns:xlink="http://www.w3.org/1999/xlink"><linearGradient id="a" gradientUnits="userSpaceOnUse" x1="3.45" x2="5.21" y1="5" y2="10.47"><stop offset="0" stop-color="#69696b"/><stop offset="1" stop-color="#c9c9c9"/></linearGradient><linearGradient id="b" gradientUnits="userSpaceOnUse" x1="3.81" x2="5.46" y1="5" y2="10.35"><stop offset="0" stop-color="#dcdcdc"/><stop offset="1" stop-color="#a1a1a3"/></linearGradient><linearGradient id="c" gradientUnits="userSpaceOnUse" x1="14.5" x2="11.32" y1="5" y2="12.77"><stop offset="0" stop-color="#e1e1e1"/><stop offset="1" stop-color="#757378"/></linearGradient><linearGradient id="d" gradientUnits="userSpaceOnUse" x1="14.5" x2="11.33" y1="5" y2="12.78"><stop offset="0" stop-color="#9fa0a2"/><stop offset="1" stop-color="#cdcdcd"/></linearGradient><linearGradient id="e" gradientUnits="userSpaceOnUse" x1="9" x2="10.03" y1="7.15" y2="9.64"><stop offset="0" stop-color="#114425"/><stop offset="1" stop-color="#1f7b4a"/></linearGradient><linearGradient id="f" gradientUnits="userSpaceOnUse" x1="9" x2="5.89" y1="5" y2="13.67"><stop offset="0" stop-color="#24804f"/><stop offset=".54" stop-color="#247c4e"/><stop offset="1" stop-color="#135e35"/></linearGradient><linearGradient id="g" gradientUnits="userSpaceOnUse" x1="10.45" x2="10.45" y1="11.26" y2="12.24"><stop offset="0" stop-color="#113f24"/><stop offset="1" stop-color="#224833"/></linearGradient><path d="m0 0h18v18h-18z" fill="#f0f3fa"/><path d="m6.18 8.91-1.18 3.13-2-6.53c-.07-.25.11-.51.37-.51h1.2c.17 0 .49.23.54.4l1.07 3.5z" fill="url(#a)"/><path d="m6.18 8.91-1.06 2.79-1.75-6.2c-.08-.24.1-.49.37-.49h.97c.17 0 .32.1.37.27l1.1 3.64z" fill="url(#b)"/><path d="m14.82 5h-1.5a.18.18 0 0 0 -.17.14l-2.15 7.62c-.04.12.05.24.17.24h1.5c.08 0 .15-.06.17-.14l2.16-7.62c.04-.12-.05-.24-.17-.24z" fill="url(#c)"/><path d="m14.82 5h-1.13a.18.18 0 0 0 -.17.14l-2.15 7.62c-.03.12.05.24.18.24h1.12c.08 0 .15-.06.17-.14l2.16-7.62c.04-.12-.05-.24-.17-.24z" fill="url(#d)"/><path d="m10.1 9.7h-.37l-.91-2.74h.54v.39l.73 2.35z" fill="url(#e)"/><path d="m5.36 14h-.36c-.13 0-.21-.13-.17-.26l2.78-8.6c.03-.09.1-.14.17-.14h.37a.18.18 0 0 0 -.18.13l-2.77 8.61c-.04.13.05.26.17.26z" fill="url(#f)"/><path d="m5.36 14h1.38l.91-3h2.8l.37 1.24.73-2.74-1.5-4.37a.18.18 0 0 0 -.15-.13h-1.75a.18.18 0 0 0 -.18.13l-2.77 8.61c-.04.13.05.26.17.26zm3.62-6.96-.72 2.46h1.74l-.77-2.46c-.04-.11-.2-.11-.25 0z" fill="#115830" fill-rule="evenodd"/><path d="m10.45 11h-.36l.36 1.24h.37z" fill="url(#g)"/><path d="m8 13.44h6v.56h-6z" fill="#c4c5ca"/></svg>