<svg height="18" viewBox="0 0 18 18" width="18" xmlns="http://www.w3.org/2000/svg"><path d="m0 0h18v18h-18z" fill="#1c558c"/><path d="m3.5 10a1.5 1.5 0 1 0 0-3 1.5 1.5 0 0 0 0 3z" fill="#f58220"/><path d="m7.43 10a1.18 1.18 0 0 0 1.1-.73 1.2 1.2 0 0 0 -.86-1.64 1.18 1.18 0 0 0 -1.22.51 1.2 1.2 0 0 0 .98 1.86z" fill="#f89848"/><path d="m10.6 10a.88.88 0 0 0 .82-.55.9.9 0 0 0 -.65-1.22.88.88 0 0 0 -.91.38.9.9 0 0 0 .74 1.4z" fill="#fab072"/><path d="m13.24 10a.66.66 0 0 0 .62-.41.68.68 0 0 0 -.49-.92.66.66 0 0 0 -.68.29.68.68 0 0 0 .55 1.04z" fill="#fdc99b"/><path d="m15.5 10a.5.5 0 0 0 .46-.3.51.51 0 0 0 -.1-.56.5.5 0 0 0 -.86.36.5.5 0 0 0 .3.47.5.5 0 0 0 .2.03z" fill="#fedcbd"/></svg>