<svg height="18" viewBox="0 0 18 18" width="18" xmlns="http://www.w3.org/2000/svg"><path d="m0 0h18v18h-18z" fill="#f0f3fa"/><path d="m6.25 4.87a.58.58 0 0 0 .06-.26c0-.33-.29-.61-.65-.61-.37 0-.66.28-.66.61 0 .23.13.43.32.53v6.64a.6.6 0 0 0 -.32.53c0 .34.3.62.66.62a.7.7 0 0 0 .24-.05l2.25 1.4v.1c0 .34.29.62.65.62s.66-.28.66-.61a.58.58 0 0 0 -.05-.23l4.67-3.52a.7.7 0 0 0 .27.06c.36 0 .65-.28.65-.62s-.3-.61-.65-.61a.7.7 0 0 0 -.27.05zm-.25.27h.02l7.81 4.57a.61.61 0 0 0 -.07.1l-4.34-.24a.66.66 0 0 0 -.61-.37.7.7 0 0 0 -.16.02l-2.66-4.08zm-.34.09a.68.68 0 0 0 .01 0l2.64 4.17a.6.6 0 0 0 -.14.58l-2.07 1.88a.68.68 0 0 0 -.45-.16h-.01v-6.47zm.53 7.46a.59.59 0 0 0 .12-.52l2.07-1.9c.05.05.11.09.18.11v3.44c-.11.04-.2.1-.27.2zm3.05 1.23a.68.68 0 0 0 -.36-.15v-3.35c.31-.03.55-.26.58-.55l4.24.28c.02.11.06.21.13.3l-4.6 3.47z" fill="#21abea"/></svg>