<svg height="18" viewBox="0 0 18 18" width="18" xmlns="http://www.w3.org/2000/svg"><path d="m0 0h18v18h-18z" fill="#f0f3fa"/><path d="m8.9 11.32h-2.12l-.63 1.18h-1.15l3.04-5.5h1.26l.87 5.5h-1.09l-.17-1.18zm-.13-.94-.31-2.24-1.3 2.24z"/><ellipse cx="5.8" cy="4.26" fill="#e38f10" rx="1.3" ry="1.26"/><path d="m10.3 10.51h1.08c-.04.68.5 1.07 1.08 1.07.4 0 .99-.08.99-.65s-.52-.59-.92-.73a6.97 6.97 0 0 1 -.94-.46 1.3 1.3 0 0 1 -.63-1.15 1.4 1.4 0 0 1 .5-1.1c.41-.33.86-.49 1.46-.49s1.07.16 1.5.48a1.6 1.6 0 0 1 .58 1.17l-1.08.05c0-.42-.55-.7-1-.7-.34 0-.91.11-.91.6 0 .47.71.55 1.03.67.68.23 1.63.63 1.6 1.56 0 .23-.06.46-.16.67-.38.8-1.27 1-2.03 1-.7 0-1.55-.1-1.96-.81-.15-.3-.2-.85-.19-1.18z"/><path d="m14.5 7a5.98 5.98 0 0 0 -4.63-2.4c-3.7 0-5.87 2-5.87 5.23 0 1.37.53 3.66 3 5.16a5.91 5.91 0 0 1 -4-5.45c0-3.33 2.7-6.04 6.05-6.04a6.1 6.1 0 0 1 5.45 3.5z" fill="#103c82"/></svg>