<svg height="18" width="18" xmlns="http://www.w3.org/2000/svg"><path d="m0 0h18v18h-18z" fill="#00009a"/><g fill="#fff"><path d="m4.02 8.974c0-4.07 3.735-5.581 6.489-4.72-.917 0-1.18.381-1.45.771l-.008.01-3.308 5.644c-1.48-.054-1.743-1.322-1.722-1.705z"/><path d="m11.65 4.744c3.511 1.826 2.428 6.82.74 7.845.472-.795.278-1.15.079-1.585l-3.165-5.725c.802-1.245 2.028-.749 2.346-.535z"/><path d="m11.47 13.348c-4.032 2.005-7.23-1.232-7.423-3.436.464.8 1.085 1.05 1.562 1.088h6.541c.696 1.307-.33 2.17-.68 2.348z"/></g></svg>