<svg height="18" viewBox="0 0 18 18" width="18" xmlns="http://www.w3.org/2000/svg"><path d="m0 0h18v18h-18z" fill="#f0f3fa"/><path d="m4.44 10.21c-.2.96 0 1.72 1.65 1.72.8 0 2.45-.13 5.07-1.44-1.9 1.41-4.02 2.51-5.7 2.51-.84 0-1.54-.45-1.54-1.29 0-.28 0-.73.52-1.5zm8.64-2.54c.22-.92 0-1.6-1.68-1.6-.81 0-2.5.08-5.17 1.33 1.94-1.33 4.1-2.4 5.82-2.4.85 0 1.57.43 1.57 1.23 0 .27 0 .7-.54 1.44z" fill="#087019"/><g fill="#a50312"><path d="m14.29 10.33c-.82 0-1.41-.48-1.41-1.33 0-.81.64-1.32 1.41-1.33.44 0 .71.16.71.16v.49s-.27-.2-.62-.2a.86.86 0 0 0 -.9.88c0 .52.37.89.9.89.38 0 .62-.24.62-.24v.5s-.23.18-.71.18zm-4.01-2.66h.62l.48 1.86.44-1.86h.6l-.68 2.66h-.7l-.47-1.86-.46 1.86h-.71l-.68-2.66h.63l.46 1.86z"/><path d="m6.23 10.33h.55v-.89h.33c.54 0 .97-.24.97-.85 0-.78-.63-.92-1.12-.92h-.73zm1.3-1.78c0-.27-.23-.44-.48-.44h-.27v.9h.33c.27 0 .41-.2.41-.46zm-4.53 1.78h.57l.2-.59h.96l.21.6h.57l-.91-2.68h-.68zm1.6-1.1-.35-.94-.33.95h.68z" fill-rule="evenodd"/></g></svg>