<svg height="18" viewBox="0 0 18 18" width="18" xmlns="http://www.w3.org/2000/svg"><path d="m0 0h18v18h-18z" fill="#f0f3fa"/><path d="m3.9 6.93-1.16 3.07h1.28l.93-2.64c.03-.09.1-.15.19-.15.08 0 .15.06.18.15l.56 1.64h1.24l-.76-2.1c-.22-.55-.68-.9-1.19-.9h-.07c-.52 0-.99.36-1.2.93z" fill="#585858"/><path d="m6.3 10-.33-.7h1.25l.33.7z" fill="#a60014"/><path d="m2.4 11 .25-.76h7.05c.1-.01.28-.1.28-.51 0-.42-.19-.72-.28-.73h-1.54c-.9 0-1.17-.92-1.16-1.42 0-1.26.79-1.58 1.16-1.58h2.64v1h-2.42c-.17 0-.38.25-.38.44v.22c0 .19.21.34.38.34h1.53c.36 0 1.09.3 1.09 1.4 0 1.11-.55 1.58-.82 1.6z" fill="#a60014"/><g fill="#585858"><path d="m11 7v-1h2.83c.4 0 1.17.32 1.17 1.56 0 1.49-1.1 1.45-1.27 1.44h-.85l2.12 1.32v1.33l-3-1.81v1.16h-1v-1.5c0-.49.22-1.5 1.15-1.5h1.39c.22 0 .46-.25.46-.5v-.05c0-.24-.24-.45-.46-.45z"/><path d="m2.32 11.3-.32.7h11.5l.26-.7z" opacity=".5"/></g></svg>