<svg height="18" viewBox="0 0 18 18" width="18" xmlns="http://www.w3.org/2000/svg"><path d="m0 0h18v18h-18z" fill="#f0f3fa"/><path d="m12.85 7.91c-.96.83-2.33 1.6-3.7 2.38-.35 1.61-.75 3.15-1.45 4.21 1.53-.73 3.01-2.67 3.79-4.33.73.18 1.4.54 1.97 1.03a6.51 6.51 0 0 0 -.6-3.3m-1.39-4.4a5.35 5.35 0 0 0 -1.35 2.5c.74.2 1.43.36 2.04.46-.47-.97-.86-1.9-.7-2.96z" fill="#a7a9ac"/><path d="m2 5.44c2.85.38 4 1.03 5.74 3.1-1.08 1.14-2.54 3.1-2.87 5 .8-1.22 2.53-2.25 4.28-3.25.31-1.47.58-3 .97-4.28-2.92-.76-5.32-1.14-8.12-.57zm10.16 1.02c.23.47.47.94.7 1.45a4.1 4.1 0 0 0 1.14-1.43c-.47.13-1.1.1-1.84-.02z" fill="#d91e49"/><path d="m12.16 6.46c-.61-.1-1.3-.26-2.04-.45-.4 1.28-.66 2.8-.97 4.28 1.37-.78 2.74-1.55 3.7-2.38-.21-.5-.46-.98-.69-1.45" fill="#a62b4e"/></svg>