<svg height="18" width="18" xmlns="http://www.w3.org/2000/svg"><path d="m0 0h18v18h-18z" fill="#f0f3fa"/><path d="m3 7.417.91 4.174-.308-2.01s1.25 1.637 2.021 1.708c.975.09 1.715-1.55 2.553-2.886a8.59 8.59 0 0 1 .816-1.128c.312.361.62.872.92 1.336 1.21 1.988 1.603 2.487 2.087 2.64.794.252 1.88-.997 2.371-1.665l-.301 1.999.931-4.168s-.986 1.758-1.473 2.41c-.488.652-.905 1.133-1.326 1.04-.46-.1-.684-.597-1.079-1.298-.315-.56-2.043-4.239-2.13-4.239-.088 0-1.576 3.166-2.29 4.535-.182.35-.295.493-.4.636-.103.142-.4.432-.728.372-.657-.053-1.99-2.326-2.574-3.456z" fill="#ebc718"/><path d="m4.04 11.618-.19-1.228s.323.75 1.243 1.572c1.31 1.094 2.935 1.382 3.76 1.403-1.054-.012-1.93-.263-2.84-.576-.827-.285-1.61-.827-1.971-1.172z" fill="#7dae3e"/></svg>