<svg height="18" width="18" xmlns="http://www.w3.org/2000/svg" xmlns:xlink="http://www.w3.org/1999/xlink"><linearGradient id="a" gradientUnits="userSpaceOnUse" x1="3.35" x2="21.9" y1="3.12" y2="24.43"><stop offset="0" stop-color="#1a1e21"/><stop offset="1" stop-color="#06060a"/></linearGradient><path d="m0 0h18v18h-18z" fill="url(#a)"/><path d="m8.98 4.5-.58 2.18c.2-.02.72-.06 1.12 0zm3.53.91-1.61 1.66c.2.08.66.3.97.56zm-5.45 1.66-1.61-1.66.64 2.22c.31-.25.78-.48.97-.56zm-4.16.93 2.22.64c-.12.16-.41.58-.56.97l-1.67-1.61zm9.97.62 2.23-.62-1.67 1.6c-.14-.38-.43-.8-.56-.97zm3.13 2.88-2.24-.57c.01.12.03.33.03.57zm-11.76-.57-2.24.57h2.2zm9.21.57a4.45 4.45 0 0 0 -8.9 0h.64v-.17c0-2.01 1.7-3.65 3.81-3.65a3.74 3.74 0 0 1 3.81 3.82z" fill="#fed403"/><path d="m7 9.5h4l1 2h-6z" fill="#02e7a1" fill-opacity=".9"/></svg>