<svg height="18" viewBox="0 0 18 18" width="18" xmlns="http://www.w3.org/2000/svg"><path d="m0 0h18v18h-18z" fill="#f0f3fa"/><g fill-opacity=".8"><path d="m11.3 4h-4.72l1.4 2h2l2.5 4h2.52z" fill="#77c45c"/><path d="m12.5 10-2.5-4-1.63 1.9 2.61 4.1 1.5-2z" fill="#549948"/><path d="m3 10.36 2.49 3.64 1.5-2-1.5-2 2.5-4-1.4-2z" fill="#0372b7"/><path d="m7.99 6-2.5 4h2l2.5-4h-1.99z" fill="#1a498f"/><path d="m12.5 14 2.5-4h-2.5l-1.5 2h-4.02l-1.5 2h7z" fill="#0ac3f2"/><path d="m6.99 12h4l-1.27-2h-4.22l1.5 2z" fill="#009bd4"/></g></svg>