<svg height="18" viewBox="0 0 18 18" width="18" xmlns="http://www.w3.org/2000/svg"><path d="m0 0h18v18h-18z" fill="#f0f3fa"/><path d="m10 9a1 1 0 1 1 -2 0 1 1 0 0 1 2 0zm.72-1.13.94-4.87-2.38 3.38zm3.28 3.57-2.05-2.03-1.58 1.45zm-6.68-.86-.77 4.42 2.31-2.84zm.21-2.98-3.53-.6 2.04 1.98 1.49-1.37z" fill="#114870"/><path d="m11.95 9.13.73-.67-1.6-.23zm-3.02-2.81-1.33-1.36.27 2.32 1.05-.96zm.14 5.74 1.4 1.4-.35-2.37zm-3.02-2.79-.7.76 1.55.12z" fill="#d8ad1d"/><path d="m11.8 9.27-1-1.04-.32 2.25 1.31-1.21zm-3.85-1.77 2.38.27-1.26-1.3zm-.75 2.65.32-2.25-1.33 1.22 1 1.03zm2.73.84-2.25-.34 1.24 1.27z" fill="#e9d635"/></svg>