<svg fill="none" height="18" width="18" xmlns="http://www.w3.org/2000/svg" xmlns:xlink="http://www.w3.org/1999/xlink"><linearGradient id="a" gradientUnits="userSpaceOnUse" x1="4.356" x2="17.879" y1="9" y2="9"><stop offset="0" stop-color="#d2a46c"/><stop offset="1" stop-color="#193819"/></linearGradient><path d="m0 0h18v18h-18z" fill="#f0f3fa"/><path clip-rule="evenodd" d="m10.507 12.834c-1.083.995-2.476 1.423-3.768 1.009-2.135-.684-3.189-3.407-2.353-6.081.835-2.675 3.243-4.289 5.378-3.605.737.236 1.344.715 1.79 1.35l.171-.65a.5.5 0 0 1 .484-.373h.891a.5.5 0 0 1 .495.569l-1.17 8.414a.5.5 0 0 1 -.495.431h-.69a.5.5 0 0 1 -.47-.331zm-.227-3.264c-.406 1.3-1.5 2.108-2.444 1.806s-1.38-1.6-.974-2.9 1.5-2.108 2.444-1.806 1.38 1.6.974 2.9z" fill="url(#a)" fill-rule="evenodd"/></svg>