<svg height="18" viewBox="0 0 18 18" width="18" xmlns="http://www.w3.org/2000/svg"><path d="m0 0h18v18h-18z" fill="#8eb3dd"/><path d="m11.88 9.27h-.65a.09.09 0 0 0 -.08.09v.7a.08.08 0 0 0 .02.07.09.09 0 0 0 .06.02h.65a.44.44 0 1 0 0-.88zm-.65-.63h.6c.3 0 .47-.16.47-.41s-.17-.41-.47-.41h-.6a.09.09 0 0 0 -.08.08v.66a.09.09 0 0 0 .02.06.09.09 0 0 0 .06.02zm-2.22-4.64a5 5 0 1 1 -4.67 6.8l1.9-2.38a.1.1 0 0 1 .07-.04.08.08 0 0 1 .08.09v2.22a.09.09 0 0 0 .09.08h.43a.09.09 0 0 0 .09-.07v-3.4a.09.09 0 0 0 -.09-.09h-.5a.22.22 0 0 0 -.18.09l-2.13 2.67a5 5 0 0 1 4.9-5.97zm.99 3.3a.09.09 0 0 0 -.09-.09h-.47a.09.09 0 0 0 -.08.08v2.24c0 .42-.25.66-.63.66-.37 0-.62-.24-.62-.66v-2.25a.09.09 0 0 0 -.08-.09h-.5a.09.09 0 0 0 -.08.09v2.27c0 .76.55 1.26 1.28 1.26.74 0 1.27-.5 1.27-1.26v-2.26zm1.95 3.49c.64 0 1.1-.37 1.1-1.04a.83.83 0 0 0 -.5-.8.83.83 0 0 0 .44-.74c0-.62-.4-1-1.1-1h-1.36a.09.09 0 0 0 -.08.08v3.4a.09.09 0 0 0 .08.1z" fill="#fff"/></svg>