<svg height="18" viewBox="0 0 18 18" width="18" xmlns="http://www.w3.org/2000/svg"><path d="m0 0h18v18h-18z" fill="#f0f3fa"/><path d="m14.46 7.07c.3.23.48.54.54.66-.72-.3-2.82-.73-5.47-.73s-5.4 1.28-6.46 2a1.29 1.29 0 0 1 -.07-.4c0-.87.97-1.13 1.49-1.35.52-.23.65-.82.92-1.03.27-.2.98-.78 1.13-.9.15-.13.85-.8 1.56-.8.7 0 .66.22.76.5.1.29.37.63.99.63.49 0 .62-.22.62-.33v-1.32l4 3.07z" fill="#160f3e"/><path d="m4.16 11.5-1.16-1.8c1.12-.74 4-2.2 6.5-2.2s4.7.64 5.5.97v.28a20 20 0 0 0 -2.62-.2c-4.47 0-7.34 1.97-8.22 2.95z" fill="#b6a010"/><path d="m12.4 9c-4.43 0-7.44 2.22-8.4 3.33 0 .22.1.67.5.67.5 0 .91-.5 1.16-.67.24-.17.81-.36 1.11-.69a3.02 3.02 0 0 1 2.25-.86c.96 0 1.2.78 1.54.78.35 0 .77.02.88.21.26.48 1 .58 1.35.56 1.42 0 1.65-1.52 2-2.07.25-.39.18-.74.21-1.07-.4-.06-1.47-.19-2.6-.19zm1.6 4.47c0-.36-.38-.46-.57-.47-.32 0-.43.2-.43.29 0 .08.03.15.18.33.15.19.38.38.5.38.1 0 .32-.08.32-.53z" fill="#160f3e"/></svg>