<svg height="18" viewBox="0 0 18 18" width="18" xmlns="http://www.w3.org/2000/svg"><path d="m0 0h18v18h-18z" fill="#f0f3fa"/><path d="m2.14 9h3.28c.2-.4.98-1.4 2.54-1.4 1.2 0 2.03.75 2.4 1.24.07.1.18.16.3.16h.05c.16 0 .29-.13.29-.28 0-.04 0-.08-.03-.12a5.05 5.05 0 0 0 -4.47-2.6c-2.44 0-3.94 1.83-4.48 2.8-.05.09.01.2.12.2zm13.72 0h-3.28c-.2.4-.98 1.4-2.54 1.4-1.2 0-2.03-.75-2.4-1.24a.38.38 0 0 0 -.3-.16h-.04c-.16 0-.29.13-.29.28 0 .04 0 .08.03.12.45.9 1.92 2.6 4.47 2.6 2.44 0 3.94-1.85 4.48-2.82.05-.1-.01-.18-.12-.18z" fill="#910028"/><path d="m7 5.4c1.08-.01 3.53.5 4.72 2.6h2.28c-.4-1.44-2.38-3.97-7-2.6zm4 7.2c-1.08.01-3.53-.5-4.72-2.6h-2.28c.4 1.44 2.38 3.97 7 2.6z" fill="#4d4d4f"/></svg>