<svg height="18" viewBox="0 0 18 18" width="18" xmlns="http://www.w3.org/2000/svg"><path d="m0 0h18v18h-18z" fill="#1b345a"/><path d="m5.35 6h-.35l-2 6h1.65l1.35-4.05 1.35 4.05h1.65l-2-6zm5.31 0-1.66 4.58.51 1.42h.77l1.46-4.05 1.47 4.05h1.79l-2.17-6h-2.18z" fill="#d89e40"/><path d="m7.47 10.5c.3 0 .48.33.53.5-.27-.2-.47-.24-.53-.24h-1.55c-.5 0-.75-.5-.92-.76.34.37.76.48.92.5zm3.24 0c-.4 0-.64.33-.71.5.36-.2.62-.24.71-.24h2.07c.66 0 1-.5 1.22-.76-.46.37-1 .48-1.22.5h-2.08zm-4.7-1c-1.3 0-1.88-1-2-1.5-.07 1.44 1.24 1.81 1.9 1.82h1.3c.6 0 .77.12.79.18v-.32c-.17-.14-.56-.18-.74-.18zm5.98-.24c1.3 0 1.88-1.5 2-2.26.07 2.16-1.24 2.72-1.9 2.73h-1.3c-.6 0-.77.18-.79.27v-.48c.17-.22.56-.27.74-.26zm-3.99.74h2v1h-2z" fill="#fff"/></svg>