<svg height="18" viewBox="0 0 18 18" width="18" xmlns="http://www.w3.org/2000/svg"><path d="m0 0h18v18h-18z" fill="#f0f3fa"/><path d="m6.9 3.26 1.32 2.46c.07.13.22.18.35.1a.28.28 0 0 0 .1-.37l-1.33-2.45h3.38l-1.82 3.44h-3.74l1.73-3.18zm-2.17 10.48 1.33-2.46a.25.25 0 0 1 .35-.1c.12.07.17.24.1.37l-1.32 2.45h3.38l-1.84-3.44h-3.73z" fill="#78b3f0"/><path d="m12.88 6.78h-2.62c-.14 0-.26-.13-.26-.27 0-.15.12-.26.26-.26h2.57l-1.7-3.03-1.84 3.28 1.54 2.72c.07.12.03.28-.1.35a.25.25 0 0 1 -.34-.1l-1.53-2.68h-3.68l1.4 2.44c.06.12.02.28-.1.35a.25.25 0 0 1 -.35-.1l-1.34-2.34-1.79 3.08h3.71l1.55-2.76a.25.25 0 0 1 .36-.1c.12.07.16.23.1.36l-1.57 2.77 1.88 3.23 1.33-2.39a.25.25 0 0 1 .35-.1c.12.07.17.23.1.36l-1.35 2.41h3.43l-1.89-3.27h-2.96a.26.26 0 0 1 -.26-.26c0-.14.12-.25.26-.25h2.94z" fill="#003d7d"/><path d="m13.3 7.05-1.92 3.42 1.91 3.3 1.71-3.04h-2.65a.26.26 0 0 1 -.26-.26c0-.14.12-.26.26-.26h2.65l-1.7-3.17z" fill="#78b3f0"/></svg>