<svg height="18" viewBox="0 0 18 18" width="18" xmlns="http://www.w3.org/2000/svg"><path d="m0 0h18v18h-18z" fill="#ef731d"/><path d="m10.19 5a11.64 11.64 0 0 1 -5.95 3.96c.79-2.12 3.4-3.84 5.95-3.96zm-2.79 5.36a4.7 4.7 0 0 1 1.36 2.53c.48-.1.95-.25 1.4-.45a5.46 5.46 0 0 0 -1.85-2.35 5.89 5.89 0 0 0 -2.86-1.1 13.9 13.9 0 0 0 7.2-3.46 3.7 3.7 0 0 0 -1.07-.42 12.76 12.76 0 0 1 -6.8 3.9c1 .2 1.9.66 2.62 1.35zm5.44.22a9.3 9.3 0 0 0 -4.98-1.58c2.13-.12 4.21-.66 6.11-1.59.07.54.01 1.08-.18 1.58-.22.57-.53 1.1-.94 1.58zm-6.45-.02a4.52 4.52 0 0 0 -2.2-1.52c-.74 2.11.62 3.84 3.09 3.96a4.16 4.16 0 0 0 -.89-2.44z" fill="#213f99"/></svg>