<svg height="18" viewBox="0 0 18 18" width="18" xmlns="http://www.w3.org/2000/svg" xmlns:xlink="http://www.w3.org/1999/xlink"><linearGradient id="a"><stop offset="0" stop-color="#133423"/><stop offset="1" stop-color="#489571"/></linearGradient><linearGradient id="b" gradientUnits="userSpaceOnUse" x1="7.65" x2="13.98" xlink:href="#a" y1="12.13" y2="11.54"/><linearGradient id="c" gradientUnits="userSpaceOnUse" x1="7" x2="14.01" xlink:href="#a" y1="12.86" y2="11.22"/><linearGradient id="d" gradientUnits="userSpaceOnUse" x1="7.84" x2="13.33" xlink:href="#a" y1="11.35" y2="11.03"/><linearGradient id="e"><stop offset=".4" stop-color="#37926f"/><stop offset="1" stop-color="#13291d"/></linearGradient><linearGradient id="f" gradientUnits="userSpaceOnUse" x1="10.05" x2="10.05" xlink:href="#e" y1="4.49" y2="10.12"/><linearGradient id="g" gradientUnits="userSpaceOnUse" x1="10.75" x2="10.75" xlink:href="#e" y1="3.66" y2="10.32"/><linearGradient id="h" gradientUnits="userSpaceOnUse" x1="9.42" x2="9.42" xlink:href="#e" y1="5.38" y2="10.25"/><linearGradient id="i"><stop offset="0" stop-color="#1e261b"/><stop offset=".54" stop-color="#407b67"/></linearGradient><linearGradient id="j" gradientUnits="userSpaceOnUse" x1="6.25" x2="6.25" xlink:href="#i" y1="7.23" y2="13"/><linearGradient id="k" gradientUnits="userSpaceOnUse" x1="5.65" x2="5.65" xlink:href="#i" y1="6.27" y2="13"/><linearGradient id="l" gradientUnits="userSpaceOnUse" x1="7.04" x2="7.04" xlink:href="#i" y1="7.85" y2="13"/><path d="m0 0h18v18h-18z" fill="#f0f3fa"/><path d="m14.1 11.85c.01.14-.1.25-.23.26l-.66.02a.25.25 0 1 1 -.02-.5l.66-.02c.14 0 .25.1.26.24zm-1.58.08c0 .14-.1.26-.24.27l-1.12.05a.25.25 0 0 1 -.03-.5l1.13-.05c.14-.01.25.1.26.23zm-1.95.1c0 .13-.1.25-.24.25l-1.16.05a.25.25 0 1 1 -.02-.5l1.16-.05c.14 0 .26.1.26.25zm-2.11.07c0 .14-.1.25-.24.26l-.64.02a.25.25 0 1 1 -.02-.5l.64-.02c.14 0 .25.1.26.24z" fill="url(#b)"/><path d="m14.44 12.72c0 .14-.1.25-.25.26l-7.28.13a.25.25 0 1 1 0-.5l7.27-.13c.14 0 .26.1.26.24z" fill="url(#c)"/><path d="m13.45 10.92c0 .14-.1.26-.23.27l-5.43.41a.25.25 0 0 1 -.04-.5l5.43-.41c.14-.01.26.1.27.23z" fill="url(#d)"/><path d="m8.23 4.27a.25.25 0 0 1 .35.08l.4.62a.25.25 0 1 1 -.43.27l-.4-.62a.25.25 0 0 1 .08-.35zm.8 1.38a.25.25 0 0 1 .34.07l.66 1.03a.25.25 0 1 1 -.42.27l-.66-1.02a.25.25 0 0 1 .08-.34zm1.05 1.78a.25.25 0 0 1 .35.08l.66 1.03a.25.25 0 1 1 -.42.27l-.66-1.03a.25.25 0 0 1 .07-.35zm1.06 1.8a.25.25 0 0 1 .35.06l.46.69a.25.25 0 0 1 -.42.28l-.46-.7a.25.25 0 0 1 .07-.34z" fill="url(#f)"/><path d="m8.77 3.44a.25.25 0 0 1 .34.1l3.71 6.66a.25.25 0 1 1 -.44.24l-3.7-6.66a.25.25 0 0 1 .1-.34z" fill="url(#g)"/><path d="m7.77 5.17a.25.25 0 0 1 .34.08l3.05 4.87a.25.25 0 1 1 -.43.27l-3.03-4.89a.25.25 0 0 1 .08-.34z" fill="url(#h)"/><path d="m7.89 7.01c.12.07.17.22.1.34l-.33.62a.25.25 0 1 1 -.44-.24l.33-.62a.25.25 0 0 1 .34-.1zm-.8 1.51c.13.07.17.22.1.34l-.52.96a.25.25 0 1 1 -.44-.24l.53-.96a.25.25 0 0 1 .34-.1zm-.92 1.79c.12.07.17.22.1.34l-.53.96a.25.25 0 0 1 -.44-.24l.53-.96a.25.25 0 0 1 .34-.1zm-.95 1.78c.12.07.16.22.1.34l-.37.69a.25.25 0 1 1 -.44-.24l.37-.69a.25.25 0 0 1 .34-.1z" fill="url(#j)"/><path d="m7.63 6.05c.12.07.16.22.1.34l-3.71 6.73a.25.25 0 1 1 -.44-.24l3.7-6.73a.25.25 0 0 1 .35-.1z" fill="url(#k)"/><path d="m8.41 7.63c.12.06.18.2.11.33l-2.51 5.15a.25.25 0 0 1 -.45-.22l2.52-5.15a.25.25 0 0 1 .33-.11z" fill="url(#l)"/></svg>