<svg height="18" width="18" xmlns="http://www.w3.org/2000/svg"><path d="m0 0h18v18h-18z" fill="#e31c24"/><path d="m9.558 10-.593-1.18-.615 1.18zm-3.948 2.382h5.388c-.136-.09-.332-.518-.332-.518h-5.02c-.446 0-.467-.724.073-.724h4.584l-.314-.621h-4.411c-1.086.045-1.124 1.777.031 1.863zm7.525-1.464-2.736-4.724c-.006.211-.304.73-.304.73l2.44 4.294c.17.335-.311.646-.5.284l-2.285-3.984-.38.653 2.18 3.78c.568.888 2.065-.023 1.583-1.034zm-4.895-5.745-2.91 4.893c.167-.08.863-.066.863-.066l2.547-4.506c.194-.347.818-.074.609.294l-2.402 4.212h.674l2.29-4.048c.489-.931-1.03-1.704-1.672-.779zm5.6 5.684c.527 1.03-.334 2.138-1.247 2.142l-7.148.001c-1.249 0-1.76-1.345-1.249-2.254l3.515-6.101c.606-.888 1.998-.835 2.557.01l3.46 6.002.111.2z" fill="#fff"/></svg>