<svg height="18" viewBox="0 0 18 18" width="18" xmlns="http://www.w3.org/2000/svg"><path d="m0 0h18v18h-18z" fill="#056cea"/><path d="m14 8h-3.6c-.34-1.9-1.2-3.5-3.9-3.5-.73 0-1.61.15-2.5.5v1.1a6.5 6.5 0 0 1 2.5-.6c2.04 0 2.42.8 2.73 2.5h-1.48c-2.77 0-3.75 1.79-3.75 3.04 0 1.48 1.16 2.46 2.74 2.46 1.01 0 1.87-.4 2.49-1.18.26-.33.47-.72.62-1.17.35 1.3 1 2.33 2.64 2.33.58 0 1.02-.08 1.51-.28v-1.05a3 3 0 0 1 -1.5.35c-1.61 0-1.72-1.24-2.01-3.37l-.02-.13h3.53zm-5.28 3.66c-.47.58-1.18.84-1.98.84-1 0-1.74-.41-1.74-1.46 0-.92.57-2.04 2.75-2.04h1.58c.05 1.05-.07 2.01-.6 2.66z" fill="#fff"/></svg>