<svg height="18" viewBox="0 0 18 18" width="18" xmlns="http://www.w3.org/2000/svg"><path d="m0 0h18v18h-18z" fill="#f0f3fa"/><path d="m5 13.34-.4-.38a2.06 2.06 0 0 1 -.35-2.45l3-5.43a2.03 2.03 0 0 1 2.53-.94l.14.06-.48.5c-.62-.2-1.3.08-1.62.67l-3.02 5.53c-.29.52-.2 1.17.2 1.6l.15.16-.14.67zm3.82.34h1.86l.26-.65h-2.1c-1.1 0-1.8-1.28-1.24-2.29l2.47-4.47-.57-.33-2.48 4.47c-.8 1.45.2 3.27 1.8 3.27zm3.1 0h-.72l.3-.65h.4c1.1 0 1.8-1.28 1.24-2.29l-2.47-4.47.57-.33 2.48 4.47c.8 1.45-.2 3.27-1.8 3.27z" fill="#22c8ce"/><g fill="#353535"><circle cx="10.25" cy="5.25" r=".75"/><circle cx="6" cy="13.25" r=".75"/></g></svg>