<!-- by TradingView --><svg width="18" height="18" viewBox="0 0 18 18" xmlns="http://www.w3.org/2000/svg"><path fill="#F0F3FA" d="M0 0h18v18H0z"/><path fill-rule="evenodd" d="M14 4H4v10h10V4Zm-.5.5h-9v9h9v-9Z" fill="#1A506C"/><path d="M5 5v8h8V5H5Z" fill="url(#ahh1ywkwo)"/><path d="m12.66 13-4-8H13v8h-.34Z" fill="#333F49"/><path d="M8.1 9.02c.85-.48 3.01-1.35 4.9-.9v2.08c-.16.22-.67.7-1.45.9.44-.27 1.33-.97 1.33-1.56 0-.75-3.25-.68-4.78-.52ZM5 13v-1.62a4.18 4.18 0 0 1 2.84-2.27A6.3 6.3 0 0 0 5 13Z" fill="#F0F3FA"/><defs><linearGradient id="ahh1ywkwo" x1="5" y1="7.93" x2="10.1" y2="7.93" gradientUnits="userSpaceOnUse"><stop stop-color="#194C6A"/><stop offset="1" stop-color="#194C6A" stop-opacity="0"/></linearGradient></defs></svg>