<svg height="18" viewBox="0 0 18 18" width="18" xmlns="http://www.w3.org/2000/svg"><path d="m0 0h18v18h-18z" fill="#f0f3fa"/><path d="m8.6 12 1.17-3.5h1l1.11 3.5h-.93l-.12-.4h-1.2l-.13.4zm1.28-1.28h.7l-.36-1.17z" fill="#0071b9"/><path d="m7.83 12.63-1.38 1.37-.29-.3 1.37-1.37zm-.58-.67-3.2 1.84-.2-.36 3.19-1.84.2.36zm.77.5-.17-.15a3.15 3.15 0 1 1 4.61-4.3l-.13.14a2.96 2.96 0 0 0 -4.18 4.18zm-1.16-1.3-1.88.5-.1-.4 1.87-.5.1.4zm-.17-.87h-3.69v-.42h3.69zm.17-1.29-.11.4-1.88-.5.11-.4zm.39-.8-.21.36-3.2-1.84.21-.36zm.58-.67-.3.3-1.37-1.38.3-.29zm6.17-1.08-1.37 1.38-.3-.3 1.38-1.37.29.3zm-5.44.59-.36.2-1.84-3.19.36-.2zm5.24-2.99-1.84 3.2-.36-.21 1.84-3.2zm-2.14.93-.5 1.88-.4-.11.5-1.88zm-2.26 1.77-.4.1-.5-1.87.4-.1zm.89-.06h-.42v-3.69h.42z" fill="#f99d1e"/></svg>