<svg height="18" viewBox="0 0 18 18" width="18" xmlns="http://www.w3.org/2000/svg" xmlns:xlink="http://www.w3.org/1999/xlink"><linearGradient id="a" gradientUnits="userSpaceOnUse" x1="9" x2="9" y1="4" y2="14"><stop offset="0" stop-color="#dfe0e4"/><stop offset="1" stop-color="#656469"/></linearGradient><linearGradient id="b" gradientUnits="userSpaceOnUse" x1="9" x2="9" y1="4.29" y2="13.71"><stop offset="0" stop-color="#e5eef4"/><stop offset=".3" stop-color="#f6f6f8"/><stop offset=".56" stop-color="#d0d5d8"/><stop offset="1" stop-color="#94969a"/></linearGradient><path d="m0 0h18v18h-18z" fill="#f0f3fa"/><path d="m9 13.7a4.7 4.7 0 1 0 0-9.4 4.7 4.7 0 0 0 0 9.4zm0 .3a5 5 0 1 0 0-10 5 5 0 0 0 0 10z" fill="url(#a)"/><circle cx="9" cy="9" fill="url(#b)" r="4.71"/><path d="m7.2 5.3a4.12 4.12 0 0 0 -2.1 5zm-1.3 6.4a4.1 4.1 0 0 0 6.25-.05h-4.91l1.16-2.06h-1.3l.44-1.18h2.65l-1.33 2.35h3.87l.13-.29h-3.4l1.32-2.35h-2.38l-.59-1.18zm7.2-2.4h-1.75l1.18-2.36h-3.38l-1.05-1.96a4.13 4.13 0 0 1 5 4.31z" fill="#285694"/></svg>