<svg height="18" viewBox="0 0 18 18" width="18" xmlns="http://www.w3.org/2000/svg"><path d="m0 0h18v18h-18z" fill="#233064"/><path d="m9.35 5h-.7v8h.7zm-5.35 1.5h2.85c.64 0 1.15.59 1.15 1.32 0 .52-.26.97-.65 1.18.39.21.65.66.65 1.18 0 .73-.51 1.32-1.15 1.32h-2.85zm1.72 1.1h.35c.21 0 .38.22.38.48s-.17.48-.38.48h-.35zm0 1.93h.35c.21 0 .38.21.38.47 0 .27-.17.48-.38.48h-.35zm7.02-3.03h-2.74v5h1.5v-1.48l.16-.15c.11-.1.25-.1.37-.03.1.06.16.16.18.29l.23 1.37h1.56a.77.77 0 0 1 -.23-.59v-.53c0-.57-.26-1.06-.63-1.34.41-.19.7-.66.7-1.22 0-.73-.49-1.32-1.1-1.32zm-.92 1.22h-.32v.95h.32c.2 0 .36-.22.36-.48s-.16-.47-.36-.47z" fill="#fff" fill-rule="evenodd"/></svg>