<svg height="18" width="18" xmlns="http://www.w3.org/2000/svg"><path d="m0 0h18v18h-18z" fill="#3d4045"/><path d="m15 6h-12v6h12z" fill="#f6183f"/><g fill="#fff"><path d="m9.5 9.82c.21.84.94 1.18 1.76 1.18s1.74-.37 1.74-1.3a1.07 1.07 0 0 0 -.58-1 4.16 4.16 0 0 0 -1.1-.31c-.15-.04-.43-.08-.43-.28s.22-.25.38-.25c.3 0 .52.1.63.4l.99-.3c-.24-.68-.9-.96-1.57-.96-.4-.01-.78.09-1.12.3a1.2 1.2 0 0 0 -.5.97c0 .92.87 1.12 1.6 1.26.18.04.5.08.5.32 0 .21-.33.24-.48.24-.34 0-.6-.13-.7-.47z"/><path d="m5 11h1.8c.36 0 .79 0 1.1-.23.3-.22.4-.59.4-.93a.9.9 0 0 0 -.21-.6.88.88 0 0 0 -.56-.31c.2-.05.37-.16.49-.32a.9.9 0 0 0 .18-.56 1.07 1.07 0 0 0 -.42-.85c-.25-.18-.56-.2-.85-.2h-1.93zm1.2-2.46v-.68h.46c.21 0 .43.04.43.34 0 .28-.24.34-.42.34zm0 .85v.72h.47c.2 0 .51-.06.49-.39-.03-.3-.32-.33-.54-.33h-.43z" fill-rule="evenodd"/></g></svg>