<svg height="18" viewBox="0 0 18 18" width="18" xmlns="http://www.w3.org/2000/svg"><path d="m0 0h18v18h-18z" fill="#f0f3fa"/><path d="m5.5 10v-3h.69l.81 1.46v-1.46h.69v3h-.7l-.99-1.54v1.54zm2.5 0v-3h.86l.42 1.86.37-1.86h.85v3h-.5v-1.85l-.51 1.85h-.49l-.38-1.85v1.85z" fill="#f9322d"/><path d="m4.28 7h-1.28v3h1.3c.46 0 .82-.39.82-.87a.88.88 0 0 0 -.38-.73.8.8 0 0 0 .28-.62c0-.43-.33-.78-.74-.78zm-.22.67h-.41v.66h.4c.16 0 .3-.15.3-.33s-.14-.33-.3-.33zm.1 1h-.51v.66h.5a.3.3 0 0 0 .3-.3v-.06a.3.3 0 0 0 -.3-.3zm7.96-1.67c-.62 0-1.12.5-1.12 1.13v.74a1.13 1.13 0 0 0 2.25.13h-.66a.49.49 0 0 1 -.46.33.5.5 0 0 1 -.48-.5v-.66c0-.28.21-.5.48-.5.2 0 .39.14.46.33h.66c-.06-.56-.54-1-1.12-1z" fill="#35549b" fill-rule="evenodd"/><g fill="#ee3c48"><path d="m2.21 9.94c.67.68 2.65 1.65 6.85 1.65 6.05 0 7.3-2.86 5.93-3.96.34.19 1.01.75 1.01 1.48 0 .91-1.8 2.89-7.18 2.89-3.83 0-5.87-1.24-6.6-2.06z"/><path d="m13.67 7 .02.08c.03.1.11.17.22.2l.08.01-.08.02c-.11.03-.2.1-.22.2l-.02.07-.03-.07a.29.29 0 0 0 -.21-.2l-.09-.02.09-.02c.1-.02.19-.1.21-.2zm1.06.05.06.23c.03.1.11.17.22.2l.26.06-.26.05c-.1.03-.19.1-.22.2l-.06.23-.07-.23a.29.29 0 0 0 -.22-.2l-.25-.05.25-.06c.11-.03.2-.1.22-.2zm-1.33.7-.02-.07-.02.08a.29.29 0 0 1 -.22.2l-.09.01.09.02c.1.03.19.1.22.2l.02.07.02-.07c.03-.1.11-.17.22-.2l.08-.02-.08-.02a.29.29 0 0 1 -.22-.2zm.27.7.02.08c.02.09.1.15.2.18l.08.01-.08.02c-.1.03-.18.1-.2.18l-.02.07-.02-.07a.27.27 0 0 0 -.2-.18l-.08-.02.08-.01c.1-.03.17-.1.2-.18l.02-.07zm.63-.45-.02-.07-.02.07a.27.27 0 0 1 -.2.18l-.06.02.08.02c.1.02.18.09.2.18l.02.07.02-.07c.03-.1.1-.16.2-.18l.08-.02-.08-.02a.27.27 0 0 1 -.2-.18z"/></g></svg>