<svg height="18" width="18" xmlns="http://www.w3.org/2000/svg"><path d="m0 0h18v18h-18z" fill="#023d2f"/><path d="m4.84 5.33a1.908 1.908 0 0 1 2.413-1.032l5.234 1.937c1.12.415 1.112 2.003-.014 2.406l-.248.088.314.119c1.106.417 1.104 1.983-.004 2.397l-5.22 1.95a1.987 1.987 0 1 1 -1.362-3.735l2.146-.767-2.18-.822a1.908 1.908 0 0 1 -1.079-2.542zm5.328 2.624 1.458-.521-4.866-1.801a.485.485 0 0 0 -.34.909l3.749 1.413zm-.013 1.515-3.725 1.331a.565.565 0 1 0 .388 1.062l4.864-1.817z" fill="#167565"/><path d="m7.253 4.298a1.908 1.908 0 0 0 -1.943 3.205 1.31 1.31 0 0 1 1.882-1.71l4.433 1.64-.685.245.031.016-2.917 1.02-.008-.002-2.095.749a1.987 1.987 0 1 0 1.364 3.733l5.22-1.95c1.107-.413 1.11-1.979.003-2.396l-.314-.119.248-.088c1.126-.403 1.135-1.991.014-2.406zm-.823 6.502 3.725-1.33 1.527.575-4.864 1.817a.565.565 0 1 1 -.388-1.062z" fill="#22c49a"/><path d="m12.653 8.561h-.003l-3.794 1.356-.034.029 1.333-.477 1.527.576-4.431 1.655-.008.023-.218.082a1.285 1.285 0 1 1 -1.017-2.35 1.946 1.946 0 0 0 -.228.076 1.988 1.988 0 0 0 .646 3.78 1.893 1.893 0 0 0 .281-.007l-.003.01h.086c.175-.016.352-.055.526-.12l5.22-1.95c1.107-.413 1.11-1.979.003-2.396l-.314-.119.248-.088c.064-.023.124-.05.18-.08z" fill="#167565"/></svg>