<svg height="18" viewBox="0 0 18 18" width="18" xmlns="http://www.w3.org/2000/svg"><path d="m0 0h18v18h-18z" fill="#0268a6"/><path d="m4 13v-8h2.14c1.46 0 2.36.44 2.36 2 0 .77-.17 1.35-1 1.5 1.03.13 1.5 1.21 1.5 2.13 0 1.5-.93 2.37-2.48 2.37zm1.47-1h.7c.75 0 1.33-.69 1.33-1.37 0-.72-.5-1.63-1.31-1.63h-.69zm.03-4h.67c.72 0 .83-.34.83-1 0-.6-.26-1-.87-1h-.63zm3.5 5v-8h2.14c1.46 0 2.36.44 2.36 2 0 .77-.17 1.35-1 1.5 1.03.13 1.5 1.21 1.5 2.13 0 1.5-.93 2.37-2.48 2.37zm1.47-1h.7c.76 0 1.33-.69 1.33-1.37 0-.72-.5-1.63-1.31-1.63h-.69zm.03-4h.67c.72 0 .83-.34.83-1 0-.6-.26-1-.87-1h-.63z" fill="#f0f3fa"/></svg>