<svg height="18" viewBox="0 0 18 18" width="18" xmlns="http://www.w3.org/2000/svg"><path d="m0 0h18v18h-18z" fill="#4cadc7"/><g fill="#fff"><path d="m3.37671 11.5271c.32986-.5857.53139-.9571.87073-1.488 1.01345-1.5198 1.18096-2.02365 2.27868-3.43373.11659-.11103.56507-.70104.67572-.78859-.64362-.05496-1.38043.20133-1.60159.28498-.87668.41994-1.35281 1.01157-1.4373 1.1814-.1151.19561-.17036.47467-.08301.64474.05537.11513.19513.27928.50535.27928-.17184.20154-.3656.20154-.56495.20154-.33352 0-.50525-.20154-.59259-.39327-.08027-.22844-.02342-.50906.0596-.70516.28236-.67323 1.18095-1.20853 1.63516-1.37839.87085-.31097 1.32073-.422 2.30655-.36134.1949-.20155.44998-.36684.59406-.45348.24902-.16962.50388-.16962.67571-.14249.16717.02759.19491.17008.16717.28384-.02741.08322-.08861.13816-.16717.22434-.03208-.11376-.14442-.27905-.37005-.19698-.11201.05586-.22276.14226-.50523.36275.25175.06769.42965.14705.54166.24988.07934.07338.13189.14246.16179.20334.09316.19104.19923.58978-.08734.98444-.13976.16825-.47773.67163-1.49257.8417.25475.16962.70461.42155.5097 1.18143-.05549.2793-.3656 1.09957-1.15332 1.48807-.25039.1151-.62032.1699-.98583 0-.19513-.0821-.33935-.2519-.45432-.3885l.22722-.50955c-.02329.08777-.11225.22459-.0845.30825.11647.2013.48231.2756.73533.2877.17709.0085.33476-.0413.47465-.1411.51996-.37138 1.02372-1.44633.73107-1.80475-.11234-.17601-.27665-.25193-.50385-.27904-.19514 0-.38857.02232-.56498.16963l.33776-.59139c-.02329.08182.01403.09597.03208.10918.09431.0709.42234.08367.69899 0 .76445-.25144 1.24195-1.12077 1.15893-1.51519-.0266-.09461-.11201-.28358-.50514-.39279-.11507.08205-.50969.59-.84755 1.09772-.47761.70108-.98273 1.48398-1.40806 2.35895-.36698.67349-.53722 1.12698-.84298 1.85358z"/><path d="m12.6386 7.57749c-.032.36521.3073.80365 1.1227.74481.3668-.0278.8376-.15548 1.2368-.26627v.33947c-.5102.12927-.857.20154-1.3751.35266-.8112.24192-1.1255.33355-1.9455.61307-.7877.31073-2.22859.82937-3.54405 1.57587-1.22068.6923-1.86648 1.1666-2.95587 2.0507-.88169.7156-1.35679 1.1515-2.14487 1.9686v-1.4607c.42681-.3944 2.22788-1.6303 3.4931-2.3024 1.29743-.678 2.36762-1.1857 3.88649-1.8047.6219-.22456 2.1681-.68646 2.5116-.81462-.2327-.05471-.3421-.06224-.5096-.19284-.1235-.09624-.1843-.17079-.2548-.31076-.2504.25192-.3667.33832-.5328.47605-.3161.22476-.7427.48217-1.0426.3253-.1283-.06587-.1745-.16164-.2272-.29775-.2505.31076-.9596 1.09798-1.26981.84606-.05528-.03144-.10606-.20132-.10606-.31074-.17186.25627-.33364.42587-.50982.56266-.26787.21183-.57342.14685-.67573.0561-.06084-.05037-.11633-.16118-.08425-.44892.04646-.42588.47315-1.08931.70916-1.38294.32027-.3942.61142-.62741.86193-.61306.153.00436.26319.05382.31856.1947l-.17285.35086c.01335-.08275.00547-.13884-.03073-.15275-.07637-.04536-.17-.0155-.26236.04859-.07537.0522-.15688.12014-.22301.19218-.10766.11717-.22299.25786-.31537.39897-.19284.29318-.29662.60598-.18061.73888.06746.08917.23555.03947.39379-.09663.07421-.0641.1223-.10787.2126-.24078.19744-.29067.37109-.6762.40569-.88846l.17891-.36885s.07423-.12223.12972-.23303l.45434-.05879c-.1719.36703-.70474 1.51972-.56635 1.60316.13976.08643.53285-.30799.70475-.50385.0275-.28498.0829-.48036.1716-.70515.1384-.33536.3888-.87067.699-1.31957.4267-.5941.9318-1.2131 1.2698-1.26805.1106-.02713.2505 0 .2824.17008 0 .02713.0276.19697-.1122.50387-.115.25578-.3421.65041-.5082.9021-.339.53555-.6216.86934-.8766 1.15269-.083.08367-.2036.2159-.3932.39419l.0876-.44888c.4222-.33835.7556-.84196 1.1257-1.46482.0842-.16572.2779-.53528.1671-.61327-.0829-.06065-.4222.21887-.8153.86929-.1994.30641-.5053 1.01157-.4775 1.2088l-.0876.44888c-.0144.21453.0468.38871.3976.32077.2506-.04148.4179-.15092.8722-.66047.083-.44753.1661-.70491.338-1.06628.1702-.42153.3932-.79156.533-1.01588.272-.4129.463-.57294.6756-.75556.1441-.12813.5603-.33947.7366-.19743.0786.05927.0554.25625-.0088.45346-.0567.14682-.2183.53966-.5008.92563-.2226.30618-.5009.65478-.7599.92379-.1531.16117-.3657.42452-.5057.53555l.0514-.39353c.321-.24689.7832-.85129 1.0976-1.40575.1166-.20997.2841-.53531.1444-.55811-.1996-.08663-.6757.61307-.871.95255-.1992.36543-.3393.77284-.3684.9931z"/></g></svg>