<svg height="18" width="18" xmlns="http://www.w3.org/2000/svg"><path d="m0 0h18v18h-18z" fill="#f70002"/><path d="m11.8 12.02a3 3 0 0 1 -2.17 1.21c-.35 0-.62-.04-.8-.13-.46-.2-.68-.8-.3-1.18a.49.49 0 0 1 .44-.17c.3.04.44.25.47.55 0 .18-.03.31-.08.4.5-.09.9-.29 1.25-.59.57-.5.66-1.38.2-1.98l-.68-.87c0-.29.32-.56.94-.83.95-.4 1.53-.68 1.73-.82.63-.43.94-1 .94-1.69 0-1.9-2.74-1.56-3.98-1.08a9.4 9.4 0 0 0 -3.52 2.66c-.87 1-1.7 2.17-2.06 3.44-.15.56-.2 1.15-.04 1.71.16.52.5.78 1 .78.25 0 .48-.07.7-.2.79-.49 1.23-1.49 1.59-2.29l.97-2.14c.53-.97 1.12-2.33 2.15-2.9.18-.1 1.34-.66 1.38-.26 0 .06-.16.2-.5.4-.23.13-.45.33-.65.58-.36.43-.84 1.31-1.45 2.64l-.77 1.7c-.3.59-.58 1.17-.99 1.7-.52.74-1.34 1.34-2.29 1.34a2.31 2.31 0 0 1 -2.26-2.57c.14-.75.35-1.48.7-2.17a9.38 9.38 0 0 1 3.58-3.83 8.57 8.57 0 0 1 4.52-1.43c1 0 1.78.18 2.34.54s.84.9.84 1.62c0 .9-.44 1.58-1.32 2.06-.96.3-1.91.62-2.87.93l.03.1c.38.22.69.45.92.7.5.54.46 1.5.05 2.07z" fill="#fff"/></svg>