<svg fill="none" height="18" viewBox="0 0 18 18" width="18" xmlns="http://www.w3.org/2000/svg" xmlns:xlink="http://www.w3.org/1999/xlink"><linearGradient id="a"><stop offset="0" stop-color="#1b75bc"/><stop offset="1" stop-color="#06517f"/></linearGradient><linearGradient id="b" gradientUnits="userSpaceOnUse" x1="8.35189" x2="18.8907" xlink:href="#a" y1="5.14702" y2="12.0778"/><linearGradient id="c" gradientUnits="userSpaceOnUse" x1="4.85189" x2="15.3907" xlink:href="#a" y1="5.14702" y2="12.0778"/><linearGradient id="d" gradientUnits="userSpaceOnUse" x1="2.78302" x2="13.252" xlink:href="#a" y1="6.98134" y2="13.7625"/><path d="m0 0h18v18h-18z" fill="#f0f3fa"/><path d="m15 11.3836c0 1.1617-.6945 1.6164-1.4903 1.6164-.8166 0-1.5097-.4749-1.5097-1.6164v-4.76758c.0026-1.14152.6843-1.61602 1.5378-1.61602.7593 0 1.4622.38349 1.4622 1.54524 0 .66565-.3172 1.12143-1 1.12143v-.91919c0-.5659-.2341-.74748-.4998-.74748-.2658 0-.5002.18081-.5002.74748v4.50502c0 .5655.2348.7475.5009.7475s.4991-.182.4991-.7475v-1.2226c.0001-.27305.1021-.53489.2835-.728s.4599-.30169.7165-.3019z" fill="url(#b)"/><path d="m11 11.3836c0 1.1617-.6945 1.6164-1.49031 1.6164-.81662 0-1.50969-.4749-1.50969-1.6164v-4.76758c.00256-1.14152.68429-1.61602 1.53783-1.61602.75927 0 1.46217.38349 1.46217 1.54524 0 .66565-.3172 1.12143-1 1.12143v-.91919c0-.5659-.23407-.74748-.49982-.74748s-.50018.18081-.50018.74748v4.50502c0 .5655.2348.7475.50091.7475.26612 0 .49909-.182.49909-.7475v-1.2226c.0001-.27305.1021-.53489.2835-.728s.4599-.30169.7165-.3019z" fill="url(#c)"/><path d="m6.22454 8.90049c.50378-.21225.77546-.64646.77546-1.17124v-1.11409c-.00144-1.1207-.6729-1.61516-1.39259-1.61516h-1.60741v6.3845c0 1.1207.5797 1.6155 1.29939 1.6155h.40158c.71969 0 1.29903-.4948 1.29903-1.6155v-1.244c0-.5749-.19611-1.00794-.77546-1.24001zm-1.22454-2.90049h.43001c.35516 0 .56999.18095.56999.74655v.91195c0 .56521-.21483.67483-.56999.67483h-.43001zm1 5.2212c0 .5656-.1029.7788-.45806.7788h-.04822c-.35517 0-.49372-.2531-.49372-.8187v-1.84797h.47787c.35516 0 .52213.2416.52213.80717z" fill="url(#d)"/></svg>