<svg height="18" viewBox="0 0 18 18" width="18" xmlns="http://www.w3.org/2000/svg"><path d="m0 0h18v18h-18z" fill="#f0f3fa"/><path d="m12 4h-1v1h1zm2 0h-1v1h1zm-1 2h1v1h-1zm-8 0h7v7h-7zm1 1v3h1.32c.47 0 1.18-.12 1.18-.84 0-.58-.41-.8-.62-.83.1-.08.31-.3.31-.58 0-.6-.52-.75-.78-.75zm.77.55v.68h.3c.18 0 .33-.16.33-.34a.33.33 0 0 0 -.32-.34zm0 1.22v.68h.48c.2 0 .36-.15.36-.34 0-.18-.16-.34-.36-.34zm1.88.89.34-.6c.11.1.42.28.73.28.38 0 .4-.2.4-.25 0-.07-.05-.23-.43-.32-.38-.08-.93-.2-.93-.83s.55-.94 1.13-.94c.46 0 .83.15.96.23l-.31.55a.93.93 0 0 0 -.53-.16c-.32 0-.37.16-.37.24s.06.19.37.26h.02c.32.08.97.24.97.89 0 .67-.59.99-1.28.99a1.7 1.7 0 0 1 -1.07-.34z" fill="#003466" fill-rule="evenodd"/></svg>