<svg height="18" width="18" xmlns="http://www.w3.org/2000/svg"><path d="m0 0h18v18h-18z" fill="#b00831"/><path d="m8.113 10c-.065 0-.116-.042-.116-.105v-1.789c0-.062.051-.106.116-.106h1.777c.064 0 .112.044.112.106v1.789c0 .063-.048.105-.112.105zm.262 2.883c-1.893-.28-3.298-1.911-3.298-3.882s1.405-3.602 3.298-3.881v1.89h-.38c-.656 0-.992.37-.992 1.028v1.77c0 .658.336 1.189.993 1.189h.379zm1.25-1.886h.376c.659 0 1-.531 1-1.189v-1.77c0-.658-.341-1.028-1-1.028h-.376v-1.89c1.893.28 3.298 1.91 3.298 3.88 0 1.972-1.405 3.603-3.298 3.883zm-5.625-1.997a5 5 0 1 1 10.001 0 5 5 0 0 1 -10.001 0z" fill="#fff" fill-rule="evenodd"/></svg>