<svg height="18" viewBox="0 0 18 18" width="18" xmlns="http://www.w3.org/2000/svg" xmlns:xlink="http://www.w3.org/1999/xlink"><linearGradient id="a" gradientUnits="userSpaceOnUse" x1="6.17" x2="12.17" y1="5.5" y2="11.5"><stop offset=".33" stop-color="#fdfdfd"/><stop offset=".84" stop-color="#b5adb1"/></linearGradient><path d="m0 0h18v18h-18z" fill="#224899"/><path d="m3 9c.54-.56 4.22-4.23 6-6 1.78 1.77 5.46 5.44 6 6-1.3-.53-3.63-.83-6-.83s-4.7.3-6 .83zm12 0c-6.6 0-7.83.6-7.83 1.08 0 .23.21.38.42.54.23.16.45.33.45.6 0 .64-1.33 1.11-2.04 1.27l2.6 2.51z" fill="url(#a)"/></svg>