<svg height="18" viewBox="0 0 18 18" width="18" xmlns="http://www.w3.org/2000/svg"><path d="m0 0h18v18h-18z" fill="#f0f3fa"/><path d="m9.3 8.15.2-.05.33.2v.25c.03.07.06.13.1.15.08.01.4-.05.7-.11l.69-.94.38-.28-.05.54c0 .07.02.2.05.25.07.06.42.25.68.39.8.42.82.45.82.56 0 .14-.35.9-.4 1l-.74 1.23-.6.56-.75.24-.21.18-.04.26-1.5.84-1.22.35-.2.23h6.46v-10h-6.92c.01.02 1.06 2.4 1.32 2.84.22.37.9 1.31.9 1.31z" fill="#007cb7"/><path d="m6.32 12.39-.78-1.33-.65-.52-.33-1.3-.43-.34-.13-.26v5.36h2.73l-.42-1.12.01-.5z" fill="#003556"/></svg>