<svg height="18" viewBox="0 0 18 18" width="18" xmlns="http://www.w3.org/2000/svg"><path d="m0 0h18v18h-18z" fill="#f0f3fa"/><path d="m6.3 13c1.82 0 3.3-1.57 3.3-3.5s-1.48-3.5-3.3-3.5-3.3 1.57-3.3 3.5 1.48 3.5 3.3 3.5zm0-.46c1.58 0 2.87-1.36 2.87-3.04s-1.29-3.04-2.87-3.04-2.87 1.36-2.87 3.04 1.29 3.04 2.87 3.04z" fill-rule="evenodd"/><path d="m6.38 11.73c.12.18.26.34.4.5a2.48 2.48 0 0 1 -2.04-.5zm-.36-.64a3.88 3.88 0 0 1 -.15-.42h-1.94c.06.15.14.29.23.42zm-2.27-.95h2c-.02-.1-.04-.21-.04-.32h-2c0 .1.02.21.04.32zm-.05-.96h2l.04-.32h-1.99zm.28-.95h1.92l.12-.32h-1.86c-.07.1-.13.2-.18.32zm.76-.96h1.64c.12-.18.26-.34.4-.5a2.48 2.48 0 0 0 -2.04.5zm2.81-.75c.66.41 1.75 1.45 1.75 2.95 0 1.38-1.02 2.47-1.75 3.01a3.38 3.38 0 0 1 -.77-.69c1-.24 1.62-1.18 1.62-2.29s-.62-2.05-1.62-2.29c.22-.27.48-.5.77-.7z"/><path d="m5.97 9.5c0 .73.22 1.42.58 1.98a1.95 1.95 0 0 0 .65-.01c-.5-.5-.81-1.2-.81-1.97 0-.78.3-1.48.8-1.97a1.94 1.94 0 0 0 -.64-.01 3.63 3.63 0 0 0 -.58 1.98z"/><path d="m11.7 13c-1.82 0-3.3-1.57-3.3-3.5s1.48-3.5 3.3-3.5 3.3 1.57 3.3 3.5-1.48 3.5-3.3 3.5zm0-.46c-1.58 0-2.87-1.36-2.87-3.04s1.29-3.04 2.87-3.04 2.87 1.36 2.87 3.04-1.29 3.04-2.87 3.04z" fill-rule="evenodd"/><path d="m11.62 11.73c-.12.18-.26.34-.4.5a2.48 2.48 0 0 0 2.04-.5zm.36-.64.15-.42h1.94c-.06.15-.14.29-.23.42zm2.27-.95h-2c.02-.1.04-.21.04-.32h2c0 .1-.02.21-.04.32zm.05-.96h-2l-.04-.32h1.99zm-.28-.95h-1.92l-.12-.32h1.86c.07.1.13.2.18.32zm-.76-.96h-1.64a3.65 3.65 0 0 0 -.4-.5 2.48 2.48 0 0 1 2.04.5zm-2.81-.75c-.65.41-1.75 1.45-1.75 2.95 0 1.38 1.02 2.47 1.75 3.01.3-.19.55-.42.77-.69-1-.24-1.62-1.18-1.62-2.29s.62-2.05 1.62-2.29c-.22-.27-.48-.5-.77-.7z"/><path d="m12.03 9.5c0 .73-.22 1.42-.58 1.98a1.95 1.95 0 0 1 -.65-.01c.5-.5.81-1.2.81-1.97 0-.78-.3-1.48-.8-1.97a1.94 1.94 0 0 1 .64-.01c.36.56.58 1.25.58 1.98zm-2.53-4a.5.5 0 1 1 -1 0 .5.5 0 0 1 1 0z"/></svg>