<svg height="18" viewBox="0 0 18 18" width="18" xmlns="http://www.w3.org/2000/svg"><path d="m0 0h18v18h-18z" fill="#f0f3fa"/><path d="m4 9.6a4.52 4.52 0 0 0 4.55 3.78c2.8 0 3.89-2.53 3.89-4.03 0-.62-.42-1.08-.63-1.29.12.24.31.7.31 1.14 0 .54-.51 3.55-3.57 3.55-2.4 0-4.24-1.67-4.24-4.14s1.9-4.61 4.87-4.61c2.96 0 4.72 2.07 4.82 4.32-.45-1.46-1.58-3.7-4.26-3.7-2.69 0-4.18 1.96-4.18 3.72 0 .77.46 1.4.63 1.6l-.06-.17c-.1-.3-.25-.76-.25-1.08 0-.78.68-3.4 4.06-3.4 1.3.02 3.75.85 3.75 4.06 0 1.73-1.36 4.65-4.72 4.65-3.35 0-4.65-1.82-4.97-4.4zm7-.6-2-2-2 2 2 2z" fill="#004392"/></svg>