<svg height="18" viewBox="0 0 18 18" width="18" xmlns="http://www.w3.org/2000/svg"><path d="m0 0h18v18h-18z" fill="#f0f3fa"/><path d="m4.35 9.94a1.17 1.17 0 0 1 0-1.67l4.33-4.27 1.02 1.02-5.17 5.1-.19-.18z" fill="#de7137"/><path d="m5.04 10.66c.45.45 1.18.45 1.64 0l4.32-4.33-1-1-5.14 5.15z" fill="#d9252e"/><path d="m13.64 8.06c.24.23.36.53.36.84 0 .3-.12.6-.36.83l-4.32 4.27-1.04-1.02 5.18-5.1z" fill="#de7137"/><path d="m12.96 7.34a1.15 1.15 0 0 0 -1.64 0l-4.32 4.33 1 1.02 5.14-5.17z" fill="#d9252e"/></svg>