<svg height="18" viewBox="0 0 18 18" width="18" xmlns="http://www.w3.org/2000/svg"><path d="m0 0h18v18h-18z" fill="#f0f3fa"/><path d="m9.19 4c1.97.78 3.36 2.07 3.81 2.61a5.4 5.4 0 0 0 -1.75-.32c-2.2 0-3.25 1.21-3.25 2.24 0 .81.5 1.2.9 1.29-.2.06-.81.18-1.61.18-1.9 0-2.89-.84-3.29-1.49 1.58-2.81 3.59-3.75 5.19-4.51z" fill="#0068b7"/><path d="m8.81 14a10.25 10.25 0 0 1 -3.81-2.61c.25.09.94.32 1.75.32 2.2 0 3.25-1.22 3.25-2.24 0-.81-.5-1.2-.9-1.29.2-.06.81-.18 1.61-.18 1.9 0 2.89.84 3.29 1.49-1.58 2.82-3.59 3.75-5.19 4.51z" fill="#e8b820"/></svg>