<svg height="18" viewBox="0 0 18 18" width="18" xmlns="http://www.w3.org/2000/svg"><path d="m0 0h18v18h-18z" fill="#f0f3fa"/><path d="m7.03 8.17c-.04 0-.03-.09-.03-.12v-1.43c0-.03.04-.07.08-.07.82-.08 1.56-.07 2.38.04.94.12 2.35.7 2.35 1.75 0 .5-.24.9-.65 1.1-.08.04.03.09.07.1.51.17 1.1.4 1.44.84.2.28.32.58.33.9 0 .23-.04.46-.13.7-.63 1.6-2.86 2.13-4.36 2a5.04 5.04 0 0 1 -4.51-4.98 5.03 5.03 0 0 1 4.68-5 5.02 5.02 0 0 1 5.32 4.8c.01.2-.07 1.33-.2 1.5-.03.01-.05 0-.07-.01-.3-.28-.5-.55-.86-.79a.25.25 0 0 1 -.1-.1.4.4 0 0 1 -.02-.15c.03-2.37-1.72-4-3.9-3.99a3.76 3.76 0 0 0 -3.61 3.74c.04 1.96 1.76 3.77 3.75 3.75.74 0 2.17-.22 2.19-1 .01-.56-.76-.81-1.22-.87-.77-.1-1.61-.13-2.39-.08-.22 0-.29.03-.5.06a.06.06 0 0 1 -.07-.06v-1.52c0-.16 1.38-.15 1.54-.15.43 0 1 .09 1.43.13.26.02.6-.12.6-.42 0-.67-1.73-.78-2.29-.78-.5 0-.83.08-1.25.11z" fill="#e70b20"/></svg>