<svg height="18" width="18" xmlns="http://www.w3.org/2000/svg"><path d="m0 0h18v18h-18z" fill="#157fc4"/><path d="m7.621 7.49 1.049.46c-1.126.458-2.175.954-3.185 1.566l-1.048-.497a18.72 18.72 0 0 1 3.183-1.529zm-1.32-.496a14.787 14.787 0 0 0 -3.301 1.414l.97.382a22.435 22.435 0 0 1 3.225-1.49l-.893-.306z" fill="#fff"/><path d="m10.03 7.414a22.182 22.182 0 0 0 -2.797-1.07l-1.01.306c1.01.305 1.98.65 2.913 1.108l.893-.344zm1.475-.42c-.932-.42-1.903-.726-2.874-.994l-.932.23c.97.267 1.942.649 2.835 1.07l.97-.306zm2.408.802a25.674 25.674 0 0 0 -6.486 3.249l1.437.955c1.864-1.452 3.922-2.637 6.136-3.592zm-1.631-.764a23.275 23.275 0 0 0 -6.758 2.98l1.36.727c2.019-1.376 4.232-2.408 6.601-3.134z" fill="#e3555a"/></svg>