<svg height="18" width="18" xmlns="http://www.w3.org/2000/svg"><path d="m0 0h18v18h-18z" fill="#003c78"/><path d="m9.384 6.93a2.947 2.947 0 0 1 1.616-.48c1.657 0 3 1.366 3 3.05 0 .679-.2 1.276-.568 1.853-.406.637-1.595 1.95-1.595 1.95a3.174 3.174 0 0 0 .672-1.683h-1.901a1.51 1.51 0 0 1 -.106.321c-.228.539-.761.897-1.384.897-.532 0-1-.281-1.266-.706a1.514 1.514 0 0 1 .42-2.077 1.476 1.476 0 0 1 1.058-.249 1.517 1.517 0 0 1 1.278 1.19h1.883c-.186-1.67-1.607-2.95-3.35-2.95-1.872 0-3.389 1.495-3.389 3.34 0 1.294.749 2.417 1.842 2.97l-.533-.168a3.048 3.048 0 0 1 -2.061-2.895v-4.868l3-2.425v3.771z" fill="#fff"/></svg>