<svg height="18" viewBox="0 0 18 18" width="18" xmlns="http://www.w3.org/2000/svg"><path d="m0 0h18v18h-18z" fill="#f0f3fa"/><path d="m5.93 8.73c0 1.75 1.58 3.14 2.44 3.61l-.83 2.16c-1.18-.67-3.54-2.31-3.54-5.1 0-3.15 3.33-6.67 7.3-5.75-4.24 0-5.37 2.9-5.37 5.08z" fill="#8ea84a"/><path d="m9.74 6.72c.64-.83 1.96-.9 2.54-.84l.4-1.3c-.8-.07-2.68.04-3.54 1.23-1.1 1.51-.85 4.26 1.37 5.17-2.02-1.43-1.56-3.23-.77-4.26z" fill="#006a6e"/><path d="m11.76 12.02c-.64.83-1.96.9-2.55.84l-.39 1.3c.8.08 2.68-.03 3.54-1.22 1.1-1.51.85-4.27-1.37-5.17 2.02 1.43 1.56 3.22.77 4.25z" fill="#f67d1f"/></svg>