<svg height="18" width="18" xmlns="http://www.w3.org/2000/svg"><path d="m0 0h18v18h-18z" fill="#00579e"/><path d="m4.42 7.72h1.48l.95 1.47h.18l.01.09h1.65l.66.91c.05.1.14.19.08.33h-3.2a.63.63 0 0 0 -.11-.41l-1.5-2.24z" fill="#fff"/><path d="m9.43 10.52-1.57 2.38c-.04.08-.1.08-.15.09h-3.29l.04-.1.2-.01 1.52-2.22c.06-.13.04-.11.05-.15h3.2zm4.96 0-1.57 2.39c-.04.08-.1.08-.15.09h-3.29l.04-.1h.2l1.52-2.2c.06-.12.04-.14.05-.18z" fill="#6dbbfd"/><path d="m10.9 7.73h1.77c.44.65.44.7.97 1.43l.68 1.03c.05.1.14.19.08.33h-3.2a.64.64 0 0 0 -.1-.41c-.54-.76-1.02-1.56-1.62-2.38h1.43zm-.64-3.73c.43.66.45.7.97 1.43l.67 1.04c.05.1.14.18.08.32h-3.16a.68.68 0 0 0 -.1-.4c-.52-.77-1.04-1.58-1.64-2.39z" fill="#fff"/><path d="m11.98 6.8-.69.92h-1.63l-.96 1.56h-1.66l-.01-.1h.12l1.67-2.38z" fill="#6dbbfd"/></svg>