<svg height="18" viewBox="0 0 18 18" width="18" xmlns="http://www.w3.org/2000/svg" xmlns:xlink="http://www.w3.org/1999/xlink"><linearGradient id="a" gradientUnits="userSpaceOnUse" x1="13.99" x2="3.75" y1="5" y2="10.77"><stop offset=".07" stop-color="#0c4588"/><stop offset=".4" stop-color="#0081c6"/><stop offset=".86" stop-color="#1b2c7a"/></linearGradient><linearGradient id="b" gradientUnits="userSpaceOnUse" x1="11.08" x2="8.95" y1="8.85" y2="13.34"><stop offset="0" stop-color="#0f79b7"/><stop offset="1" stop-color="#004483"/></linearGradient><path d="m0 0h18v18h-18z" fill="#f0f3fa"/><path d="m14 5a16.78 16.78 0 0 0 -10 3.9c1.82-.95 3.4-1.27 4.09-1.27a13.17 13.17 0 0 0 -2.69 6.37 15.01 15.01 0 0 1 8.6-9z" fill="url(#a)"/><path d="m7.64 12.3c0-1.3 2.27-2.85 3.63-3.3-1.73 1.2-2.42 2.26-2.42 2.78 0 .51.58.68.86.68.8 0 .78-.17 1.46-.37-.77.47-1.73.91-2.58.91s-.95-.44-.95-.7z" fill="url(#b)"/><path d="m12 8.8c-.2.22-.48.27-.63.1-.16-.17-.12-.48.08-.7s.49-.27.64-.1.11.48-.09.7z" fill="#d7261c"/><ellipse cx="11.96" cy="8.4" fill="#ee8e79" rx=".19" ry=".21"/></svg>