<svg height="18" viewBox="0 0 18 18" width="18" xmlns="http://www.w3.org/2000/svg"><path d="m0 0h18v18h-18z" fill="#292929"/><path d="m15 9a6 6 0 1 1 -12 0 6 6 0 0 1 12 0zm-1 0c0 2.83-2.3 5.12-5.15 5.12a5.13 5.13 0 0 1 -5.14-5.12 5.13 5.13 0 0 1 10.29 0zm-.34 0a4.81 4.81 0 0 1 -4.3 4.79v-.82c.6-.08 1.16-.3 1.65-.6h-4.31c.47.3 1 .5 1.58.59v.82a4.81 4.81 0 0 1 -3.58-2.3h5.67l-.15-.72h-2.83l-.06.24h-.93l.94-4.6h-.2l.2-.93h3.01l.16.92h-.16l1.11 5.63a3.93 3.93 0 0 0 -2.6-6.9 3.94 3.94 0 0 0 -3.42 5.88h-.96a4.81 4.81 0 1 1 9.2-2zm-5.01-2.6v.57h-.46l.13-.58h.33zm.35 0v.57h.46l-.13-.58h-.33zm-.97 1.5.16-.57.44.25zm1.43-.57.15.57-.6-.32zm-1.66 1.75.16-.67.6.33zm1.89-.67.15.67-.75-.34zm-1.07-.26v.34l-.47-.34zm.46.34v-.34h.47zm-.46.75v.4l-.6-.4zm.45.4v-.4h.6zm-1.52.78.21-.78.82.36zm2.34-.78.2.78-1.02-.42zm-1.24.92v-.36l-.61.36h.6zm.35-.36v.36h.6z" fill="#fdc716" fill-rule="evenodd"/></svg>