<svg height="18" viewBox="0 0 18 18" width="18" xmlns="http://www.w3.org/2000/svg"><path d="m0 0h18v18h-18z" fill="#f0f3fa"/><path d="m6.94 4.96a49.9 49.9 0 0 0 -2 1.97 282.15 282.15 0 0 0 4.45.8c.05.01-.08.08-.74.35l-.8.34-1.85-.34-1.9-.34c-.04 0-.13.06-.36.28-.17.16-.3.3-.29.31l2.83.52 2.82.51c.02.02-1.52.66-1.6.66-.02 0-1.04-.17-2.27-.4l-2.23-.37c-.02.02.85.85.9.86a1450.5 1450.5 0 0 0 4.88.9l-.8.33-.77.33-1-.18-1.05-.18c-.02 0 .84.83 1.9 1.85s1.94 1.84 1.94 1.84c.02 0 .94-.88 2.06-1.95 1.91-1.83 2.04-1.95 1.98-1.97a195.93 195.93 0 0 1 -4.44-.8l.93-.4.66-.28 1.89.34 1.89.33.3-.29c.18-.17.3-.3.28-.3-.01-.02-1.27-.24-2.79-.51l-2.8-.5c-.03-.02.17-.11.75-.36l.8-.33 2.22.4c1.23.21 2.24.39 2.26.38.02 0-.16-.19-.41-.42l-.45-.43-2.45-.43a143.3 143.3 0 0 1 -2.46-.45c0-.02 1.56-.66 1.6-.66l1.04.17 1.01.18a230.09 230.09 0 0 0 -3.87-3.72z" fill="#d02727"/></svg>