<svg height="18" viewBox="0 0 18 18" width="18" xmlns="http://www.w3.org/2000/svg"><path d="m0 0h18v18h-18z" fill="#f0f3fa"/><path d="m8 14h.06c1.12-2.14.96-1.34 1.93-3l.01-2h-2z" fill="#4ab837"/><path d="m8.06 14h1.94v-3c-.75-.3-1.4.05-1.94-.22.02.52.02 1.38 0 3.22z" fill="#008c33"/><path d="m8.07 11.15v1.77l.01-.05c.11-.34.16-.27.42-.17l-.14.19c.23.14.13.14.28.09l.73-.31c-.08-.43 0-.29-.13-.53-.08.58-.44 1.41 0-.57-.1-.16 0 0-.17-.04-.1-.03-.08-.05-.2-.12l.02.72c-.14.2-.24.63-.33.64-.04-.86.26-.4.05-.68-.08-.12-.06.01-.1-.46l-.09.1c-.08.05-.04.02-.25-.26.24-.23.03-.14.28-.62-.25.1-.22.06-.38.3z" fill="#28ab44"/><path d="m5.59 5.82c-.06.93.66 1.22-.59 1.5v.4c.72-.02.78.06.9.72.2-.2.26-.04.53-.05.2.09 0-.15.57-.05v-.34h1c-.28-.3.07-1.76-.06-2.18 1.76-.11 1.52.2-.5-.04-.54-.06-1.4-.2-1.85.04z" fill="#009434"/><path d="m5 5.56c1 .01 1.94-.04 2.94.04.3.03.77.14.88-.15.02.02.04.02.04.05.11.43 2.45.28 2.68.24l.18-.03.29-.15c-.08-.44.13-.2-.31-.4-.2-.1-.35-.07-.53-.16h-6.17z" fill="#0ca232"/><path d="m5 5.56v.19c.34-.06.33.01.63.08.45-.23 1.27-.11 1.81-.05.65.08 1.25.04 1.82.15.53.14.28.12.87.1 1.27-.05 1.69-.08 2.75.3l.06.33-.08.26c-.17-.13-.27-.07-.53 0-.09 1.25.53 2.47.51 3.95-.21 0-.65-.11-.92-.12-.34-.02-.54.02-.92-.02v.36a3.64 3.64 0 0 1 1.9.08c.04.35.01.62-.13.83h.23v-7h-1.83c.18.09.33.06.53.16.44.2.23-.04.31.4l-.29.15-.18.03c-.23.04-2.57.2-2.68-.24 0-.03-.02-.03-.04-.05-.11.3-.58.18-.88.15-1-.08-1.94-.03-2.94-.04z" fill="#67c54a"/><path d="m10.87 7.62c.26.3-.04.85.42 1.01.16.06.1-.03.37-.13-.15.88-.06.02.05.83a.95.95 0 0 1 .96-.51c.04-.18.07-.45.12-.6.01-.01-.5-.99-.63-1.27.01 0 .53-.26.78-.3l-.06-.31c-1.06-.4-1.48-.36-2.75-.3.34.08.2.66.2 1z" fill="#009b34"/><path d="m12.2 8.87c.12.1-.16-.44-.13.36-.5-.18-.7.33-1.07.12v1.38c.38.04.58 0 .92.02.27 0 .7.12.92.12 0-.54.12-2.32-.05-2.66-.05.17-.02.13-.05.3l-.07.3c-.4-.02-.25-.14-.46.06z" fill="#3ab434"/><path d="m5.67 9.9c.02.47.4.13.51.87-.1.04-.55.16-.65.17-.25.03-.16-.04-.15-.33 0 .05.36-.02-.03-.2.05-2.86-.15-1.3-.35-.76v.98c.44-.12.02.07.3.52l1.06-.15c.34-.21.22-.14.64-.16v-2.5c-.88-.34-.45-1.09-.95-1.24.2.46.37.37-.02.62 1.54.17-.36 2.1-.36 2.18z" fill="#57b945"/><path d="m8 8v-1h2v1h1v-.5c-.01-.41-.31-1.32-.87-1.47-.77-.13-2.05-.28-2.44-.25.19.61-.2 1.68.31 2.22zm3 3.1v.9h1.77c.14-.21.17-.48.14-.83a3.64 3.64 0 0 0 -1.91-.07z" fill="#008c33"/><path d="m6.36 11c-.22.14-.43-.05-.36.33l-.46-.08c.22.5.1-.03.39.38l.05.11c.08.18.03-.13.06.26h.96v-1.16c-.43.02-.3-.05-.64.16z" fill="#189647"/><path d="m11 9.35c.21.12.1.03.41.14.37.05.45-.16.94.02.14-.8-.15-.9-.83-1.13-.4-.13-.08-1.01-.52-1.13z" fill="#24aa3c"/><path d="m5 12h1.2c-.04-.6-.46-.54-.2-.67-.07-.38.48-.12.33-.46-.5.07-.92.44-1-.07-.04-.28 0-.26-.33-.17z" fill="#00752b"/><path d="m5 8.6c.57.06.92.45 1.29-.33-.3.02-.6.1-.23-.61-.5.08-.54.04-1.06.05v.88z" fill="#44b343"/><path d="m5.38 10.61c-.01.3-.1.36.15.33.42-.05.8.03.72-.39-.6-.43.01-1.8.18-.48.23-.09-.05-.51.3-.74-.1-.2.01-.2-.12-.24-1.67-.44-1.23 1.94-1.23 1.52z" fill="#43b333"/><path d="m5.46 8.65c-.38.6-.1 1.31-.1 1.76.24.1.04.1.24-.05.22.04-.12-.56-.15-.63.41-.4.6-.71 1.16-.64v-.2a11 11 0 0 0 -1.15-.24z" fill="#27a834"/><path d="m12.83 8.2c-.22-.84-.45-.2-.37-1.28.26-.07.23-.13.4 0l.08-.26c-.3.03-.18.03-.4-.18-.2.14-.05.04-.19.18l-.1.12c-.1-.2-.02-.05-.16-.18-.38-.32-.35-.17-.46-.08.16.36-.01-.06.26.29l.18.3c.2.37.15.41.19.86.42.04.32.08.57.23z" fill="#34b53a"/><path d="m5 6.44.45-.26c-.25.47-.02.3-.25.72.2 0 .74.02.86.18v-.13c-.1-.6-.17-.03-.39-.95l-.04-.17c-.3-.07-.29-.14-.63-.08v.7z" fill="#14a334"/><path d="m5 6.44v.88l1.06-.24c-.27-.38-.34-.12-.48-.23-.16-.14-.38-.2-.13-.67z" fill="#3bb339"/><path d="m5.54 9.21c-.02-.13 1.16-.31 1.37-.3-.26-.4-.2-.18-.15-.35 0-.02.04-.07.04-.18-.25-.1-.09.03-.22-.16-.5.09-.92.43-1.04 1z" fill="#00932c"/><path d="m5 9.65.2.04c-.06-.26 0-.54.19-.72l.15-.1.06-.02-.08-.2-.52-.05v1.06z" fill="#2caa3b"/></svg>