<svg height="18" width="18" xmlns="http://www.w3.org/2000/svg"><path d="m0 0h18v18h-18z" fill="#252969"/><path d="m12.847 5h-6.673l.01.588-1.713 6.486-.471.926 7.132-.004c.645.015 1.198-.201 1.492-.749.214-.804.598-1.561.511-2.458a1.693 1.693 0 0 0 -.656-.882c.302-.09.603-.207.84-.453.506-.686.66-1.55.681-2.397-.114-.519-.63-.968-1.153-1.057zm-3.784 1h1.922c.38 0 .052 1.303.052 1.303s-.168.697-.455.697h-2.007zm-.917 4h1.86c.345.008.259.719.259.719s-.299 1.271-.645 1.281h-2.062z" fill="#fff"/></svg>