<svg height="18" viewBox="0 0 18 18" width="18" xmlns="http://www.w3.org/2000/svg"><path d="m0 0h18v18h-18z" fill="#f0f3fa"/><path d="m8.72 5.54h.56c.06 0 .1-.06.1-.12s-.04-.15-.1-.15h-.56zm0 .54h.57c.07 0 .13-.07.13-.14a.12.12 0 0 0 -.13-.13h-.57zm.89-.42a.4.4 0 0 1 .11.29.4.4 0 0 1 -.39.4h-.9v-1.35h.89c.2 0 .37.2.37.4 0 .1-.03.19-.08.26zm-4.13 2.99h.56c.06 0 .11-.08.11-.15s-.05-.17-.1-.17h-.57zm0 .62h.58c.07 0 .12-.08.12-.17 0-.08-.05-.14-.12-.14h-.58zm.9-.5c.07.1.11.21.11.34 0 .26-.18.48-.4.48h-.9v-1.57h.9c.2 0 .37.22.37.47a.5.5 0 0 1 -.09.29zm3.42-.95h-.33l-.13-.3h-.66l-.15.3h-.33l.66-1.37h.3zm-.79-1.02-.22.45h.44zm-.75 2.79h-.33l-.13-.31h-.66l-.14.31h-.33l.66-1.57h.3l.64 1.57zm-.79-1.21-.21.58h.43zm.73-.36h.37l.44.71.44-.71h.38l-.66 1.02v.55h-.31v-.55zm3.17 0v.31h-.89v.32h.89v.31h-.89v.31h.89v.32h-1.18v-1.57zm-1.77 1.98v.28h-.88v.28h.89v.29h-.89v.28h.89v.29h-1.18v-1.42zm2.61-1.04h-.21v.63h-.33v-1.57h.79c.22 0 .4.22.4.5 0 .23-.12.38-.29.44l.38.63h-.37zm.22-.63h-.43v.32h.43c.07 0 .12-.05.12-.13 0-.09-.05-.19-.12-.19zm-3.45 4.22h-.26v.57h-.28v-1.42h.79c.22 0 .4.2.4.45a.4.4 0 0 1 -.29.4l.38.57h-.37zm.22-.57h-.48v.28h.48c.07 0 .12-.03.12-.11s-.05-.17-.12-.17z" fill="#00354f"/><path d="m14 8.69a5 5 0 0 0 -9.99 0 4.97 4.97 0 0 0 5 4.69 4.39 4.39 0 0 1 0-8.76 5 5 0 0 1 4.98 4.69 5.13 5.13 0 0 0 0-.62z" fill="#56d400"/><path d="m4.01 9.31a5 5 0 0 0 9.98 0 4.94 4.94 0 0 0 -.96-2.66 5 5 0 0 0 -4.03-2.03 4.39 4.39 0 0 1 0 8.76 5 5 0 0 1 -4.99-4.68 5.13 5.13 0 0 0 0 .62z" fill="#00bdff"/></svg>