<svg height="18" viewBox="0 0 18 18" width="18" xmlns="http://www.w3.org/2000/svg"><path d="m0 0h18v18h-18z" fill="#f0f3fa"/><path d="m14.37 8.67c-.07-.1-.18-.17-.34-.17-.3 0-.36.25-.36.5 0 .34.1.5.44.5a.5.5 0 0 0 .45-.3h-.67v-.4h1.11v.6a1.02 1.02 0 0 1 -.97.6.98.98 0 0 1 -1.03-1c0-.54.4-1 1.03-1 .46 0 .86.24.95.67zm-5.37 0-1.5 3.33h3l.9-2h-.22v-1.1l-.4 1.1h-.55l-.41-1.11v1.11h-.82zm.3-.67h.67l.53 1.3.54-1.3h.96v.67l1.2-2.67h-3zm-4.76.97c.28.05.46.26.46.49 0 .37-.38.54-.8.54h-1.2v-2h1.16c.4 0 .79.16.79.52 0 .21-.15.4-.41.45zm-.79-.17h.26c.17 0 .24-.08.24-.2s-.07-.2-.24-.2h-.26zm.25.8c.17 0 .25-.08.25-.2s-.08-.2-.24-.2h-.26v.4zm3.54-.63c.28.05.46.26.46.49 0 .37-.38.54-.8.54h-1.2v-2h1.16c.4 0 .79.16.79.52 0 .21-.15.4-.41.45zm-.79-.17h.26c.17 0 .24-.08.24-.2s-.07-.2-.24-.2h-.26zm.25.8c.17 0 .25-.08.25-.2s-.08-.2-.24-.2h-.26v.4z" fill="#e4312a"/></svg>