<svg height="18" viewBox="0 0 18 18" width="18" xmlns="http://www.w3.org/2000/svg"><path d="m0 0h18v18h-18z" fill="#f0f3fa"/><path d="m8.52 9.87.48-.38v1.51h-1v-.64l.52-.5zm4.98-2.2v.53h-.5v-.44l.5-.1z" fill="#007481"/><path d="m14.17 6.48c-5.6-5.31-10.64 5.35-10.64 5.35-.18.38-.36.77-.53 1.17h3.22s.1-.6.25-1.25c.09-.4.18-.78.28-1.13v-.04a18 18 0 0 1 .6-1.87l.02-.03.3-.66c.33-.7.56-.97.56-.97 1.3-1.94 3.43-2.94 6.77.5-.36-.66-.83-1.07-.83-1.07z" fill="#00adbb"/><path d="m7.56 8.58c-.3.73-.65 1.78-.98 3.21.6-1.08 2.86-4.26 8.42-4.25 0 0-3.58-.9-7.44 1.04z" fill="#007481"/><path d="m7.28 9.31c-.37 1.05-.37 1.05-.7 2.49.6-1.08 2.86-4.26 8.42-4.26 0 0-3.86-.17-7.72 1.77z" fill="#742e89"/></svg>