<svg height="18" viewBox="0 0 18 18" width="18" xmlns="http://www.w3.org/2000/svg"><path d="m0 0h18v18h-18z" fill="#f0f3fa"/><path d="m14 4h-10v3.33h.18c.45 0 1-.02 1.35-.34.6-.57 1.25-.8 1.81-.8.4 0 .73.42 1.04.62.34.22.66.37 1 .37.47 0 .9-.18 1.37-.18.5 0 .94.33 1.43.33.5 0 .9-.66 1.5-.66l.32.01z" fill="#19b3ab"/><path d="m14 10c-.79.06-1.31.26-1.92.73-.23.17-.47.27-.86.27-.5 0-.86-.5-1.14-.86-.18-.23-.46-.47-.79-.47-.62 0-.77 1-1.6 1-.7 0-.87-.93-1.49-1-.4.01-.79.6-1.21.69a4.1 4.1 0 0 0 -.99.3v3.34h10z" fill="#8dc23e"/><path d="m4 10.25v-2.58c.6 0 1.3.08 1.75-.36.54-.52 1.12-.81 1.6-.81.46 0 1.15 1 2.03 1s.82-.17 1.37-.17 1 .42 1.43.42.8-.75 1.5-.75c.1 0 .2 0 .32.02v2.65c-.5.03-1.07.1-1.4.29-.68.38-.78.7-1.38.7-.59 0-1.14-1.33-1.93-1.33-.77 0-.81.92-1.6.92-.6 0-.83-.92-1.4-.92-.42 0-.94.61-1.37.7-.24.04-.53.04-.92.22z" fill="#d76b23"/></svg>