<svg height="18" width="18" xmlns="http://www.w3.org/2000/svg"><path d="m0 0h18v18h-18z" fill="#f0f3fa"/><path d="m5.92 7.72c.1-.42.46-.72.9-.72h1.53c.74 0 1.26.73 1.01 1.43a1.6 1.6 0 0 1 -.88.94c.56.3.85 1 .58 1.64-.25.6-.83.99-1.48.99h-2.58l.58-2.79h.01l.33-1.5zm.93.1h1.1a.5.5 0 0 1 .51.58.8.8 0 0 1 -.8.7h-1.04l.24-1.28zm-.4 2.07h1.26c.32 0 .56.28.5.6a.8.8 0 0 1 -.79.67h-1.23z" fill-rule="evenodd"/><rect fill="#00833f" height="3.53" rx=".38" transform="matrix(.78356 .62131 -.78592 .61833 10.8 3)" width=".75"/><rect fill="#d0323a" height="2.08" rx=".38" transform="matrix(.78461 -.61998 -.78697 -.617 9.63 15)" width=".76"/><rect fill="#94c11f" height="3.41" rx=".35" transform="matrix(.46929 .88305 -.94985 .31272 12.82 5.8)" width=".69"/><rect fill="#ed672b" height="2.63" rx=".35" transform="matrix(.46929 -.88305 -.94985 -.31272 12.08 12.86)" width=".69"/><rect fill="#edcc09" height="3.05" rx=".33" transform="matrix(0 -1 1 0 .64 20.26)" width=".66" x="10.45" y="9.81"/></svg>