<svg height="18" width="18" xmlns="http://www.w3.org/2000/svg" xmlns:xlink="http://www.w3.org/1999/xlink"><linearGradient id="a" gradientUnits="userSpaceOnUse" x1="13.4" x2="5.62" y1="6.52" y2="13.31"><stop offset="0" stop-color="#f9da03"/><stop offset=".52" stop-color="#5db997"/><stop offset="1" stop-color="#39baa8"/></linearGradient><path d="m0 0h18v18h-18z" fill="#f0f3fa"/><path d="m9.77 7c1.01 0 1.87.54 1.87 1.67 0 .55-.29 1.01-.82 1.24.68.21 1 .87 1 1.44 0 1.27-.99 1.65-2.05 1.65h-2.44v-6zm-1.88 2.7h2.03c.67 0 1.12-.4 1.12-1.03 0-.67-.44-1.07-1.12-1.07h-2.02v2.1zm0 2.7h1.88c.78 0 1.5-.24 1.5-1.05-.02-.75-.69-1.05-1.46-1.05h-1.92z" fill="#666769"/><path d="m5.77 14a5.57 5.57 0 1 1 8.63-6.38l-1.26.32a4.28 4.28 0 1 0 -6.64 4.96z" fill="url(#a)"/><path d="m7.33 6.89-1.19-2.89c-.44.27-.85.58-1.24.9z" fill="#5db997"/></svg>