<svg height="18" viewBox="0 0 18 18" width="18" xmlns="http://www.w3.org/2000/svg"><path d="m0 0h18v18h-18z" fill="#f0f3fa"/><path d="m9 14a5 5 0 1 0 0-10 5 5 0 0 0 0 10zm-3.89-6.3a4.02 4.02 0 0 1 1.7-.42c.36 0 .73.04 1.05.1.33.05.57.12.69.18a.31.31 0 0 0 .28-.56c-.2-.1-.52-.18-.86-.24-.35-.06-.76-.1-1.16-.1a4.64 4.64 0 0 0 -2.05.52.31.31 0 0 0 .35.52zm7.55-.04a.31.31 0 0 0 -.44-.44c-.09.08-.26.22-.47.33-.22.12-.47.2-.72.2-.56 0-1.09-.2-1.27-.28a.31.31 0 0 0 -.27.56c.24.12.86.35 1.54.35a2.7 2.7 0 0 0 1.63-.72zm-7.4 1.44c.15-.09.4-.24.7-.36s.6-.2.85-.2c.77 0 1.26.23 1.81.5h.03c.58.29 1.21.59 2.22.59a3.7 3.7 0 0 0 2.07-.54.31.31 0 1 0 -.38-.5c-.14.11-.74.41-1.69.41-.86 0-1.4-.25-1.95-.52l-.04-.02c-.56-.27-1.15-.55-2.07-.55-.37 0-.77.12-1.1.25-.33.14-.62.3-.79.42a.31.31 0 0 0 .35.52zm.24 1.34c.1-.13.53-.5 1.31-.5a2.39 2.39 0 0 1 1.27.28.31.31 0 0 0 .28-.56c-.16-.08-.34-.17-.59-.24-.24-.07-.55-.1-.96-.1-.97 0-1.6.45-1.81.74a.31.31 0 0 0 .5.38zm7.53-.06a.31.31 0 1 0 -.25-.57c-.35.15-1.22.44-1.9.44-.7 0-1.38-.2-1.6-.29a.31.31 0 0 0 -.24.58c.29.12 1.04.34 1.84.34s1.77-.34 2.15-.5z" fill="#0068b7" fill-rule="evenodd"/></svg>