<svg height="18" viewBox="0 0 18 18" width="18" xmlns="http://www.w3.org/2000/svg"><path d="m0 0h18v18h-18z" fill="#f0f3fa"/><path d="m5 7.13a.16.16 0 0 1 .15-.13h4.85l-1.03 5.87a.16.16 0 0 1 -.15.13h-4.67c-.1 0-.16-.1-.15-.2z" fill="#c02831"/><path d="m9.12 11.99v.01-.01c0-.06-.04-.16-.25-.23-.32-.1-.97-.22-1.59-.37-.05-.01-.15-.1-.15-.21 0-.14.19-.26.28-.29.07-.01.57-.43.82-.56l1.12.3-.23 1.37z" fill="#78242f"/><path d="m14 5.16c0 .03-.01.05-.03.06l-2.04 2.88a.39.39 0 0 0 -.04.36l1.03 2.37v.07c0 .07-.06.11-.12.11h-5.3a.48.48 0 0 0 -.34.16l-.04.03 1.1-6.06c0-.08.07-.13.13-.13h5.52c.08 0 .14.08.13.16z" fill="#ea3347"/></svg>