<svg height="18" viewBox="0 0 18 18" width="18" xmlns="http://www.w3.org/2000/svg"><path d="m0 0h18v18h-18z" fill="#f0f3fa"/><path d="m8.69 13.12c2.41 0 4.37-1.85 4.37-4.12s-1.96-4.12-4.36-4.12c-1.6 0-2.99.8-3.75 2v4.24c.76 1.2 2.16 2 3.75 2zm-4.69-1.76v-4.72a5.36 5.36 0 0 1 4.69-2.64c2.93 0 5.31 2.24 5.31 5s-2.38 5-5.31 5a5.36 5.36 0 0 1 -4.69-2.64z" fill="#042275"/><path d="m8.69 12.24c1.9 0 3.43-1.45 3.43-3.24 0-.78-.3-1.5-.78-2.06l-4.84 4.56c.6.46 1.36.74 2.19.74z" fill="#042275"/><path d="m10.7 6.37a3.57 3.57 0 0 0 -4.27.19l2.1 1.85 2.16-2.04z" fill="#40a9e0"/></svg>