<svg height="18" viewBox="0 0 18 18" width="18" xmlns="http://www.w3.org/2000/svg" xmlns:xlink="http://www.w3.org/1999/xlink"><linearGradient id="a" gradientUnits="userSpaceOnUse" x1="4.42" x2="6.75" y1="6.49" y2="14"><stop offset="0" stop-color="#045fa5"/><stop offset=".61" stop-color="#43bafc"/><stop offset="1" stop-color="#12ddfe"/></linearGradient><linearGradient id="b" gradientUnits="userSpaceOnUse" x1="4.91" x2="8.82" y1="8.68" y2="11.92"><stop offset=".04" stop-color="#c2e7ff" stop-opacity="0"/><stop offset=".65" stop-color="#c2e7ff"/><stop offset="1" stop-color="#c2e7ff" stop-opacity="0"/></linearGradient><linearGradient id="c" gradientUnits="userSpaceOnUse" x1="6.41" x2="6.41" y1="4.54" y2="10.41"><stop offset="0" stop-color="#3ba5cf"/><stop offset="1" stop-color="#31758d"/></linearGradient><linearGradient id="d" gradientUnits="userSpaceOnUse" x1="7.7" x2="11.53" y1="6.64" y2="13.72"><stop offset="0" stop-color="#6fe3dc"/><stop offset=".24" stop-color="#48c4bc"/><stop offset=".48" stop-color="#caf2f2"/><stop offset="1" stop-color="#13a88a"/></linearGradient><linearGradient id="e" gradientUnits="userSpaceOnUse" x1="8.12" x2="13.98" y1="4.53" y2="11.76"><stop offset=".14" stop-color="#3cc5bb"/><stop offset=".38" stop-color="#ddf4f6"/><stop offset=".62" stop-color="#00ab8b"/><stop offset="1" stop-color="#206864"/></linearGradient><linearGradient id="f" gradientUnits="userSpaceOnUse" x1="9.59" x2="11.08" y1="8.48" y2="13.75"><stop offset="0" stop-color="#79bcc2"/><stop offset="1" stop-color="#199d90"/></linearGradient><path d="m0 0h18v18h-18z" fill="#cde4ec"/><path d="m4 9.13c0-3.43 2.6-4.79 3.89-5.03-.67.24-2 1.29-2 3.65 0 2.24 1.85 2.96 2.92 3.17.39.08.7.4.7.8v2.28c-1.89-.02-5.51-1-5.51-4.87z" fill="url(#a)"/><path d="m5.88 7.7v.04c0 2.24 1.86 2.96 2.93 3.17.38.08.7.4.7.8v.36c-.62.4-2.44.25-3.9-1.58-1.22-1.5-.34-2.5.25-2.8z" fill="url(#b)"/><path d="m5.56 7.42a3.6 3.6 0 0 0 1.69 3 3.71 3.71 0 0 1 -1.34-3 3.86 3.86 0 0 1 1.26-2.88 3.34 3.34 0 0 0 -1.6 2.88z" fill="url(#c)"/><path d="m8.97 7.2v-1l3.8.49c.36.61.96 2.31.47 4.19a4.23 4.23 0 0 1 -2.8 2.93c.68-.31 2.04-1.32 2.04-2.87 0-1.88-1.53-2.65-2.74-2.88-.42-.08-.77-.43-.77-.86z" fill="url(#d)"/><path d="m8.32 5.44v-1.43c1.9-.12 5.68.92 5.68 4.93 0 3.2-2.42 4.6-3.63 4.9a4.28 4.28 0 0 0 2.77-4.17c0-2.53-2.55-3.32-3.83-3.4h-.16a.84.84 0 0 1 -.83-.83z" fill="url(#e)"/><path d="m9.65 8.77v-.83h.13v.83c0 .26.5.47.76.54.9.33 1.33 1.18 1.5 1.4.15.23.24-.68.24-.82.35.44.34 1.35-.15 2.47-.39.9-1.25 1.3-1.63 1.39.57-.3 1.53-.95 1.53-2.18s-1.08-2.08-1.72-2.26c-.52-.14-.65-.42-.66-.54z" fill="url(#f)"/></svg>