<svg height="18" viewBox="0 0 18 18" width="18" xmlns="http://www.w3.org/2000/svg"><path d="m0 0h18v18h-18z" fill="#f0f3fa"/><path d="m6.96 4.42.3.65.93-.33-.13-.67a5 5 0 0 1 .47-.07l.1 1.09h.37l.72-1.06a5 5 0 0 1 2.65 1.23l-.46.54.24.27-.24.26.33.36.24-.17.24.37.75-.2c.28.54.46 1.15.53 1.79l-1.06.12v.82l1.03.29a5.02 5.02 0 0 1 -2.73 3.77l-.5-.61h-.94l.22 1.03a5.04 5.04 0 0 1 -3.95-.86l.65-.87-.37-.28h-.55l-.55.4c-.1-.1-.18-.22-.27-.34l.65-.4-.5-.87-.72.28a5 5 0 0 1 .03-4l.68.32.53-.84-.66-.42a5.03 5.03 0 0 1 1.98-1.6zm3.04 4.58a1 1 0 1 1 -2 0 1 1 0 0 1 2 0z" fill="#1a8bcb" fill-rule="evenodd" opacity=".8"/></svg>