<svg height="18" viewBox="0 0 18 18" width="18" xmlns="http://www.w3.org/2000/svg"><path d="m0 0h18v18h-18z" fill="#f0f3fa"/><path d="m7.14 11 1.34-4h.82c-.32.93-.95 2.82-.95 2.89.47-.1.65-.58.7-.88.2-.7.68-.97.9-1.01h2.68l-.37 1h-2.3l-.3.72a2.38 2.38 0 0 1 -2.02 1.28h-.49zm-4.5-2h-.34l-.3 1h.91c.03 0 .94-1.14 1.4-1.79l.68 2.79h.65c.96-.06 1.59-.95 1.78-1.4l.87-2.6h-.87c-.12.41-.44 1.4-.7 2.12a1.6 1.6 0 0 1 -1.12 1.03l-.77-3.15h-.6l-1.58 2zm9.86 0 .32-1h1.14l.3-1h.9l-.28 1h1.12l-.37 1h-1.05c-.17.64-.79 1.82-1.96 2h-.53c.02 0 .12-.34.21-.65l.1-.35h.18c.29-.04.87-.12 1.08-1zm-6.48-1.93c.1.11.08.32-.05.47-.13.14-.31.17-.4.06-.1-.11-.08-.32.04-.47.13-.15.31-.17.41-.06zm.53.47c.13-.15.15-.36.06-.47-.1-.11-.29-.09-.41.06-.13.15-.15.36-.06.47.1.11.29.08.41-.06z" fill="#2e9b49"/></svg>