<svg height="18" width="18" xmlns="http://www.w3.org/2000/svg"><path d="m0 0h18v18h-18z" fill="#002a5c"/><path d="m11.42 10.8c0 .74-.59 1.2-2.08 1.2h-.7c-.58 0-1.08-.06-1.08-.42v-1.85s.14-.23.85-.23h.97c1.67-.04 2.04.57 2.04 1.3zm-3.86-4.4s.14-.4.84-.4h.6c1.69-.03 2.01.6 2.01 1.2 0 .72-.54 1.32-2.04 1.32h-.42c-.58 0-.98-.1-.98-.37v-1.76zm3.57 2.4c-.52-.06-.58-.09-.03-.19.56-.08 1.5-.56 1.5-1.66 0-1.08-.78-1.95-3.1-1.95h-2.79c-.47 0-.72.08-.72.39v7.07c0 .13.04.23.13.3.23.21.77.24 1.57.24h1.89c.62 0 1.21-.08 1.72-.23 1.01-.32 1.69-.95 1.69-1.96v-.04c-.02-1.48-1.1-1.87-1.87-1.98z" fill="#fff"/></svg>