<svg height="18" viewBox="0 0 18 18" width="18" xmlns="http://www.w3.org/2000/svg"><path d="m0 0h18v18h-18z" fill="#f0f3fa"/><path d="m7 4.59v1.11l1 .43v-1.05l3.82 2.09c.13.1.17.25.18.31v.3c0 .15-.09.28-.14.33l-.52.44-.55.44-5.29 2.87v1.27l6-3.7.99-.7c.42-.27.52-.64.51-.8v-.43a1.12 1.12 0 0 0 -.56-.95l-4.33-2.4c-.78-.41-1.11.12-1.11.44z" fill="#700b35"/><path d="m7 13.51v-.77l1-.52v.68l3.78-2.04c.18-.12.22-.3.22-.38v-.28a.54.54 0 0 0 -.28-.4l-6.22-2.93v-1.27l6.99 3.69c.41.22.51.6.5.76v.6a.94.94 0 0 1 -.45.73l-4.54 2.46c-.8.4-1.02-.05-1.01-.33z" fill="#028fc6"/></svg>