<svg fill="none" height="18" width="18" xmlns="http://www.w3.org/2000/svg"><path d="m0 0h18v18h-18z" fill="#fff"/><path d="m14 11.5-3-1.5v3z" fill="#0060f1"/><path d="m11 13.001-3 1.499v-3z" fill="#459ef4"/><path d="m8 11.5 1.5-.75 1.5-.75v3l-1.5-.75z" fill="#027bff"/><path d="m5 13 1.501-.75 1.499-.75v3l-1.499-.75z" fill="#64baff"/><path d="m5 7 3-1.5v3z" fill="#9185f5"/><path d="m8 5.5-1.499-.75-1.501-.75v3z" fill="#a69df7"/><path d="m8 8.5-3-1.5v3z" fill="#7d61fa"/><path d="m11 7-3 1.5 3 1.5z" fill="#0500ff"/><path d="m11 10 3-1.5v3z" fill="#0053ff"/><path d="m14 8.5-1.501-.75-1.499-.75v3l1.499-.75z" fill="#062efe"/><path d="m5 10 3-1.5v3z" fill="#6924f2"/></svg>