<svg height="18" viewBox="0 0 18 18" width="18" xmlns="http://www.w3.org/2000/svg"><path d="m0 0h18v18h-18z" fill="#f0f3fa"/><path d="m6.55 5.77c.3.13.6.3.88.51l.66.3c-.05.33-.13.65-.24.97-.08.24-.23.75-.29 1.04l.35.49c.2.32.4 1.08.35 1.54.13.5.63 1.13 1.66 1.48-.08.07-.7.7-.72.7-.67-.86-1.3-1.38-1.47-1.69-.02-.5-.08-1-.16-1.5-.1-.15-.21-.37-.21-.37l-.23 1.06-1.68 2.53-1.29-.74c.34-.21.75-.34 1.05-.53.29-.47.63-.9 1.01-1.27l.47-.68c.04-.4.36-1.96.4-2.4-.47.33-1.01.5-1.57.51a3.9 3.9 0 0 1 -1.52-.27s.08-.32.1-.34c.79.13 1.6-.05 2.28-.5a3.13 3.13 0 0 1 -1.98-1.24l-.02-.37.45.19c.5.44 1.16.54 1.72.58zm1.23-.08c.03.12.1.28.16.3.08.01.16 0 .23-.03.1-.16.16-.33.2-.5a.29.29 0 0 0 -.14-.17.25.25 0 0 0 -.2 0c-.13.04-.22.21-.25.4z" fill="#1271b8"/><path d="m9.82 7.23c0-.12.07-.29.16-.31h.13c.04.02.08.05.1.1a.31.31 0 0 1 .04.24.58.58 0 0 1 -.14.11h-.13a.43.43 0 0 1 -.16-.14zm-.76.6c-.31.4-.58.81-.8 1.26a6.6 6.6 0 0 0 -.32 1.34l.34.26c.1-.36.25-.8.47-1.11.02-.41.1-.81.22-1.2 0 .4.1.8.25 1.17.07.46-.18.79-.5 1.14a5.52 5.52 0 0 0 -.55 2.31l.5-.46.15-.25c0-.2.04-.64.04-.88.27-.42.57-.92.65-1.24.07-.21.08-.44.05-.67l.22-.03c.11.3.23.73.36 1.16l.45 1.14.3 1.01.81-.32-.68-1.34c-.1-.2-.4-.67-.4-.67s-.2-.43-.24-.55c-.04-.5-.12-1-.22-1.5l.02-.2.08.08c.5.24 1.1.78 1.52 1.96a2.07 2.07 0 0 0 -.67-2.05c-.4-.3-.86-.48-1.34-.5a.58.58 0 0 1 -.14.06c-.2-.02-.4.02-.58.1" fill="#e2a417"/><path d="m12.89 10.16-.04-.1c.36-.35.75-.64 1.17-.88.1-.12.1-.33.1-.43.18-.06.35-.09.53-.1 0 .23 0 .67-.33.86-.24.4-.65.68-1.43.65m-.57.02c-.23-.3-.34-.37-.58-.39a.6.6 0 0 0 -.29.1.67.67 0 0 0 -.2.23c-.07.15-.14.48-.07.66 0 0 .21-.31.3-.4.13-.09.32-.12.6-.14l.22.12a4.44 4.44 0 0 0 .25.73l.1-.02.01.11c-.22.1-.44.23-.65.37-.22.07-.44.12-.67.15h-.18v.4l.34-.08a15 15 0 0 1 .5-.05c.29-.1.56-.24.81-.42.24-.01.48-.05.71-.12.37-.03.73.04 1.07.19l.41-.04-.13-.47c-.11.04-.22.08-.34.1l-1.77-.18a4 4 0 0 0 .02-.42l.03-.54-.5.12m.22-.32c.06-.03.1-.08.14-.14a.43.43 0 0 0 0-.16.2.2 0 0 0 -.06-.1.17.17 0 0 0 -.1-.06c-.05 0-.1.01-.13.04a.2.2 0 0 0 -.07.12l.13.27.1.03" fill="#e44621"/></svg>