<svg height="18" viewBox="0 0 18 18" width="18" xmlns="http://www.w3.org/2000/svg"><path d="m0 0h18v18h-18z" fill="#f0f3fa"/><path d="m2 9.08 7-5.08 2.3 1.67h-.1c-.41.05-.86.15-1.3.28l.33-.95c-.65 0-1.25.45-1.46.68l-.31.83c-.69.3-1.29.64-1.65.87l-.16.68c.35-.21.91-.52 1.52-.78l-1.8 4.87zm5.46 3.84 1.54 1.08 1.01-.71c.23-.47.47-1.11.54-1.84.13-1.22-1.03-1.41-1.62-1.36l.16-.67c1.3-.51 1.95-1.02 2.11-1.87.13-.68-.6-.85-.97-.85-.19 0-.4.03-.62.08zm5.28-1.55 3.26-2.29-3.03-2.2c.03.18.04.36.02.5-.13 1.36-1.9 2.15-2.76 2.37h.27c.64 0 1.01-.01 1.68.51.24.2.43.61.56 1.11z" fill="#4c4e4d"/></svg>