<svg height="18" viewBox="0 0 18 18" width="18" xmlns="http://www.w3.org/2000/svg"><path d="m0 0h18v18h-18z" fill="#f0f3fa"/><path d="m8.17 3.88-3.92 2.2-.02.01a.04.04 0 0 0 .02.07l1.49.64a.05.05 0 0 0 .05-.02l2.44-2.84a.04.04 0 0 0 0-.05l-.03-.02h-.03zm-4.17 2.52v4.52l.01.03a.05.05 0 0 0 .06.01l.02-.02 1.51-3.86v-.04a.05.05 0 0 0 -.02-.02l-1.53-.65a.05.05 0 0 0 -.04 0 .05.05 0 0 0 -.02.04z" fill="#bed630"/><path d="m5.8 7.37-1.73 4.35a.05.05 0 0 0 .02.05l.02.01 4.55.55a.05.05 0 0 0 .04-.02.05.05 0 0 0 0-.05l-2.82-4.9-.02-.02a.05.05 0 0 0 -.05 0l-.02.03z" fill="#97ca60"/><path d="m13.74 6.07-3.96-2.22a.05.05 0 0 0 -.06 0 .04.04 0 0 0 0 .07l2.37 2.86a.05.05 0 0 0 .05.01l1.6-.64.02-.01a.04.04 0 0 0 0-.06zm-4.88 8.38v-1.8l-.01-.03-.03-.02-4.08-.48-.03.01-.02.02v.03l.02.03 4.08 2.28a.05.05 0 0 0 .07-.01z" fill="#69c086"/><path d="m11.72 6.92-2.69-3.4a.05.05 0 0 0 -.06 0l-2.8 3.4a.05.05 0 0 0 0 .07l.03.01h5.49a.05.05 0 0 0 .04-.03.05.05 0 0 0 0-.05z" fill="#97ca60"/><path d="m9.33 12.33 4.55-.54h.02l.02-.02v-.02-.02l-1.82-4.36-.02-.01a.05.05 0 0 0 -.07.01l-2.71 4.88a.04.04 0 0 0 0 .06l.02.02h.02z" fill="#03b8a5"/><path d="m6.08 7.33 2.88 4.9.01.02a.05.05 0 0 0 .07-.01l2.76-4.91a.04.04 0 0 0 0-.05l-.02-.01-.02-.01h-5.66l-.02.02a.04.04 0 0 0 0 .05z" fill="#69c086"/><path d="m14 10.98v-4.58-.02a.04.04 0 0 0 -.04-.02h-.02l-1.65.67a.05.05 0 0 0 -.03.02v.04l1.65 3.91.02.02h.04s.02 0 .02-.02v-.03zm-4.8 3.52 4.09-2.3s.02 0 .02-.02v-.03a.04.04 0 0 0 -.02-.02h-.03l-4.08.48-.03.01-.02.03v1.8l.01.03.02.01a.05.05 0 0 0 .05 0z" fill="#00b0c3"/></svg>