<svg height="18" viewBox="0 0 18 18" width="18" xmlns="http://www.w3.org/2000/svg" xmlns:xlink="http://www.w3.org/1999/xlink"><linearGradient id="a"><stop offset="0" stop-color="#0b78be"/><stop offset="1" stop-color="#009ade"/></linearGradient><linearGradient id="b" gradientUnits="userSpaceOnUse" x1="13.43" x2="13.43" xlink:href="#a" y1="7" y2="11"/><linearGradient id="c" gradientUnits="userSpaceOnUse" x1="4.5" x2="4.5" xlink:href="#a" y1="7" y2="11"/><path d="m0 0h18v18h-18z" fill="#f0f3fa"/><path d="m12.95 7c-.47 0-1.03.43-1.17.94l-.17.64a.6.6 0 0 0 -.02.18c0 .33.26.72.54.72h1.58c.12 0 .21.08.25.19h1.17l.03-.1c.15-.51-.18-1.03-.66-1.03h-1.62c-.15 0-.1-.14-.05-.3l.03-.1c.03-.12.13-.14.25-.14h2.6l.29-1zm2.09 3h-3.7l-.34 1h3.75z" fill="url(#b)"/><path d="m11.5 7-.28 1h-3.84l.27-1zm-4.19 1.33-.81 2.67h3.83l.28-1h-2.65l.17-.52h2.15l.28-.94h-2.11l.05-.2h-1.19z" fill="#f4981e"/><path d="m2.93 8 .28-1h3.13c.45 0 .77.47.63.92l-.23.72a.59.59 0 0 1 -.13.24h-.01a.14.14 0 0 0 -.03.15c.05.12.06.25.02.38l-.13.42c-.22.7-.93 1.17-1.61 1.17h-2.85l.82-2.67h1.26l-.08.2h1.23c.17 0 .33-.05.38-.23l.02-.06c.04-.12-.03-.24-.16-.24zm2.1 1.41c.14 0 .25.16.2.32a.37.37 0 0 1 -.35.27h-1.32l.18-.59h1.28z" fill="url(#c)" fill-rule="evenodd"/></svg>