<svg height="18" viewBox="0 0 18 18" width="18" xmlns="http://www.w3.org/2000/svg"><path d="m0 0h18v18h-18z" fill="#02abc8"/><path d="m4.13 5.4 4.8-1.9a.2.2 0 0 1 .14 0l4.8 1.9c.08.03.13.1.13.19v.9a.2.2 0 0 1 -.27.18l-4.66-1.8a.2.2 0 0 0 -.14 0l-4.66 1.8a.2.2 0 0 1 -.27-.19v-.9a.2.2 0 0 1 .13-.18zm3.04 1.6c-.1 0-.17.08-.17.17v6.64c0 .1.08.19.19.19h2.87a1.94 1.94 0 0 0 .7-3.75 1.8 1.8 0 0 0 -1.08-3.25zm2.25 1h-1.42v2h1.42a1 1 0 0 0 0-2zm.45 3h-1.87v2h1.87a1 1 0 1 0 0-2z" fill="#fff" fill-rule="evenodd"/></svg>