<svg height="18" viewBox="0 0 18 18" width="18" xmlns="http://www.w3.org/2000/svg"><path d="m0 0h18v18h-18z" fill="#f0f3fa"/><path d="m15 6.51c0 .09-.07.16-.15.16h-1.19v1.18c0 .08-.07.15-.15.15h-1.03a.15.15 0 0 1 -.15-.15v-1.18h-1.2a.12.12 0 0 1 -.13-.13v-1.09c0-.06.05-.12.12-.12h1.2v-1.2c0-.08.06-.13.13-.13h1.09c.07 0 .12.05.12.12v1.21h1.22c.07 0 .12.06.12.12z" fill="#00d4f4"/><path d="m10.16 9.76a2 2 0 0 1 1.34 1.97c0 1.36-.97 2.27-2.36 2.27h-3.54c-.4 0-.6-.2-.6-.63v-6.74c0-.44.2-.63.6-.63h3.17c1.36 0 2.32.87 2.32 2.1 0 .71-.3 1.34-.93 1.66zm-.16-1.57c0-.74-.56-1.19-1.4-1.19h-2.6v2.5h2.6c.83 0 1.4-.56 1.4-1.31zm-1.13 4.81c.95 0 1.59-.44 1.59-1.27 0-.84-.65-1.23-1.59-1.23h-2.87v2.5z"/></svg>