<svg height="18" width="18" xmlns="http://www.w3.org/2000/svg"><path d="m0 0h18v18h-18z" fill="#f0f3fa"/><path d="m4 13.2c.32-.27.7-.42 1.1-.42.74 0 .91.26 1.39.59.4.27.64.32 1.25.11-.25.24-.55.4-.87.48-.28.06-.56.04-.83-.07-.26-.12-.43-.35-.64-.53l-.16-.13a1 1 0 0 0 -.4-.13 1.96 1.96 0 0 0 -.41-.02 1 1 0 0 0 -.24.05l-.12.04a.2.2 0 0 0 -.07.03z" fill="#196fab"/><path d="m13.3 13.3a4.67 4.67 0 0 0 -1.4-.52 3.38 3.38 0 0 0 -1.98.27c-.2.1-.4.18-.61.25-.38.1-.67-.04-.97-.19a2.12 2.12 0 0 0 -.7-.3 1.96 1.96 0 0 0 -1.18.3l-.12.06c.33-.07.68-.17 1.02-.08.13.04.25.11.36.2.38.32.8.71 1.34.71.38 0 .75-.1 1.07-.3l.18-.1.15-.08a4 4 0 0 1 .59-.28l.14-.05c.17-.05.35-.09.53-.1a4.2 4.2 0 0 1 1.58.21zm-4.05-4.46 2.45-1.52-2.55 1.4-.02-.3.92-2.77-1.07 2.72-1.5-2.6 1.37 2.67-.02.23-2.76-1 2.7 1.13-2.43 1.01 2.48-.88-.16 3.02-.94.53.8-.1-.3.32.81-.11.8.11-.28-.31.8.1-.97-.55-.21-2.99 2.46.47z" fill="#8f806c"/><path d="m6.14 11 2.25-1.48-2.25.36 2.03-1.1-2.32-1.24 2.54.64-.97-2.59 1.56 2.18 1.26-2.3-.57 2.7 2.28-.93-2 1.55 2 .73-2.11-.17 2.29 1.14 1-.76-.6-1.05h-2.29l2.79-.8.27-1.48-1.4-.4-2.06 1.9 1.66-2.51-.75-1.39-1.42.54-.35 2.86-.8-2.79-1.5-.38-.54 1.5 2.03 2.16-2.32-1.49-1.36.65.54 1.35 2.84.39-2.47.36-.47 1.23 1.2.61z" fill="#69b354"/></svg>