<svg height="18" viewBox="0 0 18 18" width="18" xmlns="http://www.w3.org/2000/svg"><path d="m0 0h18v18h-18z" fill="#f0f3fa"/><g fill="#00acd2"><path d="m5.13 6h.02c.97 0 1.58.63 1.58 1.64 0 .52-.13.93-.35 1.24.38.32.62.82.62 1.48 0 1.14-.8 1.64-1.83 1.64h-2.17v-6zm0 1.1c.42 0 .54.1.54.54 0 .41-.13.6-.23.68a.5.5 0 0 1 -.3.13h-1.08v-1.35h1.06zm-1.06 3.8h1.06c.47 0 .8 0 .8-.54 0-.5-.3-.81-.8-.81h-1.06v1.36z" fill-rule="evenodd"/><path d="m14 6h1v6h-1zm-1.87 4a1.9 1.9 0 1 1 0-2l.84-.7a3 3 0 1 0 .53 1.7v-.01c0 .02 0 .06-.01.01h-3.8l.81 1z"/></g></svg>