<svg height="18" width="18" xmlns="http://www.w3.org/2000/svg" xmlns:xlink="http://www.w3.org/1999/xlink"><linearGradient id="a" gradientUnits="userSpaceOnUse" x1="3.35" x2="21.9" y1="3.12" y2="24.43"><stop offset="0" stop-color="#1a1e21"/><stop offset="1" stop-color="#06060a"/></linearGradient><path d="m0 0h18v18h-18z" fill="url(#a)"/><g fill-rule="evenodd"><path d="m8 12a3 3 0 1 0 0-6 3 3 0 0 0 0 6zm0 1a4 4 0 1 0 0-8 4 4 0 0 0 0 8z" fill="#a9a9ad"/><path d="m8 9.5a2.5 2.5 0 1 0 0-5 2.5 2.5 0 0 0 0 5zm0 .5a3 3 0 1 0 0-6 3 3 0 0 0 0 6z" fill="#a9a9ad"/><path d="m10 13a3 3 0 1 0 0-6 3 3 0 0 0 0 6zm0 1a4 4 0 1 0 0-8 4 4 0 0 0 0 8z" fill="#f05c21"/></g></svg>