<svg height="18" viewBox="0 0 18 18" width="18" xmlns="http://www.w3.org/2000/svg"><path d="m0 0h18v18h-18z" fill="#f0f3fa"/><path d="m4.06 9.92c-.02-.2-.06-.7-.06-1.1 0-.5.65-4.82 5.03-4.82a5.1 5.1 0 0 1 3.99 1.95c-.68 1.1-3.42 3.44-8.96 3.97zm.83.7c.35-.15 1.3-.46 2.28-.46l.57.02c1.66.1 5.18.29 5.99-2.86.09.3.27 1.09.27 1.79 0 .87-.06 2.65-2.46 2.65-1 0-1.7-.27-2.44-.56a7.7 7.7 0 0 0 -4.21-.58z" fill="#252758"/><path d="m7.29 11.78a7.7 7.7 0 0 0 -2.8-.8 5.1 5.1 0 0 0 4.57 3.02c1.57 0 2.68-.72 3.04-1.09-1.81.4-3.05-.34-4.82-1.13z" fill="#858585"/></svg>