<svg height="18" viewBox="0 0 18 18" width="18" xmlns="http://www.w3.org/2000/svg"><path d="m0 0h18v18h-18z" fill="#0b73ba"/><path d="m6 4a2 2 0 0 0 -2 2v1.77a2 2 0 0 1 2.05.03c.2.12.4.2.62.2h.33c.33 0 .64-.12.95-.24.19-.08.38-.15.57-.2a2 2 0 0 1 1.04.02c.64.1 1.14-.3 1.65-.73.31-.26.63-.53 1-.69a2 2 0 0 1 1.79.1v-.26a2 2 0 0 0 -2-2zm8 5.73a2 2 0 0 1 -1.16.26l-.29-.02c-.43-.05-.85-.1-1.23.1-.29.14-.51.4-.73.65l-.08.1a2 2 0 0 1 -2.61.35l-.04-.02c-.26-.18-.53-.36-.85-.36-.33 0-.62.2-.9.37l-.03.02a2 2 0 0 1 -2.08.05v.77c0 1.1.9 2 2 2h6a2 2 0 0 0 2-2zm-8.5-.23a.5.5 0 1 1 -1 0 .5.5 0 0 1 1 0zm4 0a.5.5 0 1 1 -1 0 .5.5 0 0 1 1 0zm4-1.5a.5.5 0 1 1 -1 0 .5.5 0 0 1 1 0z" fill="#fffffb"/></svg>