<svg height="18" viewBox="0 0 18 18" width="18" xmlns="http://www.w3.org/2000/svg" xmlns:xlink="http://www.w3.org/1999/xlink"><linearGradient id="a" gradientUnits="userSpaceOnUse" x1="7.51" x2="10.13" y1="6.19" y2="3.92"><stop offset="0" stop-color="#76757e"/><stop offset=".56" stop-color="#9b9ca0"/><stop offset="1" stop-color="#c6c7c9"/></linearGradient><linearGradient id="b" gradientUnits="userSpaceOnUse" x1="8.79" x2="12.09" y1="9" y2="10.75"><stop offset="0" stop-color="#c7c7cf"/><stop offset=".56" stop-color="#919296"/><stop offset="1" stop-color="#72727c"/></linearGradient><linearGradient id="c" gradientUnits="userSpaceOnUse" x1="6.18" x2="13.01" y1="7.97" y2="4.89"><stop offset="0" stop-color="#006190"/><stop offset=".56" stop-color="#0189c7"/><stop offset="1" stop-color="#0285bd"/></linearGradient><linearGradient id="d" gradientUnits="userSpaceOnUse" x1="9.67" x2="4.85" y1="6.76" y2="12.33"><stop offset="0" stop-color="#bfd630"/><stop offset="1" stop-color="#869a1f"/></linearGradient><linearGradient id="e" gradientUnits="userSpaceOnUse" x1="7.92" x2="12.6" y1="9.86" y2="13.01"><stop offset="0" stop-color="#027a93"/><stop offset=".35" stop-color="#83c45b"/><stop offset="1" stop-color="#bfd630"/></linearGradient><path d="m0 0h18v18h-18z" fill="#f0f3fa"/><path d="m9.94 5.56c-1.4 0-2.3 1.19-2.53 1.88-.14-1.4.61-2.66 2.53-2.66 1.53 0 1.84 1.26 1.78 1.72 0-.34-.39-.94-1.78-.94z" fill="url(#a)"/><path d="m9.84 8.38h-.52a.83.83 0 0 1 1.22-.41c.73.4 2.87 2.8 1.48 4-1.12.96-3.1-1.14-3.86-2.34l.14-.32c.35.52 1.33 1.69 1.89 2.1.7.52 1.23.52 1.23-.7 0-.96-1.06-1.99-1.58-2.33z" fill="url(#b)"/><path d="m6.7 11.76c-.28 0-.35-.12-.35-.17-.05.28-.08.83.62.7.87-.18 2.87-1.05 3.57-1.57.7-.51 2.96-1.9 2.96-4.3 0-1.95-1.63-2.42-3.31-2.42-3.49 0-4.36 3.28-4.19 4.83l1.4-1.38s.01.02.01-.32c0-.52.38-2.36 2.82-2.2 2.44.18 1.18 3.73-.04 4.93a7.77 7.77 0 0 1 -3.49 1.9z" fill="url(#c)"/><path d="m6.7 12.28c-.28 0-.33-.35-.33-.47-.11.17-.3.63.16.64.42 0 1.34-.23 1.74-.35l-.17-.17c-.35.12-1.12.35-1.4.35z" fill="#74747e"/><path d="m5.93 12.44h.74c-.52 0-.49-.34-.31-.5.17-.18 2.96-3.97 3.83-3.97.52 0 .49.1.94.51.14-.3.17-.42.17-.42-.58-.57-1.7-1.56-2.25-1.56-.7 0-1.13.26-1.48.6-.27.28-2.43 2-3.35 3.8-.16.3-.22.56-.22.76 0 .68.87.78 1.4.78z" fill="url(#d)"/><path d="m11.93 11.93c-.95.82-2.75-1.05-3.64-2.34-.3.2-.95 1.02-1.24 1.48 1.4 2.07 3.05 2.93 3.78 2.93.52 0 1.8-.34 1.8-1.72 0-1.1-.3-2.39-.47-2.9l-.19.18c.52 1.55.28 2.1-.04 2.37z" fill="url(#e)"/></svg>