<svg height="18" viewBox="0 0 18 18" width="18" xmlns="http://www.w3.org/2000/svg"><path d="m0 0h18v18h-18z" fill="#f0f3fa"/><g fill="#133596"><path d="m6.78 8h-3.78v4h3.94c.59 0 1.06-.51 1.06-1.15 0-.45-.24-.83-.58-1.02a1.03 1.03 0 0 0 -.64-1.83zm-2.3.8v.8h1.53c.18 0 .32-.18.32-.4s-.14-.4-.32-.4h-1.51zm0 1.6v.8h1.87a.4.4 0 0 0 .39-.4.4.4 0 0 0 -.4-.4h-1.84z" fill-rule="evenodd"/><path d="m8.5 8.18v3.82h1.5v-3.63c1.33-.24 1.41-1.5 1.39-2.11 0-2.16-2.24-2.26-2.45-2.26-.2 0-1.45.01-2.27.99-.8.97-1.33 1.08-1.57 1.08-.23 0-.75-.15-.75-.63s.47-.85.9-.85c.34 0 .68.13.81.2-.2-.63-.73-.64-1.02-.64-.28 0-1.45.14-1.45 1.2 0 .83.82 1.02 1.23 1-.6.4-.73.94-.8 1.36a.8.8 0 0 1 -.43.6h.61c1.6-.12 2.04-.99 2.07-1.4.07.12.29.38.57.38.35 0 .6-.45.6-.77 0-.25-.12-.47-.17-.55.01.25-.04.76-.36.76-.31 0-.41-.38-.42-.57 0-1.15 1.39-1.57 2.06-1.57.66 0 2.1.3 2.1 1.82s-1.45 1.86-1.78 1.86c-.27 0-.27-.06-.37-.09z"/><path d="m10.5 12v-4h1.5v.75c.34-.37.88-.75 1.57-.75 1.29 0 1.43 1.2 1.43 1.42v2.58h-1.5v-1.91c0-.5-.26-.91-.73-.91a.85.85 0 0 0 -.77.51v2.31z"/></g><path d="m9 8a1.5 1.5 0 1 0 0-3 1.5 1.5 0 0 0 0 3zm-1.16-1.44c.03.37.3 1.09 1.16 1.09.85 0 1.11-.72 1.14-1.09-.1.3-.46.9-1.14.9s-1.06-.6-1.16-.9z" fill="#ed0a28" fill-rule="evenodd"/></svg>