<svg fill="none" height="18" width="18" xmlns="http://www.w3.org/2000/svg" xmlns:xlink="http://www.w3.org/1999/xlink"><linearGradient id="a" gradientUnits="userSpaceOnUse" x1="9.103" x2="9.103" y1="4" y2="14"><stop offset="0" stop-color="#064f98"/><stop offset="1" stop-color="#020407"/></linearGradient><linearGradient id="b" gradientUnits="userSpaceOnUse" x1="3.993" x2="19.188" y1="5.282" y2="10.941"><stop offset="0" stop-color="#05529f"/><stop offset="1" stop-color="#06529e"/></linearGradient><path d="m0 0h18v18h-18z" fill="#f0f3fa"/><path clip-rule="evenodd" d="m7.575 4.257a.167.167 0 0 1 .14-.257h2.723c.132 0 .212.146.14.257l-.486.59a.333.333 0 0 1 -.28.153h-1.47a.333.333 0 0 1 -.28-.153zm3.486-.25c0 .965-.845 1.44-1.539 1.792-.16.081-.326.164-.495.247-.688.341-1.417.703-1.91 1.081-.612.471-1.046 1.373-.955 2.189.093.841.607 1.363 1.297 1.81.382.249.881.515 1.4.792h.001c.401.214.816.435 1.198.66.638.374 1.03.776 1.117 1.422h.89c0-1.606-1.882-2.5-2.987-2.992-.57-.253-2.174-1.068-1.687-2.587-.023-.136.122-.452.74-.847.397-.252.841-.49 1.289-.727.5-.266 1.003-.534 1.447-.83.737-.488 1.156-1.024 1.209-2.01h-1.016zm-.261 4.243c.35.46.421 1.192-.103 1.68l-.126.147 1.06.294.069-.098c.338-.545.508-1.208.308-1.84-.275-.865-1.085-1.464-1.516-1.68-.309.123-.741.393-.89.491.42.238.893.605 1.198 1.006zm-3.085.75a.167.167 0 0 1 -.14-.257l.487-.587a.333.333 0 0 1 .28-.153h1.47c.113 0 .218.058.28.153l.486.587a.167.167 0 0 1 -.14.257zm-.14 4.743a.167.167 0 0 0 .14.257h2.723a.167.167 0 0 0 .14-.257l-.486-.59a.333.333 0 0 0 -.28-.153h-1.47a.333.333 0 0 0 -.28.153zm.13-7.443c-1.307-.675-1.592-1.732-1.592-2.281h1.054c.103.988.984 1.512 1.523 1.756l-.344.185c-.242.13-.488.263-.641.34zm-.18 5.599c-1.055.528-1.365 1.614-1.388 2.101h1.043c.185-1.089.861-1.44 1.417-1.727l.07-.036a4.118 4.118 0 0 1 -.524-.284.693.693 0 0 0 -.367-.111.56.56 0 0 0 -.252.056z" fill="url(#a)" fill-rule="evenodd"/><path d="m4.016 4.853c2.128 3.682 6.223 5.355 9.984 6.13v.831c-7.088-.55-10.256-3.314-9.984-6.961z" fill="url(#b)"/></svg>