<svg height="18" viewBox="0 0 18 18" width="18" xmlns="http://www.w3.org/2000/svg"><path d="m0 0h18v18h-18z" fill="#f0f3fa"/><path d="m6.74 6h-2.74v6h2.15c.9-.05 2.27-.46 2.28-1.8 0-1.08-1.07-1.43-1.61-1.47.45-.1 1.37-.52 1.38-1.49.02-.96-.97-1.23-1.46-1.24zm-.7.34h-1.04v2.26h.6c.88 0 1.64-.38 1.63-1.29 0-.72-.8-.97-1.19-.97zm-1.04 2.66h1.14c.43 0 1.3.3 1.3 1.14.02 1.05-.82 1.5-1.78 1.5h-.66z" fill="#262324" fill-rule="evenodd"/><path d="m13.84 11.39c-.48.38-1.11.61-1.85.61-1.63 0-2.99-1.24-2.99-3 0-1.8 1.36-3 3-3 .65 0 1.43.1 2 .42l-.26.81c-.4-.43-.94-.7-1.54-.7-1.2 0-2.25.97-2.2 2.47 0 1.59.99 2.47 2.2 2.47.77-.03 1.29-.25 1.63-.6z" fill="#c92127"/></svg>