<svg height="18" width="18" xmlns="http://www.w3.org/2000/svg" xmlns:xlink="http://www.w3.org/1999/xlink"><linearGradient id="a" gradientUnits="userSpaceOnUse" x1="10.11" x2="8.9" y1="2.61" y2="7.06"><stop offset=".3" stop-color="#7e92a9"/><stop offset="1" stop-color="#fdfefe"/></linearGradient><linearGradient id="b" gradientUnits="userSpaceOnUse" x1="14.62" x2="10.71" y1="9.33" y2="9.3"><stop offset="0" stop-color="#002654"/><stop offset=".3" stop-color="#7e92a9"/><stop offset="1" stop-color="#fdfefe"/></linearGradient><linearGradient id="c"><stop offset="0" stop-color="#002654"/><stop offset="1" stop-color="#fff"/></linearGradient><linearGradient id="d" gradientUnits="userSpaceOnUse" x1="3.19" x2="6.62" xlink:href="#c" y1="4.94" y2="7.96"/><linearGradient id="e" gradientUnits="userSpaceOnUse" x1="10.6" x2="8.55" xlink:href="#c" y1="15.65" y2="11.47"/><path d="m0 0h18v18h-18z" fill="#04224a"/><path d="m9.94 6.98c1.03-.3 2.52-1.5 4.16-3.32l-.65.62a6.25 6.25 0 0 1 -3.64 1.83c-1.35.29-2.86-1.07-3.68-2.76h-.01c.74 2.36 1.78 4.22 3.82 3.63z" fill="url(#a)"/><path d="m10.88 8.15c.5-.99 1.93-2.26 3.99-3.54l-.72.53c-1.54 1.19-1.76 1.81-2.48 3.21-.75 1.45.38 3.28 1.77 4.48v.01c-2.04-1.26-3.55-2.73-2.56-4.7z" fill="url(#b)"/><path d="m5.42 8.77c1.69-.48 1.49-1.96 1.05-3.29-.11-.41-.7-.95-.92-1.3.14.27.27.55.34.83.38 1.63.44 2.77-1.2 3.32a4.1 4.1 0 0 1 -1.84 0c.8.33 1.97.62 2.57.44z" fill="url(#d)"/><path d="m7.7 12.38c1.09-1.83 2.5-1.31 3.76-.14.38.26.78.97 1.06 1.36-.22-.25-.47-.5-.73-.68-1.55-.99-2.7-1.44-3.84.31a5.73 5.73 0 0 0 -.64 2.19c-.06-1.07 0-2.38.4-3.04z" fill="url(#e)"/><circle cx="8.31" cy="9.36" fill="#fff" r="1"/></svg>