<svg height="18" width="18" xmlns="http://www.w3.org/2000/svg" xmlns:xlink="http://www.w3.org/1999/xlink"><linearGradient id="a" gradientUnits="userSpaceOnUse" x1="3.349" x2="21.904" y1="3.122" y2="24.434"><stop offset="0" stop-color="#1a1e21"/><stop offset="1" stop-color="#06060a"/></linearGradient><linearGradient id="b" gradientUnits="userSpaceOnUse" x1="11.38" x2="7.28" y1="13.997" y2="10.657"><stop offset="0" stop-color="#c4ca80"/><stop offset=".505" stop-color="#dbe08c"/></linearGradient><linearGradient id="c" gradientUnits="userSpaceOnUse" x1="14.078" x2="10.902" y1="10.667" y2="8.08"><stop offset="0" stop-color="#9fbc6e"/><stop offset=".403" stop-color="#afce79"/></linearGradient><linearGradient id="d" gradientUnits="userSpaceOnUse" x1="12.394" x2="7.887" y1="7.82" y2="4.148"><stop offset="0" stop-color="#9ec381"/><stop offset=".161" stop-color="#84b16b"/><stop offset=".321" stop-color="#71a45a"/><stop offset=".432" stop-color="#6a9f54"/></linearGradient><mask id="e" height="10" maskUnits="userSpaceOnUse" width="10" x="4" y="4"><ellipse cx="9.05" cy="9" fill="#c4c4c4" rx="4.95" ry="5"/></mask><path d="m0 0h18v18h-18z" fill="url(#a)"/><g mask="url(#e)"><path d="m9.838 10.19c-.114.118-.229.197-.229.197-1.53 1.142-3.859 2.064-3.859 2.064l-.306.08c.88.905 2.268 2.025 3.606 2.025 1.147 0 2.459-.403 3.3-1.112.076-.078.283-.914.397-.993.039-.039.077-.078.153-.118.077-.079.115-.157.191-.197.039-.078.115-.118.153-.196.038-.04.038-.08.077-.118-.88.236-2.298-.569-3.483-1.632z" fill="url(#b)"/><path d="m13.656 7.053c0-.04-.038-.078-.038-.118-.077-.157-.153-.354-.23-.512 0 0 0-.039-.038-.039-1.212 1.142-1.55 1.505-2.905 2.222.076.276-.219.552-.295.866-.115.394-.126.827-.355 1.024 1.185 1.063 3.035 1.597 3.914 1.282.038-.04.038-.079.077-.118.038-.04.038-.08.076-.119.038-.078.115-.157.153-.236a.302.302 0 0 0 .076-.157l.115-.236a.675.675 0 0 0 .076-.197c.039-.079.039-.118.077-.197a.827.827 0 0 0 .035-.083c.348-.967-.502-2.41-.738-3.382z" fill="url(#c)"/><path d="m7.4 4c.192.315.905.748.905.748s1.337 1.575 1.987 3.425v.04c.039.078.077.236.115.472 1.376-.551 2.66-1.636 3.043-2.463 0-1.266-2.157-2.059-3.85-2.222-.756-.073-1.754-.125-2.2 0z" fill="url(#d)"/><path d="m7.753 4.04c-.423 0-1.836.552-2.17.8-1.22.903-1.253 2.36-1.253 4.16 0 .376.88 2.246.082 2.65.018.028.32.68.34.702.49.505.355-.2.591.288.23-.079.707-.215.707-.215 1.36-.384 3.896-1.289 4.358-2.874.758-1.82-1.427-4.248-2.654-5.511z" fill="#43698b"/></g><path d="m6.049 4.197s-2.217 1.023-2.867 3.307c-.65 2.283.65 4.37.65 4.37s1.95-.551 3.478-1.732c0 0 .688-.512.88-1.103.19-.63-.153-1.417-.153-1.417-.65-1.85-1.988-3.425-1.988-3.425z" fill="#bed6ea"/></svg>