<svg height="18" viewBox="0 0 18 18" width="18" xmlns="http://www.w3.org/2000/svg"><path d="m0 0h18v18h-18z" fill="#f0f3fa"/><ellipse cx="5.51" cy="4.34" fill="#edba2b" rx=".46" ry=".3"/><ellipse fill="#e99236" rx=".57" ry=".32" transform="matrix(.8499 .52694 -.48571 .87412 11.2 4.37)"/><ellipse fill="#f3903d" rx=".58" ry=".36" transform="matrix(.60668 .79495 -.76136 .64833 13.6 6.9)"/><ellipse cx="6.89" cy="4.8" fill="#f8923c" rx=".48" ry=".31"/><ellipse fill="#f78638" rx=".48" ry=".31" transform="matrix(.96861 .24857 -.22414 .97456 9.79 4.23)"/><ellipse fill="#e8aa2f" rx=".72" ry=".5" transform="matrix(.95354 -.30126 .27244 .96217 5.11 5.66)"/><ellipse fill="#e39d3b" rx=".78" ry=".7" transform="matrix(.84126 -.54063 .4991 .86655 4.72 9.47)"/><ellipse fill="#eb853a" rx=".64" ry=".45" transform="matrix(.95354 -.30126 .27244 .96217 5.28 7.28)"/><ellipse fill="#f19250" rx=".64" ry=".6" transform="matrix(.95354 -.30126 .27244 .96217 6.5 10.78)"/><ellipse fill="#f1aa39" rx=".64" ry=".6" transform="matrix(.9878 .15572 -.1399 .99017 5.78 12.53)"/><ellipse cx="9.89" cy="12.58" fill="#d28743" rx=".51" ry=".57"/><ellipse cx="10.62" cy="14.13" fill="#f0a32f" rx=".45" ry=".57"/><ellipse cx="12.03" cy="12.85" fill="#ec9f2b" rx=".55" ry=".71"/><ellipse fill="#f37930" rx=".37" ry=".56" transform="matrix(.99126 -.1319 .11841 .99296 12.7 11.23)"/><ellipse fill="#eeb11a" rx=".34" ry=".52" transform="matrix(.99126 -.1319 .11841 .99296 13.98 12)"/><ellipse fill="#f2a638" rx=".45" ry=".7" transform="matrix(.99126 -.1319 .11841 .99296 14.08 10.26)"/><ellipse fill="#f1ae2e" rx=".79" ry=".77" transform="matrix(.9878 .15572 -.1399 .99017 7.94 12.89)"/><ellipse fill="#f8a430" rx=".57" ry=".4" transform="matrix(.89993 -.43603 .3983 .91725 3.67 7.9)"/><ellipse fill="#e6942b" rx=".64" ry=".45" transform="matrix(.9656 .26002 -.2346 .9721 7.88 3.88)"/><ellipse fill="#f4a335" rx=".4" ry=".26" transform="matrix(.98279 .18474 -.16612 .9861 9.06 3.4)"/><ellipse fill="#d38731" rx=".47" ry=".26" transform="matrix(.6916 .72228 -.68335 .7301 12.41 5.75)"/><ellipse fill="#f6882f" rx=".48" ry=".25" transform="matrix(.41098 .91164 -.89335 .44937 13.65 8.47)"/><ellipse fill="#faa12e" rx=".4" ry=".21" transform="matrix(.41098 .91164 -.89335 .44937 14.46 8.27)"/><ellipse fill="#e5a442" rx=".41" ry=".23" transform="matrix(.6916 .72228 -.68335 .7301 12.57 4.97)"/></svg>