<svg height="18" width="18" xmlns="http://www.w3.org/2000/svg"><path d="m0 0h18v18h-18z" fill="#2b5079"/><g fill="#0197d4"><path d="m8.983 11c-.915-.01-1.65.518-1.902.784-.147.154-.06.324 0 .393.188.216.596.669.721.755.126.085.31.093.433 0 .107-.1.407-.318.748-.332.426-.017.737.22.86.332.098.089.301.093.388 0 .186-.2.585-.631.694-.755.108-.123.092-.304 0-.393-.266-.257-1.027-.774-1.942-.784zm.043-5.999c-2.946-.058-5.19 1.795-5.946 2.729a.302.302 0 0 0 0 .41c.171.195.553.62.71.763.155.142.298.115.427 0 .604-.732 2.411-2.297 4.808-2.305 2.995-.01 4.639 2.206 4.844 2.35.165.116.33.003.408-.045a15.8 15.8 0 0 0 .656-.763c.12-.161.05-.34 0-.41-.742-.885-2.963-2.67-5.908-2.729z"/><path d="m9.017 8c-1.963-.038-3.46 1.191-3.963 1.81a.2.2 0 0 0 0 .273c.114.129.74.757.844.852.104.094.22.077.285 0 .403-.486 1.237-1.43 2.834-1.435 1.997-.007 2.714 1.362 2.851 1.458.11.076.24.032.293 0 .113-.124.716-.768.795-.875.08-.107.033-.226 0-.273-.495-.587-1.975-1.77-3.939-1.81z"/></g></svg>