<svg height="18" viewBox="0 0 18 18" width="18" xmlns="http://www.w3.org/2000/svg"><path d="m0 0h18v18h-18z" fill="#f0f3fa"/><path d="m13.35 5h-7.55c-.3 1.1.53 1.56.98 1.66l-.25 1.06c-.29 1.27-.67 2.9-.87 3.57a2.05 2.05 0 0 0 -1.66 1.71h6.93c1.21 0 2.05-1.49 2.05-2.63 0-.76-.73-1.1-1.2-1.31-.25-.11-.43-.2-.43-.29 0-.2.13-.23.48-.32.16-.05.37-.1.64-.2a2.18 2.18 0 0 0 1.53-2.05c0-.82-.43-1.14-.65-1.2zm-5.85 2c0-.33.59-.51.92-.51h3.48c.33 0 .6.18.6.51s-.72.49-1.05.49h-3.48c-.33 0-.47-.16-.47-.49zm.36 3c-.3 0-.86.14-.86.5s.25.5.56.5h3.58c.3 0 .86-.14.86-.5s-.25-.5-.56-.5z" fill="#0061a2" fill-rule="evenodd"/></svg>