<svg height="18" viewBox="0 0 18 18" width="18" xmlns="http://www.w3.org/2000/svg" xmlns:xlink="http://www.w3.org/1999/xlink"><linearGradient id="a" gradientUnits="userSpaceOnUse" x1="7" x2="13.59" y1="6.41" y2="11.7"><stop offset="0" stop-color="#bf6c1c"/><stop offset=".68" stop-color="#d79d77"/></linearGradient><linearGradient id="b" gradientUnits="userSpaceOnUse" x1="7" x2="13.59" y1="6.41" y2="11.7"><stop offset="0" stop-color="#bf6c1c"/><stop offset=".68" stop-color="#d79d77"/><stop offset="1" stop-color="#bd5e1e"/></linearGradient><linearGradient id="c" gradientUnits="userSpaceOnUse" x1="4.3" x2="12.07" y1="10.32" y2="9.94"><stop offset="0" stop-color="#951f59"/><stop offset=".46" stop-color="#b88ca3"/><stop offset="1" stop-color="#87084d"/></linearGradient><linearGradient id="d" gradientUnits="userSpaceOnUse" x1="4.3" x2="12.07" y1="10.32" y2="9.94"><stop offset=".46" stop-color="#b88ca3"/><stop offset="1" stop-color="#87084d"/></linearGradient><linearGradient id="e" gradientUnits="userSpaceOnUse" x1="11.2" x2="5.7" y1="4.69" y2="11.02"><stop offset="0" stop-color="#58227a"/><stop offset=".47" stop-color="#a790ba"/><stop offset="1" stop-color="#56297b"/></linearGradient><linearGradient id="f" gradientUnits="userSpaceOnUse" x1="11.2" x2="5.7" y1="4.69" y2="11.02"><stop offset=".47" stop-color="#a790ba"/><stop offset="1" stop-color="#56297b"/></linearGradient><path d="m0 0h18v18h-18z" fill="#f0f3fa"/><path d="m10.6 5.2a1.07 1.07 0 0 0 -1.05-.68c-.66 0-1.48.34-2.1 1.2.2 0 .62.02 1.13.14.3-.7.58-.98.97-1 .72-.03.75.17 1.05.35z" fill="url(#a)"/><path d="m8.06 8.2a5.16 5.16 0 0 0 -1.34-.02c-.13 3.08.82 5.68 3.88 5.82.8-.06 2.4-.66 2.4-2.59s-.4-2.64-.6-2.75a5 5 0 0 1 0 2.75c-.45 1.21-1.35 1.21-1.8 1.21s-2.52-.17-2.54-4.43z" fill="url(#b)"/><path d="m10.75 7.28c-1.38-1.33-3.06-1.21-3.46-1.21-.6 0-3.29.35-3.29 3.53 0 2.12 2.19 3.07 3.29 3-.9-.35-2.54-1.4-2.4-3 .15-1.57 1.51-1.82 2.4-1.82 1.21 0 2.04.22 2.77.83.32-.44.54-.9.69-1.34z" fill="url(#c)"/><path d="m11.5 10.32c.25-.37.46-.76.63-1.15.47 1.03.27 2.59-.78 3.1.62-.54.58-1.26.15-1.95z" fill="url(#d)"/><path d="m7.45 5.38c.35-.46 1.32-1.38 2.4-1.38 1.35 0 2.55 1.03 2.55 2.93 0 1.52-1 3.9-3 4.83-.3-.33-.6-.8-.82-1.47.54-.3.97-.64 1.57-1.46 1.5-2.07 1.05-4.49-.3-4.49-1.08 0-2.05.7-2.4 1.04z" fill="url(#e)"/><path d="m6.76 10.88-.36.02c-.6 0-1.1-.58-1.2-.87.14 1.17 1.2 2.17 2.1 2.25-.25-.43-.42-.91-.54-1.4z" fill="url(#f)"/></svg>