<svg fill="none" height="18" width="18" xmlns="http://www.w3.org/2000/svg"><path d="m0 0h18v18h-18z" fill="#f0f3fa"/><g clip-rule="evenodd" fill="#000" fill-rule="evenodd"><path d="m9.854 8.939.094.014c.072.01.143.02.213.035.291.057.55.175.71.454a1.036 1.036 0 0 1 .088.797.996.996 0 0 1 -.505.607 1.572 1.572 0 0 1 -.695.153h-2.759v-.12c.136-.019.291-.095.34-.226.037-.095.03-.2.03-.302 0-.907 0-1.814-.002-2.721a2.084 2.084 0 0 0 -.019-.255c-.015-.165-.208-.225-.349-.249v-.124h.559s1.941-.002 2.22.002c.16.005.338.035.49.09.624.219.739 1.05.271 1.463a2.705 2.705 0 0 1 -.686.382zm-.004-.001h.004l-.003.002.003.005zm-1.307.004.2-.018c.143-.013.282-.025.42-.047.532-.088.834-.4.825-.912-.008-.405-.232-.678-.586-.76a3.58 3.58 0 0 0 -1.046-.029c-.095.004-.15.107-.147.193a1.14 1.14 0 0 0 -.005.117v2.691c-.018.205.175.409.367.459.333.11.765.125 1.095.002a.836.836 0 0 0 .49-.799c-.02-.397-.205-.538-.56-.635a4.535 4.535 0 0 0 -.612-.105c-.1-.013-.201-.017-.303-.02a7.427 7.427 0 0 1 -.137-.006z"/><path d="m9 3.849-5.151 5.151 5.151 5.152 5.152-5.152zm-6 5.151 6 6 6-6-6-6z"/></g></svg>