<svg height="18" viewBox="0 0 18 18" width="18" xmlns="http://www.w3.org/2000/svg"><path d="m0 0h18v18h-18z" fill="#f0f3fa"/><path d="m11.74 10.43-2.74 4.57-2.79-4.64h.92c.31 0 1.5-.02 1.5-1.15 0-.91-.9-1.23-1.34-1.28.39-.02 1.15-.28 1.15-1.13 0-.84-.67-1.07-1-1.09h-1.83v.2h.39v4.09l-3-5h12l-2.64 4.4c-.1-.5-.73-.89-1.12-1.05-.14-.05-.37-.23-.37-.5 0-.26.25-.34.38-.35.47 0 .7.45.75.71l.19.08v-.97h-.19c0 .17-.1.22-.14.23a1.24 1.24 0 0 0 -.6-.23c-.1 0-.76.03-.76.97 0 .55.48.84.88 1.08.28.17.51.32.51.51 0 .37-.34.47-.52.47-.55 0-.7-.73-.7-1.06h-.17v1.24h.13c0-.17.11-.2.17-.2.23.13.6.25.94.1zm-1.62-5.07h-1.5v.18h.38v5.86c0 .77-.3.8-.45.8a.14.14 0 0 1 -.15-.14c.18 0 .22-.17.22-.27 0-.14-.04-.36-.34-.36s-.39.3-.4.44c0 .58.5.63.75.63.98 0 1.15-1.22 1.12-1.83v-5.13h.38v-.18zm-3.37 2.5v-1.97c.62 0 .76.35.75.52v.78c0 .54-.5.67-.75.67zm0 2.32v-2.14c.78 0 .95.37.94.56v.86c0 .58-.63.72-.94.72zm3.75-3.04v-1.07h.75z" fill="#bd3326" fill-rule="evenodd"/></svg>