<svg height="18" viewBox="0 0 18 18" width="18" xmlns="http://www.w3.org/2000/svg"><path d="m0 0h18v18h-18z" fill="#262c66"/><path d="m10.68 8.02.62-.27c1.3-.82.71-2.75-1.03-2.75h-4.27v-1h4.09c1.59 0 2.87 1.13 2.9 2.46.03.81-.4 1.58-1.2 2.09l-.15.1zm.39.98.72.45c1.04.66 1.45 1.76 1.06 2.81-.4 1.06-1.48 1.74-2.77 1.74h-4.08v-1h4.36c1.56 0 2.18-1.89 1.11-2.56l-4.47-2.82v2.82l1.33-.94.96.62-2.17 1.36a.8.8 0 0 1 -.73.05.6.6 0 0 1 -.39-.53v-3.98a.6.6 0 0 1 .39-.55.8.8 0 0 1 .73.05l2.75 1.73z" fill="#fff"/></svg>