<svg height="18" viewBox="0 0 18 18" width="18" xmlns="http://www.w3.org/2000/svg" xmlns:xlink="http://www.w3.org/1999/xlink"><linearGradient id="a" gradientUnits="userSpaceOnUse" x1="3.35" x2="21.9" y1="3.12" y2="24.43"><stop offset="0" stop-color="#1a1e21"/><stop offset="1" stop-color="#06060a"/></linearGradient><linearGradient id="b" gradientUnits="userSpaceOnUse" x1="8.52" x2="9.4" y1="3.69" y2="6.82"><stop offset=".29" stop-color="#c7ad95"/><stop offset=".43" stop-color="#dbd3b5"/><stop offset=".55" stop-color="#d6c7d7"/><stop offset=".68" stop-color="#8cd7d0"/><stop offset=".87" stop-color="#c7ad95"/></linearGradient><linearGradient id="c" gradientUnits="userSpaceOnUse" x1="6.61" x2="9.3" y1="3.65" y2="4.97"><stop offset=".39" stop-color="#eefefd"/><stop offset=".72" stop-color="#e0f6e6"/><stop offset="1" stop-color="#d8c6a4" stop-opacity="0"/></linearGradient><linearGradient id="d" gradientUnits="userSpaceOnUse" x1="9.23" x2="6.03" y1="8.06" y2="14.11"><stop offset=".22" stop-color="#f9462d"/><stop offset=".43" stop-color="#c7a387"/><stop offset=".57" stop-color="#4cbaa9"/><stop offset=".72" stop-color="#4cbaa9"/><stop offset=".99" stop-color="#f9462d"/></linearGradient><linearGradient id="e" gradientUnits="userSpaceOnUse" x1="6.49" x2="7.91" y1="12.38" y2="8.41"><stop offset=".14" stop-color="#c7a387" stop-opacity="0"/><stop offset=".55" stop-color="#c4a68b"/><stop offset="1" stop-color="#f9462d" stop-opacity="0"/></linearGradient><linearGradient id="f" gradientUnits="userSpaceOnUse" x1="4" x2="10.12" y1="6.07" y2="11.09"><stop offset=".12" stop-color="#f9462d"/><stop offset=".17" stop-color="#ff9db0"/><stop offset=".23" stop-color="#ffb2aa"/><stop offset=".29" stop-color="#f9462d" stop-opacity="0"/></linearGradient><linearGradient id="g" gradientUnits="userSpaceOnUse" x1="13.48" x2="9.85" y1="5.4" y2="11.88"><stop offset="0" stop-color="#fffdff"/><stop offset=".27" stop-color="#36d5ec"/></linearGradient><linearGradient id="h" gradientUnits="userSpaceOnUse" x1="8.59" x2="12.68" y1="6.34" y2="5.32"><stop offset=".07" stop-color="#fff" stop-opacity="0"/><stop offset=".25" stop-color="#f77572"/><stop offset=".51" stop-color="#d75086"/><stop offset="1" stop-color="#fff" stop-opacity="0"/></linearGradient><linearGradient id="i" gradientUnits="userSpaceOnUse" x1="13.55" x2="11.65" y1="8.39" y2="5.92"><stop offset=".33" stop-color="#28adbe"/><stop offset="1" stop-color="#fff" stop-opacity="0"/></linearGradient><linearGradient id="j" gradientUnits="userSpaceOnUse" x1="13.73" x2="12.45" y1="6.99" y2="8.27"><stop offset="0" stop-color="#fff"/><stop offset="1" stop-color="#fff" stop-opacity="0"/></linearGradient><linearGradient id="k" gradientUnits="userSpaceOnUse" x1="10.59" x2="12.51" y1="10.36" y2="7.94"><stop offset=".33" stop-color="#5a6052"/><stop offset="1" stop-opacity="0"/></linearGradient><linearGradient id="l" gradientUnits="userSpaceOnUse" x1="5.12" x2="11.29" y1="6.02" y2="5.2"><stop offset="0" stop-color="#f7e4c6"/><stop offset="1" stop-color="#fffefc"/></linearGradient><linearGradient id="m" gradientUnits="userSpaceOnUse" x1="10.65" x2="9.54" y1="12.11" y2="9.73"><stop offset="0" stop-color="#eb0031"/><stop offset=".23" stop-color="#c24131"/><stop offset=".51" stop-color="#ba5d2f"/><stop offset=".78" stop-color="#bebba9"/><stop offset="1" stop-color="#e7a9dd"/></linearGradient><linearGradient id="n" gradientUnits="userSpaceOnUse" x1="4.61" x2="6.23" y1="7.26" y2="8.91"><stop offset=".11" stop-color="#ffbfc2"/><stop offset=".26" stop-color="#ffb99b"/><stop offset=".39" stop-color="#f95d4a"/></linearGradient><linearGradient id="o" gradientUnits="userSpaceOnUse" x1="10.15" x2="9.9" y1="9.98" y2="10.2"><stop offset="0" stop-color="#bb6539"/><stop offset=".4" stop-color="#bb5b30"/><stop offset=".97" stop-color="#bb5d30" stop-opacity="0"/></linearGradient><linearGradient id="p" gradientUnits="userSpaceOnUse" x1="10.77" x2="4.53" y1="10.18" y2="14.25"><stop offset=".34" stop-color="#fa462e"/><stop offset=".57" stop-color="#abbda1"/><stop offset=".74" stop-color="#f3af8c"/></linearGradient><linearGradient id="q" gradientUnits="userSpaceOnUse" x1="4.64" x2="5.57" y1="11.79" y2="12.66"><stop offset=".41" stop-color="#cbc389"/><stop offset=".63" stop-color="#b0aa90"/><stop offset="1" stop-color="#c4c4c4" stop-opacity="0"/></linearGradient><linearGradient id="r" gradientUnits="userSpaceOnUse" x1="12.61" x2="6.34" y1="5.73" y2="5.35"><stop offset="0" stop-color="#dc5029"/><stop offset=".42" stop-color="#d4a677"/><stop offset="1" stop-color="#c4c4c4" stop-opacity="0"/></linearGradient><linearGradient id="s" gradientUnits="userSpaceOnUse" x1="9.58" x2="8.2" y1="5.59" y2="7.05"><stop offset=".12" stop-color="#ceabb1"/><stop offset=".55" stop-color="#b5c7c7"/><stop offset=".73" stop-color="#bec4aa"/><stop offset="1" stop-color="#c4c4c4" stop-opacity="0"/></linearGradient><linearGradient id="t" gradientUnits="userSpaceOnUse" x1="7.96" x2="8.79" y1="8.24" y2="6.34"><stop offset="0" stop-color="#9fd6ae"/><stop offset=".26" stop-color="#c4d3b5"/><stop offset=".43" stop-color="#a3b7c2"/><stop offset=".59" stop-color="#accbd1"/></linearGradient><linearGradient id="u" gradientUnits="userSpaceOnUse" x1="10.44" x2="11.17" y1="7.85" y2="9.09"><stop offset="0" stop-color="#edd69b" stop-opacity="0"/><stop offset=".29" stop-color="#edd69b"/><stop offset=".57" stop-color="#dbcfac"/><stop offset=".94" stop-color="#b9c4cd"/><stop offset="1" stop-color="#c4c4c4" stop-opacity="0"/></linearGradient><linearGradient id="v" gradientUnits="userSpaceOnUse" x1="9.55" x2="10.16" y1="9.51" y2="13.26"><stop offset=".05" stop-color="#c4c4c4" stop-opacity="0"/><stop offset=".2" stop-color="#948594"/><stop offset=".43" stop-color="#b2846d"/><stop offset=".63" stop-color="#93c8a9"/><stop offset=".9" stop-color="#c4c4c4" stop-opacity="0"/></linearGradient><linearGradient id="w" gradientUnits="userSpaceOnUse" x1="10.78" x2="10.98" y1="11.11" y2="12.14"><stop offset=".38" stop-color="#ac1f2e"/><stop offset="1" stop-color="#a9132f" stop-opacity="0"/></linearGradient><linearGradient id="x" gradientUnits="userSpaceOnUse" x1="13.1" x2="14.07" y1="8.52" y2="11.85"><stop offset="0" stop-color="#6adbff" stop-opacity="0"/><stop offset=".13" stop-color="#20aab0"/><stop offset=".29" stop-color="#adc961"/><stop offset=".48" stop-color="#d12c8f"/><stop offset=".67" stop-color="#9fd154"/><stop offset=".85" stop-color="#d7699f"/></linearGradient><linearGradient id="y" gradientUnits="userSpaceOnUse" x1="14.1" x2="14" y1="7.42" y2="11.86"><stop offset=".22" stop-color="#04d9da"/><stop offset=".37" stop-color="#6fbbc0"/><stop offset=".52" stop-color="#88a05b"/><stop offset=".64" stop-color="#b05e8f"/><stop offset=".74" stop-color="#9bb07f"/><stop offset=".88" stop-color="#ad742e"/></linearGradient><linearGradient id="z" gradientUnits="userSpaceOnUse" x1="9.85" x2="8.81" y1="7.94" y2="10.68"><stop offset="0" stop-color="#d4d9cf"/><stop offset=".27" stop-color="#d4c0a8"/><stop offset=".51" stop-color="#eb8e6d"/></linearGradient><linearGradient id="A" gradientUnits="userSpaceOnUse" x1="12.69" x2="13.66" y1="10.92" y2="11.56"><stop offset="0" stop-color="#a4c85c"/><stop offset="1" stop-color="#a4c85c" stop-opacity="0"/></linearGradient><path d="m0 0h18v18h-18z" fill="url(#a)"/><path d="m10.62 4.38 3.38 1.9c-4.23-1.8-7.13-.98-7.17-.99.74-.9 3.08-1.07 3.8-.9z" fill="url(#b)"/><path d="m9.03 3.5 4.97 2.78c-4.23-1.8-7.13-.98-7.17-.99a8.1 8.1 0 0 1 2.2-1.79z" fill="url(#c)"/><path d="m9 9-5-2.75v5.5l5 2.73z" fill="url(#d)"/><path d="m8.99 9.21-4.99-2.37v4.75l4.99 2.35v-4.74z" fill="url(#e)"/><path d="m9 9.02-5-2.74v5.5l5 2.72z" fill="url(#f)"/><path d="m14 6.26c-3.62-1.36-6.2-1.09-8.79.68l8.79 4.81z" fill="url(#g)"/><path d="m14 9.11a5.01 5.01 0 0 1 -4.9-3.67c1.45-.15 3.03.12 4.9.82z" fill="url(#h)" fill-opacity=".7"/><path d="m14 9.11a5.01 5.01 0 0 1 -4.9-3.67c1.45-.15 3.03.12 4.9.82z" fill="url(#i)" fill-opacity=".8"/><path d="m14 9.11a5.01 5.01 0 0 1 -4.9-3.67c1.45-.15 3.03.12 4.9.82z" fill="url(#j)"/><path d="m14 9.11a5.01 5.01 0 0 1 -4.9-3.67c1.45-.15 3.03.12 4.9.82z" fill="url(#k)"/><path d="m4 6.26c2.94-1.77 7.2-1.38 9.99 0-3.31-1.17-5.14-1.14-8.8.67z" fill="url(#l)"/><path d="m9 9v5.48c.27-1.3 1.71-3.6 5-2.73a27.95 27.95 0 0 0 -5-2.75z" fill="url(#m)"/><path d="m4 9.83c.01-1.03 1.25-2.04 1.75-2.46-.1-.15-.37-.43-.69-.43-.4 0-1.06.8-1.06 2.89z" fill="url(#n)" opacity=".5"/><path d="m10.24 10.89a3.94 3.94 0 0 0 -.64-1.1c.12.04.6.32 1.5 1.02-.21-.11-.56.22-.71.4-.04-.01-.12-.09-.15-.32z" fill="url(#o)"/><path d="m5.22 11.51c-.07-.64.22-3.17.37-4.35.1.12.32.86.47 2.78a6.63 6.63 0 0 0 1.38 3.7l-1.85-1c-.09-.11-.3-.49-.37-1.13z" fill="url(#p)"/><path d="m4.9 11.46c.01.35.47.93.7 1.17l-.78-.42c-.07-.21.05-1.2.07-.75z" fill="url(#q)"/><path d="m10.77 5.33c.83.16 2.47.65 3.23.94l-1.09-.6c-.23-.14-.96-.54-1.22-.68.09.07.74.41 1 .6-1.1-.4-3.92-.78-5.84-.33.78-.14 2.6-.18 3.92.07z" fill="url(#r)"/><path d="m10.64 7.9c-1.23-.7-3.5-1.2-4.5-1.36 0-.13 1.78-.83 3-1 .17.6.5 1.19 1.5 2.36z" fill="url(#s)"/><path d="m6.94 6.15 3.7 1.73c.59.24 1.8.8 1.86 1.03.08.3-.59.14-.8.14-.2 0-1.06-.35-2.6-1a24.15 24.15 0 0 0 -3.92-1.11c.85-.46 1.76-.79 1.76-.79z" fill="url(#t)"/><path d="m12.11 8.76c.52-.01-.72-.57-1.4-.85a.89.89 0 0 0 -.66 0c-.3.15 1.42.87 2.06.85z" fill="url(#u)"/><path d="m9 13.82v-4.31c.64.44 1.78 1.4 1.3 1.68-.3.18-.78 1.03-.53 1.21z" fill="url(#v)" opacity=".8"/><path d="m9.36 13.01c.89-1.7 3.04-1.85 4-1.7l.21.14c-1.1.05-2.5-.34-4.21 1.56z" fill="url(#w)"/><path d="m12.4 8.74 1.59-.55.01 3.56z" fill="url(#x)"/><path d="m5.21 6.93c.78.28 6.43 1.83 7.35 2.1l1.44 2.72c-.4-.29-1.3-.88-1.69-1.08-.09-.04-.67-.43-1.45-.78-.67-.36-1.42-.75-1.87-.86a92.4 92.4 0 0 0 -3.78-2.1z" fill="url(#y)"/><path d="m9.73 8.31c-.7-.64-3.21-1.12-4.54-1.37l3.82 2.08 1.87.89c-.4-.43-.45-.95-1.15-1.6z" fill="url(#z)" fill-opacity=".8"/><path d="m4 6.27v.08l4.87 2.65c.15.08.11.3.13.37 0-.07 0-.2.05-.26.06-.07 1.36.61 2.2.97-.33-.2-1.65-.81-2.25-1.08l-4.92-2.78z" fill="#fbfbfb"/><path d="m12.06 10.52c.49.3 1.5.95 1.73 1.08-.2-.18-1.23-.8-1.73-1.08z" fill="url(#A)"/></svg>