<svg height="18" width="18" xmlns="http://www.w3.org/2000/svg" xmlns:xlink="http://www.w3.org/1999/xlink"><linearGradient id="a" gradientUnits="userSpaceOnUse" x1="6.032" x2="6.687" y1="11.356" y2="3.867"><stop offset=".15" stop-color="#e11b22"/><stop offset=".52" stop-color="#c8161d"/><stop offset=".663" stop-color="#c6161d"/><stop offset=".759" stop-color="#bf151b"/><stop offset=".843" stop-color="#b41217"/><stop offset=".918" stop-color="#a30d11"/><stop offset=".988" stop-color="#8f0507"/></linearGradient><linearGradient id="b" gradientUnits="userSpaceOnUse" x1="5.156" x2="14.623" y1="14.433" y2="10.608"><stop offset=".1" stop-color="#005f87"/><stop offset=".143" stop-color="#00719f"/><stop offset=".19" stop-color="#0080b4"/><stop offset=".238" stop-color="#008cc4"/><stop offset=".289" stop-color="#0094d0"/><stop offset=".341" stop-color="#0099d7"/><stop offset=".4" stop-color="#009bdb"/><stop offset=".483" stop-color="#0098d6"/><stop offset=".568" stop-color="#0093ce"/><stop offset=".655" stop-color="#008ac2"/><stop offset=".743" stop-color="#007daf"/><stop offset=".831" stop-color="#006b97"/><stop offset=".88" stop-color="#005f87"/></linearGradient><linearGradient id="c" gradientUnits="userSpaceOnUse" x1="9.543" x2="12.87" y1="8.077" y2="4.509"><stop offset=".15" stop-color="#bfd730"/><stop offset=".35" stop-color="#bbd32f"/><stop offset=".495" stop-color="#b5cc2d"/><stop offset=".621" stop-color="#abc22b"/><stop offset=".738" stop-color="#9db327"/><stop offset=".846" stop-color="#8a9f21"/><stop offset=".88" stop-color="#83981f"/></linearGradient><linearGradient id="d" gradientUnits="userSpaceOnUse" x1="6.497" x2="10.323" y1="7.813" y2="7.813"><stop offset=".27" stop-color="#f47920"/><stop offset=".441" stop-color="#f07720"/><stop offset=".578" stop-color="#e7731f"/><stop offset=".703" stop-color="#da6c1c"/><stop offset=".822" stop-color="#c76318"/><stop offset=".934" stop-color="#af5711"/></linearGradient><linearGradient id="e" gradientUnits="userSpaceOnUse" x1="8.299" x2="12.832" y1="10.796" y2="8.486"><stop offset=".15" stop-color="#48a842"/><stop offset=".314" stop-color="#46a641"/><stop offset=".484" stop-color="#3d9e3f"/><stop offset=".657" stop-color="#2e923a"/><stop offset=".83" stop-color="#158033"/><stop offset="1" stop-color="#006b2a"/></linearGradient><path d="m0 0h18v18h-18z" fill="#f0f3fa"/><path d="m6.552 11.647c-.248-4.025.495-6.377 1.672-7.647h-3.224v10c.464-.898 1.087-1.703 1.552-2.353z" fill="url(#a)"/><path d="m5.685 14h4.21c2.26 0 3.747-.929 3.747-2.755v-.031c0-.589-.155-1.053-.403-1.425-2.043 1.115-4.24 1.211-5.851 1.734-.465.805-1.053 1.641-1.703 2.477z" fill="url(#b)"/><path d="m6.552 11.647s-1.052 1.353-1.552 2.353h.716c.65-.836 1.288-1.672 1.784-2.446-.588.062-.948.093-.948.093z" fill="#183c47"/><path d="m12.775 7.839c.186-.34.31-.743.31-1.238v-.031c0-1.424-1.053-2.415-2.756-2.57-.155 1.548-.65 3.282-1.61 5.232 1.517-1.238 2.941-1.486 4.056-1.393z" fill="url(#c)"/><path d="m6.552 11.647c.743-1.053 1.455-1.827 2.167-2.415.961-1.95 1.611-3.232 1.611-5.232h-2.138c-1.145 1.27-1.888 3.591-1.64 7.647z" fill="url(#d)"/><path d="m11.784 8.768c.402-.217.743-.496.99-.929-1.114-.093-2.538.155-4.055 1.393a25.032 25.032 0 0 1 -1.3 2.291c1.3-.185 3.808-.65 5.851-1.734-.34-.464-.836-.774-1.486-1.021z" fill="url(#e)"/><path d="m6.552 11.647s.421-.03.948-.093c.495-.804 1.128-1.842 1.5-2.554-1 .5-1.736 1.594-2.448 2.647z" fill="#005949"/></svg>