<svg height="18" viewBox="0 0 18 18" width="18" xmlns="http://www.w3.org/2000/svg"><path d="m0 0h18v18h-18z" fill="#f0f3fa"/><path d="m3 12 .85-6h3.25c.47.03 1.42.34 1.42 1.3 0 .97-.95 1.38-1.42 1.47.47.04 1.42.37 1.42 1.3 0 1.16-1.5 1.93-2.46 1.93zm2.56-5.09-.25 1.56c.5 0 1.49-.16 1.49-.81s-.83-.77-1.24-.75zm-.36 2.37-.25 1.76c.5 0 1.49-.18 1.49-.91 0-.74-.83-.87-1.24-.85z" fill="#fd3434"/><path d="m9.97 9.43h1.35l.88-1.5.3 1.5h1.75l-1.5 1.2.32 1.37h1.93l-1.51-6h-1.59zm-1.45 2.57h1.43c.05 0 .5-.9.72-1.36l-.85-.8z" fill="#094f94"/></svg>