<svg height="18" viewBox="0 0 18 18" width="18" xmlns="http://www.w3.org/2000/svg" xmlns:xlink="http://www.w3.org/1999/xlink"><linearGradient id="a" gradientUnits="userSpaceOnUse" x1="18" x2="0" y1="9" y2="9"><stop offset="0" stop-color="#192651"/><stop offset="1" stop-color="#10101c"/></linearGradient><path d="m0 0h18v18h-18z" fill="url(#a)"/><path d="m14.96 9.4v.53a8.83 8.83 0 0 0 -2.81-.43c-1.74 0-2.65.45-2.65 1.05 0 .66.89.96 2.67.96a7.4 7.4 0 0 0 2.39-.27v-.35h-2.57v-.5h3.01v1.18c-.61.3-1.61.43-3 .43-2 0-3-.45-3-1.43 0-.97 1.08-1.57 3.16-1.57.98 0 1.9.14 2.8.4z" fill="#30a6d6"/><g fill="#fffeff"><path d="m3 12v-3h4.07c.6 0 .9.23.9.77 0 .33-.13.57-.37.71.26.13.4.36.4.7 0 .3-.11.55-.33.71-.12.1-.32.11-.6.11zm.43-.53h3.64c.33 0 .48-.08.48-.36 0-.25-.15-.37-.47-.37h-3.65zm0-1.25h3.65c.3 0 .45-.11.45-.36 0-.27-.15-.34-.45-.34h-3.65z"/><ellipse cx="10.94" cy="8.6" rx=".39" ry=".4"/><ellipse cx="11.72" cy="7.8" rx=".39" ry=".4"/><ellipse cx="13.28" cy="7.8" rx=".39" ry=".4"/><path d="m15.22 8.5a.3.3 0 0 1 -.3.3.3.3 0 0 1 -.28-.3c0-.17.13-.3.29-.3s.3.13.3.3z"/><circle cx="15.78" cy="8.56" r=".22"/><ellipse cx=".29" cy=".3" rx=".29" ry=".3" transform="matrix(-1 0 0 1 10.36 8.2)"/><ellipse cx=".3" cy=".29" rx=".3" ry=".29" transform="matrix(0 -1 -1 0 12.78 6.48)"/><path d="m10.64 6.69a.3.3 0 0 0 0 .42c.12.11.3.11.42 0a.3.3 0 0 0 0-.42.29.29 0 0 0 -.42 0z"/><circle cx=".22" cy=".22" r=".22" transform="matrix(-1 0 0 1 9.44 8.33)"/><path d="m14.36 6.69a.3.3 0 0 1 0 .42.29.29 0 0 1 -.42 0 .3.3 0 0 1 0-.42c.12-.12.3-.12.42 0z"/><circle cx=".22" cy=".22" r=".22" transform="matrix(0 -1 -1 0 12.7 5.44)"/><path d="m9.92 6.04a.22.22 0 0 0 0 .31c.09.09.23.09.31 0a.22.22 0 0 0 0-.31.22.22 0 0 0 -.3 0zm4.98 0c.09.08.09.23 0 .31a.22.22 0 0 1 -.3 0 .22.22 0 0 1 0-.31.22.22 0 0 1 .3 0z"/><ellipse cx="14.06" cy="8.6" rx=".39" ry=".4"/><ellipse cx="12.5" cy="7" rx=".39" ry=".4"/></g></svg>