<svg height="18" viewBox="0 0 18 18" width="18" xmlns="http://www.w3.org/2000/svg"><path d="m0 0h18v18h-18z" fill="#f0f3fa"/><path d="m3 12 1.4-6h2.01c1.07 0 1.59.46 1.59 1.4 0 .87-.46 1.35-1.4 1.5v.03c.62.14.94.57.94 1.25 0 1.15-.69 1.82-1.98 1.82zm1.6-1.05h.66c.64 0 .96-.32.96-.9 0-.45-.24-.62-.73-.62h-.54l-.36 1.52zm.58-2.5h.56c.6 0 .91-.25.91-.82 0-.39-.23-.58-.68-.58h-.47zm6.67.53-.53 2.83h.7l-.04.19h-1.98l.04-.2h.46l1.04-5.6h-.46l.04-.2h3.88l-.36 1.92h-.17c-.13-1.62-.27-1.73-.68-1.73h-1.42l-.48 2.6h.6c.37 0 .6-.27.93-1.2h.17l-.48 2.59h-.17c.01-.93-.12-1.2-.5-1.2h-.6zm-2.85-2.76v-2.22l2 1.7h-.97l.6 1.14-.41.16-.62-1.17z" fill="#0068b7"/></svg>