<svg height="18" viewBox="0 0 18 18" width="18" xmlns="http://www.w3.org/2000/svg"><path d="m0 0h18v18h-18z" fill="#f0f3fa"/><path d="m8.3 13.95v-2.15l-1.6 1.23-.7-.97 2.3-1.85v-.94l-1.6 1.23-.7-.97 2.3-1.85v-.98l-1.54 1.15-.76-.92 3-2.43 3 2.43-.63.92-1.67-1.15v.98l2.3 1.85-.7.97-1.6-1.23v.94l2.3 1.85-.7.97-1.6-1.23v2.15a5.03 5.03 0 0 0 4.3-4.93 5.06 5.06 0 0 0 -5-5.02c-2.74 0-5 2.31-5 5.02a5.03 5.03 0 0 0 4.3 4.93zm6.7-4.93a5.99 5.99 0 1 1 -11.98-.02 5.99 5.99 0 0 1 11.98.02z" fill="#43aa3f"/></svg>