<svg height="18" viewBox="0 0 18 18" width="18" xmlns="http://www.w3.org/2000/svg"><path d="m0 0h18v18h-18z" fill="#f0f3fa"/><path d="m3.5 6.77v-1.27h3.76c.97 0 1.7.81 1.7 1.78 0 .86-.42 1.16-1.08 1.56l.4.16c.44.17.73.6.73 1.08v.67c0 .97-.78 1.75-1.75 1.75h-3.76v-1.28c.2 0 .5-.17.5-.36v-3.73c0-.2-.3-.36-.5-.36zm2.78 0h-.28v1.35h.28c.4 0 .72-.3.72-.68 0-.37-.32-.67-.72-.67zm.1 2.55h-.38v1.59h.37c.35 0 .63-.27.63-.6v-.4c0-.33-.28-.6-.63-.6zm2.61-2.55v-1.27h3.77c.96 0 1.7.81 1.7 1.78 0 .86-.43 1.16-1.09 1.56l.4.16c.44.17.73.6.73 1.08v.67c0 .97-.78 1.75-1.74 1.75h-3.77v-1.28c.2 0 .51-.17.51-.36v-3.73c0-.2-.31-.36-.5-.36zm2.79 0h-.28v1.35h.28c.4 0 .72-.3.72-.68 0-.37-.32-.67-.72-.67zm.1 2.55h-.38v1.59h.37c.35 0 .63-.27.63-.6v-.4c0-.33-.28-.6-.63-.6z" fill="#9d1730"/></svg>