<svg height="18" viewBox="0 0 18 18" width="18" xmlns="http://www.w3.org/2000/svg"><path d="m0 0h18v18h-18z" fill="#f0f3fa"/><path d="m3 11v-4h.92v1.55a.95.95 0 0 1 .9-.55c.76 0 1.18.7 1.18 1.5s-.42 1.5-1.2 1.5c-.34 0-.72-.17-.88-.52l-.03.52zm.88-1.5c0 .38.2.83.6.83s.55-.45.55-.83c0-.48-.2-.83-.55-.83s-.6.34-.6.83zm11.04-.57-.93.02c-.04-.22-.28-.32-.48-.32-.15 0-.51.05-.5.24 0 .7 1.98.08 1.99 1.14 0 .74-.88.99-1.48.99-.62 0-1.42-.21-1.52-.94l1-.03c.05.21.24.37.53.37.26 0 .57-.14.57-.28-.01-.62-2.03-.09-2.02-1.2 0-.72.83-.92 1.4-.92.61 0 1.38.21 1.44.93z"/><path d="m9.7 7c0 .67-.74 1.18-1.12 1.35.2.17.48.47.75.75.29.3.56.57.68.67a3.4 3.4 0 0 0 .43-1.37h-.56v-.4h1.67v.4h-.69c0 .76-.4 1.43-.6 1.62l.7.67h.78v.31h-1.08c-.1-.12-.41-.46-.65-.68-.46.46-1.08.68-1.65.68s-1.62-.39-1.62-1.32c0-.75.78-1.28 1.17-1.45-.25-.23-.77-.8-.77-1.22 0-.67.66-1.01 1.3-1.01s1.26.37 1.26 1zm-1.52 1.5 1.55 1.53-.04.03c-.28.2-.85.62-1.21.62-.5 0-1.3-.24-1.3-1 0-.6.66-1.03 1-1.18zm.13-.44c.33-.16.97-.59.97-1.04 0-.56-.5-.65-.87-.65s-.82.06-.82.65c0 .48.48.9.72 1.04z" fill="#0096a1" fill-rule="evenodd"/></svg>