<svg height="18" width="18" xmlns="http://www.w3.org/2000/svg"><path d="m0 0h18v18h-18z" fill="#14487c"/><path d="m12.054 9.425c.93.17 1.349.67 1.349 1.214 0 .625-.561 1.13-1.417 1.13-.875 0-1.755-.636-1.89-1.915h-.262v2.146h.261c.019-.137.08-.324.265-.324.345 0 .751.324 1.638.324 1.294 0 2.002-.697 2.002-1.762 0-.835-.468-1.455-1.712-1.724l-.475-.099c-1.096-.225-1.416-.675-1.416-1.13 0-.626.542-1.049 1.2-1.049 1.03 0 1.756.836 1.88 1.764h.252v-1.763h-.229c-.025.105-.086.21-.271.21-.314 0-.69-.447-1.657-.447-.96 0-1.725.626-1.725 1.559 0 1 .561 1.526 1.731 1.768l.475.098zm-6.375-3.203h.508c.97 0 1.49.532 1.49 1.192 0 .943-.658 1.266-1.455 1.266h-.543zm-.85 5.549h-.829v.229h2.957c.907 0 1.867-.512 1.867-1.69 0-.936-.745-1.435-1.59-1.482v-.04c.714-.06 1.273-.512 1.273-1.441 0-.802-.539-1.347-1.82-1.347h-2.684v.222h.832v5.549h-.005zm.836-2.793h.723c.984 0 1.477.557 1.477 1.332 0 .848-.486 1.461-1.387 1.461h-.813v-2.862" fill="#fff"/></svg>