<svg height="18" viewBox="0 0 18 18" width="18" xmlns="http://www.w3.org/2000/svg"><path d="m0 0h18v18h-18z" fill="#f0f3fa"/><path d="m8.9 4c-1.54 0-2.75.12-3.17.18a24.2 24.2 0 0 0 -.73 4.66c0 1.4.49 3.9.73 4.98.43.06 1.66.18 3.17.18 1.5 0 2.88-.12 3.39-.18.24-.83.71-3 .71-4.98s-.47-3.93-.71-4.66c-.5-.06-1.86-.18-3.4-.18zm.25.59c-1.29 0-2.25.15-2.58.23-.19.56-.57 2.17-.57 4.07s.36 3.68.55 4.33c.28.06 1.19.2 2.52.2s2.34-.14 2.68-.2a6.3 6.3 0 0 0 .24-1.99c-.94-.3-2.93-.97-3.3-1.12l-.08-.03c-.46-.2-1.07-.44-1.07-1.08 0-.68.93-1.06 1.7-1.35.6-.23 2.09-.7 2.75-.9a5.1 5.1 0 0 0 -.33-1.93c-.3-.08-1.22-.23-2.5-.23zm-2.05 2.65.22-1.48h2.37c.05 0 .08.04.08.08v.16c0 .03-.01.05-.04.07l-2.64 1.17zm.22 5-.22-1.48 2.63 1.16c.03.02.04.04.04.07v.17c0 .04-.03.08-.08.08h-2.38zm4.68-4.12v-.8c0-.08-.08-.21-.38-.14-.37.09-2.13.64-3.01 1.06-.5.18-.6.53-.61.73 0 .14.06.4.57.62s2.1.78 2.83 1.04c.2.07.6.15.6-.1v-.76l-2.08-.7c-.1-.04-.1-.16 0-.2z" fill="#90615c" fill-rule="evenodd"/></svg>