<svg height="18" width="18" xmlns="http://www.w3.org/2000/svg"><path d="m0 0h18v18h-18z" fill="#00538e"/><g fill="#fff"><path d="m8.017 11v-1.664h1.124c.868 0 1.748.282 1.748.922 0 .659-.915.742-1.748.742zm1.124 1c1.377 0 2.86-.393 2.86-1.56 0-.71-.798-1.42-1.858-1.54.834-.204 1.456-.772 1.456-1.249 0-1.217-1.378-1.651-2.755-1.651h-2.844l1 1v4l-1 1h3.14zm-.297-5c.826 0 1.697.17 1.697.788 0 .609-.885.88-1.697.88h-.827v-1.668z"/><path d="m8.642 4.04c4.508-.454 6.093 1.804 6.358 3.179h-1.297c-.636-2.85-3.3-2.786-5.06-2.786-4.731.37-5.243 3.657-5.243 5.077-.01.776.804 3.188 3.592 3.668 2.787.48 5.065-.976 5.82-1.857l.743.827c-.866.976-3.531 2.327-6.563 1.735s-4.038-3.41-3.988-4.373c-.091-1.681.792-4.98 5.638-5.47z"/></g></svg>