<svg height="18" width="18" xmlns="http://www.w3.org/2000/svg"><path d="m0 0h18v18h-18z" fill="#004890"/><path d="m4.001 13h8.975c.524 0 1.024-.5 1.024-1v-1.634c0-.493-.365-.994-.937-1.054h-2.5c-.08.562-.359 1.088-.758 1.518a2.659 2.659 0 0 1 -2.915.635c-.863-.343-1.536-1.24-1.634-2.153h-1.256zm4.947-5.716c-.614-.409-1.586-.385-2.182.042a2.045 2.045 0 0 0 -.833 2.158c.139.642.732 1.267 1.363 1.447a2.103 2.103 0 0 0 2.156-.624c.5-.558.638-1.492.298-2.165-.16-.343-.48-.65-.802-.858zm-4.948-2.284.001 3.688h1.25a2.651 2.651 0 0 1 1.022-1.796c.728-.576 1.853-.718 2.706-.315.843.364 1.501 1.222 1.584 2.11h2.5c.506 0 .937-.358.937-.937v-1.716c0-.486-.354-1.041-.938-1.034z" fill="#fff"/></svg>