<svg height="18" width="18" xmlns="http://www.w3.org/2000/svg" xmlns:xlink="http://www.w3.org/1999/xlink"><linearGradient id="a" gradientUnits="userSpaceOnUse" x1="3.349" x2="21.904" y1="3.122" y2="24.434"><stop offset="0" stop-color="#1a1e21"/><stop offset="1" stop-color="#06060a"/></linearGradient><linearGradient id="b" gradientUnits="userSpaceOnUse" x1="5" x2="12.952" y1="6" y2="6"><stop offset="0" stop-color="#f25c19"/><stop offset=".599" stop-color="#fbc707"/></linearGradient><linearGradient id="c" gradientUnits="userSpaceOnUse" x1="11.842" x2="7.879" y1="8.354" y2="16.058"><stop offset="0" stop-color="#1c63b7"/><stop offset=".515" stop-color="#33bdf2"/></linearGradient><path d="m0 0h18v18h-18z" fill="url(#a)"/><path d="m5.335 3c-.304 0-.45.347-.227.539l6.362 5.461.336-.289c2.368-2.031.824-5.711-2.398-5.711z" fill="url(#b)"/><path d="m8.73 11.351-3.62 3.109c-.224.193-.077.541.228.541h4.148c3.193 0 4.725-3.648 2.378-5.662l-.394-.339-2.433-2.09c1.107 1.321 1.152 3.183-.306 4.44z" fill="url(#c)"/></svg>