<svg height="18" width="18" xmlns="http://www.w3.org/2000/svg"><path d="m0 0h18v18h-18z" fill="#f0f3fa"/><path d="m8.78 9.1c-.15-2.08-4.58-2.86-6.78-3 5-.19 7.4.9 7.47 2.44.06 1.22-1.35 2.8-2.06 3.44 4.59-1.92 5.6-3.22 5.6-3.86 0-.51-.49-.89-.73-1 1.47.43 1.72 1.11 1.72 1.42 0 1.53-5.54 3.6-8.31 4.45 2.66-1.73 3.13-3.35 3.09-3.9z" fill="#00a65e"/><path d="m10.18 8.45c-.04-1.58-2.58-2.29-3.84-2.45 1.99.1 6.09.66 6.09 2.08 0 1.13-2.5 2.51-3.75 3.06 1.23-1.1 1.5-2.24 1.5-2.69z" fill="#71bf44"/></svg>