<svg height="18" viewBox="0 0 18 18" width="18" xmlns="http://www.w3.org/2000/svg" xmlns:xlink="http://www.w3.org/1999/xlink"><linearGradient id="a" gradientUnits="userSpaceOnUse" x1="11.35" x2="11.35" y1="4.29" y2="10.47"><stop offset="0" stop-color="#f46504"/><stop offset="1" stop-color="#f0f91c"/></linearGradient><path d="m0 0h18v18h-18z" fill="#f0f3fa"/><g fill="#062053"><path d="m5.03 11.35-.15-.3h2.94c.15 0 .47.07.6.3a.7.7 0 0 1 0 .6c.19 0 .58.1.58.58 0 .47-.3.59-.44.59h-1.62l-.44-.3h1.62c.14 0 .4-.06.3-.3-.13-.23-.25-.28-.3-.28h-2.36l-.29-.3h2.06c.1 0 .3-.06.3-.3 0-.23-.2-.29-.3-.29z"/><path d="m9.3 12.53c0 .47-.3 1.03-.45 1.18h.44c.6-.36.74-1.18.89-1.47h2.06l.29-.3h-2.06c-.3 0-.44-.15-.44-.3 0-.16.15-.29.3-.29h2.5l.29-.3h-3.53c-.3 0-.59.3-.59.6s.3.3.3.88z"/><path d="m9 13.7a4.7 4.7 0 1 0 0-9.4 4.7 4.7 0 0 0 0 9.4zm0 .3a5 5 0 1 0 0-10 5 5 0 0 0 0 10z" fill-rule="evenodd"/></g><path d="m13.47 10.47a4.7 4.7 0 1 0 -8.94 0z" fill="url(#a)"/><path d="m7.24 8.7c-.18-.1-.38-.24-.6-.13.15-.29.45-.12.6 0 .14-.12.58-.29.58 0-.21-.1-.41.03-.58.14zm3.52-2.94c-.17-.1-.37-.24-.58-.14.14-.28.44-.1.58 0 .15-.1.6-.28.6 0-.22-.1-.42.04-.6.14zm1.77 4.71h-7.35c.58-.3 1.9-.88 3.82-.88 1.98 0 2.84.59 3.53.88z"/><path d="m8.85 8.7c0-.35.3-.73.44-.88 0 .47.3 1.57.45 2.06h.29a9.75 9.75 0 0 1 -.44-2.06c0-.35.2-.34.3-.3.23 0 .34.4.29.6-.12 0-.3.3-.3.44 0-.12.2-.15.3-.15-.12.12-.05.34 0 .44.11-.23.34-.3.44-.3 0 .48-.1 1.19-.15 1.48h.3c.11-.12.14-.83.14-1.18.35.12.34.44.3.6.11 0 .14-.3.14-.45l.3.15c.11-.24-.05-.4-.15-.44 0-.12.3-.15.44-.15 0-.24-.3-.3-.44-.3.12-.11.34-.14.44-.14-.23-.36-.69-.25-.88-.15l.15-.44c-.15.15-.3.15-.45.3-.04 0 0-.3-.29-.3.15.15.03.3 0 .3 0-.12-.1-.35-.15-.45.12-.12.44.05.6.15 0-.12-.3-.34-.45-.44.12-.24.54-.1.74 0 0-.35-.45-.59-.74-.44 0-.24.4-.3.59-.3-.59-.3-.93 0-1.18.15 0-.24.1-.4.15-.44-.44 0-.44.34-.44.44-.12-.24-.54-.4-.74-.44.24.23.2.49.15.59-.24-.24-.88-.3-1.18 0 .36 0 .54.2.6.3-.24 0-.6.29-.6.58.24-.24.5-.1.6 0-.36.35-.35.73-.3.88 0-.35.39-.64.59-.73-.12.35.04.83.14 1.03z"/></svg>