<svg height="18" viewBox="0 0 18 18" width="18" xmlns="http://www.w3.org/2000/svg"><path d="m0 0h18v18h-18z" fill="#3f4146"/><path d="m11.01 13.78c.38-.13.7-.36.9-.66.22-.3.38-.65.46-1a6.04 6.04 0 0 0 .01-2.43c-.04-.2-.12-.38-.24-.55-.11-.16-.26-.3-.44-.42-.2-.14-.45-.24-.7-.28a1.88 1.88 0 0 0 .86-.4c.1-.1.18-.2.24-.31l.15-.32a3.12 3.12 0 0 0 .1-.69v-.42c0-.83-.23-1.42-.68-1.76a3.44 3.44 0 0 0 -2.07-.54h-3.6v10h3.59c.49.01.97-.06 1.42-.22zm-2.41-8.22h.55a.6.6 0 0 1 .23.02c.08.02.14.05.2.1.05.04.1.1.12.16s.03.13.02.2v.98c0 .09 0 .17-.02.25a.96.96 0 0 1 -.07.23.38.38 0 0 1 -.17.2c-.1.05-.2.07-.32.07h-.54zm0 6.67v-2.9h.49c.48-.04.96.43.92.92v1.25c0 .5-.46.74-1.15.74z" fill="#f0f3fa"/></svg>