<svg height="18" viewBox="0 0 18 18" width="18" xmlns="http://www.w3.org/2000/svg"><path d="m0 0h18v18h-18z" fill="#f0f3fa"/><path d="m3.61 13-.11-.25c3.3-1.33 4.64-5.96 4.9-8.1h.1v2.97c-.62 2.86-3.59 5.05-4.89 5.38z" fill="#49a9d1"/><path d="m9.06 4a.06.06 0 0 0 -.06.06v8.87c0 .03.03.07.06.07h.86c.03 0 .08-.04.08-.07v-.68c0-.08.18-.12.23-.06.45.5 1.07.81 1.74.81 1.4 0 2.53-1.32 2.53-2.94s-1.13-2.85-2.53-2.85c-.71 0-1.36.26-1.82.81-.03.03-.15.01-.15-.03v-3.93c0-.03-.05-.06-.08-.06zm.94 6.7v-1.2c.22-.77.95-1.32 1.72-1.32.95 0 1.73.86 1.73 1.93s-.78 1.94-1.73 1.94c-.77 0-1.5-.57-1.72-1.35z" fill="#0e2a5b"/></svg>