<svg height="18" viewBox="0 0 18 18" width="18" xmlns="http://www.w3.org/2000/svg" xmlns:xlink="http://www.w3.org/1999/xlink"><linearGradient id="a" gradientUnits="userSpaceOnUse" x1="2.25" x2="13.5" y1="2.89" y2="16.71"><stop offset=".7"/><stop offset="1" stop-color="#373e24"/></linearGradient><path d="m0 0h18v18h-18z" fill="url(#a)"/><path d="m5 12h2.28c1.09 0 1.72-.69 1.72-1.71a1.5 1.5 0 0 0 -1.15-1.52c.42-.2.68-.66.68-1.27 0-.81-.61-1.5-1.58-1.5h-1.95zm1-5h.85c.36 0 .66.35.65.73 0 .38-.3.77-.65.77h-.85zm0 2.5h1.32c.37 0 .7.36.68.74 0 .4-.3.76-.68.76h-1.32zm5-3.5h-1v6h3v-1h-2z" fill="#fff"/></svg>