<svg height="18" viewBox="0 0 18 18" width="18" xmlns="http://www.w3.org/2000/svg"><path d="m0 0h18v18h-18z" fill="#f0f3fa"/><path d="m13.25 8v1h-3.52v-1zm-3.25-2v6h-1v-6zm4 0v6h-1v-6zm-7.64 3.5h-1.68v-1h1.51c.76 0 1.11-.23 1.11-.83 0-.47-.42-.67-1.3-.67h-1v5h-1v-6h2.17c1.35 0 2.13.48 2.13 1.6 0 .45-.3 1.02-.71 1.23-.25.13-.59.13-.92.17zm-.04 2.5h-1.98l.5-1h1.48c.84 0 1.3-.1 1.3-.82 0-.6-.37-.68-1.26-.68h-1.26v-1l1.71.05.22.17c.89.07 1.46.52 1.46 1.55 0 .37-.1.69-.27.95-.36.5-1.03.78-1.91.78z"/></svg>