<svg height="18" viewBox="0 0 18 18" width="18" xmlns="http://www.w3.org/2000/svg" xmlns:xlink="http://www.w3.org/1999/xlink"><linearGradient id="a" gradientUnits="userSpaceOnUse" x1="3.35" x2="21.9" y1="3.12" y2="24.43"><stop offset="0" stop-color="#1a1e21"/><stop offset="1" stop-color="#06060a"/></linearGradient><path d="m0 0h18v18h-18z" fill="url(#a)"/><path d="m3 5.4c0-.22.18-.4.4-.4h1.39a1.62 1.62 0 0 1 .94 2.9 1.75 1.75 0 0 1 -1.07 3.1h-1.26a.4.4 0 0 1 -.4-.4zm1 .6h.68c.4 0 .72.28.72.69 0 .4-.32.73-.72.73h-.68zm0 2.37h.68c.43 0 .79.36.79.81s-.36.82-.8.82h-.67z" fill="#fff" fill-rule="evenodd"/><path d="m3 12h12v1h-12z" fill="#00de00"/><g fill="#fff"><path d="m7.32 5.5c0-.27.23-.5.5-.5h2.35a.5.5 0 1 1 0 1h-.67v4h.67a.5.5 0 1 1 0 1h-2.35a.5.5 0 1 1 0-1h.68v-4h-.68a.5.5 0 0 1 -.5-.5z"/><rect height="1" rx=".5" width="2.17" x="12.83" y="7.67"/><path d="m11.4 6.8a1.8 1.8 0 1 1 3.6 0v.2h-1v-.27a.8.8 0 0 0 -1.6 0v2.53a.8.8 0 1 0 1.6 0v-1.43l1 .25v1.12a1.8 1.8 0 0 1 -3.6 0z"/></g></svg>