<svg height="18" viewBox="0 0 18 18" width="18" xmlns="http://www.w3.org/2000/svg"><path d="m0 0h18v18h-18z" fill="#181b1e"/><path d="m4 4h5.61c.23 0 .45.1.6.25l.74.75h-5.95v6.85l-1-1zm2.14 9 1 1h5.3c.86 0 1.56-.7 1.56-1.56v-.35c0-.44-.16-.86-.44-1.2l-.57-.65.01.2v.44c0 1.17-.91 2.12-2.03 2.12zm6.84-2.82a1.06 1.06 0 0 0 1.02-1.06v-.17c0-.54-.2-1.05-.58-1.43l-.42-.42v.36c0 .74-.6 1.2-1.35 1.2h-.65v.34h.65c.66 0 1.21.52 1.33 1.18zm-3.44-3.18h-1.54v1h1.54c.25 0 .46-.18.46-.41v-.19c0-.23-.2-.41-.46-.41zm-1.54 3h1.54c.25 0 .46.18.46.41v.18c0 .23-.2.41-.46.41h-1.54z" fill="#fff"/></svg>