<svg height="18" width="18" xmlns="http://www.w3.org/2000/svg"><path d="m0 0h18v18h-18z" fill="#f0f3fa"/><path d="m9 3-6 6 6 6 6-6z" fill="#ff5218"/><path d="m4.692 10.7-.848-1.89 2.136 1.597-.962-3.016 1.908 2.266-.522-3.587 1.337 2.919-.212-4.093 1.044 3.636.245-5.006.864 5.104 1.533-2.935-.62 3.734 2.103-2.413-.831 2.87 2.136-1.338-.92 2.373-4.083 4.079z" fill="#fff742"/><path d="m9 15-3.835-3.826s3.49-2.56 7.713-.05z" fill="#39bd94"/><path d="m9.878 5.385-.229-.033.245.278-.18.358.425-.277.244.294-.065-.424.408-.13-.327-.099.196-.244-.326.13v-.358l-.212.326-.212-.261z" fill="#ffcf01"/><path d="m11.606 3.624-.277-.228.163.407-.31.114.457.115v.424l.244-.424.424.179-.277-.391.293-.261-.31.032.115-.31-.31.278-.065-.392zm.603 1.174.212-.26-.032.325.326-.18-.163.278.277.13-.31.05.049.472-.294-.293-.342.212.081-.375-.277-.196.245-.016-.016-.375z" fill="#ff1e05"/></svg>