<svg height="18" width="18" xmlns="http://www.w3.org/2000/svg" xmlns:xlink="http://www.w3.org/1999/xlink"><linearGradient id="a" gradientUnits="userSpaceOnUse" x1="3.349" x2="21.904" y1="3.122" y2="24.434"><stop offset="0" stop-color="#1a1e21"/><stop offset="1" stop-color="#06060a"/></linearGradient><path d="m0 0h18v18h-18z" fill="url(#a)"/><path d="m8.896 7.995-2.021-3.319 2.021 1.142zm.104-2.357-2.004-1.138h4.008zm2.125-.962-2.021 1.142v2.177zm-5.103.286-2.022 3.32 2.022-1.142zm.103 2.358-2.004 1.18h4.009zm2.125.962-2.02-1.142v-2.178l2.022 3.32zm-1.375 5.026 2.021-3.275v2.134zm.121.192 2.004-1.154 2.004 1.154zm2.108-1.333 2.021 1.141-2.021-3.275zm.646-3.885 2.021-3.32v2.178zm.12.218 2.005-1.18 2.004 1.18zm2.108-1.36 2.022 1.142-2.022-3.32zm-5.956 5.882-2.022-3.276 2.022 1.142zm.103-2.314-2.004-1.208h4.009l-2.004 1.208zm2.125-.962-2.02 1.142v2.134zm3.521 3.276-2.021-3.276 2.022 1.142v2.134zm.104-2.314-2.005-1.208h4.008l-2.004 1.208zm2.125-.962-2.022 1.142v2.134z" fill="#fff"/></svg>