<svg height="18" width="18" xmlns="http://www.w3.org/2000/svg"><path d="m0 0h18v18h-18z" fill="#17468b"/><path d="m9 6.646-.213 5.9-.931-2.898.485 2.93-1.513-2.435 1.067 2.504-3.744-3.182 3.299 3.305-2.106-.943 1.692 1.173c-1.573 0-3.457-1.496-4.036-4.6 0 0 3.363.047 4.486 1.845-.211-2.532 1.244-4.92 1.514-5.245.27.326 1.725 2.713 1.514 5.245 1.123-1.798 4.486-1.845 4.486-1.845-.579 3.104-2.463 4.6-4.036 4.6l1.692-1.171-2.106.942 3.299-3.306-3.744 3.182 1.067-2.504-1.513 2.435.485-2.93-.931 2.898z" fill="#fab41d"/></svg>