<svg height="18" width="18" xmlns="http://www.w3.org/2000/svg" xmlns:xlink="http://www.w3.org/1999/xlink"><linearGradient id="a" gradientUnits="userSpaceOnUse" x1="10.934" x2="4.016" y1="5.119" y2="4.755"><stop offset="0" stop-color="#0181ca"/><stop offset="1" stop-color="#005cac"/></linearGradient><linearGradient id="b" gradientUnits="userSpaceOnUse" x1="10.464" x2="4.023" y1="6.624" y2="7.176"><stop offset="0" stop-color="#0581c4"/><stop offset="1" stop-color="#005dac"/></linearGradient><linearGradient id="c" gradientUnits="userSpaceOnUse" x1="10.623" x2="13.741" y1="4" y2="6.768"><stop offset="0" stop-color="#0181c9"/><stop offset="1" stop-color="#0495da"/></linearGradient><linearGradient id="d" gradientUnits="userSpaceOnUse" x1="12.105" x2="4.117" y1="8.477" y2="11.45"><stop offset="0" stop-color="#048bd5"/><stop offset="1" stop-color="#005aa8"/></linearGradient><linearGradient id="e" gradientUnits="userSpaceOnUse" x1="7.617" x2="13.921" y1="14" y2="12.257"><stop offset="0" stop-color="#0174c9"/><stop offset="1" stop-color="#0093d6"/></linearGradient><path d="m0 0h18v18h-18z" fill="#f0f3fa"/><path d="m9.33 4h-5.33v1.563c2.927-.074 5.796.363 6.854.625.419-1.095-.89-1.903-1.523-2.188z" fill="url(#a)"/><path d="m10.33 6.813c-1.176-.443-4.672-.885-6.33-.938v2.5c3.392-.16 5.595-1.044 6.33-1.563z" fill="url(#b)"/><path d="m12.79 4h-2.46c2.005.9 2.044 2.26 1.812 2.829a6.162 6.162 0 0 1 1.853 1.859c.004-.761.01-2.646 0-3.52s-.81-1.143-1.205-1.168z" fill="url(#c)"/><path d="m11.662 7.438c-1.882 1.497-5.881 2.126-7.661 2.186v2.813c1.364.193 5.52-.432 7.205-2.015 1.348-1.267.855-2.567.456-2.986z" fill="url(#d)"/><path d="m13.995 12.864v-2.614c-1.122 2.204-4.679 3.42-6.33 3.75h5.034c1.07 0 1.296-.722 1.296-1.136z" fill="url(#e)"/></svg>