<svg height="18" viewBox="0 0 18 18" width="18" xmlns="http://www.w3.org/2000/svg" xmlns:xlink="http://www.w3.org/1999/xlink"><linearGradient id="a" gradientUnits="userSpaceOnUse" x1="7.48" x2="7.48" y1="3" y2="13.69"><stop offset="0" stop-color="#7873b3"/><stop offset="1" stop-color="#abcaec"/></linearGradient><linearGradient id="b" gradientUnits="userSpaceOnUse" x1="11.14" x2="9.91" y1="5.6" y2="14.03"><stop offset="0" stop-color="#957139"/><stop offset=".48" stop-color="#b69667"/><stop offset="1" stop-color="#e1c8a3"/></linearGradient><linearGradient id="c" gradientUnits="userSpaceOnUse" x1="10.63" x2="8.44" y1="5.22" y2="13.75"><stop offset="0" stop-color="#dcc29c"/><stop offset="1" stop-color="#8f6a31"/></linearGradient><linearGradient id="d" gradientUnits="userSpaceOnUse" x1="8.08" x2="8.08" y1="3.25" y2="13.69"><stop offset="0" stop-color="#aac9eb"/><stop offset="1" stop-color="#7770b1"/></linearGradient><path d="m0 0h18v18h-18z" fill="#f0f3fa"/><path d="m6.05 7.98c-2.4 3.04-.12 5.08 1.32 5.71-.36-.76-.23-2.98 1.5-4.93 1.95-2.22.86-4.73 0-5.76-.24 1.4.18 1.17-2.82 4.98z" fill="url(#a)"/><path d="m9.26 9.19c1.52-1.81 1.42-3.54 1.18-4.18.8.84 3.55 3.36 2.19 6.54a4 4 0 0 1 -4.69 2.34 5.82 5.82 0 0 1 1.32-4.7z" fill="url(#b)"/><path d="m7.94 13.89c1.3-1.07 3.65-3.6 3.57-6.03a5.1 5.1 0 0 0 -.92-2.7l-.15-.15c.24.64.34 2.37-1.18 4.18a5.82 5.82 0 0 0 -1.32 4.7z" fill="url(#c)"/><path d="m9.05 3.25c.46 1.97-.39 3.56-2.16 5.92-1.36 1.8-.43 3.61.35 4.46l.13.06c-.36-.76-.23-2.98 1.5-4.93 1.8-2.06 1-4.36.18-5.51z" fill="url(#d)"/></svg>