<svg height="18" viewBox="0 0 18 18" width="18" xmlns="http://www.w3.org/2000/svg"><path d="m0 0h18v18h-18z" fill="#f0f3fa"/><path d="m6.28 13.5c-.98 0-1.78-.69-1.78-1.63 0-1.78 1.98-3.23 3.8-3.23-.59.67-.6 1.32-.59 1.78.02 1.23.87 2.1.87 2.1-.52.63-1.47.98-2.3.98z" fill="#5970b4"/><path d="m11.79 4.5c.52 0 1 .2 1.34.54.25.25.37.66.37 1.14 0 .7-.3 1.52-.97 2.19-.88.86-1.57 1.1-2.5 1.1.29-.79.28-1.35.29-1.66.01-1.3-.87-2.23-.87-2.23a3.24 3.24 0 0 1 2.34-1.08z" fill="#f8931f"/><path d="m11.94 13.5c-1.87 0-3.32-1.81-3.32-3.42 0-.21.02-.45.07-.61.3.52.87.86 1.48.87 1.44 0 2.22-.87 2.22-.87.58.52 1.11 1.5 1.11 2.4s-.44 1.63-1.56 1.63z" fill="#e564a5"/><path d="m4.89 4.97c.26-.31.71-.47 1.23-.47 1.84 0 3.31 1.72 3.31 3.35 0 .13-.01.27-.04.4-.33-.42-.92-.58-1.43-.58-1.27 0-2.22.86-2.22.86a3.21 3.21 0 0 1 -1.24-2.4c0-.44.12-.85.39-1.16z" fill="#31b885"/></svg>