<svg height="18" viewBox="0 0 18 18" width="18" xmlns="http://www.w3.org/2000/svg" xmlns:xlink="http://www.w3.org/1999/xlink"><linearGradient id="a" gradientUnits="userSpaceOnUse" x1="7.33" x2="5.42" y1="8.33" y2="9.19"><stop offset=".08" stop-color="#fff" stop-opacity="0"/><stop offset=".2" stop-color="#bcc2c8" stop-opacity=".08"/><stop offset=".29" stop-color="#96a0a9" stop-opacity=".14"/><stop offset=".38" stop-color="#778490" stop-opacity=".2"/><stop offset=".47" stop-color="#5f6e7d" stop-opacity=".27"/><stop offset=".57" stop-color="#4e5f6f" stop-opacity=".33"/><stop offset=".82" stop-color="#415364" stop-opacity=".5"/></linearGradient><linearGradient id="b" gradientUnits="userSpaceOnUse" x1="13.02" x2="11.37" y1="8.53" y2="1.33"><stop offset=".08" stop-color="#fff" stop-opacity="0"/><stop offset=".12" stop-color="#e8eaec" stop-opacity=".03"/><stop offset=".2" stop-color="#bcc2c8" stop-opacity=".08"/><stop offset=".29" stop-color="#96a0a9" stop-opacity=".14"/><stop offset=".57" stop-color="#4e5f6f" stop-opacity=".33"/></linearGradient><path d="m0 0h18v18h-18z" fill="#f0f3fa"/><path d="m6 4.84c0-.46-.45-.84-1-.84s-1 .38-1 .84v5.83l2-.65z" fill="#7badd3"/><path d="m7.5 14a3.5 3.5 0 1 0 0-7 3.5 3.5 0 0 0 0 7z" fill="#7badd3"/><path d="m7.5 12a1.5 1.5 0 1 0 0-3 1.5 1.5 0 0 0 0 3z" fill="#e0592a"/><path d="m7.69 8.97c-1.22.06-1.69.96-1.69 1.55v-3.13c.5-.3 1.09-.39 1.7-.39z" fill="url(#a)"/><path d="m12.3 4.17-1.95 1.38c-.44.3-.47.81-.06 1.14.37.3 1.3.33 1.71.05v6.42c0 .46.21.84.85.84.63 0 1.15-.38 1.15-.84v-8.47c0-.77-1.3-.82-1.7-.52z" fill="#7badd3"/><path d="m12 6.78 2-1.53v6.39l-2 .04z" fill="url(#b)"/></svg>