<svg height="18" viewBox="0 0 18 18" width="18" xmlns="http://www.w3.org/2000/svg" xmlns:xlink="http://www.w3.org/1999/xlink"><linearGradient id="a" gradientUnits="userSpaceOnUse" x1="0" x2="11.08" y1="0" y2="16.03"><stop offset="0" stop-color="#2b302a"/><stop offset="1" stop-color="#181b1e"/></linearGradient><linearGradient id="b"><stop offset="0" stop-color="#63a6fc"/><stop offset="1" stop-color="#2c75ff"/></linearGradient><linearGradient id="c" gradientUnits="userSpaceOnUse" x1="11.63" x2="11.63" xlink:href="#b" y1="10.14" y2="14"/><linearGradient id="d" gradientUnits="userSpaceOnUse" x1="11.66" x2="11.66" xlink:href="#b" y1="5" y2="12.39"/><linearGradient id="e" gradientUnits="userSpaceOnUse" x1="6.37" x2="6.37" xlink:href="#b" y1="10.14" y2="14"/><linearGradient id="f" gradientUnits="userSpaceOnUse" x1="6.34" x2="6.34" xlink:href="#b" y1="5" y2="12.39"/><path d="m0 0h18v18h-18z" fill="url(#a)"/><path d="m10.43 12.32c.79.84 1.76 1.4 2.25 1.66a.22.22 0 0 0 .3-.1.23.23 0 0 0 .02-.1v-1.79c0-.35-.1-.7-.3-.99a1.7 1.7 0 0 0 -.79-.63l-.6-.23c-1.6.5-.93 2.07-.88 2.18z" fill="url(#c)"/><path d="m12.63 9.35c.67-.17 1.37-.45 1.37-1.56v-2.35a.45.45 0 0 0 -.2-.37.41.41 0 0 0 -.39-.03c-1.26.57-4.1 2.14-4.1 4.59a4.1 4.1 0 0 0 1.2 2.76c-1.49-2.18 1.13-2.8 2.12-3.04z" fill="url(#d)"/><path d="m7.56 12.32a8.43 8.43 0 0 1 -2.25 1.66.22.22 0 0 1 -.28-.1.23.23 0 0 1 -.03-.1v-1.79c0-.35.1-.7.3-.99s.47-.5.79-.63l.6-.23c1.59.5.92 2.07.87 2.18z" fill="url(#e)"/><path d="m5.37 9.35c-.67-.17-1.37-.45-1.37-1.56v-2.35a.45.45 0 0 1 .2-.37.41.41 0 0 1 .39-.03c1.26.57 4.1 2.14 4.1 4.59a4.1 4.1 0 0 1 -1.2 2.76c1.49-2.18-1.13-2.8-2.12-3.04z" fill="url(#f)"/></svg>