<svg height="18" viewBox="0 0 18 18" width="18" xmlns="http://www.w3.org/2000/svg"><path d="m0 0h18v18h-18z" fill="#f0f3fa"/><path d="m11.14 8.79a.16.16 0 0 1 .05-.22c.1-.05.22-.14.22-.26v-2.15c0-.09.07-.16.16-.16h.27c.09 0 .16.07.16.16v2.19c0 .32-.24.49-.52.63a.16.16 0 0 1 -.07.02c-.11 0-.18-.15-.27-.21zm-.14 3.05c0 .09-.07.16-.16.16h-.27a.16.16 0 0 1 -.16-.16v-2.2c0-.28-.2-.35-.47-.48-.28-.15-.53-.5-.53-.81v-2.19c0-.09.07-.16.16-.16h.27c.09 0 .16.07.16.16v2.15c0 .17.11.25.2.3.4.2.8.45.8.93zm-2-3.77c0 .34-.1.64-.34.86.23.21.34.52.34.86v1.07c0 .64-.5 1.14-1.15 1.14h-1.69a.16.16 0 0 1 -.16-.16v-.27c0-.09.07-.16.16-.16h1.69c.28 0 .56-.27.56-.55v-1.07c0-.3-.28-.5-.56-.5h-.45a.16.16 0 0 1 -.16-.16v-.26c0-.09.06-.16.15-.16h.46c.28 0 .56-.35.56-.64v-.95a.55.55 0 0 0 -.55-.53h-1.7a.16.16 0 0 1 -.16-.16v-.27c0-.09.07-.16.16-.16h1.7c.64 0 1.14.46 1.14 1.1zm-3-.37c0-.09.07-.16.16-.16h.27c.09 0 .16.07.16.16v2.62c0 .09-.07.16-.16.16h-.27a.16.16 0 0 1 -.16-.16zm3-3.7a5 5 0 1 0 0 10 5 5 0 0 0 0-10z" fill="#fb4f14"/></svg>