<svg height="18" viewBox="0 0 18 18" width="18" xmlns="http://www.w3.org/2000/svg"><path d="m0 0h18v18h-18z" fill="#f0f3fa"/><path d="m4 4h10v10h-10zm2 2-1 .5c.36 0 .45.22.45.33v3.67c.15.17.57.5 1.05.5 1 0 1.5-.67 1.5-1.83 0-1.17-.45-1.67-1.05-1.67-.48 0-.85.44-.95.67zm0 4.33v-1.66c0-.17.38-.5.7-.5.6 0 .77.33.8 1.33.02.83-.5 1.17-.8 1.17-.25 0-.6-.23-.7-.34zm2.38-4.33h1.08l2.54 3.67v-2.84c0-.33-.38-.5-1-.5v-.33h2v.33c-.3 0-.62.17-.62.5v4.17h-.38l-2.62-4v2.83c0 .23.13.84.62.84v.33h-1.62v-.33c.31 0 .62-.17.62-.84v-3.16c0-.17-.12-.34-.62-.34zm4.62 6h-8v1h8z" fill="#11053b" fill-rule="evenodd"/></svg>