<svg height="18" viewBox="0 0 18 18" width="18" xmlns="http://www.w3.org/2000/svg"><path d="m0 0h18v18h-18z" fill="#f0f3fa"/><path d="m11.89 7.37-.44-.06v-.31h1.77c.67 0 1.47.16 1.47.9 0 .49-.36.89-.9.98.63-.02 1.21.29 1.21.91 0 .92-.94 1.21-1.82 1.21h-1.73v-.29l.44-.05zm.67 1.4.34.01h.32c.55 0 .84-.28.84-.8s-.4-.7-.94-.7c-.14 0-.29 0-.44.02h-.12v1.48zm0 1.9c.09.03.3.04.61.04.62 0 1.14-.23 1.14-.85 0-.55-.41-.77-.99-.77h-.76zm-3.91-3.67h.68l1.5 3.68.4.06v.26h-1.65v-.26l.51-.06-.29-.79h-1.8l-.3.8.53.05v.26h-1.45v-.26l.38-.06 1.5-3.68zm.4.85-.16-.47-.15.49-.63 1.7h1.59zm-3.95 3.15c-1.31 0-2.1-.86-2.1-2.01 0-1.12.94-1.99 2.2-1.99.45 0 .92.06 1.36.2v.9h-.51l-.15-.66a.79.79 0 0 0 -.3-.1c-.14-.04-.3-.06-.51-.06-.98 0-1.35.9-1.35 1.65 0 .78.35 1.78 1.38 1.78.28 0 .57-.02.8-.18l.25-.52.39.05v.65c-.51.23-.94.29-1.46.29z" fill="#10082d"/></svg>