<svg height="18" width="18" xmlns="http://www.w3.org/2000/svg"><path d="m0 0h18v18h-18z" fill="#0956a6"/><path d="m9 12v-4.998h1l2.501 3.998 2.499-3.998h1v4.998h-1v-3l-2 3h-1l-2-3v3zm-6.538-4.997h5.768c.193 0 .235.148.232.221v1.119c0 .238-.1.312-.149.324h-.763c-.124-.187-.394-.575-.524-.667h-3.76c-.126.009-.253.146-.265.197v2.557c0 .132.215.239.264.246h3.761c.434 0 .527-.553.524-.667h.912v1.139c0 .406-.364.507-.546.507-1.694.015-5.17.036-5.518 0-.348-.035-.404-.353-.389-.507-.006-1.07-.015-3.343 0-3.873s.309-.618.454-.596z" fill="#fff"/></svg>