<svg height="18" width="18" xmlns="http://www.w3.org/2000/svg" xmlns:xlink="http://www.w3.org/1999/xlink"><linearGradient id="a" gradientUnits="userSpaceOnUse" x1="3.349" x2="21.904" y1="3.122" y2="24.434"><stop offset="0" stop-color="#1a1e21"/><stop offset="1" stop-color="#06060a"/></linearGradient><path d="m0 0h18v18h-18z" fill="url(#a)"/><path d="m9 14c.268.001.534-.242.812-.739 0 0 3.84-6.843 4.088-7.258.355-.6-.305-1.457-.889-.715 0 0-2.982 3.756-3.358 4.246-.241.315-.428.466-.66.466-.231 0-.418-.151-.659-.466-.376-.49-3.345-4.246-3.345-4.246-.584-.742-1.244.115-.889.715.247.415 4.088 7.258 4.088 7.258.278.497.544.74.812.74z" fill="#fff"/></svg>