<svg height="18" viewBox="0 0 18 18" width="18" xmlns="http://www.w3.org/2000/svg"><path d="m0 0h18v18h-18z" fill="#f0f3fa"/><g fill="#2e76b6"><path d="m9 12v1h-3.65c-.73 0-1.35-.62-1.35-1.38v-5.24c0-.75.63-1.38 1.35-1.38h3.65v1h-3.28c-.4 0-.72.33-.72.73v4.54c0 .4.32.73.72.73z"/><path d="m14 8.54c0-.86-.6-1.54-1.35-1.54h-3.25v1h2.88c.4 0 .71.35.71.8v2.37c0 .46-.33.83-.73.83h-1.61c-.38 0-.66-.31-.66-.76v-.1c0-.45.23-.64.66-.64h2.03v-1h-2.37c-.74 0-1.32.65-1.32 1.49v.53c0 .83.57 1.48 1.32 1.48h2.62c.59 0 1.06-.54 1.06-1.2v-3.26z"/></g></svg>