<svg height="18" viewBox="0 0 18 18" width="18" xmlns="http://www.w3.org/2000/svg"><path d="m0 0h18v18h-18z" fill="#f0f3fa"/><g fill="#005a41"><path d="m8 5.6v-1.6c-2.25 0-4 1.7-4 4 0 2.98 2.67 5.24 4 6v-1.95c-.86-.63-2.5-2.36-2.5-4.2 0-1.87 1.64-2.29 2.5-2.25zm1-1.6h5l-.6 1.5h-2.73v2.5h2.33l-.64 1.5h-1.7v3.47l-1.66 1.03z"/><path d="m8.4 7.14-.1.36c-.02-.06-.14-.2-.37-.2-.3 0-.3.28-.3.34.29-.12.47.05.47.14 0 .08-.09.2-.26.2a.41.41 0 0 1 -.29-.15.74.74 0 0 0 -.17.45c0 .25.34.47.55.47.2 0 .49-.14.49-.25s-.03-.22-.2-.22a.58.58 0 0 0 -.32.1c.05-.13.18-.38.35-.38.2 0 .4.2.49.2s.12-.03.26-.12c-.14.4-.29.36-.4.34 0 .36-.44.58-.82.58-.37 0-.78-.22-.78-.64 0-.33.3-.58.46-.67-.03 0-.08-.03-.08-.19 0-.2.29-.5.55-.5.2 0 .4.1.46.14z"/></g></svg>