<svg height="18" width="18" xmlns="http://www.w3.org/2000/svg"><path d="m0 0h18v18h-18z" fill="#232345"/><path d="m4.007 8.18c-.184-3.487 3.293-4.237 5.053-4.176 4.042 0 4.976 2.785 4.937 4.178.11 3.765-2.902 6.079-4.422 6.765-.118.04-.497.098-1.069 0-.715-.122-4.268-2.405-4.499-6.765z" fill="#f5a706"/><path d="m5.006 8.42c-.148-2.854 2.633-3.467 4.042-3.417 3.233 0 3.98 2.278 3.95 3.418.088 3.08-2.322 4.974-3.538 5.535-.095.033-.397.08-.855 0-.572-.1-3.415-1.967-3.6-5.535z" fill="#252542"/><path d="m6.004 8.66c-.11-2.22 1.975-2.697 3.032-2.658 2.425 0 2.985 1.772 2.962 2.658.067 2.397-1.741 3.87-2.653 4.306-.07.026-.298.062-.641 0-.43-.078-2.561-1.53-2.7-4.306z" fill="#f5a706"/><path d="m11.55 9.07c.072-2.055-1.005-2.471-1.552-2.423.357.595-.205.595-.343.37h-.365v.165h-.535v-.165h-.365c-.578.406-.543-.077-.453-.37-.572 0-1.513.685-1.53 2.423-.016 1.738 1.177 2.64 1.53 2.64.282 0 .42-.255.453-.383h1.21c.08.234.298.353.397.384.488-.025 1.481-.587 1.552-2.641z" fill="#252542"/><path d="m8.7 7.886h.664v1.058h.837v-1.058h.764v2.601h-.765v-.97h-.837v.97h-.663c0 .074-.113.22-.566.22-.566 0-1.305-.374-1.403-1.498-.099-1.124.861-1.521 1.403-1.521.434 0 .558.132.567.198z" fill="#f5a706"/><path d="m8.426 8.777h.313v.827h-.313c.033.152.079.457 0 .457-.1 0-.94.133-.99-.9-.04-.827.643-.915.99-.856z" fill="#252542"/></svg>