<svg height="18" viewBox="0 0 18 18" width="18" xmlns="http://www.w3.org/2000/svg" xmlns:xlink="http://www.w3.org/1999/xlink"><linearGradient id="a" gradientUnits="userSpaceOnUse" x1="7.82" x2="1.84" y1="3.36" y2="4.73"><stop offset="0" stop-color="#ffcf37"/><stop offset=".56" stop-color="#ffc936" stop-opacity=".44"/><stop offset=".64" stop-color="#e0ab68"/><stop offset="1" stop-color="#deb26a"/></linearGradient><linearGradient id="b" gradientUnits="userSpaceOnUse" x1="4.93" x2="14.4" y1="15.59" y2="14.6"><stop offset="0" stop-color="#d1841a"/><stop offset=".2" stop-color="#d29a15"/><stop offset=".37" stop-color="#d2861a"/><stop offset=".57" stop-color="#f2c011"/><stop offset=".86" stop-color="#cc801a"/><stop offset="1" stop-color="#d1841a"/></linearGradient><path d="m0 0h18v18h-18z" fill="#f0f3fa"/><path d="m4.44 5-.44 8h10l-.48-8z" fill="url(#a)"/><path d="m4 13h10l-.48-8h-.02l-.5.73-3.95 2.83-4.49 3.76-.55.68z" fill="#8c4105"/><path d="m4.88 5.63-.4 6.74h9.04l-.43-6.74z" fill="url(#b)"/><path d="m9.86 6.45c1.24 0 1.4.57 1.15 1-.07.1-.27.02-.35-.08-.14-.17-.43-.34-1-.34-1.2 0-2.14 1.36-2.14 2.12 0 .75.4 1.75 1.44 1.75.84 0 1.39-.52 1.56-.78h.24v.9c-.11.17-.64.53-1.8.53-4.4 0-3.11-5.1.9-5.1z" fill="#ffd133"/><path d="m10.88 6.9c.07.02.2.08.17.24-.02.2-.15.35-.3.21-.17-.13-.5-.35-1.12-.35s-2.26.48-2.26 2.25c0 1.43 1.08 1.8 1.62 1.82.24.05.9-.01 1.64-.72.04-.02.13 0 .11.2 0 .26-.32.96-1.75.96-1.13 0-1.7-.29-1.85-.44.08.08.49.2 1.55.15a1.88 1.88 0 0 1 -1.56-1.97c0-1.38 1.3-2.22 1.93-2.46l1.82.12z" fill="#ffffbe"/><path d="m9.63 6.77c.21.02.69.1.9.31.1.08.15.15.2.2.11.13.15.17.15.06 0-.1-.05-.16-.08-.2-.02-.03-.03-.05-.02-.06l.16-.13c.1-.07-.37-.4-1.13-.4s-3.4.47-3.52 3.02c0 .4.25 1.27 1.2 1.57-.33-.19-1-.75-1-1.48.02-.9.68-2.7 3.14-2.89zm.97 3.45c-.16.28-.7.85-1.69.85-.97 0-1.48-.72-1.61-1.08.04.42.43 1.26 1.63 1.26 1.21 0 1.64-.5 1.7-.75.03-.1.05-.28-.03-.28z" fill="#a25800"/></svg>