<svg height="18" viewBox="0 0 18 18" width="18" xmlns="http://www.w3.org/2000/svg"><path d="m0 0h18v18h-18z" fill="#f0f3fa"/><g fill="#0038a8"><path d="m9 3.14-.25.69-2.45-.18a6.03 6.03 0 0 1 6.03.35 6.06 6.06 0 0 1 1.67 8.33 6.04 6.04 0 0 1 -6.2 2.55 6.27 6.27 0 0 1 -3.03-1.63l.94-.06-.15.5c1.14-.75 2.28-1.62 3.4-2.44 1.19.79 2.28 1.66 3.46 2.46-.38-1.34-.88-2.67-1.29-4.03l3.43-2.68h-4.24l-1.33-3.86z"/><path d="m8.7 3.95-.24.76-3.36-.27.36-.28c1.1-.04 2.14-.17 3.25-.2zm-4.23 1.13 3.96-.25-.27.77-3.86-.32zm-.64.89c1.42-.05 2.9-.2 4.32-.27l-.25.78-4.17-.33zm3.88.6h.15l-.19.43h-4.22l.71.73-1-.09c.06-.26.14-.52.23-.77l4.31-.3zm-3.33 1.3.93.69-2.27-.16.06-.47zm2.11 1.55-3.49-.3v-.3l2.49-.13zm.13.08.22.16-.18.63-3.55-.26a1.8 1.8 0 0 1 -.04-.3l3.53-.23zm-3.27 1.5a2.31 2.31 0 0 1 -.1-.38l3.36-.2-.26.83-3-.24zm2.7 1.15-2.25-.19-.23-.45 2.73-.16-.24.8zm-.04.1-.26.84-1.22-.09-.47-.61z"/></g></svg>