<svg height="18" width="18" xmlns="http://www.w3.org/2000/svg"><path d="m0 0h18v18h-18z" fill="#0079c1"/><g fill="#fff"><path d="m9 4c-2.765 0-5 2.235-5 5s2.235 5 5 5 5-2.235 5-5c0-2.753-2.235-5-5-5zm.046 8.548a3.55 3.55 0 0 1 -3.548-3.548 3.55 3.55 0 0 1 3.548-3.548 3.55 3.55 0 0 1 3.549 3.548 3.55 3.55 0 0 1 -3.549 3.548z"/><path d="m9.783 7.249c-.034-.196-.08-.334-.103-.484 0-.011-.012-.011-.012-.023-.034-.092-.08-.138-.173-.15a2.723 2.723 0 0 0 -.345-.023l.103-.161v-.012c-.115.023-.3.081-.449.058-.173-.023-.322.046-.322.184v.092h-.23s-.324-.023-.335.242l-.023.334s.058-.103.23-.103h.162c.057 0 .115.034.115.092.011.334-.196.61-.588.61h-2.027l2.166 3.86h2.246l2.12-3.86h-1.843c-.392.012-.634-.391-.692-.656zm-.898.392c0-.093.069-.162.161-.162s.161.07.161.162v.3h-.322zm.011.472h.311l.104.242h-.518zm.496 1.878v.057h-.692v-.057c0-.668.093-1.233.208-1.486.046-.012.092-.012.138-.012s.08 0 .127.012l.011.011c.127.242.208.818.208 1.475zm-.646-1.429c-.115.334-.195.853-.195 1.44v.058h-.576v-.08c0-.68.322-1.245.771-1.418zm1.371 2.35h-2.154v-.714h2.154zm0-.864h-.587v-.057c0-.588-.08-1.118-.207-1.44v-.012c.46.173.794.75.794 1.429.012.034 0 .046 0 .08z"/></g></svg>