<svg height="18" viewBox="0 0 18 18" width="18" xmlns="http://www.w3.org/2000/svg"><path d="m0 0h18v18h-18z" fill="#f0f3fa"/><g fill="#ec0928"><path d="m9.76 6h2.24c-.78-.67-2.94-2-4.6-2-1.31 0-2.4.79-2.4 2 0 .98.55 1.97.82 2.36h6.23c.16.31.34.72.34.99 0 .55-.34.65-.87.65-.77 0-1.72-.44-2.14-.7h-2.78a7.24 7.24 0 0 0 5.13 2.7c1.17 0 2.27-.63 2.27-2.06 0-1.15-.86-2.42-1.29-2.94h-5.5c-.07-.12-.21-.54-.21-.86 0-.4.3-.69.8-.69s1.32.22 1.96.55z"/><path d="m4.18 7.13.6-1.13v.73c0 .63.52 2.51 2.36 4.03 1.84 1.51 3.2 1.79 4.18 1.79.77 0 1.44-.46 1.68-.68l-.72 1.3c-.23.41-1.07.83-1.94.83-1.39 0-2.94-.83-4.11-1.87-2.1-1.89-2.23-3.64-2.23-4.08 0-.36.12-.76.18-.92z"/></g></svg>