<svg height="18" viewBox="0 0 18 18" width="18" xmlns="http://www.w3.org/2000/svg"><path d="m0 0h18v18h-18z" fill="#f0f3fa"/><path d="m4.31 7h.95c-.1-.19-.3-.67-.3-1.16 0-1.41 1.11-1.57 1.7-1.57.49 0 1 .12 1.2.18a4.49 4.49 0 0 0 -1.85-.45c-1.62 0-2.01 1.04-2.01 1.7 0 .54.2 1.09.31 1.3z"/><path d="m5.47 5.98c0 .3.06.56.1.65-.06-.47.14-1.4 1.41-1.4 1.48 0 3.39 1.18 4.16 1.77h.9c-1.34-1.21-3.47-2.3-4.91-2.3-1.45 0-1.66.91-1.66 1.28zm5.91 6.39c-.42 0-.88-.09-1.06-.13.23.1.86.31 1.55.31 1.46 0 1.65-.9 1.65-1.14 0-.2-.06-.36-.08-.41h-.79c.32 1.21-.74 1.37-1.27 1.37z" fill="#b58100"/><path d="m7.2 11h-1.16c2.66 2.35 4.58 3 5.97 3s1.99-.77 1.99-1.46c0-.54-.13-.91-.19-1.03.17.6.07 1.77-1.7 1.77-1.75 0-4-1.52-4.91-2.28zm-.2-2.84c0-.64.43-1.16.95-1.16h2.1c.52 0 .95.52.95 1.16v.38h-1v-.16c0-.21-.14-.38-.3-.38h-1.4c-.16 0-.3.17-.3.38v1.24c0 .21.14.38.3.38h1.4c.16 0 .3-.17.3-.38v-.26h1v.47c0 .64-.43 1.17-.95 1.17h-2.1c-.52-0-.95-.53-.95-1.17z"/></svg>