<svg height="18" viewBox="0 0 18 18" width="18" xmlns="http://www.w3.org/2000/svg"><path d="m0 0h18v18h-18z" fill="#0056bc"/><path d="m10.55 5.84-.1.66h-.67l-.24 1.5h.7l-.74 5h2.09l.71-5h.95l.27-1.5h-1.04c.02-.38.26-.96.66-.96.33 0 .6.25.69.38l.67-1.33a4.33 4.33 0 0 0 -1.67-.59 2.25 2.25 0 0 0 -2.28 1.84zm-2.72 2.6 1.67-1.27a2.93 2.93 0 0 0 -2.42-1.14c-1.7 0-3.58 1.09-3.58 4.05 0 2.92 2.69 2.92 2.95 2.92h.01c.21 0 1.6-.12 2.64-1.42l-1.52-1.15c-.12.25-.52.74-1.12.74-.75 0-.88-.68-.88-1.37 0-.68.57-1.88 1.34-1.88.62 0 .86.35.9.52z" fill="#ffde00"/></svg>