<svg height="18" viewBox="0 0 18 18" width="18" xmlns="http://www.w3.org/2000/svg"><path d="m0 0h18v18h-18z" fill="#f0f3fa"/><path d="m6.81 10.85a5.57 5.57 0 0 1 -1.41-3.15c0-.87.7-1.35 1.61-1.35 1.2 0 1.38.79 1.38 1.03 0 .33.27.62.62.62s.63-.3.63-.62c0-.73.84-1.03 1.37-1.03.87 0 1.5.6 1.5 1.35 0 .78-.04 1.26-.57 1.85-.22.26-.2.63.07.85.26.22.78.25 1 0 .71-.8 1-1.63 1-2.68v-.02c-.01-1.4-1.44-2.7-3.01-2.7-.9 0-1.3.3-1.95.92a2.5 2.5 0 0 0 -2.05-.92c-1.6 0-3 1.22-3 2.74 0 1.15.64 2.14 1.39 3.11h1.41zm.74.9h-1.72c.88.99 1.93 1.67 2.76 2.16.3.17.68.09.86-.2a.59.59 0 0 0 -.2-.82c-.5-.3-1.1-.6-1.7-1.14z" fill="#7ab92b"/></svg>