<svg height="18" viewBox="0 0 18 18" width="18" xmlns="http://www.w3.org/2000/svg" xmlns:xlink="http://www.w3.org/1999/xlink"><linearGradient id="a" gradientUnits="userSpaceOnUse" x1="4.58" x2="8.25" y1="6.27" y2="9.08"><stop offset="0" stop-color="#2ec166"/><stop offset="1" stop-color="#0cb4c1"/></linearGradient><linearGradient id="b" gradientUnits="userSpaceOnUse" x1="7.89" x2="11.25" y1="12.14" y2="12.72"><stop offset="0" stop-color="#62cdc7"/><stop offset="1" stop-color="#62cdc7" stop-opacity="0"/></linearGradient><linearGradient id="c" gradientUnits="userSpaceOnUse" x1="7.07" x2="11.7" y1="5.5" y2="5.94"><stop offset="0" stop-color="#fe8c05"/><stop offset="1" stop-color="#f6ba0e"/></linearGradient><linearGradient id="d" gradientUnits="userSpaceOnUse" x1="9.37" x2="7.08" y1="6.25" y2="6.74"><stop offset="0" stop-color="#f7c50e"/><stop offset="1" stop-color="#f7c50e" stop-opacity="0"/></linearGradient><path d="m0 0h18v18h-18z" fill="#f0f3fa"/><path d="m4 9.3a5.37 5.37 0 0 0 2.2 4.41c-.1-.64-.1-2.22.78-3.36a4.68 4.68 0 0 1 -.32-5.63 5.61 5.61 0 0 0 -2.66 4.58z" fill="url(#a)"/><path d="m10.53 14c-2.22 0-3.27-2.42-3.52-3.63.4.82 1.07 1.43 2.19 1.43.74 0 1.38-.46 1.72-.82.1-.1.26-.1.36 0l1.6 1.66c.07.08.09.2.02.28a2.93 2.93 0 0 1 -2.37 1.08z" fill="#00b4d1"/><path d="m7.03 10.49c.34 1.08 1.7 2.86 5.03 2.73l.49-.93-1.27-1.32c-.1-.1-.26-.09-.36.01-.34.36-.98.82-1.72.82-1.12 0-1.79-.6-2.2-1.43z" fill="url(#b)"/><path d="m7.86 7.23a3.5 3.5 0 0 1 -1.1-2.58c.34-.22 1.31-.65 2.53-.65 1.67 0 3.17 1.26 3.72 1.9l-1.93 2.05c-.28-.35-1.06-1.05-1.84-1.05-.8 0-1.25.21-1.38.32z" fill="url(#c)"/><path d="m12.52 5.41c.2.18.36.35.48.48l-1.93 2.06c-.27-.35-1.05-1.05-1.83-1.05-.79 0-1.25.2-1.38.31.46-.69 1.6-1.85 3.19-1.88.62-.01 1.1.02 1.47.07z" fill="url(#d)"/></svg>