<svg height="18" viewBox="0 0 18 18" width="18" xmlns="http://www.w3.org/2000/svg"><path d="m0 0h18v18h-18z" fill="#f0f3fa"/><path d="m12.51 7h1.49c-.4-1-2.03-3-4.85-3-2.94 0-4.55 1.74-5 2.6 1.09-1.44 3.1-1.84 3.97-1.86 2.59 0 4 1.5 4.4 2.26zm-7.13 5h-1.38c.34.98 2.26 3 4.72 3 2.58 0 3.8-1.34 3.8-1.48-1.22.7-1.86.68-2.62.7-2.38.06-4.18-1.48-4.52-2.22z" fill="#3b4090"/><path d="m11.13 10.8a2.4 2.4 0 0 1 -2.06 1.2 2.46 2.46 0 0 1 -2.42-2.5c0-1.38 1.08-2.5 2.42-2.5.88 0 1.65.49 2.07 1.21l-.91.45c-.23-.4-.63-.68-1.09-.68-.72 0-1.3.68-1.3 1.52s.58 1.52 1.3 1.52c.44 0 .83-.26 1.07-.64z"/></svg>