<svg height="18" viewBox="0 0 18 18" width="18" xmlns="http://www.w3.org/2000/svg"><path d="m0 0h18v18h-18z" fill="#8a1e41"/><path d="m9.19 12.33c.46 0 .9-.08 1.3-.24l.5 1.6c-.56.2-1.17.31-1.8.31a5.16 5.16 0 0 1 -5.02-3.74h-.01a6.18 6.18 0 0 1 -.16-1.26c0-2.76 2.32-5 5.19-5 .48 0 .95.06 1.4.18l-.38 1.63a3.58 3.58 0 0 0 -2.53.19h5.64l.23.5h-6.65c-.47.4-.82.91-1.01 1.5h8.06l.05.5h-8.23a3.24 3.24 0 0 0 .05 1.26h8.13l-.1.5h-7.85c.2.48.51.9.91 1.24h6.13v.5h-5.36c.45.21.97.33 1.5.33z" fill="#fff"/></svg>