<svg height="18" width="18" xmlns="http://www.w3.org/2000/svg"><path d="m0 0h18v18h-18z" fill="#007b85"/><path d="m11.83 4.2c-.6.3-.96.57-2.6 1.76l.61 1.02s1.67-1.3 2.6-1.77c.35-.17.44 0 .22.28-.36.5-1.47 1.42-3.28 2.75l-.4.3-1.03.74-1-1.67c-.5-.87-.63-1.16-.83-1.65-.3-.71-.13-1.01.38-.35.3.38.66.96 1.06 1.6l.33.55.3.45.04-.03.94-.69-.27-.44c-1.06-1.75-1.57-2.45-2.01-2.78a1.47 1.47 0 0 0 -.88-.27c-.7 0-1.36.5-1.38 1.25 0 .1 0 .2.02.31.12.63.52 1.46 1.3 2.8-1.1.85-1.6 1.35-1.8 1.75-.13.24-.17.5-.14.77.07.62.56 1.23 1.25 1.25.15 0 .31-.03.49-.07.46-.13 1.05-.53 1.81-1.03a24.24 24.24 0 0 0 1.9 2.82c.4.45.88.8 1.51.77.74-.02 1.43-.51 1.28-1.39-.09-.53-.4-1.21-1.17-2.54l-.4-.69-.13-.22-1.02.73.16.28.29.5c.43.75.6 1.08.75 1.4l.07.15c.05.1.37.7.05.62-.43-.1-1.45-1.77-2.2-3l-.07-.14 1.04-.74.52-.38a31.68 31.68 0 0 0 3-2.39 2.58 2.58 0 0 0 .86-1.65c0-.73-.62-1.16-1.35-1.16-.29 0-.58.07-.82.2zm-5.25 5.2c-.46.37-.98.87-1.23 1.14-.17.19-.19.39.12.3.15-.04.35-.14.53-.23l.04-.02c.27-.14.49-.33.89-.6z" fill="#fff" fill-rule="evenodd"/></svg>