<svg height="18" viewBox="0 0 18 18" width="18" xmlns="http://www.w3.org/2000/svg"><path d="m0 0h18v18h-18z" fill="#f0f3fa"/><path d="m9 3-5 3v6l4.93 2.96.07.04 4.98-2.99h.02v-6.01zm.19 6 4.41-2.65-2.2 3.97-2.22-1.32zm2.11 1.5-2.2 3.96v-5.3l2.2 1.33zm-2.2-1.68v-2.64h4.4l-4.4 2.65zm0-2.82v-2.6l4.3 2.59h-4.3zm4.52 5.9-4.32 2.56 2.15-3.88 2.16 1.3zm.07-5.35v5.18l-2.13-1.3zm-4.79 2.62v5.3l-2.2-3.99 2.2-1.32zm-2.3 1.15-2.2-3.97 4.41 2.65-2.2 1.32zm-.07.27 2.15 3.88-4.3-2.59zm-.1-.17-2.13 1.3v-5.18zm2.47-4.24v2.65l-4.41-2.65h4.42zm0-2.78v2.59h-4.31l4.32-2.59z" fill="#6fa5d9"/></svg>