<svg height="18" viewBox="0 0 18 18" width="18" xmlns="http://www.w3.org/2000/svg"><path d="m0 0h18v18h-18z" fill="#f0f3fa"/><path d="m7.95 8.2c-.12-.11-.55-.1-.62-.07a3.8 3.8 0 0 1 1.43-.8c.29 0 .7.5.83.72l3.21 5.95h-.94a338.8 338.8 0 0 0 -3.91-5.8z" fill="#f38a21"/><path d="m3.65 10c.14-.05.48-.2.73-.4l2.6-2.08c.04-.03.15-.1.22-.1h1.7-.05c-.09 0-.2.02-.31.08-.14.08-2 1.57-2.92 2.3-.1.07-.35.2-.55.2z" fill="#a9a8ad"/><path d="m9.7 4.27c-.1-.23-.36-.27-.47-.27-.27 0-.65.29-.8.43l-.27.77c.18-.06.25 0 .26.03l1.2 2.91 3.14 5.86h1.24c-.23 0-.52-.45-.63-.67z" fill="#ee6723"/><path d="m3 10c.17-.12.58-.48.89-.94l3.14-4.8c.05-.09.18-.26.27-.26h2.06-.07c-.1.01-.25.06-.37.2-.17.18-2.43 3.64-3.54 5.35-.12.15-.42.45-.66.45z" fill="#fac275"/></svg>