<svg height="18" width="18" xmlns="http://www.w3.org/2000/svg"><path d="m0 0h18v18h-18z" fill="#08090d"/><path d="m12.974 13-3.623-3.333-3.754 3.333z" fill="#ffc400"/><path d="m6.757 10.838c0 .28-.047.592-.321.843l-1.477 1.319h-.462c-.84 0-1.497-.69-1.497-1.602v-4.717c0-.921.516-1.681 1.88-1.681 1.33.002 1.875.759 1.875 1.679v1.665h-1.488v-1.604c0-.228-.167-.413-.374-.413s-.36.185-.36.413v4.518c0 .229.153.414.36.414s.374-.185.374-.414v-1.596h1.49zm2.194-2.096.401-2.413.399 2.413zm1.434-3.742h-2.075l-1.21 6.119 2.252-1.996 2.347 2.16zm1.923 6.878v-5.354h-1.028v-1.524h3.72v1.524h-1v6.476h-.474z" fill="#fff"/></svg>