<svg fill="none" height="18" width="18" xmlns="http://www.w3.org/2000/svg"><path d="m0 0h18v18h-18z" fill="#bfd3c5"/><path d="m7.23 5.028a2.025 2.025 0 0 0 -1.18.72 3.02 3.02 0 0 0 -.325.52c-.015.036-.16.309-.32.608-.161.296-.359.666-.439.821-.08.153-.176.33-.21.392l-.068.11-.015-.082c-.032-.174-.123-.267-.282-.299-.117-.022-1.062.097-1.136.146-.041.026-.083.1-.163.293-.089.219-.102.269-.087.325.037.12.079.13.68.194l.544.056-.042.04a.767.767 0 0 0 -.088.12c-.107.183-.099.218-.099 1.947 0 1.66-.039 1.708.113 1.859.086.089.218.137.322.203l.646.002c.359.004.698.034.913-.292l.01-.708c.006-.636 0-1 0-1h5.996v.939c.004.36-.041.87.286 1 .093.038-.075.056.53.061.755.008.811-.018.987-.152.193-.15.182-.153.197-.98v-1.7c-.022-1.07-.015-1.082-.15-1.252-.034-.045-.056-.084-.047-.086.008-.002.251-.03.538-.06.288-.03.544-.065.568-.078a.189.189 0 0 0 .091-.158c0-.024-.046-.16-.1-.299-.071-.177-.115-.263-.147-.281-.055-.03-.896-.14-1.07-.142a.371.371 0 0 0 -.188.04c-.08.042-.165.169-.165.245a.138.138 0 0 1 -.017.068c-.02.028-.059-.038-.226-.368-.06-.118-.24-.46-.403-.756-.16-.3-.35-.654-.419-.79-.337-.67-.822-1.226-1.528-1.252h-1.55c-1.43-.004-1.788-.006-1.958.026zm2.957 1.974 1.05 2h-4.473c.323-.566 1.278-1.998 1.278-1.998l1.072-.002z" fill="#df4e3c"/></svg>