<svg height="18" viewBox="0 0 18 18" width="18" xmlns="http://www.w3.org/2000/svg"><path d="m0 0h18v18h-18z" fill="#f0f3fa"/><path d="m5.32 6.82a.9.9 0 0 0 .88-.91c0-.5-.4-.91-.88-.91a.9.9 0 0 0 -.87.9c0 .51.4.92.87.92z" fill="#039e43"/><path d="m12.68 6.82a.9.9 0 0 0 .87-.91c0-.5-.4-.91-.87-.91a.9.9 0 0 0 -.88.9c0 .51.4.92.88.92z" fill="#016fbb"/><path d="m7.43 7.18a.9.9 0 0 0 .87-.9c0-.5-.4-.92-.87-.92a.9.9 0 0 0 -.88.91c0 .5.4.91.88.91z" fill="#029165"/><path d="m10.57 7.18a.9.9 0 0 0 .88-.9c0-.5-.4-.92-.88-.92a.9.9 0 0 0 -.87.91c0 .5.4.91.87.91z" fill="#0276a7"/><path d="m3.57 7.9a.9.9 0 0 0 .88-.9c0-.5-.4-.9-.88-.9a.9.9 0 0 0 -.87.9c0 .5.4.9.87.9z" fill="#41b034"/><path d="m14.43 7.9a.9.9 0 0 0 .87-.9c0-.5-.4-.9-.87-.9a.9.9 0 0 0 -.88.9c0 .5.4.9.88.9z" fill="#017fcb"/><path d="m9.32 8.91c-.22.08-.21.28.01.6l.05.08c.17.26.19.54.06.83a.88.88 0 0 1 -.6.55c-.36.1-.65-.01-.9-.32a.9.9 0 0 1 -.11-.98c.1-.23.33-.41.66-.53l.23-.08c.15-.06.19-.17.1-.32a3.8 3.8 0 0 0 -.1-.14c-.12-.2-.2-.35-.21-.47-.08-.44.06-.77.41-1s.7-.2 1.02.1a.9.9 0 0 1 .3.9c-.08.37-.29.6-.63.7l-.3.08z" fill="#00848b"/><path d="m2.88 9.9a.9.9 0 0 0 .87-.9c0-.5-.4-.9-.88-.9a.9.9 0 0 0 -.87.9c0 .5.4.9.88.9z" fill="#6aba2c"/><path d="m15.13 9.9a.9.9 0 0 0 .87-.9c0-.5-.4-.9-.88-.9a.9.9 0 0 0 -.87.9c0 .5.4.9.88.9z" fill="#017fcb"/><path d="m3.57 11.9a.9.9 0 0 0 .88-.9c0-.5-.4-.9-.88-.9a.9.9 0 0 0 -.87.9c0 .5.4.9.87.9z" fill="#41b034"/><path d="m14.43 11.9a.9.9 0 0 0 .87-.9c0-.5-.4-.9-.87-.9a.9.9 0 0 0 -.88.9c0 .5.4.9.88.9z" fill="#017fcb"/><path d="m7.43 12.64a.9.9 0 0 0 .87-.91c0-.5-.4-.91-.87-.91a.9.9 0 0 0 -.88.9c0 .5.4.92.88.92z" fill="#029165"/><path d="m10.57 12.64a.9.9 0 0 0 .88-.91c0-.5-.4-.91-.88-.91a.9.9 0 0 0 -.87.9c0 .5.4.92.87.92z" fill="#0276a7"/><path d="m5.32 13a.9.9 0 0 0 .88-.9c0-.51-.4-.92-.88-.92a.9.9 0 0 0 -.87.91c0 .5.4.91.87.91z" fill="#039e43"/><path d="m12.68 13a.9.9 0 0 0 .87-.9c0-.51-.4-.92-.87-.92a.9.9 0 0 0 -.88.91c0 .5.4.91.88.91z" fill="#016fbb"/></svg>