<svg height="18" viewBox="0 0 18 18" width="18" xmlns="http://www.w3.org/2000/svg"><path d="m0 0h18v18h-18z" fill="#f0f3fa"/><g fill="#405b70"><path d="m11 7.08a.5.5 0 1 1 -1 0 .5.5 0 0 1 1 0z"/><circle cx="11.5" cy="9.5" r=".5"/><path d="m11 11.75a.75.75 0 1 1 -1.5 0 .75.75 0 0 1 1.5 0zm-5.25-5a.75.75 0 1 1 -1.5 0 .75.75 0 0 1 1.5 0zm2.75-.75a.5.5 0 1 1 -1 0 .5.5 0 0 1 1 0z"/></g><path d="m13.05 6.05-1.05.45 1.05.45.45 1.05.45-1.05 1.05-.45-1.05-.45-.45-1.05z" fill="#f7622a"/><circle cx="8" cy="13" fill="#405b70" r="1"/><circle cx="5" cy="12" fill="#405b70" r="1"/><path d="m5 9.5a1 1 0 1 1 -2 0 1 1 0 0 1 2 0z" fill="#405b70"/></svg>