<svg height="18" viewBox="0 0 18 18" width="18" xmlns="http://www.w3.org/2000/svg"><path d="m0 0h18v18h-18z" fill="#f0f3fa"/><path d="m9 13v-4.27c0-.37-.82-1.37-1.8-1.37v-2.36c1.3.07 3.8 1.27 3.8 4v4zm.42-7.82a4.2 4.2 0 0 1 1.82 2.15c1.23-.09 1.75 1.23 1.76 1.64v4.03h2v-4.03c0-3.1-3.06-3.97-4.01-3.97-.77 0-1.37.12-1.57.18z" fill="#455560"/><path d="m6.93 12.18.07-.33v1.15c-2.21-.03-4-1.8-4-4s1.79-3.97 4-4v1.2l-.07-.33-.33 1.53-.91-1.3.3 1.55-1.36-.87.9 1.32-1.6-.3 1.34.9-1.59.31 1.6.32-1.35.9 1.6-.3-.9 1.32 1.37-.86-.3 1.55.91-1.3.33 1.54z" fill="#fdbb30"/></svg>