<svg height="18" viewBox="0 0 18 18" width="18" xmlns="http://www.w3.org/2000/svg"><path d="m0 0h18v18h-18z" fill="#01b2aa"/><path d="m8 12v-6h1.32c.56-.02 1.68.5 1.68 2s-1.28 2.04-1.92 2h-.08v2zm1.11-5h-.11v2.24h.11c.64 0 .89-.32.89-.7v-.84c0-.4-.25-.71-.89-.71zm-6.11 1a2 2 0 0 1 4 0v.03l-1 .12v-.15a1 1 0 0 0 -2 0v2a1 1 0 1 0 2 0v-.2l1 .08v.12a2 2 0 0 1 -4 0zm9-2v6h1.18c1.4 0 1.8-.87 1.82-1.3v-.53c0-.96-.75-1.3-1.12-1.34.33-.1 1-.47 1-1.27 0-1.2-.96-1.54-1.44-1.56zm1.51 1h-.51v1h.51c.27 0 .49-.12.49-.28v-.44c0-.16-.22-.28-.49-.28zm0 2.42h-.51v1.58h.51c.27 0 .49-.2.49-.44v-.7c0-.24-.22-.44-.49-.44z" fill="#fff" fill-rule="evenodd"/></svg>