<svg height="18" viewBox="0 0 18 18" width="18" xmlns="http://www.w3.org/2000/svg"><path d="m0 0h18v18h-18z" fill="#005542"/><path d="m11.76 7.73c-4.74-1.8-8.48.16-9.76 1.36.32-.06.79-.03.98 0a8.09 8.09 0 0 1 6.67-1.74c-3.63-.11-5.65 1.17-6.19 1.82l.62.21c1.16-1.26 4.04-1.68 5.34-1.73-2.71.38-4.47 1.45-5 1.94.14.07.42.34.54.47a9.24 9.24 0 0 1 4.83-2.09c-2.47.71-4.07 1.9-4.57 2.41.12.12.35.58.44.8 1.77-2.3 4.8-3.26 6.1-3.45z" fill="#98b9ae"/><path d="m6.36 11.14c4.24-3.64 8.19-3.27 9.64-2.63-.32.07-.76.3-.95.4-2.62-1.04-5.58.24-6.73 1.02 3.47-1.57 5.64-1.15 6.29-.75l-.55.45c-1.36-.73-4.2.02-5.46.5 2.68-.74 4.56-.4 5.17-.16-.13.13-.34.5-.43.67-1.77-.75-4.1-.35-5.04-.05 2.5-.32 4.27.18 4.84.47-.1.16-.22.7-.27.94-2.13-1.5-5.22-1.2-6.5-.86z" fill="#d5a10f"/></svg>