<svg fill="none" height="18" viewBox="0 0 18 18" width="18" xmlns="http://www.w3.org/2000/svg"><path d="m0 0h18v18h-18z" fill="#b5a268"/><path d="m11.7932 11.0106c2.3555-.1134 4.2068-1.36092 4.2068-1.36092s-.7875.18901-3.0671.30242c-.7218.0378-1.2537 0-1.7476-.0756l.5319-1.05847h.076c2.3555-.11341 4.2068-1.36088 4.2068-1.36088s-.7875.18901-3.0671.30242c-.2279 0-.4559 0-.6458 0l1.4437-2.75957h-9.38412l.75985 1.47429c-2.20355.0756-3.10653 1.05846-3.10653 1.05846 1.86162-.30241 1.70082-.34022 3.29649-.15121.11398 0 .18996.03781.30394.03781l.64587 1.24747c-2.77344-.26461-4.2463 1.02066-4.2463 1.02066 1.86162-.30241 1.70082-.34022 3.29649-.1512.4939.0756 1.0258.18901 1.55769.34022l-.15197-.30242.75985 1.43652c-.15197-.0378-.30395-.0756-.45592-.1134-3.11536-.6427-5.00614.9072-5.00614.9072 1.86162-.3024 1.70082-.3402 3.29649-.1512.91182.1134 1.89962.4536 2.88742.7561l.83583 1.5907.64586-1.1749c.7219.189 1.4437.3024 2.1656.2646 2.3555-.1134 4.1688-1.3609 4.1688-1.3609s-.7495.189-3.0291.3024c-1.2157.0756-1.8996-.0756-2.7354-.3024l.4179-.7938c.3799.0756.7598.0756 1.1398.0756zm-1.5577-1.32312-.5699 1.05842-.41791.7939-.30394.567-3.15336-6.1068h6.34471l-.9118 1.75957-.5319 1.02066z" fill="#fff"/></svg>