<svg height="18" viewBox="0 0 18 18" width="18" xmlns="http://www.w3.org/2000/svg"><path d="m0 9a9 9 0 1 1 18 0 9 9 0 0 1 -18 0z" fill="#f0f3fa"/><path d="m9.07 4c-1.58 0-3.24.72-4.3 1.96-.5.6-.76 1.26-.77 1.88 0 .74.35 1.38.76 1.95.23.33.45.64.6 1.08.64 1.73 2.12 3.13 3.98 3.13 2.6 0 4.67-2.38 4.67-5 0-2.76-2.3-4.98-4.93-5zm.26 9.38c-1.66 0-2.8-1.13-3.37-2.67-.18-.5-.49-.96-.72-1.3-.35-.5-.63-.96-.63-1.59 0-.5.2-.96.63-1.48a5 5 0 0 1 3.83-1.71 4.56 4.56 0 0 1 4.32 4.37c0 2.37-1.71 4.35-4.06 4.38z" fill="#0091df"/><path d="m9.05 6c-1 0-3 .64-3.05 1.95 0 .45.2.75.42 1.06.21.3.45.65.63 1.15.36.99 1.16 1.84 2.22 1.84 1.53 0 2.73-1.45 2.73-3a3 3 0 0 0 -2.95-3zm.22 5.4c-.87 0-1.42-.64-1.7-1.44-.2-.55-.5-.93-.71-1.24-.17-.24-.28-.43-.29-.74-.01-1.03 1.83-1.38 2.45-1.38a2.4 2.4 0 0 1 2.4 2.4c0 1.33-.83 2.4-2.15 2.4z" fill="#91b8c1"/><path d="m9.06 5h-.03c-1.35 0-4.03 1.08-4.03 2.86 0 .74.26 1.04.6 1.52.22.32.45.65.62 1.13.5 1.36 1.63 2.49 3.08 2.49 2.07-.02 3.7-1.9 3.7-4 0-2.2-1.83-4-3.94-4zm.24 7.38c-1.24 0-2.13-.87-2.56-2.06-.19-.53-.48-.96-.71-1.3-.25-.35-.44-.62-.44-.99 0-1.7 2.3-2.41 3.44-2.41h.03c1.9 0 3.35 1.7 3.35 3.38 0 1.84-1.28 3.38-3.1 3.38z" fill="#00ad7d"/></svg>