<svg height="18" viewBox="0 0 18 18" width="18" xmlns="http://www.w3.org/2000/svg"><path d="m0 0h18v18h-18z" fill="#f0f3fa"/><path d="m4 9.5c0-.87.2-1.64.59-2.32a4.1 4.1 0 0 1 1.64-1.6c.7-.39 1.5-.58 2.4-.58 1.1 0 2.03.28 2.8.83.79.55 1.3 1.21 1.57 2.17h-2.47a1.7 1.7 0 0 0 -.78-.75c-.34-.19-.72-.29-1.15-.29-.69 0-1.25.23-1.67.7a2.61 2.61 0 0 0 -.65 1.85c0 .77.22 1.39.65 1.85.42.46.98.69 1.67.69.43 0 .81-.1 1.15-.3.34-.18.6-.38.78-.75h2.47a3.8 3.8 0 0 1 -1.56 2.18c-.78.55-1.72.82-2.8.82-.9 0-1.7-.19-2.41-.57a4.2 4.2 0 0 1 -1.64-1.6 4.56 4.56 0 0 1 -.59-2.31z" fill="#172f34"/><path d="m14 4h-4l4 4z" fill="#dc3b41"/></svg>