<svg fill="none" height="18" viewBox="0 0 18 18" width="18" xmlns="http://www.w3.org/2000/svg" xmlns:xlink="http://www.w3.org/1999/xlink"><linearGradient id="a" gradientUnits="userSpaceOnUse" x1="9" x2="9" y1="0" y2="18"><stop offset="0" stop-color="#f09801"/><stop offset="1" stop-color="#feb300"/></linearGradient><path d="m0 0h18v18h-18z" fill="url(#a)"/><path clip-rule="evenodd" d="m10.0755 8.32926c-.5364 1.11879-.84527 1.6694-1.33647 2.37654-.00422 0-.00847.0001-.01276.0001-.56704.7819-1.5132 1.2941-2.58462 1.2941-1.7351 0-3.14165-1.3432-3.14165-3 0-1.65681 1.40655-3 3.14165-3 .94786 0 1.79768.40085 2.3737 1.03471l-.77557.9781c-.34395-.60486-.99423-1.01281-1.73978-1.01281-1.10456 0-2 .89543-2 2 0 1.1046.89544 2 2 2 .66682 0 1.25743-.3263 1.62082-.828.72527-1.15488.99893-1.67087 1.33931-2.34196.47783-1.07554 1.59457-1.83004 2.89587-1.83004 1.7364 0 3.144 1.34319 3.144 3h-1v-.0028.0028h-3v-1h2.7324c-.3458-.5978-.9921-1-1.7324-1-.7536 0-1.4099.41686-1.7509 1.03259zm.2928 1.82744.0005.0134-.85994.8259c.57584.6161 1.41404 1.004 2.34714 1.004 1.1104 0 2.0863-.5493 2.6457-1.3786l-.6988-.75451c-.323.67041-1.0089 1.13311-1.8029 1.13311-.6735 0-1.2693-.333-1.6317-.8433z" fill="#f0f3fa" fill-rule="evenodd"/></svg>