<svg height="18" viewBox="0 0 18 18" width="18" xmlns="http://www.w3.org/2000/svg"><path d="m0 0h18v18h-18z" fill="#293d96"/><path d="m5.7 8.75c0-1.82.95-2.77 1.97-3.25l-.54-1.5a5.3 5.3 0 0 0 -3.13 4.75c0 2.8 2 4.75 4.6 4.75s4.43-1.8 4.4-4.5h-1.7c0 1.76-1.02 2.8-2.7 2.8-1.97 0-2.9-1.6-2.9-3.05z" fill="#fdb228"/><path d="m12.3 9c0-1.67-1.27-2.8-2.8-2.8a2.75 2.75 0 0 0 -2.8 2.8h-1.7c0-2.55 1.82-4.5 4.5-4.5 2.33 0 4.5 1.74 4.5 4.5 0 2.12-1 4-3.12 5l-.37-.9c1.45-.64 2.49-2.04 2.49-4.1z" fill="#e32726"/></svg>