<svg height="18" viewBox="0 0 18 18" width="18" xmlns="http://www.w3.org/2000/svg"><path d="m0 0h18v18h-18z" fill="#f0f3fa"/><path d="m8.3 3.32.7-.72 3.3 3.25a5.66 5.66 0 0 1 1.7 3.98c0 2.83-2.3 5.17-5 5.17a5.1 5.1 0 0 1 -5-5.17c0-1.6.68-2.95 1.67-3.97.54-.56 1.1-1.1 1.7-1.6l1.97 1.97c.98.9 2.16 2.03 2.16 3.5 0 1.66-1.2 2.69-2.5 2.69-1.47 0-2.5-1.2-2.5-2.69 0-1.3.94-2.28 1.78-3.13l-.95-.9c-.22.2-.55.47-.96.9a4.62 4.62 0 0 0 -1.37 3.23 4.1 4.1 0 0 0 4 4.14c2.16 0 4-1.9 4-4.14 0-1.16-.53-2.43-1.37-3.22zm.7 4.03c-.64.63-1.5 1.39-1.5 2.38 0 .93.57 1.65 1.5 1.65.78 0 1.5-.59 1.5-1.65 0-.98-.86-1.77-1.5-2.38z" fill="#e02702"/></svg>