<svg height="18" viewBox="0 0 18 18" width="18" xmlns="http://www.w3.org/2000/svg"><path d="m0 9a9 9 0 1 1 18 0 9 9 0 1 1 -18 0z" fill="#072c61"/><path d="m6 7h2.47v1h-1.47v.5h1.47v1h-1.47v.5h1.47v1h-2.47zm-1 3h-.63c-.87 0-1.37-.42-1.37-1.02 0-.61.51-.98 1.35-.98h.65v-1h-.63c-1.27 0-2.37.76-2.37 1.98 0 1.18.96 2.02 2.36 2.02h.64zm3.88-3 1.38 4h.71l1.4-4h-.96l-.79 2.31-.75-2.31zm6.12 4h1l-1.6-4h-.8l-1.6 4h1l.34-.86h1.3zm-1.36-1.72.4-.97.32.97z" fill="#fff"/><path d="m11.65 6s-.7 1.45-1.03 2.2c-.33-.74-1.02-2.2-1.02-2.2h2.04z" fill="#d5d305"/></svg>