<svg height="18" width="18" xmlns="http://www.w3.org/2000/svg"><path d="m0 0h18v18h-18z" fill="#27adea"/><g fill="#fff"><path d="m7.943 6.38.86-.538v2.24l.197.124.197-.123v-2.24l.86.538.197-.368-1.254-.785-1.253.784zm-.51 4.92-.86-.537 1.792-1.12v-.245l-.197-.123-1.792 1.12v-1.077h-.393v1.567l1.253.783z"/><path d="m9 4-4 2.5v5l4 2.5 4-2.5v-5zm-3.607 7.254v-4.508l3.607-2.256 3.607 2.255v4.508l-3.607 2.257-3.607-2.255z"/><path d="m10.568 6.699.86.538-2.428 1.517-2.428-1.517.86-.538-.196-.368-1.253.783v1.566h.393v-1.075l2.428 1.518v3.035l-.86-.538-.197.368 1.253.784 1.254-.784-.197-.368-.86.538v-3.036l2.428-1.517v1.076h.393v-1.567l-1.254-.783z"/><path d="m11.624 9.32v1.075l-1.792-1.12-.196.122v.246l1.792 1.12-.86.538.196.368 1.254-.783v-1.567h-.394z"/></g></svg>