<svg height="18" viewBox="0 0 18 18" width="18" xmlns="http://www.w3.org/2000/svg"><path d="m0 0h18v18h-18z" fill="#f0f3fa"/><path d="m9.7 6v6h2.28c.65 0 1.14-.16 1.5-.46.34-.3.52-.73.52-1.3 0-.35-.08-.63-.25-.86a1.2 1.2 0 0 0 -.7-.47c.26-.1.46-.27.6-.5.15-.22.22-.48.22-.77 0-.54-.18-.95-.54-1.22a2.52 2.52 0 0 0 -1.57-.42zm1.3 4.7v-1.32h1.01c.54.01.76.33.76.7s-.27.63-.83.63h-.94zm.8-2.2h-.8v-1.22h.76c.65 0 .89.24.89.57 0 .49-.25.65-.85.66zm-3.54 2.95c.44-.36.68-.83.73-1.46h-1.26c-.1.55-.62.8-1.12.8s-1.31-.34-1.31-1.6v-.44c.01-1.22.74-1.56 1.31-1.56.45 0 .97.25 1.13.8h1.26a2.04 2.04 0 0 0 -.75-1.46c-.43-.36-1-.54-1.7-.54-.52 0-.96.11-1.35.34s-.68.56-.89.99c-.2.43-.31.92-.31 1.48v.36c0 .88.22 1.57.67 2.08.45.5 1.07.75 1.86.75.72 0 1.3-.18 1.73-.54z"/></svg>