<svg height="18" width="18" xmlns="http://www.w3.org/2000/svg" xmlns:xlink="http://www.w3.org/1999/xlink"><linearGradient id="a" gradientUnits="userSpaceOnUse" x1="3.73" x2="7.59" y1="7.1" y2="10.26"><stop offset=".1" stop-color="#e53e25"/><stop offset="1" stop-color="#eb9b38"/></linearGradient><linearGradient id="b"><stop offset="0" stop-color="#e53e25"/><stop offset="1" stop-color="#eb9b38"/></linearGradient><linearGradient id="c" gradientUnits="userSpaceOnUse" x1="5.12" x2="9.91" xlink:href="#b" y1="3.11" y2="10.96"/><linearGradient id="d" gradientUnits="userSpaceOnUse" x1="6.58" x2="11.29" xlink:href="#b" y1="4.22" y2="10.79"/><linearGradient id="e"><stop offset="0" stop-color="#eb9b38"/><stop offset="1" stop-color="#e53e25"/></linearGradient><linearGradient id="f" gradientUnits="userSpaceOnUse" x1="14.84" x2="8.27" xlink:href="#e" y1="7.68" y2="10.83"/><linearGradient id="g" gradientUnits="userSpaceOnUse" x1="14.62" x2="10.16" xlink:href="#e" y1="10.58" y2="11.55"/><path d="m0 0h18v18h-18z" fill="#f0f3fa"/><path d="m6.48 10.19a4.07 4.07 0 0 0 -3.48-.62l.4.62c2.35-.38 3.43 1.06 3.68 1.81h.64l-3.12-7.78z" fill="url(#a)"/><path d="m8.47 12-3.35-9 3.75 8.4z" fill="url(#c)"/><path d="m9.98 12-3.4-7.78 3.79 7.17-.4.61z" fill="url(#d)"/><path d="m15 7.42c-3.57-1.37-5.85 2.48-6.54 4.58h.62c1.43-4.18 4.33-4.3 5.6-3.84z" fill="url(#f)"/><path d="m14.62 10.22c-3.15-.77-4.4.87-4.64 1.78h.57c.72-1.54 2.78-1.36 3.72-1.07l.35-.7z" fill="url(#g)"/></svg>