<svg height="18" viewBox="0 0 18 18" width="18" xmlns="http://www.w3.org/2000/svg" xmlns:xlink="http://www.w3.org/1999/xlink"><linearGradient id="a" gradientUnits="userSpaceOnUse" x1="4.25" x2="7.7" y1="9.08" y2="7.06"><stop offset="0" stop-color="#00328c"/><stop offset=".49" stop-color="#1794d4"/><stop offset="1" stop-color="#0052a8"/></linearGradient><linearGradient id="b" gradientUnits="userSpaceOnUse" x1="6.79" x2="10.39" y1="8.31" y2="14.13"><stop offset=".03" stop-color="#69b9e8"/><stop offset=".13" stop-color="#3a9fdb"/><stop offset=".51" stop-color="#a8d7f5"/><stop offset="1" stop-color="#0068b7"/></linearGradient><linearGradient id="c" gradientUnits="userSpaceOnUse" x1="9.82" x2="9" y1="4.31" y2="6"><stop offset="0" stop-color="#a8d7f5"/><stop offset="1" stop-color="#0068b7"/></linearGradient><path d="m0 0h18v18h-18z" fill="#f0f3fa"/><path d="m6.06 6c1.2 0 1.8 1.08 1.94 1.62-1.88-.84-2.74 1.97-3.24 1.97s-.76-.45-.76-1.13c0-.69.56-2.46 2.06-2.46z" fill="url(#a)"/><path d="m10.2 7c-.95 0-1.72.37-1.99.56.64 1.24.4 1.74.76 3.98.38 2.24 1.82 2.46 1.99 2.46.16 0 2.04-.52 2.04-3.31 0-2.8-1.63-3.69-2.8-3.69z" fill="url(#b)"/><circle cx="9" cy="5" fill="url(#c)" r="1"/></svg>