<svg fill="none" height="18" viewBox="0 0 18 18" width="18" xmlns="http://www.w3.org/2000/svg"><path d="m0 0h18v18h-18z" fill="#f0f3fa"/><path clip-rule="evenodd" d="m10.2726 10.3334c-.43471.2432-1.30411.9049-1.30411 1.6068-.01699.3533.26489 1.0598 1.52821 1.0598 1.5792 0 2.8935-1.2421 2.8935-2.2677 0-.5006-.4053-1.12333-.8203-1.76091-.4353-.6687-.8811-1.35372-.8811-1.93124 0-1.12816 1.1309-1.57258 1.5894-1.57258.4584 0 .8456.41024.8456.99141 0 .46494-.3328.84707-.4992.98001.4584-.06077 1.3754-.46493 1.3754-1.59537 0-1.41304-2.0173-.72931-2.8426-.2507-.8252.47861-1.518 1.17374-1.518 2.0284 0 .40496.3888 1.021.798 1.6693.4545.71998.934 1.47968.934 2.03428 0 1.0539-.8558 1.2307-1.2939 1.2307s-1.20226-.3875-1.20226-1.1054c0-.5743.26486-.9838.39736-1.1168zm-2.77658-2.99566c.19779-.56324.6429-1.83079-.07561-1.90853-.92557-.10015-3.431 1.75976-3.431 4.74989-.03724.6248.22341 1.8743 1.5639 1.8743s2.57991-1.4117 3.03207-2.11748c-.2447 1.02058-1.31496 3.06168-3.63848 3.06168-.64896.0382-1.9469-.3662-1.9469-2.2891 0-2.40358 2.04266-5.7085 4.94705-5.7085.36172.00954 1.08516.20316 1.08516.90134 0 .87273-1.54795 3.29061-2.39373 3.29061-.11703-.06199-.31598-.3033-.17554-.77257.17554-.58659.43083-.81551.95747-.81551-.01785 0 .01861-.10382.07561-.26613z" fill="#1e397b" fill-rule="evenodd"/></svg>