<svg height="18" viewBox="0 0 18 18" width="18" xmlns="http://www.w3.org/2000/svg" xmlns:xlink="http://www.w3.org/1999/xlink"><linearGradient id="a" gradientUnits="userSpaceOnUse" x1="4" x2="12.65" y1="4.63" y2="12.87"><stop offset="0" stop-color="#00b4d0"/><stop offset=".17" stop-color="#02aac5"/><stop offset=".35" stop-color="#04a0ba"/><stop offset="1" stop-color="#c70041"/></linearGradient><linearGradient id="b" gradientUnits="userSpaceOnUse" x1="12.33" x2="12.74" y1="4.41" y2="13.06"><stop offset="0" stop-color="#00b4d0"/><stop offset=".54" stop-color="#1c355e"/><stop offset="1" stop-color="#e7004c"/></linearGradient><path d="m0 0h18v18h-18z" fill="#f0f3fa"/><path d="m10.7 5.7c.15-.07.57-.27.99-.5l.04-.02c.18-.1.56-.3.81-.52.64-.52-.21-.66-.66-.66-.53 0-1.12.03-1.74.1-3.12.42-6.85 1.95-5.14 4.28-.41.28-.83.7-.96 1.23-.3 1.2.9 2.1 1.78 2.64a11.93 11.93 0 0 0 5.7 1.76c.49.01.85-.03 1.1-.11.9-.28.8-1.07.23-1.55-.44-.37-1.3-.95-2.85-1.73a21 21 0 0 1 -3.86-2.49 43.87 43.87 0 0 1 4.5-2.39l.05-.02zm-4.84 2.09c-.12-.04-.27-.25-.28-.5-.01-.24.08-.45.22-.63.37-.5 1-.82 1.55-1.1a13.53 13.53 0 0 1 4.12-1.23c.7-.08 1.16-.05 1.01.19-.12.18-1.29.74-2.44 1.25a54.05 54.05 0 0 0 -4.18 2.02zm2.92 3.19a13.76 13.76 0 0 1 -3.46-2.22c-.3.22-.7.65-.7 1.17 0 .56.55 1.07 1.18 1.48.92.61 1.98 1.04 3.03 1.38a9.63 9.63 0 0 0 2.1.48c.52.04 2.17.18 1.2-.48-.83-.56-1.78-1.03-2.7-1.49z" fill="url(#a)" fill-rule="evenodd"/><path d="m5.02 8.36-.01.01c-.41.28-.83.7-.96 1.23-.3 1.2.9 2.1 1.78 2.64a11.93 11.93 0 0 0 5.7 1.76c.49.01.85-.03 1.1-.11.71-.22.8-.75.53-1.2 0 0-.2.3-.58.47-.47.2-1.02.15-1.52.11l-.14-.01-.09-.01c-.47-.04-1.2-.2-2-.46a12.8 12.8 0 0 1 -3.03-1.39c-.63-.4-1.18-.92-1.18-1.48 0-.52.4-.95.7-1.17l.02-.01a3.53 3.53 0 0 1 -.32-.38z" fill="url(#b)"/></svg>