<svg height="18" viewBox="0 0 18 18" width="18" xmlns="http://www.w3.org/2000/svg" xmlns:xlink="http://www.w3.org/1999/xlink"><linearGradient id="a" gradientUnits="userSpaceOnUse" x1="6.05" x2="17.43" y1="10.85" y2="12.27"><stop offset=".47" stop-color="#42762c"/><stop offset=".79" stop-color="#88ab52"/></linearGradient><linearGradient id="b" gradientUnits="userSpaceOnUse" x1="7.52" x2="8.73" y1="4.42" y2="13.43"><stop offset=".08" stop-color="#88ab52"/><stop offset=".29" stop-color="#42762c"/></linearGradient><path d="m0 0h18v18h-18z" fill="#f0f3fa"/><path d="m11.66 8.5c-2.2 0-2.57 2.5-4.57 2.5-1.2 0-1.96-.74-2.25-2.28-.12 2.2 1.48 2.84 2.85 2.84 1.36 0 2.41-1.06 3.97-1.06 1.55 0 1.5 1 2.65 1 .31 0 .6-.2.69-.47-1.34.64-1.94-1.71-3.98-1.4 0 0 .38-.23.77-.23 1.35 0 1.85 1.5 3.3 1.4.28-.02.76-.34.91-.8a1 1 0 0 1 -.81.44c-1.4-.04-1.35-1.94-3.53-1.94z" fill="url(#a)"/><path d="m7.4 11.35a2.47 2.47 0 0 1 -2.4-2.41c0-1.41 1.05-2.35 2.4-2.35.69 0 1.3.08 1.86.53a2.37 2.37 0 0 0 -2.02-1.06c-2.92 0-3.88 3.4-2.07 5.29 0 0-1.17-.7-1.17-2.52 0-1.98 1.64-3.33 3.5-3.3.68 0 1.67.23 2.29.53a3.62 3.62 0 0 0 -2.55-1.06c-2.04 0-4.24 1.43-4.24 4 0 2.2 1.59 4 3.8 4 2.82 0 3.23-2.32 5.04-2.5l-1.1-.03c-1.44 0-1.51.88-3.34.88z" fill="url(#b)"/></svg>