<!-- by TradingView --><svg width="18" height="18" viewBox="0 0 18 18" xmlns="http://www.w3.org/2000/svg"><path fill="#F0F3FA" d="M0 0h18v18H0z"/><path d="M3 7.71C3 6.81 5.54 6.19 6.8 6 4.15 7 3.88 7.47 3.88 7.67c0 .2.24.28.64.34C3.31 8.13 3 7.88 3 7.71Z" fill="#FEF104"/><path d="M5 7.68C5 7 7.67 6.18 9 6c-2.79.97-3.2 1.44-3.2 1.63 0 .2.38.28.8.34-1.27.11-1.6-.13-1.6-.3Z" fill="#F6AB00"/><path d="M7 7.78C7 7.23 9.6 6.34 11 6c-2.5.99-3.06 1.51-3.06 1.7 0 .2.13.2.55.26C7.22 8.07 7 7.94 7 7.78Z" fill="#EB6300"/><path d="M5.34 11.5c0-1.47 6.7-5.37 9.66-6.5-6.58 3.66-6.73 4.64-6.73 5 0 .37.32.54 1.37.54s2.83-.45 3.7-.6C9.04 11.68 7.18 12 6.25 12c-.73 0-.92-.33-.92-.5Z" fill="#E50110"/></svg>