<svg height="18" viewBox="0 0 18 18" width="18" xmlns="http://www.w3.org/2000/svg" xmlns:xlink="http://www.w3.org/1999/xlink"><linearGradient id="a" gradientUnits="userSpaceOnUse" x1="9.66" x2="5.58" y1="8.28" y2="12.7"><stop offset="0" stop-color="#dae7f6"/><stop offset="1" stop-color="#004ea1"/></linearGradient><linearGradient id="b" gradientUnits="userSpaceOnUse" x1="8.33" x2="12.4" y1="8.28" y2="12.7"><stop offset=".1" stop-color="#004ea1"/><stop offset="1" stop-color="#dae7f6"/></linearGradient><linearGradient id="c" gradientUnits="userSpaceOnUse" x1="9.26" x2="7.04" y1="4.14" y2="12.91"><stop offset="0" stop-color="#175daa"/><stop offset="1" stop-color="#dae7f6"/></linearGradient><linearGradient id="d" gradientUnits="userSpaceOnUse" x1="8.7" x2="10.92" y1="4.14" y2="12.91"><stop offset=".07" stop-color="#dae7f6"/><stop offset=".81" stop-color="#0752a4"/></linearGradient><path d="m0 0h18v18h-18z" fill="#f0f3fa"/><g fill="#1057a7" fill-rule="evenodd"><path d="m9 15a6 6 0 1 0 0-12 6 6 0 0 0 0 12zm0-.18a5.82 5.82 0 1 0 0-11.64 5.82 5.82 0 0 0 0 11.64z"/><path d="m9 14.3a5.3 5.3 0 1 0 0-10.6 5.3 5.3 0 0 0 0 10.6zm0-.18a5.12 5.12 0 1 0 0-10.24 5.12 5.12 0 0 0 0 10.24z"/><path d="m9 13.76a4.76 4.76 0 1 0 0-9.52 4.76 4.76 0 0 0 0 9.52zm0-.17a4.59 4.59 0 1 0 0-9.19 4.59 4.59 0 0 0 0 9.18z"/></g><path d="m9 6.92-3.86 5.98 3.86-3.97v-2z" fill="url(#a)"/><path d="m9 6.92 3.84 5.97-3.84-3.96v-2z" fill="url(#b)"/><path d="m9 6.94-3.9 5.97 3.9-9.48z" fill="url(#c)"/><path d="m9 6.94 3.86 5.97-3.86-9.48z" fill="url(#d)"/><path d="m7 11h4v1h-4z" fill="#6797ca" opacity=".7"/></svg>