<svg height="18" viewBox="0 0 18 18" width="18" xmlns="http://www.w3.org/2000/svg"><path d="m0 0h18v18h-18z" fill="#f0f3fa"/><path d="m10.64 5.86c1.19 0 2.25.42 2.97 1.1a4.82 4.82 0 0 0 -3.99-1.96 4.67 4.67 0 0 0 -4.34 2.57h1.87a4.1 4.1 0 0 1 3.49-1.71zm-3.5 4.57h-1.85a4.67 4.67 0 0 0 4.33 2.57c1.7 0 3.18-.79 3.99-1.96a4.36 4.36 0 0 1 -2.97 1.1 4.1 4.1 0 0 1 -3.5-1.71zm-3-2.57h2l-.6.57h-1.14c-.12 0-.34.05-.44.14l-.6.72c-.29.28 0 .28.15.28h12.05l-.14.14h-10.42l-.06.08h10.48l-.14.14h-10.45l-.06.07h10.5l-.14.14h-12.76c-.47 0-.4-.28-.3-.43l1.33-1.57c.24-.23.6-.28.74-.28zm1.42 1.43.58-.72h1.74c.1 0 .29-.03.29-.14 0-.12-.2-.14-.29-.14h-1.45l.29-.43h1.74c.2 0 .55.08.44.43l-.15.42c-.1.05-.4.15-.87.15l.15.14h.29l-.3.29h-.72l-.14-.43h-.58l-.3.43zm3.77-1.15c.12-.23.44-.28.58-.28h1.74l-.29.28h-1.45l-.14.29h1.3c.21 0 .11.15-.01.35-.05.07-.1.14-.13.22a.52.52 0 0 1 -.44.29h-2.03l.29-.29h1.6l.14-.29h-1.16c-.35 0-.34-.1-.29-.14zm4.93-.28h-1.96l-1.08 1.43h1.88l.29-.29h-1.3l.65-.86h1.23zm.5 0h.66l-.87 1.14h1.45l-.29.29h-2.03l1.09-1.43z" fill="#005bac"/></svg>