<svg height="18" viewBox="0 0 18 18" width="18" xmlns="http://www.w3.org/2000/svg"><path d="m0 0h18v18h-18z" fill="#f0f3fa"/><g fill="#d92428"><path d="m15 9a6 6 0 1 1 -12 0 6 6 0 0 1 12 0zm-7.75-4.55a.03.03 0 0 0 -.03.03 5.04 5.04 0 0 1 -3.04 5.26.05.05 0 0 0 0 .05l.3.51v.04l-.02.03-.7.4h-.02a.03.03 0 0 1 -.02 0v-.02a5.53 5.53 0 0 1 4.15-7.2c.03-.01.04 0 .04.04v.8a.04.04 0 0 1 -.03.04zm2.82-.02.63.02c.02 0 .03.01.03.03a5.04 5.04 0 0 0 3.02 5.23c.03.01.03.03.02.06l-.3.54a.04.04 0 0 0 0 .03.04.04 0 0 0 .01.02l.75.43c.03.02.05 0 .05-.02a5.58 5.58 0 0 0 -4.24-7.22v.86c0 .01.01.02.03.02zm-4.1 8.32a5.05 5.05 0 0 1 6.07 0h.02l.31-.54c.01-.02.03-.02.05-.01l.75.45a5.59 5.59 0 0 1 -8.37.01v-.03l.73-.42a.04.04 0 0 1 .05.01l.31.52c.02.03.05.03.08.01zm7.2-2.3-.03-.02a.03.03 0 0 1 -.02-.02v-.02l.3-.53v-.03a.03.03 0 0 0 -.01-.02 5.2 5.2 0 0 1 -2.94-5.1.04.04 0 0 0 -.04-.01h-.59s-.02 0-.02-.02l-.02-.02v-1.14c0-.02 0-.03-.02-.03a5.46 5.46 0 0 0 -1.64.04v1.1c0 .04-.02.07-.06.07h-.56c-.03 0-.05.02-.05.05a5.17 5.17 0 0 1 -2.94 5.08.05.05 0 0 0 0 .03l.3.52a.04.04 0 0 1 -.02.05l-.97.56c-.01 0-.02.02-.01.04a6.56 6.56 0 0 0 .8 1.42h.02l.98-.58a.04.04 0 0 1 .06.02l.31.5a.04.04 0 0 0 .06.02 5.42 5.42 0 0 1 2.83-.9c.18-.01.36 0 .55.02h.06a5.51 5.51 0 0 1 2.44.88h.01l.3-.52a.04.04 0 0 1 .06-.01l1.01.58c.03 0 .04 0 .06-.02a5.87 5.87 0 0 0 .8-1.4 19.51 19.51 0 0 1 -1-.6z" fill-rule="evenodd"/><path d="m8.7 5.44c0 .06.03.13.08.13.05.01.1-.04.11-.1.01-.07-.02-.13-.07-.14-.06 0-.1.04-.12.1zm.71.33-.01-.17a.06.06 0 0 1 .07-.06l.14.02a.06.06 0 0 1 .04.08l-.08.15a.06.06 0 0 1 -.05.03h-.04a.06.06 0 0 1 -.06-.05zm-1.01.25.04-.16.01-.02.04-.04a.04.04 0 0 1 .08.03v.18a.05.05 0 0 1 -.04.04l-.07.02a.05.05 0 0 1 -.06-.05z"/><path d="m9.7 7.56h-1.5a.08.08 0 0 0 -.08.04l-.76 1.3a.08.08 0 0 0 0 .09l.75 1.3a.08.08 0 0 0 .07.04h1.52a.08.08 0 0 0 .08-.04l.74-1.3a.08.08 0 0 0 0-.08l-.75-1.31a.08.08 0 0 0 -.07-.04zm-1.45.27-.62 1.07a.08.08 0 0 0 0 .09l.62 1.08a.08.08 0 0 0 .07.04h1.25a.08.08 0 0 0 .07-.04l.62-1.08a.08.08 0 0 0 0-.09l-.62-1.07a.08.08 0 0 0 -.07-.04h-1.25a.08.08 0 0 0 -.07.04z" fill-rule="evenodd"/><path d="m8.38 3.76v1.1c0 .03-.02.04-.04.04h-.6a.05.05 0 0 0 -.04.05 6.06 6.06 0 0 1 -.56 2.82l.44.25a.05.05 0 0 0 .05 0l.02-.02.35-.62a.07.07 0 0 1 .07-.03h1.73a.12.12 0 0 1 .1.06l.4.67.02.02h.03l.5-.3a.04.04 0 0 0 0-.05 5.4 5.4 0 0 1 -.64-2.81c0-.03-.02-.04-.04-.04h-.64v-1.15c0-.01-.01-.02-.03-.02h-1.1c-.01 0-.02 0-.02.02zm.76 1.92.03.02c.04.02.06.04.07.08l.04.13a.06.06 0 0 0 .04.04l.04.01c.03 0 .04.02.03.05a.6.6 0 0 0 0 .42c.02.05.06.06.1.05.02 0 .03-.02.03-.04l.02-.25-.01-.05c-.04-.04-.04-.08 0-.12.13-.15.23-.28.24-.5l-.03-.03a.62.62 0 0 0 -.51.03c-.1.05-.15.02-.17-.08v-.14a.05.05 0 0 1 .04-.03c.1-.01.22 0 .33.04a.05.05 0 0 0 .06-.07c-.07-.1-.15-.1-.24-.1a.7.7 0 0 1 -.1 0c-.1-.01-.14-.06-.12-.15a26.72 26.72 0 0 0 .05-.54c-.09-.14-.14-.13-.14.04a16.6 16.6 0 0 1 -.07.73.06.06 0 0 1 -.08.02l-.05-.05c-.03-.03-.06-.06-.11-.06-.11-.01-.18.03-.22.14a2.8 2.8 0 0 0 -.17.71c-.01.1-.02.18-.08.26-.09.13-.15.27-.2.42 0 .04 0 .06.03.08.02.02.04.02.06.01.06-.03.1-.08.11-.16.03-.16.1-.28.2-.37a.05.05 0 0 1 .1.04l-.02.17c0 .05.02.1.07.13l.06.02c.05 0 .07-.02.06-.07l-.04-.26c0-.03 0-.05.02-.07l.01-.03c.04-.05.06-.08.06-.15v-.23c0-.07.04-.1.11-.1a.05.05 0 0 1 .05.04l.12.8a.05.05 0 0 0 .03.05h.05c.06-.02.1-.06.1-.13.01-.24 0-.48-.05-.71-.01-.05 0-.07.05-.05z" fill-rule="evenodd"/><path d="m11.8 10.16c.06.06.13.07.17.04.03-.04 0-.1-.05-.16-.06-.05-.13-.07-.16-.03-.03.03-.01.1.05.15zm-6.1 0a.05.05 0 0 1 .03-.06c.06-.02.11-.03.16-.02.04 0 .07.02.08.05.02.03 0 .07-.02.1a.33.33 0 0 1 -.13.09h-.02a.05.05 0 0 1 -.06-.03l-.05-.13zm6.38.52c.06.04.13.03.16-.01.02-.05 0-.11-.06-.15-.06-.03-.13-.03-.16.02-.03.04 0 .1.06.14zm-6.03.31c.06-.03.09-.1.06-.14-.02-.05-.1-.06-.15-.02-.06.03-.09.1-.06.14.02.04.1.05.15.02zm.55.01c.08-.02.13-.07.12-.11-.02-.04-.1-.06-.17-.04-.08.03-.13.08-.11.12 0 .05.08.06.16.04zm4.92-.02.17.06.03.01a.05.05 0 0 1 .01.04v.03l-.08.11a.05.05 0 0 1 -.07.02l-.02-.01-.08-.1-.02-.03v-.07a.05.05 0 0 1 .06-.06zm-5.22.13c.02 0 .05-.02.05-.05a.06.06 0 0 0 -.06-.06.06.06 0 0 0 -.05.06c0 .03.02.05.05.05zm-.2.07c.02-.01.04-.04.03-.06-.01-.01-.04-.01-.07 0-.03.02-.04.04-.04.06.01.02.04.02.07 0z"/><path d="m11.68 10.2.24.14c.04.03.05.06.04.1v.01c-.02.05-.05.07-.1.05a19.54 19.54 0 0 1 -.79-.3.08.08 0 0 0 -.05.06c0 .03 0 .05.02.07.21.19.4.27.72.38.02.01.03.03 0 .05l-.05.06a.07.07 0 0 1 -.07.01l-.12-.04h-.06l-.06.04h-.05c-.1-.1-.28-.23-.43-.2a.05.05 0 0 0 -.03.05.05.05 0 0 0 .02.04l.2.15c.02.02.04.02.07.02a.1.1 0 0 1 .06.02c.01.01.03.03.03.05.05.17.15.37.31.45.03.01.04 0 .06-.01l.17-.23a.08.08 0 0 0 .02-.07c0-.08.01-.16.06-.24.02-.04.05-.05.08-.03l.12.05c.06.03.07.07.02.12l-.2.26a.03.03 0 0 0 0 .03c.05.06.13.02.24-.12l.1-.13c.03-.06.08-.07.14-.02a7 7 0 0 0 .42.3c.04.02.08.03.13.03l.03-.02a.05.05 0 0 0 .01-.04.05.05 0 0 0 -.02-.04l-.64-.43c-.03-.03-.04-.06-.03-.1a.07.07 0 0 1 .06-.05c.15 0 .24-.18.14-.3-.16-.21-.4-.4-.6-.57-.1-.07-.15-.16-.2-.26-.06-.1-.12-.2-.23-.28a.07.07 0 0 0 -.1.02v.04c0 .09.08.16.15.23l.05.04c.06.06.1.13.11.23 0 .03 0 .05-.03.07a.05.05 0 0 1 -.07 0c-.07-.08-.23-.17-.31-.06a.06.06 0 0 0 .03.1l.25.09c.02 0 .03.02.04.03l.05.1c.01.03.03.05.05.06zm2.09.86-.94-.54v-.04l.3-.53a.04.04 0 0 0 -.02-.05 5.93 5.93 0 0 1 -2.13-1.9h-.03l-.5.3a.03.03 0 0 0 -.01.04l.32.55a.12.12 0 0 1 0 .11l-.86 1.5a.12.12 0 0 1 -.1.06h-.63l-.02.01v.64c0 .02 0 .04.03.04a5.45 5.45 0 0 1 2.72.84v-.01l.32-.54a.04.04 0 0 1 .04-.01l.96.55h.04v-.01l.53-.92a.06.06 0 0 0 -.02-.08z" fill-rule="evenodd"/><path d="m6.16 10.15c.02.08 0 .15-.08.2a.1.1 0 0 0 -.05.1v.04c.01.05.03.06.07.03l.05-.04c.19-.15.35-.28.6-.36a.07.07 0 0 1 .05 0 .07.07 0 0 1 .04.05c0 .03 0 .06-.04.08-.2.18-.4.34-.58.48-.03.03-.03.05 0 .08l.02.04c.02.03.05.03.08.01l.28-.16.03-.01h.03c.03.02.07.03.1.03.02 0 .04-.01.05-.03a.6.6 0 0 1 .2-.16c.06-.03.1-.01.1.05v.02c0 .06-.02.1-.07.12l-.16.08a.04.04 0 0 0 -.02.03.04.04 0 0 0 .01.04c.13.1.25.08.37.04.07-.02.15-.04.24-.03.05 0 .07.04.05.09a.08.08 0 0 1 -.06.05c-.15.03-.3.05-.45.04-.12 0-.2.04-.31.08l-.04.02a3.2 3.2 0 0 1 -.68.19l-.06-.01c-.11-.07-.14-.17-.1-.3a.05.05 0 0 0 -.03-.06.13.13 0 0 0 -.11 0l-.63.32c-.05.02-.08.01-.1-.03l-.01-.02v-.02c.1-.12.3-.2.46-.26a4.32 4.32 0 0 0 .15-.07.1.1 0 0 0 .01-.12l-.1-.18a.17.17 0 0 1 -.02-.13c0-.03.02-.05.04-.07.03-.02.06-.02.07.02.04.11.08.22.14.3.02.04.05.05.08.02l.12-.08c.02-.02.03-.04.01-.07a.56.56 0 0 0 -.21-.2.08.08 0 0 1 -.04-.05l-.1-.27c0-.01 0-.03.02-.04.15-.1.32-.07.52-.05l.07.01c.02 0 .04 0 .05-.02l.01-.03a.12.12 0 0 1 .05-.04l.2-.11a.06.06 0 0 1 .07.01l.01.03c.04.15-.27.27-.37.29-.02 0-.03.01-.03.03zm-.41 1.4v.01l.31.54c.02.03.04.03.06.02a5.99 5.99 0 0 1 2.79-.91v-.63a.03.03 0 0 0 -.02-.03h-.8a.1.1 0 0 1 -.1-.06l-.87-1.51a.06.06 0 0 1 0-.06l.36-.63a.03.03 0 0 0 0-.03l-.01-.01-.47-.27c-.02-.01-.04-.01-.05.01a5.64 5.64 0 0 1 -2.11 2v.01l.3.52a.04.04 0 0 1 0 .04l-.01.01-.97.56v.02l.53.93a.06.06 0 0 0 .04.03.06.06 0 0 0 .05 0l.94-.56h.01z"/></g></svg>