<svg height="18" viewBox="0 0 18 18" width="18" xmlns="http://www.w3.org/2000/svg"><path d="m0 0h18v18h-18z" fill="#f0f3fa"/><path d="m9 9.56c-.37 0-.67.22-.67.49v2.45l-2.76-1.35a.68.68 0 0 0 -.3-.07c-.62 0-.84.7-.3.97l4 1.95 4.03-1.95c.53-.26.32-.97-.3-.97-.1 0-.2.03-.3.07l-2.72 1.33v-2.43c0-.27-.3-.5-.67-.5z" fill="#fef200"/><path d="m8.43 8.5c.15-.25.06-.56-.2-.7l-2.43-1.34 2.62-1.42c.32-.17.28-.53.08-.78-.18-.23-.5-.36-.8-.2l-3.7 2.04v4.06c0 .35.22.51.5.52.29 0 .5-.17.5-.5v-2.88l2.68 1.38c.27.14.6.06.75-.18z" fill="#71bf45"/><path d="m9.57 8.5c-.15-.25-.06-.56.2-.7l2.42-1.33-2.62-1.42c-.32-.17-.28-.53-.08-.78.18-.23.5-.36.8-.2l3.71 2.03v4.06c0 .35-.22.51-.5.52-.29 0-.5-.17-.5-.5v-2.88l-2.68 1.38a.57.57 0 0 1 -.75-.18z" fill="#ee2d24"/></svg>