<svg height="18" viewBox="0 0 18 18" width="18" xmlns="http://www.w3.org/2000/svg"><path d="m0 0h18v18h-18z" fill="#f0f3fa"/><path d="m4 5h1v2.5h-1zm3 0h1v2.5h-1z" fill="#253886"/><path d="m5.5 5h1v2.5h-1zm3 0h1v2.5h-1zm-4 3h5.5v1h-5.12c-.09 0-.38.1-.38.5s.3.5.38.5h5.12v1.5c0-.5-.41-.5-.5-.5h-5c-.45 0-1.5-.03-1.5-1.5 0-1 1.05-1.5 1.5-1.5zm-1.5 5v-1h6.5c.22 0 .5 0 .5-.5v1.5z" fill="#d93634"/><g fill="#253886"><path d="m15 13h-3l3-3z"/><path d="m11 5h-1v8h1v-3h2.13c.67 0 1.87-.63 1.87-2.5 0-2-1.24-2.5-1.87-2.5zm0 1v3h2c.5 0 1-.5 1-1.5s-.5-1.5-1.13-1.5z" fill-rule="evenodd"/></g></svg>