<svg height="18" viewBox="0 0 18 18" width="18" xmlns="http://www.w3.org/2000/svg"><path d="m0 0h18v18h-18z" fill="#f0f3fa"/><path d="m10.5 13.77a5 5 0 1 0 -.16.05 3.89 3.89 0 0 0 2.17-3.41 3.58 3.58 0 0 0 -3.51-3.41v2.3c.37 0 1.12.2 1.13 1.11 0 .9-.74 1.12-1.13 1.12a2.52 2.52 0 0 1 -2.57-2.52c0-1.13.95-2.54 2.57-2.56a3.78 3.78 0 0 1 3.76 3.76c0 1.92-1.24 2.97-2.26 3.56z" fill="#be8c4b"/><path d="m9 4a5 5 0 1 0 1.34 9.82 3.89 3.89 0 0 0 2.17-3.41 3.6 3.6 0 0 0 -3.51-3.41v2.3c.37 0 1.13.2 1.14 1.11 0 .9-.74 1.12-1.13 1.12a2.52 2.52 0 0 1 -2.57-2.52c0-1.13.95-2.54 2.56-2.56z" fill="#640000"/></svg>