<svg height="18" viewBox="0 0 18 18" width="18" xmlns="http://www.w3.org/2000/svg"><path d="m0 0h18v18h-18z" fill="#f0f3fa"/><path d="m9 14a5 5 0 1 0 0-10 5 5 0 0 0 0 10zm.03-.63c2.43 0 4.4-1.95 4.4-4.37a4.39 4.39 0 0 0 -4.4-4.38 4.39 4.39 0 0 0 -4.4 4.38 4.39 4.39 0 0 0 4.4 4.38z" fill="#8cbf4d" fill-rule="evenodd"/><path d="m14 7.24c0-1.72-1.61-2.88-2.42-3.24a5.11 5.11 0 0 1 1.6 3.62c0 2.93-1.76 4.03-2.18 4.38 1.95-.8 3-2.61 3-4.76zm-.02 3.76c-.62 2.1-2.25 1.76-2.98 1.34 0 .1.82.66 1.47.66 1.35 0 1.6-1.73 1.51-2z" fill="#0457b6"/><path d="m8.58 6h.75l-1.47 6h-.76l1.47-6z" fill="#8cbf4d"/><path d="m9.7 6h.74l-1.47 6h-.75zm1.1 0h.75l-1.47 6h-.75l1.48-6z" fill="#0457b6"/><path d="m11 8.25h-.75l.56-2.25h.74zm-3.53-2.25h.75l-.24 1h-.75zm-.49 2h.75l-.5 2h-.73l.5-2zm-.73 3-.25 1h.75l.24-1z" fill="#8cbf4d"/></svg>