<svg height="18" viewBox="0 0 18 18" width="18" xmlns="http://www.w3.org/2000/svg"><path d="m0 0h18v18h-18z" fill="#f0f3fa"/><path d="m3 7.71c0-.9 2.54-1.52 3.8-1.71-2.65 1-2.92 1.47-2.92 1.67s.24.28.64.34c-1.21.12-1.52-.13-1.52-.3z" fill="#fef104"/><path d="m5 7.68c0-.68 2.67-1.5 4-1.68-2.79.97-3.2 1.44-3.2 1.63 0 .2.38.28.8.34-1.27.11-1.6-.13-1.6-.3z" fill="#f6ab00"/><path d="m7 7.78c0-.55 2.6-1.44 4-1.78-2.5.99-3.06 1.51-3.06 1.7 0 .2.13.2.55.26-1.27.11-1.49-.02-1.49-.18z" fill="#eb6300"/><path d="m5.34 11.5c0-1.47 6.7-5.37 9.66-6.5-6.58 3.66-6.73 4.64-6.73 5 0 .37.32.54 1.37.54s2.83-.45 3.7-.6c-4.3 1.74-6.16 2.06-7.09 2.06-.73 0-.92-.33-.92-.5z" fill="#e50110"/></svg>