<svg height="18" viewBox="0 0 18 18" width="18" xmlns="http://www.w3.org/2000/svg"><path d="m0 0h18v18h-18z" fill="#f0f3fa"/><path d="m5.2 10h1.52a6.6 6.6 0 0 1 -.09-.95h-1.99c.01.97.33 1.87.77 2.55l.18-.13zm1.7 0h.8l.06.51.16-.03-.06-.48h2.45l-.05.49.16.03.06-.52h.6c.06-.31.09-.63.1-.95h-1.75c.22.22.65.4 1.56.43v.19h-3.99v-.2c.91-.03 1.33-.2 1.55-.42h-1.73c0 .32.03.64.08.95zm.86.51.12.82h-.57l.65.67h-.36a4.4 4.4 0 0 0 1.4 1.56 4.41 4.41 0 0 0 1.4-1.56h-.13l.16-1.48-.16-.03-.02.1h-1.55l.02.16h1.5l-.05.5h-1.38l.01.17h1.35l-.06.58h-1.97l-.2-1.52zm-.46 1.49h-.18l-.74-.73.2.73h-.86l-.14-.53-.18.13a4.19 4.19 0 0 0 3.31 1.97 4.64 4.64 0 0 1 -1.39-1.57zm-1.09-1.33h.64l-.02-.16h-.66zm5.09-.67h1.63l-.19.75h-.82l.04-.19h-.76l-.02.18.7.26h.81l-.12.47.19.13c.35-.54.63-1.22.72-1.93h1.52c-.44 2.9-2.79 4.33-6 4.33-3.36 0-6-1.87-6-5.01 0-2.87 2.35-4.99 6-4.99 3.52 0 5.67 1.8 6 4.33h-1.54a3.94 3.94 0 0 0 -.61-1.69c-.38.28-.9.6-1.65.86.12.5.18.82.18 1.33h2.07v.22h-2.07c0 .32-.04.64-.1.95zm-.12.74-.08.68h.7l.09-.42zm1.4.73-.14.53h-1.8c-.35.64-.8 1.2-1.36 1.57a4.19 4.19 0 0 0 3.15-1.57c.11-.13.22-.25.32-.4l-.19-.13zm.18-5a4.34 4.34 0 0 0 -3.52-2 5.07 5.07 0 0 1 1.9 2.86 5.9 5.9 0 0 0 1.62-.85zm-4-2c-1.34.05-2.55.8-3.35 2 .36.27.77.6 1.45.86.3-1.1.9-2.1 1.9-2.86zm-3.46 2.17a3.7 3.7 0 0 0 -.66 2.2h2c-.01-.52.03-.83.16-1.34a5.76 5.76 0 0 1 -1.5-.86zm3.7-1.62s.42-.02.72.08a5.03 5.03 0 0 0 -.73-.63c-.26.2-.5.4-.72.63.3-.1.72-.08.72-.08zm1 .4v.6s-.67.05-.7.45c-.03.24-.05.79-.07 1.25a6.2 6.2 0 0 0 1.74-.32 4.74 4.74 0 0 0 -.97-1.97zm-.77 2.5v.47c0 .17 0 .24.14.44h1.8c0-.5-.04-.76-.17-1.25-.51.17-1.12.32-1.77.35zm-.61.91c.14-.2.13-.27.14-.44v-.46a5.72 5.72 0 0 1 -1.77-.38c-.13.5-.17.78-.17 1.28zm.13-1.1c0-.47-.03-1.02-.05-1.26-.04-.4-.7-.44-.7-.44v-.6c-.51.6-.78 1.21-.98 1.95.5.18 1.07.32 1.73.34z" fill="#00579c"/></svg>