<svg height="18" viewBox="0 0 18 18" width="18" xmlns="http://www.w3.org/2000/svg"><path d="m0 0h18v18h-18z" fill="#f0f3fa"/><path d="m4 10v.7h2.2c-.16-.21-.3-.45-.4-.7zm0-.3h1.69a3 3 0 0 1 -.12-.7h-1.57zm0-1h1.57a3 3 0 0 1 .11-.7h-1.68zm0-1h1.79c.1-.25.23-.48.4-.7h-2.19zm0-1h2.44c.17-.17.36-.33.56-.46v-.28h-3zm0-1.06h3v-.64h-3zm4 0h2v-.64h-2zm3 .6v-.28h3v.74h-2.44a3.39 3.39 0 0 0 -.56-.46zm3 .76h-2.19c.17.22.3.45.4.7h1.79zm0 1h-1.68a3 3 0 0 1 .11.7h1.57zm0 1h-1.57a3 3 0 0 1 -.12.7h1.69zm0 1h-1.8c-.1.25-.24.48-.4.7h2.2zm-.04 1h-2.42c-.28.29-.62.52-1 .7h3.19c.1-.21.19-.44.23-.7zm-.42 1h-4a3.71 3.71 0 0 1 -1.08 0h-4c.4.55 1.11 1 2.35 1 1.23 0 2.02-.47 2.27-.7.18.23.86.7 2.15.7 1 0 1.82-.36 2.3-1zm-9.26-.3h3.18a3.44 3.44 0 0 1 -1-.7h-2.41c.04.22.11.46.23.7zm9.72-6.06h-3v-.64h3z" fill="#002eb6"/><path d="m9 11.72a2.93 2.93 0 0 0 2.97-2.88c0-1.6-1.33-2.88-2.97-2.88a2.93 2.93 0 0 0 -2.97 2.88c0 1.6 1.33 2.88 2.97 2.88zm0-.16a2.7 2.7 0 0 0 2.68-2.72 2.7 2.7 0 0 0 -2.68-2.72 2.7 2.7 0 0 0 -2.68 2.72 2.7 2.7 0 0 0 2.68 2.72z" fill="#002eb6" fill-rule="evenodd"/><path d="m8.06 6.47c-.62.26-1.12.77-1.38 1.41h1.38zm-1.44 1.57a2.61 2.61 0 0 0 0 1.6h1.44v-1.6zm.06 1.76c.26.64.76 1.15 1.38 1.41v-1.41zm1.54 1.47a2.44 2.44 0 0 0 1.56 0v-1.47h-1.56zm1.72-.06a2.54 2.54 0 0 0 1.38-1.41h-1.38zm1.44-1.57a2.61 2.61 0 0 0 0-1.6h-1.44v1.6zm-.06-1.76a2.54 2.54 0 0 0 -1.38-1.41v1.41zm-1.54-1.47v1.47h-1.56v-1.47a2.44 2.44 0 0 1 1.56 0zm-1.56 3.23v-1.6h1.56v1.6z" fill="#e2c136"/></svg>