<svg height="18" viewBox="0 0 18 18" width="18" xmlns="http://www.w3.org/2000/svg"><path d="m0 0h18v18h-18z" fill="#f0f3fa"/><g fill="#204e91"><path d="m12 12.85c-.5.3-.91.6-1.52.79-3.2 1.03-6.47-.21-7.3-2.77-.76-2.4.88-5.09 3.7-6.27a.73.73 0 0 1 -.27.4c-.3.23-2.41 1.97-2.41 4.05s1.99 3.16 3.91 3.16c1.54 0 3.19-.88 3.89-1.34z"/><path d="m12.53 12.57c1.53-1.06 2.45-2.56 2.47-4.1 0-.45-.06-.9-.2-1.34-.8-2.56-3.99-3.8-7.13-2.77l-.14.05-.93 2.09a7.69 7.69 0 0 1 3.76-1.25c2.01 0 3.64 1.4 3.64 3.58 0 1.65-.86 3.07-1.47 3.74z"/><path d="m7.12 7-1.12 4h1.35l.56-2 .5 2h1.14l1.1-2-.25 2h1.31l.29-4h-1.53l-1.26 2.33-.66-2.33z"/></g></svg>