<svg height="18" viewBox="0 0 18 18" width="18" xmlns="http://www.w3.org/2000/svg" xmlns:xlink="http://www.w3.org/1999/xlink"><linearGradient id="a" gradientUnits="userSpaceOnUse" x1="7.68" x2="8.38" y1="4.01" y2="7.59"><stop offset="0" stop-color="#ff7000"/><stop offset="1" stop-color="#fede00"/></linearGradient><linearGradient id="b" gradientUnits="userSpaceOnUse" x1="10.56" x2="9.31" y1="4.31" y2="7.75"><stop offset="0" stop-color="#f4670d"/><stop offset="1" stop-color="#fede00"/></linearGradient><linearGradient id="c" gradientUnits="userSpaceOnUse" x1="5.41" x2="7.59" y1="6.5" y2="7.91"><stop offset="0" stop-color="#fa6c0a"/><stop offset="1" stop-color="#fedf02"/></linearGradient><linearGradient id="d" gradientUnits="userSpaceOnUse" x1="12.59" x2="9.94" y1="6.34" y2="8.06"><stop offset="0" stop-color="#fd6b04"/><stop offset="1" stop-color="#ffdc00"/></linearGradient><linearGradient id="e" gradientUnits="userSpaceOnUse" x1="4.31" x2="7.75" y1="9" y2="9"><stop offset="0" stop-color="#fe6900"/><stop offset="1" stop-color="#ffe206"/></linearGradient><linearGradient id="f" gradientUnits="userSpaceOnUse" x1="13.69" x2="9.94" y1="8.84" y2="8.84"><stop offset="0" stop-color="#fe6701"/><stop offset="1" stop-color="#fed600"/></linearGradient><path d="m0 0h18v18h-18z" fill="#f0f3fa"/><path d="m8.12 4.1a6.42 6.42 0 0 0 .85.21l.01.04a47.17 47.17 0 0 0 -.1 3.44c0 .06-.02.12-.04.18a.11.11 0 0 1 -.05.06.1.1 0 0 1 -.08 0 .36.36 0 0 1 -.19-.12l-2.12-2.68c-.02-.02-.02-.04 0-.06.08-.1.17-.17.23-.27a4 4 0 0 1 .57-.75c.22-.21.67-.13.93-.05z" fill="url(#a)"/><path d="m11.4 5.6-1.9 2.34c-.06.08-.14.1-.22.05a.08.08 0 0 1 -.03-.05 1.04 1.04 0 0 1 -.05-.28c-.02-.98-.06-1.96-.1-2.94v-.36c0-.02 0-.04.03-.05l.08-.02.08-.01.63-.2c.37-.14.74-.1 1 .2a44.47 44.47 0 0 0 .77.94c0 .02 0 .04-.02.05z" fill="url(#b)"/><path d="m6.77 6.01-.48-.68a.05.05 0 0 0 -.03-.02h-.04c-.19.12-.4.2-.63.27-.42.12-.86.34-.86.88a93.7 93.7 0 0 1 .03 1.11l.85.2 2.33.62c.09.02.18.02.27 0a.1.1 0 0 0 .06-.06.11.11 0 0 0 .01-.09 1 1 0 0 0 -.14-.29 80.8 80.8 0 0 1 -.83-1.2c-.17-.25-.36-.49-.54-.74z" fill="url(#c)"/><path d="m11.44 8.03 1.82-.45a.03.03 0 0 0 .03-.03c-.03-.37-.04-.73-.04-1.08 0-.4-.18-.66-.53-.8a17.66 17.66 0 0 1 -.92-.36.06.06 0 0 0 -.03.03l-.95 1.36-.91 1.24c-.06.08-.12.18-.15.28a.15.15 0 0 0 0 .12.14.14 0 0 0 .1.08l.1-.01z" fill="url(#d)"/><path d="m5.72 10.05-.96.36h-.04a2.7 2.7 0 0 1 -.64-1.02c-.23-.43.07-.85.33-1.2l.1-.13c.04-.06.07-.14.1-.22l.07-.13c.01-.02.03-.03.05-.02l.65.2 2.48.83c.1.03.18.08.27.14.03.01.04.04.05.07 0 .03 0 .07-.02.1a.28.28 0 0 1 -.14.11c-.78.32-1.55.62-2.3.9z" fill="url(#e)"/><path d="m11.76 9.84c-.5-.15-1-.34-1.48-.56a1.72 1.72 0 0 1 -.36-.22.14.14 0 0 1 -.06-.1.14.14 0 0 1 .04-.1.32.32 0 0 1 .15-.1l2.15-.7 1.06-.34c.04-.01.06 0 .08.04.07.2.2.39.32.57s.24.35.3.54c.13.39-.11.7-.34 1a5.42 5.42 0 0 0 -.4.55c-.46-.22-.95-.41-1.46-.58z" fill="url(#f)"/><path d="m9.08 9.26 4.1 1.28.04.02.01.04-.06.89c-.03.49-.27.8-.71.94-.34.1-.62.23-.86.36-.24.15-.43.49-.59.73-.26.4-.65.59-1.11.42-.33-.13-.73-.28-1.08-.2-.22.05-.44.1-.67.17-.25.07-.7.12-.9-.05a1.8 1.8 0 0 1 -.36-.38c-.2-.3-.42-.67-.75-.82l-.73-.3c-.39-.15-.59-.44-.6-.9a84.35 84.35 0 0 0 -.03-.9l.03-.03 4.05-1.27a.37.37 0 0 1 .22 0z" fill="#f00"/></svg>