<svg height="18" viewBox="0 0 18 18" width="18" xmlns="http://www.w3.org/2000/svg" xmlns:xlink="http://www.w3.org/1999/xlink"><linearGradient id="a" gradientUnits="userSpaceOnUse" x1="5.98" x2="11.08" y1="5.05" y2="13.53"><stop offset="0" stop-color="#d93f36"/><stop offset=".1" stop-color="#e97c5f"/><stop offset=".19" stop-color="#ea8364"/><stop offset=".34" stop-color="#cf4437"/><stop offset=".51" stop-color="#cf202d"/><stop offset=".68" stop-color="#96282b"/><stop offset=".99" stop-color="#6e282a"/></linearGradient><linearGradient id="b" gradientUnits="userSpaceOnUse" x1="6.6" x2="10.38" y1="6.6" y2="11.4"><stop offset="0" stop-color="#faf6c9"/><stop offset=".42" stop-color="#f2ce7a"/><stop offset=".76" stop-color="#d99024"/><stop offset=".99" stop-color="#bb7826"/></linearGradient><path d="m0 0h18v18h-18z" fill="#f0f3fa"/><circle cx="9" cy="9" fill="url(#a)" r="5"/><path d="m5.52 11-1.16-.13c0 .2.57 1.1.94 1.51 3.94.07 7.2-1.07 8.4-1.66l.14-.46c.07-.26.1-.5.1-.5-.41.26-1.64.58-2.23.72l1.17-4.62-.2-.26-.26-.26c-.63.6-1.59 1-2 1.16l.21-.75c.05-.36-.22-.22-.37-.11a8.85 8.85 0 0 1 -2.24 1.36l.25-.8c.06-.38-.22-.25-.37-.14a9.2 9.2 0 0 1 -2.24 1.38l-.14.65c.57-.3.7-.05.68.1l-.68 2.82zm2.36-3.3-.8 3.33h.73l.73-3.12c.05-.26-.13-.28-.23-.26zm1.5 3.19.86-3.55.43-.05c.1-.02.28 0 .24.26l-.76 3.23-.77.1z" fill="url(#b)" fill-rule="evenodd"/></svg>