<svg height="18" viewBox="0 0 18 18" width="18" xmlns="http://www.w3.org/2000/svg"><path d="m0 0h18v18h-18z" fill="#004098"/><path d="m13.86 10.38a4.8 4.8 0 0 1 -3.45 2.47 6.45 6.45 0 0 1 -3.86-.33 4.4 4.4 0 0 1 -2.4-2.13c-.02-.03-.05-.06-.1-.06h-2.03v-.03l-.02-2.6a.05.05 0 0 1 .01-.03h.02l.01-.01h2.06l.02-.01.02-.02a4.4 4.4 0 0 1 2.36-2.13 6.46 6.46 0 0 1 4.38-.22 4.62 4.62 0 0 1 2.99 2.38h2.07l.02.01.02.01.02.03v2.6a.03.03 0 0 1 -.02.02h-2.06c-.03 0-.05.02-.06.05z" fill="#fde512"/><path d="m9.9 6.15a9 9 0 0 1 -1.79 0c-.04 0-.05-.02-.03-.06l.6-.88a.1.1 0 0 1 .04-.04.1.1 0 0 1 .04 0h.48a.1.1 0 0 1 .05 0 .1.1 0 0 1 .03.04l.6.89c.01.03 0 .05-.03.05zm-1.34-.95-.61.92h-.02l-.7-.12h-.01v-.04l.8-.7v-.01l.52-.07h.02a.02.02 0 0 1 0 .03zm1.42.04.8.7v.03l-.02.01-.7.15-.01-.01-.6-.91a.02.02 0 0 1 0-.04h.01l.51.07zm-3.32.38c.36-.16.73-.26 1.09-.33.04 0 .04 0 .01.03l-.65.6a.07.07 0 0 1 -.07 0l-.57-.18c-.05-.02-.05-.03 0-.05zm3.58-.33a7.33 7.33 0 0 1 1.3.43l-.01.01-.01.01-.52.18a.12.12 0 0 1 -.13-.03l-.64-.58a.02.02 0 0 1 0-.02zm-4 .51.7.24v.02a.02.02 0 0 1 0 .02l-.55.57h-.02l-.85-.36v-.01a.02.02 0 0 1 0-.03l.7-.44a.02.02 0 0 1 .02 0zm4.83.3a.03.03 0 0 1 0-.05h.02l.6-.22a.1.1 0 0 1 .07 0c.07.01.14.05.2.09.18.1.34.21.49.32.03.02.03.04 0 .06l-.8.34c-.02 0-.04 0-.06-.02zm-3.99 0 .77.15.01.01a.03.03 0 0 1 0 .03l-.37.65v.01h-.02l-.95-.24-.01-.02a.03.03 0 0 1 0-.02l.55-.57zm4.4.6-.95.25h-.02l-.37-.67v-.02l.02-.01.75-.15h.02l.56.57a.02.02 0 0 1 0 .02v.01zm-1.11.28a8.6 8.6 0 0 1 -2.77-.02v-.01l.37-.64c.01-.03.04-.05.08-.04a7.02 7.02 0 0 0 1.96.01.1.1 0 0 1 .04.04l.34.62c0 .02 0 .03-.02.04zm-4.98-.58.8.36c.02 0 .02.02 0 .04-.25.28-.48.56-.68.84a.07.07 0 0 1 -.06.02h-1.05c-.03 0-.03 0-.02-.03.24-.48.56-.89.96-1.22a.04.04 0 0 1 .05 0zm6.41.35c.26-.1.52-.2.77-.34a.08.08 0 0 1 .1 0 3.68 3.68 0 0 1 .95 1.24v.01h-1.09l-.03-.02-.71-.86a.02.02 0 0 1 0-.02v-.01zm-6.1.88.66-.8h.02l.95.25.01.01a.02.02 0 0 1 0 .02l-.26.55h-1.38a.02.02 0 0 1 0-.03zm5.22.02-.26-.54a.02.02 0 0 1 0-.02h.01l.94-.27a.02.02 0 0 1 .02.01l.68.8v.01a.02.02 0 0 1 0 .02h-1.39zm-3.69 0 .28-.53.03-.01a8.95 8.95 0 0 0 2.95.02 16.36 16.36 0 0 1 .27.54h-3.52v-.02zm-4.9.35h13.37v2l-.02.01h-13.38v-1.99a.03.03 0 0 1 0-.02.03.03 0 0 1 .02 0z" fill="#004098"/><path d="m4.12 8.61c-.17-.11-.39-.02-.42.19-.04.23-.07.64.26.64.14 0 .24-.1.28-.29a.02.02 0 0 1 .02-.01l.36.12.01.02c-.07.34-.28.51-.63.52-.46.02-.72-.22-.77-.7-.03-.24.03-.54.2-.72.21-.2.59-.21.82-.13.17.05.29.19.36.4a.05.05 0 0 1 0 .03h-.02l-.01.02-.3.07c-.03 0-.05 0-.06-.02-.04-.05-.05-.1-.1-.14zm4.98-.04c-.34-.05-.35.3-.33.57 0 .16.09.3.25.3s.25-.08.3-.26v-.02h.01a.04.04 0 0 1 .03-.01l.32.1c.03.02.04.03.03.06-.1.36-.35.53-.76.49-.37-.03-.6-.28-.63-.66-.03-.27.02-.6.21-.77.22-.2.6-.2.83-.1.15.05.26.17.33.36.02.04 0 .06-.03.07l-.27.06c-.04.01-.07 0-.1-.04-.04-.07-.1-.14-.18-.15zm2.33.56v.25h.01l.01.02h.72a.03.03 0 0 1 .03 0 .03.03 0 0 1 0 .03v.31l-.03.01h-1.17l-.01-.03v-1.48a.04.04 0 0 1 .01-.04h1.18l.01.02v.31h-.03l-.68.01-.02.01-.02.02v.18l.02.02.02.01h.63l.02.01.01.02v.28h-.66l-.02.02-.02.02zm3.35-.48c.01.02 0 .03-.02.04l-.31.08h-.04a.05.05 0 0 1 -.02-.02c-.08-.16-.2-.21-.33-.18-.25.08-.23.44-.2.66.05.21.27.26.43.15.05-.03.09-.12.1-.2.01-.02.04-.04.07-.03l.3.1c.03.01.05.03.04.07-.1.3-.3.47-.6.48-.46.02-.72-.19-.8-.63-.02-.16 0-.33.04-.49.11-.39.44-.5.78-.47a.6.6 0 0 1 .56.44zm-8.54 1.13h-.4l-.01-.02v-1.53h.42l.01.01.45.78c.03.04.04-.02.04-.03v-.75h.02l.38-.01h.02v1.55h-.41l-.02-.01-.45-.78c-.01-.02-.03 0-.03.02v.75a.02.02 0 0 1 0 .01.02.02 0 0 1 -.02.01z" fill="#fde512"/><path d="m6.2 11.25c-.28.11-.54.22-.8.36a.05.05 0 0 1 -.06-.01 3.74 3.74 0 0 1 -.96-1.25.02.02 0 0 1 .02-.02h1.03c.03 0 .05.01.06.03l.71.86zm.88-.9.26.54a.03.03 0 0 1 0 .03h-.02l-.93.26h-.02v-.01l-.67-.8v-.03h1.37zm.76.49-.24.04c-.05.01-.09 0-.1-.05l-.25-.43c-.02-.05 0-.07.04-.07h3.47v.02l-.28.53h-.02a9.8 9.8 0 0 0 -2.62-.04zm3.78.33-.95-.24h-.01v-.02a.02.02 0 0 1 0-.01l.27-.56h1.38v.03l-.67.8zm.96.43a5 5 0 0 0 -.78-.34c-.03-.01-.03-.03 0-.05a10.82 10.82 0 0 0 .72-.87h1.1a.03.03 0 0 1 0 .03 3.5 3.5 0 0 1 -.97 1.23.06.06 0 0 1 -.07 0zm-4.82-.59a8.02 8.02 0 0 1 2.63.04v.01l-.35.63c-.02.03-.05.05-.08.04a7.44 7.44 0 0 0 -1.97 0 .06.06 0 0 1 -.02-.03l-.35-.63a.03.03 0 0 1 0-.03l.02-.01zm-1.24.29.95-.25a.02.02 0 0 1 .02.01l.37.66a.02.02 0 0 1 0 .02l-.02.01-.76.16h-.02l-.55-.57v-.03zm4.39.61-.76-.16a.02.02 0 0 1 -.01 0v-.03l.37-.66.02-.01.94.25h.01v.04l-.55.56v.01zm-5.39-.19.84-.37h.02l.56.57v.01a.02.02 0 0 1 0 .02l-.01.01-.7.24h-.01l-.7-.44a.02.02 0 0 1 0-.03zm5.54.2.53-.54.03-.02h.03l.76.33c.07.03.08.06.01.1l-.6.38a.14.14 0 0 1 -.12 0l-.63-.21a.02.02 0 0 1 -.02-.02v-.02zm-1.16 0-.58.88a.09.09 0 0 1 -.08.04h-.46a.12.12 0 0 1 -.11-.06l-.59-.88v-.03h.02c.6-.09 1.2-.09 1.78 0 .04 0 .05.02.03.05zm-2 .74c-.24-.2-.46-.4-.68-.61v-.01a.02.02 0 0 1 0-.02l.7-.14h.03l.04.04c.17.3.36.59.57.88.03.02.02.04-.01.03a5.37 5.37 0 0 0 -.38-.04.47.47 0 0 1 -.28-.13zm1.54.14.6-.91h.01l.02-.01.7.14h.01v.01a.02.02 0 0 1 0 .03l-.8.7-.01.01-.5.06h-.02a.02.02 0 0 1 0-.03zm-2.95-.54.52-.18a.1.1 0 0 1 .1.02l.66.6a6 6 0 0 1 -1.29-.38c-.04-.02-.04-.04 0-.06zm4.86.13c-.37.15-.74.26-1.1.33-.04 0-.05 0-.01-.04l.65-.59a.07.07 0 0 1 .07-.01l.56.18c.04.01.04.03 0 .05z" fill="#004098"/></svg>