<svg height="18" viewBox="0 0 18 18" width="18" xmlns="http://www.w3.org/2000/svg"><path d="m0 0h18v18h-18z" fill="#f0f3fa"/><path d="m8.9 4c1.36 0 1.88.31 1.97.47-3.43 0-4.32 1.9-4.32 3.42 0 1.53.84 2.36 1.9 2.36 1.53 0 2-1.4 2.17-1.4s.26.52.26.88c0 2.59-2.38 3.33-3.4 3.33-1.03 0-3.48-.81-3.48-4.2 0-3.4 3.2-4.86 4.9-4.86z" fill="#df2422"/><path d="m9.1 14c-1.36 0-1.88-.31-1.97-.47 3.43 0 4.32-1.9 4.32-3.42 0-1.53-.84-2.36-1.9-2.36-1.53 0-2 1.4-2.17 1.4s-.25-.52-.25-.88c0-2.59 2.37-3.33 3.4-3.33 1.02 0 3.47.81 3.47 4.2 0 3.4-3.2 4.86-4.9 4.86z" fill="#08287e"/></svg>