<svg height="18" viewBox="0 0 18 18" width="18" xmlns="http://www.w3.org/2000/svg"><path d="m0 0h18v18h-18z" fill="#f0f3fa"/><path d="m9.7 5.01v-1.61l-.6 1.19c-1.34-.86-2.64-1.06-3.42-.4-.9.8-.83 2.56.05 4.4-1.42 1.46-2.09 2.93-1.54 3.7.55.78 1.83.98 3.49.3v-1.13c-1.3.65-2.4.79-2.81.28-.45-.55.04-1.51 1.12-2.64a10.52 10.52 0 0 0 1.69 2.28v-1.62a10.36 10.36 0 0 1 -.94-1.38 12.9 12.9 0 0 1 2.96-2.11v-.46a14.14 14.14 0 0 0 -3.21 2.09c-.72-1.56-.74-2.96-.25-3.45.59-.58 2.15.1 3.46 1.17v-.62zm-1.4 6.43v3.56l.9-2.37c1.33.85 2.62 1.04 3.4.37.9-.78.83-2.55-.06-4.41.88-1.28 1.2-2.46.78-3.05-.44-.63-1.63-.53-3 0l-.32-.26v.85l.18-.08c.27.25.52.53.74.8.34.43.63.87.88 1.3a14.88 14.88 0 0 1 -2.59 2.39v.33l.58.52c.99-.73 1.82-1.55 2.44-2.36.6 1.37.65 2.58.04 3.1-.53.41-1.56.15-2.66-.6a9.7 9.7 0 0 1 -1.31-1.1v1.02zm1.2-2.58c-.32.3-.74.34-.93.1-.19-.23-.08-.65.24-.95.33-.3.75-.34.94-.11.2.23.08.66-.24.96zm2.6-1.1c.66-.89.93-1.66.6-2.08-.27-.32-1.07-.23-2.08.17a10.57 10.57 0 0 1 1.47 1.92z" fill="#004da0" fill-rule="evenodd"/></svg>