<svg height="18" viewBox="0 0 18 18" width="18" xmlns="http://www.w3.org/2000/svg"><path d="m0 0h18v18h-18z" fill="#f0f3fa"/><path d="m5.15 8h-3.15l1.05-1h2.1zm10.85 0h-3.15l1.05-1h2.1z" fill="#0268b7"/><path d="m3 8.23h-1v2.77l1-.92zm11 0h-1v2.77l1-.92z" fill="#0267b8"/><path d="m5.15 10h-1.75l-1.05 1h2.8zm10.85 0h-1.75l-1.05 1h2.8z" fill="#006bbe"/><path d="m8.65 8h-3.15l1.05-1h2.1z" fill="#0268b7"/><path d="m6.55 8.23h-1.05v2.77l1.05-.92z" fill="#0267b8"/><path d="m8.65 10h-1.75l-1.05 1h2.8z" fill="#006bbe"/><path d="m7.25 8.54h1.4v.92h-1.4z" fill="#0268b7"/><path d="m9.35 10h3.15l-1.05 1h-2.1zm2.1-.23h1.05v-2.77l-1.05.92zm-2.1-1.77h1.75l1.05-1h-2.8zm1.4 1.46h-1.4v-.92h1.4z" fill="#e40112"/></svg>