<svg height="18" viewBox="0 0 18 18" width="18" xmlns="http://www.w3.org/2000/svg"><path d="m0 0h18v18h-18z" fill="#024e97"/><path d="m9 7.35-.04.04-1.56 1.57-.05.04 1.65 1.66.04-.05 1.56-1.56.05-.05-.05-.04zm0 3.13-1.47-1.48 1.47-1.47 1.46 1.47zm6.6-2.27-.65-.68h-.8a5.3 5.3 0 0 0 -1.37-2.33 5.31 5.31 0 0 0 -3.78-1.57h-.14v-.98l-.65-.65-.68.65v1.17a5.37 5.37 0 0 0 -3.88 5.18v.14h-.6l-.65.65.65.68h.8a5.33 5.33 0 0 0 5.15 3.9h.13v.98l.65.65.68-.65v-1.17a5.36 5.36 0 0 0 3.9-5.18v-.13h.59zm-7.92-1.5v-4l.59-.57v4.78l-1.35 1.34h-2.39l.55-.57h1.63zm-4.58 3.61-.57-.58h4.4l1.34 1.35v2.39l-.58-.55v-1.63l-.98-.98h-3.6zm7.22.98v4l-.59.58v-4.79l1.35-1.35h2.4l-.56.58h-1.63zm.15 2.55v-2.5l.87-.88h1.63l.65-.68-.65-.65h-2.16l-1.67 1.68v3.24h-.14a5.03 5.03 0 0 1 -4.83-3.59h2.49l.87.88v1.65l.68.65.65-.65v-2.17l-1.68-1.69h-3.22v-.14c0-2.28 1.5-4.22 3.57-4.85v2.5l-.88.88h-1.62l-.66.68.66.66h2.15l1.68-1.68v-3.24h.14a5 5 0 0 1 4.82 3.58h-2.48l-.87-.87v-1.63l-.69-.66-.64.65v2.18l1.67 1.68h3.22v.14c0 2.28-1.49 4.22-3.56 4.84zm.6-5.59-1.33-1.34v-2.42l.59.58v1.62l.97.98h3.6l.58.57h-4.4z" fill="#fff"/></svg>