<svg height="18" viewBox="0 0 18 18" width="18" xmlns="http://www.w3.org/2000/svg"><path d="m0 0h18v18h-18z" fill="#1896e3"/><path d="m15 9.02v-.02a6 6 0 0 0 -11.89-1.15c.2.57 1.45 1.66 4.9 1.66.74 0 2.39-.07 2.96-.37l-.33-.37c.63 0 2.1-.1 2.97-.35-.45.5-2.15 1.53-5.32 1.61-2.94.08-4.67-.68-5.29-1.16a6.1 6.1 0 0 0 .02.65c.39.87 2.53 1.33 3.98 1.36 1.19.02 2.35-.1 2.78-.15-.08-.1-.26-.32-.3-.32.93.04 2.48-.08 3.13-.14-.74.6-2.83 1.11-5.6 1.11-2.17 0-3.44-.61-3.84-.94.1.37.22.72.37 1.05 1.44.91 4.07.88 5.23.75l-.24-.3c.6.08 2.37.1 3.17.11-.12.11-1.99.82-4.5.77-1.89-.04-2.9-.36-3.23-.55.24.36.51.7.82 1a14.11 14.11 0 0 1 .82-.35l.27-.07.11-.01.07.08c.16.2.43.52.7.82.25.28.5.54.67.68.17-.06.35-.12.54-.16l-.58-.96.35-.2.64 1.08c.15-.03.3-.04.45-.05v-1.03h.4v1.02c.19 0 .37.02.56.04.19-.3.54-.86.84-1.42l.06-.1h.12a5.32 5.32 0 0 1 1.21.24c.32-.5.57-1.02.75-1.5-.35-.09-.66-.15-.86-.18l.06-.4c.22.04.56.1.93.2.2-.6.3-1.15.34-1.57h-.17v-.43h1.93zm-.02.41h-1.33a7.83 7.83 0 0 1 -.36 1.66c.43.12.87.25 1.18.38.28-.63.46-1.32.51-2.04zm-.69 2.4c-.28-.12-.69-.24-1.11-.35h-.02c-.18.49-.43 1.01-.74 1.52l.75.31c.45-.43.83-.93 1.12-1.48zm-1.44 1.77a7.2 7.2 0 0 0 -.66-.25c-.3.44-.66.87-1.08 1.26a6 6 0 0 0 1.74-1zm-2.3 1.2a3.7 3.7 0 0 0 -.7-.22 4.17 4.17 0 0 0 -1.54.01c-.25.04-.55.13-.8.22a6 6 0 0 0 3.04-.01zm-3.65-.18.1-.05a24.63 24.63 0 0 1 -1.17-1.3 2.76 2.76 0 0 0 -.4.16l-.32.14a6 6 0 0 0 1.79 1.05zm4.56-10.5-.46 1.31-1.3-.54.47-1.3 1.3.55zm-3.18.79-.44-1.31-1.31.5.44 1.3 1.31-.5zm-2.12 1.18-1.16-.76-.73 1.2 1.15.76.73-1.2zm6.47 1.26 1.17-.75-.7-1.22-1.17.75zm-.87 5.87h.03c-.3.43-.66.84-1.07 1.21a5.12 5.12 0 0 0 -.51-.18c.18-.3.45-.75.7-1.2.2.02.5.07.85.17z" fill="#fff" fill-rule="evenodd"/><path d="m7 7h4v1h-4z" fill="#1896e3" fill-opacity=".7"/></svg>