<svg height="18" viewBox="0 0 18 18" width="18" xmlns="http://www.w3.org/2000/svg" xmlns:xlink="http://www.w3.org/1999/xlink"><linearGradient id="a" gradientUnits="userSpaceOnUse" x1="4.53" x2="11.69" y1="4.84" y2="14.22"><stop offset="0" stop-color="#1881b8"/><stop offset=".16" stop-color="#258cc1"/><stop offset=".4" stop-color="#145f9a"/><stop offset=".65" stop-color="#15528e"/><stop offset="1" stop-color="#2874b9"/></linearGradient><path d="m0 0h18v18h-18z" fill="#f0f3fa"/><circle cx="9" cy="9" fill="url(#a)" r="6"/><path d="m7 8.54v.82c0 1.1.69 1.52.92 1.64h2.13-.1l.09-.05c.09-.02.96-.3.96-1.58v-2.87c-.01-.51-.01-.8.07-.9a4.24 4.24 0 0 1 1.4 1.57c.27.59.53 1.37.53 2.07 0 .62-.15 1.22-.36 1.75l-.23.4h-6.81l-.04-.04a.9.9 0 0 1 -.21-.33 4.9 4.9 0 0 1 -.35-1.77c0-.7.25-1.49.52-2.07.17-.33.37-.61.6-.89.22-.23.55-.5.8-.67.09.09.09.4.08.96zm2 3.01c1.61 0 2.92.14 2.92.14s-1.3.13-2.92.13-2.93-.13-2.93-.13 1.31-.14 2.93-.14zm0 .73c-1.4 0-2.54-.16-2.54-.16s1.14-.15 2.54-.15 2.53.15 2.53.15-1.13.16-2.53.16zm1.83.35s-.82-.16-1.83-.16c-1.02 0-1.84.16-1.84.16a10.51 10.51 0 0 0 3.67 0z" fill="#fff"/></svg>