<svg fill="none" height="18" viewBox="0 0 18 18" width="18" xmlns="http://www.w3.org/2000/svg"><path d="m0 0h18v18h-18z" fill="#f0f3fa"/><path d="m15 5h-1.4237l.704 1.24402zm-2.3625 0 1.1734 2.07336.3755-.6539-.7979-1.41946zm.3912 1.07143-.6415-1.07143h-.6884l.6415 1.07143z" fill="#005bab"/><path d="m12.6845 6.75439.6571 1.14832.3599-.60606-.6728-1.22522zm-.6415-.68296-.6414-1.07143h-.6415l.6415 1.07143zm.1721 1.5123.6571 1.16428.3286-.57417-.6571-1.16427zm-.4693.82935.6571 1.16427.2972-.51036-.6571-1.16428zm-.7041-2.34165-.6414-1.07143h-.59454l.64144 1.07143zm.2347 3.17099.6571 1.16428.266-.46252-.6571-1.16428zm-1.236-3.17099-.64142-1.07143h-.53195l.64146 1.07143zm-1.00127 0-.64146-1.07143h-.46936l.64146 1.07143zm1.76797 4.00037.6571 1.1642.2346-.4146-.6571-1.1643zm-2.76927-4.00037-.64146-1.07143h-.40678l.62581 1.07143zm2.28427 4.84567.6727 1.1483.2034-.3509-.6571-1.1643zm-3.28558-4.84567-.64146-1.07143h-.35984l.64146 1.07143zm2.81617 5.67497.65711 1.1643.1877-.319-.6571-1.1643zm-3.81747-5.67497-.64146-1.07143h-.29726l.64146 1.07143zm3.34811 6.50437.65707 1.1642.1565-.2711-.65712-1.1643zm-4.58409-6.50437h.23468l-.64146-1.07143h-.23468zm4.11473 7.33367.6571 1.1643.12517-.2074-.65711-1.1642z" fill="#005bab"/><path d="m9.03911 6.0714 2.00259 3.58567.2347-.41467-1.76793-3.171zm-3.2073 2.83607c-.07822 0-.15645-.01595-.23468-.0319l2.94133 5.19933.39114-.6858-2.62843-4.59327c-.1408.06379-.29726.11164-.46936.11164zm0-2.20096c.09387 0 .1721.01595.26597.0319l-.34419-.66701h-.71969l.37549.71486c.12516-.04785.26597-.07975.42242-.07975zm-1.07953 1.10048v-.09569l-.89178-1.6399h-.8605l5.02216 8.9286.43808-.7656-3.0665-5.42262c-.39113-.17544-.64146-.55822-.64146-1.00479zm2.28423-1.73559 3.00389 5.356.2973-.5263-2.70667-4.8297zm3.00389 0 1.502 2.70848.2034-.36683-1.283-2.34165zm-3.56713 2.61279 2.5502 4.51351.35984-.622-2.53455-4.46568c-.04693.22329-.18774.43063-.37549.57417zm1.56454-2.61279 2.50329 4.4788.2659-.4785-2.23725-4.0003zm3.00389 0 1.0013 1.83129.1721-.31898-.8135-1.51231zm1.2986 0h-.2973l.5007.93814.1408-.27113zm-6.3051 0 .45372.87435c.20339.17544.35984.41467.39113.70175l2.64407 4.6731.32855-.5742-3.16036-5.675zm-.79791.81055-.42243-.81055h-.78227l.76663 1.40066c.07822-.23923.23468-.44657.43807-.59011z" fill="#00aae7"/></svg>