<svg height="18" viewBox="0 0 18 18" width="18" xmlns="http://www.w3.org/2000/svg"><path d="m0 0h18v18h-18z" fill="#f0f3fa"/><path d="m5.84 5h4.24l-1.25.44-1.43 6.7c.24.09.88.29 1.5.29 2.73 0 3.87-2 4.1-3v2.66c0 .5-.38.91-.84.91h-6.32c-.46 0-.84-.4-.84-.91v-2.6c.06.53.6 1.78 2.13 2.51l.49-2c-.28-.29-.88-.95-.88-1.83 0-1.1.74-2.2 1.76-2.67-.88.1-3.12 1.03-3.5 3.08v-2.67c0-.5.38-.91.84-.91zm5.16 1c.56.2 1.75 1.03 2 2.6v-2.7c0-.5-.38-.91-.84-.91h-1.34l-1.22 5.64c.72-.14 2.2-.92 2.2-2.89a2.6 2.6 0 0 0 -.8-1.74z" fill="#09347a"/></svg>