<svg height="18" viewBox="0 0 18 18" width="18" xmlns="http://www.w3.org/2000/svg"><path d="m0 0h18v18h-18z" fill="#f0f3fa"/><path d="m10.4 8c-.05 0-.06.04-.04.08.42.6.83 1.22 1.17 1.85.4.73 1.08 1.01 1.78 1.39.07.03.08.08.04.14l-.05.1c-.04.06-.09.07-.15.04a7.99 7.99 0 0 1 -1.46-.9c-.84-.65-.8-1.92-1.68-2.58a.63.63 0 0 0 -.38-.12h-1.54c-.05 0-.06.06-.03.1.32.37.73.79.94 1.23.28.6.47 1.23.8 1.82.32.6.79.91 1.31 1.31.23.18.48.28.75.37.12.04.15.12.08.24a.16.16 0 0 1 -.09.08.16.16 0 0 1 -.1 0 4.5 4.5 0 0 1 -2.42-2.2c-.25-.54-.49-1.1-.71-1.66-.18-.45-.78-1.29-1.34-1.29h-1.48a1.96 1.96 0 0 1 -.54-.03.06.06 0 0 0 -.04.04v.03c.02.04.05.08.08.1 1.31.89 1.6 2.18 2.23 3.54.38.84 1.03 1.95 1.92 2.17a.04.04 0 0 1 .03.02.04.04 0 0 1 0 .04.12.12 0 0 1 -.09.06c-2.69.31-5.1-1.85-5.37-4.5a5.06 5.06 0 0 1 5.48-5.45c2 .2 3.57 1.5 4.23 3.43.24.7.32 1.4.24 2.12 0 .11-.06.18-.15.2a.09.09 0 0 1 -.08 0c-.98-.3-1.48-1.8-2.09-1.77z" fill="#38498b"/></svg>