<svg height="18" viewBox="0 0 18 18" width="18" xmlns="http://www.w3.org/2000/svg"><path d="m0 9a9 9 0 1 1 18 0 9 9 0 0 1 -18 0z" fill="#f0f3fa"/><path d="m9 5c3.3 0 6 1.8 6 4s-2.7 4-6 4-6-1.8-6-4 2.7-4 6-4zm-1.43 1c.8-.02 1.93.16 1.93.96 0 1.2-2.5 1.48-2.5 3.08 0 .6.19.72.44.96-1.94 0-2.94-1.13-2.94-2.32 0-1.2 1.35-2.32 3.07-2.68zm2.49 5c-.57-.02-1.06.08-1.06-.88 0-1.34 2-1.56 2-2.89 0-.68-.81-.99-1.38-1.23 2.2.17 3.88 1.23 3.88 2.66 0 1.24-1.66 1.98-3.44 2.34z" fill="#c50119" fill-rule="evenodd"/></svg>