<svg fill="none" height="18" width="18" xmlns="http://www.w3.org/2000/svg"><path d="m0 0h18v18h-18z" fill="#f0f3fa"/><g opacity=".6" stroke="#e0e3eb"><path d="m9 18a9 9 0 1 0 0-18 9 9 0 0 0 0 18z" opacity=".6" stroke-width=".25"/><g stroke-width=".1"><path d="m14.07 5h-10.14a.96.96 0 0 0 -.96.96v6.08c0 .53.43.97.96.97h10.14c.53 0 .96-.44.96-.97v-6.08a.96.96 0 0 0 -.96-.97z" opacity=".6"/><path d="m15.08 6h-12.16a.96.96 0 0 0 -.97.97v4.06c0 .53.43.96.97.96h12.16c.54 0 .97-.43.97-.96v-4.06a.96.96 0 0 0 -.97-.96z" opacity=".6"/><path d="m13.06 3.98h-8.12a.96.96 0 0 0 -.96.96v8.12c0 .53.43.96.96.96h8.12c.53 0 .96-.43.96-.96v-8.12a.96.96 0 0 0 -.96-.96z" opacity=".6"/><path d="m12.04 2.97h-6.08a.96.96 0 0 0 -.97.96v10.14c0 .53.44.96.97.96h6.08c.53 0 .97-.43.97-.96v-10.14a.96.96 0 0 0 -.97-.96z" opacity=".6"/><path d="m11.03 1.95h-4.06a.96.96 0 0 0 -.96.97v12.16c0 .54.43.97.96.97h4.06c.53 0 .96-.43.96-.97v-12.16a.96.96 0 0 0 -.96-.97z" opacity=".6"/></g></g><path d="m14 4h-10v10h10zm-5.45 8.37a.33.33 0 0 1 -.33-.33v-3.54c0-.21-.06-.39.39-.57.08-.03.13-.08.13-.12s-.08-.08-.13-.12c-.07-.06-.04-.14-.03-.32l.15-2.13c.01-.12.16-.23.29-.23.12 0 .24.11.25.23l.15 2.13c.02.18.04.25-.03.32-.04.04-.13.08-.13.12s.05.09.13.12c.45.18.4.36.4.57v3.55c0 .19-.14.33-.33.33h-.9zm-.85-.37h-1.04l-1.66-2.66 1.66-2.6h1.66l-.1.51h-1.3l-1.32 2.09 1.32 2.18h.78zm5.25-2.66-1.6 2.66h-1.05v-.48h.81l1.25-2.18-1.28-2.09h-1.3l-.1-.52h1.66l1.61 2.6z" fill="#0a50a1"/></svg>