<svg fill="none" height="18" viewBox="0 0 18 18" width="18" xmlns="http://www.w3.org/2000/svg"><path d="m0 0h18v18h-18z" fill="#ffe100"/><path clip-rule="evenodd" d="m11.7473 7.87283c-.1672.26106-.1886.47561-.1783.55026.1148-.21755.3628-.68206.4366-.79979.034-.05432.0589-.09207.0779-.12098v-.00002c.0325-.04942.048-.07301.0635-.10934.0246-.05758.1599-.23674.3198-.43508.1107-.13737.2863-.32076.4022-.4418v-.00002c.0515-.05373.0912-.09516.1082-.11483.0151-.01752.0395-.05901.0699-.11083.0808-.13745.2041-.34756.3113-.37545.1476-.03838-.1844.67183-.2767.81259-.0922.14076-.2583.29432-.3443.3519-.0506.0338-.0566.04335-.058.04548-.0002.00033-.0003.00048-.0004.00051-.0005.00014-.0013-.0012-.0093-.0012-.0246 0-.0061.17276.1537.26873.036.02157.0632.03861.0839.05156.0425.02657.0574.03595.0636.0319.0034-.00221.0041-.00842.0053-.01802.0003-.00241.0006-.00503.001-.00785.0061-.04479.2459-.23674.3812-.32632.1083-.07166.2747-.17062.3444-.21114.082-.07891.2558-.25465.2952-.32631.0393-.07167-.1804.02985-.2952.08957-.0041-.31991-.0098-.98534 0-1.08771s.1025-.16635.1476-.18555c.0184-.13436.0332-.40309-.0554-.40309-.1107 0-.3382.22394-.621.54386-.1955.221-.702 1.09241-1.0654 1.7177v.00002c-.1627.27983-.2966.51037-.3613.61125zm-6.21203-.20804c.05984-.01557.17953-.13388.17953-.48257 0-.43586-.10473-.49813-.38899-.49813-.28425 0-2.30127 1.12909-2.30127 4.14121-.02553.4888.07965 1.4662.70459 1.4662.62493 0 .92413-.1275.99561-.1912.32226-.3024 1.05111-1.097 1.38839-1.8561l-.12045 1.0205c.03728.0776.15315.2418.31835.2776.189.0409.34197-.4506.49188-.9323l.00003-.0001.00014-.0005c.01382-.0443.02761-.0887.0414-.1325.13078-.4154.43881-1.25331.57647-1.62036-.03441.54013-.09292 1.64186-.05162 1.72786.00927.0193.01771.0394.02612.0595.03839.0916.07605.1814.18898.1814.13767 0 .61573-.7109.6433-2.17699-.11661.46703-.36752 1.40879-.43824 1.43939-.0884.0383-.0442-.62084-.0442-.62084v-.81855c.00087-.08484-.03008-.25451-.16086-.25451-.16348 0-.67155.67618-.89255 1.37966.01287-.47073.06055-1.60062.14836-2.35439.10976-.94221.21952-1.91298.10976-2.35553-.12348.65669-.37594 2.01862-.39789 2.21277-.01363.1205-.06473.46019-.12939.89004-.06557.43587-.14509.96445-.21362 1.45121-.37503.72334-1.27051 2.16994-1.85226 2.16994-.14792.0608-.48057.112-.62771-.1701-.18394-.3527-.07483-1.3956.15832-2.3096s.98346-2.14867 1.31564-2.21798c.15186-.03169.1387.08576.12336.22261-.01821.1625-.03949.35236.20882.35236zm6.83323-1.53654c-.027.01601-.0727.02881-.0404-.04802.0323-.07684.1327-.57626.1788-.81637.0116-.004.0519-.0204.1212-.05402.0865-.04202.2827.006.2884.05402.0046.03842-.3634.59227-.548.86439zm-3.82739 1.74884c.10193-.39478.2218-.45911.26899-.44192.0801.03224.07203.25466.05797.36184-.13859.53618-.35135 1.58274-.09369 1.47949.17146-.06871.32633-.66317.46606-1.19952v-.00001c.12273-.47112.23379-.89742.33416-.88317.1758.02495.11997.4675.09402.67317-.00573.04541-.01.07928-.01.09455 0 .0211-.00878.07507-.01976.14253-.03294.20237-.08565.52618.01976.44849.14054-.10358.64998-1.25516.71588-1.54763.0527-.23397.2579-.25997.3539-.24372-.1516.53416-.3905 1.58297-.1328 1.50498.2576-.07799.7273-1.40494.9299-2.05867.0354-.03681.138-.1283.2654-.19972.1274-.07143.1547-.02976.1525 0 .0859.47255-.4542 1.86931-.5524 2.05623-.0785.14953-.1225.65255-.1347.88537.1934-.1655.4206-.24559.6668-.33239.1408-.04965.2878-.10149.4384-.17277 1.4593-.69098 3.3054-1.1711 3.5006-1.15982.2003.01158.1391.17856.0834.2606-1.4916.16216-3.861 1.4206-4.8593 2.02956-.039.50694-.1208 1.54124-.1364 1.62234s-.1541.2163-.2214.2738c-.0161.0426-.0363.1187-.0342.1872-.0227-.0366-.0436-.0609-.0436-.0356v.4157c0 .0973-.0232.2286-.0348.2821v.3007c-.0113.0096-.0464.0314-.0967.0416-.0117.0024-.0196.0035-.0247.0041-.005.0007-.0072.001-.0074.0018-.0002.0007.0008.0016.0026.0034.0061.0059.0212.0206.0295.0611.0065.0319.0051.1036.0036.1784-.0024.1205-.0049.2489.0254.2311.0394-.023.0847-.2485.1025-.3584.0259.1423.0778.4759.0778.6718 0 .1958-.1395.0816-.2093 0 0 .523-.0289 1.5765-.1446 1.5443-.1002-.0279-.0615-1.2425-.0283-2.2838.0147-.4609.0283-.8878.0283-1.1628 0-.4618.04-.82.0813-1.1905.0229-.2049.0461-.41349.0633-.64542-.60341.38512-1.82961 1.17282-1.90721 1.24312-.07759.0703-.74807.5064-1.0736.7157-.14884.1172-.47307.3516-.57927.3516h-.19309c-.84878.519-2.61152 1.5997-2.87219 1.7705s-.33388.1549-.3379.1256c-.19309.1841-.57444.5022-.55513.3013.02413-.2511 2.3412-1.6072 2.44981-1.6575.07241-.0334.09118-.0892.10995-.1451.00939-.0279.01877-.0558.03487-.0809.03861-.0602 3.38624-2.0686 5.05526-3.0653l.0778-.83228c-.0472.05892-.184.17677-.3539.17677s-.2454-.26024-.2619-.39036c-.1086.29706-.36811.8912-.538.8912s-.24068-.25533-.25484-.383l-.04955.0442c-.12741.41982-.46011 1.03851-.65832 1.03851-.1982 0-.30438-.4051-.30438-.69971s.10618-.75126.2336-1.24474zm2.18729 3.88761c.0493.056.005-.0437-.0342-.1068.0013.0415.0107.0801.0342.1068zm2.1791-3.36509c.1397-.06171.4428-.19829.5377-.25095.1186-.06582.3717-.17279.3915-.16867.0197.00411.0237.06582-.0594.10696-.083.04114-.3677.1769-.4823.21393-.0298.00961-.0703.02589-.1138.04342-.1242.04997-.2737.11013-.2737.05531zm-2.259 2.74849c.0038-.0842.0169-.2596.0395-.2878.0282-.0353.0847-.0705.1129 0 .0226.0564-.0658.2545-.1129.3466z" fill="#e50019" fill-rule="evenodd"/></svg>