<svg height="18" viewBox="0 0 18 18" width="18" xmlns="http://www.w3.org/2000/svg"><path d="m0 0h18v18h-18z" fill="#f0f3fa"/><path d="m15.17 6.58h-2.44a.9.9 0 0 0 -.87.9c0 .5.4.8.87.8h.4v2.82c0 .5.4.9.86.9s.74-.4.74-.9v-2.83h.44c.46 0 .83-.29.83-.79s-.37-.9-.83-.9z" fill="#de1c3a"/><path d="m11.24 9c.3-.32.49-.76.49-1.24 0-.97-.75-1.76-1.67-1.76-.93 0-1.67.79-1.67 1.76 0 .48.18.92.49 1.24-.3.32-.5.76-.5 1.24 0 .97.75 1.76 1.68 1.76.92 0 1.67-.79 1.67-1.76 0-.48-.19-.92-.5-1.24z" fill="#1da7ac"/><path d="m8.88 9a1.8 1.8 0 0 1 -.5-1.24c0-.94.7-1.7 1.58-1.76a.7.7 0 0 0 -.39.2.76.76 0 0 0 0 1.04l3.1 3.26c.32.34.32.9 0 1.24a.8.8 0 0 1 -1.19 0zm-.83 2.1v-3.62c0-.5-.36-.9-.8-.9s-.8.4-.8.9v3.62c0 .5.36.9.8.9s.8-.4.8-.9zm-2.71.9c.45 0 .81-.4.81-.9s-.36-.8-.81-.8h-.88c-.45 0-.87-.51-.87-1.01s.42-1.02.87-1.02h.88c.45 0 .81-.29.81-.79s-.36-.9-.81-.9h-.88c-1.36 0-2.46 1.21-2.46 2.71s1.1 2.71 2.46 2.71z" fill="#de1c3a"/></svg>