<svg height="18" viewBox="0 0 18 18" width="18" xmlns="http://www.w3.org/2000/svg"><path d="m0 0h18v18h-18z" fill="#f0f3fa"/><path d="m11.12 4.38c.16.06.15.1-.02.1-1.68 0-3.04.45-4.1 1.34a4.3 4.3 0 0 0 -1.5 3.78c.15 1.93 1.26 3.2 3.35 3.79.3.08.3.13-.02.13a4.7 4.7 0 0 1 -3.29-1.16 4.4 4.4 0 0 1 -1.54-3.3c0-2.53 2.1-5.06 5.2-5.06.63 0 1.19 0 1.92.38z" fill="#0069b7"/><path d="m7.16 8.26c.61-1.25 1.6-2 2.96-2.25 1.37-.25 2.59.1 3.65 1.08.1.1.08.12-.05.1-1.96-.45-3.56-.14-4.8.93-1.28 1.1-1.55 2.59-.82 4.43.05.12.02.14-.09.05a3.25 3.25 0 0 1 -1.18-2.04c-.14-.8-.03-1.57.33-2.3z" fill="#e67c36"/><path d="m10.18 14h-1.26c.7-.22 1.3-.45 1.8-.68a3.1 3.1 0 0 0 1.7-1.81c.16-.48.06-.87-.32-1.16a1.4 1.4 0 0 0 -1.28-.22c-.96.25-1.69 1-2.2 2.22-.08.2-.13.19-.15-.02-.09-1.13.24-2.07.97-2.84.48-.5 1.08-.8 1.8-.9.73-.09 1.38.08 1.93.5.49.38.76.88.82 1.49.05.58-.1 1.12-.45 1.61a4.5 4.5 0 0 1 -3.36 1.81z" fill="#0069b7"/></svg>