<svg height="18" viewBox="0 0 18 18" width="18" xmlns="http://www.w3.org/2000/svg"><path d="m0 0h18v18h-18z" fill="#f0f3fa"/><path d="m4.7 6h.47c.41.05.81.15 1.2.26v.46c-.3-.23-.63-.42-1-.49a2 2 0 0 0 -1.92.59c-.54.57-.76 1.4-.77 2.18 0 .78.22 1.6.76 2.15.43.46 1.07.67 1.68.61a3.01 3.01 0 0 0 1.65-.63l.09.14c-.44.37-1.16.68-1.73.73h-.57a2.77 2.77 0 0 1 -1.9-1 3.16 3.16 0 0 1 -.66-1.67v-.5c.06-.7.34-1.36.8-1.87a2.9 2.9 0 0 1 1.9-.96zm6.37 0a.65.65 0 0 0 -.07.35v4.86c.1.06.25.21.36.26v-4.23c1.37 1.52 2.75 3.03 4.2 4.47.1.11.21.2.33.29l.11-.06v-5.94h-.36v4.88l-1.94-2.08a479.4 479.4 0 0 1 -2.14-2.31c-.15-.17-.3-.35-.48-.48z" fill="#5f636a"/><path d="m7.99 6.27c.41-.28.93-.32 1.4-.22.17.04.35.08.48.21.03.34 0 .68-.05 1.02l-.1-.03c-.03-.22-.06-.46-.21-.62a.98.98 0 0 0 -1.37-.15c-.3.25-.38.7-.29 1.08.1.4.35.73.6 1.03.58.73 1.25 1.37 1.92 2 .59.47 1.18 1.12 1.93 1.27.07.02.17-.01.2.07-.04.1-.14.06-.25.06-.43 0-.94 0-1.15-.08-.34-.14-.63-.5-.92-.73-.39.41-.89.7-1.44.79-.46.07-.96.03-1.37-.22a1.73 1.73 0 0 1 -.8-1.22c-.07-.5.08-1.03.38-1.43.2-.26.45-.46.71-.64a2.02 2.02 0 0 1 -.34-.89c-.06-.53.26-1.03.67-1.3zm-.7 2.95c-.33.68-.15 1.6.43 2.07.25.2.57.3.88.3.5 0 1.02-.19 1.38-.56a15 15 0 0 1 -2.2-2.36c-.2.14-.37.33-.49.55z" fill="#24b34b"/></svg>