<svg fill="none" height="18" viewBox="0 0 18 18" width="18" xmlns="http://www.w3.org/2000/svg"><path d="m0 0h18v18h-18z" fill="#f0f3fa"/><path clip-rule="evenodd" d="m8.56642 6.96167c1.26043-.65389 4.23428-1.96167 6.04638-1.96167.886.04087 2.2538.52475.6364 2.13332.3619-.54763.7413-1.6429-.6364-1.6429-1.3778 0-4.605.98083-6.04638 1.47125zm-3.21483.03833c.50904 0 .9803.13756 1.3652.37135v1.04375c-.27244-.25146-.71595-.4151-1.21679-.4151-.82843 0-1.5.44772-1.5 1s.67157 1 1.5 1c.50084 0 .94435-.16364 1.21679-.4151v1.0437c-.3849.2338-.85616.3714-1.3652.3714-1.29875 0-2.35159-.8954-2.35159-2 0-1.10457 1.05284-2 2.35159-2zm3.96382 0c.50121 0 .96519.13756 1.34419.37135v.99428c-.2751-.22324-.6924-.36563-1.1596-.36563-.82843 0-1.5.44772-1.5 1s.67157 1 1.5 1c.4672 0 .8845-.14239 1.1596-.36563v.59793c-.68069.2668-1.42179.5189-1.97053.6937-.97447-.236-1.68907-1.00891-1.68907-1.926 0-1.10457 1.03664-2 2.31541-2zm1.68459 3.5318v.4682h1v-.9385c-.2948.1402-.6444.3051-1 .4703zm1.1982-1.03174h-.1982v.1233c-.2618.15008-.6127.31174-1 .47194v-3.0953h3v1h-2v.50006h2v1h-1.7979l-.0006-.00232zm-10.1982 2.77834c0-.6639.62231-1.347.93347-1.6056-1.25545 1.7607-.00902 2.0085.77112 1.9123 2.34855 0 6.77521-2.029 8.58811-3.07533-2.50282 2.36323-7.62758 3.49023-8.88573 3.49023-1.00653 0-1.35737-.4811-1.40697-.7216z" fill="#0e284b" fill-rule="evenodd"/></svg>