<svg height="18" width="18" xmlns="http://www.w3.org/2000/svg" xmlns:xlink="http://www.w3.org/1999/xlink"><linearGradient id="a" gradientUnits="userSpaceOnUse" x1="3.72" x2="8.91" y1="3.39" y2="8.57"><stop offset="0" stop-color="#295654"/><stop offset="1" stop-color="#397593"/></linearGradient><path d="m0 0h18v18h-18z" fill="#f0f3fa"/><path d="m9.63 7.38a2.4 2.4 0 0 1 1.78.34l.5-1.27a4.04 4.04 0 0 0 -3.35-.17zm-3.25.92a4.02 4.02 0 0 0 5.62 5.2l-.49-1.29c-.4.29-.89.46-1.4.46a2.6 2.6 0 0 1 -2.53-2.82z"/><path d="m4.62 3.48c1.51 1.13 5.17 3.88 5.17 5.1 0 .38-.08.72-.23.97l-5.56-6.55zm0 1.73c1.5 1.22 5.22 4.25 5.03 5.43 0 .2-.09.7-.3 1.03l-5.22-6.87c.1.1.27.23.49.4z" fill="url(#a)"/></svg>