<svg height="18" viewBox="0 0 18 18" width="18" xmlns="http://www.w3.org/2000/svg"><path d="m0 0h18v18h-18z" fill="#f0f3fa"/><path d="m7.1 11.9a8.1 8.1 0 0 0 1.26 2.1 12 12 0 0 0 5.64-2.96 8.24 8.24 0 0 0 -1.37-2.04 9.41 9.41 0 0 1 -5.53 2.9z" fill="#16ab03"/><path d="m8.35 4a8.07 8.07 0 0 0 -1.25 2.1 9.41 9.41 0 0 1 5.53 2.9 8.24 8.24 0 0 0 1.37-2.04 12 12 0 0 0 -5.65-2.96z" fill="#5e33bf"/><path d="m7.1 11.9a7.54 7.54 0 0 1 0-5.8 10.1 10.1 0 0 0 -2.64-.06 9.66 9.66 0 0 0 0 5.92 10.14 10.14 0 0 0 2.64-.06z"/></svg>