<!-- by TradingView --><svg width="18" height="18" viewBox="0 0 18 18" xmlns="http://www.w3.org/2000/svg"><path fill="#F0F3FA" d="M0 0h18v18H0z"/><path d="M14 8h-.63c0-.75-.35-1.5-1.37-1.5-.91 0-2 .64-2 2.5 0 1.5.97 2.52 2 2.52 1.02 0 1.38-1.02 1.38-1.52H14v1.52c-.3.3-1.5.45-2 .48-1.64 0-3-1-3-3 0-2.1 1.5-3 3-3 1.22 0 1.69.25 2 .5V8Z" fill="#012D6A"/><path d="M4 7.5V6h5v1.5h-.63c0-.56-.63-1-.93-1H7V11c0 .32.69.5 1 .5v.5H5v-.5c.31 0 1-.15 1-.5V6.5h-.44c-.41 0-.93.63-.93 1H4Z" fill="#042B6C"/></svg>