<svg height="18" viewBox="0 0 18 18" width="18" xmlns="http://www.w3.org/2000/svg" xmlns:xlink="http://www.w3.org/1999/xlink"><linearGradient id="a"><stop offset="0" stop-color="#c59a3e"/><stop offset="1" stop-color="#d9bc7d"/></linearGradient><linearGradient id="b" gradientUnits="userSpaceOnUse" x1="14.85" x2="11.15" xlink:href="#a" y1="9.01" y2="7.65"/><linearGradient id="c" gradientUnits="userSpaceOnUse" x1="12.37" x2="4.28" y1="5.52" y2="5.46"><stop offset="0" stop-color="#d7b874"/><stop offset=".8" stop-color="#e7d5ad"/><stop offset="1" stop-color="#d9c080"/></linearGradient><linearGradient id="d" gradientUnits="userSpaceOnUse" x1="5.7" x2="14.01" y1="12.28" y2="12.28"><stop offset=".03" stop-color="#d8bb7c"/><stop offset=".12" stop-color="#e9dab1"/><stop offset=".46" stop-color="#f6efdd"/><stop offset=".76" stop-color="#dbc188"/><stop offset="1" stop-color="#c9a44c"/></linearGradient><linearGradient id="e" gradientUnits="userSpaceOnUse" x1="3.15" x2="6.85" xlink:href="#a" y1="8.99" y2="10.35"/><linearGradient id="f" gradientUnits="userSpaceOnUse" x1="4.02" x2="7.67" y1="8.45" y2="8.97"><stop offset="0" stop-color="#dac080"/><stop offset="1" stop-color="#caa453"/></linearGradient><linearGradient id="g" gradientUnits="userSpaceOnUse" x1="10.07" x2="14.19" y1="10.14" y2="10.06"><stop offset="0" stop-color="#d2b372"/><stop offset="1" stop-color="#caa44c"/></linearGradient><path d="m0 0h18v18h-18z" fill="#f0f3fa"/><path d="m12.36 13a3.97 3.97 0 0 1 -3.36-2.02l.92-1 .62.74c.24.27 1.04.82 1.92.82 1.76 0 2.27-1.74 2.2-2.62 0-1.66-1.51-2.46-2.31-2.46v-1.45c2.07 0 3.65 2.01 3.65 3.91s-1.38 4.08-3.64 4.08z" fill="url(#b)"/><path d="m11.55 6.68c.42-.23.56-.24.82-.24v-1.44c-1.4 0-2.34.84-2.82 1.34-.82.84-2.53 2.63-2.87 3.09-.34.45-.74.66-.94.66-.93 0-1.12-.8-1.11-1.23h-1.23a2.48 2.48 0 0 0 2.34 2.82c.74 0 1.46-.63 1.73-.94.7-.8 2.17-2.47 2.46-2.75a9.19 9.19 0 0 1 1.62-1.31z" fill="url(#c)"/><path d="m6.45 11.32c-.42.23-.56.23-.82.23v1.45c1.4 0 2.34-.84 2.82-1.34.82-.84 2.53-2.63 2.87-3.09.34-.45.77-.66.94-.7.93 0 1.14.85 1.13 1.27h1.3c0-2.08-1.5-2.82-2.43-2.82-.74 0-1.46.63-1.73.94-.7.8-2.17 2.47-2.46 2.75a9.18 9.18 0 0 1 -1.62 1.31z" fill="url(#d)"/><path d="m5.64 5c1.82 0 2.9 1.24 3.31 1.95l-.93.99-.56-.66a2.4 2.4 0 0 0 -1.74-.81c-2 0-2.32 1.73-2.32 2.6a2.46 2.46 0 0 0 2.25 2.48v1.45c-2.07 0-3.65-2.02-3.65-3.92s1.38-4.08 3.64-4.08z" fill="url(#e)"/><path d="m4.62 8.86h-1.22c0-.98.57-2.4 2.22-2.4 1.32 0 2.15.99 2.4 1.48l-.95 1.03-.47-.57a1.32 1.32 0 0 0 -.87-.54c-.9 0-1.1.67-1.1 1z" fill="url(#f)"/><path d="m10.93 9.04-.94 1.02c.29.47 1.16 1.44 2.38 1.49 1.9 0 2.34-1.61 2.32-2.41h-1.3c0 .5-.63.96-1.02.96-.32 0-.63-.16-.73-.25z" fill="url(#g)"/></svg>