<svg height="18" width="18" xmlns="http://www.w3.org/2000/svg"><path d="m0 0h18v18h-18z" fill="#f0f3fa"/><path d="m8.319 5.002-.926.375c-.817.338-2.136 1.176-2.724 2.087-.533.826-.665 1.446-.669 1.576v-3.063a.97.97 0 0 1 .966-.975zm5.679 4.004c-1.19.957-3.177 2.046-4.066 2.407-.755.307-2.489.925-3.876.65-1.357-.269-1.784-1.025-2.056-1.513v1.474a.97.97 0 0 0 .966.975h8c.534 0 1.032-.454 1.032-.993z" fill="#2a2f4c"/><path d="m13.998 6.249v1.324c-.941.775-2.227 1.71-3.582 2.403-2.22 1.08-3.63.75-4.174.375-.417-.259-1.077-1.105-.334-2.425.928-1.65 3.43-2.386 4.124-2.574.693-.187 1.424-.375 2.576-.35 1.226.027 1.415.826 1.39 1.247z" fill="#279dd7"/></svg>