<svg fill="none" height="18" width="18" xmlns="http://www.w3.org/2000/svg" xmlns:xlink="http://www.w3.org/1999/xlink"><linearGradient id="a" gradientUnits="userSpaceOnUse" x1="12.898" x2="5.128" y1="5.906" y2="12.171"><stop offset=".05" stop-color="#ff4800" stop-opacity="0"/><stop offset=".07" stop-color="#fff" stop-opacity=".04"/><stop offset=".12" stop-color="#fff" stop-opacity=".16"/><stop offset=".17" stop-color="#fff" stop-opacity=".3"/><stop offset=".24" stop-color="#fff" stop-opacity=".53"/><stop offset=".31" stop-color="#fff" stop-opacity=".82"/><stop offset=".36" stop-color="#fff"/><stop offset=".93" stop-color="#fff"/></linearGradient><linearGradient id="b" gradientUnits="userSpaceOnUse" x1="12.749" x2="4.674" y1="8.824" y2="8.824"><stop offset=".03" stop-color="#fff" stop-opacity=".17"/><stop offset=".26" stop-color="#fff"/><stop offset=".58" stop-color="#fff"/></linearGradient><linearGradient id="c"><stop offset=".44" stop-color="#fff" stop-opacity="0"/><stop offset=".52" stop-color="#fff" stop-opacity="0"/><stop offset="1" stop-color="#fff"/></linearGradient><linearGradient id="d" gradientUnits="userSpaceOnUse" x1="5.844" x2="10.775" xlink:href="#c" y1="11.569" y2="5.194"/><linearGradient id="e" gradientUnits="userSpaceOnUse" x1="4.649" x2="12.117" xlink:href="#c" y1="9.84" y2="6.809"/><path d="m0 0h18v18h-18z" fill="#ff4701"/><g clip-rule="evenodd" fill-rule="evenodd"><path d="m9 14a5 5 0 1 0 0-10 5 5 0 0 0 0 10zm0-.492a4.508 4.508 0 1 0 0-9.016 4.508 4.508 0 0 0 0 9.016z" fill="url(#a)"/><path d="m5.907 12.892c1.594 1.095 4.145.157 5.698-2.094 1.553-2.25 1.52-4.963-.074-6.058s-4.145-.157-5.698 2.093c-1.553 2.251-1.52 4.964.074 6.059zm.379-.418c1.38.982 3.587.141 4.93-1.879 1.345-2.02 1.316-4.454-.064-5.436-1.379-.983-3.587-.142-4.93 1.878-1.344 2.02-1.315 4.454.064 5.436z" fill="url(#b)"/><path d="m12.793 11.947c1.413-.82.873-2.826-1.205-4.48-2.078-1.653-4.907-2.327-6.32-1.507-1.412.82-.873 2.827 1.205 4.48s4.908 2.328 6.32 1.507zm-.37-.37c1.259-.7.76-2.444-1.113-3.893-1.873-1.45-4.412-2.056-5.67-1.355-1.26.702-.761 2.445 1.112 3.894 1.873 1.45 4.412 2.056 5.671 1.355z" fill="url(#d)"/><path d="m10.466 13.661c1.633 0 2.176-2.004 1.21-4.478-.964-2.474-3.07-4.48-4.704-4.481-1.634 0-2.176 2.004-1.211 4.478s3.071 4.48 4.705 4.481zm-.134-.506c1.44.027 1.886-1.73.996-3.925s-2.78-3.995-4.22-4.022c-1.442-.027-1.888 1.73-.997 3.925.89 2.195 2.78 3.996 4.22 4.022z" fill="url(#e)"/></g></svg>