<svg height="18" viewBox="0 0 18 18" width="18" xmlns="http://www.w3.org/2000/svg"><path d="m0 0h18v18h-18z" fill="#005eb8"/><g fill="#fff"><path d="m9 15a6 6 0 1 0 0-12 6 6 0 0 0 0 12zm0-.35a5.65 5.65 0 1 0 0-11.3 5.65 5.65 0 0 0 0 11.3z" fill-rule="evenodd"/><path d="m12.5 6.17-.89 1.4a4.4 4.4 0 0 0 -1.97-.57c-1.06 0-2 .8-2.14 1l.04-.08c.26-.52.97-1.92 2.34-1.92.45 0 .7.1.95.2.21.1.42.18.72.18.53 0 .85-.14.95-.21zm-1 2.33-.73 1.06a2.5 2.5 0 0 0 -1.67-.56c-1.34 0-2.18.66-2.5.92l-.1.08c.74-1.55 2.02-2 3.01-2 .8 0 1.66.33 1.99.5zm-1 2.05-.7 1c-.2-.11-.87-.4-1.73-.4-1.21 0-2.22.63-2.52.82l-.05.03c.5-1.16 1.93-2 3-2 .86 0 1.7.36 2 .55z"/></g></svg>