<svg height="18" width="18" xmlns="http://www.w3.org/2000/svg"><path d="m0 0h18v18h-18z" fill="#009bdb"/><path d="m7.73 4.82c.25-.18.5-.33.75-.45l.6.67c-.23.1-.47.2-.7.34zm4.45.64c-.57-.66-1.55-.86-2.64-.57l-.62-.7a3.14 3.14 0 0 1 3.53 1c.14.17.27.34.38.51l-.52-.06a1.82 1.82 0 0 0 -.13-.18zm.32.53c.41 1.04.01 2.45-.38 3.4a8.5 8.5 0 0 1 -.39.8l1 .53c.2-.37.36-.75.5-1.15a4.4 4.4 0 0 0 -.2-3.51zm-2.81 6.66a7.21 7.21 0 0 0 1.54-1.64l1 .52a6.39 6.39 0 0 1 -1.65 1.59zm-.78.48a3.7 3.7 0 0 1 -.78.29c-.96.22-2.1.07-2.66-1.36a.1.1 0 0 0 -.08-.06l-.79-.14c-.06-.02-.12.04-.1.1.3.82 1.25 2.05 3.2 2.04a5.2 5.2 0 0 0 2.05-.43zm-2.03-7.43.48.34a.1.1 0 0 0 .12 0c.16-.15.33-.28.5-.4l-.61-.54c-.17.14-.34.3-.5.46a.1.1 0 0 0 0 .14z" fill="#fff"/></svg>