<svg height="18" viewBox="0 0 18 18" width="18" xmlns="http://www.w3.org/2000/svg"><path d="m0 0h18v18h-18z" fill="#f0f3fa"/><g fill="#005ca5"><path d="m3.03 8.28a5.01 5.01 0 0 1 4.97-4.28c2 0 3.92 1.24 4.54 3h-1.34c-.33-1.4-1.72-2.38-3.2-2.38-1.89 0-3.41 1.5-3.41 3.36a3.38 3.38 0 0 0 3.4 3.37c1.36 0 2.54-.82 3.08-1.96h1.93a5.2 5.2 0 0 1 -.16.94h-.13c-2 0-2.93 1.81-5.29 1.81-1.92 0-4.25-1.55-4.39-3.86z"/><path d="m12.64 10.9c-.11.27-.25.54-.41.8-1.76.1-2.54 1.3-4.67 1.3-1.97-0-4.33-1.28-4.56-3.92.58 2.26 2.74 3.3 4.52 3.3 2.37 0 3.22-1.45 5.12-1.49z"/><path d="m11.82 12.24a5.01 5.01 0 0 1 -8.44-1.3c1 1.47 2.77 2.3 4.18 2.3 2.6 0 2.54-.96 4.26-1z"/></g><path d="m14.5 7.35h1.5l-.1.53-.12.63-.1.49h-1.5l.33-1.65zm-8.1 2.35 1.17-6.7h.43l1.2 5.8.29-1.33h.56l-.4 2.23h-.98l-.85-4-.74 4h-.7z" fill="#f8192f"/><path d="m5.05 8.05a2.9 2.9 0 0 1 2.95-2.83c1.28 0 2.15.74 2.66 1.78h-.65a2.25 2.25 0 0 0 -2.01-1.25 2.35 2.35 0 0 0 -2.38 2.3 2.35 2.35 0 0 0 2.38 2.33c.83 0 1.56-.43 1.99-1.06h.66a3 3 0 0 1 -2.64 1.58 2.9 2.9 0 0 1 -2.96-2.84zm7.65-.7h1.58l-.31 1.65h-1.6z" fill="#f8192f"/><path d="m10.87 7.35h1.58l-.31 1.65h-1.6z" fill="#f8192f"/></svg>