<svg height="18" viewBox="0 0 18 18" width="18" xmlns="http://www.w3.org/2000/svg"><path d="m0 0h18v18h-18z" fill="#f0f3fa"/><path d="m13.3 10.5c-.04.15-.07.3-.07.47l-.01.54c0 .4-.26.77-.63.9l-.5.18c-.3.1-.58.32-.78.6l-.32.43a.9.9 0 0 1 -1 .34l-.5-.16a1.6 1.6 0 0 0 -.98 0l-.5.16a.9.9 0 0 1 -1.01-.36l-.32-.43c-.2-.28-.47-.49-.78-.6l-.5-.18a.96.96 0 0 1 -.62-.9l-.01-.54c0-.16-.03-.31-.07-.46l4.3-1.25z" fill="#c8000a"/><path d="m8.97 4.28c-.15 0-.3-.03-.45-.08l-.5-.16a.9.9 0 0 0 -1.02.34l-.32.44c-.1.12-.2.23-.31.32l2.16 2.8c.1.13.28.06.29-.1l.14-3.56zm-2.64.9c-.13.1-.27.18-.43.23l-.5.18a.96.96 0 0 0 -.62.9l-.01.54c0 .14-.02.27-.05.4l3.36.97c.15.04.26-.13.18-.26zm-1.63 2.31c-.05.18-.13.35-.23.5l-.3.45a1 1 0 0 0 0 1.11l.3.45c.08.13.15.27.2.42l3.33-1.37c.14-.05.14-.26 0-.31zm8.63 2.93c.05-.15.12-.29.2-.41l.3-.45a1 1 0 0 0 0-1.1l-.3-.46c-.1-.15-.18-.33-.23-.51l-3.3 1.25c-.14.05-.14.26 0 .31l3.32 1.37zm-.05-2.99a1.8 1.8 0 0 1 -.05-.39v-.54c-.01-.4-.26-.76-.63-.9l-.5-.17c-.15-.06-.3-.14-.43-.24l-1.93 2.95c-.08.13.03.3.18.26zm-1.66-2.29a1.7 1.7 0 0 1 -.3-.32l-.32-.42a.9.9 0 0 0 -1-.35l-.51.16c-.15.05-.3.08-.46.08l.14 3.56c0 .16.2.23.29.1l2.16-2.8z" fill="#ed8809"/><path d="m8.92 5.6c-.64.02-1.24.23-1.73.58l1.35 1.77c.1.12.29.05.3-.1zm-2.95 2.19c.22-.6.6-1.13 1.09-1.51l1.2 1.86c.09.13-.03.3-.18.26l-2.11-.6zm-.1 2.14a3.56 3.56 0 0 1 .04-1.98l2.09.79c.14.05.14.26 0 .32l-2.12.87zm6.22-1.98a3.55 3.55 0 0 1 .04 1.98l-2.13-.87c-.14-.06-.14-.27 0-.32l2.08-.8zm-1.14-1.67c.48.38.86.9 1.09 1.51l-2.12.61c-.15.05-.27-.13-.18-.26l1.2-1.86zm-1.87-.68c.64.02 1.24.23 1.73.58l-1.35 1.77c-.1.12-.28.05-.29-.1z" fill="#f7b500"/><path d="m8.88 6.5a2.3 2.3 0 0 0 -1.15.38l.8 1.05c.1.13.3.06.3-.1l.05-1.32zm-2.08 1.52c.16-.4.42-.74.74-1l.72 1.1c.08.14-.03.31-.18.27zm-.12 1.56a2.6 2.6 0 0 1 .04-1.34l1.28.48c.14.06.14.27 0 .32l-1.3.54zm4.59-1.34a2.6 2.6 0 0 1 .05 1.34l-1.32-.54c-.14-.05-.14-.26 0-.32l1.26-.48zm-.81-1.22c.32.26.57.6.73 1l-1.27.37c-.15.04-.27-.13-.18-.26l.72-1.1zm-1.34-.52c.42.03.81.16 1.15.38l-.81 1.05c-.1.13-.28.06-.3-.1l-.04-1.32z" fill="#fed707"/></svg>