<svg height="18" width="18" xmlns="http://www.w3.org/2000/svg"><path d="m0 0h18v18h-18z" fill="#ac2125"/><path d="m7.75 6.373c.11-1.6 2.298-2.916 3.379-3.373l.312.724c-2.168.724-3.144 1.791-3.202 2.649-.059.857.742 1.657 1.093 1.962.352.305 2.44 1.6 2.421 3.087-.015 1.19-1.165 2.223-1.738 2.591l-.566-.857c1.933-.896 2.285-2.496.176-4.059-1.687-1.25-1.9-2.343-1.875-2.724z" fill="#fff"/><path d="m10.25 6.373c-.11-1.6-2.298-2.916-3.378-3.373l-.313.724c2.168.724 3.144 1.791 3.203 2.649.058.857-.742 1.657-1.094 1.962-.351.305-2.44 1.6-2.421 3.087.016 1.19 1.165 2.223 1.738 2.591l.566-.857c-1.933-.896-2.284-2.496-.176-4.059 1.688-1.25 1.901-2.343 1.875-2.724z" fill="#b7b5b5"/><path d="m8.728 12.8v-3.376h-1.174l-.886 1.726.474 1.648h1.586z" fill="#b7b5b5"/><path d="m9 7.59v-2h-.558l-.408 1.023.218.977z" fill="#fff"/><path d="m9 7.59v-2h.586l.393 1.023-.21.977z" fill="#b7b5b5"/><path d="m9.277 12.8v-3.376h1.17l.884 1.726-.473 1.648h-1.58z" fill="#fff"/></svg>