<svg height="18" viewBox="0 0 18 18" width="18" xmlns="http://www.w3.org/2000/svg" xmlns:xlink="http://www.w3.org/1999/xlink"><linearGradient id="a" gradientUnits="userSpaceOnUse" x1=".16" x2="10.99" y1="6.5" y2="7.17"><stop offset=".02" stop-color="#b70719" stop-opacity="0"/><stop offset=".4" stop-color="#b70719" stop-opacity=".87"/><stop offset="1" stop-color="#b60b1d" stop-opacity="0"/></linearGradient><linearGradient id="b" gradientUnits="userSpaceOnUse" x1="9.97" x2="17.97" y1="5.85" y2="7.81"><stop offset="0" stop-color="#b70719" stop-opacity=".88"/><stop offset="1" stop-color="#b70719" stop-opacity="0"/></linearGradient><path d="m0 0h18v18h-18z" fill="#f0f3fa"/><path d="m5.74 9c-.96 0-1.74.78-1.74 1.73v1.54c0 .95.78 1.73 1.74 1.73h2.26v-1h-1.83c-.83 0-1.17-.47-1.17-1.04v-.92c0-.57.34-1.04 1.17-1.04h1.83v-1zm5.03 5-2.12-5h1.22l1.46 3.7 1.43-3.7h1.24l-2.16 5z" fill="#808082"/><path d="m5.92 5.34a10.5 10.5 0 0 0 -3.92-.27v2.93h3.92c.68-.42 2.92-1.36 3.95-1.7-.75-.14-2.6-.52-3.95-.96z" fill="url(#a)"/><path d="m13.97 5.47c-2.9-.61-5.59-.26-6.57 0l2.67.7z" fill="#b70719" fill-opacity=".8"/><path d="m16 8v-2.1c-3.56-.36-7.83 1.25-9.53 2.1z" fill="url(#b)"/></svg>