<svg height="18" viewBox="0 0 18 18" width="18" xmlns="http://www.w3.org/2000/svg"><path d="m0 0h18v18h-18z" fill="#f0f3fa"/><path d="m8.18 7.92c3-.43 4.24 1.7 4.49 3.6-.12-.72.62-2.46.55-3.89-1.1-.24-2.75-.22-5.04.3z" fill="#05749d"/><path d="m7.73 6.64c-.49.45-.93.97-1.35 1.52.47-.18 1-.34 1.55-.48l.25-.05c2.28-.54 3.93-.58 5.03-.34-.18-3.03-3.14-2.85-5.48-.65z" fill="#00b2d2"/><path d="m13.61 7.67c.07 1.43-.67 3.17-.55 3.9.02.13.07.23.17.29.2.11.44.07.69-.06 1.34-.77 1.65-3.7-.31-4.13z" fill="#b72126"/><path d="m3.3 11.9c.77.5 2.06-.92 2.75-1.77a24.8 24.8 0 0 1 1.85-2.1c-3.52.82-5.75 3.1-4.6 3.86z" fill="#f26722"/></svg>