<svg height="18" viewBox="0 0 18 18" width="18" xmlns="http://www.w3.org/2000/svg" xmlns:xlink="http://www.w3.org/1999/xlink"><linearGradient id="a" gradientUnits="userSpaceOnUse" x1="10.97" x2="6.95" y1="5.48" y2="12.7"><stop offset="0" stop-color="#c4c4c4"/><stop offset="1" stop-color="#a2a2a2"/></linearGradient><linearGradient id="b" gradientUnits="userSpaceOnUse" x1="11.11" x2="6.49" y1="6.11" y2="13.59"><stop offset="0" stop-color="#929395"/><stop offset="1" stop-color="#c3c3c3"/></linearGradient><linearGradient id="c" gradientUnits="userSpaceOnUse" x1="10.82" x2="10.82" y1="3" y2="14"><stop offset="0" stop-color="#ffa017"/><stop offset="1" stop-color="#bf7f0e"/></linearGradient><linearGradient id="d" gradientUnits="userSpaceOnUse" x1="11.33" x2="11.33" y1="2.23" y2="14.93"><stop offset="0" stop-color="#c18005"/><stop offset="1" stop-color="#fda31b"/></linearGradient><path d="m0 0h18v18h-18z" fill="#f0f3fa"/><path d="m10.24 5.17c0 4.58-3.48 5.83-5.22 5.89l-1.02 1.4c.7.49 1.94.3 2.47.15l.29-.62c4.18-1.5 4.06-5.17 3.48-6.82z" fill="#3a3a3a"/><path d="m5.6 11.83-.58-.77-1.02 1.4z" fill="#2a2a2a"/><path d="m10.53 5.01c1.05 4.71-1.89 6.82-3.48 7.29l-.73 1.55a5.68 5.68 0 0 0 3.78-1.7v-.32c2.32-2.48 1.25-5.58.43-6.82z" fill="url(#a)"/><path d="m10.54 5.02c.91 1.66 1.6 5.48-2.91 7.59l-.84.24-.47 1a5.68 5.68 0 0 0 3.77-1.7v-.32c2.32-2.47 1.27-5.56.45-6.8z" fill="url(#b)"/><path d="m7.63 12.6-.58-.3-.73 1.54 1.3-1.23z" fill="#8f8f8f"/><path d="m10.53 14-.15-2.01c.88-.62 1.46-1.86 1.46-3.72 0-3.1-2.18-4.8-3.2-5.27 3.2.93 4.36 3.1 4.36 5.89 0 2.23-1.65 4.6-2.47 5.11z" fill="url(#c)"/><path d="m8.64 3c1.26.52 3.78 2.32 3.78 5.42a5.75 5.75 0 0 1 -1.97 4.51l.08 1.07c.82-.52 2.47-2.88 2.47-5.11 0-2.8-1.16-4.96-4.36-5.89z" fill="url(#d)"/><path d="m11.11 12.3-.72-.31.14 2.01z" fill="#ac6a09"/></svg>