<svg height="18" viewBox="0 0 18 18" width="18" xmlns="http://www.w3.org/2000/svg" xmlns:xlink="http://www.w3.org/1999/xlink"><linearGradient id="a" gradientUnits="userSpaceOnUse" x1="9.16" x2="4.78" y1="4.47" y2="7.59"><stop offset="0" stop-color="#01a9e7"/><stop offset="1" stop-color="#1670ac"/></linearGradient><linearGradient id="b" gradientUnits="userSpaceOnUse" x1="13.53" x2="6.03" y1="9.94" y2="13.22"><stop offset="0" stop-color="#242424"/><stop offset="1" stop-color="#070707"/></linearGradient><linearGradient id="c" gradientUnits="userSpaceOnUse" x1="11.97" x2="7.28" y1="5.41" y2="10.09"><stop offset="0" stop-color="#98c949"/><stop offset="1" stop-color="#32b448"/></linearGradient><linearGradient id="d" gradientUnits="userSpaceOnUse" x1="5.25" x2="3.53" y1="6.34" y2="10.09"><stop offset="0" stop-color="#005192"/><stop offset="1" stop-color="#0c1a67"/></linearGradient><linearGradient id="e" gradientUnits="userSpaceOnUse" x1="11.5" x2="7.12" y1="5.41" y2="9"><stop offset="0" stop-color="#b4d459"/><stop offset="1" stop-color="#66bc61"/></linearGradient><path d="m0 0h18v18h-18z" fill="#f0f3fa"/><path d="m4.24 10.54c.15-2.15 3.82-4.83 6.56-6.2a4.99 4.99 0 0 0 -6.56 6.2z" fill="url(#a)"/><path d="m9 14a5 5 0 0 0 5-5v-.01c-2.95 2.12-7.54 3.6-9.15 2.8a5 5 0 0 0 4.15 2.21z" fill="url(#b)"/><path d="m11.45 4.64a5 5 0 0 1 2.42 3.22c-2.3 1.72-6.04 3.6-7.06 2.23-1.42-1.9 2.3-4.32 4.64-5.45z" fill="url(#c)"/><path d="m5.83 5.14a4.99 4.99 0 0 0 -1.59 5.4 4.1 4.1 0 0 1 1.14-2.23 4.27 4.27 0 0 1 .45-3.17z" fill="url(#d)"/><path d="m7.6 9.63c2.32 0 4.21-1.54 4.21-3.44 0-.55-.15-1.06-.43-1.52-2.1 1.03-5.26 3.08-4.85 4.85.34.07.7.1 1.06.1z" fill="url(#e)"/></svg>