<svg height="18" viewBox="0 0 18 18" width="18" xmlns="http://www.w3.org/2000/svg"><path d="m0 0h18v18h-18z" fill="#f0f3fa"/><path d="m5.56 7.92c-1.46-1.06-3.19.64-2.09 1.98.63.76 1.82.65 2.37-.12.02-.03.04-.03.07 0l.73.7c.03.03.03.05 0 .08-1.44 1.69-4.25.99-4.6-1.17-.27-1.6 1.1-3 2.77-2.88.7.05 1.3.34 1.8.88.02.03.02.05 0 .08l-.74.71c-.03.03-.06.03-.08 0a.89.89 0 0 0 -.23-.26z" fill="#00c1de"/><path d="m13.56 11.35c-.64-.35-.98-.9-.98-1.67v-3.13c0-.03.02-.05.05-.05h1.3l.04.01.03.04v2.9c0 .62.27.82.8.8h1.15c.03 0 .05.06.05.09v1.1c0 .04-.01.06-.04.06h-1.86a1.2 1.2 0 0 1 -.54-.15z" fill="#0071ce"/><path d="m10.43 6.7c.32.28.51.55.58.81.2.72-.24 1.4-.98 1.5-.19.03-.39.02-.6-.02-.77-.14-1.55.4-1.5 1.24.04.43.28.8.74 1.14a2.5 2.5 0 0 1 -.82-4.27 2.48 2.48 0 0 1 2.58-.4z" fill="#00c1de"/><path d="m10.43 6.7a2.5 2.5 0 0 1 .36 4.42 2.48 2.48 0 0 1 -2.12.25c-.46-.33-.7-.71-.73-1.14-.06-.85.72-1.38 1.5-1.24.2.04.4.05.6.02.73-.1 1.17-.78.97-1.5a1.8 1.8 0 0 0 -.58-.81z" fill="#0071ce"/></svg>