<svg height="18" viewBox="0 0 18 18" width="18" xmlns="http://www.w3.org/2000/svg"><path d="m0 0h18v18h-18z" fill="#f0f3fa"/><path d="m11.98 5.37-2.95-2.37h-.06l-2.95 2.4a.04.04 0 0 0 -.02.03c0 .01 0 .02.02.02l.65.54.04.01.03-.01c.66-.4 1.44-.59 2.26-.59a4.28 4.28 0 0 1 2.3.6h.03l.65-.58.02-.02c0-.01 0-.02-.02-.03z" fill="#ee7623"/><path d="m6 11.24c-.4-.65-.6-1.41-.6-2.24 0-.81.2-1.61.58-2.26.01-.02.01-.04 0-.07l-.52-.65c-.02-.03-.05-.03-.06 0l-2.39 2.94-.01.04.01.03 2.38 2.96.02.01.03-.01.54-.68a.06.06 0 0 0 .01-.07z" fill="#002f6c"/><path d="m11.98 12.56-.67-.55c-.03-.01-.05-.01-.07 0-.66.4-1.43.59-2.24.59s-1.6-.2-2.24-.59h-.06l-.67.55c-.03.02-.03.05 0 .05l2.94 2.39h.03.03l2.95-2.39c.03-.01.03-.03 0-.05z" fill="#92ba1f"/><path d="m14.99 8.97-2.62-2.62a.05.05 0 0 0 -.04-.02c-.01 0-.02 0-.03.02l-1.13 1.32c-.48-.72-1.3-1.34-2.17-1.34a2.75 2.75 0 0 0 -2.67 2.67c0 1.4 1.25 2.67 2.67 2.67.86 0 1.69-.63 2.17-1.34l1.13 1.33h.06l2.62-2.62c.03-.02.03-.05 0-.07z" fill="#0374c1"/></svg>