<svg height="18" viewBox="0 0 18 18" width="18" xmlns="http://www.w3.org/2000/svg"><path d="m0 0h18v18h-18z" fill="#307371"/><path d="m10.6 4.4h.88c.06 0 .12.05.12.13v1.8c0 .09-.06.14-.12.14h-.87c-.06 0-.12-.05-.12-.13v-1.8c0-.1.06-.14.12-.14zm-.5.13c0-.3.22-.53.5-.53h.88c.29 0 .52.24.52.53v1.8c0 .3-.23.54-.52.54h-.87a.52.52 0 0 1 -.52-.53v-1.8zm.5 3.16h.88c.06 0 .12.05.12.13v1.8c0 .09-.06.14-.12.14h-.87c-.06 0-.12-.05-.12-.13v-1.8c0-.1.06-.14.12-.14zm-.5.13c0-.3.22-.53.5-.53h.88c.29 0 .52.24.52.53v1.8c0 .3-.23.54-.52.54h-.87a.52.52 0 0 1 -.52-.53v-1.8zm-4.58 3.21h.87c.06 0 .12.05.12.13v1.8c0 .1-.06.14-.12.14h-.87c-.06 0-.12-.05-.12-.13v-1.8c0-.09.06-.14.12-.14zm-.52.13c0-.29.23-.53.52-.53h.87c.29 0 .52.24.52.53v1.8c0 .3-.23.54-.52.54h-.87a.52.52 0 0 1 -.52-.53v-1.8zm3.06-.13h.88c.05 0 .11.05.11.13v1.8c0 .1-.06.14-.11.14h-.88c-.05 0-.11-.05-.11-.13v-1.8c0-.09.06-.14.11-.14zm-.51.13c0-.29.23-.53.51-.53h.88c.28 0 .51.24.51.53v1.8c0 .3-.23.54-.51.54h-.88a.52.52 0 0 1 -.51-.53v-1.8zm3.93-.13h-.87c-.06 0-.12.05-.12.13v1.8c0 .1.06.14.12.14h.87c.06 0 .12-.05.12-.13v-1.8c0-.09-.06-.14-.12-.14zm-.87-.4a.52.52 0 0 0 -.52.53v1.8c0 .3.23.54.52.54h.87c.29 0 .52-.24.52-.53v-1.8c0-.3-.23-.54-.52-.54zm-1.67-2.93h-.88c-.05 0-.11.05-.11.13v1.8c0 .09.06.14.11.14h.88c.05 0 .11-.05.11-.13v-1.8c0-.1-.06-.14-.11-.14zm-.88-.4a.52.52 0 0 0 -.51.53v1.8c0 .3.23.54.51.54h.88c.28 0 .51-.24.51-.53v-1.8c0-.3-.23-.54-.51-.54z" fill="#fff" fill-rule="evenodd"/></svg>