<svg height="18" viewBox="0 0 18 18" width="18" xmlns="http://www.w3.org/2000/svg"><path d="m0 0h18v18h-18z" fill="#85276b"/><path d="m6.32 6.8a6.07 6.07 0 0 1 4.7-2.76l-.16-1.04s-3.07.18-5 2.7a7.05 7.05 0 0 0 -1.37 4.34c.09 2.98 2.19 4.76 4.16 4.94 2.52.23 4.34-1.85 4.34-1.85l-.11-.12c-.4.36-2.04 1.8-3.79 1.67-1.5-.1-3.58-1.1-3.77-4.35a7.05 7.05 0 0 1 .99-3.52zm4.9-1.36a5.03 5.03 0 0 0 -4.4 3.44c-.2.74-.33 1.8-.13 2.6.3 1.22.87 2.17 2.39 2.56 1.58.41 3.08-.9 3.47-1.24l.09-.08.1.13s-1.82 1.89-3.74 1.55a3.8 3.8 0 0 1 -3.27-3.38 6.3 6.3 0 0 1 .84-3.83c1.68-2.69 4.51-2.79 4.51-2.79l.14 1.03zm.2 1.38a4.11 4.11 0 0 0 -3.63 3.7c-.17 1.92 1.08 3.53 3.03 2.84 1-.36 1.54-.9 1.57-.94l.13.13s-1.66 1.58-3.19 1.3c-1.2-.24-2.17-1.18-2.37-2.7a4.38 4.38 0 0 1 .36-2.44c1.34-2.88 3.97-2.8 3.97-2.8l.12.91z" fill="#fefefe"/></svg>