<svg height="18" viewBox="0 0 18 18" width="18" xmlns="http://www.w3.org/2000/svg" xmlns:xlink="http://www.w3.org/1999/xlink"><linearGradient id="a" gradientUnits="userSpaceOnUse" x1="3.35" x2="21.9" y1="3.12" y2="24.43"><stop offset="0" stop-color="#1a1e21"/><stop offset="1" stop-color="#06060a"/></linearGradient><path d="m0 0h18v18h-18z" fill="url(#a)"/><path d="m6.53 8.68c0-1.11.83-1.68 1.92-1.68.3 0 .6.05.9.14v.76h-.15l-.06-.26c-.05-.22-.3-.42-.73-.42-.79 0-.9.86-.9 1.46 0 .7.3 1.42 1.03 1.42.38 0 .64-.15.75-.38l.12-.24.13.03-.15.69a3 3 0 0 1 -.96.14c-1.1 0-1.9-.55-1.9-1.66zm3.14 0a1.6 1.6 0 0 1 .5-1.2 1.7 1.7 0 0 1 1.26-.48c.98 0 1.76.5 1.76 1.68 0 .98-.77 1.66-1.76 1.66-1.07 0-1.76-.56-1.76-1.66zm2.57 0c0-1.08-.35-1.48-.81-1.48-.43 0-.8.38-.8 1.48 0 1.08.35 1.46.8 1.46.43 0 .8-.36.8-1.46zm-5.56 5.22.14-.04c.2-.05.2-.1.2-.5v-2.06c0-.4 0-.45-.2-.5l-.14-.04v-.1h1.8c1.03 0 1.76.42 1.76 1.59 0 1.04-.78 1.75-1.88 1.75h-1.68zm1.61-.14c.52 0 .93-.38.93-1.43 0-.84-.19-1.44-.87-1.44h-.35v2.36c0 .47-.1.51.12.51zm2.33.14.16-.04c.22-.05.22-.1.22-.5v-2.06c0-.4 0-.45-.22-.5l-.16-.04v-.1h1.72v.1l-.13.04c-.22.05-.21.1-.21.5v2.06c0 .4 0 .45.2.5l.14.04v.1h-1.72z" fill="#ddb676"/><path d="m6 14h-2v-9.5h10v2.5h-.66v-1.86h-8.7v8.26h1.36z" fill="#fff"/></svg>