<svg height="18" viewBox="0 0 18 18" width="18" xmlns="http://www.w3.org/2000/svg" xmlns:xlink="http://www.w3.org/1999/xlink"><linearGradient id="a"><stop offset="0" stop-color="#0f62f7"/><stop offset="1" stop-color="#08b6b3"/></linearGradient><linearGradient id="b" gradientUnits="userSpaceOnUse" x1="5.09" x2="12.27" xlink:href="#a" y1="17.9" y2="10.72"/><linearGradient id="c" gradientUnits="userSpaceOnUse" x1="3" x2="10.18" xlink:href="#a" y1="10" y2="2.82"/><linearGradient id="d" gradientUnits="userSpaceOnUse" x1="6.63" x2="13.81" xlink:href="#a" y1="11.37" y2="4.19"/><linearGradient id="e"><stop offset="0" stop-color="#08b6b3"/><stop offset="1" stop-color="#0c89d8"/></linearGradient><linearGradient id="f" gradientUnits="userSpaceOnUse" x1="11.65" x2="7.94" xlink:href="#e" y1="5.29" y2="9.64"/><linearGradient id="g" gradientUnits="userSpaceOnUse" x1="9.65" x2="5.94" xlink:href="#e" y1="7.29" y2="11.64"/><path d="m0 0h18v18h-18z" fill="#f0f3fa"/><path d="m9 15a1 1 0 1 0 0-2 1 1 0 0 0 0 2z" fill="url(#b)"/><path d="m4 10a1 1 0 1 0 0-2 1 1 0 0 0 0 2z" fill="url(#c)"/><path d="m11.5 7.5a1 1 0 1 0 0-2 1 1 0 0 0 0 2z" fill="url(#d)"/><path d="m9.35 4.94a1 1 0 1 0 -.7 0v3.12a1 1 0 1 0 1.29 1.3h3.12a1 1 0 1 0 0-.71h-3.12a1 1 0 0 0 -.59-.59z" fill="url(#f)"/><path d="m6.85 7.44a1 1 0 1 0 -.7 0v3.12a1 1 0 1 0 1.29 1.3h3.12a1 1 0 1 0 0-.71h-3.12a1 1 0 0 0 -.59-.59z" fill="url(#g)"/></svg>