<svg fill="none" height="18" viewBox="0 0 18 18" width="18" xmlns="http://www.w3.org/2000/svg"><path d="m0 0h18v18h-18z" fill="#f0f3fa"/><path clip-rule="evenodd" d="m10.4275 7h1.7151c-.2442-.6954-1.2222-2-3.18042-2-2.44779 0-4.96218 2.24138-4.96218 4.2931 0 2.0517 1.99819 2.7069 3.29702 2.7069h4.05898l.2176-1.5h-4.55936c-.53848-.1261-1.61544-.4066-1.61544-1.37739 0-1.2135 1.68623-2.99659 3.49204-2.99659.34279-.01203 1.13006.07697 1.53666.87398zm2.4494 3.5h-1.0588l-.2078 1.5h1.0588zm1.1231 0h-.8213l-.2078 1.5h.8213z" fill="#231f20" fill-rule="evenodd"/><ellipse cx="8.33192" cy="8.75" fill="#1577ab" opacity=".6" rx="1.78374" ry="1.75"/><g fill="#1073ac"><path d="m7.56466 9.35582c-.07906.06477-.1553.37243-.18354.51816-.0435.18832-.21175-.17811-.26823-.29146-.05647-.11334-.16941-.17811-.22588-.34004s-.26824-.18622-.30354-.52627c-.02823-.27204.15295-.49117.24706-.56673.09883.14573.31624.4631.3953.56673.09882.12955.33883.05668.45177.11335.11294.05668-.01412.4453-.11294.52626z"/><path d="m8.1717 8.23848c.02258-.12307.26824-.34814.38824-.4453.1153-.09445.384-.28661.53648-.29956.19059-.0162.29647.08096.36.13763.06353.05668.36.42911.40942.50197.04941.07287-.00706.15383-.04942.18622-.04235.03238-.19059.30766-.36.30766s.02824.29146 0 .40481-.09177.31576-.21177.4534c-.12.13763-.14823.18621-.24706.30766-.09882.12144-.13412-.16193-.21883-.26718-.0847-.10525-.02823-.34814-.06353-.49388-.03529-.14573-.05647-.29146-.15529-.40481s-.22588-.04048-.29647-.08097c-.07059-.04048-.12001-.15382-.09177-.30765z"/></g></svg>