<svg height="18" width="18" xmlns="http://www.w3.org/2000/svg"><path d="m0 0h18v18h-18z" fill="#f0f3fa"/><path d="m9.22 5.57c.01.03.04.04.08.02l.7-.7s.02-.01.02-.03l-.02-.03-.71-.83c-.03-.02-.06-.01-.07.02v1.54z" fill="#62bb46"/><path d="m8.82 5.56c0 .05-.04.05-.06.02l-.63-.69-.01-.03.01-.03.63-.82c.03-.02.06 0 .06.03zm.4 1.65c.02.04.04.05.08.03l1.36-1.38.02-.04-.02-.03-.44-.62-.03-.03c-.03 0-.05.02-.05.02l-.9.93c0 .01-.02.02-.02.05v1.06z" fill="#a5cf4f"/><path d="m8.82 7.21c0 .04-.03.05-.06.03l-1.37-1.38-.02-.04.02-.03.44-.62.03-.03.05.02.88.92.03.06v1.06z" fill="#007933"/><path d="m11.4 7.44v-.06l-.03-.03-.04.01-.05.04-2.02 2.07a.18.18 0 0 0 -.04.1v.4c.02.02.04.03.08.03 0 0 .76-.01 1.35-.58a2.32 2.32 0 0 0 .76-1.98z" fill="#62bb46"/><path d="m6.65 7.44.01-.06s.01-.03.03-.03l.04.01.04.04 2.03 2.07c.04.03.03.1.03.1v.4c0 .02-.03.03-.06.03 0 0-.76-.01-1.36-.58a2.39 2.39 0 0 1 -.78-1.74c0-.15.03-.24.03-.24z" fill="#a5cf4f"/><path d="m9.22 8.97c0 .04.05.06.07.03l1.98-2.03.02-.05-.02-.06-.38-.72-.04-.04c-.03 0-.04.02-.04.02l-1.53 1.58a.16.16 0 0 0 -.06.12z" fill="#007933"/><path d="m8.82 8.97c0 .04-.03.05-.06.03l-1.98-2.03-.02-.05.02-.06.39-.72.03-.04c.03 0 .05.02.05.02l1.53 1.58c.03.02.04.07.04.12z" fill="#62bb46"/><path d="m10.03 11.32-.6.6s.23.07.38.08c.32.02.49-.15.81-.15.3 0 .47.13.77.15.39.01.6-.16.98-.15.35 0 .53.15.87.15s.52-.15.87-.15c.34 0 .89.15.89.15l-.06-.35c-.04-.2-.1-.33-.1-.33s-.46-.16-.77-.16c-.33 0-.5.16-.83.16-.35 0-.52-.16-.87-.16-.37-.01-.56.18-.93.16-.29-.01-.43-.17-.72-.16-.28 0-.69.16-.69.16z" fill="#43c5e4"/><path d="m11.35 9.9s.66-.22 1.05-.17c.18.03.47.16.72.16.33 0 .61-.12.58-.13a2 2 0 0 0 -1.02-.26c-.6 0-1.08.25-1.33.4z" fill="#94d7e9"/><path d="m11.04 10.26-.7.59s.65.17 1.07.15c.34-.01.51-.14.85-.15.35-.01.53.15.87.15.38 0 .58-.18.95-.15.25.02.64.15.64.15s-.14-.32-.27-.49a2.54 2.54 0 0 0 -.37-.38s-.55.22-.91.21c-.36 0-.55-.21-.9-.2-.35 0-.52.23-.86.2-.14 0-.37-.08-.37-.08z" fill="#007ec5"/><path d="m7.7 11.18-.63.78c-.01.01 0 .04.02.04h1.39c.02 0 .03-.03.02-.05l-.76-.78a.03.03 0 0 0 -.04 0z" fill="#e82c2a"/><path d="m6.59 12h-1.01c-.03 0-.04-.03-.02-.05l1.28-1.6a.03.03 0 0 1 .04 0l.6.54v.05l-.87 1.05z" fill="#c3271b"/><path d="m5.05 12h-1.11a.04.04 0 0 1 -.03-.07l1.86-2.29a.04.04 0 0 1 .05 0l.77.49c.02.01.02.04 0 .06l-1.49 1.78a.07.07 0 0 1 -.05.03z" fill="#e82c2a"/><path d="m3.42 12h-.34a.09.09 0 0 1 -.08-.08c0-.25.1-1.02.6-1.59.6-.69 1.2-.83 1.55-.83.13 0 .23.01.3.03.02 0 .03.04 0 .06l-1.97 2.38a.07.07 0 0 1 -.06.03z" fill="#ea5329"/></svg>