<svg height="18" viewBox="0 0 18 18" width="18" xmlns="http://www.w3.org/2000/svg" xmlns:xlink="http://www.w3.org/1999/xlink"><linearGradient id="a"><stop offset="0" stop-color="#37719e"/><stop offset="1" stop-color="#171c24"/></linearGradient><linearGradient id="b" gradientUnits="userSpaceOnUse" x1="4.34" x2="9.94" xlink:href="#a" y1="7.04" y2="13.39"/><linearGradient id="c" gradientUnits="userSpaceOnUse" x1="7.04" x2="13.39" xlink:href="#a" y1="13.64" y2="8.04"/><linearGradient id="d" gradientUnits="userSpaceOnUse" x1="13.64" x2="8.04" xlink:href="#a" y1="10.96" y2="4.61"/><linearGradient id="e" gradientUnits="userSpaceOnUse" x1="10.96" x2="4.6" xlink:href="#a" y1="4.34" y2="9.96"/><path d="m0 0h18v18h-18z" fill="#f0f3fa"/><path d="m10.08 12.85c-.92-.2-3.04-.98-4.12-2.5-1.23-1.72-1.46-2.65-1.08-4.19a5 5 0 0 0 5.72 7.58z" fill="url(#b)"/><path d="m12.85 7.92c-.2.92-.98 3.04-2.5 4.12-1.72 1.23-2.66 1.45-4.19 1.07a5 5 0 0 0 7.58-5.72z" fill="url(#c)"/><path d="m7.92 5.15c.92.2 3.04.98 4.12 2.5 1.23 1.72 1.45 2.66 1.07 4.19a5 5 0 0 0 -5.71-7.58l.53.89z" fill="url(#d)"/><path d="m5.34 9.4a7.15 7.15 0 0 1 2.3-3.44c1.73-1.23 2.67-1.45 4.2-1.08a5 5 0 0 0 -7.84 4.12c0-1.05.33-2.03.88-2.84a3.84 3.84 0 0 0 .46 3.24z" fill="url(#e)"/></svg>