<svg height="18" viewBox="0 0 18 18" width="18" xmlns="http://www.w3.org/2000/svg" xmlns:xlink="http://www.w3.org/1999/xlink"><linearGradient id="a" gradientUnits="userSpaceOnUse" x1="9" x2="9" y1="6" y2="14.05"><stop offset="0" stop-color="#c39627"/><stop offset="1" stop-color="#a64e3f"/></linearGradient><path d="m0 0h18v18h-18z" fill="#16243e"/><g fill="url(#a)"><path d="m5.33 6.58.28-.58c1.39.45 2.89 1.58 2.89 2.92v4.08h-.91v-3.9c0-1.2-1.01-2.11-2.26-2.52z"/><path d="m3 6.58.15-.58c1.29.43 4.44 1.57 4.44 3.1v3.9h-1.09v-3.65c0-1.34-2.4-2.4-3.5-2.77z"/><path d="m12.67 6.58-.28-.58c-1.39.45-2.89 1.56-2.89 2.9v4.1h1v-3.9c0-1.2.92-2.11 2.17-2.52z"/><path d="m15 6.58-.15-.58c-1.29.43-4.35 1.57-4.35 3.1v3.9h1v-3.65c0-1.34 2.4-2.4 3.5-2.77z"/><path d="m8.5 6v7h1v-7z"/></g></svg>