<svg fill="none" height="18" viewBox="0 0 18 18" width="18" xmlns="http://www.w3.org/2000/svg"><path d="m0 0h18v18h-18z" fill="#f0f3fa"/><path clip-rule="evenodd" d="m8.23504 4.05309c-1.96957.29258-3.62136 1.79626-4.08869 3.72207-.15393.63431-.18925 1.3949-.09255 1.99281.25963 1.60533 1.22675 2.94673 2.65281 3.67943.71914.3694 1.47952.553 2.28955.5526.8422-.0004 1.55234-.1715 2.29574-.5531 1.1884-.6101 2.065-1.638 2.4794-2.9074.2656-.81336.3024-1.84247.0972-2.71707-.3607-1.53781-1.4725-2.83477-2.9578-3.45025-.8062-.3341-1.7871-.45108-2.67566-.31909zm.74529.89648c.06644.04047.12082.08743.12082.1043 0 .0169-.04969.05733-.11039.08988-.13019.06975-.06878.10994.07445.04867.0752-.03216.11154-.03156.16477.00277.05655.03647.08324.03391.15535-.01487.1236-.0836.15736-.07368.15736.04633 0 .08293.01485.1052.07017.1052.03859 0 .09881-.01581.13379-.03517.08675-.0479.12211.01799.06685.1246-.05968.11513-.23025.18986-.49077.21496-.32181.03104-.28303.11643.05292.11643.17081 0 .21262.04412.12628.13326-.05797.05986.02935.05551.21059-.01052.21506-.07834.24805-.0708.23052.0526-.01202.08459-.00265.10521.04792.10521.03724 0 .07724.03899.09804.09538.0478.12996-.0303.18516-.26209.18516-.09809 0-.18847.01697-.2009.0377-.01498.02507-.10686.02956-.27373.01343-.1634-.01582-.25113-.01182-.25113.01147 0 .04808.18728.11274.32654.11274.07784 0 .12383.02164.14897.07014.02.03857.05978.07013.08841.07013.0378 0 .04568.02062.0288.07558-.02255.07332-.01705.07487.18661.05291.20332-.02195.20952-.0202.19922.05594-.0096.07171.005.0795.1678.08918.1472.00876.1783.02191.1783.07557 0 .0552.0198.06224.1314.04678.075-.01042.141-.00235.1536.01876.0309.05159-.1616.26894-.2848.32165-.1217.052-.1296.0891-.0257.11926.0723.02101.073.0243.0133.0606-.0348.02115-.18.05807-.3227.08213-.24402.04106-.2538.04608-.16389.08374.05258.02206.14049.04008.19529.04008s.0997.01547.0997.03441c0 .05709-.164.08146-.40687.06045-.13118-.01136-.24374-.00526-.26259.01421-.02102.0217-.08427.0222-.17427.00129-.12143-.02815-.14113-.02468-.14018.02487.00272.14451.16575.25052.38527.25052.0842 0 .16368.01771.17662.03935.03165.05285.33842.0142.58652-.07385.1871-.06639.1933-.06649.2364-.00288.0356.05239.0724.06137.1868.04556l.1424-.01975-.1092.12849c-.0601.0707-.1012.1503-.0913.17692.0232.0626.3053.10093.5233.07108.2418-.03314.2163.0283-.0679.16356-.1308.06221-.2378.12621-.2378.1422 0 .05411.1665.1421.3052.16132.1579.02184.1948.05975.133.13659-.035.04359-.0348.05912.0014.0822.0246.01567.035.04467.0231.06449-.0119.01978-.0023.04422.0211.05432.0305.01304.0238.03405-.0232.07311-.1163.09662-.6916.07316-1.2854-.05246-.27897-.05898-.51465-.09948-.52386-.09002-.05947.06144.71326.33568.94956.33704.1285.00074.1174.04401-.0485.19067l-.142.12547.1165-.00084c.0641-.00046.1776-.01574.2524-.03398.1074-.02623.1437-.02237.1735.01838.0208.02833.0704.05151.1104.05151.1169 0 .085.04857-.1056.16062-.15.0882-.18.1228-.189.2176-.0092.0976-.0234.1127-.1061.1127-.0525 0-.1605-.0236-.2399-.0526-.1928-.0702-.2374-.0646-.1416.0178.1168.1006.2923.1396.6281.1398l.2996.0002-.0109.0965c-.0103.0908-.0041.0957.1079.0842.0654-.0066.1764-.0325.2466-.0573.1342-.0476.1957-.0159.1294.0666-.0206.0256-.0284.0712-.0172.1013.0138.0372-.0129.0724-.0833.11-.1206.0644-.1771.1571-.1651.271.0076.0721-.0126.0851-.1868.1211-.2109.0434-.3651.128-.3651.2002 0 .0967.088.1606.2351.1708.0826.0057.1555.0271.162.0475.0181.0571-.204.1512-.4606.1949-.1929.0329-.2793.0296-.514-.0195-.2261-.0473-.28735-.0501-.30882-.0143-.04066.0679-.21918-.0331-.50105-.2836-.13162-.117-.24394-.2127-.24965-.2127-.00567 0-.00506.4172.0014.9271l.01175.9271-.14096.0391c-.14177.0395-.39043.0205-.47979-.0365-.03865-.0247-.04806-.158-.04806-.6807 0-.3575-.00516-.65-.01144-.65-.00629 0-.10564.0951-.22078.2113-.42643.4306-.67662.5294-.30826.1218.12203-.135.23799-.2754.25772-.3121.03444-.064.032-.0639-.06144.0025-.21035.1495-.74761.3256-.83106.2723-.02479-.0158.06766-.0781.23653-.1595.29886-.1439.5821-.3302.5821-.3826 0-.0199-.03183-.02-.08176-.0004-.04493.0176-.17104.0413-.28021.0526-.53736.0555-.55757.0537-.53152-.0492.01254-.0496-.00981-.0685-.10223-.0863-.1578-.0306-.29839-.1058-.39366-.2105-.09704-.1066-.06867-.1613.08373-.1613.14758 0 .14696-.0319-.00241-.1318-.19303-.1291-.15315-.1555.1957-.1297.52959.0392 1.03186-.0712 1.23932-.2723.11541-.112.09262-.1422-.05054-.0669-.22852.1201-.48747.18-.7704.1779-.34729-.0025-.51491-.0576-.50373-.1654.00445-.0428-.0032-.0746-.01699-.0707-.01375.0039-.09112-.0044-.17193-.0185-.18154-.0317-.17383-.1043.01369-.1295l.13321-.0178-.18681-.0922c-.22022-.1086-.33116-.1907-.30052-.2223.01216-.0125.10383-.0294.20376-.0375.42667-.0346.6363-.06064.844-.10483.5577-.11867.6668-.17958.29091-.1624-.26306.01203-.61654-.0722-.87681-.20893-.20366-.107-.15223-.17044.13864-.171.38055-.00073.68267-.08335.40742-.11144-.16552-.01687-.15057-.08371.03009-.1347.18552-.05239.50655-.21963.4554-.23724-.01871-.00645-.09225.00498-.1634.02539-.1806.05176-.46713.04657-.6003-.01087-.12027-.05186-.26897-.21998-.24907-.2816.00666-.02062.06705-.03264.13423-.02665.10893.00968.1201.00302.1037-.06175-.01699-.06705-.00381-.07259.17237-.07259.1953 0 .23076-.02729.13841-.10644-.09687-.083.0035-.11232.12424-.03629.15634.0984.38517.09577.5395-.00621l.11888-.07852-.11772-.01181c-.06715-.00674-.15281-.04801-.19941-.09613-.07652-.079-.07768-.0857-.01814-.10562.20688-.06912.38622-.20101.38622-.28398 0-.06358-.07085-.05839-.27026.01985-.14561.05712-.17468.05937-.20936.0162-.02656-.03304-.07839-.04384-.15223-.03174-.06155.0101-.12116.00302-.1324-.01578-.02157-.03609.11321-.10612.5179-.26908.26309-.10594.41268-.20206.37501-.24095-.01274-.01315-.1577.00158-.32216.03272-.35212.06673-.68049.07266-.86492.0156-.17017-.05263-.15084-.10478.05577-.15058.14591-.03233.15804-.04184.10801-.08455-.03101-.02648-.05638-.05972-.05638-.07389 0-.01413.15668-.03503.34814-.04639.34352-.02038.60288-.0787.60288-.13558 0-.01606-.06318-.02917-.14041-.02917-.22115 0-.50493-.09812-.50493-.17457 0-.01413.09602-.03497.21341-.04626.11734-.01132.25871-.04106.31417-.06607.09731-.04387.0932-.04579-.12-.05544-.29814-.01353-.33034-.02728-.25779-.11008.05458-.06224.05135-.06631-.0718-.09016-.18834-.03643-.35783-.11684-.33317-.15805.01179-.01971.1018-.0358.19999-.0358.17777 0 .55394-.05923.61225-.09641.01685-.01073.00364-.0399-.02938-.0648-.05533-.0418-.05159-.05061.04823-.11327.05955-.03739.10771-.07884.10703-.09213s-.08135-.06642-.17927-.11807c-.09789-.05169-.18253-.10973-.18806-.12902-.00605-.02107.08698-.03507.2333-.03507.28609 0 .33955-.0566.1236-.1309-.19798-.06814-.18997-.14228.01872-.1731.09061-.0134.22053-.06393.2887-.11229.15332-.10885.17556-.11011.32579-.01859zm-.5879 1.15701c-.07469.06245-.0755.06691-.01246.06691.07336 0 .16408-.08813.11979-.11639-.01501-.00958-.06331.01269-.10733.04948zm.81061 1.00831c0 .10931.12543.22696.21541.20203.04031-.01115.10386-.02058.14122-.02094.05887-.00056.05445-.01178-.03301-.08405-.05553-.04587-.12108-.07544-.14564-.06572-.02456.00975-.07466-.01035-.11131-.04461-.06429-.06007-.06667-.05958-.06667.01329zm.48248 1.5369c.22012.12768.81428.24709.75748.15223-.0114-.01908-.089-.07596-.1725-.12649-.1207-.07305-.1617-.08325-.2005-.04997-.0269.023-.0683.02939-.09201.01424-.02378-.01515-.11684-.02929-.20681-.03139-.15044-.00354-.15733-.00021-.08566.04138zm-1.27217.41735c-.09972.05586-.10855.0763-.06416.14862.02748.04471.05027.021.15353-.15992.0309-.05414.02642-.05358-.08937.0113zm-.11038 1.03136c-.05605.0154-.23514.0558-.39797.0897s-.28762.0758-.27729.093c.01032.0173.00146.0529-.01967.0792-.05628.07.70817-.1863.79512-.2665.03635-.0336.03866-.0337-.10019.0046zm1.10274.5428c.07659.0953.52072.379.80739.5157.3093.1475.369.1642.2592.0723-.0398-.0334-.143-.144-.2293-.2459s-.1569-.1611-.1569-.1315c0 .0767-.0325.0693-.32926-.0757-.40568-.1982-.40031-.1961-.35113-.1349zm-1.03481.46c-.15403.1349-.20288.1463-.25134.0586-.03071-.0554-.0447-.0504-.14605.0534l-.11209.1148.11032-.0227c.07027-.0145.12958-.0062.16347.0229.04552.039.07833.0196.22774-.1347.20206-.2086.20705-.2666.00795-.0923zm1.17179.0809c0 .0573.27128.2846.33976.2846.12155 0 .07998-.0536-.17774-.2293-.13804-.094-.16202-.1023-.16202-.0553z" fill="#37615d" fill-rule="evenodd"/></svg>