<svg height="18" viewBox="0 0 18 18" width="18" xmlns="http://www.w3.org/2000/svg"><path d="m0 0h18v18h-18z" fill="#f0f3fa"/><path d="m7.66 6a1.17 1.17 0 0 0 0-1.66 1.17 1.17 0 0 0 -1.66 0l-1.87 2.06a3.87 3.87 0 1 0 5.48 5.48l2.05-2.06c.45-.45.45-1.2 0-1.65-.46-.46-.96-.13-1.42.33l-2.3 1.72c-.59.6-1.55.6-2.15 0-.3-.3-.45-.67-.46-1.06 0-.4.16-.8.46-1.1z" fill="#2e3192"/><path d="m9.04 12.33c.31-.16.49-.37.76-.63l2.17-2.04a1.13 1.13 0 0 0 0-1.65 1.3 1.3 0 0 0 -1.75 0l-2.18 2.04c-.63.6-1.65.6-2.29 0a1.5 1.5 0 0 1 -.4-.67c.3 1.63 1.93 2.9 3.69 2.95z" fill="#1b1464"/><path d="m10.36 12a1.15 1.15 0 0 0 0 1.66c.47.45 1.2.45 1.67 0l1.8-2.05a3.77 3.77 0 0 0 0-5.48 4.12 4.12 0 0 0 -5.68 0l-2.13 2.07c-.47.45-.47 1.2 0 1.65.48.46 1.25.46 1.72 0l2.13-2.05c.31-.3.58-.63.96-.62.78 0 1.82.91 1.84 1.66 0 .4-.15.81-.47 1.12z" fill="#d1d2d4"/><path d="m9.28 5.37a4 4 0 0 0 -1.13.76l-2.13 2.07c-.47.45-.47 1.2 0 1.65.48.46 1.25.46 1.72 0l2.13-2.05c.27-.26.81-.46 1.13-.46.78 0 1.41.6 1.63 1.24-.24-1.74-1.5-3-3.35-3.2z" fill="#a7a9ac"/></svg>