<svg height="18" viewBox="0 0 18 18" width="18" xmlns="http://www.w3.org/2000/svg"><path d="m0 0h18v18h-18z" fill="#054fb6"/><path d="m8.66 4c.33 0 .65.03.96.1v2.7h-1.06a1.3 1.3 0 0 0 .44 2.56v1.4h-.18a2.64 2.64 0 0 1 -2.63-2.7c0-1.21.78-2.25 1.87-2.57v-.13a4.48 4.48 0 0 0 -3.11 4.34 4.5 4.5 0 0 0 2.88 4.25 5 5 0 0 1 -4.13-4.94 4.99 4.99 0 0 1 4.96-5.01zm.68 10c-.33 0-.65-.03-.96-.1v-2.7h1.06a1.3 1.3 0 0 0 -.44-2.56v-1.4h.18c1.48 0 2.63 1.2 2.63 2.7 0 1.21-.78 2.25-1.87 2.57v.13a4.48 4.48 0 0 0 3.11-4.34 4.5 4.5 0 0 0 -2.88-4.25 5 5 0 0 1 4.13 4.94 4.99 4.99 0 0 1 -4.96 5.01z" fill="#fff"/></svg>