<svg height="18" viewBox="0 0 18 18" width="18" xmlns="http://www.w3.org/2000/svg"><path d="m0 0h18v18h-18z" fill="#f0f3fa"/><path d="m4.35 10.32c0 1.6 1.94 3 4.76 3.68-3.54-.52-6.11-2.07-6.11-3.9 0-2.28 3.91-4.1 8.74-4.1 1.15 0 2.25.1 3.26.3-.61-.07-1.25-.1-1.9-.1-4.83 0-8.75 1.84-8.75 4.12zm2.54-.06c0 1.18 1.44 2.2 3.55 2.7-2.65-.39-4.57-1.52-4.57-2.87 0-1.66 2.93-3 6.54-3 .86 0 1.69.07 2.44.2-.46-.04-.93-.06-1.42-.06-3.62 0-6.54 1.35-6.54 3.03zm4.58 1.89c-1.54-.37-2.6-1.12-2.6-1.98 0-1.22 2.14-2.21 4.78-2.21.36 0 .7.02 1.04.05a9.84 9.84 0 0 0 -1.78-.16c-2.64 0-4.78.99-4.78 2.2 0 .98 1.4 1.82 3.34 2.1zm-.65-1.92c0 .57.7 1.07 1.73 1.32-1.29-.2-2.22-.75-2.22-1.4 0-.8 1.42-1.46 3.17-1.46.42 0 .82.04 1.2.1a6.77 6.77 0 0 0 -.7-.03c-1.76 0-3.18.66-3.18 1.47z" fill="#41c3dc"/></svg>