<svg fill="none" height="18" viewBox="0 0 18 18" width="18" xmlns="http://www.w3.org/2000/svg"><path d="m0 0h18v18h-18z" fill="#f0f3fa"/><path clip-rule="evenodd" d="m4.3903 4.78318 3.14633-1.78312c.08943.26506.49267.79518 1.39023.79518s1.34954-.53012 1.46344-.79518l3.0975 1.78312c-.3089.32129-.7805 1.14699-.1951 1.87951.5854.73253 1.3821.80321 1.7073.74699v3.49392c-.4553-.0401-1.4341.053-1.7073.747s.0163 1.3494.1951 1.5904l-3.0975 1.759c-.0244-.3373-.3513-1.012-1.46344-1.012-1.11219 0-1.39023.6747-1.39023 1.012l-3.14633-1.759c.27642-.2812.76097-.9928.4878-1.5904-.34146-.747-1.07317-.747-1.87804-.747v-3.49392c.30081-.0482 1-.26506 1.39024-.74699.4878-.6024.17073-1.73493 0-1.87951zm1.017.9282c-.15217-.26151-.06187-.5959.20169-.74688l1.55552-.89108c.26356-.15099.60058-.06139.75275.20012l.00885.01522c.15217.26151.06187.5959-.2017.74688l-1.55551.89108c-.26357.15098-.60058.06138-.75275-.20013zm7.1854.00001c.1522-.26151.0619-.5959-.2017-.74688l-1.5555-.89108c-.2636-.15098-.6006-.06138-.7528.20012l-.0088.01522c-.15218.26151-.0619.5959.2017.74688l1.5555.89108c.2636.15099.6006.06139.7527-.20012zm-6.9837 7.32421c-.26357-.151-.35387-.4854-.2017-.7469l.00885-.0152c.15217-.2615.48919-.3511.75275-.2001l1.55552.891c.26356.151.35386.4854.20169.7469l-.00885.0152c-.15217.2615-.48918.3511-.75275.2002zm6.9837-.7469c.1522.2615.0619.5959-.2017.7469l-1.5555.8911c-.2636.1509-.6006.0613-.7528-.2002l-.0088-.0152c-.15218-.2615-.0619-.5959.2017-.7469l1.5555-.891c.2636-.151.6006-.0614.7527.2001z" fill="#273857" fill-rule="evenodd"/><circle cx="8.99997" cy="9.00003" fill="#bacc59" r="3.00003"/></svg>