<svg fill="none" height="18" viewBox="0 0 18 18" width="18" xmlns="http://www.w3.org/2000/svg" xmlns:xlink="http://www.w3.org/1999/xlink"><linearGradient id="a" gradientUnits="userSpaceOnUse" x1="5.99997" x2="11.0984" y1="4.05219" y2="4.05219"><stop offset="0" stop-color="#a52221"/><stop offset="1" stop-color="#ed1c24"/></linearGradient><linearGradient id="b" gradientUnits="userSpaceOnUse" x1="6.42542" x2="10.9136" y1="6.92091" y2="6.92091"><stop offset="0" stop-color="#208334"/><stop offset="1" stop-color="#39b54a"/></linearGradient><linearGradient id="c" gradientUnits="userSpaceOnUse" x1="6.12985" x2="11.4897" y1="12.0409" y2="12.0409"><stop offset="0" stop-color="#2b943d"/><stop offset="1" stop-color="#39b54a"/></linearGradient><linearGradient id="d" gradientUnits="userSpaceOnUse" x1="6.27852" x2="11.1097" y1="9.37423" y2="9.37423"><stop offset="0" stop-color="#ed1c24"/><stop offset="1" stop-color="#a12220"/></linearGradient><path d="m0 0h18v18h-18z" fill="#f0f3fa"/><path d="m11.606 5.36568-5.12434-2.36568c-.16057.13311-.48169.50701-.48169.93771 0 .43069.26403.7287.39604.82387 1.21452.54652 3.75449 1.70483 4.19799 1.96586.4436.26103.4489.51118.3961.60363.3366-.10605 1.0099-.4617 1.0099-1.03596s-.2627-.8589-.394-.92943z" fill="url(#a)"/><path d="m11.1562 7.85984-4.57498-2.11277c-.19375.13365-.58125.49966-.58125.89445 0 .3948.3875.76081.58125.89446l2.9625 1.34169-.45.35469 1.87498.83274c.3438-.09764 1.0313-.45336 1.0313-1.0949 0-.64155-.5625-1.00755-.8438-1.11036z" fill="url(#b)"/><path d="m6 11.9003c0-.5428.64279-1.0178.96418-1.1875-.16427.2015.1306.5198.29857.6538 1.2627.5806 3.86265 1.7724 4.16095 1.8941.3729.1521.5763.4701.5763.8088 0 .271-.3449.7333-.5174.9306l-4.85871-2.1591c-.20796-.0874-.62389-.3979-.62389-.9407z" fill="url(#c)"/><path d="m9.02712 8.9467-1.88688-.89714c-.51583.15506-1.14027.57594-1.14027 1.20725 0 .50505.42534.82329.63801.91929l4.81902 2.193c.181-.0628.543-.3212.543-.8528 0-.5317-.4978-.9009-.7466-1.019l-2.78284-1.24049z" fill="url(#d)"/><path d="m9.66057 6.39612-.59368.25201 1.73201.77896v-.34824z" fill="#d4262e"/><path d="m7.25035 11.0944c-.12924-.1476-.06462-.3534-.06001-.3806l.06001-.0388 1.69397.7533-.65543.3029c-.3031-.1631-.93515-.5188-1.03854-.6368z" fill="#39b54a"/></svg>