<svg fill="none" height="18" viewBox="0 0 18 18" width="18" xmlns="http://www.w3.org/2000/svg"><path d="m0 0h18v18h-18z" fill="#f0f3fa"/><path d="m9.88778 11.9995c-.00442 0-.00932-.0004-.01369-.0009-3.80377-.7507-5.7789-1.8305-5.87072-3.20905-.18413-2.76609 7.24063-5.66294 7.55713-5.78468.041-.01578.085.0079.1006.05468.0156.04622-.0027.09862-.0425.11891-3.96942 2.02162-5.91254 3.86451-5.77579 5.47719.18023 2.13035 4.02376 3.14985 4.06283 3.16005.04249.0113.07034.0597.06155.1093-.00781.044-.04152.075-.07913.075" fill="#00539f"/><path d="m7.14906 15c-.2924 0-.55067-.016-.74731-.0463-.04123-.0062-.07111-.0502-.06827-.0999.00266-.0497.03699-.0885.07822-.0885h.00037l.01705.0005c1.62261 0 5.06958-.8515 5.87328-2.4788.2322-.4711.227-.9839-.0161-1.523-.3408-.756-1.1578-1.1877-1.8785-1.5686-.45074-.23811-.87626-.46312-1.14073-.74347-.2905-.30778-.39194-.69209-.29287-1.11063.24358-1.0261 1.7132-2.17847 3.1457-2.46508.0413-.00799.0806.02397.0891.07308.009.04911-.0156.09822-.0559.11078-1.1933.38601-1.869 1.21917-1.9918 1.83012-.0611.3015 0 .56303.1758.75549.1441.1576.5592.38943 1.0407.65726.9212.51393 2.0685 1.15348 2.3552 1.83185.3502.8286.3559 1.5863.0166 2.2533-.9677 1.9026-4.56223 2.6118-6.60073 2.6118" fill="#eeb111"/></svg>