<svg height="18" width="18" xmlns="http://www.w3.org/2000/svg"><path d="m0 0h18v18h-18z" fill="#113d67"/><g fill="#fff"><path d="m4 8.354v.314a14.656 14.656 0 0 1 3.2-.817c-.958-.025-2.089.137-3.2.503z"/><path d="m9.87 8.682a4.032 4.032 0 0 0 -.86-.488c.114-.007.233-.025.367-.032.214.14.502.364.672.577l-.178-.057zm-2.356-1.308a4.313 4.313 0 0 0 -.885-.208c.134-.03.265-.055.415-.073a3 3 0 0 1 .778.329zm-3.514-.675c.289-.009.625.087.983.134l-.629.08a6.596 6.596 0 0 0 -.354.023v.143c.456-.084.96-.139 1.422-.143 4.048-.96 7.402-.056 7.402-.056-.72-.163-4.735-.707-8.824.89v.242a9.469 9.469 0 0 1 1.868-.434c.91-.111 1.755-.061 2.468.139 2.992-.213 5.16.424 5.16.424-.814-.131-5.188-.721-9.496 1.237v.194c1.193-.566 2.45-.899 3.515-.969 1.081-.058 2.048.096 2.775.525 1.714-.026 2.98.195 3.71.371v-5.499h-10z"/><path d="m4 9.974v.608a14.787 14.787 0 0 1 5.13-1.397c-1.43-.252-3.268.013-5.13.789zm7.709.718a2.995 2.995 0 0 0 -1.224-1.041c.16-.02.361-.025.51-.032.054.04.105.088.153.148.019.026.614.609.814 1.202zm-7.709.685v.252c.121-.069.249-.134.363-.195a10.783 10.783 0 0 1 2.703-1.022c.852-.202 1.687-.274 2.45-.206 1.443.129 2.479.755 2.978 1.837.005.008.361.803.395 1.552l-.173-.429a2.165 2.165 0 0 0 -.217-.631c-.37-.714-1.09-1.227-2.062-1.528-.883-.277-2.041-.289-3.244-.055-1.067.201-2.16.604-3.193 1.113v1.935h.1a8.85 8.85 0 0 1 1.991-1.122c1.823-.78 3.596-1.015 4.927-.664.977.278 1.615.904 1.875 1.786h1.107v-4.421c-1.642-.186-5.983-.487-10 1.798z"/><path d="m10.825 12.914c-.87-.23-1.872-.243-2.983-.038-.99.18-2.03.567-3.028 1.124h7.621c-.355-.515-.92-.897-1.61-1.086z"/></g></svg>