<svg height="18" viewBox="0 0 18 18" width="18" xmlns="http://www.w3.org/2000/svg"><path d="m0 0h18v18h-18z" fill="#f0f3fa"/><g fill="#014365"><path d="m9.67 5.45a.33.33 0 0 0 -.34.34v.88a.33.33 0 0 0 .67 0v-.87a.33.33 0 0 0 -.33-.34zm2-.03h.25a.33.33 0 1 1 0 .66h-.25zm.25 5.54h-.25v.65h.25a.33.33 0 0 0 0-.65z"/><path d="m14 4h-10v10h10zm-7.67 2a1 1 0 0 1 2-.08h-.66v-.15a.33.33 0 1 0 -.67 0v.9a.33.33 0 1 0 .67 0v-.13h.66a1 1 0 0 1 -2-.08zm3.34-1a1 1 0 0 0 -1 1v.46a1 1 0 1 0 2 0v-.46a1 1 0 0 0 -1-1zm1.33 0h1.18a.69.69 0 0 1 .34 1.3c.28.06.36.35.37.5v.25c.01.22.1.37.15.41h-.63c-.13-.03-.16-.24-.17-.34v-.29c0-.25-.21-.29-.32-.3h-.25v.93h-.67zm1.18 5.54h-1.18v2.46h.67v-.92h.25c.11 0 .33.04.32.29v.29c0 .1.04.3.17.34h.63a.7.7 0 0 1 -.15-.42v-.25c0-.15-.09-.43-.37-.5a.69.69 0 0 0 -.34-1.3zm-3.51-.3v-2.48h.56l.77 1.23v-1.22h.67v2.46h-.55l-.79-1.23v1.24zm2.33-2.48v2.46h2v-.45h-1.33v-.64h1.14v-.45h-1.14v-.47h1.33v-.45z" fill-rule="evenodd"/></g></svg>