<svg height="18" viewBox="0 0 18 18" width="18" xmlns="http://www.w3.org/2000/svg" xmlns:xlink="http://www.w3.org/1999/xlink"><linearGradient id="a" gradientUnits="userSpaceOnUse" x1="4.82" x2="12.59" y1="12.62" y2="5.63"><stop offset=".23" stop-color="#69c130"/><stop offset=".32" stop-color="#65c037"/><stop offset=".44" stop-color="#5bbe4a"/><stop offset=".58" stop-color="#49bb6a"/><stop offset=".74" stop-color="#31b696"/><stop offset=".91" stop-color="#12b0cd"/><stop offset="1" stop-color="#00adee"/></linearGradient><linearGradient id="b" gradientUnits="userSpaceOnUse" x1="8.2" x2="12.28" y1="7.22" y2="5.47"><stop offset=".23" stop-color="#0464a0"/><stop offset=".38" stop-color="#046aa7"/><stop offset=".6" stop-color="#037cba"/><stop offset=".86" stop-color="#019ad9"/><stop offset="1" stop-color="#00adee"/></linearGradient><path d="m0 0h18v18h-18z" fill="#f0f3fa"/><path d="m6.93 8.63c2.33-3.77 5.7-4.28 6.5-3 .68 1.07-.14 3.12-1.4 4.5-2.44 2.66-5.43 3.2-6.74 2.5-.44-.24-.8-.6-1.02-1.06a2.6 2.6 0 0 1 -.25-1.48c.16-1.93 1.9-3.39 3.38-4.19a5.98 5.98 0 0 0 -2.32 3.03c-.22.7-.08 1.93.72 2.36 1.66.85 4.3-.52 5.67-1.77 1.62-1.49 2.25-2.82 1.76-3.65-.5-.83-3.36-.54-6.3 2.76z" fill="url(#a)"/><path d="m6.93 8.63c2.49-2.79 4.94-3.4 5.91-3.06l.41-.18c-1.06-.95-4.15-.28-6.32 3.24z" fill="url(#b)"/><path d="m11.75 9.39c-.87-.89-2-1.42-3.21-1.5l-.28.27-.25.23-.03.03h.1c1.22.08 2.37.56 3.3 1.4 1.04.88 1.92 1.96 2.6 3.18h.02a10.91 10.91 0 0 0 -2.25-3.61z" fill="#0464a0"/></svg>