<svg height="18" viewBox="0 0 18 18" width="18" xmlns="http://www.w3.org/2000/svg"><path d="m0 0h18v18h-18z" fill="#d12267"/><g fill="#fff"><path d="m3.26 7.75h2.01a.4.4 0 0 1 .37.52l-.53 1.64a.49.49 0 0 1 -.47.34h-2.14l.16-.5h1.54l.44-1.52h-1.54l.15-.48zm3.13.45.18-.45h2.02c.2 0 .34.2.25.39-.18.4-.48.93-.84 1.22l.41.24-.28.65-.68-.45h-.03c-.24.13-.86.43-1.57.45l.17-.36c.4-.1 1.32-.64 1.7-1.69h-1.34zm5.36-.45h-2.08l-.14.47h.52l-.14.47h-.67l-.13.48h.65l-.1.46c-.07.32.17.62.48.62h1.22l.16-.48h-1l.16-.6h.99c.12-.29-.05-.45-.15-.48h-.7l.15-.47h.87c.15-.34 0-.46-.1-.47zm1.05 0h1.82c.36.04.78.42-.38 1.64l.38.17-.22.69-.74-.47-.26.1c-.36.15-.9.37-1.28.37v-.33c.4-.04 1.35-.56 1.83-1.7h-1.33z"/><path d="m15.5 7h-13v4h13zm-13.5-.5v5h14v-5z" fill-rule="evenodd"/></g></svg>