<svg height="18" viewBox="0 0 18 18" width="18" xmlns="http://www.w3.org/2000/svg" xmlns:xlink="http://www.w3.org/1999/xlink"><linearGradient id="a" gradientUnits="userSpaceOnUse" x1="12.03" x2="4.83" y1="5.13" y2="12.79"><stop offset="0" stop-color="#b4eefa"/><stop offset=".32" stop-color="#5ddbec"/><stop offset=".62" stop-color="#51cce8"/><stop offset="1" stop-color="#38abe0"/></linearGradient><path d="m0 0h18v18h-18z" fill="#f0f3fa"/><path d="m14.27 7.63-7.2-3.51a1.18 1.18 0 0 0 -1.2.1l-.3.2a1.3 1.3 0 0 0 -.42.48c-.1.2-.15.41-.15.63v6.9c0 .21.05.43.15.62.1.2.24.36.42.48l.37.26a1.2 1.2 0 0 0 1.21.08l7.14-3.63c.2-.1.38-.27.5-.47.13-.2.2-.45.2-.7l.01-.2c0-.26-.06-.52-.19-.74s-.32-.4-.54-.5zm-7.65 4.97-.37-.22v-7.13l7.57 3.69z" fill="url(#a)"/><path d="m14.27 7.63-7.2-3.51a1.18 1.18 0 0 0 -1.2.1l-.3.2c-.13.09-.24.2-.34.34l9.7 4.72c.04-.13.06-.27.06-.4v-.21c.02-.26-.05-.52-.18-.74s-.32-.4-.54-.5z" fill="#485af7"/></svg>