<svg height="18" viewBox="0 0 18 18" width="18" xmlns="http://www.w3.org/2000/svg"><path d="m0 0h18v18h-18z" fill="#f0f3fa"/><path d="m11.3 9c0 1.66-1.12 3-2.5 3-.66 0-1.26-.3-1.7-.8a.97.97 0 0 0 -.12.14c-.46.52-1.36.66-1.75.66-1.68 0-2.19-1.64-2.23-2.45-.07-2.65 1.16-3.55 2.23-3.55.86 0 1.39.38 1.55.57l-.6 1.04-.01-.03c-.12-.17-.44-.62-.94-.58-.89.07-1.23 1.38-1.23 2.24 0 .87.8 1.76 1.23 1.76.34 0 .66-.19.77-.28l.5-.54c-.13-.36-.2-.76-.2-1.18 0-1.66 1.12-3 2.5-3 .47 0 .9.15 1.28.42.34-.27.72-.42 1.13-.42.44 0 .95.35 1.14.66l.65 1.18 1.09-1.84.91.64-1.35 2.36 1.35 2.4-1.05.61-1-1.8-1.03 1.8-.92-.72 1.3-2.22c-.48-.84-.88-1.52-.97-1.61-.19-.2-.36-.15-.44-.1.26.48.41 1.04.41 1.65zm-2.5-2c.2 0 .38.07.54.18l-.57.6.87.83.36-.36c.06.23.1.48.1.75 0 1.1-.59 2-1.3 2-.37 0-.7-.24-.94-.63l.54-.58-.76-.83-.13.15v-.11c0-1.1.58-2 1.29-2z" fill="#af2749" fill-rule="evenodd"/></svg>