<svg height="18" width="18" xmlns="http://www.w3.org/2000/svg"><path d="m0 0h18v18h-18z" fill="#0098d1"/><path d="m14.972 5.855c-2.097 1.636-4.076 1.959-4.076 1.959l-.224.647c2.56-.618 3.76-1.707 4.123-2.074.1-.304.177-.532.177-.532s-.105.314 0 0z" fill="#ffab1e"/><path d="m9.263 5.974c3.617-.343 5.122-1.075 6.465-1.731l-.162.433c-.297.252-2.428 1.65-6.723 2.025z" fill="#a5e030"/><path d="m2.636 7.262-.454.77c7.315.2 9.905-.803 11.17-1.526.063-.1.211-.394.264-.504-2.571 1.104-6.408 1.579-10.98 1.26z" fill="#ff4d46"/><path d="m5.348 11.396-.11.6h-1.175c-1.175 0-1.613-.557-1.413-1.495.201-.942.897-1.506 2.063-1.506h1.22l-.156.604h-1.159c-.626 0-.898.33-1.008.855-.11.507-.062.942.573.942zm2.045-.588c-.191.004-.492 0-.64 0l-.273 1.192h-.918l.636-3h1.467c.392 0 .726.01.965.164.268.173.358.447.292.77-.15.708-.855.851-1.53.874zm0-1.205h-.403l-.108.604h.363c.387 0 .71 0 .768-.293.067-.341-.249-.31-.621-.31zm5.42 1.533c-.033.158.062.264.215.264h1.262l-.287.6h-1.878c-.248 0-.406-.222-.353-.48l.54-2.52h.927zm-2.653-.936h1.434l-.139.6h-1.433l-.262 1.2h-.904l.536-2.533c.057-.26.3-.467.554-.467h1.951l-.155.6h-1.175c-.153 0-.306.138-.34.296l-.066.304z" fill="#fff"/></svg>