<svg height="18" viewBox="0 0 18 18" width="18" xmlns="http://www.w3.org/2000/svg"><path d="m0 0h18v18h-18z" fill="#f0f3fa"/><path d="m9.17 14c.64 0 1.16-.49 1.16-1.09s-.52-1.08-1.16-1.08c-.65 0-1.17.48-1.17 1.08s.52 1.09 1.17 1.09zm-1.74-1.42c.36-.3.3-.89-.12-1.3-.42-.42-1.05-.5-1.4-.2-.36.3-.31.88.11 1.3.43.41 1.06.5 1.41.2z" fill="#0069ab"/><path d="m12.77 11.93c.35-.46.3-1.02-.13-1.25-.43-.22-1.06-.03-1.41.43s-.3 1.02.13 1.24c.43.23 1.06.04 1.41-.42z" fill="#80b3d9"/><path d="m6.68 9.68c.01-.5-.31-.92-.73-.93-.41-.01-.76.39-.78.9-.02.5.3.92.72.93s.77-.39.79-.9z" fill="#0069ab"/><path d="m12.6 9.61c.4-.14.52-.58.28-.99-.24-.4-.76-.61-1.15-.47s-.51.59-.27.99.75.62 1.14.47z" fill="#80b3d9"/><path d="m7.36 8.18c.31-.27.4-.66.2-.87s-.61-.17-.92.1c-.31.28-.4.67-.2.88.2.2.61.16.92-.11z" fill="#0069ab"/><path d="m10.93 7.36c.16-.18.04-.47-.3-.66-.32-.19-.72-.2-.89-.02s-.04.47.29.66c.32.19.73.2.9.02z" fill="#80b3d9"/><path d="m8.65 6.8c.26-.1.41-.3.33-.43-.09-.14-.37-.17-.63-.06-.26.1-.41.3-.33.43.09.14.37.17.63.06zm1.62-.6c.27-.07.44-.26.38-.41-.05-.15-.32-.21-.6-.13-.26.08-.43.27-.37.42s.32.2.6.13zm1.59-.27c.28-.03.49-.2.47-.36-.01-.17-.25-.28-.52-.25-.28.03-.5.19-.48.36s.25.28.53.25z" fill="#0069ab"/><path d="m8.32 5.78c.06-.15-.1-.34-.37-.42-.26-.09-.54-.04-.6.1-.07.15.1.34.36.43.27.09.54.04.6-.1zm-1.65-.38c.03-.17-.17-.33-.45-.37s-.53.05-.56.2c-.03.16.17.33.45.37s.53-.05.56-.2zm-2.16.22c.28 0 .5-.15.49-.32 0-.17-.24-.3-.51-.3-.28.01-.5.16-.49.33 0 .17.24.3.51.3z" fill="#80b3d9"/></svg>