<svg height="18" width="18" xmlns="http://www.w3.org/2000/svg" xmlns:xlink="http://www.w3.org/1999/xlink"><linearGradient id="a" gradientUnits="userSpaceOnUse" x1="4.172" x2="11.902" y1="8.164" y2="9.007"><stop offset=".223" stop-color="#00466f"/><stop offset="1" stop-color="#001a35"/></linearGradient><linearGradient id="b" gradientUnits="userSpaceOnUse" x1="12.251" x2="5.237" y1="11.292" y2="12.217"><stop offset="0" stop-color="#00466e"/><stop offset="1" stop-color="#00476f"/></linearGradient><linearGradient id="c" gradientUnits="userSpaceOnUse" x1="12.814" x2="7.615" y1="5.92" y2="10.311"><stop offset="0" stop-color="#009edf"/><stop offset="1" stop-color="#0175b0"/></linearGradient><path d="m0 0h18v18h-18z" fill="#f0f3fa"/><path d="m5.275 12.274c-1.382-1.41-1.367-3.423-1.193-4.25 1.16 2.142 2.489 2.6 3.989 2.85 1.2.2 2.114-.502 2.429-.864.174 1.953-3.498 4.025-5.225 2.264z" fill="url(#a)"/><path d="m13.005 11.877-2.504-1.877c-.019.289-.115.93-.588 1.435-1.234 1.32-3.134 1.077-4.745.703.436.6 1.895 1.9 3.929 1.861 2.034-.04 3.453-1.431 3.908-2.122z" fill="url(#b)"/><path d="m8.098 10.644c-.864-.4-2.203-1.65-1.27-3.799 1.208-2.78 4.08-2.34 6.176-.845l-2.472 1.87c-.304-.401-1.181-1.083-2.256-.602s-1.168 1.594-1.08 2.09c.068.324.342 1.012.902 1.286z" fill="url(#c)"/><path d="m10.028 4.07c1.374.202 2.55 1.373 2.971 1.934-1.106-.808-2.51-1.165-3.099-1.182-.798-.023-2.56.428-3.22 2.415-.658 1.987.735 3.126 1.515 3.448-2.86-.85-3.434-3.243-3.363-4.334.805-1.225 1.92-1.867 2.376-2.036.367-.166 1.445-.447 2.82-.245z" fill="#009edf"/></svg>