<svg height="18" viewBox="0 0 18 18" width="18" xmlns="http://www.w3.org/2000/svg"><path d="m0 0h18v18h-18z" fill="#f0f3fa"/><path d="m10.45 8.9a6.66 6.66 0 0 0 -1.46 2.98 6.49 6.49 0 0 0 -1.46-2.94 7.25 7.25 0 0 1 1.44-5.94h.02l.02.02c1.37 1.5 1.8 3.86 1.44 5.88z" fill="#016531"/><path d="m7.5 8.9a7.35 7.35 0 0 0 1.24 2.88 5 5 0 0 0 -2.37-1 8.06 8.06 0 0 1 -.6-.1 6.15 6.15 0 0 1 -2.27-3.84c0-.03.01-.05.05-.05 1.51.1 2.9.94 3.94 2.11zm4.7 1.79c-.2.05-.41.09-.63.12a4.95 4.95 0 0 0 -2.37.99 7.04 7.04 0 0 0 1.26-2.88 5.92 5.92 0 0 1 3.97-2.12c.03 0 .04 0 .04.04a6.23 6.23 0 0 1 -2.27 3.85z" fill="#50ae2f"/><path d="m7.5 8.9a6.49 6.49 0 0 1 1.5 2.98h.01c.2-1.18.75-2.07 1.44-2.98.03.02.04.02.01.02a7.04 7.04 0 0 1 -1.26 2.88c.72-.54 1.5-.87 2.37-1 .22-.02.43-.06.63-.11 0 .01 0 .03-.03.04a6.63 6.63 0 0 1 -2.31 1.22c.71.1 1.34.4 1.87.91.02.02.05.03.09.04l-.03.04c-1-.06-1.84-.2-2.69-.8-.03-.01-.04 0-.05.03v.04c-.01-.03-.05-.04-.1-.03-.01-.02-.03-.03-.06-.03a4.7 4.7 0 0 1 -2.7.78c-.01-.01-.02-.02-.01-.04a.38.38 0 0 0 .17-.1 3.06 3.06 0 0 1 1.78-.85v-.01a8.34 8.34 0 0 1 -2.36-1.2c-.02 0-.02-.02 0-.05l.6.1a5 5 0 0 1 2.37 1 7.35 7.35 0 0 1 -1.24-2.88z" fill="#b2dea5"/><path d="m5.77 10.73c.79.52 1.42.93 2.36 1.2a.01.01 0 0 1 0 .02c-.68.08-1.27.36-1.78.84a.38.38 0 0 1 -.17.1 4.76 4.76 0 0 1 -3.18-1.28.06.06 0 0 1 .01-.04c.56-.64 1.98-.87 2.76-.84zm6.4.01a4.3 4.3 0 0 1 2.82.82.07.07 0 0 1 0 .06l-.01.03c-.9.8-1.96 1.22-3.16 1.25-.04 0-.07-.02-.1-.04a3.18 3.18 0 0 0 -1.87-.92v-.01a6.63 6.63 0 0 0 2.32-1.2z" fill="#016531"/><path d="m11.8 12.94c.25.27.44.57.56.91.01.04 0 .06-.03.07-1.32.34-2.69-.45-3.29-1.7v-.05c.02-.04.03-.04.06-.02.85.58 1.68.73 2.7.8zm-2.85-.76c-.6 1.3-1.97 2.06-3.3 1.75-.04-.01-.05-.03-.03-.07.12-.35.3-.67.58-.93a4.7 4.7 0 0 0 2.7-.78c.02 0 .04.01.05.03z" fill="#50ae2f"/></svg>