<svg height="18" viewBox="0 0 18 18" width="18" xmlns="http://www.w3.org/2000/svg" xmlns:xlink="http://www.w3.org/1999/xlink"><linearGradient id="a" gradientUnits="userSpaceOnUse" x1="6.57" x2="9.56" y1="4.83" y2="13.5"><stop offset="0" stop-color="#606565"/><stop offset="1" stop-color="#f1f3f5"/></linearGradient><path d="m0 0h18v18h-18z" fill="#f0f3fa"/><path d="m8.45 5.57 1.23-1.06.07.09-1.17 1 .61.2 2.22-.75.04.1-2.08.7.93.3h2.27v.12h-1.93l3.1 1-.04.1-3.42-1.1h-2.13l-.56.19-1 .87-.4.62-.3 1.13.03.63.54 1.28.88.97 2.4 1.43-.06.1-2.08-1.25 1.3 1.44-.09.07-1.54-1.7-.48-.29.7 1.65-.11.05-.76-1.8-.62-.36.07 1.59h-.12l-.07-1.66-.46-.28-.21.84-.11-.03.22-.87-.82-.48.53-.83-.54-.58.74-.64-.45-1.06.91-.3-.04-.83h.88l.29-1.13.9.3.52-.81.1.05-.5.79zm-.1.09-.58-.2-.44.7h.43l.6-.5zm-.71.62h-.38l-.15.23.42-.14.1-.1zm-.34.29-.29.1-.21.33.51-.44zm-.8.7.34-.55-.37.13-.14.56.16-.15zm-.33.27.17-.65-.53.18.03.76zm-.32.43.27-.24-.04.2-.22.33zm-.12-.05-.03-.81-.77.26.39.91zm-.37.47.38-.32.01.36-.22.35zm-.09.08-.62.53.43.48.37-.58zm.24.55-.35.55.38.42.14-.55zm.25.6-.12.47.2.22-.03-.57zm.18.42.01.4.28.3-.3-.7zm.42 1.02-.4-.45.02.55.57.34zm.35.54.3.17-.42-.46zm-.84-.5-.03-.62-.24-.26-.16.62.43.25zm-.53-.32.17-.66-.41-.45-.45.7.7.41zm.44-1.7-.05.18-.15-.35.18-.28.02.44zm.1-.39.1-.42-.11.19v.23zm.4-1.08v-.01zm-.48-.66.57-.19.13-.48h-.73zm.82-.67-.12.44.43-.15.2-.3h-.51zm.57-.11.47-.74-.76-.25-.26.99zm.94 0h-.2l.55-.47.53.17zm.35 0h1.45l-.74-.24-.7.24z" fill="url(#a)" fill-rule="evenodd"/><path d="m14 7.5a.5.5 0 1 1 -1 0 .5.5 0 0 1 1 0zm-.96-1.26a.5.5 0 1 1 -1 0 .5.5 0 0 1 1 0zm-.98-.99a.5.5 0 1 1 -1 0 .5.5 0 0 1 1 0zm-1.56-.75a.5.5 0 1 1 -1 0 .5.5 0 0 1 1 0zm-1.5 0a.5.5 0 1 1 -1 0 .5.5 0 0 1 1 0zm-1.5.5a.5.5 0 1 1 -1 0 .5.5 0 0 1 1 0zm-1.5 1a.5.5 0 1 1 -1 0 .5.5 0 0 1 1 0zm-.82 1.39a.5.5 0 1 1 -1 0 .5.5 0 0 1 1 0zm-.18 1.61a.5.5 0 1 1 -1 0 .5.5 0 0 1 1 0z" fill="#1a8c9a"/><path d="m5 10.5a.5.5 0 1 1 -1 0 .5.5 0 0 1 1 0z" fill="#589aad"/><path d="m5.51 11.88a.5.5 0 1 1 -1 0 .5.5 0 0 1 1 0z" fill="#84adb8"/><path d="m6.5 13a.5.5 0 1 1 -1 0 .5.5 0 0 1 1 0z" fill="#a9c4cb"/><circle cx="7.5" cy="13.5" fill="#d5dde6" r=".5"/><path d="m8.88 8.54c-.2 0-.36.04-.51.1-.15.07-.28.17-.38.3-.1.12-.18.28-.23.46a2.1 2.1 0 0 0 -.09.6c0 .3.05.57.13.78.1.22.22.39.4.5.18.12.4.18.67.18.17 0 .33-.02.5-.05.15-.03.31-.08.48-.13v.54a2.56 2.56 0 0 1 -1.05.18c-.4 0-.74-.08-1.01-.25-.26-.16-.46-.4-.6-.7-.13-.29-.19-.65-.19-1.05 0-.3.04-.56.12-.8.09-.25.2-.46.37-.64.16-.18.35-.32.58-.41.24-.1.5-.15.8-.15a2.58 2.58 0 0 1 1.13.25l-.23.53a3.36 3.36 0 0 0 -.43-.17c-.15-.04-.3-.07-.46-.07zm3.62.46a1.76 1.76 0 0 1 .3.03l-.05.58a1.43 1.43 0 0 0 -.28-.03.9.9 0 0 0 -.31.06.75.75 0 0 0 -.45.44c-.04.1-.07.23-.07.38v1.54h-.62v-3h.49l.08.57h.03c.06-.1.13-.2.22-.28.08-.09.18-.16.29-.21a.85.85 0 0 1 .37-.08zm1.5 0v3h-.6v-3z" fill="#687070"/></svg>