<svg height="18" viewBox="0 0 18 18" width="18" xmlns="http://www.w3.org/2000/svg"><path d="m0 0h18v18h-18z" fill="#f0f3fa"/><path d="m7.18 7.17c-.01-.07-.1-.33-.29-.63l-.66 1.24c.88.51 1.77 1.22 1.7 2.39l.84-.52v-6.65l-1.22 2.3v.83l-.03 1.17-.33-.03-.02-.1zm5.85 5.04 1.11.7-.52-.99c-.18.12-.38.22-.59.3zm-3.63-2.25a8.78 8.78 0 0 1 .06-2.38v-.01a4 4 0 0 1 .88-1.85l-1.45-2.72v6.66l.5.3zm-5.09 2.09c-.1-.05-.2-.08-.3-.1l-.5.94 1.19-.72a9.77 9.77 0 0 1 -.39-.12zm7.79.32a3.02 3.02 0 0 1 -.83-.12 2.53 2.53 0 0 1 -1.85-2.13l-.59-.36-.9.56a2.19 2.19 0 0 1 -1.76 2 3.4 3.4 0 0 1 -1.13-.07l-.18-.04-1.28.79h10.5l-1.2-.74c-.27.07-.53.1-.79.1zm-.58-1.35c.13.1.3.17.48.2h.13c.32 0 .68-.14.83-.53l-1.44-2.8-.3-.6v3.07c-.01.3.12.52.3.66z" fill="#23509c"/><path d="m12.47 8.67v.4l.08-.01a.5.5 0 0 1 .42.11c.09.08.13.19.13.32v1.09c-.02.09-.04.17-.08.25-.22.42-.66.57-1.06.52a1.2 1.2 0 0 1 -.48-.17.92.92 0 0 1 -.43-.82v-3.29c.02-.39.17-.93.86-1.1.84-.08 1.31.37 1.63 1.54l.11.42v-.44l.01-.85.01-1.2v-.32l-.11.29c-.05.11-.1.22-.17.24-.05.01-.14-.04-.27-.16a1.6 1.6 0 0 0 -1.7-.4c-.37.14-.73.4-1.02.74a3.9 3.9 0 0 0 -.83 1.76 8.49 8.49 0 0 0 -.04 2.45c0 .06.02.1.03.16a2.4 2.4 0 0 0 1.92 1.96 2.78 2.78 0 0 0 2.08-.37c.3-.21.56-.5.7-.88.1-.28.11-.6.1-.92 0-.56-.03-.9.58-.96h.06v-.36zm-8.39 3.17.27.08a7.97 7.97 0 0 0 .67.2c.26.06.53.1.79.1a2.07 2.07 0 0 0 .74-.15c.66-.23 1.14-.89 1.25-1.67l.02-.15v-.07c.05-1.1-.79-1.79-1.64-2.29l-.7-.38c-.82-.43-1.04-1.16-.83-1.66.15-.35.56-.66 1.25-.37.5.2.84.58 1.06.93.23.36.34.68.35.75h.12v-2.2l-.1.11c-.47.51-.74.37-1.12.17a2.45 2.45 0 0 0 -.58-.24 1.76 1.76 0 0 0 -2.06.98 2 2 0 0 0 .32 2.3c.26.26.59.42.87.54l.45.15.34.11.16.07a1.11 1.11 0 0 1 .52.56 1.27 1.27 0 0 1 -.15 1.28 1 1 0 0 1 -.7.36 2.2 2.2 0 0 1 -2.26-1.7l-.12-.4v2.87l.1-.08c.26-.22.58-.29.98-.2z" fill="#f3b658"/><path d="m5.98 10.9c.09-.12.15-.24.18-.37h.01v-.06l.03-.14v-.04a1.17 1.17 0 0 0 -.12-.6.96.96 0 0 0 -.43-.43h-.01l-.16-.08-1 1.89c.24.09.52.14.8.14h.08a.85.85 0 0 0 .62-.32z" fill="#23509c"/></svg>