<svg height="18" width="18" xmlns="http://www.w3.org/2000/svg"><path d="m0 0h18v18h-18z" fill="#ee3524"/><path d="m12 13.754a.24.24 0 0 1 -.07.17.259.259 0 0 1 -.174.076h-1.536a.24.24 0 0 1 -.163-.079.224.224 0 0 1 -.056-.167v-1.499c0-.129.085-.255.22-.255h1.535a.267.267 0 0 1 .174.081.25.25 0 0 1 .07.174zm-3-2.962c0 .134-.134.209-.262.209h-1.484c-.128 0-.255-.075-.255-.21v-1.553a.262.262 0 0 1 .082-.171.244.244 0 0 1 .173-.067h1.484c.128 0 .262.103.262.237zm3-.002c0 .135-.11.21-.244.21h-1.536a.197.197 0 0 1 -.219-.21v-1.552a.219.219 0 0 1 .218-.238h1.537a.24.24 0 0 1 .244.237zm-6-3.027a.225.225 0 0 1 -.226.237h-1.538a.233.233 0 0 1 -.236-.237v-1.554c0-.133.103-.208.236-.208h1.538a.202.202 0 0 1 .226.209v1.554zm3 0c0 .133-.134.237-.262.237h-1.483a.244.244 0 0 1 -.173-.066.262.262 0 0 1 -.082-.171v-1.555c0-.134.127-.208.255-.208h1.483c.128 0 .262.074.262.208zm3 0a.24.24 0 0 1 -.243.237h-1.537a.219.219 0 0 1 -.219-.237v-1.554a.197.197 0 0 1 .219-.207h1.537c.133 0 .243.074.243.207z"/></svg>