<svg height="18" viewBox="0 0 18 18" width="18" xmlns="http://www.w3.org/2000/svg"><path d="m0 0h18v18h-18z" fill="#ffb701"/><path d="m8.98 15c1.58 0 3.03-.62 4.1-1.63l-1.03-.95a4.58 4.58 0 1 1 -.05-6.88l.94-1.03a5.99 5.99 0 1 0 -3.96 10.49zm-3.52-7.48c.06-.06.51-.2 1.81-.23.13-.2.53-.58 1.1-.56.65.02.97.51 1.09.7l.03.05-.1.07.26.27c.02.02.1.06.24 0 .2-.13.73-.38 1.16-.38.1 0 .39.03.65.2.65-.25 2.15-.6 2.9-.05-.13.1-.47.36-.84.58-.1.03-.33.12-.52.25-.2.12-1.4.71-1.97 1-.04.01-.1.1.02.25l.08.1c.22.31.75 1.05 1.22 1.35l.95.8c-.04.01-.23-.01-.6-.26-.02.03-.01.1.11.19-.02 0-.11-.01-.37-.19-.33-.21-.48-.25-1.05-.33a4.45 4.45 0 0 1 -1.03-.27c-.26 0-.86-.02-1.2-.23a3.6 3.6 0 0 1 -1.28-1.83l-.65-1.22c-.1-.17-.23-.24-.52-.26-.31-.01-1.05-.04-1.5 0z" fill="#fff"/></svg>