<svg height="18" width="18" xmlns="http://www.w3.org/2000/svg"><path d="m0 0h18v18h-18z" fill="#09456a"/><path d="m7.752 3.088c.185-.078.422-.104.66-.078.052 0 .105.026.158.026.606.13 1.002.702.87 1.327l-.475 2.367zm-2.267.989c.132-.157.316-.26.554-.339.052-.026.105-.026.158-.026a1.119 1.119 0 0 1 1.344.859l.528 2.342zm-1.688 1.821c.053-.182.185-.364.37-.52a.462.462 0 0 1 .131-.105c.501-.364 1.213-.26 1.582.235l1.477 1.925zm-.79 2.316c-.027-.208.026-.417.132-.625.026-.052.052-.078.079-.13a1.113 1.113 0 0 1 1.529-.416l2.135 1.17h-3.875zm.237 2.446a1.224 1.224 0 0 1 -.158-.625v-.155c.053-.624.606-1.067 1.24-1.015l2.425.234-3.507 1.562zm1.24 2.16c-.158-.105-.29-.287-.396-.521-.026-.052-.026-.104-.053-.156-.184-.573.132-1.223.712-1.405l2.32-.78-2.583 2.861zm2.003 1.456a1.592 1.592 0 0 1 -.58-.312l-.105-.104a1.107 1.107 0 0 1 .079-1.587l1.793-1.64zm2.453.521c-.185.052-.423.026-.66-.052-.053-.026-.105-.026-.132-.052-.58-.234-.843-.911-.58-1.457l.976-2.212.395 3.773zm2.424-.495c-.158.104-.369.183-.633.209h-.158a1.118 1.118 0 0 1 -1.134-1.12l-.026-2.42zm2.03-1.431a1.11 1.11 0 0 1 -.474.443c-.053.026-.08.052-.132.052-.58.26-1.24 0-1.503-.547l-1.028-2.185zm1.266-2.133a1.11 1.11 0 0 1 -.264.598.204.204 0 0 1 -.105.104c-.422.469-1.134.495-1.609.104l-1.845-1.587 3.823.78zm.29-2.446c.053.182.079.416 0 .65a.197.197 0 0 1 -.053.13c-.184.599-.817.911-1.424.729l-2.346-.729zm-.764-2.342c.132.156.237.338.29.598 0 .053.026.105.026.157.08.624-.369 1.17-1.002 1.223l-2.425.286 3.11-2.264zm-1.661-1.821c.184.078.369.208.5.416.027.052.053.078.08.13.316.52.132 1.223-.396 1.535l-2.109 1.223zm-2.268-1.015c.21 0 .422.052.633.182.052.026.079.052.131.078.501.364.633 1.067.264 1.561l-1.424 1.978.396-3.8z" fill="#fff"/></svg>