<svg height="18" viewBox="0 0 18 18" width="18" xmlns="http://www.w3.org/2000/svg" xmlns:xlink="http://www.w3.org/1999/xlink"><linearGradient id="a" gradientUnits="userSpaceOnUse" x1="-3" x2="22.25" y1="9" y2="9"><stop offset=".36" stop-color="#01528e"/><stop offset=".77" stop-color="#4c7faf"/></linearGradient><path d="m0 0h18v18h-18z" fill="url(#a)"/><path d="m4.5 8.85a4.93 4.93 0 0 1 5.27-4.85c.83 0 1.63.13 2.44.27l.63.08c.05 0 .1.02.13.04.01.02.03.03.03.05v2.38c0 .08-.02.18-.09.18-.06 0-.07-.09-.13-.21-.67-1.56-1.99-1.8-3.1-1.79-2.58 0-3.6 2.28-3.6 3.85-.03 2.39 1.56 4.15 3.69 4.15 1.23 0 2.69-.34 2.97-1.29.03-.08.03-.31.18-.31.08 0 .08.11.08.17 0 2.03-1.61 2.43-3.4 2.43-3 0-5.09-2.04-5.1-5.15z" fill="#fff"/></svg>