<svg fill="none" height="18" width="18" xmlns="http://www.w3.org/2000/svg"><path d="m0 0h18v18h-18z" fill="#0037ce"/><g fill="#f0f3fa"><path d="m5 8.119c.034-1.416.603-2.286.603-2.286l2.397.757 5-2.59c-.763.912-1.048 1.789-1.394 2.59l-3.606 2.41z"/><path d="m5.033 8.875c.068.615.244 1.382.591 2.125l2.775.623 3.071-1.976v-2.257l-3.47 2.257z"/><path d="m11.47 10.479c-.874.658-1.542 1.125-2.494 1.861l-2.976-.736c.344.59.763 1.173 1.357 1.812l3.24.584s1.22-1.416 1.564-1.681c0 0-.456-.576-.69-1.84z"/></g></svg>