<svg height="18" viewBox="0 0 18 18" width="18" xmlns="http://www.w3.org/2000/svg"><path d="m0 0h18v18h-18z" fill="#f0f3fa"/><path d="m4.75 8.54h.75c-.06-.48-.48-1.54-1.66-1.54-1.48 0-1.84 1.16-1.84 2.01 0 .86.33 1.99 1.84 1.99 1.2 0 1.61-1.03 1.66-1.54h-.75c-.02.27-.23.77-.91.77-.85 0-1.11-.64-1.11-1.22s.29-1.24 1.1-1.24a.9.9 0 0 1 .92.77zm.9-1.54 1.6 4h.6l1.59-4h-.84l-1.05 2.64-1.07-2.64zm4.35 0v4h.73v-1.7h.7l.94 1.7h.83l-.93-1.73c.47-.12.78-.55.78-1.1 0-.64-.44-1.17-1.05-1.17zm.73.62h1.05c.3 0 .55.24.55.53 0 .3-.25.54-.55.54h-1.05zm3.5.38h-.9l.9 1.34h.95l.82-1.34h-.82l-.5.84zm0 3h-.9l.9-1.33h.95l.82 1.33h-.82l-.5-.84z" fill="#0a1438"/></svg>