<svg height="18" viewBox="0 0 18 18" width="18" xmlns="http://www.w3.org/2000/svg" xmlns:xlink="http://www.w3.org/1999/xlink"><linearGradient id="a" gradientUnits="userSpaceOnUse" x1="9" x2="9" y1="4.41" y2="13.94"><stop offset="0" stop-color="#e1e1e1"/><stop offset="1" stop-color="#9a9a9a"/></linearGradient><linearGradient id="b" gradientUnits="userSpaceOnUse" x1="9.31" x2="9.31" y1="5.38" y2="13.35"><stop offset="0" stop-color="#9e9e9e"/><stop offset="1" stop-color="#ddd"/></linearGradient><linearGradient id="c" gradientUnits="userSpaceOnUse" x1="4.88" x2="9" y1="4.46" y2="15"><stop offset="0" stop-color="#eee"/><stop offset="1" stop-color="#979797"/></linearGradient><linearGradient id="d" gradientUnits="userSpaceOnUse" x1="4.07" x2="9.61" y1="6.63" y2="14.49"><stop offset="0" stop-color="#888"/><stop offset="1" stop-color="#dcdcdc"/></linearGradient><path d="m0 0h18v18h-18z" fill="#f0f3fa"/><path d="m11.36 11.5c-.1 0-.26.16-.33.24-.22.18-.75.54-1.08.54-.42 0-1.02-.78-1.84-2.1a8.24 8.24 0 0 1 -1.3-3.32c0-.62 1.03-.58 2.12-.58.87 0 1.87.12 2.27.17.86.16.6.77.61.92 0 .11.15-.02.23-.1.76-.69 1.4-1.5 1.5-1.93.09-.34-.24-.52-.41-.56-.5-.12-1.97-.37-3.95-.37-2.48 0-4.18.3-4.59.93-.4.63.13 2.1.98 4.15.69 1.64 2.32 3.6 3.05 4.37l1.9.08c.17-.34.55-1.1.71-1.47.2-.46.24-.97.13-.97z" fill="url(#a)"/><path d="m11.03 11.74c.07-.08.24-.24.33-.24s.08.3-.01.64c-.32.7-.74 1.2-1.27 1.2-.66 0-1.74-1.06-2.82-2.87-1.08-1.82-1.7-3.47-1.42-4.13s1.33-.96 3.39-.96 3.62.18 3.62.57c0 .22-.32.73-.63 1.15l-.18.17c-.08.08-.22.21-.23.1l.01-.1c.04-.22.1-.68-.62-.82-.4-.05-1.4-.17-2.27-.17h-.18c-1.02 0-1.95 0-1.94.58 0 .63.49 2 1.3 3.32.82 1.32 1.42 2.1 1.84 2.1.33 0 .86-.36 1.08-.54z" fill="url(#b)"/><path d="m9.3 13.83a5.42 5.42 0 0 0 4.6-8.3 6 6 0 1 1 -4.92-2.53 5.42 5.42 0 0 0 .32 10.83z" fill="url(#c)"/><path d="m7.87 3.18a5.42 5.42 0 1 0 6.03 2.35 5.97 5.97 0 0 1 1.1 3.32 5.7 5.7 0 1 1 -7.13-5.67z" fill="url(#d)"/></svg>