<svg height="18" viewBox="0 0 18 18" width="18" xmlns="http://www.w3.org/2000/svg"><path d="m0 0h18v18h-18z" fill="#f0f3fa"/><path d="m5 5.8v1.95c.52-2.03 1.9-3.45 3.82-3.45 1.93 0 3.41.95 3.41 3.12 0 2.18-1.9 3.1-2.73 3.1-.67 0-1.03-.26-1.12-.38v-2.67c0-.39.25-.66.62-.66s.62.27.62.66v1.4c.41-.14 1.38-.68 1.38-1.8 0-1.46-1.34-1.83-2.01-1.83-2.46 0-3.12 2.2-3.14 3.3 0 2.74 2.23 3.53 3.34 3.58 2.56 0 3.6-2.07 3.81-3.1v-5.02h-6.32c-.93 0-1.68.8-1.68 1.8z" fill="#58b530"/><path d="m5 14v-4.33c.28 1 1.45 2.98 3.83 2.98 2.84 0 3.96-1.88 4.17-2.82v2.55c0 .9-.7 1.62-1.56 1.62z" fill="#1a9156"/></svg>