<svg height="18" viewBox="0 0 18 18" width="18" xmlns="http://www.w3.org/2000/svg"><path d="m0 0h18v18h-18z" fill="#f0f3fa"/><path d="m9 11.61a4.78 4.78 0 0 0 4.38-6.7 6 6 0 1 1 -8.77 0 4.77 4.77 0 0 0 4.39 6.69z" fill="#074a95"/><path d="m3.86 5.9c.77-.71 1.91-1.53 2.94-1.55.98-.02 1.48.3 2.02.66.87.57 1.84 1.2 5.1.56a6 6 0 0 0 -10.06.32z" fill="#00994c"/><path d="m13.03 5.72c-2.56.37-3.42-.2-4.2-.7-.5-.33-.96-.63-1.8-.67a5 5 0 0 1 2.04-.47c1.4 0 3 .76 3.96 1.84z" fill="#fe0"/><path d="m9 14.39a5.23 5.23 0 0 0 4.78-7.35 4.79 4.79 0 0 1 -9.56 0 5.23 5.23 0 0 0 4.78 7.35z" fill="#0065ac"/><path d="m9 13.87a4.71 4.71 0 0 0 4.6-5.73 4.79 4.79 0 0 1 -9.2 0 4.73 4.73 0 0 0 4.6 5.73z" fill="#00ace9"/></svg>