<svg height="18" width="18" xmlns="http://www.w3.org/2000/svg" xmlns:xlink="http://www.w3.org/1999/xlink"><linearGradient id="a"><stop offset="0" stop-color="#df002e"/><stop offset="1" stop-color="#9b0018"/></linearGradient><linearGradient id="b" gradientUnits="userSpaceOnUse" x1="6.55" x2="15" xlink:href="#a" y1="9.53" y2="9.14"/><linearGradient id="c" gradientUnits="userSpaceOnUse" x1="7.55" x2="6.46" xlink:href="#a" y1="4.75" y2="11.33"/><linearGradient id="d" gradientUnits="userSpaceOnUse" x1="7.6" x2="11.59" y1="5.52" y2="10.01"><stop offset="0" stop-color="#9b0018"/><stop offset="1" stop-color="#df002e"/></linearGradient><path d="m0 0h18v18h-18z" fill="#f0f3fa"/><path d="m9 14.5c3.31 0 6-2.57 6-5.75 0-1.31-.46-2.52-1.23-3.49-.74-.93-1.79-.74-2.99-.51-.57.1-1.18.22-1.81.22-.64 0-1.24-.12-1.81-.22-1.18-.23-2.2-.42-2.93.51a5.58 5.58 0 0 0 -1.23 3.49 5.88 5.88 0 0 0 6 5.75zm0-2.5a3 3 0 1 0 0-6 3 3 0 0 0 0 6z" fill="url(#b)" fill-rule="evenodd"/><path d="m11.48 7.3c-.38-1.07-1.76-3.21-4.39-3.3-1.21 0-3.41.68-3.4 3.17 0 2.44 2.08 3.9 3.85 4.45a3 3 0 1 1 3.94-4.31z" fill="url(#c)"/><path d="m6.54 7.29c.38-1.1 1.76-3.21 4.36-3.29 1.22 0 3.42.68 3.41 3.17 0 2.43-2.08 3.89-3.85 4.45a3 3 0 1 0 -3.93-4.33z" fill="url(#d)"/></svg>