<svg height="18" viewBox="0 0 18 18" width="18" xmlns="http://www.w3.org/2000/svg"><path d="m0 0h18v18h-18z" fill="#f0f3fa"/><path d="m12 7.74c0 .66-.01 1.25-.05 1.75-.04.51-.14.95-.32 1.3-.41.82-1.5 1.21-2.42 1.21h-2.21v-8h2.2c.64 0 1.14.08 1.52.22.37.15.65.39.84.7.2.3.3.7.36 1.16.06.48.08 1.03.08 1.66zm-1.56.24c0-.47 0-.87-.03-1.23a4.17 4.17 0 0 0 -.15-.88c-.09-.24-.21-.41-.4-.54a1.33 1.33 0 0 0 -.76-.18h-.55v5.6h.58c.3 0 .55-.07.73-.2.19-.14.31-.33.4-.58.1-.25.14-.53.15-.87.02-.35.03-.72.03-1.12z" fill="#1e5c33"/><path d="m5 13h8v1h-8z" fill="#cda21b"/></svg>