<svg height="18" viewBox="0 0 18 18" width="18" xmlns="http://www.w3.org/2000/svg"><path d="m0 0h18v18h-18z" fill="#f0f3fa"/><path d="m4.28 5.8c-.05.26.04.35.3.32 1.47-.19 2.95-.96 4.42-.96s2.95.77 4.42.96c.26.03.35-.06.3-.31v-.02a1.8 1.8 0 0 0 -1.51-1.5c-2-.39-4.42-.39-6.42 0a1.8 1.8 0 0 0 -1.5 1.5v.02zm9.66 1.74c-.04-.63-.07-.66-.7-.76-1.41-.22-2.83-.94-4.24-.94s-2.83.72-4.24.94c-.62.1-.66.13-.7.76a18.3 18.3 0 0 0 .22 4.67 1.8 1.8 0 0 0 1.51 1.5c2 .38 4.42.38 6.42 0a1.8 1.8 0 0 0 1.5-1.5c.28-1.44.36-3.1.23-4.67zm-1.22 5.09h-7.45c-.2 0-.2-.63 0-.63h1.98c.19 0 .19-.02.19-.2v-.56c0-.18 0-.24-.19-.24h-1.6c-.2 0-.2-.62 0-.62h1.91c.47 0 .44.08.44.55v.86c0 .19.08.21.26.21h.18c.18 0 .25-.02.25-.2v-1.9c0-.18-.07-.28-.25-.28h-3.06c-.2 0-.2-.62 0-.62h.94c.18 0 .18 0 .18-.19v-1.35c0-.46.06-.46.52-.46h4.46c.2 0 .2.64 0 .64h-4.15c-.19 0-.2.02-.2.2v-.04c0 .19.01.2.2.2h4.15c.2 0 .2.6 0 .6h-4.15c-.19 0-.2.03-.2.22 0 .18.01.18.2.18h5.29c.2 0 .2.62 0 .62h-3.06c-.19 0-.25.1-.25.29v1.89c0 .18.06.2.25.2h.17c.18 0 .27-.02.27-.2v-.87c0-.46-.04-.55.43-.55h1.91c.2 0 .2.62 0 .62h-1.58c-.18 0-.2.06-.2.24v.56c0 .18.02.2.2.2h1.96c.2 0 .2.63 0 .63z" fill="#0055b8"/></svg>