<svg height="18" viewBox="0 0 18 18" width="18" xmlns="http://www.w3.org/2000/svg"><path d="m0 0h18v18h-18z" fill="#3f3d54"/><path d="m12.6 6.81a1.4 1.4 0 0 0 0-2.81 1.4 1.4 0 0 0 -1.14 2.21l-1.38 1.4a2.15 2.15 0 0 0 -2.96.22l-.92-.8a.63.63 0 0 0 -.58-.84.62.62 0 0 0 -.62.62.62.62 0 0 0 1.02.48l.91.79a2.19 2.19 0 0 0 2.11 3.4l.28 1.04a.78.78 0 0 0 .34 1.48c.42 0 .77-.35.77-.78a.78.78 0 0 0 -.81-.78l-.27-1.03a2.19 2.19 0 0 0 .98-3.57l1.35-1.37c.25.21.57.34.92.34zm0-.31c.6 0 1.09-.49 1.09-1.1a1.09 1.09 0 1 0 -2.17 0c0 .61.48 1.1 1.08 1.1zm-3.88 4.69c1.03 0 1.87-.84 1.87-1.88a1.87 1.87 0 1 0 -3.72 0c0 1.04.83 1.88 1.85 1.88zm-2.79-4.39c0 .18-.14.31-.31.31a.31.31 0 0 1 -.31-.3c0-.18.14-.32.31-.32s.31.14.31.31zm3.73 6.88c.25 0 .46-.21.46-.47s-.2-.47-.46-.47a.47.47 0 0 0 -.47.47c0 .26.2.47.47.47z" fill="#fbfcfd" fill-rule="evenodd"/><g fill="#a39ba6"><circle cx="5.62" cy="6.81" r=".16"/><circle cx="12.6" cy="5.41" r=".78"/><circle cx="9.66" cy="13.22" r=".31"/></g><ellipse cx="8.72" cy="9.31" fill="#f59d15" rx="1.55" ry="1.56"/></svg>