<svg height="18" viewBox="0 0 18 18" width="18" xmlns="http://www.w3.org/2000/svg" xmlns:xlink="http://www.w3.org/1999/xlink"><linearGradient id="a" gradientUnits="userSpaceOnUse" x1="9" x2="9" y1="0" y2="18"><stop offset="0" stop-color="#f7a201"/><stop offset="1" stop-color="#f2be2c"/></linearGradient><path d="m0 0h18v18h-18z" fill="url(#a)"/><path d="m4.7 6.45 7.52-1.45.95 6.9-7.21 1.1-1.27-6.55zm.87.6 6.03-1.17.73 5.36-5.75.9-1.01-5.1z" fill-rule="evenodd"/><path d="m6.11 11.63c2.28-.38 3.12-1.4 2.94-2.46-.17-1.06-1.3-1.75-3.58-1.36s-3.12 1.41-2.95 2.47c.08.44.33.83.77 1.09l.1 1.09c0 .06.03.2.1.21s.15-.06.18-.1l.71-.86c.49.05 1.06.04 1.73-.08z"/><path d="m15.13 9.34c.32-.38.42-.82.35-1.26-.18-1.06-1.31-1.75-3.59-1.36s-3.12 1.41-2.94 2.47c.17 1.05 1.35 1.73 3.58 1.35.7-.12 1.26-.3 1.7-.51l.92.57c.04.03.14.07.2.04.07-.03.05-.18.03-.23z"/><path d="m8.34 9.29c.1.64-.57 1.3-2.34 1.6-1.74.29-2.63-.1-2.73-.74-.11-.64.56-1.3 2.34-1.6 1.77-.3 2.62.1 2.73.74zm6.42-1.09c.11.64-.56 1.3-2.34 1.6-1.73.29-2.62-.1-2.73-.74s.57-1.3 2.34-1.6 2.63.1 2.73.74z" fill="#fff"/><ellipse cx="6" cy="9.65" rx=".76" ry=".77"/><ellipse cx="12.06" cy="8.62" rx=".76" ry=".77"/></svg>