<svg height="18" viewBox="0 0 18 18" width="18" xmlns="http://www.w3.org/2000/svg"><path d="m0 0h18v18h-18z" fill="#18d961"/><path d="m12.33 9.06c.07-1.7 1.28-2.09 1.88-2.06 1.17 0 1.79 1.16 1.79 1.78 0 .5-.42.55-.62.55h-1.94c.08.41.57.68.94.67.3 0 .56-.14.65-.21.1-.06.34-.11.5.05.16.15.18.28.18.38-.12.62-1.09.8-1.5.78-1.75-.07-1.89-1.8-1.88-1.94zm1.87-1.06c.52 0 .67.45.67.66h-1.37c.02-.22.16-.66.7-.66zm-2-.95c.27.14.4.47.27.74l-1.22 2.88a.5.5 0 0 1 -.34.3.5.5 0 0 1 -.64-.28l-1.23-2.88c-.11-.28.01-.6.28-.74a.5.5 0 0 1 .7.26l.74 1.75.75-1.77a.5.5 0 0 1 .7-.26zm-10.2.47c0-.29.23-.52.52-.52h.9a2 2 0 0 1 0 4h-.9a.52.52 0 0 1 -.52-.52zm1 .48h.36a1 1 0 1 1 0 2h-.36zm3.28-.87c-.48.13-.5.5-.46.68.1.33.46.34.69.29.18-.05.52-.1.66-.1.65 0 .87.43.83.63-.24-.1-.76-.13-.99-.12-.69.03-1.53.32-1.51 1.23.01.9.73 1.27 1.39 1.26.53 0 .9-.28 1.03-.41.1.32.44.42.6.4.44-.04.49-.41.48-.57v-1.95c-.03-1.21-1.08-1.47-1.66-1.47-.22 0-.58.01-1.06.13zm1.72 2.4v-.23c-.03-.03-.21-.12-.73-.12-.58 0-.7.23-.74.36-.07.22-.03.63.63.6.65-.02.83-.41.84-.6z" fill="#fff" fill-rule="evenodd"/></svg>