<svg height="18" viewBox="0 0 18 18" width="18" xmlns="http://www.w3.org/2000/svg"><path d="m0 0h18v18h-18z" fill="#f0f3fa"/><path d="m10.33 7-1.1 4h.98c.76 0 1.2-.7 1.2-1.15 0-.35-.14-.66-.38-.76.47-.11.97-.77.97-1.4 0-.5-.34-.67-.52-.69zm-2.23 0h1.96l-1.1 4h-1.96zm-4.98 0h2l-1.11 4h-2.01zm2.2 0-1.12 4c1.67 0 2.8-1.62 2.8-2.84 0-.98-1.13-1.18-1.68-1.16zm8.56 0h2.12l-.35 1.34-1.2-1.16-.54 1.82h1.8l-.43 1.98-.4-.56c-.14.19-.55.58-1.07.58.05-.16.1-.42.17-.7l.24-.97h-.41l-.49 1.67c-.3-.03-1.32-.23-1.32-1.54 0-1.04 1.19-2.25 1.88-2.46z" fill="#007dc4"/></svg>