<svg height="18" viewBox="0 0 18 18" width="18" xmlns="http://www.w3.org/2000/svg" xmlns:xlink="http://www.w3.org/1999/xlink"><linearGradient id="a" gradientUnits="userSpaceOnUse" x1="9.01" x2="9.01" y1="3" y2="15"><stop offset=".09" stop-color="#15367b"/><stop offset=".25" stop-color="#283c76"/><stop offset=".46" stop-color="#93b8e4"/><stop offset=".78" stop-color="#253c72"/><stop offset="1" stop-color="#1c316b"/></linearGradient><linearGradient id="b" gradientUnits="userSpaceOnUse" x1="8.87" x2="8.87" y1="3.27" y2="15"><stop offset=".21" stop-color="#15367b"/><stop offset=".48" stop-color="#8daed1"/><stop offset=".69" stop-color="#6d788c"/><stop offset=".95" stop-color="#6d758a"/></linearGradient><linearGradient id="c" gradientUnits="userSpaceOnUse" x1="14.35" x2="3.67" y1="6.54" y2="11.49"><stop offset=".09" stop-color="#15367b"/><stop offset=".23" stop-color="#283c76"/><stop offset=".46" stop-color="#99aac4"/><stop offset=".78" stop-color="#253c72"/><stop offset="1" stop-color="#1c316b"/></linearGradient><linearGradient id="d" gradientUnits="userSpaceOnUse" x1="14.05" x2="3.61" y1="6.53" y2="11.36"><stop offset=".21" stop-color="#15367b"/><stop offset=".48" stop-color="#899fb9"/><stop offset=".69" stop-color="#6d788c"/><stop offset=".95" stop-color="#2a407c"/></linearGradient><linearGradient id="e" gradientUnits="userSpaceOnUse" x1="3.63" x2="14.37" y1="6.54" y2="11.35"><stop offset=".09" stop-color="#15367b"/><stop offset=".23" stop-color="#283c76"/><stop offset=".46" stop-color="#97aaba"/><stop offset=".78" stop-color="#253c72"/></linearGradient><linearGradient id="f" gradientUnits="userSpaceOnUse" x1="3.81" x2="14.31" y1="6.77" y2="11.48"><stop offset=".21" stop-color="#15367b"/><stop offset=".48" stop-color="#7e97b5"/><stop offset=".69" stop-color="#435b89"/><stop offset=".95" stop-color="#2a407c"/></linearGradient><linearGradient id="g"><stop offset="0" stop-color="#f2d179"/><stop offset="1" stop-color="#b3871b"/></linearGradient><linearGradient id="h" gradientUnits="userSpaceOnUse" x1="7.93" x2="7.4" xlink:href="#g" y1="4.03" y2="5.21"/><linearGradient id="i" gradientUnits="userSpaceOnUse" x1="5.6" x2="5.08" xlink:href="#g" y1="11.12" y2="12.31"/><linearGradient id="j" gradientUnits="userSpaceOnUse" x1="13.87" x2="13.34" xlink:href="#g" y1="9.44" y2="10.62"/><path d="m0 0h18v18h-18z" fill="#f0f3fa"/><g fill-rule="evenodd"><path d="m9.01 15c1.1 0 2-2.69 2-6s-.9-6-2-6-2 2.69-2 6 .9 6 2 6zm-.12-.18c.99 0 1.79-2.59 1.79-5.78s-.8-5.77-1.8-5.77c-.98 0-1.78 2.58-1.78 5.77 0 3.2.8 5.78 1.79 5.78z" fill="url(#a)"/><path d="m8.87 15c1.03 0 1.86-2.63 1.86-5.88 0-3.24-.83-5.87-1.86-5.87s-1.86 2.63-1.86 5.87c0 3.25.83 5.88 1.86 5.88zm.02-.63c.82 0 1.48-2.38 1.48-5.3 0-2.93-.66-5.3-1.48-5.3s-1.48 2.37-1.48 5.3c0 2.92.66 5.3 1.48 5.3z" fill="url(#b)"/><path d="m3.68 11.5c.46 1 3.23.71 6.17-.66 2.95-1.37 4.96-3.3 4.5-4.3-.47-1-3.23-.7-6.18.67s-4.96 3.29-4.5 4.3zm.1-.18c.42.9 3.06.55 5.9-.77 2.83-1.31 4.8-3.1 4.38-4s-3.05-.56-5.89.76c-2.84 1.31-4.8 3.1-4.38 4z" fill="url(#c)"/><path d="m3.62 11.37c.43.94 3.12.6 6-.74 2.9-1.34 4.89-3.18 4.46-4.12-.43-.93-3.13-.6-6.02.74-2.88 1.35-4.88 3.2-4.44 4.12zm.55-.13c.35.75 2.76.37 5.39-.85 2.62-1.22 4.47-2.82 4.12-3.58-.34-.75-2.76-.37-5.38.85-2.63 1.22-4.48 2.82-4.13 3.58z" fill="url(#d)"/><path d="m14.36 11.37c.45-1.01-1.58-2.91-4.54-4.25-2.97-1.33-5.74-1.6-6.19-.58-.45 1 1.58 2.9 4.55 4.24 2.96 1.33 5.73 1.6 6.18.59zm-.21.03c.4-.9-1.58-2.67-4.43-3.95-2.85-1.29-5.5-1.6-5.9-.7s1.58 2.68 4.43 3.96 5.5 1.6 5.9.7z" fill="url(#e)"/><path d="m14.3 11.5c.42-.94-1.58-2.76-4.48-4.07-2.9-1.3-5.6-1.6-6.02-.66s1.6 2.75 4.5 4.06c2.9 1.3 5.58 1.6 6 .66zm-.56-.29c.33-.74-1.52-2.3-4.14-3.49-2.62-1.18-5-1.52-5.35-.78-.34.75 1.52 2.32 4.13 3.5 2.62 1.18 5.02 1.52 5.36.78z" fill="url(#f)"/></g><ellipse cx="7.73" cy="4.71" fill="url(#h)" rx=".68" ry=".68"/><ellipse cx="5.41" cy="11.81" fill="url(#i)" rx=".68" ry=".68"/><ellipse cx="13.67" cy="10.12" fill="url(#j)" rx=".68" ry=".68"/></svg>