<svg height="18" viewBox="0 0 18 18" width="18" xmlns="http://www.w3.org/2000/svg" xmlns:xlink="http://www.w3.org/1999/xlink"><linearGradient id="a" gradientUnits="userSpaceOnUse" x1="14.08" x2="14.08" y1="8.18" y2="9.88"><stop offset=".25" stop-color="#a1acc8"/><stop offset=".47" stop-color="#f1f4f7"/><stop offset=".85" stop-color="#8e9bbd"/></linearGradient><linearGradient id="b" gradientUnits="userSpaceOnUse" x1="5.42" x2="5.42" y1="8.18" y2="9.88"><stop offset=".28" stop-color="#9faac7"/><stop offset=".51" stop-color="#f3f5f8"/><stop offset=".73" stop-color="#9faac7"/></linearGradient><path d="m0 0h18v18h-18z" fill="#f0f3fa"/><path d="m14.87 8.5h1.13v1h-1.13a1 1 0 0 1 -1.74 0h-.96v-1h.96a1 1 0 0 1 1.74 0z" fill="url(#a)"/><path d="m9 14c2.2 0 4-2.24 4-5s-1.8-5-4-5-4 2.24-4 5 1.8 5 4 5zm0-1c1.66 0 3-1.8 3-4s-1.34-4-3-4-3 1.8-3 4 1.34 4 3 4zm.03-1c1.28 0 2.31-1.34 2.31-3s-1.03-3-2.3-3c-1.29 0-2.32 1.34-2.32 3s1.03 3 2.3 3zm-.07-1c.59 0 1.07-.9 1.07-2s-.48-2-1.07-2c-.6 0-1.08.9-1.08 2s.48 2 1.08 2zm.04-1.1c.36 0 .65-.39.65-.86s-.29-.86-.65-.86-.65.39-.65.86.29.86.65.86z" fill="#a4aeca" fill-rule="evenodd"/><path d="m4.87 8.5h3.5c.26 0 .46.22.46.5s-.2.5-.46.5h-3.5a1 1 0 0 1 -1.74 0h-1.13v-1h1.13a1 1 0 0 1 1.74 0z" fill="url(#b)"/></svg>