<svg fill="none" height="18" width="18" xmlns="http://www.w3.org/2000/svg"><path d="m0 0h18v18h-18z" fill="#f0f3fa"/><g clip-rule="evenodd" fill-rule="evenodd"><path d="m9.214 5h1.119c.442 0 .74.391.651.878l-.225 1.244c-.088.478-.523.878-.973.878h-1.119c-.442 0-.74-.391-.651-.878l.225-1.244c.088-.487.53-.878.973-.878z" fill="#e60e0f"/><path d="m6.022 5h-1.482s-.916-.008-1.16.916c-.11.415-.378.844-.38 1.277 0 .307.093.807.699.807h1.365s1.968.34 1.494 2.521c-.219 1.004-.552 1.503-.557 2.404-.003.52.19 1.075 1.03 1.075h1.9s1.234-.126 1.537-1.487c.294-1.362.408-1.74.408-1.74s.431-2.398 2.606-2.398h.316s.743.059.923-.69c.077-.317.295-.825.28-1.164-.009-.198-.109-.521-.664-.521h-.961s-.687-.025-.875.731l-.153.62s-.581 1.649-2.413 1.649h-2.15c-.222 0-1.502-.375-1.15-2.047l.327-.877c-.003.003.038-.131.038-.306 0-.327-.162-.77-.978-.77z" fill="#feb800"/></g></svg>