<svg height="18" viewBox="0 0 18 18" width="18" xmlns="http://www.w3.org/2000/svg"><path d="m0 0h18v18h-18z" fill="#f0f3fa"/><path d="m5.9 7.57-.54 2.61-.03.09c-.1.35-.32.73-.66.73h-1.29l.87-4h1.45c.24.03.23.4.2.57zm.3-1.57h-2.98l-1.22 5.98s3 .04 3.04 0c.7 0 1.18-.37 1.42-1.1l.06-.2.68-3.36c.2-.9-.14-1.32-.99-1.32zm2.4 4.41.54-2.68.04-.2c.06-.16.18-.51.32-.53h2.33l.21-1h-2.37c-1.07 0-1.52.38-1.74 1.48l-.57 2.82c-.17.82-.17 1 .03 1.3.2.28.48.4 1.07.4h1.44c.6 0 .98-.2 1.32-.7a2 2 0 0 0 .28-.82l.38-1.86h-1.81l-.2.94h.56l-.19.89-.03.16c-.07.2-.17.39-.45.39h-1c-.36 0-.2-.24-.22-.37l.01-.04.04-.18zm5.17.59c-.19 0-.29-.23-.26-.4v-.01l.06-.25.87-4.34h-1.26l-.92 4.53c-.2.96.09 1.39.96 1.46l.2.01h2.34l.24-1z" fill="#dd3c27"/></svg>