<svg height="18" width="18" xmlns="http://www.w3.org/2000/svg"><path d="m0 0h18v18h-18z" fill="#f0f3fa"/><path d="m12.05 8.32a6.47 6.47 0 0 0 -1.44-1.1 3.35 3.35 0 0 0 -1.61-.45c-.66 0-1.72.25-2.97 1.42-.38.36-.73.76-1.04 1.2v4.61h8v-4.54a9.03 9.03 0 0 0 -.95-1.13z" fill="#003a65"/><path d="m9.02 6.95 3.98 2.53v-5.48h-8v5.39z" fill="#003a65"/><g fill="#009b97"><path d="m10.2 9.51c-.75-.85-1.08-1-1.2-1-.45 0-2.09 2.06-2.64 2.87.85-.63 1.4-1.3 2.65-1.29.65 0 2.07.88 2.63 1.29a41.3 41.3 0 0 0 -1.44-1.88z"/><path d="m9.01 9.91a2.95 2.95 0 0 0 -1.55.44c-.44.27-.83.64-1.14 1.1a6.85 6.85 0 0 0 -1.04 2.55c.23-.46.52-.93.86-1.27.8-.79 1.81-1.21 2.86-1.19a3.98 3.98 0 0 1 3.71 2.46 6.04 6.04 0 0 0 -.97-2.5c-.51-.72-1.4-1.59-2.73-1.59z"/></g></svg>