<svg height="18" width="18" xmlns="http://www.w3.org/2000/svg" xmlns:xlink="http://www.w3.org/1999/xlink"><linearGradient id="a" gradientUnits="userSpaceOnUse" x1="3.349" x2="21.904" y1="3.122" y2="24.434"><stop offset="0" stop-color="#1a1e21"/><stop offset="1" stop-color="#06060a"/></linearGradient><linearGradient id="b" gradientUnits="userSpaceOnUse" x1="8.993" x2="8.993" y1="4" y2="14"><stop offset="0" stop-color="#fff"/><stop offset="1" stop-color="#c7c7c7"/></linearGradient><path d="m0 0h18v18h-18z" fill="url(#a)"/><path d="m13 4c1 0 1.147.841.85 2.396-.315 1.757-.62 3.504-.978 5.25-.357 1.747-.892 2.322-2.362 2.333l-6.51.021v-.213c.193-.327.35-.685.467-1.065.29-1.427.536-2.865.765-4.26.23-1.395.425-2.982.638-4.462zm-4.92 1.523-1.318 7.04h3.28c.458 0 .485-.427.544-.725.298-1.395.536-2.811.79-4.26.12-.66.23-1.33.357-2.055z" fill="url(#b)"/></svg>