<svg height="18" width="18" xmlns="http://www.w3.org/2000/svg"><path d="m0 0h18v18h-18z" fill="#f0f3fa"/><path d="m8.988 5-4.988 4.034 5.008 3.966 4.988-3.987z"/><path d="m11.047 9.208h-.01l-.015.009c-.004.004-.558.27-1.12.27-.54 0-.884-.208-.888-.212l-.014.52c.018.013.246.18.902.18.616 0 1.192-.267 1.272-.304.054-.017.572-.183.902-.183.304 0 .638.129.696.15.087.054.598.362 1.098.362.529 0 .71.004 1.123-.22l.007-.535c-.355.196-.663.267-1.13.267-.424 0-.906-.305-.91-.309l-.014-.008-.018-.009a2.42 2.42 0 0 0 -.853-.186c-.406 0-1.004.2-1.029.208z" fill="#ffe024"/><path d="m11.047 10.205-.01.004-.015.009c-.004 0-.558.271-1.12.271-.54 0-.884-.213-.888-.213l-.014.524c.018.009.246.18.902.18.616 0 1.192-.268 1.272-.31.054-.016.572-.18.902-.18.304 0 .638.126.696.151.087.054.598.36 1.098.36.529 0 .71.008 1.123-.222l.007-.535c-.355.196-.663.272-1.13.272-.424 0-.906-.31-.91-.314l-.014-.008-.018-.005a2.414 2.414 0 0 0 -.852-.188c-.406 0-1.004.197-1.029.205z" fill="#00b6e7"/><path d="m11.047 11.205-.01.004-.015.004c-.004.005-.558.277-1.12.277-.54 0-.884-.214-.888-.214l-.014.524c.018.008.246.176.902.176.616 0 1.192-.264 1.272-.306.054-.016.572-.184.902-.184.304 0 .638.13.696.155.087.054.598.36 1.098.36.529 0 .71.008 1.123-.222l.007-.535c-.355.196-.663.271-1.13.271-.424 0-.906-.309-.91-.313l-.014-.009-.018-.008c-.015-.004-.439-.184-.852-.184-.406 0-1.004.197-1.029.205z" fill="#d3272c"/></svg>