<svg height="18" viewBox="0 0 18 18" width="18" xmlns="http://www.w3.org/2000/svg"><path d="m0 0h18v18h-18z" fill="#0a1c2a"/><g fill="#fafdfb"><path d="m3 6.3c0-.17.14-.3.31-.3h1.97c1.78 0 3.22 1.34 3.22 3s-1.44 3-3.22 3h-1.98c-.17 0-.31-.13-.31-.3v-5.4zm1 4.7v-4h1.45c1.13 0 2.05.9 2.05 2s-.92 2-2.05 2z" fill-rule="evenodd"/><path d="m14 6.3c0-.17.15-.3.33-.3h.34c.18 0 .33.13.33.3v5.4c0 .17-.15.3-.33.3h-.34c-.18 0-.33-.13-.33-.3v-2.2h-4v2.2c0 .17-.15.3-.33.3h-.34c-.18 0-.33-.13-.33-.3v-5.4c0-.17.15-.3.33-.3h.34c.18 0 .33.13.33.3v2.2h4z"/></g></svg>