<svg height="18" viewBox="0 0 18 18" width="18" xmlns="http://www.w3.org/2000/svg"><path d="m0 0h18v18h-18z" fill="#181b1e"/><path d="m8.77 4h-3.47a.3.3 0 0 0 -.3.29v.74a1 1 0 0 0 1 .97h2.8c1.7 0 3.17 1.35 3.2 3 .02 1.61-1.4 3-3.16 3h-2.84a1 1 0 0 0 -.7.29c-.38.37-.3.95-.3 1.42 0 .15.15.29.3.29h3.54a5.14 5.14 0 0 0 5.16-5 5.2 5.2 0 0 0 -5.23-5z" fill="#fff"/><path d="m6 7c-.27 0-.52.09-.7.24a.75.75 0 0 0 -.3.58v2.36c0 .22.1.43.3.58.18.15.43.24.7.24s.52-.09.7-.24c.2-.15.3-.36.3-.58v-2.36c0-.22-.1-.43-.3-.58a1.13 1.13 0 0 0 -.7-.24z" fill="#ff2400"/></svg>