<svg height="18" width="18" xmlns="http://www.w3.org/2000/svg"><path d="m0 0h18v18h-18z" fill="#0f3c67"/><path d="m5.548 4.682c.311.102.45.34.45 1.12v6.545c0 1.357-1.35.882-1.316 1.425 0 .17.425.228.851.228h4.34c1.524 0 5.193-.737 5.124-5.044-.035-4.138-3.567-4.956-5.92-4.956 0 0-3.08 0-4.049.14-.104.033-.346 0-.346.339-.034.067.554.067.866.203zm2.45.818c0-.697-.063-1.225 1.01-1.225 3.15 0 4.362 3.426 4.293 5.088-.07 2.272-1.8 4.307-3.705 4.24-.554-.035-1.563-.269-1.598-1.388z" fill="#fff"/></svg>