<svg height="18" viewBox="0 0 18 18" width="18" xmlns="http://www.w3.org/2000/svg"><path d="m0 0h18v18h-18z" fill="#f0f3fa"/><path d="m12.5 8.57a4.67 4.67 0 0 1 -4.77 4.56c-.78 0-1.52-.18-2.17-.5a4.98 4.98 0 0 0 8.44-3.63 5 5 0 0 0 -5.63-4.96 4.64 4.64 0 0 1 4.13 4.53zm-2.98-.52.86-1.1a4.14 4.14 0 0 0 -2.5-.95 2.94 2.94 0 0 0 -2.88 3c0 1.66 1.3 3 2.88 3 .89 0 1.9-.41 2.62-1.06l-.97-1.06c-.37.37-.92.6-1.4.6a1.5 1.5 0 0 1 -1.48-1.5c0-.84.66-1.52 1.47-1.52.48 0 1.03.23 1.4.6z" fill="#c42228"/></svg>