<svg height="18" viewBox="0 0 18 18" width="18" xmlns="http://www.w3.org/2000/svg" xmlns:xlink="http://www.w3.org/1999/xlink"><linearGradient id="a" gradientUnits="userSpaceOnUse" x1="3.35" x2="21.9" y1="3.12" y2="24.43"><stop offset="0" stop-color="#1a1e21"/><stop offset="1" stop-color="#06060a"/></linearGradient><linearGradient id="b" gradientUnits="userSpaceOnUse" x1="3.98" x2="3.98" y1="13.4" y2="8.44"><stop offset="0" stop-color="#a6e2f9"/><stop offset="1" stop-color="#202267"/></linearGradient><linearGradient id="c" gradientUnits="userSpaceOnUse" x1="7.69" x2="10.08" y1="7.47" y2="10.67"><stop offset="0" stop-color="#fff200"/><stop offset=".3" stop-color="#fbc707"/><stop offset=".9" stop-color="#f47216"/><stop offset="1" stop-color="#f36717"/></linearGradient><linearGradient id="d" gradientUnits="userSpaceOnUse" x1="4.97" x2="12.8" y1="4.26" y2="12.38"><stop offset=".11" stop-color="#fff"/><stop offset=".25" stop-color="#35b6ed"/><stop offset="1" stop-color="#2a3e91"/></linearGradient><radialGradient id="e" cx="0" cy="0" gradientTransform="matrix(-1.10728 3.31777 -3.34458 -1.11623 7.32 5.68)" gradientUnits="userSpaceOnUse" r="1"><stop offset="0" stop-color="#f36717"/><stop offset=".7" stop-color="#f47216"/><stop offset="1" stop-color="#f9a70d"/></radialGradient><path d="m0 0h18v18h-18z" fill="url(#a)"/><path d="m4.91 10.73c.12-.12-.03-.74-.03-1.76s.15-1.54.01-1.67c-.56-.5-.83-1.42-.06-2a5.87 5.87 0 0 1 3.6-1.2c3.04 0 5.5 1.92 5.5 4.9 0 3.07-2.46 4.9-5.5 4.9a5.8 5.8 0 0 1 -3.83-1.4c-.26-.22-.55-.96.3-1.78z" fill="url(#b)"/><path d="m11.42 9a2.93 2.93 0 0 1 -2.96 2.9 2.92 2.92 0 0 1 -2.94-2.9 2.92 2.92 0 0 1 2.94-2.91c1.64 0 2.96 1.3 2.96 2.9z" fill="url(#c)"/><path d="m9.05 7.2c.29-.32.65-.59 1-.66-.46-.29-1-.45-1.59-.45a2.92 2.92 0 0 0 -2.94 2.9c.34-.13.93-.3 1.39-.41.59-.15 1.4-.55 2.14-1.37z" fill="url(#e)"/><path d="m13.79 9c0 1.96-1.1 3.84-3.12 3.84-.64 0-1.58-.35-2.18-1.31a3.17 3.17 0 0 0 -2.77-1.48c-.78 0-1.72.55-1.72 1.4 0 1.64 2.22 3.05 4.45 3.05a5.53 5.53 0 0 0 5.55-5.5c0-3.05-2.48-5.5-5.55-5.5-2.23 0-4.45 1.4-4.45 3.03 0 .86.94 1.4 1.72 1.4.8 0 2.01-.26 2.77-1.46a2.68 2.68 0 0 1 2.18-1.31c2.01 0 3.12 1.88 3.12 3.84z" fill="url(#d)"/></svg>