<svg height="18" viewBox="0 0 18 18" width="18" xmlns="http://www.w3.org/2000/svg"><path d="m0 0h18v18h-18z" fill="#f0f3fa"/><path d="m9.64 10.77c.12-.45.2-.92.23-1.41h1.83c.02-.14.03-.27.03-.41 0-1.43-1.06-2.59-2.36-2.59h-.05a5.75 5.75 0 0 0 -1.95-2.36h2.04c2.54 0 4.59 2.24 4.59 5s-2.05 5-4.59 5h-2.04a5.77 5.77 0 0 0 2.02-2.53 2.4 2.4 0 0 0 2.23-.92l-.53-.48c-.5.59-1.14.7-1.45.7zm-4.64-6.75v9.96c2.25-.21 4.03-2.17 4.19-4.62h-.63v-.72h.63c-.16-2.44-1.94-4.41-4.19-4.62zm5.96 4.62h-1.09c-.03-.5-.1-.98-.24-1.44.68.12 1.22.7 1.33 1.44zm-3.96.3c0 .89.4 1.67 1.02 2.14.13-.25.23-.5.31-.77a1.83 1.83 0 0 1 -.58-1.36c0-.54.21-1.02.56-1.34-.09-.27-.2-.52-.33-.76-.6.47-.98 1.23-.98 2.1z" fill="#3080e3" fill-rule="evenodd"/></svg>