<svg height="18" viewBox="0 0 18 18" width="18" xmlns="http://www.w3.org/2000/svg"><path d="m0 0h18v18h-18z" fill="#f0f3fa"/><path d="m10.08 10.72c.18-.24.3-.52.39-.8.05-.17.07-.34.07-.51a2.24 2.24 0 0 0 -.8-1.56 15.14 15.14 0 0 0 -2.9-2.03 1.8 1.8 0 0 1 -.58-.52 1.4 1.4 0 0 1 -.2-1.22 1.81 1.81 0 0 1 .75-1.08.06.06 0 0 1 .06.03c.26.45.6.78 1.04 1.17.18.15.52.4 1.02.72l1.22.81a2.89 2.89 0 0 1 1.25 3.23 4.04 4.04 0 0 1 -1.32 1.8l-.01-.02v-.02z" fill="#d0102b"/><path d="m6.5 9.41a3.7 3.7 0 0 1 1.32-2.11c.1-.1.12-.08.04.04-.18.26-.3.57-.4.93-.03.17-.04.34 0 .52.07.42.24.8.52 1.11.44.5.95.87 1.57 1.28.47.31 1.02.65 1.62 1 .39.23.72.62.8 1.05a1.82 1.82 0 0 1 -.8 1.78h-.01a.04.04 0 0 1 -.03-.02 5.2 5.2 0 0 0 -1.54-1.55c-.44-.31-.9-.62-1.4-.92a8.9 8.9 0 0 1 -.52-.36 2.86 2.86 0 0 1 -1.17-2.76z" fill="#56565a"/></svg>