<svg height="18" viewBox="0 0 18 18" width="18" xmlns="http://www.w3.org/2000/svg"><path d="m0 0h18v18h-18z" fill="#f0f3fa"/><path d="m5.22 6.5c.98 0 1.53.13 1.9.42.44.35.63.83.63 2.07 0 1.25-.21 1.74-.63 2.09-.37.31-.92.42-1.9.42h-3.22v-5zm-.3 3.88c.44 0 .6-.03.7-.13.1-.09.16-.3.18-1.24 0-.95-.05-1.17-.18-1.26-.12-.08-.26-.11-.7-.11h-.92v2.74zm7.15-1.33.89-2.26c.07-.22.18-.29.49-.29h2.55v4.98h-2v-3h-.04l-1.21 2.73c-.1.22-.2.29-.44.29h-.68c-.24 0-.34-.1-.43-.3l-1.1-2.73h-.1v3.01h-2v-4.98h2.55c.3 0 .4.07.5.3l.92 2.25z"/></svg>