<svg height="18" width="18" xmlns="http://www.w3.org/2000/svg"><path d="m0 9a9 9 0 1 1 18 0 9 9 0 0 1 -18 0z" fill="#f0f3fa"/><path d="m5.99 6.74 3.01-1.23 3.01 1.23-3.01 1.86z" fill="#0188ca"/><path d="m9 12.29v-3.7l-3.01-1.85.6 3.09z" fill="#0699dc"/><path d="m9 12.29v-3.7l3.01-1.85-.6 3.09z" fill="#2372b5"/><path d="m14 5.51a7.83 7.83 0 0 0 -4.52-.3l3.38.92-.67 3.7c.9-.93 1.57-2.78 1.81-4.32z" fill="#231e20"/><path d="m8.96 14.5c1.25-.98 2.43-2.9 2.61-3.81l-2.57 2.53-2.59-2.52a8.5 8.5 0 0 0 2.55 3.81z" fill="#222021"/><path d="m4 5.51a7.83 7.83 0 0 1 4.52-.3l-3.38.92.67 3.7c-.91-.93-1.57-2.78-1.81-4.33z" fill="#241e20"/></svg>