<svg height="18" width="18" xmlns="http://www.w3.org/2000/svg"><path d="m0 0h18v18h-18z" fill="#006491"/><path d="m7.217 7.218 3.046-3.032c.227-.226.485-.269.761 0l2.83 2.818a.484.484 0 0 1 0 .691l-6.158 6.126c-.221.22-.51.257-.768 0l-2.768-2.757a.546.546 0 0 1 0-.77l3.058-3.076z" fill="#fff"/><path d="m7.266 7.53 3.187 3.173-2.899 2.886c-.178.177-.362.183-.546 0l-2.653-2.641c-.166-.165-.153-.349 0-.502l2.91-2.916z" fill="#006491"/><path d="m10.656 10.513-3.187-3.173 2.898-2.885c.178-.178.362-.184.547 0l2.652 2.64c.166.166.154.35 0 .502z" fill="#e31837"/><path d="m10.719 8.063a.781.781 0 1 0 0-1.563.781.781 0 0 0 0 1.563zm-2.188 3.437a.781.781 0 1 0 0-1.563.781.781 0 0 0 0 1.563zm-2.495.003c.434 0 .786-.35.786-.783a.784.784 0 0 0 -.786-.783.784.784 0 0 0 -.786.783c0 .432.352.783.786.783z" fill="#fff"/></svg>