<svg height="18" viewBox="0 0 18 18" width="18" xmlns="http://www.w3.org/2000/svg"><path d="m0 0h18v18h-18z" fill="#f0f3fa"/><g fill="#272d6c"><path d="m9.3 12.27c3.91 0 6-1.86 6.57-2.75h.13v.16c-1.57 2.62-4.76 3.32-7.13 3.32-2.35 0-6.87-1.45-6.87-4.02s3.82-3.98 6.78-3.98c2.97 0 7.22 1.2 7.22 2.97s-2.32 3.03-3.28 3.03c-.97 0-1.39-.82-1.39-1.7 0-1.73 1.44-2.3 1.8-2.3.28 0 .6.1.71.16h.28l.13-.16h.15l-.18 1.2a.27.27 0 0 1 -.15-.08.7.7 0 0 0 -.76-.84c-.68 0-1.29.96-1.29 1.77 0 .86.38 1.56 1.03 1.56 1.07 0 2.37-1.49 2.37-2.33 0-.93-1.6-2.55-6.38-2.55s-6.34 1.93-6.34 3.12c0 1.18 1.7 3.42 6.6 3.42z"/><path d="m11 7h-2.48l-.06.24h.24c.07 0 .08.11.08.17-.1.85-.31 2.63-.37 3-.05.36-.3.42-.41.4v.19h2.6l.3-1.1h-.17c-.26.59-.63.69-.78.7h-.72l-.06-.12.18-1.48h.81c.19 0 .21.44.2.62h.19l.15-1.42h-.15c-.05.44-.27.4-.38.4h-.78l.16-1.2h.84c.28 0 .34.36.34.57h.15l.06-.26zm-6.49 0v.22c.14-.02.4.02.36.32l-.36 2.88c-.02.12-.11.36-.31.36-.13 0-.2.07-.2.22h1.72c.7-.01 2.11-.46 2.11-2.2 0-1.56-1.06-1.8-1.56-1.8zm.88 3.57.33-2.8c.01-.12.07-.37.24-.37.21 0 1.18.02 1.18 1.36 0 1.1-.68 1.84-1.34 1.84-.18 0-.35-.02-.4-.03z"/></g></svg>