<svg height="18" viewBox="0 0 18 18" width="18" xmlns="http://www.w3.org/2000/svg"><path d="m0 0h18v18h-18z" fill="#f0f3fa"/><path d="m8.72 7h-1.72v.9c.13 0 .31.15.31.3v2.7c0 .24-.2.3-.31.3v.8h3c1 0 2-.4 2-2.5 0-1.8-.88-2.5-1.5-2.5h-.31c.72.5 1.03 1.83 1.03 2.55 0 .9-.47 1.95-1.72 1.95s-1.72-1.2-1.72-1.95.63-1.95.94-2.55z" fill="#ec0601"/><g fill="#2b11cd"><path d="m9.5 6c-.7 2.5-1.5 3.04-1.5 3.89 0 .7.6 1.02.83 1.11-.33-.28-.5-.78-.5-1.11 0-.56.67-1.25 1.17-1.67.5.42 1.17 1.11 1.17 1.67 0 .42-.17.83-.5 1.11.23-.1.83-.44.83-1.11s-.8-1.39-1.5-3.89z"/><path d="m9 10.5c0 .4.33.5.5.5s.5-.1.5-.5-.33-1.17-.5-1.5c-.17.33-.5 1.1-.5 1.5z"/><path d="m14.26 10.96-3.96-6.7a1.48 1.48 0 0 0 -2.6 0l-3.96 6.7c-.67 1.14.13 2.54 1.3 2.54h7.92c1.17 0 1.97-1.4 1.3-2.54zm-3.53-6.95a1.98 1.98 0 0 0 -3.46 0l-3.96 6.7c-.84 1.43.13 3.29 1.73 3.29h7.92c1.6 0 2.57-1.86 1.73-3.3z" fill-rule="evenodd"/></g></svg>