<svg height="18" viewBox="0 0 18 18" width="18" xmlns="http://www.w3.org/2000/svg"><path d="m0 0h18v18h-18z" fill="#f0f3fa"/><path d="m9 15a6 6 0 1 0 0-12 6 6 0 0 0 0 12zm0-.7a5.3 5.3 0 1 0 0-10.6 5.3 5.3 0 0 0 0 10.6zm0-.3a5 5 0 1 0 0-10 5 5 0 0 0 0 10zm-.35-9.22a4.24 4.24 0 0 0 0 8.44zm.7 8.44a4.24 4.24 0 0 0 3.87-3.87h-1.24a3 3 0 0 1 -1.57 2.3v-2.3h1.06v-1.05h-1.06v-1.95a3 3 0 0 1 1.5 1.94h1.27a4.24 4.24 0 0 0 -3.83-3.51zm-3.35-4.22a3 3 0 0 1 1.59-2.65v5.3a3 3 0 0 1 -1.59-2.65z" fill="#1b98ac" fill-rule="evenodd"/></svg>