<svg height="18" viewBox="0 0 18 18" width="18" xmlns="http://www.w3.org/2000/svg"><path d="m0 0h18v18h-18z" fill="#f0f3fa"/><path d="m8.3 7.5h-.3v2.5h.3v-1.1c0-.3.3-.46.6-.46.24 0 .3.2.3.31v1.25h.3v-1.25c0-.31-.15-.62-.6-.62-.36 0-.55.3-.6.46z" fill="#1f1d1e"/><path d="m5.32 11.35h.15c.7-1.3 1.67-2.2 2.06-2.5v-.44a6.64 6.64 0 0 0 -2.2 2.94zm3.09-3.23v-.3a12.64 12.64 0 0 1 4.27-1.32l-.44.59a9.34 9.34 0 0 0 -3.84 1.03z" fill="#00abf7"/><path d="m5.76 11.35h-.14a4.8 4.8 0 0 1 1.9-2.2v.3a4.28 4.28 0 0 0 -1.76 1.9zm3.96-3.09a.47.47 0 0 0 -.3-.14c.83-.47 1.93-.54 2.52-.6l-.44.6c-.7 0-1.4.05-1.78.14z"/><path d="m9 13.5a4.5 4.5 0 1 0 0-9 4.5 4.5 0 0 0 0 9zm0 .5a5 5 0 1 0 0-10 5 5 0 0 0 0 10z" fill="#00abf7" fill-rule="evenodd"/></svg>