<svg fill="none" height="18" width="18" xmlns="http://www.w3.org/2000/svg" xmlns:xlink="http://www.w3.org/1999/xlink"><linearGradient id="a" gradientUnits="userSpaceOnUse" x1="3.349" x2="21.904" y1="3.122" y2="24.434"><stop offset="0" stop-color="#1a1e21"/><stop offset="1" stop-color="#06060a"/></linearGradient><path d="m0 0h18v18h-18z" fill="url(#a)"/><path clip-rule="evenodd" d="m8.753 5.392c-.149-.2-.348-.303-.676-.351-.136-.021-.712-.041-1.28-.041h-1.032c-.42 1.921-.842 4.054-1.265 5.975h.93c.622.006 1.197.005 1.35-.018.538-.083 1.049-.41 1.259-.806.161-.305.274-.925.577-2.305.404-1.84.418-2.077.137-2.454zm-2.623 4.443c0-.044.475-2.457.729-3.585l.04-.18h.246c.307 0 .398.065.398.283 0 .213-.597 3.106-.684 3.282-.091.186-.217.2-.499.2z" fill="#ffc424" fill-rule="evenodd"/><path d="m4.5 11.988c5.455-.951 10-.255 10-.255s-5.455 0-9.464 1.74h-.536z" fill="#e31937"/><path clip-rule="evenodd" d="m13.384 6.51c0-1.083-.427-1.51-1.582-1.51h-1.746v5.978h1.91c1.298 0 1.423-.854 1.423-1.674 0-.206 0-.392-.004-.558-.01-.415-.004-.849-.41-1.1.325-.176.4-.459.412-.79.005-.148-.003-.277-.003-.346zm-1.888.6v-1.047h.324c.323 0 .345 1.049-.018 1.049h-.306zm0 2.636v-1.614h.306c.51 0 .484 1.614 0 1.614z" fill="#fff" fill-rule="evenodd"/></svg>