<svg height="18" viewBox="0 0 18 18" width="18" xmlns="http://www.w3.org/2000/svg"><path d="m0 0h18v18h-18z" fill="#2d322d"/><path d="m13.73 11.5h-1.73v-7h1v3h.73c1.34 0 2.27.7 2.27 2.02s-.93 1.98-2.27 1.98zm-.06-3h-.67v2h.67c.85 0 1.33-.2 1.33-.98s-.49-1.02-1.33-1.02zm-4.45 3h-1.77v-6h1.02v1.76h.75c1.38 0 2.33.62 2.33 2.07s-.95 2.17-2.33 2.17zm-.06-3.18h-.69v2.12h.7c.86 0 1.35-.23 1.36-1.06 0-.82-.5-1.06-1.37-1.06zm-6.16-.82h1.73c1.34 0 2.27.72 2.27 2.17s-.93 2.07-2.27 2.07h-.73v1.76h-1zm1 3.18h.67c.84 0 1.34-.31 1.33-1.06 0-.75-.48-1.06-1.33-1.06h-.67z" fill="#84bf41"/></svg>