<svg height="18" viewBox="0 0 18 18" width="18" xmlns="http://www.w3.org/2000/svg"><path d="m0 0h18v18h-18z" fill="#0fad4b"/><g fill="#fff"><path d="m8.82 11h-.82v-4h.82c1.05 0 2.18.65 2.18 2 .01 1.34-1.21 2-2.18 2zm2.9-3.42a2.65 2.65 0 0 0 -1.68-1.43c-.36-.1-.71-.15-1.06-.15h-1.9c-.04 0-.08.04-.08.1v5.8c0 .06.04.1.09.1h1.88c.36 0 .72-.06 1.07-.17a2.77 2.77 0 0 0 1.68-1.47c.19-.38.28-.84.28-1.36 0-.56-.1-1.04-.27-1.42z"/><path d="m14 7.45c0-.32-.13-.63-.4-.85l-3.31-2.99-.44-.34a1.4 1.4 0 0 0 -.83-.27c-.32 0-.63.1-.87.3l-3.07 2.12c-.04.03-.08.07-.08.11v1.1c0 .06.06.11.12.13.06.03.13.02.18-.02l3.71-2.62c.11-.1 3.6 3 3.99 3.28v5.6h-7.83c-.1 0-.17.08-.17.16v.74c0 .08.08.13.17.13h8.05c.44 0 .78-.43.78-.82z"/></g></svg>