<!-- by TradingView --><svg width="18" height="18" viewBox="0 0 18 18" xmlns="http://www.w3.org/2000/svg"><path fill="#F0F3FA" d="M0 0h18v18H0z"/><path d="M13.02 4c-.5.3-.86.75-.85 1.27v.16l-.1-.14a2.57 2.57 0 0 0-.3-.35c-.29-.27-.47.14-.47.14-.04.12-.12.5-.1.55l.02.17c.02.13.02.14-.02.1-.57-.7-.44.62-.45.99v.26l-.14-.13c-.18-.13-.29.06-.29.06-.16.2-.3.48-.34.68a.63.63 0 0 0 0 .33c.02.09.03.16.02.17 0 0-.59-.44-.76.42-.13.37-.05.8.24 1.22l.07.1-.15.17a.74.74 0 0 1-.15.16l.02-.12c.05-.15.03-.5-.04-.66a3.5 3.5 0 0 0-.15-.31c-.18-.22-.38.01-.38.01-.27.27-.46.64-.46.9 0 .16.1.5.2.69l.09.18c0 .03-.3.3-.33.28 0 0 0-.06.03-.12.1-.26.07-.62-.09-.98-.1-.3-.41-.1-.41-.01-.26.25-.44.52-.49.78l-.03.17-.04-.11c-.15-.57-.2-.2-.2-.2l-.17.2c-.13.08-.29.2-.35.28-.15.15-.29.4-.29.49 0 .12-.05.1-.08-.05 0 0-.06-.18-.38-.04-.57.33-.82.74-.78 1.27 0 .14.02.28.03.33l.02.08-.49.22c-.43.19-.49.22-.48.27.02.1.12.08.6-.14l.48-.22.2.14c.37.24.66.34 1.03.34.26 0 .58-.07.84-.19.05-.02.36-.2.02-.32a1.8 1.8 0 0 0-1.03-.38l-.27-.01.21-.12.24-.12.12.07c.3.21.7.34 1.03.34.32 0 .52-.05.89-.22.17-.07.34-.2.24-.22l-.23-.13a1.79 1.79 0 0 0-1.17-.3c-.14.02-.22.02-.18 0l.24-.16.25-.18c.03-.01.13.02.28.08.69.3 1.24.24 1.9-.2.14-.09.31-.19-.1-.32a1.86 1.86 0 0 0-1.18-.15.66.66 0 0 1-.15.04c-.02-.02.4-.35.44-.35l.2.05c.24.08.63.13.85.1.37-.05.63-.18.96-.46.04-.03.26-.35-.18-.4a1.8 1.8 0 0 0-1.12.05c-.1.05-.09.01.04-.12l.19-.2.06-.07.22.05c.27.06.79.06.98 0 .3-.08.63-.29.85-.53.22-.24.2-.31-.21-.31a1.9 1.9 0 0 0-1.27.12l.16-.21c.11-.15.17-.2.2-.2.17.05.34.07.58.07.48 0 .78-.1 1.11-.4.12-.1.26-.25.3-.31.1-.05.15-.24.05-.2l-.25-.04c-.45-.08-.96-.02-1.21.14l-.1.05.11-.19c.1-.13.14-.18.18-.17l.27.03c.24.03.58 0 .8-.08.32-.1.65-.37.86-.68.07-.1.12-.27-.05-.22a3.17 3.17 0 0 0-.99.02c-.11.03-.27.1-.34.14l-.14.06a2 2 0 0 1 .13-.24l.13-.21.35-.01c.27-.02.38-.03.54-.08.41-.14.68-.36.9-.77.12-.2.2-.41.07-.33a.3.3 0 0 1-.15 0 2.61 2.61 0 0 0-.84.11l-.22.05c-.14.12-.23.17-.23.15 0-.02.08-.1.18-.17.13-.09.66-.8.66-1.3 0-.09-.04-.22-.07-.3L13.21 4h-.19Zm-.69 1.73c.02.07 0 .17-.04.17-.01 0-.02-.05-.02-.11 0-.12.04-.16.06-.06ZM11.8 6.9l-.1.16-.01-.2a1 1 0 0 0-.05-.26c-.07-.11-.02-.1.1 0l.15.13-.09.17Zm-.72.87.1.12-.09.14a1 1 0 0 1-.1.14V8a1.48 1.48 0 0 0-.03-.36l.12.13Zm-.71 1.26-.13.16-.09.09.02-.08c.03-.1.03-.38 0-.5-.02-.1-.02-.1.11.07l.14.18-.05.08Zm-3.05 2.6c0 .04.04.13.07.18l.05.1c-.17.13-.35.25-.36.24 0 0 0-.04.03-.07a.9.9 0 0 0 .14-.44c0-.13.04-.14.07 0ZM6.19 12.7c0 .03-.34.24-.37.22l.05-.07c.06-.06.15-.22.21-.39l.04-.1.03.16.04.18Z" fill="#E7BC4E"/></svg>