<svg height="18" width="18" xmlns="http://www.w3.org/2000/svg"><path d="m0 0h18v18h-18z" fill="#c62018"/><path d="m7.125 4h1.25v4.375l-1.25.272zm-1.563 0h1.25v4.708l-1.25.272zm-1.562 1.25c0-.69.56-1.25 1.25-1.25v5.04l-1.25.274zm6.875 8.75h-1.25v-4.375l1.25-.272zm1.563 0h-1.25v-4.708l1.25-.272zm1.562-1.25c0 .69-.56 1.25-1.25 1.25v-5.04l1.25-.274v4.063zm-10-1.875v-1.25h4.374l.272 1.25zm0 1.563v-1.25h4.707l.272 1.25zm1.25 1.562c-.69 0-1.25-.56-1.25-1.25h5.04l.272 1.25zm8.75-6.875v1.25h-4.374l-.272-1.25zm0-1.562v1.25h-4.707l-.272-1.25zm-1.25-1.563c.69 0 1.25.56 1.25 1.25h-5.04l-.272-1.25z" fill="#fff"/></svg>