<svg height="18" viewBox="0 0 18 18" width="18" xmlns="http://www.w3.org/2000/svg"><path d="m0 0h18v18h-18z" fill="#f0f3fa"/><path d="m11.54 12.1c-2.2-.7-4.54 0-4.54 0 2.5.65 4.54 0 4.54 0zm.62-1.89c-2.71-.86-5.17 0-5.17 0 3.1.8 5.17 0 5.17 0zm.63-2.27c-2.72-.87-5.66 0-5.66 0 3.34.86 5.66 0 5.66 0zm1.21.9c-1.4 0-3.06.3-3.06.3s1.68.33 3.06.33v1.48c-1.61 0-3.3.27-3.3.27s1.64.21 3.3.21v2.57h-10v-.69c2.36 0 3.84-.45 3.84-.45s-1.48-.43-3.84-.43v-.69c3.22 0 4.66-.64 4.66-.64s-1.44-.53-4.66-.53v-.87c4.42.03 5.74-.68 5.74-.68s-1.32-.56-5.74-.56v-4.46h10v2.65c-1.31 0-2.93.3-2.93.3s1.6.32 2.93.32z" fill="#005093"/></svg>