<svg height="18" width="18" xmlns="http://www.w3.org/2000/svg"><path d="m0 0h18v18h-18z" fill="#0098cc"/><path d="m9 14a5 5 0 1 0 0-10 5 5 0 0 0 0 10zm.63-6.034 1.592-2.993-2.166 2.817a1.232 1.232 0 0 0 -.476.073l-3.413-1.792 2.876 2.187c-.047.062-.09.128-.124.198l-3.135-1.647 3.008 2.287c.006.07.017.14.034.206l-1.655 3.152 1.973-2.597c.07.07.149.131.234.182l-1.47 2.797 1.999-2.629a1.224 1.224 0 0 0 .41-.039l3.15 1.679-2.601-2.002c.065-.067.122-.14.17-.221l2.942 1.567-2.77-2.131a1.192 1.192 0 0 0 -.038-.37l1.707-3.207-2.035 2.648a1.216 1.216 0 0 0 -.214-.165z" fill="#fff" fill-rule="evenodd"/></svg>