<svg height="18" viewBox="0 0 18 18" width="18" xmlns="http://www.w3.org/2000/svg" xmlns:xlink="http://www.w3.org/1999/xlink"><linearGradient id="a" gradientUnits="userSpaceOnUse" x1="4.59" x2="14.21" y1="11.8" y2="5.12"><stop offset="0" stop-color="#36c3de"/><stop offset=".13" stop-color="#38c3d8"/><stop offset=".3" stop-color="#40c3c8"/><stop offset=".48" stop-color="#4dc3ad"/><stop offset=".69" stop-color="#5ec388"/><stop offset=".9" stop-color="#75c359"/></linearGradient><path d="m0 0h18v18h-18z" fill="#f0f3fa"/><path d="m11.72 13.15a5.23 5.23 0 0 1 -3.16.84l-4.04-3.76zm-7.02-3.59 7.1 3.54a5.03 5.03 0 0 0 1.9-2.43l-9-1.1zm9.03 1.04a4.87 4.87 0 0 0 0-3.2l-8.28 1.6zm-2-5.75a5.23 5.23 0 0 0 -3.18-.85l-4.03 3.77 7.2-2.92zm1.97 2.48a5.03 5.03 0 0 0 -1.9-2.43l-7.1 3.54zm-9.7 3.33a5.12 5.12 0 0 0 4.37 3.32zm4.37-6.64a5.12 5.12 0 0 0 -4.37 3.33z" fill="url(#a)"/></svg>