<svg height="18" viewBox="0 0 18 18" width="18" xmlns="http://www.w3.org/2000/svg"><path d="m0 0h18v18h-18z" fill="#f0f3fa"/><path d="m16 9c0 2.2-3.13 4-7 4s-7-1.8-7-4 3.13-4 7-4 7 1.8 7 4zm-.88 0c0 1.84-2.74 3.33-6.12 3.33s-6.13-1.49-6.13-3.33 2.76-3.33 6.13-3.33 6.13 1.49 6.13 3.33zm-8.67-2h-2.17v4h2.16v-.83h-1.44v-.84h1.3v-.66h-1.3v-.84h1.44v-.83zm.55 0h.73v4h-.73zm1.71 0h-.7l.87 4h.6l.4-1.65.44 1.65h.5l.96-4h-.8l-.43 1.73-.48-1.73h-.52l-.41 1.73-.44-1.73zm3.16 4h-.71l.87-4h.65l.98 4h-.72l-.16-.67h-.75zm.35-1.5h.36l-.18-.77z" fill="#160093" fill-rule="evenodd"/></svg>