<svg height="18" width="18" xmlns="http://www.w3.org/2000/svg"><path d="m0 0h18v18h-18z" fill="#f0f3fa"/><path d="m15.05 9.29a2.37 2.37 0 0 0 -1.568-2.236 3.41 3.41 0 0 0 -3.341-4.054c-1.1 0-2.119.525-2.76 1.41a1.809 1.809 0 0 0 -2.801 2.064 2.393 2.393 0 0 0 -1.58 2.242c0 1.013.632 1.9 1.574 2.24a3.4 3.4 0 0 0 3.336 4.044c1.1.001 2.119-.529 2.755-1.415.316.25.703.387 1.106.387a1.808 1.808 0 0 0 1.696-2.44 2.398 2.398 0 0 0 1.584-2.24z" fill="#fff"/><path d="m7.737 8.17 2.638 1.202 2.659-2.333a2.978 2.978 0 0 0 -2.918-3.56c-.984 0-1.896.484-2.45 1.293l-.445 2.298.515 1.1z" fill="#fed10a"/><path d="m5.007 10.961c-.04.194-.056.392-.056.596a2.984 2.984 0 0 0 5.45 1.676l.438-2.287-.586-1.12-2.648-1.208z" fill="#24bbb1"/><path d="m4.991 6.397 1.809.428.397-2.053a1.427 1.427 0 0 0 -2.205 1.625z" fill="#ef5098"/><path d="m4.833 6.83a2.011 2.011 0 0 0 -1.37 1.89c0 .83.515 1.569 1.284 1.864l2.536-2.292-.463-.993z" fill="#17a8e0"/><path d="m10.86 13.233c.249.188.55.295.86.295a1.427 1.427 0 0 0 1.34-1.92l-1.804-.423-.397 2.048z" fill="#93c83e"/><path d="m11.226 10.711 1.986.464a2.006 2.006 0 0 0 1.37-1.895c0-.825-.514-1.569-1.283-1.859l-2.599 2.277.525 1.013z" fill="#0779a1"/></svg>