<svg height="18" viewBox="0 0 18 18" width="18" xmlns="http://www.w3.org/2000/svg" xmlns:xlink="http://www.w3.org/1999/xlink"><linearGradient id="a" gradientUnits="userSpaceOnUse" x1="5.77" x2="12.17" y1="5.14" y2="6.95"><stop offset=".45" stop-color="#8dc73f"/><stop offset="1" stop-color="#cae5a6"/></linearGradient><linearGradient id="b" gradientUnits="userSpaceOnUse" x1="2.06" x2="6.63" y1="5.15" y2="14.4"><stop offset=".39" stop-color="#c41430"/><stop offset="1" stop-color="#e19083"/></linearGradient><radialGradient id="c" cx="0" cy="0" gradientTransform="matrix(4.20178 2.50549 -2.3547 3.9489 10.23 10.3)" gradientUnits="userSpaceOnUse" r="1"><stop offset="0" stop-color="#327a9c"/><stop offset="1" stop-color="#005a84"/></radialGradient><path d="m0 0h18v18h-18z" fill="#f0f3fa"/><path d="m8.85 5.06c-1.75 0-3.5 1.24-4.15 1.84l.77-2.55 1.36-1a6.58 6.58 0 0 1 3.26-.27c2.87 1.4 3.27 3.2 3.1 3.93-.7-.65-2.57-1.95-4.34-1.95z" fill="url(#a)"/><path d="m3 9.35a6.26 6.26 0 0 1 3.86-6.01c-.42.37-2.44 1.8-1.94 5.82a5.08 5.08 0 0 0 4.22 4.51l-1.28 1c-1.62-.22-4.86-1.59-4.86-5.32z" fill="url(#b)"/><path d="m8.96 15a6.7 6.7 0 0 1 -3.9-1.4c.26.06 1.06.2 2.23.2 3 0 5.77-1.75 5.77-5.68 0-3.15-2.02-4.66-3.03-5.03 1.07 0 4.97 1.73 4.97 5.86 0 4.12-3.83 6.05-6.04 6.05z" fill="url(#c)"/><path d="m12 10v.55h-1.2c-.8 0-1.45-.65-1.45-1.45v-.2c0-.8.65-1.44 1.45-1.44h1.2v.54h-1.2c-.3 0-.52.38-.52.68v.68c0 .3.23.64.53.64zm-4.27 0v.54h-1c-.8 0-1.43-.5-1.43-1.35v-.19c0-.86.64-1.5 1.42-1.5h1v.5h-.87c-.29 0-.53.43-.53.75v.01h1.4v.58h-1.4v.13c0 .32.24.53.53.53zm.52.54v-3h.75v3z" fill="#415968"/></svg>