<svg height="18" viewBox="0 0 18 18" width="18" xmlns="http://www.w3.org/2000/svg"><path d="m0 0h18v18h-18z" fill="#f0f3fa"/><path d="m6.1 6h2.9v1h-3.11c-.2 0-.7.07-.72.47-.01.41.47.65.72.71.5.15 1.54.47 1.74.56.26.1 1.37.33 1.37 1.77 0 1.16-1.14 1.47-1.72 1.49h-3.28v-1h2.98c.3-.02.85-.05.87-.58 0-.42-.49-.64-.73-.69l-1.37-.4c-.6-.12-1.8-.64-1.75-1.86.05-1.21 1.42-1.47 2.1-1.47z" fill="#9f998b"/><path d="m10.94 11.45-1.94-5.45h1.1l1.6 4.51 1.6-4.51h1.1l-1.96 5.45c-.05.19-.28.56-.74.55a.84.84 0 0 1 -.76-.55z" fill="#d31145"/></svg>