<svg height="18" viewBox="0 0 18 18" width="18" xmlns="http://www.w3.org/2000/svg"><path d="m0 0h18v18h-18z" fill="#f0f3fa"/><path d="m9.04 3-6.54 6.65 1.76 1.78 4.78-4.86 4.12 4.2h1.17l-5.29-5.4-4.78 4.86-.59-.6 5.37-5.43 5.88 5.96.58-.59z" fill="#d21c5b"/><path d="m4.85 12.03 1.75 1.77 2.44-2.48 1.76 1.9h1.2l-2.96-3.09-2.45 2.47-.57-.58 3.02-3.08 3.52 3.6 1.77-1.79h-1.17l-.58.59-3.54-3.59-4.2 4.27z" fill="#e9692f"/><path d="m7.19 14.4.58.6 1.27-1.29 1.19 1.21 1.76-1.68h-1.19l-.57.49-1.19-1.2-1.84 1.87z" fill="#f89e1e"/></svg>