<svg height="18" viewBox="0 0 18 18" width="18" xmlns="http://www.w3.org/2000/svg"><path d="m0 0h18v18h-18z" fill="#f0f3fa"/><path d="m6.76 7.5h6.12a3.53 3.53 0 0 0 -3.72-3.5c-3.68 0-4.16 3.04-4.16 4.3 0 1.25 1.34 3.7 4.43 3.7 2.13 0 3.27-1.08 3.57-1.62v-.62a3.96 3.96 0 0 1 -3.03 1.58c-1.92 0-3.2-1.25-3.2-3.84zm-.01-.5h4.43c.02-.83-.4-2.5-2.19-2.5-1.8 0-2.24 1.67-2.24 2.5z" fill="#00703c" fill-rule="evenodd"/><path d="m9.21 13c-1.42 0-4.07.35-5.21.52 1.2.16 3.92.48 5.21.48 1.3 0 3.73-.32 4.79-.48-1-.17-3.36-.52-4.79-.52z" fill="#838385"/></svg>