<svg height="18" viewBox="0 0 18 18" width="18" xmlns="http://www.w3.org/2000/svg"><path d="m0 0h18v18h-18z" fill="#f0f3fa"/><path d="m7.22 12.15 1.27-5.36s1.18.5 1.44 1.15c.16.41 0 1.1 0 1.1l-1.44 5.96c-.69-.42-1.5-1.04-1.49-1.71 0-.47.22-1.14.22-1.14z" fill="#015fbf"/><path d="m4.72 9.24 1.27-5.24s1.18.54 1.44 1.17c.16.4 0 1.06 0 1.06l-1.44 5.77c-.69-.4-1.5-1-1.49-1.66 0-.45.22-1.1.22-1.1zm7.39-4.24-2.02 8s.81-.04 1.51-.42c.5-.27.68-.75.68-.75l1.11-4.51s.11-.2.11-.62-.1-.75-.31-1.03a2.17 2.17 0 0 0 -1.09-.67z" fill="#379dff"/></svg>