<svg height="18" viewBox="0 0 18 18" width="18" xmlns="http://www.w3.org/2000/svg"><path d="m0 0h18v18h-18z" fill="#f0f3fa"/><g fill="#ef202d"><path d="m9.1 13.38c1.27 0 2.43-.53 3.24-1.38l.48.4a5.12 5.12 0 0 1 -8.82-3.4c0-2.76 2.28-5 5.1-5 1.56 0 2.97.7 3.9 1.8l-.45.43a4.48 4.48 0 0 0 -7.91 2.77c0 2.42 2 4.38 4.45 4.38z"/><path d="m9.1 5.25c1.21 0 2.3.56 3 1.43l-2.63 2.54-.45-.44 2.16-2.13a3.2 3.2 0 0 0 -5.27 2.35 3.15 3.15 0 0 0 3.18 3.13v.62a3.79 3.79 0 0 1 -3.82-3.75 3.79 3.79 0 0 1 3.83-3.75z"/><path d="m9.1 6.5c.37 0 .73.08 1.05.22l-.43.5c-.2-.06-.4-.1-.63-.1a1.9 1.9 0 0 0 -1.89 1.88h-.64c0-1.38 1.14-2.5 2.54-2.5z"/></g></svg>