<svg height="18" viewBox="0 0 18 18" width="18" xmlns="http://www.w3.org/2000/svg"><path d="m0 0h18v18h-18z" fill="#f0f3fa"/><path d="m11.51 8a3.8 3.8 0 0 0 -.56-1.47c-.02-.02 0-.03.02-.03h2.31l.01.01c.45.7.66 1.35.7 2.15v.58c0 .2-.02.42-.07.66l-.1.32c-.01.02-.02.03-.05.03h-2.24v-.01c.02-.14.02-.08.05-.21 0-.01 0-.02-.02-.03h-4.83c.15.5.44.84.83 1.2a3.2 3.2 0 0 0 1.72.75c.25.05.52.05.8.05h3.35c.02 0 .04.04.03.06-.16.17-.32.46-.5.6-.9.78-1.95 1.22-3.16 1.32l-.34.01-.13.01c-1.06 0-2.1-.3-2.97-.84a5.2 5.2 0 0 1 -1.6-1.57 4.75 4.75 0 0 1 .01-5.2 5.27 5.27 0 0 1 4.23-2.38 7.28 7.28 0 0 1 .81 0c1.28.12 2.44.72 3.34 1.58.12.1.24.25.36.38l-.01.03h-3.75c-.93.06-1.75.34-2.36 1-.23.24-.5.7-.62 1z" fill="#00264d"/></svg>