<svg height="18" viewBox="0 0 18 18" width="18" xmlns="http://www.w3.org/2000/svg" xmlns:xlink="http://www.w3.org/1999/xlink"><linearGradient id="a" gradientUnits="userSpaceOnUse" x1="3.35" x2="21.9" y1="3.12" y2="24.43"><stop offset="0" stop-color="#1a1e21"/><stop offset="1" stop-color="#06060a"/></linearGradient><path d="m0 0h18v18h-18z" fill="url(#a)"/><g fill="#fff"><path d="m8.12 7.98h1.31l1.02 6.37.37.12h-.35l.08.52-.22.01-.09-.53h-2.42l-.04.53h-.23l.37-4.6-.7 4.02-.22-.01zm.08 1.64-.04.58.54-.3zm.65.35-.56.33h1.15zm.6.44h-1.16l.6.32zm-.72.41-.6-.33-.05.7zm-.67.66-.06.76.77-.4zm.87.44-.79.4h1.6zm.82.52h-1.6l.82.4zm-.94.5-.84-.43-.07.89.91-.47zm-.93.7-.05.66 1-.34-.95-.31zm1.15.38-.95.34h1.97zm1.18.25-.97-.32.87-.3zm-.14-.87-.94-.47.8-.42zm-.14.09-.96-.49-.92.48h1.88zm-.09.11-.81.29-.86-.29zm.05-1.36-.8-.4.68-.36zm-.17-1.05-.68-.37.57-.33zm-.12.1-.71-.39-.68.4h1.39zm-.01.12-.67.35-.69-.35h1.37zm-.03-1.21-.56-.31.47-.27.1.58zm-.16-1.02-.15-.91-.33.39zm-.6-.66.36-.43h-.76zm-.49-.25.37.4-.44.51zm.05 1.27.49.27.46-.27zm-.09-.11.53-.63.58.63h-1.1z" fill-rule="evenodd"/><path d="m8.27 6.22v1.76h.73v-1.76h1.19c.63 0 0-.3.63-.3.64 0 .64.3 1.28.6.5.23.64-.1.64-.3.63 0 0-.3-.64-.3-1.28 0-.64-.29-1.28-.58-.63-.3-.63.59-1.27.59s0-.88 0-1.17c0-.3-.64.87-.64.29 0-.47.43-.59.64-.59v-.86c0-.24.42.1.64.29.2-.3.25-.88-1.28-.88-1.91-.01-.64 2.62-.64 3.21z"/></g></svg>