<svg height="18" viewBox="0 0 18 18" width="18" xmlns="http://www.w3.org/2000/svg"><path d="m0 0h18v18h-18z" fill="#002d6e"/><g fill="#fff"><path d="m10.52 13.22c1.24 0 2.17-.45 2.48-.65a4.66 4.66 0 0 1 -3.3 1.43 4.79 4.79 0 0 1 -4.7-5.01 4.89 4.89 0 0 1 4.7-4.99c1.64 0 3.3 1.13 3.3 2.3s-1.26 1.7-1.79 1.7a.76.76 0 0 1 -.78-.78c0-.36.1-.32.1-.64s-.16-.58-1-.58c-1.53 0-3.03 1.28-3.03 3.39 0 2.77 2.47 3.83 4.02 3.83z"/><path d="m10.25 10.29c0 .95 1.17 1.53 1.75 1.7-3.64.1-4-2.12-4-2.69 0-.66.37-1.3 1.11-1.3.75 0 .89.86.89.94a.98.98 0 0 0 -.64-.23c-.28 0-.61.36-.61.85 0 .91.94 1.55 1.27 1.72-.18-.2-.52-.69-.52-1.15s.33-.95.9-.95.73.6.73.83a.66.66 0 0 0 -.5-.23c-.16 0-.38.09-.38.5z"/></g></svg>