<svg height="18" viewBox="0 0 18 18" width="18" xmlns="http://www.w3.org/2000/svg" xmlns:xlink="http://www.w3.org/1999/xlink"><linearGradient id="a" gradientUnits="userSpaceOnUse" x1="3" x2="4.1" y1="6.76" y2="10.32"><stop offset="0" stop-color="#5e9641"/><stop offset="1" stop-color="#7cc244"/></linearGradient><linearGradient id="b" gradientUnits="userSpaceOnUse" x1="10.4" x2="8.21" y1="5.66" y2="10.61"><stop offset="0" stop-color="#dfe5f0"/><stop offset="1" stop-color="#fff"/></linearGradient><linearGradient id="c" gradientUnits="userSpaceOnUse" x1="8.13" x2="8.31" y1="6.23" y2="7.46"><stop offset="0" stop-color="#195c92"/><stop offset="1" stop-color="#0e3e67"/></linearGradient><linearGradient id="d" gradientUnits="userSpaceOnUse" x1="10.64" x2="10.64" y1="8.38" y2="9.92"><stop offset="0" stop-color="#17598e"/><stop offset="1" stop-color="#0f3c63"/></linearGradient><linearGradient id="e" gradientUnits="userSpaceOnUse" x1="14" x2="4.66" y1="11.2" y2="10.19"><stop offset="0" stop-color="#5e9641"/><stop offset="1" stop-color="#7bc144"/></linearGradient><path d="m0 0h18v18h-18z" fill="#f0f3fa"/><path d="m3.1 6.44a5.22 5.22 0 0 0 1.13 4.3l-.32-.9 1.46-.51c-1.77-1.05-2.25-2.38-2.26-2.89z" fill="url(#a)"/><path d="m8.19 10.66c3.25 1.01 6.36.44 6.76-.75.09-.26.06-.58-.08-.91h-.6l.1-.62h.13c-.78-1.06-2.46-2.21-4.58-2.87-3.26-1.01-6.39-.38-6.77.74-.41 1.24 1.78 3.4 5.04 4.41z" fill="url(#b)"/><path d="m7.79 6.23c-1.56.05-1.77.84-1.68 1.23h5.04a5.21 5.21 0 0 0 -3.35-1.23z" fill="url(#c)"/><path d="m14.5 8.38h-7.73c.62.87 2.18 1.53 3.92 1.54 1.4.01 1.57-.57 1.48-.92h2.2l.11-.62z" fill="url(#d)"/><path d="m11.11 12.98c2.83-.15 3.71-2.03 3.8-2.96-.44.53-1.15 1.08-3.73 1.12-1.8.02-4.1-.87-4.94-1.29l.16-.46-2 .6.9 2.54.29-.74c.66.46 2.69 1.34 5.52 1.2z" fill="url(#e)"/></svg>