<svg height="18" viewBox="0 0 18 18" width="18" xmlns="http://www.w3.org/2000/svg"><path d="m0 0h18v18h-18z" fill="#f0f3fa"/><path d="m4.51 4.82c0-.24.21-.43.47-.43h8.04c.26 0 .47.2.47.43v8.28c0 .24-.21.43-.47.43h-8.04c-.26 0-.47-.2-.47-.43z" fill="#ffcf08"/><path d="m9.47 8.67 1.53-.87v1.52l1-.8v-2.41l-2.03-1.11-1.4.8 1.28.64v.15l-3.85 2.26v2.72l2.41 1.43 2.48-1.35c.06-.04.11-.1.11-.17v-1.94l-.02-.02h-.01zm0 0v2.04l-.95.49-.94-.5v-.85l1.9-1.19z"/><path d="m5.3 4c-.73 0-1.3.53-1.3 1.2v7.6c0 .67.58 1.2 1.3 1.2h7.4c.72 0 1.3-.53 1.3-1.2v-7.6c0-.67-.58-1.2-1.3-1.2zm.12 1c-.23 0-.42.17-.42.38v7.24c0 .21.19.38.42.38h7.16c.23 0 .42-.17.42-.38v-7.24c0-.21-.19-.38-.42-.38z" fill-rule="evenodd"/></svg>