<svg height="18" width="18" xmlns="http://www.w3.org/2000/svg"><path d="m0 0h18v18h-18z" fill="#083278"/><path d="m10.042 9.33s-.056-.172-.102-.276c-.14.01-1.638.585-2.78 1.382.311-.033.638-.084.97-.147.953-.638 1.912-.959 1.912-.959zm-3.97 2.151c-.199.318-.274.646-.15.969.025.037.31.886.347.947-.078-.68.122-1.275.465-1.785a3.29 3.29 0 0 1 -.662-.13zm3.077-4.66s-.057-.171-.103-.276c-.137.01-1.601.572-2.737 1.353.313-.034.64-.085.97-.147a9.042 9.042 0 0 1 1.87-.93zm-3.962 2.139c-.205.321-.284.654-.158.982.025.036.31.885.348.946-.081-.692.129-1.296.484-1.812a3.576 3.576 0 0 1 -.674-.117z" fill="#b9c3cd"/><path d="m4.061 7.396c.025.038.31.886.347.947-.313-2.702 3.772-4.067 3.772-4.067s-.055-.172-.102-.276c-.242.018-4.644 1.761-4.017 3.396z" fill="#b9c3cd"/><path d="m4.073 7.384c.075.221.223.763.323.959 1.315 1.648 7.742-.602 7.742-.602s-.421-1.144-.52-1.365c-.286.098-6.323 2.317-7.545 1.008zm1.862 5.054c.074.22.223.762.322.959 1.316 1.647 7.743-.603 7.743-.603s-.422-1.143-.52-1.364c-.286.098-6.322 2.318-7.545 1.008zm5.569-1.66c-1.995.55-5.247 1.23-6.14.11-.1-.196-.249-.737-.323-.959.848.908 4.001.073 5.956-.529z" fill="#fff"/></svg>