<svg height="18" width="18" xmlns="http://www.w3.org/2000/svg" xmlns:xlink="http://www.w3.org/1999/xlink"><linearGradient id="a" gradientUnits="userSpaceOnUse" x1="3.349" x2="21.904" y1="3.122" y2="24.434"><stop offset="0" stop-color="#1a1e21"/><stop offset="1" stop-color="#06060a"/></linearGradient><path d="m0 0h18v18h-18z" fill="url(#a)"/><path d="m7.376 3-1.376 10h4.386l.348-2h-2.541l.376-2h2.294l.348-2h-2.433l.36-2h2.513l.349-2z" fill="#fff"/><path d="m14.98 10.006c.01 0 .02-.005.02.008-2.602 1.239-4.992 3.412-7.364 4.986.045 0-.03.013 0 0-1.018-.189-2.49-.267-3.594 0v-.008h.013l.24-.115c.198-.091.395-.183.591-.275l1.857-.852 1.956-.894 3.456-1.568 2.826-1.282z" fill="#ee2e2f"/></svg>