<svg height="18" viewBox="0 0 18 18" width="18" xmlns="http://www.w3.org/2000/svg"><path d="m0 0h18v18h-18z" fill="#f0f3fa"/><path d="m7.27 8.37c-.33 0-.6-.24-.6-.53 0-.2.11-.38.3-.47l3.46-1.74c.3-.14.66-.05.83.2.16.26.06.59-.23.74l-3.46 1.73c-.09.05-.2.07-.3.07m-0 4.07c-.33 0-.6-.24-.6-.54 0-.2.11-.37.3-.47l3.45-1.73c.3-.15.66-.06.83.2.17.25.07.58-.22.73l-3.46 1.74c-.09.04-.2.07-.3.07m.02-1.88c-.34 0-.62-.25-.62-.56 0-.2.12-.39.31-.49l2.09-1.06c.3-.15.68-.06.85.21s.06.61-.23.76l-2.1 1.07c-.09.05-.2.07-.3.07" fill="#8ec640"/><path d="m6.02 4h5.92l.12.2 2.94 4.87-.12.2-2.94 4.73h-5.92l-.12-.2-2.9-4.73zm5.44.94h-4.96l-2.53 4.12 2.54 4h4.95l2.57-4z" fill="#6d6e71"/></svg>