<svg height="18" width="18" xmlns="http://www.w3.org/2000/svg"><path d="m0 0h18v18h-18z" fill="#f0f3fa"/><g fill="#d14132"><path d="m7.65 6.18.1-3.18-.73.23-.07 2.3-2-1.13-.58.56 2.78 1.48z" opacity=".8"/><path d="m6.49 7.17-1.54-2.77-.58.57 1.19 2.02-2.34.08-.16.75 3.13-.16.3-.48z" opacity=".8"/><path d="m5.95 8.7-2.73-1.65-.15.75 1.97 1.2-1.97 1.18.2.78 2.65-1.7z" opacity=".8"/><path d="m6.22 10.32-3.16-.15.21.79 2.3.05-1.15 2 .57.58 1.48-2.77z" opacity=".8"/></g><path d="m9.25 5.89 1.66-2.7-.76-.21-1.2 2-1.19-1.98-.76.23 1.7 2.66h.54z" fill="#e8a82f" opacity=".8"/><path d="m10.73 6.42 2.77-1.45-.59-.55-1.97 1.08-.02-2.3-.78-.23.12 3.15z" fill="#e8a82f" opacity=".8"/><path d="m11.8 7.73 3.14.06-.19-.78h-2.33l1.08-2.03-.59-.57-1.39 2.83.27.49z" fill="#e8a82f" opacity=".8"/><path d="m12.04 9.2 2.67 1.73.21-.78-1.97-1.21 2-1.15-.2-.79-2.68 1.65-.03.56z" fill="#e8a82f" opacity=".8"/><path d="m11.48 10.74 1.5 2.83.56-.58-1.13-2.04 2.3-.02.22-.78-3.15.12z" fill="#1696a7" opacity=".8"/><path d="m10.24 11.84-.09 3.15.79-.2.01-2.32 2.03 1.1.57-.58-2.82-1.42-.5.27z" fill="#1696a7" opacity=".8"/><path d="m8.67 12.11-1.62 2.69.78.21 1.13-1.99 1.2 1.97.78-.21-1.7-2.64z" fill="#1696a7" opacity=".8"/><path d="m7.23 11.56-2.81 1.45.56.58 2.04-1.1.03 2.3.78.22-.13-3.14-.47-.3z" fill="#1696a7" opacity=".8"/></svg>