<svg height="18" viewBox="0 0 18 18" width="18" xmlns="http://www.w3.org/2000/svg"><path d="m0 0h18v18h-18z" fill="#f0f3fa"/><path d="m4 9.63v.62h2v1.25h-3v-5h3v1.25h-2v.63h2v1.25zm6-3.13v5h-.96l-1.26-2.54h-.04l.02 2.54h-.9v-5h.9l1.26 2.47h-.02v-2.47z" fill="#333"/><path d="m13.85 9.63h-.85v-1.25h2v3.12h-1v-.66s-.36.66-1.46.66a2 2 0 0 1 -1.53-.7 2.56 2.56 0 0 1 -.64-1.8c0-.7.24-1.3.73-1.77a2.35 2.35 0 0 1 1.72-.73c.52 0 .99.15 1.39.44s.66.55.78 1.06h-1.25c-.2-.22-.47-.35-.92-.35-.32 0-.6.13-.82.4-.23.28-.35.6-.35.95 0 .36.12.67.34.93.23.26.5.4.83.4.27 0 .5-.07.68-.21s.3-.27.35-.5z" fill="#67c02a"/><path d="m12.6 8.37h-6.3v1.25h6.3z" fill="#67c02a"/><path d="m9.57 9.91-.53-.94-.36-.7-.91-1.77h-1v5h1l-.03-2.54h.04l.51 1.02" fill="#333"/></svg>