<svg height="18" viewBox="0 0 18 18" width="18" xmlns="http://www.w3.org/2000/svg"><path d="m0 0h18v18h-18z" fill="#f0f3fa"/><path d="m4 8.72c0 3.94 3.33 5.16 5 5.28v-9.35a5.71 5.71 0 0 0 -2.12-.65 5.4 5.4 0 0 0 -2.88 4.72z" fill="#ffeb00"/><path d="m8.99 14c-1.69-.13-4.99-1.35-4.99-5.28 0-1.3.46-2.34 1.04-3.12.95 0 2.8.42 3.95 2.08z" fill="#c3d602"/><path d="m9 14v-3.22a3.72 3.72 0 0 0 -5-1.92c.08 3.81 3.34 5.01 5 5.14z" fill="#1fa1e9"/><path d="m6.2 9.27a5.46 5.46 0 0 0 2.8 4.73v-9.35a5.22 5.22 0 0 0 -2.8 4.62z" fill="#fabe01"/><path d="m9 14a5.46 5.46 0 0 1 -2.8-4.73c0-1.3.44-2.35 1.01-3.13.64.32 1.29.81 1.79 1.54z" fill="#6eba2a"/><path d="m6.19 9.3a5.42 5.42 0 0 0 2.8 4.7v-3.2a3.8 3.8 0 0 0 -2.75-2.22c-.03.23-.05.47-.05.72z" fill="#0d6dbc"/><path d="m8.06 10.78c0 1.64.61 2.83.94 3.22v-6.28a4.67 4.67 0 0 0 -.94 3.06z" fill="#1f8842"/><path d="m9 14a5.38 5.38 0 0 1 -.94-3.2c0-.46.03-.83.11-1.2.32.32.58.68.83 1.2z" fill="#064f96"/><path d="m14 8.72c0 3.94-3.33 5.16-5 5.28v-9.35c.9-.46 1.79-.65 2.12-.65a5.4 5.4 0 0 1 2.88 4.72z" fill="#ffeb00"/><path d="m9.01 14c1.69-.13 4.99-1.35 4.99-5.28 0-1.3-.46-2.34-1.04-3.12-.95 0-2.8.42-3.95 2.08z" fill="#c3d602"/><path d="m9 14v-3.22a3.72 3.72 0 0 1 5-1.92c-.08 3.81-3.34 5.01-5 5.14z" fill="#1fa1e9"/><path d="m11.8 9.27a5.46 5.46 0 0 1 -2.8 4.73v-9.35c.94.45 2.8 1.96 2.8 4.62z" fill="#fabe01"/><path d="m9 14a5.46 5.46 0 0 0 2.8-4.73c0-1.3-.44-2.35-1.01-3.13-.64.32-1.29.81-1.79 1.54z" fill="#6eba2a"/><path d="m11.81 9.3a5.42 5.42 0 0 1 -2.8 4.7v-3.2a3.8 3.8 0 0 1 2.75-2.22c.03.23.05.47.05.72z" fill="#0d6dbc"/><path d="m9.94 10.78c0 1.64-.61 2.83-.94 3.22v-6.28c.33.33.94 1.41.94 3.06z" fill="#1f8842"/><path d="m9 14c.34-.4.94-1.58.94-3.2 0-.46-.03-.83-.11-1.2-.32.32-.58.68-.83 1.2z" fill="#064f96"/></svg>