<svg height="18" viewBox="0 0 18 18" width="18" xmlns="http://www.w3.org/2000/svg" xmlns:xlink="http://www.w3.org/1999/xlink"><linearGradient id="a" gradientUnits="userSpaceOnUse" x1="12.37" x2="5.42" y1="7.16" y2="7.48"><stop offset="0" stop-color="#737479"/><stop offset="1" stop-color="#a0a3a8"/></linearGradient><linearGradient id="b" gradientUnits="userSpaceOnUse" x1="5.29" x2="6.86" y1="9.23" y2="12.22"><stop offset="0" stop-color="#b7b7c1"/><stop offset="1" stop-color="#b7b7c1" stop-opacity="0"/></linearGradient><linearGradient id="c" gradientUnits="userSpaceOnUse" x1="4.72" x2="15.28" y1="5.23" y2="8.69"><stop offset="0" stop-color="#aeb1b6"/><stop offset=".47" stop-color="#e8ebf2"/><stop offset="1" stop-color="#b2b5ba"/></linearGradient><linearGradient id="d" gradientUnits="userSpaceOnUse" x1="13.42" x2="3" y1="10.71" y2="10.32"><stop offset=".5" stop-color="#717274"/><stop offset="1" stop-color="#c1c4c9"/></linearGradient><path d="m0 0h18v18h-18z" fill="#f0f3fa"/><path d="m13.93 8.81-.27-.26c-.17-1.51-2-3.91-5.25-3.91-2.6 0-4.27 1.5-4.78 2.24a5.74 5.74 0 0 1 5.87-2.4c3.67.54 4.48 3.11 4.43 4.33z" fill="url(#a)"/><path d="m13.9 8.8h-10.74c0 .44.15 1.62.78 2.78.79 1.44 2.98 2.3 4.24 2.3 1 0 1.83-.17 2.12-.25-4.5 0-6.07-2.91-6.3-4.36h10.77l.22.18c-.12-3.3-2.45-4.53-3.88-5.02a7.04 7.04 0 0 0 -3.17-.17l-.53.24c4.81-.31 6.4 2.86 6.47 4.3z" fill="#b8b9be"/><path d="m4.36 9.45-.38-.22h10.8l.22.22z" fill="#7f8386"/><path d="m4.36 9.46-.42-.28c0 .05.14.34.14.92s1.26 2.06 1.89 2.73c.56.3 2.2.9 4.2.9 2.02 0 3.61-1.64 4.16-2.46-.56.7-2.24 2.1-4.4 2.1-3.92 0-5.34-2.6-5.57-3.9z" fill="url(#b)"/><path d="m3.53 7.04a6.37 6.37 0 0 1 5.58-3.04c4.05 0 5.87 2.8 5.87 5.46l-.2-.21c0-2.07-1.72-5-5.33-5-3.54 0-5.39 1.82-5.92 2.79z" fill="url(#c)"/><path d="m14.53 10.96a6.42 6.42 0 0 1 -5.62 3.04c-4.07 0-5.91-2.8-5.91-5.46l.2.21c0 2.07 1.73 5 5.37 5 3.56 0 5.43-1.82 5.96-2.79z" fill="url(#d)"/></svg>