<svg height="18" viewBox="0 0 18 18" width="18" xmlns="http://www.w3.org/2000/svg"><path d="m0 0h18v18h-18z" fill="#f0f3fa"/><path d="m9.62 5h-1.25v3h1.25zm4.38 3.67-.63 1.07-.77-1.18c0 2 .15 3.02-2.37 3.04h-2.49c-1.67.04-2.34-.26-2.34-1.85l-.7-1.07-.7 1.07v.87a2.07 2.07 0 0 0 .8 1.77c.89.68 2.84.6 2.94.6h2.5s2.03.1 2.93-.6a2.14 2.14 0 0 0 .8-1.68z" fill="#4daa50"/><path d="m13.19 5.62c-.91-.71-2.94-.62-2.94-.62v1.4c.77.02 2.39-.05 2.35 1.03v.33l.77 1.1.63-1.1v-.41a2.14 2.14 0 0 0 -.81-1.73zm-8.39 0a2.16 2.16 0 0 0 -.8 1.76v1.47l.71-1.06.69 1.06v-1.43c-.01-1.09 1.57-1 2.35-1.02v-1.4s-2.03-.09-2.94.62z" fill="#235ba8"/></svg>