<svg height="18" width="18" xmlns="http://www.w3.org/2000/svg"><path d="m0 0h18v18h-18z" fill="#f0f3fa"/><path d="m7.496 9-2.495.737v.586l3.515-1.023z" fill="#8cd5e9"/><path d="m9.507 9 3.491-1v2z" fill="#1b83c6"/><path d="m12.999 5.342-7.999-2.342v2l4.543 1.363 3.455-1.021z" fill="#8cd5e9"/><path d="m12.999 7.378v-2.038l-3.458 1.023 3.459 1.015z" fill="#1b83c6"/><path d="m8.516 6.657 1.03-.295 3.454 1.016-1.001.314z" fill="#31343f"/><path d="m8.516 6.657-3.516-1.02v2.083l3.515-1.064z" fill="#8cd5e9"/><path d="m11.999 7.692-3.485-1.035-3.514 1.047 3.485.996 3.515-1.008z" fill="#1b83c6"/><path d="m12.998 8-.998-.309-3.515 1.009 1.023.301z" fill="#8cd5e9"/><path d="m5.001 8.268v-.566l3.485.998-.991.301z" fill="#31343f"/><path d="m5.001 9.737v-1.469l2.497.73-2.498.741z" fill="#1b83c6"/><path d="m8.517 9.301.995-.301 3.488 1-1 .32-3.483-1.018z" fill="#31343f"/><path d="m8.482 11.332-3.481-1.009 3.515-1.023 3.484 1.018z" fill="#1b83c6"/><path d="m12.997 10.64-.997-.322-3.52 1.013 1.062.289z" fill="#8cd5e9"/><path d="m5.001 12.3v-1.977l3.486 1.009-3.487.968zm4.54-.68-4.54 1.38v2l7.999-2.4z" fill="#31343f"/><path d="m9.539 11.62 3.46-.98v1.96z" fill="#1b83c6"/></svg>