<svg height="18" viewBox="0 0 18 18" width="18" xmlns="http://www.w3.org/2000/svg"><path d="m0 0h18v18h-18z" fill="#f0f3fa"/><path d="m8.5 6.55.5-1.55c-4.57 1.33-3.98 3.7-3.98 4a6.8 6.8 0 0 1 3.48-2.45z" fill="#ffe56e"/><path d="m9.5 6.94.5-1.94c-4.69 1.37-4.05 4.53-3.87 5 1.22-2.01 2.33-2.61 3.37-3.06z" fill="#609363"/><path d="m9 13.7-1 1.3c-3.82-2.47-2.93-5.85-2.87-6 .36 2.68 2.73 4.26 3.87 4.7z" fill="#f58051"/><path d="m10 13.65c-3-1.33-3.85-3.65-3.9-4.65-.62 3.28 1.71 5.37 2.95 6z" fill="#abd372"/><path d="m8 6h3.38v.33h-3.24z" fill="#a0aacb"/><path d="m7 7h5v.33h-4.88z" fill="#6275a5"/><path d="m6.23 8.67h5.54v.33h-5.42z" fill="#53699d"/><path d="m6 10h4.92v.33h-4.81z" fill="#6a7caa"/><path d="m7 11h2.15v.33h-2.05z" fill="#a1a8be"/><path d="m8.67 3-.67.99c2.1.19 3.76 2.84 3.86 3.01.16-.46.14-.64.14-.81-.33-2.13-2.36-3.02-3.33-3.19z" fill="#5a7cac"/><path d="m9.24 11.23-.24 1.77c3.27-1.8 3-4.65 3-5-.33 1.77-2.02 2.84-2.76 3.23z" fill="#6b4a9e"/><path d="m10.25 11.28-.25 1.72c3.4-1.74 2.98-4.66 2.98-5-.34 1.72-1.96 2.9-2.73 3.28z" fill="#a6d169"/></svg>