<!-- by TradingView --><svg width="18" height="18" viewBox="0 0 18 18" xmlns="http://www.w3.org/2000/svg"><path fill="#181B1E" d="M0 0h18v18H0z"/><path d="M10.86 7h2.78c0 .71-.14.99-.2 1h-2.12c-.14 0-.23.18-.23.35 0 .17.12.32.26.32h1.79c.47 0 .86.35.86.93v.35c0 .58-.39 1.05-.86 1.05H10v-1h2.66c.14 0 .25-.15.25-.32 0-.16-.1-.35-.25-.35h-1.8c-.47 0-.86-.3-.86-.88v-.4c0-.58.39-1.05.86-1.05Z" fill="#fff"/><path d="M6 7H2.7c-.24.02-.7.68-.7 2.18s.46 1.8.7 1.82h5.85V9.95c-.01.02-.07.04-.12.05h-.59c-.22 0-.39-.2-.39-.46v-.86c0-.37.23-.68.55-.68h.52c.32 0 .48.3.48.68V12h1V8.4C10 7.61 9.47 7 8.82 7H7.61c-1 0-1.25 1.1-1.25 2 0 .68.05.94.1 1H3.28C3.12 10 3 9.85 3 9.65v-.28h2.64V8.6H3v-.23c0-.2.14-.37.3-.37h2.51c.06-.01.19-.28.19-1Z" fill="#fff"/><path d="M14.69 10H16l-.69 1H14l.69-1Z" fill="#DC5B20"/></svg>