<svg height="18" viewBox="0 0 18 18" width="18" xmlns="http://www.w3.org/2000/svg"><path d="m0 0h18v18h-18z" fill="#181b1e"/><path d="m10.86 7h2.78c0 .71-.14.99-.2 1h-2.12c-.14 0-.23.18-.23.35s.12.32.26.32h1.79c.47 0 .86.35.86.93v.35c0 .58-.39 1.05-.86 1.05h-3.14v-1h2.66c.14 0 .25-.15.25-.32 0-.16-.1-.35-.25-.35h-1.8c-.47 0-.86-.3-.86-.88v-.4c0-.58.39-1.05.86-1.05z" fill="#fff"/><path d="m6 7h-3.3c-.24.02-.7.68-.7 2.18s.46 1.8.7 1.82h5.85v-1.05c-.01.02-.07.04-.12.05h-.59c-.22 0-.39-.2-.39-.46v-.86c0-.37.23-.68.55-.68h.52c.32 0 .48.3.48.68v3.32h1v-3.6c-0-.79-.53-1.4-1.18-1.4h-1.21c-1 0-1.25 1.1-1.25 2 0 .68.05.94.1 1h-3.18c-.16 0-.28-.15-.28-.35v-.28h2.64v-.77h-2.64v-.23c0-.2.14-.37.3-.37h2.51c.06-.01.19-.28.19-1z" fill="#fff"/><path d="m14.69 10h1.31l-.69 1h-1.31z" fill="#dc5b20"/></svg>