<svg height="18" width="18" xmlns="http://www.w3.org/2000/svg"><path d="m0 0h18v18h-18z" fill="#79242f"/><path d="m12 12.004h-2c-1.71 0-3-.11-3-1.044v-.499c0-.29.238-.46.665-.46h4.002c.085 0 .166-.03.226-.083s.107-.125.107-.2v-1.432c0-.038-.022-.074-.038-.108a.282.282 0 0 0 -.07-.092.325.325 0 0 0 -.103-.06.36.36 0 0 0 -.122-.027h-4.126c-.336-.034-.541-.189-.541-.444v-.498c0-.935 1.291-1.057 3-1.057h2v-1.998l-2 .001c-3.024 0-5 1.563-5 3.35v3.281c0 1.787 2.015 3.366 5.036 3.366h1.964z" fill="#f6f8fd"/></svg>