<svg height="18" viewBox="0 0 18 18" width="18" xmlns="http://www.w3.org/2000/svg"><path d="m0 0h18v18h-18z" fill="#f0f3fa"/><circle cx="9" cy="9" fill="#004d73" r="5"/><path d="m13.66 10.8a4.99 4.99 0 0 0 0-3.6 8.76 8.76 0 0 0 -4.66-1.2c-1.9 0-3.58.48-4.66 1.2a4.99 4.99 0 0 0 0 3.6 8.76 8.76 0 0 0 4.66 1.2c1.9 0 3.58-.48 4.66-1.2z" fill="#f0f3fa"/><path d="m13.66 10.81a4.99 4.99 0 0 0 0-3.62 14.7 14.7 0 0 0 -4.66-.69c-1.8 0-3.44.27-4.66.69a4.99 4.99 0 0 0 0 3.62c1.22.42 2.86.69 4.66.69s3.44-.27 4.66-.69z" fill="#00273a"/><path d="m13.99 9.31a5.06 5.06 0 0 0 0-.62h-2.99v.62zm-9.98-.61a5.07 5.07 0 0 0 0 .62h2.99v-.62zm6.55 0h-3.12v.62h3.12z" fill="#f0f3fa"/></svg>