<svg height="18" width="18" xmlns="http://www.w3.org/2000/svg"><path d="m0 0h18v18h-18z" fill="#f0f3fa"/><path d="m7.44 13.992h6.552c-.918-.382-1.68-1.184-1.873-1.56h-4.368c-.66-.122-1.074-.878-1.248-1.248h4.993c-.23-.367-.235-1.216-.313-1.56h-7.176c.994 3.183 2.715 4.241 3.432 4.368z" fill="#002b49"/><path d="m7.397 4.008h6.594c-.918.388-1.681 1.18-1.872 1.56h-4.369c-.66.125-1.075.875-1.248 1.248h4.992c-.23.371-.235 1.212-.312 1.56l-7.178.001c.987-3.215 2.674-4.24 3.392-4.369z" fill="#0093b2"/></svg>