<svg height="18" width="18" xmlns="http://www.w3.org/2000/svg" xmlns:xlink="http://www.w3.org/1999/xlink"><linearGradient id="a"><stop offset="0" stop-color="#604017"/><stop offset="1" stop-color="#cb9b37"/></linearGradient><linearGradient id="b" gradientUnits="userSpaceOnUse" x1="6.34" x2="6.38" xlink:href="#a" y1="5.45" y2="4.19"/><linearGradient id="c" gradientUnits="userSpaceOnUse" x1="7.19" x2="5.97" xlink:href="#a" y1="13.1" y2="13.49"/><linearGradient id="d" gradientUnits="userSpaceOnUse" x1="13.42" x2="14.43" xlink:href="#a" y1="8.52" y2="9.8"/><linearGradient id="e"><stop offset="0" stop-color="#654114"/><stop offset="1" stop-color="#d5af61"/></linearGradient><linearGradient id="f" gradientUnits="userSpaceOnUse" x1="10.87" x2="11.23" xlink:href="#e" y1="4.58" y2="8.62"/><linearGradient id="g" gradientUnits="userSpaceOnUse" x1="4.18" x2="7.51" xlink:href="#e" y1="9.6" y2="7.28"/><linearGradient id="h" gradientUnits="userSpaceOnUse" x1="11.98" x2="8.27" xlink:href="#e" y1="12.9" y2="11.25"/><path d="m0 0h18v18h-18z" fill="#f0f3fa"/><path d="m5.06 6.43a3.92 3.92 0 1 1 4.42 4.37c-.37-.4-.54-.84-.6-1.12h.07a2.76 2.76 0 1 0 -2.5-3.93c-.64.27-1.13.53-1.39.68z" fill="url(#b)"/><path d="m8.68 13.72a3.92 3.92 0 1 1 1.6-6c-.17.52-.47.89-.68 1.08a2.76 2.76 0 1 0 -2.2 4.05c.55.43 1.02.73 1.28.87z" fill="url(#c)"/><path d="m13.18 6.92a3.92 3.92 0 1 1 -5.97 1.74c.54-.12 1-.06 1.28.02l-.04.06a2.76 2.76 0 1 0 4.65-.27c.08-.7.09-1.25.08-1.55z" fill="url(#d)"/><path d="m10.07 4.4s2.08 0 2.5 1.03a3.92 3.92 0 0 1 -3.1 5.37c-.36-.4-.53-.84-.6-1.12h.08a2.76 2.76 0 0 0 1.12-5.28z" fill="url(#f)"/><path d="m4.43 10.39s-1.04-1.81-.36-2.7c0 0 .36-.53 1.15-.98a3.92 3.92 0 0 1 5.06 1c-.17.53-.47.9-.68 1.1a2.76 2.76 0 0 0 -5.17 1.59z" fill="url(#g)"/><path d="m12.52 12.29s-1 1.82-2.12 1.69c0 0-.65-.03-1.44-.47a3.92 3.92 0 0 1 -1.75-4.85c.54-.12 1-.06 1.28.02l-.04.06a2.76 2.76 0 0 0 4.07 3.55z" fill="url(#h)"/></svg>