<svg height="18" viewBox="0 0 18 18" width="18" xmlns="http://www.w3.org/2000/svg"><path d="m0 0h18v18h-18z" fill="#f0f3fa"/><path d="m6.34 5.15a4.5 4.5 0 0 0 -2.1 1.25c.27.14.58.28.93.4.32-.7.75-1.25 1.17-1.65zm-2.26 1.43c-.6.7-1 1.6-1.07 2.6.21.18.55.39 1.04.58.16.06.34.12.53.17v-.26c0-1.05.2-1.93.5-2.65a5.5 5.5 0 0 1 -1-.44zm-1.08 2.9v.02c0 1.03.34 1.97.92 2.73l.14.07c.35.17.78.32 1.29.44a5.4 5.4 0 0 1 -.76-2.55 6.6 6.6 0 0 1 -.62-.2 4.11 4.11 0 0 1 -.97-.53zm1.3 3.19c.58.57 1.3 1 2.11 1.2-.3-.2-.6-.49-.86-.84-.48-.1-.89-.22-1.24-.36zm3.2 1.33c-.13 0-.26 0-.38-.02a3.3 3.3 0 0 1 -1.21-.89 11 11 0 0 0 1.59.12zm.47-.02-.23.01v-.78c.52 0 1-.05 1.42-.11-.39.43-.82.71-1.2.88zm.72-.14a4.5 4.5 0 0 0 1.92-1.09c-.32.11-.68.21-1.08.29-.26.33-.55.6-.84.8zm2.3-1.5c.61-.75.99-1.7 1.01-2.74a5.22 5.22 0 0 1 -1.45.59 5.24 5.24 0 0 1 -.81 2.56c.48-.1.9-.25 1.25-.4zm1-3.02a4.48 4.48 0 0 0 -1.02-2.69c-.27.14-.57.27-.9.38a6.88 6.88 0 0 1 .5 2.92 6.78 6.78 0 0 0 1.43-.6zm-1.18-2.87a4.5 4.5 0 0 0 -1.95-1.25c.4.39.8.91 1.12 1.58.3-.1.58-.22.83-.34zm-3.07-1.45c.2 0 .4.03.6.07.5.38 1.02.96 1.4 1.78-.57.17-1.23.28-2 .29zm-.91.04c.22-.03.44-.05.67-.05v2.15c-.82 0-1.51-.11-2.1-.28a5 5 0 0 1 1.43-1.82zm-1.14 7.76c.52.1 1.12.16 1.81.16v-2.43c-1.09 0-1.96-.12-2.66-.29.08 1.13.42 1.96.85 2.56zm2.05.16c.62 0 1.17-.06 1.66-.15.45-.6.81-1.44.9-2.57-.69.16-1.54.28-2.56.29zm-2.44-5.87c.62.18 1.34.3 2.2.3v2.9c-1.1 0-1.99-.12-2.68-.29v-.33c0-1.03.19-1.88.48-2.58zm2.44.3c.8-.01 1.5-.13 2.1-.3a6.63 6.63 0 0 1 .48 2.9c-.69.18-1.54.3-2.58.3v-2.89z" fill="#759ed4"/><path d="m11 12v-5h3v1h-2v3h2v1zm3-3h-2v1h2z"/><path d="m12.55 4c-2.15 0-4.59 2-5.55 3.01 2.55-1.83 4.08-2.23 5.06-2.23 1 0 2.25.4 2.25 1.83a3.7 3.7 0 0 1 -1.14 2.48c1.26-.63 1.74-2.08 1.82-2.72.07-.8-.31-2.37-2.44-2.37z" fill="#003ea0"/></svg>