<svg height="18" viewBox="0 0 18 18" width="18" xmlns="http://www.w3.org/2000/svg"><path d="m0 0h18v18h-18z" fill="#f0f3fa"/><path d="m10.09 9.15a1.7 1.7 0 0 1 -.68-.35.92.92 0 0 1 -.3-.7 1 1 0 0 1 .43-.82c.25-.19.59-.28.91-.28.54 0 1.02.2 1.44.54l-.33.6a1.8 1.8 0 0 0 -1.05-.42c-.15 0-.33 0-.46.06a.4.4 0 0 0 -.17.12.3.3 0 0 0 -.06.2c0 .16.11.26.27.32.15.07.32.1.59.17.26.07.57.16.82.31.28.17.5.44.5.87s-.17.74-.44.94-.64.29-1.05.29c-.58 0-1.08-.24-1.51-.61.1-.2.21-.41.33-.6.35.26.73.49 1.18.5.3.01.78-.05.78-.43 0-.24-.21-.4-.48-.5-.26-.11-.57-.16-.72-.2zm-3.6 0a1.7 1.7 0 0 1 -.68-.35.92.92 0 0 1 -.3-.7 1 1 0 0 1 .43-.82c.25-.19.59-.28.91-.28.54 0 1.02.2 1.44.54l-.33.6a1.8 1.8 0 0 0 -1.05-.42c-.15 0-.33 0-.46.06a.4.4 0 0 0 -.17.12.3.3 0 0 0 -.06.2c0 .16.11.26.27.32.15.07.32.1.59.17.26.07.57.16.82.31.28.17.5.44.5.87s-.17.74-.44.94-.64.29-1.05.29c-.58 0-1.08-.24-1.51-.61.1-.2.21-.41.33-.6.35.26.73.49 1.18.5.3.01.78-.05.78-.43 0-.24-.21-.4-.48-.5-.26-.11-.57-.16-.72-.2zm-1.89-2.15h-2.6v4h2.6v-.72h-1.85v-.92h1.85v-.72h-1.85v-.92h1.85zm9.9 0-1.43 4h-.8l1.49-4zm.7 4-1.08-2.94.38-1.06 1.5 4z" fill="#1d5a8d"/><circle cx="14.13" cy="9.88" fill="#e5491d" r=".5"/></svg>