<svg fill="none" height="18" width="18" xmlns="http://www.w3.org/2000/svg"><path d="m0 0h18v18h-18z" fill="#f0f3fa"/><g clip-rule="evenodd" fill-rule="evenodd"><path d="m15 7.86c.025 4.305-3.8 5.925-5.374 5.925-1.575 0-2.275-.557-2.275-.557l-1.025 1.772s-.35-.203-.325-.354c.025-.152 1.5-3.216 4.85-4.988 0 0-2.025.152-4.1 2.734 0 0 .025-5.392 5.374-5.392 1.95 0 2.875.86 2.875.86z" fill="#e3e02f"/><path d="m4.403 5.065s2.332-.51 4.597 1.325c0 0-.883.435-1.63 1.172 0 0-.793-.756-1.473-.926 0 0 .951.907 1.02 1.418 0 0-.816.926-.77 1.947 0 0-3.262-1.929-1.744-4.935z" fill="#028bad"/></g></svg>