<svg fill="none" height="18" width="18" xmlns="http://www.w3.org/2000/svg"><path d="m0 0h18v18h-18z" fill="#ee0e42"/><path clip-rule="evenodd" d="m2 6.5h3v.999h-2v.999h2v.998h-2v1h2v1.004h-3zm6.701 1.898-.688 3.102h-1.303l-1.269-5h1.099l.809 3.496.831-3.496h1.114l.838 3.496.778-3.496h1.09l-1.255 5h-1.303l-.74-3.102zm4.61-.553c-.172.25-.311.657-.311 1.155s.138.905.312 1.155c.138.2.336.345.735.345.4 0 .597-.144.736-.345a1.58 1.58 0 0 0 .224-.546l.993.243c-.213.906-.806 1.648-1.953 1.648-1.493 0-2.047-1.26-2.047-2.5s.554-2.5 2.047-2.5c1.147 0 1.74.742 1.953 1.648l-.993.243a1.581 1.581 0 0 0 -.224-.546c-.139-.2-.336-.345-.736-.345s-.597.144-.735.345z" fill="#fff" fill-rule="evenodd"/></svg>