<svg height="18" viewBox="0 0 18 18" width="18" xmlns="http://www.w3.org/2000/svg"><path d="m0 0h18v18h-18z" fill="#f0f3fa"/><path d="m9.6 6.61c-1.64-.49-2.15-.91-2.2-1.07-.28.17-.86.68-.9 1.07.22.39.54.66.83.78 1.45-.06 3.95-.29 2.29-.78zm-.36 3.01c-1.77-.5-2.32-.92-2.37-1.07-.3.17-.93.65-.97 1.04.24.48.58.69.9.8 1.55-.05 4.22-.28 2.44-.77z" fill="#90d6e7"/><path d="m6.42 7.38c1.07-1.05 4.82-.87 4.82-.87l1.66.87-1.66.93s-1.78-.17-3.07.08c-1.2.23-2.27 1.2-2.27 1.2s-.3-1.15.52-2.21z" fill="#008aaa"/><path d="m6.91 4.74c.87-.88 3.9-.73 3.9-.73l1.33.73-1.33.79s-1.44-.14-2.48.06a4.35 4.35 0 0 0 -1.83 1.02s-.24-.97.41-1.87z" fill="#3aa1bd"/><path d="m5.73 10.4c1.37-1.23 6.16-1.02 6.16-1.02l2.11 1.02-2.1 1.1s-2.29-.2-3.93.09c-1.54.27-2.9 1.41-2.9 1.41s-.38-1.35.66-2.6z" fill="#007698"/></svg>