<svg height="18" viewBox="0 0 18 18" width="18" xmlns="http://www.w3.org/2000/svg"><path d="m0 0h18v18h-18z" fill="#f0f3fa"/><path d="m9.7 14c1.87-.07 4.21-2.32 4.21-5.1 0-2.64-2.52-4.83-4.22-4.9h.13c2.05 0 5.18 2.22 5.18 4.9 0 2.82-2.9 5.1-5.18 5.1z" fill="#a6afcc"/><path d="m8.26 12.99c1.41-.06 3.17-1.85 3.17-4.08 0-2.1-1.9-3.84-3.17-3.9h.1c1.54 0 3.89 1.77 3.89 3.9 0 2.26-2.18 4.08-3.9 4.08z" fill="#cfd2e0"/><path d="m6.8 11.9c1.02-.05 2.3-1.35 2.3-2.96 0-1.53-1.38-2.8-2.3-2.83h.07c1.12 0 2.82 1.28 2.82 2.83 0 1.64-1.58 2.95-2.82 2.95h-.07z" fill="#b2b9d1"/><path d="m8 6h-4v6h4v-1.2h-2.63v-1.37h2.63v-1.18h-2.63v-1.01h2.63z" fill="#00529b"/></svg>