<svg height="18" viewBox="0 0 18 18" width="18" xmlns="http://www.w3.org/2000/svg"><path d="m0 0h18v18h-18z" fill="#f0f3fa"/><path d="m10.56 12.23.44 2.29s-.04.48-.5.48-.5-.48-.5-.48l.43-2.28h.13zm-.12-6.46-.44-2.29s.04-.48.5-.48.5.48.5.48l-.43 2.28h-.13zm-3.44 3.29-2.48.4s-.52-.03-.52-.46c0-.42.52-.46.52-.46l2.48.4zm1 2.32-1.2 1.66s-.33.27-.65-.02c-.32-.3-.03-.61-.03-.61l1.78-1.1zm0-4.76-1.2-1.66s-.33-.27-.65.02c-.32.3-.03.61-.03.61l1.78 1.1zm3 1.38c-.56.02-1 .46-1 1s.44.98 1 1zm-1-1c-.38.05-.7.18-1 .37l.75.63c.08-.04.16-.07.25-.09zm-1.56.72c-.22.26-.38.49-.44.82h1.13c.03-.08.06-.07.11-.14zm-.44 1.64c.06.33.21.55.43.8l.8-.67c-.04-.07-.08-.06-.1-.13zm1 1.25c.3.2.6.34 1 .39v-.9c-.1-.02-.19-.06-.27-.1zm.3-5.76c-.46.1-.89.28-1.28.5l.66.93c.27-.15.56-.26.86-.34l-.23-1.1zm-2.75 1.84c-.25.38-.45.86-.55 1.31h1.16c.08-.29.2-.35.35-.6l-.97-.7zm-.55 3.36c.1.42.29.9.52 1.26l.97-.72c-.15-.24-.26-.32-.34-.59zm2 2.59c.38.23.82.4 1.28.51l.25-1.09c-.31-.08-.6-.2-.87-.34l-.67.92z" fill="#0074b7"/></svg>