<svg height="18" width="18" xmlns="http://www.w3.org/2000/svg" xmlns:xlink="http://www.w3.org/1999/xlink"><linearGradient id="a" gradientUnits="userSpaceOnUse" x1="8.995" x2="5.262" y1="12.911" y2="9.177"><stop offset="0" stop-color="#aeca24"/><stop offset="1" stop-color="#168e44"/></linearGradient><linearGradient id="b" gradientUnits="userSpaceOnUse" x1="11.538" x2="3.962" y1="10.592" y2="10.592"><stop offset="0" stop-color="#aeca24"/><stop offset=".59" stop-color="#168e44"/></linearGradient><linearGradient id="c" gradientUnits="userSpaceOnUse" x1="9.442" x2="12.217" y1="5.527" y2="8.301"><stop offset="0" stop-color="#3993d7"/><stop offset="1" stop-color="#27459c"/></linearGradient><linearGradient id="d" gradientUnits="userSpaceOnUse" x1="6.462" x2="14.038" y1="7.409" y2="7.409"><stop offset="0" stop-color="#3993d7"/><stop offset=".8" stop-color="#27459c"/></linearGradient><linearGradient id="e" gradientUnits="userSpaceOnUse" x1="7.888" x2="10.579" y1="7.89" y2="10.582"><stop offset="0" stop-color="#f0431e"/><stop offset=".9" stop-color="#f78f1f"/></linearGradient><path d="m0 0h18v18h-18z" fill="#f0f3fa"/><path d="m3.962 10.527a1.905 1.905 0 0 0 -.109.059s-.16.228-.34.512c-.165.263-.345.574-.459.796l-.054.106c.3-.216.665-.337 1.154-.396.599-.072 1.297-.06 2.013-.03.628.027 1.297.07 1.969.103 1.136.057 2.607-.521 3.402-1.309l-.046.027c-1.479.855-2.818.668-4.017.45-.904-.164-1.815-.506-2.621-.506-.316 0-.615.053-.892.188z" fill="url(#a)"/><path d="m3.978 10.52c.982-.469 2.246.098 3.497.325 1.2.219 2.538.405 4.018-.45l.045-.027s-.306.029-.758.035a25.805 25.805 0 0 1 -1.952-.08c-1.19-.101-2.09-.169-2.809-.169-.878 0-1.489.1-2.04.366zm-.016.007.016-.007z" fill="url(#b)"/><path d="m13.846 6.396c-.599.072-1.298.06-2.013.03-.628-.027-1.297-.07-1.969-.103-1.136-.057-2.607.521-3.402 1.309l.046-.027c1.479-.855 2.817-.669 4.017-.45 1.258.229 2.529.8 3.513.318.037-.019.066-.034.108-.059 0 0 .162-.228.341-.513a11.667 11.667 0 0 0 .513-.901c-.3.217-.665.337-1.154.396z" fill="url(#c)"/><path d="m6.508 7.605-.046.027s.306-.028.758-.034c.453-.006 1.386.031 1.952.08 2.645.223 3.846.284 4.85-.197-.982.468-2.245-.099-3.497-.326-.521-.095-1.069-.184-1.642-.184-.747 0-1.539.15-2.375.634zm7.514-.124.016-.008z" fill="url(#d)"/><path d="m9.35 8.361c-1.224-.095-2.478-.19-3.611-.026-.47.476-.908.968-1.312 1.479 1.146-.417 2.656-.296 4.217-.174 1.225.094 2.48.19 3.614.025.281-.263 1.108-1.202 1.31-1.478-1.146.417-2.657.295-4.218.174z" fill="url(#e)"/></svg>