<svg height="18" width="18" xmlns="http://www.w3.org/2000/svg"><path d="m0 0h18v18h-18z" fill="#3f215b"/><path d="m13.05 11.89a2.34 2.34 0 0 0 -.64-2.36l-2-1.95-1.94-2a2.29 2.29 0 0 0 -2.21-.67c.8-.57 1.78-.9 2.83-.9a4.98 4.98 0 1 1 3.96 7.88z" fill="#83939e"/><circle cx="9" cy="9" fill="#c2007a" r="4"/><path d="m11.78 13.07a2.28 2.28 0 0 1 -2.33-.66l-1.93-2.04-1.97-1.96a2.35 2.35 0 0 1 -.65-2.24 4.99 4.99 0 0 0 4 7.83c1.08 0 2.07-.35 2.88-.93z" fill="#f6821f"/><path d="m10.3 5.49c-.5-.1-1.03.01-.45.6a6.27 6.27 0 0 1 2.02 2.1c.57.6.65 0 .52-.53-.2-.87-1.21-1.98-2.1-2.17z" fill="#d23d97"/></svg>