<svg height="18" viewBox="0 0 18 18" width="18" xmlns="http://www.w3.org/2000/svg"><path d="m0 0h18v18h-18z" fill="#f0f3fa"/><path d="m8.66 5h-4.15c-.06 0-.11.05-.13.13l-1.38 7.67c-.02.1.05.2.13.2h4.17c.07 0 .12-.05.13-.13l.24-1.67c.02-.1-.04-.2-.13-.2h-1.69c-.08 0-.15-.08-.13-.19l.13-.7c.01-.07.07-.11.13-.11h1.58c.06 0 .11-.06.13-.14l.35-1.65c.02-.11-.04-.21-.13-.21h-1.5c-.1 0-.15-.09-.14-.2l.13-.68c.02-.07.07-.12.13-.12h1.8c.07 0 .12-.05.13-.13l.34-1.67c.02-.1-.04-.2-.13-.2zm.81 0h5.4c.1 0 .17.16.1.26l-3.6 5.48c-.06.1 0 .26.11.26h2.22c.08 0 .15.1.13.2l-.34 1.68c-.01.07-.07.12-.13.12h-5.63c-.11 0-.17-.16-.1-.27l3.63-5.46c.07-.1 0-.27-.1-.27h-2.08c-.09 0-.15-.1-.13-.2l.39-1.67c0-.08.06-.13.12-.13z" fill="#0055a4"/></svg>