<!-- by TradingView --><svg width="18" height="18" viewBox="0 0 18 18" xmlns="http://www.w3.org/2000/svg"><path fill="#572500" d="M0 0h18v18H0z"/><path d="M6 10.82c.32-.02.44-.06.44-.35V7.53c0-.3-.12-.31-.44-.34V7h2.41l.19.78h-.26c-.13-.55-.32-.55-.86-.55h-.25c-.15 0-.23.04-.23.2v1.31s.08.04.2.04c.32 0 .39-.08.45-.47h.18v1.12h-.18c-.06-.39-.13-.46-.47-.46C7.1 8.97 7 9 7 9v1.46c0 .3.08.34.48.36V11H6v-.18Zm3 .03.12-.02c.24-.05.24-.03.24-.67V7.83c0-.64 0-.62-.24-.67L9 7.14 9.03 7h1.5c-.1 0 1.03-.08 1.03.77a.9.9 0 0 1-.65.92v.02c.52.08.92.42.9 1.1-.01.87-.66 1.19-1.49 1.19H9v-.15Zm1-2.21.12.01c.39 0 .73-.12.73-.73 0-.44-.26-.71-.66-.71-.08 0-.1 0-.19.02v1.4Zm0 2.06c.13.06.26.05.4.05.52 0 .67-.6.67-.88 0-.7-.3-1-.91-1L10 8.85v1.85Z" fill="#fff"/><path fill-rule="evenodd" d="m4.71 6.83-.06.02c-.93.27-1.4 1.23-1.4 2.15 0 1.06.63 1.97 1.38 2.1l.07.01.06.06c.99 1.09 2.1 1.53 4.24 1.53 1.06 0 2.03-.17 2.8-.46a3.36 3.36 0 0 0 1.6-1.04l.05-.08.09-.02c.38-.1.68-.32.88-.65.2-.35.33-.83.33-1.45 0-1.17-.65-1.77-1.24-2l-.09-.04-.04-.09c-.25-.45-.78-.85-1.56-1.14A8.4 8.4 0 0 0 9 5.3c-2.14 0-3.26.4-4.24 1.48l-.05.05Zm8.88-.12C13 5.62 11.17 5 9 5s-3.36.4-4.41 1.56C3.53 6.87 3 7.96 3 9c0 1.19.7 2.23 1.59 2.39C5.64 12.54 6.83 13 9 13s3.97-.73 4.59-1.61C14.47 11.19 15 10.33 15 9s-.76-2.03-1.41-2.29Z" fill="#F7B41B"/><path fill-rule="evenodd" d="m4.9 7.01-.07.02C3.94 7.28 3.5 8.16 3.5 9c0 .96.6 1.8 1.3 1.92l.08.01.06.06c.94 1 2.01 1.42 4.06 1.42 1.02 0 1.95-.17 2.69-.43a3.22 3.22 0 0 0 1.52-.96l.05-.08.09-.02c.37-.08.65-.29.84-.6.2-.31.31-.75.31-1.32 0-1.06-.62-1.62-1.18-1.83l-.08-.04-.05-.08c-.23-.42-.74-.8-1.5-1.05A8.3 8.3 0 0 0 9 5.6c-2.05 0-3.12.36-4.06 1.36l-.05.05Zm8.5-.13c-.56-1-2.32-1.58-4.4-1.58-2.08 0-3.22.37-4.23 1.44-1.01.29-1.52 1.3-1.52 2.26 0 1.1.68 2.07 1.52 2.21 1.01 1.07 2.15 1.5 4.23 1.5 2.08 0 3.8-.68 4.4-1.5.84-.19 1.35-.98 1.35-2.21s-.73-1.88-1.35-2.12Z" fill="#FFFFEC"/></svg>