<svg height="18" viewBox="0 0 18 18" width="18" xmlns="http://www.w3.org/2000/svg"><path d="m0 9a9 9 0 1 1 18 0 9 9 0 0 1 -18 0z" fill="#003c91"/><g fill="#f0f3fa"><path d="m16 9c0 2.76-3.13 5-7 5s-7-2.24-7-5 3.13-5 7-5 7 2.24 7 5zm-.64 0c0 2.37-2.85 4.29-6.36 4.29s-6.36-1.92-6.36-4.29 2.85-4.29 6.36-4.29 6.36 1.92 6.36 4.29z" fill-rule="evenodd"/><path d="m3.75 7h4.08v1.02h-3.27c-.5 0-.81-.66-.81-1.02zm.58 1.92h3.5v.99h-2.71c-.47 0-.79-.63-.79-.99zm6.74-1.92v-.5h-.9v1.52h3.38c.43 0 .7-.66.7-1.02zm2.91 1.92h-3.81v.99h3.03c.48 0 .78-.63.78-.99zm-9.12 2.16h1.8l1.17-.27v1l-1.16.25h-1.05c-.44 0-.76-.63-.76-.98zm5.31-.27h.95l.64.27h1.59c0 .35-.3.98-.79.98h-1.12l-.64-.26h-.63z"/><path d="m7.83 12.75h2.34v-.63h-.28s-.3 0-.3-.37v-6.5h-.59l-1.05.5s-.12.02-.12.25v.5h.3s.29 0 .29.38v4.87s0 .38-.29.38h-.3z"/></g></svg>