<svg height="18" viewBox="0 0 18 18" width="18" xmlns="http://www.w3.org/2000/svg"><path d="m0 0h18v18h-18z" fill="#01457b"/><path d="m3 5.49c0-.82.64-1.49 1.42-1.49h9.16c.78 0 1.42.67 1.42 1.49v7.02c0 .82-.64 1.49-1.42 1.49h-9.16c-.78 0-1.42-.67-1.42-1.49zm1 .13a.6.6 0 0 1 .6-.62h8.8c.33 0 .6.28.6.62v6.76a.6.6 0 0 1 -.6.62h-8.8a.6.6 0 0 1 -.6-.62zm4.54.38h-3.43a.11.11 0 0 0 -.11.12c0 .06.05.11.11.12.38.04.48.28.46.4v4.75c0 .3-.23.37-.33.36h-.12a.1.1 0 0 0 -.1.11v.03c0 .06.04.11.1.11h1.43c.33 0 .46-.09.48-.13l-.28-.12a.49.49 0 0 1 -.32-.49v-1.57c0-.75.4-.66.86-.55.46.1.66.58.66.83 0 .2.14.26.2.26v-2.57l-.18.09c0 .07-.04.3-.2.66-.19.41-.62.4-.95.4h-.07c-.27 0-.33-.12-.32-.19v-1.98c0-.28.15-.4.6-.4.83 0 1.41.41 1.65.84.19.35.4.47.5.48l-.4-1.39a.24.24 0 0 0 -.25-.17zm.47 0v.3h.2c.11 0 .36.05.36.37v4.73c0 .12-.1.37-.4.37h-.07a.1.1 0 0 0 -.1.1c0 .07.05.13.1.13h2.44c.49-.02 1.46-.36 1.46-1.53a1.7 1.7 0 0 0 -1.4-1.7 1.43 1.43 0 0 0 1.15-1.44c0-.99-1-1.3-1.5-1.33h-2.23zm1.42.62v1.9c0 .2.3.23.77.1.46-.13.66-.61.66-1.1 0-.47-.1-.65-.24-.9l-.03-.06c-.18-.32-.71-.27-.94-.22-.18.03-.22.2-.22.28zm0 4.56v-1.86c0-.15.09-.46.94-.25.68.17.8.77.77 1.04v.45c0 .81-.52 1.14-1.13 1.14-.48 0-.59-.35-.58-.52z" fill="#fff" fill-rule="evenodd"/></svg>