<svg height="18" viewBox="0 0 18 18" width="18" xmlns="http://www.w3.org/2000/svg"><path d="m0 0h18v18h-18z" fill="#f0f3fa"/><path d="m5.43 6.94-.19-1.12a.03.03 0 0 1 .02-.04l3.72-2.77a.03.03 0 0 1 .04 0l3.73 2.78h.01v.02l-.19 1.12.01.01 1.24-.12h.03l1.14.79v.03l-1.9 5.72h-1.56l-.02.01v.02l-.1.62-.01.01-2.37.98-.12-.03a12918.8 12918.8 0 0 0 -2.31-.96l-.1-.63h-.01l-.01-.01h-1.56l-1.92-5.74a.02.02 0 0 1 .01-.03l1.13-.78.07-.01a296.26 296.26 0 0 0 1.22.12zm1.36 6.92 2.1.87v-11.39l-3.43 2.55 1.32 7.97zm2.31.86.01.01 2.1-.86v-.01l1.32-7.96v-.01l-3.41-2.54h-.02zm-3.63-7.55h-.01l-1.1-.12-.01.01 1.44 6.09h.66zm8.18-.11v-.01l-1.11.11-1 5.99h.67l1.44-6.1zm-1.22 6.09h.5l1.82-5.44-.88-.61zm-7.36 0h.5l-1.43-6.05h-.01l-.87.6 1.81 5.44z" fill="#707070"/></svg>