<svg height="18" viewBox="0 0 18 18" width="18" xmlns="http://www.w3.org/2000/svg"><path d="m0 0h18v18h-18z" fill="#f0f3fa"/><path d="m8.23 10c.02 0 .04 0 .04.03l-.26.94v.03h.01l.01.01h2.57l.01-.03.26-.95c0-.02.02-.02.05-.02h.47c.03 0 .04 0 .03.02l-.26.95v.02h.02l.02.01h2.62l.01-.02 1-3.99h-.01-2.63c-.02 0-.03 0-.04.03l-.26.93-.02.03a.07.07 0 0 1 -.04.01h-.49v-.04l.27-.95-.02-.01h-1.9c-.66.02-.87.5-.94.95-.01.04-.04.05-.08.05h-.4c-.06 0-.07 0-.07-.05.04-.23.12-.58.19-.78.17-.53.68-.65 1.28-.65h5.2a2.92 2.92 0 0 0 .13-.52h-7.72c-.28 0-.56.04-.85.11-.67.17-1.08.53-1.21 1.09a3740.8 3740.8 0 0 1 -1.12 4.79h.03l3.05.01.05-.01a.06.06 0 0 0 .03-.04l.47-1.93c0-.02.02-.02.04-.02zm-3.31-3.03c.08-.4.29-.69.73-.89.1-.05.1-.07-.02-.08-.57-.03-.99.13-1.25.48-.1.14-.2.36-.26.66a626 626 0 0 1 -1.12 4.86h.03l.67.01h.03l.02-.03 1.16-5z" fill="#ea1e14"/></svg>