<svg height="18" viewBox="0 0 18 18" width="18" xmlns="http://www.w3.org/2000/svg"><path d="m0 0h18v18h-18z" fill="#f0f3fa"/><path d="m6.09 5h5.9c.21 0 .4.12.48.3l2.5 6.07c.12.3-.12.63-.48.63h-10.99c-.36 0-.6-.33-.47-.64l2.57-6.06c.08-.18.27-.3.48-.3zm.25.3h5.4c.13 0 .36.18.41.3l2.3 5.58c.08.2-.18.53-.42.53h-10.06c-.24 0-.54-.33-.45-.53l2.38-5.59c.05-.12.3-.3.45-.3z" fill-rule="evenodd"/><path d="m4.5 11 1.95-5h2.25l-.3.83h-.73l-.57 1.45h.56l.06-.28h2.53l.5 2h-3.5l.3-1.28h-.63l-.9 2.28zm5.63-5 1.75 5h1.62l-1.92-5h-1.46z" fill="#d22827"/></svg>