<svg height="18" width="18" xmlns="http://www.w3.org/2000/svg"><path d="m0 0h18v18h-18z" fill="#f0f3fa"/><path d="m7.45 7 1.55-3.3-3.08 1.05z" fill="#2aaae1"/><path d="m11.1 7.62-2.1-3.92 3.11 1.05 1.88 2.64-2.88.23z" fill="#0772b9"/><path d="m7.45 7 1.55-3.3 2.12 3.91-2.09 1.37z" fill="#ffcf03"/><path d="m4 7.37 1.92-2.62 1.53 2.25-2.45 2.2z" fill="#8dbf44"/><path d="m4 10.6v-3.22l1.01 1.82-1 1.4z" fill="#0882c5"/><path d="m5.91 13.25-1.91-2.64 1.01-1.43 1.56.8z" fill="#ffcf03"/><path d="m6.55 9.99-1.53-.8 2.42-2.19 1.59 1.97-2.48 1.03z" fill="#eb5b27"/><path d="m9 11.46-2.45-1.47 2.45-1z" fill="#0882c5"/><path d="m9 11.47v-2.49l2.12-1.37.2 2.02-.75 1z" fill="#eb5b27"/><path d="m14 7.37-2.88.25.2 2 2.68 1.03z" fill="#0882c5"/><path d="m12.1 13.24-.79-3.62 2.69 1.02z" fill="#0772b9"/><path d="m10.54 10.64.78-1.02.79 3.62z" fill="#02538a"/><path d="m9 14.3v-2.85l1.54-.81 1.57 2.6z" fill="#0882c5"/><path d="m9 14.3-2.44-4.3 2.44 1.45v2.84z" fill="#47ac4c"/><path d="m5.91 13.25.65-3.25 2.44 4.3z" fill="#0971b8"/></svg>