<svg height="18" viewBox="0 0 18 18" width="18" xmlns="http://www.w3.org/2000/svg"><path d="m0 0h18v18h-18z" fill="#f0f3fa"/><path d="m5.86 5h-.86v.86h.86zm1.43 0h-.86v.86h.86zm.57 0h.85v.86h-.85zm2.28 0h-.84v.86h.85v-.86zm.57 0h.86v.86h-.86zm2.29 0h-.86v.86h.86zm-8 1.43h.86v.86h-.86zm2.29 0h-.86v.86h.86zm.57 0h.85v.86h-.85zm2.28 0h-.84v.86h.85v-.86zm.57 0h.86v.86h-.86zm2.29 0h-.86v.86h.86zm-8 1.43h.86v.85h-.86zm2.29 0h-.86v.85h.86zm-2.29 1.43h.86v.85h-.86v-.84zm2.29 0h-.86v.85h.86v-.84zm.57 0h.85v.85h-.85v-.84zm2.28 0h-.84v.85h.85v-.84zm.57 0h.86v.85h-.86v-.84zm2.29 0h-.86v.85h.86v-.84zm-8 1.41h.86v.86h-.86zm2.29 0h-.86v.86h.86zm.57 0h.85v.86h-.85zm2.28 0h-.84v.86h.85v-.86zm.57 0h.86v.86h-.86zm2.29 0h-.86v.86h.86zm-8 1.4h.89v.9h-.89v-.89zm2.29.03h-.86v.87h.86v-.86z" fill="#f00037"/><path d="m8.71 7.86h-.85v.85h.85zm1.43 0h-.86v.85h.86zm.57 0h.86v.85h-.86zm2.29 0h-.86v.85h.86zm-5.14 4.28h.85v.86h-.85zm2.28 0h-.86v.86h.86zm.57 0h.86v.86h-.86zm2.29 0h-.86v.86h.86z" fill="#9c9c9c"/></svg>