<svg height="18" viewBox="0 0 18 18" width="18" xmlns="http://www.w3.org/2000/svg"><path d="m0 0h18v18h-18z" fill="#f0f3fa"/><path d="m9.6 4c-2.4 0-5.4 1.57-6.6 2.35 1.33-.63 4.5-1.85 6.4-1.75 2.4.11 4 .59 4.4 1.76.32.94-.8 2.16-1.4 2.65.87-.3 2.6-1.24 2.6-2.65 0-1.76-2.4-2.36-5.4-2.36z" fill="#eb5205"/><path d="m11.12 9-.12 1h-2.1l.1-1h2.1zm-1.56-3-.73 7h-.83l.72-7zm2.44 0-.72 7h-.83l.72-7zm-6.14 0-.86 7h-1l.86-7zm1.54 2.99-.35 1.01h-2.2l.36-1.01h2.2zm.6-2.99-.27 1h-2.42l.27-1z" fill="#014196"/></svg>