<svg height="18" width="18" xmlns="http://www.w3.org/2000/svg"><path d="m0 0h18v18h-18z" fill="#00968f"/><g fill="#f6f8fd"><path d="m14.962 11.928a.05.05 0 0 1 -.04-.02c-.034-.039-3.263-3.936-4.442-5.117-1.075-1.076-4.65-3.99-4.69-4.025a.054.054 0 0 1 .067-.083c.037.03 3.746 2.862 4.824 3.941 1.184 1.185 4.29 5.177 4.322 5.217a.054.054 0 0 1 -.007.075.056.056 0 0 1 -.034.012zm-2.809 3.421a.056.056 0 0 1 -.034-.012c-.04-.032-4.068-3.145-5.252-4.329-1.08-1.08-3.866-4.787-3.894-4.828a.054.054 0 1 1 .083-.068c.029.036 2.944 3.619 4.02 4.695 1.18 1.179 5.073 4.415 5.11 4.447a.054.054 0 0 1 -.004.085.054.054 0 0 1 -.031.01z"/><path d="m6.127 15.044a.053.053 0 0 1 -.04-.019.055.055 0 0 1 .006-.075c.04-.033 3.932-3.266 5.112-4.446 1.075-1.078 3.986-4.656 4.02-4.696a.054.054 0 0 1 .056-.018.053.053 0 0 1 .032.026.052.052 0 0 1 .004.041.054.054 0 0 1 -.01.019c-.028.035-2.848 3.708-3.928 4.787-1.182 1.185-5.173 4.337-5.217 4.369a.05.05 0 0 1 -.035.012zm-3.417-2.812a.05.05 0 0 1 -.034-.012.053.053 0 0 1 -.017-.058.052.052 0 0 1 .01-.018c.032-.039 3.134-4.04 4.317-5.223 1.079-1.081 4.793-3.904 4.83-3.933a.054.054 0 0 1 .038-.012.054.054 0 0 1 .048.059.054.054 0 0 1 -.02.036c-.035.029-3.615 2.948-4.69 4.024-1.179 1.182-4.409 5.08-4.44 5.118a.05.05 0 0 1 -.042.019z"/><path d="m11.24 14.188a.041.041 0 0 1 -.036-.044c0-.038.358-3.788.358-5.458 0-1.523-.34-4.793-.344-4.825a.04.04 0 0 1 .009-.03.04.04 0 0 1 .027-.014.039.039 0 0 1 .044.035c0 .034.49 3.306.49 4.834 0 1.674-.5 5.431-.504 5.466a.039.039 0 0 1 -.014.028.04.04 0 0 1 -.03.008z"/><path d="m14.147 6.75c-.037 0-3.783-.359-5.452-.359-1.521 0-4.635.326-4.666.333a.04.04 0 0 1 -.036-.065.04.04 0 0 1 .027-.015c.032 0 3.15-.533 4.675-.533 1.672 0 5.426.555 5.46.558a.04.04 0 0 1 .036.043.041.041 0 0 1 -.044.037zm-5.457 5.055c-1.525 0-4.642-.491-4.674-.494a.04.04 0 0 1 -.035-.044.038.038 0 0 1 .044-.036c.03 0 3.144.326 4.666.326 1.668 0 5.045-.323 5.079-.326a.038.038 0 0 1 .04.02l.004.015c0 .011-.003.022-.01.03a.041.041 0 0 1 -.027.015c-.033.003-3.414.494-5.086.494z"/><path d="m6.735 14.188a.04.04 0 0 1 -.04-.036c0-.038-.598-3.792-.598-5.466 0-1.528.58-4.8.584-4.834a.04.04 0 0 1 .044-.035.039.039 0 0 1 .035.044c0 .032-.342 3.302-.342 4.825 0 1.67.354 5.42.357 5.458a.04.04 0 0 1 -.02.04.04.04 0 0 1 -.016.004zm6.378-1.315a.08.08 0 0 1 -.076-.056c-.013-.037-1.197-3.689-1.859-5.221-.602-1.397-2.163-4.19-2.18-4.22a.081.081 0 0 1 .06-.121.08.08 0 0 1 .081.041c.018.031 1.682 2.751 2.288 4.156.664 1.539 1.751 5.277 1.763 5.314a.082.082 0 0 1 -.077.107z"/><path d="m3.293 9.003a.082.082 0 0 1 -.065-.132.08.08 0 0 1 .025-.02c.03-.018 2.83-1.782 4.238-2.388 1.537-.665 5.294-1.706 5.333-1.72a.08.08 0 0 1 .049.153c-.038.012-3.74 1.219-5.27 1.876-1.397.607-4.24 2.203-4.276 2.22a.07.07 0 0 1 -.034.01zm1.94 4.172a.08.08 0 0 1 -.078-.068.081.081 0 0 1 .053-.09c.032-.01 3.233-1.016 4.627-1.619 1.53-.665 4.734-2.417 4.768-2.439a.08.08 0 0 1 .114.094.081.081 0 0 1 -.036.048c-.036.02-3.309 1.895-4.846 2.56-1.402.606-4.546 1.499-4.578 1.509a.102.102 0 0 1 -.024.005z"/><path d="m8.872 14.821a.081.081 0 0 1 -.072-.044c-.016-.033-1.887-3.42-2.55-4.96-.607-1.404-1.448-4.593-1.46-4.624a.081.081 0 0 1 .155-.05c.01.035 1.028 3.277 1.63 4.673.665 1.534 2.35 4.852 2.366 4.886a.081.081 0 0 1 -.069.12z"/><path d="m4.666 14.255a.088.088 0 0 1 -.03 0 .11.11 0 0 1 -.073-.133c.014-.049 1.203-5.05 1.82-6.609.564-1.422 2.933-5.395 2.955-5.437a.11.11 0 1 1 .19.1c-.021.04-2.15 4.137-2.71 5.55-.612 1.546-2.035 6.404-2.052 6.452a.11.11 0 0 1 -.1.077zm3.914 1.735a.111.111 0 0 1 -.096-.159c.024-.044 2.317-4.555 2.93-6.104.56-1.414 1.817-5.857 1.83-5.902a.11.11 0 0 1 .207.059c-.013.045-1.017 4.551-1.58 5.973-.62 1.56-3.173 6.027-3.195 6.073a.11.11 0 0 1 -.095.06z"/><path d="m14.147 13.457a.16.16 0 0 1 -.03 0c-.05-.015-5.027-1.273-6.585-1.89-1.42-.57-5.406-2.875-5.447-2.896a.111.111 0 0 1 .098-.19c.041.022 4.135 2.152 5.545 2.713 1.55.615 6.4 2.038 6.45 2.052a.11.11 0 0 1 -.03.21zm1.733-3.921a.11.11 0 0 1 -.049-.011c-.045-.023-4.55-2.32-6.099-2.934-1.41-.561-5.851-1.82-5.893-1.832a.11.11 0 0 1 .057-.207c.046.013 4.648 1.104 6.068 1.668 1.558.619 5.92 3.09 5.965 3.113a.111.111 0 0 1 .012.176.11.11 0 0 1 -.061.027z"/></g></svg>