<svg height="18" width="18" xmlns="http://www.w3.org/2000/svg"><path d="m0 0h18v18h-18z" fill="#1c4094"/><path d="m8 5v2h-4v-2zm.166 4.178c-.198-.64-.75-1.052-1.488-1.178h-2.678c1.079.36 1.415 1.26 1.415 1.26.26 1.263-1.415 1.74-1.415 1.74h3.013c.778-.1 1.403-1.013 1.153-1.822zm4.711 1.19c.674-.123 1.315-.752 1.055-1.51-.179-.58-.772-.853-1.403-.858h-2.344c1.004.325 1.19.907 1.19.907s.461 1.172-1.064 1.46c.528.13.923.56 1.065 1.065.26 1.155-1.154 1.568-1.154 1.568h2.269c.707 0 1.661-.644 1.488-1.568-.113-.604-.542-.856-1.102-1.065zm-4.589 2.632 2.232-8h-.52l-2.195 8z" fill="#fff"/></svg>