<svg fill="none" height="18" viewBox="0 0 18 18" width="18" xmlns="http://www.w3.org/2000/svg"><path d="m0 0h18v18h-18z" fill="#f0f3fa"/><path d="m7 10.5v-3.08l-.4-1.18v4.76h4.8v-4.88l-.4 1.3v3.08z" fill="#00458d"/><path d="m6.15 6a2.85 2.85 0 0 1 5.7 0v8.85h-5.7z" stroke="#00458d" stroke-width=".3"/><g fill="#00458d"><path d="m7 12h4v2h-4z" fill-opacity=".7"/><path d="m11.4 6.08a2.43 2.43 0 0 1 -2.4 2.46c-1.33 0-2.4-1.1-2.4-2.46a2.43 2.43 0 0 1 2.4-2.46c1.33 0 2.4 1.1 2.4 2.46z" fill-opacity=".5"/></g></svg>