<svg height="18" viewBox="0 0 18 18" width="18" xmlns="http://www.w3.org/2000/svg"><path d="m0 0h18v18h-18z" fill="#f0f3fa"/><path d="m9 13.7a4.7 4.7 0 1 0 0-9.4 4.7 4.7 0 0 0 0 9.4zm0 .3a5 5 0 1 0 0-10 5 5 0 0 0 0 10z" fill="#6badde"/><circle cx="9" cy="9" fill="#13216a" r="4.7"/><path d="m8 8v4h3.33c.54 0 .67-.4.67-.59v-.82a.55.55 0 0 0 -.56-.59c.45 0 .56-.4.56-.59v-.7c0-.57-.67-.71-.97-.71zm1 .62v1.07h1.7a.3.3 0 0 0 .3-.3v-.47c0-.15-.13-.3-.3-.3zm0 1.69v1.07h1.7c.11 0 .3-.15.3-.32v-.44c0-.16-.13-.31-.3-.31z" fill="#6caedf" fill-rule="evenodd"/><path d="m10 6h-4v4h1v-1.38h1.77v-.62h-1.77v-1.38h3z" fill="#fff"/></svg>