<svg height="18" viewBox="0 0 18 18" width="18" xmlns="http://www.w3.org/2000/svg"><path d="m0 0h18v18h-18z" fill="#f0f3fa"/><g fill-rule="evenodd"><path d="m5.57 4c-.87 0-1.57.7-1.57 1.58v6.84c0 .88.7 1.58 1.57 1.58h2.43a2.7 2.7 0 0 0 -.83-1.5h3.66a2.32 2.32 0 0 0 -.85 1.5h2.45c.87 0 1.57-.7 1.57-1.58v-6.84c0-.88-.7-1.58-1.57-1.58zm3.43 0 .42 1.33h1.36l-1.1.77.42 1.3-1.1-.8-1.1.8.42-1.3-1.1-.77h1.36zm-.55 7.5c-.19-.2-.56-.78-.56-1.52 0-.5.12-.82.24-1.11.1-.25.2-.49.2-.81.09.08.3.36.4.79.16-.43.74-1.27 1.84-1.18-.21.14-.63.55-.63 1.14 0 .26.04.4.1.55.06.19.13.4.17.87 0 .52-.38 1.06-.57 1.27h-1.2zm-.22 0h-.96c-.16-.22-.49-.72-.49-1 0-.34.04-.7.3-1.1.2-.31.26-.67.27-.81.34.37.3.68.26 1.06-.02.14-.04.29-.04.45 0 .48.44 1.14.66 1.4zm2.2 0h-.5a1.94 1.94 0 0 0 .47-1.81 2.14 2.14 0 0 1 -.04-.5c0-.44.4-.58.6-.59-.21.4-.1.62.05.88.1.2.23.42.23.76 0 .62-.54 1.1-.8 1.26zm.57.17h-4v.66h4z" fill="#ffb200"/><path d="m9 4h-3.43c-.87 0-1.57.7-1.57 1.58v6.84c0 .88.7 1.58 1.57 1.58h2.43a2.7 2.7 0 0 0 -.83-1.5h1.83v-.17h-2v-.66h2v-.17h-.55c-.19-.2-.56-.78-.56-1.52 0-.5.12-.82.24-1.11.1-.25.2-.49.2-.81.09.08.3.36.4.79.06-.13.14-.3.27-.47v-1.78l-1.1.8.42-1.3-1.1-.77h1.36zm-1.73 7.5h.96c-.22-.26-.66-.92-.66-1.4 0-.16.02-.31.04-.45.04-.38.08-.7-.26-1.06 0 .14-.07.5-.27.82-.26.4-.3.75-.3 1.1 0 .27.33.77.5.99z" fill="#003581"/></g></svg>