<svg height="18" width="18" xmlns="http://www.w3.org/2000/svg"><path d="m0 0h18v18h-18z" fill="#f0f3fa"/><path d="m11.665 4.142c-.118-.117-.305-.142-.485-.142h-5.356c-.46 0-.934.335-1.058.753l-1.74 6.638c-.045.15-.036.519.071.644l1.564 1.884c.107.125.233.1.278-.05l.742-2.854c.045-.15.395-.453.565-.453h1.088l.666-3.124s-.947.008-1.054 0c-.108-.009-.305.098-.341.082-.054-.026-.027-.25 0-.351l.386-1.413c.04-.289.427-.752.688-.752h4.79c.17 0 .197-.071.072-.188l-.877-.674z" fill="#f15a31"/><path d="m6.273 13.874c.117.118.386.126.565.126h5.365c.46 0 .934-.335 1.058-.752l1.714-6.631c.045-.15.036-.518-.072-.644l-1.58-1.89c-.108-.125-.234-.1-.278.05l-.699 2.844c-.059.195-.44.46-.61.46h-1.069l-.667 3.125h1.059c.062 0 .305-.104.34-.087.054.025.05.256.023.356l-.385 1.413c-.069.354-.488.756-.74.756h-4.833c-.17 0-.161.13-.045.248l.855.627z" fill="#f58220"/></svg>