<svg height="18" viewBox="0 0 18 18" width="18" xmlns="http://www.w3.org/2000/svg"><path d="m0 0h18v18h-18z" fill="#f0f3fa"/><path d="m8.69 10.98v2.78l-1.23-1.23-1.47 1.47-.78-.77 2.61-2.61c.25.18.55.3.87.36zm-1.3-.8-2.62 2.6-.77-.77 1.47-1.47-1.23-1.23h2.78c.05.32.18.62.36.87zm-.37-1.5h-2.78l1.23-1.22-1.47-1.47.9-.9 2.59 2.6a2 2 0 0 0 -.47 1zm.95-1.4-2.64-2.62.67-.66 1.47 1.47 1.23-1.23v2.78c-.26.05-.5.14-.72.27zm2.57 5.25-1.23 1.23v-2.78a2 2 0 0 0 1-.47l2.6 2.6-.9.89zm3.46-.52-.65.66-2.64-2.64c.13-.21.22-.46.27-.72h2.78l-1.23 1.23zm-1.47-4.55 1.23 1.23h-2.78a1.99 1.99 0 0 0 -.36-.87l2.6-2.6.78.77zm-.52-3.46.78.77-2.61 2.61c-.25-.18-.55-.3-.87-.36v-2.78l1.23 1.23zm-2.48 4.7h.97a1.51 1.51 0 0 0 -1.48-1.2 1.5 1.5 0 0 0 -1.52 1.5c0 .83.68 1.5 1.52 1.5.73 0 1.34-.52 1.48-1.2h-.97a.6.6 0 0 1 -1.13-.3.6.6 0 0 1 1.13-.3z" fill="#ce313c"/></svg>