<svg height="18" viewBox="0 0 18 18" width="18" xmlns="http://www.w3.org/2000/svg"><path d="m0 0h18v18h-18z" fill="#f0f3fa"/><path d="m10.12 5h-5.12v6.72c.8-4.72 5.12-6.72 5.12-6.72zm-2.64 3.83a10.01 10.01 0 0 1 5.52-2.59v-1.24h-.5c-.73.19-2.84.82-5.04 3.17-2.2 2.33-2.46 4.6-2.46 4.6.1-.42 1.13-2.6 2.48-3.94zm1.97.07c.53-.29 2.3-.83 3.55-.9v-.93s-1.53.36-1.96.55-1.55.53-3.32 1.89c-2 1.54-2.58 3.49-2.58 3.49a11.74 11.74 0 0 1 2.59-3.07c.3-.26 1.19-.74 1.72-1.03zm3.55 4.1v-4.1s-2.5.23-4.41 1.27c-2.42 1.3-3.24 2.83-3.24 2.83z" fill="#044577"/></svg>