<svg height="18" viewBox="0 0 18 18" width="18" xmlns="http://www.w3.org/2000/svg"><path d="m0 0h18v18h-18z" fill="#f0f3fa"/><path d="m5.81 5.85c-1.2 0-2.37-1.23-2.81-1.85.48 1.61 1.76 3 3.33 3s2.9-1.11 4.29-1.11c1.4 0 2.3 1.15 2.38 1.07-.9-1.8-1.74-2.27-2.83-2.27-1.08 0-2.87 1.16-4.36 1.16zm1 3.5c-1.2 0-2.37-1.23-2.81-1.85.48 1.61 1.76 3 3.33 3s2.9-1.11 4.29-1.11c1.4 0 2.3 1.15 2.38 1.07-.9-1.8-1.74-2.27-2.83-2.27-1.08 0-2.87 1.16-4.36 1.16zm1 3.5c-1.2 0-2.37-1.23-2.81-1.85.48 1.61 1.76 3 3.33 3s2.9-1.11 4.29-1.11c1.4 0 2.3 1.15 2.38 1.07-.9-1.8-1.74-2.27-2.83-2.27-1.08 0-2.87 1.16-4.36 1.16z" fill="#35a34c"/></svg>