<svg height="18" viewBox="0 0 18 18" width="18" xmlns="http://www.w3.org/2000/svg" xmlns:xlink="http://www.w3.org/1999/xlink"><linearGradient id="a" gradientUnits="userSpaceOnUse" x1="9.89" x2="11.91" y1="7.08" y2="12.16"><stop offset="0" stop-color="#21409a"/><stop offset=".16" stop-color="#233c91"/><stop offset=".39" stop-color="#263481"/><stop offset=".66" stop-color="#272769"/><stop offset=".74" stop-color="#262262"/></linearGradient><linearGradient id="b" gradientUnits="userSpaceOnUse" x1="7.56" x2="9.4" y1="9.86" y2="14.48"><stop offset=".21" stop-color="#21409a"/><stop offset=".23" stop-color="#223e95"/><stop offset=".59" stop-color="#272a6f"/><stop offset=".77" stop-color="#262262"/></linearGradient><path d="m0 0h18v18h-18z" fill="#f0f3fa"/><path d="m8.78 3.34c.53 3.35 4.29 4.6 2.92 9.73.33-4.63-3.29-5.94-2.92-9.73zm-.51-1.34c-1.32 5.97 2.83 8.75 1.35 13.18 4.3-5.65-1.72-6.3-1.35-13.18z" fill="url(#a)"/><path d="m9.33 14.77c-.1-2.33-3.32-4.94-1.3-7.38-.15 3.72 1.85 4.94 1.3 7.38zm-.62 1.23c.14-1.83-2.24-2.51-2.57-3.84-.85 2.06 2.33 2.29 2.57 3.84zm.23-1.12c-.04-2.13-2.03-3.3-2.06-5.77-2.12 2.51 1.47 4.12 2.06 5.77z" fill="url(#b)"/></svg>