<svg height="18" viewBox="0 0 18 18" width="18" xmlns="http://www.w3.org/2000/svg"><path d="m0 0h18v18h-18z" fill="#f0f3fa"/><path d="m11 8.32h5v-1.32h-5zm0 2.68h5v-1.32h-5z" fill="#009ee2"/><g fill="#eb661c"><path d="m4.45 8.45c-.3 0-.53.24-.53.54 0 .29.23.53.53.53.29 0 .53-.24.53-.53 0-.3-.24-.54-.53-.54z"/><path d="m5.46 10h-2.46v-2h2.47c.3 0 .53-.2.53-.5s-.24-.5-.53-.5h-2.94c-.3 0-.53.24-.53.54v2.93c0 .3.23.53.53.53h2.93c.3 0 .54-.2.54-.5s-.25-.5-.54-.5zm4.54-2.84c.2.2.2.54 0 .75l-1.1 1.09 1.1 1.09c.2.2.2.54-.01.75-.2.21-.54.21-.75 0l-1.1-1.09-1.08 1.1c-.2.2-.54.2-.75 0a.53.53 0 0 1 0-.76l1.09-1.09-1.1-1.09a.53.53 0 1 1 .76-.75l1.09 1.09 1.09-1.1c.2-.2.54-.2.75 0z"/></g></svg>