<svg height="18" viewBox="0 0 18 18" width="18" xmlns="http://www.w3.org/2000/svg"><path d="m0 0h18v18h-18z" fill="#f0f3fa"/><path d="m2 12v-5.98h4.95c-.2.16-.69.62-1.03 1.3h-2.34v1.68h2.06a.82.82 0 0 0 -.15.48c0 .24.1.45.15.52h-2.06v2zm6.97 0h2.03v-2.06c-.36.55-.99.75-1.26.75h-.13c-.87 0-1.55-.78-1.55-1.69 0-.9.68-1.69 1.55-1.69h1.39v-1.31h-1.61c-.31 0-2.89.31-2.89 2.99 0 2.13 1.64 2.9 2.47 3.01zm5 0h2.03v-2.06c-.36.55-.99.7-1.26.7h-.13c-.87 0-1.55-.73-1.55-1.64s.68-1.69 1.55-1.69h1.39v-1.31h-1.61c-.31 0-2.89.31-2.89 2.99 0 2.13 1.64 2.9 2.47 3.01z" fill="#143374"/><path d="m9.5 9h1.5v1h-1.5zm5 0h1.5v1h-1.5z" fill="#5bb53c"/></svg>