<svg height="18" width="18" xmlns="http://www.w3.org/2000/svg"><path d="m0 0h18v18h-18z" fill="#ed0f69"/><path d="m10.886 4h-.927c-1.285 0-2.564.199-2.937 2.092 0 0-.23 1.28-.366 1.908-.08.017-.353.19-.468.266l-.158.734h.436c-.096.43-.724 3.389-.724 3.389-.233 1.146-.342 1.499-.742 1.78l.65.831c.493-.284.72-.727 1.006-1.874l.908-4.126h1.423l.216-1h-1.428s.183-1.126.297-1.687c.114-.56.428-1.313 1.378-1.313h1.424l.133-.58c.04-.267-.006-.394-.122-.42z" fill="#fff"/><path d="m10.763 11.553s1.087-6.119 1.149-6.422c.005-.024.001-.068-.049-.152-.075-.125-.714-.916-.995-.976-.005 0-.012-.003-.024-.003h-.002c.107.025.15.15.113.413l-.124.698-.003.02-1.098 6.104c-.245 1.218.27 1.776 1.098 1.765.166-.003.73-.064 1.172-.253l-.535-.78c-.708.114-.755-.049-.702-.414z" fill="#c9c9c9"/></svg>