<svg height="18" width="18" xmlns="http://www.w3.org/2000/svg"><path d="m0 0h18v18h-18z" fill="#f0f3fa"/><g fill="#ed1c24"><path d="m5.33 13.982h-1.33v-1.243c.12.287.3.546.529.76.229.215.502.379.801.483zm-1.33-3.282v-6.7h3.653c-.59.241-1.235.636-1.444 1.322-.4 1.224.209 2.522.513 2.985-.513.278-2.038 1.187-2.722 2.393zm5.344 1.705c-1.559 1.336-3.934 1.224-4.257-.778-.304-1.837 1.863-2.763 1.863-2.763 1.445 2.577 2.395 3.541 2.395 3.541z"/><path d="m7.349 5.618c.133-1.242 1.197-1.335 1.463-1.298.247.037 1.273.39 1.045 1.558-.228 1.187-1.843 1.891-1.843 1.891s-.722-1.576-.665-2.15m2.451 7.231s.874.798 1.558 1.15h-3.838c.173-.035.344-.078.513-.13.627-.185 1.216-.575 1.748-1.057z"/><path d="m14 7.547h-3.193v.352s1.045-.167 1.027.76c-.02 1.039-1.35 2.485-1.464 2.597-.247-.279-.494-.612-.798-1.002a19.712 19.712 0 0 1 -1.33-2.058s1.805-.723 2.28-1.687c.418-.853.342-1.953-1.235-2.509h4.713z"/><path d="m12.764 8.79a18.169 18.169 0 0 1 -1.957 2.948c.655.692 1.696 1.557 2.766 1.335.154-.032.3-.095.426-.186v-4.987a1.89 1.89 0 0 0 -.715.316c-.213.153-.39.35-.52.574m.666 5.192c.201-.077.393-.176.57-.297v.296h-.57z"/></g></svg>