<svg height="18" width="18" xmlns="http://www.w3.org/2000/svg"><path d="m0 0h18v18h-18z" fill="#f0f3fa"/><path d="m3 6.401 1.014-.175c1.9-.19 3.701-.014 5.401.526 1.2.394 2.286.934 3.258 1.62.429.322.757.599.986.833-1.215-.73-2.315-1.198-3.272-1.417-.986-.219-2.386-.306-4.186-.248a8.745 8.745 0 0 0 -3.2.73v2.015c1.557-.92 3.486-1.373 5.786-1.373 1.415 0 2.729.19 3.944.57 1.186.38 1.583.89 2.269 1.518v-4.978c0-.278-.1-.526-.3-.73a.97.97 0 0 0 -.321-.218c-.12-.05-.704-.076-.834-.074h-9.545c-.271 0-.514.102-.714.292a1.064 1.064 0 0 0 -.286.73v.38z" fill="#902e33"/><path d="m12.588 10.03c-.986-.139-2.229.208-3.701 1.042-.615.338-1.24.651-1.872.938-.743.33-1.272.538-1.572.625l-1.329.347-.114.018h9.885c.315-.018.586-.14.8-.348.215-.208.315-.469.315-.764 0-1.196-1.705-1.806-2.412-1.858z" fill="#d2a656"/></svg>