<svg height="18" viewBox="0 0 18 18" width="18" xmlns="http://www.w3.org/2000/svg"><path d="m0 0h18v18h-18z" fill="#f0f3fa"/><path d="m11.56 7.43-.55.7c-.5-.05-1.06-.08-1.69-.08l.78-.7zm.62.03-.7.72a9 9 0 0 1 1.33.27l.45-.92zm1.32-.42.5-1.04-.34.11c-.33.26-.68.58-1.05.93zm-1.18-.49-1.46.49h1.03zm-2.58.87-.68.63c-.43 0-.88.02-1.36.06l.9-.3 1.14-.4zm-2.72.9.2-.06c.5-.02 1.06-.02 1.62 0l-.91.87-.13-.02c-.54-.08-1.06-.14-1.55-.17l.77-.63zm-.23.06-1.81.5c.37 0 .77.02 1.2.05zm-2.36.65c-.97.25-1.85.46-2.43.6 1.26-.1 2.37-.04 3.34.13.16-.18.37-.4.63-.64-.53-.05-1.05-.08-1.54-.1zm.92.73c.2-.2.43-.42.68-.64.55.06 1.1.14 1.66.25-.3.28-.56.55-.79.78-.47-.16-.99-.3-1.55-.39zm1.6.41c.78.27 1.43.61 1.95.98.23-.37.5-.77.8-1.2-.6-.24-1.24-.42-1.89-.55zm2.01 1.02c.88.62 1.4 1.3 1.64 1.81l.99-2.04a7.68 7.68 0 0 0 -1.7-.94c-.34.4-.65.8-.93 1.17zm2.8-.59.84-1.71a5.34 5.34 0 0 0 -1.38-.41c-.37.4-.74.83-1.09 1.25.7.27 1.25.59 1.63.87zm-2.67-2.34c.59.03 1.17.07 1.71.15l-.9 1.23c-.52-.2-1.13-.36-1.82-.48l1-.9z" fill="#fdb813"/></svg>