<svg height="18" viewBox="0 0 18 18" width="18" xmlns="http://www.w3.org/2000/svg"><path d="m0 0h18v18h-18z" fill="#f0f3fa"/><path d="m12 6a3 3 0 1 1 0 6 3 3 0 0 1 0-6z" fill="#ffd832"/><path d="m7 4a3 3 0 1 1 0 6 3 3 0 0 1 0-6z" fill="#7e9bce"/><path d="m7 8a3 3 0 1 1 0 6 3 3 0 0 1 0-6z" fill="#7e9bce"/><path d="m9.24 9a3 3 0 0 1 -4.48 0 3 3 0 0 1 4.48 0zm4.76 2.24a3 3 0 0 1 -1 .59v-2.38h-.73v-.9h.73v-.5c0-.71.46-1.12 1.02-1.27.24.22.44.47.6.74-.3.07-.62.27-.62.57v.46h.97a3.03 3.03 0 0 1 0 .9h-.97z" fill="#143381"/></svg>