<svg height="18" width="18" xmlns="http://www.w3.org/2000/svg"><path d="m0 0h18v18h-18z" fill="#f0f3fa"/><path d="m8.598 4.014a5.3 5.3 0 0 0 -1.909.505c-1.548.755-2.484 2.201-2.673 4.127-.033.322-.013.781.047 1.143.022.14.042.211.042.218 0 .006 2.491-.014 5.538-.007h5.637l.109-.056c.115-.084.208-.162.208-.17a1.66 1.66 0 0 0 -.108-.207l-.485-.567h-10.004c.108-2.196 1.322-3.778 3.598-4 2.43-.233 4.106 1.312 4.402 3.68.08 0 1 .013 1-.023 0-1.487-1.036-3.064-2.236-3.86-.886-.588-1.997-.863-3.166-.783z" fill="#cf112b"/><path d="m5 11.993 3.992.007h4.008s.552-.607.711-1h-9.411c.108.416.7.993.7.993zm1 1.007c.027.017.177.119.29.183 1.954 1.084 3.74 1.135 5.624-.124l.086-.059z"/></svg>