<svg height="18" width="18" xmlns="http://www.w3.org/2000/svg"><path d="m0 0h18v18h-18z" fill="#005daa"/><g fill="#fff"><path d="m13.852 8.544c.143.162.148.294.148.456h-2.334c-.079-.809-.401-1.559-1.179-2.044-.635-.427-1.54-.47-2.317-.294-.984.323-1.744 1.22-1.823 2.19l-.014.148h-2.333c.016-.22.011-.309.17-.456 0 0 3.386-3.191 4.83-4.544z"/><path d="m7.666 7.796v3.199l.667-.378v-1.338l.53-.378v-.706l-.53.378v-.328l.667-.504v2.188l1.333 1.066v-.8l-.667-.436v-.323l.667.493v-.8l-.667-.38v-.337l.667.45v-.8l-1.197-1.066h-.259l-1.21.8z"/><path d="m13.84 9.456c.16-.162.16-.294.16-.456h-2.334c-.079.809-.412 1.559-1.19 2.044-.635.427-1.54.47-2.318.294-.984-.309-1.746-1.206-1.825-2.176v-.162h-2.333c0 .28 0 .338.159.485a1304.44 1304.44 0 0 1 4.84 4.515l4.842-4.544z"/></g></svg>