<svg height="18" viewBox="0 0 18 18" width="18" xmlns="http://www.w3.org/2000/svg" xmlns:xlink="http://www.w3.org/1999/xlink"><linearGradient id="a" gradientUnits="userSpaceOnUse" x1="-19.82" x2="274.42" y1="216.92" y2="48.81"><stop offset=".22" stop-color="#0154c0"/><stop offset=".55" stop-color="#0553a6"/></linearGradient><linearGradient id="b"><stop offset="0" stop-color="#255aff"/><stop offset="1" stop-color="#008a00"/></linearGradient><linearGradient id="c" x1="-204.41" x2="732.82" xlink:href="#b" y1="454.2" y2="-461.72"/><linearGradient id="d" gradientUnits="userSpaceOnUse" x1="-3.85" x2="264.98" y1="131.86" y2="58.18"><stop offset="0" stop-color="#1a5d6d"/><stop offset="1" stop-color="#145e20"/></linearGradient><linearGradient id="e" x1="-28.15" x2="675.82" xlink:href="#b" y1="585.7" y2="-69.05"/><linearGradient id="f" gradientUnits="userSpaceOnUse" x1="6.11" x2="255.62" y1="79.5" y2="79.5"><stop offset="0" stop-color="#3a8c9c"/><stop offset=".32" stop-color="#409694"/></linearGradient><linearGradient id="g" gradientUnits="userSpaceOnUse" x1="-308" x2="270.12" y1="252.39" y2="-385.7"><stop offset=".3" stop-color="#2e7dc4"/><stop offset=".63" stop-color="#379f8b"/></linearGradient><linearGradient id="h" gradientUnits="userSpaceOnUse" x1="53.06" x2="211.63" y1="233.75" y2="140.5"><stop offset=".37" stop-color="#38ac5e"/><stop offset=".53" stop-color="#38af56"/></linearGradient><path d="m0 0h18v18h-18z" fill="#f0f3fa"/><path d="m3 9.5h2.5v2.5h-2.5z" fill="url(#a)"/><path d="m3 6h2.5v2.5h-2.5z" fill="url(#c)"/><path d="m9 7h2.5v2h-2.5z" fill="url(#d)"/><path d="m6 8h2.5v4h-2.5z" fill="url(#e)"/><path d="m6 6h2.5v1.5h-2.5z" fill="url(#f)"/><path d="m9 9.5h6v2.5h-6z" fill="url(#g)"/><path d="m13 6h2v3h-2z" fill="url(#h)"/><path d="m12 6h.5v3h-.5z" fill="#187c2d"/></svg>