<svg height="18" viewBox="0 0 18 18" width="18" xmlns="http://www.w3.org/2000/svg" xmlns:xlink="http://www.w3.org/1999/xlink"><linearGradient id="a"><stop offset="0" stop-color="#fff100"/><stop offset=".5" stop-color="#00a0e9"/><stop offset=".65" stop-color="#00a0e9"/><stop offset=".8" stop-color="#007cc9"/><stop offset="1" stop-color="#005bac"/></linearGradient><linearGradient id="b" gradientUnits="userSpaceOnUse" x1="9" x2="9" xlink:href="#a" y1="6.64" y2="4.01"/><linearGradient id="c"><stop offset="0" stop-color="#fff100"/><stop offset=".5" stop-color="#00a0e9"/><stop offset=".65" stop-color="#00a0e9"/><stop offset=".8" stop-color="#007cc9"/><stop offset=".92" stop-color="#0064b4"/><stop offset="1" stop-color="#005bac"/></linearGradient><linearGradient id="d" gradientUnits="userSpaceOnUse" x1="10.79" x2="12.67" xlink:href="#c" y1="7.21" y2="5.4"/><linearGradient id="e" gradientUnits="userSpaceOnUse" x1="11.36" x2="13.99" xlink:href="#a" y1="9" y2="9"/><linearGradient id="f" gradientUnits="userSpaceOnUse" x1="10.8" x2="12.65" xlink:href="#c" y1="10.85" y2="12.69"/><linearGradient id="g" gradientUnits="userSpaceOnUse" x1="9" x2="9" xlink:href="#a" y1="11.36" y2="13.99"/><linearGradient id="h" gradientUnits="userSpaceOnUse" x1="7.2" x2="5.35" xlink:href="#c" y1="10.85" y2="12.68"/><linearGradient id="i" gradientUnits="userSpaceOnUse" x1="6.64" x2="4.01" xlink:href="#a" y1="9" y2="9"/><linearGradient id="j" gradientUnits="userSpaceOnUse" x1="7.27" x2="5.42" xlink:href="#c" y1="7.24" y2="5.39"/><path d="m0 0h18v18h-18z" fill="#f0f3fa"/><path d="m9.5 4h-1v2.65h1z" fill="url(#b)"/><path d="m13.03 5.76-.69-.72-1.9 1.81.7.72 1.9-1.81z" fill="url(#d)"/><path d="m14 9.5v-1h-2.65v1z" fill="url(#e)"/><path d="m12.32 13.04.7-.7-1.88-1.85-.7.72z" fill="url(#f)"/><path d="m8.5 14h1v-2.65h-1z" fill="url(#g)"/><path d="m4.98 12.33.7.71 1.88-1.83-.7-.72z" fill="url(#h)"/><path d="m4 9.5v-1h2.65v1z" fill="url(#i)"/><path d="m5.05 5.75.71-.71 1.87 1.85-.71.7z" fill="url(#j)"/></svg>