<svg height="18" viewBox="0 0 18 18" width="18" xmlns="http://www.w3.org/2000/svg" xmlns:xlink="http://www.w3.org/1999/xlink"><linearGradient id="a" gradientUnits="userSpaceOnUse" x1="11.72" x2="5.94" y1="5.17" y2="12.9"><stop offset="0" stop-color="#93a1c4"/><stop offset="1" stop-color="#00347a"/></linearGradient><linearGradient id="b" gradientUnits="userSpaceOnUse" x1="10.83" x2="9.96" y1="2.72" y2="10.94"><stop offset="0" stop-color="#4f6fa2"/><stop offset="1" stop-color="#4f6fa2" stop-opacity="0"/></linearGradient><linearGradient id="c" gradientUnits="userSpaceOnUse" x1="13.59" x2="6.11" y1="8.08" y2="12.65"><stop offset="0" stop-color="#f8f9fd"/><stop offset="1" stop-color="#b9c8e5"/></linearGradient><path d="m0 0h18v18h-18z" fill="#f0f3fa"/><circle cx="9" cy="9" fill="url(#a)" r="5"/><circle cx="9.96" cy="7.66" fill="url(#b)" r="3.28"/><circle cx="10.32" cy="7.15" fill="#5c76a9" r="2.64"/><circle cx="10.53" cy="6.82" fill="#7385b3" r="2.2"/><circle cx="10.53" cy="6.42" fill="#8b9ac1" r="1.81"/><circle cx="10.64" cy="6.42" fill="#9ea9c9" r="1.46"/><circle cx="10.64" cy="6.18" fill="#b8bfd9" r="1.15"/><circle cx="10.64" cy="6.18" fill="#d3d6e5" r=".75"/><circle cx="10.64" cy="6.18" fill="#f0f1f6" r=".35"/><path d="m13.97 8.48c-5.66.22-7.81 2.8-8.27 4.28a5.04 5.04 0 0 1 -.4-.4c1.08-4.12 5.73-5.53 8.1-5.75.3.57.5 1.2.57 1.87zm-7.32 4.93a5 5 0 0 1 -.48-.29c1.93-3.07 5.82-3.5 7.76-3.31a4.97 4.97 0 0 1 -.5 1.52c-3.75-.46-5.98 1.07-6.78 2.08z" fill="url(#c)"/></svg>