<svg height="18" viewBox="0 0 18 18" width="18" xmlns="http://www.w3.org/2000/svg"><path d="m0 0h18v18h-18z" fill="#f0f3fa"/><path d="m13.92 7.09-1.93 1.48a.2.2 0 0 1 -.15.04.2.2 0 0 1 -.13-.09l-.49-.72a.2.2 0 0 1 .04-.28l1.93-1.48a.2.2 0 0 1 .15-.04.2.2 0 0 1 .13.09l.5.72a.2.2 0 0 1 -.05.28z" fill="#eb8b2b"/><path d="m4 11.81v-5.81h1.26c.08 0 .15.12.15.2v4.32c0 .04.01.06.05.06h2.38c.1 0 .16.08.16.2v1.03c0 .12-.05.19-.16.19h-3.56c-.16 0-.25-.07-.28-.19z" fill="#1a4089"/><path d="m10.14 6h-.97c-.1 0-.17.08-.17.19v2.05c0 .1.08.2.17.2h.97c.1 0 .17-.1.17-.2v-2.04c0-.1-.07-.19-.17-.19zm3.06 5.96-1.94-1.48a.2.2 0 0 1 -.04-.28l.49-.72a.2.2 0 0 1 .13-.09.19.19 0 0 1 .15.04l1.93 1.48a.2.2 0 0 1 .04.28l-.49.72a.2.2 0 0 1 -.13.09.19.19 0 0 1 -.14-.04zm-3.06-2.38h-.97c-.1 0-.17.08-.17.18v2.06c0 .1.08.18.17.18h.97c.1 0 .17-.08.17-.18v-2.06c0-.1-.08-.18-.17-.18z" fill="#eb8b2b"/></svg>