<svg height="18" viewBox="0 0 18 18" width="18" xmlns="http://www.w3.org/2000/svg"><path d="m0 0h18v18h-18z" fill="#f0f3fa"/><path d="m8.63 4a5 5 0 0 0 -4.63 4.68v.02c0 .17.14.31.3.31h4.4a.3.3 0 0 0 .3-.3v-4.41a.3.3 0 0 0 -.3-.3z" fill="#8d4689"/><path d="m13.7 4h-.06a4.93 4.93 0 0 0 -4.47 4.67v.02c0 .17.13.31.3.31h4.23a.3.3 0 0 0 .3-.3v-4.4a.3.3 0 0 0 -.3-.3z" fill="#712b7d"/><path d="m8.68 9.4h-4.37c-.17 0-.3.12-.3.28v4.04c0 .16.13.28.3.28h.06c2.49-.17 4.47-2 4.63-4.3v-.02c0-.16-.14-.29-.3-.29h-.02z" fill="#8d4689"/><path d="m9.17 9.68v.01a4.73 4.73 0 0 0 4.47 4.3l.06.01c.16 0 .3-.12.3-.27v-4.06a.29.29 0 0 0 -.3-.28h-4.23c-.17 0-.3.12-.3.28z" fill="#712b7d"/></svg>