<svg height="18" viewBox="0 0 18 18" width="18" xmlns="http://www.w3.org/2000/svg"><path d="m0 0h18v18h-18z" fill="#f0f3fa"/><path d="m6.86 12.9.66-2.9c.02-.11.06-.12.1 0l1.24 2.84c.05.1.12.16.23.16h3.21c.08 0 .1-.04.06-.12l-1.67-3.3c-.03-.05-.02-.08.03-.1 1.56-.64 2.32-1.6 2.28-2.86-.04-1.08-.85-1.62-2.44-1.62h-4.56c-.08 0-.13.04-.15.13l-1.85 7.72c-.03.1 0 .15.1.15h2.63c.06 0 .1-.04.12-.1zm1.09-4.13c1.1-.05 1.78-.36 2.03-.92.12-.27.1-.5-.05-.68a.8.8 0 0 0 -.58-.29c-.35-.03-.67-.05-.96-.05-.07 0-.12.05-.14.13l-.4 1.69c-.01.08.02.12.1.12z" fill="#0e3499" fill-rule="evenodd"/></svg>