<svg height="18" viewBox="0 0 18 18" width="18" xmlns="http://www.w3.org/2000/svg" xmlns:xlink="http://www.w3.org/1999/xlink"><linearGradient id="a" gradientUnits="userSpaceOnUse" x1="13.49" x2="2.14" y1="8.57" y2="8.57"><stop offset="0" stop-color="#00a0de"/><stop offset=".27" stop-color="#6cbae8"/><stop offset=".42" stop-color="#add4f3"/><stop offset=".61" stop-color="#93c9ed"/><stop offset="1" stop-color="#039edf"/></linearGradient><linearGradient id="b" gradientUnits="userSpaceOnUse" x1="10.02" x2="2.48" y1="7.83" y2="7.83"><stop offset="0" stop-color="#0666a5"/><stop offset=".31" stop-color="#7c9bca"/><stop offset=".48" stop-color="#b0bddd"/><stop offset=".64" stop-color="#8ba5d1"/><stop offset="1" stop-color="#0161ad"/></linearGradient><path d="m0 0h18v18h-18z" fill="#f0f3fa"/><path d="m9 13c3.87 0 7-1.8 7-4s-3.13-4-7-4c-1.56 0-3 .3-4.17.78.89-.3 1.92-.47 3.02-.47 3.23 0 5.86 1.48 5.86 3.3s-2.63 3.3-5.86 3.3c-3.12 0-5.67-1.38-5.84-3.12l-.01.21c0 2.2 3.13 4 7 4z" fill="#69c5ea"/><path d="m7.82 11.7c3.13 0 5.67-1.4 5.67-3.13s-2.54-3.13-5.67-3.13c-1.83 0-3.45.47-4.49 1.21.73-.4 1.8-.66 3-.66 2.2 0 3.98.85 3.98 1.9 0 1.04-1.78 1.89-3.97 1.89-2.2 0-3.97-.85-3.97-1.9 0-.09.01-.18.04-.27-.18.3-.27.62-.27.96 0 1.73 2.54 3.13 5.68 3.13z" fill="url(#a)"/><path d="m5.42 7.93c1.08 0 1.95-.42 1.95-.94 0-.37-.44-.69-1.1-.84h.05c2.12 0 3.84.75 3.84 1.68s-1.72 1.68-3.84 1.68-3.84-.75-3.84-1.68c0-.47.43-.9 1.13-1.2a.55.55 0 0 0 -.14.36c0 .52.87.94 1.95.94z" fill="url(#b)"/><ellipse cx="5.42" cy="6.98" fill="#093b60" rx="1.82" ry=".74"/></svg>