<svg height="18" viewBox="0 0 18 18" width="18" xmlns="http://www.w3.org/2000/svg"><path d="m0 0h18v18h-18z" fill="#f0f3fa"/><path d="m9 14a5 5 0 1 0 0-10 5 5 0 0 0 0 10zm-.85-6c.55-.04.92-.75.84-1.58-.09-.82-.6-1.46-1.14-1.42-.55.04-.92.75-.84 1.58.09.82.6 1.46 1.14 1.42zm2.81-1.35c-.15.82-.7 1.42-1.24 1.34-.53-.08-.83-.81-.68-1.64.15-.82.7-1.42 1.24-1.34.53.08.83.81.68 1.64zm.76 3.34c.53.08 1.09-.52 1.24-1.34.15-.83-.15-1.56-.68-1.64s-1.09.52-1.24 1.34c-.15.83.15 1.56.68 1.64zm-4.76-1.08c.15.55-.16 1.03-.7 1.09-.53.05-1.08-.36-1.22-.9-.15-.56.16-1.04.7-1.1.53-.05 1.08.36 1.22.9zm.63 1.2a1.5 1.5 0 0 1 1.41-1.11c.35 0 1.16.22 1.4 1.11.1.31.33.46.56.6.27.18.54.36.54.83 0 .86-.44 1.21-1 1.21-.26 0-.43-.07-.63-.14a2.4 2.4 0 0 0 -.87-.18c-.4.01-.65.1-.87.18-.2.07-.37.14-.63.14-.56 0-1-.35-1-1.2 0-.48.27-.66.54-.83.23-.15.46-.3.55-.6z" fill="#ea1543" fill-rule="evenodd"/></svg>