<svg height="18" viewBox="0 0 18 18" width="18" xmlns="http://www.w3.org/2000/svg"><path d="m0 0h18v18h-18z" fill="#f0f3fa"/><path d="m11.3 6-.76.74v-.74h-3.42l2.65 6h1.26l.28-.6.28.6h1.26l2.65-6h-3.35v.8z" fill="#1a1a18"/><path d="m8.02 6.6h1.75v1.96l1.54-1.55 1.54 1.55v-1.95h1.74l-2.1 4.78h-.55l-.63-1.21-.63 1.21h-.56l-2.1-4.78z" fill="#ffd601"/><path d="m8.24 8.56h-.14s-.21-2.56-2.52-2.56c-2.37 0-2.58 1.82-2.58 3.17 0 1.28.56 2.83 2.58 2.83h2.66z" fill="#1a1a18"/><path d="m7.61 11.4h-2.01s-1.96.26-1.96-2.3 1.46-2.56 2.08-2.56c.7 0 1.76.67 1.76 1.95h-1.27s.07-.59-.62-.59c-.59 0-.59.6-.59.6v1.07s0 .61.52.61h.9v-.6h-.28v-.41h1.33v2.22h.14z" fill="#ffd601"/></svg>