<svg height="18" width="18" xmlns="http://www.w3.org/2000/svg"><path d="m0 0h18v18h-18z" fill="#122344"/><path d="m12.949 5h-1.281v.333h.317v7.242c-.009.155-.063.213-.281.222h-.036v.203h1.562v-.203h-.245c-.254-.01-.37-.116-.38-.357v-2.773h.444c.636 0 .99-.382.99-.816v-2.963c0-.434-.3-.888-1.09-.888zm.447 2.278v1.602c0 .24-.129.463-.41.453h-.38v-4h.343a.43.43 0 0 1 .447.449zm-8.146 2.389h.313v2.706c.009.241-.318.444-.545.453h-.008c-.227 0-.384-.202-.384-.453v-6.591c0-.184.111-.608.402-.599.237 0 .38.232.452.589.082.367.182.986.243 1.721 0 .126.045.174.173.174h.293v-2.667h-.313v.183c0 .126-.063.116-.127.078a1.553 1.553 0 0 0 -.794-.261c-.391 0-.955.183-.955.975v5.819c.01 1.013.51 1.196 1.01 1.206.38 0 .705-.212.85-.29.1-.048.173.136.173.29h.154v-3.333h.313v-.334h-1.25zm3.353-.334.355-3.165.4 3.165zm1.746 3.117-.855-7.45h-.672l-.855 7.47c-.045.23-.202.289-.53.308v.222h1.25v-.203a.573.573 0 0 1 -.374-.106.245.245 0 0 1 -.055-.154l.318-2.87h.818l.337 2.87c0 .183-.019.25-.228.26h-.19v.203h1.562v-.203h-.162c-.264 0-.346-.173-.364-.347z" fill="#fff"/></svg>