<svg height="18" width="18" xmlns="http://www.w3.org/2000/svg" xmlns:xlink="http://www.w3.org/1999/xlink"><linearGradient id="a" gradientUnits="userSpaceOnUse" x1="3.349" x2="21.904" y1="3.122" y2="24.434"><stop offset="0" stop-color="#1a1e21"/><stop offset="1" stop-color="#06060a"/></linearGradient><path d="m0 0h18v18h-18z" fill="url(#a)"/><path d="m4.643 12.58c-.053-.148-.284-.975.64-1.696 1.12-.869 5.12-1.293 5.12-1.293-.996 1.42-2.631 3.01-3.911 3.561-1.298.53-1.777-.36-1.849-.572zm3.52-5.278c-.036-.02.249-1.08 2.186-1.843 1.796-.7 2.827-.615 2.827-.615-.018.593-2.347 1.61-2.347 1.61-1.67.721-2.275.848-2.666.848zm-3.177 3.031 4.154 1.677s.655-.565 1.688-1.912c.817-1.064 1.897-3.098 1.897-3.098h-.72s-.75 1.023-2.616 1.087c0 0-.444 0-.746-.233 0 0 2.346-.36 4.461-1.844 0 0 1.21-.806.818-1.632 0 0-.249-.615-1.83-.276-1.6.34-4.409 1.314-4.605 3.243 0 0-1.025-.175-1.487-.344l-.364.49s.625.49 2.03.447c0 0 .355.7 1.475.679 1.137 0 1.777-.149 2.168-.318l-.39.635-.57.043c-4.286.394-5.363 1.356-5.363 1.356zm0 0s-1.378 1.025-.876 2.522c.142.425.658 1.145 1.618 1.145 1.937-.184 3.413-1.991 3.413-1.991z" fill="#fff"/></svg>