<svg height="18" viewBox="0 0 18 18" width="18" xmlns="http://www.w3.org/2000/svg"><path d="m0 0h18v18h-18z" fill="#f0f3fa"/><path d="m9.4 3c-.47.25-.88.6-1.19 1.05.82.15 1.62.37 2.4.68a7.16 7.16 0 0 1 3.1 2.5 9.08 9.08 0 0 0 -4.3-4.23" fill="#3071b7"/><path d="m11.02 5.34a13.4 13.4 0 0 0 -2.96-.94 4.7 4.7 0 0 0 -.95 2.36c1.64-.42 5.34-.06 6.47.75a5.27 5.27 0 0 0 -2.56-2.17z" fill="#3071b7"/><path d="m3 8.6c.25.47.6.88 1.05 1.19.15-.82.37-1.62.68-2.4a7.2 7.2 0 0 1 2.5-3.1 9.05 9.05 0 0 0 -4.23 4.3" fill="#6fb92c"/><path d="m5.34 6.97a13.3 13.3 0 0 0 -.94 2.97c.69.53 1.5.86 2.36.96-.42-1.65-.06-5.35.75-6.47v-.03c-.98.6-1.75 1.5-2.17 2.57z" fill="#6fb92c"/><path d="m8.6 15c.47-.24.88-.6 1.19-1.05-.82-.15-1.62-.37-2.4-.68a7.23 7.23 0 0 1 -3.1-2.5 9.05 9.05 0 0 0 4.32 4.22" fill="#3071b7"/><path d="m6.97 12.66c.95.43 1.95.74 2.97.94.53-.69.86-1.5.96-2.36-1.65.42-5.35.06-6.47-.77h-.03c.6 1 1.5 1.76 2.57 2.19" fill="#3071b7"/><g fill="#6fb92c"><path d="m15 9.4c-.24-.47-.6-.88-1.05-1.19-.15.82-.37 1.62-.68 2.4a7.2 7.2 0 0 1 -2.5 3.1 9.08 9.08 0 0 0 4.22-4.33"/><path d="m12.66 11.02c.43-.95.75-1.95.94-2.98a4.7 4.7 0 0 0 -2.36-.95c.42 1.65.06 5.34-.77 6.47a5.27 5.27 0 0 0 2.2-2.54z"/></g></svg>