<svg height="18" viewBox="0 0 18 18" width="18" xmlns="http://www.w3.org/2000/svg"><path d="m0 0h18v18h-18z" fill="#f0f3fa"/><circle cx="4" cy="12" fill="#e6211a" r="1"/><circle cx="14" cy="6" fill="#e59838" r="1"/><path d="m6.37 11.63.66-.66a3.49 3.49 0 0 1 2.47-5.97c.97 0 1.84.4 2.47 1.03l.86-.86a4.79 4.79 0 0 0 -3.15-1.17c-2.58 0-4.68 2-4.68 4.47 0 1.24.52 2.35 1.37 3.16zm7.48-5.18c-.13-.26-.29-.5-.47-.72.14.24.3.48.47.72z" fill="#e59838"/><path d="m5.35 12.65a4.39 4.39 0 0 0 3.16 1.35 4.58 4.58 0 0 0 4.49-4.67c0-1.21-.45-2.32-1.18-3.15l-.85.85a3.49 3.49 0 0 1 -2.47 5.97c-.97 0-1.84-.4-2.47-1.03z" fill="#e6211a"/></svg>