<svg height="18" viewBox="0 0 18 18" width="18" xmlns="http://www.w3.org/2000/svg"><path d="m0 0h18v18h-18z" fill="#f0f3fa"/><path d="m9.36 4.16c.15.15.27.34.31.4l-3.77 3.94a.47.47 0 0 0 0 .66l2.12 2.08c.13.13.36.26.54.26.1 0 .21-.04.31-.14a.3.3 0 0 0 .09-.22c0-.22-.21-.47-.32-.59l-.34-.4a.37.37 0 0 1 0-.52l.95-.88a.72.72 0 0 1 1.02 0l.52.42c.28.29.28.75 0 1.04l-2.53 2.57a.72.72 0 0 1 -1.03 0l-3.02-3.07a.75.75 0 0 1 0-1.05l4.46-4.54c.18-.18.5-.15.69.04z" fill="#3564a2"/><path d="m8.35 13.45c.04.07.16.26.31.4.2.2.54.2.72 0l4.4-4.5a.75.75 0 0 0 0-1.05l-3-3.08a.71.71 0 0 0 -1.03 0l-2.51 2.57a.8.8 0 0 0 -.24.55c0 .17.06.43.19.56a.19.19 0 0 0 .27 0c.65-.66 1.33-1.28 1.97-1.94.11-.11.22-.16.32-.16.15 0 .27.09.39.2l1.83 1.96a.47.47 0 0 1 0 .67z" fill="#6abe45"/></svg>