<svg height="18" viewBox="0 0 18 18" width="18" xmlns="http://www.w3.org/2000/svg"><path d="m0 0h18v18h-18z" fill="#f0f3fa"/><path d="m11.28 4c2.1 0 3.2 1.23 3.49 1.85-3.62-3.07-8.42 1.05-8.42 3.25s2.37 2.28 2.94 2.28 4.24-.4 4.24-2.28-3.58-1.65-3.58-2.56c0-.72.62-1.02.93-1.08-.88 1.02.63 1.2 1.5 1.17.87.05 2.62.45 2.62 1.75s-1.92 3.26-2.88 4.08l-7.79-1.77 6.79 2.22-6.79-1.54 6.37 1.97-6.06-1.48 5.24 1.69-5.24-1.22 4.44 1.47-4.23-.89 3.41 1.05c-4.1.38-5.21-2.02-5.26-3.27-0-4.09 5.66-6.69 8.28-6.69z" fill="#cf2021"/></svg>