<svg height="18" viewBox="0 0 18 18" width="18" xmlns="http://www.w3.org/2000/svg"><path d="m0 0h18v18h-18z" fill="#f0f3fa"/><path d="m12.92 7.93.49-.48a2.02 2.02 0 1 0 -2.86-2.86l-.49.49a4.08 4.08 0 0 1 2.86 2.85zm0 2.14a4.08 4.08 0 0 1 -2.86 2.85l.48.49a2.02 2.02 0 1 0 2.86-2.86zm-1.92-1.07a2 2 0 1 1 -4 0 2 2 0 0 1 4 0zm-3.08-3.92-.49-.48a2.03 2.03 0 0 0 -2.86.04 2 2 0 0 0 0 2.8l.49.5a4.08 4.08 0 0 1 2.86-2.86zm-3.35 5.47.49-.48a4.08 4.08 0 0 0 2.86 2.85l-.49.49a2.02 2.02 0 0 1 -2.86-2.86z" fill="#07949e"/></svg>