<svg height="18" viewBox="0 0 18 18" width="18" xmlns="http://www.w3.org/2000/svg"><path d="m18 0h-18v18h18z" fill="#f0f3fa"/><g fill="#1c355e"><path d="m4.78 11.94c.4.02 3.33.13 3.54.22-.05.12-2.84.29-3.17.3.01.08.16.23.19.25.5.03 2.67.01 2.82.22-.35.11-2.27.1-2.39.18.04.05.66.4.68.4l1.85.12c-.03.2-.69.18-.8.25.63.17 1.1.17 2.41-.05a5.2 5.2 0 0 0 3.09-2.44v-2.39h-4v.98h1.17c.31.31-.16 1.3-1.04 1.3-.51.02-.94-.1-1.27-.47-.5.04-3.51.2-3.52.2.25.14 3.97.26 4 .36-1.39.18-2.66.24-3.79.32.1.13.04.07.23.25zm3.26-6.78-2.9.27-.31.32c.24 0 3.06.15 3.14.19l-3.46.6c3.62.15 0 0 3.71.14-.43.23-2.6.32-3.86.48.94.15 3.07.36 3.22.3.24-.27.49-.47.84-.57.64-.18 1.14-.02 1.44.58h3.14a3.97 3.97 0 0 0 -.63-1.65 4.38 4.38 0 0 0 -3.14-1.8c-.7-.08-2.03.07-2.25.3.11.07 1.2.11 1.3.18l-1.88-.02c-.31.17-.31.17-.94.64.36.01 2.5 0 2.58.04zm-4.04 4.29c.04.04 2.86.26 3.34.21v-.46c-1.18.09-2.2.14-3.34.26z"/><path d="m7.67 10.48c-.33-.5 0-.02-.33-.5-.15-.02-3.13.28-3.14.29.06.03 3.36.22 3.47.2zm-3.54-2.52c.54-.02 3.03.17 3.21.14.02-.09.2-.38.19-.45-.66-.02-2.93.27-3.4.3zm.07.76 3.14.16v-.47c-.34.03-3.06.22-3.14.31z"/></g></svg>