<svg height="18" viewBox="0 0 18 18" width="18" xmlns="http://www.w3.org/2000/svg"><path d="m0 0h18v18h-18z" fill="#f0f3fa"/><path d="m7.42 10.7c-.46.6-1.14.97-1.9.97-1.39 0-2.52-1.27-2.52-2.84 0-1.56 1.13-2.83 2.52-2.83.76 0 1.44.37 1.9.97v-.77c0-.11.1-.2.2-.2h.86c.11 0 .2.09.2.2v5.4c.01.75-.5 2.3-2.6 2.4-.75 0-1.84-.24-2.51-1.14l.58-.75c.27.25 1.03.73 1.92.66.9-.07 1.28-.77 1.35-1.12zm0-1.87c0 .92-.7 1.67-1.58 1.67-.87 0-1.58-.75-1.58-1.67s.71-1.66 1.58-1.66 1.58.74 1.58 1.66z" fill="#0b7f43" fill-rule="evenodd"/><path d="m9.7 4a.2.2 0 0 0 -.2.2v7.27c0 .1.08.2.2.2h.56a.2.2 0 0 0 .2-.2v-.48c.48.42 1.1.68 1.79.68a2.8 2.8 0 0 0 2.75-2.84 2.8 2.8 0 0 0 -2.75-2.83c-.68 0-1.3.25-1.79.67v-2.47a.2.2 0 0 0 -.2-.2zm4.33 4.83a1.8 1.8 0 0 1 -1.78 1.84 1.8 1.8 0 0 1 -1.79-1.84c0-1.01.8-1.83 1.79-1.83.98 0 1.78.82 1.78 1.83z" fill="#7cc55c"/></svg>