<svg height="18" viewBox="0 0 18 18" width="18" xmlns="http://www.w3.org/2000/svg"><path d="m0 0h18v18h-18z" fill="#f0f3fa"/><path d="m9.98 4.54c0 .42-.43.46-.65.46h-2.75c-1.03 0-1.08.79-1.08 1.14v5c0 1.15.83 1.86 1.47 1.86h4.36c1.3 0 1.17-1.38 1.17-1.86v-2.14h-.83s-.17-.18-.17-.54c0-.33.17-.46.17-.46h2c.27 0 .33.17.33.29v3.21c0 1.71-1.33 2.5-2.67 2.5h-4.36c-2.3 0-2.97-1.79-2.97-2.86v-5c0-1.71 1.72-2.14 2.58-2.14h2.75c.22 0 .65.1.65.54z"/><path d="m10.5 9a1.5 1.5 0 1 1 -3 0 1.5 1.5 0 0 1 3 0z" fill="#50914e"/></svg>