<svg height="18" width="18" xmlns="http://www.w3.org/2000/svg"><path d="m0 0h18v18h-18z" fill="#f0f3fa"/><path d="m9 8h4v1.139c0 1.733-.302 2.854-1.912 2.854-.322.01-.654.01-.976.01l-1.107-.01-.966-.01c-1.791 0-2.938-.224-3.019-2.895-.01-.327-.02-.663-.02-.99 0-2.732.161-4.016 2.516-4.057l1.388-.03c.171-.011.343-.011.514-.011.412 0 .835.02 1.247.04 1.5.063 2.335.82 2.335 2.96h-1c0-1.272-.612-2-2.07-2h-2.152c-1.446 0-1.778.899-1.778 2v2c0 .938.39 2 1.777 2 .752.104 2.012 0 2.768 0 1.127 0 1.455-.585 1.455-2h-3z" fill="#231815"/><path d="m6 14 6 1v-2z" fill="#d35e13"/></svg>