<svg height="18" width="18" xmlns="http://www.w3.org/2000/svg"><path d="m0 0h18v18h-18z" fill="#4474b6"/><path d="m9.557 4.47-.552 2.468-.552-2.469.552-2.469zm3.04 1.72-2.135 1.355 1.355-2.135 2.135-1.355-1.355 2.134zm.933 3.368-2.467-.553 2.467-.552 2.47.553zm-1.72 3.04-1.354-2.136 2.135 1.356 1.355 2.135-2.135-1.355zm-3.367.934.552-2.469.553 2.47-.553 2.467zm-3.04-1.72 2.136-1.356-1.356 2.135-2.135 1.355zm-.934-3.368 2.468.551-2.468.552-2.469-.552zm1.721-3.041 1.354 2.137-2.134-1.357-1.356-2.136 2.135 1.356zm-1.573 2.371c.098-.36.242-.7.421-1.018l-.006-.002-2.202-.318 1.78 1.336.008.002zm2.152-2.744a4.537 4.537 0 0 1 1.016-.421v-.007l-1.335-1.781.313 2.204.005.005zm6.625 2.749h.007l1.782-1.334-2.203.313-.005.005c.178.316.32.657.42 1.016zm-2.148-2.746.004-.006.318-2.202-1.337 1.779-.002.007c.36.1.701.242 1.017.422zm-6.632 5.186h-.004l-1.781 1.334 2.202-.314.005-.005a4.58 4.58 0 0 1 -.42-1.015zm8.778.006c-.098.358-.242.699-.421 1.016l.005.004 2.202.316-1.779-1.335zm-6.629 2.74-.004.006-.316 2.202 1.335-1.78v-.006a4.498 4.498 0 0 1 -1.015-.422zm4.478.003c-.317.18-.658.321-1.016.421v.006l1.334 1.781-.314-2.202z" fill="#fff"/></svg>