<svg height="18" viewBox="0 0 18 18" width="18" xmlns="http://www.w3.org/2000/svg" xmlns:xlink="http://www.w3.org/1999/xlink"><linearGradient id="a" gradientUnits="userSpaceOnUse" x1="8.57" x2="8.57" y1="8.66" y2="12.43"><stop offset="0" stop-color="#e90014"/><stop offset="1" stop-color="#e65101"/></linearGradient><linearGradient id="b"><stop offset="0" stop-color="#ea0011"/><stop offset="1" stop-color="#ec4f02"/></linearGradient><linearGradient id="c" gradientUnits="userSpaceOnUse" x1="15" x2="9.03" xlink:href="#b" y1="5.23" y2="5.23"/><linearGradient id="d" gradientUnits="userSpaceOnUse" x1="14.91" x2="8" xlink:href="#b" y1="7.99" y2="7.99"/><linearGradient id="e" gradientUnits="userSpaceOnUse" x1="4.94" x2="13.54" y1="6.38" y2="11.2"><stop offset="0" stop-color="#009ed8"/><stop offset="1" stop-color="#025195"/></linearGradient><path d="m0 0h18v18h-18z" fill="#f0f3fa"/><path d="m9.51 10.84.68-2.47c-.69-.26-1.72-.16-2.19.63-.11.5-.37 1.3-.52 1.88s-.38.9-.48.98c.12.04.47.14.85.14 1.1 0 1.57-.77 1.66-1.16z" fill="url(#a)"/><path d="m15 4.86c-.1.59-.53 1.64-1.4 1.64h-3.96c-.12 0-.43.03-.65.17.11-.57.57-1.67 1.45-1.67h3.9c.13 0 .44 0 .66-.14z" fill="url(#c)"/><path d="m14.91 6.87c-.1.56-.43 1.63-1.33 1.63h-4.38c-.56 0-.97.37-1.19.5.07-.8.65-2 1.54-2h4.7c.14 0 .45 0 .67-.13z" fill="url(#d)"/><path d="m8.88 4c.96 0 1.49.17 1.63.25-3.98.69-5.26 4.52-5.26 6.14s1.1 2.98 2.73 2.98c2.55 0 3.42-2.71 3.52-4.06h1.44c.61 0 .75 0 1.04-.15a4.8 4.8 0 0 1 -4.98 4.84c-3.84 0-5-3.43-5-4.77 0-.75.18-2.23 1.16-3.39a5.28 5.28 0 0 1 3.72-1.84z" fill="url(#e)"/></svg>