<svg height="18" width="18" xmlns="http://www.w3.org/2000/svg" xmlns:xlink="http://www.w3.org/1999/xlink"><linearGradient id="a" gradientUnits="userSpaceOnUse" x1="3.349" x2="21.904" y1="3.122" y2="24.434"><stop offset="0" stop-color="#1a1e21"/><stop offset="1" stop-color="#06060a"/></linearGradient><path d="m0 0h18v18h-18z" fill="url(#a)"/><path d="m9 9h5c0 3.369-1.872 5-4.788 5s-5.324-2.164-5.209-4.976c-.115-2.907 2.026-5.03 5.209-5.03 1.64 0 3.33.702 4.42 1.927l-.632.67c-.465-.67-1.682-1.575-4-1.6-2.318-.022-4.01 1.891-4 4.009.01 2.119 1.852 4.056 4.212 4s3.788-1.646 3.788-3h-4z" fill="#fff"/></svg>