<svg height="18" width="18" xmlns="http://www.w3.org/2000/svg"><path d="m0 0h18v18h-18z" fill="#f0f3fa"/><path d="m5 5h8v8h-8z" fill="#1b1b4d"/><path d="m8.49 3.54-.15.13c-.78.84-.17 2.85 1.36 4.5 1.53 1.64 3.4 2.3 4.18 1.47.05-.06.1-.12.13-.18.06-.04.1-.09.15-.14.72-.77.25-2.54-1.03-4.1l.61-.62-.25-.3-1.48 1.29.38.48.34-.41c1.23 1.48 1.78 3.08 1.28 3.8-.7.6-2.42-.14-3.9-1.74-1.47-1.58-2.17-3.4-1.62-4.18.65-.56 2.14.02 3.52 1.34l.4-.44c-1.44-1.36-3.08-1.84-3.79-1.08-.05.05-.1.11-.13.18z" fill="#9ea2a5"/><path d="m6.65 10-.65 2h4.38l.62-2z" fill="#eaeaea"/></svg>