<svg height="18" width="18" xmlns="http://www.w3.org/2000/svg"><path d="m0 0h18v18h-18z" fill="#d41e40"/><path d="m12.974 3c.014 0 .026.015.026.032 0 .016-.01.03-.024.031v.001c-1.977.797-3.938 3.85-4.73 7.349-.118.52-.21 1.052-.272 1.587 0 0-.327.042.024-1.753-2.031-1.588-1.24-6.56 4.972-7.247h.003zm-.004 1.01c.017 0 .03.015.03.033v5.961c0 3.203-4 4.996-4 4.996s-4-2.024-4-5.256v-5.744l3.186.01c.016.002.028.016.028.033 0 .019-.013.033-.029.033h-.001l-2.866.295v5.383c-0 2.873 3.682 4.879 3.682 4.879v-3.63c1.313.098 2.164-.99 2.642-2.51.156-.494.3-1.07.448-1.662.249-.998.508-2.038.853-2.798.004-.013.015-.022.027-.022z" fill="#fff"/></svg>