<svg height="18" viewBox="0 0 18 18" width="18" xmlns="http://www.w3.org/2000/svg" xmlns:xlink="http://www.w3.org/1999/xlink"><linearGradient id="a" gradientUnits="userSpaceOnUse" x1="9.35" x2="9.35" y1="5" y2="9.35"><stop offset="0" stop-color="#ed705c"/><stop offset="1" stop-color="#ed9740"/></linearGradient><linearGradient id="b" gradientUnits="userSpaceOnUse" x1="7.98" x2="7.98" y1="10.22" y2="13"><stop offset="0" stop-color="#007ecb"/><stop offset="1" stop-color="#65bdef"/></linearGradient><path d="m0 0h18v18h-18z" fill="#f0f3fa"/><path d="m2.7 7.26h.76l5.69 2.09h6.82l.03-.33v-.04c0-1-.65-1.9-1.7-2.6l-.05.01-.58.18c.1 0 .26.03.14.17-.07.08-.13.05-.22 0-.1-.04-.2-.1-.36 0-.15.09-.26.09-.35.09s-.16 0-.23.08c-.08.1 0 .14.11.19.09.04.18.08.18.16 0 .09.1.13.22.17.1.05.21.1.21.18 0 .09.04.17.08.26.03.09.07.17.07.26 0 .14-.2.29-.3.35l-3.5-.18-3.05-.52c-.2-.06-.59-.24-.59-.52s.3-.23.44-.17c0-.06.06-.18.3-.18.14 0 .17-.04.21-.08.04-.05.07-.1.22-.1.05-.16.2-.51.44-.51h.54c.07-.02.13-.06.33-.18.24-.14.59.06.73.18 0-.12.09-.35.44-.35s.44.12.44.17c.05-.05.17-.17.29-.17.07 0 .14-.04.22-.09.07-.04.14-.08.22-.08 0-.13.02-.35.1-.53-.62-.11-1.3-.17-2-.17-2.78 0-5.17.92-6.3 2.26z" fill="url(#a)"/><path d="m3.46 7.23 5.69 2.07h6.8l.02-.31c0-.98-.63-1.88-1.68-2.58h-.04l-.44.14.02.01a.1.1 0 0 1 .05.08c0 .04-.02.08-.05.11-.04.05-.08.07-.12.06a.37.37 0 0 1 -.13-.04.5.5 0 0 0 -.15-.05c-.05-.01-.12 0-.19.04-.15.1-.26.1-.36.1-.09 0-.15 0-.21.07l-.02.04v.03l.05.03.07.04a.7.7 0 0 1 .13.07c.03.02.07.06.07.12 0 .02.01.05.05.07.04.03.09.05.15.07l.15.08c.04.02.08.06.08.13 0 .08.04.16.07.24.04.1.08.19.08.28 0 .04-.02.09-.04.12a.54.54 0 0 1 -.08.11.98.98 0 0 1 -.19.15l-3.52-.17-3.06-.52c-.1-.03-.25-.1-.37-.19-.13-.09-.24-.21-.24-.37 0-.08.02-.14.06-.18a.22.22 0 0 1 .13-.07c.09-.01.19 0 .26.03.02-.08.11-.16.31-.16a.3.3 0 0 0 .14-.03.18.18 0 0 0 .06-.05.24.24 0 0 1 .08-.07.33.33 0 0 1 .14-.03c.03-.08.08-.2.15-.3.07-.12.18-.22.3-.22h.44a.6.6 0 0 0 .1 0c.07-.01.13-.05.33-.17.13-.07.28-.06.42 0 .11.03.22.1.3.15a.38.38 0 0 1 .09-.19c.07-.08.19-.14.37-.14s.29.03.36.07l.09.08a.7.7 0 0 1 .1-.08.34.34 0 0 1 .18-.07c.06 0 .13-.03.2-.08a.56.56 0 0 1 .2-.09c.01-.12.04-.3.1-.47a11.94 11.94 0 0 0 -5.72.47 6.06 6.06 0 0 0 -2.47 1.57h.7zm-.77.03.03-.03c1.15-1.33 3.53-2.23 6.28-2.23a11.96 11.96 0 0 1 2 .17v.03c-.08.18-.1.37-.1.5-.08 0-.15.04-.22.08-.08.05-.15.09-.22.09-.1 0-.2.08-.27.15a.54.54 0 0 0 -.02.02l-.01-.03c-.03-.06-.15-.14-.43-.14-.31 0-.42.19-.44.3v.05l-.03-.02c-.16-.12-.48-.29-.7-.16-.2.12-.26.16-.33.17h-.53c-.24 0-.4.36-.44.53-.15 0-.18.04-.22.09-.04.04-.07.08-.22.08-.2 0-.26.08-.28.14v.04l-.04-.01c-.15-.06-.4-.08-.4.18 0 .28.38.46.58.52l3.06.52 3.5.18c.1-.06.3-.21.3-.35 0-.09-.05-.17-.08-.26a.7.7 0 0 1 -.08-.26c0-.09-.1-.13-.21-.18-.11-.04-.22-.08-.22-.17 0-.08-.1-.12-.18-.16-.1-.05-.2-.1-.11-.19.07-.08.14-.08.23-.08.1 0 .2 0 .35-.1.15-.08.27-.03.36.02.09.04.15.07.22-.01.09-.1.02-.15-.05-.17h-.1l.59-.18h.05c1.05.7 1.69 1.61 1.69 2.61 0 .12 0 .23-.03.35h-6.82l-5.7-2.09h-.75z" fill="#000b04"/><path d="m9.15 7.6c-.35 0-1.02.36-1.32.53l1.32.52 2.04-.35c-.54-.23-1.7-.7-2.04-.7z" fill="#75a484"/><path d="m7.87 8.1-.04.03 1.32.52 2.04-.35-.06-.02a9.3 9.3 0 0 0 -1.98-.67c-.34 0-.97.32-1.28.5zm.04.02 1.24.5 1.92-.33a20.44 20.44 0 0 0 -1.54-.57c-.16-.05-.3-.08-.38-.08-.17 0-.42.09-.67.2z" fill="#000b04" fill-rule="evenodd"/><path d="m9 8.13a6.2 6.2 0 0 0 -1.6.52l1.3.52 1.61-.34c-.29-.24-.96-.7-1.31-.7z" fill="#09b092"/><path d="m7.44 8.63-.04.02 1.3.52 1.61-.34a4.2 4.2 0 0 0 -.03-.03c-.31-.24-.94-.67-1.28-.67s-1.15.32-1.56.5zm.04.02 1.23.49 1.52-.33a5.77 5.77 0 0 0 -.93-.57.86.86 0 0 0 -.3-.07c-.17 0-.47.08-.78.19-.27.1-.54.2-.74.29z" fill="#000b04" fill-rule="evenodd"/><path d="m11.33 7.96c-.58 0-1.99.7-2.62 1.04l2.19.35 3.2-.87c-.68-.18-2.18-.52-2.77-.52z" fill="#7fc89d"/><path d="m8.76 8.97-.06.03 2.19.35 3.2-.87a25.38 25.38 0 0 0 -2.77-.52c-.57 0-1.92.66-2.57 1.01zm.05.01 2.08.33 3.08-.83c-.34-.09-.82-.2-1.3-.3-.53-.1-1.05-.19-1.34-.19-.14 0-.33.04-.56.11a16.57 16.57 0 0 0 -1.96.88z" fill="#000b04" fill-rule="evenodd"/><path d="m2.87 7.09-.29.34 1.02.87 1.6-.52-1.74-.7h-.59z" fill="#73a484"/><path d="m2.58 7.43 1.02.87 1.6-.52-1.74-.7h-.59zm.3-.3-.25.3.98.84 1.5-.5-1.66-.65h-.55z" fill="#000b04" fill-rule="evenodd"/><path d="m6.67 7.43c-.82-.13-2.38.41-3.07.7l.3.35h2.48l1.45.7h1.75c-.48-.24-2.1-1.6-2.91-1.75z" fill="#7dc097"/><path d="m6.38 8.44 1.46.7h1.61a7.74 7.74 0 0 1 -.43-.29l-.25-.18-.54-.37c-.28-.2-.57-.38-.84-.54a2.5 2.5 0 0 0 -.73-.3c-.4-.06-1 .04-1.57.2-.55.14-1.09.34-1.43.48l.25.3zm-2.48.04-.3-.35.03-.01c.7-.3 2.23-.82 3.04-.69.54.1 1.43.73 2.11 1.21a10.2 10.2 0 0 0 .8.53h-1.75l-1.45-.7h-2.48zm7 .87.43-1.22.59 1.22z" fill="#000b04"/><path d="m6.08 8.13c-.93 0-1.65.35-1.9.52l1.32 1.22 4.52-.35c-.92-.46-3-1.39-3.94-1.39zm7.88 0c-.59 0-2.63 1.1-3.5 1.57l2.77.17 2.62-.52v-.7c-.43-.17-1.3-.52-1.9-.52z" fill="#11925c"/><path d="m4.21 8.63-.02.02 1.31 1.22 4.52-.35-.06-.03c-.95-.47-2.96-1.36-3.88-1.36-.9 0-1.6.32-1.87.5zm.03.03 1.27 1.17 4.38-.33c-.46-.23-1.15-.55-1.84-.81a6.6 6.6 0 0 0 -1.97-.52c-.88 0-1.57.3-1.84.49zm6.22 1.04 2.77.17 2.65-.55v-.7a6.46 6.46 0 0 0 -1.92-.49c-.55 0-2.42.99-3.36 1.49zm.12-.03 2.65.16 2.62-.54v-.64c-.22-.08-.45-.18-.82-.29-.39-.1-.78-.2-1.07-.2-.14 0-.38.07-.66.18-.29.11-.63.26-.97.43-.62.3-1.27.64-1.71.88z" fill="#000b04" fill-rule="evenodd"/><path d="m6.81 9.87.44-1.4.3.88.14-.35.58 1.22z" fill="#000b04"/><path d="m9.87 9a5.2 5.2 0 0 0 -2.33.7l.3.52h3.35l1.16-.7a7.77 7.77 0 0 0 -2.48-.52z" fill="#08a590"/><path d="m14.69 9.35-2.34.17c-.29.06-.93.21-1.16.35-.3.17-.44 0-1.32 0-.87 0-1.16.52-1.16.87s.73.35.73.7c0 .34-.59.34-.59.86 0 .42.3.64.44.7 3.51 0 6.71-2.09 6.71-4h-.58c-.24 0-.59.23-.73.35z" fill="#26ab6e"/><path d="m14.69 9.35-2.34.17c-.29.06-.93.21-1.16.35-.17.1-.3.08-.53.05a5.54 5.54 0 0 0 -.79-.05c-.87 0-1.16.52-1.16.87 0 .17.18.26.36.35.18.08.37.17.37.34 0 .16-.12.25-.25.34-.16.12-.34.25-.34.53 0 .42.3.64.44.7 3.48 0 6.67-2.06 6.7-3.97l.01-.03h-.58c-.24 0-.59.23-.73.35zm1.28-.32h-.55a.9.9 0 0 0 -.39.13c-.13.07-.25.16-.33.22l-2.34.18-.6.14c-.23.06-.45.13-.56.2-.15.1-.27.1-.45.07l-.1-.01c-.17-.02-.4-.06-.78-.06-.86 0-1.13.52-1.13.84 0 .07.03.13.1.18.06.05.15.1.24.13l.26.15c.07.06.13.13.13.23s-.05.18-.1.24a1.22 1.22 0 0 1 -.2.16c-.15.11-.29.23-.29.47a.72.72 0 0 0 .42.67 9.1 9.1 0 0 0 4.64-1.28 5.43 5.43 0 0 0 1.48-1.28c.35-.45.54-.92.55-1.38z" fill="#000b04" fill-rule="evenodd"/><path d="m3.31 7.78.3-.52.43.7-.29.17z" fill="#000b04"/><path d="m4.04 8.13a12.1 12.1 0 0 0 -1.46-.7c-.28.35-.53 1.1-.58 1.57 0 2.09 3.06 3.48 4.52 3.65 0-.06.06-.24.3-.52.28-.35 1.6-.35 1.6-.7 0-.46-.44-.34-.44-.7 0-.27.73-.45 1.02-.51-1.41-.58-4.5-1.81-4.96-2.09z" fill="#68c08e"/><path d="m2.6 7.47a3.78 3.78 0 0 0 -.57 1.53c-.01.51.18.98.48 1.4.31.43.74.8 1.2 1.11.94.62 2.05 1.01 2.78 1.1 0-.04.02-.09.05-.15.05-.1.12-.21.24-.35.08-.1.22-.17.39-.22a5.91 5.91 0 0 1 .54-.14c.18-.05.35-.09.48-.14a.5.5 0 0 0 .14-.09c.03-.03.05-.06.05-.09a.4.4 0 0 0 -.06-.23.48.48 0 0 0 -.15-.13l-.02-.01a.66.66 0 0 1 -.13-.1.3.3 0 0 1 -.08-.22c0-.09.06-.16.13-.22.08-.06.18-.11.3-.16.16-.07.36-.12.5-.15l-.98-.4-1.74-.72a85.03 85.03 0 0 1 -2.13-.93c-.46-.27-1.14-.56-1.44-.69zm6.34 2.72-1.03-.42a67.48 67.48 0 0 1 -3.87-1.64 12.1 12.1 0 0 0 -1.46-.7c-.28.35-.53 1.1-.58 1.57 0 2.07 3.02 3.46 4.5 3.65h.02v-.02c.01-.07.08-.25.3-.5.13-.16.5-.25.84-.33.4-.1.76-.18.76-.37 0-.25-.13-.33-.25-.4-.1-.07-.2-.13-.2-.3 0-.25.65-.43.97-.5l.06-.01z" fill="#000b04" fill-rule="evenodd"/><path d="m7.83 10.74c0-.28.73-.52 1.17-.52a.88.88 0 0 0 -.15.52c0 .35.73.35.73.7 0 .34-.58.34-.58.86 0 .42.15.64.3.7a10.9 10.9 0 0 1 -2.78-.35c0-.17.1-.46.15-.52.29-.52 1.6-.35 1.6-.7 0-.34-.44-.34-.44-.7z" fill="url(#b)"/><path d="m6.69 12.15-.04.08a1.35 1.35 0 0 0 -.1.4c.4.1 1.42.32 2.63.33-.12-.1-.2-.32-.2-.66 0-.28.15-.42.3-.53l.04-.03.15-.12a.25.25 0 0 0 .08-.19c0-.06-.03-.12-.1-.17-.06-.05-.15-.1-.24-.14a1.35 1.35 0 0 1 -.26-.15c-.07-.05-.12-.13-.12-.23a1 1 0 0 1 .1-.49c-.2.01-.45.07-.67.16-.11.04-.22.1-.29.16s-.1.12-.1.17c0 .15.09.23.2.32.1.09.23.18.23.37 0 .06-.03.1-.07.14a.5.5 0 0 1 -.16.08c-.11.04-.25.06-.4.09l-.09.01c-.18.03-.37.07-.53.13-.16.07-.3.15-.36.27zm2.27-1.93h.04l-.02.03a.94.94 0 0 0 -.13.49c0 .17.19.26.37.35.18.08.36.17.36.34 0 .16-.11.25-.24.34-.16.12-.34.25-.34.53 0 .36.1.57.23.66l.06.04h-.07c-1.25 0-2.32-.23-2.7-.35 0-.17.1-.46.15-.52.15-.28.6-.36.99-.43.33-.06.61-.1.61-.27s-.1-.26-.22-.34c-.1-.09-.22-.18-.22-.35 0-.27.7-.5 1.13-.52z" fill="#000b04"/><path d="m8.13 12.13c-.24 0-.3.23-.3.35h.3c.11 0 .24-.12.29-.18 0-.05-.06-.17-.3-.17zm.72-.7c-.23 0-.29.12-.29.18h.44c.05-.06.09-.18-.15-.18z" fill="#b8aba2"/><g fill="#000b04"><path d="m7.92 12.28a.4.4 0 0 0 -.06.16h.27a.3.3 0 0 0 .15-.06.63.63 0 0 0 .1-.09c0-.04-.05-.12-.25-.12-.11 0-.18.05-.21.11zm.5.02c-.05.06-.18.18-.3.18h-.29a.4.4 0 0 1 0-.04c.02-.12.08-.31.3-.31.23 0 .29.12.29.17zm.43-.83c-.16 0-.23.06-.25.1h.4l.01-.03v-.03l-.03-.02a.32.32 0 0 0 -.12-.02zm.15.14h-.44v-.04c.03-.06.1-.14.3-.14.23 0 .19.12.14.18zm-3.2-3.65.28-.7.3.7h-.15l.3.34h-.16l.3.7h-.15l.15.35h-.15l.3.35h-.15l.29.52h-.16l.3.35c-.47.13-.88-.06-1.03-.18-.23.28-.77.23-1.02.18l.3-.35h-.15l.29-.52h-.15l.15-.35h-.15l.3-.35h-.14l.3-.7h-.15l.29-.34h-.15zm7.72 1.56.44-1.22.44 1.22z"/><path d="m14.25 9.87.3-1.4.57 1.4z"/><path d="m11.04 5.17c-.64-.11-1.33-.17-2.04-.17-3.87 0-7 1.8-7 4s3.13 4 7 4 7-1.8 7-4c0-1-.65-1.92-1.71-2.62l-.04.01-.15.06c1.12.7 1.75 1.6 1.75 2.55 0 1-.71 1.96-1.96 2.67a10.04 10.04 0 0 1 -4.89 1.16c-1.92 0-3.64-.45-4.89-1.16s-1.96-1.67-1.96-2.67.71-1.96 1.96-2.67a10.04 10.04 0 0 1 4.89-1.16c.69 0 1.35.06 1.97.17z"/></g></svg>