<svg height="18" viewBox="0 0 18 18" width="18" xmlns="http://www.w3.org/2000/svg"><path d="m0 0h18v18h-18z" fill="#f0f3fa"/><path d="m9.9 12.51a16.22 16.22 0 0 1 -.94.3 7.54 7.54 0 0 1 -1.5.19c-.5 0-.92-.1-1.24-.32s-.5-.56-.53-1.01c-.04-.46.1-1.02.44-1.68.2-.43.48-.85.82-1.26a4.51 4.51 0 0 1 2-1.46 3.88 3.88 0 0 1 1.55-.27 3.6 3.6 0 0 1 1.82.42l-.68 1.39a2.02 2.02 0 0 0 -.53-.4c-.2-.1-.49-.15-.86-.15-.44 0-.83.1-1.19.3-.35.18-.65.41-.88.68s-.41.53-.53.78c-.15.3-.22.56-.23.81 0 .25.07.45.24.6.16.15.41.23.75.23.19 0 .4-.03.65-.1l.34-.68h-.68l.58-1.3h2l-1.4 2.92z" fill="#1b4588"/><path d="m2 6.8c.74-.66 5.88-3.34 11.9-.57 2.4 1.1 2.15 2.96 2.03 3.38-.3 1.04-.84 1.39-.84 1.39h-1.05s2.8-2.16-1.67-4.28c-2.08-.99-5.67-2.07-10.37.08z" fill="#e32725"/></svg>