<svg height="18" viewBox="0 0 18 18" width="18" xmlns="http://www.w3.org/2000/svg"><path d="m0 0h18v18h-18z" fill="#f0f3fa"/><g fill="#6a7b15"><path d="m9 13.7a4.7 4.7 0 1 0 0-9.4 4.7 4.7 0 0 0 0 9.4zm0 .3a5 5 0 1 0 0-10 5 5 0 0 0 0 10z" fill-rule="evenodd"/><path d="m11.4 12.36c.62-.85 1.01-2.04 1.01-3.36s-.39-2.51-1-3.36c-.62-.85-1.45-1.34-2.33-1.34-.89 0-1.71.5-2.33 1.34-.62.85-1 2.04-1 3.36s.38 2.51 1 3.36 1.44 1.34 2.33 1.34c.88 0 1.7-.5 2.32-1.34zm-2.32 1.64c2 0 3.63-2.24 3.63-5s-1.63-5-3.63-5c-2.01 0-3.64 2.24-3.64 5s1.63 5 3.64 5z" fill-rule="evenodd"/><path d="m9.99 12.44c.3-.87.48-2.08.48-3.44s-.19-2.57-.48-3.44a3.28 3.28 0 0 0 -.5-.98c-.17-.22-.32-.28-.43-.28-.1 0-.25.06-.43.28-.17.22-.34.55-.5.98-.29.87-.48 2.08-.48 3.44s.19 2.57.49 3.44c.15.43.32.76.49.98.18.22.32.28.43.28s.26-.06.43-.28c.18-.22.35-.55.5-.98zm-.93 1.56c.95 0 1.71-2.24 1.71-5s-.76-5-1.7-5c-.95 0-1.72 2.24-1.72 5s.77 5 1.71 5z" fill-rule="evenodd"/><path d="m13.4 6.87c-4.24 2.21-7.64.93-8.82-.02l.19-.23c1.1.87 4.36 2.14 8.5-.02l.14.27zm.47 2.69c-4.36 2-8.27.82-9.79-.03l.07-.3c1.46.8 5.47 1.95 9.72-.01zm-1 2.57c-3.57 1.2-6.57.47-7.77-.04v-.28c1.14.48 4.32 1.17 7.82 0z"/><path d="m7 7.2c-1.06.04-1.45 1-1.51 1.48 0 1.36 1.63 1.43 1.91 1.78.3.34.06 1.84.71 2.4.66.55 1.65-1.12 1.83-1.38.13-.22-.06-.6-.18-.75.59-.52.87-1.11.94-1.34-.76.03-.94-.71-1.3-1.1-.3-.3-.67-.5-.83-.55-1.26.01-.24-.6-1.57-.54z"/><path d="m7.7 5.86c-.35.15-.86.76-1.08 1.05 1.03-.29 1.72.14 2.17.29.44.15.11-.71.6-.6.5.12 0 .6 0 1.04 0 .35.67 1.1 1 1.44.47.04 1.1-.67.77-.79-.32-.11-.86-.32 0-.32.87 0 .81.32 1.27.7.46.39.63-1.3.86-.7.19.47.48.41.6.32a5.03 5.03 0 0 0 -3.36-3.95l-.88.84c-.29.27-.48-.24-.86-.26-.39-.02-.68.74-1.1.94zm0-.79c-.48.12-.83-.22-.95-.4a5.52 5.52 0 0 1 2.04-.58c-.17.28-.62.86-1.1.98zm-3.04 5.39c0-.4-.38-.88-.57-1.07 0 .56.38 1.54.57 1.95zm5.74 1.88c-.2-.1-.49-.43-.14-.86.44-.54.6.02.14.86z"/></g></svg>