<svg height="18" viewBox="0 0 18 18" width="18" xmlns="http://www.w3.org/2000/svg"><path d="m0 0h18v18h-18z" fill="#f0f3fa"/><path d="m11.26 4.54a10.5 10.5 0 0 1 -.76 2.59h-6.14a5 5 0 0 1 6.9-2.59zm1.13.78c-.12.56-.3 1.17-.54 1.8h1.79c-.28-.69-.71-1.3-1.25-1.8zm1.57 3.06h-2.66a12.17 12.17 0 0 1 -3.18 3.9l1.16-.3c1.7-.49 3.4-1.13 4.62-1.93a5.02 5.02 0 0 0 .07-1.67zm-.91 3.55c-1.08.51-2.29.92-3.44 1.25-.78.21-1.54.4-2.25.55a5 5 0 0 0 5.69-1.8zm-7.6.6c2.1-1.1 3.5-2.63 4.4-4.15h-5.8a5.05 5.05 0 0 0 1.41 4.14z" fill="#d51e3d"/></svg>