<!-- by TradingView --><svg width="18" height="18" viewBox="0 0 18 18" xmlns="http://www.w3.org/2000/svg"><path fill="#F0F3FA" d="M0 0h18v18H0z"/><path d="M12.81 11.46A4.67 4.67 0 0 1 8.71 14C6.11 14 4 11.76 4 9s2.1-5 4.71-5c1.29 0 2.46.55 3.3 1.44l-.6.7A3.65 3.65 0 0 0 8.76 5C6.7 5 5 6.8 5 9s1.69 4 3.77 4c1.29 0 2.42-.68 3.1-1.73l.94.2Z" fill="#20386F"/><path d="M9 11.5s1.22-.5 1.82-.5c.6 0 1.8.5 3.18.5 0 0-.78.5-1.72.5-.95 0-1.65-.5-3.28-.5Z" fill="#20386F"/><path d="M8 7.5S9.22 7 9.82 7c.6 0 1.43.5 3.18.5 0 0-.78.5-1.72.5-.95 0-1.4-.5-3.28-.5Z" fill="#069EDB"/><path d="M7 9.5S8.37 9 9.55 9c1.17 0 2.3.5 4.45.5 0 0-.86.5-2.41.5-1.55 0-2.1-.58-4.59-.5Z" fill="#41BFAA"/></svg>