<svg height="18" viewBox="0 0 18 18" width="18" xmlns="http://www.w3.org/2000/svg"><path d="m0 0h18v18h-18z" fill="#f0f3fa"/><path d="m12.5 12.64c-1.27 1.23-2.74 1.36-4.2 1.36a5.27 5.27 0 0 1 -5.3-5.25 5.27 5.27 0 0 1 6.15-5.18c.39.06.61.45.52.83-.1.42-.53.66-.96.62a3.78 3.78 0 0 0 -4.2 3.73c-.01 2.07 1.7 3.75 3.8 3.75 1.66 0 3.3-.3 4.03-2.5h-1.59a.75.75 0 0 1 0-1.5h2.5c.41 0 .75.34.75.75v4a.75.75 0 0 1 -1.5 0zm.75-4.65c.41 0 .75-.33.75-.74a.75.75 0 0 0 -.75-.75.75.75 0 0 0 -.75.75c0 .4.34.74.75.74z" fill="#2a4246"/></svg>