<svg height="18" viewBox="0 0 18 18" width="18" xmlns="http://www.w3.org/2000/svg"><path d="m4.14 10.71c0 .82.17 1.6.48 2.29a5.7 5.7 0 0 1 -.62-2.6c0-2.98 2.25-5.4 5.03-5.4a5.16 5.16 0 0 1 4.97 4.64 5.31 5.31 0 0 0 -2.77-3.78c-.21-.04-.49-.04-.66.12.38.27.78.63 1.14 1.09.26-.02.52-.03.79-.03-.24.04-.47.1-.7.15.28.37.54.8.73 1.29.06-.04.1-.1.15-.17.27-.43.11-1.02 0-1.26.21.27.53.97.1 1.58a.7.7 0 0 1 -.14.15c.16.5.27 1.07.29 1.7a7.58 7.58 0 0 0 -.42-1.63c-.66.32-1.84-.36-2.16-1.11l-.02-.06c-.65.28-1.25.61-1.79.98.14.44.32.84.48 1.14-.19-.27-.4-.65-.57-1.08a10.97 10.97 0 0 0 -3.25 3.43 8.92 8.92 0 0 1 3.1-3.85c-.3-.95-.36-2.03.39-2.75a6.8 6.8 0 0 0 -.25.05c-1.64.32-2.02 1.2-2.24 1.76s-.4 1.33-.02 2.87c-.35-.85-.74-2.64.1-3.91a5.47 5.47 0 0 0 -2.14 4.4zm5.64-5.2c.2.1.43.22.67.38.09-.06.2-.1.33-.13l-.08-.03a2.6 2.6 0 0 0 -.92-.22zm.47.56c-.4-.22-.76-.35-1.04-.4-.93.5-1 1.57-.78 2.55a7.19 7.19 0 0 1 1.78-.86c-.16-.5-.2-.98.04-1.29zm2.14 2.47c-.23-.5-.5-.94-.8-1.3l-.9.3c.08.1.16.2.26.3.46.47 1.04.81 1.44.7zm-.92-1.45a4.95 4.95 0 0 0 -1.03-.9c-.1.3-.09.69.1 1.08.3-.08.6-.14.93-.18z" fill="#a3804a"/><path d="m8 10h6v3h-6z" opacity=".5"/></svg>