<svg height="18" viewBox="0 0 18 18" width="18" xmlns="http://www.w3.org/2000/svg"><path d="m0 0h18v18h-18z" fill="#016fd1"/><g fill="#fefeff"><path d="m9.5 6.5v2.5h1.16zm3 0v2.5h-1.16zm.92-1.5h.58v4h-.58zm-8.27 0h.74l-2.15 4h-.74zm2.01 0h-.69l2.03 3.5v-1.22z"/><path d="m5.32 5h1.74v.5h-1.74zm2.68 0h1.95v.5h-1.95zm3.68 0h1.74v.5h-1.74zm-8.1 3.5h9.84v.5h-9.84zm2.6-2.5.69 1.5h-1.37zm3.32 5-1.5 2v-4zm4.5 2-2.5-2.07 2.5-2.43v1.06l-1.5 1.44 1.5 1.11zm-3.47-2.5-1.45-1.5h2.9zm-1.48 2.5 1.48-1.75 1.47 1.75h-.88l-.6-.75-.59.75z"/><path d="m5.34 8-.35.75h2.44l-.35-.75zm2.66-3h.5v2.5l-.5-.33zm2.38 0h-.72l1.16 2.5 1.15-2.5h-.72l-.43.96zm-5.96 4h.58v4h-.58zm5.53 3.5-.59.5h-4.36v-.5zm4.05 0v.5h-2.14l-.75-.5zm-7.7-2.5h2.2v.5h-2.2zm0 1h2.32v.5h-2.32z"/></g></svg>