<svg height="18" viewBox="0 0 18 18" width="18" xmlns="http://www.w3.org/2000/svg"><path d="m0 0h18v18h-18z" fill="#f0f3fa"/><path d="m16 5s-6.34-.2-6.79 2.33c-.33 1.93 3.22 1.94 3.22 1.94s-1.66-.47-1.03-2.17c.7-1.9 4.6-2.1 4.6-2.1zm-5.86 4-2.09 3.95c-.57.17-6.58.13-6.01-3.54.74-4.78 9.5-4.4 9.5-4.4s-5.4.36-6.65 3.91c-.78 2.24.34 3.44 1.48 3.64l1.35-2.22.01-.02.03-.04c.33-.6-.56-1.28-.56-1.28zm-1.68 4s4.71-.33 5.17-3.38c.2-1.39-1.43-1.7-1.43-1.7s3.61.06 3.24 2.23c-.3 1.7-2.7 2.85-6.91 2.85" fill="#00366d"/></svg>