<svg height="18" viewBox="0 0 18 18" width="18" xmlns="http://www.w3.org/2000/svg"><path d="m0 0h18v18h-18z" fill="#f0f3fa"/><path d="m6.76 8.78h-2.48c-.1.03-.19.14-.19.3 0 .14.08.28.19.3.03.02.07.02.1 0h1.4a1.45 1.45 0 0 1 -1.4 1.07c-.67 0-1.43-.66-1.43-1.47 0-.8.63-1.45 1.43-1.45.4-.02.79.16 1.1.5h1a2.52 2.52 0 0 0 -2.1-1.03c-1.31-.04-2.38.87-2.38 1.98s1.07 2.02 2.4 2.02c1.31 0 2.37-.89 2.37-2.02zm2.45 1.78.78-1.68.43 2.12h.86l-.87-4h-.36l-1.05 2.37-1.07-2.37h-.35l-.88 4h.86l.44-2.14.79 1.7h.43zm2.02-1.56c0-1.1 1.07-2 2.38-2 1.32 0 2.39.9 2.39 2s-1.07 2-2.39 2c-1.31 0-2.38-.9-2.38-2zm.95 0c0 .8.63 1.46 1.43 1.46s1.44-.68 1.44-1.46-.64-1.44-1.44-1.44-1.43.64-1.43 1.44z" fill="#005bac"/></svg>