<svg height="18" viewBox="0 0 18 18" width="18" xmlns="http://www.w3.org/2000/svg"><path d="m0 0h18v18h-18z" fill="#f0f3fa"/><path d="m9 10.73h.2s.02 0 .02-.02l.8-1.85.44 2.12s0 .02.02.02h.84s.02-.01.01-.02l-.88-3.96-.03-.02h-.31l-.03.02-1.08 2.36-1.08-2.36-.03-.02h-.31l-.03.02-.88 3.96.01.02h.84l.02-.02.44-2.12.8 1.85.03.02zm-2.35-1.96c0-.01 0-.02-.02-.02h-2.3c-.12 0-.22.14-.22.31 0 .18.1.34.22.34h1.37a1.4 1.4 0 0 1 -1.37 1.04c-.78 0-1.41-.64-1.41-1.44s.63-1.44 1.41-1.44c.43 0 .81.14 1.07.44h.97c-.4-.6-1.16-1-2.04-1-1.29-0-2.33.9-2.33 2s1.04 2 2.33 2c1.3 0 2.34-.9 2.34-2 0-.08 0-.16-.02-.23zm7.02 1.67c-.79 0-1.42-.64-1.42-1.44s.63-1.44 1.42-1.44c.78 0 1.41.64 1.41 1.44s-.63 1.44-1.41 1.44zm0-3.44c-1.3 0-2.34.9-2.34 2s1.05 2 2.34 2 2.33-.9 2.33-2-1.04-2-2.33-2z" fill="#005bac"/></svg>