<svg height="18" viewBox="0 0 18 18" width="18" xmlns="http://www.w3.org/2000/svg"><path d="m0 0h18v18h-18z" fill="#f0f3fa"/><path d="m9 9h4v3.6a14.76 14.76 0 0 1 -3.8.4 7.4 7.4 0 0 1 -2.85-.48 3.9 3.9 0 0 1 -1.76-1.38c-.39-.6-.59-1.32-.59-2.14 0-.81.22-1.52.67-2.11a4.26 4.26 0 0 1 1.91-1.39c.84-.33 1.85-.5 3.04-.5a11.64 11.64 0 0 1 3.23.46l-.52.85a10.16 10.16 0 0 0 -2.79-.45c-.86 0-1.6.13-2.22.38a2.84 2.84 0 0 0 -1.9 2.76c0 .62.14 1.17.42 1.65.28.47.72.84 1.32 1.1.6.27 1.38.4 2.35.4a14.47 14.47 0 0 0 1.53-.1l.6-.09v-1.96h-2.64z" fill="#484848"/></svg>