<svg fill="none" height="18" viewBox="0 0 18 18" width="18" xmlns="http://www.w3.org/2000/svg"><path d="m0 0h18v18h-18z" fill="#6e93be"/><path d="m6 9.33978.64754.53283v2.67549c0 .028.00224.0802-.16132.0802-1.0666-.0802-1.48622-1.148-1.48622-3.61794 0-2.42315.67-3.61802 1.49967-3.61802.57132 0 .69136.4057.99607 1.29963l.32711.97469h.64846v-2.50392c-.78642-.14044-1.51553-.16274-1.84265-.16274-2.57433 0-3.62866 1.36649-3.62866 4.03489 0 2.48111.9679 3.96511 3.53103 3.96511.62958 0 1.12379-.0551 1.93932-.2067v-3.7933h-2.47035zm6.5459-.95688-1.1785-.65983c-.6184-.34772-.9321-.76458-.9321-1.29963 0-.61522.4078-1.02093 1.0956-1.02093.6296 0 1.0698.35888 1.3835 1.32188l.3137.9423h.7719v-2.50942c-.7819-.10476-1.5953-.15724-2.0142-.15724-1.8641 0-2.98439.84159-2.98439 2.21036 0 .90502.49067 1.50465 1.38689 1.97949l1.165.62637c.6767.35895.9903.82255.9903 1.46235 0 .7891-.5018 1.3799-1.2009 1.3799-.6632 0-1.2815-1.0223-1.79461-2.6585h-.54809v2.8324c.72368.127 1.4801.1676 2.0044.1676 1.9112 0 2.9956-.8631 2.9956-2.4392.0022-1.02319-.4638-1.62282-1.4541-2.1779z" fill="#fff"/></svg>