<svg height="18" width="18" xmlns="http://www.w3.org/2000/svg"><path d="m0 0h18v18h-18z" fill="#f0f3fa"/><path d="m11.34 10.82c-.44 1.3-1.32 2.18-2.34 2.18s-1.9-.89-2.34-2.18c-1.22-.38-2.04-1.05-2.04-1.82s.82-1.44 2.04-1.82c.44-1.3 1.32-2.18 2.34-2.18s1.9.89 2.34 2.18a4 4 0 0 1 1.54.82h-1a4.1 4.1 0 0 0 -.37-.15c.06.27.1.55.1.84h1.72c.03.1.04.2.04.31 0 .77-.8 1.44-2.03 1.82zm-.7.18c-.36.84-.96 1.38-1.64 1.38s-1.28-.54-1.65-1.38a8.43 8.43 0 0 0 3.3 0zm.24-.66a8.42 8.42 0 0 1 -3.76 0 5.34 5.34 0 0 1 0-2.68 8.42 8.42 0 0 1 3.76 0c.08.32.13.67.15 1.03h-2.03c0 .34.28.62.62.62h1.41c-.02.36-.07.7-.15 1.03zm.63-.19c.6-.22 1.04-.5 1.2-.84h-1.1c0 .29-.04.57-.1.84zm-.86-3.15a8.43 8.43 0 0 0 -3.3 0c.37-.84.97-1.38 1.65-1.38s1.28.54 1.65 1.38zm-4.16.85c-.79.28-1.29.7-1.29 1.15 0 .46.5.87 1.28 1.15a5.97 5.97 0 0 1 0-2.3zm-4.49.15h2.56c-.22.2-.89 1.22 0 2h-.89c-.17 0-.24-.05-.3-.11zm11.44 0h2.56l-1.38 1.88c-.05.07-.13.11-.3.12h-.88c.89-.78.22-1.8 0-2z" fill="#b9a154" fill-rule="evenodd"/></svg>