<svg height="18" viewBox="0 0 18 18" width="18" xmlns="http://www.w3.org/2000/svg" xmlns:xlink="http://www.w3.org/1999/xlink"><linearGradient id="a" gradientUnits="userSpaceOnUse" x1="6.15" x2="10.8" y1="9.51" y2="13.04"><stop offset=".21" stop-color="#fff"/><stop offset=".43" stop-color="#ff7537"/><stop offset=".64" stop-color="#d6240f"/><stop offset=".82" stop-color="#cc1106"/></linearGradient><linearGradient id="b" gradientUnits="userSpaceOnUse" x1="4.41" x2="13.69" y1="7.24" y2="8.53"><stop offset="0" stop-color="#ce1207"/><stop offset=".3" stop-color="#fb0204"/><stop offset=".71" stop-color="#fb3913"/><stop offset="1" stop-color="#c21005"/></linearGradient><path d="m0 0h18v18h-18z" fill="#f0f3fa"/><path d="m10.5 13.6-.08.04c-.42.19-.92.36-1.42.36s-1-.17-1.42-.36l-.09-.03-.03-.1-1.16-3.6c-.07-.09-.16-.15-.25-.21l-.58-.4h7.06l-.58.4c-.09.06-.18.12-.25.21l-1.16 3.6-.03.1z"/><path d="m11.52 9.82-1.17 3.62c-.42.18-.9.34-1.35.34s-.93-.16-1.35-.34l-1.17-3.62c-.03-.09-.23-.24-.32-.3h5.68c-.1.06-.3.21-.32.3z" fill="url(#a)"/><path d="m4.93 8c.17-.96 1.02-2.6 3.36-3 .05 0 .1 0 .14.04.1.08.1.26-.02.34-.23.16-.48.38-.6.55-.18.24-.3.56-.3 1.02 0 .86.77 1.48 1.49 1.48s1.49-.62 1.49-1.48c0-.46-.12-.78-.3-1.02a2.76 2.76 0 0 0 -.6-.54c-.12-.08-.13-.27-.02-.35a.18.18 0 0 1 .14-.04c2.34.4 3.2 2.03 3.36 3h.93v.6c0 .5-.38.9-.85.9h-8.3c-.47 0-.85-.4-.85-.9v-.6z"/><path d="m7.32 6.95c0 1 .88 1.68 1.68 1.68s1.68-.68 1.68-1.68-.53-1.46-1.07-1.76c2.45.4 3.22 2.19 3.3 3.04h.9v.37c0 .38-.3.7-.66.7h-8.3c-.36 0-.66-.32-.66-.7v-.37h.9c.08-.85.85-2.65 3.3-3.04-.54.3-1.07.75-1.07 1.76z" fill="url(#b)"/><path d="m9.58 8.52a1.7 1.7 0 0 0 1.1-1.57c0-.53-.14-.9-.36-1.18.5.22.84.73.84 1.33 0 .8-.6 1.44-1.36 1.44-.07 0-.15 0-.22-.02zm-2.21-3.05-.62 1.56c-.16.38-.46.68-.83.82l-.81.3a3.5 3.5 0 0 1 2.26-2.68z" fill="#fff"/><path d="m10.32 11.6-1.32 1.5-1.32-1.5z"/></svg>