<svg height="18" viewBox="0 0 18 18" width="18" xmlns="http://www.w3.org/2000/svg"><path d="m0 0h18v18h-18z" fill="#f0f3fa"/><path d="m5 6h-3v1h1v5h1v-5h1zm4 5.4c-.42.38-.94.6-1.5.6-1.38 0-2.5-1.34-2.5-3s1.12-3 2.5-3c1.09 0 2.01.83 2.36 2h-1.06c-.26-.6-.74-1-1.3-1-.83 0-1.5.9-1.5 2s.67 2 1.5 2c.56 0 1.04-.4 1.3-1h-.8v-1h2v3h-1zm6 0c-.42.38-.94.6-1.5.6-1.38 0-2.5-1.34-2.5-3s1.12-3 2.5-3c1.09 0 2.01.83 2.36 2h-1.06c-.26-.6-.74-1-1.3-1-.83 0-1.5.9-1.5 2s.67 2 1.5 2c.56 0 1.04-.4 1.3-1h-.8v-1h2v3h-1z" fill="#103842"/></svg>