<svg height="18" viewBox="0 0 18 18" width="18" xmlns="http://www.w3.org/2000/svg" xmlns:xlink="http://www.w3.org/1999/xlink"><linearGradient id="a"><stop offset="0" stop-color="#0d66c6"/><stop offset="1" stop-color="#6011c5"/></linearGradient><linearGradient id="b" gradientUnits="userSpaceOnUse" x1="4.58" x2="13.89" xlink:href="#a" y1="8.53" y2="11.18"/><linearGradient id="c" gradientUnits="userSpaceOnUse" x1="4.34" x2="13.66" xlink:href="#a" y1="9.35" y2="12"/><linearGradient id="d" gradientUnits="userSpaceOnUse" x1="4.03" x2="13.34" xlink:href="#a" y1="10.46" y2="13.12"/><linearGradient id="e" gradientUnits="userSpaceOnUse" x1="5.69" x2="15" xlink:href="#a" y1="4.64" y2="7.29"/><path d="m0 0h18v18h-18z" fill="#f0f3fa"/><path d="m7.34 13.9 2.53-8.82h.04c1.28.33 2.02 1.51 1.7 2.7l-1.31 4.58c-.36 1.18-1.68 1.87-2.96 1.54z" fill="url(#b)"/><path d="m13.14 14c-1.31-.33-2.06-1.54-1.7-2.72l.74-2.56h.04c1.28.33 2.03 1.51 1.7 2.69l-.77 2.59z" fill="url(#c)"/><path d="m4 13.9 1.85-6.46h.04c1.28.33 2.02 1.51 1.7 2.7l-.64 2.19a2.42 2.42 0 0 1 -2.95 1.57z" fill="url(#d)"/><path d="m9.12 4.23c-.03-.4-.6-1.15-.96-1.21-.35-.1-.6.26-.89.55-.28.33-.42.46-.6.56s-.4.23-.46.43c-.04.16.2.26.14.55-.1.37-.64.2-.82.8-.1.35.64 1.04 1.85 1.34.53.13 1.14-.27 1.32-.86.14-.59.5-1.67.42-2.16z" fill="url(#e)"/></svg>