<svg height="18" viewBox="0 0 18 18" width="18" xmlns="http://www.w3.org/2000/svg"><path d="m0 0h18v18h-18z" fill="#f0f3fa"/><path d="m3.8 6h5a2.13 2.13 0 0 0 -1.04 2h-1.81c-.16-.83-.52-1.4-.93-1.4-.56 0-1.02 1.05-1.02 2.37s.46 2.39 1.02 2.39c.5 0 .92-.86 1-2h-1.02v-.75h2.87l.06.19c.03.12.17.46.51.84s.56.94.63 1.17a1.6 1.6 0 0 1 -.92-.34l-.13.12c.27.28.81.41 1.05.45l-.06.28c-.62 0-1.15-.4-1.33-.59l-.18.08c.31.48 1.07.7 1.41.74l-.2.26a3.02 3.02 0 0 1 -1.67-.92h-.17c.28.57 1.1.97 1.49 1.1h-4.56c-1.3-.24-1.74-1.7-1.8-2.39v-1.06c.14-1.82 1.26-2.44 1.8-2.54zm3.66 3.8.13.23.1-.06-.1-.23-.13.05zm-.99.34-.07-.27h.12l.1.27zm.24.53-.15-.28h.15l.17.28h-.18zm.26-.76.1.26.15-.03-.11-.23zm.36.73-.15-.25.17-.04.14.22zm.51-.22-.15-.2.13-.05.14.18zm1.8-1.42c0 .35-.29.64-.64.64a.64.64 0 0 1 -.64-.64c0-.35.29-.64.64-.64s.64.29.64.64zm-.58 3h2.94v-2h.94l.14.01c.3.01.89.04.92.53v1.46h2c-.09-.05-.27-.25-.3-.6v-1.09a1.49 1.49 0 0 0 -1.02-1.3 1.54 1.54 0 0 0 1.02-1.44c0-1.11-.78-1.5-1.45-1.57h-4.64c.32.12 1.06.53 1.43 1.2h-.19a2.58 2.58 0 0 0 -1.64-1.02l-.2.32c.24-.02.86.11 1.4.79l-.17.06c-.17-.2-.66-.6-1.3-.63l-.04.34c.23.02.74.14.99.49l-.13.09a1.5 1.5 0 0 0 -.81-.35c.06.2.28.73.66 1.13.48.5.59 1.29.58 1.6 0 .32-.02 1.38-1.13 1.98zm1.97-4.54h.17l.14.33h-.14zm-.45.04-.17.05.17.27.15-.03-.15-.3zm-.65.3.14-.1.14.22-.1.1-.18-.23zm.28.4.11-.07.1.23-.1.05-.1-.21zm.48-.18h.15l.08.24h-.13zm.75 0h-.14l.1.31h.13l-.1-.31zm.56-1.02h.73a1 1 0 1 1 0 2h-.73z" fill="#015fa9" fill-rule="evenodd"/></svg>