<svg height="18" viewBox="0 0 18 18" width="18" xmlns="http://www.w3.org/2000/svg"><path d="m0 0h18v18h-18z" fill="#f0f3fa"/><path d="m10.43 4.32c-.51-.51-1.46-.4-2.1.25-.66.65-.77 1.6-.26 2.1.51.52 1.46.4 2.1-.24.66-.65.77-1.6.26-2.1zm-2.25 3c-.51-.51-1.46-.4-2.1.25-.66.65-.77 1.6-.26 2.1.51.52 1.46.4 2.1-.24.66-.65.77-1.6.26-2.1zm-3.6 3.25c.64-.65 1.59-.76 2.1-.25s.4 1.46-.25 2.1c-.65.66-1.6.77-2.1.26-.52-.51-.4-1.46.24-2.1zm5.6-.25c-.51-.51-1.46-.4-2.1.25-.66.65-.77 1.6-.26 2.1.51.52 1.46.4 2.1-.24.66-.65.77-1.6.26-2.1zm1.4.25c.64-.65 1.59-.76 2.1-.25s.4 1.46-.25 2.1c-.65.66-1.6.77-2.1.26-.52-.51-.4-1.46.24-2.1zm.1-3.25c-.51-.51-1.46-.4-2.1.25-.66.65-.77 1.6-.26 2.1.51.52 1.46.4 2.1-.24.66-.65.77-1.6.26-2.1z" fill="#df1014"/></svg>