<svg height="18" viewBox="0 0 18 18" width="18" xmlns="http://www.w3.org/2000/svg"><path d="m0 0h18v18h-18z" fill="#f0f3fa"/><path d="m9.16 14h-.32v-4.55c0-.7-.3-1.35-1.01-1.93l-2.61-1.79s-.13.3-.1.5c.04.2.15.32.31.44l2.11 1.35c.42.21.83.92.83 1.55v4.39l-.37-.03v-4.18c0-.32-.08-.82-.66-1.18l-2.84-1.74s-.1.27-.08.45c.04.27.17.34.43.55l2.3 1.25c.46.27.44.58.44 1v3.72l-.28-.08v-3.54c0-.27-.1-.53-.45-.64l-2.78-1.42s-.06.3 0 .48c.08.23.15.3.4.46l2.1.9c.14.05.23.17.23.4v3.16a5 5 0 1 1 4.38-.02v-3.15c0-.22.09-.34.24-.4l2.09-.89c.25-.17.33-.23.4-.46.06-.17 0-.47 0-.47l-2.78 1.4c-.34.12-.42.38-.42.65v3.53l-.31.1v-3.72c0-.43-.02-.74.43-1l2.32-1.26c.25-.2.38-.28.42-.55a1.1 1.1 0 0 0 -.08-.44l-2.84 1.73a1.3 1.3 0 0 0 -.66 1.18v4.16l-.38.05v-4.4c0-.62.42-1.33.84-1.54l2.11-1.35c.16-.12.27-.23.31-.44.03-.2-.1-.5-.1-.5l-2.6 1.8c-.71.57-1.02 1.21-1.02 1.92z" fill="#05518f"/></svg>