<svg height="18" viewBox="0 0 18 18" width="18" xmlns="http://www.w3.org/2000/svg"><path d="m0 0h18v18h-18z" fill="#0f261e"/><path d="m5 5.8a2.8 2.8 0 0 1 2.8-2.8h2.4a2.8 2.8 0 0 1 2.8 2.8v6.4a2.8 2.8 0 0 1 -2.8 2.8h-2.4a2.8 2.8 0 0 1 -2.8-2.8zm2.8-2.4h2.4a2.4 2.4 0 0 1 2.4 2.4v1.12l-1.39-1.4-2.14 2.13.26.3 1.86-1.88 1.41 1.41v4.87l-1.4-1.22-3.48 3.47a2.4 2.4 0 0 1 -2.32-2.4v-.9l2.99-2.43 1.27 1.27.28-.28-1.53-1.53-3.01 2.45v-4.98a2.4 2.4 0 0 1 2.4-2.4zm.48 11.2h1.92a2.6 2.6 0 0 0 2.3-1.8l-1.3-1.13z" fill="#778a86" fill-rule="evenodd"/></svg>