<svg height="18" width="18" xmlns="http://www.w3.org/2000/svg"><path d="m0 0h18v18h-18z" fill="#623493"/><g fill="#fff"><path d="m10.132 12.884c-.426.492-.316.584-1.04.733a1.938 1.938 0 0 1 -.82-.123 1.998 1.998 0 0 1 -.692-.473c-.383-.416-.586-1.004-.586-1.698v-3.735l-2.994 6.412h6.147l.22-.566z"/><path d="m9.002 11.996c.304 0 .678-.046.822-.26.123-.184.184-.482.184-.933v-.8h-1.005v-1.004h1.997v2.229l3-7.228h-6.141l-.25.646a2.56 2.56 0 0 1 1.18-.258c.738 0 1.212.255 1.63.737.38.438.588 1.06.588 1.75v.607h-1.007v-.038c0-1.383-.447-1.465-.997-1.465-.085-.005-.472.026-.551.059a.811.811 0 0 0 -.252.175c-.129.155-.197.375-.197.717v4.164c.001.615.432.895 1 .902z"/></g></svg>