<svg height="18" viewBox="0 0 18 18" width="18" xmlns="http://www.w3.org/2000/svg"><path d="m0 0h18v18h-18z" fill="#f0f3fa"/><path d="m9 4c-.33.34-1 1.29-1 2.36 0 1.08.65 1.64 1 1.64s1-.56 1-1.64c0-1.06-.67-2.02-1-2.36zm-.1 2.1a.86.86 0 0 0 -.36.73c0 .53.3.8.46.8s.46-.27.46-.8c0-.42-.2-.6-.35-.73l-.11-.1z" fill="#0071bb" fill-rule="evenodd"/><path d="m6.55 7c-.97 0-1.43.65-1.54.94.1-.1.48-.27 1.21-.27.91 0 1.78.73 1.78 1.66 0 1.82-2.15 2.2-2.95 2.2s-1.05-.38-1.05-.65c0-.28.17-.4.57-.4 1.06 0 1.61.24 2.09.4-.51-.62-1.28-.88-2.23-.88s-1.43.41-1.43.8c0 .66.8 1.2 2.01 1.2 2.9 0 3.99-1.51 3.99-2.64 0-1.12-1.24-2.36-2.45-2.36zm4.9 0c.97 0 1.43.65 1.54.94-.1-.1-.48-.27-1.21-.27-.91 0-1.78.73-1.78 1.66 0 1.82 2.15 2.2 2.95 2.2s1.05-.38 1.05-.65c0-.28-.17-.4-.57-.4-1.06 0-1.61.24-2.09.4.51-.62 1.28-.88 2.23-.88s1.43.41 1.43.8c0 .66-.8 1.2-2.01 1.2-2.9 0-3.99-1.51-3.99-2.64 0-1.12 1.24-2.36 2.45-2.36z" fill="#79c041"/></svg>