<svg height="18" viewBox="0 0 18 18" width="18" xmlns="http://www.w3.org/2000/svg"><path d="m0 0h18v18h-18z" fill="#f0f3fa"/><path d="m9.03 14.84-2.57-1.44v-2.9l2.57-1.45 2.57 1.45v2.9l-2.57 1.45zm-2.36-1.56 2.36 1.33 2.36-1.33v-2.68l-2.36-1.32-2.36 1.33z" fill="#7bc24e"/><path d="m9.03 9.34-2.6-1.47v-2.93l2.6-1.47 2.6 1.47v2.93zm-2.33-1.62 2.32 1.31 2.33-1.3v-2.65l-2.32-1.28-2.33 1.28v2.63z" fill="#00984c"/><path d="m6.56 10.67-2.56-1.45v-2.9l2.57-1.45 2.57 1.45v2.9l-2.57 1.45zm-2.36-1.57 2.37 1.34 2.35-1.34v-2.66l-2.36-1.33-2.36 1.33z" fill="#7bc24e"/><path d="m11.5 10.67-2.59-1.45v-2.9l2.57-1.45 2.57 1.45v2.9l-2.57 1.45zm-2.38-1.57 2.36 1.34 2.32-1.34v-2.66l-2.3-1.33-2.37 1.33v2.66z" fill="#7bc24e"/><path d="m6.57 13.51-2.6-1.47v-2.93l2.6-1.47 2.6 1.47v2.93zm-2.38-1.61 2.37 1.31 2.33-1.31v-2.64l-2.32-1.3-2.38 1.3v2.63z" fill="#00984c"/><path d="m11.5 13.5-2.6-1.46v-2.94l2.6-1.47 2.54 1.47v2.94zm-2.32-1.62 2.33 1.31 2.3-1.3v-2.64l-2.3-1.32-2.33 1.32v2.62z" fill="#00984c"/><path d="m9.02 4.12c.32 0 .58-.25.58-.56s-.26-.56-.58-.56a.57.57 0 0 0 -.57.56c0 .3.26.56.57.56zm2.46 4.21c.32 0 .58-.25.58-.56 0-.3-.26-.56-.58-.56a.57.57 0 0 0 -.57.56c0 .31.26.56.57.56zm-4.93 0c.31 0 .57-.25.57-.56 0-.3-.26-.56-.57-.56a.57.57 0 0 0 -.58.56c0 .31.26.56.58.56zm2.47 4.17c.32 0 .58-.25.58-.56 0-.3-.26-.56-.58-.56a.57.57 0 0 0 -.57.56c0 .31.26.56.57.56zm4.91 0c.31 0 .57-.25.57-.56 0-.3-.26-.56-.57-.56a.57.57 0 0 0 -.57.56c0 .31.25.56.57.56zm-9.86 0c.32 0 .57-.25.57-.56 0-.3-.25-.56-.57-.56a.57.57 0 0 0 -.57.56c0 .31.26.56.57.56z" fill="#3d4643"/><path d="m11.48 13.83c.32 0 .58-.25.58-.56 0-.3-.26-.56-.58-.56a.57.57 0 0 0 -.57.56c0 .3.26.56.57.56zm-4.93 0c.31 0 .57-.25.57-.56 0-.3-.26-.56-.57-.56a.57.57 0 0 0 -.58.56c0 .3.26.56.58.56zm7.38-4.17c.31 0 .57-.25.57-.56 0-.3-.26-.56-.57-.56a.57.57 0 0 0 -.57.56c0 .3.25.56.57.56zm-4.91 0c.32 0 .58-.25.58-.56 0-.3-.26-.56-.58-.56a.57.57 0 0 0 -.57.56c0 .3.26.56.57.56zm-4.95 0c.32 0 .57-.25.57-.56 0-.3-.25-.56-.57-.56a.57.57 0 0 0 -.57.56c0 .3.26.56.57.56zm7.41-4.16c.32 0 .58-.24.58-.55s-.26-.56-.58-.56a.57.57 0 0 0 -.57.56c0 .3.26.56.57.56zm-4.93 0c.31 0 .57-.24.57-.55s-.26-.56-.57-.56a.57.57 0 0 0 -.58.56c0 .3.26.56.58.56z" fill="#00984c"/><path d="m9.02 6.72c.22 0 .39-.17.39-.38 0-.2-.17-.38-.39-.38a.38.38 0 0 0 -.38.38c0 .21.17.38.38.38zm-4.95 0c.22 0 .39-.17.39-.38 0-.2-.17-.38-.39-.38a.38.38 0 0 0 -.38.38c0 .21.17.38.38.38zm9.86 0c.21 0 .38-.17.38-.38 0-.2-.17-.38-.38-.38a.38.38 0 0 0 -.39.38c0 .21.17.38.39.38zm-7.38 4.22c.21 0 .38-.16.38-.37s-.17-.38-.38-.38a.38.38 0 0 0 -.39.38c0 .2.17.37.39.37zm4.93 0c.22 0 .39-.16.39-.37s-.17-.38-.39-.38a.38.38 0 0 0 -.38.38c0 .2.17.37.38.37zm-2.46 4.06c.22 0 .39-.17.39-.38 0-.2-.17-.37-.39-.37a.38.38 0 0 0 -.38.37c0 .21.17.38.38.38z" fill="#7bc24e"/></svg>