<svg height="18" width="18" xmlns="http://www.w3.org/2000/svg"><path d="m0 0h18v18h-18z" fill="#006f5b"/><path d="m11.209 4.436a3.172 3.172 0 0 0 -1.209-.434v2.005zm-3.209 6.171-3.606-3.607c-.18.38-.315.79-.394 1.222l4 4.188zm0-3.161-2.218-2.446a4.87 4.87 0 0 0 -.782.866l3 3.414zm.008-3.446a3.073 3.073 0 0 0 -1.195.429l1.195 1.571zm1.992 10c2.115-.223 3.792-1.899 4-4.002l-4 3.969zm-6-4.002c.2 2.107 1.881 3.787 4 4.002v-.031zm6 2.44 4-4.204a4.954 4.954 0 0 0 -.392-1.234l-3.608 3.625zm0-3.124 3-3.436a4.867 4.867 0 0 0 -.783-.878l-2.217 2.464z" fill="#fff"/></svg>