<svg height="18" viewBox="0 0 18 18" width="18" xmlns="http://www.w3.org/2000/svg"><path d="m0 0h18v18h-18z" fill="#f0f3fa"/><g fill-rule="evenodd"><path d="m9 13.33a4.33 4.33 0 1 0 0-8.66 4.33 4.33 0 0 0 0 8.66zm0-1a3.33 3.33 0 1 0 0-6.66 3.33 3.33 0 0 0 0 6.66z" fill="#a90533"/><path d="m9 11.33a2.33 2.33 0 1 0 0-4.66 2.33 2.33 0 0 0 0 4.66zm0-.33a2 2 0 1 0 0-4 2 2 0 0 0 0 4z" fill="#a90533"/><path d="m15 9a6 6 0 1 1 -12 0 6 6 0 0 1 12 0zm-.33 0a5.67 5.67 0 1 1 -11.34 0 5.67 5.67 0 0 1 11.34 0zm-5.67 1.14a1.14 1.14 0 1 0 0-2.28 1.14 1.14 0 0 0 0 2.28z"/><path d="m9 10.33a1.33 1.33 0 1 0 0-2.66 1.33 1.33 0 0 0 0 2.66zm0-.27a1.06 1.06 0 1 0 0-2.12 1.06 1.06 0 0 0 0 2.12z" fill="#a90533"/></g><path d="m10.72 11.62c-.39.28-.91.49-1.65.49-1.48 0-2.22-.82-2.49-1.25l.52-.32c.18.3.75.96 1.97.96.61 0 1.02-.17 1.3-.37.26-.19.43-.42.58-.62l.03-.04.49.36-.04.04c-.14.2-.36.5-.71.75zm.71 2.25a4.6 4.6 0 0 1 -2.34.54c-2.1 0-3.17-.92-3.56-1.42l.48-.37c.28.36 1.17 1.18 3.08 1.18a4 4 0 0 0 2.04-.46c.41-.24.68-.52.9-.76l.04-.04.44.4-.05.06c-.21.23-.53.58-1.03.87z" fill="#a90533" opacity=".3"/><path d="m13.54 8.56a4.57 4.57 0 0 0 -3.46-4.03l.21-.97a5.56 5.56 0 0 1 4.24 4.89c.09.6.01 2.03-.82 3.53l-.88-.49c.73-1.31.77-2.53.71-2.9v-.02zm-5.86-3.85c-2.51 1.01-3.26 3-3.26 4.26 0 .5.13 1.05.32 1.57.19.5.41.94.55 1.18l-.85.51a8.18 8.18 0 0 1 -.64-1.35 5.78 5.78 0 0 1 -.38-1.91c0-1.63.96-4.01 3.88-5.19z" fill="#a90533" opacity=".5"/><path d="m9.4 6.6c-.3-.07-.55-.08-.7-.04-1.16.23-1.7.8-1.95 1.4-.26.62-.22 1.3-.12 1.74l-.63.16a3.55 3.55 0 0 1 .14-2.16c.34-.81 1.08-1.53 2.44-1.8.28-.05.62-.03.96.04.35.08.73.21 1.08.4.7.39 1.37 1.03 1.48 1.96v.06c0 .6 0 1.19-.23 1.76l-.62-.25c.18-.44.18-.9.18-1.52-.07-.6-.53-1.1-1.13-1.42-.3-.16-.6-.27-.9-.34z" fill="#a90533" opacity=".5"/></svg>