<svg fill="none" height="18" width="18" xmlns="http://www.w3.org/2000/svg"><path d="m0 0h18v18h-18z" fill="#f0f3fa"/><path d="m5 11.182c0-.804.308-1.182 1.13-1.182h2.74c.822 0 1.13.378 1.13 1.182v2.635c0 .807-.306 1.183-1.13 1.183h-2.74c-.825 0-1.13-.376-1.13-1.183zm1 2.818h3v-3h-3z" fill="#74c947"/><path d="m8 6.709c0-.272.046-.459.14-.559.092-.1.272-.15.538-.15h1.644c.266 0 .446.05.539.15.092.1.139.287.139.559v1.581c0 .274-.046.461-.14.561-.092.1-.272.15-.537.15h-1.645c-.266 0-.446-.05-.539-.15-.093-.099-.139-.287-.139-.56v-1.583zm.636 1.726h1.73v-1.9h-1.73z" fill="#17a77b"/><path d="m12 4.473c0-.182.031-.306.093-.373s.181-.1.359-.1h1.096c.178 0 .297.033.36.1.06.067.092.192.092.373v1.054c0 .183-.031.308-.093.374s-.181.1-.359.1h-1.096c-.178 0-.297-.034-.36-.1-.06-.066-.092-.19-.092-.374zm.424 1.15h1.153v-1.264h-1.153v1.266z" fill="#74c947"/><path d="m10 4.236c0-.09.016-.153.046-.186.031-.033.091-.05.18-.05h.548c.089 0 .148.017.18.05.03.033.046.096.046.186v.528c0 .091-.016.154-.046.186-.031.033-.091.05-.18.05h-.548c-.089 0-.148-.017-.18-.05-.03-.032-.046-.095-.046-.186z" fill="#17a77b"/></svg>