<svg fill="none" height="18" viewBox="0 0 18 18" width="18" xmlns="http://www.w3.org/2000/svg"><path d="m0 0h18v18h-18z" fill="#124735"/><g fill="#f8ffff"><path d="m7.17977 14c-1.86135-.7536-3.17977-2.629-3.17977-4.82313 0-2.85911 2.23858-5.17687 5-5.17687 2.7614 0 5 2.31776 5 5.17687 0 1.69373-.7856 3.19743-2 4.14183v-.8447c.8465-.8261 1.375-1.9977 1.375-3.29713 0-2.50172-1.9588-4.52976-4.375-4.52976-2.41625 0-4.375 2.02804-4.375 4.52976 0 2.02333 1.28131 3.73693 3.04966 4.31823-.19559.1259-.36722.3223-.49489.5049z"/><path clip-rule="evenodd" d="m10.4545 9.75635c-.3646.43015-.8814.89355-1.4545.89355-1.10457 0-2-1.05531-2-2.28553 0-1.23021.89543-2.36437 2-2.36437.5731 0 1.0899.26847 1.4545.69865v-.69865h.5455v7.5375c-.0214.8118-.766 1.4625-1.5 1.4625-.74753 0-1.5-.6749-1.5-1.5075 0-.7794.53105-1.4137 1.21212-1.4925h.78788v.6291h-.78788c-.36764.0742-.64646.4325-.64646.8634 0 .4846.49921.8775.93434.8775.38686 0 .8879-.3105.9545-.72zm0-1.05478c-.1839.7012-.76548 1.29843-1.4545 1.29843-.83679 0-1.41065-.70365-1.41065-1.63563s.57386-1.70625 1.41065-1.70625c.68902 0 1.2706.39411 1.4545 1.09531z" fill-rule="evenodd"/></g></svg>