<svg height="18" viewBox="0 0 18 18" width="18" xmlns="http://www.w3.org/2000/svg"><path d="m0 0h18v18h-18z" fill="#f0f3fa"/><ellipse cx="7.93" cy="8.3" fill="#e6f6f5" rx=".6" ry=".58"/><ellipse cx="8.52" cy="8.88" fill="#e7f5f6" rx=".71" ry=".7"/><path d="m7.93 8.88a.59.59 0 0 0 .58-.7.7.7 0 0 0 -.7.7z" fill="#cceeed"/><ellipse cx="8.17" cy="9.93" fill="#e7f5f6" rx=".83" ry=".81"/><path d="m7.87 9.17a.85.85 0 0 1 1 .32.72.72 0 0 1 -1-.32z" fill="#ccefeb"/><ellipse cx="7.45" cy="10.86" fill="#dcf0ef" rx="1.07" ry="1.05"/><path d="m7.34 9.82h.11c.53 0 .97.36 1.06.85a.85.85 0 0 1 -.34.07.82.82 0 0 1 -.83-.92z" fill="#c5e8e2"/><ellipse cx="5.9" cy="10.51" fill="#cdedea" rx="1.19" ry="1.16"/><path d="m6.58 11.47a1.15 1.15 0 0 0 .36-1.53c-.33.18-.56.52-.56.92 0 .23.07.44.2.6z" fill="#aee1da"/><ellipse cx="5.19" cy="8.88" fill="#bfeae3" rx="1.19" ry="1.16"/><path d="m6.26 9.4a1.2 1.2 0 0 1 -1.42.6 1.2 1.2 0 0 1 1.42-.6z" fill="#9ad9d0"/><ellipse cx="5.9" cy="7.02" fill="#90ded4" rx="1.43" ry="1.4"/><path d="m4.73 7.81a1.21 1.21 0 0 1 1.53.56 1.46 1.46 0 0 1 -1.53-.56z" fill="#73c9be"/><ellipse cx="8.17" cy="5.98" fill="#7fdcbf" rx="1.55" ry="1.51"/><path d="m7.32 7.24a1.5 1.5 0 0 1 -.7-1.42 1.39 1.39 0 0 1 .7 1.42z" fill="#4cbe9d"/><ellipse cx="10.67" cy="6.09" fill="#66d5b4" rx="2.14" ry="2.09"/><path d="m8.92 7.3a2.05 2.05 0 0 1 .12-2.57 1.5 1.5 0 0 1 -.12 2.57z" fill="#34b886"/><ellipse cx="11.62" cy="8.65" fill="#34c79a" rx="2.38" ry="2.33"/><path d="m9.4 7.79a2.42 2.42 0 0 1 3.34-1.19 2.17 2.17 0 0 1 -3.34 1.2z" fill="#15a66d"/><ellipse cx="9.95" cy="11.44" fill="#02b980" rx="2.62" ry="2.56"/><path d="m9.26 8.97a2.6 2.6 0 0 1 3.23 1.84 2.36 2.36 0 0 1 -3.23-1.84z" fill="#00904d"/></svg>