<svg height="18" viewBox="0 0 18 18" width="18" xmlns="http://www.w3.org/2000/svg"><path d="m0 0h18v18h-18z" fill="#f0f3fa"/><path d="m11.5 7a1 1 0 1 1 -2 0 1 1 0 0 1 2 0z" fill="#fed104"/><path d="m7.5 6 2.98 1.98.9-.76 3.62 2.26-.31.52-3.26-2.03-.74.63-1.5 1.22-.37-.47 1.17-.96-2.47-1.65-4.18 2.94-.34-.5z" fill="#00895f"/><path d="m5.84 11a7.3 7.3 0 0 1 -2.84-.83c.58.66 2.21 1.95 4.1 1.82 2.37-.17 3.32-1 4.74-1 1.14 0 2.58.34 3.16.5-.95-.5-2.21-1.49-4.1-1.49-1.27 0-3.8 1-5.06 1z" fill="#0092cf"/></svg>