<svg height="18" width="18" xmlns="http://www.w3.org/2000/svg"><path d="m0 0h18v18h-18z" fill="#4fc143"/><path d="m8 5.571c0-.28.102-1.016.958-1.016.845 0 1.042.645 1.042 1.015v3.902c0 .44-.457.683-1.042.721-.586.038-.958-.192-.958-.721v-3.902zm2-1.714c-.45-.604-.678-.857-2.076-.836-1.397.019-1.924 1.364-1.92 2.196v4.613c0 1 .228 2.176 1.97 2.176 1.07 0 1.722-.532 2.026-.854v1.349c0 .778-.417 1.16-.96 1.207-.541.047-1.322 0-1.322-.709h-1.715c.016.805.081 2 2.868 2 3.07 0 3.13-1.905 3.13-2.788v-9.211h-2v.857z" fill="#fff"/></svg>