<svg fill="none" height="18" width="18" xmlns="http://www.w3.org/2000/svg" xmlns:xlink="http://www.w3.org/1999/xlink"><linearGradient id="a" gradientUnits="userSpaceOnUse" x1="7" x2="9" y1="-2.25" y2="22.25"><stop offset=".105" stop-color="#3e5f7c"/><stop offset=".35" stop-color="#83969b"/><stop offset=".57" stop-color="#a5a079"/><stop offset=".736" stop-color="#c4a959"/></linearGradient><path d="m0 0h18v18h-18z" fill="url(#a)"/><g fill="#fff"><path clip-rule="evenodd" d="m14 12.262v-2.062c-.915.343-2.102 1.304-2.467 2.283a13.759 13.759 0 0 1 -1.621-.234 13.071 13.071 0 0 0 -2.462-.249c-1.168 0-2.112.17-2.729.32.67-2.002 3.087-2.96 4.81-2.96-.281-.595-1.015-1.153-2.228-1.36h-3.303v5h10zm-1-2.762c0-.439-1.12-1.292-2.711-1.5h3.711v1.5z" fill-rule="evenodd"/><path d="m4 5h10v2.3h-1.5s-1.063-1.8-3.5-1.8c-2.438 0-3.5 1.8-3.5 1.8h-1.5z"/><path clip-rule="evenodd" d="m8.398 8c1.23.282 1.868 1.094 2.073 1.5h.427c-.246-.442-.89-1.328-2.5-1.5z" fill-rule="evenodd"/><path clip-rule="evenodd" d="m9.315 8c1.58.28 2.193 1.098 2.407 1.5h.434c-.23-.437-.796-1.329-2.841-1.5z" fill-rule="evenodd"/><path d="m6.203 12.11h.672s.969-2.063 3.958-2.629a.771.771 0 0 0 -.043-.038c-4.009.448-4.587 2.666-4.587 2.666zm3.141.046s.719-2.187 4.25-2.75c-3.828.078-4.906 2.75-4.906 2.75z"/></g></svg>