<svg height="18" viewBox="0 0 18 18" width="18" xmlns="http://www.w3.org/2000/svg" xmlns:xlink="http://www.w3.org/1999/xlink"><linearGradient id="a" gradientUnits="userSpaceOnUse" x1="4" x2="14" y1="8.88" y2="9"><stop offset="0" stop-color="#72a434"/><stop offset="1" stop-color="#1c6e27"/></linearGradient><linearGradient id="b" gradientUnits="userSpaceOnUse" x1="13.35" x2="8.53" y1="10.74" y2="10.9"><stop offset="0" stop-color="#1c6e27"/><stop offset="1" stop-color="#72a434"/></linearGradient><path d="m0 0h18v18h-18z" fill="#f0f3fa"/><path d="m6 4a2 2 0 0 0 -2 2v6c0 1.1.9 2 2 2h6a2 2 0 0 0 2-2v-6a2 2 0 0 0 -2-2zm0 1a1 1 0 0 0 -1 1v6a1 1 0 0 0 1 1h6a1 1 0 0 0 1-1v-6a1 1 0 0 0 -1-1z" fill="url(#a)" fill-rule="evenodd"/><path d="m13.22 9.59a2.48 2.48 0 0 0 -1.31-.43c-.74-.02-3.1.48-3.38 3.54 0 .42.1 1.35.59 1.8-.07-.3-.04-.9.6-1.15l.24-.1c.9-.33 2.61-.97 3.26-2.41zm-.8.63c-.3-.1-1.07-.17-1.68.43s-.68 1.36-.64 1.67c.3.1 1.12.2 1.73-.46.52-.56.67-1.34.59-1.64z" fill="url(#b)" fill-rule="evenodd"/><path d="m6 6h6v1h-6zm0 2h4v1h-4z" fill="#001a53"/></svg>