<svg height="18" viewBox="0 0 18 18" width="18" xmlns="http://www.w3.org/2000/svg"><path d="m0 0h18v18h-18z" fill="#f0f3fa"/><path d="m9 14a5 5 0 1 0 0-10 5 5 0 0 0 0 10zm-1.72-5.94.16-.47c-.1-.05-.44-.15-.93-.15-.63 0-1.71.31-1.87 1.56-.15 1.25.78 1.56 1.56 1.56.62 0 .88-.1.93-.15l.3-1.41h-.61l-.31 1.1c-.47.1-1.37.06-1.25-.94.16-1.25.86-1.25 1.25-1.25.23 0 .41.05.55.1.09.03.16.05.22.05zm5.94 0 .15-.47c-.1-.05-.43-.15-.93-.15-.62 0-1.7.31-1.86 1.56s.78 1.56 1.55 1.56c.62 0 .88-.1.93-.15l.31-1.41h-.62l-.3 1.1c-.47.1-1.37.06-1.25-.94.16-1.25.85-1.25 1.24-1.25.24 0 .42.05.56.1.09.03.16.05.22.05zm-5 2.5h-.63l.63-3.12h1.72c.2 0 .62.15.62.78 0 .78-.47 1.1-.78 1.1l.63 1.24h-.79l-.62-1.25h-.53zm.37-1.87h.88c.15 0 .47-.06.47-.31 0-.32-.16-.32-.32-.32h-.9z" fill="#064f94" fill-rule="evenodd"/></svg>