<svg height="18" viewBox="0 0 18 18" width="18" xmlns="http://www.w3.org/2000/svg" xmlns:xlink="http://www.w3.org/1999/xlink"><linearGradient id="a" gradientUnits="userSpaceOnUse" x1="3.35" x2="21.9" y1="3.12" y2="24.43"><stop offset="0" stop-color="#1a1e21"/><stop offset="1" stop-color="#06060a"/></linearGradient><linearGradient id="b" gradientUnits="userSpaceOnUse" x1="6.37" x2="9.81" y1="8.33" y2="14.25"><stop offset="0" stop-color="#94db00"/><stop offset=".73" stop-color="#228d00"/></linearGradient><linearGradient id="c" gradientUnits="userSpaceOnUse" x1="5.41" x2="8.91" y1="8.23" y2="13.49"><stop offset="0" stop-color="#8ed700"/><stop offset="1" stop-color="#66c000"/></linearGradient><linearGradient id="d" gradientUnits="userSpaceOnUse" x1="9.68" x2="11.87" y1="11.23" y2="9.77"><stop offset="0" stop-color="#3e9903"/><stop offset="1" stop-color="#4bc000"/></linearGradient><linearGradient id="e" gradientUnits="userSpaceOnUse" x1="11.92" x2="11.92" y1="3.58" y2="14"><stop offset="0" stop-color="#48b700"/><stop offset=".49" stop-color="#59e300"/><stop offset="1" stop-color="#42a700"/></linearGradient><linearGradient id="f" gradientUnits="userSpaceOnUse" x1="11.2" x2="8.56" y1="9.7" y2="12.38"><stop offset=".19" stop-color="#4baf00"/><stop offset="1" stop-color="#61bc00"/></linearGradient><path d="m0 0h18v18h-18z" fill="url(#a)"/><path d="m8.04 8.54a11.62 11.62 0 0 1 -4.04-2.2c.83 7.04 5.5 7.77 6.82 7.62 1.17-2.19-.56-4.81-2.78-5.42z" fill="url(#b)"/><path d="m4.08 6.4c.43.37 1.26.96 2.25 1.46 1.26 4.39 3.11 5.37 4.22 5.95l.26.15h-.07c-3.98-1.18-6-5.31-6.66-7.55z" fill="url(#c)"/><path d="m10.86 14c-1.17-1.21-4.24-3.73-.07-10.5 3.82 4.7 1.64 8.96.07 10.5z" fill="url(#d)"/><path d="m10.84 13.98c.47-.65 1.27-2.47 1.2-5.27a12.3 12.3 0 0 0 -1.19-5.13c3.89 4.66 1.63 8.89 0 10.42v-.02z" fill="url(#e)"/><path d="m10.82 13.96-.16-.16c-.84-.85-2.24-2.28-1.95-5.01 1.88.9 3.16 3.2 2.1 5.17z" fill="url(#f)"/></svg>