<svg height="18" width="18" xmlns="http://www.w3.org/2000/svg"><path d="m0 0h18v18h-18z" fill="#19bdca"/><path d="m8.93 4.006.051-1.237.089 1.237c.411-.047.545-.411.55-.71.005-.3-.244-.659-.402-.878-.126-.176-.21-.475-.237-.603a1.15 1.15 0 0 1 -.227.603c-.321.403-.398.702-.398.878.014.514.386.688.574.71zm0 10.002.051 1.237.089-1.237c.411.047.545.411.55.71.005.3-.244.659-.402.878-.126.176-.21.475-.237.603a1.15 1.15 0 0 0 -.227-.603c-.321-.403-.398-.702-.398-.878.014-.515.386-.688.574-.71zm-2.992-8.884-.862-.906.756.995c-.344.226-.688.035-.89-.19-.204-.224-.254-.655-.28-.922-.022-.213-.157-.494-.222-.608.203.19.41.28.574.314.513.102.77.28.887.414.332.4.165.767.037.903zm0 7.659-.862.906.756-.995c-.343-.226-.688-.035-.89.19-.204.224-.254.655-.28.921-.022.214-.157.495-.222.609.203-.19.41-.281.574-.314.513-.102.77-.28.887-.414.332-.4.166-.767.037-.903z" fill="#5f275e"/><path d="m6.346 11.043-.886.544.82-.638c-.226-.252-.543-.17-.754-.034-.21.137-.344.471-.423.68-.063.166-.232.362-.309.44a1 1 0 0 1 .527-.132c.433.026.677-.063.8-.145.352-.25.298-.58.225-.715zm5.471.03.886.545-.82-.638c.226-.253.543-.171.754-.035.21.137.344.472.423.68.063.166.232.362.308.44a1.005 1.005 0 0 0 -.527-.131c-.432.025-.676-.064-.799-.146-.352-.25-.298-.579-.225-.715z" fill="#ffbd61"/><path d="m7.844 7.303-.602-.636.528.698c-.241.158-.482.023-.624-.134-.141-.158-.176-.46-.194-.647a1.295 1.295 0 0 0 -.154-.426.842.842 0 0 0 .401.22c.36.073.54.198.62.292.233.28.115.538.025.633z" fill="#c5f34a"/><path d="m8.687 7.85-.216-.473.163.493c-.166.043-.275-.08-.325-.195s-.01-.291.015-.4a.768.768 0 0 0 -.005-.269.5.5 0 0 0 .183.2c.188.11.265.215.293.283.076.202-.039.324-.108.36z" fill="#5f275e"/><path d="m7.133 8.4-.854-.197.826.29c-.114.265-.39.286-.594.233-.205-.053-.4-.285-.52-.431a1.295 1.295 0 0 0 -.363-.27.842.842 0 0 0 .456-.039c.34-.137.559-.132.679-.1.348.106.392.386.37.515z" fill="#c5f34a"/><path d="m8.076 8.33-.442-.274.409.321c-.115.127-.273.086-.378.017s-.17-.237-.21-.341a.768.768 0 0 0 -.152-.222.5.5 0 0 0 .264.066c.217-.012.339.033.4.074.175.126.146.291.11.36z" fill="#5f275e"/><path d="m10.863 8.4.854-.197-.826.29c.114.265.39.286.594.233.205-.053.4-.285.52-.431.094-.117.281-.23.363-.27a.842.842 0 0 1 -.456-.039c-.34-.137-.559-.132-.679-.1-.348.106-.392.386-.37.515z" fill="#c5f34a"/><path d="m10.175 9.045.517.053-.519.005c.013.17.164.235.29.244.124.01.279-.084.373-.143a.769.769 0 0 1 .256-.082.5.5 0 0 1 -.249-.109c-.164-.142-.288-.181-.362-.186-.216-.007-.294.142-.306.218z" fill="#5f275e"/><path d="m7.176 9.567-.814.325.844-.232c.058.282-.157.456-.355.53-.199.073-.492-.006-.672-.059a1.294 1.294 0 0 0 -.453-.014.842.842 0 0 0 .353-.291c.2-.307.382-.428.5-.47.346-.112.542.093.597.211z" fill="#c5f34a"/><path d="m7.877 8.995-.52.027.52.03c-.023.17-.176.227-.302.23-.125.004-.275-.097-.366-.16a.769.769 0 0 0 -.252-.096.5.5 0 0 0 .254-.096c.171-.134.297-.167.37-.168.217.004.287.156.296.233z" fill="#5f275e"/><path d="m10.823 9.642.814.325-.844-.233c-.058.283.156.457.355.53.198.074.492-.005.672-.058a1.3 1.3 0 0 1 .453-.014.842.842 0 0 1 -.353-.292c-.2-.307-.383-.427-.5-.469-.346-.112-.542.092-.597.211z" fill="#c5f34a"/><path d="m9.915 9.736.395.338-.43-.292c-.086.148.001.287.098.366.098.08.278.09.39.096a.775.775 0 0 1 .256.078.5.5 0 0 1 -.142-.23c-.054-.211-.133-.314-.191-.36-.173-.13-.322-.052-.376.004z" fill="#5f275e"/><path d="m8.002 10.59-.602.637.528-.698c-.241-.158-.482-.023-.624.134-.142.158-.176.46-.194.647-.014.15-.109.346-.154.426a.842.842 0 0 1 .401-.22c.36-.073.54-.198.62-.292.233-.28.115-.538.025-.633z" fill="#c5f34a"/><path d="m8.146 9.73-.46.242.43-.291c-.106-.135-.267-.105-.376-.044-.11.061-.187.224-.233.326a.77.77 0 0 1 -.168.21.5.5 0 0 1 .268-.047c.215.028.34-.008.404-.045.184-.113.167-.28.135-.351z" fill="#5f275e"/><path d="m10.287 7.386.602-.637-.527.699c.24.157.481.022.623-.135s.176-.46.194-.646c.014-.15.109-.347.154-.426a.842.842 0 0 1 -.401.22c-.36.073-.539.198-.62.292-.233.28-.115.537-.025.633z" fill="#c5f34a"/><path d="m10.045 8.364.46-.242-.43.291c.105.135.267.105.376.044.11-.061.187-.224.233-.326a.769.769 0 0 1 .168-.21.5.5 0 0 1 -.268.047c-.215-.028-.34.008-.404.045-.184.113-.167.28-.135.351z" fill="#5f275e"/><path d="m10.076 10.59.602.637-.527-.698c.24-.158.482-.023.623.134.142.158.176.46.194.647.015.15.109.346.154.426a.842.842 0 0 0 -.401-.22c-.359-.073-.539-.198-.62-.292-.232-.28-.115-.538-.025-.633z" fill="#c5f34a"/><path d="m9.312 10.127.217.473-.163-.493c.166-.043.275.079.324.194.05.116.012.292-.014.4a.768.768 0 0 0 .005.27.5.5 0 0 0 -.183-.201c-.188-.11-.265-.214-.293-.283-.077-.201.038-.323.107-.36z" fill="#5f275e"/><path d="m9.06 6.893-.043-.866-.054.866c-.289-.03-.385-.284-.39-.493-.006-.21.166-.463.275-.618.087-.124.144-.334.162-.423.021.19.09.33.163.42.228.28.284.49.285.612-.006.361-.265.485-.397.502z" fill="#c5f34a"/><path d="m9.45 7.852.141-.495-.196.477c-.156-.072-.161-.234-.124-.352.037-.12.182-.229.272-.295a.769.769 0 0 0 .172-.207.478.478 0 0 0 .012.268c.074.201.065.329.042.398-.072.202-.241.222-.319.206z" fill="#5f275e"/><path d="m9.076 10.921-.044.866-.054-.867c-.288.03-.385.285-.39.494-.005.21.166.463.275.618.088.123.145.334.162.423.022-.19.09-.33.163-.42.228-.281.284-.49.285-.613-.006-.36-.265-.484-.397-.5z" fill="#c5f34a"/><path d="m8.687 10.121-.19.478.135-.497c-.168-.038-.27.086-.314.203-.043.116.005.292.037.4a.768.768 0 0 1 .01.268.478.478 0 0 1 .172-.205c.181-.114.253-.22.277-.29.065-.203-.056-.322-.127-.357z" fill="#5f275e"/><path d="m11.802 7.095.906-.51-.844.606c.217.26.537.191.752.062.216-.128.362-.457.449-.662.07-.164.245-.354.325-.428a1.004 1.004 0 0 1 -.532.11c-.431-.041-.678.038-.804.116-.362.236-.32.567-.252.706zm-5.599 0-.907-.51.844.606c-.216.26-.536.191-.752.062-.216-.128-.362-.457-.448-.662-.07-.164-.246-.354-.325-.428a.997.997 0 0 0 .531.11c.432-.041.68.038.805.116.361.236.32.567.252.706zm-.571 1.751-1.039.063 1.038.051c-.04.337-.346.452-.597.461-.251.01-.552-.187-.736-.312-.148-.1-.399-.164-.506-.183.229-.028.398-.11.507-.196.34-.27.59-.337.738-.34.432.002.576.303.595.456zm6.778.099 1.038.064-1.039.05c.04.337.347.453.598.462s.552-.188.736-.313c.148-.1.399-.164.506-.183a1.004 1.004 0 0 1 -.507-.196c-.34-.269-.59-.337-.738-.34-.432.003-.576.303-.595.456zm-4.451-3.172-.405-.949.296.987c-.333.078-.544-.169-.636-.4-.092-.232-.005-.58.052-.795.047-.172.024-.428.006-.535a.983.983 0 0 0 .354.407c.369.225.516.437.568.573.141.405-.096.642-.235.712zm2.256.055.405-.948-.296.987c.333.077.544-.17.636-.4.092-.232.005-.581-.053-.796-.046-.171-.023-.427-.006-.534a.982.982 0 0 1 -.354.406c-.368.226-.515.437-.567.574-.142.404.096.642.235.711zm-2.215 6.366-.372.956.263-.993c-.335-.07-.538.18-.623.413-.084.233.015.58.08.793.052.171.038.428.024.535a.962.962 0 0 1 .34-.413c.36-.232.501-.447.548-.584.128-.407-.117-.64-.26-.707zm2.183 0 .372.956-.262-.993c.335-.07.538.18.622.413s-.014.58-.08.793c-.051.171-.037.428-.024.535a.962.962 0 0 0 -.34-.413c-.36-.232-.5-.447-.548-.584-.127-.407.118-.64.26-.707z" fill="#ffbd61"/><path d="m12.155 5.231.863-.906-.757.995c.344.226.688.034.891-.19s.254-.655.28-.922c.021-.213.156-.494.221-.608-.202.19-.41.28-.574.314-.512.102-.77.28-.886.414-.333.4-.166.767-.038.903zm-.098 7.659.863.906-.756-.996c.343-.225.688-.034.89.19.204.224.254.655.28.922.022.214.157.495.222.608a1.209 1.209 0 0 0 -.574-.313c-.513-.102-.77-.28-.887-.414-.333-.4-.166-.767-.038-.904zm1.556-2.18 1.125.569-1.056-.688c.245-.326.636-.259.904-.115s.465.533.582.776c.094.194.319.413.42.499a1.22 1.22 0 0 0 -.65-.106c-.517.073-.82-.01-.977-.097-.451-.266-.421-.667-.348-.838zm-9.323-.427-1.125.569 1.056-.688c-.245-.326-.635-.259-.904-.115-.268.144-.465.533-.582.776-.094.194-.318.413-.419.499a1.22 1.22 0 0 1 .649-.106c.518.073.821-.01.978-.097.45-.266.42-.667.348-.838zm.079-2.754-1.223-.309 1.248.172c.028-.406-.31-.612-.608-.679-.297-.067-.7.099-.948.205-.198.085-.511.104-.643.103.266.084.449.219.559.345.344.394.628.53.803.567.515.094.755-.228.812-.405zm9.357.295 1.223-.307-1.248.172c-.028-.407.31-.612.608-.679.297-.067.7.098.948.205.198.085.511.104.643.103a1.22 1.22 0 0 0 -.56.345c-.343.394-.627.53-.802.567-.515.094-.755-.229-.812-.406z" fill="#5f275e"/></svg>