<svg fill="none" height="18" width="18" xmlns="http://www.w3.org/2000/svg"><path d="m0 0h18v18h-18z" fill="#f0f3fa"/><g clip-rule="evenodd" fill="#2b2a29" fill-rule="evenodd"><path d="m2.75 7a.25.25 0 0 1 .25.25v1.094a.25.25 0 0 1 -.5 0v-1.094a.25.25 0 0 1 .25-.25z"/><path d="m2 7.75a.25.25 0 0 1 .25-.25h1.07a.25.25 0 0 1 0 .5h-1.07a.25.25 0 0 1 -.25-.25zm2.019.86c-.226.142-.42.404-.42.906 0 .739-.636 1.482-1.599 1.482v-.425c.619-.076 1.06-.518 1.06-1.057 0-.64.31-1.028.662-1.251.335-.212.695-.265.816-.265h3.35a.869.869 0 0 1 .756.467c.12-.217.376-.467.859-.467.524 0 .752.135.897.37.125-.21.473-.36.942-.36.384 0 .778.128.976.423a.774.774 0 0 1 .725-.422h1.256c.49.03.942.386.942.82 0 .19-.083.34-.201.455a.437.437 0 0 1 .387.122c.1.105-.042 1.153.296 1.153h.277v.439h-.287c-.298 0-.502-.2-.604-.424-.173.246-.49.424-.877.424-.59 0-1.065-.4-1.065-.927 0-.652.621-.695 1.183-.895.264-.094.391-.208.391-.348 0-.237-.22-.365-.472-.39h-1.226c-.208 0-.301.187-.323.338v1.786c0 .21-.1.436-.388.436-.282 0-.325-.278-.332-.476v-1.688c0-.281-.373-.397-.658-.397-.649-.09-.567.452-.567.76 0 .205-.104.42-.382.42-.229 0-.375-.193-.393-.371v-.572c-.004-.235-.284-.247-.497-.247a.507.507 0 0 0 -.503.409v.491c-.027.188-.151.37-.389.37-.29 0-.388-.266-.376-.473v-.32c0-.195-.082-.46-.354-.477h-3.343a1.174 1.174 0 0 0 -.177.033 1.261 1.261 0 0 0 -.342.148zm10.782.849c-.305.167-.771.129-1.03.353-.048.041-.104.114-.104.261 0 .288.25.498.565.498.31 0 .52-.211.52-.434 0-.22-.063-.47.05-.678z"/><path d="m6.5 8.5c-.576 0-1 .4-1 1s.424 1 1 1 1-.4 1-1-.424-1-1-1zm-1.5 1a1.5 1.5 0 1 1 3 0 1.5 1.5 0 0 1 -3 0z"/></g></svg>