<svg height="18" viewBox="0 0 18 18" width="18" xmlns="http://www.w3.org/2000/svg"><path d="m0 0h18v18h-18z" fill="#f0f3fa"/><path d="m4.7 10.73a2.54 2.54 0 0 1 -1.32-2.2c0-.94.54-1.76 1.35-2.2l-.18-.33a2.9 2.9 0 0 0 -1.55 2.54c0 1.06.6 1.99 1.5 2.5l.2-.3zm-.55-2.96-.37-.14c-.1.26-.16.54-.16.83 0 1.27 1.06 2.3 2.4 2.35v-.38c-1.11-.05-2-.91-2-1.97 0-.24.05-.47.13-.69zm1.81 4.23c-1.2 0-2.28-.56-2.93-1.42l.27-.23a3.4 3.4 0 0 0 3.96 1.05l.14.32c-.44.18-.93.28-1.44.28z" fill="#fda315"/><g fill="#085e96"><path d="m7 8.29h1v1.05c-1.07.31-2-.09-2-1.34s1.08-1.43 1.6-1.43c.42 0 .9.19 1.07.28v-.65c-.21-.07-.76-.2-1.07-.2-.38 0-2.21.08-2.21 1.95s1.65 2.05 2.21 2.05c.45 0 .9-.13 1.07-.2v-2.09h-1.67zm2.31 1.53.07-.61c.26.12.59.22.79.22s.9-.01.9-.53c0-.4-.46-.62-.67-.68-.37-.13-1.13-.54-1.13-1.18 0-.8.73-1.04 1.35-1.04.5 0 .75.12.82.17l-.1.54a2.1 2.1 0 0 0 -.72-.14c-.37 0-.75.05-.75.37s.22.44.53.62l.24.1c.4.15 1.02.4 1.02 1.17 0 .95-1 1.17-1.46 1.17-.36 0-.74-.12-.89-.18zm5.33-3.82h-2.38v4h2.38v-.57h-1.64v-1.14h1.35v-.59h-1.35v-1.13h1.64z"/><path d="m8 11h7v1h-7z" opacity=".5"/></g></svg>