<svg height="18" viewBox="0 0 18 18" width="18" xmlns="http://www.w3.org/2000/svg" xmlns:xlink="http://www.w3.org/1999/xlink"><linearGradient id="a" gradientUnits="userSpaceOnUse" x1="9" x2="9.01" y1="4" y2="10.64"><stop offset="0" stop-color="#ffd204"/><stop offset="1" stop-color="#e88600"/></linearGradient><linearGradient id="b" gradientUnits="userSpaceOnUse" x1="13.17" x2="4.83" y1="11.76" y2="11.76"><stop offset="0" stop-color="#0668b7"/><stop offset=".5" stop-color="#028dd0"/><stop offset="1" stop-color="#095595"/></linearGradient><path d="m0 0h18v18h-18z" fill="#f0f3fa"/><circle cx="9" cy="9" fill="url(#a)" r="5"/><path d="m4.58 11.33a7.96 7.96 0 0 1 8.84 0 5 5 0 0 1 -8.84 0z" fill="#f9fff5"/><path d="m13.2 11.71a5 5 0 0 1 -8.4 0 8.2 8.2 0 0 1 8.4 0z" fill="url(#b)"/><g fill="#f9fff5"><path d="m8 8.67c0 .41.5 1.2.74 1.55h.67c-.23-.3-.67-.97-.67-1.22 0-.31.25-.46.25-1.06s-.25-.51-.25-.74c0-.22 0-.72.44-.72s.18.45.93.45c.5 0 .77-.37.88-.67.04-.1-.06-.19-.18-.19-.11 0-.2.07-.24.15-.06.13-.2.26-.46.26-.46 0-.3-.48-1.11-.48-.65 0-.67.7-.6 1.04-.13 0-.39.02-.39.16 0 .18.4.28.4.44 0 .46-.4.51-.4 1.03z"/><path d="m7 12h4v1h-4z" fill-opacity=".5"/></g></svg>