<svg height="18" viewBox="0 0 18 18" width="18" xmlns="http://www.w3.org/2000/svg"><path d="m0 0h18v18h-18z" fill="#f0f3fa"/><g fill="#e11d1e"><path d="m4.06 7c-1.14 0-2.06.9-2.06 2s.92 2 2.06 2h1.94l-.33-.67h-1.67c-.74 0-1.34-.61-1.34-1.33s.6-1.33 1.34-1.33h2l-.33-.67h-1.6z"/><path d="m9 7h-.17l-1.65 3.3-1.01-2.3h-.84l1.34 3h1l1.66-3.33h3v-.67z"/><path d="m10.67 8v3h-.67v-3zm2.93.67v-1h2.26c.08 0 .14-.07.14-.15v-.03c0-.27-.2-.49-.46-.49h-2.54v4h2.54c.26 0 .46-.22.46-.49v-.03c0-.08-.06-.15-.14-.15h-2.26v-1h2.1v-.66z"/></g></svg>