<svg height="18" viewBox="0 0 18 18" width="18" xmlns="http://www.w3.org/2000/svg"><path d="m0 0h18v18h-18z" fill="#f0f3fa"/><path d="m6.06 8.38s-1.97.03-2.5.2c-.45.13-.63.27-.63.27s.48-.46 1.55-.55c0 0 1.47-.14 1.94-.2.17-.02.6-.05.85-.15.1-.04 1.19-.98 1.19-.98.4-.39.83-.36.83-.36h6.71l-.2.39h-6.3s-.47-.1-.86.28l-.96.82c-.45.3-1.61.28-1.61.28z" fill="#00307b"/><path d="m2 10s.54-.67.65-.77c.25-.23.89-.23 2-.23.92 0 2.24.15 2.98-.4l1.21-.97c.28-.2 1.33-.18 1.33-.18s5-.02 4.99 0c-.63.42-1.58.55-1.58.55h-3.86c-.35.03-.56.29-.66.37-.08.07-1.13 1.2-1.13 1.2s-.3.44-1.23.43z" fill="#00307b"/><path d="m8.34 5.1a5.07 5.07 0 0 1 3.16.05c.57.18 1.4.57 1.4.57a4.9 4.9 0 0 0 -3.76-1.72c-2.5 0-4.6 1.82-4.97 4.2.22-.01.84-.13 1.16-.34.86-.6 1.44-2.3 3-2.77zm5.84 4.07h-3.06c-.83 0-1.53 0-1.97.33l-.69.5h3.73c-.43 1.9-2.47 2.4-3.12 2.39-2.27-.06-2.45-1.3-3.04-1.7-.61-.4-.97-.52-1.84-.52.41 2.06 2.59 3.82 4.91 3.83a5 5 0 0 0 5.03-4.41c.02-.07.05-.42.05-.42z" fill="#a00424"/></svg>