<svg height="18" viewBox="0 0 18 18" width="18" xmlns="http://www.w3.org/2000/svg" xmlns:xlink="http://www.w3.org/1999/xlink"><linearGradient id="a" gradientUnits="userSpaceOnUse" x1="9" x2="9" y1="5" y2="13"><stop offset=".01" stop-color="#d0d0d0"/><stop offset=".1" stop-color="#f5f1f1" stop-opacity=".99"/><stop offset=".22" stop-color="#e4e2e2" stop-opacity=".97"/><stop offset=".35" stop-color="#b7b7b7"/><stop offset=".59" stop-color="#898989"/><stop offset=".77" stop-color="#8b8b8b"/><stop offset="1" stop-opacity=".81"/></linearGradient><linearGradient id="b" gradientUnits="userSpaceOnUse" x1="10.83" x2="7.93" y1="5.22" y2="12.53"><stop offset=".04"/><stop offset=".17" stop-color="#232323" stop-opacity=".65"/><stop offset=".52" stop-color="#181818"/><stop offset=".61" stop-color="#424242" stop-opacity=".62"/><stop offset=".68" stop-color="#acacac"/><stop offset=".81" stop-color="#e6e6e6"/><stop offset="1" stop-color="#fcfcfc"/></linearGradient><linearGradient id="c" gradientUnits="userSpaceOnUse" x1="6.66" x2="13.37" y1="8.18" y2="8.18"><stop offset="0" stop-color="#c6c6c6"/><stop offset=".25" stop-color="#dadada"/><stop offset="1" stop-color="#9d9d9d"/></linearGradient><linearGradient id="d" gradientUnits="userSpaceOnUse" x1="10.12" x2="10.15" y1="8.07" y2="12.45"><stop offset=".01" stop-color="#fdfdfd"/><stop offset=".71" stop-color="#716e6e"/><stop offset=".99" stop-color="#979797"/></linearGradient><path d="m0 0h18v18h-18z" fill="#f0f3fa"/><path d="m9 5c1.9-.04 6 1.04 6 4 0 3.73-5.19 4-6 4s-6-.28-6-4c0-2.74 3.93-4.04 6-4zm0 1c-2.73.03-4.5 1.03-4.5 3s1.96 2.9 4.5 3c1.71.07 2.54-.42 2.44-1.4-.1-1-1.39-1.1-4.44-1.1-.3-.55-.9-1.26-1-1.5h7.5c-.5-1-1.77-2.03-4.5-2z" fill="url(#a)"/><path d="m6.5 8.72h4.14c.78.03 2.03.37 2.03 1.51 0 1.43-1.43 2.11-2.65 2.22a7.95 7.95 0 0 1 -4.17-.76c-1.53-.8-1.85-2.03-1.85-2.69 0-.67.14-2.33 2.86-3.12 1.05-.3 1.77-.3 2.14-.3 2.5 0 4 .92 5 1.92l.5.5h-1c-.5-1-2-2-4.5-2-2 0-4.5.8-4.5 3 0 2.29 3.68 3 4.5 3s2.45-.14 2.45-1.28c0-1.1-1.77-1.22-4.45-1.22z" fill="url(#b)"/><path d="m6.27 8.43-.27-.43h8.5l-.6.43h-7.62z" fill="url(#c)"/><path d="m6.5 8.73-.23-.3h7.64c.1.37.2 1.44-.54 2.49-.73 1.05-2.54 1.46-3.35 1.53.84-.1 2.54-.65 2.54-1.97 0-1.31-1.22-1.75-2.14-1.75z" fill="url(#d)"/></svg>