<svg height="18" viewBox="0 0 18 18" width="18" xmlns="http://www.w3.org/2000/svg"><path d="m0 0h18v18h-18z" fill="#f0f3fa"/><path d="m7.59 10.67v3.49s-2.09-3.07-3-4.58l-.89-1.48a8.91 8.91 0 0 1 -.36-.66c-.22-.45-.47-1.09-.24-1.57.05-.09.1-.2.18-.3.16-.25.43-.51.73-.56h5.87c.06 0 .1.11.12.15.58.82 1.11 1.58 1.1 2.6-.03 1.12-1.38 2.78-2.63 2.92h-.87z" fill="#ff0101"/><path d="m9.17 14.87c-.45.31-.81 0-1.11-.3a.18.18 0 0 1 -.06-.13v-3.1h.38c1.04 0 2.46-1.4 2.94-2.2.52-.83.45-1.78.12-2.68a8.5 8.5 0 0 0 -.7-1.46h3.31a.7.7 0 0 1 .2.03c.42.12.59.35.7.74.07.24.07.45-.01.69-.03.08-.08.19-.16.3l-1.26 2a119.37 119.37 0 0 1 -3.93 5.69c-.12.16-.26.3-.42.42z" fill="#024dff"/><path d="m7.23 8.67c.59 0 1.06-.45 1.06-1 0-.56-.47-1-1.06-1-.58 0-1.05.44-1.05 1 0 .55.47 1 1.05 1z" fill="#fffe03"/></svg>