<svg height="18" viewBox="0 0 18 18" width="18" xmlns="http://www.w3.org/2000/svg"><path d="m0 0h18v18h-18z" fill="#f0f3fa"/><path d="m6.5 10-.5 1h-2.77l.16-1zm.35-2.14-2.93 3.14h-.92l.15-.86 2.93-3.14h.92zm-.18-.86-.14 1h-3.03l.5-1zm3.79 3-.29 1h-2.5l.33-1zm-1.3-3-.83 4h-1.33l.82-4zm1.31 1.5-.33 1h-2.14l.33-1zm.53-1.5-.2 1h-2.47l.2-1zm2.6 2.44 1.07-.01c-.1.89-1.08 1.59-2.05 1.57-1.23-.02-1.74-.94-1.6-1.9l.04-.2c.17-1 1-1.92 2.27-1.9 1 .02 1.62.73 1.67 1.57h-1.1c.1-.43-.23-.57-.57-.57-.5 0-.88.37-.97.89l-.03.22c-.06.42 0 .89.5.89s.67-.29.77-.56z" fill="#004098"/><path d="m5 7h-1l-.5 1h1z" fill="#eb0005"/></svg>