<svg height="18" viewBox="0 0 18 18" width="18" xmlns="http://www.w3.org/2000/svg"><path d="m0 0h18v18h-18z" fill="#f0f3fa"/><path d="m6 8h2v2.27a2 2 0 1 0 2 0v-2.27h2v4.39c0 1.64-1.34 2.61-3 2.61s-3-.97-3-2.61z" fill="#abacad"/><path d="m7.27 5.36c1.43.35 1.74 1.9 1.73 2.64-.28-.56-1.04-1.72-1.85-1.93-1.79-.43-2.18-1.57-2.15-2.07.17.3.86 1.01 2.27 1.36z" fill="#ff9200"/><path d="m11.82 4c-1.68 0-1.9 2-1.8 3 .34-2.69 2.8-2.76 3.98-2.46a4.69 4.69 0 0 0 -2.18-.54zm-1.82-.65c-.58.5-.7 1.97-.7 2.65-.1-.07-.3-.4-.3-1.15 0-.92.54-1.85.73-1.85.2 0 .27.22.27.35z" fill="#875e3e"/></svg>