<svg height="18" viewBox="0 0 18 18" width="18" xmlns="http://www.w3.org/2000/svg"><path d="m0 0h18v18h-18z" fill="#f0f3fa"/><path d="m13.5 9a4.5 4.5 0 1 1 -9 0 4.5 4.5 0 0 1 9 0zm.5 0a5 5 0 1 1 -10 0 5 5 0 0 1 10 0zm-5.43-3.38h.43c2.02.17 3.09 1.7 3.09 3.67 0 1.52-1.34 2.65-2.8 2.65l.34.59h.7l.14.15h-1.51l-.51-.89h.86c1.37 0 2.63-1.06 2.63-2.5 0-1.9-1-3.36-2.95-3.53h-.15l.5.75c.9.17 1.72 1.15 1.72 2.64 0 1.45-1.42 2.06-2.65 2.06h-.36a3 3 0 0 0 .95.14c1.48 0 2.38-1.07 2.35-2.5 0-.36-.02-.65-.07-.86l.14-.04c.06.23.07.53.08.9.03 1.5-.94 2.65-2.5 2.65-.55 0-1-.13-1.33-.3h-1.47l-.15-.14h1.35c-.16-.1-.31-.3-.4-.4 0-.02-.02-.03-.03-.04h-1.21v-.15h3.54c.93 0 1.28-1 1.26-1.8l-3.4 1.5h-.36l3.88-1.72.01.1c.07.92-.34 2.07-1.4 2.07h-2.11c.1.13.3.33.52.44h.71c1.15 0 2.5-.55 2.5-1.91 0-1.44-.78-2.36-1.62-2.5h-1.2l-.3-.3h.47l.08-.02c.18-.06.43-.15.44-.32l-.21-.4zm.32.55c-.08.19-.36.26-.53.3l-.1.03h.9zm.57 6.36-.34-.59h-.41l.33.59zm-.9.15h-1.03v-.15h.88zm.88-6.62h-.14v.15h.15v-.15zm-2.06 1.32h-1.47v1.03c0 .12.04.3.15.46s.3.28.59.28a.7.7 0 0 0 .59-.28.8.8 0 0 0 .14-.46zm-.14 1.03v-.88h-1.18v.73h1.18v.15h-1.18c0 .2.12.59.59.59s.59-.4.59-.59zm-.81-.44v-.15h-.15v.15zm.29 0v-.15h-.15v.15zm.3 0v-.15h-.15v.15h.13zm3.23 1c-.18.5-.48 1.06-1.1 1.06h-1.33l-.3.15h1.63c.7 0 1.03-.59 1.24-1.15zm-.45.36c-.23.34-.7.48-1.1.48v-.15c.34 0 .78-.11.97-.4z" fill="#b5ac8c" fill-rule="evenodd"/></svg>