<svg height="18" viewBox="0 0 18 18" width="18" xmlns="http://www.w3.org/2000/svg"><path d="m0 0h18v18h-18z" fill="#2e94ff"/><path d="m9 14a5 5 0 0 0 4.59-7c-.25-.23-.57-.4-.88-.4-1 0-1.71.75-1.71 1.28v2.56c0 1.41-.83 2.56-2.32 2.56-1.36 0-2.5-.74-2.66-2h1.48c.14.37.56.5 1 .5.56 0 1.2-.53 1.2-1.06l-.03-.18c-.3.12-.64.18-.99.18a2.62 2.62 0 0 1 -2.68-2.56c0-1.41 1.2-2.56 2.68-2.56.67 0 1.28.23 1.75.61.39-.43.94-.75 1.64-.88a5 5 0 1 0 -3.07 8.95zm.76-6.18c0-.58-.52-1.03-1.08-1.03-.55 0-1.07.4-1.07 1.03 0 .53.45 1.02 1.07 1.02s1.08-.51 1.08-1.02z" fill="#b2ff00"/></svg>