<svg height="18" viewBox="0 0 18 18" width="18" xmlns="http://www.w3.org/2000/svg" xmlns:xlink="http://www.w3.org/1999/xlink"><linearGradient id="a" gradientUnits="userSpaceOnUse" x1="6.65" x2="9.78" y1="5.85" y2="12.64"><stop offset=".63"/><stop offset=".93" stop-color="#f3f3f3"/></linearGradient><linearGradient id="b" gradientUnits="userSpaceOnUse" x1="9.62" x2="7.15" y1="8.54" y2="13"><stop offset="0" stop-color="#5c5c5c"/><stop offset="1" stop-color="#010101"/></linearGradient><linearGradient id="c" gradientUnits="userSpaceOnUse" x1="7.79" x2="9" y1="5" y2="8.22"><stop offset="0" stop-color="#fff"/><stop offset=".73" stop-color="#676767"/><stop offset="1" stop-color="#0c0c0c"/></linearGradient><linearGradient id="d" gradientUnits="userSpaceOnUse" x1="5.01" x2="5.84" y1="9.37" y2="9.43"><stop offset=".18" stop-color="#7d7d7d"/><stop offset="1" stop-color="#eaeaea"/></linearGradient><linearGradient id="e" gradientUnits="userSpaceOnUse" x1="16.15" x2="1.85" y1="8" y2="8"><stop offset=".06" stop-color="#adabab"/><stop offset=".5" stop-color="#fbfbfb"/><stop offset=".93" stop-color="#adacac"/></linearGradient><linearGradient id="f" gradientUnits="userSpaceOnUse" x1="9.2" x2="4.48" y1="9.46" y2="9.46"><stop offset="0" stop-color="#c5c6c6"/><stop offset="1" stop-color="#010101"/></linearGradient><path d="m0 9a9 9 0 1 1 18 0 9 9 0 0 1 -18 0z" fill="#f0f3fa"/><path d="m12 8.24a3.1 3.1 0 0 0 -3-2.32c-1.38 0-2.62.93-2.97 2.3l-.36.04c.45-1.56 1.69-2.64 3.33-2.64 1.65 0 2.89 1.09 3.34 2.66l-.35-.04zm-6.09.76a3.12 3.12 0 0 0 3.09 3.08 3.12 3.12 0 0 0 3.08-3.08c0-.03.82-.16.91-.17l-.6.32-.04.32c-.3 1.73-1.62 2.91-3.35 2.91a3.33 3.33 0 0 1 -3.35-2.9l-.03-.33-.62-.3c.08 0 .92.15.92.15z" fill="url(#a)"/><path d="m13 8.82v.18a4 4 0 1 1 -8-.16l.04.01.51.26a3.38 3.38 0 0 0 3.45 3.35 3.37 3.37 0 0 0 3.44-3.37l.5-.25z" fill="url(#b)"/><path d="m9 5a4 4 0 0 1 3.92 3.21h-.56a3.34 3.34 0 0 0 -3.36-2.65 3.34 3.34 0 0 0 -3.37 2.66h-.55a4 4 0 0 1 3.92-3.22z" fill="url(#c)"/><path d="m5.78 10.31c.03.3.05.64-.02.64-.14 0-.64-.69-.7-1.49-.03-.28-.05-.48-.05-.62l.03.01.52.27c0 .31.06.82.22 1.2z" fill="url(#d)"/><path d="m15.98 8.1s-.34.35-.6.38c-1.4.17-4.57.15-6.18 2.04-.03.04-.1.1-.2.1a.29.29 0 0 1 -.2-.08c-1.58-1.98-4.78-1.9-6.2-2.06-.25-.03-.6-.37-.6-.37v-.11l.28.04 6.72.31 6.72-.31.28-.04z" fill="#0f0f0f"/><path d="m16 8s-.28.3-.44.3h-1.6c-1.72-.01-3.76.04-4.96.7-1.27-.66-3.27-.71-4.96-.7h-1.6c-.16 0-.44-.3-.44-.3z" fill="url(#e)"/><path d="m8.78 10.52c.06.03.1.06.14.05.1-.01.08-.15.08-.15v-.92s.02-.25-.33-.4c-1.29-.6-2.88-.72-4.27-.73-.6 0-.8.05-.81.2 1.58.12 3.9.37 5.19 1.95z" fill="url(#f)"/></svg>