<svg height="18" viewBox="0 0 18 18" width="18" xmlns="http://www.w3.org/2000/svg"><path d="m0 0h18v18h-18z" fill="#f0f3fa"/><path d="m9.16 13a7.72 7.72 0 0 0 4.03-1.13 7.38 7.38 0 0 0 -4.03-1.2zm0-2.66c1.71.02 3.25.53 4.32 1.33a3.45 3.45 0 0 0 1.52-2.5h-5.84zm-.32-1.17v1.17a7.53 7.53 0 0 0 -4.32 1.33 3.45 3.45 0 0 1 -1.52-2.5zm.32-.34h5.84c-.06-1.01-.7-1.93-1.69-2.62a7.3 7.3 0 0 1 -4.15 1.44zm-.32-1.17v1.17h-5.84c.06-.9.56-1.73 1.37-2.38a7.7 7.7 0 0 0 4.47 1.21zm.32-.34a7.26 7.26 0 0 0 3.86-1.3 7.83 7.83 0 0 0 -3.86-1.02zm-.32-2.32v2.33h-.16c-1.58 0-3-.42-4.03-1.09a7.62 7.62 0 0 1 4.2-1.24zm0 5.67v2.33a7.72 7.72 0 0 1 -4.03-1.13l.11-.08c1-.67 2.38-1.1 3.92-1.12z" fill="#1d60ae"/><path d="m5.95 9.7v-2.7h1.05v2.7c0 .27-.07.5-.2.7-.13.19-.31.34-.54.44a2.13 2.13 0 0 1 -1.54.02c-.22-.08-.4-.22-.53-.4-.13-.19-.19-.42-.19-.7h1.05c0 .13.02.23.05.3a.3.3 0 0 0 .15.16c.07.03.15.05.25.05s.18-.02.24-.07c.07-.04.12-.1.16-.19a.78.78 0 0 0 .05-.3zm3.65.21c0-.06 0-.11-.02-.16a.34.34 0 0 0 -.1-.14.9.9 0 0 0 -.21-.13l-.36-.14a5.43 5.43 0 0 1 -.5-.19c-.17-.07-.31-.16-.44-.25-.13-.1-.23-.22-.3-.35a.92.92 0 0 1 -.11-.46.9.9 0 0 1 .11-.45c.08-.13.18-.25.32-.34.14-.1.3-.17.48-.22a2.25 2.25 0 0 1 1.38.07c.22.1.4.24.52.42.13.18.2.4.2.64h-.97c0-.1-.02-.19-.06-.26a.42.42 0 0 0 -.18-.18.66.66 0 0 0 -.31-.06.76.76 0 0 0 -.3.05.42.42 0 0 0 -.19.15.33.33 0 0 0 -.06.2c0 .05.02.1.05.15s.08.1.14.13l.23.12.3.11c.22.07.4.14.57.22.16.08.3.17.41.28a1.02 1.02 0 0 1 .35.79c0 .17-.03.33-.1.46a.97.97 0 0 1 -.3.35c-.13.09-.28.16-.46.2a2.33 2.33 0 0 1 -1.2 0 1.8 1.8 0 0 1 -.54-.23c-.16-.1-.28-.24-.38-.4a1.2 1.2 0 0 1 -.14-.6h.96c0 .1.01.2.04.28s.08.14.14.2c.06.04.13.07.22.1l.3.02c.12 0 .22-.01.3-.05a.37.37 0 0 0 .16-.14.37.37 0 0 0 .05-.19zm3.4-2.91v4h-1v-4zm1 0v.74h-3v-.74z" fill="#ec2425"/></svg>