<svg height="18" viewBox="0 0 18 18" width="18" xmlns="http://www.w3.org/2000/svg" xmlns:xlink="http://www.w3.org/1999/xlink"><linearGradient id="a" gradientUnits="userSpaceOnUse" x1="6.27" x2="7.91" y1="6" y2="13.78"><stop offset="0" stop-color="#f1af10"/><stop offset=".62" stop-color="#fab208"/><stop offset="1" stop-color="#e88f18"/></linearGradient><path d="m0 0h18v18h-18z" fill="#004c3f"/><path d="m8.55 8c0-1.07-.71-1.78-1.07-2 .2.22.61.93.61 2s-2.73 3.33-4.09 4.33c2.58-.16 4.2.95 4.55 1.67-.25-2-2.13-2.28-3.03-2.17 1.66-.66 3.03-2.5 3.03-3.83z" fill="url(#a)"/><path d="m6.88 4.83c0 .4.2.61.3.67-.1-.22-.09-.7.76-.83.85-.14 3.69.94 5 1.5-.3.33-2.88 3.66-3.49 5.16a3.41 3.41 0 0 0 0 2.67c-.05-.17-.06-.83.3-2.17.37-1.33 2.99-4.55 4.25-6-2.27-1-5.45-1.83-6.06-1.83-.6 0-1.06.33-1.06.83z" fill="#fcf100"/></svg>