<svg height="18" viewBox="0 0 18 18" width="18" xmlns="http://www.w3.org/2000/svg"><path d="m0 0h18v18h-18z" fill="#f0f3fa"/><path d="m7.83 4h-2.66v10h2.66s-.43-.5-.43-.9v-7.4c0-.58-.04-1.07.43-1.7z" fill="#f4084e"/><path d="m7.29 4h-2.79v10h2.68s-.48-.5-.48-.9v-7.63c.07-.6.15-1.1.59-1.46z" fill="#004a8c"/><path d="m13.72 4h-2.66v10h2.66s-.44-.5-.44-.9v-7.4c0-.58-.03-1.07.44-1.7z" fill="#f4084e"/><path d="m13.18 4h-2.8v10h2.69s-.48-.5-.48-.9v-7.63c.07-.6.15-1.1.59-1.46z" fill="#004a8c"/><path d="m9.77 6.3h-2.37v6.06c.6-.9 1.66-2.16 2.94-2.16h2.26v.99s1.9-.29 1.9-1.9c0-1.44-1.42-1.88-1.79-1.88h-1.06s0-.05-.27-.44c-.36-.52-1.24-.67-1.61-.67z" fill="#f4084e"/><path d="m9.77 7h-2.37v4.23c.72-.74 1.8-1.73 2.9-1.73 1.12 0 2.7.03 2.7.03v.96s.8-.18.8-1.13-.74-1.36-1.67-1.36h-1.13s-.15-.43-.37-.66c-.21-.21-.48-.34-.86-.34z" fill="#004a8c"/></svg>