<svg height="18" width="18" xmlns="http://www.w3.org/2000/svg"><path d="m0 0h18v18h-18z" fill="#f0f3fa"/><path d="m6.902 15 1.857-4.771c.721-.891 1.491-1.19 1.786-1.229z" fill="#37b34a"/><ellipse cx="9" cy="6.002" fill="#37b34a" rx="1" ry=".999"/><path d="m5.453 9.642c.384.39 1.247.12 1.63-.062-.875.682-1.579.453-1.821.253-.178-.149-.443-.621-.083-1.322.361-.7 1.087-1.167 1.404-1.313.301-.149 1.041-.357 1.596 0 .554.358.517 1.353.284 1.919l-2.07 4.884.968-4.727c.087-.398.254-1.117-.182-1.334-.437-.216-1.047.16-1.297.376-.303.28-.814.937-.43 1.326z" fill="#0080c7"/><path d="m11.797 5.984c1.333-.667 2.693-.194 3.206.126-1.801-.397-3.39 1.241-3.959 2.11.539-.036 1.587.098 1.47.926-.115.827-1.102 1.373-1.58 1.543.676-.387.954-.946 1.008-1.176.054-.25-.05-.773-.898-.86-.848-.086-1.767.26-2.12.443v-.059c.404-.353.727-.926.838-1.168.122-.35.7-1.217 2.035-1.885z" fill="#37b34a"/></svg>