<svg height="18" width="18" xmlns="http://www.w3.org/2000/svg"><path d="m0 0h18v18h-18z" fill="#07487a"/><g fill="#fff"><path d="m13.347 10.487-.924.572.038.856c.403-.5.759-1.16.886-1.428zm-1.237.876-1.122 1.078.237.665.962-.887-.078-.856zm1.871-3.127-.642.97.19.855c.236-.534.4-1.44.452-1.825z"/><path d="m12.036 10.68-1.306 1.097.27.688 1.125-.973-.09-.813zm-2.384-.17-1.894 1.155.858 1.145 1.602-1.146-.566-1.155zm1.885-1.399-1.54 1.175.575 1.204 1.355-1.136zm-1.025 3.293-1.327.815.603.781a9.64 9.64 0 0 0 1.195-.73l-.47-.866zm2.644-2.917-.839.977.122.928.905-.9zm-.422-1.539-.92.913.413 1.2.847-.946zm.239-.247.557-.746.462.795-.722 1.071zm-6.162-1.698-2.163 1.322 1.347 2.017 2.19-1.279zm-.971 3.95-1.84.938 1.386 1.605 1.736-.937zm4.909-5.953-1.281.615 1.183 1.766 1.122-.816-1.023-1.565zm-.244 3.05-1.696 1.126.976 1.699 1.573-1.178-.853-1.645zm1.465-1.085-1.102.89.863 1.549.883-.82zm.852-.786-.56.604.633 1.538.51-.695z"/><path d="m13.89 6.332-.371.654.475.777c.029-.863-.057-1.313-.103-1.43z"/></g></svg>