<svg height="18" width="18" xmlns="http://www.w3.org/2000/svg"><path d="m0 0h18v18h-18z" fill="#e23a2c"/><path d="m8 14h-5v-.69c.406-.028 1.41.057 1.507-.494.034-.14.051-.35.051-.63v-6.387c0-.29-.017-.495-.051-.615-.023-.12-.063-.204-.12-.254-.298-.261-1.03-.207-1.387-.24v-.69h5v.69c-.384.03-1.167-.029-1.49.255-.057.05-.097.134-.12.254-.023.11-.034.295-.034.555v2.722h5.444v-2.676c0-.29-.012-.495-.035-.615-.022-.12-.062-.204-.12-.254-.145-.241-1.645-.241-1.645-.241v-.69h5v.69c-.324.026-.996.02-1.264.255a.529.529 0 0 0 -.103.254c-.012.11-.017.295-.017.555v6.492c0 .26.005.45.017.57.104.502.977.47 1.367.494v.69h-5v-.69c.412-.028 1.667.071 1.766-.494.023-.14.035-.35.035-.63v-2.599h-5.445v2.659c0 .26.011.45.034.57.103.497 1.218.47 1.61.494z" fill="#fff"/></svg>