<svg height="18" viewBox="0 0 18 18" width="18" xmlns="http://www.w3.org/2000/svg"><path d="m0 0h18v18h-18z" fill="#f0f3fa"/><g fill="#003067"><path d="m7.35 8.3h1.34c.07.04.17.11.17.31 0 .26-.15.39-.4.39h-1.62l.52-.7zm1.04 1.24h-1.84l-.4.46h2.2c.25 0 .22-.11.22-.27s-.11-.15-.18-.2z"/><path d="m9.14 4 2.11 3.92h1a.46.46 0 0 1 -.25-.42c0-.32.36-.49.62-.49s.57.17.57.5c0 .19-.14.35-.3.42h1.11v.62h-.71c-.12.43-.39.68-.87 1.2l1.3 2.26h-9.16l.88-1.38h-1.44v-.63h1.27l1.1-1.39h-.94v-.61h1.6zm-.84 3.7h1.7v-.32h-1.71v.31zm1.3.88c0-.4-.2-.43-.44-.43h-3.6v.31h1.08l-1.3 1.69h-1.2v.32h3.96c.44-.03 1.31-.06 1.31-.63 0-.29-.26-.4-.41-.43v-.37c.32.05.58-.09.58-.46zm1.78-.2h.62v.16c-.12 1.23-1.09 1.63-1.89 2.04l-.4.19a4.12 4.12 0 0 0 2.62-1.17c.51-.53.77-.8.85-1.21h.68v-.32h-1.16v-.24c.2-.05.36-.18.36-.34 0-.19-.2-.34-.45-.34s-.49.15-.49.34c0 .16.1.3.3.34v.24h-1.06v.32zm-2.52-3.45h.57v.31h-.57v-.3zm.85.93v-.31h-1.14v.3h1.14zm.29.3v.31h-1.71v-.3h1.71zm0 .93v-.31h-1.71v.3h1.71zm0 4.61v-.3h-1.71v.3z" fill-rule="evenodd"/></g></svg>