<svg height="18" width="18" xmlns="http://www.w3.org/2000/svg"><path d="m0 0h18v18h-18z" fill="#f0f3fa"/><path d="m7.93 13.07c0-.5.48-2.06 1.07-2.06s1.07 1.56 1.07 2.06c0 .51-.48.93-1.07.93-.6 0-1.07-.42-1.07-.93z" fill="#fcba17"/><path d="m9 4c-.87 0-1.57.67-1.57 1.5s.7 3.52 1.57 3.52c.86 0 1.56-2.7 1.56-3.52 0-.83-.7-1.5-1.56-1.5z" fill="#f0402e"/><path d="m4.73 9.2c.67.37 3.02.93 3.39.27s-1.38-2.29-2.05-2.65a1.42 1.42 0 0 0 -1.9.53c-.37.67-.12 1.49.56 1.85zm9.1-1.8a1.42 1.42 0 0 0 -1.9-.53c-.68.36-2.42 1.99-2.05 2.65.37.65 2.72.1 3.39-.27.68-.36.93-1.18.56-1.85z" fill="#f05921"/><path d="m5.62 11.68c.2.42.72.6 1.14.4.43-.2 1.56-1.14 1.35-1.55-.2-.42-1.66-.15-2.09.04-.42.2-.6.7-.4 1.11zm6.35-1.11c-.42-.2-1.88-.46-2.1-.04-.2.41.94 1.35 1.36 1.54.43.2.94.03 1.14-.39a.82.82 0 0 0 -.4-1.11z" fill="#f5821f"/></svg>