<svg height="18" viewBox="0 0 18 18" width="18" xmlns="http://www.w3.org/2000/svg"><path d="m0 0h18v18h-18z" fill="#67b1ba"/><path d="m10.64 4.18c.12.03.22.09.27.16s.09.17.09.3v3.36h-4v-3.36c0-.13-.02-.23.03-.3s.21-.13.21-.16v-.18h-2.6v.18c.12.04.22.1.27.16a.5.5 0 0 1 .09.3v8.73a.5.5 0 0 1 -.09.3c-.05.06-.15.12-.27.16v.17h2.6v-.17c0-.04-.16-.1-.21-.16-.05-.07-.03-.17-.03-.3v-3.77h4v3.78a.5.5 0 0 1 -.09.3c-.05.07-.15.12-.27.16v.16h2.72v-.17c-.12-.04-.22-.1-.27-.17a.5.5 0 0 1 -.09-.29v-8.73a.5.5 0 0 1 .09-.3c.05-.07.15-.12.27-.16v-.18h-2.72z" fill="#fff"/></svg>