<svg height="18" viewBox="0 0 18 18" width="18" xmlns="http://www.w3.org/2000/svg"><path d="m0 0h18v18h-18z" fill="#f0f3fa"/><path d="m6 6h2v.77c.6-.05 1.27-.08 2-.08v-.69h2v4.22c-.57.34-1.41.53-2 .61v-.63l1.32-.98c.09-.07.09-.2 0-.27l-1.32-1.02v-1.03c-2.79-.04-6.04.73-6.27 2.49 0 .57.84 1.16 1.27 1.39-.67-.23-2-.9-2-1.78 0-.73.95-1.5 3-1.94zm0 1.82v4.18h2v-.7c.73 0 1.4-.03 2-.08v.78h2v-1.06c2.05-.44 3-1.2 3-1.94 0-.88-1.33-1.55-2-1.78.43.23 1.27.82 1.27 1.39-.23 1.76-3.48 2.53-6.27 2.49v-.88l-1.27-1a.16.16 0 0 1 .01-.26l1.26-.96v-.83c-.8.11-1.51.4-2 .65z" fill="#364281"/><path d="m8.78 7.72-1.67 1.22c-.1.07-.1.2 0 .27l1.67 1.23c.15.1.35.1.5 0l1.66-1.23c.1-.07.1-.2 0-.27l-1.66-1.22a.42.42 0 0 0 -.5 0z" fill="#ef7e2d"/></svg>