<svg height="18" viewBox="0 0 18 18" width="18" xmlns="http://www.w3.org/2000/svg"><path d="m0 0h18v18h-18z" fill="#f0f3fa"/><g fill="#be0139"><path d="m3 10.71c.48.23 1 .5 1.53.66.95.32 2.41.63 4.46.63s3.52-.31 4.48-.62a7.58 7.58 0 0 0 1.4-.63h.02l.11-.06v-3.49l-.14-.05h-.02a3.45 3.45 0 0 0 -.37-.17c-.26-.11-.64-.26-1.14-.4-1-.3-2.45-.58-4.28-.58a15.01 15.01 0 0 0 -5.5 1.04 6.82 6.82 0 0 0 -.4.18l-.15.07v3.43zm.48-.28v-2.85c.5-.24 2.5-1.11 5.57-1.11a13 13 0 0 1 5.45 1.05v2.91c-.4.25-2.13 1.12-5.53 1.12s-5.09-.87-5.5-1.12z"/><path d="m4 10.1v-2.24h.05s1.88-.86 4.99-.86c3.1 0 4.91.8 4.91.8l.05.01v2.31l-.03.02s-1.5.86-4.98.86c-3.47 0-4.99-.9-4.99-.9z" fill-opacity=".5"/></g></svg>