<svg height="18" width="18" xmlns="http://www.w3.org/2000/svg" xmlns:xlink="http://www.w3.org/1999/xlink"><linearGradient id="a" gradientUnits="userSpaceOnUse" x1="3.97" x2="13.91" y1="9" y2="9"><stop offset=".01" stop-color="#77787b"/><stop offset=".51" stop-color="#dbdbdb"/><stop offset="1" stop-color="#77787b"/></linearGradient><linearGradient id="b" gradientUnits="userSpaceOnUse" x1="9" x2="9" y1="13.33" y2="9.44"><stop offset="0" stop-color="#004d7e"/><stop offset="1" stop-color="#0087c9"/></linearGradient><path d="m0 0h18v18h-18z" fill="#f0f3fa"/><path d="m14 4h-10v10h10z" fill="url(#a)"/><path d="m4.67 9a4.33 4.33 0 1 1 8.66 0 4.33 4.33 0 0 1 -8.66 0z" fill="url(#b)"/><path d="m6.97 6.33h1.45v2h1.16v-2h1.45v5.34h-1.45v-2h-1.16v2h-1.45z" fill="#f0f3fa"/><path d="m12.35 11.24a4.03 4.03 0 1 0 -6.7-4.48 4.03 4.03 0 0 0 6.7 4.48zm.25.17a4.33 4.33 0 1 0 -7.2-4.82 4.33 4.33 0 0 0 7.2 4.82z" fill-rule="evenodd"/></svg>