<svg height="18" viewBox="0 0 18 18" width="18" xmlns="http://www.w3.org/2000/svg" xmlns:xlink="http://www.w3.org/1999/xlink"><linearGradient id="a" gradientUnits="userSpaceOnUse" x1="11.05" x2="11.05" y1="6.39" y2="11.25"><stop offset="0" stop-color="#003e92"/><stop offset=".18" stop-color="#285aa3"/><stop offset=".46" stop-color="#5e81bb"/><stop offset=".7" stop-color="#869ecd"/><stop offset=".89" stop-color="#9fafd8"/><stop offset="1" stop-color="#a8b6dc"/></linearGradient><linearGradient id="b" gradientUnits="userSpaceOnUse" x1="6.7" x2="6.7" y1="11.91" y2="7.44"><stop offset="0" stop-color="#006e41"/><stop offset=".22" stop-color="#338862"/><stop offset=".48" stop-color="#69a486"/><stop offset=".71" stop-color="#91b8a1"/><stop offset=".89" stop-color="#aac5b1"/><stop offset="1" stop-color="#b3cab7"/></linearGradient><path d="m0 0h18v18h-18z" fill="#f0f3fa"/><path d="m5.56 6v4.22c0 .18.12.22.24.02a10.06 10.06 0 0 1 4.02-3.83v-.41z" fill="#003e92"/><path d="m13.83 4.15c-.71-.59-2.71.69-4.13 1.87v.41c.66-.3 1.25-.5 1.54-.32.66.42-.84 3.44-3.1 5.07-.08.06-.08.18.08.09 3.9-2.3 6.5-6.39 5.6-7.12z" fill="url(#a)"/><path d="m6.6 12.06c-.68-.74.81-3.09 2.75-4.54.08-.06.09-.17-.07-.09-2.9 1.6-5.9 5.43-5.17 6.38.42.55 2.03-.17 3.5-1.37v-.23c-.44.12-.8.09-1.01-.15z" fill="url(#b)"/><path d="m11.78 8.79c-.85 1.5-2.9 3.12-4.2 3.44v.2h4.42v-3.6c0-.16-.13-.21-.22-.04z" fill="#006e41"/></svg>