<svg height="18" viewBox="0 0 18 18" width="18" xmlns="http://www.w3.org/2000/svg"><path d="m0 0h18v18h-18z" fill="#46a4e1"/><path d="m12.02 9.9h-.02c-.45 0-.88-.09-1.26-.26.36.25.66.58.88.96l-2.6 4.4-2.62-4.43c.22-.37.51-.69.86-.93-.38.17-.8.27-1.25.27l-2.54-4.3h5.2a2.9 2.9 0 0 1 -.93 3.75 3.03 3.03 0 0 1 2.52 0 2.94 2.94 0 0 1 -.94-3.74h5.24zm-2.7-4.28a3 3 0 0 1 2.68-1.62c1.66 0 3 1.32 3 2.95a2.98 2.98 0 0 1 -2.98 2.96l-.4.69a2.98 2.98 0 0 1 -2.62 4.4c-1.66 0-3-1.32-3-2.95 0-.54.14-1.04.4-1.48l-.4-.66c-1.66 0-3-1.32-3-2.96a2.98 2.98 0 0 1 3-2.95 3 3 0 0 1 2.68 1.62z" fill="#fff" fill-rule="evenodd"/></svg>