<svg height="18" width="18" xmlns="http://www.w3.org/2000/svg"><path d="m0 0h18v18h-18z" fill="#e05929"/><path d="m8.25 3c-.92 0-1.125.767-1.125 1.688v1.5c0 .46-.498.937-.958.937h-1.5c-.92 0-1.667.205-1.667 1.125h3.667c1.104 0 1.583-.479 1.583-1.583zm-5.25 6.75c0 .92.725 1.125 1.646 1.125h1.5c.46 0 .979.498.979.958v1.5c0 .92.205 1.667 1.125 1.667v-3.667c0-1.104-.479-1.583-1.583-1.583zm12-1.5c0-.92-.767-1.125-1.688-1.125h-1.5c-.46 0-.937-.477-.937-.938v-1.5c0-.92-.204-1.687-1.125-1.687v3.667c0 1.104.479 1.583 1.583 1.583zm-5.25 6.75c.92 0 1.125-.746 1.125-1.667v-1.5c0-.46.477-.958.938-.958h1.5c.92 0 1.687-.204 1.687-1.125h-3.667c-1.104 0-1.583.479-1.583 1.583zm-1.645-5.918a.106.106 0 0 1 0-.164c.18-.145.55-.461.808-.796a.111.111 0 0 1 .174 0c.257.335.629.651.808.796a.106.106 0 0 1 0 .164c-.18.145-.55.461-.808.796a.111.111 0 0 1 -.174 0c-.257-.335-.629-.651-.808-.796z" fill="#fff"/></svg>