<svg height="18" viewBox="0 0 18 18" width="18" xmlns="http://www.w3.org/2000/svg"><path d="m0 0h18v18h-18z" fill="#f0f3fa"/><path d="m6 9.83c0-.13.13-.25.28-.25h1.44c.15 0 .28.12.28.25v2.92c0 .14-.13.25-.28.25h-1.44c-.15 0-.28-.11-.28-.25z" fill="#00a0e8"/><path d="m6 6a1 1 0 0 1 2 0v2h-2z" fill="#009b3d"/><path d="m4 10a1 1 0 0 1 0-2h2v2z" fill="#fccc00"/><path d="m11.28 5c-.15 0-.28.12-.28.26v2.74h-3.14v2h3.14v2.74c0 .14.13.26.28.26h1.44c.15 0 .28-.12.28-.26v-7.48c0-.14-.13-.26-.28-.26z" fill="#004179"/><path d="m6 8h2v2h-2z" fill="#00332e"/></svg>