<svg height="18" viewBox="0 0 18 18" width="18" xmlns="http://www.w3.org/2000/svg"><path d="m0 0h18v18h-18z" fill="#f0f3fa"/><path d="m12.16 12.06-2.16-6.5a8.81 8.81 0 0 1 -.5 4.76c.1.3.22.6.35.91 1.53.02 2.3.83 2.3.83z" fill="#e74b23"/><path d="m13 5.7c0-.94-1.73-1.7-3.87-1.7-1.2 0-2.28.24-2.99.62.65-.21 1.44-.34 2.3-.34 2.14 0 3.87.76 3.87 1.7 0 .41-.33.79-.88 1.08.95-.3 1.57-.8 1.57-1.36z" fill="#570a00"/><path d="m5.76 6.29c0-.7 1.52-1.29 3.39-1.29.45 0 .88.04 1.28.1a7.57 7.57 0 0 0 -2.05-.26c-1.87.01-3.38.58-3.38 1.28 0 .53.87.98 2.1 1.17-.81-.23-1.34-.6-1.34-1z" fill="#e74b23"/><path d="m11.3 13.87a7.3 7.3 0 0 1 -2.29-3.55c-.78-2.43-.48-4.76-.48-4.76l-2.77 8.44c.75-.3 1.8-.47 2.97-.47.97 0 1.87.12 2.58.34z" fill="#570a00"/></svg>