<svg height="18" viewBox="0 0 18 18" width="18" xmlns="http://www.w3.org/2000/svg"><path d="m0 0h18v18h-18z" fill="#1abee5"/><path d="m11.73 12h-5.46c-.15 0-.27.1-.27.23v2.54c0 .13.12.23.27.23h5.46c.15 0 .27-.1.27-.23v-2.54c0-.13-.12-.23-.27-.23z" fill="#e8243f"/><path d="m8.96 4.86c-.77 0-1.43.17-1.96.65v-2.01c-0-.28-.28-.5-.56-.5h-.94a.5.5 0 0 0 -.5.5c0 .26.23.5.5.5h.5v6.51c0 .27.34.49.61.49.28 0 .39-.22.39-.5v-2.55c0-1.15.86-2.09 1.97-2.1 1.11 0 2.02.94 2.03 2.1v2.57c0 .27.22.49.5.49a.5.5 0 0 0 .5-.5v-2.57c-.01-1.7-1.37-3.07-3.04-3.07z" fill="#fff"/></svg>