<svg height="18" viewBox="0 0 18 18" width="18" xmlns="http://www.w3.org/2000/svg"><path d="m0 0h18v18h-18z" fill="#f0f3fa"/><path d="m5 5h5.03c.99.09 2.97.86 2.97 3.24 0 1.55-.99 2.49-1.48 2.76 0-.08-.32-2.17-2.07-3.6a12.51 12.51 0 0 0 -4.45-2.4zm0 7.88v-7.14c.9.32 2.93 1.27 3.85 2.58a5.55 5.55 0 0 0 -2.74 4.79 2.31 2.31 0 0 0 -1.11-.23zm0-7.38v-.27c2.36.77 4.24 2.36 4.44 2.74l-.23.1a10.16 10.16 0 0 0 -4.21-2.56zm8 8.5h-1.75a1.28 1.28 0 0 0 -.47-.56c-.25-.15-1.1-.93-1.5-1.3a.77.77 0 0 1 -.22-.55c0-.28.24-.77.36-.97.07-.1.2-.38.2-.62.27.1.88.48 1.07 1.1.1-.02.4-.03.63.1-.4.24-.97.36-1.2.39z" fill="#2e3092"/></svg>