<svg height="18" viewBox="0 0 18 18" width="18" xmlns="http://www.w3.org/2000/svg"><path d="m0 0h18v18h-18z" fill="#f0f3fa"/><path d="m13.9 8h-9.8a5 5 0 0 1 9.8 0z" fill="#de2922"/><path d="m4 9c0-.21.01-.42.04-.63h9.92a5.06 5.06 0 0 1 0 1.26h-9.92c-.04-.22-.04-.43-.04-.63zm.1 1c.04.2.1.41.17.61h4.42v-.6h-4.59zm.32 1c.09.21.2.42.32.62h3.95v-.62zm.58 1c.15.2.3.38.48.55h7.04c.17-.17.33-.36.48-.55zm8.26-.38c.12-.2.23-.4.32-.62h-4.27v.62zm.47-1c.07-.2.13-.41.17-.62h-4.59v.61h4.42zm-1.73 2.38h-6a4.98 4.98 0 0 0 6 0z" fill="#0063a8"/></svg>