<svg height="18" viewBox="0 0 18 18" width="18" xmlns="http://www.w3.org/2000/svg"><path d="m0 0h18v18h-18z" fill="#f0f3fa"/><path d="m6.47 8c-2.05.28-3.47.88-3.47 1.58 0 .58 1 1.1 2.53 1.42v-.33c-.52-.1-2.21-.4-2.21-1.1 0-.88 2.6-1.34 3.15-1.41zm5.06.16c.55.07 3.15.53 3.15 1.42 0 .69-1.7.98-2.2 1.1v.32c1.52-.32 2.52-.84 2.52-1.42 0-.7-1.42-1.3-3.47-1.58z" fill="#0064a6"/><path d="m9 8.16-.32-3.16-2.05 4.58z" fill="#c62b1f"/><path d="m9.32 8.16 1.1 1.42 1.74-4.58z" fill="#d3241f"/><path d="m10.97 10.37c.2 0 .56.05.56.31s-.36.32-.56.32h-.39v-.63h.4zm-.01.5c.2 0 .25-.07.25-.19 0-.11-.06-.18-.25-.18h-.06v.37zm-1.29-.3c-.03-.04-.1-.06-.18-.06-.15 0-.17.07-.17.17 0 .12.02.19.18.19.12 0 .2-.04.24-.11h-.3v-.11h.5v.14c-.07.16-.3.21-.45.21-.2 0-.49-.07-.49-.32 0-.24.3-.31.49-.31.23 0 .39.08.44.2zm-.98-.2v.12h-.32v.51h-.32v-.5h-.31v-.13zm-1.27 0v.63h-.31v-.26h-.32v.26h-.32v-.63h.32v.25h.32v-.25z" fill="#0064a6"/></svg>