<svg height="18" width="18" xmlns="http://www.w3.org/2000/svg"><path d="m0 0h18v18h-18z" fill="#7ac142"/><g fill="#fff"><path d="m8.548 13.32a4.334 4.334 0 0 1 -3.903-4.44 6.015 6.015 0 0 1 3.903 4.44zm.899 0a4.334 4.334 0 0 0 3.904-4.44 6.015 6.015 0 0 0 -3.904 4.44z"/><path d="m9 4.618c-.927 1.339-2.224 4.95 0 8.69 2.19-3.903.806-7.348 0-8.69z"/><path d="m9 13.688c2.565 0 4.688-2.123 4.688-4.688s-2.123-4.688-4.688-4.688-4.688 2.123-4.688 4.688 2.123 4.688 4.688 4.688zm0 .312a5 5 0 1 0 0-10 5 5 0 0 0 0 10z" fill-rule="evenodd"/></g></svg>