<svg height="18" viewBox="0 0 18 18" width="18" xmlns="http://www.w3.org/2000/svg"><path d="m0 0h18v18h-18z" fill="#f0f3fa"/><path d="m5.92 8.7c0-1.4 3.6-2.55 8.07-2.58v-.12c-.02 0 .03 0 0 0-6.03 0-10.99 1.34-10.99 3s4.96 3 11 3c-.03 0 .02 0 0 0v-.76c-4.5-.04-8.09-1.14-8.09-2.54z" fill="#62a24c"/><path d="m7.54 8.7s-.37-.58.5-1.1c0 0-1.12.5-.92 1.12 0 0 .19 1.71 6.87 1.93v-.53c-.47-.01-5.32-.11-6.45-1.42z" fill="#2360a5"/><path d="m12.09 9.38s.1.15 1.9.1v-.11c-.4.02-1.24.05-1.9.01z" fill="#62a24c"/><path d="m12.26 6.65c.55-.04 1.27-.04 1.73-.04v-.1c-1.59 0-1.73.14-1.73.14zm-1.32 1.71c-.02-.54 2.28-.6 3.05-.6v-.08c-2.6 0-4.18.32-4.18.75 0 .45 1.66.75 4.18.72v-.23c-3.14.04-3.05-.56-3.05-.56z" fill="#2360a5"/><path d="m8.31 8.24s-.02.38.67.53c0 0-.82-.32-.15-.79 0 0 .97-.81 5.16-.71v-.35c-.94 0-5.62.1-5.68 1.32z" fill="#62a24c"/></svg>