<svg height="18" viewBox="0 0 18 18" width="18" xmlns="http://www.w3.org/2000/svg"><path d="m0 0h18v18h-18z" fill="#fb0000"/><path d="m3 8.96c0-2.5 3.14-3.66 4.85-3.96.1-.02.2.02.26.1.1.16.02.37-.16.42-.77.2-1.96.67-2.54 1.4-.69.89.15 1.39.63 1.39h5.82c.57 0 1.34-.58.65-1.38-.5-.57-1.71-1.12-2.46-1.4a.28.28 0 0 1 -.17-.37.27.27 0 0 1 .29-.17c1.73.22 4.83 1.26 4.83 3.97s-3.1 3.8-4.84 4.03a.26.26 0 0 1 -.27-.16c-.06-.15.03-.32.2-.37 1.03-.3 2.64-1.21 2.86-1.94.19-.64-.65-.83-1.1-.85-1.55-.02-4.88-.05-5.81 0s-1.01.6-.93.85c.29.77 1.83 1.5 2.83 1.88.19.07.27.3.17.46a.27.27 0 0 1 -.27.14c-.97-.13-4.84-1.07-4.84-4.04z" fill="#a8a8a8"/><path d="m4.22 9.43.8.68c.15-.38.65-.5.89-.53 1.77-.03 5.47-.07 6.05 0 .57.07.91.38 1.02.53l.89-.68c-.37-.15-1.86-.45-4.84-.45s-4.45.3-4.81.45z" fill="#424242"/><path d="m5.98 5.76a4.34 4.34 0 0 0 -2.43 2.34c.22-.27.9-.97 1.79-1.63 1.1-.82 2.66-1.07 2.71-1.17.06-.1-.39-.23-2.07.47zm6.16 0a4.34 4.34 0 0 1 2.44 2.34c-.23-.27-.9-.97-1.79-1.63-1.1-.82-2.66-1.07-2.72-1.18-.05-.1.4-.23 2.07.47zm-6.82 2.54c.11.15-.08.19-.19.18.11.11.57.17.78.2h3.56v.27c-1.07.01-3.33.03-3.78 0-.55-.04-1.54-.34-1.52-.47.03-.13.36-.39.72-.53.37-.13.3.15.43.35z" fill="#fff"/><path d="m12.78 8.3c-.11.15.08.19.19.18-.11.11-.57.17-.78.2h-3.56v.27c1.07.01 3.33.03 3.78 0 .55-.04 1.54-.34 1.52-.47-.03-.13-.36-.39-.72-.53-.37-.13-.3.15-.43.35zm-8.38 2.46c.64 1.01 2.42 1.64 3.24 1.84-1.81-.85-2.5-1.54-2.69-1.87a.48.48 0 0 0 -.14-.18l-.1-.07a.22.22 0 0 0 -.34.13.2.2 0 0 0 .02.15zm9.36 0c-.65 1.01-2.42 1.64-3.24 1.84 1.8-.85 2.5-1.54 2.68-1.87a.48.48 0 0 1 .15-.18l.1-.07c.13-.08.3-.01.34.13a.2.2 0 0 1 -.03.15z" fill="#fff"/><path d="m9 9.23c-2.5 0-3.08.17-3.06.25h6.23c-.02-.08-.67-.25-3.17-.25z" fill="#cbcbcb"/><path d="m13.34 7.1c-.53-.79-2.21-1.46-3-1.7 1.96 1 2.38 1.6 2.46 1.78.07.2.3.47.5.33.14-.11.09-.32.04-.42zm-8.69 0c.52-.79 2.21-1.46 2.99-1.7-1.95 1-2.38 1.6-2.45 1.78-.07.2-.3.47-.5.33-.15-.11-.1-.32-.04-.42z" fill="#1f2020"/><path d="m3.34 7.82-.16.43c-.13.54-.1 1.39.59 2.27.92 1.17 3.28 1.99 4.34 2.25-.37.12-1.5.14-3.02-.75-1.9-1.12-2.09-2.49-2.09-2.97 0-.23.08-.54.17-.8.04-.18.1-.33.16-.43zm11.32 0c.05.1.11.25.17.43.13.54.1 1.39-.6 2.27-.91 1.17-3.27 1.99-4.33 2.25.37.12 1.5.14 3.02-.75 1.9-1.12 2.08-2.49 2.08-2.97 0-.23-.08-.54-.17-.8a1.6 1.6 0 0 0 -.17-.43z" fill="#131515"/><path d="m4.45 10.86a2.67 2.67 0 0 1 -.93-2.79c-.05.48.05 1.7.93 2.79zm9.11 0c.46-.35 1.3-1.38.93-2.79.05.48-.06 1.7-.93 2.79z" fill="#cbcbcb"/></svg>