<svg height="18" width="18" xmlns="http://www.w3.org/2000/svg"><path d="m0 0h18v18h-18z" fill="#f0f3fa"/><path d="m6.6 7.93h-.78c-1.62 0-2.78.4-3.46 1.14-.55.6-.46 1.5.2 2.08.31.29.96.59 1.54.71.45.1 1.7.14 2.22.06l.28-.06v1.14h2v-1.74c.04 0 .5-.22.93-.45l.77-.43.33.38c.45.53.8 1.03 1.13 1.68l.24.56h2v-8h-2v3.64l-.34.26c-.64.44-.87.55-1 .46a12.6 12.6 0 0 0 -1.64-.86l-.42-.16v-3.34h-2zm-.2.75.2.03v2.2h-.47c-1.35.12-2.31-.16-2.58-.75-.28-.6.66-1.3 1.99-1.45.5-.06.59-.07.86-.03zm5.6 1.73-.87-.7.6-.57c.13-.14.24-.26.27-.26zm-2.18-.46c0 .13-.87.41-1 .47l-.22.05v-1.35c.17.09 1.22.57 1.22.83z" fill="#0948b7"/></svg>