<svg height="18" viewBox="0 0 18 18" width="18" xmlns="http://www.w3.org/2000/svg"><path d="m0 0h18v18h-18z" fill="#f0f3fa"/><path d="m12.23 9.11 1.77-.11a5 5 0 1 0 -9.2 2.72l1.12-.04 3.2-.12 2.37-.1-1.32-.28 3.37-.08a5 5 0 0 0 .14-.33h-3.84c-.14.23-.3.44-.5.62h-3.8a2.82 2.82 0 0 1 -.47-.56l4.37-.23-.12-.13-4.47-.04a2.8 2.8 0 0 1 -.19-.65l4.78-.2-.12-.13-4.7-.08v-.06a2.81 2.81 0 1 1 5.62.24l3.12-.17zm-2.01.62c-.04.3-.13.57-.26.83l2.43-.16-1.18-.28 2.68-.08.06-.3h-3.73zm-1.47 2.07a2.8 2.8 0 0 1 -2.63 0h-1.26a5 5 0 0 0 8.28 0z" fill="#005ba1"/></svg>