<svg height="18" viewBox="0 0 18 18" width="18" xmlns="http://www.w3.org/2000/svg"><path d="m0 0h18v18h-18z" fill="#f0f3fa"/><path d="m8.25 4h1.5a52.28 52.28 0 0 1 4.02.25c.13 1.33.2 2.66.23 4v1.51a53.1 53.1 0 0 1 -.25 4.01c-1.32.13-2.65.2-3.98.23h-1.53a52.34 52.34 0 0 1 -4.01-.25c-.13-1.33-.2-2.66-.23-4v-1.5a55.89 55.89 0 0 1 .25-4.02c1.33-.12 2.66-.2 4-.22z" fill="#021764"/><path d="m6 8.68v1.31h-.62v-2.99h.62v1.31l.01.01h.01l.98.01v-1.31-.02h.62v3h-.62v-1.33h-1zm3.01 1.02h.92v.3h-1.55v-3h.62l.01.01v2.69l.01.01z" fill="#f0f3fa"/><path d="m11.02 9.4h.64a.01.01 0 0 1 .02.01l.11.58.02.01h.62v-.01l-.64-2.99h-.02-.85v.01l-.67 2.97a.01.01 0 0 0 0 .02h.63v-.01l.12-.59h.01zm.61-.3.01-.01-.26-1.52c0-.04-.01-.04-.02 0l-.25 1.5c0 .02 0 .03.02.03z" fill="#f0f3fa" fill-rule="evenodd"/><path d="m6 11h6v1h-6z" fill="#fed900"/></svg>