<svg height="18" viewBox="0 0 18 18" width="18" xmlns="http://www.w3.org/2000/svg" xmlns:xlink="http://www.w3.org/1999/xlink"><linearGradient id="a" gradientUnits="userSpaceOnUse" x1="3.33" x2="5.33" y1="8.17" y2="8.17"><stop offset="0" stop-color="#930203"/><stop offset="1" stop-color="#b20002"/></linearGradient><linearGradient id="b" gradientUnits="userSpaceOnUse" x1="3.61" x2="2.41" y1="6.83" y2="10.98"><stop offset="0" stop-color="#8c0000"/><stop offset="1" stop-color="#d50001"/></linearGradient><linearGradient id="c" gradientUnits="userSpaceOnUse" x1="6.18" x2="4.98" y1="6.83" y2="10.98"><stop offset="0" stop-color="#c10001"/><stop offset="1" stop-color="#ce000d"/></linearGradient><linearGradient id="d" gradientUnits="userSpaceOnUse" x1="7.9" x2="6.53" y1="6.83" y2="10.86"><stop offset="0" stop-color="#980100"/><stop offset=".47" stop-color="#d10009"/><stop offset="1" stop-color="#8b0400"/></linearGradient><linearGradient id="e" gradientUnits="userSpaceOnUse" x1="10.92" x2="9.55" y1="6.83" y2="10.86"><stop offset="0" stop-color="#e10214"/><stop offset="1" stop-color="#900001"/></linearGradient><linearGradient id="f"><stop offset="0" stop-color="#d50112"/><stop offset="1" stop-color="#8a0400"/></linearGradient><linearGradient id="g" gradientUnits="userSpaceOnUse" x1="9.27" x2="7.91" xlink:href="#f" y1="11.17" y2="7.14"/><linearGradient id="h" gradientUnits="userSpaceOnUse" x1="15.07" x2="13.83" xlink:href="#f" y1="11.17" y2="7.04"/><linearGradient id="i" gradientUnits="userSpaceOnUse" x1="15.69" x2="11.91" y1="7.33" y2="10.25"><stop offset="0" stop-color="#efbc01"/><stop offset="1" stop-color="#f1b401"/></linearGradient><linearGradient id="j" gradientUnits="userSpaceOnUse" x1="13.73" x2="11.73" y1="7" y2="10.89"><stop offset="0" stop-color="#ce0110"/><stop offset="1" stop-color="#880306"/></linearGradient><path d="m0 0h18v18h-18z" fill="#f0f3fa"/><path d="m3.17 8.5h2.33v1h-2.33z" fill="url(#a)"/><path d="m4.1 7h-.63c-.3 0-.55.2-.63.5l-.84 3.5h.62c.3 0 .56-.2.63-.5l.84-3.5z" fill="url(#b)"/><path d="m6.67 7h-.63c-.3 0-.55.2-.62.5l-.85 3.5h.63c.3 0 .55-.2.62-.5z" fill="url(#c)"/><path d="m8.45 7h-.53c-.25 0-.47.2-.53.5l-.72 3.5h.53c.25 0 .47-.2.53-.5z" fill="url(#d)"/><path d="m11.33 7h-.53c-.25 0-.47.2-.53.5l-.72 3.5h.53c.25 0 .47-.2.53-.5z" fill="url(#e)"/><path d="m10.1 11h-.58c-.23 0-.44-.17-.52-.43l-1.1-3.57h.58c.23 0 .44.17.52.43z" fill="url(#g)"/><path d="m16 11h-.66a.63.63 0 0 1 -.58-.43l-1.26-3.57h.66c.26 0 .49.17.58.43z" fill="url(#h)"/><path d="m15.69 7.33c-.87 1.74-2.86 2.5-3.74 2.67l.31.83c1.87 0 3.27-2.33 3.74-3.5z" fill="url(#i)"/><path d="m14.29 7h-1.1a39 39 0 0 0 -1.72 3c-.34.73.02 1 .48 1 1.77 0 2.96-1.67 3.43-2.5a3.96 3.96 0 0 1 -2.6 1.86c-.27.06-.35-.28-.2-.53l1.69-2.83z" fill="url(#j)"/></svg>