<svg height="18" viewBox="0 0 18 18" width="18" xmlns="http://www.w3.org/2000/svg"><path d="m0 0h18v18h-18z" fill="#f0f3fa"/><path d="m12.72 5.19a.5.5 0 0 1 .28.43v3.93a.5.5 0 0 1 -.28.44.6.6 0 0 1 -.56 0l-1.88-.98a.51.51 0 0 1 -.28-.44v-1.96a.5.5 0 0 1 .28-.44l1.88-.98a.6.6 0 0 1 .56 0zm-1.88 9.74 1.88-.98a.5.5 0 0 0 .28-.44v-1.96a.5.5 0 0 0 -.28-.44l-1.88-.98a.6.6 0 0 0 -.56 0 .5.5 0 0 0 -.28.44v3.92a.5.5 0 0 0 .28.44.6.6 0 0 0 .56 0" fill="#bbbcc0"/><path d="m7.72 3.07a.5.5 0 0 1 .28.43v4a.5.5 0 0 1 -.28.44.6.6 0 0 1 -.56 0l-1.88-1a.51.51 0 0 1 -.28-.44v-1.99a.5.5 0 0 1 .28-.45l1.88-1a.6.6 0 0 1 .56 0zm-1.88 9.8 1.88-1a.5.5 0 0 0 .28-.44v-1.98a.5.5 0 0 0 -.28-.45l-1.88-.99a.6.6 0 0 0 -.56 0 .5.5 0 0 0 -.28.44v3.98a.5.5 0 0 0 .28.44.6.6 0 0 0 .56 0" fill="#ab7b18"/></svg>