<svg height="18" viewBox="0 0 18 18" width="18" xmlns="http://www.w3.org/2000/svg"><path d="m0 0h18v18h-18z" fill="#f0f3fa"/><g fill="#e30613"><path d="m13.85 7.67c-1-1.5-3.69-1.87-5.11-1.87-1.77 0-4.17 1.33-4.17 3.2s2.4 3.2 4.17 3.2c1.34 0 3.8-.32 4.92-1.62l.26.14c-.92 1.35-2.9 2.28-5.18 2.28-3.17 0-5.74-1.8-5.74-4s2.57-4 5.74-4c2.36 0 4.38.99 5.26 2.4z"/><ellipse cx="14.25" cy="9.15" rx=".75" ry=".77"/><path d="m7.17 8.7.21-2.16h.57l-.18 1.84h1.41l.1-1.84h2.27l-.15.61h-1.6l-.07 1.23h1.37l-.15.62h-1.22l-.13 2.46h-.6l.13-2.46h-1.39l-.24 2.46h-.6z"/></g></svg>