<svg height="18" width="18" xmlns="http://www.w3.org/2000/svg"><path d="m0 0h18v18h-18z" fill="#b2e4e3"/><path d="m3.706 15c1.833-1.163 6.658-3.333 11.294-2.715-1.99.138-7.033.873-11.294 2.715z"/><path d="m4.766 8.69c.126 3.023 2.036 5.231 2.975 5.957-2.006-3.182-2.212-5.69-2.212-6.588 0-1.268.728-2.32 1-2.236.218.067.418.223.51.318l1.961 1.859c.532-.54 1.646-1.545 1.935-1.86.288-.314.482-.325.536-.317.871.373 1.025 1.629 1 2.236 0 2.793-1.556 5.542-2.225 6.588 1.452-1.548 2.975-3.397 2.99-5.958.013-2.56-1.236-3.218-1.95-3.218-.285 0-.609.2-.727.301l-1.559 1.228s-1.25-1.02-1.537-1.228c-.34-.247-.652-.301-.804-.301-1.54 0-1.921 2.291-1.893 3.218zm.99-3.22-.638-2.47h.354l.414.86c2.54-1.383 4.651-.86 6.263 0l.39-.86h.343l-.579 2.47-.756-.291.399-.829c-2.449-.629-4.89-.262-5.856 0l.41.829-.744.292z" fill="#cc6234"/></svg>