<svg height="18" viewBox="0 0 18 18" width="18" xmlns="http://www.w3.org/2000/svg"><path d="m0 0h18v18h-18z" fill="#0c3553"/><path d="m7.66 8h.96v4h-.96v-1.57h-1.7v1.57h-.96v-4h.96v1.67h1.7z" fill="#fff"/><g fill="#adaa7a"><path d="m12.57 10.07h.64v1.31c-.36.4-.87.6-1.53.6a1.92 1.92 0 0 1 -1.98-1.98c0-.57.2-1.05.58-1.43s.85-.57 1.4-.57c.54 0 1 .16 1.36.48l-.34.5a1.33 1.33 0 0 0 -.98-.34c-.38 0-.7.12-.96.37-.26.26-.4.59-.4 1 0 .4.14.73.39.98s.56.37.92.37.66-.08.9-.24z"/><path d="m9 6.96c2.6 0 5.02.48 7 1.3a12.88 12.88 0 0 0 -7-1.93c-2.71 0-5.18.73-7 1.92 1.98-.81 4.4-1.3 7-1.3z"/><path d="m4.15 7.5.8.15-.71-.4.26-1.25-.52 1.18-.8-.14.7.35-.26 1.3.53-1.2z"/></g></svg>