<svg height="18" viewBox="0 0 18 18" width="18" xmlns="http://www.w3.org/2000/svg"><path d="m0 0h18v18h-18z" fill="#f0f3fa"/><path d="m12.6 14c.78 0 1.4-.62 1.4-1.4v-7.2c0-.78-.62-1.4-1.4-1.4h-7.2c-.79 0-1.4.62-1.4 1.4v7.2c0 .78.62 1.4 1.4 1.4zm-2.48-8h1.76c.06 0 .11.07.12.14v5.74c0 .06-.06.12-.12.12h-1.76a.12.12 0 0 1 -.12-.12v-1.38h.21c.02-.01.03-.01.03-.04v-.03l-1.14-1.35a.1.1 0 0 1 -.02-.08c0-.02 0-.05.02-.07l1.14-1.35v-.02c0-.03-.01-.06-.04-.06h-.2v-1.37c0-.06.06-.12.12-.12zm-2.36 1.56.01.03 1.13 1.32a.1.1 0 0 1 .02.08.1.1 0 0 1 -.02.07l-1.13 1.35-.01.03c0 .03.01.06.04.06h.2v1.36c0 .06-.06.14-.12.14h-1.76c-.06 0-.12-.08-.12-.14v-5.74c0-.06.06-.12.12-.12h1.76c.06 0 .12.06.12.12v1.38h-.2c-.03 0-.04.02-.04.05z" fill="#f25721"/></svg>