<svg height="18" viewBox="0 0 18 18" width="18" xmlns="http://www.w3.org/2000/svg"><path d="m0 0h18v18h-18z" fill="#f0f3fa"/><path d="m12.15 5c-1.2 0-2.27.57-2.97 1.47a6.9 6.9 0 0 1 1 1.48 2.22 2.22 0 0 1 1.97-1.26 2.27 2.27 0 0 1 2.23 2.31c0 .44-.12.84-.32 1.19-.4 1.67-1.8 2.42-2.9 2.68.32.08.65.13 1 .13 2.11 0 3.84-1.8 3.84-4s-1.72-4-3.85-4zm-6.3 8c1.2 0 2.27-.57 2.97-1.47a6.9 6.9 0 0 1 -1-1.48 2.22 2.22 0 0 1 -1.97 1.26 2.27 2.27 0 0 1 -2.23-2.31c0-.44.12-.84.32-1.19.4-1.67 1.8-2.42 2.9-2.68a3.71 3.71 0 0 0 -1-.13 3.93 3.93 0 0 0 -3.84 4c0 2.2 1.72 4 3.85 4z" fill="#0a73c6"/><path d="m6.97 5.29c-1.15.36-2.3 1.21-2.68 2.4a2.6 2.6 0 0 1 1.88-.96c1.75 0 2.23 1.87 2.24 2.81-.02 1.8 1.7 2.86 2.57 3.17 1.7-.15 2.56-1.75 2.78-2.54-.44.83-1.43 1.1-1.87 1.13-3.48-.1-.14-4.1-4.92-6.01z" fill="#1caee5"/></svg>