<svg height="18" viewBox="0 0 18 18" width="18" xmlns="http://www.w3.org/2000/svg"><path d="m0 0h18v18h-18z" fill="#8cb9cc"/><path d="m12.62 6h2.38l-.07.25h-.15c-.26 0-.3.01-.38.05h-.02a.47.47 0 0 0 -.22.22c-.12.26-.21.52-.29.8l-.79 3.32c-.08.26-.15.52-.2.78a.25.25 0 0 0 0 .13c.01.05.04.09.07.12.07.05.1.08.31.08h.22l-.07.24h-2.38l.08-.24h.2c.2 0 .23-.02.3-.06h.01l.04-.02c.1-.05.19-.14.24-.24.1-.26.2-.53.27-.8l.33-1.38h-3l-.34 1.4c-.08.25-.15.52-.2.78a.25.25 0 0 0 0 .13l.07.12c.07.05.1.08.32.08h.21l-.07.24h-2.39l.08-.24h.2c.2 0 .23-.02.31-.07l.04-.02c.1-.05.19-.14.24-.24.11-.26.2-.53.28-.8l.8-3.33c.08-.25.15-.51.2-.78 0-.1-.02-.17-.08-.21h-.01c-.07-.04-.1-.06-.36-.06h-.23c-.32.05-.52.15-.97.48-.52.4-1.14.87-1.82 1.45.26.41.62.9.96 1.36l.53.72c.28.41.42.49.75.53l-.05.21h-2l.01-.2s.41 0 .43-.12a.5.5 0 0 0 -.09-.29l-.15-.22-.11-.16c-.4-.59-.86-1.26-1.06-1.58l-.32 1.43c-.18.83-.14.88.48.93l-.05.21h-2.11l.05-.21c.58-.05.65-.1.85-.93l.61-2.71c.2-.83.14-.89-.47-.93l.04-.22h2.13l-.05.22c-.58.04-.66.1-.85.93l-.29 1.23h.03l.3-.24.18-.15c.48-.38 1.22-1.04 1.6-1.4.24-.23.24-.31.02-.33l-.3-.04.06-.22h4.16l-.07.25h-.15c-.26 0-.3.02-.38.05l-.02.01a.47.47 0 0 0 -.22.21c-.12.26-.21.53-.28.8l-.4 1.68h3.02l.4-1.7c.09-.25.15-.51.2-.78 0-.1-.02-.17-.08-.21h-.01c-.07-.04-.1-.06-.36-.06h-.17z" fill="#fff"/></svg>