<svg height="18" viewBox="0 0 18 18" width="18" xmlns="http://www.w3.org/2000/svg"><path d="m0 0h18v18h-18z" fill="#f0f3fa"/><path d="m13.93 11.64a5.68 5.68 0 0 1 -6.02 2.68c-.1.23-.21.45-.33.68h-2.13c.29-.32.6-.75.87-1.26a5.73 5.73 0 0 1 -2.25-2.24l1.5-1.28c.3.67.79 1.23 1.4 1.63a4.41 4.41 0 0 0 -1.57-4.25c1.18.02 3.84-.41 4.98-2.36a3.84 3.84 0 0 0 -4.86 2.13c-.46-.36-1.14-.92-1.52-1.27a5.68 5.68 0 0 1 10-.16c-.27.3-.98.94-1.46 1.37a3.77 3.77 0 0 0 -2.17-2.07c.02.62-.08 1.75-.41 3.22 1.22.22 2 1.31 2.36 2.12l.15-.3 1.45 1.36zm-4.32-1.76c-.23.79-.52 1.65-.88 2.56a3.9 3.9 0 0 0 2.18-.47c-.02-1-.79-1.75-1.3-2.1z" fill="#da251c"/></svg>