<svg height="18" viewBox="0 0 18 18" width="18" xmlns="http://www.w3.org/2000/svg"><path d="m0 0h18v18h-18z" fill="#f0f3fa"/><path d="m6.59 6.73c1.18-.38 2.11-.07 2.9.91.32.4.5.85.51 1.38v2.6c0 .53.6 1.02 1.2 1.02.66 0 1.24-.41 1.24-1.03v-2.64c0-1.48 1.11-2.34 2.5-2.4.04 0 .06.01.06.06v1.25a.04.04 0 0 1 -.04.05c-.6.04-.96.47-.96 1.05v2.36a2.5 2.5 0 0 1 -1.92 2.56c-.58.14-1.15.13-1.73-.02a2.61 2.61 0 0 1 -1.83-1.63 2.9 2.9 0 0 1 -.1-.86v-2.45c0-1.04-1.24-1.42-1.75-.48a.86.86 0 0 0 -.12.4v2.48a2.43 2.43 0 0 1 -2.54 2.64l-.01-.03v-1.25c0-.04.02-.06.05-.06.58-.06.95-.72.95-1.23v-5.7c0-.48.09-.85.18-1.08.42-1.03 1.65-1.61 2.77-1.63.04 0 .05.02.05.06v1.22c0 .05-.02.07-.06.07-.6.06-1.4.51-1.38 1.1l-.01 1.25a.03.03 0 0 0 .04.03z" fill="#0084ce"/></svg>