<svg height="18" viewBox="0 0 18 18" width="18" xmlns="http://www.w3.org/2000/svg"><path d="m0 0h18v18h-18z" fill="#f0f3fa"/><path d="m7.06 6.2a.26.26 0 0 1 0-.37l1.76-1.76a.26.26 0 0 1 .12-.07h-3.54c-.5 0-.9.4-.9.9v3.61c0-.06.03-.13.07-.18l1.76-1.76c.1-.1.26-.1.36 0l1.76 1.76c.1.1.1.27 0 .37l-1.6 1.6v3.7h1.83v-6.19zm2.26 7.8h1.82v-3.7l-1.59-1.6a.26.26 0 0 1 0-.37l1.76-1.76c.1-.1.26-.1.36 0l1.75 1.76c.1.1.1.27 0 .37l-1.64 1.64v3.66h.82c.5 0 .9-.4.9-.9v-8.2c0-.5-.4-.9-.9-.9h-3.54c.05.01.09.03.12.07l1.76 1.76c.1.1.1.26 0 .36l-1.62 1.62zm-3.1 0v-3.66l-1.66-1.64a.26.26 0 0 1 -.07-.18v4.58c0 .5.4.9.9.9h.81z" fill="#e61801"/></svg>