<svg height="18" viewBox="0 0 18 18" width="18" xmlns="http://www.w3.org/2000/svg"><path d="m0 0h18v18h-18z" fill="#f0f3fa"/><path d="m13.95 10.05a5.03 5.03 0 0 1 -9.95-1.05 5.02 5.02 0 0 1 7.13-4.55l-.38 1.23a3.75 3.75 0 1 0 1.85 4.37z" fill="#ca151c"/><g fill="#949599"><path d="m7.49 7.36-.49 1.64h2.33c.37 0 .56-.57.48-.94-.04-.21.35-.39.52-.42h3.14l.53-1.64h-2.96c-.33 0-.7.38-.7.8 0 .34-.35.52-.53.56h-2.31z"/><path d="m6.94 9.36-.5 1.64h2.33c.38 0 .57-.57.5-.94-.05-.21.34-.39.51-.42h3.14l.53-1.64h-2.96c-.33 0-.7.38-.7.8 0 .34-.35.52-.53.56z"/></g></svg>