<svg height="18" width="18" xmlns="http://www.w3.org/2000/svg" xmlns:xlink="http://www.w3.org/1999/xlink"><linearGradient id="a" gradientUnits="userSpaceOnUse" x1="3.349" x2="21.904" y1="3.122" y2="24.434"><stop offset="0" stop-color="#1a1e21"/><stop offset="1" stop-color="#06060a"/></linearGradient><path d="m0 0h18v18h-18z" fill="url(#a)"/><path d="m14.951 6h-11.901c-.729 0-1.05.334-1.05 1.022v3.956c0 .688.32 1.022 1.049 1.022h11.902c.729 0 1.049-.334 1.049-1.022v-3.956c0-.688-.32-1.022-1.049-1.022z" fill="#fd0"/><path d="m9 11.203c-3.633 0-6.374-.947-6.374-2.203s2.74-2.203 6.375-2.203c3.633 0 6.373.947 6.373 2.203s-2.74 2.203-6.373 2.203z" fill="#fff"/><path d="m11.156 10.902c1.053-.196 1.88-.553 2.352-1h-.1c-.602.517-1.726.914-3.15 1.08.974-.167 1.712-.57 2.112-1.08h-.095c-.479.545-1.379.968-2.586 1.11.744-.148 1.271-.591 1.543-1.11h-.096c-.344.601-1.022.994-1.77 1.12h-.035c.416-.163.685-.762.762-1.12h-.096c-.15.664-.597 1.104-.97 1.123h-.052c-.367-.02-.822-.459-.971-1.124h-.096c.076.36.346.958.762 1.121h-.036c-.748-.126-1.425-.519-1.77-1.12h-.094c.271.519.799.962 1.542 1.11-1.206-.142-2.107-.565-2.585-1.11h-.097c.4.51 1.139.913 2.113 1.08-1.425-.166-2.548-.563-3.15-1.08h-.1c.472.447 1.298.804 2.352 1-2.355-.282-3.992-1.017-3.992-1.902 0-.884 1.639-1.62 3.992-1.901-1.053.195-1.88.552-2.353 1h.1c.603-.517 1.726-.915 3.151-1.08-.974.166-1.713.57-2.113 1.08h.096c.478-.546 1.379-.968 2.585-1.111-.743.148-1.27.592-1.542 1.111h.096c.344-.602 1.022-.995 1.77-1.12h.035c-.416.162-.686.76-.762 1.12h.096c.15-.665.604-1.104.971-1.123h.051c.374.019.821.458.97 1.123h.097c-.077-.36-.346-.958-.762-1.12h.035c.748.125 1.425.518 1.77 1.12h.096c-.272-.519-.8-.963-1.543-1.111 1.207.143 2.107.565 2.586 1.111h.095c-.4-.51-1.138-.914-2.113-1.08 1.425.165 2.549.563 3.15 1.08h.101c-.472-.448-1.3-.805-2.353-1 2.355.281 3.993 1.017 3.993 1.901 0 .885-1.639 1.62-3.992 1.902zm-2.155-4.007c-3.553 0-6.232.905-6.232 2.105s2.679 2.105 6.232 2.105c3.552 0 6.23-.905 6.23-2.105s-2.678-2.105-6.23-2.105z"/></svg>