<svg height="18" viewBox="0 0 18 18" width="18" xmlns="http://www.w3.org/2000/svg"><path d="m0 0h18v18h-18z" fill="#f0f3fa"/><path d="m9.82 4.5c.9 0 1.75.27 2.45.75a4.59 4.59 0 0 0 -7.75 3.35 4.6 4.6 0 0 0 5.13 4.57 4.34 4.34 0 0 1 .17-8.68zm-.72 8.86c2.3 0 4.24-1.56 4.8-3.67a4.98 4.98 0 1 1 -9.73-1.96 4.97 4.97 0 0 0 4.93 5.63z" fill="#0259ca"/><path d="m7.58 7.37c.82-.09 2.2.5 1.16 3.54.5-.17 1.5-.94 1.5-2.71 0-1.26-.94-2.35-1.41-2.74zm-.7 2.19c-.24.58-.36 1.73 1.14 1.73 1.87 0 3.27-1.56 3.6-3.79l2.31-1.5c.3 2.09-.33 6.27-5.14 6.27-1.78 0-2.5-.66-2.5-1.5 0-.66.39-1.08.58-1.21z" fill="#e82b01"/></svg>