<svg height="18" viewBox="0 0 18 18" width="18" xmlns="http://www.w3.org/2000/svg" xmlns:xlink="http://www.w3.org/1999/xlink"><linearGradient id="a" gradientUnits="userSpaceOnUse" x1="3.35" x2="21.9" y1="3.12" y2="24.43"><stop offset="0" stop-color="#1a1e21"/><stop offset="1" stop-color="#06060a"/></linearGradient><path d="m0 0h18v18h-18z" fill="url(#a)"/><path d="m8.7 10.6v.78c-2.42.12-2.7-.93-2.7-1.63v-.95c0-.5 0-1.38.44-1.73.55-.44 1.7-.47 2.26-.44v.8c-1.22-.13-1.71.52-1.7.87v1.46c-.02.75 1.2.88 1.7.85zm.6 0v.78c2.42.12 2.7-.93 2.7-1.63v-.95c0-.5 0-1.38-.44-1.73-.55-.44-1.7-.47-2.26-.44v.8c1.22-.13 1.71.52 1.7.87v1.46c.02.75-1.2.88-1.7.85z" fill="#fff"/><g fill="#00b6e6"><path d="m8 8.56c0-.3.23-.56.52-.56h.96c.29 0 .52.25.52.56v.88c0 .3-.23.56-.52.56h-.96c-.29-0-.52-.25-.52-.56z"/><path d="m9 14a5 5 0 1 0 0-10 5 5 0 0 0 0 10zm0 1a6 6 0 1 0 0-12 6 6 0 0 0 0 12z" fill-rule="evenodd"/></g></svg>