<svg height="18" viewBox="0 0 18 18" width="18" xmlns="http://www.w3.org/2000/svg"><path d="m0 0h18v18h-18z" fill="#f0f3fa"/><path d="m12 10h-1.21c.38-.28 1.26-1.2 1.75-1.76.48-.55.87-.66 1-.65.54.18 1.24 1.25 2.05 2.41-1.4-1.08-1.8-1.58-2.04-1.63-.2-.03-1.19 1.1-1.55 1.63z" fill="#bdbec0"/><path d="m5.71 6.77c-1.33.82-2.62 1.51-3.71 3 2.75-1.74 3.74-2 3.98-2.14.19-.1.6-.02.8.03.22.04.84.1 1.46.11.77.01 1.96-.85 2.22-1.08.2-.19.5.49.64.85l1.07 2.46h1.55a45.03 45.03 0 0 0 -2.78-4.87c-.13-.2-.35-.16-.48.04-1.24 1.85-2.8 1.82-3.82 1.52-.31-.1-.64-.1-.93.08z" fill="#a99a6f"/><path d="m7 8h1v1.5h1v-1.5h1v4h-1v-1.5h-1v1.5h-1z" fill="#0c0f1e"/></svg>