<!-- by TradingView --><svg width="18" height="18" viewBox="0 0 18 18" xmlns="http://www.w3.org/2000/svg"><path fill="#F0F3FA" d="M0 0h18v18H0z"/><path d="M8 6v8c-1.75-.13-3-.47-3-.88V6.88c0-.2.31-.4.84-.54A11.2 11.2 0 0 1 8 6Z" fill="url(#anpjo5zz2)"/><path d="M5 6.86c0 .51 1.8 1.85 4 1.85 2.21 0 4-3.18 4-3.69v7.14c0-.51-1.8-2.04-4-2.04s-4 2.45-4 2.97V6.86Z" fill="url(#bnpjo5zz2)"/><path d="M13 4.99v7.03c0 .45-1.25.84-3 .98V4c1.75.15 3 .53 3 .99Z" fill="url(#cnpjo5zz2)"/><defs><linearGradient id="anpjo5zz2" x1="5" y1="10" x2="8" y2="10" gradientUnits="userSpaceOnUse"><stop offset=".2" stop-color="#4AA7A9"/><stop offset="1" stop-color="#6DC5A8"/></linearGradient><linearGradient id="bnpjo5zz2" x1="13" y1="9.05" x2="5" y2="9.05" gradientUnits="userSpaceOnUse"><stop offset=".23" stop-color="#4AA7A9"/><stop offset=".98" stop-color="#1F4D80"/></linearGradient><linearGradient id="cnpjo5zz2" x1="13" y1="8.5" x2="10" y2="8.5" gradientUnits="userSpaceOnUse"><stop stop-color="#272963"/><stop offset=".48" stop-color="#1F4D80"/><stop offset="1" stop-color="#3D7B91"/></linearGradient></defs></svg>