<svg height="18" viewBox="0 0 18 18" width="18" xmlns="http://www.w3.org/2000/svg"><path d="m0 0h18v18h-18z" fill="#f0f3fa"/><path d="m4 4.82 5-.37 5 .37-5 .73z" fill="#d1d3d4"/><path d="m4 5.18v6.91l4.69 2.38v-8.57zm1.56.91-.93-.18v5.64l.93.36v-2.18l1.57.54v2.55l.93.36v-6.54l-.94-.19v2.55l-1.56-.55v-2.35z" fill-rule="evenodd"/><path d="m9.31 5.9v8.55l4.69-2.18v-7.09l-4.69.73zm1.92.43-1.3.24 1.44 3.6-.01 2.65.97-.46.06-2.52 1.3-3.93-1 .17-.75 2.35z" fill="#e6b222" fill-rule="evenodd"/><path d="m4.47 4.45v-1.27h.31v1.27z" fill="#808285"/><path d="m6 3.08v1.27l-1 .1v-1.33l1-.05z" fill="#a7a9ac"/><path d="m6.98 4.22-.01-1.22h.31v1.22z" fill="#808285"/><path d="m7.44 3h.83v1.12l-.83.09zm2.68 11.35.69-.33.46.21.1.23-.3.15-.48-.03z" fill="#a7a9ac"/><path d="m9.71 14.56.88.44h.49l.29-.15v-.25l-.3.15-.48-.03-.62-.3z" fill="#808285"/><path d="m12.67 13.12.56-.27.45.16.14.18-.24.13-.45-.03z" fill="#a7a9ac"/><path d="m12.25 13.32.88.33.45.03.24-.12v-.23l-.23.13-.46-.03-.62-.24z" fill="#808285"/></svg>