<svg height="18" viewBox="0 0 18 18" width="18" xmlns="http://www.w3.org/2000/svg"><path d="m0 0h18v18h-18z" fill="#f90161"/><g fill="#fff"><path d="m3 11v-3.64h1v3.64zm5.1-2.03c0 1.17-.7 2.03-1.64 2.03-.42 0-.83-.2-1.05-.45v.45h-.96v-5h.96v1.46c.22-.24.66-.42 1.05-.42.94 0 1.64.76 1.64 1.93zm-.9 0c0-.69-.49-.92-.92-.92-.44 0-.87.34-.87.92 0 .59.43 1.01.87 1.01.43 0 .93-.32.93-1zm4.47.36h-2.53c.1.37.45.67.92.67.37 0 .78-.15 1.04-.35l.44.83c-.35.27-.87.52-1.53.52-1.28 0-1.9-.94-1.9-2 0-1.13.72-2 1.83-2 .99 0 1.77.7 1.77 1.9 0 .18-.02.28-.04.43zm-2.53-.66h1.58c-.09-.37-.32-.67-.76-.67s-.71.28-.82.67z"/><path d="m13.7 11-.54-1.17-.57 1.17h-1.27l1.09-2.02-.94-1.98h1.27l.45 1.08.54-1.08h1.22l-1.02 1.98 1.07 2.02z"/><path d="m15.5 11a.5.5 0 1 0 0-1 .5.5 0 0 0 0 1z"/><circle cx="3.5" cy="6.5" r=".5"/></g></svg>