<svg height="18" viewBox="0 0 18 18" width="18" xmlns="http://www.w3.org/2000/svg"><path d="m0 0h18v18h-18z" fill="#044899"/><path d="m14 11.92v-5.88l-.03-.04-.03-.03v-.01l-.03-.02-4.83-2.91-.04-.03a.13.13 0 0 0 -.09 0l-.04.01-4.83 2.91h-.01l-.02.03h-.01a.13.13 0 0 0 -.03.04l-.01.04-.01.04v5.88l.02.04.03.04.02.02h.01l1.62.98 3.21 1.94.04.01a.13.13 0 0 0 .09 0l.04-.01 4.83-2.91.02-.01.02-.02a.21.21 0 0 0 .02-.04l.02-.04v-.01l.01-.03zm-9.65-5.52 1.26.76v3.68l-1.26.76zm4.82 6.17v-1.52l3.05-1.84 1.26.76-4.3 2.6zm2.7-5.51-1.26.76-1.51-.92-1.53-.92v-1.52l4.32 2.6zm1.79 2.6-1.1-.66 1.1-.66zm-2.88 0v-1.53l1.44-.86 1.27.76-2.7 1.63zm-3.22-1.53 1.44-.86 1.04.63.4.23v1.74l-.78.47-.66.4-1.44-.87zm1.1-1.07-1.27.76-1.44-.86v-1.53l2.7 1.63zm-2.7.31 1.26.76v3.68l-1.27.76v-5.2zm1.6 2.91 1.27.76v1.74l-1.27.76zm6.1-2.56-1.1-.66 1.1-.66zm-1.44-.87-3.05-1.83v-1.53l4.32 2.6zm-3.4-2.04-1.09-.66 1.1-.66v1.32zm-1.6.97-1.1-.66 1.1-.66zm-1.61.97-1.1-.66 1.1-.66zm0 4.5v1.32l-1.1-.66zm1.61.97v1.32l-1.1-.66zm1.6.97v1.32l-1.09-.66 1.1-.66zm.35-.2 3.05-1.84 1.26.76-4.3 2.6v-1.53zm3.4-2.05 1.09-.66v1.32l-1.1-.66z" fill="#f0f3fa"/></svg>