<svg height="18" viewBox="0 0 18 18" width="18" xmlns="http://www.w3.org/2000/svg"><path d="m0 0h18v18h-18z" fill="#f0f3fa"/><path d="m3 12v-6h1v6zm5.04 0h-2.54v-6h2.45c1.14 0 1.8.68 1.8 1.68 0 .64-.42 1.06-.71 1.2.35.16.8.53.8 1.3-.01 1.1-.76 1.82-1.8 1.82zm-.18-5h-1.36v1.4h1.36c.48 0 .75-.25.75-.66 0-.4-.27-.74-.75-.74zm.07 2.35h-1.43v1.65h1.43c.52 0 .76-.43.76-.81 0-.4-.24-.84-.76-.84zm5.07 2.65c-1.19 0-2-.8-2-2.04v-3.96h1v3.92c0 .67.4 1.06 1 1.06.62 0 1-.4 1-1.06v-3.92h1v3.96c-.01 1.23-.8 2.04-2 2.04z"/></svg>