<svg height="18" viewBox="0 0 18 18" width="18" xmlns="http://www.w3.org/2000/svg" xmlns:xlink="http://www.w3.org/1999/xlink"><linearGradient id="a" gradientUnits="userSpaceOnUse" x1="12.7" x2="15.33" y1="9" y2="9"><stop offset=".26" stop-color="#d45b22"/><stop offset=".86" stop-color="#fab017"/></linearGradient><linearGradient id="b" gradientUnits="userSpaceOnUse" x1="5.2" x2="7.83" y1="13.55" y2="13.55"><stop offset=".26" stop-color="#d45b22"/><stop offset=".74" stop-color="#fab017"/></linearGradient><linearGradient id="c"><stop offset=".29" stop-color="#d45b22"/><stop offset=".71" stop-color="#f9ad18"/></linearGradient><linearGradient id="d" gradientUnits="userSpaceOnUse" x1="7.55" x2="10.73" xlink:href="#c" y1="10.17" y2="10.18"/><linearGradient id="e" gradientUnits="userSpaceOnUse" x1="10.05" x2="13.24" xlink:href="#c" y1="11.68" y2="11.7"/><path d="m0 0h18v18h-18z" fill="#f0f3fa"/><circle cx="14" cy="9" fill="url(#a)" r="1"/><path d="m7.5 4.45c0 .22-.1.42-.22.59-.07.1-.28.5-.28.93 0 .42.21.82.28.92.14.2.22.37.22.6 0 .21-.14.45-.22.57-.05.08-.28.57-.28.94 0 .38.24.85.29.94.13.16.21.36.21.58s-.1.4-.2.58c-.06.08-.3.55-.3.93 0 .39.24.86.3.94.1.18.2.36.2.58 0 .53-.45.95-1 .95s-1-.42-1-.95c0-.22.1-.42.2-.58.06-.08.3-.55.3-.94 0-.38-.24-.85-.3-.93-.1-.18-.2-.36-.2-.58s.08-.42.21-.58c.05-.09.3-.56.29-.94 0-.37-.24-.86-.3-.94-.1-.18-.2-.36-.2-.58s.1-.43.22-.59c.07-.1.28-.5.28-.92 0-.43-.21-.83-.28-.93a1 1 0 0 1 -.22-.6c0-.52.45-.94 1-.94s1 .42 1 .95z" fill="url(#b)"/><path d="m10 5.95c0 .27-.15.5-.31.69-.14.17-.37.5-.37.84s.23.67.37.83c.16.2.3.42.3.69a1 1 0 0 1 -.24.63c-.12.15-.43.57-.43.9 0 .32.28.71.41.87.16.19.27.4.27.65 0 .52-.45.95-1 .95-.56 0-1-.43-1-.95 0-.25.11-.47.26-.65.13-.16.42-.55.42-.88 0-.32-.32-.74-.44-.9a1.01 1.01 0 0 1 -.24-.62c0-.27.14-.5.3-.69.14-.16.38-.5.38-.83 0-.35-.24-.67-.38-.84-.17-.2-.3-.42-.3-.69 0-.52.44-.95 1-.95.55 0 1 .43 1 .95z" fill="url(#d)"/><path d="m12.5 7.4c0 .3-.18.53-.37.75-.2.21-.43.53-.43.83 0 .35.35.75.5.91.16.2.3.42.3.7v.03c0 .52-.45.88-1 .88s-1-.36-1-.88v-.04c0-.27.14-.49.3-.68.15-.17.5-.57.5-.92 0-.3-.24-.62-.43-.84-.2-.21-.37-.44-.37-.74v-.01c.01-.52.45-.89 1-.89s.99.37 1 .89z" fill="url(#e)"/></svg>