<svg height="18" viewBox="0 0 18 18" width="18" xmlns="http://www.w3.org/2000/svg"><path d="m0 0h18v18h-18z" fill="#315b6f"/><path d="m5 6h-1v6h1zm2 2.5v-1.5h3.5l.5-1h-5v3.5l.52-1zm0 1h-1v2.5h4.39l.52-1h-3.91z" fill="#fff"/><path d="m8 8.5-.56 1h2.43l.57-1z" fill="#bb1f40"/><path d="m11 10.95c.62.59 1.01 1.02 2 1.05 1.1 0 2-.65 2-1.75 0-.97-.57-1.41-1.68-1.72-.48-.12-1.14-.25-1.14-.9 0-.4.28-.63.82-.63.44 0 .87 0 1.45.54l.4-.8a2.73 2.73 0 0 0 -1.9-.74c-.95 0-1.8.64-1.8 1.7 0 1.12.86 1.5 1.75 1.74.46.12 1.1.43 1.1 1.06 0 .53-.57.5-1 .5-.75-.06-1-.35-1.6-.95z" fill="#fff"/></svg>