<svg height="18" viewBox="0 0 18 18" width="18" xmlns="http://www.w3.org/2000/svg"><path d="m0 0h18v18h-18z" fill="#f0f3fa"/><path d="m6.33 7.29-2.33-1.39 5-2.9v2.74l-2.67 1.56z" fill="#d3a22c"/><path d="m9 5.75v-2.75l5 3.08-2.26 1.38z" fill="#90c21a"/><path d="m6.33 10.71-2.33 1.39 5 2.9v-2.74l-2.67-1.56z" fill="#0269bd"/><path d="m9 12.26v2.74l5-2.91-2.33-1.38z" fill="#e8014f"/><path d="m11.67 7.29v3.42l2.33 1.39v-6.2l-2.33 1.4z" fill="#d4d4d4"/><path d="m6.33 7.29v3.42l-2.33 1.39v-6.2l2.33 1.4z" fill="#03236c"/><path d="m9 9-3-1.93v3.86z" fill="#bcbdd3"/><path d="m9 9v-3.65l-3 1.73z" fill="#f6e8c9"/><path d="m9 9v3.65l-3-1.73z" fill="#c7d5ed"/><path d="m9 8.99 3-1.91v3.84l-3-1.92z" fill="#fff"/><path d="m9 9v-3.65l3 1.73z" fill="#e7f1ce"/><path d="m9 9v3.65l3-1.73z" fill="#fad1cf"/><path d="m6.67 7.29h1.5v.06c-.2 0-.5.1-.5.31v2.56c0 .14.1.4.5.4v.1h-1.5v-.1c.16 0 .47-.09.47-.4v-2.56c0-.1-.12-.3-.47-.3zm4.4 1.12h.07v-1.04h-.07c0 .05-.05.16-.17.16-.06 0-.12-.03-.2-.07a1.41 1.41 0 0 0 -.7-.17c-.53 0-1.82.26-1.82 1.83s1.54 1.6 1.77 1.6c.22 0 .69-.16.91-.27.18-.09.27-.07.3-.05v-.7a.38.38 0 0 1 .38-.25h.13v-.1h-1.55v.1c.2 0 .55.07.55.26v.4a.85.85 0 0 1 -.77.53c-.57 0-1.12-.58-1.12-1.63 0-1.04.64-1.64 1.23-1.64.6 0 1.06.6 1.06 1.04z"/></svg>