<svg height="18" viewBox="0 0 18 18" width="18" xmlns="http://www.w3.org/2000/svg"><path d="m0 0h18v18h-18z" fill="#f0f3fa"/><path d="m11 5a2 2 0 1 1 -4 0 2 2 0 0 1 4 0zm-3.1-.54a129.69 129.69 0 0 0 1.25-1.39c-.49-.03-.93.1-1.32.38a.03.03 0 0 0 -.01.04l.04.97a.02.02 0 0 0 .02.02c.02 0 .03-.01.03-.02zm2.57-.7a1.94 1.94 0 0 0 -1.23-.67h-.02l-.64.7v.01l1.88-.03v-.02zm-2.62 1.7c.02.01.03.01.02-.02l-.1-1.9a.01.01 0 0 0 -.03-.02c-.36.32-.58.73-.66 1.2 0 .02 0 .03.02.04zm3.04-.3h.03l.01-.06c.01-.47-.12-.9-.4-1.27a.04.04 0 0 0 -.03-.01l-.95.02c-.02 0-.03 0-.01.02zm-.71-.58a.06.06 0 0 0 -.02-.05l-.7-.67a.06.06 0 0 0 -.04-.01h-.88a.06.06 0 0 0 -.04.03l-.61.67a.06.06 0 0 0 -.02.04l.06.91c0 .02 0 .03.02.04l.66.62.04.02h.82c.02 0 .04 0 .05-.02l.64-.63a.06.06 0 0 0 .02-.04zm.7.63a83.68 83.68 0 0 0 -.65-.6l-.01 1.84c0 .03.01.04.04.02.34-.3.56-.67.65-1.14 0-.05 0-.09-.04-.12zm-2.35.94-1.43-1.33a.01.01 0 0 0 -.02 0 1.9 1.9 0 0 0 .4 1.35h1.04c.03 0 .03 0 0-.02zm.3.77c-.01 0-.01 0 0 0a1.9 1.9 0 0 0 1.35-.4v-.92a.01.01 0 0 0 -.02 0l-1.34 1.32zm-1.3-.67a1.95 1.95 0 0 0 1.22.67l.02-.01.66-.66a.02.02 0 0 0 -.02-.03h-1.86a.02.02 0 0 0 -.02.02z"/><path d="m7.9 4.46-.01.02a.02.02 0 0 1 -.02 0 .02.02 0 0 1 0-.02l-.05-.97.01-.04a1.93 1.93 0 0 1 1.33-.37.01.01 0 0 1 0 .01zm1.35-1.38c.45.07.92.3 1.22.67l-.01.02-1.87.04v-.02l.63-.7a.03.03 0 0 1 .03 0zm-1.4 2.37-.75-.7-.02-.02a1.98 1.98 0 0 1 .68-1.21.01.01 0 0 1 0 .01l.11 1.91c0 .03 0 .03-.02.01zm3.04-.29-1.35-1.3c-.02-.01-.01-.02 0-.02l.96-.02.03.01c.28.38.41.8.4 1.27l-.01.06z" fill="#d0cecf"/><path d="m10.18 4.58v.9a.06.06 0 0 1 -.02.05l-.64.63a.06.06 0 0 1 -.05.02h-.82c-.01 0-.03 0-.04-.02l-.66-.62a.06.06 0 0 1 -.02-.04l-.06-.9a.06.06 0 0 1 .02-.05l.61-.67a.06.06 0 0 1 .04-.02l.88-.01.04.01.7.67a.06.06 0 0 1 .02.05z" fill="#f06524"/><path d="m8.8 5.78a.92.92 0 0 1 -.49-.41c-.13-.33-.04-.85.3-1.04.49-.27 1.1-.02 1.18.56.1.6-.45 1-.99.89z" fill="#fdc19f"/><path d="m10.87 5.21c.03.03.04.07.04.12-.1.47-.3.84-.65 1.14-.03.02-.04.01-.04-.02l.01-1.84h.01zm-2.35.97h-1.03a.04.04 0 0 1 -.03-.02 1.9 1.9 0 0 1 -.38-1.34.01.01 0 0 1 .02 0l1.43 1.33c.02.02.02.03-.01.03zm.3.74 1.34-1.32h.01a.01.01 0 0 1 .01 0v.92l-.02.02c-.4.3-.84.43-1.33.39v-.01zm-.09 0a1.95 1.95 0 0 1 -1.2-.69.02.02 0 0 1 .02 0h1.85a.02.02 0 0 1 .02.02l-.66.66a.04.04 0 0 1 -.04 0z" fill="#d0cecf"/><path d="m10 8h-2v7h2z"/></svg>