<svg height="18" width="18" xmlns="http://www.w3.org/2000/svg" xmlns:xlink="http://www.w3.org/1999/xlink"><linearGradient id="a" gradientUnits="userSpaceOnUse" x1="3.349" x2="21.904" y1="3.122" y2="24.434"><stop offset="0" stop-color="#1a1e21"/><stop offset="1" stop-color="#06060a"/></linearGradient><path d="m0 0h18v18h-18z" fill="url(#a)"/><g fill="#4092c9"><path d="m5 11v-1.478h.316l.486 1.478h.384l.504-1.478h.308v1.478h1.002v-3h-1.478l-.516 1.522-.492-1.522h-1.514v3zm-3 0h1v-3h-1z"/><path d="m9.5 8-1.55 3h1.05l.391-.722h1.249l.36.722h1.029l-1.533-3zm.504.73-.468.9h.96z" fill-rule="evenodd"/><path d="m13 8h-.97l1.312 1.5-1.313 1.5h.971l1-1 .998 1h1.002l-1.302-1.5 1.302-1.5h-1.002l-.998 1z"/></g></svg>