<svg height="18" width="18" xmlns="http://www.w3.org/2000/svg"><path d="m0 0h18v18h-18z" fill="#0066a5"/><path d="m15.44 8.24c-5.18-1.83-10.66-1.07-12.79-.15 3.65-1.69 8.27-1.83 9.59-1.69l3.2 1.83zm-11.05.72h.61v3.04h-.6v-3.04zm3.28-.12c-.5.17-1.06 1.33-1.06 1.33v-1.21h-.61v3.04h.6c0-.6.36-2.28 1.03-2.28.1 0 .2.09.2.2v2.08h.6c0-.6.36-2.28 1.02-2.28.11 0 .2.09.2.2v2.08h.61v-2.65c0-.4-.4-.63-.76-.51-.5.17-1.06 1.33-1.06 1.33v-.82c0-.4-.41-.63-.77-.51z" fill="#fff"/><path d="m4.4 8.15c0-.08.06-.15.14-.15h.3c.1 0 .16.07.16.15v.3a.15.15 0 0 1 -.15.16h-.3a.15.15 0 0 1 -.16-.15v-.3z" fill="#ff800f"/><path d="m13.28 12c-.18.1-.54.15-.76.15-.84 0-1.52-.61-1.52-1.68s.68-1.67 1.52-1.67c.22 0 .58.05.76.14v.68c-.16-.18-.52-.29-.76-.29-.5 0-.91.38-.91 1.14 0 .77.4 1.15.91 1.15.24 0 .6-.11.76-.3v.69z" fill="#fff"/><path d="m10.56 5.5c-3.19.3-6.54 1.52-8.06 2.43 4.87-2.13 8.98-1.97 8.98-1.97z" fill="#fd7d10"/></svg>