<svg height="18" viewBox="0 0 18 18" width="18" xmlns="http://www.w3.org/2000/svg"><path d="m0 0h18v18h-18z" fill="#0b2a74"/><path d="m3 6.6v4.8c0 .16.07.31.2.42.14.12.31.18.5.18s.36-.06.5-.18c.13-.1.2-.26.2-.42v-4.8a.56.56 0 0 0 -.2-.42.76.76 0 0 0 -.5-.18.76.76 0 0 0 -.5.18.56.56 0 0 0 -.2.42zm8.94-.6c-.43 0-.8.21-1.07.82l-1.47 3.05-.35.67-.02.02a.05.05 0 0 1 -.05 0c-.01 0-.02 0-.02-.02l-.35-.67-1.48-3.05c-.27-.6-.63-.82-1.07-.82-.28 0-.55.1-.75.3a1 1 0 0 0 -.31.72v4.38c.02.37.37.6.72.6.31 0 .6-.29.61-.6v-3.67l.02-.02.02-.02h.03l.03.02.95 2.16.8 1.6c.07.16.18.3.33.39a.9.9 0 0 0 .98 0c.15-.1.26-.23.33-.39l.8-1.6.96-2.16.02-.02a.05.05 0 0 1 .06.02v3.69c0 .16.07.31.19.42a.75.75 0 0 0 .97 0 .59.59 0 0 0 .18-.42v-4.38a1 1 0 0 0 -.3-.72c-.2-.2-.48-.3-.76-.3zm1.66.6v4.8c0 .16.07.31.2.42.14.12.31.18.5.18s.36-.06.5-.18c.13-.1.2-.26.2-.42v-4.8a.56.56 0 0 0 -.2-.42.76.76 0 0 0 -.5-.18.76.76 0 0 0 -.5.18.56.56 0 0 0 -.2.42z" fill="#fff"/></svg>