<svg height="18" viewBox="0 0 18 18" width="18" xmlns="http://www.w3.org/2000/svg"><path d="m0 0h18v18h-18z" fill="#f0f3fa"/><path d="m14 11a2 2 0 1 0 0-4 2 2 0 0 0 0 4zm-.55-.47a.48.48 0 1 0 0-.96.48.48 0 0 0 0 .96z" fill="#25aae2" fill-rule="evenodd"/><path d="m3.5 8.2c.09-.52.04-.94 0-1.14a2 2 0 0 0 -.9.51c.1.13.41.4.9.64zm-.07.34a2.8 2.8 0 0 1 -1.07-.68 2 2 0 0 0 1.4 3.14c-.55-1.3-.47-1.8-.33-2.45zm.3.12a3.7 3.7 0 0 1 1.77 1.67 2 2 0 0 1 -1.32.67 3.75 3.75 0 0 1 -.44-2.34zm2 1.35c-.78-1.21-1.26-1.4-1.9-1.66l-.02-.01c.14-.68.12-1.1.06-1.34h.13a2 2 0 0 1 1.73 3z" fill="#ed1b24"/><path d="m9 11a2 2 0 1 0 0-4 2 2 0 0 0 0 4zm.3-2.99a.28.28 0 1 0 -.2-.07l-.1.26h-.08c-.3 0-.56.24-.57.55l-.41.07a.28.28 0 1 0 .03.2l.41-.07c.05.13.13.23.24.3l-.1.27h-.04a.48.48 0 1 0 .26.08l.1-.27h.08c.31 0 .57-.25.57-.56l.37-.06a.35.35 0 1 0 -.04-.22l-.37.07a.57.57 0 0 0 -.24-.29z" fill="#64bb46" fill-rule="evenodd"/></svg>