<svg height="18" width="18" xmlns="http://www.w3.org/2000/svg"><path d="m0 0h18v18h-18z" fill="#f0f3fa"/><path d="m5.9 9.8c.4-.33.93-.5 1.46-.5a.35.35 0 0 1 0 .7 1.65 1.65 0 1 0 1.3.64.35.35 0 0 1 .56-.44 2.36 2.36 0 1 1 -3.33-.4z" fill="#184fa0"/><path d="m7.18 11.84c.02-.1.05-.2.09-.28l.26-.58.38-.79.5-.97.5-.99.55-1 .52-.85c.21-.32.44-.63.7-.91.64-.83 2.21-1.34 3.32-.64 0 0-.7.1-1.2.38 0 0-.63.29-1.24 1.25l-.26.39a.77.77 0 0 1 -.51.3s-.62.08-.71.16c0 0 .45-.02.78.16 0 0-1.1.14-1.11.28 0 0 .5-.1.79.13-.89.22-1.24.46-1.48.74-.12.12-.22.25-.3.4-.26.41-.5.84-.7 1.29l-.55 1.1-.09.18a.38.38 0 0 1 -.07.07z" fill="#5a656c"/></svg>