<svg height="18" width="18" xmlns="http://www.w3.org/2000/svg"><path d="m0 0h18v18h-18z" fill="#223e7a"/><path d="m7.055 11.714c-.367.287-1.453.804-1.832.965.537.345 1.274.32 1.527.321 1.241-.278 2.807-.967 3.422-1.277.547-.329 1.915-1.243 3.002-2.27 1.088-1.026 1.716-1.917 1.826-2.572-.779 1-1.579 1.505-1.906 1.783.36-.699.485-1.162.49-1.304-.404.435-1.656 1.418-1.96 1.648.406-.396.522-.99.542-1.126-.508.531-1.849 1.767-2.345 2.118h.611c.064.049.193.151.216.172.023.02.13.04.18.046.177.068.13.356.084.492-.015-.095-.062-.133-.084-.14h-.37l-.653.43c-.734-.308-2.404-2.248-3.171-3.252-1.096-1.38-1.498-3.074-1.564-3.748-.49 1.037.027 2.574.346 3.214-.637-.596-.867-1.854-.902-2.408-.502.875.011 2.537.392 3.223-.457-.378-.711-1.39-.843-1.814-.063.548-.063 1.32-.063 1.32 0 1.394 2.067 3.257 3.055 4.18z" fill="#fff"/></svg>