<svg height="18" viewBox="0 0 18 18" width="18" xmlns="http://www.w3.org/2000/svg"><path d="m0 0h18v18h-18z" fill="#4390ff"/><path d="m9.97 15c.41 0 .76-1.4.92-3.44.2 1.62.56 2.72.99 2.72.62 0 1.12-2.36 1.12-5.28s-.5-5.28-1.12-5.28c-.43 0-.8 1.1-.99 2.72-.16-2.04-.51-3.44-.92-3.44-.56 0-1.01 2.69-1.01 6s.45 6 1.01 6zm-1.24-6c0 2.68-.3 4.85-.66 4.85s-.66-2.17-.66-4.85.3-4.85.66-4.85.66 2.17.66 4.85zm-2.56 3.84c.34 0 .62-1.72.62-3.84s-.28-3.84-.62-3.84c-.35 0-.63 1.72-.63 3.84s.28 3.84.63 3.84zm-1.64-3.84c0 1.42-.12 2.56-.27 2.56-.14 0-.26-1.14-.26-2.56s.12-2.56.26-2.56c.15 0 .27 1.14.27 2.56z" fill="#fff"/></svg>