<svg height="18" viewBox="0 0 18 18" width="18" xmlns="http://www.w3.org/2000/svg"><path d="m0 0h18v18h-18z" fill="#f0f3fa"/><path d="m4 5.48v-.25c.15-.42.78-.26 1.87.48a19.6 19.6 0 0 1 2.47 1.99c-.76-.6-1.26-.85-1.48-.75-.13.05-.13.22 0 .5.08.19.18.36.3.53.8 1.13 1.76 2.09 2.88 2.87.45.3.75.42.92.33.08-.04.1-.1.1-.2a3.26 3.26 0 0 0 -.77-1.35h.02c.7.75 1.32 1.52 1.88 2.32.48.69.75 1.24.8 1.65.03.2-.04.34-.2.38a.77.77 0 0 1 -.48-.05 9.4 9.4 0 0 1 -2.41-1.53c-1.2-.97-2.38-2.1-3.5-3.36-.7-.77-1.3-1.55-1.83-2.35a4.65 4.65 0 0 1 -.57-1.2z" fill="#84a7d6"/><path d="m10.81 7.17c.74.73 1.47 1.2 1.63 1.04s-.3-.89-1.05-1.63c-.74-.74-1.47-1.2-1.63-1.04s.3.89 1.05 1.63zm-1.22 1.22c1.15 1.15 2.3 1.88 2.55 1.63s-.48-1.4-1.64-2.55-2.3-1.87-2.55-1.63.48 1.4 1.64 2.55z" fill="#00adaa"/></svg>