<svg height="18" viewBox="0 0 18 18" width="18" xmlns="http://www.w3.org/2000/svg"><path d="m0 0h18v18h-18z" fill="#f0f3fa"/><path d="m14.54 11.3a6 6 0 1 0 -11.08-4.6 6 6 0 0 0 11.08 4.6zm-.65-.28a5.3 5.3 0 1 0 -9.78-4.05 5.3 5.3 0 0 0 9.78 4.05z" fill="#422774" fill-rule="evenodd"/><path d="m8.66 4.34-1.28 2.96a.16.16 0 0 1 -.15.1l-2.67.02a4.7 4.7 0 0 1 4.1-3.1zm1.21.07a4.7 4.7 0 0 1 3.51 2.98l-2.3-.01-.07-.02c-.02-.02-2.8.2-2.8.17zm3.57 3.14a4.7 4.7 0 1 1 -8.95.09c.12.07.16.12.3.12a271.6 271.6 0 0 1 2.36.04.05.05 0 0 1 0 .05l-1.48 3.75a.03.03 0 0 0 .02.04h1.15c.02 0 .04 0 .05-.03l1.54-3.7a.18.18 0 0 1 .17-.12l1-.02c.07 0 .12.03.15.1l1.57 3.71c.02.04.05.06.09.06l.93-.06a.05.05 0 0 0 .04-.02.05.05 0 0 0 0-.05l-1.22-3.67a.05.05 0 0 1 0-.05.05.05 0 0 1 .04-.02 70 70 0 0 1 2.03 0 .2.2 0 0 0 .14-.05c.05-.04.07-.1.07-.17z" fill="#422774"/><path d="m8.81 11.14c-.2-.1-.44-.13-.7-.1-.14.02-.18-.04-.12-.16.22-.45.27-.91.15-1.38a.66.66 0 0 1 .14-.62c.04-.05.1-.08.16-.09.35-.03.54-.2.58-.53.01-.04.03-.05.07-.05l.04.02.02.05c0 .35.18.53.55.55a.32.32 0 0 1 .3.23c.05.2.06.4.01.59-.1.41-.04.86.15 1.23.08.17.03.24-.15.21-.49-.06-.77.06-.85.37-.02.08-.05.09-.1.02a1 1 0 0 1 -.13-.23.21.21 0 0 0 -.12-.11z" fill="#fff11b"/><path d="m10.97 7.3-1.1-2.9c-.4-.07-.8-.1-1.2-.07l-1.31 2.97a.16.16 0 0 1 -.14.1l-2.67.02-.07.21.07.04c.07.05.12.08.22.08a272 272 0 0 1 2.37.04.05.05 0 0 1 0 .05l-1.63 4.09a.03.03 0 0 0 .02.04l.01.02h1.26c.02 0 .04-.03.05-.05l1.58-4.04a.18.18 0 0 1 .17-.12h1c.07 0 .12.01.15.08l1.6 4.07c.01.04.04.06.08.06h1.14v-.01h.02a.05.05 0 0 0 .02-.04v-.03l-1.45-4.08a.05.05 0 0 1 0-.05.05.05 0 0 1 .04-.02h2.03a.2.2 0 0 0 .14-.05c.05-.04.07-.1.07-.17l-.06-.16-2.3-.01a.12.12 0 0 1 -.11-.08zm-1.91-.9-.37.92a.05.05 0 0 0 .05.07h.72a.05.05 0 0 0 .05-.07l-.35-.92a.05.05 0 0 0 -.1 0z" fill="#e4322c" fill-rule="evenodd"/></svg>