<svg height="18" viewBox="0 0 18 18" width="18" xmlns="http://www.w3.org/2000/svg"><path d="m0 0h18v18h-18z" fill="#f0f3fa"/><path d="m9.26 6.76a1 1 0 0 0 -.26.66c0 .4.26.8.79.8s1.05-.4 1.05-1.06-.4-1.58-1.58-1.58c-.92 0-2.37.4-2.37 2.63 0 1.97 2.03 2.35 2.42 2.35 1.98 0 3.18-1.67 4.4-2.96.07.14.13.3.18.45l-5.6 5.9c-3.38-.39-4.29-3.72-4.29-5.2a4.9 4.9 0 0 1 5-4.75c1.32 0 3.16.66 3.16 2.9a2.52 2.52 0 0 1 -2.37 2.63c-.4 0-1.84-.13-1.84-1.71.04-.35.37-1.06 1.31-1.06zm-.16 7.24 4.9-5.15c0 .17 0 .42-.03.7l-4.13 4.4c-.23.03-.48.05-.74.05zm1.8-.26a4.14 4.14 0 0 0 2.87-3.06z" fill="#f41d23"/></svg>