<svg height="18" width="18" xmlns="http://www.w3.org/2000/svg"><path d="m0 0h18v18h-18z" fill="#f0f3fa"/><path d="m5 5.667.005 2.668.112-.351c.185-.566.439-.97.902-1.43a3.386 3.386 0 0 1 1.595-.93c.478-.132 1.258-.147 1.697-.03.156.044.268.059.244.04-.025-.02-.58-.347-1.24-.722-.657-.38-1.672-.961-2.252-1.302l-1.063-.61z" fill="#ef3125"/><path d="m11.183 6.726c1.2 1.321 1.175 3.452-.058 4.764-.093.102-.161.185-.151.185.029 0 4.427-2.536 4.476-2.584.02-.02-.946-.6-2.145-1.293-1.2-.692-2.239-1.297-2.307-1.336-.068-.044.015.073.185.264z" fill="#0177c1"/><path d="m5 12.47v2.677l.16-.098c.084-.053 1.103-.638 2.254-1.301a111.576 111.576 0 0 0 2.136-1.244c.024-.02-.074-.005-.21.03a3.25 3.25 0 0 1 -1.39.048 3.43 3.43 0 0 1 -2.033-1.097 3.334 3.334 0 0 1 -.8-1.346l-.112-.341z" fill="#974399"/><path d="m11.592 9.022c0 1.683-1.375 3.047-3.072 3.047s-3.072-1.364-3.072-3.047 1.375-3.048 3.072-3.048 3.072 1.365 3.072 3.048z" fill="#b1bb1c"/></svg>