<svg height="18" viewBox="0 0 18 18" width="18" xmlns="http://www.w3.org/2000/svg"><path d="m0 0h18v18h-18z" fill="#f0f3fa"/><path d="m9 5.16 1 1.58h2v-3.16h-2.25z" fill="#ba1859"/><path d="m12 6.74-3-1.58-.68 1.4.68 1.77 3-1.58z" fill="#ad0e4d"/><path d="m9 5.16v3.16l-3-1.58 1.07-1.3z" fill="#ba1859"/><path d="m9 12.84-1 1.58h-2v-3.16l2.14.05z" fill="#f3712a"/><path d="m9 9.68-3-1.58v3.16l2.09.71z" fill="#fbc12e"/><path d="m9 12.84 1 1.58h2v-3.16h-1.86l-1.14 1.59z" fill="#f3712a"/><path d="m9 9.68 3-1.58v3.16l-1.68-.1z" fill="#ffb21d"/><path d="m9 9.68 1.32.7 1.68.88-1.52.8-1.48.78-.86-1.53z" fill="#f09b13"/><path d="m6 14.42 3-1.58.68 1.41-.68 1.75z" fill="#f2672a"/><path d="m9 12.84v3.16l3-1.58z" fill="#ed5f21"/><path d="m9 9.68-3 1.58 1.72.9 1.28.68z" fill="#f7a828"/><path d="m12 3.58-1.6.84-1.4.74-.68-1.41.68-1.75z" fill="#ed2374"/><path d="m9 5.16v-3.16l-3 1.58 1.07 1.3 1.93.27z" fill="#de1f6c"/><path d="m6 6.74v-3.16l3 1.58z" fill="#c91e62"/></svg>