<svg height="18" viewBox="0 0 18 18" width="18" xmlns="http://www.w3.org/2000/svg"><path d="m0 0h18v18h-18z" fill="#f0f3fa"/><g fill="#09426a"><path d="m7 5a2 2 0 0 0 -2 2v4c0 1.1.9 2 2 2h4a2 2 0 0 0 2-2v-4a2 2 0 0 0 -2-2zm.26 1.35c0-.2.16-.35.36-.35h.87a.35.35 0 1 1 0 .7h-.87a.35.35 0 0 1 -.36-.35zm3.48 0c0-.2-.16-.35-.36-.35h-.87a.35.35 0 1 0 0 .7h.87c.2 0 .36-.15.36-.35zm-3.12 4.95a.35.35 0 0 0 0 .71h.87a.35.35 0 1 0 0-.7h-.87zm3.12.36c0-.2-.16-.36-.36-.36h-.87a.35.35 0 0 0 0 .71h.87c.2 0 .36-.16.36-.35zm-3.75-4.66a.35.35 0 1 0 0 .7h1.5a.35.35 0 0 0 0-.7h-1.49zm4.38.35c0-.2-.16-.35-.35-.35h-1.5a.35.35 0 1 0 0 .7h1.5c.19 0 .35-.15.35-.35zm-4.38 2.95a.35.35 0 1 0 0 .71h1.5a.35.35 0 0 0 0-.7h-1.5zm4.43.36c0-.2-.16-.36-.35-.36h-1.5a.35.35 0 0 0 0 .71h1.5c.2 0 .35-.16.35-.35zm-5.07-2.66a.35.35 0 0 0 0 .7h2.15a.35.35 0 1 0 0-.7zm5.65.35c0-.2-.16-.35-.35-.35h-2.15a.35.35 0 1 0 0 .7h2.14c.2 0 .35-.15.35-.35zm-5.65.94a.35.35 0 0 0 0 .71h2.15a.35.35 0 1 0 0-.7h-2.15zm5.65.36c0-.2-.16-.36-.35-.36h-2.15a.35.35 0 1 0 0 .71h2.14c.2 0 .35-.16.35-.35z" fill-rule="evenodd"/><path d="m5.5 7h-2a.5.5 0 0 0 0 1h2a.5.5 0 0 0 0-1zm9 0h-2a.5.5 0 0 0 0 1h2a.5.5 0 0 0 0-1zm-9 2h-2a.5.5 0 0 0 0 1h2a.5.5 0 0 0 0-1zm9 0h-2a.5.5 0 0 0 0 1h2a.5.5 0 0 0 0-1zm-9 2h-2a.5.5 0 0 0 0 1h2a.5.5 0 0 0 0-1zm9 0h-2a.5.5 0 0 0 0 1h2a.5.5 0 0 0 0-1zm-8-5.5v-2a.5.5 0 0 1 1 0v2a.5.5 0 0 1 -1 0zm2 0v-2a.5.5 0 0 1 1 0v2a.5.5 0 0 1 -1 0zm2 0v-2a.5.5 0 0 1 1 0v2a.5.5 0 0 1 -1 0zm-4 9v-2a.5.5 0 0 1 1 0v2a.5.5 0 0 1 -1 0zm2 0v-2a.5.5 0 0 1 1 0v2a.5.5 0 0 1 -1 0zm2 0v-2a.5.5 0 0 1 1 0v2a.5.5 0 0 1 -1 0z"/></g></svg>