<svg height="18" viewBox="0 0 18 18" width="18" xmlns="http://www.w3.org/2000/svg" xmlns:xlink="http://www.w3.org/1999/xlink"><linearGradient id="a"><stop offset="0" stop-color="#ea9a1b"/><stop offset="1" stop-color="#e06217"/></linearGradient><linearGradient id="b" gradientUnits="userSpaceOnUse" x1="9.29" x2="10.57" xlink:href="#a" y1="4.29" y2="5.57"/><linearGradient id="c" gradientUnits="userSpaceOnUse" x1="13.44" x2="12.65" xlink:href="#a" y1="7.91" y2="6.27"/><linearGradient id="d" gradientUnits="userSpaceOnUse" x1="12" x2="13.8" xlink:href="#a" y1="10.62" y2="10.84"/><linearGradient id="e" gradientUnits="userSpaceOnUse" x1="6.44" x2="6.55" xlink:href="#a" y1="6" y2="5.1"/><linearGradient id="f" gradientUnits="userSpaceOnUse" x1="9.53" x2="10.38" xlink:href="#a" y1="12.11" y2="13.71"/><linearGradient id="g" gradientUnits="userSpaceOnUse" x1="4.99" x2="6.81" xlink:href="#a" y1="12.03" y2="11.98"/><linearGradient id="h" gradientUnits="userSpaceOnUse" x1="3.49" x2="6.21" xlink:href="#a" y1="8.54" y2="8.47"/><path d="m0 0h18v18h-18z" fill="#f0f3fa"/><circle cx="10" cy="5" fill="url(#b)" r="1"/><path d="m12.05 6.67a1 1 0 1 1 1.9.66 1 1 0 0 1 -1.9-.66z" fill="url(#c)"/><path d="m13.79 10.13a1 1 0 1 1 -1.58 1.23 1 1 0 0 1 1.58-1.23z" fill="url(#d)"/><path d="m6.2 5.1a.5.5 0 1 1 .6.8.5.5 0 0 1 -.6-.8z" fill="url(#e)"/><path d="m10.96 13.3a1 1 0 1 1 -1.92-.6 1 1 0 0 1 1.92.6z" fill="url(#f)"/><path d="m6.69 11.27a1 1 0 1 1 -1.38 1.46 1 1 0 0 1 1.38-1.46z" fill="url(#g)"/><path d="m6.03 7.41a1.5 1.5 0 1 1 -2.06 2.18 1.5 1.5 0 0 1 2.06-2.18z" fill="url(#h)"/><path d="m10.53 9.88c-.05-.26-.03-.82.47-.95-.42 0-.79.16-.47.95zm-1.1-.63a1.9 1.9 0 0 1 1.26-1.6c-1.14.9-1 2.6-.79 3.35-.2-.16-.6-.73-.47-1.75zm-.63-.48c.16-.1.44-.48.31-1.12-.12-.63-.89-.69-1.25-.63 1 .25 1.04 1.27.94 1.75zm-.47 0c-.45-.45-1.2-.32-1.57-.16 1.1-.16 1.88.64 1.88 1.75.13-.7.16-1.11-.31-1.6z"/></svg>