<svg height="18" viewBox="0 0 18 18" width="18" xmlns="http://www.w3.org/2000/svg" xmlns:xlink="http://www.w3.org/1999/xlink"><linearGradient id="a" gradientUnits="userSpaceOnUse" x1="10.5" x2="10.5" y1="6" y2="10"><stop offset=".4" stop-color="#0068a7"/><stop offset=".67" stop-color="#69b6da"/><stop offset="1" stop-color="#149ed9"/></linearGradient><linearGradient id="b" gradientUnits="userSpaceOnUse" x1="10.09" x2="15.28" y1="6.9" y2="7.15"><stop offset="0" stop-color="#2ba9e1"/><stop offset="1" stop-color="#1669b3"/></linearGradient><linearGradient id="c" gradientUnits="userSpaceOnUse" x1="9.27" x2="14.18" y1="12" y2="12"><stop offset="0" stop-color="#056db6"/><stop offset=".44" stop-color="#0b8acb"/><stop offset="1" stop-color="#056db6"/></linearGradient><linearGradient id="d" gradientUnits="userSpaceOnUse" x1="9" x2="9" y1="5.74" y2="12"><stop offset="0" stop-color="#76ad43"/><stop offset="1" stop-color="#688b3b"/></linearGradient><linearGradient id="e" gradientUnits="userSpaceOnUse" x1="8.35" x2="5.89" y1="6.3" y2="11.02"><stop offset="0" stop-color="#fed900"/><stop offset="1" stop-color="#b95027"/></linearGradient><linearGradient id="f" gradientUnits="userSpaceOnUse" x1="2.33" x2="5.46" y1="6" y2="12.24"><stop offset="0" stop-color="#e58a24"/><stop offset="1" stop-color="#d44229"/></linearGradient><path d="m0 0h18v18h-18z" fill="#f0f3fa"/><path d="m11.5 10v-3l-1.5.67v1.33c0 .69 1.17.9 1.5 1z" fill="url(#a)"/><path d="m9 12v-1.5h3.5c.36-.1 1-.3 1-1.5s-.56-1.5-1-1.5h-1.5c-.33 0-1 .5-1 .5v-.8c0-.96.64-1.2 1-1.2h2c1.21 0 2 .9 2 1.8v2.1c0 1.7-1.36 2.1-2 2.1z" fill="url(#b)"/><path d="m9 12v-1.5h3.5c.36-.1 1-.3 1-1.5s-.56-1.5-1-1.5h-1.5c-.33 0-1 .5-1 .5v-.8c0-.96.64-1.2 1-1.2h2c1.21 0 2 .9 2 1.8v2.1c0 1.7-1.36 2.1-2 2.1z" fill="url(#c)" fill-opacity=".2"/><path d="m9.5 6.5c0-.08-1.5-.31-1.5 0v4.5c0 .75.44 1 .67 1h1.33c-.53 0-.5-.84-.5-1.25z" fill="url(#d)"/><path d="m6.63 11.5c-.26.54-.96.5-1.15.5v-1.2l1.72-4.2c.1-.2.69-.6 1.15-.6.58 0 1.15.2 1.15.5-.29 0-.88.39-1.15 1s-1.5 3.52-1.72 4z" fill="url(#e)"/><path d="m4.63 11.42-2.63-5.23c.79-.47 1.73 0 1.97.58.66 1.03 1.6 3.27 1.86 3.73s.55.82.77.92c-.11.2-.46.58-.99.58-.54 0-.87-.39-.98-.58z" fill="url(#f)"/></svg>