<svg height="18" width="18" xmlns="http://www.w3.org/2000/svg"><path d="m0 0h18v18h-18z" fill="#f0f3fa"/><path d="m5.036 5.983c1.225.182 1.939-.076 2.143-.228-.447.391-.95.66-1.214.647-1.21-.126-1.859.09-2.063.195l1.71.842c-.072.674-.726 1.333-1.044 1.579 1.124.617.973 1.976.756 2.579 1.57-.183 2.131.965 2.215 1.561 1.196-1.01 2.347-.421 2.773 0 .374-1.474 1.704-1.655 2.322-1.561-.49-1.432.385-2.316.883-2.58-.476-.266-.69-.578-.738-.7a1.78 1.78 0 0 1 0-1.106l1.512-.614c-.702-.21-1.044-.105-1.783-.158-.59-.042-1.057-.28-1.207-.456.572.2 1.312 0 1.946 0 .792 0 1.746.386 1.746 1.456 0 .856-.468 1.41-.702 1.579.648.477.738 1.24.702 1.561-.187 1.08-1.242 1.468-1.746 1.526.108.351.165 1.183-.468 1.702-.634.52-1.741.275-2.215.088-.162.368-.702 1.105-1.567 1.105-.864 0-1.5-.737-1.71-1.105-.922.393-1.693.105-1.963-.088-.605-.42-.696-1.38-.666-1.807-.378-.14-1.476-.438-1.638-1.42-.13-.787.414-1.44.702-1.667-.706-.562-.762-1.217-.702-1.474 0-.65.792-1.638 2.016-1.456z" fill="#3b6faa"/><path d="m4.992 6.442c.324.738.42 1.325.346 1.52.48-.316.225-1.149.12-1.52a2.033 2.033 0 0 0 2.255-1.714c1.082 1.032 2.315.43 2.796 0 .18 1.09.92 1.432 1.28 1.446l1.125-1.153c0 .211-.07.694-.105.908-.397 1.09-.246 1.724-.12 1.904.132-.82.466-1.61.616-1.904.156-.878-.266-1.518-.496-1.728-.553-.633-1.634-.342-2.105-.117-.18-.234-.586-1.07-1.699-1.084-.89-.012-1.393.718-1.533 1.084-.466-.278-1.383-.44-2.09 0-.706.44-.796 1.435-.39 2.358z" fill="#09ce12"/><path d="m9.667 4.832.094-1.279c.206.174.475.563.583.736-.034.1-.466.403-.677.543zm3.585 3.449 1.281-.29c-.11.244-.411.609-.549.76-.108-.002-.533-.314-.732-.47zm-.332 2.572 1.188.55c-.24.123-.71.226-.915.262-.083-.067-.217-.57-.273-.812zm-1.889 1.8.626 1.127c-.27-.039-.71-.226-.897-.314-.027-.103.17-.585.271-.813zm-2.584.487-.249 1.258c-.183-.196-.403-.613-.49-.797.047-.096.512-.347.739-.461zm-2.401-1.17-.941.896c-.036-.263.028-.728.064-.927.094-.053.624-.001.877.032zm-1.35-2.27-1.293.236c.12-.238.438-.59.582-.736.108.007.52.337.711.5zm6.419-4.53.773-1.037c-.272.004-.735.132-.932.196-.04.098.09.602.159.84zm-2.657-.338-.095-1.279c-.206.174-.474.563-.583.736.034.1.466.403.678.543zm4.794 4.93 1.302.18c-.13-.233-.464-.571-.614-.711-.108.012-.504.358-.688.53zm-1.291 2.202.942.894c.035-.263-.029-.727-.065-.926-.094-.053-.624-.001-.877.032zm-2.346 1.216.146 1.274c.199-.182.451-.58.553-.757-.039-.1-.482-.386-.7-.517zm-2.634-.527-.625 1.127c.27-.038.71-.226.897-.315.027-.102-.17-.584-.272-.812zm-1.896-1.879-1.163.6c.246.113.72.196.925.223.08-.071.192-.578.237-.823zm-.359-2.507-1.302-.185c.13.233.462.572.612.713.108-.011.505-.356.69-.528zm4.718-4.947a1.191 1.191 0 0 0 -.806 0l.162 1.662c.226.12.425.05.497 0l.146-1.662zm3.38 1.391a1.156 1.156 0 0 0 -.607-.517l-1 1.356a.48.48 0 0 0 .374.32zm1.852 2.982a1.11 1.11 0 0 0 -.173-.767l-1.632.513a.461.461 0 0 0 .107.473zm-.226 3.417a1.11 1.11 0 0 0 .228-.752l-1.683-.319c-.183.178-.17.384-.14.465l1.595.607zm-2.34 2.632c.35-.102.573-.36.64-.477l-1.165-1.225c-.255.038-.37.212-.395.294zm-3.537.906c.339.138.678.075.806.026l-.105-1.667a.493.493 0 0 0 -.497-.016zm-3.306-1.369c.197.301.512.439.646.47l.89-1.428a.482.482 0 0 0 -.399-.29l-1.137 1.249zm-1.965-2.912c-.008.357.176.642.27.74l1.553-.705a.464.464 0 0 0 -.166-.457zm.233-3.454c-.224.284-.248.62-.232.752l1.681.326c.184-.177.172-.383.143-.465zm2.35-2.783c-.281.087-.54.298-.634.393l1.312 1.437.265-.293zm1.134 1.229-.721-1.21c.584.068.938.257 1.043.343.012.275-.21.692-.322.867zm-1.856-.402 1.031 1.078c-.584-.069-.927-.023-1.031-.109-.013-.275-.084-.693 0-.969z" fill="#f0f3fa"/></svg>