<svg height="18" viewBox="0 0 18 18" width="18" xmlns="http://www.w3.org/2000/svg"><path d="m0 0h18v18h-18z" fill="#f0f3fa"/><g fill-rule="evenodd"><path d="m9 15a6 6 0 1 0 0-12 6 6 0 0 0 0 12zm0-.52a5.48 5.48 0 1 0 0-10.96 5.48 5.48 0 0 0 0 10.96z" fill="#1d375a"/><path d="m9 11a2 2 0 1 0 0-4 2 2 0 0 0 0 4zm0-1a1 1 0 1 0 0-2 1 1 0 0 0 0 2z" fill="#1d375a" fill-opacity=".4"/><path d="m9 12a3 3 0 1 0 0-6 3 3 0 0 0 0 6zm0-1a2 2 0 1 0 0-4 2 2 0 0 0 0 4z" fill="#28698f" fill-opacity=".4"/><path d="m9 13a4 4 0 1 0 0-8 4 4 0 0 0 0 8zm0-1a3 3 0 1 0 0-6 3 3 0 0 0 0 6z" fill="#0893b1" fill-opacity=".4"/></g></svg>