<svg height="18" width="18" xmlns="http://www.w3.org/2000/svg"><path d="m0 0h18v18h-18z" fill="#323d40"/><path d="m7.45 9.8c0 .05-.02.06-.06.06h-.46c-.04 0-.06-.03-.06-.05v-1.65c0-.04.02-.06.06-.06h.46c.04 0 .06.02.06.06v1.65z" fill="#2dccd3"/><path d="m8.35 9.42c0 .04-.02.06-.06.06h-.46c-.04 0-.06-.02-.06-.06v-2.65c0-.04.02-.06.06-.06h.46c.04 0 .06.02.06.06z" fill="#00a3e1"/><path d="m9.25 9.8c0 .05-.02.06-.06.06h-.46c-.04 0-.06-.03-.06-.05v-2.27c0-.04.02-.05.06-.05h.46c.04 0 .06.01.06.05v2.27z" fill="#ff8200"/><path d="m10.17 10.29c0 .04-.02.06-.06.06h-.46c-.04 0-.06-.02-.06-.06v-2.84c0-.04.04-.06.06-.06h.46c.04 0 .06.02.06.06z" fill="#97d700"/><path d="m11.08 9.54c0 .03-.02.05-.06.05h-.49c-.04 0-.06-.02-.06-.05v-1.24c0-.04.02-.06.06-.06h.47c.05 0 .07.02.07.06v1.24h.02z" fill="#7e93a7"/><path d="m13.14 5.69-1.14 1.31c.12.25.22.54.28.83a3.28 3.28 0 0 1 -.36 2.1c-.18.32-.38.61-.62.9-.65.76-1.39 1.43-2.15 2.07-.12.1-.2.1-.32 0-.82-.7-1.64-1.43-2.3-2.28a3.99 3.99 0 0 1 -.84-1.72c-.12-.66 0-1.32.28-1.9l-1.15-1.3a4.67 4.67 0 0 0 -.54 4.25c.28.81.8 1.5 1.37 2.13.94 1.06 2.02 2 3.14 2.84.16.12.26.12.4 0 .88-.67 1.72-1.39 2.5-2.16.47-.47.9-.93 1.29-1.45a4.96 4.96 0 0 0 1.02-2.97c0-.92-.28-1.79-.86-2.65z" fill="#fff"/><g fill="#00a3e1"><path d="m8.13 3.62a5 5 0 0 0 -2.98 1.66l.4.46.22.26.04-.04c.02-.02.04-.06.08-.08l.02-.04c.64-.7 1.5-1.18 2.42-1.31.2-.04.42-.04.64-.04 1.26 0 2.43.54 3.2 1.47l.05.04.48-.55.14-.15c-1.14-1.3-2.9-2-4.71-1.68z"/><path d="m8.86 4.43c-.2 0-.4.02-.58.04-1.18.13-1.96.94-2.53 1.5l.5.53a3.38 3.38 0 0 1 5.45-.02l.52-.49a4.27 4.27 0 0 0 -3.36-1.56z"/></g></svg>