<svg fill="none" height="18" width="18" xmlns="http://www.w3.org/2000/svg"><path d="m0 0h18v18h-18z" fill="#1d1d26"/><path d="m8 8.5c0 1.06-.76 1.75-1.5 1.75s-1.5-.7-1.5-1.75.76-1.75 1.5-1.75 1.5.7 1.5 1.75zm0 2.2c-.42.34-.94.55-1.5.55-1.38 0-2.5-1.23-2.5-2.75s1.12-2.75 2.5-2.75c.58 0 1.1.21 1.53.58a.5.5 0 0 1 .97.17v4.83c0 .27-.1.56-.27.81a2.29 2.29 0 0 1 -.73.7c-.65.4-1.56.55-2.67.13a.5.5 0 0 1 .35-.94c.86.32 1.44.19 1.8-.03.19-.12.32-.26.4-.4a.6.6 0 0 0 .12-.28z" fill="#4899f7" fill-rule="evenodd"/><path d="m14 8.5c0 1.29-.94 2.25-2 2.25s-2-.96-2-2.25.94-2.25 2-2.25 2 .96 2 2.25z" stroke="#4899f7"/></svg>