<svg height="18" width="18" xmlns="http://www.w3.org/2000/svg"><path d="m0 0h18v18h-18z" fill="#f0f3fa"/><path d="m11 7v3s-1 .11-1-.9v-3.1h3.66c1.1 0 2.34.5 2.34 2v2.5c0 .9-.66 1.5-1.56 1.5h-7.94l.5-1h6.94c.76 0 1.06-.26 1.06-.85v-2.45c0-.4-.47-.71-.86-.71h-3.14z" fill="#1f3d7c"/><path d="m2 12c.36 0 .92-.18 1-.62v-3.08l2.08 3.46a.5.5 0 0 0 .84 0l2.08-3.46v1.2c0 .62.38 1.09 1.46 1.09h1.54v-.33s-1 .02-1.29-.08-.71-.24-.71-.97v-2.81c0-.3-.24-.4-.44-.4s-.42.13-.56.34a98.1 98.1 0 0 0 -2.5 4.26c-.34-.57-1.77-3.12-2.5-4.26-.13-.2-.25-.34-.5-.34s-.5.11-.5.4z" fill="#8dc63f"/></svg>