<svg height="18" viewBox="0 0 18 18" width="18" xmlns="http://www.w3.org/2000/svg"><path d="m0 0h18v18h-18z" fill="#592c81"/><g fill="#f0f3fa"><path d="m5 6.1a.5.5 0 1 1 -1 0 .5.5 0 0 1 1 0zm-1 4.9v-4h1v4z"/><path d="m9 7h1v4h-1v-.37c-.3.22-.66.34-1.07.34a1.96 1.96 0 0 1 -1.93-1.97c0-1.1.87-1.98 1.93-1.98.4 0 .76.13 1.07.34zm-1.07.94c.58 0 1.04.47 1.04 1.06 0 .58-.46 1.06-1.04 1.06-.57 0-1.03-.48-1.03-1.06 0-.59.46-1.06 1.03-1.06zm7.07-.94v1h-.36c.2.3.31.57.31.95a1.9 1.9 0 0 1 -1.34 1.79c.53.22.9.73.9 1.32 0 .8-.67 1.44-1.5 1.44-.84 0-1.52-.65-1.52-1.44 0-.58.36-1.08.88-1.31a1.9 1.9 0 0 1 -1.37-1.8 2 2 0 0 1 2-1.95c.52-.02 1.5 0 2 0zm-2 4.47a.6.6 0 0 1 .62.59.6.6 0 0 1 -.62.58.6.6 0 0 1 -.6-.58.6.6 0 0 1 .6-.59zm-.02-3.54c.58 0 1.06.46 1.06 1.02s-.48 1.01-1.06 1.01c-.6 0-1.07-.45-1.07-1.01s.48-1.02 1.07-1.02z" fill-rule="evenodd"/></g></svg>