<svg height="18" width="18" xmlns="http://www.w3.org/2000/svg"><path d="m0 0h18v18h-18z" fill="#0e61fe"/><path d="m2 12h2.72v-.38h-2.72zm0-.8h2.72v-.38h-2.72zm.78-.8h1.16v-.4h-1.16v.39zm0-.8h1.16v-.4h-1.16v.38zm0-.8h1.16v-.4h-1.16zm0-.81h1.16v-.39h-1.16v.38zm-.78-.8h2.72v-.39h-2.72zm0-.8h2.72v-.39h-2.72v.38zm3.11 5.23v.38h2.86c.36 0 .7-.14.96-.38zm0-.8v.38h4.15c.06-.12.11-.25.15-.38h-4.31zm.78-.42h1.17v-.4h-1.18v.39zm3.07-1.2h-3.06v.38h3.36a1.6 1.6 0 0 0 -.29-.38zm-3.07-.8v.38h3.08c.12-.1.21-.24.29-.38zm3.51-1.21a1.66 1.66 0 0 0 -.15-.39h-4.15v.39zm-.48-.8a1.41 1.41 0 0 0 -.94-.39h-2.87v.39h3.82zm-3.02 1.59h1.17v-.38h-1.19v.38zm2.26 0h1.26c.03-.13.05-.25.05-.38h-1.3v.38zm0 2.02v.39h1.3c0-.14 0-.26-.03-.39h-1.28zm3.81-4h-2.2v.38h2.32zm-2.2 6h1.95v-.38h-1.94v.38zm0-.8h1.95v-.39h-1.94v.39zm.78-.8h1.17v-.4h-1.17v.39zm0-.8h1.17v-.4h-1.17v.38zm3.5 2.4h1.95v-.38h-1.95zm0-.8h1.95v-.39h-1.95zm0-.8h1.17v-.4h-1.17v.39zm0-.8h1.17v-.4h-1.17v.38zm0-.81h1.17v-.38h-2.19l-.12.38h1.03l.12-.36v.36zm-1.3-.38h-2.2v.38h1.17v-.36l.12.36h1.02l-.12-.38zm2.47-.8h-1.92l-.12.38h2.05v-.39zm-1.41-1.61-.13.38h2.32v-.38h-2.2zm-.92 6 .12-.38h-.25zm-.26-.8h.52l.13-.39h-.78zm-.27-.8h1.05l.13-.39h-1.3l.13.39zm-.26-.8h1.57l.13-.39h-1.82l.12.38zm-1.55-1.61h2.06l-.13-.39h-1.93v.4zm2.88-.8h2.57v-.39h-2.45l-.12.38zm-1.2-.39h-2.45v.38h2.57z" fill="#fff"/></svg>