<svg fill="none" height="18" viewBox="0 0 18 18" width="18" xmlns="http://www.w3.org/2000/svg"><path d="m0 0h18v18h-18z" fill="#f0f3fa"/><g clip-rule="evenodd" fill-rule="evenodd"><path d="m12.9988 9.04848c-.0184.78225-4.35819 5.51082-6.11673 4.89662-1.75853-.6142-.39153-6.24275-.11417-7.11503.27736-.87227.98174-3.23094 2.29809-2.77125 1.31631.45969 3.99781 2.23853 3.93281 4.98966z" fill="#ee2839"/><path d="m8.53629 6.00007c.53638.0032 5.46371.51642 5.46371 2.53923 0 2.0228-5.73386 2.4605-6.64395 2.4605s-3.35605.0473-3.35605-1.46683c0-1.51415 2.2354-3.54665 4.53629-3.5329z" fill="#0038a5"/><path d="m6 7h.5v3h-.5z" fill="#f0f3fa"/><path d="m11 7h.5 1v.5h-1v1.00006h1v.5h-1v.99994h-.5v-.99994-.5-1.00006z" fill="#f0f3fa"/><path d="m8 7v3h.5v-1h.59768c.49627 0 .90232-.441.90232-.98001v-.03998c0-.53901-.40605-.98001-.90232-.98001zm.5 1.50006h.45861c.29785 0 .54139-.17415.54139-.47739v-.02261c0-.30325-.24354-.5-.54139-.5h-.45861z" fill="#f0f3fa"/></g></svg>