<svg height="18" viewBox="0 0 18 18" width="18" xmlns="http://www.w3.org/2000/svg"><path d="m0 0h18v18h-18z" fill="#f0f3fa"/><path d="m7.67 4.18.62 2.2 1.04-.11.34-2.23a5.05 5.05 0 0 0 -2 .14z" fill="#ce1153"/><path d="m9.67 4.04-.37 2.38 1.05.25 1.1-2.02a4.97 4.97 0 0 0 -1.8-.6z" fill="#a72784"/><path d="m12.94 5.92-1.72 1.34-.89-.55 1.13-2.07c.57.33 1.07.76 1.48 1.28z" fill="#59247c"/><path d="m13.85 7.78-2.22.6-.39-1.15 1.7-1.32c.42.55.74 1.18.91 1.87z" fill="#fad900"/><path d="m13.94 9.8a5.03 5.03 0 0 0 -.1-2.03l-2.2.61.21 1.12z" fill="#e7b200"/><path d="m13.94 9.77c-.1.68-.35 1.32-.7 1.88l-1.74-1.04.31-1.12z" fill="#f6a400"/><path d="m13.24 11.64a5.03 5.03 0 0 1 -1.35 1.44l-1.26-1.74.82-.78 1.8 1.08z" fill="#dd6f10"/><path d="m11.9 13.07c-.53.38-1.13.65-1.77.8l-.5-2.06 1.14-.3z" fill="#c51718"/><path d="m8.22 13.94.33-2.14 1.08.03.5 2.04a5.01 5.01 0 0 1 -1.91.07z" fill="#ce1153"/><path d="m8.22 13.94a4.97 4.97 0 0 1 -1.74-.62l1.08-1.89.98.49z" fill="#a72784"/><path d="m6.48 13.32a5.03 5.03 0 0 1 -1.4-1.22l1.76-1.4.7.8z" fill="#59247c"/><path d="m5.08 12.1a4.98 4.98 0 0 1 -.93-1.87l2.24-.54.48.99z" fill="#2e529e"/><path d="m4.16 10.25a5 5 0 0 1 -.12-1.86l2.41.3-.12 1.01z" fill="#0daca7"/><path d="m4.04 8.39c.08-.7.3-1.33.64-1.9l2.11 1.21-.5.97z" fill="#00973a"/><path d="m4.68 6.49c.32-.56.75-1.05 1.26-1.45l1.44 1.87-.68.75-2.02-1.16z" fill="#db7509"/><path d="m5.94 5.05c.5-.4 1.1-.7 1.73-.87l.64 2.21-.96.47z" fill="#cd1225"/><circle cx="9.16" cy="9.16" fill="#1d1d1b" r="2.97"/><path d="m7.44 7h1.25v1.25h-1.25zm1.56.47h.78v.78h-.78zm-1 1.17h.68v.68h-.68z" fill="#f0f3fa"/></svg>