<svg height="18" viewBox="0 0 18 18" width="18" xmlns="http://www.w3.org/2000/svg" xmlns:xlink="http://www.w3.org/1999/xlink"><linearGradient id="a"><stop offset=".77" stop-color="#85be56"/><stop offset="1" stop-color="#33581a"/></linearGradient><linearGradient id="b" gradientUnits="userSpaceOnUse" x1="10" x2="4.2" xlink:href="#a" y1="4.52" y2="4.52"/><linearGradient id="c" gradientUnits="userSpaceOnUse" x1="14" x2="6.27" xlink:href="#a" y1="6.17" y2="6.17"/><linearGradient id="d" gradientUnits="userSpaceOnUse" x1="12" x2="4.27" xlink:href="#a" y1="4.91" y2="4.91"/><path d="m0 0h18v18h-18z" fill="#f0f3fa"/><path d="m9.46 9c-.8.34-2.43 1.02-2.46 1.05l2 1.45 2-1.38zm-2.46 3.14-1.35-1.14c-.43.36-.65.73-.65 1 0 .22.62.76.92 1zm-.06-3.99-1.23-.91c-1.3.47-1.42.9-1.42 1 0 .07.08.2.12.26l.43.5zm1.76 4.85-.7.3c.47.34.41.52.38.7.27-.18.62-.45.62-.64 0-.14-.2-.3-.3-.36z" fill="#5d9335"/><path d="m5.1 5.9c-.54.3-.95 1.52-1.1 2.1.7-.76.96-.73 3.03-1.59 2.73-1.13 2.97-1.74 2.97-1.95 0-.22-.4-.46-.55-.46-.24.58-3.64 1.5-4.34 1.9z" fill="url(#b)"/><path d="m13.45 6.71c0-.74-.62-1.45-.88-1.71a4.55 4.55 0 0 1 1.43 3.11c0 3.3-6.03 5.11-6.6 5.6-.15.14-.05.2 0 .29-.32.03-1.4-.4-1.4-1.03 0-.62 2.08-1.56 3-2.02 3.4-1.72 4.45-3.3 4.45-4.24z" fill="url(#c)"/><path d="m10.83 12.36-.83.64c.24.33.02.95 0 1 .81-.12 1.01-.72 1-1 0-.1 0-.48-.17-.64z" fill="#5d9335"/><path d="m10.72 4.9c0-.48-.84-.8-1.26-.9 1.65.14 2.54 1.1 2.54 1.74 0 1.51-3.01 2.95-5.24 3.8-1.78.68-2.2 1.26-2.17 1.46a6.73 6.73 0 0 1 -.59-1.7c0-.45.72-.9 1.73-1.28 4.07-1.48 4.99-2.5 4.99-3.11z" fill="url(#d)"/></svg>