<svg height="18" viewBox="0 0 18 18" width="18" xmlns="http://www.w3.org/2000/svg"><path d="m0 0h18v18h-18z" fill="#f0f3fa"/><path d="m8.29 5.98-4.29 2.22 1.76 2.76 2.36-1.24c.45-.24.98-.59.98-1.02 0-.1.11-.4.55-.68.43-.29 2.4-1.28 2.4-1.28l-1.75-2.74c-.38.17-1.15.64-1.24 1.14-.08.5-.55.77-.77.84z" fill="#3256a4" opacity=".7"/><path d="m6.03 11.42-.1-.16s2.02-1.04 2.67-1.39c.18-.1.35-.19.48-.33.12-.11.17-.25.22-.39l.09-.21c.22-.43.52-.67.72-.78l2.13-1.12 1.76 2.76-3.65 1.9-.11.06c-.17.08-.33.17-.48.28-.18.14-.37.35-.38.58-.02.42-.48.75-.71.86l-.97.52c-.08-.13-1.69-2.56-1.67-2.58z" fill="#98c13d" opacity=".7"/></svg>