<svg height="18" viewBox="0 0 18 18" width="18" xmlns="http://www.w3.org/2000/svg"><path d="m0 0h18v18h-18z" fill="#f0f3fa"/><path d="m13.5 9.7c0 2.37-1.37 4.3-3.05 4.3-1.69 0-3.06-1.93-3.06-4.3 0-2.38 1.37-4.3 3.06-4.3 1.68 0 3.05 1.92 3.05 4.3zm-.56.36c0-1.96-1.01-3.55-2.26-3.55s-2.26 1.59-2.26 3.55 1.01 3.55 2.26 3.55 2.26-1.59 2.26-3.55zm-6.64-.36c0 2.37.79 4.3.5 4.3-.3 0-1.8-1.94-1.8-4.32 0-2.37 1.5-4.28 1.8-4.28.29 0-.5 1.93-.5 4.3z" fill="#32477a"/><path d="m8.22 4.16c.27-.5.28-1 .01-1.13-.26-.13-.7.17-.97.67s-.28 1-.01 1.13c.26.13.7-.17.97-.67z" fill="#6c1431"/></svg>