<svg height="18" viewBox="0 0 18 18" width="18" xmlns="http://www.w3.org/2000/svg"><path d="m0 0h18v18h-18z" fill="#f0f3fa"/><path d="m6 8h1v6h-1z" fill="#cf8001"/><path d="m11.5 14c1.56 0 2.5-1.34 2.5-3s-.94-3-2.5-3-2.5 1.34-2.5 3 .94 3 2.5 3zm0-.7c.83 0 1.5-1.03 1.5-2.3s-.67-2.3-1.5-2.3-1.5 1.04-1.5 2.3c0 1.27.67 2.3 1.5 2.3z" fill="#cf8001" fill-rule="evenodd"/><path d="m7.5 6.61a1 1 0 1 1 -2 0 1 1 0 0 1 2 0z" fill="#b94700"/><path d="m8.22 7.67a2.08 2.08 0 1 0 -2.97.5v.5a2.5 2.5 0 1 1 3.5-1.09l-.53.1z" fill="#9d9e96"/><ellipse cx="4.83" cy="5.13" fill="#b94700" rx=".5" ry=".48"/></svg>