<svg height="18" viewBox="0 0 18 18" width="18" xmlns="http://www.w3.org/2000/svg"><path d="m0 0h18v18h-18z" fill="#f0f3fa"/><path d="m11.45 5-1.17 1.98-1.13-1.82a.35.35 0 0 0 -.13-.12.37.37 0 0 0 -.18-.05h-2.2l1.16-1.99h2.2c.07 0 .13.02.18.04.06.03.1.08.13.13l1.13 1.82h2.37l1.1 1.85a.33.33 0 0 1 0 .33l-1.1 1.85h-2.37l1.09-1.85a.33.33 0 0 0 0-.33l-1.1-1.85zm-4.9 3.98h-2.38l-1.07 1.84a.33.33 0 0 0 0 .34l1.08 1.85h2.38l-1.09-1.85a.33.33 0 0 1 0-.34l1.1-1.84zm0 4.03 1.18-2 1.13 1.83c.06.1.18.17.3.17h2.2l-1.17-2h2.2a.36.36 0 0 0 .3-.16l1.14-1.83 1.17 2-1.13 1.82a.35.35 0 0 1 -.13.12.37.37 0 0 1 -.17.05h-2.2l-1.18 1.99h-2.19a.37.37 0 0 1 -.18-.04.35.35 0 0 1 -.13-.13l-1.13-1.82zm-2.38-4.03-1.17-2 1.13-1.82c.03-.05.07-.1.13-.12a.37.37 0 0 1 .17-.05h2.2l1.18 2h-2.2a.37.37 0 0 0 -.18.04.35.35 0 0 0 -.13.12z" fill="#000032"/></svg>