<svg height="18" viewBox="0 0 18 18" width="18" xmlns="http://www.w3.org/2000/svg"><path d="m0 0h18v18h-18z" fill="#f0f3fa"/><g fill="#00a1df"><rect height="1" rx=".5" width="8" x="6" y="5"/><rect height="1" rx=".5" width="11" x="3" y="7"/><rect height="1" rx=".5" width="12.0001" x="2" y="9"/><rect height="1" rx=".5" width="11" x="3" y="11"/><rect height="1" rx=".5" width="5" x="6" y="13"/></g><rect fill="#7fa9c3" height="1" rx=".5" width="7" x="7" y="5"/><rect fill="#7fa9c3" height="1" rx=".5" width="9" x="5" y="7"/><rect fill="#7fa9c3" height="1" rx=".5" width="10.0001" x="4" y="9"/><rect fill="#7fa9c3" height="1" rx=".5" width="9" x="5" y="11"/><rect fill="#7fa9c3" height="1" rx=".5" width="7" x="7" y="13"/><path d="m11.9174 9.9978c.0543-.32452.0826-.65786.0826-.9978 0-.00059 0-.00117 0-.00176h1.5c.2762 0 .5.22376.5.49978s-.2238.49978-.5.49978zm-.7185 1.9994c.1827-.3161.3373-.6504.4605-.9995h1.8406c.2762 0 .5.2237.5.4997 0 .2761-.2238.4998-.5.4998zm-.0018-5.99764c-.2073-.35826-.4506-.69309-.7249-.99956h3.0278c.2762 0 .5.22376.5.49978s-.2238.49978-.5.49978zm.7197 1.99912c-.0578-.344-.1448-.67807-.2585-.99956h1.8417c.2762 0 .5.22376.5.49978s-.2238.49978-.5.49978zm-2.59899 6.00132c.4261-.2833.81389-.6196 1.15399-.9996h3.0282c.2762 0 .5.2238.5.4998s-.2238.4998-.5.4998z" fill="#005487"/></svg>