<svg height="18" width="18" xmlns="http://www.w3.org/2000/svg"><path d="m0 0h18v18h-18z" fill="#63a50b"/><g fill="#fff"><path d="m8 6.996.586-2.996h2.544c1.484 0 2.866.908 2.866 2.484 0 .424.077 1.588-.15 2.215-.348.965-.985 1.724-1.846 2.274l2 3.027h-3l-3.205-5.018c-.361 1.923-.47 3.09-.795 5.018h-3c.326-1.288.52-2.64 1.419-3.677.47-.616 1.145-1.082 1.87-1.237.282-.06.47-.104.687-.104h2.029c.737 0 .995-.386.995-.982s-.259-1.004-.995-1.004z"/><path d="m6.013 6.998c-.894.044-1.565-.738-1.52-1.477 0-.87.67-1.521 1.565-1.521.984.043 1.565.739 1.565 1.52a1.597 1.597 0 0 1 -1.61 1.478z"/></g></svg>