<svg height="18" viewBox="0 0 18 18" width="18" xmlns="http://www.w3.org/2000/svg"><path d="m0 0h18v18h-18z" fill="#f0f3fa"/><path d="m11.95 3.04a.18.18 0 0 0 -.11-.04h-.1c-.3 0-.79.03-1.44.13-1.2.18-2.06.74-2.6 1.45a4.3 4.3 0 0 0 -.7 2.49v1.59c0-.19.1-.79.52-1.23a4.44 4.44 0 0 1 3.21-1.32h1.1c.05 0 .1-.02.12-.04a.14.14 0 0 0 .05-.1v-2.83a.14.14 0 0 0 -.05-.1z" fill="#d7000f"/><path d="m9.14 15c.8 0 1.86-.7 1.86-1.4v-6.05h-.36c-1.44 0-2.5.4-3.17 1.15-.56.63-.46 1.1-.46 1.84v4.46z" fill="#595757"/></svg>