<svg height="18" width="18" xmlns="http://www.w3.org/2000/svg" xmlns:xlink="http://www.w3.org/1999/xlink"><linearGradient id="a" gradientUnits="userSpaceOnUse" x1="9.05" x2="9.05" y1="4.27" y2="13.77"><stop offset="0" stop-color="#b3d9dd"/><stop offset=".44" stop-color="#129fa6"/><stop offset="1" stop-color="#08774c"/></linearGradient><linearGradient id="b" gradientUnits="userSpaceOnUse" x1="9" x2="8.19" y1="3.38" y2="13.77"><stop offset="0" stop-color="#2cadb2"/><stop offset="1" stop-color="#042c1c"/></linearGradient><path d="m0 0h18v18h-18z" fill="#f0f3fa"/><path d="m5.27 13.77v-9.5h3.63c.35 0 .5.46.53.7v2.7c1.91-.6 3.07-.06 3.4.27v5.83h-7.55z" fill="url(#a)"/><path d="m5 4h3.74c.32 0 .5.21.6.38.11.18.16.39.17.52v2.42c1.8-.45 3.03.05 3.43.45l.06.06v6.17h-8zm.5.45v9.1h7v-5.53c-.33-.27-1.45-.7-3.15-.17l-.35.1v-3c-.01-.1-.03-.25-.1-.35-.06-.12-.12-.15-.16-.15z" fill="url(#b)"/><path d="m10.23 4h-1.5c.39 0 .63.33.76.47l3.08 2.77c.26.2.4.5.43.63v-3.87z" fill="#006a8c"/><path d="m6.5 10h.5v3h-.5zm3.93 0h-.43v3h.5v-1.16h.58a.92.92 0 0 0 0-1.84zm.07 1.5v-1.16h.42a.58.58 0 0 1 0 1.16zm-2.68-1.5v.5h.68v2.5h.5v-2.5h.68v-.5z" fill="#f0f3fa"/></svg>