<svg height="18" viewBox="0 0 18 18" width="18" xmlns="http://www.w3.org/2000/svg" xmlns:xlink="http://www.w3.org/1999/xlink"><linearGradient id="a"><stop offset="0" stop-color="#182e0a"/><stop offset="1" stop-color="#266608"/></linearGradient><linearGradient id="b" gradientUnits="userSpaceOnUse" x1="11.36" x2="13.57" xlink:href="#a" y1="10.21" y2="8.94"/><linearGradient id="c" gradientUnits="userSpaceOnUse" x1="8.44" x2="6.22" xlink:href="#a" y1="6.38" y2="5.12"/><linearGradient id="d" gradientUnits="userSpaceOnUse" x1="6.65" x2="6.65" xlink:href="#a" y1="11.03" y2="13.47"/><linearGradient id="e"><stop offset=".66" stop-color="#3b9217"/><stop offset="1" stop-color="#aed39d"/></linearGradient><linearGradient id="f" gradientUnits="userSpaceOnUse" x1="6.15" x2="3.98" xlink:href="#e" y1="8.96" y2="10.66"/><linearGradient id="g" gradientUnits="userSpaceOnUse" x1="10" x2="12.56" xlink:href="#e" y1="11.59" y2="12.6"/><linearGradient id="h" gradientUnits="userSpaceOnUse" x1="10.3" x2="9.92" xlink:href="#e" y1="6.78" y2="4.12"/><path d="m0 0h18v18h-18z" fill="#f0f3fa"/><path d="m12.72 7.45 1.13 1.98c.15.74-.11 1.19-.17 1.26-.07.08-.5.38-.71.53l-1.1-.12-1.35-2.36z" fill="url(#b)"/><path d="m5.32 6.54.99-1.68c.27-.6 1.29-.77 1.38-.76.1.02.58.25.8.36l.46 1.03-1.35 2.36z" fill="url(#c)"/><path d="m8.2 13.47h-2.13a7.03 7.03 0 0 1 -1-.74c-.02-.09-.07-.6-.08-.84l.65-.86h2.56z" fill="url(#d)"/><circle cx="8.81" cy="9.19" fill="#5391da" r="3.06"/><path d="m6.53 7.15v.38c.12-.22.52-.65 1.17-.65s1.2.43 1.4.65l-.72.39 2.01.39-.38-1.3-.5-.43c-.06-.13-.32-.37-.85-.44-.85.04-1.6.42-2.13 1.01zm5.1.9-.17.03c.09.18.2.69-.07 1.25-.26.57-.87.53-1.14.44l-.07-.44c-.21.65-.93 1.31-1.27 1.56l1.27.98h.09a3.05 3.05 0 0 0 1.37-3.82zm-3.31 4.15.23-.34c-.24-.04-.79-.21-1.1-.6-.3-.37-.16-1.1-.05-1.4l.72.33c-.64-.48-.74-1.42-.72-1.83l-1.23.33-.41.56a3.06 3.06 0 0 0 2.56 2.95z" fill="#3273ab"/><path d="m5.08 12.82-1.47-2.56c-.12-.61.33-1.51.57-1.89l-1.18-.7h3.1l1.59 2.84-1.2-.79-.8 1.4c-.23.42-.33.74-.37 1.46-.03.58.82.84 1.25.9-1.03 0-1.42-.44-1.49-.66z" fill="url(#f)"/><path d="m13.84 10.6-1.45 2.57c-.47.41-1.46.47-1.9.44l-.02 1.39-1.55-2.72 1.64-2.81-.08 1.44h1.59c.49-.01.8-.08 1.44-.4.5-.27.28-1.07.12-1.47.55.68.37 1.39.21 1.56z" fill="url(#g)"/><path d="m7.53 4.01 2.93-.01c.59.2 1.13 1.01 1.33 1.4l1.2-.66-1.56 2.62-3.22-.03 1.27-.63-.8-1.34c-.25-.4-.46-.65-1.06-1.03-.48-.3-1.13.29-1.4.62.52-.87 1.09-.99 1.31-.94z" fill="url(#h)"/></svg>