<svg height="18" width="18" xmlns="http://www.w3.org/2000/svg"><path d="m0 0h18v18h-18z" fill="#f0f3fa"/><path d="m4.846 12.59 1.821 1.608 1-.807 1.794 1.609 1.873-1.633v-1.054l-1.873 1.634-1.794-1.613-1 .81-1.821-1.608v1.053zm3.693-6.376-1.872-1.607v1.055l1.872 1.607 1.796-1.611v-1.054l-1.795 1.61z" fill="#08090d"/><path d="m8.538 7.269-3.692 3.214-1.846-1.607v1.052l1.846 1.607 3.692-3.214 1.241 1.08.606-.525-1.847-1.606zm2.77 4.016-1.846-1.605v1.053l1.846 1.607 3.692-3.34v-1.007z" fill="#08090d"/><path d="m11.308 11.285 3.692-3.287-1.846-1.533-.923.804-1.897-1.61-1.796 1.61 1.847 1.607-.606.526-1.24-1.08-3.693 3.213 1.82 1.613 1.001-.8 1.795 1.599 1.872-1.605-1.872-1.61v-1.054zm-4.64-5.623 1.87 1.607-3.691 3.214-1.847-1.607zm1.87-2.662 1.796 1.61-1.796 1.604-1.871-1.606 1.872-1.608z" fill="#fcb034"/></svg>