<svg height="18" viewBox="0 0 18 18" width="18" xmlns="http://www.w3.org/2000/svg" xmlns:xlink="http://www.w3.org/1999/xlink"><linearGradient id="a" gradientUnits="userSpaceOnUse" x1="7.46" x2="12.56" y1="6.19" y2="6.19"><stop offset=".35" stop-color="#ee2e24"/><stop offset=".48" stop-color="#e72c24"/><stop offset=".67" stop-color="#d52823"/><stop offset=".89" stop-color="#b62122"/><stop offset="1" stop-color="#a41d21"/></linearGradient><linearGradient id="b" gradientUnits="userSpaceOnUse" x1="9.56" x2="5.43" y1="3.21" y2="7.39"><stop offset="0" stop-color="#a41d21"/><stop offset=".6" stop-color="#d42823"/><stop offset=".99" stop-color="#ee2e24"/></linearGradient><linearGradient id="c" gradientUnits="userSpaceOnUse" x1="8.18" x2="14" y1="10.1" y2="10.1"><stop offset="0" stop-color="#a41d21"/><stop offset=".45" stop-color="#cc2623"/><stop offset=".84" stop-color="#eb2d24"/><stop offset=".99" stop-color="#ee2e24"/></linearGradient><linearGradient id="d" gradientUnits="userSpaceOnUse" x1="4.39" x2="9.24" y1="11.79" y2="11.79"><stop offset="0" stop-color="#a41d21"/><stop offset=".43" stop-color="#d42823"/><stop offset=".71" stop-color="#ee2e24"/></linearGradient><path d="m0 0h18v18h-18z" fill="#f0f3fa"/><path d="m13 5.2-3-1.9a1.87 1.87 0 0 0 -1.65-.18c.98-.31 1.45.8 1.2 1.8-.17.72-.85 2.6-.85 2.6-.05.11.08.5.23.48h2.23c.5 0 .76.94.47 1.38l.26-.08 1.17-1.63c.4-.64.72-1.78-.05-2.47z" fill="url(#a)"/><path d="m9.26 4.52c.1-.13.22-.25.35-.35-.08-.72-.52-1.28-1.26-1.05-.12.04-.23.1-.34.17l-3.02 1.91c-.3.2-.55.47-.72.8-.18.33-.27.7-.27 1.1v3.81c0 .35.08.7.23 1 .14.32.36.58.62.79-.85-.73-.37-1.66.28-2.54.36-.48 3.42-4.72 4.13-5.64z" fill="url(#b)"/><path d="m13.06 5.26-.08-.06.08.08c.67.68.3 1.6-.07 2.22-.18.28-3.84 5.3-3.93 5.42-.33.48-.61.7-.84.73-.12.66.02 1.15.54 1.33.43.06.86-.04 1.23-.27l3.02-1.91c.3-.2.55-.47.72-.8.18-.33.27-.7.27-1.09v-3.82c0-.37-.08-.73-.25-1.05-.16-.33-.4-.6-.69-.78z" fill="url(#c)"/><path d="m9.23 10.34c.06-.35-.11-.34-.3-.34h-2.1c-.54-.02-.74-1.03-.49-1.5l-.66.86-.59.8c-.65.88-1.09 1.8-.24 2.54l2.31 1.47.85.54c.24.15.51.25.79.28a.76.76 0 0 1 -.44-.29.9.9 0 0 1 -.17-.52c-.01-.3.03-.6.11-.89.15-.56.76-2.06.93-2.95z" fill="url(#d)"/></svg>