<svg height="18" viewBox="0 0 18 18" width="18" xmlns="http://www.w3.org/2000/svg"><path d="m0 0h18v18h-18z" fill="#f0f3fa"/><path d="m9.79 4.77-.69-.67a.14.14 0 0 0 -.2 0l-1.38 1.36h-1.75c-.22.01-.31-.03-.31.26a166.31 166.31 0 0 1 -.01 1.86.11.11 0 0 0 -.05.03l-1.32 1.34a.13.13 0 0 0 0 .19l1.04 1.02c.02.5.14.98.37 1.43-.03.28-.04.56-.04.82 0 .13.07.19.2.2h1.3a3.4 3.4 0 0 0 1.17 1.39 5.05 5.05 0 0 1 -3-8.14 4.97 4.97 0 0 1 4.81-1.77c.02 0 .02.01.02.03z" fill="#064317"/><path d="m9.78 4.77c-.14.48-.39.92-.72 1.33a.2.2 0 0 0 -.09-.04l-1.44-.6 1.37-1.37a.15.15 0 0 1 .2 0z" fill="#0a6329"/><path d="m10.25 5.25-.2-.24a.03.03 0 0 0 -.04 0h-.05l.16-.85c0-.02.02-.03.04-.03l.1.03a.03.03 0 0 1 .03.03c.01.36 0 .71-.04 1.06zm-1.32 7.72c.02-.03.04-.04.06-.02.21.19.45.32.72.42.02 0 .03 0 .04-.02a19.6 19.6 0 0 1 .73-.74h1.93a.14.14 0 0 0 .14-.14l.01-1.93c0-.01 0-.02.02-.03l1.32-1.34c.08-.08.08-.17 0-.25l-1.34-1.38v.01-1.3c0-.15-.02-.4 0-.6.02-.27-.3-.18-.43-.18-.55 0-1.1.01-1.65-.02.02-.4.01-.8-.03-1.2 0-.02.01-.03.03-.03a5.05 5.05 0 0 1 2.5 7.88c-.41.55-1 1.1-1.62 1.32-.83.3-1.75.12-2.43-.45z" fill="#064317"/><path d="m10.25 5.25-.05.34c-.2.05-.38.13-.54.24l.3-.81.04-.02.04.01.2.24zm.23.2c.54.03 1.1.01 1.65.02.13 0 .45-.1.43.19-.02.2 0 .44 0 .6v1.3l-1.36-.57a.28.28 0 0 1 -.15-.15l-.52-1.25a.1.1 0 0 0 -.06-.05l.01-.1zm-2.95.01-.6 1.45-.03.03-1.43.6a166.31 166.31 0 0 0 -.01-1.82c0-.3.09-.25.3-.25z" fill="#0a6329"/><path d="m7.53 5.46 1.45.6a.2.2 0 0 1 -.08.06 65.84 65.84 0 0 0 -1.97.84c-.1.17-.17.36-.2.56-.34.18-.65.44-.95.78a4.4 4.4 0 0 1 -.3-.76l1.42-.6.03-.03zm2.94.08a.1.1 0 0 1 .06.05 1275.67 1275.67 0 0 1 .58 1.34l.09.06 1.36.56-.6 1.47-.86-2.06a.04.04 0 0 0 -.03-.03.68.68 0 0 1 -.2-.1 1.78 1.78 0 0 0 -.6-.18c.1-.35.17-.72.2-1.11zm-.27.06c-.07.3-.16.61-.29.9a1 1 0 0 0 -.5-.24l.25-.43c.16-.11.34-.2.53-.24z" fill="#179357"/><path d="m8.98 6.06a.2.2 0 0 1 .08.04 3.9 3.9 0 0 1 -1.5 1.05c-.26.1-.54.23-.83.37.03-.2.1-.4.2-.56a65.9 65.9 0 0 1 1.97-.84.2.2 0 0 0 .08-.06zm.43.2a1 1 0 0 1 .5.24 3.67 3.67 0 0 1 -1.2 1.5c-.93.68-1.75 1.24-2 2.53-.03 0-.06-.03-.09-.12a47.3 47.3 0 0 1 -.55-1.34c.42-.7.97-1 1.69-1.35.7-.34 1.25-.83 1.65-1.46zm2.54 2.76c.02.08.02.1 0 .04-.26.6-.51 1.2-.74 1.78-.03.07-.1.19-.1.29l-.02.02c0-.01-.02-.02-.04 0-.61.27-1.24.5-1.86.78-.09.04-.24.07-.31.03-.25-.12-.5-.23-.77-.32-.35-1.52.75-2.54 1.53-3.63.25-.36.46-.81.63-1.36.27.05.46.1.6.19.07.05.14.08.2.1a.04.04 0 0 1 .03.02z" fill="#19aa67"/><path d="m12.56 7.54 1.34 1.38c.08.08.08.17 0 .25l-1.32 1.34-.02.03v1.93a.14.14 0 0 1 -.15.14h-1.93l.6-1.46c.03-.01.04-.02.02-.02l1.43-.6h.01a.03.03 0 0 0 0-.04l-.58-1.43v-.04zm-7.09.04c.08.24.18.48.3.72-.41.5-.63 1.12-.65 1.86l-1.04-1.02a.13.13 0 0 1 -.03-.15l.03-.04 1.33-1.34a.11.11 0 0 1 .04-.03z" fill="#0a6329"/><path d="m6.07 9.07a47.28 47.28 0 0 0 .55 1.34c.03.09.06.13.1.12l-.07.5-1.03-.43a3.3 3.3 0 0 1 .45-1.53zm5.89-.01.59 1.43a.03.03 0 0 1 -.01.04h-.01l-1.43.6c.01-.1.08-.22.11-.29.23-.58.48-1.17.75-1.78z" fill="#179357"/><path d="m5.62 10.6 1.03.43c-.03.55.07 1.07.3 1.58h-1.3c-.13-.01-.2-.07-.2-.2 0-.26 0-.54.04-.82.11.2.21.35.3.47.12.16.14.15.06-.03-.19-.42-.26-.9-.23-1.43z" fill="#0a6329"/><path d="m11.08 11.15-.6 1.46a.08.08 0 0 1 -.04.01l-1.37-.59a.16.16 0 0 0 -.13 0l-.6.23c-.11-.22-.19-.43-.23-.62.26.1.52.2.77.32.07.04.22.01.31-.03.62-.27 1.25-.5 1.86-.79h.03z" fill="#179357"/><path d="m10.45 12.62-.03.06a19.57 19.57 0 0 0 -.71.69c-.27-.1-.5-.23-.72-.42-.01-.02-.04-.01-.06.02a2.47 2.47 0 0 1 -.58-.71l.6-.23a.16.16 0 0 1 .12 0z" fill="#0a6329"/></svg>