<svg height="18" viewBox="0 0 18 18" width="18" xmlns="http://www.w3.org/2000/svg"><path d="m0 0h18v18h-18z" fill="#f0f3fa"/><path d="m4.74 8.7a4.7 4.7 0 0 1 2.53 5.1.06.06 0 0 1 -.04 0 4.7 4.7 0 0 1 -1.74-.95 4.23 4.23 0 0 1 1.16-7.14 4.86 4.86 0 0 1 3.74-.08c.12.04.17 0 .27-.05a644.39 644.39 0 0 0 3.3-1.58c.03 0 .05.01.04.04l-1.2 3.66a.23.23 0 0 0 0 .18 4.16 4.16 0 0 1 -1.13 5.03 4.72 4.72 0 0 1 -3.33 1.08.03.03 0 0 1 0-.04c.4-.48.69-1.02.86-1.6a.09.09 0 0 1 .07-.07l1.64-.4a.5.5 0 0 0 .37-.34 334.74 334.74 0 0 0 .64-2h-.01l-2.5.74a.06.06 0 0 1 -.03 0l-.02-.02-.01-.02-.2-.74v-.02l.03-.01 2.51-.84c.4-.13.66-.4.8-.79a306.46 306.46 0 0 0 1.08-3.38l-8.83 4.22a.02.02 0 0 0 0 .03z" fill="#0161ad"/></svg>