<svg height="18" viewBox="0 0 18 18" width="18" xmlns="http://www.w3.org/2000/svg"><path d="m0 0h18v18h-18z" fill="#009"/><path d="m13.68 7.72c-.07.53-.51.75-1.28.75h-1.03l.34-1.47h1.05c.78 0 .99.29.92.72zm-.48-1.72h-2.77l-.83 3.83c-.29 1.32-1.16 1.67-2.22 1.67-.97 0-1.89-.49-1.65-1.67.05-.26.16-.61.2-.83h1.25l-.21.83c-.1.4.1.66.56.66.48 0 .72-.24.8-.66l.83-3.83h-2.91c-1.56 0-2.03.37-2.31 1.69l-.94 4.31h5.64c1.39 0 2.14-.77 2.34-1.69l.2-.89h1.37c1.39 0 2.23-.56 2.42-1.7.19-1.06-.61-1.72-1.77-1.72z" fill="#fff"/></svg>