<svg height="18" width="18" xmlns="http://www.w3.org/2000/svg"><path d="m0 0h18v18h-18z" fill="#c40f35"/><path d="m13.685 7.301c-.08.704-.517 1.024-1.283 1.024h-1.027l.322-1.992h1.05c.777 0 1 .388.938.968zm-.483-2.301h-2.774l-.829 5.103c-.283 1.764-1.163 2.23-2.224 2.23-.965 0-1.878-.647-1.64-2.23.051-.34.22-.813.265-1.103h1.248c-.022.152-.22.748-.282 1.103-.09.545.097.886.568.886.476 0 .715-.327.8-.886l.834-5.103h-2.917c-1.56 0-2.031.5-2.315 2.25l-.936 5.75h5.64c1.385 0 2.14-1.024 2.344-2.25l.187-1.184h1.379c1.39 0 2.23-.747 2.423-2.265.187-1.415-.613-2.301-1.77-2.301z" fill="#fff"/></svg>