<svg height="18" viewBox="0 0 18 18" width="18" xmlns="http://www.w3.org/2000/svg"><path d="m0 0h18v18h-18z" fill="#f0f3fa"/><path d="m3 5h12v1h-12zm0 7h12v1h-12z" fill="#0077bc"/><g fill="#1c1616"><path d="m6 7v3.06c0 .3-.16.54-.35.54h-1.3c-.2 0-.35-.24-.35-.54v-1.06h-1v1.03c0 .54.29.97.64.97h2.72c.35 0 .64-.43.64-.97v-2.56c0-.15.08-.27.18-.27h.4v-.2z"/><path d="m10.22 7h-1.82l-1.4 4h1l.35-1h1.3l.35 1h1l-1.25-3.33c-.06-.16.01-.45.13-.45h.34zm-.7 2.6-.52-1.48-.51 1.48h1.01z" fill-rule="evenodd"/><path d="m11 7h4v.2h-.46c-.09 0-.16.03-.16.15v.05h-2.38v1.6h2.38v.4h-2.38v1.2h3v.4h-4z"/></g></svg>