<svg height="18" viewBox="0 0 18 18" width="18" xmlns="http://www.w3.org/2000/svg"><path d="m0 0h18v18h-18z" fill="#ffec01"/><path d="m7 5h1.5v3.11c0 .45-.33.89-1 .89h-3c-.3 0-.5-.17-.5-.67v-1.33h1.5v.78c0 .09.06.22.28.22h.94c.1 0 .28-.01.28-.22zm3 0h3.5c.19 0 .5.14.5.55v1.22c0 .13-.07.28-.3.28.1 0 .3.04.3.35v1.16c0 .17-.06.44-.5.44h-3.5zm1.5 3h.7c.28 0 .3-.1.3-.33 0-.37-.02-.45-.3-.45h-.7zm0-1.23h.7c.3 0 .3-.08.3-.36 0-.27 0-.41-.3-.41h-.7zm2.5 3.23h-1v3h1zm-1.5 0h-2.5v3h1v-1h1v-.5h-1v-1h1.5zm-3 1.5h-.5v.5h.5zm-1-1.5h-1v3h1zm-3.5 0h-1v3h1v-1h1v1h.94v-3h-.94v1.5h-1z"/></svg>