<svg height="18" viewBox="0 0 18 18" width="18" xmlns="http://www.w3.org/2000/svg"><path d="m0 0h18v18h-18z" fill="#f0f3fa"/><path d="m14 6.5-5-2.5-5 2.5v3c1.18 1 3.5 2.17 4.82 2.17 1.38 0 2.38-1.08 2.38-1.92s-.57-1.57-1.36-1.57c-.44 0-.74.15-1 .28-.22.11-.41.2-.64.2-.5 0-.68-.4-.68-.65 0-.94 1.22-1.34 1.86-1.34a2.58 2.58 0 0 1 2.62 2.51c0 1.34-1.04 2.82-3.07 2.82-1.88 0-3.92-1.17-4.93-1.92v1.42l5 2.5 5-2.5v-3c-1.18-1-3.5-2.17-4.82-2.17-1.38 0-2.38 1.08-2.38 1.92s.57 1.57 1.36 1.57c.44 0 .74-.15 1-.28.22-.11.41-.2.64-.2.5 0 .68.4.68.65 0 .94-1.22 1.34-1.86 1.34a2.58 2.58 0 0 1 -2.62-2.51c0-1.34 1.04-2.82 3.07-2.82 1.88 0 3.92 1.17 4.93 1.92z" fill="#68318f"/></svg>