<svg height="18" viewBox="0 0 18 18" width="18" xmlns="http://www.w3.org/2000/svg" xmlns:xlink="http://www.w3.org/1999/xlink"><linearGradient id="a" gradientUnits="userSpaceOnUse" x1="12.18" x2="5.65" y1="6.35" y2="10.94"><stop offset="0" stop-color="#e50011"/><stop offset=".4" stop-color="#c30011"/><stop offset=".62" stop-color="#e50110"/><stop offset="1" stop-color="#d70012"/></linearGradient><linearGradient id="b" gradientUnits="userSpaceOnUse" x1="14.12" x2="3.35" y1="9" y2="8.82"><stop offset="0" stop-color="#dab765"/><stop offset="1" stop-color="#d5c2bf"/></linearGradient><path d="m0 0h18v18h-18z" fill="#f0f3fa"/><path d="m3 9 6-6 6 6-6 6z" fill="url(#a)"/><path d="m3 9 6-6 6 6-6 6zm6 5.5 5.5-5.5-5.5-5.5-5.5 5.5z" fill="url(#b)"/><path d="m8.82 5.47c-.14.14-.4.65-.53.88-.35.18-.17 1.06 0 1.24.18.17.18-.18.18-.35 0-.18.53 0 .53-.18s.18-.35 0-.7c-.18-.36.35-.18.53-.54.17-.35.35 0 .35.18s-.35.53-.35.7c0 .18.17.36 0 .54-.18.17-.18.52 0 .52.17 0 .17-.35.35-.52.18-.18.18.17.18.35 0 .17-.36.53-.7.53-.36 0-.54-.53-.71-.53-.18 0-.36.88-.53.88-.18 0-.18-1.76-.18-2.12 0-.35.35-1.06.53-1.23.18-.18.53.17.35.35z"/><path d="m10.23 6.88c-.28 0-.23-.35-.17-.53.04-.17.35 0 .35.18s.18.35-.18.35zm-.7 3.36c0 .28-.47.47-.7.52-.25.08-.54.18-.71 0-.18-.17.53-1.23.7-1.4.18-.18.7 0 .7.35s-.52 0-.52.35.53-.18.53.18zm-1.06 1.58c0 .14-.35.3-.53.36-.18 0 0-.36.18-.36.17 0 .35-.7.53-.7.17 0 .7.7.88.7.17 0 .35 0 .53-.17.17-.18-.18-.36-.36-.36-.17 0-.35.18-.52.18-.18 0 .35-.53.52-.53.18 0 .71.53.71.7 0 .18-.35.54-.88.54s-.7-.89-.88-.89-.18.36-.18.53z"/></svg>