<svg height="18" viewBox="0 0 18 18" width="18" xmlns="http://www.w3.org/2000/svg"><path d="m0 0h18v18h-18z" fill="#f0f3fa"/><path d="m6 6.78c0-.48-.42-.58-.8-.55-.02 0-.03-.01-.03-.03v-.17l.02-.02.01-.01h3.25c.03 0 .04.01.04.04v.15c0 .02-.01.03-.04.03-.54-.03-.81.24-.8.8v3.77c0 .5-.04.85-.1 1.05-.19.57-.62.93-1.3 1.09-.82.18-1.9.06-2.2-.82a.77.77 0 0 1 -.05-.42c.1-.42.6-.63.98-.42.24.13.47.61.27.83-.1.12-.22.18-.17.35.03.12.12.18.25.2.7.13.66-.34.66-.88v-5zm5.5 4.57c0 .24.23.36.46.37.75.04 1.41-.02 2-.51a2.55 2.55 0 0 0 .77-1.22h.23c.03 0 .04 0 .04.03l-.36 1.95c0 .02-.01.03-.04.03h-5.4c-.03 0-.04-.01-.04-.04v-.14c0-.01.01-.02.03-.02.42-.04.82-.13.82-.6v-4.2c0-.53-.29-.77-.82-.78-.02 0-.03-.01-.03-.03v-.18l.03-.01h3.24c.02 0 .03.01.03.03v.16a.03.03 0 0 1 0 .02.03.03 0 0 1 -.03.01c-.67-.02-.92.12-.92.78v4.35z" fill="#14a83b"/></svg>