<svg height="18" viewBox="0 0 18 18" width="18" xmlns="http://www.w3.org/2000/svg"><path d="m0 0h18v18h-18z" fill="#f0f3fa"/><path d="m12.62 7.5c0 .27-.26.5-.57.5h-.23c-.32 0-.58-.22-.58-.5v-3c0-.27.26-.5.58-.5h.23c.31 0 .57.22.57.5z" fill="#18a93c"/><path d="m6 8a2 2 0 1 0 0-4 2 2 0 0 0 0 4zm4.5-1.24c-.27 0-.5-.26-.5-.58v-.23c0-.31.22-.57.5-.57h3c.27 0 .5.26.5.57v.23c0 .32-.22.58-.5.58z" fill="#45b038"/><path d="m5.06 13.84a.53.53 0 0 1 -.76 0l-.15-.15a.54.54 0 0 1 0-.75l2.79-2.78a.53.53 0 0 1 .75 0l.15.15c.21.21.21.55 0 .75z" fill="#18a93c"/><path d="m7.84 12.94c.2.2.2.54 0 .75l-.15.15a.53.53 0 0 1 -.76 0l-2.77-2.78a.54.54 0 0 1 0-.75l.15-.15c.2-.21.54-.21.75 0zm5.16-2.64c0-.28-.18-.38-.39-.23l-2.45 1.66c-.21.15-.21.39 0 .54l2.45 1.66c.22.15.39.04.39-.23z" fill="#45b038"/></svg>