<svg height="18" viewBox="0 0 18 18" width="18" xmlns="http://www.w3.org/2000/svg"><path d="m0 0h18v18h-18z" fill="#f0f3fa"/><path d="m13.27 7.85.73-.51-1.4 3.85-.6.45 1.27-3.8z" fill="#231f20"/><path d="m9.61 4 4.39 3.34-.73.5-4.4-3.41.73-.43z" fill="#00a3e1"/><path d="m8.88 6.18-.02-1.75 4.4 3.42-1.26 3.8-2.36-1.95z" fill="#7f8184"/><path d="m8.2 4.83 4.43 3.5-.8.61-4.45-3.61z" fill="#009bdc"/><path d="m10.78 12.66c.03-.05.72-.5.72-.5l1.13-3.82-.78.62c-.01-.02-1.07 3.7-1.07 3.7z" fill="#323031"/><path d="m7.41 6.91-.03-1.58 4.46 3.61-1.06 3.72-2.98-3.6z" fill="#8f9092"/><path d="m10.26 10.22.9-.74-4.48-3.71-.9.46z" fill="#0095d8"/><path d="m10.15 13.25 1-3.77-.89.74-.7 3.49z" fill="#404041"/><path d="m5.84 8.52-.05-2.3 4.47 4-.7 3.49-1.72-1.31z" fill="#aaabac"/><path d="m8.52 11.5-.39 3.5.72-.62.66-3.64z" fill="#4d4d4f"/><path d="m8.52 11.5-4.52-4.3.55 4.08 3.58 3.72z" fill="#c2c3c5"/><path d="m9.51 10.74-4.5-4.12-1.01.58 4.52 4.29 1-.76z" fill="#008cd1"/></svg>