<svg height="18" width="18" xmlns="http://www.w3.org/2000/svg"><path d="m0 0h18v18h-18z" fill="#e30613"/><g fill="#fff"><path d="m9.664 5.747c-.036-.07-.046-.113-.085-.182-.164.304-.268.655-.377.984.872 2.315.433 5.846-1.733 7.409l-.034.025v.014c3.547-1.185 3.124-6.215 2.23-8.25z"/><path d="m10.276 4.512a4.727 4.727 0 0 0 -.357.438c1.695 2.509 1.374 7.09-.891 9.009l-.034.025v.014c3.798-1.127 3.727-7.46 1.282-9.486z"/><path d="m10.55 4v.014c2.68 2.039 2.63 7.971 0 9.97v.013c4.029-.103 3.837-9.983 0-9.997zm-4.296.43c-.452.34-.79.815-1.044 1.315a6.547 6.547 0 0 0 -.613 1.957 8.434 8.434 0 0 0 -.097 1.296c0 .434.032.867.097 1.296.1.682.307 1.343.613 1.96.255.5.594.975 1.046 1.315a2.1 2.1 0 0 0 1.182.431v-.014c-2.841-2.128-2.382-8.24 0-9.972v-.014a2.1 2.1 0 0 0 -1.184.43z"/><path d="m8.993 14v-.014c-2.841-2.128-2.436-8.31-.001-9.972v-.014c-3.974.138-3.91 9.894.001 10z"/><path d="m10.57 14v-.014c-2.842-2.128-2.212-8.255-.002-9.972v-.014c-3.73.014-3.91 9.894.001 10z"/><path d="m9.265 13.485c.128-.139.248-.285.358-.439a5.84 5.84 0 0 1 -.112-.16c-.04-.058-.074-.119-.111-.18-.12.186-.257.36-.408.522.085.09.176.176.273.256m.843.13c-.107.074-.22.14-.337.194.244.116.508.18.778.19v-.014a3.461 3.461 0 0 1 -.441-.37zm-1.262.373c.042-.005.084-.012.126-.02a3.127 3.127 0 0 1 -.42-.353c-.107.074-.22.14-.338.194a2.1 2.1 0 0 0 .506.16c.042.007.084.014.126.019zm.147.01v-.014l-.021-.015c-.04.007-.084.014-.126.019.049.005.098.009.147.01zm-.273-9.485a4.718 4.718 0 0 0 -.357.439c.038.053.076.106.112.16.04.059.074.129.111.19.12-.186.257-.385.408-.547-.085-.09-.177-.161-.273-.24m-.843-.131c.106-.074.219-.14.336-.194a1.988 1.988 0 0 0 -.778-.189v.014c.157.11.305.234.442.37zm1.892-.194a2.1 2.1 0 0 0 -.505-.16c-.043-.007-.083-.014-.125-.019a1.811 1.811 0 0 0 -.147-.01v.014l.02.015a3.638 3.638 0 0 1 .42.354c.107-.074.22-.14.338-.194z"/></g></svg>