<svg fill="none" height="18" viewBox="0 0 18 18" width="18" xmlns="http://www.w3.org/2000/svg"><path d="m0 0h18v18h-18z" fill="#f0f3fa"/><g fill="#114c7d"><path clip-rule="evenodd" d="m4.00133 12.2709c1.38598-.3599 2.50465-1.7276 2.49867-3.30609.00526-1.55488-1.13598-2.88859-2.5-3.24872.41879-.14496.96031-.27809 1.39985-.27166 1.58907 0 3.10015 1.55748 3.10015 3.55561 0 1.99816-1.55071 3.60206-3.10015 3.60206-.4405.0037-.99632-.1313-1.39852-.3312zm-.68155-6.27102c-.10676-.00334-.31978.00006-.31978.00006.64011-.6292 1.43899-.99572 2.25103-.99995 2.114-.01101 3.74893 1.81803 3.74897 4.00005.00004 2.05356-1.53412 3.99546-3.60015 3.99996-.86433-.0064-1.73932-.3818-2.39985-1.0001h.27978c1.51133 0 2.72022-1.324 2.72022-2.99996 0-1.67597-1.16889-3.00006-2.68022-3.00006zm8.70202.50011c-1.4461-.00405-2.51608 1.05707-2.5218 2.50312.01156 1.44149 1.0803 2.50239 2.5218 2.49689 1.4279-.0141 2.4782-1.0754 2.4782-2.50335 0-1.42798-1.0503-2.48257-2.4782-2.49666zm-.0268 5.50001c-1.6536-.0028-2.99314-1.3431-2.995-2.99664.00136-1.64231 1.3795-3.01196 3.0218-3.00333 1.6535.01205 2.9855 1.35979 2.9782 3.01335-.0074 1.65352-1.3515 2.98932-3.005 2.98662z" fill-rule="evenodd"/><circle cx="12" cy="8.99999" r=".505053"/></g></svg>