<svg height="18" width="18" xmlns="http://www.w3.org/2000/svg"><path d="m0 0h18v18h-18z" fill="#f0f3fa"/><ellipse cx="4.57" cy="11.03" fill="#001375" rx=".87" ry=".84"/><g fill="#5cb52e"><ellipse cx="12.13" cy="12.16" rx=".87" ry=".84"/><ellipse cx="9.8" cy="4.84" rx=".87" ry=".84"/><path d="m8.35 6.67c0 .39-.33.7-.73.7a.72.72 0 0 1 -.72-.7c0-.39.32-.7.72-.7s.73.31.73.7zm3.2 1.41c0 .39-.33.7-.73.7a.72.72 0 0 1 -.73-.7c0-.39.33-.7.73-.7s.73.31.73.7zm1.15 1.69c0 .38-.32.7-.72.7a.72.72 0 0 1 -.72-.7c0-.4.32-.7.72-.7s.73.3.73.7z"/><ellipse cx="9.51" cy="6.81" rx=".58" ry=".56"/></g><path d="m9.79 11.72c0 .31-.26.56-.58.56a.57.57 0 0 1 -.58-.56c0-.3.26-.56.58-.56s.58.25.58.56zm1.61-.76a.5.5 0 0 1 -.5.5.5.5 0 0 1 -.52-.5.51.51 0 0 1 1.02 0zm1.3-2.46c0 .23-.19.42-.43.42a.43.43 0 0 1 -.43-.42c0-.23.2-.42.43-.42.24 0 .44.19.44.42zm-.28-1.12c0 .15-.13.28-.3.28a.29.29 0 0 1 -.28-.29.29.29 0 0 1 .58.01zm-.58-.85c0 .16-.13.28-.3.28a.29.29 0 0 1 -.28-.28c0-.15.13-.28.29-.28s.29.13.29.28z" fill="#001375"/><ellipse cx="6.61" cy="8.5" fill="#5cb52e" rx=".58" ry=".56"/><path d="m7.77 11.88c0 .38-.33.7-.73.7a.72.72 0 0 1 -.72-.7c0-.4.32-.7.72-.7s.73.3.73.7z" fill="#001375"/><path d="m6.9 10.33c0 .23-.2.42-.44.42a.43.43 0 0 1 -.43-.42c0-.23.19-.42.43-.42s.44.19.44.42z" fill="#5cb52e"/></svg>