<svg height="18" width="18" xmlns="http://www.w3.org/2000/svg" xmlns:xlink="http://www.w3.org/1999/xlink"><linearGradient id="a" gradientUnits="userSpaceOnUse" x1="5.33" x2="9.68" y1="7.8" y2="13.87"><stop offset="0" stop-color="#942d3b"/><stop offset=".8" stop-color="#d11b38"/></linearGradient><linearGradient id="b" gradientUnits="userSpaceOnUse" x1="11.36" x2="7.56" y1="7.19" y2="9.66"><stop offset="0" stop-color="#0b6eba"/><stop offset="1" stop-color="#1cc2ff"/></linearGradient><path d="m0 0h18v18h-18z" fill="#f0f3fa"/><path d="m10.54 14-5.35-5.7a.73.73 0 0 1 -.2-.5v-3.02l9.01 9.22h-3.45z" fill="url(#a)"/><path d="m5.93 14c-.27 0-.53-.11-.73-.31a.72.72 0 0 1 -.2-.5v-3.22l3.97 4.03z" fill="url(#a)"/><g fill="url(#b)"><path d="m10.54 4-5.34 5.5a.73.73 0 0 0 -.2.51v3.28l9-9.29z"/><path d="m5.91 4c-.26 0-.5.1-.7.3a.77.77 0 0 0 -.21.54v2.8l3.6-3.64z"/></g></svg>