<svg fill="none" height="18" viewBox="0 0 18 18" width="18" xmlns="http://www.w3.org/2000/svg" xmlns:xlink="http://www.w3.org/1999/xlink"><linearGradient id="a"><stop offset="0" stop-color="#181b1e"/><stop offset="1" stop-color="#181b1e"/></linearGradient><linearGradient id="b" gradientUnits="userSpaceOnUse" x1="9.00015" x2="9.00015" xlink:href="#a" y1="7" y2="14.0001"/><linearGradient id="c" gradientUnits="userSpaceOnUse" x1="9.00006" x2="9.00006" xlink:href="#a" y1="5" y2="13.7953"/><path d="m0 0h18v18h-18z" fill="#f0f3fa"/><path clip-rule="evenodd" d="m9.00006 2c.55 0 1.00004.45 1.00004 1s-.45004 1-1.00004 1-1-.45-1-1 .45-1 1-1z" fill="#f47735" fill-rule="evenodd"/><path clip-rule="evenodd" d="m12.7502 13.7979s-.4253.3962-.6959.0793c-.2706-.317-1.8944-2.3772-3.05415-2.3772-1.15979 0-2.7835 2.0602-3.05412 2.3772-.27062.3169-.69588-.0793-.69588-.0793l.54124-1.2281 3.20876-5.5698 3.28605 5.5698z" fill="url(#b)" fill-rule="evenodd"/><g fill="url(#c)"><path d="m12.4376 10h1.5625c-.0014 1.3469-.4713 2.8486-1.249 3.7911l-1.1203-.945c.4751-.6837.7757-1.8888.8068-2.8461z"/><path d="m6.36473 12.8395c-.47247-.6827-.76847-1.8853-.79947-2.8395h-1.5652c.00136 1.3579.47404 2.8585 1.24914 3.7953z"/><path d="m14.0001 9c-.4369-2.48791-2.5699-4-5.00004-4-2.42657 0-4.53987 1.53805-5 4h1.5625c.32004-1.90751 1.78546-3 3.4375-3 1.68444 0 3.12394 1.09249 3.43754 3z"/></g></svg>