<svg height="18" viewBox="0 0 18 18" width="18" xmlns="http://www.w3.org/2000/svg"><path d="m0 9a9 9 0 1 1 18 0 9 9 0 1 1 -18 0z" fill="#f0f3fa"/><path d="m8.79 12.22.02.4c.03.73-.03.82-.25 1.1-.26.35-1.24.5-2.54-.38-1.29-.86-2.5-2.89-1.83-5.67a4.74 4.74 0 0 1 3.36-3.63c.72-.17 1.2.25.78.37-2.24.6-3.02 2.82-2.9 4.48.17 2.25 1.32 2.82 1.61 2.96l.03.02c.37.19.8.01.86-.28.05-.28.03-.6.01-.85v-.28c0-.27 0-1.13.44-1.13.36 0 .46.6.46 1.1 0 .24-.02.4-.04.57-.03.22-.06.45-.04.83zm.44 0-.03.4c-.02.73.03.82.25 1.1.26.35 1.24.5 2.54-.38 1.28-.86 2.5-2.89 1.82-5.67a4.73 4.73 0 0 0 -3.35-3.63c-.72-.17-1.2.25-.78.37 2.24.6 3.01 2.82 2.9 4.48-.17 2.25-1.33 2.82-1.61 2.96l-.03.02c-.37.19-.8.01-.86-.28-.05-.28-.03-.6-.01-.85l.01-.28c0-.27 0-1.13-.45-1.13-.36 0-.45.6-.45 1.1 0 .24.02.4.04.57a4.64 4.64 0 0 1 0 1.22z" fill="#02b5cc"/></svg>