<svg height="18" width="18" xmlns="http://www.w3.org/2000/svg"><path d="m0 0h18v18h-18z" fill="#f0f3fa"/><path d="m8.7 7.37c.91-1.14 1.95-1.86 2.7-1.79 1.14.1 1.23 1.95.2 4.11-1.02 2.16-2.76 3.84-3.9 3.74a.95.95 0 0 1 -.51-.22.88.88 0 0 1 -.3-.46c.16.72.57 1.18 1.23 1.24 1.51.15 3.77-1.92 5.04-4.63s1.07-5-.44-5.15c-1.22-.11-2.9 1.2-4.19 3.1" fill="#e3df1c"/><path d="m9.18 8.91c.2-.73-.24-1.26-.98-1.18-.4.07-.77.24-1.08.5-.3.26-.53.6-.64.96-.2.73.23 1.27.97 1.19.4-.07.78-.24 1.08-.5s.53-.6.65-.97zm-1.19-2.27c.14-.5-.17-.85-.67-.8-.27.05-.52.16-.73.34-.2.17-.36.4-.44.65-.14.5.16.85.67.8.27-.05.52-.17.72-.34.2-.18.36-.4.43-.65h.03zm.13-2.09c.08-.33-.12-.57-.45-.55-.19.03-.36.11-.5.23a.98.98 0 0 0 -.31.45.38.38 0 0 0 .05.4c.05.06.11.1.18.13.07.02.15.03.23.01a.95.95 0 0 0 .79-.67z" fill="#e85521"/><path d="m6.05 9.76c-.65.44-1.08.95-1.1 1.37-.03.71 1.1.92 2.52.47 1.42-.44 2.59-1.38 2.63-2.09a.55.55 0 0 0 -.1-.33.6.6 0 0 0 -.26-.22c.2.05.36.16.48.32.13.15.19.34.18.53-.04.95-1.5 2.17-3.27 2.73s-3.16.24-3.13-.7c.03-.71.86-1.58 2.01-2.2" fill="#5a575a"/></svg>