<svg height="18" viewBox="0 0 18 18" width="18" xmlns="http://www.w3.org/2000/svg"><path d="m0 0h18v18h-18z" fill="#f0f3fa"/><path d="m7 8c0 .13.04.26.15.37l.05.05.05.05 4.84 4.82c.15.16.3.21.42.21a.5.5 0 0 0 .34-.15c.1-.1.15-.22.15-.34 0-.15-.08-.3-.2-.42l-4.6-4.59 1.86-1.87 1.74-1.74a.55.55 0 0 0 .2-.39.5.5 0 0 0 -.13-.35.43.43 0 0 0 -.32-.15.6.6 0 0 0 -.45.21l-3.93 3.93c-.1.1-.17.23-.17.37zm6-1.98c0-.16-.07-.3-.14-.37-.23-.23-.53-.18-.74.03l-1.97 1.94a.5.5 0 0 0 -.15.37c0 .12.06.24.15.33.2.2.51.2.7 0l.76-.73 1.22-1.2a.55.55 0 0 0 .17-.37zm-7.5 6.48c.33 0 .5-.26.5-.55v-5.9c0-.42-.31-.55-.5-.55-.33 0-.5.25-.5.55v5.9c0 .3.17.55.5.55zm2.5 1.94c0 .3-.17.56-.5.56s-.5-.27-.5-.56v-2.92c0-.3.17-.52.5-.52.19 0 .27 0 .5.18l1.5 1.46c.12.11.2.26.2.4a.5.5 0 0 1 -.16.34.52.52 0 0 1 -.36.14.55.55 0 0 1 -.38-.16l-.8-.79z" fill="#ec008b"/></svg>