<svg height="18" width="18" xmlns="http://www.w3.org/2000/svg"><path d="m0 0h18v18h-18z" fill="#210d69"/><path d="m1.936 11.555.654-5.555h1.412l-.257 2.182 1.196-2.182h3.175s1.136.042 1.646.726c.25.337.409.556.494.857a14.315 14.315 0 0 0 -1.672.336c-.184-.269-.397-.34-.397-.34h-.588l-.083.665c-.507.175-1.007.378-1.5.61l.278-2.354-1.471 2.5.14.396a16.97 16.97 0 0 0 -1.292.805l-.12-.383-.06.508c-.532.375-1.05.785-1.555 1.229zm13.694-2.457-.467 2.902h-1.285l.155-1.32c-.131.196-.295.369-.497.583l-.011.01c-.578.61-1.576.727-1.576.727h-2.139l.179-1.52c-.147.288-.347.5-.615.783l-.01.01c-.578.61-1.576.727-1.576.727h-3.552l-.377-1.201c.427-.3.863-.578 1.306-.83l.54 1.53.229-1.941c.492-.246.993-.463 1.5-.65l-.188 1.513h.635s.375-.156.611-.474l.06-.079c.195-.258.286-.378.317-.868a1.95 1.95 0 0 0 -.024-.531c.945-.24 1.9-.378 2.857-.413l-.293 2.365h.634s.376-.156.612-.474c.02-.028.04-.054.06-.079.194-.258.285-.378.316-.868.03-.475-.04-.678-.194-.937.96.047 1.916.197 2.862.45zm.14-1.185.223-1.913h-1.41l-.181 1.532c-.088-.275-.242-.488-.478-.806-.51-.684-1.646-.726-1.646-.726h-1.764l-.185 1.573a14.044 14.044 0 0 1 5.44.34zm-12.374 3.222-.101.865h-.96c.348-.305.701-.594 1.062-.865z" fill="#fff"/></svg>