<svg height="18" viewBox="0 0 18 18" width="18" xmlns="http://www.w3.org/2000/svg"><path d="m0 0h18v18h-18z" fill="#f0f3fa"/><path d="m2 6v1.33l3.33 4.67h1.92l-2.27-3 2.27-3h-1.75l-2 2.5v-2.5zm1.5 4.5-1.5-2v3.5h1.5z" fill="#a16244"/><path d="m6.03 8.58a3.05 3.05 0 0 0 3.07 3.42c.98 0 1.84-.43 2.41-1.11v-2.39h-2.51v1.17h1.13v.66c-.3.21-.65.34-1.04.34a1.7 1.7 0 0 1 -1.71-1.67c0-.92.76-1.67 1.71-1.67.39 0 .74.12 1.03.33l.58-1.23a3.15 3.15 0 0 0 -2.5-.3l-2.18 2.45z" fill="#bd8d67"/><path d="m13 6h-1.55v2h.55v3.33c0 .27-.27.56-.5.67h4.5v-.5l-1-1h-2z" fill="#e3cdb9"/></svg>