<svg fill="none" height="18" viewBox="0 0 18 18" width="18" xmlns="http://www.w3.org/2000/svg"><path d="m0 0h18v18h-18z" fill="#f0f3fa"/><g clip-rule="evenodd" fill-rule="evenodd"><path d="m3 6h1v6h-1z" fill="#d00b14"/><path d="m9 6h1v6h-1z" fill="#d00b14"/><path d="m7 6h-1.20306l-1.79694 3h1.20306z" fill="#d00b14"/><path d="m7 12h-1.20306l-1.79694-3h1.20306z" fill="#d00b14"/><path d="m6 9h4v1h-3.37706z" fill="#d00b14"/><path d="m11 6h1.5066c1.3714 0 2.4934 1.30271 2.4934 2.8949v.2102c0 1.5922-1.122 2.8949-2.4934 2.8949h-1.5066v-1h1.3305c.9336 0 1.6695-.916 1.6695-1.99996 0-1.08393-.7359-2.00004-1.6695-2.00004h-1.3305z" fill="#d00b14"/><path d="m11.5951 8c.7469 0 1.4049.44773 1.4049 1 0 .55228-.6055 1-1.3524 1-.2346 0-.4553-.04422-.6476-.12192.1249.02992.2582.04617.3966.04617.7101 0 1.3208-.42568 1.3208-.95075s-.6632-.95075-1.3733-.95075c-.0133 0-.0266.00023-.0398.00051.0937-.01519.191-.02326.2908-.02326z" fill="#2b2b2a"/><path d="m11.0217 8.60004s.7876.31301 1.8853.20868l.093.19131s-1.4698 0-1.9783-.39999z" fill="#2b2b2a"/><path d="m11.3043 9.20001s.5206.16405 1.3485.11078l.0645.08851s-1.0074.02351-1.413-.19929z" fill="#2b2b2a"/><path d="m11.5547 8s.5255.87161-.2504 1.59999c0 0 .7428-.34561.5253-1.5379z" fill="#2b2b2a"/><path d="m11.8696 8.05682s.7573.68323.3949 1.54318c0 0 .4982-.81305-.2097-1.52929z" fill="#2b2b2a"/><path d="m11.3043 8.40803s.55.20818 1.3227-.00807l.0903.14458s-.9537.19114-1.413-.13651z" fill="#2b2b2a"/></g></svg>