<svg fill="none" height="18" width="18" xmlns="http://www.w3.org/2000/svg" xmlns:xlink="http://www.w3.org/1999/xlink"><linearGradient id="a" gradientUnits="userSpaceOnUse" x1="3.349" x2="21.904" y1="3.122" y2="24.434"><stop offset="0" stop-color="#1a1e21"/><stop offset="1" stop-color="#06060a"/></linearGradient><path d="m0 0h18v18h-18z" fill="url(#a)"/><path clip-rule="evenodd" d="m6 5h-1v7h1v-1.87l2.3 1.87.599-.785-1.82-1.48 1.59-1.603-.664-.703-2.005 2.021zm.012 4.867-.012.016v-.029zm4.989 4.133h-1v-4.953a1.864 1.864 0 0 1 0-.094v-1.95h.665v.506a2 2 0 1 1 .334 3.224v3.267zm1.002-5.997a1 1 0 1 0 0 2 1 1 0 0 0 0-2z" fill="#fff" fill-rule="evenodd"/></svg>