<svg height="18" width="18" xmlns="http://www.w3.org/2000/svg"><path d="m0 0h18v18h-18z" fill="#f08300"/><path d="m9 3.5 5 2.56v5.81l-5 2.63-5-2.63v-5.8zm0 9.16 3.47-1.77v-3.81l-3.47-1.78-3.47 1.8v3.78zm1.96-2.25c0 .3.38.59.53.03 0 0 .1.97-.5.97-.39 0-.56-.56-.42-1.41h-.85v.63h.25v-.33l.14-.11.14.1v.71l-.39.33s-.31-.33-.88-.33c-.56 0-.88.33-.88.33l-.32-.33v-.7l.15-.11.14.1v.38h.24v-.67h-.91c.14.81-.04 1.44-.43 1.44-.56 0-.45-.96-.45-.96.14.56.52.26.52-.04 0-.44-.14-.57-.14-.57l.29-.34h1.11v-.42h-.88l-.42-1 .21-.37h.56v-.6h-.77l-.14-.37h.91v-.19l.29-.15.24.15v.19h1.41v-.19l.25-.15.25.15v.19h.91l-.14.38h-.77v.6h.56l.21.36-.42 1h-.85v.43h1.1l.28.29s-.14.17-.14.58zm-2.66-1.91v-.4h-.88l.26.62h.62v-.21zm0-.77h1.41v-.6h-1.4v.6zm1.41.82v.17h.6l.22-.54h-.82z" fill="#fff"/></svg>