<svg height="18" viewBox="0 0 18 18" width="18" xmlns="http://www.w3.org/2000/svg" xmlns:xlink="http://www.w3.org/1999/xlink"><linearGradient id="a" gradientUnits="userSpaceOnUse" x1="8.72" x2="8.25" y1="9.97" y2="8.31"><stop offset="0" stop-color="#d6002d"/><stop offset=".5" stop-color="#e57b6a"/><stop offset="1" stop-color="#d6002d"/></linearGradient><linearGradient id="b" gradientUnits="userSpaceOnUse" x1="8.74" x2="8.15" y1="10.04" y2="7.95"><stop offset="0" stop-color="#ea650d"/><stop offset=".5" stop-color="#ffd300"/><stop offset="1" stop-color="#ea650d"/></linearGradient><linearGradient id="c" gradientUnits="userSpaceOnUse" x1="8.52" x2="7.87" y1="10.41" y2="8.09"><stop offset="0" stop-color="#e6472a"/><stop offset=".5" stop-color="#ee825d"/><stop offset="1" stop-color="#e6472a"/></linearGradient><linearGradient id="d" gradientUnits="userSpaceOnUse" x1="9.49" x2="7.98" y1="7.81" y2="6.6"><stop offset="0" stop-color="#fff" stop-opacity="0"/><stop offset=".28" stop-color="#717274" stop-opacity=".5"/><stop offset=".44" stop-color="#363638" stop-opacity=".77"/><stop offset=".57"/></linearGradient><linearGradient id="e" gradientUnits="userSpaceOnUse" x1="8.97" x2="10.86" y1="7.78" y2="5.37"><stop offset="0" stop-color="#3bbbe9"/><stop offset=".23" stop-color="#8ed1f0"/><stop offset=".5" stop-color="#d0eaf8"/><stop offset=".69" stop-color="#92d2f0"/><stop offset=".92" stop-color="#4abeea"/><stop offset="1" stop-color="#3bbbe9"/></linearGradient><linearGradient id="f" gradientUnits="userSpaceOnUse" x1="8.01" x2="12.53" y1="9.7" y2="3.96"><stop offset="0" stop-color="#004a99"/><stop offset=".06" stop-color="#004e9b"/><stop offset=".14" stop-color="#1c58a1"/><stop offset=".24" stop-color="#4b6cad"/><stop offset=".35" stop-color="#798bc0"/><stop offset=".48" stop-color="#afb7d9"/><stop offset=".5" stop-color="#bac0df"/><stop offset=".85" stop-color="#4066aa"/><stop offset="1" stop-color="#004a99"/></linearGradient><linearGradient id="g" gradientUnits="userSpaceOnUse" x1="9.15" x2="11.04" y1="7.9" y2="5.49"><stop offset="0" stop-color="#0096d2"/><stop offset=".13" stop-color="#3aa6da"/><stop offset=".42" stop-color="#b5d5ee"/><stop offset=".5" stop-color="#d0e4f4"/><stop offset="1" stop-color="#0096d2"/></linearGradient><linearGradient id="h" gradientUnits="userSpaceOnUse" x1="11.15" x2="10.45" y1="5.62" y2="6.28"><stop offset="0" stop-color="#060607"/><stop offset=".23" stop-color="#414143"/><stop offset=".6" stop-color="#272729"/><stop offset="1"/></linearGradient><path d="m0 0h18v18h-18z" fill="#f0f3fa"/><path d="m9.95 6.95c.77.36 1.44 1.1 1.4 2.35-.06 2.3-3.94 4.39-3.94 4.39s2.01-1.85 2.01-4.16c0-1.14-.43-1.76-1.23-2.05-.8-.26-1.62-.33-3.19.02 0 0 3.11-1.4 4.95-.55z" fill="url(#a)"/><path d="m7.41 13.69s4.05-2.77 3.15-5.38c-.88-2.54-5.56-.8-5.56-.8s3.11-1.4 4.95-.56c.77.36 1.44 1.1 1.4 2.35-.06 2.3-3.94 4.39-3.94 4.39z" fill="url(#b)"/><path d="m7.41 13.69s4.05-2.77 3.15-5.38c-.88-2.54-5.56-.8-5.56-.8s4.08-1.27 4.9.9c.96 2.6-2.49 5.28-2.49 5.28z" fill="url(#c)"/><path d="m9.95 6.95c.77.36-.72 1.28-1.1.92a1.9 1.9 0 0 0 -.66-.4l-.6-.15c-.65-.11-1.26-.41.18-.6.6-.06 1.2-.07 1.75.08.15.04.3.09.43.15z" fill="url(#d)" opacity=".56"/><path d="m5.68 16a52 52 0 0 1 .41-8c.47-2.7 1.87-4.03 4.12-4 2.17.03 4.79 1.16 4.79 1.16s-1.14-.29-2.41-.36c-3.43-.19-3.97.96-4.72 3.32-.2.65-2.08 7.56-2.19 7.88z" fill="url(#e)"/><path d="m5.68 16c.93-5.58 1.25-9.15 2.81-10.71 1.81-1.8 6.51-.13 6.51-.13s-1.14-.29-2.41-.36c-3.43-.19-3.97.96-4.72 3.32-.2.65-2.08 7.56-2.19 7.88z" fill="url(#f)"/><path d="m5.68 16c.93-5.58 1.25-9.15 2.81-10.71 1.81-1.8 6.51-.13 6.51-.13s-5.54-2.21-7.37.27c-1.81 2.45-1.95 10.57-1.95 10.57z" fill="url(#g)"/><path d="m10.42 5.42a.57.57 0 0 0 0 .83c.26.25.63.25.87.02a.59.59 0 0 0 0-.87c-.24-.23-.61-.23-.87.02z" fill="url(#h)"/></svg>