<svg height="18" viewBox="0 0 18 18" width="18" xmlns="http://www.w3.org/2000/svg"><path d="m0 0h18v18h-18z" fill="#f0f3fa"/><g fill="#010066"><path d="m9.89 8.6h-.45c-.1-.2-.29-.2-.53-.2s-.47.06-.47.2c0 .17.33.22.64.26.73.1.92.27.92.54 0 .26-.26.6-1 .6-.82 0-1-.39-1-.6h.49c0 .14.15.2.52.2.36 0 .55-.02.55-.16s-.23-.2-.65-.27c-.41-.08-.91-.17-.91-.55 0-.42.43-.62.97-.62.72 0 .9.4.92.6z"/><path d="m14 6h-10v6h10zm-.5.55h-9v4.9h9z" fill-rule="evenodd"/><path d="m5 8h.44v.85l1-.85h.56l-.93.83.93 1.17h-.56l-.69-.9-.3.28v.62h-.45zm6 2v-2h.5l1.06 1.4v-1.4h.44v2h-.5l-1.06-1.4v1.4z"/></g></svg>