<svg height="18" viewBox="0 0 18 18" width="18" xmlns="http://www.w3.org/2000/svg"><path d="m0 0h18v18h-18z" fill="#f0f3fa"/><path d="m11.98 7h2.02a5.38 5.38 0 0 0 -5-3 5.38 5.38 0 0 0 -5 3h2.13a4.4 4.4 0 0 1 2.92-2.24 4.4 4.4 0 0 1 2.93 2.24z" fill="#662777"/><path d="m5.2 5.38a5.74 5.74 0 0 1 3.85-.62c.37.08.7.2 1.01.35.16-.1.6-.31 1.36-.31.26 0 .53.05.78.12-.9-.58-2-.92-3.2-.92-1.49 0-2.83.53-3.8 1.38z" fill="#b294b9"/><path d="m11.98 11h2.02a5.38 5.38 0 0 1 -5 3 5.38 5.38 0 0 1 -5-3h2.13a4.4 4.4 0 0 0 2.92 2.24 4.4 4.4 0 0 0 2.93-2.24z" fill="#662777"/><path d="m5.2 12.62a5.74 5.74 0 0 0 3.85.62c.37-.08.7-.2 1.01-.35.16.1.6.31 1.36.31.26 0 .53-.05.78-.12-.9.58-2 .92-3.2.92a5.75 5.75 0 0 1 -3.8-1.38z" fill="#b294b9"/><path d="m2 8h14v2h-14z" fill="#662777"/><path d="m5 8h2v2h-2z" fill="#b294b9"/></svg>