<svg height="18" width="18" xmlns="http://www.w3.org/2000/svg"><path d="m0 0h18v18h-18z" fill="#f0f3fa"/><path d="m4.93 13.715c-.209-2.871-.778-5.573-1.873-8.256l-.057-.14.135-.039c.568-.164 1.011-.28 1.55-.28.445 0 .947.081 1.578.256.244.067.462.136.673.203.53.167 1.04.29 1.577.29.241 0 .437-.006.704-.064.306-.067.59-.099.867-.099.497 0 .953.05 1.348.164.482.14.705.362.965.539.184.125.375.255.67.383.44.192 1.366.578 1.932.578h.325l-.188.226c-.26.309-.736.452-.972.578l-.093.05c-.15.083-.281.149-.409.212a5.784 5.784 0 0 0 -.54.294c.206.12.52.255.92.351l.217.054c.35.09.74.128 1.22.128.078 0 .157-.002.235-.007l.258-.012-.157.22c-.451.665-1.696 1.589-2.836 1.81-.292.056-.546.062-.791.068-.489.012-.95.024-1.638.443-1.02.622-1.416.834-2.361.834-.145 0-.29.004-.437 0h-.07c-.925 0-1.651.279-2.552 1.297l-.184.204-.017-.285z" fill="#006b30"/><path d="m9.28 11.374 3.45-2.822-4.537-2.427-3.571 2.852z" fill="#f0f3fa"/><path d="m6.022 8h4.987v1h-4.987z" fill="#004c89"/></svg>