<svg height="18" viewBox="0 0 18 18" width="18" xmlns="http://www.w3.org/2000/svg"><path d="m0 0h18v18h-18z" fill="#f0f3fa"/><path d="m4.78 6.54h1.3v4.92h-1.3z"/><path d="m13.67 6.54h-4.67v.92h1.67v4h1.33v-4h1.67z" fill="#cb0000"/><path d="m7.17 8.81c0-.9.63-1.68 1.83-2.27h-1.77a2.9 2.9 0 0 0 -1.25 2.39c0 1.43 1.77 2.53 1.77 2.53h1.95c-1.6-.8-2.53-1.76-2.53-2.65zm1.83 2.96-.26.19c-.62.43-1.36.65-2.13.65a3.67 3.67 0 0 1 -3.71-3.61c0-2 1.66-3.61 3.71-3.61.77 0 1.5.22 2.13.65l.26.2v-.5a4.15 4.15 0 0 0 -2.39-.74 4.06 4.06 0 0 0 -4.11 4c0 2.2 1.85 4 4.11 4 .87 0 1.69-.26 2.39-.75z"/><path d="m9 11.77.26.19c.62.43 1.36.65 2.13.65a3.67 3.67 0 0 0 3.71-3.61c0-2-1.67-3.61-3.71-3.61-.77 0-1.5.22-2.13.65l-.26.2v-.5c.7-.48 1.52-.74 2.39-.74 2.26 0 4.11 1.8 4.11 4s-1.85 4-4.11 4c-.87 0-1.69-.26-2.39-.75z" fill="#cb0000"/></svg>