<svg height="18" viewBox="0 0 18 18" width="18" xmlns="http://www.w3.org/2000/svg"><path d="m0 0h18v18h-18z" fill="#f0f3fa"/><path d="m6.23 6.1s-.44-.17-.44-.62c0 0-.03-.48.44-.48h3.22s.49 0 .49.49c0 0 .02.31-.3.5 0 0-.13.1-.16.22l-.3 1.36 1.44-1.47s-.32-.23-.32-.56c0 0-.01-.54.42-.54h3.14s.44.04.44.47c0 0 .04.44-.47.6 0 0-.14 0-.25.13l-2.73 2.9 1.15 2.82s.46.3.46.6c0 0 .06.47-.46.47h-2.6s-.4-.03-.4-.48c0 0-.08-.42.45-.6l-.78-1.96-.75 2s.42.08.42.57c0 0 .05.47-.6.47h-3.04s-.39.01-.39-.48c0 0-.04-.32.38-.52l1.55-5.9z" fill="#ee252b"/></svg>