<svg height="18" viewBox="0 0 18 18" width="18" xmlns="http://www.w3.org/2000/svg"><path d="m0 0h18v18h-18z" fill="#f0f3fa"/><path d="m8.23 13h-3.23v-2h2.78c.53 0 .95.48.95 1.08v1.92c0-.42-.33-1-.5-1zm0-3h-3.23v-2h2.78c.53 0 .95.48.95 1.08v1.45c0-.42-.33-.53-.5-.53zm0-3h-3.23v-2h2.78c.53 0 .95.48.95 1.08v1.53c0-.42-.33-.6-.5-.61zm1.54 6h3.23v-2h-2.78c-.53 0-.95.48-.95 1.08v1.92c0-.42.33-1 .5-1z" fill="#0d038e"/><path d="m9.77 7h1.23v1h-.78c-.53 0-.95.41-.95 1.02v1.47c0-.43.33-.49.5-.49h2.6c.35 0 .63-.38.63-.79v-4.21h-2.78c-.53 0-.95.5-.95 1.1v1.47c0-.43.33-.57.5-.57z" fill="#ff811a"/></svg>