<svg height="18" viewBox="0 0 18 18" width="18" xmlns="http://www.w3.org/2000/svg"><path d="m0 0h18v18h-18z" fill="#f0f3fa"/><path d="m11.56 5.01c-.49.1-1.05.55-2 1.6-1 1.12-1.04 1.77-.22 2.94a20.5 20.5 0 0 0 1.17 1.5c.58.66 1.1 1.2 1.5 1.54.67.57 1.36.53 2.09-.11.2-.19.82-.81 1.17-1.2.78-.86.92-1.56.48-2.36a8.7 8.7 0 0 0 -.7-1 14.84 14.84 0 0 0 -2.65-2.75c-.24-.13-.62-.2-.84-.16zm-6.62.2c-.99.05-1.51.4-1.73 1.16-.28.98-.28 4.6 0 5.44.19.52.53.95 1.07 1.1.42.12 2.13.12 2.67 0 .64-.14 1.04-.65 1.18-1.3.19-.9.19-3.99 0-5-.16-.81-.56-1.23-1.33-1.35-.32-.06-1.19-.08-1.86-.05z" fill="#4f86c6"/></svg>