<svg height="18" width="18" xmlns="http://www.w3.org/2000/svg"><path d="m0 0h18v18h-18z" fill="#293c6b"/><circle cx="9" cy="9" fill="#006b99" r="5"/><path d="m11.58 13.28c-.195-.259-.567-.875-.508-1.323-.09-.13-.259-.439-.22-.634.04-.194.163-.194.22-.17v-.828a2.147 2.147 0 0 0 -.22-.243c-.136-.137-.057-.398 0-.512a2.837 2.837 0 0 1 -.586-.243c-.228.073-.747.175-1.002 0-.317-.22-.512-.78-.464-1.023.05-.244.098-1.12.709-1.51.13-.227.386-.726.366-.901h.391c-.13-.13-.39-.4-.39-.438v-.317c.08-.057.273-.136.39 0l.318-.292c0-.137.472-.187.708-.195-.098.138-.235.453 0 .609.234.156.393-.244.441-.447.594.367 1.98 1.506 2.234 3.611.033.236-.13.951-.403 1.146-.342.244-.611.925-.513 1.753h-.22c-.082.171-.237.66-.237 1.147a4.63 4.63 0 0 1 -1.013.81zm-4.864-8.345c-.144.092-.463.018-.6-.02-1.28.87-1.825 2.218-1.969 2.883.1.081.307.203.268.007-.04-.195.233-.581.375-.75.163-.06.47-.143.392 0-.098.18.163.506.277.506s.147-.49.294-.506.865-.717.963-.734c.098-.016.898-.26.898-.456s-.15-.376 0-.506c.13-.113.26-.016.44 0s.523-.114.718-.163c.196-.049.49-.587.425-.587s-1.714-.016-1.86 0c-.148.016-.442.212-.621.326zm.268 4.969c-.385-.459-1.418-.624-1.886-.65-.207.383-.173 1.192-.13 1.55.376.241 1.125.817 1.11 1.185-.015.367.068.917.11 1.147 0 0 .377.27.902.487 0 0 .368-.942.412-1.156.044-.215.154-.625.204-.803a6.12 6.12 0 0 0 .294-.765c.13-.421-.166-.746-.295-.746h-.722v-.249z" fill="#fff"/></svg>