<svg height="18" width="18" xmlns="http://www.w3.org/2000/svg"><path d="m0 0h18v18h-18z" fill="#1d3c6d"/><path d="m5.83 6h1.18s-1.33 1.998-1.96 2.99c.561.993 1.948 3.008 1.948 3.008l-1.333.002-1.665-2.661v2.661l-1-.002v-5.998h1v2.841z" fill="#fff"/><path d="m13.39 10.835.714-2.9c.464-1.676.73-1.764.896-1.935h-1.095c-.399 0-.698.602-.764.978l-.262 1.022h-.995s.394-1.501.46-1.74c.034-.103.034-.26-.166-.26-.033 0-2.124-.048-2.788.191-.299.103-.73.376-.863.787-.1.24-.233.684.066 1.505.033.103.1.171.133.206.1.068.963-.069.93-.069.066 0 .1-.034.033-.17-.067-.172-.266-.48-.3-.788-.132-1.197.698-1.368.83-1.403.2-.034.366-.034.565 0 .066 0 .232.035.266.103.066.137-.034.376-.1.65-.066.206-.63 2.327-.797 2.908-.1.445-.53 1.403-.962 1.54a.66.66 0 0 1 -.366 0 1.21 1.21 0 0 1 -.365-.171c-.265-.274-.431-.821-.464-1.232-.034-.513.066-.89-.034-.89-.173 0-.751.236-.986.41h-.001a.488.488 0 0 0 -.112.098c-.062.108-.057.49-.03.724.1.514.366 1.095.764 1.369 1.063.752 2.922-.616 3.12-.753.3-.274.499-.65.565-.924.1-.342.327-1.091.327-1.091h.995s-.476 1.835-.576 2.211c-.1.308-.166.822.1.787.996 0 1.394-.376 1.427-.41s.033-.103 0-.137a.516.516 0 0 1 -.166-.616z" fill="#ff5655"/></svg>