<svg fill="none" height="18" width="18" xmlns="http://www.w3.org/2000/svg"><path d="m0 0h18v18h-18z" fill="#f0f3fa"/><path clip-rule="evenodd" d="m2.862 11.17c.066.303.257.453.577.453h11.093c.318 0 .507-.15.575-.454.337-1.505.744-3.312.888-3.951.028-.12-.066-.231-.183-.217l-6.824.809-6.8-.81c-.117-.014-.21.096-.183.215l.185.858c.183.845.44 2.041.672 3.095zm11.86-.226c-.044.182-.137.236-.34.234l-10.788.002c-.203.002-.298-.054-.342-.236-.412-1.726-.812-3.504-.812-3.504l6.553.727 6.57-.727s-.43 1.778-.842 3.504z" fill="#363" fill-rule="evenodd"/><path d="m13 11.6c0 .221-.167.4-.375.4h-7.25c-.206 0-.375-.179-.375-.4v-.2c0-.221.167-.4.375-.4h7.25c.206 0 .375.179.375.4z" fill="#363"/><path d="m4.297 8.5-.993 1.5h5.203l.641-1.5zm5.66 0-.65 1.5h4.704l.641-1.5z" fill="#bf001f" fill-opacity=".8"/></svg>