<svg fill="none" height="18" viewBox="0 0 18 18" width="18" xmlns="http://www.w3.org/2000/svg"><path d="m0 0h18v18h-18z" fill="#00ac49"/><path clip-rule="evenodd" d="m9.12819 4c1.01501 0 1.97581.31587 2.78551.82109l-4.32396 4.17891 4.41026 4.1471c-.8314.537-1.8137.8529-2.87181.8529-.50722 0-1.62819 0-2.12819-.5v-9c.5-.5 1.62078-.5 2.12819-.5zm-3.62819 1.5v7c-.8637-.9051-1.49998-2.163-1.49998-3.50018-.00187-1.27316.61013-2.56803 1.49998-3.49982zm7.9864 5.5-2.9864-2.99801 2.47-2.50004c.929.95538 1.03 1.77568 1.03 3.22003 0 .82259-.1968 1.58922-.5136 2.27802z" fill="#f0f3fa" fill-rule="evenodd"/></svg>