<svg height="18" viewBox="0 0 18 18" width="18" xmlns="http://www.w3.org/2000/svg"><path d="m0 0h18v18h-18z" fill="#f0f3fa"/><path d="m4 8.21v3.14c.05.88.61 2.63 2.48 2.63a2.7 2.7 0 0 0 2.52-2.76c-.04-.87-.54-2.22-2.52-2.22-.16 0-.35.02-.48.08v1.93c.09-.12.32-.35.63-.35.4 0 .8.38.8.84s-.43.83-.84.83c-.42 0-1.01-.2-1.01-.83v-3.29l-.7-.87zm3.74 5.79h2.26v-1.67h-.8a2.6 2.6 0 0 1 -1.45 1.67z" fill="#00559b"/><path d="m4 6.15v1.4l.89-.83.69.83v-1.08c0-.4.41-.8.8-.8h5.24c.39 0 .8.4.8.8v5.03c0 .4-.41.83-.8.83h-1.04v1.67h1.39c1.12 0 2.03-.96 2.03-2.15v-5.7c-0-1.19-.9-2.15-2.03-2.15h-5.94c-1.12 0-2.03.96-2.03 2.15z" fill="#b2b2b2"/></svg>