<svg height="18" viewBox="0 0 18 18" width="18" xmlns="http://www.w3.org/2000/svg"><path d="m0 0h18v18h-18z" fill="#f0f3fa"/><g fill="#1651b9"><path d="m13.6 11h-.4a4.66 4.66 0 0 1 -1.1 1.46 7.4 7.4 0 0 0 -1-.24c.23-.38.43-.79.6-1.22h-.4a6.38 6.38 0 0 1 -.6 1.16l-.87-.1c.06-.35.11-.7.15-1.06h-.36c-.03.35-.09.7-.15 1.05a12.98 12.98 0 0 0 -.9 0c-.08-.35-.13-.7-.17-1.05h-.36c.04.35.1.7.17 1.06-.32.02-.63.05-.92.1a6.06 6.06 0 0 1 -.59-1.16h-.38c.16.44.37.85.6 1.23-.31.08-.6.17-.85.3a4.48 4.48 0 0 1 -1.26-1.53h-.4a5.04 5.04 0 0 0 9.2 0zm-4.6-7c2.05 0 3.82 1.2 4.6 3h-.4a4.66 4.66 0 0 0 -1.36-1.67c-.32.1-.7.18-1.13.24.34.42.64.9.86 1.43h-.4c-.23-.5-.53-.97-.87-1.37l-.72.07c.1.4.18.83.26 1.3h-.37c-.07-.46-.16-.9-.25-1.29a13.3 13.3 0 0 1 -.48.01 17 17 0 0 0 -.24 1.28h-.36c.06-.46.15-.89.23-1.28l-.7-.05c-.33.39-.62.84-.85 1.33h-.4c.23-.5.5-.97.83-1.38a5.27 5.27 0 0 1 -1.11-.28c-.56.44-1.02 1.01-1.34 1.66h-.4a5 5 0 0 1 4.6-3zm.18 8.4h.21c-.09.41-.2.82-.36 1.22-.15-.4-.28-.81-.38-1.22zm.58.02c-.09.38-.2.75-.32 1.12.35-.26.7-.62 1.04-1.05zm.23-7.12-.5.04-.17-.59c.23.16.46.34.67.55zm-1.16.06.14-.53.16.53a12.96 12.96 0 0 1 -.3 0zm-.23-.56-.15.56-.49-.02c.2-.2.42-.39.64-.54zm-.33 7.61c.1.4.22.8.36 1.19a4.98 4.98 0 0 1 -1.12-1.12zm3.18-7.35c-.3.08-.65.14-1.02.2a5.11 5.11 0 0 0 -1.05-.89c.76.07 1.46.31 2.07.7zm-.58 7.48c-.27.38-.57.72-.87 1a4.62 4.62 0 0 0 1.76-.81 8.18 8.18 0 0 0 -.9-.19zm-2.27-8.17c-.38.24-.75.55-1.09.93a5.9 5.9 0 0 1 -1.02-.21c.61-.4 1.33-.65 2.1-.72zm-1.48 8.18a4 4 0 0 0 -.8.25c.49.34 1.05.6 1.66.73-.3-.27-.6-.6-.86-.98z" fill-rule="evenodd"/><path d="m14.33 7.36h-10.03a.34.34 0 0 0 -.32.27l-.64 2.55c-.06.23.1.46.32.46h10.04c.15 0 .28-.11.32-.27l.64-2.55c.06-.23-.1-.46-.32-.46zm-10.03-.36h10.02c.44 0 .76.46.65.92l-.64 2.54a.68.68 0 0 1 -.65.54h-10.01c-.44 0-.76-.46-.65-.92l.64-2.54a.68.68 0 0 1 .65-.54z"/><path d="m5 8h8v2h-8z" fill-opacity=".5"/></g></svg>