<svg height="18" viewBox="0 0 18 18" width="18" xmlns="http://www.w3.org/2000/svg"><path d="m0 0h18v18h-18z" fill="#f0f3fa"/><path d="m4 10.21v-4.91c.04-.1.3-.29 1.02-.29.73 0 .96.2.98.3v1.55h.37c.7 0 1.05-.4 1.13-.66v-.93c.02-.07.3-.27 1.03-.27.72 0 .94.2.97.26v.93c0 .83-.64 1.39-1.4 1.74.15 1.14 1.22 1.37 1.9 1.37v-2.1c0-.11.3-.34 1-.34s.98.23 1 .35v2.88c0 .5.24.9.79.9h1.87c.12.03.34.32.34 1 0 .47-.25.97-.38 1h-1.79c-2.01 0-2.72-1.37-2.83-2.06v-.1c-2.48-.06-3.35-1.56-3.53-2.47l-.1.01h-.37v1.83c-.06.11-.33.33-.98.33s-.95-.22-1.02-.33zm1.89-4.85c0 .15-.4.27-.89.27-.48 0-.88-.12-.88-.27s.4-.27.88-.27c.5 0 .89.12.89.27zm3.47-.02c0 .14-.38.25-.86.25s-.86-.11-.86-.25.38-.25.86-.25.86.11.86.25zm2.5 1.89c0 .14-.4.26-.88.26s-.87-.12-.87-.26c0-.15.39-.27.87-.27s.87.12.87.27z" fill="#c7000c" fill-rule="evenodd"/></svg>