<svg height="18" viewBox="0 0 18 18" width="18" xmlns="http://www.w3.org/2000/svg" xmlns:xlink="http://www.w3.org/1999/xlink"><linearGradient id="a" gradientUnits="userSpaceOnUse" x1="5.55" x2="8.46" y1="5" y2="8.01"><stop offset="0" stop-color="#34afe4"/><stop offset="1" stop-color="#0086cb"/></linearGradient><linearGradient id="b" gradientUnits="userSpaceOnUse" x1="9.91" x2="12.13" y1="9.21" y2="11.1"><stop offset="0" stop-color="#0075bb"/><stop offset="1" stop-color="#0060a7"/></linearGradient><linearGradient id="c" gradientUnits="userSpaceOnUse" x1="14.37" x2="14.37" y1="6.09" y2="11.55"><stop offset="0" stop-color="#0067ad"/><stop offset="1" stop-color="#9adaf8"/></linearGradient><linearGradient id="d" gradientUnits="userSpaceOnUse" x1="10.2" x2="12.11" y1="7.65" y2="5.63"><stop offset="0" stop-color="#0080c5"/><stop offset="1" stop-color="#9cdcf9"/></linearGradient><linearGradient id="e" gradientUnits="userSpaceOnUse" x1="3.68" x2="3.68" y1="6.82" y2="11.91"><stop offset="0" stop-color="#0064ab"/><stop offset="1" stop-color="#57b9e9"/></linearGradient><linearGradient id="f" gradientUnits="userSpaceOnUse" x1="6.2" x2="10.51" y1="7.5" y2="11.56"><stop offset="0" stop-color="#006bb1"/><stop offset="1" stop-color="#0097d9"/></linearGradient><path d="m0 0h18v18h-18z" fill="#f0f3fa"/><path d="m8.69 8.27c-1.86-2.87-3.69-3.25-4.37-3.09 1.9-.77 4.33 1.08 5.3 2.1z" fill="url(#a)"/><path d="m10.7 8.58-.9 1.07c.6.74 2.11 2.04 3.45 1.4-.86-.12-2.06-1.7-2.56-2.47z" fill="url(#b)"/><path d="m14.78 8.82c0-2.16-1.36-2.72-2.04-2.73 1.09-.03 3.26.46 3.26 2.73 0 2.43-2.12 2.82-3.18 2.7.65 0 1.96-.54 1.96-2.7z" fill="url(#c)"/><path d="m9.35 9.9-.91-1.04c.1-.1.56-.5 1.73-1.67 1.16-1.17 2.56-1.06 3.1-.8-1 .1-3.04 2.38-3.92 3.5z" fill="url(#d)"/><path d="m3.17 9.4c0-1.75 1.2-2.45 1.79-2.58-.26 0-2.96 0-2.96 2.58 0 2.07 2.24 2.53 3.36 2.5-.73-.1-2.19-.75-2.19-2.5z" fill="url(#e)"/><path d="m5.95 7.89c-.31-.5-.88-.83-1.12-.93 1.03-.23 2.06.52 2.44.93.51.54 1.82 1.95 2.98 3.28a5.79 5.79 0 0 0 3.6 1.81c-5.1.33-7.51-4.46-7.9-5.1z" fill="url(#f)"/><path d="m7.31 10.1a6.13 6.13 0 0 1 -2.19 1.52c.51.09 1.81.07 2.91-.7z" fill="#005da3"/></svg>