<svg height="18" viewBox="0 0 18 18" width="18" xmlns="http://www.w3.org/2000/svg"><path d="m0 0h18v18h-18z" fill="#f0f3fa"/><path d="m11.48 5.66-.53.11c-.02-.9-.01-1.8.02-2.7 0-.04.03-.06.1-.07a.04.04 0 0 1 .03.01.05.05 0 0 1 .01.03zm-2.19-.38-.36.48-.68.92c-.01.02-.03.03-.06.02l-.85-.27.02-.58.48.07c.02 0 .05 0 .07-.03.24-.21.45-.45.65-.71.13-.1.24-.21.32-.36a.25.25 0 0 0 .1-.05c.52-.58 1.06-1.15 1.6-1.72a.1.1 0 0 1 .08-.03h.18c.04 0 .04.02.02.05l-1.57 2.2z" fill="#4c7690"/><path d="m8.88 4.82a.95.95 0 0 1 -.32.36l-1.19-1.84v-.01a.02.02 0 0 0 -.02 0v.02c-.03.83-.02 1.67 0 2.5l-.01.58-.01.79c0 .03-.02.05-.05.06l-1.26.43c-.17-.1-.3-.25-.4-.42l1.02-.52a.07.07 0 0 0 .04-.06l.05-.48.08-.48.34-2.34c0-.03.02-.05.04-.06l.26-.12c.03-.02.06-.01.08.02zm3.82 2.79a.95.95 0 0 1 -.41-.21l1.32-1.92a.03.03 0 0 0 0-.03.03.03 0 0 0 -.04-.01l-2.04.76-.6.21-1.23.46c-.03 0-.05 0-.06-.02l-.7-1.09.35-.48.6.69c.02.02.04.03.07.02l1-.22.52-.11 2-.43c.02 0 .04 0 .06.02l.18.27c.02.03.02.05 0 .08z" fill="#182b51"/><path d="m6.8 5.75-.07.48-2.56-.8c-.03-.01-.04-.03-.03-.06l.02-.05c0-.03.03-.04.06-.04l2.59.47zm-1.18 1.54c.1.17.23.32.4.42v.04c0 .03 0 .05.02.08l.81.98c.02.02.02.05 0 .07l-.68 1a1.48 1.48 0 0 1 -.52-.17l.39-.75a.07.07 0 0 0 0-.07l-.6-.96-.28-.42-1.16-1.88c-.02-.04-.02-.06 0-.09l.07-.06c.02-.02.04-.02.06 0l1.5 1.8zm5.91-1.09.13.86c0 .02.02.04.05.05l.58.29c.12.1.25.17.4.21l.05.06c.76.38 1.51.78 2.26 1.18v.44l-2.1 1.08-.26-.44 2.3-.82a.02.02 0 0 0 0-.02v-.01l-2.48-.89h-.07a1.1 1.1 0 0 0 -.52-.18l-.9-.34c-.02-.01-.04-.03-.04-.06v-1.21l.6-.21z" fill="#4c7690"/><path d="m5.16 7.51.27.42-2.36.84h-.01a.03.03 0 0 0 0 .04l.01.01 2.58.89c.16.09.33.15.52.18l.9.33c.03.01.05.03.05.07v1.17l-.6.23-.1-.86a.08.08 0 0 0 -.05-.07l-.58-.3-.4-.21-2.36-1.22a.05.05 0 0 1 -.03-.05v-.35c0-.02.02-.04.04-.05l2.12-1.08zm7.23.69-.36.71a.07.07 0 0 0 0 .07l.6.95.28.44 1.16 1.88c.01.03.02.05 0 .07a.34.34 0 0 1 -.12.16l-1.52-1.88-.38-.48-.85-1.05c-.01-.03-.02-.05 0-.08l.67-.98c.18.02.36.08.52.18z" fill="#182b51"/><path d="m12.05 10.12.37.48-1 .52a.07.07 0 0 0 -.05.06l-.05.44-.07.54-.31 2.32c0 .03-.03.05-.05.06l-.3.1c-.04.01-.06 0-.08-.02l-1.34-1.58c.08-.13.19-.24.31-.32l1.2 1.83c.02.04.03.03.03 0v-2.5c.02-.2.02-.41-.01-.62l.02-.77c0-.03.01-.05.04-.06zm-6.67.13.4.22-1.31 1.96a.03.03 0 0 0 0 .03l.01.01h.02l2.02-.78.6-.23 1.23-.45c.03 0 .05 0 .07.02l.71 1.07-.36.5-.59-.7a.06.06 0 0 0 -.07-.01l-.99.22-.5.11-2.02.43c-.06.01-.1-.01-.13-.07a.54.54 0 0 0 -.15-.2c-.02-.02-.03-.04-.01-.07z" fill="#4c7690"/><path d="m10.7 11.43c.03.2.03.41 0 .62l-.5-.09c-.02 0-.05 0-.07.03l-.65.73c-.12.08-.23.2-.3.32-.6.62-1.19 1.24-1.76 1.88-.08.09-.15.11-.25.03-.02-.01-.02-.03 0-.05l1.6-2.3.36-.5.66-.93c.02-.02.04-.03.07-.02zm.62.19 2.63.86c-.01.12-.07.16-.17.14l-2.53-.46zm-4.2.48v2.76a.06.06 0 0 1 -.03.05c-.04.02-.08.01-.11-.04a.13.13 0 0 1 -.02-.06l-.34-2.59.5-.11z" fill="#182b51"/></svg>