<svg height="18" viewBox="0 0 18 18" width="18" xmlns="http://www.w3.org/2000/svg"><path d="m0 0h18v18h-18z" fill="#f0f3fa"/><path d="m14 5.2v1.6h-4.62c-.76-.2-2.53-.6-3.46-.6-.92 0-1.66.27-1.92.4v-1.8c.2-.13.73-.36 1.35-.2.61.16.9.87.96 1.2-.07-.4.07-1.24 1.15-1.4s1.35.73 1.35 1.2l.38-.2c.16-.64.84-.67 1.16-.6.19-.27.69-.8 1.15-.8s1.09.53 1.35.8c.61-.16 1.02.2 1.15.4z" fill="#b8db4b"/><path d="m14 7h-3.85c.77.2 2.31.68 2.31 1s-.9.53-1.35.6c.26 0 .74.12.58.6-.15.48-1.22.87-1.73 1 .7.2 2.15.8 2.3 1.6.16.8-1.08 1.8-1.72 2.2h3.46z" fill="#13c8c7"/><path d="m5.92 6.4c-.96 0-1.54.27-1.92.4v6.2c1.09-.27 3.27-.92 3.27-1.4s-1.03-.87-1.54-1c1.15-.33 3.46-1.08 3.46-1.4s-.25-.53-.38-.6c.83-.07 2.5-.32 2.5-.8 0-.6-4.43-1.4-5.39-1.4z" fill="#0071c3"/></svg>