<svg height="18" width="18" xmlns="http://www.w3.org/2000/svg"><path d="m0 0h18v18h-18z" fill="#2570ba"/><g fill="#fff"><path d="m12.119 13.23-3.103-1.986-3.102 1.987 1.023-3.462-2.937-2.243 3.73-.16 1.286-3.366 1.288 3.365 3.696.16-2.904 2.244 1.023 3.462z"/><path d="m7.348 11.107c-1.414-.031-2.186-.415-2.669-1.279-.514-.863.45-1.982.45-1.982s-1.414 1.343-.642 2.462c.771 1.15 2.957 1.342 4.533.927 1.607-.383 3.344-1.215 3.954-2.014-1.67 1.31-4.21 1.95-5.626 1.886z"/><path d="m13.448 7.885c.195-.512-.324-1.718-1.945-1.809-4.052-.271-5.965 1.779-5.965 1.779s2.497-1.84 5.316-1.508c1.816.242 2.043.754 2.043.754s.68.723-.195 1.748c-.712.845.552-.452.746-.964z"/></g></svg>