<svg height="18" viewBox="0 0 18 18" width="18" xmlns="http://www.w3.org/2000/svg"><path d="m0 0h18v18h-18z" fill="#102f53"/><path d="m7.84 11.89h2.27l-.61-4.89h-.99l-.68 4.89zm3.08 0c.58.03 1.04.55 1.04 1.17v.36c.6-.17.93-.58 1.04-.81v1.03c-.31.32-.88.91-1.64.86a8.88 8.88 0 0 1 -2.2-.94c-.94-.47-1.89-.95-2.31-.95-.67 0-1.51.68-1.85 1.03v-1.04l.11-.1c.34-.33.88-.83 1.74-.83l.23.03.55-4.7h-.39v-1h.39v-1.45h-.23v-.83l1.45-.72 1.5.72v.83h-.18v1.45h.37v1h-.37zm-2.1-7.32h-.48v1.43h.48zm.77 0h-.48v1.43h.48zm-.09 3.13h-.5v1.05h.5zm-.99 2.62h.49v1.04h-.5v-1.04zm2.19 2.68c.28 0 .5.22.54.5a4.6 4.6 0 0 1 -1.47-.5z" fill="#fff" fill-rule="evenodd"/></svg>