<svg height="18" viewBox="0 0 18 18" width="18" xmlns="http://www.w3.org/2000/svg" xmlns:xlink="http://www.w3.org/1999/xlink"><linearGradient id="a" gradientUnits="userSpaceOnUse" x1="-7.75" x2="18" y1=".75" y2="18"><stop offset=".28" stop-color="#c82f26"/><stop offset=".77" stop-color="#e94924"/></linearGradient><path d="m0 0h18v18h-18z" fill="url(#a)"/><path d="m8.4 6.5v.9h1.45c.4 0 .85.2.85.74s-.35.86-.75.86h-1.51l1.84 2.5h1.22l-1.31-1.75c.66 0 1.41-.64 1.41-1.61 0-.86-.7-1.64-1.32-1.64zm3.36 0h1.12l1 1.72 1.07-1.72h1.05l-1.63 2.46 1.63 2.54h-1.05l-1.06-1.78-1.13 1.78h-1l1.62-2.54zm-8.76 0h-1v5h3v-.9h-2zm5 0v.9h-1v4.1h-1v-4.1h-1v-.9z" fill="#fff"/></svg>