<svg height="18" viewBox="0 0 18 18" width="18" xmlns="http://www.w3.org/2000/svg"><path d="m0 0h18v18h-18z" fill="#f0f3fa"/><path d="m7.12 9.85 1.51 1.96c.2.25.54.25.74 0l1.51-1.96c.16-.2.16-.5 0-.7l-1.51-1.95a.45.45 0 0 0 -.74 0l-1.51 1.95c-.16.2-.16.5 0 .7z" fill="#fdae0b"/><path d="m8.06 9.7.76 1.19c.1.15.27.15.36 0l.76-1.18a.4.4 0 0 0 0-.42l-.76-1.18c-.1-.15-.27-.15-.36 0l-.76 1.19a.4.4 0 0 0 0 .42z" fill="#f95312" opacity=".7"/><path d="m9.24 12.85.1.15.6-1.05a.52.52 0 0 0 0-.48l-.76-1.34c-.1-.17-.27-.17-.36 0l-.76 1.34a.52.52 0 0 0 0 .48l.59 1.04.1-.14a.3.3 0 0 1 .49 0z" fill="#f4430d" opacity=".7"/><path d="m13.71 8.81-3.8-4.4a1.21 1.21 0 0 0 -1.83 0l-3.78 4.41c-.39.45-.39 1.1 0 1.55l3.13 3.63 1.04-.98c-.88-.94-1.45-1.98-2.29-2.96a.83.83 0 0 1 0-1.04l2.26-2.74a.73.73 0 0 1 .56-.28c.21 0 .42.1.57.28l2.25 2.74a.83.83 0 0 1 0 1.04c-.83.98-1.4 2.04-2.28 2.97l1.04.96 3.13-3.63c.39-.44.39-1.1 0-1.55z" fill="#e22f17"/></svg>