<!-- by TradingView --><svg width="18" height="18" viewBox="0 0 18 18" xmlns="http://www.w3.org/2000/svg"><path fill="#F0F3FA" d="M0 0h18v18H0z"/><path opacity=".89" d="M6.4 9.4a2.36 2.36 0 0 1 0-.64c.05-.65.3-1.23.66-1.68A38.2 38.2 0 0 0 5.9 5.02C5.66 4.7 3.86 9.3 6.19 12h2.46A3.29 3.29 0 0 1 6.4 9.4Z" fill="#F47B20"/><path opacity=".89" d="M6.38 9.07c0-.17.01-.34.04-.5a54.13 54.13 0 0 0-2.18-3.03c-.3-.27-.35 2.76.37 3.4.15.15 1.37 1.14 2.36 1.84a2.92 2.92 0 0 1-.6-1.7Z" fill="#F05133"/><path opacity=".89" d="M6.53 9.96a92.37 92.37 0 0 0-3.49-2.98c-.35-.21.9 2.66 1.57 3.08.22.14 1.88.9 3.03 1.42-.47-.37-.89-.9-1.1-1.52Z" fill="#EE3524"/><path opacity=".89" d="M7.3 11.16A78.28 78.28 0 0 0 2.68 8.5c-.4-.1 1.34 1.97 1.86 2.26.28.15 2.82.86 3.81 1.14-.36-.14-.74-.4-1.07-.74Z" fill="#E31B23"/><path opacity=".89" d="M7.86 11.63A85.92 85.92 0 0 0 2.3 9.64c-.4-.02 1.81 1.46 2.17 1.64.3.15 3 .5 3.9.62a2.98 2.98 0 0 1-.51-.27Z" fill="#E31B23"/><path opacity=".89" d="M8.25 11.86C6.65 11.5 2 10.6 2 10.6c.45.37 1.9 1.22 1.9 1.22l4.6.14a2.33 2.33 0 0 1-.25-.1Z" fill="#B5121B"/><path opacity=".89" d="M8.5 11.96c-1.44-.15-6.34-.5-6.34-.5.5.3 1.84.54 1.84.54h4.65l-.15-.04Z" fill="#B5121B"/><path opacity=".89" d="M11.6 9.4a2.36 2.36 0 0 0 0-.64 3.14 3.14 0 0 0-.66-1.68 38.2 38.2 0 0 1 1.16-2.06c.24-.32 2.04 4.28-.29 6.98H9.35a3.3 3.3 0 0 0 2.25-2.6Z" fill="#F47B20"/><path opacity=".89" d="M11.62 9.07c0-.17-.01-.34-.04-.5a59.32 59.32 0 0 1 2.18-3.03c.3-.27.34 2.76-.37 3.4-.15.15-1.37 1.14-2.36 1.84.35-.49.59-1.08.59-1.7Z" fill="#F05133"/><path opacity=".89" d="M11.47 9.96a89.46 89.46 0 0 1 3.49-2.98c.35-.21-.9 2.66-1.57 3.08-.22.14-1.88.9-3.03 1.42.47-.37.89-.9 1.1-1.52Z" fill="#EE3524"/><path opacity=".89" d="M10.7 11.16a78.28 78.28 0 0 1 4.61-2.66c.4-.1-1.34 1.97-1.86 2.26-.28.15-2.82.86-3.81 1.14.35-.14.73-.4 1.07-.74Z" fill="#E31B23"/><path opacity=".89" d="M10.14 11.63a85.92 85.92 0 0 1 5.56-1.99c.4-.02-1.81 1.46-2.17 1.64-.3.15-3 .5-3.89.62.17-.06.33-.16.5-.27Z" fill="#E31B23"/><path opacity=".89" d="M9.75 11.86C11.35 11.5 16 10.6 16 10.6c-.45.37-1.9 1.22-1.9 1.22l-4.6.14.25-.1Z" fill="#B5121B"/><path opacity=".89" d="M9.5 11.96c1.44-.15 6.33-.5 6.33-.5-.5.3-1.83.54-1.83.54H9.35l.15-.04Z" fill="#B5121B"/></svg>