<svg height="18" viewBox="0 0 18 18" width="18" xmlns="http://www.w3.org/2000/svg" xmlns:xlink="http://www.w3.org/1999/xlink"><linearGradient id="a" gradientUnits="userSpaceOnUse" x1="5.32" x2="14" y1="11.42" y2="11.42"><stop offset=".35" stop-color="#39b54a"/><stop offset="1" stop-color="#d7df23"/></linearGradient><linearGradient id="b" gradientUnits="userSpaceOnUse" x1="7.86" x2="7.86" y1="13" y2="5"><stop offset="0" stop-color="#262261"/><stop offset="1" stop-color="#ee2b7b"/></linearGradient><path d="m0 0h18v18h-18z" fill="#f0f3fa"/><path d="m8.04 10.76c-.49.36-.97.84-1.62.83-.5 0-.92-.22-1.1-.54.23.41.54.77.92 1.05 1.6 1.19 5.31 1.21 6.96 0l1.8-1.34c-.82-.6-1.9-.76-2.98-.76s-3.15.16-3.98.76" fill="url(#a)"/><path d="m5 9.9c0 1.92 2.23 3.09 3.9 3.09h.31c.51.01 1.02-.05 1.52-.2-.1.03-.21.05-.32.05-.66 0-1.41-.4-1.41-.89v-3.83c0-1.73-1.67-3.12-4-3.12z" fill="url(#b)"/><path d="m10.41 12.84c-.66 0-1.41-.4-1.41-.89v-1.8c-.42.15-.6.35-.96.61l-.78.58c-.25.17-.54.33-.84.33-.5 0-.93-.29-1.11-.6.73 1.33 2.35 1.9 3.8 1.93h.1c.5 0 .98-.06 1.45-.19a1.4 1.4 0 0 1 -.25.03" fill="#502c1e"/></svg>