<svg height="18" viewBox="0 0 18 18" width="18" xmlns="http://www.w3.org/2000/svg" xmlns:xlink="http://www.w3.org/1999/xlink"><linearGradient id="a" gradientUnits="userSpaceOnUse" x1="2.77" x2="7.36" y1="9.14" y2="10.08"><stop offset="0" stop-color="#7d9732"/><stop offset=".22" stop-color="#f8ed17"/><stop offset=".45" stop-color="#f5ec87"/><stop offset="1" stop-color="#c6db40"/></linearGradient><linearGradient id="b" gradientUnits="userSpaceOnUse" x1="7.39" x2="10.52" y1="6.06" y2="7.11"><stop offset="0" stop-color="#1d4988"/><stop offset=".65" stop-color="#4a87ca"/><stop offset="1" stop-color="#0f4a8e"/></linearGradient><linearGradient id="c" gradientUnits="userSpaceOnUse" x1="10.78" x2="14.68" y1="9.47" y2="9.79"><stop offset="0" stop-color="#26703d"/><stop offset=".45" stop-color="#9bc174"/><stop offset="1" stop-color="#246636"/></linearGradient><path d="m0 0h18v18h-18z" fill="#f0f3fa"/><path d="m4.98 9.55c-.48.02-1.04.3-1.26.44l.24.31z" fill="#342b64"/><path d="m2 7.97c.63 1.2 2.88 3.54 6.85 3.31-4.72 2.24-6.53-1.28-6.85-3.31z" fill="url(#a)"/><path d="m8 8.53a6 6 0 0 0 -2.94.84l3.89.86c1.15.35 3.7.71 4.74-.62-1.51.54-4.03-1.08-5.68-1.08z" fill="url(#b)"/><path d="m11.14 9.2c-.78.87-2.21 1.92-2.83 2.34 1.05-.03 3.44-.45 4.57-1.82 1.42-1.72 2.6-3.32 3.12-3.72-1.57-.14-3.9 2.12-4.86 3.2z" fill="url(#c)"/></svg>