<svg height="18" width="18" xmlns="http://www.w3.org/2000/svg" xmlns:xlink="http://www.w3.org/1999/xlink"><linearGradient id="a" gradientUnits="userSpaceOnUse" x1="3.8" x2="6.88" y1="5.45" y2="8.51"><stop offset="0" stop-color="#cf0"/><stop offset="1" stop-color="#f5ff00"/></linearGradient><linearGradient id="b" gradientUnits="userSpaceOnUse" x1="13.57" x2="4.04" y1="8" y2="9.7"><stop offset="0" stop-color="#0bafbf"/><stop offset="1" stop-color="#81e81f"/></linearGradient><linearGradient id="c" gradientUnits="userSpaceOnUse" x1="14.25" x2="12.22" y1="8.75" y2="10.86"><stop offset="0" stop-color="#849ea0"/><stop offset="1" stop-color="#54a0a4"/></linearGradient><path d="m0 0h18v18h-18z" fill="#f0f3fa"/><path d="m8.6 13-5.47-4.16a.34.34 0 0 1 -.13-.32c.11-.63.44-2.54.55-3.25.03-.15.04-.43-.05-.52l4.31 2.47 6.11.86c.17.02.3.14.35.3.2.69.43 1.37.5 1.57.01.03 0 .06-.04.07l-2.97.8-1.38 1.91c-.41.57-1.23.69-1.79.26z" fill="url(#a)"/><path d="m11.76 10.82-1.38 1.91c-.41.57-1.23.69-1.79.26l-5.11-3.88 1.96-2.03c.09-.1.22-.14.36-.13l1.24.17 1.18.16 5.7.8c.17.02.3.14.35.3.2.68.47 1.36.56 1.56 0 .04 0 .07-.04.08z" fill="url(#b)"/><path d="m15 10.03c.01.02-3.24.79-3.24.79l1.9-2.78.26.04c.17.02.3.14.35.3.25.8.62 1.55.73 1.65z" fill="url(#c)"/></svg>