<svg height="18" width="18" xmlns="http://www.w3.org/2000/svg"><path d="m0 0h18v18h-18z" fill="#08b47a"/><path d="m12.964 4c-.417.07-3.143.392-5.152.947-2.862.79-2.812 3.434-2.812 4.478v3.531c0 .054.036.055.061.02a31.17 31.17 0 0 1 4.043-4.826s.01-.013-.009 0c-.854.296-1.679.688-2.46 1.17v-.448c-.012-1.8.947-2.286 2.082-2.638.932-.286 2.67-.45 2.67-.45s-.14 1.121-.327 3.406c-.128 1.663-1.236 1.81-2.78 1.81h-.87c-.694 1.108-.787 1.995-.787 1.995h1.704c3.245 0 3.97-1.583 4.126-3.924.195-2.976.466-4.702.547-5.027a.036.036 0 0 0 -.006-.032.03.03 0 0 0 -.014-.01.028.028 0 0 0 -.015-.001z" fill="#fff"/></svg>