<svg height="18" viewBox="0 0 18 18" width="18" xmlns="http://www.w3.org/2000/svg" xmlns:xlink="http://www.w3.org/1999/xlink"><linearGradient id="a" gradientUnits="userSpaceOnUse" x1="8.76" x2="3.86" y1="3.99" y2="9.89"><stop offset="0" stop-color="#156ca7"/><stop offset="1" stop-color="#044b78"/></linearGradient><linearGradient id="b" gradientUnits="userSpaceOnUse" x1="9.56" x2="4.56" y1="4.12" y2="11.94"><stop offset="0" stop-color="#0a70b9"/><stop offset=".72" stop-color="#003c70"/></linearGradient><linearGradient id="c" gradientUnits="userSpaceOnUse" x1="10.54" x2="6.42" y1="4.19" y2="13.58"><stop offset="0" stop-color="#0a70b7"/><stop offset=".69" stop-color="#003a68"/></linearGradient><linearGradient id="d" gradientUnits="userSpaceOnUse" x1="11.91" x2="8.3" y1="5.03" y2="14"><stop offset="0" stop-color="#0073c7"/><stop offset=".72" stop-color="#003d6c"/></linearGradient><linearGradient id="e" gradientUnits="userSpaceOnUse" x1="5.51" x2="14.2" y1="5.24" y2="8.84"><stop offset="0" stop-color="#2c9ddf"/><stop offset=".77" stop-color="#003f71"/></linearGradient><linearGradient id="f" gradientUnits="userSpaceOnUse" x1="5.02" x2="14.78" y1="5.73" y2="8.58"><stop offset="0" stop-color="#2c9ddf"/><stop offset=".63" stop-color="#003f71"/></linearGradient><linearGradient id="g" gradientUnits="userSpaceOnUse" x1="4.6" x2="14.1" y1="6.3" y2="8.58"><stop offset="0" stop-color="#2c9ddf"/><stop offset=".57" stop-color="#003f71"/></linearGradient><linearGradient id="h" gradientUnits="userSpaceOnUse" x1="4.3" x2="12.69" y1="7.02" y2="8.69"><stop offset="0" stop-color="#2c9ddf"/><stop offset=".55" stop-color="#003f71"/></linearGradient><path d="m0 0h18v18h-18z" fill="#f0f3fa"/><path d="m8.76 4c-2.98 1.5-4.3 4.56-4.63 6.12a5.02 5.02 0 0 1 -.1-1.73c.95-2.1 2.54-3.53 3.52-4.18.39-.12.8-.19 1.2-.21z" fill="url(#a)"/><path d="m10 4.1a5 5 0 0 0 -.7-.1c-3.27 1.82-4.5 5.44-4.75 7.3.23.44.51.83.85 1.18.53-4.98 3.17-7.6 4.6-8.38z" fill="url(#b)"/><path d="m11.18 4.5c-2.69 2.61-3.91 7.04-4.21 9.07a5 5 0 0 1 -.86-.5c.16-3.9 2.69-7.35 4.23-8.9.3.09.57.2.84.32z" fill="url(#c)"/><path d="m12.26 5.2c-.2-.16-.4-.31-.61-.45-2.26 2.78-3.43 6.97-3.8 9.12a5 5 0 0 0 1.15.13h.02c1-4.2 2.5-7.5 3.24-8.8z" fill="url(#d)"/><path d="m14 9.02v-.02c0-.38-.04-.74-.12-1.1a15.3 15.3 0 0 0 -8.24-2.6l-.23.21c4.59.59 7.54 2.5 8.59 3.51z" fill="url(#e)"/><path d="m5.16 5.8c1.86.24 5.84 1.4 8.7 4.4-.1.39-.24.76-.42 1.1-1.37-1.6-4.76-4.66-8.52-5.2z" fill="url(#f)"/><path d="m4.74 6.38c1.98.82 6.02 2.93 8.24 5.65-.2.26-.43.5-.68.72-1.44-1.52-4.77-4.6-7.8-5.94a5 5 0 0 1 .24-.43z" fill="url(#g)"/><path d="m4.37 7.1a70.9 70.9 0 0 1 7.2 6.19c-.36.22-.75.39-1.16.51-1.46-1.56-4.5-4.74-6.2-6.25l.16-.44z" fill="url(#h)"/><path d="m4.38 7.7.24-.4.47.35c-.1.16-.17.32-.25.48z" fill="#15547f"/><path d="m4.83 6.97.3-.42.5.23-.3.44z" fill="#185583"/><path d="m6.94 7.43-.78-.4-.3.49c.27.15.53.31.79.48.1-.2.19-.39.3-.57z" fill="#144d7a"/><path d="m6.35 8.65-.76-.6c-.1.18-.18.36-.26.55l.76.74z" fill="#124572"/><path d="m5.4 6.2.27-.32.56.11-.26.33c-.2-.05-.38-.1-.57-.13z" fill="#145484"/><path d="m7.6 6.38c-.27-.1-.55-.18-.8-.25l-.27.36c.27.09.54.18.8.3l.28-.41z" fill="#185284"/><path d="m8.66 6.2.34-.46c.3.07.6.16.9.26l-.33.5-.9-.3z" fill="#144c80"/><path d="m8.07 7.11.3-.47c.28.12.59.24.89.38l-.31.56a14.3 14.3 0 0 0 -.88-.47z" fill="#154777"/><path d="m7.33 8.46c.1-.22.22-.43.33-.63.3.16.6.34.9.53l-.33.76z" fill="#17406c"/><path d="m5.94 5.58.28-.28c.2 0 .4.02.63.04a8.7 8.7 0 0 0 -.33.34z" fill="#185c8e"/><path d="m8.26 5.56-.82-.14-.36.37.82.2z" fill="#13598a"/><path d="m6.72 9.96c.09-.26.18-.52.29-.78l.9.76-.3.93-.9-.9z" fill="#233863"/><path d="m10.98 7.91c-.33-.2-.66-.38-.99-.54l-.32.66c.34.22.67.46.99.7.1-.29.21-.56.32-.82z" fill="#17406f"/><path d="m10.34 9.57c-.34-.25-.68-.5-1.02-.72a24 24 0 0 0 -.34.86c.36.28.7.57 1.02.85z" fill="#17395f"/><path d="m9.7 11.5-1.02-.91c-.12.36-.23.71-.32 1.05l1 1.04c.1-.4.22-.8.34-1.19z" fill="#1c2e52"/></svg>