<svg height="18" viewBox="0 0 18 18" width="18" xmlns="http://www.w3.org/2000/svg" xmlns:xlink="http://www.w3.org/1999/xlink"><linearGradient id="a" gradientUnits="userSpaceOnUse" x1="10.38" x2="11.69" y1="11.31" y2="12.06"><stop offset="0" stop-color="#aa9bc8"/><stop offset="1" stop-color="#7496d8"/></linearGradient><linearGradient id="b" gradientUnits="userSpaceOnUse" x1="9.57" x2="8.4" y1="12.5" y2="14.31"><stop offset="0" stop-color="#d380be"/><stop offset="1" stop-color="#7c3c8b"/></linearGradient><linearGradient id="c" gradientUnits="userSpaceOnUse" x1="7.74" x2="7.74" y1="5.09" y2="10.36"><stop offset="0" stop-color="#ebd861"/><stop offset="1" stop-color="#ee844a"/></linearGradient><linearGradient id="d" gradientUnits="userSpaceOnUse" x1="4.93" x2="8.17" y1="9.14" y2="11.47"><stop offset="0" stop-color="#d13e5e"/><stop offset="1" stop-color="#ec8c6e"/></linearGradient><linearGradient id="e" gradientUnits="userSpaceOnUse" x1="12.3" x2="9.41" y1="7.43" y2="7.41"><stop offset="0" stop-color="#1faf67"/><stop offset="1" stop-color="#e6d76f"/></linearGradient><linearGradient id="f" gradientUnits="userSpaceOnUse" x1="8.71" x2="5.63" y1="12.24" y2="12.87"><stop offset="0" stop-color="#e086a5"/><stop offset="1" stop-color="#c93e6a"/></linearGradient><linearGradient id="g" gradientUnits="userSpaceOnUse" x1="10.41" x2="10.41" y1="11.86" y2="13.93"><stop offset="0" stop-color="#a581ca"/><stop offset="1" stop-color="#604fa9"/></linearGradient><linearGradient id="h" gradientUnits="userSpaceOnUse" x1="11.46" x2="10.29" y1="10.59" y2="10.88"><stop offset="0" stop-color="#a5b8c3"/><stop offset="1" stop-color="#b8b1bf"/></linearGradient><path d="m0 0h18v18h-18z" fill="#f0f3fa"/><path d="m10.25 11.33c.09.31.5.94 1.45.9-.1-.34-.54-.99-1.45-.9z" fill="url(#a)"/><path d="m9.7 12.24c.1.38-.15 1.9-1.57 2.26a2.1 2.1 0 0 1 1.57-2.26z" fill="url(#b)"/><path d="m7.14 5.09c-1.03 1.4-.42 4.23 1.11 5.27 1.3-1.8.25-4.55-1.1-5.27z" fill="url(#c)"/><path d="m4.5 9.17c2.46-.36 3.68 1.86 3.75 2.4-1.29.09-3.16-.6-3.75-2.4z" fill="url(#d)"/><path d="m12.93 4c-4.13 1.34-3.73 5.38-3.73 5.38a4.89 4.89 0 0 0 2.9-2.02 4.47 4.47 0 0 0 .84-3.36z" fill="url(#e)"/><path d="m5.41 12.88c1.04-1.4 3-1.04 3.48-.67a2.8 2.8 0 0 1 -3.48.67z" fill="url(#f)"/><path d="m10.2 11.86c-.56 1 .12 1.93.44 2.07.3-.43.32-1.46-.44-2.07z" fill="url(#g)"/><path d="m10.07 11c.16-.23.67-.6 1.4-.26-.18.23-.71.6-1.4.26z" fill="url(#h)"/></svg>