<svg height="18" viewBox="0 0 18 18" width="18" xmlns="http://www.w3.org/2000/svg"><path d="m0 0h18v18h-18z" fill="#f0f3fa"/><path d="m4.67 7.41v3.59h-1.67v-5h1.67c.77-.03 2.33.3 2.33 1.86 0 1.58-1.14 2.02-2 2.02v-1.15c.2-.12.33-.35.33-.61 0-.4-.3-.7-.66-.7z" fill="#010986"/><path d="m7 6h2.12c1.04 0 1.88.98 1.88 2.2 0 .35-.07.69-.2.98-1.17 0-2.88.59-3.8.95zm1.5 1.5h.53c.26 0 .47.24.47.53 0 .3-.21.53-.47.53h-.53z" fill="#dc3b05" fill-rule="evenodd"/><path d="m3.34 12h-.34c1.32-1.66 4.08-2.44 5.29-2.63.05.05.16.13.27.07.14-.06.07-.17.31-.17s.42.1.7.1c.27 0 .13-.1.2-.1s.13-.1.24 0c.1.1.13-.1.3-.1.18 0 .66-.17.8-.17.1 0 .64.11.89.17l-.55.2c-.07.04-.48.31-.48.38s-.14.24-.2.24c-.08 0-.38.24-.45.24s-.24-.14-.31-.14-.14.14-.45.14c-.3 0-.58-.14-.69-.24-.19.05-.17.23-.13.3l-.45-.2c-2.72.22-4.43 1.36-4.95 1.91zm9.79-1.48c-2.8-.03-4.58.3-5.13.48.47-.35 3.34-.71 3.65-.71.32 0 .85.06 1.07 0s.6-.23.95-.23l2.33-.06c-.22.08-.71.24-.91.29-.26.06-.29-.06-.48-.06-.18 0-.18.16-.6.12-.4-.03-.66.1-.88.17zm-2.13 1.48c1.11.04 3.8-.31 5-.5-.13-.17-.65-.2-.9-.2a.8.8 0 0 0 -.36-.28c-.26-.1-.46.27-.5.27-.03 0-.33-.05-.62-.16-.3-.11-.43.38-.57.38h-1.39c-.26 0-.43.32-.66.49z" fill="#010986"/><path d="m12.33 6h2.34l1.33 5h-1.56l-.27-1.01a1 1 0 0 1 -.17.01h-1a1 1 0 0 1 -.17-.01l-.27 1.01h-1.56zm1.17 3a.5.5 0 1 0 0-1 .5.5 0 0 0 0 1z" fill="#6b93e2"/></svg>