<svg height="18" viewBox="0 0 18 18" width="18" xmlns="http://www.w3.org/2000/svg"><path d="m0 0h18v18h-18z" fill="#f0f3fa"/><path d="m5.5 9.09c0 .64.18 1.18.5 1.6v1.31a3.43 3.43 0 0 1 -1.5-2.9c0-2 1.47-3.59 3.5-3.59v1c-1.52 0-2.5 1.09-2.5 2.59zm-1.5-.09c0 1.54.8 2.86 2 3.53v1.1a5 5 0 0 1 -3-4.63 4.92 4.92 0 0 1 5-5v1h-.17a3.88 3.88 0 0 0 -3.83 4zm5.84-5h-1.34v9.5h1.5c2.67 0 5-1.44 5-4.5 0-3.1-2.5-5-5-5zm.16 1v7.5c2 0 4-.96 4-3.5 0-2.58-1.83-4-4-4zm-2 5h-1.5v5h3.5v-1h-2z" fill="#0070e5" fill-rule="evenodd"/></svg>