<svg height="18" width="18" xmlns="http://www.w3.org/2000/svg"><path d="m0 0h18v18h-18z" fill="#f0f3fa"/><path d="m5.132 9.796c-.273-1.223-.07-2.93.817-3.227-.04-.42-.037-.92-.025-1.336.013-.446.045-.777-.119-.756-.197.025-.846 1.218-.986 2.747a6.251 6.251 0 0 0 .08 1.61c.06.324.137.645.233.962zm7.719 0a8.65 8.65 0 0 0 .233-.963 6.22 6.22 0 0 0 .08-1.609c-.14-1.529-.79-2.722-.987-2.747-.163-.02-.13.31-.119.756.013.416.015.917-.024 1.336.886.297 1.09 2.004.817 3.227z" fill="#a1272b"/><path d="m7.22 7.403c.516 1.126.826 2.347.905 2.621.09-.113.44-.404.866-.404.427 0 .77.29.86.404.08-.274.39-1.495.904-2.62a14.62 14.62 0 0 0 -.201-1.063c-.1-.423-.571-2.341-1.562-2.341-.992 0-1.47 1.918-1.57 2.341-.053.226-.178.85-.201 1.062z" fill="#c73730"/><path d="m6.993 7.041c.17-.918.337-1.465.546-1.971-.395.061-.848.902-.99 1.547.222.132.433.409.444.424zm4.437-.424c-.141-.645-.595-1.486-.99-1.547.21.506.376 1.052.546 1.971.011-.015.221-.292.445-.424z" fill="#a1272b"/><path d="m10.343 13.6c1.084-.07 1.87-.496 2.042-.632.172-.138.277-.255.094-.278-.169-.022-.822.207-1.023.263 0 0-.06.017-.06 0s.097-.047.097-.047c1.4-.464 2.271-1.392 2.204-1.61-.093-.188-.657.34-1.077.574 0 0-.04.023-.04.007 0-.007.047-.043.047-.043 1.08-.777 1.519-2.252 1.33-2.384-.1-.03-.277.327-.533.761-.195.332-.384.547-.384.547s-.017.02-.027.018c-.007-.002.005-.024.005-.024.776-1.456.863-2.482.89-2.953.06-1.06-.15-1.112-.235-.767-.098.401-.215.917-.3 1.425-.236 1.402-.897 2.798-1.42 3.56-.079.111-.145.103-.16.082-.015-.019-.006-.043.042-.124 1.506-2.53.867-5.076-.025-5.105-.854-.028-1.671 3.032-1.767 3.368.577.895.714 2.135.672 2.447-.003.026-.027.047-.057.048-.032.001-.059-.022-.06-.052 0-.57-.477-2.743-1.598-2.743s-1.6 2.172-1.6 2.742c0 .03-.028.053-.06.052a.058.058 0 0 1 -.057-.048c-.041-.313.096-1.552.673-2.447-.096-.336-.913-3.397-1.768-3.368-.89.029-1.531 2.575-.024 5.105.048.08.057.105.042.124-.015.021-.081.03-.16-.082-.523-.762-1.185-2.158-1.42-3.56a20.669 20.669 0 0 0 -.3-1.425c-.085-.345-.295-.294-.235.767.026.471.114 1.497.89 2.953 0 0 .012.022.005.024-.01.002-.027-.018-.027-.018s-.188-.215-.385-.547c-.255-.434-.433-.791-.532-.76-.189.13.25 1.606 1.33 2.383 0 0 .048.036.047.043-.002.016-.04-.007-.04-.007-.42-.234-.984-.762-1.077-.573-.067.217.804 1.145 2.204 1.609 0 0 .097.03.097.046 0 .018-.06.001-.06.001-.2-.056-.855-.284-1.023-.263-.183.023-.078.14.094.278.171.136.958.562 2.042.633.009.088.385.399 1.341.399.957 0 1.337-.31 1.345-.4z" fill="#c95e2d"/></svg>