<svg height="18" width="18" xmlns="http://www.w3.org/2000/svg"><path d="m0 0h18v18h-18z" fill="#f0f3fa"/><path d="m7 2v5h4v-1h-3v-4z" fill="#929292"/><path d="m10.092 14h-3.092v-6h2.997c.492 0 .872.176 1.142.482.27.299.404.655.404 1.068 0 .36-.087.661-.262.907-.169.245-.383.4-.642.467.286.048.523.212.714.493.195.276.293.599.293.97 0 .46-.135.847-.404 1.158-.27.311-.653.455-1.15.455zm-.404-3.678a.436.436 0 0 0 .333-.135.516.516 0 0 0 .134-.368.473.473 0 0 0 -.134-.35.423.423 0 0 0 -.333-.143h-1.324v.996zm.047 2.388c.164 0 .291-.048.38-.144a.555.555 0 0 0 .144-.395.543.543 0 0 0 -.143-.385.481.481 0 0 0 -.38-.153h-1.373v1.077h1.371z" fill="#2f4f85"/><path d="m7 15h5l-.833 1h-4.167z" fill="#929292"/></svg>