<svg height="18" width="18" xmlns="http://www.w3.org/2000/svg" xmlns:xlink="http://www.w3.org/1999/xlink"><linearGradient id="a"><stop offset="0" stop-color="#1a1e21"/><stop offset="1" stop-color="#06060a"/></linearGradient><linearGradient id="b" gradientUnits="userSpaceOnUse" x1="3.349" x2="21.904" xlink:href="#a" y1="3.122" y2="24.434"/><linearGradient id="c" gradientUnits="userSpaceOnUse" x1="7.965" x2="11.141" xlink:href="#a" y1="9.967" y2="6.272"/><linearGradient id="d" gradientUnits="userSpaceOnUse" x1="6.129" x2="6.718" xlink:href="#a" y1="9.514" y2="6.024"/><path d="m0 0h18v18h-18z" fill="url(#b)"/><path d="m8.915 8.95-3.849-.288v.001a.794.794 0 0 0 -.05-.001c-.264.001-.476.132-.473.293.002.16.218.289.482.287.017 0 .034 0 .05-.002v.002zm0 .006-3.837.463a.818.818 0 0 0 -.049.009c-.259.053-.441.223-.407.38.034.156.27.24.53.188a.794.794 0 0 0 .048-.012v.002zm.003.006-3.667 1.19a.737.737 0 0 0 -.046.019c-.244.102-.39.304-.325.45.064.148.313.184.556.082a.713.713 0 0 0 .046-.02v.001zm.002.005-3.355 1.875a.726.726 0 0 0 -.042.027c-.219.147-.322.374-.23.505.091.132.343.12.562-.027a.808.808 0 0 0 .04-.03v.002zm.004.005-2.928 2.494v.001a.76.76 0 0 0 -.035.034c-.186.187-.243.429-.127.54.115.112.36.051.545-.136a.801.801 0 0 0 .034-.036l.002.001zm.004.003-2.378 3.002h.001a.747.747 0 0 0 -.028.041c-.146.22-.154.468-.019.555s.363-.02.508-.24a.745.745 0 0 0 .027-.042v.001l1.89-3.317zm.006.003-1.744 3.41v.001a.777.777 0 0 0 -.02.045c-.1.244-.059.489.091.548s.352-.09.452-.334a.758.758 0 0 0 .017-.046h.001zm.006.002-1.041 3.675a.741.741 0 0 0 -.01.049c-.05.258.037.49.196.52.158.028.327-.157.377-.415a.79.79 0 0 0 .008-.05h.002l.468-3.78zm.268 3.81h.002l-.266-3.81-.317 3.818h.001a.743.743 0 0 0 -.001.05c.001.263.133.474.294.471.161-.002.29-.217.29-.48 0-.017-.002-.033-.003-.05zm.76-.077a.796.796 0 0 0 -.012-.048h.002l-1.008-3.685.437 3.806a.72.72 0 0 0 .01.049c.052.258.223.44.38.405.158-.033.243-.27.19-.527zm.711-.283a.772.772 0 0 0 -.021-.045h.002l-1.705-3.407 1.168 3.637h.002c.005.015.01.03.017.046.103.242.306.387.454.323.148-.063.184-.311.082-.554zm.646-.417a.878.878 0 0 0 -.029-.04h.002l-2.338-2.999 1.857 3.327a.733.733 0 0 0 .027.041c.148.218.376.32.508.23.133-.092.12-.342-.028-.56zm.561-.522a.813.813 0 0 0 -.036-.033v-.001l-2.883-2.487 2.479 2.902a.82.82 0 0 0 .035.035c.188.185.431.241.543.126s.051-.358-.137-.543zm.431-.629a.7.7 0 0 0 -.043-.026h.001l-3.305-1.871 2.989 2.356.041.028c.22.145.47.153.558.018.087-.134-.02-.36-.241-.506zm.317-.697a.8.8 0 0 0 -.047-.018v-.001l-3.613-1.186 3.4 1.724v-.001l.046.02c.244.1.49.059.55-.09s-.09-.35-.335-.45zm.16-.746a.763.763 0 0 0 -.049-.008v-.001l-3.77-.454 3.665 1.024v-.001a.767.767 0 0 0 .05.01c.259.05.492-.037.521-.194.03-.158-.157-.326-.417-.376zm.071-.755a.81.81 0 0 0 -.05.002v-.002l-3.839.286 3.849.294h.05c.264 0 .476-.132.473-.292-.002-.16-.219-.29-.483-.288zm.405-.564c-.034-.158-.272-.242-.53-.189a.803.803 0 0 0 -.049.011v-.001l-3.715 1.023 3.837-.456v-.001a.807.807 0 0 0 .05-.008c.258-.053.44-.223.406-.38zm-.258-.815c-.064-.147-.313-.184-.557-.082a.735.735 0 0 0 -.045.02l-3.437 1.714 3.667-1.183v-.001a.85.85 0 0 0 .046-.018c.243-.102.389-.304.325-.451zm-.414-.753c-.092-.132-.343-.12-.562.028a.825.825 0 0 0 -.04.029l-.002-.002-3.023 2.346 3.355-1.868v-.001a.774.774 0 0 0 .041-.027c.219-.147.322-.373.23-.505zm-.541-.667c-.116-.112-.36-.05-.546.136a.781.781 0 0 0 -.034.036l-2.51 2.891 2.928-2.488h-.001a.81.81 0 0 0 .036-.035c.186-.187.242-.429.127-.54zm-.669-.532c-.136-.087-.363.02-.509.24a.863.863 0 0 0 -.026.042h-.001l-1.89 3.31 2.38-2.996h-.001a.789.789 0 0 0 .028-.04c.146-.22.154-.469.019-.556zm-.758-.409c-.15-.059-.352.09-.452.334a.721.721 0 0 0 -.017.047h-.001l-1.202 3.616 1.742-3.403a.772.772 0 0 0 .02-.046c.1-.243.059-.488-.09-.548zm-.824-.241c-.158-.029-.327.157-.377.415a.766.766 0 0 0 -.008.049h-.002l-.467 3.773 1.04-3.67a.85.85 0 0 0 .01-.049c.05-.258-.037-.49-.196-.52zm-.592.369c-.001-.263-.133-.474-.294-.471-.161.002-.29.217-.29.48 0 .017.002.033.003.05h-.003l.314 3.809.269-3.818h-.001l.001-.05zm-.275 3.868-.486-3.807a.754.754 0 0 0 -.009-.048c-.053-.258-.224-.44-.381-.406-.158.034-.242.27-.19.528a.775.775 0 0 0 .012.048h-.001zm-.005.002-1.217-3.637a.83.83 0 0 0 -.019-.046c-.102-.242-.305-.387-.453-.323-.148.063-.184.311-.082.553l.02.045v.001l1.75 3.407zm-.006.003-1.904-3.327h-.001a.838.838 0 0 0 -.027-.041c-.148-.218-.375-.32-.508-.23-.132.092-.12.342.028.56l.03.04h-.002zm-.005.004-2.527-2.902a.803.803 0 0 0 -.035-.035c-.188-.185-.431-.242-.543-.127-.112.116-.051.359.137.544a.828.828 0 0 0 .036.033v.001l2.931 2.487zm-.003.004-3.037-2.355h-.001a.753.753 0 0 0 -.04-.028c-.221-.145-.47-.153-.558-.019-.088.135.02.362.24.506l.043.026v.002zm-.003.005-3.448-1.723a.8.8 0 0 0 -.046-.02c-.244-.099-.49-.058-.55.09-.06.15.09.351.335.45a.788.788 0 0 0 .047.017v.002zm-.002.006-3.714-1.024v.001a.807.807 0 0 0 -.049-.01c-.26-.05-.493.037-.522.194-.03.158.158.326.417.376a.789.789 0 0 0 .05.008l-.001.001 3.82.454z" fill="#fff"/><path d="m10.455 9.37a1.548 1.548 0 0 0 -1.1-1.899 1.558 1.558 0 0 0 -1.917 1.077 1.548 1.548 0 0 0 1.1 1.898 1.557 1.557 0 0 0 1.917-1.077z" fill="url(#c)"/><path d="m10.241 8.852a.23.23 0 0 0 -.016 0l-1.277.097 1.274.098h.016c.088 0 .16-.043.16-.096.002-.054-.069-.098-.157-.099zm-.004.258a.286.286 0 0 0 -.016-.003l-1.273-.157 1.232.346c.006 0 .011.002.017.003.086.018.164-.01.176-.063.01-.053-.05-.11-.136-.128zm-.058.249a.271.271 0 0 0 -.016-.006l-1.216-.4 1.14.579.015.006c.08.034.163.022.185-.027.021-.05-.027-.118-.108-.152zm-.106.235a.259.259 0 0 0 -.014-.01l-1.113-.63 1.003.79a.25.25 0 0 0 .014.01c.073.05.156.054.186.01.03-.045-.003-.12-.076-.17zm-.145.212a.247.247 0 0 0 -.012-.012l-.971-.838.833.974a.27.27 0 0 0 .011.012c.062.062.143.083.181.045.039-.037.02-.118-.042-.181zm-.187.174a.277.277 0 0 0 -.01-.014l-.789-1.009.627 1.114.01.014c.048.074.123.11.168.08.045-.028.042-.112-.006-.186zm-.215.14a.209.209 0 0 0 -.007-.016l-.578-1.146.399 1.218.006.015c.033.082.1.132.15.112s.063-.102.03-.184zm-.238.09a.332.332 0 0 0 -.004-.016l-.344-1.235.155 1.27.003.016c.017.087.073.15.126.14.052-.01.081-.088.065-.175zm-.246.032-.105-1.283-.088 1.28v.016c0 .089.043.16.096.162.053 0 .097-.07.098-.159v-.016zm-.107-1.283-.334 1.238a.284.284 0 0 0 -.003.016c-.018.087.01.166.063.177.052.012.109-.05.126-.136a.299.299 0 0 0 .003-.016zm-.002-.001-.565 1.145a.242.242 0 0 0 -.006.015c-.034.081-.022.165.027.186s.116-.027.15-.109a.325.325 0 0 0 .006-.015zm-.001-.001-.776 1.007a.223.223 0 0 0 -.009.014c-.049.073-.053.157-.01.188.045.03.12-.004.17-.077a.21.21 0 0 0 .008-.014zm-.002-.001-.957.835a.24.24 0 0 0 -.011.012c-.063.062-.083.143-.046.182s.118.02.18-.042a.227.227 0 0 0 .012-.012l.823-.975zm0-.002-1.098.628a.22.22 0 0 0 -.013.01c-.074.048-.11.124-.08.17.029.044.111.042.185-.007a.266.266 0 0 0 .013-.01l.992-.79zm-.002-.001-1.2.398a.28.28 0 0 0 -.015.006c-.08.033-.13.1-.111.15.02.05.101.064.183.031a.275.275 0 0 0 .015-.007zm-.001-.003-1.251.153a.26.26 0 0 0 -.017.003c-.086.017-.148.074-.138.127s.087.082.173.065a.229.229 0 0 0 .016-.003l1.217-.344zm0-.001-1.274-.096h-.017c-.087 0-.16.043-.16.096 0 .054.07.098.157.099h.017l1.277-.1zm.001-.002-1.233-.344a.267.267 0 0 0 -.016-.003c-.086-.018-.165.01-.176.063s.05.11.135.128l.016.002zm-.001-.002-1.14-.576a.304.304 0 0 0 -.015-.007c-.08-.034-.163-.022-.184.028-.022.049.027.117.107.151l.016.006zm.002-.002-1.004-.788a.284.284 0 0 0 -.014-.009c-.072-.05-.156-.054-.186-.01-.03.045.004.121.076.17l.014.01zm.001-.001-.833-.972a.256.256 0 0 0 -.012-.012c-.061-.063-.143-.083-.18-.045-.04.037-.02.118.041.181a.286.286 0 0 0 .012.012zm.002-.002-.627-1.11a.242.242 0 0 0 -.01-.014c-.048-.074-.123-.11-.168-.08-.045.028-.042.112.006.186l.01.013h-.001l.79 1.007zm.001 0-.399-1.216a.28.28 0 0 0 -.006-.015c-.033-.082-.1-.132-.15-.112s-.063.102-.03.184l.007.015zm.002-.001-.155-1.268a.19.19 0 0 0 -.003-.016c-.017-.087-.073-.15-.126-.14-.052.01-.081.088-.065.175a.24.24 0 0 0 .004.016zm.107-1.296c0-.089-.043-.161-.096-.162-.054 0-.097.07-.098.159a.27.27 0 0 0 0 .016l.09 1.283.104-1.28zm.188-.135c-.052-.012-.109.05-.126.136a.27.27 0 0 0 -.003.016l-.163 1.28.35-1.238a.244.244 0 0 0 .004-.016c.017-.087-.01-.166-.063-.177zm.272.086c-.05-.022-.117.027-.15.108a.326.326 0 0 0 -.007.016l-.404 1.221.582-1.144a.228.228 0 0 0 .006-.015c.034-.082.022-.165-.027-.186zm.251.138c-.044-.03-.12.004-.169.077a.225.225 0 0 0 -.009.014l-.632 1.117.791-1.006a.273.273 0 0 0 .01-.014c.048-.073.053-.157.009-.188zm.222.181c-.037-.039-.118-.02-.18.042a.257.257 0 0 0 -.011.012l-.84.975.974-.835a.262.262 0 0 0 .012-.012c.062-.062.083-.144.045-.182zm.177.224c-.029-.046-.111-.043-.185.006a.252.252 0 0 0 -.013.01v-.001l-1.008.791 1.113-.627a.255.255 0 0 0 .014-.01c.073-.048.108-.124.08-.17zm.137.253c-.02-.05-.102-.064-.183-.03a.257.257 0 0 0 -.015.006l-1.144.58 1.215-.399a.273.273 0 0 0 .015-.006c.082-.033.132-.101.112-.151zm.081.275c-.01-.053-.087-.082-.173-.065a.264.264 0 0 0 -.016.003l-1.233.344 1.267-.152.016-.004c.087-.016.149-.073.139-.126z" fill="#fff"/><path d="m4.475 9.813h8.894v-1.723h-8.894v1.724z" fill="url(#d)"/><g fill="#fff"><path d="m4.643 9.57v-.059h.17v-1.135h-.17v-.06h.669v.06h-.188v1.134h.12c.145.002.187-.01.253-.072a.624.624 0 0 0 .167-.292h.057l-.02.426h-1.057zm1.724-.06h.17v.06h-.643v-.059h.165v-1.135h-.163v-.06h.644v.06h-.173zm.807-.566h.095c.185 0 .242.062.242.26 0 .155-.011.21-.055.255-.036.037-.089.05-.208.05h-.074zm0-.064v-.504h.1c.17 0 .207.047.207.274 0 .19-.04.23-.235.23zm.286.03a.584.584 0 0 0 .205-.066.273.273 0 0 0 .144-.234.273.273 0 0 0 -.076-.181c-.076-.08-.186-.114-.358-.114h-.668v.061h.159v1.134h-.16v.061h.648c.316 0 .5-.126.5-.344a.257.257 0 0 0 -.07-.184c-.068-.074-.14-.104-.324-.132zm1.072-.005h.04c.128.002.206-.074.227-.22h.062v.514h-.06c-.02-.167-.084-.233-.23-.233h-.04v.543h.215c.115.002.19-.03.253-.108a.561.561 0 0 0 .12-.242h.064l-.026.412h-1.095v-.06h.16v-1.135h-.16v-.06h1.057l.017.35h-.063c-.041-.124-.083-.188-.153-.237-.059-.04-.114-.053-.227-.053h-.161zm1.318-.035v-.499h.136c.168 0 .204.046.204.25 0 .193-.05.25-.22.25h-.121zm0 .061h.068c.16 0 .204.06.213.298.006.155.028.222.098.28a.369.369 0 0 0 .23.066c.084 0 .137-.009.205-.047v-.07c-.049.027-.072.033-.106.033-.06 0-.075-.025-.077-.126-.002-.166-.008-.202-.04-.262-.05-.092-.147-.155-.308-.194.259-.035.406-.144.406-.307 0-.117-.098-.223-.247-.264a1.064 1.064 0 0 0 -.277-.028h-.631v.061h.159v1.14h-.16v.06h.632v-.06h-.166v-.58zm2.031-.616.008.412h-.057c-.025-.174-.091-.289-.186-.332a.291.291 0 0 0 -.108-.019h-.02v1.134h.193v.062h-.69v-.06h.188v-1.136h-.028c-.154 0-.235.096-.294.35h-.055l.006-.41h1.043zm.771 0v.061h-.144l.282.53.219-.425.019-.047a.07.07 0 0 0 .01-.028c0-.022-.016-.03-.06-.03h-.049v-.06h.32v.06c-.103.002-.115.008-.164.106l-.267.504v.523h.199v.061h-.698v-.06h.193v-.51l-.36-.625h-.089v-.06zm-3.843-4.188.139.002.05-.129.041.132.139.008-.114.08.036.134-.112-.083-.116.075.044-.131zm3.847 1.71.085.11.133-.042-.078.115.08.113-.133-.04-.083.112-.004-.139-.132-.044.13-.047zm1.141 4.263-.138.014-.035.134-.056-.126-.14.008.104-.092-.051-.129.12.07.107-.089-.029.135zm-2.901 3.086.138.009.057-.127.035.134.138.014-.117.074.029.136-.107-.088-.12.07.05-.13-.104-.092zm-4.198.09.139-.013.036-.133.055.127.139-.008-.105.092.05.13-.12-.071-.107.087.03-.135zm-2.643-3.208.124-.063-.015-.137.098.098.126-.057-.063.123.094.102-.138-.022-.068.12-.022-.137zm.987-4.201.132.041.085-.11.002.139.131.046-.131.045-.004.138-.083-.11-.134.038.08-.113z"/><path d="m8.619 4.234a.163.163 0 0 1 -.156.17c-1.293.057-2.329.893-2.79 1.351a.164.164 0 0 1 -.23 0 .162.162 0 0 1 0-.23c.477-.475 1.587-1.383 3.004-1.445a.163.163 0 0 1 .171.155zm-3.565 2.06a.162.162 0 0 1 .032.228c-.782 1.027-.798 2.354-.738 2.999a.163.163 0 0 1 -.326.03c-.062-.67-.054-2.1.803-3.225a.164.164 0 0 1 .23-.032zm4.327-2.06a.163.163 0 0 0 .156.17c1.293.057 2.329.893 2.79 1.351a.164.164 0 0 0 .23 0 .162.162 0 0 0 0-.23c-.477-.475-1.587-1.383-3.004-1.445a.163.163 0 0 0 -.171.155zm3.565 2.06a.162.162 0 0 0 -.032.228c.782 1.027.797 2.354.738 2.999a.163.163 0 0 0 .326.03c.062-.67.054-2.1-.803-3.225a.164.164 0 0 0 -.23-.032zm-8.526 4.051a.164.164 0 0 1 .198.119c.308 1.251 1.333 2.1 1.874 2.46.075.05.095.152.045.226a.164.164 0 0 1 -.227.045c-.562-.375-1.672-1.282-2.01-2.654a.163.163 0 0 1 .12-.197zm2.773 3.145a.164.164 0 0 1 .214-.086c1.192.501 2.489.19 3.102-.027a.162.162 0 1 1 .11.307c-.638.225-2.032.57-3.34.02a.163.163 0 0 1 -.086-.214zm6.405-3.145a.164.164 0 0 0 -.198.119c-.308 1.251-1.332 2.1-1.873 2.46a.162.162 0 0 0 -.045.226c.05.075.152.095.227.045.561-.375 1.671-1.282 2.009-2.654a.163.163 0 0 0 -.12-.197z"/></g></svg>