<svg height="18" viewBox="0 0 18 18" width="18" xmlns="http://www.w3.org/2000/svg"><path d="m0 0h18v18h-18z" fill="#f0f3fa"/><path d="m5.68 5.39 4.32-2.39v1.23l-3.32 1.7zm2.18 1.11 4.14-2.47v1.23l-3.13 1.78-1-.53z" fill="#ca8e4e"/><path d="m9.1 7.89-5.1-2.69v7.13l4.86 2.54c.37.19.8.17 1.14-.05l4-2.49v-1.17l-4.23 2.66a.65.65 0 0 1 -.66.03l-1.11-.59v-.9l.86.45c.37.2.8.17 1.14-.04l4-2.5v-1.17l-4.23 2.66a.65.65 0 0 1 -.66.03l-4.11-2.16v-.76l3.86 2.02c.37.2.8.17 1.14-.04l4-2.5v-1.17l-4.23 2.66a.65.65 0 0 1 -.66.03l-1.11-.58v-.83l.86.45c.37.19.8.17 1.14-.05l4-2.49v-1.17l-4.23 2.66a.65.65 0 0 1 -.66.03zm-2.1.05-2-1.05v.82l2 1.05zm0 3.9v.9l-2-1.05v-.9z" fill="#693806" fill-rule="evenodd"/></svg>