<svg height="18" width="18" xmlns="http://www.w3.org/2000/svg"><path d="m0 0h18v18h-18z" fill="#132f57"/><path d="m15 7.521h-4.148c.545-1.905 1.038-3.521 1.038-3.521s-1.866 1.857-3.525 3.521h-6.287c-.104 0-.104.049 0 .049.051 0 5.974.265 5.974.265-1.296 1.278-1.996 2.002-2.021 2.026-.052.048 0 .073.051.024.026-.024.96-.82 2.282-2.05l2.047.024c-.13.555-.232 1.061-.388 1.664-2.515 1.255-6.61 3.305-6.61 3.305-.052.024-.026.072.026.048.026-.024 3.836-1.809 6.506-3.063-.44 1.857-.726 3.135-.726 3.16-.026.023.026.047.052 0 0-.025.389-1.303.96-3.281 2.383-1.133 4.769-2.17 4.769-2.17zm-6.3 0c1.245-1.133 2.282-2.05 2.282-2.05s-.182.796-.492 2.05zm2.049.338 2.488.049s-1.244.627-2.93 1.47c.156-.53.286-.988.442-1.519z" fill="#fff"/></svg>