<svg height="18" width="18" xmlns="http://www.w3.org/2000/svg"><path d="m0 0h18v18h-18z" fill="#d61f27"/><path d="m7.768 5.096c1.517-.403 1.732.565 1.675 1.092-.114 1.074-.26 1.402-.493 2.435.983-1.469 2.085-3.628 3.694-3.592.38-.009.754.177.754.177 1.376.925.104 2.839-.936 2.662-.631-.105-.742-.477-.812-1.114-.096-.24-.492-.201-.713.039-1.147 1.298-1.943 3.144-1.943 3.144s-.564 1.517-1.194 2.764c0 0-.177.252-.618.297l-1.451-.016c-.483-.044-.373-.393-.373-.393s1.728-5.357 1.715-5.654c.032-.168-.012-.66-.467-.425-.603.312-.625.743-1.275 1.246 0 0-.331.162-.331-.218.229-.615 1.506-2.132 2.768-2.444z" fill="#fff"/></svg>