<svg height="18" viewBox="0 0 18 18" width="18" xmlns="http://www.w3.org/2000/svg"><path d="m0 0h18v18h-18z" fill="#f0f3fa"/><path d="m3 11.04c.4-.06 1.66-.62 3.48-2.43.92-.9 3.22-2.61 5.7-2.61 1.76 0 2.56.77 2.82 1.25a3.13 3.13 0 0 0 -1.33-.41c-.48 0-2.36.54-2.36 2.17a2.19 2.19 0 0 0 1.5 2.01c.3.05.13.22 0 .3h-9.11zm8-2.2c-.13-.28-.63-.84-1.6-.84-1.21 0-2.36.69-3.09 1.4-.73.72-1.8 1.6-2.31 1.6h5.77c-.26-.1-.77-.47-.77-1.13 0-.83.73-1.32 1.26-1.32.43 0 .66.21.74.3z" fill="#09d"/><path d="m6.23 9.88c-.66.7-1.1 1.04-1.23 1.12h3.35c-.11-.05-.35-.24-.35-.7 0-.56.24-.9.5-.9.22 0 .42.1.5.14-.1-.18-.44-.54-.98-.54-.68 0-1.42.45-1.79.88z" fill="#55c0a1"/><path d="m2 11.5c0-.28.13-.5.3-.5h13.7v1h-13.7c-.17 0-.3-.22-.3-.5z" fill="#09d"/></svg>