<svg height="18" viewBox="0 0 18 18" width="18" xmlns="http://www.w3.org/2000/svg"><path d="m0 0h18v18h-18z" fill="#f0f3fa"/><g fill-rule="evenodd"><path d="m2 6.84v4.49c0 .37.3.67.66.67h2.03c.1 0 .35-.07.44-.28.06.08.22.28.56.28.41 0 .73-.26.73-.67v-.95c.48.06 1.82-.06 2.24-1.12v1.93c0 .45.24.81.68.81s.7-.36.7-.81v-1.57l1.78 2.13a.7.7 0 0 0 .54.25c.33 0 .47-.13.55-.21a1 1 0 0 1 .02-.02c.06.08.28.23.61.23.42 0 .62-.27.62-.71v-1.6h.69c.4 0 .7-.26.7-.67 0-.42-.3-.71-.7-.71h-.69v-.93h1.08c.44 0 .76-.23.76-.67 0-.45-.32-.71-.76-.71h-1.82c-.44 0-.63.36-.63.8v3.86l-1.49-1.76.96-1.73c.28-.5.05-1.17-.56-1.17-.26 0-.5.13-.63.35l-1.04 1.77v-1.3c0-.45-.24-.82-.69-.82-.44 0-.68.37-.68.83v.2c-.17-.29-.9-1.03-1.76-1.03h-1.11c-.4 0-.79.33-.79.74v3.73a.75.75 0 0 0 -.32-.09h-1.08v-3.54c0-.47-.34-.84-.79-.84a.83.83 0 0 0 -.82.84zm4.59.54v1.62h.32c.33 0 .6-.36.6-.8 0-.45-.27-.82-.6-.82h-.31z" fill="#004e91"/><path d="m2.23 11.37v-4.6c0-.28.3-.54.58-.54s.57.26.57.55v3.84h1.21c.22 0 .4.14.48.34h.18v-4.18c0-.3.24-.55.54-.55h1.12c.94 0 1.7.76 1.74 1.72h.24v-1.23a.46.46 0 0 1 .91 0v4.62a.46.46 0 0 1 -.91 0v-3.04h-.24c-.03.97-.8 1.84-1.74 1.84h-.68v1.1c0 .29-.19.52-.47.52a.51.51 0 0 1 -.5-.46h-.16c-.06.24-.26.46-.5.46h-2.05c-.18 0-.33-.21-.33-.4zm4.13-2.41v-1.53c0-.15.1-.28.24-.28h.24c.5 0 .9.47.9 1.04 0 .58-.4 1.04-.9 1.04h-.24c-.13 0-.24-.12-.24-.27zm3.73-.4h-.29v.76h.29l2 2.34c.12.14.33.15.46 0l.32-.33.15.01c.04.24.23.43.47.43.26 0 .48-.23.48-.5v-1.8h.94c.26 0 .4-.15.4-.42s-.14-.51-.4-.51h-.98v-1.39h1.35c.27 0 .5-.15.5-.44a.47.47 0 0 0 -.5-.48h-1.81c-.25 0-.45.22-.45.48v4.18l-.32.07-1.7-2.04 1.1-1.94a.51.51 0 0 0 -.2-.7.46.46 0 0 0 -.63.2l-1.17 2.08z" fill="#f0f3fa"/></g></svg>