<svg height="18" viewBox="0 0 18 18" width="18" xmlns="http://www.w3.org/2000/svg"><path d="m0 0h18v18h-18z" fill="#f0f3fa"/><path d="m12.67 9.45-4.6-2.74c-.17-.8.85-1.64 2.06-1.23.91.32 1.07 1.02.82 2.13l.85.52a16.67 16.67 0 0 1 1.2-3.06c-.1-.08-.21-.13-.33-.19-1.68-.92-3.56-1.2-5.15-.44-1.58.82-2.2 2.18-1.93 3.94l4.4 2.64c.24.12.24.3.18.43-.3.88-1.83 1.62-2.67.35-.3-.44-.3-1.13-.22-1.77l-.8-.47c-.34 1-.87 2.04-1.48 3.13 1.57 1.02 3.5 1.63 5.2 1.13a3.58 3.58 0 0 0 2.6-4.3z" fill="#da2128"/></svg>