<svg height="18" width="18" xmlns="http://www.w3.org/2000/svg"><path d="m0 0h18v18h-18z" fill="#fce30e"/><path d="m2.75 9-.52.08c-.05 0-.07 0-.07-.06a97.18 97.18 0 0 0 -.16-1.15v-.01c-.02-.13-.02-.13.12-.15l.52-.07.52-.07.56-.08.56-.08 1-.13 1.03-.13a122.86 122.86 0 0 0 1.38-.19l.46-.06c.34-.05.67-.1 1-.13l1.02-.14.93-.12.9-.12.93-.13 1-.13.31-.04.62-.08c.12-.02.12-.01.14.11v.01l.07.58.08.58c0 .04.01.06.05.05l.3-.04.21-.03c.06 0 .08-.01.1.07l.19 1.45c0 .04-.01.04-.04.05l-.23.03-.3.04c-.05 0-.06.02-.06.06l.04.3.04.28.03.23.06.45c0 .04-.02.04-.04.04h-.01l-.23.04-.24.03-1.02.14-1.02.13-1.02.14-1.02.13-.9.12-.92.13-.55.07-.48.06-1.01.14-.92.12-.91.12-.55.08-.48.06-1 .14-.3.04-.3.04c-.05 0-.08 0-.08-.06l-.16-1.17v-.08c-.02-.05.01-.06.04-.06h.02l.52-.07c.04 0 .04-.02.04-.06l-.09-.7-.1-.7v-.03c0-.05-.01-.08-.06-.06zm2.43-.71 6.93-.95.12.9-6.93.95zm8.97.08-10.14 1.39.13.9 10.14-1.39z" fill-rule="evenodd"/></svg>