<svg height="18" viewBox="0 0 18 18" width="18" xmlns="http://www.w3.org/2000/svg"><path d="m0 0h18v18h-18z" fill="#f0f3fa"/><g fill="#00004f"><path d="m8.93 14-4.93-1.52 1.94-.6v.6s.44.23.7.3v.31h3.47c0-.12.17-.24.28-.3l1.94-.6v-.31l1.67.6zm.35-9.1v5.47h.89v-4.29l1.1-.56v4.72c0 .9-.73 1.03-1.58 1.03-.84 0-1.52-.13-1.52-1.03v-4.58l1.1-.75zm1.16 1.36v4.4h-1.44v-5.21l-.56.38v4.42c0 .74.56.73 1.25.73.7 0 1.31.01 1.31-.73v-4.26z"/><path d="m8 6.12v5.58h2.67l-.68 1.09-3.27.05v-6.08zm-1 .83v5.6l2.85-.06.3-.49h-2.43v-5.4l-.72.36z"/><path d="m8.72 4.02v.89l-.28.15v-.48l-2.16 1.4v6.2l.14.12v.33l-.42-.2v-6.61zm.84-.02 2.44 1.07v6.88l-1.47.53.14-.3 1.05-.41v-6.53l-1.89-.71v5.53h-.27z"/></g></svg>