<svg height="18" viewBox="0 0 18 18" width="18" xmlns="http://www.w3.org/2000/svg"><path d="m0 0h18v18h-18z" fill="#f0f3fa"/><path d="m14.93 6h.07a36.73 36.73 0 0 0 -2.66 4.63c-.2.41-.44.9-.05 1.3.02.01.02.03.01.05l-.01.01a.05.05 0 0 1 -.06 0c-.38-.28-.8-.7-.6-1.19a22.9 22.9 0 0 1 2.42-4.1l-.01-.02a.04.04 0 0 0 -.05 0l-2.33 2.09h-.07a.05.05 0 0 1 -.02-.03v-.03c.09-.11.16-.24.27-.33l2.36-1.98c.2-.18.48-.27.74-.39z" fill="#575756"/><path d="m10.4 12h-.28c-1.02-.09-1.13-.93-.79-1.63a43.55 43.55 0 0 0 1.36-3.14c0-.06.03-.1 0-.16-.05-.1-.18-.12-.28-.06-1.82.99-2.67 2.52-3.61 4.13-.1.18-.32.15-.47.03-.24-.18-.25-.4-.1-.65.2-.35 1.62-2.88 1.13-3.1a.08.08 0 0 0 -.08 0 12.68 12.68 0 0 0 -3.7 4.38c-.03.07-.1.1-.19.12-.22.04-.3-.15-.34-.3-.07-.28-.09-.4.06-.66a268.7 268.7 0 0 0 2.54-4.7c.3-.55.92-.13.7.35-.32.69-.58 1.38-.93 2.06v.03a.03.03 0 0 0 .03 0h.01c.74-.77 1.5-1.51 2.41-2.13.48-.32 1.03-.18.8.43a35.7 35.7 0 0 1 -.67 1.73h.04c.42-.49 3.09-3.28 3.86-2.6.12.09.14.22.07.38-.6 1.33-1.3 2.72-1.66 4.06-.18.7.03 1.27 1 .92h.03v.03a12.05 12.05 0 0 1 -.93.48z" fill="#ee7f01"/></svg>