<svg height="18" viewBox="0 0 18 18" width="18" xmlns="http://www.w3.org/2000/svg"><path d="m0 0h18v18h-18z" fill="#f0f3fa"/><path d="m14 4.61s-1.59-.61-4.28-.61-6.72 1.49-6.72 3.48c0 1.26 1.58 1.52 2.75 1.52.68 0 .92-.07.92-.07s-2.67.08-2.67-1.54 3.28-3.39 10-2.78z" fill="#003e79"/><g fill="#8a9298"><path d="m10.74 7.64.14-.36c.1 0 .2.03.31.05.42.1.98.22 1.52-.42.17-.2.13-.22.14-.24 0-.02.04-.03.29-.14.28-.14.61-.46.93-.77l.4-.38.53-.38c-.31.5-.72.86-1.05 1.15-.22.2-.4.37-.5.52-.25.4-.26.4-.32.4-.05 0-.15 0-.6.43-.5.48-.86.5-1.16.52-.2 0-.37.01-.56.14-.04.03-.2.24-.34.42a5.61 5.61 0 0 1 -.44.5c-.12.12-.23.22-.36.42l.53-.22c.11.22.2.45.29.69.1.26.2.53.34.8.13.26.14.37.16.6l.01.17c0 .46 0 .6-.25.6.2.1.22.07.23.08l.13.14c-.2.98.07 1.23.28 1.43.08.06.15.13.18.21h-1.14c0-.26.03-.44.06-.6.05-.23.08-.41 0-.72-.05-.14-.06-.24-.06-.31v-.94c-.25 0-.51.06-.79.12-.32.07-.65.15-1 .15-.3.42-.44.58-1 .57l.32.35c-.27.27-.37.4-.44.89l.1.09c.13.1.25.21.34.4-.4 0-.7-.12-.96-.35 0-.15.06-.3.12-.46.06-.13.11-.27.14-.42.06-.35.04-.47.08-.56.04-.07.11-.12.3-.25.24-.17.25-.2.26-.3a1.4 1.4 0 0 1 .2-.52c.07-.1.11-.16.18-.6l-.17.22c-.12.17-.16.24-.47.24l.06-.18c.05-.08.1-.1.14-.1.1-.03.24-.07.58-.86l-.44-.23c-.98-.53-.48-2.23.61-2.56.15-.05.29-.07.41-.07.58 0 .85.33.81 1.04-.04.78-.32 1.02-.67 1.34l-.14.12c.89-.27 1.11-1.13 1-2.14 0-.3 0-.32.06-.4l.14-.33-.2-.14.14-.18c.2-.3.48-.67.88-.44v.86c-.28.18-.36.2-.38.25-.02.06.07.16-.04.68-.04.2-.14.35-.23.49-.07.1-.13.2-.17.31.35-.3.41-.46.54-.82zm-1.98.1a3.6 3.6 0 0 1 -.08-.17c1.37.21.06 1.92-.54 1.04l.16-.04c.2-.03.44-.08.5-.25.12-.28.07-.39-.04-.58z" fill-rule="evenodd"/><path d="m9.59 5.43c-.06-.13-.07-.2-.22-.3-.52-.33-.32.05-.37.12l.26.2c-.13.13-.1.07-.13.28.15.3 0 .22.32.27h.55c0-.25-.07-.23-.14-.4-.14-.15-.13-.1-.27-.17z"/></g></svg>