<svg height="18" width="18" xmlns="http://www.w3.org/2000/svg"><path d="m0 0h18v18h-18z" fill="#f0f3fa"/><path d="m7.89 13c-.1 0-.2-.02-.3-.07a.72.72 0 0 1 -.33-.94l1.82-4.02a.7.7 0 0 1 .92-.35c.35.17.5.6.34.95l-1.84 4.02a.69.69 0 0 1 -.62.41z" fill="#1a6232"/><path d="m13.75 6.07c-.3-.48-.8-.87-1.36-.87h-2.44c-.38 0-.72.36-.72.75 0 .4.33.75.72.75h2.51c1.47 0 1.27 1.21 1.27 1.21l.12-.26c.23-.51.2-1.1-.1-1.58z" fill="#0e4c85"/><path d="m12.48 6.7c.06.02.09.06.1.1.03.03.07.11.02.21l-2.26 4.99a.72.72 0 0 0 .33.94.68.68 0 0 0 .92-.34l2.14-4.68s.21-1.21-1.25-1.21z" fill="#153156"/><path d="m4.7 13c-.1 0-.2-.02-.3-.07a.72.72 0 0 1 -.33-.94l3.41-7.58a.7.7 0 0 1 .92-.34c.35.16.5.59.34.94l-3.42 7.58a.69.69 0 0 1 -.63.41z" fill="#1a6232"/></svg>