<svg height="18" width="18" xmlns="http://www.w3.org/2000/svg" xmlns:xlink="http://www.w3.org/1999/xlink"><linearGradient id="a" gradientUnits="userSpaceOnUse" x1="3.349" x2="21.904" y1="3.122" y2="24.434"><stop offset="0" stop-color="#1a1e21"/><stop offset="1" stop-color="#06060a"/></linearGradient><path d="m0 0h18v18h-18z" fill="url(#a)"/><path d="m12.109 7a15.148 15.148 0 0 1 -.59 2.743c.15.393.325.768.525 1.12.715-1.16 1.027-3.003 1.142-3.863h-1.076zm-7.496-.854c.1-.001.2.01.298.035h.002c-1.213 1.065-1.67 3.768-1.803 4.82h-1.11c.175-1.287.859-4.855 2.613-4.855zm2.734.997c.264.451.527 1.07.825 1.94v.005c.483 1.41.917 2.259 1.399 2.724-.111.031-.224.046-.338.046-.848 0-1.435-.795-2.168-2.936a17.206 17.206 0 0 0 -.236-.657 5.9 5.9 0 0 1 .518-1.122z" fill="#72cdf4"/><path d="m13.492 7c-.108.878-.436 2.91-1.246 4.173.132.188.287.346.458.468 1.236-.788 1.714-3.519 1.86-4.641zm-7.041-.935a1.572 1.572 0 0 0 -.938.013v.002c.16.147.307.316.441.504.151-.196.318-.37.497-.519zm-1.154.293c.17.122.326.28.459.467l.003.001c-.809 1.26-1.139 3.296-1.247 4.174h-1.072c.146-1.097.63-3.864 1.858-4.642zm2.77 0c.51.358.957 1.17 1.489 2.724l.002.002c.306.907.596 1.584.894 2.07-.15.199-.325.363-.516.487-.51-.358-.956-1.169-1.49-2.724-.306-.909-.6-1.587-.893-2.072.15-.198.324-.362.513-.487zm2.108 5.573-.005.005-.001-.007zm0 0a3.32 3.32 0 0 0 .491-.521c.134.188.282.357.442.505a1.567 1.567 0 0 1 -.933.016z" fill="#00a4e4"/><path d="m14.894 7c-.133 1.053-.593 3.76-1.8 4.819.097.023.194.034.292.034 1.76 0 2.44-3.565 2.614-4.853zm-8.757-.164-.004.006.001-.012zm0 0c.159-.212.343-.388.545-.52.184.13.35.3.49.503a5.783 5.783 0 0 0 -.524 1.051 7.615 7.615 0 0 0 -.51-1.034zm1.698-.77a1.571 1.571 0 0 0 -.936.012l-.002.002c.16.148.308.317.442.505.15-.196.317-.37.496-.52zm-1.87 1.081c.197.351.372.724.52 1.115v-.001c-.277.88-.475 1.8-.589 2.74h-1.073c.116-.864.43-2.701 1.141-3.854zm5.39 2.976c-.143.376-.32.73-.525 1.051.14.208.306.382.49.514.205-.132.39-.31.549-.525a7.785 7.785 0 0 1 -.514-1.04zm.64 1.877c.167 0 .334-.026.497-.079l-.002-.005a3.2 3.2 0 0 1 -.442-.506c-.151.198-.318.375-.497.526.146.043.295.065.444.064zm-3.223-5.855c.847 0 1.434.797 2.168 2.938v-.004c.077.228.156.448.236.657-.137.4-.311.777-.518 1.121-.265-.453-.527-1.071-.825-1.94-.483-1.41-.917-2.259-1.4-2.726.112-.03.225-.046.339-.046z" fill="#0081c6"/></svg>