<svg height="18" width="18" xmlns="http://www.w3.org/2000/svg"><path d="m0 0h18v18h-18z" fill="#f0f3fa"/><g fill="#0c0c01"><path d="m6.5 6.5v5h-.5v-3.9l-1.62 3.08h-.32l-1.56-3.08v3.9h-.5v-5h.47l1.75 3.34 1.76-3.34z"/><path d="m11.62 11.5-.84-.82c-.31.47-.73.82-1.46.82-.93 0-1.57-.67-1.57-1.4 0-.6.4-.98 1.15-1.39-.43-.41-.67-.75-.67-1.15 0-.6.52-1.06 1.16-1.06.67 0 1.12.47 1.12 1.06 0 .56-.42.94-.89 1.23l1.07 1.12.64-.98.43.26-.67 1.07.88.88zm-2.42-2.48c-.68.36-.97.64-.97 1.08 0 .5.47.93 1.08.93.56 0 .84-.25 1.15-.72zm.12-.52c-.42-.43-.6-.65-.6-.93 0-.34.33-.6.66-.6.34 0 .64.24.64.6 0 .38-.2.65-.7.93z" fill-rule="evenodd"/><path d="m16 7.6-.46.15c-.26-.45-.57-.75-1.22-.75-.7 0-1.12.36-1.12.82 0 1.21 2.8.57 2.8 2.29 0 .82-.73 1.39-1.68 1.39-.94 0-1.5-.43-1.9-1.13l.4-.31c.29.51.7.94 1.5.94.7 0 1.12-.36 1.12-.9 0-1.08-2.83-.62-2.83-2.28 0-.98.98-1.32 1.66-1.32.78 0 1.49.34 1.73 1.1z"/></g></svg>