<svg height="18" width="18" xmlns="http://www.w3.org/2000/svg" xmlns:xlink="http://www.w3.org/1999/xlink"><linearGradient id="a"><stop offset="0" stop-color="#d859d3"/><stop offset="1" stop-color="#882784"/></linearGradient><linearGradient id="b" gradientUnits="userSpaceOnUse" x1="9.7" x2="6.61" xlink:href="#a" y1="5.18" y2="6.86"/><linearGradient id="c" gradientUnits="userSpaceOnUse" x1="5.58" x2="5.78" y1="6.76" y2="10.77"><stop offset="0" stop-color="#0097ff"/><stop offset="1" stop-color="#005bd5"/></linearGradient><linearGradient id="d"><stop offset="0" stop-color="#00b08c"/><stop offset="1" stop-color="#009d7a"/></linearGradient><linearGradient id="e" gradientUnits="userSpaceOnUse" x1="5.7" x2="8.18" xlink:href="#d" y1="10.53" y2="11.99"/><linearGradient id="f" gradientUnits="userSpaceOnUse" x1="12.64" x2="9.3" xlink:href="#d" y1="6.68" y2="5.57"/><linearGradient id="g" gradientUnits="userSpaceOnUse" x1="11.88" x2="11.88" y1="5.5" y2="11.55"><stop offset="0" stop-color="#005bd5"/><stop offset="1" stop-color="#0097ff"/></linearGradient><linearGradient id="h" gradientUnits="userSpaceOnUse" x1="7.62" x2="11.41" xlink:href="#a" y1="12.64" y2="11.08"/><path d="m0 0h18v18h-18z" fill="#f0f3fa"/><circle cx="9" cy="9" fill="#005bd5" r="1.25"/><path d="m10.07 7.3c.19-.72.14-2.08-1.19-3.3-.64 0-3.07.22-4.44 2.9.17-.08 2.45-.7 3.62.33a2 2 0 0 1 2 .08z" fill="url(#b)"/><path d="m8.07 7.23c-.61-.55-1.89-.9-3.62-.34l-.01.02c-.2.48-1.18 2.86.7 5.37.07-.84.6-2.53 1.88-3a2.02 2.02 0 0 1 1.05-2.05z" fill="url(#c)"/><path d="m7.02 9.26c-.71.27-1.75 1.2-1.9 3 .4.5 1.62 1.5 3.28 1.73-.5-.67-1.3-2.26-.69-3.46a2 2 0 0 1 -.7-1.27z" fill="url(#e)"/><path d="m10.94 8.52a3.2 3.2 0 0 0 1.6-3.06 5 5 0 0 0 -3.66-1.46c.56.63 1.53 1.82 1.17 3.3a2 2 0 0 1 .88 1.22z" fill="url(#f)"/><path d="m9.94 10.76c.48.48 1.59 1.04 3.43.67.25-.39.74-1.5.6-2.9a4.93 4.93 0 0 0 -1.44-3.06c.05.71-.17 2.22-1.6 3.03a2 2 0 0 1 -.99 2.26z" fill="url(#g)"/><path d="m7.7 10.52c-.35.66-.44 1.87.63 3.46.92.1 3.5.03 5.05-2.55-.21.05-2.35.42-3.42-.67a2 2 0 0 1 -2.26-.24z" fill="url(#h)"/></svg>