<svg height="18" width="18" xmlns="http://www.w3.org/2000/svg"><path d="m0 0h18v18h-18z" fill="#c6003d"/><g fill="#fff"><path d="m12.14 12.635c-.09.364-.414.534-.576.61l-4.13-9.035c.257-.083.556-.17.828-.211l3.878 8.635zm-2.14-8.631 3.312 7.358c1.818-2.82-.132-6.69-3.312-7.358zm.067 9.403-1.91-4.36c-.036 1.544-1.713 2.898-3.209 2.728.685 1.245 2.274 2.038 3.507 2.197.544.06 1.426.085 1.612-.565z"/><path d="m4.083 9.93c.559.456 1.244.583 1.983.515.703-.116 1.37-.7 1.532-1.419.172-.634.046-1.037-.174-1.513a205.47 205.47 0 0 0 -1.264-2.682c-1.64 1.135-2.432 3.16-2.078 5.1z"/></g></svg>