<svg height="18" width="18" xmlns="http://www.w3.org/2000/svg"><path d="m0 0h18v18h-18z" fill="#004a98"/><path d="m4.643 6.125c-.068-.424-.325-.726-.86-.883l-.087-.023-.08-.02-.076-.017-.07-.012-.06-.01-.087-.015-.033-.003v-.142h3.161l1.943 3.99.862 1.758.816-1.759 1.87-3.989h2.945v.142l-.027.003-.07.009-.103.014-.13.022c-.244.052-.437.097-.629.242l-.05.04-.04.04-.036.04-.033.036-.023.034-.024.035-.03.057-.016.045-.007.028-.003.009v5.324c.035.717.203 1.497 1.194 1.646l.047.003.066.005h.027v.226h-4.307v-.265l.027.006.073.011c.835.09 1.247-.516 1.247-1.244l.02-2.518v-3.5l-1.606 3.5-1.46 3.132-.41.878-.43-.878-1.557-3.132-1.673-3.355v5.43c.03.73.18 1.549 1.197 1.702l.047.003.066.005h.027v.225h-3.261v-.225l.037.003h.096l.067-.003.076-.005.084-.012c1.097-.193 1.283-.96 1.283-1.704v-4.93z" fill="#fff"/></svg>