<svg height="18" viewBox="0 0 18 18" width="18" xmlns="http://www.w3.org/2000/svg"><path d="m0 0h18v18h-18z" fill="#f0f3fa"/><g fill="#6f3243"><path d="m10.47 7.82-2.94-3.22.3-.3 2.93 3.24-.29.3z"/><path d="m8.41 5.18.88-.89.3.3-.88.88-.3-.3zm.59.88 1.47-1.47.3.3-1.48 1.46-.29-.3zm.88.59 1.77-1.77.3.3-1.77 1.76-.3-.3zm.46 1.01 1.9-1.9.29.3-1.9 1.9-.3-.3zm-3.99 5.16 6.77-6.17.3.3-6.77 6.17zm1.18.44 5.88-5.44.3.3-5.89 5.44-.3-.3zm1.62.3 4.26-3.97.3.3-4.27 3.96-.3-.3zm-.62-6.2-2.18-2.48.3-.3 2.18 2.48zm-1.13.62-1.94-2.22.3-.29 1.91 2.21-.29.3z"/><path d="m8.7 11.06-3.81-4.41.3-.3 3.81 4.41zm-.88.59-3.52-3.83.3-.3 3.53 3.83-.3.3zm-.88.88-2.64-2.94.3-.3 2.65 2.95-.3.29z"/><path d="m9 14a5 5 0 1 0 0-10 5 5 0 0 0 0 10zm0-.59c2.5 0 4.41-1.92 4.41-4.41 0-2.5-1.92-4.41-4.41-4.41a4.34 4.34 0 0 0 -4.41 4.41c0 2.5 1.92 4.41 4.41 4.41z" fill-rule="evenodd"/><path d="m7.32 8.88c.24-.8.89-1.38 1.65-1.38.8 0 1.48.64 1.68 1.5l.35-.36c-.31-.96-1.1-1.64-2.03-1.64-.87 0-1.62.6-1.97 1.47l.32.4z"/></g></svg>