<svg height="18" viewBox="0 0 18 18" width="18" xmlns="http://www.w3.org/2000/svg"><path d="m0 0h18v18h-18z" fill="#f0f3fa"/><path d="m13.64 8.71 1.36-1.71h-1.1l-.8 1z" fill="#005cb9"/><path d="m3 11v-2c0-1 .47-2 2-2 .4 0 1.28.31 1.5 1 .1-.29.52-1 1.5-1 .68 0 1.22.3 1.56.63.38-.39.9-.63 1.44-.63.74 0 1.38.36 1.7 1l1.8 3h-1.1l-1.45-2.48c-.18-.35-.54-.52-.95-.52-.6 0-1 .36-1 .99v.01c0 .63.4 1 1 1 .35 0 .66-.12.86-.4l.43.78c-.35.38-.75.62-1.29.62-1.05 0-2-.9-2-2v-.01c0-.85-.5-.99-1-.99s-1 .29-1 1v2h-1v-2c0-.38-.13-1-1-1s-1 .71-1 1v2z" fill="#888"/></svg>