<svg height="18" width="18" xmlns="http://www.w3.org/2000/svg"><path d="m0 0h18v18h-18z" fill="#f0f3fa"/><path d="m5.667 11v-.247l.17-.01c.14-.008.23-.03.266-.071.036-.04.058-.176.063-.414.013-.476.022-1.254.022-1.811 0-.297 0-.634-.004-1.007-.005-.23-.018-.369-.04-.418a.142.142 0 0 0 -.064-.063c-.031-.018-.166-.032-.413-.05v-.242h1.443c.103.247.21.49.323.728.081.17.427 1.237 1.052 2.522.656-1.321 1.115-2.626 1.38-3.25h1.371v.242c-.252.018-.396.036-.427.068-.031.027-.054.117-.063.265-.013.243-.022.706-.022 1.389 0 .346.004 1.039.013 1.421.01.382.023.557.04.606.014.032.032.027.06.045.026.014.16.032.404.054v.243s-1.843.01-1.843 0v-.238l.17-.005c.135-.004.22-.022.252-.058.036-.032.059-.095.068-.23.009-.134.013-.75.013-1.254v-1.748c-.297.598-.679 1.713-1.137 2.68-.189.395-.337.606-.445.853h-.199c-.144-.333-.337-.633-.584-1.141l-1.002-2.392v.395c0 1.088.005 2.1.018 2.513.005.166.027.27.068.306.04.04.18.063.431.076v.243z"/><path d="m3 6c.286-.508.603-.92.938-1.234.544-.51 1.134-.766 1.729-.766.592 0 1.184.256 1.729.766.334.313.65.726.937 1.234l-.363.289a4.69 4.69 0 0 0 -.76-.96c-.49-.458-1.017-.743-1.543-.743-.527 0-1.054.285-1.543.744a4.689 4.689 0 0 0 -.76.959zm11.833 6c-.286.508-.603.92-.938 1.234-.544.51-1.134.766-1.729.766-.592 0-1.184-.256-1.729-.766-.334-.313-.65-.726-.937-1.234l.363-.289c.238.388.494.707.76.96.49.458 1.017.743 1.543.743.527 0 1.054-.285 1.543-.744.267-.252.523-.571.76-.959z" fill="#ed1c24"/></svg>