<svg fill="none" height="18" viewBox="0 0 18 18" width="18" xmlns="http://www.w3.org/2000/svg"><path d="m0 0h18v18h-18z" fill="#f0f3fa"/><path d="m5.9126 11h-.9126l1.00749-4 1.26524.0014.16541 2.66361 1.19822-2.66361 1.36364-.0014-.62325 4h-.91261l.49642-3.18598-1.36449 3.18598h-.77789l-.16513-2.93975z" fill="#009e5a"/><g clip-rule="evenodd" fill-rule="evenodd"><path d="m14 7.94901c0 .72751-.9327.90566-.9327.90566l-.0699.00234c.4022.12572.8058.38179.8058.90329 0 1.0393-1.6176 1.2397-2.4336 1.2397-.8055 0-1.3554-.0868-1.3696-.089l.8304-3.80821c2.1495-.31178 3.1696.11871 3.1696.84622zm-2.6993 2.25939c.463.0695 1.2493-.0028 1.2493-.51499 0-.51069-1.0441-.40825-1.0502-.40774zm1.4897-2.09609c0 .4454-.6729.49254-1.1015.43557l.1781-.76171c.0058-.00075.9234-.11784.9234.32614z" fill="#009e5a"/><path d="m14.3231 6.95192s.3808-.28798.6744.04808c0 0 .1899-1.69191-2.72-1.97003-2.90992-.27812-6.2775 1.47076-6.2775 1.47076s2.55592-.99853 4.7837-.99853c2.2278 0 3.2208.74456 3.5394 1.44972z" fill="#4d5258"/><path d="m5.08333 8s-2.08333 1.46097-2.08333 2.7631c0 1.302 1.36403 2.2369 3.46883 2.2369 2.10479 0 3.34237-.1313 6.53117-1.3889 0 0-2.8907.8333-4.78772.8333s-4.37895-.2791-4.37895-2.1599c0-1.1232 1.25-2.2845 1.25-2.2845z" fill="#4d5258"/></g></svg>