<svg height="18" width="18" xmlns="http://www.w3.org/2000/svg"><path d="m0 0h18v18h-18z" fill="#f0f3fa"/><path d="m3.687 5.362 1.996-1.362 1.317 1.053 1.433-1.053 1.348 1 1.291-1 1.928 1.053v2.394l-2 1.61v-3.115s-.066-.679-1-.679v7.737h-2v-7.161s-.015-.575-1-.575v7.736h-2v-6.893s-.022-.903-1.313-.745z" fill="#0d2f8b"/><path d="m13.982 7.042-2.982 2.45v1.943l1.915 1.519 2.472-1.844-.112-.108s-.674.65-1.236.542c-.9-.109-1.04-.65-1.04-1.464v-1.844s.534.705 1.04.705c.45 0 .899-.38 1.348-.814z" fill="#f41521"/></svg>