<svg height="18" width="18" xmlns="http://www.w3.org/2000/svg"><path d="m0 0h18v18h-18z" fill="#f0f3fa"/><path d="m9 14a5 5 0 1 0 0-10 5 5 0 0 0 0 10zm0 1a6 6 0 1 0 0-12 6 6 0 0 0 0 12z" fill="#a18c5e" fill-rule="evenodd"/><path d="m6.91 11.2-1.71 1.96.6.48 1.67-1.76c-.06-.17-.55-.66-.55-.66z" fill="#c7893c"/><path d="m8.44 8.22-4.52 3.31.08.16c1.46-1.1 4.36-3.31 4.44-3.35.1-.06.44-.44.5-.63.07-.2.21-.37.31-.47s.24-.25.24-.41c0-.13.16-.22.24-.25a.9.9 0 0 0 .48-.2c.14-.21.44-.21.57-.19h1.19l.8.8.1.6c.08.16.22.49.18.63-.05.17-.3.3-.37.39a8.6 8.6 0 0 1 -.47.47l-.24.07v.18l-1.32.97c-.41 0-1.3.02-1.5.06-.2.05-.26.15-.27.2l.17-.07 1.6-.07c.51-.3 2.23-1.62 2.4-2.08.14-.38-.06-.74-.17-.87v-.48l-.82-.88a11 11 0 0 1 -1.28 0c-.33-.04-.55.06-.63.19-.09.13-.33.15-.42.18-.1.04-.29.2-.33.35-.03.12-.18.32-.25.41a.78.78 0 0 0 -.27.4c-.04.2-.3.46-.44.58z" fill="#e8b77c"/><path d="m5.85 10.12-1.92 1.41c.34.59 1.04 1.4 1.26 1.62l1.73-1.94c-.2-.47-.9-.99-1.07-1.1z" fill="#e8b46b"/><path d="m13.07 8.14-.07-.38-.13-.4-.08-.36-.9-.82c-.32 0-1.14-.03-1.34-.02-.2 0-.52.3-.73.41-.32-.08-.5.55-.65.74-.12.16-.46.68-.62.94l-1.2.9c.18.03.82.54 1.11.8l1.05-.83-.28-.15c.24-.14.64-.72.83-1.03.23.12.5.3.58.39.72.07 2.15.16 2.23.13s.2-.15.2-.32z" fill="#e6b46d"/><path d="m9.48 9.11-1.05.87.39.5 1.87-.18 1.42-1.08.77-.78-1.2-.07-.99-.06-.63-.42-.85 1.08z" fill="#cb893e"/><path d="m11.76 8.2c.12-.22.4-.37.54-.42.36.14.7.5.41.63-.28.14-.41.34-.41.44 0 .08-.18.09-.26.08-.15-.15-.4-.5-.28-.72zm-1.64-1.46v-.26l.46-.22h1.29l-1.14.71-.2-.23h-.4z" fill="#f7d192"/><path d="m10.11 8.88c-.13 0-.46.1-.61.15h.5c.02.35.39.46.57.48.78.02 1.08-.33 1.18-.37s0-.4-.24-.26c-.19.12-.55.1-.71.06a9.19 9.19 0 0 0 -.69-.06z" fill="#e5b56d"/><path d="m10.14 12.28c-1.14-2.16-2.39-3.03-2.9-3.19l-.23.13c1.4.54 3.48 3.6 2.95 3.75-.43.12-.6-.18-.63-.34.04-.47-.4-1.18-.62-1.48l-.1.22c.17.26.52.84.53 1.08s-.12.14-.2.06l-.67-.87-.12.18c.34.47 1.17 1.4 1.71 1.4.55 0 .41-.63.28-.94z" fill="#a18c5e"/><path d="m7.17 11.63c-.6-1.08-1.22-1.43-1.46-1.48l.17-.12a.86.86 0 0 1 .1-.32.66.66 0 0 1 .55-.12l.48-.38c.48.22 1.02.64 1.23.82.33.22.84.83.24 1.5-.6.68-1.12.35-1.31.1z" fill="#ebd453"/><path d="m7.45 11.62c-.31-.47-.77-1.06-.96-1.3l.6.49.72-.7a2.23 2.23 0 0 0 -.83-.58l.11-.07c.6.2 1.36 1 1.4 1.07.05.07.27.38-.16.88-.35.4-.73.3-.88.2z" fill="#884928"/><path d="m7.81 10.58-.56.54c.32.77.88.33 1.07.07.16-.2.04-.24-.03-.24-.28.17-.5.07-.58 0 .25.03.51-.11.42-.31-.07-.16-.24-.1-.32-.06z" fill="#ebd453"/><path d="m10.89 6.97 2.26-1.86.72.8-1.61 1.54c-1.06.38-1.35-.16-1.37-.48z" fill="#423932"/><path d="m14.32 4.45-1.03.86.4.42 1.1-.9a.29.29 0 0 0 0-.38c-.14-.15-.37-.06-.47 0z"/><g fill="#faec34"><ellipse rx=".6" ry=".75" transform="matrix(.7733 -.63404 .63093 .77584 12.4 6.49)"/><ellipse rx=".6" ry=".75" transform="matrix(.7733 -.63404 .63093 .77584 13.73 5.33)"/></g></svg>