<svg height="18" viewBox="0 0 18 18" width="18" xmlns="http://www.w3.org/2000/svg"><path d="m0 0h18v18h-18z" fill="#f0f3fa"/><path d="m8.9 14c.33 0 1.1 0 1.5-.2-2 0-2.3-1.71-2.2-2.56-.68 0-1.39-.98-1.39-1.7 0-.7.4-1.22 1.4-2.1s.93-1.72.53-2.27-1.17-.54-1.32-.54c-.16-0-3.42.25-3.42 4.45s4.49 4.92 4.9 4.92z" fill="#002d5c"/><path d="m9.1 4c-.33 0-.94 0-1.5.2 2 0 2.3 1.71 2.2 2.56.68 0 1.39.98 1.39 1.7 0 .7-.4 1.22-1.4 2.1s-.93 1.72-.53 2.27 1.17.54 1.32.54c.16 0 3.42-.25 3.42-4.45s-4.35-4.92-4.9-4.92z" fill="#bb0511"/><path d="m10.22 8.46c.63-.97-.06-1.41-.49-1.5-.49 1.56-1.45 1.5-2.07 2.74-.5.98.21 1.22.61 1.27.27-1.09 1.17-1.29 1.95-2.5z" fill="#898989"/></svg>