<svg height="18" width="18" xmlns="http://www.w3.org/2000/svg"><path d="m0 0h18v18h-18z" fill="#005a97"/><g fill="#fff"><path d="m8.738 8.827c-.025.3-.361.302-.526.266-.126.114-.17.355-.177.461-.035.555.59.747.908.774v.457c-.71.45-.28.909.023 1.082v.396c-.627.385-.238.777.035.924v.324c-.455.3-.19.582 0 .687v.214c-.78-.287-.507-.793-.272-1.01-.774-.53-.392-1.09-.104-1.303-.763-.472-.465-1.138-.22-1.412-.324-.098-.956-.462-.9-1.133.054-.67.51-.956.73-1.015.179-.029.528-.012.503.288zm.525 0c.025.3.361.302.526.266.126.114.17.355.177.461.035.555-.59.747-.908.774v.457c.71.45.28.909-.023 1.082v.396c.627.385.239.777-.034.924v.324c.455.3.19.582 0 .687v.214c.78-.287.506-.793.271-1.01.774-.53.392-1.09.104-1.303.763-.472.465-1.138.22-1.412.324-.098.956-.462.9-1.133-.054-.67-.51-.956-.73-1.015-.179-.029-.528-.012-.503.288z"/><path d="m7.469 5.882c.355 0 .957.488 1.2.756l-.05-.61.415-.11.332.11-.062.61c.272-.253.849-.756 1.188-.756.34 0 .553.118.99.118h3.518l-.374.333-1.098.725-1.1.678-1.47 1.04c-.517-.95-1.377-.883-1.757-.71l-.125 6.792c.003.044-.008.136-.075.142-.067.005-.086-.093-.087-.142l-.13-6.792c-1.08-.336-1.674.347-1.823.71l-1.455-1.039-1.104-.68-1.108-.73-.294-.327h3.536c.223 0 .54-.118.933-.118z"/><path d="m9.6 5.588a.594.594 0 0 1 -.6.589.594.594 0 0 1 -.6-.589c0-.325.269-.588.6-.588s.6.263.6.588z"/></g></svg>