<svg height="18" viewBox="0 0 18 18" width="18" xmlns="http://www.w3.org/2000/svg"><path d="m0 0h18v18h-18z" fill="#f0f3fa"/><path d="m12.92 5.78a.5.5 0 1 0 -.83-.56.5.5 0 0 0 .83.56zm-.77 2.72c.15-.29.35-.74.46-1 .27-.61-.74-.99-.98-.38a13.1 13.1 0 0 1 -1.72 2.94c-.91 1.37-3.4 3.04-4.44.94-.53-1.01-.5-2.48.08-3.2 1.19-1.23 3.16.34 4.43 1.4a9 9 0 0 0 .53-.9c-7.02-6.24-8.59 4.29-3.61 4.7 1.64 0 2.94-1.17 3.86-2.34.53-.68.99-1.4 1.38-2.16zm1.6 4.43a.56.56 0 0 1 -.4.06.53.53 0 0 1 -.33-.23s-.72-1.06-1.64-2.12c.22-.27.43-.55.62-.85.7.79 1.33 1.6 1.92 2.46.07.1.1.24.07.37a.5.5 0 0 1 -.24.32z" fill="#f04a22"/></svg>