<svg height="18" viewBox="0 0 18 18" width="18" xmlns="http://www.w3.org/2000/svg"><path d="m0 0h18v18h-18z" fill="#f0f3fa"/><path d="m13.58 7h-.52c-.23 0-.41.2-.41.45v.2c0 .24.18.45.41.45h.52c.23 0 .42-.2.42-.45v-.2c0-.25-.19-.45-.42-.45zm-2.4 0h-.31c-.21 0-.38.2-.38.45v.05c0 .25.17.45.38.45h.31c.22 0 .39-.2.39-.45v-.05c0-.25-.17-.45-.39-.45z" fill="#005299"/><path d="m12.65 7.47v3.6c0 .27-.26.5-.53.5s-.55-.23-.55-.5v-3.6h-1.08v3.6c0 .27-.28.5-.55.5a.53.53 0 0 1 -.53-.5v-2.65l-1.41.93v1.79c0 1.08.63 1.86 1.7 1.86.28 0 .55-.08.79-.24.23-.15.42-.38.54-.64.29.59.7.88 1.24.88.94 0 1.73-.68 1.73-1.7v-3.83z" fill="#005299"/><path d="m4.94 9.9h-.52c-.23 0-.42.2-.42.45v.2c0 .24.19.45.42.45h.52c.23 0 .41-.2.41-.45v-.2c0-.25-.18-.45-.41-.45zm1.71.14h-.3c-.2 0-.35.2-.35.45v.06c0 .24.16.45.35.45h.3c.2 0 .35-.2.35-.45v-.06c0-.25-.16-.45-.35-.45z" fill="#0f2953"/><path d="m5.35 10.54v-3.6c0-.28.12-.52.39-.5.2 0 .26.14.26.42v3.68h1v-3.6c0-.28.24-.52.51-.5.27-.02.49.22.49.5v1.82l1.4-.92v-.98c0-1.07-.3-1.86-1.47-1.86-.5 0-1.08.38-1.3.88-.15-.47-.53-.88-1.06-.88-.94 0-1.57.7-1.57 1.7v3.84z" fill="#0f2953"/><path d="m9.4 8.79-1.4 1v-1.17l1.4-1v1.18z" fill="#89b3d3"/></svg>