<svg height="18" viewBox="0 0 18 18" width="18" xmlns="http://www.w3.org/2000/svg"><path d="m0 0h18v18h-18z" fill="#f0f3fa"/><path d="m9 15a6 6 0 1 0 0-12 6 6 0 0 0 0 12zm0-1.31a4.69 4.69 0 1 0 0-9.39 4.69 4.69 0 0 0 0 9.38z" fill="#2e5eb2" fill-rule="evenodd"/><path d="m9 14.13a5.13 5.13 0 1 0 0-10.26 5.13 5.13 0 0 0 0 10.26zm0 .35a5.48 5.48 0 1 0 0-10.96 5.48 5.48 0 0 0 0 10.96z" fill="#f2f2f2" fill-rule="evenodd"/><path d="m9.01 13.32h-.01c-.27-.08-.7-.35-.33-.9-1.14-.53-3.48-2.02-3.72-3.74-.3-2.17 1.34-2.93 2.12-2.9.78.01.98.67.76.95s-.94.12-1.3-.2c-.43.15-1.26.72-1.14 1.8.14 1.37 2.91 3.26 3.61 3.27.7-.01 3.48-1.9 3.61-3.25a1.72 1.72 0 0 0 -1.14-1.8c-.36.31-1.08.47-1.3.2-.22-.29-.02-.95.76-.97s2.43.74 2.12 2.9c-.24 1.73-2.58 3.22-3.72 3.75.37.55-.06.82-.33.9z" fill="#c8cbdd"/><path d="m5.12 10v-2h.45l.63 1.36.6-1.36h.44v2h-.44v-1.23l-.6 1.23h-.17l-.56-1.23v1.23zm5.64 0v-2h.46l.63 1.36.6-1.36h.43v2h-.43v-1.23l-.6 1.23h-.18l-.55-1.23v1.23zm-.92-1.2h.49v1.2h-.49zm-.49-.8h-.5v.8h-.75v-.8h-.51v2h.5v-.95h.76v.95h.5z" fill="#2e5eb2"/><path d="m10.08 8.61a.46.46 0 1 0 0-.92.46.46 0 0 0 0 .92zm-.1-.74h.21v.2h.19v.2h-.19v.19h-.21v-.19h-.19v-.2h.19z" fill="#7ba052"/></svg>