<svg height="18" viewBox="0 0 18 18" width="18" xmlns="http://www.w3.org/2000/svg"><path d="m0 0h18v18h-18z" fill="#f0f3fa"/><path d="m9.2 4.55c.16-.04.27-.14.27-.26 0-.16-.21-.29-.47-.29s-.47.13-.47.29c0 .12.11.22.28.26v.05h-.12c.09 2.96.27 9.11.32 10v-9.6 10c.04-.75.18-5.6.27-8.87l.05-1.53h-.14v-.05zm-5.2.42h4.06v.9c0 .3.33.67.52.81v.67c-.68.02-.97-.23-1.02-.34h-2.42l-.29-.5h2.2l-.06-.18h-2.23l-.38-.68h2.51v-.17h-2.59l-.3-.5zm10 0h-4.06v.9c0 .3-.33.67-.52.81v.67c.68.02.97-.23 1.02-.34h2.42l.29-.5h-2.2l.06-.18h2.23l.38-.68h-2.51v-.17h2.6l.29-.5zm-5.31 3.9v-.59c-.27 0-1.71.32-2.1.4l-.08.02c-.18.04-.26.05-.26-.11 0-.14-.12-.18-.19-.19-.06 0-.18.04-.18.21 0 .16.19.23.32.25l-1.4 4.14h-.2a2 2 0 0 0 1.75 1c1 0 1.53-.67 1.67-1h-.17l-1.45-4.14h2.3zm.62 0v-.59c.28 0 1.85.34 2.17.4l.04.02a.6.6 0 0 0 .18.02c.05 0 .08-.04.08-.13 0-.14.12-.18.19-.19.06 0 .19.04.19.21s-.22.24-.35.25l1.47 4.14h.1a2 2 0 0 1 -1.76 1c-1 0-1.53-.67-1.67-1h.14l1.52-4.14h-2.3zm-1.59 4.13-1.36-3.82v3.82zm-1.53 0v-3.8l-1.25 3.8zm5.45-3.83-1.4 3.83h1.4zm.17.01v3.82h1.33z" fill="#939598" fill-rule="evenodd"/></svg>