<svg height="18" width="18" xmlns="http://www.w3.org/2000/svg" xmlns:xlink="http://www.w3.org/1999/xlink"><linearGradient id="a" gradientUnits="userSpaceOnUse" x1="3.35" x2="21.9" y1="3.12" y2="24.43"><stop offset="0" stop-color="#1a1e21"/><stop offset="1" stop-color="#06060a"/></linearGradient><linearGradient id="b" gradientUnits="userSpaceOnUse" x1="6.44" x2="10.91" y1="6.55" y2="6.79"><stop offset="0" stop-color="#e8e9eb"/><stop offset=".22" stop-color="#bfc5c5"/><stop offset=".57" stop-color="#fbf9fc"/><stop offset="1" stop-color="#dce0e1"/></linearGradient><linearGradient id="c" gradientUnits="userSpaceOnUse" x1="5.86" x2="7.29" y1="7" y2="8.07"><stop offset="0" stop-color="#f3f3f5"/><stop offset="1" stop-color="#a0a4a5"/></linearGradient><linearGradient id="d" gradientUnits="userSpaceOnUse" x1="11.55" x2="9.37" y1="6.96" y2="11.09"><stop offset="0" stop-color="#5b5f60"/><stop offset="1" stop-color="#e8ede7"/></linearGradient><linearGradient id="e" gradientUnits="userSpaceOnUse" x1="5.5" x2="5.5" y1="12.03" y2="12.99"><stop offset="0" stop-color="#f8f9fb"/><stop offset="1" stop-color="#9c9d9f"/></linearGradient><linearGradient id="f" gradientUnits="userSpaceOnUse" x1="6.22" x2="6.22" y1="6.15" y2="12.98"><stop offset="0" stop-color="#a6acac"/><stop offset="1" stop-color="#e8e9eb"/></linearGradient><linearGradient id="g" gradientUnits="userSpaceOnUse" x1="4.73" x2="4.73" y1="5" y2="13"><stop offset="0" stop-color="#747a7a"/><stop offset="1" stop-color="#fcfdff"/></linearGradient><linearGradient id="h" gradientUnits="userSpaceOnUse" x1="11.09" x2="11.77" y1="7.41" y2="11.13"><stop offset="0" stop-color="#bfc0c2"/><stop offset="1" stop-color="#fafbfd"/></linearGradient><linearGradient id="i" gradientUnits="userSpaceOnUse" x1="13.26" x2="13.26" y1="5" y2="13"><stop offset="0" stop-color="#cccdcf"/><stop offset="1" stop-color="#ecf0f1"/></linearGradient><path d="m0 0h18v18h-18z" fill="url(#a)"/><path d="m9 7.91-1.91-2.91-.95 1.1 2.86 3.82 2.83-3.87-.98-1.05z" fill="url(#b)"/><path d="m9 9.83-2.78-3.7-.43.45.9 2.16 2.31 3.13z" fill="url(#c)"/><path d="m9 9.83 2.74-3.7.38.52-.9 2.16-2.22 3.06v-2.03z" fill="url(#d)"/><path d="m5.92 6.77-.58-.61.9-.06z" fill="#a7a8aa"/><path d="m7 12.99h-3l1.47-.96z" fill="url(#e)"/><path d="m5.98 6.63-.53-.48v5.89l1.54.94v-4.12l-.99-2.23z" fill="url(#f)"/><path d="m7.1 5h-3.1l1.32 1.15h.89l.88-1.15z" fill="#f8faf9"/><path d="m5.47 6.17-1.47-1.17v8l1.47-.96z" fill="url(#g)"/><path d="m12.09 6.74.61-.64-.97.03.36.6z" fill="#adafae"/><path d="m11 12.99h3l-1.47-.96z" fill="#f9f9f9"/><path d="m12.01 6.63.54-.48v5.89l-1.55.94v-4.12z" fill="url(#h)"/><path d="m10.84 5h3.16l-1.34 1.15h-.9l-.93-1.15z" fill="#f8faf9"/><path d="m12.53 6.17 1.47-1.17v8l-1.47-.96z" fill="url(#i)"/></svg>