<svg height="18" viewBox="0 0 18 18" width="18" xmlns="http://www.w3.org/2000/svg" xmlns:xlink="http://www.w3.org/1999/xlink"><linearGradient id="a"><stop offset=".26" stop-color="#1c75bc"/><stop offset=".7" stop-color="#2b3990"/><stop offset="1" stop-color="#262262"/></linearGradient><linearGradient id="b" gradientUnits="userSpaceOnUse" x1="5.33" x2="5.33" xlink:href="#a" y1="12.05" y2="7.49"/><linearGradient id="c" gradientUnits="userSpaceOnUse" x1="7.5" x2="5.25" xlink:href="#a" y1="11.17" y2="9.65"/><linearGradient id="d" gradientUnits="userSpaceOnUse" x1="6.37" x2="3.69" y1="12.18" y2="9.75"><stop offset=".3" stop-color="#2b3990"/><stop offset=".74" stop-color="#1c75bc"/></linearGradient><linearGradient id="e" gradientUnits="userSpaceOnUse" x1="3.52" x2="7.16" xlink:href="#a" y1="13.54" y2="10.14"/><linearGradient id="f" gradientUnits="userSpaceOnUse" x1="4.35" x2="7.83" xlink:href="#a" y1="14" y2="10.34"/><linearGradient id="g"><stop offset=".26" stop-color="#39b54a"/><stop offset=".7" stop-color="#009444"/><stop offset="1" stop-color="#006838"/></linearGradient><linearGradient id="h" gradientUnits="userSpaceOnUse" x1="14.8" x2="8.47" xlink:href="#g" y1="12.06" y2="7.46"/><linearGradient id="i" gradientUnits="userSpaceOnUse" x1="7.38" x2="10.13" y1="8.82" y2="8.82"><stop offset="0" stop-color="#006838"/><stop offset=".3" stop-color="#009444"/><stop offset=".74" stop-color="#39b54a"/></linearGradient><linearGradient id="j" gradientUnits="userSpaceOnUse" x1="6.13" x2="10.37" y1="12.11" y2="9.05"><stop offset=".26" stop-color="#39b54a"/><stop offset=".7" stop-color="#009444"/></linearGradient><linearGradient id="k" gradientUnits="userSpaceOnUse" x1="6.94" x2="11.19" y1="12.55" y2="9.49"><stop offset=".26" stop-color="#39b54a"/><stop offset="1" stop-color="#006838"/></linearGradient><linearGradient id="l" gradientUnits="userSpaceOnUse" x1="8.95" x2="11.62" xlink:href="#g" y1="13.64" y2="8.6"/><path d="m0 0h18v18h-18z" fill="#f0f3fa"/><path d="m5.96 7.48-2.96 4.52h.56l2.4-3.66 1.41 2.15.29-.43z" fill="url(#b)"/><path d="m7.94 10.5-.28.42.28.43.28-.43zm-.56 0-.29.42.29.43.28-.43-.28-.43z" fill="#1c75bc"/><path d="m5.68 8.77 1.13 1.72.28-.42-1.13-1.73z" fill="url(#c)"/><path d="m5.25 12 1.27-1.94-.28-.43-1.54 2.37h.56z" fill="url(#d)"/><path d="m5.96 9.2-1.83 2.8h.56l1.55-2.37z" fill="url(#e)"/><path d="m6.53 10.06-1.28 1.94h.58l.98-1.5z" fill="url(#f)"/><path d="m10.41 5-.28.43 4.3 6.57h.57z" fill="url(#h)"/><path d="m9.85 6.72-2.47 3.78.28.42 2.47-3.77z" fill="url(#i)"/><path d="m6.81 10.5.28.42.29-.43-.29-.43-.28.43z" fill="url(#j)"/><path d="m7.38 11.35.28.43.28-.43-.28-.42-.29.42z" fill="url(#k)"/><path d="m9.85 5.86-2.47 3.78.28.42 2.19-3.34.28.43-2.2 3.35.29.42 2.2-3.34 2.88 4.42h.56z" fill="url(#l)"/><path d="m8.4 7.33h-2.1l.53.73.52.73z" fill="#ffcb05"/></svg>