<svg height="18" viewBox="0 0 18 18" width="18" xmlns="http://www.w3.org/2000/svg" xmlns:xlink="http://www.w3.org/1999/xlink"><linearGradient id="a" gradientUnits="userSpaceOnUse" x1="14" x2="4" y1="4" y2="14.34"><stop offset="0" stop-color="#dbbc50"/><stop offset="1" stop-color="#fbf2d2"/></linearGradient><path d="m0 0h18v18h-18z" fill="#f0f3fa"/><path d="m14 7.67h-3.26l-1.34 1.33h3.48c.4 0 .8.13 1.12.36v-1.7zm0-.67h-2.6l2.6-2.6zm-.4-3h-2.6v2.6zm-3.27 0h-1.71c.24.33.38.73.38 1.15v3.45l1.33-1.34zm-2.58 0h-2.8l.41.43c.35.35.64.83.64 1.33v5.84l2.33-2.34v-4.11c0-.35-.13-.69-.37-.94zm-3.58 0h-.17v9.6l1.33-1.34v-6.5c0-.35-.13-.69-.37-.94zm.23 10h9.6v-.26l-.72-.7a1.34 1.34 0 0 0 -.93-.37h-6.61zm9.6-1.15v-2.63l-.18-.18a1.34 1.34 0 0 0 -.94-.37h-4.14l-2.34 2.33h5.95c.5 0 .97.2 1.32.54z" fill="url(#a)"/></svg>