<svg height="18" width="18" xmlns="http://www.w3.org/2000/svg"><path d="m0 0h18v18h-18z" fill="#ec1b24"/><path d="m8.666 11.894s.396.739.844 0l.869-1.342-2.557-4.34s-.397-.581-.869 0l-.892 1.312zm.348 2.106c1.34 0 2.557-.527 3.45-1.367l-3.054-5.079.944-1.371c.397-.552.817 0 .817 0l2.609 4.369c.124-.37.196-.79.22-1.185l-2.953-4.947a5.216 5.216 0 0 0 -2.033-.42c-2.597 0-5.014 2.115-5.014 5.002 0 .446.072.892.172 1.287l1.465-2.132 1.02 1.66c.244.395 0 .735 0 .735l-1.292 1.894c.975 1.036 2.284 1.554 3.649 1.554z" fill="#fff" fill-rule="evenodd"/></svg>