<svg height="18" viewBox="0 0 18 18" width="18" xmlns="http://www.w3.org/2000/svg" xmlns:xlink="http://www.w3.org/1999/xlink"><linearGradient id="a" gradientUnits="userSpaceOnUse" x1="12.65" x2="5.99" y1="5.07" y2="13.75"><stop offset="0" stop-color="#11c0de"/><stop offset=".33" stop-color="#3263f8"/><stop offset=".5" stop-color="#3a60f6"/><stop offset="1" stop-color="#fd0bd1"/></linearGradient><path d="m0 0h18v18h-18z" fill="#f0f3fa"/><path d="m5 12.92v-7.85c0-.1.08-.17.18-.18.04 0 .08 0 .12.03l3.34 1.78v-3.52c0-.14.16-.22.3-.16l4.06 2.01v7.9c0 .1-.1.18-.2.18-.04 0-.07-.01-.1-.03l-3.34-1.78v3.52c0 .14-.16.23-.3.16zm3.64-5.81-2.91 1.57v-3.15l2.9 1.58zm-2.91 5.36 2.9-1.58-2.9-1.57zm3.63-5.36 2.91 1.57v-3.15l-2.9 1.57zm2.91 5.36-2.9-1.58 2.9-1.57zm-6.54-3.47 2.9 1.58v-3.16l-2.89 1.58zm2.9 5.37-2.9-1.58 2.9-1.58zm3.64-9.16-2.9 1.59v-3.17zm-2.9 5.37 2.89-1.58-2.9-1.58v3.16z" fill="url(#a)" fill-rule="evenodd"/></svg>