<svg height="18" width="18" xmlns="http://www.w3.org/2000/svg"><path d="m0 0h18v18h-18z" fill="#d9232e"/><path d="m11.488 9.97 3.512-.648-2.927-.6 1.561-1.754-2.732.646.488-2.538-1.853 1.2-.878-3.276-.781 3.738-2.244-1.661.732 2.261-2.146-.368 1.853 1.846-3.073.6 3.122.647-1.268 1.337 1.95-.139-.877 2.493 2.146-2.077.634 3.323.683-3.323 1.659 1.662-.195-2.078 2.39.785-1.756-2.077zm-1.22-.878c0 .785-.634 1.385-1.463 1.385-.83 0-1.464-.6-1.464-1.385 0-.784.635-1.384 1.464-1.384.83 0 1.463.6 1.463 1.384z" fill="#fff"/></svg>