<svg height="18" viewBox="0 0 18 18" width="18" xmlns="http://www.w3.org/2000/svg" xmlns:xlink="http://www.w3.org/1999/xlink"><linearGradient id="a" gradientUnits="userSpaceOnUse" x1="9" x2="9" y1="0" y2="18"><stop offset="0" stop-color="#2a808d"/><stop offset="1" stop-color="#045c5e"/></linearGradient><path d="m0 0h18v18h-18z" fill="url(#a)"/><path d="m11.44 5.07-1.22 5.93h1.06l.1-.8c.1.25.48.8 1.32.8 1.46 0 2.3-.81 2.3-2.25s-.8-1.75-1.68-1.75c-.7 0-1.18.33-1.31.51l1.02-4.51zm1.52 2.51c-.96 0-1.24 1.19-1.25 1.78-.06.48.17.97.83.97s1.26-.75 1.26-1.77c0-.82-.56-.99-.84-.98zm-9.96 3.42.96-4h1.08l-.12.63c.14-.2.63-.63 1.43-.63s1.08.53 1.11.8c.15-.27.65-.8 1.54-.8 1.1 0 1.4.86 1.28 1.53l-.72 3.47-1.68 2 1.24-5.58c0-.21-.13-.63-.57-.63-.54 0-.88.37-1.03 1l-.23.87c-.13.46-.27.97-.35 1.34h-1.2l.61-2.47c.05-.25 0-.74-.56-.74-.7 0-.94.82-1.05 1.23l-.15.52c-.13.44-.3 1.03-.4 1.46z" fill="#fff" fill-rule="evenodd"/></svg>