<svg height="18" width="18" xmlns="http://www.w3.org/2000/svg"><path d="m0 0h18v18h-18z" fill="#00377b"/><path d="m9.43 3.704c-.46.419-.877.769-.922.769-.046 0-.47-.19-.941-.419-.462-.228-.85-.388-.85-.358 0 .023.171.472.38.982l.388.93-.76.647c-.425.358-.75.662-.723.677.018.016.343 0 .714-.03s.824-.061.996-.061l.316-.008.498 1.721c.57 1.98.525 1.995.778-.259.09-.8.19-1.5.217-1.538.036-.045.606-.137 1.267-.213l1.212-.13-.262-.16a48.089 48.089 0 0 0 -1.068-.563c-.434-.22-.805-.426-.823-.45-.027-.022.081-.525.226-1.103.145-.587.253-1.097.235-1.135-.009-.038-.407.274-.877.7zm-1.053 7.163c-.41.162-.912.621-1.124 1.024-.099.198-.155.46-.177.855-.028.516 0 .604.163 1.01.368.807 1.046 1.244 1.944 1.244.643 0 1.089-.184 1.534-.615.424-.417.615-.89.615-1.54 0-.834-.382-1.484-1.096-1.872-.509-.276-1.329-.325-1.859-.106z" fill="#fff"/></svg>