<svg height="18" width="18" xmlns="http://www.w3.org/2000/svg" xmlns:xlink="http://www.w3.org/1999/xlink"><linearGradient id="a"><stop offset="0" stop-color="#034532"/><stop offset="1" stop-color="#246654"/></linearGradient><linearGradient id="b" gradientUnits="userSpaceOnUse" x1="10.07" x2="8.16" xlink:href="#a" y1="4.65" y2="4.65"/><linearGradient id="c" gradientUnits="userSpaceOnUse" x1="7.93" x2="9.85" xlink:href="#a" y1="13.35" y2="13.35"/><path d="m0 9a9 9 0 1 1 18 0 9 9 0 0 1 -18 0z" fill="#f0f3fa"/><path d="m8.7 3.1-4.7 2.87 1.6 2.4z" fill="#70bed8"/><path d="m9.16 3-1.66 3h3.11l3.39 5.27v-5.3z" fill="#236555"/><path d="m9.16 3-1.5 3h2.96z" fill="url(#b)"/><path d="m9.3 14.9 4.7-2.88-1.6-2.4-3.1 5.29z" fill="#71bed8"/><path d="m8.84 15 1.5-2.74h-2.95l-3.39-5.53v5.3z" fill="#236555"/><path d="m8.84 15 1.69-3h-3.32z" fill="url(#c)"/></svg>