<svg height="18" viewBox="0 0 18 18" width="18" xmlns="http://www.w3.org/2000/svg"><path d="m0 0h18v18h-18z" fill="#f0f3fa"/><ellipse cx="9" cy="8.5" fill="#c51426" rx="5" ry="4.5"/><path d="m6.33 9.15v.6h1.24l1.43-.89 1.43.9h1.24v-.6h-.32l-.58-2.12h-1.37l-.4.4-.39-.4h-1.37l-.6 2.12h-.3zm2.57-1.05-.12-.29h-.38l-.4 1.04h.67l.17-.3.16.23.16-.23.17.3h.67l-.4-1.05h-.38l-.12.3z" fill="#fff" fill-rule="evenodd"/><path d="m4 12.75v1.25h10v-1.25l-4.85-4.2-.15.2-.17-.2z"/><path d="m4.63 13h-.3l4.52-4.45z" fill="#fff"/><path d="m5.98 13h-.98l3.86-4.45z" fill="#d9d9d9"/><path d="m6.76 13h-.38l2.5-4.4-2.11 4.4z" fill="#fff"/><path d="m7.92 13h-.76l1.77-4.37z" fill="#d9d9d9"/><path d="m8.84 13h-.54l.7-4.33-.17 4.33z" fill="#fff"/><path d="m9.2 13h.75l-.9-4.32.14 4.32z" fill="#d9d9d9"/><path d="m10.36 13h.4l-1.66-4.36z" fill="#fff"/><path d="m11.13 13h.79l-2.82-4.42z" fill="#d9d9d9"/><path d="m12.3 13h.37l-3.53-4.45z" fill="#fff"/><path d="m13.08 13h.58l-4.5-4.45z" fill="#d9d9d9"/></svg>