<svg height="18" viewBox="0 0 18 18" width="18" xmlns="http://www.w3.org/2000/svg"><path d="m0 0h18v18h-18z" fill="#f0f3fa"/><path d="m8.46 7.32a6.82 6.82 0 0 0 -3.48-.95c-.38 0-.98.04-.98.04v-1.49c0-.24.2-.36.45-.45.26-.07 1.86-.47 4.55-.47 2.7 0 4.3.4 4.55.47.26.09.45.2.45.45v1.49s-.6-.04-.98-.04c-1.24 0-2.5.35-3.48.95l-.08.04c-.16.1-.34.2-.46.2s-.3-.1-.46-.2zm1.5 1.25c0-.27.48-.7.95-1.01a5.06 5.06 0 0 1 3.09-.64v4.2c-.33.07-.63.1-.92.1-.6 0-1.12-.11-1.52-.43-.56-.45-1-.94-1.33-1.46v-.01l-.01-.02c-.2-.33-.24-.47-.25-.62zm.5 2.22c.64.56 1.43.85 2.37.85.37 0 .76-.05 1.17-.14v1.58c0 .24-.19.37-.45.45-.26.07-1.85.47-4.55.47s-4.29-.4-4.55-.47c-.26-.08-.45-.2-.45-.45v-1.58c.41.1.8.14 1.17.14.94 0 1.73-.29 2.37-.85a11.88 11.88 0 0 0 1-1.01.58.58 0 0 1 .46-.22c.18 0 .33.06.46.22l.02.02c.28.3.61.67.98.99zm-6.46.33c.33.07.63.1.92.1.6 0 1.12-.11 1.52-.43.56-.45 1-.94 1.33-1.46v-.01l.01-.02c.2-.33.24-.47.25-.62l.01-.11c0-.27-.48-.7-.95-1.01a5.06 5.06 0 0 0 -3.09-.64z" fill="#1a1918"/></svg>