<svg fill="none" height="18" viewBox="0 0 18 18" width="18" xmlns="http://www.w3.org/2000/svg" xmlns:xlink="http://www.w3.org/1999/xlink"><linearGradient id="a" gradientUnits="userSpaceOnUse" x1="11.6471" x2="4.71744" y1="6.07692" y2="12.9952"><stop offset="0" stop-color="#7d2e8b"/><stop offset="1" stop-color="#cd2b7b"/></linearGradient><linearGradient id="b" gradientUnits="userSpaceOnUse" x1="12.6765" x2="6.05424" y1="5" y2="11.6245"><stop offset="0" stop-color="#f9ae40"/><stop offset="1" stop-color="#ee4937"/></linearGradient><linearGradient id="c" gradientUnits="userSpaceOnUse" x1="11.3529" x2="5.96695" y1="6.23082" y2="11.5263"><stop offset="0" stop-color="#34346a"/><stop offset="1" stop-color="#8e2c69"/></linearGradient><path d="m0 0h18v18h-18z" fill="#f0f3fa"/><g clip-rule="evenodd" fill-rule="evenodd"><path d="m8.49179 5c1.22985 0 2.34411.39227 3.15531 1.23077l-6.47063 6.76923c-.79651-.8488-1.17647-2.0124-1.17647-3.29639 0-2.59773 2.01104-4.70361 4.49179-4.70361z" fill="url(#a)"/><path d="m9.5082 13c-1.22985 0-2.3441-.3923-3.15526-1.2308l6.47056-6.7692c.7965.84876 1.1765 2.01239 1.1765 3.29639 0 2.59771-2.0111 4.70361-4.4918 4.70361z" fill="url(#b)"/><path d="m9.09856 5.30774c.99334 0 1.89334.24583 2.54844.92308l-5.29407 5.53848c-.64334-.6856-.88235-1.6254-.88235-2.66248 0-2.09817 1.62431-3.79908 3.62798-3.79908z" fill="url(#c)"/><path d="m10.0779 11.4615c-.99337 0-1.89334-.2458-2.54851-.923l5.29411-5.5385c.6433.68554.8824 1.62538.8824 2.66246 0 2.09817-1.6244 3.79904-3.628 3.79904z" fill="#ed4226"/></g></svg>