<svg height="18" width="18" xmlns="http://www.w3.org/2000/svg" xmlns:xlink="http://www.w3.org/1999/xlink"><linearGradient id="a" gradientUnits="userSpaceOnUse" x1="3.35" x2="21.9" y1="3.12" y2="24.43"><stop offset="0" stop-color="#1a1e21"/><stop offset="1" stop-color="#06060a"/></linearGradient><path d="m0 0h18v18h-18z" fill="url(#a)"/><path d="m13.38 8.37.95-.95.67.63-.95.95.95.95-.63.63-.95-.95-3.79 3.79.95.95-.63.63-.95-.95-.95.95-.63-.63.95-.95-3.79-3.79-.95.95-.63-.63.95-.95-.95-.95.63-.63.94.95 3.78-3.79-.95-.95.63-.63.95.95.95-.95.64.63-.95.95zm-4.4 4.41 1.78-1.77 2-2.01-2-2-1.78-1.78-1.78 1.77-2 2.01 2 2zm-1.74-4.28h3.52v1h-3.52zm3.53 1.5h-3.53v1h3.53zm0-3v1h-3.53v-1z" fill="#fff"/></svg>