<svg height="18" width="18" xmlns="http://www.w3.org/2000/svg"><path d="m0 0h18v18h-18z" fill="#f0f3fa"/><path d="m8.75 7h.67v4h-.67zm6.08 0h.67v4h-.67zm-1.02 0h-.67l-1.01 1.5-1.03-1.5h-.67l1.35 2-1.35 2h.67l1.02-1.5 1 1.5h.68l-1.35-2 1.35-2zm-11.13 0h-.68v4h.68v-2.3c.12-.43.52-.97 1.1-.97.55 0 .75.49.75.78v2.49h.68v-2.26c0-.5.52-1 1.13-1.01.5-.01.72.44.72.66v2.61h.68v-2.75c-.02-.45-.28-1.25-1.24-1.25-.75 0-1.26.53-1.42.8-.08-.26-.45-.8-1.14-.8-.63 0-1.08.46-1.26.74z" fill="#4e4e4e"/><ellipse cx="9.09" cy="6.04" fill="#b8b9b9" rx=".34" ry=".54"/><ellipse cx="15.16" cy="6.04" fill="#c2a159" rx=".34" ry=".54"/></svg>