<svg height="18" viewBox="0 0 18 18" width="18" xmlns="http://www.w3.org/2000/svg"><path d="m0 0h18v18h-18z" fill="#620b11"/><path d="m2 6.89c.92 0 1.64 1.1 2.12 2.2.44 1.01.65 1.7 1.38 1.7.74 0 1-.69 1.43-1.7.48-1.1.95-2.2 2.07-2.2 1.22 0 1.62 1.1 2.1 2.2.44 1.01.66 1.7 1.4 1.7s.95-.69 1.4-1.7c.47-1.1 1.18-2.2 2.1-2.2v.47c-.76.18-1.15.77-1.6 1.8-.46 1.07-.86 2.12-1.9 2.12s-1.43-1.05-1.9-2.12c-.46-1.03-.8-1.8-1.6-1.8s-1.07.77-1.52 1.8c-.47 1.07-.9 2.12-1.98 2.12s-1.4-1.05-1.87-2.12c-.45-1.03-.83-1.66-1.63-1.8z" fill="#b8c0c4"/><path d="m14.54 8.82c-.5-1.17-1-2.32-2.04-2.32-1.05 0-1.54 1.15-2.04 2.32-.42.97-.84 1.94-1.46 1.94s-1.04-.98-1.46-1.94c-.5-1.17-1-2.32-2.04-2.32-1.05 0-1.54 1.15-2.04 2.32-.42.97-.84 1.94-1.46 1.94v.74c1.11 0 1.63-1.2 2.14-2.4.4-.94.8-1.86 1.36-1.86.55 0 .95.92 1.36 1.86.51 1.2 1.03 2.4 2.14 2.4s1.63-1.2 2.14-2.4c.4-.94.8-1.86 1.36-1.86.55 0 .95.92 1.36 1.86.51 1.2 1.03 2.4 2.14 2.4v-.74c-.62 0-1.04-.97-1.46-1.94z" fill="#fff"/></svg>