<svg height="18" width="18" xmlns="http://www.w3.org/2000/svg"><path d="m0 0h18v18h-18z" fill="#009fab"/><path d="m11.834 6.401a1.2 1.2 0 1 0 0-2.401 1.2 1.2 0 0 0 0 2.401zm-4.087 0a1.2 1.2 0 1 0 0-2.401 1.2 1.2 0 0 0 0 2.401zm2.253 6.601h-3v-4.856c-.01-.851-.973-1.146-.973-1.146h1.838c.636 0 2.135.26 2.135 1.418zm3.994 0h-2.974v-4.856c-.01-.851-.99-1.146-.99-1.146h1.853c.642 0 2.11.26 2.11 1.418v4.584zm-7.994 0h-2v-3.153c-.007-.627-.67-.845-.67-.845h1.396c.392 0 1.274.193 1.274 1.046v2.95zm-1.214-4.575c.486 0 .879-.414.879-.926 0-.511-.393-.926-.879-.926-.485 0-.878.415-.878.926 0 .512.393.926.878.926z" fill="#fff"/></svg>