<svg height="18" viewBox="0 0 18 18" width="18" xmlns="http://www.w3.org/2000/svg"><path d="m0 0h18v18h-18z" fill="#f0f3fa"/><path d="m4.57 12.5a1.59 1.59 0 0 1 -1.37-.79 1.5 1.5 0 0 1 .04-1.55l2.83-4.4a1.57 1.57 0 0 1 1.4-.76 1.59 1.59 0 0 1 1.35.83c.27.49.23 1.09-.08 1.55l-2.83 4.4a1.57 1.57 0 0 1 -1.34.72z" fill="#f62b54"/><path d="m9.44 12.5c-.53 0-1-.3-1.26-.79a1.6 1.6 0 0 1 .04-1.55l2.6-4.4c.12-.23.3-.43.54-.56.22-.14.48-.2.73-.2.53.01 1.01.33 1.25.83s.2 1.1-.1 1.56l-2.58 4.4c-.13.21-.31.4-.53.52-.21.13-.45.2-.7.19z" fill="#fc0"/><path d="m13.75 12.5a1.25 1.25 0 1 0 0-2.5 1.25 1.25 0 0 0 0 2.5z" fill="#00ca72"/></svg>