<svg height="18" viewBox="0 0 18 18" width="18" xmlns="http://www.w3.org/2000/svg"><path d="m0 0h18v18h-18z" fill="#f0f3fa"/><path d="m12.44 9.04.02.6c.26-.05 1.12-.14 1.29-.15.05 0 .1-.04.11-.1l.14-.36a9.42 9.42 0 0 0 -1.56.01zm-8.39 3.78c-.06.1-.07.19 0 .18h1.09c.09 0 .15-.1.16-.12.83-1.1 3.05-2.57 5.22-3.17l-.02-.71c-1.72.32-4.87 1.36-6.45 3.82z" fill="#003d79"/><path d="m11.76 5.29c0-.16-.11-.3-.24-.29l-.88.17-2.09 2.23-1.6-1.45-.63.1c-.12.03-.21.15-.2.29l-.12 4.16c.28-.24.52-.46.82-.66l.05-2.26-.44-.75 1.96 1.9s.11.08.2.09c.11 0 .2-.09.2-.09l2.66-2.93-.74 1.2.2 4.83c0 .09.06.17.14.17h.81c.08 0 .14-.08.14-.17z" fill="#c23a1e"/></svg>