<svg height="18" viewBox="0 0 18 18" width="18" xmlns="http://www.w3.org/2000/svg"><path d="m0 0h18v18h-18z" fill="#181b1e"/><path d="m7 6.5c0 .33-.1.63-.27.87a.72.72 0 0 0 0 .77 1.5 1.5 0 0 1 0 1.72.72.72 0 0 0 0 .77 1.5 1.5 0 0 1 -1.23 2.37 1.5 1.5 0 0 1 -1.23-2.37.72.72 0 0 0 0-.77 1.5 1.5 0 0 1 0-1.72.72.72 0 0 0 0-.77 1.5 1.5 0 0 1 1.23-2.37c.83 0 1.5.68 1.5 1.5zm3.27 1.92a.82.82 0 0 1 0-.84c.17-.27.27-.59.27-.94 0-.9-.69-1.64-1.54-1.64s-1.54.74-1.54 1.64c0 .35.1.67.27.94.16.24.16.6 0 .84-.17.27-.27.59-.27.94 0 .9.69 1.64 1.54 1.64s1.54-.74 1.54-1.64c0-.35-.1-.67-.27-.94zm3.73-1.92c0 .33-.1.63-.27.87a.72.72 0 0 0 0 .77 1.5 1.5 0 0 1 0 1.72.72.72 0 0 0 0 .77 1.5 1.5 0 0 1 -1.23 2.37 1.5 1.5 0 0 1 -1.23-2.37.72.72 0 0 0 0-.77 1.5 1.5 0 0 1 0-1.72.72.72 0 0 0 0-.77 1.5 1.5 0 0 1 1.23-2.37c.83 0 1.5.68 1.5 1.5z" fill="#fff"/></svg>