<svg height="18" viewBox="0 0 18 18" width="18" xmlns="http://www.w3.org/2000/svg"><path d="m0 0h18v18h-18z" fill="#ebe3dc"/><path d="m8.35 3.43c-.38.6-.46 1.25-.22 1.6.18.25.2.26.4.1.28-.25.63-.96.63-1.31 0-.34-.2-.76-.4-.82-.06-.02-.25.17-.41.43zm-4.35.57c0 .54.24 1 .68 1.31.37.27 1.35.61 1.45.52.02-.03.02-.2-.02-.39-.08-.38-.32-.61-1.03-1.02-.27-.15-.62-.4-.78-.53l-.3-.25zm2.15.3c0 .53.23.97.62 1.21.22.13.44.22.49.19.19-.1.27-.52.17-.86-.1-.33-.2-.4-.88-.66-.4-.15-.4-.15-.4.11zm3.2.3c-.88.73-1 1.49-.37 2.31l.22.3.2-.25c.32-.36.8-1.3.87-1.7.06-.36-.12-1-.3-1.06-.06-.01-.34.16-.62.4zm1.41.96c-.23.21-.42.44-.42.5 0 .14.64.15 1 .02a3 3 0 0 0 .67-.43c.4-.32.4-.33.15-.4-.65-.16-.97-.1-1.4.3zm-3.04.13c-.24.32-.21.8.06 1.13l.24.28.2-.22c.1-.13.19-.4.19-.6 0-.36-.24-.81-.43-.81-.05 0-.17.1-.26.22zm-3.48.24c-.1.04-.08.12.08.31.12.14.22.31.22.38 0 .23.53.58.99.66.25.04.48.06.5.04.1-.09-.33-.93-.57-1.14-.25-.22-.95-.36-1.22-.25zm1.7.1c0 .21.37.64.68.78.55.24.71.21.71-.14 0-.44-.33-.7-.91-.7-.27 0-.48.03-.48.06zm3.84 1.52-.48.88-.5-.42a4.04 4.04 0 0 0 -1.91-.84c-.18 0-.08.15.52.74.42.41.89 1 1.06 1.33.42.78.42 1.75 0 3.21-.3 1.13-.33 1.44-.16 2.1l.12.44h2.75c-1.23-2.38-1.35-3.88-.43-5.42.02-.04-.11-.12-.29-.19-.67-.26-.7-.35-.35-1.59.17-.61.27-1.12.23-1.12s-.3.4-.56.88zm1.83-.53c-.23.07-.49.2-.59.27-.2.16-.56.86-.57 1.11 0 .16.02.17.24.04.14-.08.6-.2 1.03-.26.9-.13 1.1-.23 1.67-.85l.4-.46h-.89c-.49.01-1.07.07-1.3.15zm-5.92.62c-.26.07-.23.18.15.48.35.28.86.34 1.05.12.26-.29-.65-.74-1.2-.6zm-1.48.57c.36.88.79 1.27 1.4 1.27.42 0 1.4-.27 1.4-.39 0-.18-.7-.45-2.72-1.08-.16-.05-.17-.03-.08.2zm7.6.67c-.32.09-.71.37-.71.51 0 .05.24.09.54.09.55 0 1.03-.17 1.27-.43.1-.12.07-.16-.21-.21-.4-.08-.49-.07-.89.04zm-4.64.72c-.64.3-1 .67-1.08 1.07l-.1.64c-.03.17 0 .27.09.27.26 0 1.33-.7 1.45-.96.18-.36.28-1.1.17-1.17-.06-.03-.3.04-.53.15zm5.17.21c-.19.13-.18.15.18.4.42.3.88.35 1.24.11l.24-.15-.31-.25c-.36-.27-1.03-.33-1.35-.1zm-4.4.77c-.36.37-.82 1.44-.67 1.57.1.11.71-.2.98-.49.22-.24.27-.4.27-.89 0-.32-.05-.59-.1-.59s-.27.18-.48.4zm2.9-.17-.3.13.3.33c.35.4.87.63 1.23.54.14-.03.44-.16.67-.29l.43-.22-.47-.28a2.36 2.36 0 0 0 -1.86-.21zm-.23 1.45c.1.38.29.49.8.44.44-.04.45-.04.26-.24a2.1 2.1 0 0 0 -1.01-.48c-.08 0-.1.1-.05.28z" fill="#9e380e"/></svg>