<svg height="18" width="18" xmlns="http://www.w3.org/2000/svg" xmlns:xlink="http://www.w3.org/1999/xlink"><linearGradient id="a" gradientUnits="userSpaceOnUse" x1="3.349" x2="21.904" y1="3.122" y2="24.434"><stop offset="0" stop-color="#1a1e21"/><stop offset="1" stop-color="#06060a"/></linearGradient><path d="m0 0h18v18h-18z" fill="url(#a)"/><path d="m13.622 12.9-.098.056-2.363.044-.062-.069.432-2.01.283-1.37.615-2.73-2.142 4.044-1.034 2.035-.099.057-1.945.033-.084-.068-.075-1.483-.234-4.617-.333 1.203-.505 1.84-.8 3.035-.085.057c-.924 0-1.182.011-2.032.044l-.061-.07.75-2.472.85-2.863.714-2.494.073-.068c1.54 0 1.897 0 3.374-.034l.074.067.062 1.777.049.82.122 2.19 1.55-3.033c.198-.372.801-1.562.887-1.719l.086-.068c1.441 0 1.797 0 3.349-.034l.06.067-.467 2.518-.542 3.032-.369 2.282z" fill="#fff"/></svg>