<svg height="18" viewBox="0 0 18 18" width="18" xmlns="http://www.w3.org/2000/svg"><path d="m0 0h18v18h-18z" fill="#f0f3fa"/><path d="m3.42 11h-.42l.73-.58.36-.74.85-1.06.52-.19v-.43l.62-.38-.14-.5.63-1.06.35-.05.08.08-.6.98.14.55-.66.38v.44l-.5.2-.83 1.01-.4.78-.73.58zm3.58-5.38v.2l.26-.05.21.23v-.38l.53-.41-.2-.21zm2.33-.25-.72-.37.31.45-.31 1.5.29.12.46 1.3 1.05.54.27.3h-.88l-1.8-1.21 1.42 2.15.57.22.95 1.7.83.93.23-1.08-.22-1.6-.78-.46-.16-.59h.38l.58.22.06-.78-1.16-.87-.37-.75-.5-.6zm2.91.66-.24-.03.2.61.2.09.63 2.2.53.23.61.5.83.37-.22-.8-.43-.19-.06-.39-.73-.63-.66-1.41z"/></svg>