<svg height="18" width="18" xmlns="http://www.w3.org/2000/svg"><path d="m0 0h18v18h-18z" fill="#f0f3fa"/><path d="m4.769 8.17s-.339 1.808-.5 2.786c-.007.039-.018.052-.052.052h-.75c-.03 0-.04-.01-.047-.047-.17-.983-.423-2.792-.423-2.792v2.783c0 .047-.007.06-.048.06-.217-.005-.694 0-.912 0-.03 0-.037-.009-.037-.047.003-1.276.003-2.642.003-3.914 0-.038.01-.047.041-.047.388 0 .988.009 1.376.009.03 0 .047.047.047.047l.41 2.501.363-2.501s.02-.06.058-.06h1.35c.034 0 .044.009.044.051v3.897c0 .042-.007.055-.041.055h-.838c-.034 0-.041-.013-.041-.055 0-.975-.003-2.779-.003-2.779z" fill="#da0732"/><path d="m11.352 13h-1.07c.474-.647.938-1.353 1.412-2h-2.629c-.064 0-.057-.06-.057-.06v-3.871s.01-.069.054-.069c.27.004.62.004.891 0 .04 0 .047.055.047.055v2.885s.007.06.05.06h1.701l-1.48-1.992c.01-.012.019-.011.026-.011h.992c.008 0 .039.025.046.03l1.84 2.388c.021.03.021.047 0 .072-.595.793-1.242 1.707-1.823 2.513z" fill="#01339f"/><path d="m7.28 7.009h1.193c.213 0 .394.188.427.442a1.3 1.3 0 0 1 .007.114v1.454c0 .232-.083.381-.249.495a.28.28 0 0 1 -.166.04h-1.47c-.036 0-.022.009-.022.057.004.438-.003.906 0 1.344 0 .048-.037.057-.073.057h-.88c-.037 0-.047-.009-.047-.053v-2.394c0-.043.01-.055.043-.055h1.913c.083 0 .218-.064.218-.254a.22.22 0 0 0 -.214-.229h-1.903c-.057-0-.057.003-.057-.067v-.903c0-.044.003-.057.047-.057.408.009.82.009 1.233.009zm4.072 5.991c.579-.805 1.219-1.724 1.812-2.515.021-.03.021-.047 0-.073a127.392 127.392 0 0 0 -1.864-2.412h.905c.028 0 .05.012.068.042l1.814 2.37c.021.026.025.043 0 .073l-1.787 2.474c-.025.034-.047.041-.082.041h-.867zm3.792-5h.856s-.774 1.042-.945 1.27c-.022.03-.032.03-.054 0-.132-.18-.403-.54-.403-.54.182-.239.546-.73.546-.73zm-.535 4.329.413-.562c.025-.038.043.013.043.013s.6.808.892 1.22h-.856s-.328-.45-.492-.671z" fill="#da0732"/><path d="m15.144 8-.546.73-.546-.73zm-.535 4.329.497.671h-.997z" fill="#01339f"/></svg>