<svg height="18" viewBox="0 0 18 18" width="18" xmlns="http://www.w3.org/2000/svg" xmlns:xlink="http://www.w3.org/1999/xlink"><linearGradient id="a" gradientUnits="userSpaceOnUse" x1="0" x2="18" y1="8.04" y2="8.2"><stop offset="0" stop-color="#3a7d8c"/><stop offset="1" stop-color="#24516c"/></linearGradient><path d="m0 0h18v18h-18z" fill="url(#a)"/><g fill="#fff"><path d="m11.91 7.1c0-.49-.3-.91-.73-1.05a1 1 0 0 0 -1.15.44l-1.03 1.63.34.6.52 2.19c0 .46.26.86.67 1.02a1 1 0 0 0 1.14-.31l1.27-1.58v.87c0 .6.46 1.09 1.03 1.09s1.03-.49 1.03-1.1v-3.8c0-.47-.27-.87-.67-1.03a1 1 0 0 0 -1.14.31l-1.28 1.58v-.87z"/><path d="m8 12.66a3.5 3.5 0 1 0 -3 0v-3.66h3z"/><path d="m8 11.5a1.5 1.5 0 1 1 -3 0 1.5 1.5 0 0 1 3 0z"/></g></svg>