<svg height="18" width="18" xmlns="http://www.w3.org/2000/svg"><path d="m0 0h18v18h-18z" fill="#17365e"/><path d="m11.772 9.154c0 1.186.882 2.066 2.227 2.813l-.168.264c-.84-.704-2.731-.88-3.571-.22-.756.572-1.176 1.89-1.134 2.989h-.21c.042-1.099-.294-2.418-1.05-2.989-.883-.703-2.815-.527-3.656.308l-.21-.264c1.134-.616 2.185-1.626 2.185-2.857-0-1.188-.925-2.071-2.185-2.598l.084-.3c.924.615 2.563.656 3.277.173.798-.528 1.596-2.066 1.554-3.473h.21c-.042 1.143.505 3.033 1.47 3.604.925.528 2.477.4 3.318-.304l.087.262c-1.134.483-2.228 1.405-2.228 2.592zm-2.73-2.11c-.673 0-1.22.835-1.22 1.89s.547 1.934 1.22 1.934c.671 0 1.175-.88 1.175-1.934 0-1.055-.504-1.89-1.176-1.89z" fill="#ff3e3b"/></svg>