<svg height="18" viewBox="0 0 18 18" width="18" xmlns="http://www.w3.org/2000/svg" xmlns:xlink="http://www.w3.org/1999/xlink"><linearGradient id="a" gradientUnits="userSpaceOnUse" x1="6.59" x2="14.49" y1="8.43" y2="8.57"><stop offset="0" stop-color="#e93b4f"/><stop offset=".38" stop-color="#d1aec3"/><stop offset=".61" stop-color="#4464ad"/></linearGradient><linearGradient id="b" gradientUnits="userSpaceOnUse" x1="10.07" x2="10.07" y1="8.78" y2="14"><stop offset="0" stop-color="#e6cae1"/><stop offset=".25" stop-color="#d39ec6"/><stop offset=".75" stop-color="#c887ba"/></linearGradient><linearGradient id="c" gradientUnits="userSpaceOnUse" x1="5.51" x2="4.33" y1="9.7" y2="10.64"><stop offset="0" stop-color="#f07987"/><stop offset="1" stop-color="#fff"/></linearGradient><linearGradient id="d" gradientUnits="userSpaceOnUse" x1="11.9" x2="13.54" y1="7.11" y2="7.25"><stop offset="0" stop-color="#cfb5ca"/><stop offset="1" stop-color="#4464ad"/></linearGradient><path d="m0 0h18v18h-18z" fill="#e3001a"/><path d="m10.2 6.17c-1.13 0-3.06 1.49-3.88 2.23l.33.86c.83-.68 2.72-2.04 3.62-2.06s1.4 1.3 1.53 1.97l.59 1.8c.1.33.42.62.78.6.3-.02.53-.4.61-.6l.95-2.89-.95-.28c-.26.98-.6 1.82-.73 2.12-.76-2.73-1.42-3.75-2.84-3.75z" fill="url(#a)"/><path d="m3.62 11.95c.5 0 1.63-1.13 2.13-1.7l-.35-1.03c-.54.55-1.11 1.07-1.33 1.26.12-.72.58-2.3.8-3.01l.84 2.4c.12.34.39 1.32.83 1.31.35 0 .55-.43.6-.64l1-3.3c.36 1.58 1.1 4.86 1.22 5.47.13.76.3 1.33.7 1.29.38-.05.49-.4.77-1.7.22-1.03.65-2.71.84-3.42a4.51 4.51 0 0 0 -.6-1.2c-.21.34-.77 2.56-1.02 3.65l-1.05-4.78c-.1-.4-.24-1.55-.78-1.55-.44 0-.75.88-.85 1.32l-.84 2.9c-.21-.55-.69-1.85-.94-2.57-.25-.73-.6-.88-.74-.86-.9 0-1.69 4.08-1.8 4.8-.13.86-.03 1.36.57 1.36z" fill="#fff"/><path d="m11.06 7.68c-.21.34-.77 2.56-1.02 3.65l-.76-3.5-.8.94.87 3.94c.13.76.3 1.33.7 1.29.38-.05.49-.4.77-1.7.22-1.03.65-2.71.84-3.42a4.5 4.5 0 0 0 -.6-1.2z" fill="url(#b)"/><path d="m3.62 11.95c.5 0 1.63-1.13 2.13-1.7l-.35-1.03c-.54.55-1.11 1.07-1.33 1.26l-1 .12c-.14.85-.04 1.35.56 1.35z" fill="url(#c)"/><path d="m14.03 6.84-.25.97.95.3c.23-.75.68-2.38-.56-2.33-1 .04-2.04.73-2.44 1.06.26.31.47.68.54.83a3.85 3.85 0 0 1 1.76-.83z" fill="url(#d)"/></svg>