<svg height="18" viewBox="0 0 18 18" width="18" xmlns="http://www.w3.org/2000/svg"><path d="m0 0h18v18h-18z" fill="#f0f3fa"/><path d="m6 9.5-1.5 1.47 1.5 1.48z" fill="#e86624"/><path d="m4.5 8.03-1.5 1.47 1.5 1.47z" fill="#1b75b9"/><path d="m4.5 8.03 1.5 1.47-1.5 1.47z" fill="#26a6de"/><path d="m6 9.5 1.5 1.47-1.5 1.48z" fill="#f6981f"/><path d="m3 6.55 1.52 1.48-1.52 1.47z" fill="#822c8c"/><path d="m4.5 5-1.5 1.55 1.5 1.48z" fill="#9b2421"/><path d="m4.5 5 1.5 1.55-1.5 1.48z" fill="#e92127"/><path d="m7.5 5-1.5 1.55-1.5-1.55z" fill="#d0dd4e"/><path d="m7.5 5-.83-.76a1 1 0 0 0 -.67-.24 1 1 0 0 0 -.66.24l-.84.76z" fill="#75be44"/><path d="m7.5 14-1.5-1.55 1.5-1.48z" fill="#9b2421"/><path d="m7.5 14 1.5-1.55-1.5-1.48z" fill="#e92127"/><path d="m12 9.5 1.5 1.47-1.5 1.48z" fill="#9b2421"/><path d="m13.5 8.03 1.5 1.47-1.5 1.47z" fill="#e86624"/><path d="m13.5 8.03-1.5 1.47 1.5 1.47z" fill="#f6981f"/><path d="m12 9.5-1.5 1.47 1.5 1.48z" fill="#e92127"/><path d="m15 6.55-1.5 1.48 1.5 1.47z" fill="#822c8c"/><path d="m13.5 5 1.5 1.55-1.5 1.48z" fill="#1b75b9"/><path d="m13.5 5-1.5 1.55 1.5 1.48z" fill="#26a6de"/><path d="m10.5 5 1.5 1.55 1.5-1.55z" fill="#d0dd4e"/><path d="m10.5 5 .83-.76a1 1 0 0 1 .67-.24 1 1 0 0 1 .66.24l.84.76z" fill="#75be44"/><path d="m10.5 14 1.5-1.55-1.5-1.48z" fill="#1b75b9"/><path d="m10.5 14-1.5-1.55 1.5-1.48z" fill="#26a6de"/><path d="m10.5 14-1.5-1.55-1.5 1.55z" fill="#d0dd4e"/><path d="m12 6.55-1.5-1.55-1.5 1.55z" fill="#3d8891"/><path d="m10.5 14-.83.76a1 1 0 0 1 -.67.24 1 1 0 0 1 -.66-.24l-.84-.76z" fill="#75be44"/></svg>