<svg height="18" viewBox="0 0 18 18" width="18" xmlns="http://www.w3.org/2000/svg"><path d="m0 0h18v18h-18z" fill="#f0f3fa"/><path d="m7.5 5.33c-.84 1.18-2.5 3.92-2.5 5.42 0 1.87.98 3.25 3.25 3.25s4.75-2.85 4.75-5.76c0-2.32-.33-4.46-.5-5.24.05 1.52 0 4.92-.56 6.31-.7 1.74-2.2 3.37-3.93 3.37-1.74 0-2.23-1.47-2.23-2.49 0-1.01.39-2.37 1.72-4.86zm.49.71c-.56.76-1.69 2.54-1.69 3.58 0 1.3.86 2 1.68 2s3.33-.76 3.33-3.68c0-2.35-.15-3.07-.22-3.14.03.96-.06 3.14-.7 4.17-.32.57-1.26 1.72-2.41 1.72s-1.26-1.15-1.17-1.72c.08-.45.43-1.66 1.17-2.93z" fill="#03a1ce"/><path d="m9.53 7.07c.43.25.46.99.07 1.66-.4.67-1.05 1.02-1.48.77-.42-.24-.45-.99-.06-1.66.38-.67 1.04-1.01 1.47-.77z" fill="#7ab94b"/></svg>