<svg height="18" viewBox="0 0 18 18" width="18" xmlns="http://www.w3.org/2000/svg"><path d="m0 0h18v18h-18z" fill="#f0f3fa"/><path d="m13.75 12a5.65 5.65 0 0 0 .16-2.67h-3.37c.02.12.02.23.02.34 0 1.04-.31 1.9-.53 2.33zm-9.5 0a5.65 5.65 0 0 1 -.16-2.67h4.71c-.31.8-.8 1.48-1.52 1.84l.78.83zm-.1-3h4.77c.11-.33.2-.66.25-1h-4.67c-.14.32-.26.65-.34 1zm.52-1.33h4.56c.05-.35.08-.69.1-1h-3.97c-.27.3-.5.63-.7 1zm1.02-1.34h3.64c0-.24 0-.47-.02-.66h-2.73c-.32.18-.62.4-.89.66zm1.57-1h3.48a4.71 4.71 0 0 0 -3.48 0zm4.16.34h-2.1l.3.66h2.69a5.03 5.03 0 0 0 -.89-.66zm1.21 1h-2.87c.13.3.26.65.38 1h3.2c-.2-.37-.44-.7-.7-1zm.87 1.33h-3.25c.1.34.2.68.25 1h3.34c-.08-.35-.2-.68-.34-1z" fill="#d82223"/></svg>