<svg height="18" viewBox="0 0 18 18" width="18" xmlns="http://www.w3.org/2000/svg"><path d="m0 0h18v18h-18z" fill="#f0f3fa"/><path d="m9.66 11.59c1.2-.47 2.03-1.31 2.17-2.29h-2.2a3.21 3.21 0 0 1 -.63 1.7 3.21 3.21 0 0 1 -.63-1.7h-2.2c.14.98.98 1.82 2.17 2.29a1.8 1.8 0 0 1 -.91.25c-1.23 0-2.23-1.27-2.23-2.84s1-2.84 2.22-2.84c.32 0 .63.1.9.25-1.18.47-2.02 1.31-2.16 2.29h2.2c.06-.66.29-1.25.63-1.7.34.45.57 1.04.63 1.7h2.2c-.14-.98-.98-1.82-2.17-2.29.28-.16.59-.25.91-.25 1.23 0 2.22 1.27 2.22 2.84s-1 2.84-2.22 2.84a1.8 1.8 0 0 1 -.9-.25zm-.66.21c-.49.12-1.02.19-1.57.19-2.45.01-4.43-1.33-4.43-2.99s1.98-3 4.43-3c.55 0 1.08.07 1.57.2.49-.13 1.02-.2 1.57-.2 2.45 0 4.43 1.34 4.43 3s-1.98 3-4.43 3c-.55 0-1.08-.07-1.57-.2z" fill="#013787" fill-rule="evenodd"/></svg>