<svg fill="none" height="18" width="18" xmlns="http://www.w3.org/2000/svg" xmlns:xlink="http://www.w3.org/1999/xlink"><linearGradient id="a" gradientUnits="userSpaceOnUse" x1="3.349" x2="21.904" y1="3.122" y2="24.434"><stop offset="0" stop-color="#1a1e21"/><stop offset="1" stop-color="#06060a"/></linearGradient><path d="m0 0h18v18h-18z" fill="url(#a)"/><path d="m8.743 8.036v2.537c0 .524-.358.945-.882.945v.482h2.995v-.48a.856.856 0 0 1 -.856-.86v-2.55c0-.51.338-.926.85-.926s.9.415.9.926v2.533c0 .371-.319.431-.62.151-.048-.044.251 1.21 1.422 1.206.148 0 1.079.011 1.467-.904l.094-.231-.207-.073c-.053.559-.921.575-.906-.149v-2.49l-.001-.097c-.005-.335-.01-.656.54-.656-.172-.668-1.095-1.4-2.065-1.4-.528 0-1.144.184-1.675.492-.639-.792-1.559-1.268-2.637-1.096-.864.137-1.623.61-2.178 1.283 0 0-.146-.467-.464-.48-.33-.013-.56.364-.573.67a.657.657 0 0 0 .478.65c-.172.365-.325.823-.25 1.345.106.733.619 1.454 1.397 1.544.42.048.854-.096 1.18-.414.367-.358.766-1.326.4-2.202-.086-.204-.195-.461-.438-.498-.32-.063-.555.227-.555.498 0 .096.018.19.053.265.092.2.365.214.524.075.028.226.042.45-.135.616-.176.167-.458.194-.7.102-.523-.199-.654-.86-.542-1.353.162-.713.698-1.255 1.454-1.297 1.045-.06 1.93.834 1.93 1.836z" fill="#fff"/></svg>