<svg height="18" viewBox="0 0 18 18" width="18" xmlns="http://www.w3.org/2000/svg"><path d="m0 0h18v18h-18z" fill="#f0f3fa"/><path d="m10.42 13s-.75-7.58-3.37-7.97c0 0 2.66-1.5 4.53 7.97z" fill="#a31c1a"/><path d="m10.42 13h1.17s.43-5.74 2.41-6.03c0 0-2.16-1.15-3.58 6.03z" fill="#e1161c"/><path d="m9.31 13h-1.15s-1.02-4.94-2.7-5.76c0 0 1.59-.46 3.85 5.76z" fill="#007c79"/><path d="m9.31 13s.71-7.2 3.2-7.57c0 0-2.57-1.43-4.35 7.57h1.14z" fill="#00a297"/><path d="m4 8.85s1.06-.05 1.97 4.15h1.09s-1.53-4.3-3.06-4.15z" fill="#174480"/><path d="m5.97 13h1.09s.77-9 4.15-8.92c0 0-3.63-1.54-5.24 8.92z" fill="#1960a9"/></svg>