<svg height="18" viewBox="0 0 18 18" width="18" xmlns="http://www.w3.org/2000/svg" xmlns:xlink="http://www.w3.org/1999/xlink"><linearGradient id="a" gradientUnits="userSpaceOnUse" x1="4" x2="7.1" y1="7.02" y2="9.93"><stop offset="0" stop-color="#777c80"/><stop offset="1" stop-color="#909497"/></linearGradient><linearGradient id="b" gradientUnits="userSpaceOnUse" x1="15.01" x2="10.67" y1="7.02" y2="13.9"><stop offset="0" stop-color="#585e62"/><stop offset="1" stop-color="#95999c"/></linearGradient><linearGradient id="c" gradientUnits="userSpaceOnUse" x1="10.33" x2="15.01" y1="7.26" y2="7.26"><stop offset="0" stop-color="#b3b4b8"/><stop offset="1" stop-color="#dcdddf"/></linearGradient><linearGradient id="d" gradientUnits="userSpaceOnUse" x1="10.46" x2="10.46" y1="3" y2="7.26"><stop offset="0" stop-color="#1a1718"/><stop offset=".52" stop-color="#616365"/></linearGradient><linearGradient id="e" gradientUnits="userSpaceOnUse" x1="8.1" x2="10.83" y1="11.24" y2="13.78"><stop offset="0" stop-color="#8d9295"/><stop offset="1" stop-color="#72787c"/></linearGradient><linearGradient id="f"><stop offset="0" stop-color="#fbd7c7"/><stop offset="1" stop-color="#ec563e"/></linearGradient><linearGradient id="g" gradientUnits="userSpaceOnUse" x1="7.24" x2="7.24" xlink:href="#f" y1="9.53" y2="10.43"/><linearGradient id="h" gradientUnits="userSpaceOnUse" x1="9.12" x2="9.12" xlink:href="#f" y1="7.11" y2="8.24"/><linearGradient id="i" gradientUnits="userSpaceOnUse" x1="11.24" x2="11.24" xlink:href="#f" y1="7.11" y2="8.15"/><path d="m0 0h18v18h-18z" fill="#f0f3fa"/><path d="m8.16 7 2.44-4v4h4.4l-4.4 2.58v4.42l-2.49-2.55-4.11 2.55 2.6-4.26-2.6-2.74z" fill="#95999c"/><path d="m6.59 9.74-2.59-2.74h.17l.47.26 2.4 2.56z" fill="url(#a)"/><path d="m14.81 7h.19l-4.4 2.58v4.16l-.13-.36v-3.92l3.63-2.2z" fill="url(#b)"/><path d="m10.6 6.93v.07h4.4l-.88.26h-3.79l.26-.33z" fill="url(#c)"/><path d="m10.6 7v-4l-.1.15-.17.83v3.28z" fill="url(#d)"/><path d="m10.6 3-2.44 4h-4.16l.59.23h3.85l1.89-3.25z" fill="#fefefe"/><path d="m4 14 2.59-4.25.44.09-2.4 3.47z" fill="#dcdde0"/><path d="m4 14 .62-.65 3.58-2.25-.09.35z" fill="#53585e"/><path d="m10.6 14-2.49-2.55.08-.32 2.28 2.25z" fill="url(#e)"/><path d="m7.67 8.98c.07 0 0 .2-.04.29.53-.72 1.6-2.18 1.66-2.23.06-.07.28-.04.47.07.2.1.2.23.18.33-.01.11-.47 1.91-.47 2.18a15.1 15.1 0 0 1 2.13-2.58c.05 0 .35.23.35.4 0 .18-.92 1.05-.97 1.05-.04 0-.08-.05-.1-.07a32.1 32.1 0 0 0 -1.46 2.08c-.12.27-.25.43-.35.43-.08 0-.35-.08-.47-.13l.37-2.6c-.5.9-1.57 2.7-1.76 2.7-.23 0-.21-.49-.21-.47 0-.86.6-1.45.67-1.45z" fill="#e2211c"/><path d="m7.33 9.53c-.05.2-.15.65-.17.9-.03-.05-.04-.67.17-.9z" fill="url(#g)"/><path d="m9.43 7.2-.9 1.04c.23-.32.72-1 .84-1.13.17 0 .3.06.34.09z" fill="url(#h)"/><path d="m11.62 7.1.15.13-.13-.02-.94.94.92-1.04z" fill="url(#i)"/></svg>