<svg fill="none" height="18" width="18" xmlns="http://www.w3.org/2000/svg" xmlns:xlink="http://www.w3.org/1999/xlink"><linearGradient id="a" gradientUnits="userSpaceOnUse" x1="13.561" x2="8.008" y1="7.857" y2="10.642"><stop offset=".332" stop-color="#e19cc8"/><stop offset=".541" stop-color="#efc3e0"/><stop offset=".742" stop-color="#fce9f7"/></linearGradient><linearGradient id="b" gradientUnits="userSpaceOnUse" x1="11.872" x2="14.623" y1="8.621" y2="12.57"><stop offset=".192" stop-color="#61169d"/><stop offset=".938" stop-color="#3d1a54"/></linearGradient><linearGradient id="c" gradientUnits="userSpaceOnUse" x1="4.523" x2="8.019" y1="14.372" y2="9.542"><stop offset=".337" stop-color="#431361"/><stop offset=".686" stop-color="#5e179a"/></linearGradient><linearGradient id="d" gradientUnits="userSpaceOnUse" x1="12.801" x2="8.165" y1="6.583" y2="7.276"><stop offset=".241" stop-color="#461663"/><stop offset=".791" stop-color="#6316a1"/></linearGradient><linearGradient id="e" gradientUnits="userSpaceOnUse" x1="7.184" x2="9.217" y1="9.144" y2="6.014"><stop offset=".423" stop-color="#eea8da"/><stop offset=".657" stop-color="#f6cfe0"/><stop offset=".788" stop-color="#ffe1fd"/></linearGradient><linearGradient id="f" gradientUnits="userSpaceOnUse" x1="8.789" x2="8.175" y1="13.005" y2="7.407"><stop offset=".239" stop-color="#e29dc6"/><stop offset=".705" stop-color="#ffe3f5"/></linearGradient><path d="m0 0h18v18h-18z" fill="#f0f3fa"/><path d="m10.563 9.144h-1.49l-.812 1.287h3.083l1.562-2.574h-1.615z" fill="url(#a)"/><path d="m14.406 10.436-1.508-2.566-1.55 2.562h-3.1l1.549 2.574h3.1l1.509-2.569zm-7.71-.006 1.549-2.573h-3.1l-1.55 2.578.005-.004 1.544 2.574h3.1l-1.547-2.575z" fill="#ac2dd9"/><path d="m12.04 6.489-1.468-2.494h-3.125l-1.678 2.575h3.252l1.551 2.582 1.469-2.662z" fill="#ac2dd9"/><path d="m12.898 7.869 1.502 2.561-1.502 2.574-1.55-2.57 1.55-2.566z" fill="url(#b)"/><path d="m8.246 13.005h-3.102l-1.544-2.575h3.096l1.55 2.574z" fill="url(#c)"/><path d="m9.022 6.57 1.55 2.58 1.469-2.671-1.469-2.484-1.55 2.574z" fill="url(#d)"/><path d="m10.57 9.144h-1.48l-.842-1.288h-1.64l-.838-1.286h3.251l1.55 2.575z" fill="url(#e)"/><path d="m8.25 7.857-1.562 2.573 1.562 2.574.776-1.288-.776-1.286.845-1.287-.845-1.287z" fill="url(#f)"/></svg>