<svg height="18" viewBox="0 0 18 18" width="18" xmlns="http://www.w3.org/2000/svg" xmlns:xlink="http://www.w3.org/1999/xlink"><linearGradient id="a" gradientUnits="userSpaceOnUse" x1="9.08" x2="9.08" y1="4" y2="12.01"><stop offset=".26" stop-color="#a9cce8"/><stop offset="1" stop-color="#1b80c1"/></linearGradient><linearGradient id="b" gradientUnits="userSpaceOnUse" x1="10.36" x2="13.53" y1="6.88" y2="11.27"><stop offset="0" stop-color="#ffca00"/><stop offset="1" stop-color="#f18a01"/></linearGradient><linearGradient id="c" gradientUnits="userSpaceOnUse" x1="10.53" x2="10.53" y1="6.93" y2="11.56"><stop offset="0" stop-color="#fab500"/><stop offset="1" stop-color="#ee7d01"/></linearGradient><linearGradient id="d" gradientUnits="userSpaceOnUse" x1="4.38" x2="7.56" y1="7.79" y2="12.7"><stop offset="0" stop-color="#b0bb08"/><stop offset="1" stop-color="#5d891e"/></linearGradient><linearGradient id="e" gradientUnits="userSpaceOnUse" x1="4.17" x2="5.69" y1="7.69" y2="10.72"><stop offset="0" stop-color="#89a626"/><stop offset="1" stop-color="#638d1f"/></linearGradient><linearGradient id="f" gradientUnits="userSpaceOnUse" x1="7.55" x2="7.55" y1="7.02" y2="11.5"><stop offset="0" stop-color="#8eb9e0"/><stop offset=".68" stop-color="#157cc0"/></linearGradient><path d="m0 0h18v18h-18z" fill="#f0f3fa"/><path d="m8.86 6.76c-1.45.85-2.3 1.95-2.3 3.08 0 1.2.97 2.16 2.17 2.16h.35c1.39 0 2.52-1.67 2.52-3.06v-.61c-.07-2.2-.53-3.38-.8-4.3l-.01-.03c0 .35-.12 1.7-1.93 2.76z" fill="url(#a)"/><path d="m11.76 6.76c-1.45.85-2.3 1.95-2.3 3.08 0 1.2.97 2.16 2.17 2.16h.35c1.4 0 2.52-1.67 2.52-3.06v-.61c-.07-2.2-.53-3.38-.8-4.3v-.03c0 .35-.13 1.7-1.94 2.76z" fill="url(#b)"/><path d="m11.5 6.93c-1.3.82-2.04 1.85-2.04 2.9 0 .7.33 1.33.84 1.73a3.5 3.5 0 0 0 1.3-2.62v-.61a14.7 14.7 0 0 0 -.1-1.4z" fill="url(#c)"/><path d="m3.5 9.84c0-1.13.86-2.23 2.3-3.08 1.81-1.05 1.93-2.41 1.93-2.76l.01.02.12.4c.27.87.63 2 .68 3.9v.62c0 1.39-1.13 3.06-2.52 3.06h-.35a2.2 2.2 0 0 1 -.6-.09c-.07.5.03 1.62.09 2.09h-.51c0-.85.07-1.79.11-2.2a2.16 2.16 0 0 1 -1.26-1.96z" fill="url(#d)"/><path d="m5.66 9.61c-.07.14-.16.31-.24.5a4.95 4.95 0 0 1 -.82-1.74c.01.4.16 1.35.68 2.06l-.52 1.38a2.17 2.17 0 0 1 -1.26-1.97c0-1.14.86-2.24 2.3-3.08 1.79-1.04 1.94-2.37 1.95-2.76v.01c.16 1-.17 2.11-.62 3.08-.14-.32-.22-.6-.26-.77 0 .21.05.57.16.97-.23.49-.5.93-.73 1.31a5.1 5.1 0 0 1 -.53-1.33c0 .31.1.96.38 1.57l-.2.31-.28.45z" fill="url(#e)"/><path d="m8.45 7.02c-1.2.8-1.9 1.8-1.9 2.82 0 .66.3 1.26.78 1.66a3.53 3.53 0 0 0 1.22-2.56v-.62a14.9 14.9 0 0 0 -.1-1.3z" fill="url(#f)"/></svg>