<svg height="18" viewBox="0 0 18 18" width="18" xmlns="http://www.w3.org/2000/svg"><path d="m0 0h18v18h-18z" fill="#023958"/><g fill="#f0000a"><path d="m12.48 5.24-.41-.24a15.01 15.01 0 0 1 -2.54 4 14.99 14.99 0 0 1 2.54 4l.4-.23a3.04 3.04 0 0 0 1.53-2.64v-2.26c0-1.09-.58-2.1-1.52-2.63z"/><path d="m7.49 10.93c.85.98 1.55 2.1 2.06 3.32.34-.06.67-.18.97-.36l1.55-.89a15.01 15.01 0 0 0 -2.53-4c-.63.7-1.31 1.35-2.05 1.93z" opacity=".8"/><path d="m5.08 12.45c.14.12.28.22.44.31l1.96 1.13c.63.37 1.37.49 2.07.36-.51-1.22-1.2-2.34-2.06-3.33-.75.59-1.56 1.1-2.4 1.53z" opacity=".6"/><path d="m9.54 9a14.99 14.99 0 0 0 2.53-4l-1.55-.9c-.3-.17-.63-.29-.97-.35-.51 1.22-1.2 2.34-2.06 3.33.74.57 1.41 1.22 2.05 1.92z" opacity=".8"/><path d="m9.55 3.75a3.03 3.03 0 0 0 -2.07.36l-1.96 1.13c-.16.09-.3.2-.44.3.85.44 1.66.95 2.4 1.53.86-.98 1.56-2.1 2.07-3.32zm-2.06 3.33c-.63.72-1.34 1.36-2.12 1.92.78.56 1.49 1.2 2.12 1.93.74-.58 1.41-1.23 2.05-1.93-.63-.7-1.31-1.35-2.05-1.92z" opacity=".6"/><path d="m5.37 9c-.44.31-.9.6-1.37.85v.28c0 .9.4 1.75 1.08 2.32.85-.43 1.66-.94 2.4-1.52a12.2 12.2 0 0 0 -2.1-1.93zm2.12-1.92c-.75-.59-1.56-1.1-2.4-1.53a3.04 3.04 0 0 0 -1.09 2.32v.28c.48.25.93.54 1.37.85.78-.56 1.49-1.2 2.12-1.92z" opacity=".4"/></g></svg>