<svg height="18" viewBox="0 0 18 18" width="18" xmlns="http://www.w3.org/2000/svg"><path d="m0 0h18v18h-18z" fill="#f0f3fa"/><path d="m7.57 5.02a.27.27 0 0 0 -.09-.02h-2.3c-.1 0-.18.08-.18.18v2.49zm-2.52 7.93c.03.03.08.05.13.05h2.22c.1 0 .16-.08.16-.18v-2.52l-2.52 2.65z" fill="#0db04b"/><path d="m10.43 7.67v5.3l.01.01 2.56-2.65z" fill="#076836"/><path d="m7.57 10.33v-5.3l-.01-.01-2.56 2.65v5.15c0 .05.02.1.05.13zm5.43 0v-5.15c0-.1-.08-.18-.17-.18h-2.23c-.1 0-.17.08-.17.18v2.49zm0 0-2.57 2.65.08.02h2.32c.1 0 .17-.08.17-.18z" fill="#8bc53f"/><path d="m7.65 5.07a.26.26 0 0 0 -.08-.05v5.31l2.78 2.6.08.05v-5.31z" fill="#0db04b"/></svg>