<svg height="18" width="18" xmlns="http://www.w3.org/2000/svg"><path d="m0 0h18v18h-18z" fill="#f0f3fa"/><path d="m6.278 5.993c-.43 0-.779.387-.778.757v3.383c0 .372.348.698.778.698.431 0 .722-.326.722-.698v-3.383c0-.4-.31-.757-.722-.757zm-2.522.757c-.464 0-.757.303-.756.702v3.532c0 .399.292.664.756.663.459 0 .745-.261.744-.663v-3.532c0-.399-.28-.703-.744-.702z" fill="#006e9f"/><path d="m14.497 7.875a.485.485 0 0 0 -.351.15.513.513 0 0 0 -.146.362v2.346c0 .283.222.517.497.517a.51.51 0 0 0 .503-.517v-2.34a.513.513 0 0 0 -.503-.518z" fill="#9ad9e9"/><path d="m8.5 6.75c-.278 0-.5.291-.5.645v2.835c0 .354.226.645.5.645s.5-.291.5-.645v-2.835c0-.354-.226-.645-.5-.645z" fill="#0083bf"/><path d="m12.5 8.25c-.278 0-.5.258-.5.58v2.59c0 .322.222.58.5.58s.5-.258.5-.58v-2.59c0-.322-.222-.58-.5-.58z" fill="#00b3e2"/><path d="m10.5 7.875c-.276 0-.5.262-.5.585v2.58c0 .323.224.585.5.585s.5-.262.5-.585v-2.58c-.004-.323-.228-.585-.5-.585z" fill="#0083bf"/></svg>