<svg height="18" width="18" xmlns="http://www.w3.org/2000/svg"><path d="m0 0h18v18h-18z" fill="#026770"/><path d="m8.781 12.323c-1.822 0-3.299-1.52-3.299-3.394s1.477-3.394 3.3-3.394c1.82 0 3.298 1.52 3.298 3.394 0 1.875-1.477 3.394-3.299 3.394zm6.13-4.646c-.562-2.662-3.665-4.228-6.93-3.498s-5.456 3.481-4.893 6.144c.563 2.662 3.666 4.228 6.93 3.498 3.266-.73 5.456-3.482 4.894-6.144z" fill="#fff"/><path d="m8.22 12.817c-1.698 0-3.074-1.549-3.074-3.46 0-1.91 1.376-3.459 3.075-3.459 1.698 0 3.075 1.549 3.075 3.46 0 1.91-1.377 3.459-3.075 3.459zm.78-7.817c-2.209 0-4 2.015-4 4.5s1.791 4.5 4 4.5 4-2.015 4-4.5-1.791-4.5-4-4.5z" fill="#9bd3cd"/></svg>