<svg height="18" width="18" xmlns="http://www.w3.org/2000/svg"><path d="m0 0h18v18h-18z" fill="#f0f3fa"/><path d="m15 5-3.527 8h-2.885c.686-.537.805-1.18.427-2.21l-1.511-3.977-1.557 3.994c-.093.213-.14.656-.138.889 0 .267.061.53.177.77.117.239.286.37.495.534h-3.481l3.527-8h2.687l1.206 4.286.702-1.782 1.114-2.504z" fill="#0066a4"/><path d="m6.37 11.697c0-.36 1.124-3.529 1.124-3.529s.995 2.691 1.18 3.326c.202.69-.174 1.006-.736 1.293-.109.056-.129.218-.14.359-.014.169-.011.168-.135.348-.139-.037-.303-.112-.303-.112s.191-.064.236-.169c.061-.144-.014-.343-.158-.37-1-.188-1.067-.787-1.067-1.146z" fill="#419639"/></svg>