<svg height="18" viewBox="0 0 18 18" width="18" xmlns="http://www.w3.org/2000/svg"><path d="m0 0h18v18h-18z" fill="#f0f3fa"/><g fill-rule="evenodd"><path d="m11.2 10.96-3.2-4.76c-.25-.39-.75-.39-1 0l-3.2 4.77c-.35.51-.04 1.26.5 1.26h6.4c.54 0 .85-.75.5-1.26zm-2.68-5.25c-.52-.78-1.52-.78-2.04-.01l-3.2 4.77c-.66 1.03-.06 2.53 1.02 2.53h6.4c1.09 0 1.7-1.5 1.01-2.52l-3.2-4.78z" fill="#ac9f83"/><path d="m14.26 11.06-3.77-6.02c-.25-.4-.73-.4-.98 0l-3.77 6.02c-.3.49-.02 1.2.49 1.2h7.54c.5 0 .8-.71.49-1.2zm-3.28-6.47c-.5-.79-1.47-.79-1.96 0l-3.77 6.01c-.61.98-.04 2.39.98 2.39h7.54c1.02 0 1.6-1.41.98-2.4l-3.77-5.99z" fill="#37494f"/></g></svg>