<svg height="18" width="18" xmlns="http://www.w3.org/2000/svg" xmlns:xlink="http://www.w3.org/1999/xlink"><linearGradient id="a" gradientUnits="userSpaceOnUse" x1="13.86" x2="9.67" y1="2.99" y2="13.93"><stop offset=".26" stop-color="#c3c9c9"/><stop offset=".39" stop-color="#d6d9db"/><stop offset=".52" stop-color="#ebecee"/><stop offset=".82" stop-color="#c3c4c9"/></linearGradient><linearGradient id="b" gradientUnits="userSpaceOnUse" x1="10.19" x2="6.3" y1="4.73" y2="13.77"><stop offset=".13" stop-color="#f7592f"/><stop offset=".58" stop-color="#f19a25"/><stop offset=".89" stop-color="#ff5733"/></linearGradient><linearGradient id="c" gradientUnits="userSpaceOnUse" x1="9.22" x2="5.91" y1="2.49" y2="14.06"><stop offset=".23" stop-color="#f08528"/><stop offset=".26" stop-color="#f19926"/><stop offset=".35" stop-color="#f4b621"/><stop offset=".41" stop-color="#f5c220"/><stop offset=".53" stop-color="#f6d51e"/><stop offset=".71" stop-color="#f3ab23"/><stop offset=".86" stop-color="#ef7e29" stop-opacity="0"/></linearGradient><linearGradient id="d" gradientUnits="userSpaceOnUse" x1="9.96" x2="9.63" y1="5.98" y2="12.24"><stop offset=".03" stop-color="#f5692d"/><stop offset=".1" stop-color="#f48629"/><stop offset=".22" stop-color="#f5c71f"/><stop offset=".35" stop-color="#fdd953" stop-opacity=".62"/><stop offset=".52" stop-color="#f6ea56" stop-opacity=".51"/><stop offset=".59" stop-color="#fcd552" stop-opacity=".64"/><stop offset=".69" stop-color="#fbce4f"/><stop offset=".76" stop-color="#f3ad23"/><stop offset="1" stop-color="#ef7e29"/></linearGradient><linearGradient id="e" gradientUnits="userSpaceOnUse" x1="8.76" x2="6.94" y1="7.6" y2="10.1"><stop offset=".16" stop-color="#ffe759" stop-opacity=".3"/><stop offset=".55" stop-color="#f5ed58" stop-opacity=".97"/><stop offset=".9" stop-color="#ffe759" stop-opacity=".53"/></linearGradient><linearGradient id="f" gradientUnits="userSpaceOnUse" x1="8.88" x2="3.52" y1="3.12" y2="13.81"><stop offset=".3" stop-color="#c3c9c9"/><stop offset=".45" stop-color="#d6d9db"/><stop offset=".58" stop-color="#ebecee"/><stop offset=".85" stop-color="#c3c4c9"/></linearGradient><path d="m0 0h18v18h-18z" fill="#f0f3fa"/><path d="m14.64 5.32c-.41-.25-.9-.35-1.42-.31a6.16 6.16 0 0 0 -4.23 2.58c-1.17 1.75-.8 3.97.84 4.95.48.29 1.01.44 1.56.46a4.1 4.1 0 0 0 3.43-1.9 6.24 6.24 0 0 0 1.06-3.05c.04-1.16-.39-2.22-1.24-2.73z" fill="url(#a)"/><path d="m10.23 5h-.19a6.06 6.06 0 0 0 -4.17 2.58 4 4 0 0 0 -.7 2.2 3.2 3.2 0 0 0 3.08 3.22c.54.02 1.08-.08 1.46-.32-1.4-.7-1.7-2.1-1.7-3.05.03-.84.3-1.58.64-2.06a6.3 6.3 0 0 1 2.8-2.24c0-.12 0-.07 0 0a2.26 2.26 0 0 0 -1.2-.33z" fill="url(#b)"/><path d="m8.98 12.18c-.25.09-.57.14-.8.14-.55 0-1.05-.18-1.48-.58a2.82 2.82 0 0 1 -.83-2.07c0-.82.29-1.7.84-2.43.81-1.1 2.1-1.98 3.25-1.93.31.02.6.12.8.33-1.03.57-2.25 1.65-2.64 3.02-.07.27-.12.59-.12.88 0 .79.11 1.84.98 2.64z" fill="url(#c)" opacity=".3"/><path d="m10.2 5.98a5.26 5.26 0 0 0 -2.13 2.83 4 4 0 0 0 -.07.74c0 .86.2 1.78.75 2.43h-.23a1.67 1.67 0 0 1 -.93-.35 2.5 2.5 0 0 1 -1.02-2.08c0-.55.17-1.12.47-1.64a4.44 4.44 0 0 1 3.17-1.93z" fill="url(#d)" opacity=".6"/><path d="m7.26 9.28c0 1.02.61 1.3.86 1.4a4.03 4.03 0 0 1 .45-2.99c-.43.07-1.3.75-1.3 1.6z" fill="url(#e)" opacity=".9"/><path d="m6.83 5a2.58 2.58 0 0 1 1.43.33 6.34 6.34 0 0 0 -2.8 2.26 4.04 4.04 0 0 0 -.68 2.14 3.21 3.21 0 0 0 1.8 3c-.5.2-1.03.27-1.54.27a3.13 3.13 0 0 1 -1.53-.44 3.23 3.23 0 0 1 -1.51-2.83c.01-.72.25-1.46.69-2.14.86-1.32 2.61-2.59 4.14-2.59z" fill="url(#f)"/><path d="m9.56 8h6.44l-.55 2h-6.45z" fill="#002d6a" opacity=".86"/></svg>