<svg height="18" viewBox="0 0 18 18" width="18" xmlns="http://www.w3.org/2000/svg"><path d="m0 0h18v18h-18z" fill="#1f3664"/><path d="m12.68 10.28.26.25-3.83 3.4c-.14.12-.29.07-.38 0h-.02l-.02-.02-.01-.01-.02-.02-.02-.01 4.04-3.6zm-.52-.5.26.25-4.04 3.59-.26-.25zm-.52-.5.26.25-4.04 3.6-.26-.25zm-1.82.68.26.24-2.74 2.43-.26-.25zm-.52-.5.26.25-2.74 2.43-.26-.25zm-.52-.5.26.25-2.74 2.43-.26-.25zm-.53-.5.26.26-2.73 2.42-.26-.24 2.73-2.43zm-.52-.49.26.25-2.73 2.43-.26-.25zm-1.37.74-1.3-1.24 3.82-3.4h.01l.01-.01.02-.01.01-.01h.02l.02-.02c.08-.03.2-.04.33.05l.01.02 3.69 3.5-2.73 2.44-2.45-2.34-.16-.14z" fill="#fff"/></svg>