<svg height="18" width="18" xmlns="http://www.w3.org/2000/svg"><path d="m0 0h18v18h-18z" fill="#023f74"/><path d="m5.378 14c.311-1.604.598-2.697.822-3.61l.211-.83.137-.552.285-1.176 1.38 2.558a66.815 66.815 0 0 1 1.787 3.61h1.606c.124-.609.249-1.203.373-1.812a139.52 139.52 0 0 1 2.026-8.188h-1.455c-.286 1.494-.447 2.325-.61 2.96l-.21.913-.274 1.135-.087.414-.161.678c-.361-.72-.46-.913-.56-1.092-1.328-2.42-1.742-3.293-2.513-5.008h-1.749c-.496 2.559-1.056 5.021-1.926 8.285-.15.567-.298 1.148-.46 1.715z" fill="#f6f8fd"/></svg>