<svg height="18" viewBox="0 0 18 18" width="18" xmlns="http://www.w3.org/2000/svg" xmlns:xlink="http://www.w3.org/1999/xlink"><linearGradient id="a" gradientUnits="userSpaceOnUse" x1="3" x2="10" y1="9" y2="9"><stop offset="0" stop-color="#dc6b2f"/><stop offset=".39" stop-color="#c45433"/><stop offset="1" stop-color="#a4343a"/></linearGradient><linearGradient id="b" gradientUnits="userSpaceOnUse" x1="3.14" x2="10.13" y1="8.68" y2="8.68"><stop offset=".39" stop-color="#c45433"/><stop offset="1" stop-color="#a4343a"/></linearGradient><path d="m0 0h18v18h-18z" fill="#f0f3fa"/><path d="m14.59 7.03.41.35c-.27.16-.46.21-.72.21a.77.77 0 0 1 -.3-.04c.18.18.22.38.22.61 0 .7-.62 1.15-1.4 1.15-.57.17-.77.3-.77.42 0 .11.13.18.34.18h.69c.71 0 1.5.23 1.5.96 0 .78-.66 1.13-1.7 1.13-1.34 0-1.86-.4-1.86-.91 0-.13.02-.24.08-.39l.71-.05a.58.58 0 0 0 -.12.33c0 .18.1.34.25.42.2.1.53.17.87.17.66 0 1.04-.18 1.04-.63 0-.52-.6-.6-1.08-.6h-.66c-.51 0-.8-.15-.8-.47 0-.29.18-.46.77-.62-.58-.15-.97-.56-.97-1.04 0-.72.65-1.21 1.59-1.21.65 0 .78.2 1.3.2.24 0 .41-.05.6-.17zm-1.92.44c-.53 0-.8.23-.8.72 0 .46.27.7.82.7s.78-.23.78-.72c0-.48-.23-.7-.8-.7z" fill="#41273b"/><path d="m4.88 6-1.88 2.1v3.9h5.12l1.88-2.1v-3.9z" fill="url(#a)"/><path d="m6.09 8.32c-.3 0-.47.24-.49.71h.97c0-.25-.03-.4-.1-.5a.45.45 0 0 0 -.38-.21z" fill="url(#b)"/><path d="m6.92 7c-.45 0-.89.2-1.32.61 0-.32-.15-.61-.15-.61l-.65.13s.2.3.2.86v3.01h.6v-2.91c.29-.3.83-.56 1.17-.56.49 0 .63.34.63.82v2.65h.6v-2.97c0-.65-.53-1.02-1.08-1.02z" fill="#fff"/></svg>