<svg height="18" viewBox="0 0 18 18" width="18" xmlns="http://www.w3.org/2000/svg"><path d="m0 0h18v18h-18z" fill="#f0f3fa"/><path d="m14 10.64a3.34 3.34 0 0 1 -2.73 1.36c-2.14 0-3.27-1.34-3.27-3s1.13-3 3.27-3c1.09 0 2.06.5 2.65 1.25l-.58.37a2.67 2.67 0 0 0 -2.07-.87c-1.42 0-2.52.86-2.52 2.25 0 1.4 1.1 2.25 2.52 2.25.87 0 1.64-.33 2.1-.9l.63.3z" fill="#1c3565"/><path d="m6 6h-1v1h-1v1h1v2.22c.02.6.1 1.78 1.76 1.78 1.67 0 3.7-1.39 4.42-1.98l-1.43-.29c-.53.33-1.9 1.27-2.64 1.27-.5 0-1.11-.61-1.11-.98v-2.02h1v-1h-1z" fill="#00aad4"/><circle cx="11" cy="9" fill="#00aad4" r="1.59"/><circle cx="11" cy="9" fill="#9fd4ea" r="1"/></svg>