<svg height="18" viewBox="0 0 18 18" width="18" xmlns="http://www.w3.org/2000/svg"><path d="m0 0h18v18h-18z" fill="#1daee3"/><path d="m8.86 6c.08 0 .14.06.14.13v5.74c0 .07-.06.13-.14.13h-1.36a.14.14 0 0 1 -.12-.07l-1.84-3.13c-.01-.02-.04-.01-.04 0v3.08c0 .07.02.13-.06.13h-1.3a.14.14 0 0 1 -.14-.13v-5.75c0-.07.06-.13.14-.13h1.24a.2.2 0 0 1 .18.1l1.74 3.18c.07.12.2.07.2-.07v-3.08c0-.07.12-.13.2-.13zm3.64 4.5c0-.38-.46-.74-.88-.9-.85-.33-1.47-.93-1.47-1.96 0-1.07.98-1.64 1.95-1.64 1 0 1.84.84 1.9 1.87 0 .07-.05.13-.12.13h-1.38c-.07 0-.12-.06-.13-.13-.04-.38.01-.87-.37-.87-.35 0-.5.25-.5.64 0 .45.53.68.87.8.9.33 1.63.89 1.63 1.92 0 1.08-.87 1.64-1.88 1.64-1.1 0-2.06-.69-2.12-1.84 0-.07.05-.13.12-.13h1.38c.07 0 .12.06.12.13.04.53.01.84.5.84.36 0 .38-.12.38-.5z"/></svg>