<svg height="18" viewBox="0 0 18 18" width="18" xmlns="http://www.w3.org/2000/svg"><path d="m0 0h18v18h-18z" fill="#f0f3fa"/><g fill="#0a6160"><path d="m14.23 7c-.46 0-.91.2-1.23.52a1.75 1.75 0 0 0 -3 1.27v2.21h1v-2.23c0-.41.33-.77.76-.77s.74.36.74.77v2.23h1v-2.23a.74.74 0 0 1 .74-.77c.4 0 .81.38.76.78v2.22h1v-2.22a1.8 1.8 0 0 0 -1.1-1.65 1.74 1.74 0 0 0 -.67-.13zm-6.23 6a2 2 0 0 1 -2-2h1c0 .58.42 1 1 1s1-.42 1-1h1a2 2 0 0 1 -2 2zm-2-3.98c0-1.09-.9-2.02-2-2.02a2.04 2.04 0 0 0 -2 2.02v1.98h1v-2.03c-.02-.54.46-1.01 1-1.01s1.02.47 1 1v2.04h1z"/><path d="m9.06 7h-1.07a1.99 1.99 0 0 0 -1.95 2.39 2 2 0 0 0 2.72 1.46 2 2 0 0 0 .96-2.85h.28v-1zm-.06 2a1 1 0 1 1 -2 0 1 1 0 0 1 2 0z"/></g></svg>