<svg height="18" viewBox="0 0 18 18" width="18" xmlns="http://www.w3.org/2000/svg" xmlns:xlink="http://www.w3.org/1999/xlink"><linearGradient id="a" gradientUnits="userSpaceOnUse" x1="5.28" x2="5.28" y1="5.61" y2="13"><stop offset=".08" stop-color="#206932"/><stop offset="1" stop-color="#6ebf47"/></linearGradient><linearGradient id="b" gradientUnits="userSpaceOnUse" x1="12.11" x2="12.11" y1="8" y2="12.38"><stop offset="0" stop-color="#4d983b"/><stop offset="1" stop-color="#20702b"/></linearGradient><linearGradient id="c" gradientUnits="userSpaceOnUse" x1="9.06" x2="9.06" y1="5" y2="13"><stop offset="0" stop-color="#46a74a"/><stop offset=".46" stop-color="#70be44"/><stop offset="1" stop-color="#46a64b"/></linearGradient><linearGradient id="d" gradientUnits="userSpaceOnUse" x1="14.91" x2="11.59" y1="5.06" y2="7.08"><stop offset="0" stop-color="#70bf3f"/><stop offset="1" stop-color="#4f9938"/></linearGradient><path d="m0 0h18v18h-18z" fill="#f0f3fa"/><path d="m3.27 13h2.56c.1 0 .2-.06.25-.16l1.49-3.24-.6-3.42-.37-.56-.5.22-3.07 6.78c-.09.18.04.39.24.39z" fill="url(#a)"/><path d="m10.78 8.12-.35.7c0 .35 0 1.06-.03 1.13-.03.09.89 2.38.93 2.42s.44-.19.64-.3l1.82-3.71c.08-.17-.05-.36-.25-.36h-2.54a.22.22 0 0 0 -.2.12z" fill="url(#b)"/><path d="m7.12 5c-.7 0-1 .6-1.05.9a.42.42 0 0 1 .27-.08c.14 0 .22.22.25.34.49 1.81 1.49 5.59 1.62 6.15.13.57.61.7.84.69h1.64c.83 0 1.26-.75 1.36-1.12-.05.09-.2.27-.36.27s-.25-.16-.27-.23l-1.65-6.26a.85.85 0 0 0 -.8-.66h-1.86z" fill="url(#c)"/><path d="m11.5 7h2.54c.12 0 .23-.07.28-.18l.66-1.45a.26.26 0 0 0 -.25-.37h-2.52a.31.31 0 0 0 -.29.18l-.67 1.45c-.08.17.05.37.25.37z" fill="url(#d)"/></svg>