<svg height="18" viewBox="0 0 18 18" width="18" xmlns="http://www.w3.org/2000/svg" xmlns:xlink="http://www.w3.org/1999/xlink"><linearGradient id="a" gradientUnits="userSpaceOnUse" x1="6.66" x2="10.88" y1="5.41" y2="14"><stop offset="0" stop-color="#01a0e0"/><stop offset="1" stop-color="#0166ab"/></linearGradient><path d="m0 0h18v18h-18z" fill="#f0f3fa"/><path d="m5.58 12.65.26.22 4.73-8.62-.33-.1zm4.34-8.55a5 5 0 0 0 -4.57 8.34zm.94.27-4.77 8.7.32.22 4.8-8.76a4.96 4.96 0 0 0 -.35-.16zm.63.3-4.8 8.77.34.17 4.79-8.73a5 5 0 0 0 -.33-.2zm.58.4-4.74 8.63c.12.05.24.09.37.12l4.67-8.52-.3-.25zm.54.48-4.61 8.35a5.03 5.03 0 0 0 6-4.9c0-1.34-.53-2.56-1.4-3.46z" fill="url(#a)"/></svg>