<svg height="18" viewBox="0 0 18 18" width="18" xmlns="http://www.w3.org/2000/svg"><path d="m0 0h18v18h-18z" fill="#f0f3fa"/><g fill="#009"><path d="m10.7 6.21c1.54-.08 3.04-1.04 3.3-1.21-.14.25-.52 1.08-1.16 1.44-.18.1-1 .56-2.42.56-1.14 0-1.42-.87-1.42-1.3.25.17.78.56 1.7.51zm-4.78.79c-1.47.08-2.27.58-2.54.74-.2-.3-.38-.78-.38-.78s1.64-.96 3-.96c.77 0 1.67.4 2 .6l-.33.72s-.86-.37-1.75-.32zm.42 1.81c-1.18.07-1.82.53-2.03.67-.17-.26-.31-.68-.31-.68s1.31-.8 2.4-.8c.61 0 1.34.34 1.6.51l-.26.6s-.7-.34-1.4-.3zm.46 1.81c-.88.04-1.36.3-1.52.38-.13-.15-.28-.54-.28-.54s.99-.46 1.8-.46c.46 0 1 .2 1.2.3-.1.16-.15.5-.15.5s-.51-.2-1.05-.18z"/><path d="m9.42 15 2.42-4.35c.61.03 1.28-.17 1.56-.32.28-.16.36-.47.41-.7l.06-.2-.06.05c-.21.13-.72.47-1.61.53l1.68-3.01c-.88.34-2.85 1.02-3.8 1.02-.93 0-1.48-.3-1.63-.45-.03.45.21 1.34 1.34 1.34 1.12 0 1.99-.34 2.28-.51l-.9 1.63c-.37.12-.86.22-1.38.22-1 0-1.78-.35-2.04-.53 0 .45.3 1.36 1.52 1.36.67 0 1.1-.05 1.4-.12l-.7 1.3c-.3.07-.65.12-1.02.12-.95 0-1.7-.35-1.95-.53 0 .46.3 1.37 1.46 1.37.43 0 .76-.03 1.01-.06l-.05.1z"/></g></svg>