<svg height="18" viewBox="0 0 18 18" width="18" xmlns="http://www.w3.org/2000/svg" xmlns:xlink="http://www.w3.org/1999/xlink"><linearGradient id="a" gradientUnits="userSpaceOnUse" x1="9.01" x2="9.01" y1="4.28" y2="14"><stop offset="0" stop-color="#73b2e2"/><stop offset=".46" stop-color="#0057a8"/><stop offset=".72" stop-color="#003b95"/></linearGradient><linearGradient id="b" gradientUnits="userSpaceOnUse" x1="9" x2="9" y1="8.32" y2="14"><stop offset="0" stop-color="#fffffe"/><stop offset="1" stop-color="#9ed8f7"/></linearGradient><path d="m0 0h18v18h-18z" fill="#f0f3fa"/><circle cx="9" cy="9" fill="#003b95" r="5"/><ellipse cx="9.01" cy="9.14" fill="url(#a)" rx="4.33" ry="4.86"/><path d="m4.38 10.9c.84-.47 2.27-1.47 2.74-2.5 0 .61-.46 2.13-2.16 3.55a5 5 0 0 1 -.58-1.04zm1.46 1.97a6.66 6.66 0 0 0 2.08-3.59c.1.72 0 2.5-1.22 4.16-.3-.16-.6-.35-.86-.57zm2.53 1.1.7-5.65.62 5.63a5.05 5.05 0 0 1 -1.32.01zm2.93-.53a6.09 6.09 0 0 1 -1.21-4.16 6.66 6.66 0 0 0 2.07 3.6 5 5 0 0 1 -.86.56zm1.74-1.5c-1.7-1.41-2.15-2.93-2.16-3.54.47 1.03 1.9 2.02 2.74 2.5a5 5 0 0 1 -.58 1.05z" fill="url(#b)"/><path d="m9.01 4.54.16.47h.5l-.4.3.15.47-.4-.3-.41.3.15-.48-.4-.29h.5zm-1.93 1.53.16.48h.5l-.4.29.15.48-.4-.3-.41.3.15-.48-.4-.3h.5zm3.89 0 .15.48h.5l-.4.29.15.48-.4-.3-.4.3.15-.48-.4-.3h.5z" fill="#fff"/></svg>