<svg height="18" viewBox="0 0 18 18" width="18" xmlns="http://www.w3.org/2000/svg"><path d="m0 0h18v18h-18z" fill="#f0f3fa"/><g fill="#00388b"><path d="m5.32 12.22 1.08-.77a.05.05 0 0 1 .06 0l1.21.85h.05l1.22-.85a.04.04 0 0 1 .06 0l1.2.85h.05l1.22-.85.03-.01h.02l1.14.81c.02.02.04.01.05 0a15.17 15.17 0 0 0 2.29-3.28 14.25 14.25 0 0 0 -3.27-4.16 14.44 14.44 0 0 0 -2.73-1.81h-.03a13.81 13.81 0 0 0 -5.97 6v.04a15.25 15.25 0 0 0 2.28 3.19zm3.68-5.22h-1.33v3.5h1.33zm-2.33 0h-1.34v3.51h1.34v-1.28h1v-.96h-1zm2.66 0v1h1v2.52h1.34v-2.52h1v-1z" fill-rule="evenodd"/><path d="m10.26 13.26c-.02.02-.04.02-.07 0l-1.19-.85a.04.04 0 0 0 -.05 0l-1.21.85a.05.05 0 0 1 -.06 0l-1.21-.85a.04.04 0 0 0 -.05 0l-.54.37a.02.02 0 0 0 -.01.03v.01a14.3 14.3 0 0 0 3.13 2.18h.04a14.26 14.26 0 0 0 3.06-2.18h-.01l-.58-.41h-.03z"/></g></svg>