<svg fill="none" height="18" width="18" xmlns="http://www.w3.org/2000/svg"><path d="m0 0h18v18h-18z" fill="#f0f3fa"/><g clip-rule="evenodd" fill-rule="evenodd"><path d="m11.948 6.778c.194-.013.595-.038 1.185.015.1.187.22.363.343.54.115.167.23.334.327.511l.01.015c-.842-.173-1.64-.076-2.447.022-.495.06-.993.12-1.506.119-.474-.002-.961-.079-1.452-.157-.9-.142-1.811-.287-2.666.033-.043-.105-.09-.21-.135-.317-.11-.254-.221-.51-.305-.766.536-.12.935-.204 1.526-.204.512 0 .975.098 1.449.199.494.105 1 .212 1.583.212.336 0 .667-.055.996-.109.328-.054.655-.108.986-.108.022 0 .058-.002.106-.005zm1.13 2.929c.212.005.595.014 1.297.123l-.003-.01a2.475 2.475 0 0 1 -.198-.606 4.458 4.458 0 0 0 -.078-.504 4.972 4.972 0 0 0 -1.13-.109c-.387 0-.87.099-1.356.199s-.972.2-1.364.2c-.652 0-1.163-.106-1.66-.209-.466-.096-.919-.19-1.461-.19-.778 0-1.246.123-1.312.143.1.296.194.687.28 1.04l.031.132.001.006c.89-.232 1.753-.133 2.624-.033.494.057.991.114 1.497.111.402-.002.829-.076 1.258-.15.497-.085.996-.17 1.463-.147l.11.004z" fill="#d71f27"/><path d="m4 4.407c.016-.289.327-.409.53-.409.13.003.316.064.316.26a.351.351 0 0 1 -.072.197c.032.094.113.337.223.687.158-.034.314-.07.47-.107.645-.152 1.285-.303 1.964-.217.349.045.707.135 1.068.227.644.164 1.298.33 1.927.24a11.923 11.923 0 0 1 1.669-.114h.212c.26-.002.502-.003.755.014.197 1.152.574 2.08.951 3.009.398.98.796 1.962.987 3.212-1.583-.199-2.264-.085-2.923.025a7.124 7.124 0 0 1 -1.296.127c-.575 0-1.034-.07-1.463-.137-.81-.125-1.518-.234-2.722.179a790.4 790.4 0 0 0 .529 2.402h-.884l-1.957-9.339c-.141-.007-.284-.069-.284-.256zm2.485 6.681c1.48-.337 2.156-.221 2.888-.096.404.069.825.14 1.408.14.407 0 .774-.064 1.16-.132.681-.12 1.424-.25 2.559-.06-.23-.967-.549-1.741-.863-2.506-.354-.86-.704-1.71-.917-2.81-.722-.028-1.533-.03-2.294.078-.66.094-1.339-.073-2.009-.239-.368-.091-.734-.181-1.092-.227-.582-.074-1.126.07-1.677.217-.142.038-.285.076-.43.11l.326 1.437c.18.659.364 1.39.52 2.125.125.595.275 1.289.422 1.963z" fill="#000"/></g></svg>