<svg height="18" width="18" xmlns="http://www.w3.org/2000/svg"><path d="m0 0h18v18h-18z" fill="#ec1b29"/><path d="m14.98 7.5.02-.5h-12a6 6 0 0 0 11.98.5zm-10.48 2.66a5.47 5.47 0 0 1 -.98-2.66h10.96c-.1.99-.44 1.9-.98 2.66v-1.96h-.6v1.03l-.63-1.03h-.57v2.1h.6v-1.16l.36.63c.08.14.22.31.39.41.08.05.2.1.35.12a5.5 5.5 0 0 1 -8.8 0h.5v-1.16l.35.63c.09.14.22.31.4.41.1.06.26.12.45.12v-2.1h-.6v1.03l-.6-1.03h-.6zm5.1-1.19c0 .1.15.22.23.26.48.22.67.41.67.85 0 .43-.35.82-.78.82h-.72v-.6h.6c.16 0 .3-.1.3-.22 0-.2-.15-.27-.33-.36a1.94 1.94 0 0 1 -.24-.12.53.53 0 0 1 -.18-.18c0-.02-.02-.04-.03-.05v.1c0 .44-.38.83-.82.83h-.8v-.6h.68c.16 0 .28-.1.28-.23 0-.18-.25-.27-.37-.31l-.04-.02a.83.83 0 0 1 -.55-.83c0-.43.38-.71.8-.71h.7v.6h-.59c-.13 0-.31.04-.31.18s.2.23.42.33c.2.08.4.17.45.3v-.1c0-.43.36-.71.78-.71h.75v.6h-.6c-.18 0-.3.04-.3.17zm1.2 1.33v-2.1h.6v2.1zm-3.6 0v-2.1h-.6v2.1z" fill="#fff"/></svg>