<svg height="18" viewBox="0 0 18 18" width="18" xmlns="http://www.w3.org/2000/svg" xmlns:xlink="http://www.w3.org/1999/xlink"><linearGradient id="a" gradientUnits="userSpaceOnUse" x1="6" x2="12.13" y1="7.29" y2="10.22"><stop offset="0" stop-color="#0a6272"/><stop offset=".52" stop-color="#4dc3c5"/><stop offset=".97" stop-color="#0a6272"/></linearGradient><linearGradient id="b" gradientUnits="userSpaceOnUse" x1="5.15" x2="12.25" y1="9.34" y2="13.58"><stop offset="0" stop-color="#ecf2f8" stop-opacity="0"/><stop offset=".46" stop-color="#c9edea"/><stop offset="1" stop-color="#f0f3fa" stop-opacity="0"/></linearGradient><linearGradient id="c" gradientUnits="userSpaceOnUse" x1="6.32" x2="13.91" y1="4.59" y2="9.73"><stop offset="0" stop-color="#c9edea" stop-opacity="0"/><stop offset=".52" stop-color="#c9edea"/><stop offset=".85" stop-color="#0a6272"/></linearGradient><path d="m0 0h18v18h-18z" fill="#f0f3fa"/><path d="m12.98 5.04-.97.5-1 2.33-.21-.14.87-2.01-.67.34-.58 1.35-.2-.15.43-1.02-.4.2-.27.66-.22-.14.14-.33-.15.08-.1.21-2.65-2.07-4 9.15 1.69-.84 1.59-3.7.21.14-1.46 3.39.95-.48 1.05-2.43.21.14-.91 2.12.66-.33.63-1.47.21.14-.5 1.16.4-.2.34-.79.21.14-.2.48.2-.1.12-.26.21.14-.01.03 2.47 1.92 3.93-9.2-1.68.87-1.55 3.62-.22-.14 1.43-3.3z" fill="url(#a)"/><g fill-opacity=".5"><path d="m11.25 12.76-5.78-4.41-2.47 5.65 1.69-.84 1.59-3.7.21.14-1.46 3.39.95-.48 1.05-2.43.21.14-.91 2.12.66-.33.63-1.47.21.14-.5 1.16.4-.2.34-.79.21.14-.2.48.2-.1.12-.26.21.14-.01.03 2.47 1.92z" fill="url(#b)"/><path d="m6.78 5.36.22-.5 2.65 2.06.1-.21.15-.08-.14.33.22.14.28-.65.4-.2-.45 1.01.21.15.58-1.35.67-.34-.87 2 .21.15 1-2.33.97-.5-1.43 3.31.22.14 1.55-3.62 1.68-.87-2.42 5.65-5.8-4.3z" fill="url(#c)"/></g></svg>