<svg height="18" viewBox="0 0 18 18" width="18" xmlns="http://www.w3.org/2000/svg" xmlns:xlink="http://www.w3.org/1999/xlink"><linearGradient id="a"><stop offset="0" stop-color="#72c5c6"/><stop offset="1" stop-color="#a0c65f"/></linearGradient><linearGradient id="b" gradientUnits="userSpaceOnUse" x1="13.5" x2="13.5" xlink:href="#a" y1="7" y2="11.5"/><linearGradient id="c" gradientUnits="userSpaceOnUse" x1="2.5" x2="2.5" xlink:href="#a" y1="6" y2="10.5"/><path d="m0 0h18v18h-18z" fill="#f0f3fa"/><path d="m9 10.7-5 3.3 5-1.26 5 1.26z" fill="#45494c"/><path d="m11 4.56c0-.3-.34-.56-.75-.56s-.75.25-.75.56v6.2l4.5 2.88v-7.08c0-.3-.4-.56-.81-.56-.42 0-.75.25-.75.56v-1c0-.3-.34-.56-.75-.56-.42 0-.69.25-.69.56z" fill="url(#b)"/><path d="m7 4.56c0-.3.34-.56.75-.56s.75.25.75.56v6.2l-4.5 2.88v-7.08c0-.3.4-.56.81-.56.42 0 .75.25.75.56v-1c0-.3.34-.56.75-.56.42 0 .69.25.69.56z" fill="url(#c)"/></svg>