<svg height="18" viewBox="0 0 18 18" width="18" xmlns="http://www.w3.org/2000/svg"><path d="m0 0h18v18h-18z" fill="#f0f3fa"/><path d="m10 13v-5h1.2c.67 0 1.5.3 1.5 1.43 0 .53-.18 1.13-.82 1.13l.1-.22c.59 0 1.02.51 1.02 1.23 0 .85-.44 1.43-1.34 1.43zm.5-.53h1c.55 0 1-.33 1-.9 0-.58-.45-.82-1-.82h-1.08v-.5h.78c.5 0 1-.29 1-.82s-.5-.93-1-.93h-.7zm-5.5.53v-5h.5l3.12 4.5h-.12v-4.5h.5v5h-.67l-2.95-4.5h.12v4.5z" fill="#372b50"/><path d="m10.19 3.8c0-.38-.2-.7-.3-.8 0 .04.02.08.04.13.04.11.1.26.1.52 0 .3-.52.86-.98 1.35l-.24.26h-.25c-.45 0-2.23 0-3.56 1.77l.3.32c.54-.64 1.93-1.75 3.22-1.77l-.11.16c-.24.39-.2 1.02-.15 1.3.05-.28.27-.94.74-1.46l.4-.41c.44-.41.79-.75.79-1.36zm.14-.32c.1.11.3.42.3.81 0 .62-.35.95-.78 1.36-.13.13-.27.26-.4.41-.48.52-.7 1.19-.75 1.46-.05-.27-.09-.9.15-1.3.11-.17.37-.44.64-.73.47-.5 1-1.06 1-1.36 0-.25-.07-.4-.12-.51a.39.39 0 0 1 -.04-.14zm.78 1.3c0-.4-.2-.7-.3-.81 0 .03.02.08.05.13.04.1.1.26.1.51 0 .3-.52.87-.99 1.36-.27.3-.53.56-.64.74-.23.39-.2 1.02-.14 1.29.05-.27.26-.94.74-1.45l.4-.41c.14-.13.26-.25.37-.38a8.58 8.58 0 0 1 2.3 1.6 7.59 7.59 0 0 0 -2.2-1.7c.19-.25.31-.52.31-.89z" fill="#8a373f"/></svg>