<svg height="18" width="18" xmlns="http://www.w3.org/2000/svg"><path d="m0 0h18v18h-18z" fill="#f0f3fa"/><path d="m3.704 6.171h-.704v-.171h1.759l1.641 2.614c.703 1.072.664 1.072.938 1.543v-3.986h-.704v-.171h1.603v.171h-.704v5.827h-.196l-3.437-5.655v5.446h.695v.208h-1.595v-.208h.704v-5.619z" fill="#c64a4c"/><path d="m12.772 12h-.196l-.86-2.657-.897 2.657h-.196l-1.916-5.829h-.47v-.171h5.043v.171h-.508l-.587 1.843.822 2.529 1.328-4.372h-.781v-.171h1.446v.171h-.43zm-1.212-5.829.508 1.458.47-1.458zm-1.915 0 1.446 4.372.509-1.543-.978-2.829z" fill="#305da2"/></svg>