<svg height="18" viewBox="0 0 18 18" width="18" xmlns="http://www.w3.org/2000/svg"><path d="m0 0h18v18h-18z" fill="#f0f3fa"/><path d="m9.75 13c-2.5.97-3.11.44-3.11.44l-.02.02c2.07 1.16 5.49.45 6.25-2.09l.1-.36c-.52.63-1.5 1.36-3.21 1.98h-.01z" fill="#e10117"/><path d="m11.7 7.29c-.38-.48-.8-.96-1.2-1.45a1 1 0 0 1 .1.23c.08.54-.7.73-2.1 1.01-1.73.35-2.59.96-3.1 1.76l-.14.33a3.95 3.95 0 0 0 -.22 2l.01-.02c.25-1.05 1.45-2.04 3.13-2.37 2.44-.47 3.73-.95 3.52-1.5z" fill="#1d1b20"/><path d="m13 9.9a3.87 3.87 0 0 0 -.39-1.22c-.3.73-2.65 1.18-3.85 1.41-2.22.5-3.72 1.1-3.27 2.3l.02.06c.24.37.58.69.97.93v-.03c-.33-.22-.9-.82 1.56-1.38.82-.18 1.51-.34 2.1-.5l.09-.02.7-.19c.73-.24 1.76-.68 2.07-1.37" fill="#0070b8"/><path d="m9.56 4.49a5 5 0 0 1 -.58-1.49c-.22 1.45-1.17 2.57-2.1 3.68h.01l.02-.01c.43-.46.92-.77 2.02-1 1.34-.3.74-.88.63-1.18" fill="#0669b4"/></svg>