<svg height="18" width="18" xmlns="http://www.w3.org/2000/svg"><path d="m0 0h18v18h-18z" fill="#14b289"/><circle cx="9" cy="9" fill="#fff" r="5"/><path d="m10.7 5.826-3.21 7.942s.383.13.821.185l3.192-7.804c.025-.107.007-.35-.272-.453-.28-.103-.47.043-.531.13zm1.869-.328-3.447 8.501s.466 0 .974-.114l3.076-7.645a4.764 4.764 0 0 0 -.604-.742zm-4.381 2.14-2.11 5.42s.322.238.697.423l2.215-5.521c.026-.107.008-.349-.272-.452-.28-.104-.47.043-.53.13zm-2.443 1.997-.827 2.254s.246.362.625.723l1.005-2.654c.026-.108.008-.35-.272-.453s-.47.043-.53.13z" fill="#14b289"/></svg>