<svg height="18" viewBox="0 0 18 18" width="18" xmlns="http://www.w3.org/2000/svg"><path d="m0 0h18v18h-18z" fill="#f0f3fa"/><path d="m11.07 6h-.82c-1.4.05-2.76.32-4.09.81l-.08.05c-.03.02-.06.05-.1.06h-.01a.02.02 0 0 0 0 .02l.1-.01c1.96-.55 3.95-.66 5.97-.34l.11.02c.78.12 2.4.37 2.61 1.49.1.57-.24 1.16-.6 1.44l-.01.02v.02l.01.01h.02l.04-.01c.54-.23 2.31-.98 1.62-2.1-.4-.64-1.53-1.02-2.19-1.15-1.01-.2-1.87-.3-2.58-.33zm-4.2 6h.94a12.72 12.72 0 0 0 4.12-.86.15.15 0 0 1 .1-.06l-.02-.02h-.02c-.02.02-.07.03-.14.05l-.31.06c-.92.2-1.72.36-2.6.4-.99.06-5.5.09-5.72-1.72a1.64 1.64 0 0 1 .64-1.41v-.02h-.01l-.01-.01c-.59.22-1.6.66-1.84 1.47v.24c.3 1.57 3.87 1.85 4.86 1.88zm-2.59-2 .82-2h.74l.79.95.43-.95h.83l-.83 2h-.68l-.76-.96-.4.96zm3.78-2-.77 2h.85l.28-.75.48.75h.93l-.63-.86c.26-.03.78-.2.78-.6 0-.41-.4-.53-.61-.54h-1.3zm.93.38c.22 0 .28.12.29.19 0 .15-.14.22-.36.24h-.34l.15-.43zm1.24 1.62-.14-2h.8v1.12l.74-1.12h.57v1l.6-1h.88l-1.28 2h-.67v-1.06l-.71 1.06z" fill="#8c221a"/></svg>