<svg height="18" viewBox="0 0 18 18" width="18" xmlns="http://www.w3.org/2000/svg"><path d="m0 0h18v18h-18z" fill="#f0f3fa"/><g fill="#bababa"><path d="m12.96 4.8c0-.16.12-.29.27-.29s.27.13.27.29-.12.29-.27.29a.28.28 0 0 1 -.27-.3z"/><path d="m12.43 4.76c-.08 0-.16.07-.16.17s.08.17.16.17.16-.07.16-.17-.08-.17-.16-.17zm0-.2c-.2 0-.35.16-.35.37 0 .2.15.37.35.37s.35-.17.35-.37-.16-.37-.35-.37zm-5.24 9.32c-.09 0-.16.08-.16.17 0 .1.07.17.16.17.08 0 .15-.07.15-.17s-.07-.17-.15-.17zm0-.2c-.2 0-.36.17-.36.37 0 .21.16.38.36.38s.35-.17.35-.38c0-.2-.16-.37-.35-.37zm2.91-8.65c-.2 0-.37.18-.37.41s.17.4.38.4c.2 0 .38-.17.38-.4s-.18-.4-.38-.4zm0-.2a.6.6 0 0 0 -.57.61c0 .34.26.6.58.6a.6.6 0 0 0 .57-.6.6.6 0 0 0 -.57-.6zm-3.9 6.35c-.2 0-.38.18-.38.4 0 .24.17.41.38.41.2 0 .38-.17.38-.4s-.18-.4-.38-.4zm0-.2a.6.6 0 0 0 -.58.6c0 .34.26.62.58.62a.6.6 0 0 0 .57-.61.6.6 0 0 0 -.57-.61zm.07-1.78c-.3 0-.54.25-.54.57s.25.58.54.58.53-.26.53-.58-.24-.57-.53-.57zm0-.2c-.4 0-.73.35-.73.77 0 .43.32.78.73.78.4 0 .73-.35.73-.78a.75.75 0 0 0 -.73-.77zm1.06-1.93c-.44 0-.81.39-.81.87s.37.87.81.87c.45 0 .82-.39.82-.87s-.37-.87-.82-.87zm0-.19c-.55 0-1 .48-1 1.06 0 .59.45 1.06 1 1.06.56 0 1-.47 1-1.06 0-.58-.44-1.06-1-1.06zm1.27-1.24c-.3 0-.54.25-.54.57s.25.57.54.57c.3 0 .54-.25.54-.57s-.25-.57-.54-.57zm0-.2c-.4 0-.73.34-.73.77s.33.79.73.79.73-.35.73-.78a.76.76 0 0 0 -.73-.78z" fill-rule="evenodd"/><path d="m7.38 14.71c0-.15.13-.28.28-.28s.27.13.27.28c0 .16-.12.29-.27.29a.28.28 0 0 1 -.28-.29z"/></g><path d="m10.34 3.56c.15 0 .28-.13.28-.28a.28.28 0 0 0 -.28-.28.28.28 0 0 0 -.27.28c0 .15.12.28.27.28zm.47.73c.2 0 .36-.17.36-.37s-.16-.36-.36-.36-.35.16-.35.36.16.37.35.37zm-4.89 8.54c0 .2-.15.37-.35.37a.36.36 0 0 1 -.35-.37c0-.2.16-.36.35-.36.2 0 .35.16.35.36zm-.88.13c0 .16-.12.28-.27.28a.28.28 0 0 1 -.27-.28c0-.15.12-.28.27-.28s.27.13.27.28zm6.76-7.95a.5.5 0 0 1 -.48.5.5.5 0 0 1 -.49-.5c0-.27.22-.5.49-.5a.5.5 0 0 1 .48.5zm-5.1 8.23a.5.5 0 0 0 .48-.5.5.5 0 0 0 -.48-.5.5.5 0 0 0 -.49.5c0 .28.22.5.49.5zm1.78-.9c0 .32-.26.59-.58.59a.59.59 0 0 1 -.57-.6c0-.32.25-.59.57-.59s.58.27.58.6zm3.33-5.41c.32 0 .58-.27.58-.6s-.26-.6-.58-.6a.59.59 0 0 0 -.57.6c0 .33.26.6.57.6zm.58 1.17c0 .42-.33.76-.73.76a.74.74 0 0 1 -.74-.76c0-.41.33-.75.74-.75.4 0 .73.34.73.75zm-1.71 3.02c.55 0 1-.48 1-1.06 0-.59-.45-1.06-1-1.06-.56 0-1 .47-1 1.06 0 .58.44 1.06 1 1.06zm-.69.46c0 .42-.33.75-.73.75a.74.74 0 0 1 -.73-.75c0-.42.33-.76.73-.76s.73.34.73.76z" fill="#4aafe9"/></svg>