<svg height="18" viewBox="0 0 18 18" width="18" xmlns="http://www.w3.org/2000/svg"><path d="m0 0h18v18h-18z" fill="#f0f3fa"/><path d="m12.57 11.54c-.81 1.04-2.34 1.45-3.57 1.45-1.76 0-3.08-1.03-3.6-2.78a3.95 3.95 0 0 1 3.77-5c.95 0 1.65.4 2.37.93 1.31 1.26 1.89.39 2.06 2.34h.07c.04-.57.02-.15 0-.64-.14-2.44-2.49-3.84-4.77-3.84a4.97 4.97 0 0 0 -4.9 5.1c.17 2.85 2.14 4.9 5 4.9a5.4 5.4 0 0 0 3.82-1.64c.76-.9-1.1.9-.25-.82z" fill="#00b2e1"/><path d="m7 7h1l2 2.2v-2.2h1v4h-1l-2-2.2v2.2h-1z" fill="#002e5c"/></svg>