<svg height="18" viewBox="0 0 18 18" width="18" xmlns="http://www.w3.org/2000/svg"><path d="m0 0h18v18h-18z" fill="#181b1e"/><g fill="#fefefe"><path d="m4 11v-4h1.43l2.57 2.94v-2.94h1v4h-1.43l-2.57-2.78v2.78zm3.06-6.52h-.02c-.58.6-.65 1.5-.4 2.27l.03.21c0 .03-.04.05-.07.03a.96.96 0 0 1 -.29-.28c-.47-.75-.44-1.67.34-2.23.31-.22.62-.36.92-.43.9-.2 1.75.25 2.32.91l.1.14v.08c-.32.63-.86.97-1.62 1.03-.3.03-.62.02-.93 0-.25-.03-.47.01-.66.14-.04.02-.07.01-.08-.03a2.94 2.94 0 0 1 -.05-.83c.03-.38.17-.72.4-1.01z"/><path d="m12.66 6.01a1.9 1.9 0 0 0 -.31-.12 3.11 3.11 0 0 0 -2.21.35c-.26.14-.47.28-.62.43-.13.12-.28.22-.43.3-.05.02-.1-.03-.09-.08.02-.12.05-.24.1-.35a2.9 2.9 0 0 1 1.73-1.48c1.06-.26 2 .38 2.67 1.31a3 3 0 0 1 .5 1.78 6.46 6.46 0 0 1 -.73 2.83.05.05 0 0 1 -.04.02c-.37 0-.72-.1-1.05-.26a.25.25 0 0 1 -.08-.08 2.44 2.44 0 0 0 -.8-.74.37.37 0 0 1 -.13-.13 3.6 3.6 0 0 1 -.42-1.08c-.08-.37-.18-.73-.28-1.07-.1-.38-.32-.86-.7-.94-.05-.01-.05-.03-.01-.06.54-.36 1.1-.66 1.73-.73a3.1 3.1 0 0 1 1.17.1zm-1.18 6.49c.04-.28.04-.53-.02-.74a2.9 2.9 0 0 0 -1-1.49.62.62 0 0 1 -.16-.22c-.01-.02 0-.05.03-.05.4-.03.93.36 1.18.62.7.72.59 1.57.07 2.34-.74 1.11-2.21 1.23-3.44.82a1.02 1.02 0 0 1 -.1-.04c-.04-.01-.04-.03-.04-.05v-.2c0-.03.02-.05.03-.07.32-.31.5-.69.42-1.12 0-.04 0-.07.03-.1.38-.5.96-.74 1.54-1.02.19-.09.5-.28.54-.49.02-.05.04-.05.08-.02.31.3.55.63.7 1a1.91 1.91 0 0 1 .14.83zm-4.2.34c.28-.09.52-.32.6-.5a.14.14 0 0 1 .07-.07l.03.01c.04.14.01.27-.08.4-.13.19-.35.3-.65.31-.54.05-1.08-.16-1.23-.52-.08-.19.08-.36.33-.44.24-.07.54 0 .72.1l.3.17c.12.07.25.1.4.09l.02.01a1.17 1.17 0 0 1 -.5.44z"/></g></svg>