<svg height="18" viewBox="0 0 18 18" width="18" xmlns="http://www.w3.org/2000/svg"><path d="m0 0h18v18h-18z" fill="#f0f3fa"/><path d="m12.54 12.54a5 5 0 1 0 -7.08-7.08 5 5 0 0 0 7.08 7.08z" fill="#008da8"/><path d="m13.22 10.06c-.5.5-1.03-1.35-2.48-2.82-1.48-1.47-3.35-2-2.85-2.47.5-.5 2.79-.41 4.27 1.06 1.48 1.44 1.57 3.73 1.06 4.23zm-1.42 2.47c-1.3 1.27-4.3 1.41-6.07-.35-1.78-1.76-1.66-4.74-.35-6 .7-.7 2.87 0 4.62 1.76 1.77 1.74 2.51 3.89 1.8 4.6z" fill="#68bacc"/><path d="m10 10.06-.06-.06-1.02-.23c-.03 0-.1 0-.12.03a.09.09 0 0 0 0 .12l.21.35.07.09c-1.33.73-2.6 1.29-3.67 1.61-1.23.39-1.82.3-1.94.12-.1-.15.38-.73.88-1.32l-.19-.44c-.62.64-1.15 1.33-1.16 1.76 0 .08.04.15.07.2.15.24.43.36.86.36.4 0 .93-.09 1.57-.3a19.4 19.4 0 0 0 3.76-1.67l.06.09.22.35c.03.03.06.06.09.06.06 0 .1-.03.1-.09l.24-.97c.03-.03.03-.06.03-.06z" fill="#008da8"/></svg>