<svg height="18" viewBox="0 0 18 18" width="18" xmlns="http://www.w3.org/2000/svg"><path d="m0 0h18v18h-18z" fill="#f0f3fa"/><path d="m9 4c-4.04 0-5.13 3.6-4.98 5.42.1-1.04.92-3.13 3.33-3.13 3.02 0 3.85 2.09 3.85 3.34 0 .93-.45 2.04-.73 2.5 2.83 0 3.53-2.09 3.53-3.13 0-1.72-.93-5-5-5z" fill="#183f85"/><path d="m7.34 6.5c1.17 0 1.8.35 1.98.52-1.04 0-3.12.8-3.12 3.54 0 2.71 2.29 3.44 3.12 3.44h-.73c-2.4 0-4.37-2.3-4.37-4.17s1.68-3.33 3.12-3.33z" fill="#4aa35a"/><path d="m9.22 12.13c-1.64-.52-1.95-2.89-1.88-3.96-.52.62-.83 1.13-.83 2.7s1.72 2.97 3.12 2.97c2.81 0 4.06-2.5 4.3-3.9-.87 2.34-2.74 2.81-4.71 2.19z" fill="#4ba6e0"/></svg>