<svg fill="none" height="18" width="18" xmlns="http://www.w3.org/2000/svg" xmlns:xlink="http://www.w3.org/1999/xlink"><linearGradient id="a" gradientUnits="userSpaceOnUse" x1="9" x2="9" y1="7.071" y2="10.929"><stop offset="0" stop-color="#046ea7"/><stop offset="1" stop-color="#009959"/></linearGradient><path d="m0 0h18v18h-18z" fill="#f0f3fa"/><g clip-rule="evenodd" fill-rule="evenodd"><path d="m13.177 7a4.095 4.095 0 0 0 -3.29-1.652c-1.347 0-2.543.65-3.29 1.652h-3.239a5.588 5.588 0 0 1 4.955-3 5.588 5.588 0 0 1 4.954 3z" fill="#0294cf"/><path d="m13.73 8a4.99 4.99 0 0 0 -9.46 0h1.78a4.103 4.103 0 0 1 7.676 0h.005z" fill="#0070a2"/><path d="m4.835 11a4.095 4.095 0 0 0 3.266 1.62 4.095 4.095 0 0 0 3.265-1.62h3.246a5.588 5.588 0 0 1 -4.937 2.967 5.588 5.588 0 0 1 -4.937-2.967z" fill="#00a441"/><path d="m4.269 10a4.99 4.99 0 0 0 9.437 0h-1.78a4.103 4.103 0 0 1 -7.65 0z" fill="#1d8246"/></g><circle cx="9" cy="9" fill="url(#a)" r="1.929"/><circle cx="9" cy="9" fill="#000" r=".964"/><circle cx="8.518" cy="8.285" fill="#c4c4c4" opacity=".5" r=".389"/><circle cx="8.518" cy="8.285" fill="#c4c4c4" opacity=".5" r=".176"/></svg>