<svg height="18" viewBox="0 0 18 18" width="18" xmlns="http://www.w3.org/2000/svg" xmlns:xlink="http://www.w3.org/1999/xlink"><linearGradient id="a" gradientUnits="userSpaceOnUse" x1="7.93" x2="14.01" y1="5.26" y2="8.88"><stop offset="0" stop-color="#52b7e8"/><stop offset="1" stop-color="#00aeee"/></linearGradient><linearGradient id="b" gradientUnits="userSpaceOnUse" x1="14.32" x2="11.29" y1="9.16" y2="13.6"><stop offset="0" stop-color="#045dac"/><stop offset="1" stop-color="#53b7e8"/></linearGradient><linearGradient id="c" gradientUnits="userSpaceOnUse" x1="7.56" x2="10.96" y1="4.5" y2="14.19"><stop offset="0" stop-color="#53b7e8"/><stop offset="1" stop-color="#005bab"/></linearGradient><path d="m0 0h18v18h-18z" fill="#f0f3fa"/><path d="m4.13 4.69c1.86-.4 7.71 2.97 9.82 4.66l.5-1.1c-.06-.74-2.27-1.8-3.37-2.23-4.18-1.76-6.38-1.62-6.95-1.33z" fill="url(#a)"/><path d="m10.35 12.7a9.67 9.67 0 0 0 4.11-4.52c.14.33-.14 1.58-.3 2.16-.85 2.8-1.75 3.82-2.42 4.11-.53.24-1.14-1.07-1.39-1.75z" fill="url(#b)"/><path d="m8.89 5.2c-.47 5.32 2.71 9.22 2.73 9.28-1.44.47-8.67-6.94-8.09-9.14.38-1.45 3.73-.7 5.36-.15z" fill="url(#c)"/><path d="m4.58 4.56c.74-.12 2.14-.05 4.3.64-.02.33-.04.66-.04.98-1.9-.96-3.75-1.67-4.68-1.5.13-.05.27-.1.42-.12z" fill="#00abe5"/></svg>