<svg height="18" viewBox="0 0 18 18" width="18" xmlns="http://www.w3.org/2000/svg"><path d="m0 0h18v18h-18z" fill="#003668"/><path d="m9 14a5 5 0 1 0 0-10 5 5 0 0 0 0 10zm-2.94-9.01-.43 2.04c.1.14.54.44 1.59.48.26.02.84.06 1.08.12-.65-.33-2.02-1.35-2.24-2.63zm1.14 3.03c-1.12 0-1.59-.3-1.68-.45l-.34 1.38c.13.22.63.4 2.44.17 1.46-.18 2.5.24 2.84.48a3.96 3.96 0 0 0 -3.26-1.58zm-2.17 1.6c.06.15.67.39 2.6.08 2.42-.38 3.54.56 5.27 2.35-.8-.53-2.88-1.45-4.76-.87-2.35.73-3.11.39-3.47.23l.36-1.8z" fill="#fff" fill-rule="evenodd"/></svg>