<svg height="18" viewBox="0 0 18 18" width="18" xmlns="http://www.w3.org/2000/svg" xmlns:xlink="http://www.w3.org/1999/xlink"><linearGradient id="a" gradientUnits="userSpaceOnUse" x1="9" x2="9" y1="0" y2="18"><stop offset="0" stop-color="#ee620f"/><stop offset="1" stop-color="#e54908"/></linearGradient><path d="m0 0h18v18h-18z" fill="url(#a)"/><g fill="#fff"><path d="m13 10c0 2.31-1.72 4-4 4a3.9 3.9 0 0 1 -4-4c0-2.32 1.72-4 4-4s4 1.67 4 4zm-2 0c0-1.24-1-2-2-2s-2 .78-2 2c0 1.21 1 2 2 2s2-.77 2-2z"/><path d="m7 15 4-1.62h-2.7zm6-10.51-4-1.49-4 1.48v1.5l4-1.47 4 1.49z"/></g></svg>