<svg height="18" viewBox="0 0 18 18" width="18" xmlns="http://www.w3.org/2000/svg"><path d="m0 0h18v18h-18z" fill="#f0f3fa"/><path d="m9.64 4.13h-.01a.46.46 0 0 0 -.64 0l-4.86 4.89a.43.43 0 0 0 0 .61h.01c.18.18.47.17.64 0l4.87-4.89a.43.43 0 0 0 -.01-.61zm-2.56.45h-.02a.46.46 0 0 0 -.63 0l-1.86 1.87a.42.42 0 0 0 .01.61l.01.02c.18.16.46.16.63-.02l1.88-1.86a.42.42 0 0 0 -.01-.62zm4.15.06c.18.17.19.45.02.62l-5.96 5.98a.46.46 0 0 1 -.64 0 .43.43 0 0 1 -.01-.61l5.95-5.98a.46.46 0 0 1 .64-.01zm1.32.82a.46.46 0 0 0 -.65 0l-6.46 6.46a.43.43 0 0 0 .01.62c.19.17.47.17.65 0l6.46-6.46a.43.43 0 0 0 -.01-.62zm.8 1.3c.18.17.18.44 0 .62l-5.95 5.98a.46.46 0 0 1 -.63 0h-.01a.43.43 0 0 1 -.01-.62l5.95-5.97a.46.46 0 0 1 .64-.01zm.51 1.6a.46.46 0 0 0 -.64.01l-4.87 4.89a.43.43 0 0 0 .01.61h.01c.18.18.47.17.64 0l4.86-4.89a.43.43 0 0 0 0-.61zm-.46 2.57.01.01c.18.17.19.44.02.61l-1.87 1.87a.46.46 0 0 1 -.63.01h-.01a.42.42 0 0 1 -.01-.62l1.86-1.87a.46.46 0 0 1 .63-.01z" fill="#64c7d0"/></svg>