<svg height="18" width="18" xmlns="http://www.w3.org/2000/svg"><path d="m0 0h18v18h-18z" fill="#003186"/><g fill="#fff"><path d="m8.911 2 .21.677h.676l-.547.418.209.677-.548-.418-.547.418.209-.677-.548-.418h.677l.21-.677zm3.013.886.21.677h.676l-.547.418.209.677-.548-.418-.547.418.209-.677-.548-.418h.677l.21-.677zm2.126 1.772.21.677h.677l-.548.418.21.677-.549-.418-.547.418.209-.677-.548-.418h.677l.21-.677zm1.064 2.836.21.677h.676l-.548.418.21.677-.548-.419-.548.419.21-.677-.548-.418h.677zm-.532 3.012.21.677h.676l-.548.419.21.676-.548-.418-.548.418.21-.676-.548-.419h.677zm-1.595 2.304.21.677h.676l-.547.418.209.677-.548-.418-.547.418.209-.677-.548-.418h.677l.21-.677zm-2.481 1.24.21.677h.677l-.548.418.209.677-.548-.418-.547.418.209-.676-.548-.419h.677l.21-.677zm-2.836 0 .21.677h.677l-.548.418.21.677-.548-.418-.548.418.21-.676-.548-.419h.677l.209-.677zm-2.657-1.24.209.677h.677l-.548.418.21.677-.548-.418-.548.418.21-.677-.548-.418h.676zm-1.595-2.304.209.677h.677l-.548.419.21.676-.548-.418-.548.418.21-.676-.548-.419h.677zm-.532-3.012.21.677h.676l-.547.418.209.677-.548-.419-.548.419.21-.677-.548-.419h.677l.21-.677zm1.064-2.836.208.677h.677l-.547.418.209.677-.548-.418-.547.418.209-.677-.548-.418h.677zm2.126-1.772.21.677h.676l-.548.418.21.677-.548-.418-.548.418.21-.677-.548-.418h.677zm2.098 2.306c.714 0 1.252.18 1.683.619.433.439.65.988.65 1.648 0 .563-.162 1.059-.484 1.487-.426.567-1.029.851-1.808.851-.78 0-1.384-.27-1.81-.812-.338-.428-.506-.936-.506-1.523 0-.66.219-1.209.656-1.648.44-.44.97-.622 1.619-.622zm.038.21c-.396 0-.698.207-.905.622-.169.34-.253.83-.253 1.467 0 .758.13 1.318.39 1.68.182.254.436.38.762.38.22 0 .403-.054.55-.163.188-.14.334-.363.439-.668.104-.308.156-.709.156-1.203 0-.587-.053-1.026-.16-1.316-.106-.293-.243-.5-.41-.62a.94.94 0 0 0 -.569-.18z"/><path d="m8.915 10.533v1.29c0 .25.013.407.04.473.03.064.08.115.152.153.072.039.206.058.401.058v.126h-2.191v-.126c.198 0 .331-.02.4-.058a.333.333 0 0 0 .15-.156c.029-.064.043-.22.043-.47v-3.064c0-.249-.014-.405-.044-.469a.314.314 0 0 0 -.148-.156c-.072-.038-.206-.058-.401-.058v-.126h1.99c.517 0 .896.038 1.136.115s.436.295.588.504c.151.206.227.448.227.727 0 .34-.114.62-.341.842-.146.14-.349.246-.61.316l1.03 1.56c.135.202.23.327.287.377.086.07.186.109.3.116v.126h-1.348l-1.38-2.1zm0-2.335v2.093h.18c.292 0 .511-.028.656-.085a.672.672 0 0 0 .341-.312c.085-.152.127-.35.127-.591 0-.352-.077-.686-.23-.854-.152-.167-.398-.251-.737-.251z"/></g></svg>