<svg height="18" width="18" xmlns="http://www.w3.org/2000/svg"><path d="m0 0h18v18h-18z" fill="#f0f3fa"/><path d="m9.001 5c-3.583 0-5.045 2.684-5.001 4h2.831c.158 0 .266-.176.266-.176l1.727-2.859c.044-.043.282-.043.31 0 .62.966 1.667 2.802 1.77 2.903.106.106.176.132.265.132h2.831c0-1.36-1.504-4-4.999-4z" fill="#cb2026"/><path d="m9 14c-3.583 0-5.043-2.684-4.999-4h2.831c.158 0 .266.175.266.175l1.725 2.765c.044.044.282.044.31 0 .62-.965 1.667-2.707 1.77-2.808.106-.106.176-.132.265-.132h2.831c0 1.36-1.504 4-4.999 4z" fill="#010101"/></svg>