<svg fill="none" height="18" width="18" xmlns="http://www.w3.org/2000/svg"><path d="m0 0h18v18h-18z" fill="#f0f3fa"/><path d="m8.539 8.987c0-.348.07-.679.198-.98a2.004 2.004 0 0 0 -1.237-.943 4 4 0 0 0 3.5 5.936c1.864 0 3.556-1.275 4-3h-1.599c-.385.872-1.379 1.48-2.387 1.48a2.484 2.484 0 0 1 -2.475-2.493zm4.874-.987h1.587c-.444-1.725-2.136-3-4-3-.317 0-.626.037-.922.107.459.387.844.86 1.13 1.394.935.073 1.85.67 2.205 1.499z" fill="#a7a7a7"/><path d="m10.49 10.935c.325-.576.51-1.24.51-1.948a3.993 3.993 0 0 0 -4-3.987c-2.21 0-4 1.785-4 3.987a3.993 3.993 0 0 0 4.698 3.926c-.3-.266-.569-.573-.8-.915a3 3 0 1 1 2.727-1.545c.24.227.537.395.866.482z" fill="#00afa6"/></svg>