<svg height="18" width="18" xmlns="http://www.w3.org/2000/svg"><path d="m0 0h18v18h-18z" fill="#00aeef"/><path d="m9 3.22h.226l-.226-.22zm-.607.6h.862l-.464-.4zm-.9.9.522-.523.356-.03.992.552h-1.87zm-.6.6.35-.35h.97l1.213.35h-2.532zm-.899.9.44-.44 1.456-.078 1.53.517h-3.426zm-.6.6.338-.338 1.915-.042 1.653.38h-3.905zm-.899.9.43-.43 2.486-.077 2.003.506h-4.919zm-.605.605.347-.348 3.13-.07 1.968.418zm-.92.893-.001.001h.002zm.026.001.365-.365 3.945-.156 2.029.521zm.307.333.268.267h5.752l-1.986-.397zm5.64 5.653.057.058v-.48h-.468l.416.416-.006.006zm-.575-.586h.548l-.586-.51h-.472zm-.946-.947.048.043 1.598.006-1.061-.438h-.975l.39.39zm-.553-.553h2.318l-1.28-.493-1.56-.028.521.521zm-.9-.9h3.297l-1.596-.449-2.093.057zm-.6-.6h3.926l-1.74-.533-2.577.142zm-.9-.9h4.746l-1.736-.515-3.394.13.385.385zm5.093-6.647-.199-.253h.334l.243.253zm1.002.647h-1.042l.391.173h.818zm.578.6h-1.496l.534.26 1.156-.058zm.867.9h-2.335l.635.242 1.884-.051-.184-.19zm.699.726h-3.034l.924.268 2.327-.043zm.73.757-3.735.028 1.026.28 2.927-.081-.219-.227zm.594.617h-4.386l1.156.379 3.503-.095zm.276 1.5h-4.634l.963.385 3.425-.138zm-.897.9h-3.85l1.053.292 2.615-.11zm-.896.9h-2.948l.793.252 1.98-.077zm-.598.6h-2.357l.59.225 1.57-.028.196-.197zm-.897.9h-1.544l.6.224h.721zm-.6.602h-1.141l.515.225h.404l.224-.225zm-.894.898h-.34l.18.16zm.148-5.4 1.211.306 3.686-.123.18-.183h-5.076z" fill="#fff"/></svg>