<svg height="18" viewBox="0 0 18 18" width="18" xmlns="http://www.w3.org/2000/svg"><path d="m0 0h18v18h-18z" fill="#f0f3fa"/><path d="m4.84 7.64-.67.69a4.86 4.86 0 0 1 4.77-4.33h.28c2.4 0 4.4 1.92 4.64 4.38h.6l-1.3 1.3-1.14-1.3h.58c-.25-1.8-1.73-2.88-3.48-2.88h-.23c-1.75 0-3.23 1.04-3.48 2.83z" fill="#97cb38"/><g fill="#195cab"><path d="m13.16 10.36.67-.69a4.86 4.86 0 0 1 -4.77 4.33h-.28c-2.4 0-4.4-1.92-4.64-4.37h-.6l1.3-1.32 1.14 1.32h-.58c.25 1.78 1.73 2.87 3.48 2.87h.23c1.75 0 3.23-1.04 3.48-2.83z"/><path d="m9.64 9.07a.98.98 0 0 0 .36-.76 1 1 0 0 0 -1-1 1 1 0 0 0 -1 1c0 .31.15.59.37.77l-.37 1.42h2z"/></g></svg>