<svg height="18" viewBox="0 0 18 18" width="18" xmlns="http://www.w3.org/2000/svg"><path d="m0 0h18v18h-18z" fill="#f0f3fa"/><path d="m3 5h8v.44h-7.56v7.12h7.56v.44h-8z" fill="#d77e3e"/><path d="m11 11.43v-4.86h2.1c.4 0 .74.07 1.03.21a1.5 1.5 0 0 1 .87 1.44 1.52 1.52 0 0 1 -.89 1.43c-.29.13-.63.2-1.04.2h-1.34v-.85h1.16c.48 0 .95-.18.95-.78 0-.16-.03-.3-.1-.42a.68.68 0 0 0 -.32-.29c-.14-.06-.32-.1-.54-.1h-.88v4.02zm-1.4-2.43c0 .52-.1.95-.32 1.31-.2.37-.5.64-.86.83a2.6 2.6 0 0 1 -1.22.29c-.46 0-.86-.1-1.23-.29-.36-.19-.64-.47-.85-.83-.22-.36-.32-.8-.32-1.31 0-.52.1-.95.32-1.31.2-.37.5-.64.85-.83.37-.2.77-.29 1.23-.29.45 0 .86.1 1.22.29s.65.46.86.83c.21.36.32.8.32 1.31zm-1.04 0c0-.81-.49-1.45-1.36-1.45s-1.36.64-1.36 1.45.49 1.43 1.36 1.43 1.36-.62 1.36-1.43z" fill="#494546"/></svg>