<svg height="18" viewBox="0 0 18 18" width="18" xmlns="http://www.w3.org/2000/svg"><path d="m0 0h18v18h-18z" fill="#f0f3fa"/><path d="m11.57 5.4-1.23 1.2 1.23 1.2 1.22-1.2zm-2.45-2.4-1.22 1.2 1.22 1.2 1.22-1.2zm2.45 7.2-1.23 1.2 1.23 1.2 1.22-1.2zm-2.45-2.4-1.22 1.2 1.22 1.2 1.22-1.2zm-2.45-2.4-1.22 1.2 1.22 1.2 1.23-1.2zm2.45 7.2-1.22 1.2 1.22 1.2 1.22-1.2zm-2.45-2.4-1.22 1.2 1.22 1.2 1.23-1.2zm-2.45-2.4-1.22 1.2 1.22 1.2 1.23-1.2z" fill="#b2b2b2"/><path d="m12.87 9 1.13 1.15 1.12-1.15-1.12-1.15zm-.87 0c0-1.1.92-2 2-2s2 .9 2 2-.92 2-2 2-2-.9-2-2z" fill="#164194"/></svg>