<svg fill="none" height="18" width="18" xmlns="http://www.w3.org/2000/svg"><path d="m0 0h18v18h-18z" fill="#f0f3fa"/><g clip-rule="evenodd" fill-rule="evenodd"><path d="m16 9a3.5 3.5 0 1 1 -1.057-2.507l-.99.99a2.1 2.1 0 1 0 .527.814h1.45c.046.227.07.462.07.703z" fill="#6b9c30"/><path d="m11.87 11.004a3.5 3.5 0 1 1 0-4.008 2.105 2.105 0 0 0 -1.12.843 2.1 2.1 0 1 0 0 2.323c.263.395.657.696 1.12.842z" fill="#006838"/><path d="m5.5 12.5a3.5 3.5 0 1 0 0-7 3.5 3.5 0 0 0 0 7zm0-1.4a2.1 2.1 0 1 0 0-4.2 2.1 2.1 0 0 0 0 4.2z" fill="#005129"/></g><path d="m12.296 8.3h3.204v1.4h-3.204z" fill="#6b9c30"/><path clip-rule="evenodd" d="m10.52 8.3h-4.351v1.4h4.35a2.096 2.096 0 0 1 0-1.4z" fill="#006838" fill-rule="evenodd"/><path clip-rule="evenodd" d="m10.514 8.317h1.434l-.499-.499.42-.42.92.919.07.07.201.2.42.421-1.61 1.611-.42-.42.498-.499h-1.428a2.096 2.096 0 0 1 -.006-1.383z" fill="#fbaa19" fill-rule="evenodd"/></svg>