<svg height="18" viewBox="0 0 18 18" width="18" xmlns="http://www.w3.org/2000/svg"><path d="m0 0h18v18h-18z" fill="#f0f3fa"/><path d="m4.07 13.51a2 2 0 0 0 1.43.49c1.52 0 3.67-1.08 5.55-2.87 1.85-1.77 2.95-3.8 2.95-5.26 0-1.27-.93-1.87-2.18-1.87-1.1 0-2.38.43-3.3 1.25a8.12 8.12 0 0 1 2.42-.63c1.09 0 1.77.84 1.77 1.88 0 1.3-.94 3.12-2.6 4.7-1.64 1.56-3.49 2.47-4.84 2.49a2 2 0 0 1 -1.27-.39c.03.04 0 .13.07.2z" fill="#e9663d"/><path d="m11.94 5.4c-.29-.28-.7-.4-1.17-.4-1.22 0-2.93.86-4.42 2.28-1.5 1.41-2.36 3.04-2.35 4.2 0 .99.7 1.52 1.64 1.52.93 0 2.21-.55 2.98-1.23-.9.32-1.67.6-2.16.61-.85.02-1.54-.57-1.54-1.43.01-1.04.87-2.48 2.18-3.72 1.31-1.25 2.8-1.93 3.88-1.93.4 0 .76.1 1.02.3-.03-.03 0-.16-.06-.21z"/></svg>