<svg height="18" viewBox="0 0 18 18" width="18" xmlns="http://www.w3.org/2000/svg"><path d="m0 0h18v18h-18z" fill="#f0f3fa"/><g fill="#f0042d"><path d="m11 5.25-2-1.25-2 1.25v2.5l2 1.25 2-1.25zm-1.14.63-.86-.63-.86.63v1.25l.86.62.86-.63z" fill-rule="evenodd"/><path d="m6.33 8 2.34 1.33v2.67l-2.34 1.33-1-.57v1.24l-1.33-.75v-3.92zm-1 3v.33l1 .67 1-.67v-1.33l-1-.67-1 .67zm8.67-1.66-2.33-1.34-2.34 1.34v2.68l2.34 1.33 2.33-1.33v-1.34l-1.33-.68zm-1.33.67v1.34l-1 .67-1-.67v-1.35l1-.67 1 .67-1.34.67 1.34.67v-1.34z"/></g></svg>