<svg height="18" width="18" xmlns="http://www.w3.org/2000/svg"><path d="m0 0h18v18h-18z" fill="#f0f3fa"/><path d="m13.34 7.64c0 2.02-1.98 3.65-4.42 3.65l-.3-.01c-.09.07-.1.14-.03.2 1.28.48 4.14.8 5.41.89-1.49.03-2.1.86-2.21 1.27a94.07 94.07 0 0 1 -5.65-3.15c-.43.07 2.1 2.46 3.23 3.51-1.13-.66-2.5-.28-3.04 0a97.7 97.7 0 0 1 -1.51-5c-.2-.42-.32-.88-.32-1.36 0-2 1.98-3.64 4.42-3.64s4.42 1.63 4.42 3.64zm-3.27.48c0 .84-1.03 1.53-2.3 1.53-1.26 0-2.29-.69-2.29-1.53 0-.85 1.03-1.53 2.3-1.53 1.26 0 2.29.68 2.29 1.53z" fill="#231816" fill-rule="evenodd"/></svg>