<svg height="18" viewBox="0 0 18 18" width="18" xmlns="http://www.w3.org/2000/svg"><path d="m0 0h18v18h-18z" fill="#f0f3fa"/><path d="m12.71 12.35a4.98 4.98 0 0 0 -.07-6.77l-1.93 1.92c-.3.3-.46.7-.46 1.1v.67c0 .42.17.82.47 1.12l1.99 1.95z" fill="#5b9dda"/><path d="m12.5 12.58-1.92-1.88c-.3-.29-.69-.45-1.1-.45h-.86c-.42 0-.81.16-1.1.46l-1.94 1.93a4.98 4.98 0 0 0 6.91-.06z" fill="#092065"/><path d="m5.36 12.42a4.98 4.98 0 0 1 0-6.85l1.92 1.9c.3.29.47.69.47 1.1v.81c0 .42-.16.81-.46 1.1z" fill="#2b65b4"/><path d="m5.58 5.35 1.99 1.95c.29.29.68.45 1.1.45h.71c.42 0 .81-.16 1.1-.46l1.94-1.93a4.98 4.98 0 0 0 -6.84 0z" fill="#a4cae7"/></svg>