<svg height="18" width="18" xmlns="http://www.w3.org/2000/svg"><path d="m0 0h18v18h-18z" fill="#01aef0"/><path d="m8.363 4.026c-2.136.288-3.824 1.863-4.28 4-.11.5-.11 1.45-.004 1.943.222 1.02.692 1.893 1.387 2.582a4.8 4.8 0 0 0 1.318.936c.777.384 1.327.51 2.217.513.666 0 1.103-.07 1.639-.255 1.48-.52 2.655-1.7 3.128-3.15.202-.62.232-.824.232-1.592 0-.606-.01-.738-.076-1.04a4.923 4.923 0 0 0 -1.364-2.488 4.91 4.91 0 0 0 -2.572-1.385c-.414-.083-1.241-.116-1.625-.063zm1.127 3.127c1.172.301 1.771 1.628 1.225 2.71-.245.484-.705.85-1.241.993-.331.086-.824.06-1.136-.066-.764-.308-1.241-.993-1.241-1.787 0-.857.593-1.628 1.427-1.85.241-.066.718-.066.966 0z" fill="#fff"/></svg>