<svg height="18" viewBox="0 0 18 18" width="18" xmlns="http://www.w3.org/2000/svg"><path d="m0 0h18v18h-18z" fill="#f0f3fa"/><path d="m4.28 5.76c1.04-1.01 2.72-1.01 3.75 0a2.53 2.53 0 0 1 0 3.64c-1.03 1.01-2.71 1.01-3.75 0a2.53 2.53 0 0 1 0-3.64zm1.18 2.5a1 1 0 0 0 1.39 0 .93.93 0 0 0 0-1.35 1 1 0 0 0 -1.39 0 .93.93 0 0 0 0 1.34zm4.5-2.48c1.04-1 2.72-1 3.76 0a2.53 2.53 0 0 1 0 3.65l-4.7 4.57-4-3.88c.83.35 1.8.3 2.59-.16.07.18.18.34.33.49.6.58 1.59.58 2.2 0 .18-.18.3-.4.37-.62a2.53 2.53 0 0 1 -.55-4.05zm1.19 2.5a1 1 0 0 0 1.39 0 .93.93 0 0 0 0-1.35 1 1 0 0 0 -1.39 0 .93.93 0 0 0 0 1.35z" fill="#006ebc"/></svg>