<svg height="18" viewBox="0 0 18 18" width="18" xmlns="http://www.w3.org/2000/svg" xmlns:xlink="http://www.w3.org/1999/xlink"><linearGradient id="a" gradientUnits="userSpaceOnUse" x1="10.5" x2="5.06" y1="5" y2="8.28"><stop offset=".53" stop-color="#fbc707"/><stop offset="1" stop-color="#ee1c25"/></linearGradient><path d="m0 0h18v18h-18z" fill="#f0f3fa"/><path d="m7 5a4 4 0 1 0 0 8h4a4 4 0 0 0 0-8zm0 2a2 2 0 1 0 0 4h4a2 2 0 1 0 0-4z" fill="#ed1c24" fill-rule="evenodd"/><path d="m10.63 5c-.65.09-1.43.28-1.83.63-.34.3-.9.85-1.4 1.37h-.4a2 2 0 0 0 -2 2h-2a4 4 0 0 1 4-4z" fill="url(#a)"/></svg>