<svg height="18" viewBox="0 0 18 18" width="18" xmlns="http://www.w3.org/2000/svg"><path d="m0 0h18v18h-18z" fill="#202b56"/><path d="m12 5h-1.25v3.02a2.43 2.43 0 0 0 -2-1.02c-1.23 0-1.73.67-1.92 1.14a2.66 2.66 0 0 0 -2.2-1.14 2.56 2.56 0 0 0 -2.63 2.5c0 1.38 1.18 2.5 2.63 2.5.9 0 1.69-.43 2.16-1.09.3.52.92 1.09 1.97 1.09 1.45 0 2.06-.84 2.26-1.4.43.83 1.32 1.4 2.35 1.4a2.56 2.56 0 0 0 2.63-2.5c0-1.38-1.18-2.5-2.63-2.5-.5 0-.97.14-1.37.37zm-1.24 4.33h-.01v-.66h-1.42c0-.21-.2-.5-.57-.5-.38 0-.49.26-.49.37v.02c0 .09-.01.17 1.13.45.65.16 1.08.38 1.35.61a2.34 2.34 0 0 1 0-.3zm-3.66 1c.08-.22.13-.46.15-.71.21.15.5.28.92.36.41.05 1.23.21 1.23.46 0 .3-.4.31-.64.31-.26 0-.6-.26-.6-.42zm-1.25-.83a1.2 1.2 0 0 1 -1.23 1.17 1.2 1.2 0 0 1 -1.22-1.17c0-.64.55-1.17 1.22-1.17.68 0 1.23.53 1.23 1.17zm8.75 0a1.2 1.2 0 0 1 -1.23 1.17 1.2 1.2 0 0 1 -1.22-1.17c0-.64.55-1.17 1.22-1.17.68 0 1.23.53 1.23 1.17z" fill="#fff" fill-rule="evenodd"/></svg>