<svg height="18" width="18" xmlns="http://www.w3.org/2000/svg" xmlns:xlink="http://www.w3.org/1999/xlink"><linearGradient id="a" gradientUnits="userSpaceOnUse" x1="3.349" x2="21.904" y1="3.122" y2="24.434"><stop offset="0" stop-color="#1a1e21"/><stop offset="1" stop-color="#06060a"/></linearGradient><path d="m0 0h18v18h-18z" fill="url(#a)"/><path d="m7.46 3.603c-.362.33-.89.813-1.186 1.074-.729.635-1.013.94-1.155 1.238-.113.242-.119.362-.119 2.566 0 2.122.006 2.319.107 2.414.112.108 1.979 1.06 2.459 1.251l.434.178v1.946l.615.34c1.09.553 1.078.553 1.92-.228l1.317-1.28.915-.956s.233-.233.233-.406v-2.262c0-2.076.028-2.258-.066-2.347-.101-.095-1.147-.611-1.147-.611s-.921-.478-1.176-.605l-.607-.356v-1.849l-.245-.125-.712-.336-.356-.162s-.141-.087-.301-.087c-.267 0-.303.025-.93.603zm2.358 6.885-.89.813s-.781.712-.847.762c-.118.09-.081.16-.081-2.063v-2.305l.74-.706c.426-.394.876-.807.995-.921l.269-.236v4.494z" fill="#fff"/></svg>