<svg height="18" viewBox="0 0 18 18" width="18" xmlns="http://www.w3.org/2000/svg"><path d="m0 0h18v18h-18z" fill="#f0f3fa"/><path d="m15 5h-12v8h12zm-11.5 5.25v-4.75h7c-1.16.36-2.42 1-3.2 1.42l-.68.33c-.64.27-2.55 1.98-2.74 2.28-.1.15-.26.44-.38.72zm0 1.1v1.15h1.35a2.56 2.56 0 0 1 -1.35-1.15zm5.06 1.15h5.94v-5.16a.73.73 0 0 1 -.52-.1 4.31 4.31 0 0 0 -1.63-.07c.5.1 1.5.53 1.56 1.48.08 1.18-1.26 2.18-1.74 2.46a17 17 0 0 1 -3.6 1.39zm5.94-5.62v-1.38h-1.48c.67.34 1.18.92 1.48 1.38zm-7.76 2.4c.57-.46 2.26-1.2 3.04-1.51-.42.37-1.3 1.14-1.44 1.3-.18.22-.14.31.18.67.25.29.32.27.33.23a4.52 4.52 0 0 1 1.68-1.87c.47-.3 2.06-.56 2.2.53.13 1.08-1.04 1.98-2.3 2.72s-4.72 1.12-4.72.1c0-1 .33-1.6 1.03-2.18z" fill="#e6002e" fill-rule="evenodd"/></svg>