<svg height="18" viewBox="0 0 18 18" width="18" xmlns="http://www.w3.org/2000/svg" xmlns:xlink="http://www.w3.org/1999/xlink"><linearGradient id="a"><stop offset="0" stop-color="#069c45"/><stop offset="1" stop-color="#1a5f2f"/></linearGradient><linearGradient id="b" gradientUnits="userSpaceOnUse" x1="6.84" x2="6.84" xlink:href="#a" y1="3" y2="13.63"/><linearGradient id="c"><stop offset=".23" stop-color="#1a5f2f"/><stop offset=".88" stop-color="#069c45"/></linearGradient><linearGradient id="d" gradientUnits="userSpaceOnUse" x1="7.17" x2="7.17" xlink:href="#c" y1="3.07" y2="13.63"/><linearGradient id="e" gradientUnits="userSpaceOnUse" x1="8.83" x2="8.83" xlink:href="#c" y1="2" y2="6"/><linearGradient id="f" gradientUnits="userSpaceOnUse" x1="10" x2="10" xlink:href="#c" y1="3.33" y2="14"/><linearGradient id="g" gradientUnits="userSpaceOnUse" x1="9.83" x2="9.83" xlink:href="#a" y1="3.37" y2="13.29"/><path d="m0 0h18v18h-18z" fill="#f0f3fa"/><path d="m7.71 13.63a3.3 3.3 0 0 1 -2.71-3.32c0-2.78 3.31-4 2.82-7.31.3.36.85.9.85 1.81 0 2.4-2.16 4.07-2.16 6.33 0 1.24.91 2.13 1.2 2.5z" fill="url(#b)"/><path d="m7.88 3.07c.14.38.3 1 .3 1.66 0 1.31-.67 2.2-1.32 3.06-.6.8-1.2 1.57-1.2 2.64 0 1.44.88 2.44 1.89 3.17l.16.03-.13-.16c-.37-.43-1.07-1.24-1.07-2.33 0-1.12.52-2.08 1.05-3.07.55-1.01 1.1-2.04 1.1-3.26 0-.8-.43-1.31-.73-1.67z" fill="url(#d)"/><path d="m8.7 2.87c0-.32.15-.71.22-.87-.2.18-.59.67-.59 1.18 0 .65.83 1.6.83 2.12v.7c.06-.13.17-.45.17-.87 0-.53-.63-1.56-.63-2.26z" fill="url(#e)"/><path d="m11.24 7.05a7.52 7.52 0 0 1 -1.62-3.72c-.69 1.27.71 3.39.71 4.2 0 .29-.09.64-.33.64-1 0-1.19-1.38-1.16-2.08-.17.2-.5.8-.5 1.64 0 2.1 2.4 2.06 2.4 3.55 0 .6-.56 1.05-1.45 1.05-1.36 0-1.45-1.86-1.45-2.17s.1-1.14.16-1.83c-.31.3-1 1.19-1 2.58s1.04 3.09 3.02 3.09 2.98-1.6 2.98-2.97-.22-1.93-1.76-3.98z" fill="url(#f)"/><path d="m7.93 8.44c-.16.48-.4 1.39-.4 2.28 0 1.29.67 2.57 2.34 2.57 1.66 0 2.26-1.64 2.26-2.82 0-1-.36-1.6-.97-2.62-.24-.41-.52-.88-.83-1.47a6.91 6.91 0 0 1 -.73-3c-.42.83.03 2.01.39 2.96.18.49.34.91.34 1.19 0 .29-.09.47-.33.47-1 0-1.19-1.3-1.16-2-.17.2-.5.89-.5 1.73 0 1.14.68 1.65 1.3 2.11.54.4 1.03.76 1.03 1.44 0 .6-.5 1.05-1.38 1.05-1.36 0-1.45-1.86-1.45-2.17 0-.3.03-1.04.1-1.72z" fill="url(#g)"/></svg>