<svg height="18" width="18" xmlns="http://www.w3.org/2000/svg"><path d="m0 0h18v18h-18z" fill="#f0f3fa"/><path d="m4 7.37v-.75h.76l1.39 1.4v.75h-.77zm2.62 2.61v-.75h.77l1.39 1.4v.75h-.78l-1.39-1.4zm2.6 2.62v-.75h.78l1.39 1.4v.75h-.77l-1.39-1.4z" fill="#55585a"/><path d="m9.23 7.37v-.75h.76l1.39 1.4v.75h-.76l-1.4-1.4zm-2.61-2.62v-.75h.77l1.39 1.4v.75h-.77zm4.76 0v-.75h-.77l-1.39 1.4v.75h.78l1.39-1.4z" fill="#a4482f"/><path d="m14 7.37v-.75h-.76l-1.39 1.4v.75h.77z" fill="#de8c38"/><path d="m8.78 7.37v-.75h-.78l-1.4 1.4v.75h.78l1.39-1.4z" fill="#55585a"/><path d="m6.15 9.98v-.75h-.77l-1.4 1.4v.75h.78z" fill="#de8c38"/><path d="m11.38 9.97v-.74h-.77l-1.39 1.4v.75h.78l1.39-1.4z" fill="#55585a"/><path d="m8.77 12.6v-.75h-.76l-1.4 1.4v.75h.77l1.4-1.4z" fill="#a4482f"/><path d="m11.85 9.98v-.75h.77l1.4 1.4v.75h-.77z" fill="#de8c38"/></svg>