<svg height="18" viewBox="0 0 18 18" width="18" xmlns="http://www.w3.org/2000/svg"><path d="m0 0h18v18h-18z" fill="#f0f3fa"/><path d="m10.3 7h-1.7c.06-.87.72-2 2.93-2 1.72 0 2.13 1.16 2.17 1.74 0 1.2-1.32 1.56-2.13 1.6.89 0 2.43.46 2.43 2.31 0 1.96-1.9 2.35-2.84 2.35-.87 0-2.62.02-2.62-2h1.58c.02.4.26.67 1.04.67.98 0 1.02-.94 1.02-1.1 0-.15.19-1.04-1.18-1.04v-1.25c.38.04 1.09-.1 1.09-.98-.02-.29-.23-.97-.89-.97-.82 0-.9.4-.9.67z" fill="#58585a"/><path d="m4 13v-8h3.39c1.3 0 2.44.98 2.44 2.4s-1.13 2.6-2.43 2.6h-1.4v3zm3.05-6.5h-1.05v2h1.05c.52 0 .95-.45.95-1s-.43-1-.95-1z" fill="#7a2230"/></svg>