<svg height="18" viewBox="0 0 18 18" width="18" xmlns="http://www.w3.org/2000/svg"><path d="m0 0h18v18h-18z" fill="#f0f3fa"/><path d="m7.88 13.92-.64-.45 6.76-3.7v.7c0 .16-.04.3-.12.44a.9.9 0 0 1 -.34.32l-5.04 2.69a.63.63 0 0 1 -.62 0z" fill="#183d85"/><path d="m8 14v-6.33l-1-.67v6.08c0 .1.02.2.05.29.04.09.09.16.15.21z" fill="#1e8cfa"/><path d="m5.25 5.54.75-.54v8l-.63-.45a.86.86 0 0 1 -.27-.34 1.1 1.1 0 0 1 -.1-.46v-5.68c0-.1.02-.21.07-.3.04-.1.1-.18.18-.23zm8.75 1.81v1.03l-6.83-3.84.77-.43a.93.93 0 0 1 .91 0l4.85 2.71c.09.06.17.13.22.22.05.1.08.2.08.3z" fill="#183d85"/><path d="m14 7.33c-1.1.75-4.03 2.19-5 2.83v1.36l4.74-2.64a.55.55 0 0 0 .2-.21.65.65 0 0 0 .06-.3zm-8.8-1.76c.95.5 4.13 2.48 5.2 3.08l1.08-.55-5.08-3.02a.55.55 0 0 0 -.57 0l-.62.49z" fill="#1e8cfa"/></svg>