<svg height="18" viewBox="0 0 18 18" width="18" xmlns="http://www.w3.org/2000/svg"><path d="m0 0h18v18h-18z" fill="#f0f3fa"/><path d="m11.18 13.5c.58-.59.95-1.41.95-2.33a3.2 3.2 0 0 0 -3.13-3.24 3.2 3.2 0 0 0 -3.13 3.24c0 .92.37 1.74.95 2.33h-.66a5.27 5.27 0 0 1 -2.16-4.29 5.1 5.1 0 0 1 5-5.21c2.76 0 5 2.33 5 5.21 0 1.78-.85 3.35-2.16 4.29zm-.53 0c.2-.33.33-.72.33-1.14 0-1.14-.89-2.03-1.98-2.03-1.1 0-1.98.89-1.98 2.03 0 .42.12.81.33 1.14h.47a1.33 1.33 0 0 1 -.05-.36c0-.7.55-1.22 1.23-1.22s1.23.52 1.23 1.22c0 .13-.02.25-.05.36zm-.77 0c0-.5-.4-.95-.88-.95-.49 0-.88.44-.88.95z" fill="#01a9e4"/></svg>