<svg height="18" viewBox="0 0 18 18" width="18" xmlns="http://www.w3.org/2000/svg"><path d="m0 0h18v18h-18z" fill="#0b3450"/><path d="m10.5 12v-6h2.43c1.13 0 2.06.92 2.06 2.07 0 .9-.59 1.72-1.4 2.01l1.41 1.92h-1.66l-1.33-1.8h-.01v1.8zm-7.5-6v6h1.5v-1.8h.94c1.14 0 2.06-.99 2.06-2.13s-.92-2.07-2.06-2.07z" fill="#dde159"/><path d="m4.5 7.5h.85c.36 0 .65.34.65.75s-.3.75-.65.75h-.85zm7.5 0h.85c.36 0 .65.34.65.75s-.3.75-.65.75h-.85z" fill="#0b3450"/><path d="m5 12 3.65-6h1.35v6h-1.39v-1h-1.61l-.6 1zm2.6-2h1v-1.68z" fill="#dde159"/></svg>