<svg height="18" width="18" xmlns="http://www.w3.org/2000/svg" xmlns:xlink="http://www.w3.org/1999/xlink"><linearGradient id="a" gradientUnits="userSpaceOnUse" x1="3.35" x2="21.9" y1="3.12" y2="24.43"><stop offset="0" stop-color="#1a1e21"/><stop offset="1" stop-color="#06060a"/></linearGradient><linearGradient id="b" gradientUnits="userSpaceOnUse" x1="17.49" x2="6.87" y1="9" y2="8.94"><stop offset="0" stop-color="#700aa0"/><stop offset="1" stop-color="#ed326f"/></linearGradient><path d="m0 0h18v18h-18z" fill="url(#a)"/><path d="m6.63 7 .26.86h.85c.83 0 1.3.47 1.3 1.08s-.38.91-1.04 1.06l.4.83c.95-.38 1.51-1 1.51-1.89 0-1.07-.95-1.94-2.1-1.94zm4.94 0h-.86v4h.86v-2.8l1.32 1.6 1.25-1.6v2.8h.86v-4h-.86l-1.25 1.58z" fill="url(#b)"/><path d="m3 7v4h.86v-1.14h.95c.83 0 1.5-.69 1.5-1.46 0-.76-.67-1.4-1.5-1.4zm.86.86v1.14h.9c.5 0 .7-.3.7-.6 0-.29-.2-.54-.7-.54z" fill="#fff" fill-rule="evenodd"/></svg>