<svg fill="none" height="18" viewBox="0 0 18 18" width="18" xmlns="http://www.w3.org/2000/svg"><path d="m0 0h18v18h-18z" fill="#f0f3fa"/><g clip-rule="evenodd" fill="#405a67" fill-rule="evenodd"><path d="m5 5h-1v5 3h1v-3h1.72658c1.25039 0 2.27342-1.12499 2.27342-2.5s-1.02303-2.5-2.27342-2.5zm0 4h1.63594c.75025 0 1.36406-.67498 1.36406-1.5s-.61381-1.5-1.36406-1.5h-1.63594z"/><path d="m11 9h3v1h-3z"/><path d="m14 9h-1v3h1z"/><path d="m13.9999 5.6987c-.7845-.43871-1.638-.6987-2.3747-.6987-2.00214 0-3.6252 1.79087-3.6252 4 0 2.2091 1.62306 4 3.6252 4 .7367 0 1.5902-.2249 2.3747-.6193v-1.305c-.663.5748-1.5512.9243-2.3316.9243-1.4736 0-2.6683-1.3432-2.6683-3 0-1.65685 1.1947-3 2.6683-3 .7804 0 1.6686.4039 2.3316 1.02999z"/></g></svg>