<svg height="18" viewBox="0 0 18 18" width="18" xmlns="http://www.w3.org/2000/svg"><path d="m0 0h18v18h-18z" fill="#f0f3fa"/><path d="m6 13.4v-9.4h3.65c1.12-.04 3.35 1.5 3.35 3.6 0 2.4-2.23 3.35-3.35 3.4h-.85v3.91l-2.8-1.5z" fill="#efd40a"/><g fill="#2a2652" fill-rule="evenodd"><path d="m9.65 11c1.12-.05 3.35-.5 3.35-3.5 0-2.5-2.23-3.54-3.35-3.5h-3.65v9.48l3 1.52v-4zm-1.65 2.47v-3.47h1.64c1.42-.08 2.36-.82 2.36-2.5 0-1.35-.96-2.5-2.35-2.5h-2.65v7.86z"/><path d="m9.44 7h-.44v1h.45c.28 0 .55-.05.55-.5 0-.36-.3-.51-.56-.5zm.23 2c.43-.03 1.33-.26 1.33-1.5 0-1.23-.92-1.52-1.37-1.5h-1.63v3z"/></g></svg>