<svg height="18" viewBox="0 0 18 18" width="18" xmlns="http://www.w3.org/2000/svg"><path d="m0 0h18v18h-18z" fill="#e94709"/><path d="m10 12v-1a2.15 2.15 0 0 0 .52 0v1zm3.24-2.75h-.94a1.98 1.98 0 0 0 0-.5h.94zm-2.72-3.25v1a2.15 2.15 0 0 0 -.52 0v-1zm-3.28 2.75h.94a1.98 1.98 0 0 0 0 .5h-.94zm2 .5c.1.36.39.64.76.73v1a2 2 0 0 1 -1.74-1.73zm.76-1.23c-.37.09-.67.37-.76.73h-.98a2 2 0 0 1 1.74-1.75v1zm.52 1.95c.29-.08.53-.27.66-.53l.85.46a2 2 0 0 1 -1.51 1.08v-1zm0-1.94c.29.07.52.27.65.52l.86-.45a2 2 0 0 0 -1.51-1.08v1zm-7.52-.74v3.71h.7c.24 0 .3-.18.3-.4v-2.6h1.33c.34 0 .67.16.67.46s-.33.54-.67.54h-.6c-.1 0-.17.05-.2.12l-.23.67c-.02.08.04.21.13.21h.94c.9 0 1.63-.7 1.63-1.5v-.06c0-.8-.73-1.44-1.63-1.44h-2.04c-.18 0-.33.13-.33.29zm11.38-.29c-.21 0-.38.15-.38.34v3.66h.62c.21 0 .38-.15.38-.34v-3.66z" fill="#fff"/></svg>