<svg height="18" viewBox="0 0 18 18" width="18" xmlns="http://www.w3.org/2000/svg"><path d="m0 0h18v18h-18z" fill="#00573d"/><circle cx="9" cy="9" fill="#fff" r="5"/><g fill="#00573d"><path d="m9.8 11.53a.38.38 0 0 1 -.18 0h-.13l-.26.05-.76.15-1.46.37.4.27a173.82 173.82 0 0 0 2.06-.52c.22-.08 1.3-.46 1.59-.53a.2.2 0 0 0 .11-.07.19.19 0 0 0 .04-.1.51.51 0 0 0 -.05-.23 7.81 7.81 0 0 0 -.57.26l-.05.02a7.73 7.73 0 0 1 -.74.33zm1.4-.76a.1.1 0 0 1 .08.05c.04.09.08.21.07.34 0 .06-.02.13-.07.18-.04.06-.1.1-.19.12a19.78 19.78 0 0 1 -2.46.76l-1.21.3h-.03l-.74-.48.16-.04a48.02 48.02 0 0 1 2.4-.57 3.64 3.64 0 0 1 .44-.04l.11-.01c.06-.01.13-.04.2-.07.16-.06.34-.15.51-.24l.05-.03a7.8 7.8 0 0 1 .6-.27z"/><path d="m6 9.12c0-.22.35-.61.52-.78l-.23-.28v-.21l-.08-.08.04-.09c.05-.11.1-.26.2-.26s.23.43.31.7l.05.15h.3c.12 0 .31.04.48.08.14.03.27.06.34.06-.06-.11-.03-.35 0-.42h-.5l.42-.22a1.02 1.02 0 0 1 -.22-.14l.25-.03c.28-.03.43-.04.49-.32.06-.29.32-.45.44-.5l.05-.21-.2-.14.2-.08v-.35h.57v.28l.15.07-.15.15c.02 0 .07.01.07.07l-.03.1a.25.25 0 0 0 -.04.11c0 .04.04.11.1.19l.1.17c.03.05.04.11.04.17.01.1.02.2.1.32.12.16.06.37.03.49l-.02.08c0 .06.1.12.15.14l.51-.92h.48c.1 0 .17 0 .2.03l.06.14c.03.08.07.17.15.26.15.14.23.28.23.35 0 .06-.15.26-.23.35h.38c.17 0 .29.29.29.43s-.22.43-.44.43c-.15 0-.2-.12-.24-.2-.02-.05-.03-.09-.06-.09h-.6c-.22.22-.14.57-.07.85.05.17-.01.41-.07.64-.04.16-.08.31-.08.43 0 .15.07.24.13.33.05.07.1.14.1.24 0 .17.24.59.37.78l-.37.14c-.13-.19-.4-.64-.52-.92-.1-.24-.3-.35-.47-.44a.95.95 0 0 1 -.2-.13 1.97 1.97 0 0 0 -.74-.28c-.07 0-.44-.22-.6-.36a5.38 5.38 0 0 0 -1.2-.7c-.05 0-.07.11-.08.18v.42c0 .05-.01.1-.03.11a1.38 1.38 0 0 0 -.31.35c-.04.07-.08.08-.15.07-.08 0-.18-.03-.22-.14-.04-.1.03-.13.1-.17.07-.05.16-.1.12-.25l-.15-.4c-.1-.29-.22-.57-.22-.76zm3.58-1.7c.09.17.22.65.06 1.13l-.04-.12c-.13-.34-.3-.78-.02-1.01zm-.44 1.21c-.19-.18-.6-.57-.73-.63-.17-.07-.33.14-.33.35 0 .17.22.21.33.21-.14.1-.41.32-.41.5.2 0 .3.04.33.06l.4-.49zm.05-1.25c.12.2.24-.42.24-.53h-.24c-.03.1-.09.36 0 .53zm.07-1.24v.29h-.16v-.29h.15z" fill-rule="evenodd"/><path d="m9 13a4 4 0 1 0 0-8 4 4 0 0 0 0 8zm0-.29a3.71 3.71 0 1 0 0-7.41 3.71 3.71 0 0 0 0 7.42z" fill-rule="evenodd"/><path d="m11.22 10.18-5.46 1.02.3.44 5.16-1.1c.24-.06.1-.28 0-.37z"/><path d="m11.42 9.85c.04-.12.13-.26.3-.26a.2.2 0 0 1 .18.08.3.3 0 0 1 .04.18c0 .1-.04.24-.08.32v1.56h-.14v-1.59c.04-.09.07-.2.08-.3l-.02-.09c-.01 0-.02-.02-.06-.02-.07 0-.13.05-.17.17-.04.1-.05.24-.05.33v1.71h-.15v-1.71c0-.1.02-.25.07-.38zm-1.86 2.05-.07-.44-2.8.66.74.3zm-.56 1.8c1.2 0 2.28-.44 3.11-1.17h-.46a4.4 4.4 0 0 1 -5.3 0h-.45a4.69 4.69 0 0 0 3.1 1.17zm4.7-4.7v.3h-.3l.01-.3a4.41 4.41 0 0 0 -6.54-3.87l-.15-.25a4.7 4.7 0 0 1 6.99 4.12zm-7.47-3.8a4.7 4.7 0 0 0 -1.93 4.1h.3l-.01-.3a4.4 4.4 0 0 1 1.83-3.58 11.7 11.7 0 0 0 -.2-.22z"/></g></svg>