<svg height="18" width="18" xmlns="http://www.w3.org/2000/svg"><path d="m0 0h18v18h-18z" fill="#f0f3fa"/><path d="m3.996 4h5v5h-5z" fill="#02aa69"/><path d="m6.499 11.499v-2.5h-2.499v5.001h5v-2.501z" fill="#383c95"/><path d="m5.952 12.02c.479.48-1.952-1.99-1.952-1.99v3.97h3.96s-2.486-2.462-2.008-1.98z" fill="#ffde16"/><path d="m11.5 11.5h-2.503l-.004 2.5h5.007v-5.006l-2.5.006z" fill="#ec3e36"/><path d="m8.995 4 .005 2.499h2.5v2.5h2.5v-4.999h-5.006z" fill="#383c95"/><path d="m8.999 9h-2.997v2.997h2.998v-2.997z"/><path d="m9 6.003h-2.998v2.997h2.998zm3 2.997h-3v2.997h3z" fill="#fff"/><path d="m11.996 6.002h-2.996v2.998h2.996z"/><path d="m12 12h-1v2h1zm-2 0h-1v2h1zm4-3.004h-1v5.002h1zm0-4.996h-2.004v2.004h2.004z" fill="#ffde16"/><circle cx="10.498" cy="7.478" fill="#ec3e36" r=".643"/><circle cx="7.501" cy="10.498" fill="#ec3e36" r=".643"/><circle cx="7.501" cy="7.478" r=".643"/><circle cx="10.498" cy="10.498" r=".643"/></svg>