<svg height="18" width="18" xmlns="http://www.w3.org/2000/svg"><path d="m0 0h18v18h-18z" fill="#ee1b2c"/><rect fill="#fff" height="8.93" rx="2" width="9.103" x="4.401" y="4.461"/><path d="m9.57 7.667h.136c.17 0 .334.01.31.128 0 .023-.148.346-.172.393 0 0-.277.52-.333.607-.055.088-.316.43-.511.43h-.26zm-3.57 3.333h2l.45-1h1.71c.488 0 .748-.18.919-.46l.9-1.91c.025-.046.025-.093.025-.14 0-.28-.317-.49-.708-.49h-3.295z" fill="#ee1b2c"/><path d="m12 5h-6a1 1 0 0 0 -1 1v6a1 1 0 0 0 1 1h6a1 1 0 0 0 1-1v-6a1 1 0 0 0 -1-1zm-6-1a2 2 0 0 0 -2 2v6a2 2 0 0 0 2 2h6a2 2 0 0 0 2-2v-6a2 2 0 0 0 -2-2z" fill-rule="evenodd"/></svg>