<svg height="18" width="18" xmlns="http://www.w3.org/2000/svg"><path d="m0 0h18v18h-18z" fill="#b5121b"/><path d="m12.405 5.022-.003.5.003-.5h.017l.017.001c.77.056 1.154.7 1.33 1.189.184.51.231 1.072.22 1.391-.01.616-.171 1.176-.418 1.598-.225.385-.615.799-1.133.799l-4.434.002v4.998h-1v-4.998l-4 .002v-.5-.5l4-.002v-3.485a.874.874 0 0 1 .137-.344.893.893 0 0 1 .131-.099c.052-.027.096-.038.108-.041a.522.522 0 0 1 .109-.017l.057-.002.164-.002c.136-.002.329-.002.559-.003l1.686.003 1.684.006zm-4.401 3.98 4.434-.002c-.008 0-.007 0 0-.004.025-.012.133-.067.27-.3.153-.262.275-.654.28-1.112v-.015a3.023 3.023 0 0 0 -.16-1.018c-.138-.384-.303-.512-.45-.53l-.743-.003a1230.279 1230.279 0 0 0 -3.631-.008z" fill="#f6f8fd"/></svg>