<svg height="18" viewBox="0 0 18 18" width="18" xmlns="http://www.w3.org/2000/svg"><path d="m0 0h18v18h-18z" fill="#f0f3fa"/><path d="m4 6.4v1.68c0 .23.11.37.32.26l4.67-2.42 3.14 1.61v.6l-.63-.32v2.29l2.33-1.21c.1-.05.17-.16.17-.28v-2.2a.31.31 0 0 0 -.16-.28l-4.7-2.59a.3.3 0 0 0 -.3 0l-4.68 2.6a.31.31 0 0 0 -.16.26z" fill="#012b5d"/><path d="m14 11.6v-1.85c0-.23-.23-.23-.44-.12l-4.55 2.46-3.14-1.61v-.6l.63.31v-2.28l-2.33 1.19a.31.31 0 0 0 -.17.3v2.2c0 .11.06.22.16.27l4.7 2.6c.1.05.2.05.3 0l4.68-2.6c.1-.05.16-.16.16-.27z" fill="#012b5d"/><path d="m9.03 11.38-.53-.26.03-4.14.5-.24.44.24v4.16zm-1.9-3.75v2.83l.93.45v-3.71l-.94.44zm3.74.07v2.7l-.93.5v-3.7z" fill="#ee3324"/></svg>