<svg height="18" width="18" xmlns="http://www.w3.org/2000/svg"><path d="m0 0h18v18h-18z" fill="#28458e"/><g fill="#fff"><path d="m13.506 11.198c.146-2.73-2.249-5.819-5.5-6.192v-.043c3.207 0 5.66 2.93 5.66 5.258 0 .489-.043.776-.116.992zm-.188.36a5.046 5.046 0 0 1 -.798.761c-.58-3.29-3.019-6.164-4.746-7.012l-.044.03c1.742 1.407 3.803 4.152 4.615 7.111a6.161 6.161 0 0 1 -1.32.747c-1.64-1.853-3.165-5.415-3.657-7.685l-.044.014c.015 2.198 1.582 5.934 3.512 7.759-.42.172-.885.301-1.364.373-1.843-.718-3.15-3.031-3.15-5.402 0-1.552.48-2.5.567-2.701l-.044-.015c-.116.173-.813 1.121-.813 2.802 0 2.672 1.336 4.727 3.106 5.374a6.1 6.1 0 0 1 -1.901-.087l-.014.043c.188.072.827.331 1.814.331 2.22 0 3.715-1.365 4.324-2.4z"/><path d="m8.82 4c-1.685 0-3.659 1.207-3.659 2.299 0 .43.392.79 1.204.79 1.887 0 3.643-1.279 3.643-2.284 0-.532-.508-.805-1.19-.805zm.667.776c0 .848-1.626 1.868-2.99 1.868-.61 0-.929-.23-.929-.618 0-.848 1.655-1.868 2.932-1.868.827 0 .987.417.987.618z"/><path d="m4.494 6.816c-.043.087-.232.446-.232.82 0 .703.711 1.35 2.017 1.35 2.51 0 5.428-1.84 5.428-3.549 0-.761-.726-1.178-1.234-1.264l-.014.028c.16.044.74.317.74.992 0 1.365-2.569 3.204-5.123 3.204-.987 0-1.596-.474-1.596-1.178 0-.216.043-.36.058-.403z"/><path d="m12.752 5.566c.072.058.479.388.479 1.049 0 2.213-3.498 4.382-6.589 4.382-1.843-.014-2.67-.905-2.641-1.71h.029c.072.417.667 1.164 2.278 1.164 3.091 0 6.545-2.241 6.545-4.21 0-.33-.087-.546-.145-.646z"/><path d="m13.913 7.62c.014.044.087.26.087.59 0 2.457-3.541 4.554-6.618 4.554-1.582 0-2.409-.761-2.583-1.063l.03-.014c.434.373 1.305.66 2.307.66 2.713 0 6.762-2.04 6.733-4.712l.044-.014z"/></g></svg>