<svg height="18" viewBox="0 0 18 18" width="18" xmlns="http://www.w3.org/2000/svg"><path d="m0 0h18v18h-18z" fill="#022344"/><g fill="#085cb0"><path d="m12.74 12c1.8 0 3.26-.53 3.26-1.18 0-.66-1.46-1.19-3.26-1.19s-3.27.53-3.27 1.19c0 .65 1.46 1.18 3.27 1.18zm-.59-.43c1.38 0 2.49-.33 2.49-.75 0-.4-1.11-.74-2.49-.74-1.37 0-2.48.33-2.48.74 0 .42 1.11.75 2.48.75z" fill-rule="evenodd"/><path d="m11.85 11.35c1.15 0 2.08-.26 2.08-.58s-.93-.58-2.08-.58-2.08.26-2.08.58.93.58 2.08.58zm-.44-.3c.75 0 1.35-.14 1.35-.3 0-.18-.6-.32-1.35-.32-.74 0-1.34.14-1.34.31s.6.31 1.34.31z" fill-rule="evenodd"/><path d="m8.93 7.69c1.49.67 3.55 2.3 4 2.89-1.86-1.13-3.7-2.25-4.26-2.55z"/></g><path d="m8.9 8.46v-.74c-2.6-1.37-4.5-1.7-5.73-1.72-.5 0-.9.02-1.18.09 3.28.53 5.74 1.7 6.9 2.37z" fill="#e51937"/><path d="m5 7h1.54a1.2 1.2 0 0 1 0 2.4h-.54v1.6h-1zm1 .8h.39a.4.4 0 0 1 0 .8h-.4v-.8z" fill="#fff" fill-rule="evenodd"/><path d="m8 7h2.38v.8h-1.38v.8h1.2v.8h-1.2v1.6h-1z" fill="#fff"/></svg>