<svg height="18" viewBox="0 0 18 18" width="18" xmlns="http://www.w3.org/2000/svg"><path d="m0 0h18v18h-18z" fill="#f0f3fa"/><path d="m11.14 4.95-4.16-1.95-2.81 3.65.27.14.03.07.86.47v4.1l.55-.44v-2.87c0-.13.11-.25.25-.25s.2.21.2.35v3.94l.67-.43v-3.06c0-.14.12-.25.26-.25.13 0 .24.2.24.34v4.14l.64-.43v-3.3c0-.14.11-.25.25-.25.13 0 .28.2.28.34v4.38l.3.2-.23.14h-.02l-4.35-2.86v.2l4.74 3.16-.27.17-4.84-3.17v.34l4.79 3.18 5.21-3.46v-.14l-.4-.26v-.1l-.6-.4v-3.87l.23-.2.1-.19-2.26-1.33zm-6.6 1.61 2.52-3.26 3.7 1.74-2.52 3.37zm5 6.17.46.34v-4.37c0-.14-.08-.25-.21-.25-.14 0-.25.26-.25.4v3.89zm1.13-.75.5.34v-4.13a.25.25 0 0 0 -.25-.25c-.14 0-.25.26-.25.4zm1.13-.74.53.34v-3.93c0-.14-.15-.25-.29-.25-.13 0-.24.25-.24.4z" fill="#005941" fill-rule="evenodd"/></svg>