<svg height="18" viewBox="0 0 18 18" width="18" xmlns="http://www.w3.org/2000/svg"><path d="m0 0h18v18h-18z" fill="#f0f3fa"/><path d="m14.19 7c-1.21.1-1.63 1.04-1.64 1.03l.19-1.03h-.98l-.76 4h.98l.28-1.46s.04.51.34.91.78.54 1.23.55c.17 0 .34-.01.5-.04l.27-.06-.48-.64-.15.01a.6.6 0 0 1 -.41-.1c-.38-.3-.32-1.07-.2-1.5.16-.47.48-.94.97-.94.48 0 .67.5.66.94 0 .18-.02.34-.05.51h-1.15l1.23 1.82h.98l-.47-.72s.3-.42.41-1c.25-1.26-.33-2.3-1.6-2.28z" fill="#040404"/><path d="m2.8 7-.8 4h.98l.28-1.45h.37c.26 0 .54-.01.8-.08.34-.08.63-.3.83-.63l-.44 2.16h2.69l.14-.73h-1.7l.19-.9h1.54l.15-.73h-1.53l.16-.91h2.36l-.64 3.27h1l.64-3.27h.93l.15-.73h-5.28l-.2 1.02-.02-.02c-.08-1.06-1.17-1-1.9-1zm1.28.74c.21.04.33.23.34.46.02.38-.2.57-.61.62h-.39l.2-1.1h.2z" fill="#ee631c"/></svg>