<svg height="18" width="18" xmlns="http://www.w3.org/2000/svg" xmlns:xlink="http://www.w3.org/1999/xlink"><linearGradient id="a"><stop offset="0" stop-color="#ffe200"/><stop offset="1" stop-color="#f08300"/></linearGradient><linearGradient id="b" gradientUnits="userSpaceOnUse" x1="8.049" x2="3.89" xlink:href="#a" y1="7.513" y2="7.749"/><linearGradient id="c" gradientUnits="userSpaceOnUse" x1="9.855" x2="6.488" xlink:href="#a" y1="6.511" y2="3.439"/><linearGradient id="d" gradientUnits="userSpaceOnUse" x1="9.681" x2="7.184" xlink:href="#a" y1="6.986" y2="3.73"/><linearGradient id="e" gradientUnits="userSpaceOnUse" x1="9.922" x2="14.001" xlink:href="#a" y1="10.423" y2="10.423"/><linearGradient id="f" gradientUnits="userSpaceOnUse" x1="11.171" x2="14.521" xlink:href="#a" y1="9.798" y2="6.734"/><linearGradient id="g" gradientUnits="userSpaceOnUse" x1="11.006" x2="13.496" xlink:href="#a" y1="9.043" y2="5.776"/><path d="m0 0h18v18h-18z" fill="#c7000d"/><path d="m13.262 8.898c0 2.435-1.893 4.41-4.227 4.41-2.335 0-4.228-1.975-4.228-4.41s1.893-4.41 4.228-4.41 4.227 1.975 4.227 4.41z" fill="#c7000d"/><path d="m8.998 9.23-4.264 1.259c.124.494-.068 1.157.21 1.558.29.42.997.425 1.397.732s.62 1.012 1.104 1.177c.47.16 1.05-.266 1.571-.266.505-.001 1.068.429 1.524.278.479-.161.7-.861 1.1-1.162.402-.302 1.109-.3 1.403-.715.294-.417.057-1.095.213-1.597z" fill="#fff"/><path d="m8.097 8.897c0-.07-.04-.13-.096-.158l-3.292-1.146c-.18.467-.71.895-.709 1.416.001.52.564.944.716 1.414l3.279-1.365a.176.176 0 0 0 .102-.161z" fill="url(#b)"/><path d="m8.12 8.406h.002a.17.17 0 0 0 .154-.103.182.182 0 0 0 -.006-.156l-1.947-2.918c-.41.267-1.068.282-1.349.68-.294.415-.09 1.113-.241 1.614z" fill="url(#c)"/><path d="m8.732 7.97a.172.172 0 0 0 .102-.14l.127-3.522c-.494-.018-1.039-.424-1.485-.275-.476.16-.696.855-1.094 1.156l2.168 2.746a.163.163 0 0 0 .182.035z" fill="url(#d)"/><path d="m9.922 8.893v.007a.176.176 0 0 0 .101.158l3.261 1.365c.151-.47.715-.894.716-1.414 0-.521-.529-.95-.708-1.416l-3.274 1.146a.175.175 0 0 0 -.096.154z" fill="url(#e)"/><path d="m9.887 8.39h.001l3.38-.867c-.152-.501.05-1.199-.242-1.613-.282-.4-.94-.414-1.35-.68l-1.938 2.9a.18.18 0 0 0 -.005.157.17.17 0 0 0 .154.103z" fill="url(#f)"/><path d="m9.267 7.97a.175.175 0 0 1 -.101-.14l-.133-3.522c.496-.018 1.046-.424 1.49-.275.477.16.698.855 1.094 1.156l-2.167 2.746a.163.163 0 0 1 -.183.035z" fill="url(#g)"/></svg>