<svg height="18" width="18" xmlns="http://www.w3.org/2000/svg"><path d="m0 0h18v18h-18z" fill="#0089c4"/><path d="m8 13.007h4v-10.007z" fill="#fff"/><path d="m9.965 10.655c-.239-.436-.304-.826-.19-1.171.154-.411.526-.49.873-.49.507.02.685.347.705.88v.122h-.669v-.166c0-.214-.34-.237-.34.045 0 .477.675 1.344.675 1.344l-.02-.554h.688v2.17c0 .131-.055.172-.192.172h-1.028c-1.225.028-1.436-1.573-.502-2.35zm1.053 1.68c-.472 0-1.107.025-.96-.79a.64.64 0 0 1 .156-.327z" fill="#fdb813" fill-rule="evenodd"/><g fill="#fff"><path d="m6 9.088c0-.725.361-1.154 1.358-1.153.687 0 1.153.323 1.153.964v.6h-.939v-.388c0-.142-.054-.305-.287-.305-.198 0-.285.126-.285.305v2.786c0 .18.097.292.285.292s.287-.085.287-.301v-.888h-.312v-1h1.252v1.888l-.376 1.119h-1.406c-.467 0-.731-.527-.731-1.12v-2.8z"/><path d="m4 11v2.007h-1v-5.007h1.014c.479 0 1.078.147 1.305.646.322.607.33 2.354-1.004 2.354zm0-2.06c.244-.047.543.04.608.332.066.292 0 .55 0 .55-.044.35-.326.37-.608.37v-1.253zm10 2.06h1v-1h-1v-1h1v-1h-2v5h2v-1h-1z" fill-rule="evenodd"/></g></svg>