<svg height="18" viewBox="0 0 18 18" width="18" xmlns="http://www.w3.org/2000/svg"><path d="m0 0h18v18h-18z" fill="#f0f3fa"/><path d="m10.43 10v.75h1.14v2.24h-1.6c.16-.08.32-.18.46-.3v-1.38h-1.43v.69h.86v.38c-.22.14-.46.22-.71.22-.62 0-1-.54-1-1.1 0-.6.43-.86.95-.86.33 0 .65.07.9.32l.4-.44c-.36-.36-.83-.5-1.3-.52-.86 0-1.53.56-1.53 1.5 0 .64.31 1.22.8 1.5h-2.8v-1h.93c.48 0 1.04-.3 1.06-.96.01-.7-.5-1.04-1.06-1.04h-1.5v-5h8v5zm-3.87 1.31h-.99v-.67h.98c.13-.01.25.03.34.1.07.07.11.15.11.24a.3.3 0 0 1 -.12.24c-.08.06-.2.1-.32.1zm6.44-.56h-.86v2.25h.86z" fill="#244c5a"/></svg>