<svg height="18" viewBox="0 0 18 18" width="18" xmlns="http://www.w3.org/2000/svg"><path d="m0 0h18v18h-18z" fill="#f0f3fa"/><path d="m9.2 7.87c1.1-1.62 2.83-3.78 4.66-3.87.03 0 .05 0 .08.03l.05.08c.03.1 0 .16-.08.2-.84.36-1.55.94-2.12 1.74-.62.85-1.24 1.83-1.88 2.94a.06.06 0 0 0 0 .07l1.76 2.92-.01.02h-1.3c-.03 0-.05 0-.06-.03l-1.05-1.84-.01-.01a.02.02 0 0 0 -.02 0h-.02c-1.2 1.96-3 3.7-5.03 3.88-.08 0-.13-.03-.16-.1a.13.13 0 0 1 .02-.13l.03-.02a6.93 6.93 0 0 0 2.98-2.58l1.43-2.13a.07.07 0 0 0 0-.08l-1.68-2.9c-.02-.05-.01-.06.01-.06h1.24c.02 0 .05.02.06.05l1.03 1.81c.02.03.04.04.06 0z" fill="#00a18f"/></svg>