<svg height="18" viewBox="0 0 18 18" width="18" xmlns="http://www.w3.org/2000/svg" xmlns:xlink="http://www.w3.org/1999/xlink"><linearGradient id="a" gradientUnits="userSpaceOnUse" x1="3.79" x2="15" y1="7.03" y2="6.88"><stop offset=".03" stop-color="#639c6a"/><stop offset=".27" stop-color="#69b14e"/><stop offset="1" stop-color="#e3e065"/></linearGradient><path d="m0 0h18v18h-18z" fill="#f0f3fa"/><path d="m6.67 6h3.5a2.5 2.5 0 0 1 0 5h-2.17v3h-1.33zm1.33 1.35h2.2a1.13 1.13 0 0 1 0 2.26h-2.2z" fill="#072a48" fill-rule="evenodd"/><path d="m9.5 4a7.18 7.18 0 0 0 -6 3c.88-.77 2.92-2 6-2 2.74 0 4.86 1.21 5.5 2a6.81 6.81 0 0 0 -5.5-3z" fill="url(#a)"/></svg>