<svg height="18" width="18" xmlns="http://www.w3.org/2000/svg"><path d="m0 0h18v18h-18z" fill="#ea5504"/><g fill="#fff"><path d="m8.001 11.3a.3.3 0 0 1 .3-.3h1.404a.3.3 0 0 1 .3.3v1.4a.3.3 0 0 1 -.3.3h-1.403a.3.3 0 0 1 -.3-.3v-1.4z"/><path d="m13.919 12.167-3.69-7.767-.004-.007c-.105-.215-.305-.393-.578-.393h-1.187c-.27 0-.467.18-.575.387l-3.805 7.785c-.08.17-.124.387-.02.578.106.194.301.25.46.25h1.187a.56.56 0 0 0 .342-.095.734.734 0 0 0 .216-.286l2.786-5.856 2.682 5.844.003.007a.73.73 0 0 0 .218.287c.113.081.235.099.34.099h1.184c.159 0 .356-.06.461-.256.103-.191.058-.408-.021-.577z"/></g></svg>