<svg height="18" viewBox="0 0 18 18" width="18" xmlns="http://www.w3.org/2000/svg"><path d="m0 0h18v18h-18z" fill="#f0f3fa"/><g fill="#2b2a29"><path d="m10.63 3.01c.08.04.15.17.1.25-.5 1.4-1.2 5.27 1.22 8.91.06.08.08.12 0 .17a.16.16 0 0 1 -.23-.03c-2.8-3.87-2.07-7.7-1.33-9.18.04-.08.16-.16.24-.12z"/><path d="m9.9 3.8c.08.03.12.13.09.21-.35.85-.77 2.2-.7 4.02.1 1.8.58 4.1 2.3 6.8.04.08.01.13 0 .15-.08.05-.15 0-.2-.07-1.74-2.75-2.33-5-2.42-6.87a9.64 9.64 0 0 1 .71-4.15.16.16 0 0 1 .22-.1z"/><path d="m9.22 4.9c-.73 1.62-1.55 5.82.46 9.45.1.18-.07.22-.16.06a10.97 10.97 0 0 1 -.63-9.58c.1-.2.43-.17.33.06z"/><path d="m8.45 5.68c-.5 1.16-1.4 4.33-.8 6.98.02.12-.16.12-.18 0-.63-2.8.17-5.85.69-7.04.1-.22.38-.16.29.06z"/><path d="m7.7 6.48c-.37.74-1.16 3.07-1.2 5.61 0 .14-.16.14-.16 0 .01-2.67.71-4.88 1.1-5.66.09-.17.36-.14.26.05zm-.77.79a16.94 16.94 0 0 0 -1.24 4.22c-.01.17-.19.2-.16 0 .16-1.51.63-2.86 1.18-4.26.08-.2.31-.2.22.04zm-.75.81c-.12.3-.33.88-.54 1.38-.21.65-.34.87-.46 1.4-.05.2-.2.21-.18 0 .14-.81.49-1.45.97-2.83.08-.21.28-.14.2.05z"/></g></svg>