<svg height="18" width="18" xmlns="http://www.w3.org/2000/svg" xmlns:xlink="http://www.w3.org/1999/xlink"><linearGradient id="a" gradientUnits="userSpaceOnUse" x1="9" x2="9.048" y1="7.7" y2="2.048"><stop offset="0" stop-color="#fff"/><stop offset="1" stop-color="#fff" stop-opacity="0"/></linearGradient><path d="m0 0h18v18h-18z" fill="#006f7a"/><path d="m9.017 4.003-1.847 1.878 1.848 1.877 1.849-1.877-1.849-1.878zm-3.935 4.01 1.848-1.876 1.848 1.878-1.848 1.875-1.848-1.876zm6.023-1.877-1.848 1.878 1.848 1.877 1.848-1.877zm-6.257 2.086-1.848 1.878 1.848 1.877 1.848-1.877zm4.17 0-1.85 1.878 1.848 1.877 1.849-1.877-1.849-1.878zm2.286 1.878 1.848-1.878 1.848 1.878-1.848 1.877z" fill="url(#a)"/></svg>