<svg height="18" viewBox="0 0 18 18" width="18" xmlns="http://www.w3.org/2000/svg"><path d="m0 0h18v18h-18z" fill="#4a4f55"/><path d="m10 4h-2v10h2z" fill="#00a0e3"/><path d="m11.78 7.64c0 .71.7.85 1.33 1 .44.1.92.21 1.3.46.44.29.59.7.59 1.18 0 1.25-1.09 1.72-2.36 1.72-.45 0-1.25-.1-1.64-.33v-.64a4.5 4.5 0 0 0 1.64.35c.8 0 1.58-.22 1.58-1.09 0-.92-1.3-.98-2.03-1.19-.74-.21-1.18-.68-1.18-1.41-.01-1.12.89-1.69 2.09-1.69.58 0 1.13.1 1.67.32v.65a5.5 5.5 0 0 0 -.78-.24c-.9-.21-2.2-.17-2.2.9zm-8.78 4.36v-6h2.19c1.07 0 1.81.68 1.81 1.88 0 1.48-.73 1.87-1.81 1.87h-1.19v2.25zm1-3.3h1.19c.55 0 .8-.46.8-.82 0-.37-.24-.81-.8-.81h-1.19z" fill="#fefefe"/></svg>