<svg height="18" viewBox="0 0 18 18" width="18" xmlns="http://www.w3.org/2000/svg" xmlns:xlink="http://www.w3.org/1999/xlink"><linearGradient id="a" gradientUnits="userSpaceOnUse" x1="3.35" x2="21.9" y1="3.12" y2="24.43"><stop offset="0" stop-color="#1a1e21"/><stop offset="1" stop-color="#06060a"/></linearGradient><path d="m0 0h18v18h-18z" fill="url(#a)"/><path d="m7.96 4-3.09.8-.85 3.08 1.06 1.09-1.08 1.06.8 3.1 3.08.85 1.09-1.06 1.06 1.08 3.1-.8.85-3.08-1.06-1.09 1.08-1.06-.8-3.1-3.08-.85-1.09 1.06zm-1.9 1.4 1.64-.43.7.73-1.03 1.02-1.3-1.32zm3.58.3.73-.7 1.62.44-1.32 1.3-1.03-1.03zm-4.64 1.94.45-1.62 1.3 1.32-1.03 1.03zm6.29-.26 1.32-1.3.43 1.63-.73.7zm-3.3-.03 1.04-1.02 1.02 1.04-1.05 1.01-1.02-1.04zm-1.67 1.63 1.04-1.02 1.02 1.04-1.04 1.02zm3.3.02 1.04-1.02 1.02 1.04-1.04 1.02zm-4.65 1.3.73-.7 1.02 1.03-1.32 1.3zm2.99.34 1.03-1.02 1.03 1.04-1.04 1.02zm3.3.03 1.03-1.03.72.73-.45 1.62zm-5.26 1.89 1.32-1.3 1.03 1.03-.73.72zm3.58-.26 1.04-1.02 1.3 1.32-1.63.43-.7-.73z" fill="#fff"/></svg>