<svg height="18" width="18" xmlns="http://www.w3.org/2000/svg"><path d="m0 0h18v18h-18z" fill="#aa74b9"/><path d="m14.894 10.19.106-1.012-1.301-.361a4.803 4.803 0 0 0 -.06-.596s-.053-.32-.105-.522a3.065 3.065 0 0 0 -.155-.476 4.659 4.659 0 0 0 -.168-.338 4.827 4.827 0 0 0 -.297-.52l.786-.965-.677-.756-1.04.675a4.787 4.787 0 0 0 -.48-.353s-.181-.112-.301-.177c-.277-.148-.448-.2-.742-.311-.09-.035-.232-.085-.232-.085a4.697 4.697 0 0 0 -.582-.127l-.196-1.262h-1.012l-.19 1.259c-.198.029-.393.07-.583.123 0 0-.277.077-.448.144-.267.104-.508.247-.657.328l-.172.096c-.168.107-.33.224-.483.35l-1.056-.66-.677.756.797.945c-.11.166-.21.34-.3.519 0 0-.114.18-.173.302a2.286 2.286 0 0 0 -.183.53c-.047.192-.077.502-.077.502a4.8 4.8 0 0 0 -.064.596l-1.172.384.106 1.012h1.207c.049.195.11.385.183.57 0 0 .122.307.218.495a3.222 3.222 0 0 0 .478.722c.123.157.255.306.397.447l-.62 1.074.818.598.928-.844c.176.092.357.175.545.246 0 0 .24.111.401.159.209.06.372.065.588.093l.212 1.246h1.012l.172-1.246s-.055.032.18 0c.188-.027.428-.075.477-.094.117-.045.31-.114.31-.114.187-.07.344-.187.519-.28l.907.834.818-.598-.594-1.058a4.76 4.76 0 0 0 .4-.444s.162-.178.252-.303c.138-.192.198-.313.297-.528.068-.146.153-.383.153-.383.073-.184.136-.374.187-.57z"/></svg>