<svg height="18" viewBox="0 0 18 18" width="18" xmlns="http://www.w3.org/2000/svg"><path d="m0 0h18v18h-18z" fill="#f0f3fa"/><path d="m5.65 5h.5a3.83 3.83 0 0 1 3.55 2.76 2.8 2.8 0 0 1 5.3 1.24 2.8 2.8 0 0 1 -5.3 1.23c-.64 1.74-1.92 2.67-3.87 2.77h-.4c-.5-.03-1.75-.29-1.94-.76v-.09c.12-.24.5-.21.8-.2l.28.02c2.7-.16 3.9-3.54 1.8-5.24a3.32 3.32 0 0 0 -2.49-.73c-.24.02-.35-.27-.2-.45.24-.31 1.57-.52 1.97-.55zm3.17 2.42a3.04 3.04 0 0 0 -2.7-1.72c-.07 0-.07.02-.02.05.91.53 1.5 1.03 1.85 2.03.62 1.73-.2 3.52-1.78 4.46a.03.03 0 0 0 -.02.04.03.03 0 0 0 .04.01c.72-.14 1.35-.3 1.9-.8.49-.46.9-1.13 1-1.8.1-.73.07-1.6-.27-2.27zm3.38 3.73c1.2 0 2.18-.96 2.18-2.15s-.98-2.15-2.18-2.15-2.17.96-2.17 2.15.97 2.15 2.17 2.15zm1.25-2.15c0 .68-.56 1.23-1.25 1.23-.68 0-1.24-.55-1.24-1.23s.56-1.23 1.24-1.23c.69 0 1.25.55 1.25 1.23z" fill="#1e2b81"/></svg>