<svg height="18" viewBox="0 0 18 18" width="18" xmlns="http://www.w3.org/2000/svg"><path d="m0 0h18v18h-18z" fill="#154678"/><path d="m11.69 7.01c-.74.06-1.5.32-2.33.81l-.66.41c-.85.53-1.1.68-1.45.87-.57.31-1.1.52-1.62.63-.26.06-.91.06-1.13 0a2.82 2.82 0 0 1 -.65-.26 5.2 5.2 0 0 1 -1.53-1.51 7 7 0 0 0 -.32-.4c0 .02.15.33.31.62.76 1.4 1.61 2.3 2.5 2.66.36.14.4.15.99.16.5 0 .56 0 .76-.04.61-.13 1.09-.33 2.82-1.2l1.06-.54 1.52-.74a2.79 2.79 0 0 1 1.8-.18c.47.13.75.31 1.5 1.02.25.24.3.3.34.38l.1.15c.07.08.3.24.3.2 0-.03-.13-.32-.2-.4a2.32 2.32 0 0 1 -.31-.41c-1.02-1.62-2.27-2.35-3.79-2.24z" fill="#8dc5e7"/></svg>