<svg height="18" viewBox="0 0 18 18" width="18" xmlns="http://www.w3.org/2000/svg"><path d="m0 0h18v18h-18z" fill="#ff8300"/><path d="m12.53 4.34-3.53-1.84-3.46 1.84.3.68-1.84.96 1.3 6.16 3.7 3.36 3.83-3.36 1.17-6.16-1.79-.96zm-5.7.44 2.17-1.15 2.22 1.16-.3.69 2.02 1.04-1.02 5.09-2.92 2.53-2.8-2.53-1.08-5.09 2.02-1.04zm3.47 2.79c0-.53-.36-.87-1.3-.87v2.3c1.03-.5 1.3-.9 1.3-1.43zm1.2 0c0 1.48-1.23 2.26-2.5 2.68v2.44l-1.02-.72-.12-1.4-.99.23-.37-.97 1.27-.33-.32-3.63c.08-.01.15-.04.23-.06.27-.08.59-.18 1.16-.18 1.24 0 2.66.46 2.66 1.94z" fill="#fff"/></svg>