<svg height="18" width="18" xmlns="http://www.w3.org/2000/svg"><path d="m0 0h18v18h-18z" fill="#f0f3fa"/><path d="m5 4h5a4 4 0 0 1 0 8h-5z" fill="#e3bf9d"/><path d="m5 11.33h4.5v2.67h-4.5z" fill="#e3bf9d"/><path d="m14 8.06c0-1.46-.65-2.28-.81-2.47-1.21 1.6-1.47 4.16-1.38 5.38-.84-1.2-1.65-2.52-2.96-4.04a12.85 12.85 0 0 0 -3.85-2.93 7.54 7.54 0 0 0 5.69 7.05c-2.64.04-4.18 1.37-4.36 2.95h3.67v-2h.53c2.48-.2 3.47-2.16 3.47-3.94z" fill="#221616"/><circle cx="8.75" cy="12.66" fill="#f0f3fa" r=".47"/></svg>