<svg height="18" viewBox="0 0 18 18" width="18" xmlns="http://www.w3.org/2000/svg" xmlns:xlink="http://www.w3.org/1999/xlink"><linearGradient id="a"><stop offset=".08" stop-color="#244ea0"/><stop offset=".85" stop-color="#84c5ec"/></linearGradient><linearGradient id="b" gradientUnits="userSpaceOnUse" x1="9.17" x2="9.17" xlink:href="#a" y1="3.37" y2="8.05"/><linearGradient id="c" gradientUnits="userSpaceOnUse" x1="8.81" x2="8.81" xlink:href="#a" y1="14.62" y2="9.95"/><linearGradient id="d" gradientUnits="userSpaceOnUse" x1="5.92" x2="5.92" xlink:href="#a" y1="15.31" y2="7.69"/><linearGradient id="e" gradientUnits="userSpaceOnUse" x1="12.05" x2="12.05" xlink:href="#a" y1="2.85" y2="10.38"/><path d="m0 0h18v18h-18z" fill="#f0f3fa"/><path d="m8.01 7.19c.05 0 .1.02.15.05 0 0 1.32.78 1.32.8.27-.2.48-.39.63-.6l-1.42-.86c-.17-.1-.22-.3-.1-.45a.32.32 0 0 1 .34-.13c.05 0 .1.02.14.05l1.35.8c.1-.36.07-.73 0-1.1a3.26 3.26 0 0 0 -1.2-1.9 3.62 3.62 0 0 0 -1.26 3.35c0-.02.03-.02.05-.02z" fill="url(#b)"/><path d="m9.96 10.81c-.04 0-.1-.02-.14-.05 0 0-1.34-.78-1.34-.8-.27.2-.49.39-.63.6l1.43.86c.17.1.22.3.1.45a.33.33 0 0 1 -.34.14.34.34 0 0 1 -.15-.05l-1.36-.8c-.1.36-.07.73 0 1.1.15.73.59 1.4 1.2 1.9a3.6 3.6 0 0 0 1.3-2.78c0-.2 0-.54-.07-.57z" fill="url(#c)"/><path d="m12.47 10.03c-.24.07-.5.12-.8.15 0 .1.03.2.03.29 0 .42-.05.83-.15 1.22-.19.81-.62 1.62-1.32 2.18-.02.03-.05.03-.07.05-.22.12-.48.03-.6-.2-.13-.21-.03-.48.19-.6a3.35 3.35 0 0 0 1.4-1.6c.14-.34.26-.7.33-1.1.03-.1.03-.17.03-.27h-.1c-.65 0-1.23-.17-1.76-.49.05.1.1.2.12.3l.39.22c.17.1.21.29.1.44-.05.1-.15.14-.27.14.02.2.05.4.05.6 0 1.12-.5 2.12-1.3 2.78h.21a3.58 3.58 0 0 0 3.52-4.11zm-6.99-2.06c.24-.07.5-.12.8-.15 0-.1-.03-.2-.03-.29 0-.42.05-.83.15-1.22.19-.81.62-1.62 1.32-2.18l.08-.05c.21-.12.48-.03.6.2.12.21.02.48-.2.6-.57.32-1.08.89-1.4 1.6-.14.34-.26.7-.33 1.1-.02.1-.02.17-.02.27h.1c.64 0 1.22.17 1.75.49-.05-.1-.1-.2-.12-.3l-.38-.22c-.17-.1-.22-.29-.1-.44.05-.1.16-.13.28-.13-.02-.2-.05-.4-.05-.59 0-1.13.5-2.14 1.29-2.8h-.22a3.5 3.5 0 0 0 -3.57 3.54c0 .2.03.37.05.56z" fill="#244ea0"/><path d="m6.57 11.7c-.08-.7.12-1.35.53-1.92.5-.63 1.37-1.15 1.73-1.37l-.67-.39.12.3c-.5-.3-1.11-.5-1.76-.5h-.1c-.02.3-.02.62.03.91a2.9 2.9 0 0 1 -.2-.9 3.58 3.58 0 0 0 -3.25 3.57c0 1.98 1.59 3.6 3.54 3.6.85 0 1.6-.3 2.2-.78-.37-.13-.54-.2-.82-.4a2.86 2.86 0 0 1 -1.35-2.13z" fill="url(#d)"/><path d="m11.43 3c-.84 0-1.59.3-2.19.78.36.13.53.22.84.4a2.82 2.82 0 0 1 1.35 2.13c.08.68-.12 1.34-.53 1.9-.5.64-1.37 1.16-1.73 1.38l.65.39-.12-.3c.5.3 1.1.5 1.76.5h.1c.02-.3.02-.62-.03-.91.12.3.17.59.2.9a3.58 3.58 0 0 0 3.27-3.57 3.63 3.63 0 0 0 -3.57-3.6z" fill="url(#e)"/></svg>