<svg height="18" width="18" xmlns="http://www.w3.org/2000/svg"><path d="m0 0h18v18h-18z" fill="#f0f3fa"/><path d="m14 9a5 5 0 0 1 -7.27 4.45.94.94 0 0 1 -.11-.62 3.6 3.6 0 0 1 1.96-2.03c1.18-.56 1.38-1.11 1.36-1.46v-.53c.2-.07.16-.3.16-.3h-1.52a1.55 1.55 0 0 0 -.66-.4 1.1 1.1 0 0 0 -.97.19c-.08-.2-.42-.53-.86-.42-.5.13-.62.64-.62.87l-1.44.6v.22a5 5 0 1 1 9.97-.57zm-3.75-.63h-1.41l.39-.64-1.05-.94 1.24-.08-.2-1.1 1.1.49.44-1.1.44 1 1-.39-.24 1.18 1.18.23-1.1.6.62.83-.96-.08v1.13l-.73-.78-.72.62z" fill="#3b88d8" fill-rule="evenodd"/></svg>