<svg height="18" viewBox="0 0 18 18" width="18" xmlns="http://www.w3.org/2000/svg"><path d="m0 0h18v18h-18z" fill="#f0f3fa"/><g fill-rule="evenodd"><path d="m9 14a5 5 0 1 0 0-10 5 5 0 0 0 0 10zm0-2.35a2.65 2.65 0 1 0 0-5.3 2.65 2.65 0 0 0 0 5.3z" fill="#000004"/><path d="m9 13.23a4.23 4.23 0 1 0 0-8.46 4.23 4.23 0 0 0 0 8.46zm0-1.58a2.65 2.65 0 1 0 0-5.3 2.65 2.65 0 0 0 0 5.3z" fill="#00434c"/><path d="m9 12.7a3.7 3.7 0 1 0 0-7.4 3.7 3.7 0 0 0 0 7.4zm0-1.05a2.65 2.65 0 1 0 0-5.3 2.65 2.65 0 0 0 0 5.3z" fill="#017792"/><path d="m9 12.1a3.12 3.12 0 1 0 0-6.23 3.12 3.12 0 0 0 0 6.23zm0-.45a2.65 2.65 0 1 0 0-5.3 2.65 2.65 0 0 0 0 5.3z" fill="#01afee"/></g></svg>