<svg height="18" viewBox="0 0 18 18" width="18" xmlns="http://www.w3.org/2000/svg"><path d="m0 0h18v18h-18z" fill="#f0f3fa"/><path d="m4.1 13.58c.22-.01.68-.16.85-.62a1880 1880 0 0 1 4-9.96l4.1 9.96c.13.21.47.62.84.62h.11v.42h-2.63v-.42h.16c.05-.03.15-.12.15-.2 0-.09-2.07-5.09-3.1-7.58l-3 7.47c-.03.09-.05.24-.02.31h.33v.42h-1.89v-.42z" fill="#5f6062"/><path d="m12.45 7.64-.61-1.18c-4.68 1.41-6.4 3.72-7.5 5.2l-.02.02c2.04-2.43 6.27-3.7 8.13-4.04z" fill="#98012e"/><path d="m12.03 6 .97 1.92-.5.1c-.92.16-2.52.71-4.06 1.38a10.12 10.12 0 0 0 -3.9 2.6l-.54-.5.02-.03c.56-.75 1.15-1.6 2.35-2.58s2.98-2.08 5.39-2.8zm-7.73 5.71-.02.03.02-.03a14.49 14.49 0 0 1 7.55-5.26l.6 1.18c-2.85.51-6.12 1.67-8.15 4.08z" fill="#fff" fill-rule="evenodd"/></svg>