<svg height="18" viewBox="0 0 18 18" width="18" xmlns="http://www.w3.org/2000/svg"><path d="m0 0h18v18h-18z" fill="#f0f3fa"/><path d="m4 6v6h1v-2.24c.94.07 3.08-.24 3-2.06 0-.57-.38-1.7-1.82-1.7zm2.14 1h-1.14v1.72h1.14a.86.86 0 0 0 0-1.72z" fill="#98022e" fill-rule="evenodd"/><path d="m13.56 6.26.44.71-.09.22c-.2-.33-.86-.87-1.96-.82-1.37.07-2.4 1.1-2.4 2.67 0 1.54 1.08 2.57 2.4 2.57 1.06 0 1.7-.43 1.9-.7l.15.09-.44.71c-.25.1-.92.3-1.6.29-.87-.02-3.22-.06-3.22-2.96s2.16-3.04 3.06-3.04c.72 0 1.47.17 1.75.26z" fill="#5f6062"/></svg>