<svg height="18" width="18" xmlns="http://www.w3.org/2000/svg"><path d="m0 0h18v18h-18z" fill="#f0f3fa"/><path d="m15 5h-10.627l-.473 2.391c.294-.043.588-.053.903-.032 1.815.128 2.822 1.708 4.763 1.526 1.741-.192 3.084-1.334 4.868-1.334m-.334 3.058c-.988.329-1.934.797-3.038.907-1.934.18-2.954-1.286-4.761-1.405-1.052-.07-1.935.219-2.796.657l-.505 2.232h10.5"/><path d="m14.4 8.272c-1.506.216-2.75 1.276-4.298 1.47-1.924.217-2.896-1.59-4.694-1.73a3.882 3.882 0 0 0 -1.516.184l-.293 1.557c.878-.551 1.798-.724 2.781-.476 1.966.487 2.792 1.612 4.726 1.396 1.108-.14 2.06-.714 3.053-1.125" fill="#00539b"/></svg>