<svg height="18" viewBox="0 0 18 18" width="18" xmlns="http://www.w3.org/2000/svg"><path d="m0 0h18v18h-18z" fill="#f0f3fa"/><path d="m10.8 4c2.4.1 3.7 1.47 4.2 2.16-.5 0-1.27.27-1.31.27a4.47 4.47 0 0 0 -3.89-1.69c-1.36 0-2.85 1.06-3.47 1.69 1.61-2 3.47-2.43 4.47-2.43z" fill="#177ec9"/><path d="m7.41 4c-2.4.1-3.9 1.66-4.41 2.43h1.53c1.32-1.44 2.32-1.64 3.87-1.64 1.36 0 2.84 1 3.47 1.64-1.59-2-3.47-2.43-4.47-2.43z" fill="#a0d2ea"/><path d="m7.54 7h-.54v7h.54v-2.18a2.72 2.72 0 1 0 0-4.2zm0 1.43v2.59a2.16 2.16 0 1 0 0-2.6z" fill="#898788" fill-rule="evenodd"/></svg>