<svg height="18" viewBox="0 0 18 18" width="18" xmlns="http://www.w3.org/2000/svg"><path d="m0 0h18v18h-18z" fill="#f0f3fa"/><path d="m14 9.33-.13-.33c-.26.38-.8.8-1.52.8-.7 0-1.16-.42-1.35-.57.1.23.71.77 1.55.77.67 0 1.25-.44 1.45-.67z" fill="#75abc4"/><path d="m14 10.57-.07.53c-.64.37-1.37.42-1.64.4-2.19-.23-2.29-1.7-2.29-2 .1.7 1.18 1.5 2.35 1.5.94 0 1.5-.26 1.65-.43z" fill="#339ab9"/><path d="m9 10.38c0-.56.34-1.15.5-1.38-.23.46-.19.83-.19 1.08.31 2.16 2.59 2.54 3.69 2.46l-.54.46c-2.8-.12-3.46-1.9-3.46-2.62z" fill="#188cb5"/><path d="m7.5 10.64c0-2.15 1.71-3.32 2.57-3.64-1.77 1.26-1.9 2.68-1.9 3.3 0 1.84 1.57 3.1 2.33 3.5l-1.01.2a4.23 4.23 0 0 1 -1.99-3.36z" fill="#4b8bae"/><path d="m10.86 5a7.2 7.2 0 0 1 4.14 1.38 7.16 7.16 0 0 0 -5.28-2.38c-4.46 0-6.34 3.68-6.72 5.52.18.32.62 1.06.89 1.48.73-4.58 4.57-6 6.97-6z" fill="#11567d"/><path d="m5.46 11.04c.35-4.27 4.15-5.14 6-5.03-4.17.69-5 3.7-5 5.11a6 6 0 0 0 1.01 2.88 10.2 10.2 0 0 1 -1.35-.41c-.62-.73-.66-2.28-.66-2.55z" fill="#0a6e90"/></svg>