<svg height="18" width="18" xmlns="http://www.w3.org/2000/svg"><path d="m0 0h18v18h-18z" fill="#0272a6"/><path d="m9.004 9.794c-.58 0-1.004-.295-1.004-.295v-3.06c0-.283.358-.478.622-.514.284-.039 1.588-.252 1.588 1.633 0 2.012-.88 2.236-1.206 2.236zm-4.429-.21c-.385 0-.575-.182-.575-.182v-2.054c0-.175.147-.295.322-.317.188-.023 1.2-.172 1.2 1.203 0 1.288-.68 1.35-.947 1.35zm8.93-2.3c.53-.17 1.068.006 1.495.392v-1.238c-1.381-.238-2.105-.076-2.657.297-.448.311-.639.736-.639.736l-.026.063c-.072-2.784-1.874-2.526-3.938-2.526h-1.305v2.367c-.35-1.118-1.309-.998-2.464-.998h-.971v5.623h1.431c-.265-.1-.431-.616-.431-.98v-1.215l.49.5c.202.053.38.047.38.047.439-.026 1.268-.211 1.565-1.18v3.826h1.875c-.265-.1-.31-.3-.31-.662v-2.353l.767.777c.231.09.402.106.597.096.553-.038 1.498-.291 1.993-1.377.04 1.02.348 1.99 1.3 2.392.419.187.895.239 1.39.197.324-.01.638-.041.953-.103v-2.957h-1.41c.266.1.412.329.412.692v1.443c-.33.112-.829.002-1.078-.349-.315-.443-.372-1.634-.238-2.484.076-.425.41-.894.819-1.026z" fill="#fff"/></svg>