<svg height="18" viewBox="0 0 18 18" width="18" xmlns="http://www.w3.org/2000/svg"><path d="m0 0h18v18h-18z" fill="#f0f3fa"/><path d="m3 11.9.3-.04v-3.65l-.3-.06v-.15h1v.57c.18-.36.37-.57.78-.57.75 0 1.22.59 1.22 1.33 0 .75-.47 1.13-1.22 1.13-.4 0-.6-.2-.78-.56v1.95l.39.05v.1h-1.39zm1.73-1.56c.48 0 .7-.34.7-.8v-.62c0-.46-.22-.8-.7-.8-.49 0-.72.46-.73.93v.33c0 .48.22.96.73.96zm1.31 1.56.3-.04v-3.65l-.3-.06v-.15h.96v.57c.18-.36.4-.57.82-.57.75 0 1.18.59 1.18 1.33 0 .75-.43 1.13-1.18 1.13-.4 0-.64-.2-.82-.56v1.95l.42.05v.1h-1.38zm1.72-1.56c.49 0 .7-.34.7-.8v-.62c0-.46-.21-.8-.7-.8-.48 0-.75.46-.76.93v.33c0 .48.26.96.76.96zm1.42-.44.22-.04v-3.7l-.22-.06v-.1h.82v2.12c.23-.33.53-.58 1.06-.58s.94.25.94.72v1.6l.22.04v.1h-1.22v-.1l.4-.04v-1.59c0-.35-.12-.55-.5-.55-.36 0-.7.3-.9.58v1.55l.4.05v.1h-1.22zm4.72.1c-.74 0-1.43-.49-1.43-1.25 0-.75.54-1.25 1.27-1.25.63 0 1.25.39 1.26 1.02h-1.88v.46c0 .5.24.92.77.92.42 0 .87-.22.97-.65h.12c-.11.5-.6.75-1.09.75zm.47-1.56c0-.55-.24-.84-.64-.84-.47 0-.58.4-.61.84z" fill="#717075"/></svg>