<svg height="18" width="18" xmlns="http://www.w3.org/2000/svg"><path d="m0 0h18v18h-18z" fill="#2d4491"/><path d="m4 8h-1.003v4h1.003v-1.208c.086.08.272.302.691.302.607 0 1.101-.487 1.101-1.436 0-.487-.028-1.014-.32-1.387-.182-.233-.437-.334-.786-.334a.749.749 0 0 0 -.686.44zm.911 1.407c.006.138 0 .675-.134.871-.038.048-.134.18-.35.18-.37 0-.466-.489-.466-.875 0-.382.096-.984.467-.984.456 0 .478.65.483.808zm2.089-1.407h-1v4h1v-1.208c.086.08.259.302.678.302.606 0 1.1-.487 1.1-1.436 0-.488-.027-1.014-.32-1.387-.182-.233-.437-.334-.786-.334-.435 0-.613.318-.672.44zm.898 1.407c.005.138 0 .675-.135.871-.037.048-.134.18-.349.18-.37 0-.467-.489-.467-.875 0-.382.097-.984.467-.984.457 0 .478.65.484.808zm1.102 1.593v-3.82l1-.508v4.328z" fill="#fff"/><path d="m12.878 12.124-.438-.374c.11-.097.214-.2.311-.31l.374.437a4.093 4.093 0 0 1 -.247.247zm.653.558-.455-.39c.075-.07.148-.143.218-.218l.39.455c-.05.052-.1.103-.152.153zm.607.518-.344-.293c.04-.038.078-.076.115-.115l.294.343a6.71 6.71 0 0 1 -.065.065zm-1.281-2.239-.498-.237.279-.483.455.312c-.07.142-.148.278-.236.408zm.711.34-.52-.248c.082-.122.155-.248.22-.38l.475.325a4.194 4.194 0 0 1 -.175.303zm.777.37-.542-.258a4.43 4.43 0 0 0 .155-.268l.495.34c-.035.063-.071.125-.108.186zm.72.344-.408-.195c.028-.046.055-.093.081-.14l.373.255c-.016.027-.03.054-.047.08zm-1.818-1.831-.544-.101.145-.539.52.184c-.03.156-.07.308-.121.456zm.775.144-.566-.106c.046-.137.084-.279.113-.424l.543.192a3.986 3.986 0 0 1 -.09.338zm.846.157-.59-.11c.03-.098.056-.197.08-.298l.566.2c-.018.07-.036.139-.056.208zm.784.146-.444-.083.042-.156.426.15zm-2.232-1.3-.55.043v-.557l.55.043a3.349 3.349 0 0 1 0 .471zm.786-.06-.574.044a3.545 3.545 0 0 0 0-.439l.574.045a4.215 4.215 0 0 1 0 .35zm.858-.067-.598.046a4.41 4.41 0 0 0 0-.309l.598.046a4.836 4.836 0 0 1 0 .217zm.795-.062-.45.035a4.387 4.387 0 0 0 0-.163l.45.035zm-2.49-.679-.521.184-.145-.539.544-.1c.05.147.091.3.121.455zm.743-.262-.543.191a3.502 3.502 0 0 0 -.113-.423l.566-.106c.035.11.065.223.09.338zm.812-.286-.566.2c-.024-.102-.05-.201-.08-.3l.59-.109c.02.07.038.139.056.209zm.752-.266-.426.15a5.627 5.627 0 0 0 -.042-.156l.444-.083.024.09zm-2.583-.01-.455.311-.28-.483.499-.237c.088.13.167.266.236.408zm.65-.446-.474.325a3.548 3.548 0 0 0 -.22-.38l.52-.248c.062.098.12.199.174.303zm.71-.486-.495.339a4.38 4.38 0 0 0 -.155-.268l.541-.258c.038.061.074.123.109.187zm.658-.451-.373.255a4.904 4.904 0 0 0 -.081-.14l.407-.195zm-2.498.657-.359.418-.394-.394.419-.358c.119.103.23.215.334.334zm.512-.599-.374.437c-.097-.11-.2-.213-.31-.31l.437-.374c.086.08.168.162.247.247zm.56-.652-.39.455a4.307 4.307 0 0 0 -.22-.219l.457-.389c.052.05.103.1.152.153zm.518-.606-.294.343a5.39 5.39 0 0 0 -.115-.115l.344-.293zm-2.242 1.28-.238.497-.483-.279.312-.455c.143.07.28.149.41.237zm.34-.711-.248.519a3.555 3.555 0 0 0 -.38-.22l.326-.474c.103.054.204.113.303.175zm.371-.775-.258.54a4.481 4.481 0 0 0 -.268-.154l.34-.494c.063.034.125.07.186.108zm.345-.72-.195.408a5.534 5.534 0 0 0 -.14-.081l.255-.372.08.046zm-1.834 1.816-.102.543-.539-.145.184-.52c.157.03.309.071.457.122zm.144-.774-.105.565a3.533 3.533 0 0 0 -.425-.113l.192-.542c.114.025.227.055.338.09zm.157-.845-.11.59a4.345 4.345 0 0 0 -.298-.08l.2-.565c.07.017.14.035.208.055zm.146-.783-.082.443a5.203 5.203 0 0 0 -.157-.041l.15-.426.09.024zm-3.722 3.035.419.358-.395.394-.359-.418c.104-.119.215-.23.335-.334zm-.6-.512.438.374c-.11.097-.214.2-.31.31l-.375-.437c.079-.085.161-.168.247-.247zm-.653-.558.456.39c-.076.07-.149.143-.22.218l-.39-.455c.05-.052.102-.103.154-.153zm-.607-.518.344.293a5.186 5.186 0 0 0 -.115.115l-.294-.343zm2.586 1.108.312.455-.483.279-.238-.497c.13-.088.266-.167.409-.237zm-.446-.649.325.474a3.552 3.552 0 0 0 -.38.22l-.248-.52c.098-.061.199-.12.303-.174zm-.488-.708.34.494c-.092.048-.181.1-.269.154l-.258-.54a5.18 5.18 0 0 1 .187-.108zm-.452-.657.256.372a5.364 5.364 0 0 0 -.14.08l-.195-.406.08-.046zm2.211 1.74.184.52-.54.144-.1-.543c.147-.05.3-.092.456-.121zm-.263-.743.192.542c-.145.03-.286.067-.424.113l-.106-.565c.111-.035.224-.065.338-.09zm-.286-.81.2.565c-.101.023-.201.05-.3.08l-.11-.59c.07-.02.14-.038.21-.055zm-.266-.752.15.426a5.15 5.15 0 0 0 -.156.041l-.083-.443zm1.684 2.253.043.55h-.558l.043-.55a3.395 3.395 0 0 1 .472 0zm-.06-.785.044.573a3.578 3.578 0 0 0 -.44 0l.045-.573a4.227 4.227 0 0 1 .35 0zm-.068-.858.047.598a4.514 4.514 0 0 0 -.31 0l.047-.598a4.873 4.873 0 0 1 .216 0zm-.062-.794.035.45a6.852 6.852 0 0 0 -.162 0l.035-.45zm2.14 8.275-.42-.358.395-.395.359.42c-.104.118-.215.23-.334.333z" fill="#31c9ff"/></svg>