<svg height="18" width="18" xmlns="http://www.w3.org/2000/svg"><path d="m0 0h18v18h-18z" fill="#f0f3fa"/><path d="m13.31 7.36a4.35 4.35 0 0 0 -2.72-2.83l-.29.89c1.29.35 2.02 1.67 2.23 2.28zm-4.06 4.95a3 3 0 0 1 -2.05-.74l-.8 1.25c.72.75 2.2 1.01 2.85 1.05z" fill="#1c769d"/><path d="m9.6 8.69-5.03-4.69-1.57 2.13z" fill="#24a83b"/><path d="m10.74 4.23c-1.65-.53-3-.03-3.47.28l.87 1.28c.83-.36 1.76-.2 2.13-.08zm-1.74 9.77c4.96-.34 5.45-4.97 4.72-6.89l-1.77.73c.67 3.28-1.71 4.16-2.95 4.2z" fill="#2956a2"/><path d="m7.62 11.25a2.82 2.82 0 0 1 -1.2-2.25h-2.42a5.06 5.06 0 0 0 2.24 4.38z" fill="#123674"/></svg>