<svg height="18" viewBox="0 0 18 18" width="18" xmlns="http://www.w3.org/2000/svg"><path d="m0 0h18v18h-18z" fill="#f0f3fa"/><g fill="#f5a91b"><path d="m10 2v6.27a1.46 1.46 0 0 0 -1.02-.42 1.3 1.3 0 0 0 -1.31 1.3c0 .7.61 1.27 1.35 1.26a1.3 1.3 0 0 0 1.31-1.27v-7.14zm-1.02 8.08a.98.98 0 0 1 -.98-.96c0-.52.47-.94 1.01-.93s.99.43.99.94c0 .52-.47.96-1.02.95"/><path d="m9.67 5.01a3.97 3.97 0 0 0 -4.67 3.89v6.1h.33v-6.1c.02-2 1.67-3.6 3.67-3.6.16 0 .5.03.67.05z"/><path d="m9.67 6a3.2 3.2 0 0 0 -3.64 2.57 2.9 2.9 0 0 0 -.03.41v6.02h.33v-6.02a2.66 2.66 0 0 1 2.67-2.7h.67v-.29z"/><path d="m11 2v7.2c.01 1.03-.91 1.85-2.01 1.86-1.1 0-1.98-.78-1.99-1.82a1.9 1.9 0 0 1 1.95-1.88h.01c.18 0 .54.05.7.09v-.36a4.6 4.6 0 0 0 -.7-.08c-1.28.02-2.31 1.01-2.3 2.22.03 1.2 1.09 2.17 2.38 2.15 1.27-.01 2.3-.99 2.3-2.18v-7.2z"/><path d="m11.75 6.23-.08-.07v.47c.63.65.99 1.53.99 2.45a3.66 3.66 0 0 1 -5.86 2.86l-.06-.04a1.66 1.66 0 0 1 -.1-.07l-.09-.07v.42l.03.02a4.03 4.03 0 0 0 6.42-3.12c0-1.08-.45-2.12-1.25-2.85z"/></g></svg>