<svg height="18" viewBox="0 0 18 18" width="18" xmlns="http://www.w3.org/2000/svg" xmlns:xlink="http://www.w3.org/1999/xlink"><linearGradient id="a" gradientUnits="userSpaceOnUse" x1="7.17" x2="9.97" y1="10.4" y2="12.49"><stop offset="0" stop-color="#e58433"/><stop offset="1" stop-color="#dc4f33"/></linearGradient><linearGradient id="b" gradientUnits="userSpaceOnUse" x1="5.28" x2="11.29" y1="9.13" y2="7.9"><stop offset="0" stop-color="#e8eb5c"/><stop offset="1" stop-color="#e58b33"/></linearGradient><linearGradient id="c" gradientUnits="userSpaceOnUse" x1="9" x2="9" y1="3" y2="15"><stop offset=".61" stop-color="#6d231d"/><stop offset="1" stop-color="#840f29"/></linearGradient><linearGradient id="d" gradientUnits="userSpaceOnUse" x1="3.45" x2="9.93" y1="9.36" y2="8.37"><stop offset="0" stop-color="#c60025"/><stop offset="1" stop-color="#6d231d"/></linearGradient><path d="m0 0h18v18h-18z" fill="#f0f3fa"/><path d="m10.75 4.84-6.57 4.11 4.7 5.15 5.34-5.24z" fill="url(#a)"/><path d="m13.88 8.45-3.13-3.61-6.57 4.11 1.52 1.66a13.67 13.67 0 0 1 8.18-2.16z" fill="url(#b)"/><path d="m9 3-6 6 6 6 6-6-4.25-4.25-4.31 4.17 4.2-2.84-2.66 2.84 3.35-2.2 2.3 2.2-4.63 4.7-4.6-4.7 5.21-5.3zm.9.9-1.27 1.3 2-.58z" fill="url(#c)"/><path d="m14.53 8.53-3.78-3.78-4.31 4.17 4.2-2.84-2.66 2.84 3.35-2.2 1.77 1.7c.54 0 1.02.05 1.43.1zm-8.6 1.94-1.53-1.55 5.21-5.3-.61-.62-6 6 2.05 2.05c.29-.21.58-.4.88-.58zm2.7-5.27 1.27-1.3.72.72z" fill="url(#d)"/></svg>