<svg height="18" viewBox="0 0 18 18" width="18" xmlns="http://www.w3.org/2000/svg"><path d="m18 0h-18v18h18z" fill="#f0f3fa"/><path d="m5.45 8h-1.45v1h1.45c.5 0 .55-.04.55-.5s-.03-.5-.55-.5zm-1.45 3h-1v-4h1.4c.86 0 1.8 0 1.97.02.52.06.86.3 1 .75.2.6.13 1.08-.14 1.54.14.13.18.14.32.15h1.6c.3 0 .75 0 .75.33-.02.22-.13.22-.32.22h-.76l-.87-.01c-.28-.02-.34-.08-.35-.36l-.46-.18c-.3.36-.83.54-1.36.54h-1.77zm10.99-2.78v.04h-1.2v-.1c-.01-.12-.02-.15-.5-.16h-1c-.47 0-.8.01-.88.58-.02.1-.02.25-.02.39v.11c0 .34.1.75.3.92h.68a27.5 27.5 0 0 1 1 0c.19 0 .25 0 .28-.03.04-.02.06-.06.14-.14h1.2s.03.4-.2.7c-.27.35-.77.47-1.27.47h-1.45a3.1 3.1 0 0 1 -1.32-.23l.06-.05c.1-.07.31-.22.34-.75.05-.93-.1-1.31-.96-1.42h-2.09c-.2-.03-.3-.15-.3-.35 0-.22.21-.22.48-.2h1.32l.1.02c.13.02.2.03.2.2h.9v-.12c0-.32 0-.57-.3-.78.25-.2 1.03-.3 1.42-.3h1.47c.49.02 1.11.07 1.38.47.14.22.18.45.22.74z" fill="#b3965c"/></svg>