<svg height="18" viewBox="0 0 18 18" width="18" xmlns="http://www.w3.org/2000/svg"><path d="m0 0h18v18h-18z" fill="#2e2e30"/><path d="m6.2 6h-2.2v6h1.39v-1.6h.8c.62-.01 1.2-.25 1.64-.66.43-.41.67-.97.67-1.54s-.24-1.13-.67-1.54a2.46 2.46 0 0 0 -1.64-.66zm-.01 3h-.8v-1.67h.8c.45.02.81.44.81.87 0 .45-.35.78-.81.8z" fill="#fff"/><path d="m11.9 7.33c.5 0 .97.23 1.28.63l.82-1.03a2.81 2.81 0 0 0 -3.17-.71c-.54.21-1 .6-1.33 1.1a3.07 3.07 0 0 0 1.3 4.46 2.82 2.82 0 0 0 3.18-.69l-.83-1.03c-.34.44-.9.67-1.45.6-.85-.11-1.4-.9-1.35-1.77.06-.87.7-1.55 1.55-1.56z" fill="#a8a9ab"/></svg>