<svg height="18" viewBox="0 0 18 18" width="18" xmlns="http://www.w3.org/2000/svg"><path d="m0 0h18v18h-18z" fill="#f0f3fa"/><path d="m13.9 7.59a2.06 2.06 0 0 0 -2.88 0l-1.43 1.41 1.45 1.41c.79.79 2.08.79 2.87 0 .8-.78.8-2.04 0-2.82zm-.72 2.13c-.4.4-1.06.4-1.46 0l-.74-.72.74-.72c.4-.4 1.06-.4 1.46 0s.4 1.04 0 1.44z" fill="#8b4098"/><path d="m6.98 7.58c0 .02 0 .02 0 0a2.07 2.07 0 0 0 -2.88 0c-.8.78-.8 2.04 0 2.84.8.77 2.08.77 2.88 0l1.44-1.42zm-.7 2.15c-.4.4-1.06.4-1.46 0a1 1 0 0 1 0-1.44c.4-.4 1.06-.4 1.46 0l.74.72z" fill="#007baa"/><path d="m10.42 4.1c-.78-.8-2.04-.8-2.84 0-.77.8-.77 2.08 0 2.88l1.42 1.44 1.41-1.44c.8-.8.8-2.09.02-2.88zm-.7 2.18-.7.72-.72-.72c-.4-.4-.4-1.06 0-1.46a1 1 0 0 1 1.44 0c.4.4.4 1.06 0 1.46z" fill="#e10f79"/><path d="m10.41 11.03-1.41-1.45-1.41 1.45c-.79.8-.79 2.08 0 2.87a2 2 0 0 0 2.84 0c.76-.8.76-2.08-.02-2.88zm-.69 2.15a1 1 0 0 1 -1.44 0c-.4-.4-.4-1.06 0-1.46l.72-.74.72.74c.4.4.4 1.06 0 1.46z" fill="#13b794"/></svg>