<svg height="18" viewBox="0 0 18 18" width="18" xmlns="http://www.w3.org/2000/svg"><path d="m0 0h18v18h-18z" fill="#e98201"/><path d="m5.02 7h-1.72c-.17 0-.31.16-.31.34 0 .2.14.33.3.33h1.72c.36 0 .68.26.68.66 0 .41-.32.67-.68.67h-1.71c-.17 0-.31.14-.31.33v1.33c0 .18.14.34.3.34.18 0 .3-.16.3-.34v-1h1.42c.7 0 1.28-.54 1.28-1.33.01-.77-.57-1.33-1.27-1.33zm6.08 0a.29.29 0 0 0 -.28.21l-.85 2.5-.84-2.5a.3.3 0 0 0 -.28-.21c-.12 0-.22.09-.28.21l-.84 2.5-.85-2.5a.29.29 0 0 0 -.28-.21c-.17 0-.3.15-.3.33l.03.13 1.12 3.32a.3.3 0 0 0 .28.21c.12 0 .22-.09.28-.2l.84-2.5.84 2.5a.3.3 0 0 0 .28.21c.13 0 .23-.08.28-.2l1.13-3.33.02-.12c0-.2-.14-.35-.3-.35zm2.1 0c-1 0-1.8.9-1.8 2s.8 2 1.8 2 1.8-.9 1.8-2-.8-2-1.8-2zm0 3.33c-.66 0-1.2-.59-1.2-1.33s.54-1.33 1.2-1.33 1.2.59 1.2 1.33-.54 1.33-1.2 1.33z" fill="#fff8fa"/></svg>