<svg height="18" viewBox="0 0 18 18" width="18" xmlns="http://www.w3.org/2000/svg"><path d="m0 0h18v18h-18z" fill="#f0f3fa"/><g fill="#35a9e0"><path d="m12 9a.5.5 0 1 1 -1 0 .5.5 0 0 1 1 0z"/><circle cx="10.5" cy="7.5" r=".5"/><circle cx="8.5" cy="6.5" r=".5"/><circle cx="6.73" cy="5.5" r=".5"/><circle cx=".5" cy=".5" r=".5" transform="matrix(1 0 0 -1 6.23 13)"/><ellipse cx="5.37" cy="5.12" rx=".37" ry=".35"/><ellipse cx=".37" cy=".35" rx=".37" ry=".35" transform="matrix(1 0 0 -1 5 13.24)"/><ellipse cx="8.77" cy="3.35" rx=".37" ry=".35"/><ellipse cx=".37" cy=".35" rx=".37" ry=".35" transform="matrix(1 0 0 -1 8.4 15)"/><ellipse cx="12.8" cy="5.12" rx=".37" ry=".35"/><ellipse cx=".37" cy=".35" rx=".37" ry=".35" transform="matrix(1 0 0 -1 12.43 13.24)"/><ellipse cx="14.63" cy="9" rx=".37" ry=".35"/><circle cx="8.5" cy="4.5" r=".5"/><circle cx=".5" cy=".5" r=".5" transform="matrix(1 0 0 -1 8 14)"/><circle cx="10.5" cy="5.5" r=".5"/><circle cx=".5" cy=".5" r=".5" transform="matrix(1 0 0 -1 10 13)"/><circle cx="11.5" cy="6.5" r=".5"/><circle cx=".5" cy=".5" r=".5" transform="matrix(1 0 0 -1 11 12)"/><circle cx="12.5" cy="7.5" r=".5"/><circle cx=".5" cy=".5" r=".5" transform="matrix(1 0 0 -1 12 11)"/><path d="m13.5 9a.5.5 0 1 1 -1 0 .5.5 0 0 1 1 0z"/><circle cx="8.5" cy="11.5" r=".5"/><circle cx="10.5" cy="10.5" r=".5"/></g></svg>