<svg height="18" viewBox="0 0 18 18" width="18" xmlns="http://www.w3.org/2000/svg"><path d="m0 0h18v18h-18z" fill="#f0f3fa"/><path d="m13.7 10.76-.52-.51.52-.51c.4-.4.4-1.07 0-1.47l-1.7-1.8v-.85c0-.29 0-.62-.5-.62-.31 0-.56.08-.7.38l-1.09-1.09a1 1 0 0 0 -1.42 0l-3.99 3.98c-.4.4-.4 1.06 0 1.47l.52.51-.52.51c-.4.4-.4 1.06 0 1.47l1.45 1.45c.19.18.43.3.7.32.3.02.58-.1.8-.3l1.43-1.44a.45.45 0 0 1 .64 0l1.44 1.44a1.04 1.04 0 0 0 1.49-.02l1.45-1.45c.4-.4.4-1.06 0-1.47zm-8.95-1.46a.41.41 0 0 1 0-.59l3.93-3.93a.45.45 0 0 1 .64 0l3.93 3.93c.16.16.16.42 0 .59l-.5.5-3.04-3a1 1 0 0 0 -1.43 0l-3.02 3-.51-.51zm7.55.95-.5.5a.41.41 0 0 1 -.6.01l-1.49-1.49a1 1 0 0 0 -1.42 0l-1.5 1.5a.41.41 0 0 1 -.58 0l-.5-.52 2.97-2.98a.45.45 0 0 1 .65 0zm.95 1.54-1.45 1.45a.41.41 0 0 1 -.6.01l-1.49-1.48c-.4-.4-1.03-.4-1.42 0l-1.5 1.48a.41.41 0 0 1 -.31.12c-.1 0-.2-.05-.28-.13l-1.45-1.44a.41.41 0 0 1 0-.59l.51-.5.5.49c.18.18.42.3.68.32.3.01.59-.1.8-.3l1.44-1.44a.45.45 0 0 1 .65 0l1.43 1.43a1.04 1.04 0 0 0 1.49-.01l.5-.5.5.51c.16.17.16.43 0 .59z" fill="#c20000"/></svg>