<svg height="18" viewBox="0 0 18 18" width="18" xmlns="http://www.w3.org/2000/svg"><path d="m0 0h18v18h-18z" fill="#f0f3fa"/><path d="m7.65 8.66-.85-.13c.18.53.58 1.1 1.28 1.15-.31.82-.48 2.04-.48 2.88 0 1.6.6 2.44 1.27 2.44 1.13 0 1.43-2.25 1.43-3.05 0-.65 0-1.86-.27-2.69 1.78-.56 3.97-2.1 3.97-3.5 0-.85-.5-1.76-1.45-1.76-1.32 0-2.8 1.78-3.66 3.54a2.85 2.85 0 0 0 -1.92-.54c-1.52 0-2.97 1.21-2.97 2h2c0-.47.52-.96 1.31-.98.5 0 .77 0 1.28.28-.16.34-.22.54-.36.89-.3 0-.48-.28-.58-.53zm.78 3.38c0-.89.21-1.93.34-2.36.45-.07.46-.03.76-.15.2.58.3 3.47-.53 3.47-.52 0-.57-.65-.57-.96zm.71-3.5c-.17.35-.2.47-.25.65.26-.02.27-.03.52-.13-.05-.2-.11-.32-.27-.53zm3.13-2.06c.1-.43.07-1.05-.4-1.05-.88 0-1.96 1.59-2.46 2.59.19.2.34.54.47.82a4 4 0 0 0 2.39-2.36z" fill="#5ba5a6" fill-rule="evenodd"/></svg>