<svg height="18" viewBox="0 0 18 18" width="18" xmlns="http://www.w3.org/2000/svg" xmlns:xlink="http://www.w3.org/1999/xlink"><linearGradient id="a" gradientUnits="userSpaceOnUse" x1="6.56" x2="6.56" y1="12.77" y2="6.15"><stop offset=".2" stop-color="#201ef5"/><stop offset=".8" stop-color="#7221d3"/></linearGradient><linearGradient id="b" gradientUnits="userSpaceOnUse" x1="4.34" x2="8.39" y1="12.61" y2="12.61"><stop offset=".2" stop-color="#201ef5"/><stop offset=".8" stop-color="#4276f8"/></linearGradient><linearGradient id="c" gradientUnits="userSpaceOnUse" x1="8.47" x2="15" y1="7.1" y2="7.1"><stop offset=".2" stop-color="#7221d3"/><stop offset=".9" stop-color="#201ef5"/></linearGradient><linearGradient id="d" gradientUnits="userSpaceOnUse" x1="9.56" x2="15" y1="9.59" y2="9.59"><stop offset="0" stop-color="#4276f8"/><stop offset=".9" stop-color="#201ef5"/></linearGradient><linearGradient id="e" gradientUnits="userSpaceOnUse" x1="2" x2="7.22" y1="9.52" y2="9.52"><stop offset=".1" stop-color="#69d772"/><stop offset=".9" stop-color="#70ecfc"/></linearGradient><linearGradient id="f" gradientUnits="userSpaceOnUse" x1="9.51" x2="9.51" y1="12.93" y2="7.99"><stop offset=".2" stop-color="#4276f8"/><stop offset=".9" stop-color="#70ecfc"/></linearGradient><linearGradient id="g" gradientUnits="userSpaceOnUse" x1="6" x2="9.34" y1="10.64" y2="10.64"><stop offset=".1" stop-color="#70ecfc"/><stop offset="1" stop-color="#4276f8"/></linearGradient><path d="m0 0h18v18h-18z" fill="#f0f3fa"/><path d="m5.86 11.4.63-.99 1.1-1.72.63-.97.48-.75c.03-.05.08-.1.13-.13l-.36-.7c-.17.1-.33.24-.44.42l-.19.3-3.16 4.94-.33.5a.45.45 0 0 0 -.01.47l1-.55z" fill="url(#a)"/><path d="m4.74 13h3.4c.1 0 .18-.03.25-.07l-.43-.7h-2.63l-1 .54c.09.14.24.23.4.23z" fill="url(#b)"/><path d="m15 8.19c0-.66-.21-1.21-.61-1.6-.41-.4-1.02-.6-1.7-.59h-3.64c-.2 0-.4.05-.58.15l.36.69a.42.42 0 0 1 .22-.06h3.65c.28-.01.79.03 1.14.37.25.24.37.59.37 1.04z" fill="url(#c)"/><path d="m12.02 10.27h-1.96l-.5.73h2.46c.77 0 1.52-.3 2.1-.88.56-.53.88-1.21.88-1.86v-.08h-.79v.08c0 .91-.98 2.01-2.2 2.01z" fill="url(#d)"/><path d="m3.75 9.46-.65-.76h3.55l.45-.7h-4.64a.45.45 0 0 0 -.41.22c-.08.14-.06.3.04.43l1.03 1.25c.6.7 1.38 1.04 2.07 1.12l.42-.65h-.26c-.55 0-1.07-.3-1.6-.9z" fill="url(#e)"/><path d="m11.28 8.66c.1-.13.1-.3.02-.44a.45.45 0 0 0 -.4-.22h-2.87l-.47.74h2.74l-.59.88-.35.54-.73 1.09-.15.22-.07.11-.45.68.43.67c.05-.03.1-.07.14-.13l1.03-1.55.5-.75z" fill="url(#f)"/><path d="m8.8 11 .49-.73h-2.7l-.49.73z" fill="url(#g)"/></svg>