<svg height="18" viewBox="0 0 18 18" width="18" xmlns="http://www.w3.org/2000/svg"><path d="m0 0h18v18h-18z" fill="#012d6f"/><path d="m6.16 3.92 2.11-.92-.25 2.18zm-1.6.75 2.27.33-1.4 1.7-.85-2.04zm2.12 4.22.7-.04-.35-.53.76-1.26.58 1.38 1.39-1.7-1.62-.25.84-1.4 1.36 2.25-.69.6 1.33.47.33.53.2-.15-.14-.24.45.16-.53-2.18-.75.64-1.55-2.57-1.12 1.84-.37-.04.16.38-.8 1.32-.7-1.06-1.05 1.96 1.26-.08-.73 1.19-.12-.04.04.17-.4.66.2.16.3-.49.46 1.66 1.58-1.47-1.8-.57zm.4 1.43 2.26-.24-1.26-1.77zm3.09.68h-2.27l1.08 1.9zm.3 0h2.26l-1.19 1.9-1.08-1.9zm-.06-.2h2.26l-1.11-1.9-1.16 1.9zm3.59 2.2h-2.27l1.16-1.93zm-4.86 0h2.27l-1.12-1.93zm-.3 0h-2.29l1.16-1.93 1.12 1.93zm-4.84 0h2.27l-1.11-1.91zm7.31-4-2.25-.33.86 2.04 1.4-1.7z" fill="#fff"/></svg>