<svg height="18" viewBox="0 0 18 18" width="18" xmlns="http://www.w3.org/2000/svg"><path d="m0 0h18v18h-18z" fill="#f0f3fa"/><path d="m9 7.27c.46-.3 1.52-.3 2-.25 0 .09-.02.25-.1.25-1.07-.15-1.71.43-1.9.73zm-3.56 6.3v.43c.13-.1.4-.31.4-.43 0-.16-.3-.3-.3-.56 0-.56 2.46-1.13 2.46-1.89 0-.77-2.78-1.43-2.78-.97s2.25.61 2.25 1.05c0 .68-2.47 1.02-2.47 1.73 0 .33.44.5.44.64zm2.4-5.12c-.5-.12-.75-.35-.82-.45-.16 1.1.59 1.86.98 2a1.72 1.72 0 0 1 -.16-1.55z" fill="#69747b"/><path d="m6.14 9.6c0 .18-.11.34-.14.4.65-.22 1-.74 1-1-.3.31-.62.48-.86.6zm.08 3.4c-.24-.74-.48-2.38.46-3 .33.37.67 1.4-.46 3z" fill="#69747b"/><path d="m6.34 6.47c.18.21.51.4.66.47-.59.55-.97.75-1.38.75-.4 0-.42-.2-.82-.2s-.92.57-.92.5c.17-.14.11-.2.11-.44 0-.25.55-.53 1-.53.43 0 .69.12 1.04.12s.25-.02.46-.12c-.52 0-1.03-.55-1.38-.55s-1.23.55-1.52.55c-.24 0-.5-.25-.59-.37.1-.11.29-.4.35-.65.04.16.2.55.53.55s1.29-.55 1.67-.55c.39 0 .57.2.79.47zm5.46.53c-.08-.37-.73-.54-1.93-.54s-2.05.14-2.4.14c-.27 0-.43-.1-.47-.14l.1-.14c.02-.06.08-.22.08-.32.06.18.31.38.7.38.37 0 1.36-.25 2.65-.25s1.47.25 1.47.33 0 .1-.13.2c-.1.06-.09.25-.07.33z" fill="#ee1928"/><g fill="#69747b"><path d="m8 4.68c-.7 0-.96-.45-1-.68.28 0 .23.25.4.27.16.03.04-.13.48-.13.45 0 .77.76.96.76.18 0 .25-.13.5-.13.21 0 .53.82.66 1.23a13.9 13.9 0 0 0 -2-1.32zm2.71-.06c.29 0 .3.92.28 1.38-.13-.8-.93-1.57-.98-1.72-.04-.16.03-.28.12-.28.08.22.22.62.58.62zm2.29 1.07c0 .12-.18.26-.27.31-.38 0-.41-.39-.44-.57s-.38-.36-.27-.42c.12-.05.21.06.36.21.15.16.62.31.62.47zm1.5 1.31c.44 0 .51.57.5.86-.06-.09-.2-.26-.32-.26-.62 0-1.48 2.48-1.48 2.8s.07.4.07.6c-.12-.02-.27-.26-.27-.64 0-1.5.96-3.36 1.5-3.36zm-.5 5c-.3.14-.93.45-1 .5l.3.5zm-.1 1c-.43.04-.78.38-.9.55.09.07.3.26.4.39 0-.16.25-.71.5-.94zm-.9-1.57-.3-.43c-.23.28-.21.83-.21 1.58-.58.64-.53 1.2-.43 1.42.06-.5.45-.9.57-1.42 0-.81.25-1.1.37-1.15zm-1.96-2.71c0-.65.64-.75.96-.71-.35.08-.5.18-.5.28s.3.11.31.21c.02.1-.31.27-.31.22s-.04-.18-.11-.18c-.2.11-.17.65-.17 1 0 .34-.28.46-.42.46-.15 0-.15-.12-.24-.12-.1 0-.13.12-.28.12-.12 0-.24-.11-.28-.17.06.01.19.04.28.04.1 0 .1-.12.3-.12.18 0 .1.03.22.08.1.05.27-.1.31-.23s-.07-.46-.07-.88zm-.88 1.68c-.2.28-.57.42-.73.46.26.05.67-.13.77-.2.1-.08.15.25.2.27.07.03.15-.18.23-.2.08-.03.08.13.23.13 0-.09-.1-.34-.15-.46l-.22.25c-.07-.08-.25-.25-.33-.25z"/><path d="m10.18 11.2c-.2 0-.4-.18-.47-.27.1.03.34.09.47.09s.32-.06.4-.09c-.06.1-.2.27-.4.27zm-1.18-3.11c.6-.18 1.2-.04 1.43.05h-.51c-.12 0 0 .08.1.17-.03.06-.4.17-.57.22.07-.08.2-.28.1-.35-.24-.02-.42.18-.48.28a1.4 1.4 0 0 1 -.07-.37z"/><path d="m10.4 11.72c1.05-.71 1.45-2.24 1.52-2.92.39 1-.74 2.55-1.35 3.2h-.39c-1.2 0-2.18-.8-2.18-.94 1.04.67 1.58.66 2.4.66z"/></g></svg>