<svg height="18" width="18" xmlns="http://www.w3.org/2000/svg"><path d="m0 0h18v18h-18z" fill="#007ac3"/><path d="m9.07 4c-3.043 0-5.07 2.492-5.07 4.852 0 1.574.599 2.214 1.064 2.884l.86-1.95.259-.145.379-1.047.222-.103-.86 2.637-.541.596h.265l.962-.975.493-1.927.186.265c-.073.889-.044.673-.102 1.168l-1.16 1.47h.288l1.137-.657.072.03-.38.626h1.342l1.978-1.107.6-2.242h1.53l-.572-.498-3.32-.554c-.727-.772-.757-.812-.757-.812l.878.072-.632-.584v-.596l.818.144 2.225 1.295 2.58.698c-.262-1.21-1.82-3.54-4.745-3.54zm0 .313c1.993 0 3.639 1.277 4.22 2.763l-2.26-.626-2.01-1.12-.986-.162-.451.963-.367.187-.565 1.445c0-.03-.391.174-.391.174s-.847 2.26-1.269 3.396c-.334-.598-.637-1.228-.637-2.48 0-2.186 1.862-4.54 4.714-4.54zm2.386 4.16-.09.759.09.132-.09.668.337-.054.607-1.156zm1.017.41-.626 1.764-.439.36-.48.717h.552l.776-1.107.421-.362.463-1.095zm.86.337-.32 1.09-.991 1.414h1.118c.597-.83.802-1.43.86-2.275l-.668-.23zm-2.183 1.15-1.227 1.354h.704l.655-1.107zm-6.086 1.63c1.092 1.34 2.52 2 3.975 2s2.95-.849 3.838-2z" fill="#fff"/></svg>