<svg height="18" width="18" xmlns="http://www.w3.org/2000/svg"><path d="m0 0h18v18h-18z" fill="#00734a"/><g fill="#fff"><path d="m9.347 4h4.623l-.16 1h-4.65zm-2.77 1.598h3.017l-.179.928h-3.019zm3.551 0h3.52l-.16.928h-3.536zm-3.82 1.406h4.089l-.207.996h-4.073l.19-.996zm-2.776 1.378h5.525l-.178.927h-5.522zm-.31 1.618h5.524l-.193 1h-5.518zm6.371-1.618h3.569l-.162.927h-3.59l.182-.927zm.738 1.618h2.5l-.161 1h-2.528zm-4.878 1.474h4.083l-.18.928h-4.08zm-.292 1.526h5.145l-.188 1h-5.15z"/><path d="m6.577 5.596h.542l-1.606 8.404h-.543zm-2.501 2.786-.476 2.473h-.538l.471-2.473zm5.339-1.856h-.542l.474-2.526h.543zm-.893 1.857.535-.001-.476 2.476h-.543zm2.072-2.405-1.206 6.268h-.542l1.206-6.268zm.279 4.022-.755 4h-.543l.756-4z"/></g></svg>