<svg height="18" width="18" xmlns="http://www.w3.org/2000/svg"><path d="m0 0h18v18h-18z" fill="#f35e19"/><path d="m4 9a5 5 0 0 1 10 0 5 5 0 0 1 -10 0z" fill="#fff"/><path d="m8.323 7.732-1.903-2.59.812 1.707-1.514-1.13 2.17 2.369-2.744-1.664 1.399 1.263-1.83-.46 2.909 1.357-3.175-.487 1.78.63-1.866.275 3.207.14-3.117.765 1.883-.096-1.62.967 3.018-1.1-2.592 1.9 1.706-.81-1.123 1.514 2.366-2.17-1.665 2.746 1.263-1.4-.463 1.83 1.357-2.91-.488 3.173.616-1.777.29 1.867v-3.202l.903 3.113-.094-1.884.968 1.619-1.1-3.016 1.9 2.588-.812-1.704 1.513 1.127-2.166-2.367 2.744 1.665-1.398-1.263 1.83.462-2.909-1.358 3.17.488-1.775-.632 1.866-.274-3.204-.141 3.114-.763-1.883.096 1.62-.968-3.015 1.097 2.589-1.897-1.707.808 1.128-1.513-2.366 2.167 1.665-2.744-1.264 1.398.46-1.83-1.358 2.912.488-3.174-.631 1.777-.275-1.868-.14 3.207-.763-3.12.095 1.885-.968-1.62" fill="#f35e19"/></svg>