<svg height="18" width="18" xmlns="http://www.w3.org/2000/svg"><path d="m0 0h18v18h-18z" fill="#f0f3fa"/><path d="m9.5 9h-.9v-1.43h.88c.43 0 .92.2.92.75 0 .4-.42.68-.9.68zm.1-2h-1.44c-.12 0-.16.1-.16.2v3.55c0 .11.01.25.16.25h.27c.15 0 .17-.14.17-.25v-1.18h1.05c.8 0 1.35-.47 1.35-1.25 0-.76-.46-1.32-1.4-1.32z" fill="#4fc8ed"/><path d="m15 10.85c0 .08-.07.15-.16.15h-.29a.15.15 0 0 1 -.15-.15v-3.27l-.82 3.27c-.02.08-.07.15-.15.15h-.45c-.08 0-.13-.07-.15-.15l-.83-3.27v3.27c0 .08-.07.15-.16.15h-.29a.15.15 0 0 1 -.15-.15v-3.7c0-.09.07-.15.15-.15h.84c.07 0 .13.05.15.11l.67 2.95.69-2.93a.15.15 0 0 1 .14-.13h.8c.09 0 .16.07.16.15z"/><path d="m3 11h4v-4h-4z" fill="#4fc8ed"/></svg>