<svg height="18" viewBox="0 0 18 18" width="18" xmlns="http://www.w3.org/2000/svg"><path d="m0 0h18v18h-18z" fill="#f0f3fa"/><g fill="#1135b9"><path d="m7.22 7.2c.35-.97 1-2.52 1.87-3.2.86.55 1.56 2.3 1.88 3.19.57 1.6.06 2.81-1.88 2.81-1.92 0-2.44-1.19-1.87-2.8zm1.78 1.78c-.33.05-.76 0-.91-.2-.17-.23-.06-.7.04-.78.1.28.14.34.32.56.16.19.31.28.43.34z" fill-rule="evenodd"/><path d="m11.45 9.59c.78.18 1.94.67 1.93 1.27-.01.24-.17.5-.65.75-.91.5-2.33.66-3.74.66-1.45 0-2.89-.15-3.8-.67-.48-.28-.58-.54-.57-.78.05-.83 1.35-1.03 1.89-1.23l-.15-.59c-.58.07-1.49.52-1.92.91-.3.27-.44.59-.44.9 0 .37.17.74.51 1.02 1.03.87 2.89 1.17 4.49 1.17 3.12 0 4.97-1.05 5-2.14.03-.54-.4-1.08-1.33-1.51-.23-.1-.8-.33-1.05-.35l-.16.59z"/><path d="m6.6 10.88c.09-.24.57-.24.73-.38-.12-.16-.26-.3-.36-.5-.33.07-.77.32-.9.6-.66 1.45 3.87 1.8 5.42.94 1.05-.58.26-1.43-.45-1.54-.11.24-.26.33-.38.5.19.15.65.13.74.38-.28.37-1.82.52-2.4.52-.58-.02-2.1-.15-2.4-.52z"/></g></svg>