<svg fill="none" height="18" viewBox="0 0 18 18" width="18" xmlns="http://www.w3.org/2000/svg" xmlns:xlink="http://www.w3.org/1999/xlink"><linearGradient id="a" gradientUnits="userSpaceOnUse" x1="12.4375" x2="4" y1="5.5625" y2="9"><stop offset="0" stop-color="#7398c4"/><stop offset="1" stop-color="#005d9b"/></linearGradient><linearGradient id="b" gradientUnits="userSpaceOnUse" x1="13.6875" x2="5.71877" y1="7.75" y2="12.75"><stop offset="0" stop-color="#b3cbd7"/><stop offset="1" stop-color="#7aa4b5"/></linearGradient><path d="m0 0h18v18h-18z" fill="#f0f3fa"/><path clip-rule="evenodd" d="m9 4c2.7614 0 5 2.23857 5 5 0 2.7614-2.2386 5-5 5-2.76143 0-5-2.2386-5-5 0-2.76143 2.23857-5 5-5z" fill="#aebfdb" fill-rule="evenodd"/><path clip-rule="evenodd" d="m9 4c.56521 0 1.1085.0939 1.6151.26674.9306 1.23563 1.4824 2.77262 1.4824 4.43862 0 2.03004-.8192 3.86864-2.14489 5.20364-.30843.0595-.62681.091-.95261.091-2.76143 0-5-2.2386-5-5 0-2.76143 2.23857-5 5-5z" fill="url(#a)" fill-rule="evenodd"/><path d="m14 9.00004c0-2.76143-2.2386-5-5-5 .56521 0 1.1085.09389 1.6151.26674.9306 1.23563 1.4824 2.77262 1.4824 4.43862 0 2.03-.8192 3.8686-2.14489 5.2036-.30843.0595-.62681.091-.95261.091 2.7614 0 5-2.2385 5-4.99996z" fill="#aebfdb"/><path clip-rule="evenodd" d="m11.8469 6.79098c.1634.61055.2507 1.25225.2507 1.91439 0 2.03003-.8193 3.86863-2.14496 5.20363-.30843.0595-.62682.091-.95262.091-2.28867 0-4.21815-1.5377-4.81173-3.6364 1.77621-2.181 4.48251-3.57445 7.51461-3.57445.0481 0 .096.00114.144.00183z" fill="#2b2b2a" fill-rule="evenodd"/><path clip-rule="evenodd" d="m11.7029 6.78915c.6389 0 1.2631.0625 1.8674.18054.2761.62045.4297 1.30741.4297 2.03032 0 2.76139-2.2385 4.99999-4.99998 4.99999-2.28867 0-4.21815-1.5377-4.81173-3.6364 1.77621-2.181 4.48251-3.57445 7.51461-3.57445z" fill="url(#b)" fill-rule="evenodd"/><path d="m14 8.99997c0 2.76143-2.2386 5.00003-5 5.00003.05798 0 .11573-.001.17323-.003 2.68117-.0913 4.82677-2.2936 4.82677-4.99703z" fill="#d4e0e8"/><path clip-rule="evenodd" d="m13.9379 9.78833c-.378 2.38687-2.4447 4.21167-4.93791 4.21167-.47699 0-.93829-.067-1.37523-.1918.01345-3.4844 4.71434-4.27297 6.31314-4.01987z" fill="#2b2b2a" fill-rule="evenodd"/><path clip-rule="evenodd" d="m13.9379 9.78833c-.378 2.38687-2.4447 4.21167-4.93791 4.21167-.47699 0-.93829-.067-1.37523-.1918.01345-3.4844 4.71434-4.27297 6.31314-4.01987z" fill="#fcd04d" fill-rule="evenodd"/><path d="m9.17853 13.9968c2.41277-.0846 4.39037-1.8789 4.75937-4.20852-.4533-.07175-1.1559-.05978-1.9304.07363-.2466 1.56729-.9861 2.97079-2.05488 4.04699-.25186.0486-.51035.0786-.77409.0879z" fill="#fbe7a8"/></svg>