<svg height="18" viewBox="0 0 18 18" width="18" xmlns="http://www.w3.org/2000/svg" xmlns:xlink="http://www.w3.org/1999/xlink"><linearGradient id="a" gradientUnits="userSpaceOnUse" x1="5.57" x2="10.85" y1="6.45" y2="12.58"><stop offset="0" stop-color="#6dbc22"/><stop offset=".92" stop-color="#09adac"/></linearGradient><path d="m0 0h18v18h-18z" fill="#f0f3fa"/><path d="m10.31 4.93c.25.22.25.57 0 .8l-.79.7a.82.82 0 0 0 -.29.6v.26c0 .23.1.45.3.62l.78.7c.25.21.25.57 0 .79l-.79.7a.82.82 0 0 0 -.29.61v.25c0 .23.1.46.3.62l.78.7c.25.22.25.57 0 .79l-.86.77a.7.7 0 0 1 -.9 0l-.86-.77a.51.51 0 0 1 0-.8l.77-.68a.82.82 0 0 0 .29-.61v-.28c0-.23-.1-.45-.29-.62l-.76-.68a.51.51 0 0 1 0-.8l.77-.68a.82.82 0 0 0 .29-.62v-.28c0-.23-.1-.45-.29-.61l-.77-.69a.51.51 0 0 1 0-.79l.86-.77a.7.7 0 0 1 .9 0l.86.77zm-4.26 1.23c.25-.21.65-.21.9 0l.86.72c.25.21.25.55 0 .75l-.82.7a.65.65 0 0 0 -.24.49v.36c0 .19.09.37.24.5l.82.69c.25.2.25.54 0 .75l-.86.72c-.25.21-.65.21-.9 0l-.86-.72a.47.47 0 0 1 0-.75l.83-.7a.65.65 0 0 0 .24-.5v-.34a.65.65 0 0 0 -.24-.5l-.83-.7a.47.47 0 0 1 0-.75zm5 0c.25-.21.65-.21.9 0l.86.72c.25.21.25.55 0 .75l-.82.7a.65.65 0 0 0 -.24.49v.36c0 .19.09.37.24.5l.82.69c.25.2.25.54 0 .75l-.86.72c-.25.21-.65.21-.9 0l-.86-.72a.47.47 0 0 1 0-.75l.83-.7a.65.65 0 0 0 .24-.5v-.34a.65.65 0 0 0 -.24-.5l-.83-.7a.47.47 0 0 1 0-.75z" fill="url(#a)"/></svg>