<svg height="18" viewBox="0 0 18 18" width="18" xmlns="http://www.w3.org/2000/svg"><path d="m0 0h18v18h-18z" fill="#f0f3fa"/><path d="m6.51 4.1c.56.11 1.34.27 2.49.27 1.05 0 1.66-.13 2.17-.23.37-.08.67-.14 1.04-.14.9 0 1.79 1.1 1.79 2.2v3.48c0 .92-1.25 5.32-5 5.32s-5-4.58-5-5.32v-3.48c0-.97.65-2.2 1.79-2.2.19 0 .42.05.72.1zm.94 2.1c-.72.14-1.27 1.22-1.45 1.74 2.04-.84 4.36.46 5.27 1.21-.37.48-1.73 1.13-2.36 1.4a7.5 7.5 0 0 1 -2.73-2.1c-.43.84.43 1.98.91 2.44-.58-.14-.97-.4-1.09-.52.15.97.9 1.45 1.27 1.56 2.91-.17 4.73-2.08 4.73-2.78 0-.55-.97-1.39-1.45-1.73.58 0 1.09.34 1.27.52-.15-.84-1.03-1.5-1.46-1.74-.29 0-1.09.23-1.45.35-.3-.28-1.1-.35-1.46-.35zm1.46 2.26c-.3 0-1.1.46-1.46.7.3.27 1.1.57 1.46.69.29 0 1.09-.47 1.45-.7a9.62 9.62 0 0 0 -1.45-.7zm-1.27 3.64 1.27.69 1.27-.7a4.25 4.25 0 0 1 -1.27-.34c-.3.11-.98.35-1.27.35z" fill="#143129"/></svg>