<svg height="18" viewBox="0 0 18 18" width="18" xmlns="http://www.w3.org/2000/svg"><path d="m0 0h18v18h-18z" fill="#f0f3fa"/><path d="m12 5h-2l2-1z" fill="#0576c2"/><path d="m2 12 1.2-6h2.44c.8 0 1.39.78 1.24 1.61l-.12.68c-.16.9-.89 1.71-1.73 1.71h-1.16l-.41 2zm2.05-3 .4-1.99h.51c.32 0 .55.43.48.87l-.05.28c-.09.53-.41.84-.79.84z" fill="#feb12c" fill-rule="evenodd"/><path d="m8.28 8.83-1.03-2.83h1.67l.44 1.37.78-1.37h1.71l-2 2.9.98 3.1h-1.7l-.38-1.53-1.06 1.53h-1.84z" fill="#0576c2"/><path d="m16 6.55-.84 1.05c-.72-.6-1.77-.48-1.77.05 0 .43.59.64.88.69 1.04.25 1.21.98 1.2 1.24 0 1.7-1.57 2.42-2.8 2.42-.97 0-1.65-.35-1.87-.52l.73-1.12c.28.23.93.45 1.26.45s1.01-.1 1.01-.57c0-.38-.38-.54-.58-.58-.55-.07-1.63-.51-1.51-1.72.15-1.51 1.76-1.94 2.67-1.94.73 0 1.38.37 1.62.55z" fill="#42c4da"/></svg>