<svg height="18" viewBox="0 0 18 18" width="18" xmlns="http://www.w3.org/2000/svg"><path d="m0 0h18v18h-18z" fill="#0e5543"/><path d="m8.35 4h1.23l.14.76c.27.05.53.12.77.2l.51-.58 1.06.62-.3.7c.2.17.38.36.55.55l.73-.25.62 1.06-.62.47c.09.24.16.49.2.75l.76.14v1.23l-.76.1c-.05.25-.12.5-.2.74l.58.51-.62 1.06-.7-.3c-.17.2-.36.38-.55.55l.25.73-1.06.62-.47-.62c-.24.09-.49.16-.75.2l-.14.76h-1.23l-.1-.76c-.25-.05-.49-.11-.72-.2l-.47.62-1.06-.62.25-.73c-.2-.17-.38-.35-.54-.55l-.71.3-.62-1.06.59-.5a4.27 4.27 0 0 1 -.2-.75l-.77-.1v-1.23l.76-.14c.04-.26.11-.51.2-.75l-.62-.47.62-1.06.73.25c.17-.2.35-.38.55-.54l-.3-.71 1.06-.62.5.59c.25-.1.5-.16.76-.2zm-.35 6.63c-.75.03-1.3.38-1.64.71a3.52 3.52 0 1 1 5.93-1.04c-.3.45-.78.86-1.53.86-.33 0-.57-.03-.76-.07v-4.09h-2z" fill="#fff" fill-rule="evenodd"/></svg>