<svg height="18" viewBox="0 0 18 18" width="18" xmlns="http://www.w3.org/2000/svg"><path d="m0 0h18v18h-18z" fill="#f0f3fa"/><path d="m12.63 9.33h-1.75l-.01-.8h1.5c.26 0 .47-.04.64-.1.35-.13.53-.37.53-.72 0-.67-.62-.71-1.18-.71h-1.32v5h-1.04v-6h2.36c1.07 0 2.48.3 2.48 1.63 0 .98-.98 1.37-1.82 1.4l-.4.3zm-.06 2.67h-2.07l.55-1h1.53c.55 0 1.14-.13 1.14-.76 0-.55-.3-.91-1.08-.91h-1.35l.01-.8h1.7l.3.3c.84.01 1.7.46 1.7 1.41 0 1.36-1.3 1.76-2.43 1.76zm-3.57-6v6h-1l-4-4.5v4.5h-1v-6h1l4 4.5v-4.5z" fill="#31519e"/></svg>