<svg height="18" viewBox="0 0 18 18" width="18" xmlns="http://www.w3.org/2000/svg"><path d="m0 0h18v18h-18z" fill="#f0f3fa"/><path d="m8.67 6.83c0 1.02-.87 1.84-1.84 1.84s-2-1-2-2c0-1.02 1.03-1.84 2-1.84s1.84 1 1.84 2z" fill="#2c9ece"/><path d="m13.17 6.83c0 1.02-.87 1.84-1.84 1.84s-2-1-2-2c0-1.02 1.03-1.84 2-1.84s1.84 1 1.84 2z" fill="#ffe203"/><path d="m8.67 11.42c0 1.06-.9 1.91-1.92 1.91-1 0-2.08-1.03-2.08-2.08 0-1.06 1.07-1.92 2.08-1.92s1.92 1.03 1.92 2.09z" fill="#e32639"/><path d="m8.65 13.12c.13-.15.25-.32.35-.5a2.67 2.67 0 0 0 4.98-1.62h-2.31l-.67.67h1.97a1.67 1.67 0 1 1 -.1-1h1.05a2.67 2.67 0 0 0 -1.3-1.67 2.67 2.67 0 1 0 -2.66-4.62l-.3-.38h-1l.7.88c-.14.15-.26.32-.36.5a2.67 2.67 0 0 0 -4.98 1.62h2.31l.67-.67h-1.97a1.67 1.67 0 1 1 .1 1h-1.04c.19.72.66 1.32 1.3 1.67a2.67 2.67 0 1 0 2.66 4.62l.3.38h1zm1.33-7.43a1.67 1.67 0 1 0 .6-.51l1.42 1.82h-1l-1.02-1.3zm-1.96 6.62a1.67 1.67 0 1 0 -.6.51l-1.42-1.82h1l1.02 1.3z" fill="#181b1e" fill-rule="evenodd"/></svg>