<svg height="18" viewBox="0 0 18 18" width="18" xmlns="http://www.w3.org/2000/svg" xmlns:xlink="http://www.w3.org/1999/xlink"><linearGradient id="a"><stop offset="0" stop-color="#298caa"/><stop offset="1" stop-color="#216076"/></linearGradient><linearGradient id="b" gradientUnits="userSpaceOnUse" x1="11.87" x2="4.16" xlink:href="#a" y1="11.27" y2="9.76"/><linearGradient id="c" gradientUnits="userSpaceOnUse" x1="6.13" x2="13.84" xlink:href="#a" y1="6.73" y2="8.24"/><path d="m0 0h18v18h-18z" fill="#f0f3fa"/><path d="m15 9a6 6 0 0 1 -9 5.2c-1.64-1.3-1.84-2.7-1.84-4.1 0-1.94 1.85-3.4 2.18-3.47a2.96 2.96 0 0 0 -1.06 2.1c0 1.49 1.91 3.24 4.08 3.24 1.09 0 3.96-.5 4.43-4.2.2-2.11-1.22-3.34-1.96-4.06a6 6 0 0 1 3.17 5.29z" fill="url(#b)"/><path d="m3 9a6 6 0 0 1 9-5.2c1.64 1.3 1.84 2.7 1.84 4.1 0 1.94-1.85 3.4-2.18 3.47a2.96 2.96 0 0 0 1.06-2.1c0-1.49-1.91-3.24-4.08-3.24-1.09 0-3.96.5-4.43 4.2-.2 2.11 1.22 3.34 1.96 4.06a6 6 0 0 1 -3.17-5.29z" fill="url(#c)"/><path d="m8.16 7.68a.25.25 0 0 0 -.5-.11l-.44 2a.25.25 0 1 0 .5.12zm-1.49-.12c.14.03.22.16.19.3l-.22.98a.25.25 0 1 1 -.5-.11l.23-.99a.25.25 0 0 1 .3-.18zm4.96 1.32c.13.03.22.16.2.3l-.22 1a.25.25 0 1 1 -.49-.1l.21-1a.25.25 0 0 1 .3-.2zm-2.36-1.1c.13.02.22.15.19.29l-.45 2a.25.25 0 1 1 -.48-.1l.44-2a.25.25 0 0 1 .3-.2zm1.5.6a.25.25 0 1 0 -.5-.11l-.44 2a.25.25 0 1 0 .5.11z" fill="#21bdb7"/><path d="m8.17 7.6a.26.26 0 1 1 -.53 0 .26.26 0 0 1 .53 0zm1.45.18a.36.36 0 1 1 -.72 0 .36.36 0 0 1 .72 0zm-3.26 1.58a.38.38 0 1 0 0-.76.38.38 0 0 0 0 .76zm2.38 1.2a.36.36 0 1 0 0-.71.36.36 0 0 0 0 .72zm1.79-1.92a.4.4 0 1 0 0-.8.4.4 0 0 0 0 .8zm1.46.35a.38.38 0 1 1 -.76 0 .38.38 0 0 1 .77.01zm-1.91 1.63a.26.26 0 1 0 0-.53.26.26 0 0 0 0 .53zm-2.63-.49a.4.4 0 1 0 0-.8.4.4 0 0 0 0 .8z" fill="#df2029"/></svg>