<svg fill="none" height="18" viewBox="0 0 18 18" width="18" xmlns="http://www.w3.org/2000/svg" xmlns:xlink="http://www.w3.org/1999/xlink"><linearGradient id="a" gradientUnits="userSpaceOnUse" x1="2.25" x2="16.7143" y1="2.25" y2="14.9464"><stop offset=".468717" stop-color="#199849"/><stop offset=".46875" stop-color="#0d7b3e"/></linearGradient><path d="m0 0h18v18h-18z" fill="url(#a)"/><path clip-rule="evenodd" d="m9 4c2.2059 0 4 1.70623 4 4.02929 0 2.20081-1.6176 3.78731-3.67647 3.97071.26471.2751.67647 1 1.67647 1h1v1s-.5-.0001-1-.0001-1.35294-.0131-2.23529-1.9999c-2.08824-.1223-3.76471-1.7699-3.76471-3.97071 0-2.32306 1.79412-4.02929 4-4.02929zm0 .5c1.4118 0 2.4 1.38963 2.4 3.52929 0 2.13971-.9882 3.47071-2.4 3.47071-1.41177 0-2.4-1.331-2.4-3.47071 0-2.13966.98823-3.52929 2.4-3.52929z" fill="#f0f3fa" fill-rule="evenodd"/></svg>