<svg height="18" width="18" xmlns="http://www.w3.org/2000/svg"><path d="m0 0h18v18h-18z" fill="#f0f3fa"/><path d="m10.37 9.02c0-1.66.79-3.13 2.02-4.06.14-.1.14-.1.04-.26l-.41-.58c-.11-.15-.1-.15-.25-.04a6.14 6.14 0 0 0 0 9.84c.14.1.14.11.25-.04l.4-.59c.1-.14.1-.15-.04-.25a5.06 5.06 0 0 1 -2-4.02zm-4.3 0c0-1.66.8-3.13 2.02-4.06.14-.11.14-.11.04-.26l-.41-.58c-.1-.15-.1-.15-.25-.04a6.14 6.14 0 0 0 0 9.84c.14.11.14.11.24-.03l.42-.6c.1-.14.1-.14-.04-.25a5.06 5.06 0 0 1 -2.02-4.02z" fill="#1e4592"/></svg>