<svg height="18" width="18" xmlns="http://www.w3.org/2000/svg"><path d="m0 0h18v18h-18z" fill="#00774d"/><path d="m4 6.4v5.2c0 .3.21.4.34.4h.31c.28 0 .35-.22.35-.4v-4.41c0-.16.1-.18.2-.18h1.32c.3 0 .97.37.98 1.05s-.78.93-1.12.95c-.33.02-.4.2-.38.32v.42c0 .24.22.26.32.26h.48c.62.08.9.9 1.58 1.3 1.1.65 2.08.7 2.6.7a2.93 2.93 0 0 0 3.02-2.98c0-2.49-2.12-3.03-3.24-3.03l-1.26.03c-.4 0-.5.25-.5.37v2.66a.23.23 0 0 0 .1.18l.4.4c.44.3.5-.03.5-.26v-2.2c0-.14.16-.18.22-.18h.69c1.06-0 2.09.96 2.09 2 0 1.1-1.07 1.95-2.02 2a3.3 3.3 0 0 1 -2.22-.6c-.4-.33-.76-.77-.76-1.02a2.7 2.7 0 0 0 .5-1.33c-.03-1.59-1.14-2.05-1.68-2.05h-2.4c-.36 0-.42.25-.42.4z" fill="#fff"/></svg>