<svg height="18" width="18" xmlns="http://www.w3.org/2000/svg" xmlns:xlink="http://www.w3.org/1999/xlink"><linearGradient id="a" gradientUnits="userSpaceOnUse" x1="3.35" x2="21.9" y1="3.12" y2="24.43"><stop offset="0" stop-color="#1a1e21"/><stop offset="1" stop-color="#06060a"/></linearGradient><path d="m0 0h18v18h-18z" fill="url(#a)"/><g fill="#fff" fill-rule="evenodd"><path d="m13 5h-8v8h8zm-9-1v10h10v-10z"/><path d="m12 6h-6v6h6zm-2.2 1h-2.8v4h1v-1.86l1.8 1.86h1.36l-1.3-1.44a1.32 1.32 0 0 0 1.04-1.26 1.27 1.27 0 0 0 -1.1-1.3zm-.37.67h-1.43v1.15h1.43c.23 0 .51-.22.5-.59 0-.37-.32-.57-.5-.57z"/></g></svg>