<svg height="18" viewBox="0 0 18 18" width="18" xmlns="http://www.w3.org/2000/svg"><path d="m0 0h18v18h-18z" fill="#f0f3fa"/><path d="m16 9-1.19-2h-.81l1.19 2-1.19 2h.81z" fill="#00b2e3"/><g fill="#1a2b47"><path d="m12.71 8.79a1.9 1.9 0 0 1 -.58 1.4l-.05-.09-.33-.72h-.99l.33.7.25.5h-.25c-.88 0-1.6-.8-1.6-1.8 0-1.02.72-1.82 1.6-1.82.9 0 1.62.82 1.62 1.83zm.98 0c-0-1.55-1.17-2.79-2.59-2.79-1.41 0-2.57 1.24-2.57 2.79 0 1.53 1.15 2.84 2.58 2.84.25 0 .49-.1.7-.17l.29.54h.99l-.5-.96c.66-.5 1.1-1.33 1.1-2.25zm-6.61 1.48-.1.08a.42.42 0 0 1 -.25.1.5.5 0 0 1 -.39-.13.4.4 0 0 1 .03-.6l.1-.08zm.85.02.49-.4-.41-.4-.49.4-.83-.84a.28.28 0 0 1 .01-.42.27.27 0 0 1 .2-.07c.09-.02.2.01.28.1l.22.23.44-.38-.22-.23a1 1 0 0 0 -.8-.28.82.82 0 0 0 -.5.22.82.82 0 0 0 -.2 1.02.91.91 0 0 0 -.19 1.45c.24.24.58.34.9.3.2-.03.4-.1.58-.25l.1-.08.33.32.42-.37z"/><path d="m4.8 7.87c0 .57-.35 1.13-.92 1.13h-.88v-2h.88c.57 0 .92.3.92.87zm1.02 0c0-1.13-.78-1.87-2-1.87h-1.82v6h1v-2h.75l1.08 2h1.02l-1.14-2.4.05-.02c.68-.3 1.06-.91 1.06-1.7z"/></g></svg>