<!-- by TradingView --><svg width="18" height="18" viewBox="0 0 18 18" xmlns="http://www.w3.org/2000/svg"><path fill="#005CB9" d="M0 0h18v18H0z"/><path fill-rule="evenodd" d="M2.84 7C2.3 7.76 2 8.6 2 9.5a4.27 4.27 0 0 0 .85 2.5h1.6a.02.02 0 0 0 0-.03l-.2-.27a2.1 2.1 0 0 1-.4-.69V11h1.62c.14-.41.21-1.07.21-1.5A4.27 4.27 0 0 0 4.84 7h-2Zm1 3.91a4.52 4.52 0 0 1 0-2.67c.27.82.27 1.85 0 2.67Zm5.25-3.9c.58.74.91 1.59.91 2.49a4.06 4.06 0 0 1-.92 2.5H7.34a.02.02 0 0 1 0-.03l.2-.26c.19-.22.34-.4.45-.71H6.22A5.2 5.2 0 0 1 6 9.5 4.06 4.06 0 0 1 6.92 7h2.17ZM10 9.5a4.06 4.06 0 0 1 .92-2.5h2.17c.58.75.91 1.6.91 2.5a4.06 4.06 0 0 1-.92 2.5h-1.74l-.01-.02.21-.27c.19-.22.34-.4.45-.71h-1.77A5.2 5.2 0 0 1 10 9.5Zm-2 1.41c.3-.82.3-1.85 0-2.67-.3.82-.3 1.85 0 2.67Zm7.16-3.9h.01c.53.74.83 1.59.83 2.49a4.28 4.28 0 0 1-.84 2.5h-1.61a.02.02 0 0 1 0-.03c.52-.74.81-1.58.81-2.47a4.27 4.27 0 0 0-.8-2.5h1.6ZM12 10.9c-.3-.82-.3-1.85 0-2.67.3.82.3 1.85 0 2.67Z" fill="#fff"/><path d="M12.54 5a1.41 1.41 0 0 1 .46-.98V4h-1.81v.01a2.72 2.72 0 0 0 0 1.99H13v-.03a1.42 1.42 0 0 1-.45-.97Z" fill="#00B2E3"/></svg>