<svg height="18" width="18" xmlns="http://www.w3.org/2000/svg"><path d="m0 0h18v18h-18z" fill="#f0f3fa"/><circle cx="6.33" cy="6.33" fill="#0095a8" r="2.33"/><circle cx="6.33" cy="11.67" fill="#ff9e1a" r="2.33"/><circle cx="11.67" cy="6.33" fill="#ff9e1a" r="2.33"/><circle cx="11.67" cy="11.67" fill="#0095a8" r="2.33"/><path d="m8.1 13.18-3.1-1.82v-1.62a2.33 2.33 0 0 1 3.1 3.44zm4.9-3.43v1.63l-3.09 1.83a2.33 2.33 0 0 1 3.09-3.45zm-3.1-4.93 3.1 1.83v1.6a2.33 2.33 0 0 1 -3.1-3.43zm-3.57 3.85a2.33 2.33 0 0 0 1.8-3.83l-3.13 1.84v1.57c.38.26.84.42 1.33.42z" fill="#e55204"/></svg>