<svg height="18" viewBox="0 0 18 18" width="18" xmlns="http://www.w3.org/2000/svg"><path d="m0 0h18v18h-18z" fill="#f0f3fa"/><path d="m12.61 6.6c-1.04 1.05-2.17 1.62-2.5 1.29s.24-1.46 1.3-2.5c1.04-1.05 2.16-1.63 2.5-1.3.33.34-.25 1.46-1.3 2.5z" fill="#bbf3fe"/><path d="m12.33 6.88c-.9.9-1.89 1.34-2.22 1.01s.12-1.33 1.01-2.22c.9-.9 1.89-1.34 2.22-1.01s-.12 1.33-1 2.22z" fill="#3fa8e1"/><path d="m6.6 12.61c1.05-1.04 1.62-2.17 1.29-2.5s-1.46.24-2.5 1.3c-1.05 1.04-1.63 2.16-1.3 2.5.34.33 1.46-.25 2.5-1.3z" fill="#bbf3fe"/><path d="m6.88 12.33c.9-.9 1.34-1.89 1.01-2.22s-1.33.12-2.22 1.01c-.9.9-1.34 1.89-1.01 2.22s1.33-.12 2.22-1z" fill="#3fa8e1"/><path d="m6.6 5.39c1.05 1.04 1.62 2.17 1.29 2.5s-1.46-.24-2.5-1.3c-1.05-1.04-1.63-2.16-1.3-2.5.34-.33 1.46.25 2.5 1.3z" fill="#bbf3fe"/><path d="m6.88 5.67c.9.9 1.34 1.89 1.01 2.22s-1.33-.12-2.22-1.01c-.9-.9-1.34-1.89-1.01-2.22s1.33.12 2.22 1z" fill="#3fa8e1"/><path d="m12.61 11.4c-1.04-1.05-2.17-1.62-2.5-1.29s.24 1.46 1.3 2.5c1.04 1.05 2.16 1.63 2.5 1.3.33-.34-.25-1.46-1.3-2.5z" fill="#bbf3fe"/><path d="m12.33 11.12c-.9-.9-1.89-1.34-2.22-1.01s.12 1.33 1.01 2.22c.9.9 1.89 1.34 2.22 1.01s-.12-1.33-1-2.22z" fill="#3fa8e1"/></svg>