<svg fill="none" height="18" viewBox="0 0 18 18" width="18" xmlns="http://www.w3.org/2000/svg"><path d="m0 0h18v18h-18z" fill="#b9cdd6"/><path clip-rule="evenodd" d="m10.1272 4c1.58 0 2.8728 1.25558 2.8728 2.64428v.29405c0 1.3887-1.2032 2.56167-2.7832 2.56167h-.88349l3.66669 4.5h-1.596l-3.19651-3.8153c-.13944-.1461-.20751-.31002-.20751-.50074v-.90512c0-.42904.39799-.77884.88614-.77884h.97355c1.08763 0 1.64033-.46486 1.64033-1.38063 0-.85458-.668-1.11937-1.64033-1.11937h-2.86339v8.5h-1.5v-9.22117c0-.42904.39799-.77883.88614-.77883z" fill="#19286b" fill-rule="evenodd"/></svg>