<svg height="18" viewBox="0 0 18 18" width="18" xmlns="http://www.w3.org/2000/svg"><path d="m0 0h18v18h-18z" fill="#f0f3fa"/><g fill="#33a34d" fill-rule="evenodd"><path d="m9 12a3 3 0 1 0 0-6 3 3 0 0 0 0 6zm1.66-2.89.67.04a2.41 2.41 0 0 0 0-.3l-.67.04a1.73 1.73 0 0 1 0 .22zm-.4-1.2.5-.45a2.35 2.35 0 0 0 -.22-.21l-.44.5.15.15zm-1.16-.58.04-.67a2.36 2.36 0 0 0 -.3 0l.04.67a1.7 1.7 0 0 1 .22 0zm-1.2.4-.45-.5c-.08.07-.15.14-.21.22l.5.44.15-.15zm-1.24 1.27v-.15l.67.04a1.7 1.7 0 0 0 0 .22l-.67.04zm1.08 1.1-.5.44c.06.08.13.15.21.21l.44-.5zm2.35.15.44.5c.08-.06.15-.13.21-.21l-.5-.44z"/><path d="m9 13a4 4 0 1 0 0-8 4 4 0 0 0 0 8zm0 1a5 5 0 1 0 0-10 5 5 0 0 0 0 10z"/></g></svg>