<!-- by TradingView --><svg xmlns="http://www.w3.org/2000/svg" width="18" height="18"><path fill="#CA0826" d="M0 0h18v18H0z"/><path fill-rule="evenodd" d="M10 6a1 1 0 11-2 0 1 1 0 012 0zm1 0a2 2 0 11-4 0 2 2 0 014 0zm-6.5.75H4v.47c0 .62.12 2.36 1.7 3.86.7.66 1.54 1 2.75 1.12-.15.88-.5 1.32-.69 1.55-.16.2-.12.5.1.65.21.16.53.12.7-.08.3-.38.74-1.02.9-2.13a5.06 5.06 0 004.53-4.95l.01-.49h-.51c-.57 0-1.57.12-2.55.72-.7.43-1.39 1.1-1.9 2.1A5.69 5.69 0 004.5 6.75zm6.19 4.12c-.41.18-.81.29-1.16.35a5.04 5.04 0 011.95-2.96 3.95 3.95 0 011.47-.53c-.1.68-.32 1.2-.6 1.63-.38.61-1 1.23-1.66 1.51zm-4.29-.46a3.3 3.3 0 002.1.85 4.01 4.01 0 00-1.65-2.7c-.62-.43-1.3-.69-1.82-.8.1.62.4 1.73 1.37 2.65z" fill="#fff"/></svg>