<svg height="18" width="18" xmlns="http://www.w3.org/2000/svg"><path d="m0 0h18v18h-18z" fill="#e22027"/><path d="m14.087 6.562h-1.275l-1.457 3.817v-1.684h-2.355v.915h1.094c-.204.395-.597.673-1.049.673-.662 0-1.198-.575-1.198-1.284 0-.71.536-1.285 1.198-1.285.405 0 .763.216.98.545l.73-.954a2.252 2.252 0 0 0 -1.71-.805c-.917 0-1.71.57-2.09 1.397a1.446 1.446 0 0 0 -.374-.77c-.316-.347-.74-.565-1.452-.565h-2.135v4.863h1.394v-1.566l1.312 1.566h1.617l-1.339-1.51c.225-.088.454-.222.603-.386.059-.062.111-.128.157-.198.15 1.224 1.126 2.169 2.307 2.169.467 0 1.016-.149 1.381-.404v.329h1.91l.193-.425h1.828l.209.425h1.434zm-8.437 1.69c0 .309-.213.443-.585.443h-.676v-.914h.67c.27 0 .59.068.59.47zm7.356 1.358.445-1.198.455 1.198z" fill="#fff"/></svg>