<svg height="18" viewBox="0 0 18 18" width="18" xmlns="http://www.w3.org/2000/svg"><path d="m0 0h18v18h-18z" fill="#f0f3fa"/><g fill-rule="evenodd"><path d="m10.37 12.5c2.9-1.25 4.65-3.7 3.72-5.67-.84-1.8-3.9-1.33-5.7-.65-2.97 1.1-5.19 4.2-4.61 5.6.75 1.83 3.69 1.96 6.6.71zm-.04-.6c2.1-1.2 3.97-3.54 3.28-5s-3.52-.89-5.22-.24c-2.77 1.06-4.46 3.5-4.22 4.64.53 2.43 3.43 1.78 6.16.6z" fill="#82c628"/><path d="m10.58 13.18c3.18-1.37 5.07-3.95 4.21-5.77-.85-1.82-5.48-1.39-7.9-.35-3.2 1.37-4.49 3.47-3.63 5.29s4.13 2.2 7.32.83zm-.26-.56c2.9-1.24 4.68-3.62 3.98-5.12s-4.93-.94-7.14 0c-2.9 1.25-4.07 3-3.37 4.5s3.64 1.87 6.54.63z" fill="#6a45a5"/><path d="m11 11.14c2.28-1.87 3.22-4.42 2.1-5.7-1.12-1.27-3.88-.79-6.17 1.08s-3.23 4.42-2.1 5.7c1.11 1.27 3.88.79 6.16-1.08zm-.38-.68c2.16-1.76 2.68-3.9 1.8-4.9-.71-.8-3.12-.4-5.27 1.37-2.16 1.76-2.8 4.13-1.92 5.13s3.24.16 5.4-1.6z" fill="#fb8b0e"/><path d="m10.81 10.12c1.95-2.09 2.6-4.64 1.45-5.71s-3.66-.25-5.61 1.83-2.6 4.64-1.45 5.71 3.66.25 5.61-1.83zm-.31-.46c1.85-1.98 2.15-4.1 1.24-4.95-.74-.7-2.95.02-4.8 2-1.86 1.98-2.25 4.35-1.34 5.2.91.84 3.04-.27 4.9-2.25z" fill="#82c628"/></g><path d="m10.65 9.14c1.73-2.3 2.25-4.81 1.17-5.62s-3.35.4-5.08 2.69c-1.7 2.26-2.23 4.74-1.21 5.59-.6-.84-.2-3.14 1.31-5.16 1.65-2.2 3.64-3.27 4.32-2.75.84.62.44 2.75-.97 4.95-1.05 1.76-2.46 2.93-3.49 3.22 1.16-.16 2.7-1.25 3.95-2.92z" fill="#6a45a5"/></svg>