<svg height="18" viewBox="0 0 18 18" width="18" xmlns="http://www.w3.org/2000/svg"><path d="m0 0h18v18h-18z" fill="#f0f3fa"/><path d="m14 4h-10v10h10zm-9.5 9.5v-9h4.06l.07 2.84a4.7 4.7 0 0 0 -2.58.73c-.42.3-.73.66-.9 1.08l-.09.22c-.14.4-.17.88.13 1.4.19.42.53.8.96 1.1.71.48 1.7.79 2.8.8 1.2 0 2.2-.26 2.92-.74a2.37 2.37 0 0 0 1.13-1.98c0-.76-.5-1.4-1.24-1.86a5.44 5.44 0 0 0 -2.39-.74l.07-2.85h4.06v9zm4.14-5.8.03 1.39a.5.5 0 0 0 .66 0l.03-1.38c.85.07 1.62.32 2.2.68.69.42 1.08.97 1.08 1.56 0 .62-.3 1.16-.83 1.58a3.9 3.9 0 0 0 -.73-.43 5.2 5.2 0 0 0 -2.75-.5v-2.9l.3-.01zm-1.54 3.2v-2.96l.42-.11v2.93zm.66-.2v-2.93l.35-.05v2.9c-.12.01-.24.04-.35.06zm3.15.73c.24.11.43.23.56.32a5 5 0 0 1 -2.52.56c-1-.01-1.86-.27-2.5-.67a4.48 4.48 0 0 1 4.46-.21zm-2.29-2.23c.1.09.23.15.38.15s.28-.06.39-.15a.5.5 0 0 1 -.39.8.5.5 0 0 1 -.5-.5c0-.11.04-.22.11-.3z" fill="#f89728"/></svg>