<svg height="18" viewBox="0 0 18 18" width="18" xmlns="http://www.w3.org/2000/svg" xmlns:xlink="http://www.w3.org/1999/xlink"><linearGradient id="a"><stop offset="0" stop-color="#112e94"/><stop offset=".86" stop-color="#09a4f2"/></linearGradient><linearGradient id="b" gradientUnits="userSpaceOnUse" x1="8.87" x2="7.67" xlink:href="#a" y1="3.17" y2="6.57"/><linearGradient id="c" gradientUnits="userSpaceOnUse" x1="10.86" x2="8.57" xlink:href="#a" y1="3.48" y2="6.24"/><linearGradient id="d" gradientUnits="userSpaceOnUse" x1="12.61" x2="9.52" xlink:href="#a" y1="4.48" y2="6.26"/><linearGradient id="e" gradientUnits="userSpaceOnUse" x1="13.93" x2="10.46" xlink:href="#a" y1="5.96" y2="6.66"/><linearGradient id="f" gradientUnits="userSpaceOnUse" x1="14.66" x2="11.15" xlink:href="#a" y1="7.85" y2="7.35"/><linearGradient id="g" gradientUnits="userSpaceOnUse" x1="14.74" x2="11.59" xlink:href="#a" y1="9.89" y2="8.23"/><linearGradient id="h" gradientUnits="userSpaceOnUse" x1="14.05" x2="11.64" xlink:href="#a" y1="11.77" y2="9.12"/><linearGradient id="i" gradientUnits="userSpaceOnUse" x1="12.79" x2="11.48" xlink:href="#a" y1="13.36" y2="10"/><linearGradient id="j" gradientUnits="userSpaceOnUse" x1="11.04" x2="11" xlink:href="#a" y1="14.44" y2="10.82"/><linearGradient id="k" gradientUnits="userSpaceOnUse" x1="9.1" x2="10.29" xlink:href="#a" y1="14.81" y2="11.4"/><linearGradient id="l" gradientUnits="userSpaceOnUse" x1="7.09" x2="9.41" xlink:href="#a" y1="14.51" y2="11.77"/><linearGradient id="m" gradientUnits="userSpaceOnUse" x1="5.33" x2="8.41" xlink:href="#a" y1="13.51" y2="11.71"/><linearGradient id="n" gradientUnits="userSpaceOnUse" x1="4.02" x2="7.51" xlink:href="#a" y1="11.99" y2="11.34"/><linearGradient id="o" gradientUnits="userSpaceOnUse" x1="3.3" x2="6.81" xlink:href="#a" y1="10.13" y2="10.64"/><linearGradient id="p" gradientUnits="userSpaceOnUse" x1="3.26" x2="6.41" xlink:href="#a" y1="8.11" y2="9.77"/><linearGradient id="q" gradientUnits="userSpaceOnUse" x1="3.89" x2="6.3" xlink:href="#a" y1="6.18" y2="8.83"/><linearGradient id="r" gradientUnits="userSpaceOnUse" x1="5.16" x2="6.52" xlink:href="#a" y1="4.62" y2="7.96"/><linearGradient id="s" gradientUnits="userSpaceOnUse" x1="6.87" x2="6.98" xlink:href="#a" y1="3.54" y2="7.15"/><path d="m0 0h18v18h-18z" fill="#f0f3fa"/><path d="m8.98 3.31v-.21a2.3 2.3 0 0 0 -1.27 2v1.55l.3-.32.45-1.33c-.02-1 .34-1.54.52-1.68z" fill="url(#b)"/><path d="m10.92 3.65.07-.2c-1.14.11-1.7.99-1.87 1.43l-.52 1.46.4-.2.87-1.09c.31-.95.83-1.33 1.05-1.4z" fill="url(#c)"/><path d="m12.6 4.66.15-.17c-1.11-.3-1.95.32-2.25.68l-.99 1.18.44-.05 1.19-.7c.62-.78 1.24-.95 1.46-.94z" fill="url(#d)"/><path d="m13.87 6.12.19-.11a2.2 2.2 0 0 0 -2.34-.1l-1.3.8.42.1 1.35-.28c.83-.53 1.47-.5 1.68-.4z" fill="url(#e)"/><path d="m14.55 7.99.21-.04a2.22 2.22 0 0 0 -2.16-.9l-1.5.3.37.23 1.36.2c.96-.2 1.55.05 1.72.2z" fill="url(#f)"/><path d="m14.58 9.98.22.03a2.26 2.26 0 0 0 -1.74-1.6l-1.5-.24.26.35 1.22.67c.97.13 1.43.58 1.54.79z" fill="url(#g)"/><path d="m13.88 11.8.19.11a2.3 2.3 0 0 0 -1.1-2.11l-1.33-.76.14.43.91 1.05c.87.47 1.15 1.05 1.19 1.28z" fill="url(#h)"/><path d="m12.62 13.32.14.17c.47-1.06 0-2-.29-2.37l-.98-1.19-.02.45.48 1.31c.65.75.72 1.4.67 1.63z" fill="url(#i)"/><path d="m10.9 14.34.07.21c.8-.83.69-1.88.53-2.32l-.52-1.46-.17.4.01 1.41c.36.94.2 1.57.07 1.76z" fill="url(#j)"/><path d="m9 14.67v.22a2.3 2.3 0 0 0 1.26-2.01l-.01-1.55-.3.32-.45 1.33c.03 1-.33 1.54-.5 1.69z" fill="url(#k)"/><path d="m7.04 14.33-.08.21a2.25 2.25 0 0 0 1.88-1.41l.54-1.46-.39.2-.89 1.08c-.32.94-.84 1.32-1.06 1.38z" fill="url(#l)"/><path d="m5.34 13.33-.15.17c1.11.29 1.95-.33 2.24-.7l.99-1.18-.44.05-1.18.71c-.62.78-1.23.96-1.46.95z" fill="url(#m)"/><path d="m4.09 11.82-.2.12a2.2 2.2 0 0 0 2.35.12l1.32-.77-.43-.1-1.35.25c-.84.52-1.48.47-1.7.38z" fill="url(#n)"/><path d="m3.42 10-.22.03c.68.94 1.71 1 2.17.9l1.5-.28-.37-.24-1.37-.2c-.96.2-1.54-.06-1.71-.22z" fill="url(#o)"/><path d="m3.42 8.02-.22-.04a2.26 2.26 0 0 0 1.74 1.6l1.5.25-.26-.35-1.22-.67c-.96-.14-1.43-.58-1.54-.81z" fill="url(#p)"/><path d="m4.06 6.15-.19-.1a2.3 2.3 0 0 0 1.1 2.1l1.33.76-.13-.43-.92-1.05c-.87-.47-1.15-1.05-1.19-1.28z" fill="url(#q)"/><path d="m5.33 4.65-.14-.17c-.45 1.08.02 2.01.32 2.37l1 1.17.02-.44-.5-1.31c-.67-.74-.74-1.39-.7-1.62z" fill="url(#r)"/><path d="m7.02 3.63-.07-.2c-.8.84-.66 1.88-.5 2.33l.55 1.44.16-.41-.04-1.4c-.36-.94-.22-1.57-.1-1.77z" fill="url(#s)"/></svg>