<svg height="18" viewBox="0 0 18 18" width="18" xmlns="http://www.w3.org/2000/svg"><path d="m0 0h18v18h-18z" fill="#f0f3fa"/><path d="m9 5.56a3.4 3.4 0 0 1 3.44 3.44 3.4 3.4 0 0 1 -3.44 3.44 3.4 3.4 0 0 1 -3.44-3.44 3.4 3.4 0 0 1 3.44-3.44z" fill="#134485"/><path d="m9 4a5 5 0 1 0 0 10 5 5 0 0 0 0-10zm0 8.44a3.4 3.4 0 0 1 -3.44-3.44 3.4 3.4 0 0 1 3.44-3.44 3.4 3.4 0 0 1 3.44 3.44 3.4 3.4 0 0 1 -3.44 3.44z" fill="#e31019"/><path d="m10.27 6.21-4.26 2.03.2.41 4.26-2.02z" fill="#e73337"/><path d="m9.06 10.57c-.77.08-1.4-.47-1.98-.84.34-.15.46-.27.38-.44-.08-.14-.22-.14-.36-.08l-.37.17.7 1.38-.55.24-.88-1.73 1.3-.58c.12-.06.44-.04.6.27.17.35-.08.57-.17.65l.46.27c.01-.51.02-1.06.01-1.6l.62-.27c.5.4 1.02.8 1.54 1.19.04-.05.05-.11.08-.17-.3-.14-.5-.44-.56-.75-.08-.32.12-.69.38-.88.25-.18.6-.34.9-.4l.2.41c-.3.04-.69.16-.83.42-.13.2-.05.44.08.61.15.15.4.22.62.16.23-.05.4-.2.57-.34l.2.4c-.27.25-.7.46-1.08.46-.31.74-.96 1.35-1.86 1.45zm-.3-1.9.03.53.41-.18-.44-.36zm.8.63-.75.33.01.5c.4.02.87-.18 1.13-.49l-.4-.34z" fill="#ffdf00"/></svg>