<svg height="18" viewBox="0 0 18 18" width="18" xmlns="http://www.w3.org/2000/svg"><path d="m0 0h18v18h-18z" fill="#f0f3fa"/><path d="m13 4.5h-2.39v1.5h2.39z" fill="#204a23"/><path d="m13 4h-2.34v1h2.34z" fill="#200d0d"/><path d="m11 4.5h-2.38v1.5h2.38z" fill="#2fb44a"/><path d="m9 4.5h-2.21v1.5h2.2v-1.5z" fill="#147a3d"/><path d="m7 4.5h-2v1.5h2z" fill="#122113"/><path d="m11 4h-2.38v1h2.38z" fill="#64bc46"/><path d="m9 4h-2.3v1h2.3z" fill="#19321a"/><path d="m7 4h-2v1h2z" fill="#010101"/><path d="m13 12.5h-2.39v1.5h2.39z" fill="#0f1b0f"/><path d="m13 12h-2.34v1h2.34z" fill="#15793d"/><path d="m11 12.5h-2.38v1.5h2.38z" fill="#1c3d1c"/><path d="m9 12.5h-2.21v1.5h2.2v-1.5z" fill="#3e1312"/><path d="m7 12.5h-2v1.5h2z" fill="#0f1b10"/><path d="m11 12h-2.38v1h2.38z" fill="#3e1312"/><path d="m9 12h-2.3v1h2.3z" fill="#15a049"/><path d="m7 12h-2v1h2z" fill="#1a351a"/><path d="m13 8.48h-2.39v1.52h2.39z" fill="#18b24b"/><path d="m13 8h-2.34v1h2.34z" fill="#6abd45"/><path d="m11 8.48h-2.38v1.52h2.38z" fill="#1c3d1c"/><path d="m9 8.48h-2.21v1.52h2.2v-1.52z" fill="#9c1c1f"/><path d="m7 8.48h-2v1.52h2z" fill="#204a23"/><path d="m11 8h-2.38v1h2.38z" fill="#188441"/><path d="m9 8h-2.3v1h2.3z" fill="#15793d"/><path d="m7 8h-2v1h2z" fill="#11190f"/></svg>