<svg height="18" viewBox="0 0 18 18" width="18" xmlns="http://www.w3.org/2000/svg"><path d="m0 0h18v18h-18z" fill="#f0f3fa"/><g fill="#4cb748"><path d="m8.01 13.36a4.3 4.3 0 0 1 -1.83-5.92 4.6 4.6 0 0 1 7.82-.21 5.26 5.26 0 0 0 -9.38-.6 4.92 4.92 0 0 0 2.1 6.77c1.14.6 2.4.73 3.57.48a4.62 4.62 0 0 1 -2.28-.52z"/><path d="m7.6 8.18a3.3 3.3 0 0 0 1.4 4.56c1.7.88 3.85.21 4.72-1.37-.85 1.2-2.14 1.6-3.4.98-1.35-.65-1.8-2.26-1.01-3.28.53-.67 1.12-.76 1.66-.48.6.31.82 1.03.5 1.6a.8.8 0 0 1 -1.07.32c-.33-.18-.49-.62-.31-1.03-.4.7-.12 1.57.6 1.95.72.37 1.53.12 2.01-.59.97-1.4.28-3.05-1.17-3.8a2.96 2.96 0 0 0 -3.93 1.14z"/></g></svg>