<svg height="18" viewBox="0 0 18 18" width="18" xmlns="http://www.w3.org/2000/svg"><path d="m0 0h18v18h-18z" fill="#f0f3fa"/><path d="m3.89 8.12c0-.4.05-.79.13-1.16.25-1.13 1.16-2.65 2.77-2.65 2.27 0 1.91 3.69-1.39 2.93.35.64 1.4 2.6 1.84 3.33 1.2 2 3.45 2.5 4.77 1.7a5.12 5.12 0 0 1 -8.11-4.16zm7.34-4.74h-.02a.05.05 0 0 0 -.06.04c0 .03.02.04.03.05a5.13 5.13 0 0 1 2.64 6.35c-.36 1.07-1.58 1.32-2.38-.03-.15-.24-.99-1.81-1.24-2.29 3.92-.75 1.68-5.8-3.28-4.18-.05.01-.04.08 0 .07 4.58-.99 5.3 4.06 1.59 4.21.41.74 1.1 1.96 1.39 2.45.74 1.35 2 1.64 3.17 1 .1-.04.18-.1.23-.16l-.28.4c-.5.58-2.6 1.3-4.07-1.1a58.19 58.19 0 0 1 -1.5-2.68c2.94.03 3.43-3.62.32-3.88-1.36-.1-3.54.85-4.4 3.27a6.04 6.04 0 0 0 5.63 8.1 6.03 6.03 0 0 0 2.23-11.62z" fill="#009f6b"/></svg>