<svg height="18" viewBox="0 0 18 18" width="18" xmlns="http://www.w3.org/2000/svg"><path d="m0 0h18v18h-18z" fill="#f0f3fa"/><g fill-opacity=".7"><path d="m7.5 3h1v5h-1zm0 6h1v2h-1zm0 3h1v1h-1zm0 2h1v1h-1z" fill="#e7da67"/><path d="m11 4h1v3h-1z" fill="#0fa0c7"/><path d="m9.49 5h1v3h-1zm0 4h1v2h-1zm0 3h1v1h-1zm0 2h1v1h-1z" fill="#6b6e70"/><path d="m11 8h1v1h-1zm0 2h1v1h-1z" fill="#0fa0c7"/><path d="m7 4h-1v3.21h1zm0 4h-1v2h1zm-1 2.36h1v.64h-1zm1 1.64h-1v1h1z" fill="#6b6e70"/><path d="m11 12h1v1h-1z" fill="#0fa0c7"/></g></svg>