<svg height="18" width="18" xmlns="http://www.w3.org/2000/svg"><path d="m0 0h18v18h-18z" fill="#de382c"/><g fill="#fff"><path d="m3 8.128 2-1.127v5.997h-2zm10 .001 2-1.129v5.998h-2v-4.87z"/><ellipse cx="13.977" cy="6.006" rx="1.043" ry="1.04"/><ellipse cx="5.997" cy="8.059" rx=".943" ry=".941"/><path d="m9 4-2 1.218v5.045c.017 1.514 1.26 2.735 2.792 2.735 1.543 0 2.793-1.238 2.793-2.765s-1.25-2.766-2.793-2.766c-.275 0-.54.04-.792.113zm0 5.5c.198-.21.48-.342.793-.342.599 0 1.085.481 1.085 1.074a1.08 1.08 0 0 1 -1.085 1.075c-.6 0-1.085-.481-1.085-1.075 0-.282.11-.54.291-.732z"/></g></svg>