<svg height="18" viewBox="0 0 18 18" width="18" xmlns="http://www.w3.org/2000/svg"><path d="m0 0h18v18h-18z" fill="#f0f3fa"/><path d="m4 11.69v-7.69h10v6.05c-.66.19-1.28.5-1.82.93l-.47.35c-.43.34-.84.67-1.44.67-.94 0-.5-1.73-.2-2.17.13.28.48.45.74.45.78 0 1.18-1.28.33-1.28-.17 0-.3.1-.42.2-.15.1-.26.2-.36 0a8.71 8.71 0 0 1 -.5-1.4l-.17-.52c-.84-2.28-2.47-2.28-2.47-2.28s-.5.36-.5 1.23c0 .88.34 2.05 1.06 3.68.44.99-3.14 1.69-3.78 1.78zm7.86.3c-.6.52-1.19 1.01-1.75 1.01-.74 0-1.11-.77-1.11-1.3 0-1.25.87-2.13.87-2.13-.71-2.44-1.93-3.75-2.34-3.75-.68 0-.06 1.4.53 2.7.23.51.45 1 .58 1.4.47 1.37-3.7 2.17-4.64 2.28v1.8h10v-3.3s-.26-.05-1.2.56c-.32.2-.64.47-.94.73z" fill="#87542d"/><path d="m11 6h1v2h-1z" fill="#d9d9d9" fill-opacity=".9"/></svg>