<svg height="18" viewBox="0 0 18 18" width="18" xmlns="http://www.w3.org/2000/svg" xmlns:xlink="http://www.w3.org/1999/xlink"><linearGradient id="a" gradientUnits="userSpaceOnUse" x1="3.35" x2="21.9" y1="3.12" y2="24.43"><stop offset="0" stop-color="#1a1e21"/><stop offset="1" stop-color="#06060a"/></linearGradient><path d="m0 0h18v18h-18z" fill="url(#a)"/><path d="m10.18 9.82-.13-.63h-3.3l-.32.63z" fill="#fff"/><path d="m5.7 10.34-.67-.5h.63c.1 0 .2-.07.26-.18l.57-1.14a.39.39 0 0 0 0-.35.3.3 0 0 0 -.26-.17h-2.63c-.1 0-.2.08-.26.19l-1.34 2.81h.68l1.1-2.33h1.94l-.24.5h-1.47c-.13 0-.25.1-.29.24-.03.14.02.3.13.37l1.6 1.17c.05.03.11.05.17.05h4.78l-.13-.66zm5.81-4.31c-1.01.1-2 .44-2.9.97 0 0 3.3-1.56 5.97.12l.4-.32c-.96-.6-2.15-.9-3.47-.77z" fill="#fff"/><g fill="#e40000"><path d="m15.85 6.7-4.42 3.43-.34-1.88a.3.3 0 0 0 -.3-.25h-3.48l-.33.65h3.57l.4 2.08c.02.1.09.2.18.24l.1.02c.07 0 .13-.02.18-.06l4.59-4z"/><path d="m13.6 7.88.63-.49a4.77 4.77 0 0 0 -2.67-.65c-.53.03-1.18.17-1.68.36 0 0 2.39-.45 3.72.78z"/></g></svg>