<!-- by TradingView --><svg width="18" height="18" viewBox="0 0 18 18" xmlns="http://www.w3.org/2000/svg"><path fill="#192A36" d="M0 0h18v18H0z"/><path d="M3 7H5.32c.42 0 1.37.31 1.37 1.39 0 .7-.39 1.39-1.23 1.39l1.33 1.94H7V12H5.74v-.28h.2L4.69 9.78H4V12h-.7V7.28H3V7Zm1 2.22h1.15c.62 0 .85-.37.85-.83 0-.46-.23-.83-.85-.83H4v1.66ZM11 7H7v.27h.33V12H11v-.55H8V9.54h2.33v.27h.34v-1.1h-.34V9H8V7.55h3V7ZM11.8 7H11l1.57 2.36L11 12h.8L13 9.78l1.14 1.94h-.34V12H15v-.28h-.29l-1.28-2.36 1.14-2.08H15V7h-1.4v.28h.4l-1 1.66L11.8 7Z" fill="#FFFEFD"/><path d="M7 6h4v-.17L10.33 5l-.66.83L9 5l-.67.83L7.67 5 7 5.83V6Z" fill="#EE8B1C"/></svg>