<svg fill="none" height="18" viewBox="0 0 18 18" width="18" xmlns="http://www.w3.org/2000/svg"><path d="m0 0h18v18h-18z" fill="#f0f3fa"/><g clip-rule="evenodd" fill="#3c4d5f" fill-rule="evenodd"><path d="m9.43865 10.4901c.05489-.017.21073-.1471.26739-.1923.09292-.0741.17825-.1374.27287-.2038.16859.1497 1.79429 1.4184 1.90709 1.4223.1164.0041.6968-.4713.8324-.5794l.8105-.6224c.0521-.0386.0847-.0631.1368-.1015.1996-.1475.0777-.1597.403.0761l.275.2199c-.0489.0173-.2441.1771-.3013.2227-.1468.1125-2.112 1.626-2.1299 1.626-.0981 0-2.16991-1.6333-2.47385-1.8676zm.93835-.71685c.0647-.01998.1321-.09057.1856-.1311l.2698-.20893c.1003-.07919.1345.01456.2888.12606.1466.11219.6688.54892.7824.53902.0921-.008.1942-.11785.4972-.33744.6289-.45583.3906-.43319.7487-.17626l.2559.22639c-.056.01731-.6792.51251-.7536.56591l-.379.2895c-.2334.1686-.3007.2614-.3776.2607-.1072-.0008-1.5043-1.12632-1.5182-1.15385zm.8815-.67912c.1016-.03139.5489-.43784.6275-.44673.0599-.00678.2573.16596.3169.21239l.321.23434c-.051.10099-.5912.47324-.6371.47035-.0642-.00403-.1288-.07683-.3111-.21205-.0651-.04829-.2833-.19691-.3172-.2583zm-5.13256 3.26357c-.06953 0-.2979-.1942-.36684-.249-.55556-.4421-1.2132-.9311-1.7935-1.3743l-.53858-.4468c-.07899-.0675-.08788-.0977-.13039-.2043-.19212.0594-.3602.2624-.27296.494.06096.1619.6937.6283.84983.7509.18424.1418 2.11425 1.6709 2.23822 1.6709.10766 0 .94179-.674 1.0955-.7914l1.79346-1.3661c.02351-.0032.13515.0882.17056.1165.7755.595 1.55136 1.2125 2.33336 1.7899.2188.1615.3015.2472.3824.2518.0856.0049.1692-.081.4101-.2639.7301-.5542 1.4598-1.0923 2.1808-1.6716l.3967-.3037c.0813-.0616.1253-.1577.1254-.2563.0001-.0949-.0404-.1921-.1272-.2634-.0667-.0548-.128-.1011-.1977-.1528-.5254-.38953-1.0465-.80174-1.5675-1.20255-.1312-.10501-1.1192-.88555-1.2093-.88555-.0969 0-.6041.40625-.7367.51278l-2.86641 2.19562c-.24437.1918-.4806.3591-.72179.5515z"/><path d="m5.48814 8.87317c.05883-.01823.24116-.16878.30464-.21868.1843-.14487.25638-.21423.32965-.21022.13985.00764.45153.37764.6169.4289-.01885.09383-.57763.48546-.63256.48222-.07441-.0044-.47127-.33736-.59016-.4256-.04489-.04797-.00596.00027-.02847-.05662zm-.35544-.26449c-.08986 0-.4203-.3407-.54028-.37786.00134-.00241 1.38544-1.11457 1.50076-1.14476.00731-.00191.01427-.00277.021-.00273.01047.00008.02037.00235.03013.00629.01604.00648.0317.0175.04882.0307l1.23487.93224c.0476.03829.14653.12406.19286.14049-.01297.06448-.0133.04874-.10935.1192l-.40251.29643c-.05546 0-.86656-.69201-.96683-.69201-.16294 0-.36275.19569-.54101.33207zm-.93839-.69902-.52607-.39674c.05142-.09322 2.43494-1.87031 2.44549-1.87031.01001 0 2.38919 1.75526 2.44551 1.85739-.17895.12581-.34815.29159-.52606.41667-.54477-.42687-1.09155-.84794-1.63948-1.26692-.14219-.10513-.20885-.16097-.27952-.16038-.06568.00055-.13483.04984-.27129.15359zm-1.19431-.41563c0 .21388.20524.32022.31728.40968.30352.24233 2.62342 2.07854 2.78017 2.09609.30241.0339 5.51315-4.35719 5.80305-4.35719.0469 0 .4478.33029.5403.39674.3253.23375.7298.57267 1.0619.8182l1.0718.84993c.0551.04304.1204.10485.1269.20919.1529-.01689.2986-.15645.2986-.41561 0-.17668-.2243-.30542-.3225-.38382-.2581-.20606-.5264-.42081-.7839-.62791l-1.7736-1.36504c-.1038-.08375-.1659-.12666-.2305-.12419-.0524.00201-.1064.03388-.1855.09806-.8741.70898-1.8119 1.3891-2.704 2.07471-.45157-.34778-2.76222-2.17259-2.88627-2.17259-.11582 0-2.6842 2.01572-2.98614 2.24769-.06228.05385-.12759.14796-.12759.24606z"/><path d="m6.11203 10.3575c-.06919 0-2.10322-1.59833-2.50846-1.92511-.10921-.08806-.27595-.17412-.30657-.34906-.17845.05537-.30606.21864-.2965.39181.00458.08279.04051.16787.11725.24449.84875.66102 1.71087 1.38347 2.57265 2.01007.23463.1706.31749.2727.42053.2703.17641-.0042 5.60667-4.25134 5.67087-4.30062.0398-.0331.0731-.04926.1052-.05161.1215-.00891 2.315 1.7781 2.5928 1.99315.0871.07018.1918.11739.2195.27575.1555-.00461.304-.18253.3006-.37186-.0015-.08729-.0353-.17703-.1156-.2533-.1364-.12966-.6824-.56209-.8791-.72069l-1.666-1.28405c-.2616-.18837-.3431-.30404-.4636-.28466-.054.00869-.1159.04457-.2054.11328-.5234.40183-5.48696 4.24211-5.55817 4.24211z"/><path d="m6.12796 11.3574c-.0974 0-.29999-.1821-.3921-.2543-.76501-.5993-1.5358-1.22606-2.30386-1.81862-.091-.08029-.08412-.07694-.13343-.20115-.1313.01457-.29857.17915-.29857.36 0 .24556.30551.44699.50036.60307.78149.6263 1.58737 1.2247 2.37788 1.8333.09884.0798.16915.118.23616.1202.13463.0044.25599-.1362.5688-.3762 1.03337-.7926 5.1477-3.97995 5.2173-3.97995.0719 0 1.0118.75539 1.0745.80384.5056.39853 1.1355.87022 1.6124 1.26107.0672.05516.0913.11484.1282.20801.1694-.10832.2844-.12949.2844-.41685 0-.2075-.4265-.48098-.6176-.63518l-2.3597-1.81959c-.0488-.03743-.0956-.04946-.1426-.04367-.1132.01393-.2279.13105-.377.24544l-5.18543 3.98448c-.04922.0357-.13598.1261-.18971.1261z"/></g></svg>