<svg height="18" width="18" xmlns="http://www.w3.org/2000/svg"><path d="m0 0h18v18h-18z" fill="#f0f3fa"/><g fill="#012267"><path d="m5.5 9h1v3h-1zm8.5-1.81h1v4.76h-1zm-10 2.39c.06-.2.35-.62 1-.58v1.13c-.28-.16-.88-.27-1 .65v1.22h-1v-3h1z"/><path d="m9 11.78c-.2.14-.44.22-.7.22-.71 0-1.3-.67-1.3-1.5s.59-1.5 1.3-1.5c.26 0 .5.08.7.23v-.23h1v2.63c-.05.49-.15 1.35-1.5 1.37-1.06.01-1.4-.5-1.45-.86h1c0 .1.16.28.51.29.38 0 .42-.43.44-.65zm0-1.28a.5.5 0 1 1 -1 0 .5.5 0 0 1 1 0z" fill-rule="evenodd"/><path d="m13.6 11c-.22.58-.82 1-1.53 1-.9 0-1.63-.67-1.63-1.5s.73-1.5 1.63-1.5 1.63.67 1.63 1.5v.17h-2.28c0 .22.11.68.66.66.11 0 .52-.06.63-.33h.9zm-1.53-1.33c-.45.01-.62.32-.65.47h1.3c-.02-.17-.2-.49-.65-.47z"/></g><path d="m3 8h.9a6.68 6.68 0 0 1 10.98-1.03l.12-.1a7 7 0 0 0 -12 1.13z" fill="#eb8e00"/></svg>