<svg height="18" width="18" xmlns="http://www.w3.org/2000/svg" xmlns:xlink="http://www.w3.org/1999/xlink"><linearGradient id="a" gradientUnits="userSpaceOnUse" x1="10.65" x2="4" y1="3.75" y2="11.02"><stop offset="0" stop-color="#0c4c91"/><stop offset=".61" stop-color="#0081ad"/><stop offset="1" stop-color="#084e92"/></linearGradient><linearGradient id="b" gradientUnits="userSpaceOnUse" x1="14.6" x2="5.38" y1="6.24" y2="13.57"><stop offset="0" stop-color="#03a251"/><stop offset=".42" stop-color="#8dc864"/><stop offset="1" stop-color="#009d4f"/></linearGradient><path d="m0 0h18v18h-18z" fill="#f0f3fa"/><path d="m3.5 10.07c.17 2.09 2.45 2.43 3.62 2.02-2.33.22-3.27-2.7-.02-5.4 2.6-2.17 4.68-1.63 5.38-1.1-.42-1.26-1.73-1.59-2.38-1.59-2.94-.2-6.8 3.27-6.58 6.06z" fill="url(#a)"/><path d="m12.95 7.94c-2.04 5.1-7.84 5.95-9.36 3.98.75 1.8 2.68 2.13 3.58 2.07a8.45 8.45 0 0 0 7.37-5.64l.96.62-.85-3.33-2.8 2.3z" fill="url(#b)"/></svg>