<svg height="18" viewBox="0 0 18 18" width="18" xmlns="http://www.w3.org/2000/svg" xmlns:xlink="http://www.w3.org/1999/xlink"><linearGradient id="a" gradientUnits="userSpaceOnUse" x1="8.78" x2="10.55" y1="5.69" y2="11.77"><stop offset="0" stop-color="#55859f"/><stop offset=".36" stop-color="#6cbde8"/><stop offset="1" stop-color="#4b95bc"/></linearGradient><linearGradient id="b" gradientUnits="userSpaceOnUse" x1="5.11" x2="13.02" y1="7.54" y2="9.91"><stop offset=".18" stop-color="#31333f"/><stop offset=".28" stop-color="#2e659e"/><stop offset=".46" stop-color="#565962"/></linearGradient><path d="m0 0h18v18h-18z" fill="#f0f3fa"/><path d="m12.35 5a9.76 9.76 0 0 0 -5.36 1.54c4.14-2.14 9.46-1.54 6.51 2.01-2.36 2.84-6.07 3.77-7.63 3.88a12.2 12.2 0 0 0 7.75-3.09c2-1.84 2.02-4.34-1.27-4.34z" fill="url(#a)"/><path d="m5.65 13a9.76 9.76 0 0 0 5.36-1.54c-4.14 2.14-9.46 1.54-6.51-2.01 2.36-2.84 6.07-3.77 7.63-3.88a12.2 12.2 0 0 0 -7.75 3.09c-2 1.84-2.02 4.34 1.27 4.34z" fill="url(#b)"/></svg>