<svg height="18" viewBox="0 0 18 18" width="18" xmlns="http://www.w3.org/2000/svg"><path d="m0 9a9 9 0 1 1 18 0 9 9 0 1 1 -18 0z" fill="#0036a7"/><path d="m5 4h8v7.3c0 1.55-2.63 3.36-4 3.7-1.35-.34-4-1.89-4-3.7z" fill="#fff"/><path d="m7.75 7.63c0-.49.39-.88.87-.88h.38v.38c0 .48-.4.87-.88.87h-.37zm-.5 0c0-.49-.4-.88-.88-.88h-.37v.38c0 .48.4.87.87.87h.38zm.51-.89a.87.87 0 0 0 0-1.24l-.26-.26-.27.26a.87.87 0 0 0 0 1.24l.27.26z" fill="#78af01"/><path d="m6 11.11v-2.11h6v2.11c0 1.17-1.88 2.35-3.05 2.97-1.07-.5-2.95-1.68-2.95-2.98zm4.87-3.11h-1.87l2.28-2.06v-.69l1.17 1.02h-.67z" fill="#0036a7"/></svg>