<svg height="18" viewBox="0 0 18 18" width="18" xmlns="http://www.w3.org/2000/svg"><path d="m0 0h18v18h-18z" fill="#f0f3fa"/><path d="m7.87 3.5 1.94 1.05v2.1l-1.94 1.04-1.93-1.04v-2.1zm-1.93 3.36 1.93 1.05v2.1l-1.93 1.05-1.94-1.06v-2.1l1.94-1.05zm8.06-2.3-1.94-1.06-1.93 1.07v2.13l1.93 1.07 1.94-1.07v-2.13zm-3.87 2.3 1.93 1.05v2.1l-1.93 1.05-1.94-1.06v-2.1l1.94-1.05zm-4 4.54 1.74-.96 1.74.96v1.92l-1.74.96-1.74-.96zm1.74-1.18 1.94 1.07v2.14l-1.94 1.07-1.93-1.07v-2.13l1.93-1.07z" fill="#ba3e31" fill-rule="evenodd"/></svg>