<svg height="18" viewBox="0 0 18 18" width="18" xmlns="http://www.w3.org/2000/svg"><path d="m0 0h18v18h-18z" fill="#f0f3fa"/><g fill-rule="evenodd"><path d="m9 14a5 5 0 1 0 0-10 5 5 0 0 0 0 10zm-.05-1.98a3.12 3.12 0 1 0 0-6.25 3.12 3.12 0 0 0 0 6.25z" fill="#9cc8a8"/><path d="m9 14a5 5 0 1 0 0-10 5 5 0 0 0 0 10zm-.05-1.72c1.87 0 3.38-1.5 3.38-3.36a3.37 3.37 0 0 0 -3.38-3.36 3.37 3.37 0 0 0 -3.39 3.36 3.37 3.37 0 0 0 3.39 3.36z" fill="#338bad"/><path d="m9 14a5 5 0 1 0 0-10 5 5 0 0 0 0 10zm-.31-1.72a3.75 3.75 0 1 0 0-7.5 3.75 3.75 0 0 0 0 7.5z" fill="#f28128"/><path d="m9 14a5 5 0 1 0 0-10 5 5 0 0 0 0 10zm.17-1.56a3.8 3.8 0 0 0 3.73-3.74c0-1.94-1.66-3.3-3.74-3.3s-3.76 1.58-3.76 3.52 1.68 3.52 3.76 3.52z" fill="#9fc89b"/><path d="m9 14a5 5 0 1 0 0-10 5 5 0 0 0 0 10zm.16-1.15a3.74 3.74 0 0 0 3.75-3.72 3.74 3.74 0 0 0 -3.75-3.72 3.74 3.74 0 0 0 -3.76 3.72 3.74 3.74 0 0 0 3.75 3.72z" fill="#f4d20d"/><path d="m9 14a5 5 0 1 0 0-10 5 5 0 0 0 0 10zm.16-.68c2.3 0 4.16-1.85 4.16-4.14a4.15 4.15 0 0 0 -4.16-4.14 4.15 4.15 0 0 0 -4.17 4.14 4.15 4.15 0 0 0 4.17 4.14z" fill="#2f90bf"/><path d="m9 14a5 5 0 1 0 0-10 5 5 0 0 0 0 10zm.18-.42a4.43 4.43 0 0 0 4.46-4.4c0-2.43-2-4.4-4.46-4.4a4.43 4.43 0 0 0 -4.45 4.4c0 2.43 2 4.4 4.45 4.4z" fill="#a0c899"/></g><path d="m5.07 6.08c.35-.47.77-.87 1.25-1.2a4.22 4.22 0 0 1 2.9-.56h-.2c-2.54 0-4.61 2.15-4.7 4.86a4.77 4.77 0 0 1 .13-1.3c.07-.65.27-1.27.62-1.8z" fill="#f48325"/><path d="m9 14a5 5 0 1 0 0-10 5 5 0 0 0 0 10zm0-.31a4.69 4.69 0 0 0 .22-9.37 4.12 4.12 0 0 0 -4.77 3.57 4.7 4.7 0 0 0 4.55 5.8z" fill="#312345" fill-rule="evenodd"/></svg>