<svg height="18" width="18" xmlns="http://www.w3.org/2000/svg"><path d="m0 0h18v18h-18z" fill="#281ea8"/><g fill="#fff"><path d="m9 11.98v-3.03c-.3.07-.65.12-1 .15v2.88c0 .7-.33.9-.54 1.02h2.1c-.2-.13-.56-.32-.56-1.02z"/><path d="m7 8.06v-3.48h1.38c.95.02 1.8.41 1.8 1.5 0 .87-.6 1.94-3.18 1.98zm4.52 3.94c-.18-.15-.4-.28-.49-.75a7.22 7.22 0 0 0 -1.36-3.1c.04 0 .06-.02.1-.03.88-.44 1.42-1.17 1.42-2.05 0-.63-.32-1.27-.9-1.65a3.38 3.38 0 0 0 -1.86-.42h-2.98c.2.13.55.32.55 1.02v5.97c0 .7-.35.88-.55 1.01h2.17c-.19-.13-.62-.3-.62-1.01v-2.34c.72 0 1.38-.1 1.96-.24.52.61.9 1.7 1.03 2.57.09.65-.14.87-.3 1.02z"/><path d="m11.7 6.2v-.13c.01-.3-.06-.6-.2-.88a1.98 1.98 0 0 1 1.49 1.9c0 .87-.52 1.57-1.36 2.02a6.65 6.65 0 0 1 1.46 3.02c.1.47.32.71.48.87h-1.82c.16-.16.4-.49.3-1.14-.2-1.3-.76-2.4-1.38-3 1.17-.39 1.3-1.1 1.3-1.74 0-.36-.09-.67-.27-.91zm-2.8-1.2c.35.1.65.28.82.58h-.72v1.68l-.15.06c-.26.1-.55.23-.86.27v-1.7c0-.6-.24-.73-.43-.84a1.54 1.54 0 0 1 -.1-.05z"/></g></svg>