<svg height="18" viewBox="0 0 18 18" width="18" xmlns="http://www.w3.org/2000/svg"><path d="m0 0h18v18h-18z" fill="#f0f3fa"/><path d="m13.5 8.5h-5v5h5zm-5.5-.5v6h6v-6z" fill-rule="evenodd"/><path d="m13 9h-4v4h4zm-3.7.5h1.33v.06l-.52.06v1.34h1.79v-1.34l-.5-.06v-.06h1.06v.06l-.17.06v2.82l.46.1h-1.35l.5-.1v-1.34h-1.8v1.33l.53.1h-1.32l.34-.1v-2.78l-.34-.15z" fill="#0e6f60"/><path d="m7 9.5a3 3 0 1 0 0-6 3 3 0 0 0 0 6zm-.14-4.5h1.3v.65h-1.3zm-.65 0h.65v3.25h-.65z" fill="#f27d00"/><path d="m7 9a2.5 2.5 0 1 0 0-5 2.5 2.5 0 0 0 0 5zm0 .5a3 3 0 1 0 0-6 3 3 0 0 0 0 6z" fill-rule="evenodd"/></svg>