<svg height="18" width="18" xmlns="http://www.w3.org/2000/svg"><path d="m0 0h18v18h-18z" fill="#173378"/><path d="m9.016 4c.481.453 1.019.933 1.488 1.4l-.546.68v.038l1.443.626.977-.652-.59-.634v-.049c.605-.416 1.125-.818 1.712-1.202l-.283 2.788h-8.434l-.283-2.788c.587.384 1.107.786 1.712 1.202v.049l-.59.634.98.652 1.44-.626v-.037l-.546-.68c.47-.468 1.007-.948 1.488-1.401zm4.133 3.998-.083 1.003h-3.066v4.013h1.466c.34-.003.694-.403.626-.648-.086-.354-.39-.589-.673-.763.056 0 1.098-.793 1.588-1.135-.024.22-.375 3.07-.378 3.12l-3.601 1.412h-.056l-3.602-1.413c-.003-.049-.355-2.9-.375-3.119.487.342 1.529 1.135 1.585 1.135-.284.174-.588.41-.67.763-.071.245.283.645.623.648h1.467v-4.014h-3.063l-.087-1.002h8.298z" fill="#fff"/></svg>