<svg fill="none" height="18" width="18" xmlns="http://www.w3.org/2000/svg" xmlns:xlink="http://www.w3.org/1999/xlink"><linearGradient id="a" gradientUnits="userSpaceOnUse" x1="7.121" x2="11.007" y1="7.124" y2="7.144"><stop offset="0" stop-color="#cd6b32"/><stop offset=".433" stop-color="#ffe490"/><stop offset=".737" stop-color="#f4ac64"/><stop offset=".984" stop-color="#e17e49"/></linearGradient><linearGradient id="b" gradientUnits="userSpaceOnUse" x1="9.015" x2="9.015" y1="3.639" y2="6.189"><stop offset=".104" stop-color="#f5c15f"/><stop offset=".296" stop-color="#ebc683"/><stop offset=".528" stop-color="#feebb4"/><stop offset=".72" stop-color="#f4d38d"/><stop offset="1" stop-color="#e3ac4d"/></linearGradient><path d="m0 0h18v18h-18z" fill="#ff0016"/><g clip-rule="evenodd" fill-rule="evenodd"><path d="m6 11.354h6v2.646h-6zm0-8.354h6v5.531h-6z" fill="#fff"/><path d="m2 8.5v3.5h14v-3.5z" fill="#fff"/><path d="m9.302 5.234h-.265v1.687l1.492-.03c.04-.281.294-.801.372-.961l.022-.047c.18-.516.017-.828-.228-.961a.802.802 0 0 0 -.546-.047c-.319.087-.717.242-.847.36zm-.604 0h.265v1.687l-1.493-.031c-.04-.281-.294-.801-.372-.961a1.232 1.232 0 0 1 -.022-.047c-.181-.516-.017-.828.228-.961a.802.802 0 0 1 .546-.047c.319.087.717.242.847.36z" fill="#de0f2c"/></g><path d="m7.361 6.382.06-.293-.235.059.235.712.1.576h2.945l.11-.722.1-.176v-.098l.14-.292-.28-.059.04.298-.16-.171-.12.498.17-.05v.118s-.133.078-.25.078c-.2 0-.271-.178-.271-.178s.07-.024.07-.1-.07-.093-.07-.093.037-.042.07-.048c.066-.014.13.112.13.112s.18-.282.07-.352c-.065-.041-.2.015-.2.015s.066-.156.053-.256c-.014-.103-.123-.28-.123-.28s-.13.124-.188.24c-.058.118 0 .281 0 .281s-.108-.11-.182-.112c-.102-.002-.12.127-.12.225 0 .114.06.224.06.224s.044-.093.1-.098c.043-.003.1.05.1.05s-.063.016-.063.092.063.1.063.1-.073.17-.318.17c-.173 0-.282-.173-.282-.173v-.144h.088l.179.127v-.517l-.267.105v-.105l.19-.205h-.61l.191.205v.105l-.267-.105v.517l.182-.127h.085v.144s-.13.154-.31.154c-.23 0-.35-.168-.35-.168s.057-.024.057-.093c0-.068-.07-.083-.07-.083l.07-.048.16.048s.12-.268-.063-.341c-.087-.035-.185.051-.185.051s.038-.176 0-.29c-.038-.115-.178-.244-.178-.244s-.122.178-.135.292c-.012.115.07.259.07.259s-.095-.043-.14-.017c-.165.095-.098.27.018.373 0-.039.018-.071.065-.102.032-.021.122-.03.122.02-.041.013-.065.038-.065.082s.03.076.065.093c-.04.122-.16.168-.253.168-.122 0-.223-.092-.242-.168l.16.049-.16-.498-.16.166z" fill="url(#a)"/><path d="m7.498 7.435h3.038s.162 0 .162.181c0 .18-.162.192-.162.192h-3.038s-.194-.011-.194-.197c0-.185.194-.176.194-.176z" fill="#728e96"/><path d="m8.696 4h.61v1.945h-.61z" fill="url(#b)"/><path d="m2.5 9h13v2.5h-13z" fill="#ff0016"/><path d="m3.969 9.5h10.061v1.5h-10.06v-1.5z" fill="#f8d247"/></svg>