<svg height="18" width="18" xmlns="http://www.w3.org/2000/svg"><path d="m0 0h18v18h-18z" fill="#003f7e"/><g fill="#fff"><path d="m15 13h-10v-3.84c0-.28-.142-.443-.428-.446h-.378v-.9h.483c.253.004.39-.191.418-.408.035-.287-.18-.406-.448-.406h-.754v3h-.893v-4c.619 0 1.231-.017 1.85 0 .694.019 1.226.757 1.152 1.419-.04.363-.213.667-.47.917.266.124.464.334.464.643v3.02h.3v-5.999c.52-.031 1.144 0 1.664 0 .727.004 1.395.56 1.605 1.322a1.68 1.68 0 0 1 -.758 1.862c-.345.2-.907.264-1.309.264v-.752c.547 0 1.115-.235 1.194-.835.078-.596-.324-.86-.897-.86h-.597v5h7.802v1z"/><path d="m10 6h3.803c.6 0 1.197.593 1.197 1.232v2.768h-1.002v-2.504c0-.336-.276-.496-.56-.5-.233-.003-.438 0-.438 0v3.004h-.941v-2.477c0-.281-.107-.52-.396-.526h-.663v3.003h-1z"/></g></svg>