<svg height="18" viewBox="0 0 18 18" width="18" xmlns="http://www.w3.org/2000/svg" xmlns:xlink="http://www.w3.org/1999/xlink"><linearGradient id="a" gradientUnits="userSpaceOnUse" x1="3.35" x2="21.9" y1="3.12" y2="24.43"><stop offset="0" stop-color="#1a1e21"/><stop offset="1" stop-color="#06060a"/></linearGradient><path d="m0 0h18v18h-18z" fill="url(#a)"/><g fill="#fff"><path d="m11.45 7h-1.12l-1.01 1.32-1-1.32h-1.14l1.46 1.96-1.51 2.04h1.19l1-1.39 1 1.4h1.19l-1.53-2.06zm-5 1.4c0-.8-.66-1.4-1.52-1.4h-1.94v1h1.85c.24 0 .74.04.74.51 0 .48-.48.49-.74.49h-1.85v2h1v-1h.85l.57 1h1.22l-.85-1.44c.42-.25.67-.68.67-1.17z"/><path d="m14 7a2 2 0 0 1 1.43.57 2 2 0 0 1 .58 1.43c0 1.14-.86 2-2 2s-2-.86-2-2c0-.55.2-1.06.57-1.43a2 2 0 0 1 1.43-.57zm.5 1.13a1 1 0 0 1 -.02 1.75.94.94 0 0 1 -.88.04 1 1 0 0 1 -.01-1.83.94.94 0 0 1 .91.04z" fill-rule="evenodd"/></g></svg>