<svg height="18" width="18" xmlns="http://www.w3.org/2000/svg"><path d="m0 0h18v18h-18z" fill="#ce2028"/><path d="m8.328 6.002 3.062-.002.412.021.184.025.172.033.156.049.14.058.125.07.113.082.096.097.073.11.063.125.042.14.025.155.009.168-.014.188-.034.204-.06.25-.087.231-.11.216-.147.192-.178.173-.215.144-.256.124-.23.091.11.056.16.042.13.067.106.085.085.107.06.125.039.149.017.164-.003.207-.014.234-.025.543v1.275h-2.002v-1.673l-.014-.088-.028-.077-.043-.054-.062-.043-.073-.027-.09-.021-.122-.017h-.421l-.482 2h-2zm1.639 2.506.158-.009.144-.021.13-.049.116-.06.099-.083.087-.106.06-.134.042-.152.02-.15-.014-.119-.046-.088-.068-.067-.09-.048-.116-.03-.135-.016-.15-.003h-.186l-.223 1.135z" fill="#fff"/><path d="m7.96 5.241-.43.136-.409.156-.388.18-.365.19-.34.21-.318.227-.29.244-.134.127-.127.13 2.468.88-.04.279-5.587-2.034h3.518l.271-.16.287-.153.294-.138.308-.13.317-.117.326-.103.336-.088.343-.077zm5.624 8.249-.076-.656-.589.091-.61.074-.632.045-.648.017-.381-.005-.379-.017-.736-.06-.713-.096-.682-.134-.65-.164-.612-.199-.572-.227-.268-.124-.258-.13-.247-.14-.236-.142-.218-.15-.208-.156-.193-.162-.182-.167-.16-.173-.152-.173-.132-.179-.117-.187-.102-.19-.082-.193-.065-.193-.047-.2-.026-.205-.011-.205.006-.2.03-.202.046-.199.065-.198.082-.193.102-.193.117-.187.134-.182-.138-.536-.122.13-.114.134-.106.133-.102.14-.093.141-.085.145-.15.295-.116.303-.048.156-.037.153-.032.162-.024.159-.015.326.009.235.03.238.045.23.063.23.083.221.095.224.117.216.13.207.145.204.162.201.175.193.189.187.203.182.217.176.23.167.242.162.251.153.267.142.274.139.286.127.297.12.305.113.639.193.671.153.698.114.363.04.364.03.373.017.374.009.433-.009.431-.028.429-.045.416-.057.411-.074.4-.088.388-.099.38-.11z"/></svg>