<svg fill="none" height="18" viewBox="0 0 18 18" width="18" xmlns="http://www.w3.org/2000/svg"><path d="m0 0h18v18h-18z" fill="#f0f3fa"/><g clip-rule="evenodd" fill-rule="evenodd"><path d="m5.4946 6h7.0108c1.372 0 2.4946 1.34683 2.4946 2.99277 0 1.64593-1.1227 2.99283-2.4946 2.99283h-7.0108c-1.37194 0-2.4946-1.3467-2.4946-2.99274 0-1.64603 1.12257-2.99286 2.4946-2.99286z" fill="#32609b"/><path d="m5.5 6c1.38073 0 2.5 1.34311 2.5 3 0 1.6569-1.11927 3-2.5 3s-2.5-1.3431-2.5-3c0-1.65689 1.11927-3 2.5-3z" fill="#279857"/><path d="m12 7h.5v2.69915c0 .44045.1558.80085.4921.80085h.0158c.3363 0 .4921-.3604.4921-.80085v-2.69915h.5v2.70695c0 .71115-.4443 1.29305-.9873 1.29305h-.0254c-.543 0-.9873-.5819-.9873-1.29305z" fill="#f0f3fa"/><path d="m6.35995 8.25h.56243s-.16309-1.25-1.43368-1.25c-1.27058 0-1.3387.94147-1.3387 1.03882 0 .09734.04843.70341 1.21739 1.14126.56699.21244 1.03261.24324 1.03261.72988 0 .32114-.23856.57424-.8782.57424-.63963 0-.99247-.58512-.99247-.9842h-.52933s0 1.5 1.49979 1.5 1.49979-1.1776 1.49979-1.1776.05124-.65142-.98146-1.00248c-.97673-.33201-1.26812-.47692-1.26812-.81751s.29766-.50241.71669-.50241.79405.19523.89326.75z" fill="#f0f3fa"/><path d="m8.81818 8.75s-.81818.30345-.81818 1.0237c0 .7202.52457 1.2263 1.04898 1.2263s.76564-.1107 1.05932-.5l.5036.5.3881-.4185-.5455-.5815.2833-.781-.472-.16547-.1469.50606-.65289-.80959s.71579-.32901.71579-.91299-.40907-.83701-.88112-.83701c-.61886 0-1.02795.38308-1.02795.85644s.54545.89356.54545.89356zm.27275.25.81818 1.03s-.30305.47-.70346.47-.66018-.44-.66018-.73c0-.29001.25321-.61003.54546-.77zm.54544-1.07438c0 .25741-.42013.57426-.42013.57426s-.39806-.42575-.39806-.61385.17697-.38615.42021-.38615c.24325 0 .39798.16833.39798.42574z" fill="#f0f3fa"/></g></svg>