<svg height="18" width="18" xmlns="http://www.w3.org/2000/svg"><path d="m0 0h18v18h-18z" fill="#f0f3fa"/><path d="m6.03 12.39 1.06-1.4c-.9-.08-1.38-.54-1.31-1.29h-1.78c0 .72.27 2.18 2.03 2.69zm2.41-6.39c.22.18.27.28.27.44h1.68c0-.6-.25-1.52-.95-1.98-.54-.35-1.14-.46-2.27-.46-2.91 0-3.17 1.7-3.17 2.61 0 1.84 1.72 2.11 2.47 2.23.97.17 1.57.29 1.87.48l1.08-1.47a5.66 5.66 0 0 0 -2.8-.75c-.54-.04-.84-.06-.84-.49 0-.48.29-.81 1.45-.81.6 0 1.02.05 1.21.21zm1.4 5h1.16v-1.64zm4.16 2h-1.46l-1.54 2v-2h-4.73l4.81-7h1.92v5h1z"/></svg>