<svg height="18" width="18" xmlns="http://www.w3.org/2000/svg"><path d="m0 0h18v18h-18z" fill="#0093dd"/><g fill="#fff"><path d="m4 5.004v4.766s.005.09.03.244c.117.709.665 2.774 3.16 3.607 2.769.925 5.14-.464 6.127-1.919.63-.93.683-1.93.683-1.93h-5.517c.926.369 1.91.677 2.14 1.666.164.714-.315 1.153-.482 1.293-.45.378-.786.39-1.202.395-1.07.013-.895-.745-.94-1.219-.019-.211 0-6.899 0-6.899z"/><path d="m13.998 7.355.002-.133v-1.974s-1.771-.702-3.354.256c-1.584.956-1.85 2.196-1.85 2.196s-.251.927-.285 1.277c-.014.141-.02.343-.028.483h5.506c-1.238-.462-1.721-.714-2.302-1.239-.75-.745-.45-1.53-.177-1.9.598-.804 1.656-.638 2.102.145.069.121.139.24.178.327.108.19.155.324.208.562z"/></g></svg>