<svg height="18" viewBox="0 0 18 18" width="18" xmlns="http://www.w3.org/2000/svg"><path d="m0 0h18v18h-18z" fill="#f0f3fa"/><path d="m14 7.07a3.08 3.08 0 0 0 -4.98-2.41c-.54-.4-1.2-.66-1.95-.66a3.08 3.08 0 0 0 -3.07 3.07c0 1.7 1.38 2.93 3.07 2.93.7 0 1.35-.08 1.85-.48.03.03.03.06.06.06.1.16.2.31.26.47.09.25.15.53.15.82a2.8 2.8 0 0 1 -.4 1.42 2.4 2.4 0 0 1 -1.95 1c-1.28 0-2.37-1.17-2.37-2.46 0-.25.08-.5.18-.75v-.03c0-.03 0-.06-.03-.06-.19-.15-.42-.35-.48-.35-.03 0-.06 0-.09.03v.04a3.08 3.08 0 0 0 4.73 3.64c.54.4 1.2.65 1.92.65a2.96 2.96 0 0 0 3.07-3.07c0-.72-.25-1.38-.66-1.91a3 3 0 0 0 .69-1.95zm-6.93 2.26c-.47 0-.9-.1-1.28-.35.37-.25.81-.31 1.28-.31s.91.06 1.29.31c-.35.26-.79.35-1.29.35zm3.83 3.98a1.75 1.75 0 0 1 -1.35-.53 3.2 3.2 0 0 0 .63-1.85c0-.32-.12-.85-.22-1.14.29.1.46.21 1.23.21.68 0 1.09-.08 1.59-.48.28.37.44.88.44 1.4 0 1.26-.74 2.37-2.32 2.39zm-1.26-4.31c.38-.25.82-.34 1.29-.34s.9.1 1.28.35c-.37.25-.81.31-1.28.31-.5-.03-.94-.1-1.29-.31zm3.19-.47a3.23 3.23 0 0 0 -1.9-.54c-.72 0-1.38.08-1.91.48-.54-.39-1.2-.47-1.92-.47-.69 0-1.31.14-1.81.54a2.5 2.5 0 0 1 -.62-1.47 2.5 2.5 0 0 1 2.43-2.4 2.39 2.39 0 0 1 2.32 2.4v.16c0 .06 0 .1-.03.16 0 .06.03.09.1.09.2 0 .41-.22.65-.22.1 0 .07-.17.07-.22 0-.69-.22-1.35-.63-1.85.38-.28.85-.52 1.38-.52a2.44 2.44 0 0 1 2.37 2.4c-.06.54-.22 1.1-.5 1.47z" fill="#878787"/></svg>