<svg fill="none" height="18" width="18" xmlns="http://www.w3.org/2000/svg"><path d="m0 0h18v18h-18z" fill="#a8d7d6"/><path clip-rule="evenodd" d="m3.12 8.512.41.148c.462.182 1.017.443 1.015 1.18 0 .763-.594 1.16-1.358 1.16-.663 0-1.187-.353-1.187-.353v-.647h.127l.025.1c.126.478.628.626.882.663.053.008.106.012.16.008 0 0 .826-.039.826-.689 0-.413-.253-.697-.714-.873l-.434-.162c-.645-.252-.872-.554-.872-1.04 0-.624.553-.985 1.198-1.007.65 0 1.13.346 1.13.346v.654h-.113l-.023-.08c-.188-.685-.767-.683-.767-.683a.906.906 0 0 0 -.166-.014c-.452 0-.747.217-.747.551 0 .3.137.545.608.738zm1.744 2.488 1.468-4h.563l1.469 4h-.62c-.482-1.255-1.978-1.48-1.978-1.48l-.55 1.48zm1.632-3.5-.613 1.703s.928.206 1.46.76zm6.004 3.5 1.468-4h.564l1.468 4h-.62c-.48-1.255-1.977-1.48-1.977-1.48l-.55 1.48zm1.633-3.5-.614 1.703s.929.206 1.46.76zm-3.543 1.833h.954v1.27a1.24 1.24 0 0 1 -.627.166c-.923 0-1.6-.91-1.6-1.78 0-.923.537-1.764 1.455-1.764 0 0 .83-.094 1.109.775h.11v-.583a2.356 2.356 0 0 0 -.333-.206c-.292-.144-.625-.211-1.014-.211h-.002c-1.244 0-1.96.845-1.96 2.047 0 1.22.838 1.953 2.008 1.953.536 0 1.143-.142 1.492-.401v-1.599h-1.592z" fill="#1e327c" fill-rule="evenodd"/></svg>