<svg height="18" viewBox="0 0 18 18" width="18" xmlns="http://www.w3.org/2000/svg" xmlns:xlink="http://www.w3.org/1999/xlink"><linearGradient id="a" gradientUnits="userSpaceOnUse" x1="13" x2="15" y1="9" y2="9"><stop offset="0" stop-color="#006071"/><stop offset="1" stop-color="#41a6bb"/></linearGradient><linearGradient id="b" gradientUnits="userSpaceOnUse" x1="2" x2="6" y1="9" y2="9"><stop offset="0" stop-color="#016171"/><stop offset="1" stop-color="#1a7b8d"/></linearGradient><linearGradient id="c" gradientUnits="userSpaceOnUse" x1="6.33" x2="12.52" y1="9.95" y2="9.99"><stop offset="0" stop-color="#238598"/><stop offset="1" stop-color="#44a9be"/></linearGradient><path d="m0 0h18v18h-18z" fill="#f0f3fa"/><path d="m13 6.88v4.23c0 .11.11.12.2.16l1.22.53c.08.04.44.2.5.2a.1.1 0 0 0 .05-.03.12.12 0 0 0 .03-.06v-5.82a.12.12 0 0 0 -.03-.06.1.1 0 0 0 -.05-.03c-.06 0-.41.16-.49.2-.36.17-.85.35-1.22.52-.06.03-.21.06-.21.16" fill="url(#a)"/><path d="m2 8.02c0 .25 0 .38.12.61a.9.9 0 0 0 .27.32l.16.12 1.85 1.23h-2.3c-.07.02-.1.08-.1.18v.4c0 .06.08.11.13.11h3.16c.36 0 .7-.4.7-.92 0-.3.01-.44-.11-.7-.16-.32-.66-.57-.93-.77l-.16-.1-1.16-.79h2.17c.23 0 .19-.1.19-.56.01-.12-.07-.15-.16-.15h-2.9c-.27 0-.48.04-.65.2-.14.15-.28.4-.28.74z" fill="url(#b)"/><path d="m6.33 10.9c0 .08.05.1.13.1h2.77c.22 0 .17-.15.17-.54 0-.12-.06-.14-.14-.15h-1.91c.04-.08.55-.76.65-.89l.32-.42.34-.43c.07.05.45.6.54.72l.53.73c.09.17.24.33.35.49.04.04.05.07.08.12.09.11.2.3.29.34.08.05.55.04.68.04h1.08c.17 0 .31 0 .31-.13 0-.1-.27-.42-.33-.51l-.36-.48-.72-.97-.17-.24-.18-.25-.81-1.09c-.27-.4-.21-.32-.69-.32-.12 0-.32.32-.4.42l-.36.5-2 2.69c-.05.06-.17.17-.17.27" fill="url(#c)"/></svg>