<svg height="18" viewBox="0 0 18 18" width="18" xmlns="http://www.w3.org/2000/svg"><path d="m0 0h18v18h-18z" fill="#f0f3fa"/><path d="m13.27 11.1c.9-2.45 0-5.09-2.15-6.4a5.16 5.16 0 0 0 -2.7-.7c-.12 0-.13.03-.03.1.18.1.37.17.56.25a5.3 5.3 0 0 1 .49 9.5c-.13.07-.12.1.03.12h.18c.46.04.95.07 1.37-.19a5.18 5.18 0 0 0 2.25-2.68zm-.95 2.71a5.3 5.3 0 0 0 2.11-7 5 5 0 0 0 -3.8-2.79c-.04 0-.07.01-.09.06v.09a5.17 5.17 0 0 1 3.43 3.55 5.3 5.3 0 0 1 -2.51 6.13c-.14.07-.13.12.02.14.3.03.59-.03.84-.18zm-3.15-9.01a5.09 5.09 0 0 1 2.36 4.8 5.17 5.17 0 0 1 -2.75 4.27c-.26.13-.53.17-.82.11-.13-.02-.14-.07-.02-.13 4.02-2.26 3.47-8.37-1-9.65-.03-.01-.04-.04-.04-.08l.01-.06h.02c.82.05 1.57.3 2.24.74zm-4 2.95c1.37-.86 2.97-.02 3.26 1.61 0 .02 0 .02.02.02h.06c.04 0 .05-.02.05-.06-.06-1.17-.5-2.02-1.3-2.55-2.4-1.59-5.29 1.2-3.9 3.85.46.88 1.2 1.39 2.23 1.53.19.02.37 0 .55-.06.13-.05.13-.08-.01-.1a2.17 2.17 0 0 1 -1.93-1.69c-.29-.96.16-2.05.96-2.56z" fill="#f7931a"/></svg>