<svg height="18" width="18" xmlns="http://www.w3.org/2000/svg" xmlns:xlink="http://www.w3.org/1999/xlink"><linearGradient id="a" gradientUnits="userSpaceOnUse" x1="9" x2="9" y1="2" y2="16"><stop offset=".15" stop-color="#007ec8"/><stop offset=".46" stop-color="#243574"/><stop offset=".61" stop-color="#017dc5"/><stop offset="1" stop-color="#213470"/></linearGradient><linearGradient id="b" gradientUnits="userSpaceOnUse" x1="10.83" x2="6.9" y1="4.78" y2="11.95"><stop offset="0" stop-color="#00b5ee"/><stop offset="1" stop-color="#008bd0"/></linearGradient><path d="m0 0h18v18h-18z" fill="#f0f3fa"/><ellipse cx="9.52" cy="4.32" fill="#223472" rx=".81" ry="1.07"/><path d="m8.3 9.28h3.12l-.14.5h-2.98zm-1.06 1.42h3.38l-.15.5h-3.23z" fill="#1fa7e1"/><path d="m9.03 5.74c-2.16-1.66-2.53-3.2-2.53-3.74v1.51c0 .87.4 2.44 2.12 3.62 1.38.95 2.34 2 2.65 2.4 0 .23-.37.98-1.85 2.1-1.49 1.1-1.86 2.19-1.86 2.59v1.78c.04-.35.39-1.68 2.13-3 1.39-1.05 1.78-2.2 1.81-2.63v-1.65c0-.36-.3-1.33-2.47-2.98z" fill="url(#a)"/><path d="m8.92 7.52c1.64-1.35 2.08-2.64 2.08-3.11v1.95c0 1.15-.96 2.13-1.44 2.48-1.8 1.3-2.46 2.8-2.56 3.38v-2.05c-.04-.32.29-1.3 1.92-2.65z" fill="url(#b)"/></svg>