<svg height="18" width="18" xmlns="http://www.w3.org/2000/svg"><path d="m0 0h18v18h-18z" fill="#009cdb"/><path d="m8.873 5.35-.198.07c-.257.108-.49.262-.68.454a2.369 2.369 0 0 0 -1.852-.874c-1.288 0-2.333.991-2.333 2.218 0 .312.067.611.19.88-.597.332-1 .957-1 1.67 0 1.065.896 1.928 2.004 1.928.14 0 .278-.013.412-.04.304.786 1.097 1.344 2.025 1.344.892 0 1.658-.517 1.986-1.253.25.117.529.181.829.181.709 0 1.326-.373 1.65-.924.166.03.336.047.508.047 1.43 0 2.586-1.111 2.586-2.486s-1.157-2.486-2.585-2.486c-.374 0-.727.077-1.048.211a2.14 2.14 0 0 0 -1.852-1.045c-.148 0-.293.014-.434.044l-.208.06z" fill="#fff"/></svg>