<svg height="18" width="18" xmlns="http://www.w3.org/2000/svg" xmlns:xlink="http://www.w3.org/1999/xlink"><linearGradient id="a" gradientUnits="userSpaceOnUse" x1="5.51" x2="11.38" y1="4.74" y2="6.01"><stop offset=".23" stop-color="#f9bf13"/><stop offset="1" stop-color="#fdefcb"/></linearGradient><linearGradient id="b" gradientUnits="userSpaceOnUse" x1="11.51" x2="14.15" y1="7.09" y2="6.41"><stop offset=".22" stop-color="#fff3db"/><stop offset=".91" stop-color="#f9bf13"/></linearGradient><linearGradient id="c" gradientUnits="userSpaceOnUse" x1="12.14" x2="13.62" y1="7.85" y2="13.04"><stop offset="0" stop-color="#b9c7e2"/><stop offset=".35" stop-color="#4488bd"/><stop offset=".65" stop-color="#0063a7"/></linearGradient><linearGradient id="d" gradientUnits="userSpaceOnUse" x1="3.76" x2="11.69" y1="11.71" y2="7.09"><stop offset=".3" stop-color="#0063a7"/><stop offset=".5" stop-color="#3783ba"/><stop offset=".63" stop-color="#5494c4"/><stop offset=".75" stop-color="#6fa4cd"/><stop offset=".88" stop-color="#cbdaed"/></linearGradient><path d="m0 0h18v18h-18z" fill="#f0f3fa"/><path d="m4 6v1a8.72 8.72 0 0 1 7-.5l1-1.5h-7s-1 0-1 1z" fill="url(#a)"/><path d="m14 6v3s-.5-.8-1-1.22-1-.78-1-.78c.45-1.35 1-2 1-2s1 0 1 1z" fill="url(#b)"/><path d="m14 10.1c0-.38-1.34-1.74-2-2.1 0 0-.45 1.9-.76 2.85a6.75 6.75 0 0 1 -1.24 2.15h2.77s.57 0 .85-.28.38-.6.38-.92z" fill="url(#c)"/><path d="m4 11.82v-3.82s1.28-1 3.13-1c2.2 0 3.38.5 3.38.5s-.27 1.48-1.17 3.1a6.26 6.26 0 0 1 -2.9 2.4h-1.24s-.5.04-.89-.35c-.4-.39-.31-.83-.31-.83z" fill="url(#d)"/></svg>