<svg height="18" width="18" xmlns="http://www.w3.org/2000/svg"><path d="m0 0h18v18h-18z" fill="#e4002b"/><path d="m11.434 6.696a3.21 3.21 0 0 0 -1.867-.63c-.517 0-1.206.265-1.206.794 0 .554.761.768 1.25.906l.718.19c1.508.389 2.671 1.056 2.671 2.592 0 .945-.258 1.914-1.12 2.557-.848.63-1.982.894-3.074.894-1.364 0-2.7-.403-3.806-1.083l1.206-1.99c.704.542 1.537.982 2.5.982.66 0 1.294-.242 1.294-.909 0-.693-1.036-.98-1.64-1.13-1.766-.441-2.93-.844-2.93-2.683 0-1.927 1.566-3.186 3.735-3.186 1.092 0 2.428.302 3.39.78l-1.12 1.915z" fill="#fff"/></svg>