<svg height="18" viewBox="0 0 18 18" width="18" xmlns="http://www.w3.org/2000/svg"><path d="m0 0h18v18h-18z" fill="#f0f3fa"/><path d="m9 15a6 6 0 1 0 0-12 6 6 0 0 0 0 12zm0-2a4 4 0 1 0 0-8 4 4 0 0 0 0 8z" fill="#0082b0" fill-opacity=".2" fill-rule="evenodd"/><path d="m9 14a5 5 0 1 0 0-10 5 5 0 0 0 0 10zm0-1a4 4 0 1 0 0-8 4 4 0 0 0 0 8z" fill="#0082b0" fill-opacity=".2" fill-rule="evenodd"/><circle cx="9" cy="9" fill="#284d6a" fill-opacity=".4" r="4"/><circle cx="9" cy="9" fill="#f0f3fa" r="2"/></svg>