<svg height="18" viewBox="0 0 18 18" width="18" xmlns="http://www.w3.org/2000/svg"><path d="m0 0h18v18h-18z" fill="#f0f3fa"/><path d="m12.93 4.32s-2.24 1.15-2.2 4.82c.03 3.33-2.05 4.86-2.05 4.86.94-.03 2.59-.08 3.47-.66a3.68 3.68 0 0 0 1.62-2.39c.2-1.14-.22-2.07-1.23-2.43a2.6 2.6 0 0 0 1.42-1.9c.22-1.22-.44-2.01-1.03-2.3z" fill="#a2a9ad"/><path d="m4 12.82v-5.24s-.19-3.58 2.97-3.58h1.28s-1.27 1.13-1.23 4c.05 3.26-1.62 4.71-3.02 4.82z" fill="#cb9700"/><path d="m4 13.82v.18h2.83c1.18-.55 2.92-1.43 2.92-4.99s2.03-5 2.03-5l-2.1-.01s-1.77.8-1.71 4.47c.07 4.23-2.96 5.38-3.97 5.35z" fill="#231f20"/></svg>