<svg height="18" width="18" xmlns="http://www.w3.org/2000/svg" xmlns:xlink="http://www.w3.org/1999/xlink"><linearGradient id="a" gradientUnits="userSpaceOnUse" x1="9" x2="9" y1="0" y2="18"><stop offset="0" stop-color="#0dd1ee"/><stop offset="1" stop-color="#386ef0"/></linearGradient><path d="m0 0h18v18h-18z" fill="url(#a)"/><path d="m10.91 5h-1.6l-2.68 2.1a10 10 0 0 0 -2.73.4l-.34 1.22c.32-.16 1.4-.46 3.16-.43zm-3.88 8h1.6l2.7-2.1a10 10 0 0 0 2.73-.4l.33-1.22c-.31.16-1.39.46-3.16.43zm.67-3.76a9.98 9.98 0 0 0 -4.34.28l-.36 1.28c1.68-.63 3.83-.52 4.7-.4l-3.35 2.6h1.62l4.4-3.4a1189 1189 0 0 0 -2.67-.36zm6.94-.76c-.5.2-2.09.55-4.34.28l-2.67-.36 4.4-3.4h1.62l-3.35 2.6c.87.12 3.02.23 4.7-.4z" fill="#fff"/></svg>