<svg height="18" width="18" xmlns="http://www.w3.org/2000/svg"><path d="m0 0h18v18h-18z" fill="#ee3943"/><g fill="#fff"><path d="m13.251 4.297c.175-.072.354-.144.533-.215a.448.448 0 0 0 -.246-.082h-9.078a.463.463 0 0 0 -.46.465v4.535c1.597-1.391 5.406-3.109 9.251-4.703zm-.057.227c-2.486 1.057-4.48 2.403-4.507 2.994-.046.972 3.598.316 5.312.482v-3.53c0-.089-.03-.169-.073-.241a19.56 19.56 0 0 0 -.732.295zm-4.194 6.853c.003-.756-3.403-.206-5-.377v2.567c0 .239.206.433.461.433h.659c2.298-.974 3.853-2.098 3.88-2.623z"/><path d="m5.563 14h7.975a.463.463 0 0 0 .462-.465v-4.535c-1.617 1.31-5.238 3.586-8.437 5z"/></g></svg>