<svg height="18" viewBox="0 0 18 18" width="18" xmlns="http://www.w3.org/2000/svg"><path d="m0 0h18v18h-18z" fill="#f0f3fa"/><path d="m5 14 .01-1.46c.92.03 1.6.01 2.54.02.48 0 1.09-.36 1.13-.79.06-.63-1.35-1.19-2.13-1.66-1.88-1.15-1.5-2.03-1.45-2.41.08-.57 1.05-1.71 1.7-1.97l.36.26c-.5.5-.77.99-.44 1.72.42.92 1.24 1.13 2.04 1.6.66.38 1.44.7 1.85 1.3.22.32.23.7.23 1.1 0 .61-.45 1.13-.86 1.52-.4.38-1.4.77-2.07.77z" fill="#004098"/><path d="m12.12 4v1.36c-.93.05-1.1.06-2.06.05a.9.9 0 0 0 -.88.82c-.06.63 1.52 1.28 2.3 1.76 1.88 1.14 1.5 2.02 1.46 2.41-.08.57-1.05 1.7-1.7 1.96l-.36-.26c.5-.49.77-.98.44-1.71-.42-.92-1.24-1.13-2.04-1.6-.66-.39-1.44-.7-1.85-1.3-.22-.32-.23-.71-.23-1.1 0-.62.38-1.22.8-1.6a2.91 2.91 0 0 1 1.8-.79z" fill="#00a1e9"/></svg>