<svg height="18" viewBox="0 0 18 18" width="18" xmlns="http://www.w3.org/2000/svg"><path d="m0 0h18v18h-18z" fill="#db0000"/><path d="m12.15 8h1.31c.3 0 .54-.26.54-.58v-.72s-.32-1.7-2.02-1.7h-4.98s-2 0-2 2.26c0 1.68 1.07 1.97 1.53 2.15.45.17 2.93 1.27 2.93 1.27s.54.3.54.68-.43.64-.78.64h-1.73s-1.12-.46-1.12-1.16v-.26c0-.32-.25-.58-.54-.58h-1.3c-.29 0-.53.26-.53.58v.91c0 .26.3 1.51 2.04 1.51h4.5s2.46.06 2.46-2.2c0-1.83-1.9-2.38-2.39-2.61-.48-.23-2.23-1.2-2.23-1.2s-.38-.19-.38-.56.4-.43.67-.43h1.84s1.12.55 1.12 1.07v.38c-.02.29.22.55.52.55z" fill="#f0f3fa"/></svg>