<svg height="18" viewBox="0 0 18 18" width="18" xmlns="http://www.w3.org/2000/svg"><path d="m0 0h18v18h-18z" fill="#f0f3fa"/><g fill="#e70012"><path d="m13.06 11.96a.1.1 0 0 0 -.18-.07 5.33 5.33 0 0 1 -7.76-.04.1.1 0 0 0 -.08-.04.1.1 0 0 0 -.1.1c0 .03 0 .05.02.07a5.06 5.06 0 0 0 8.08.04.1.1 0 0 0 .02-.06zm-3.38-7.95a.1.1 0 0 0 -.05.1v.04a.1.1 0 0 0 .07.06 5.32 5.32 0 0 1 3.94 5.23 5.66 5.66 0 0 1 -.24 1.64c0 .06.05.1.1.1a.1.1 0 0 0 .05 0 5.35 5.35 0 0 0 .45-2.1 5.02 5.02 0 0 0 -4.26-5.08h-.02a.1.1 0 0 0 -.04.01zm-5.26 7.16a.1.1 0 0 0 .05.02c.06 0 .1-.05.1-.1v-.04a5.79 5.79 0 0 1 -.22-1.57 5.34 5.34 0 0 1 3.95-5.27.1.1 0 0 0 .06-.05l.02-.06c0-.05-.05-.1-.1-.1h-.02a5.03 5.03 0 0 0 -4.26 5.11c0 .69.13 1.37.38 2 0 .03.02.05.04.06z"/><path d="m4.24 12 2.85-.84.02-.01a.08.08 0 0 0 .04-.07.08.08 0 0 0 -.07-.07l-.41-.07a.06.06 0 0 1 -.05-.06c0-.02 0-.03.02-.04l1.7-1.86a.57.57 0 0 1 .45-.22.6.6 0 0 1 .21.03l-.65-1.79-4.3 4.71a.17.17 0 0 0 -.03.2c.04.06.1.09.16.09l.06-.01z"/><path d="m13.93 11.66-2.29-2.21-.02-.02a.09.09 0 0 0 -.12.03.1.1 0 0 0 0 .09l.15.42a.07.07 0 0 1 -.03.08.06.06 0 0 1 -.05.01l-2.67-.53a.6.6 0 0 1 -.53-.53l-1.37 1.64 6.77 1.35.04.01c.07 0 .13-.04.17-.1a.2.2 0 0 0 -.05-.24z"/><path d="m8 6.76v.01c0 .05.04.08.08.08.02 0 .05-.01.06-.03l.25-.29a.06.06 0 0 1 .08 0l.03.03.8 2.2a.5.5 0 0 1 .04.21.5.5 0 0 1 -.2.4l1.86.35-2.04-5.6a.17.17 0 0 0 -.16-.12.16.16 0 0 0 -.16.13z"/></g></svg>