<svg height="18" viewBox="0 0 18 18" width="18" xmlns="http://www.w3.org/2000/svg"><path d="m0 0h18v18h-18z" fill="#003057"/><g fill="#fff"><path d="m14 4h-7.09a8.92 8.92 0 0 0 -2.91 4.23v.72a8.64 8.64 0 0 1 2.98-4.78h.4l.06.07a.4.4 0 0 0 .52 0 .34.34 0 0 0 .06-.07h.5a11.73 11.73 0 0 0 -4.12 9.66h-.4v.17h10zm-.26 8.3.07.03v1.46l-8.26-1.99c.03-.28.08-.56.13-.83l8.06 1.31zm.06-.17h.01v-.65l-1.3-.83-1.02-.09-.18.24 2.5 1.33zm-3.2-1.84h-.01l-3.26-.12v-.17h3.9l.55.33-1.19-.04zm-.13.19-1.66-.15c0 .06-.03.17-.18.17s-.19-.11-.19-.17h-.74c-.06.11-.22.34-.37.34-.14 0-.37-.17-.37-.34v-1.33c0-.17.19-.33.37-.33.15 0 .31.22.37.33h.74c0-.06.04-.17.19-.17s.18.11.18.17h1.12l-2.73-1.74a10.6 10.6 0 0 0 -1.5 3.56l4.34.7c.12-.45.29-.82.42-1.04zm-.24 1.07.53.09c.02-.19.08-.32.16-.5a2.52 2.52 0 0 1 .36-.6l-.61-.05c-.13.2-.31.58-.44 1.06zm.72.12 1.36.22-1.26-.6a1.5 1.5 0 0 0 -.1.38zm1.95.32-1.78-.86.1-.18 2.07 1.1-.4-.06zm-1.84 1.84h2.24l-2.35-.56a2.37 2.37 0 0 0 .11.56zm-.3-.6-.74-.18a3.54 3.54 0 0 0 .12.78h.73a1.97 1.97 0 0 1 -.1-.6zm-.82.6-.07-.34c-.03-.19-.04-.37-.04-.49l-4.3-1.02a10.34 10.34 0 0 0 -.01 1.85zm3.87-4v1.46l-6.5-4.17.41-.58 6.1 3.3zm-5.94-3.47c.66-.82 1.44-1.56 2.31-2.2h2.05l1.58 2.22v2.62h-1.1l-4.85-2.64zm5.94-.46-1.18-1.73h1.18z" fill-rule="evenodd"/><path d="m6.96 5.33c0 .19-.16.34-.37.34-.2 0-.37-.15-.37-.34 0-.18.17-.33.37-.33s.37.15.37.33zm-2.82 6.7a.4.4 0 0 0 -.14-.03v.67a.4.4 0 0 0 .26-.1.33.33 0 0 0 .08-.1.3.3 0 0 0 0-.26.33.33 0 0 0 -.08-.11.38.38 0 0 0 -.12-.07zm-.14.97a.4.4 0 0 1 .26.1c.04.03.06.07.08.1a.3.3 0 0 1 0 .26.33.33 0 0 1 -.08.1.4.4 0 0 1 -.26.1z"/></g></svg>