<svg height="18" viewBox="0 0 18 18" width="18" xmlns="http://www.w3.org/2000/svg"><path d="m0 0h18v18h-18z" fill="#293c5e"/><path d="m4.39 8.42a1.54 1.54 0 0 0 0 2.05l.27.3c-.2-.49-.13-1.07.24-1.47l3.26-3.55c.46-.5 1.22-.5 1.68 0l3.26 3.55c.37.4.45.98.24 1.46l.27-.3c.52-.56.52-1.48 0-2.04l-3.67-4a1.26 1.26 0 0 0 -1.88 0zm1.73 2.7a.96.96 0 0 0 0 1.28l.3.34a.82.82 0 0 1 .14-.9l1.94-2.12c.28-.3.72-.3 1 0l1.94 2.12c.23.24.27.6.13.9l.31-.34a.96.96 0 0 0 0-1.29l-2.28-2.5a.79.79 0 0 0 -1.18 0l-2.3 2.5zm1.43 2.7a.49.49 0 0 1 0-.65l1.15-1.25a.4.4 0 0 1 .6 0l1.15 1.25c.17.18.17.47 0 .65l-.16.18a.41.41 0 0 0 -.07-.45l-.97-1.06a.33.33 0 0 0 -.5 0l-.97 1.06a.41.41 0 0 0 -.06.45z" fill="#dbb5a0"/></svg>