<svg height="18" viewBox="0 0 18 18" width="18" xmlns="http://www.w3.org/2000/svg"><path d="m0 0h18v18h-18z" fill="#f0f3fa"/><path d="m7.12 8.29-1.26-1.4c.08.08.23.41.09 1.04-1.89 2.47-.5 3.99.2 4.76 1.85 2.06 5.2 1.15 5.64.87.35-.23.95-.03 1.21.1a19.1 19.1 0 0 0 -1.34-1.22c-.38-.3-.65-.24-.74-.18-.97.51-2.18.5-3.4-.3-1.34-.9-.98-2.2-.54-2.78.34-.46.24-.78.14-.9z" fill="#1f854b"/><path d="m9 5a1 1 0 1 0 0-2 1 1 0 0 0 0 2zm-2.91 1.55 1 1.06c.08.07.35.16.74-.08.5-.31 1.91-.59 2.62.45.63.94.52 1.7.07 2.41-.06.07-.1.27.12.56.23.3.75.82.98 1.05-.1-.2-.25-.66-.05-.91.25-.32 1.5-1.92-.33-4.08-.55-.68-2.17-1.7-4.28-.35-.53.08-.8-.04-.87-.1z" fill="#005cba"/></svg>