<svg height="18" width="18" xmlns="http://www.w3.org/2000/svg"><path d="m0 0h18v18h-18z" fill="#f0f3fa"/><path d="m15.13 10.5c.31 0 .6-.1.85-.26l-.3-.52a.94.94 0 0 1 -.55.18.91.91 0 0 1 -.92-.9c0-.5.41-.9.92-.9.24 0 .45.09.61.23l.26-.56a1.51 1.51 0 0 0 -2.38 1.23c0 .83.68 1.5 1.51 1.5zm-11.71-3-1.42 1.5 1.42 1.5 1.42-1.5zm2.83 0-1.41 1.5 1.41 1.5 1.42-1.5zm2.57 0c.3 0 .66.14.8.2l-.21.5c-.1-.04-.35-.1-.53-.1h-.04c-.23 0-.53.02-.53.3 0 .2.28.28.55.35l.14.05c.3.1.65.22.65.83s-.61.87-1.05.88c-.34 0-.73-.1-.88-.16l.2-.55c.17.1.49.1.63.1.14.01.52 0 .52-.27 0-.2-.37-.33-.52-.36-.28-.04-.85-.25-.83-.86.03-.75.73-.9 1.1-.9zm1.72 0h-.54v3h.54zm1.38 0h-.92v3h.92a1.5 1.5 0 1 0 0-3zm.06.6h-.44v1.8h.44a.9.9 0 1 0 0-1.8z" fill="#ac7e20" fill-rule="evenodd"/></svg>