<svg height="18" viewBox="0 0 18 18" width="18" xmlns="http://www.w3.org/2000/svg" xmlns:xlink="http://www.w3.org/1999/xlink"><linearGradient id="a"><stop offset="0" stop-color="#928e8d"/><stop offset=".26" stop-color="#e4e3e3"/><stop offset=".56" stop-color="#afacac"/><stop offset="1" stop-color="#3c3939"/></linearGradient><linearGradient id="b" gradientUnits="userSpaceOnUse" x1="2.83" x2="8.01" xlink:href="#a" y1="7.94" y2="13.15"/><linearGradient id="c" gradientUnits="userSpaceOnUse" x1="15.17" x2="9.99" xlink:href="#a" y1="10.06" y2="4.85"/><linearGradient id="d" gradientUnits="userSpaceOnUse" x1="10.38" x2="10.38" y1="8.92" y2="13.98"><stop offset=".11" stop-color="#1b230a"/><stop offset=".9" stop-color="#8ab636"/><stop offset="1" stop-color="#587222"/></linearGradient><linearGradient id="e" gradientUnits="userSpaceOnUse" x1="7.62" x2="7.62" y1="9.06" y2="4"><stop offset=".11" stop-color="#050d1c"/><stop offset=".76" stop-color="#132e6b"/><stop offset=".9" stop-color="#193e8e"/><stop offset="1" stop-color="#162c5a"/></linearGradient><path d="m0 0h18v18h-18z" fill="#f0f3fa"/><path d="m5.6 7.23a2.92 2.92 0 0 1 -.3-1.3c-.1.2-.43.81-.95 1.73a3.32 3.32 0 0 0 -.2 2.47c.41.8 1.33 2.52 1.7 3.1.46.72 1.1.77 1.48.77.3 0 .53-.11.62-.17l.68-.53c.24-.18.22-.34.18-.4-.95-1.65-2.93-5.09-3.2-5.67z" fill="url(#b)"/><path d="m12.4 10.77c.28.58.32 1.11.3 1.3.1-.2.43-.81.95-1.73.52-.93.35-2.03.2-2.47a63.1 63.1 0 0 0 -1.7-3.1 1.61 1.61 0 0 0 -1.48-.77c-.3 0-.53.11-.62.17l-.68.52c-.24.19-.22.35-.18.4.95 1.66 2.93 5.1 3.2 5.68z" fill="url(#c)"/><path d="m10.69 10.15c.24-.47.33-1.02.35-1.23l1.35 2.5c.05.06.15.39.15 1.13s-.84 1.28-1.25 1.45h-3.07c.32-.1.67-.57.8-.78.46-.83 1.43-2.6 1.67-3.07z" fill="url(#d)"/><path d="m7.31 7.83a3.76 3.76 0 0 0 -.35 1.23l-1.34-2.5c-.06-.07-.16-.4-.16-1.13 0-.74.84-1.26 1.25-1.43h3.09c-.33.1-.67.55-.8.76-.46.82-1.44 2.6-1.68 3.07z" fill="url(#e)"/></svg>