<svg height="18" width="18" xmlns="http://www.w3.org/2000/svg"><path d="m0 0h18v18h-18z" fill="#f0f3fa"/><path d="m11.8 7.93c1.35 1.91 1.66 3.9.63 4.7-1.2.95-3.73-.03-5.67-2.19-1.68-1.87-2.36-4.02-1.71-5.17-1.13 1.14-.47 3.76 1.54 6 2.1 2.33 4.88 3.37 6.21 2.32 1.24-.98.78-3.44-1-5.66z" fill="#f88e40"/><path d="m5.63 5.97c.18-.48.47-.88.9-1.15 1.16-.77 2.91-.35 4.28.9-1.41-1.58-3.38-2.18-4.63-1.36-1.18.77-1.34 2.56-.5 4.29.22.5.54 1 .96 1.48-1-1.46-1.1-3.15-.11-4.08.94-.9 2.58-.83 4.02.05-1.6-1.27-3.55-1.55-4.58-.57-.13.13-.24.28-.34.44z" fill="#0637a6"/><ellipse fill="#f88e40" rx=".45" ry=".78" transform="matrix(.7978 -.60292 .6471 .7624 11.27 7.6)"/></svg>