<svg height="18" viewBox="0 0 18 18" width="18" xmlns="http://www.w3.org/2000/svg"><path d="m0 0h18v18h-18z" fill="#f0f3fa"/><path d="m4.2 11.54-.14.23a.23.23 0 0 0 .06.35c.67.58 1.52.89 2.4.88 1.44 0 2.48-.94 2.48-2.1 0-1.36-1.1-1.97-2.4-2.49-.92-.38-1.6-.77-1.6-1.4 0-.41.51-1 1.45-1 .54.06 1.05.26 1.5.56a.26.26 0 0 0 .4-.12l.13-.2.14-.22a.26.26 0 0 0 -.07-.37 3.78 3.78 0 0 0 -2.05-.66c-1.78 0-2.44 1.19-2.44 2.06 0 1.28.89 1.87 2.02 2.35 1.1.46 1.92.92 1.92 1.59 0 .57-.73.99-1.5.99-.85 0-1.7-.71-1.78-.77a.25.25 0 0 0 -.38.1zm5.86-6.48a.22.22 0 0 0 -.06.16v7.56a.22.22 0 0 0 .22.22h.57c.06 0 .12-.03.16-.07s.05-.09.05-.15v-2.78h2.21c.06 0 .11-.03.15-.07s.08-.1.08-.15v-.58c0-.05-.04-.1-.08-.15-.04-.04-.1-.05-.15-.05h-2.21v-3h2.77c.06 0 .11-.03.15-.07s.08-.1.08-.16v-.55c0-.06-.04-.12-.08-.16a.22.22 0 0 0 -.15-.06h-3.55a.22.22 0 0 0 -.16.06z" fill="#099748"/></svg>