<svg height="18" viewBox="0 0 18 18" width="18" xmlns="http://www.w3.org/2000/svg" xmlns:xlink="http://www.w3.org/1999/xlink"><linearGradient id="a" gradientUnits="userSpaceOnUse" x1="13.67" x2="8.46" y1="5.23" y2="7.19"><stop offset="0" stop-color="#2589cd"/><stop offset="1" stop-color="#2589cd" stop-opacity="0"/></linearGradient><linearGradient id="b"><stop offset="0" stop-color="#2591d3"/><stop offset=".39" stop-color="#2591d3" stop-opacity="0"/></linearGradient><linearGradient id="c" gradientUnits="userSpaceOnUse" x1="4.05" x2="7.01" xlink:href="#b" y1="9.09" y2="9.57"/><linearGradient id="d" gradientUnits="userSpaceOnUse" x1="13.96" x2="11.44" xlink:href="#b" y1="10.72" y2="8.72"/><linearGradient id="e" gradientUnits="userSpaceOnUse" x1="3.61" x2="12.85" y1="11.84" y2="13.65"><stop offset="0" stop-color="#2778be"/><stop offset="1" stop-color="#2778be" stop-opacity="0"/></linearGradient><linearGradient id="f"><stop offset="0" stop-color="#2778be"/><stop offset=".5" stop-color="#2778be" stop-opacity="0"/></linearGradient><linearGradient id="g" gradientUnits="userSpaceOnUse" x1="8.67" x2="6.97" xlink:href="#f" y1="5.55" y2="6.87"/><linearGradient id="h" gradientUnits="userSpaceOnUse" x1="8.82" x2="10.74" xlink:href="#f" y1="12.22" y2="11.26"/><path d="m0 0h18v18h-18z" fill="#f0f3fa"/><circle cx="9" cy="9" fill="#1f2579" r="6"/><path d="m3.04 9.65c.32-1.34 1.75-5.47 6.56-5.65 2.17-.08 3.82 1.22 5.01 2.93a6 6 0 0 0 -11.57 2.72z" fill="url(#a)"/><path d="m4.3 9.1a4.44 4.44 0 0 1 2.64-4.1 4.65 4.65 0 0 0 -1.79 3.55c0 3.43 3.43 4.44 5.14 4.52-2.84 1.06-5.99-.97-5.99-3.99z" fill="url(#c)"/><path d="m13.74 9.43a4.04 4.04 0 0 1 -2.75 3.37 4.3 4.3 0 0 0 1.96-3c.41-3.08-2.4-4.4-3.86-4.66a3.83 3.83 0 0 1 4.65 4.29z" fill="url(#d)"/><path d="m14.92 9.84a6 6 0 0 1 -11.62 1.05 6.37 6.37 0 0 0 5.36 3.09c2.69 0 4.98-2.32 6.26-4.14z" fill="url(#e)"/><path d="m9.06 5.55c1.48 0 2.4.93 2.66 1.39a4.06 4.06 0 0 0 -2.59-.83c-2.12 0-2.83 2.33-2.92 3.5l-.6-1.12c.32-1.47 1.61-2.94 3.45-2.94z" fill="url(#g)"/><path d="m8.43 12.14a3.17 3.17 0 0 1 -2.33-1.9 4.07 4.07 0 0 0 2.38 1.34c2.07.42 3.23-1.73 3.55-2.85l.37 1.2c-.6 1.39-2.16 2.57-3.97 2.21z" fill="url(#h)"/><path d="m11 5h.5v2.68a2 2 0 0 1 3.5 1.32 2 2 0 0 1 -3.5 1.32v.68h-.5zm0 4.72c0 .63-.47 1.28-1.48 1.28-.82 0-1.35-.47-1.52-.7l.6-.51c.17.24.57.5.92.5s.71-.19.71-.45-.23-.43-.89-.6c-.64-.17-1.14-.48-1.14-1.05-.01-.59.5-1.19 1.4-1.19.72 0 1.19.44 1.33.67l-.54.45c-.14-.14-.49-.43-.79-.43s-.63.13-.63.43.34.46.8.54 1.23.44 1.23 1.06zm2 .78a1.5 1.5 0 1 1 0-3 1.5 1.5 0 0 1 0 3z" fill="#f0f3fa" fill-rule="evenodd"/></svg>