<svg height="18" viewBox="0 0 18 18" width="18" xmlns="http://www.w3.org/2000/svg"><path d="m0 0h18v18h-18z" fill="#f0f3fa"/><g fill="#753221"><path d="m8.44 11h1.11v4h-1.11zm-.59-7c.36.71.05 1.6-.7 2-.36-.71-.05-1.6.7-2zm-1.47 1c.72.53.83 1.42.24 2-.72-.53-.83-1.42-.24-2zm1.6.45c.54.58.62 1.56.19 2.19a1.83 1.83 0 0 1 -.19-2.19zm-2.9.55c.73.37 1.1 1.27.83 2a1.68 1.68 0 0 1 -.82-2zm-1.08 2c1.08.06 1.98.5 2 1-1.08-.06-1.98-.5-2-1zm2 1c1.08.06 1.98.5 2 1-1.08-.06-1.98-.5-2-1zm-2 1.06c1.18-.22 2.52.17 3 .88-1.18.22-2.52-.17-3-.88zm1 1.27c.95-.55 2.3-.4 3 .34-.95.55-2.3.4-3-.34zm2.09-4.33c.72.37 1.09 1.27.82 2a1.68 1.68 0 0 1 -.82-2zm3.06-3c-.36.71-.05 1.6.7 2 .36-.71.05-1.6-.7-2zm1.47 1c-.72.53-.83 1.42-.24 2 .72-.53.83-1.42.24-2zm-1.6.45a1.83 1.83 0 0 0 -.19 2.19c.54-.58.62-1.56.19-2.19zm2.9.55a1.68 1.68 0 0 0 -.83 2c.72-.37 1.09-1.27.82-2zm1.08 2c-1.08.06-1.98.5-2 1 1.08-.06 1.98-.5 2-1zm-2 1c-1.08.06-1.98.5-2 1 1.08-.06 1.98-.5 2-1zm2 1.06c-1.18-.22-2.52.17-3 .88 1.18.22 2.52-.17 3-.88zm-1 1.27c-.95-.55-2.3-.4-3 .34.95.55 2.3.4 3-.34zm-2.09-4.33a1.68 1.68 0 0 0 -.82 2c.72-.37 1.09-1.27.82-2z"/><path d="m9 5.54c.48.61.49 1.6 0 2.19-.48-.62-.49-1.6 0-2.2z"/></g></svg>