<svg height="18" width="18" xmlns="http://www.w3.org/2000/svg"><path d="m0 0h18v18h-18z" fill="#f2641e"/><path d="m12 5c0-1.353-.905-2-2.594-2-1.605 0-2.669.86-2.669 2.157 0 1.069.719 1.475 1.596 1.778.942.331 1.651.379 1.651.974 0 .464-.429.767-1.091.767-.784 0-1.176-.35-1.176-1.05v-.01h-1.708c-.009.057-.009.095-.009.124 0 1.645 1.25 2.26 2.743 2.26 1.419 0 2.921-.634 2.921-2.28 0-1.371-.933-1.674-2.305-2.052-.354-.095-.96-.209-.96-.691 0-.407.382-.672.97-.672.662 0 .923.08.998.695zm-7 8.984.537-3h2.033l-.27 2.333 2.232-2.333h2.005l-.537 3z" fill="#fff"/></svg>