<svg height="18" viewBox="0 0 18 18" width="18" xmlns="http://www.w3.org/2000/svg" xmlns:xlink="http://www.w3.org/1999/xlink"><linearGradient id="a" gradientUnits="userSpaceOnUse" x1="5.22" x2="9.9" y1="12.77" y2="4.32"><stop offset="0" stop-color="#048dd9"/><stop offset=".11" stop-color="#004297"/><stop offset=".53" stop-color="#2da5df"/><stop offset="1" stop-color="#19318d"/></linearGradient><linearGradient id="b" gradientUnits="userSpaceOnUse" x1="4.76" x2="6.22" y1="11.06" y2="11.03"><stop offset="0" stop-color="#0392dc"/><stop offset="1" stop-color="#163591"/></linearGradient><linearGradient id="c" gradientUnits="userSpaceOnUse" x1="3.77" x2="6.25" y1="9.72" y2="9.72"><stop offset="0" stop-color="#019ce5"/><stop offset="1" stop-color="#143f99"/></linearGradient><linearGradient id="d" gradientUnits="userSpaceOnUse" x1="3.9" x2="7.05" y1="6.78" y2="11.12"><stop offset="0" stop-color="#0296e0"/><stop offset="1" stop-color="#182c8a"/></linearGradient><linearGradient id="e" gradientUnits="userSpaceOnUse" x1="13.35" x2="9.69" y1="8.03" y2="9.04"><stop offset="0" stop-color="#182c8a"/><stop offset="1" stop-color="#23a6e2"/></linearGradient><linearGradient id="f" gradientUnits="userSpaceOnUse" x1="13.55" x2="9.87" y1="9.13" y2="10.26"><stop offset="0" stop-color="#19318d"/><stop offset="1" stop-color="#2da7e0"/></linearGradient><linearGradient id="g" gradientUnits="userSpaceOnUse" x1="9.05" x2="13.09" y1="12.06" y2="11.74"><stop offset=".13" stop-color="#10a2e6"/><stop offset="1" stop-color="#182c8a"/></linearGradient><linearGradient id="h" gradientUnits="userSpaceOnUse" x1="7.76" x2="9.98" y1="12.64" y2="11.66"><stop offset=".42" stop-color="#153995"/><stop offset="1" stop-color="#019ae3"/></linearGradient><path d="m0 0h18v18h-18z" fill="#f0f3fa"/><path d="m6.63 12.42c-.21 0-.32-.27-.34-.28l-1.32-.29c.14.37.55 1.1 1.14 1.1 1.81 0 5.19-4.3 6.65-6.45a4.94 4.94 0 0 0 -2.2-2.5c-2.05 6.18-3.71 8.42-3.93 8.42z" fill="url(#a)"/><path d="m6.58 12.1-1.62-.41c-.32-.33-.5-.98-.54-1.27l1.67 1.05c.07.23.36.52.5.63z" fill="url(#b)"/><path d="m6.75 11.6-2.65-1.63a10 10 0 0 1 -.08-2.12l2.14 2.72c-.05.43.38.86.6 1.03z" fill="url(#c)"/><path d="m7.24 11.23a28.12 28.12 0 0 1 -2.09-5.57 5.03 5.03 0 0 0 -.68 2.4l2.56 3.45z" fill="url(#d)"/><path d="m9.72 10.64-.33.42c.03-.04 2.3-1.31 3.9-2.46a5.95 5.95 0 0 0 -.31-1.97 29.2 29.2 0 0 1 -3.26 3.79z" fill="url(#e)"/><path d="m14 8.44-4.22 2.58c-.1.43-.42.54-.56.54 1.63.05 3.58-.45 4.35-.7.35-.57.43-1.85.43-2.42z" fill="url(#f)"/><path d="m9.67 11.77c-.22.31-.68.33-.88.3.42.21 1.68.7 3.35.88a3.38 3.38 0 0 0 1.15-1.77c-.75.25-2.72.5-3.62.59z" fill="url(#g)"/><path d="m12 13.15c-1.1-.15-2.19-.55-2.6-.73-.6.55-1.23.08-1.46-.23l-.13.17c.64.75 1.67 1.64 2.6 1.64.73 0 1.37-.56 1.59-.85z" fill="url(#h)"/></svg>