<svg height="18" viewBox="0 0 18 18" width="18" xmlns="http://www.w3.org/2000/svg" xmlns:xlink="http://www.w3.org/1999/xlink"><linearGradient id="a"><stop offset="0" stop-color="#a22615"/><stop offset=".45" stop-color="#af2c1d"/><stop offset=".72" stop-color="#d93e31"/></linearGradient><linearGradient id="b" gradientUnits="userSpaceOnUse" x1="7.36" x2="7.36" xlink:href="#a" y1="3" y2="12.67"/><linearGradient id="c" gradientUnits="userSpaceOnUse" x1="14.52" x2="6.27" xlink:href="#a" y1="10.74" y2="6.22"/><linearGradient id="d" gradientUnits="userSpaceOnUse" x1="4.51" x2="12.69" xlink:href="#a" y1="13.29" y2="8.64"/><path d="m0 0h18v18h-18z" fill="#f0f3fa"/><path d="m4.04 6.55c-.16 3.78 3.27 5.66 5 6.12.27-.41.48-1.24.56-1.6-3.26-1.47-4.5-3.29-4.6-4.85-.08-1.55.66-2.47 1.87-2.56.97-.07 1.89.8 2.23 1.24h1.58c-1.84-2.82-6.45-2.7-6.64 1.65z" fill="url(#b)"/><path d="m13.17 5.99c-3.08-2.02-6.35.15-7.6 1.49.22.44.82 1.04 1.08 1.3 2.84-2.23 4.97-2.45 6.32-1.76 1.34.69 1.74 1.8 1.22 2.94-.42.9-1.6 1.31-2.13 1.4l-.78 1.43c3.28-.27 5.44-4.48 1.9-6.8z" fill="url(#c)"/><path d="m9.15 14.45c3.22-1.78 3.03-5.8 2.53-7.58-.48-.02-1.28.2-1.62.32.44 3.66-.42 5.69-1.67 6.56s-2.39.67-3.07-.36c-.55-.83-.3-2.1-.11-2.62l-.8-1.42c-1.41 3.09 1.02 7.15 4.73 5.1z" fill="url(#d)"/></svg>