<svg height="18" width="18" xmlns="http://www.w3.org/2000/svg"><path d="m0 0h18v18h-18z" fill="#0033a1"/><path d="m14 4h-10v10h10z" fill="#fff"/><g fill="#0033a1"><path d="m5 7.659v.983l2.685-.983zm4.002-2.373 1.219 1.429 2.781-.984v-.731h-8.002v.725l2.797.99 1.205-1.43zm-4.002 1.144v.857h2.68l-2.68-.858zm8.002.857v-.858l-2.63.858zm0 1.358v-.995l-2.63.002z"/><path d="m9.014 5.998-.584.717h1.144zm-1.156 2.146-2.858.985v2.73h2.68zm.457 0-.157 3.716h1.674l-.154-3.716z"/><path d="m10.3 11.86h1.7v.572h-7v.57h8.002v-3.852l-2.862-1.006.162 3.716z"/></g></svg>