<svg height="18" width="18" xmlns="http://www.w3.org/2000/svg" xmlns:xlink="http://www.w3.org/1999/xlink"><linearGradient id="a" gradientUnits="userSpaceOnUse" x1="4.375" x2="11.178" y1="8.166" y2="8.166"><stop offset="0" stop-color="#8cc63e"/><stop offset="1" stop-color="#48b845"/></linearGradient><linearGradient id="b" gradientUnits="userSpaceOnUse" x1="13.625" x2="6.822" y1="10.299" y2="10.299"><stop offset="0" stop-color="#00afe8"/><stop offset="1" stop-color="#00869a"/></linearGradient><path d="m0 0h18v18h-18z" fill="#f0f3fa"/><path d="m6.81 5h4.368c.46 0 .834.358.834.8s-.373.8-.834.8h-4.318a1.48 1.48 0 0 0 -.742.298c-.231.181-.45.482-.451 1.036 0 .56.22.87.45 1.054.262.21.57.28.71.278h4.351c.46 0 .834.359.834.8 0 .442-.373.8-.834.8h-4.342c-.528.003-1.218-.194-1.788-.65-.603-.482-1.048-1.24-1.048-2.282 0-1.048.456-1.798 1.062-2.274a3.168 3.168 0 0 1 1.726-.658l.023-.002z" fill="url(#a)"/><path d="m11.19 7.134h-4.368c-.46 0-.834.358-.834.8 0 .441.373.8.834.8h4.318c.176.013.487.097.742.297.232.182.45.482.451 1.036 0 .56-.22.87-.45 1.055-.262.21-.57.28-.71.278h-4.351c-.46 0-.834.358-.834.8s.373.8.834.8h4.342c.528.003 1.218-.194 1.788-.65.603-.483 1.049-1.242 1.048-2.284 0-1.048-.456-1.797-1.062-2.273a3.169 3.169 0 0 0 -1.726-.658z" fill="url(#b)"/></svg>