<svg height="18" width="18" xmlns="http://www.w3.org/2000/svg"><path d="m0 0h18v18h-18z" fill="#f0f3fa"/><path d="m13 5h-8v5.15c.28.09.54.23.8.38.45.24.9.49 1.43.5.02-.03 0-.12-.15-.13-.19-.02-.56-.13-1.08-.44.06 0 .26.02.59.15.29.11 1.1.34 2.08.33a4.97 4.97 0 0 0 2.05-.43c.37-.2.55-.49.72-.74l.1-.14c.35-.5.34-1.92-.51-1.92a.7.7 0 0 0 -.72.67c-.05.45.02.77.06.88-.04 0-.15-.06-.28-.12-.22-.1-.47-.22-.48-.16a1.32 1.32 0 0 1 -.8-.54 1.86 1.86 0 0 1 0-1.95c.4-.89 1.38-.92 1.8-.92.11-.01.42-.02.78.06.55.17.99.4 1.37.86.02.06.1.2.2.22h.04zm0 6.1c-.17.18-.43.4-.47.43-.75.5-1.79.67-2.68.79-.19.02-.98 0-1.35 0-.88-.1-1.61-.41-2.05-.6a4.18 4.18 0 0 1 -1.45-.99v2.27h8zm-8-.45.36.21c.05-.03.35.12.66.27.28.13.58.28.7.3.02-.03.04-.1-.1-.14a6.09 6.09 0 0 1 -1.62-1.13z" fill="#e56810"/></svg>