<svg height="18" viewBox="0 0 18 18" width="18" xmlns="http://www.w3.org/2000/svg"><path d="m0 0h18v18h-18z" fill="#f0f3fa"/><path d="m6.67 4h-1.02c-.1 0-.17.12-.12.22l1.9 3.35.66-1.07-1.3-2.43a.13.13 0 0 0 -.12-.07zm3.43 5.36-.67 1.07 2.31 3.5c.03.05.07.07.11.07h1.02c.1 0 .17-.13.1-.22z" fill="#575656"/><path d="m5.96 14h-.89c-.05 0-.09-.06-.06-.1l3.38-6.96c.03-.05.1-.06.12-.01l.57.88c.03.04.1.04.12 0l2.03-3.48.02-.02.58-.3c.05-.03.1 0 .1.06v.98l-2.75 4.55a.07.07 0 0 1 -.1 0l-.58-.7a.07.07 0 0 0 -.11.01l-2.38 5.06a.07.07 0 0 1 -.06.04z" fill="#116ab2"/></svg>