<svg height="18" width="18" xmlns="http://www.w3.org/2000/svg"><path d="m0 0h18v18h-18z" fill="#01a1b4"/><g fill="#fff"><path d="m12.84 9.438c-3.513.201-7.148 1.803-8.526 2.579 4.407-.755 6.374.424 6.808 1.108 1.097-1.207 1.603-2.96 1.719-3.687z"/><path d="m8.773 13.998c.665-.513.738-1.27.692-1.585.482.066 1.118.63 1.375.902-.494.596-1.584.703-2.067.683zm-.733-5.973c1.534-.767 3.811-1.316 4.759-1.496.266.853.212 1.998.151 2.464-5.539.613-8.94 2.454-9.949 3.298 1.04-1.102 3.506-3.5 5.04-4.266zm.632-.75c1.987-1.211 2.763-2.688 2.902-3.275.632.774.997 1.746 1.101 2.135-1.036.131-3.1.815-4.003 1.14z"/></g></svg>