<svg height="18" width="18" xmlns="http://www.w3.org/2000/svg"><path d="m0 0h18v18h-18z" fill="#008996"/><path d="m7.564 7.55c-.83-.313-.943-.577-.943-1.035 0-.145 0-.592.276-.872.236-.246.524-.257.81-.257h4.79c-.01-.19-.071-.67-.369-1.006-.225-.246-.543-.38-.943-.38h-4.093c-.492 0-1.046.067-1.507.559-.513.525-.585 1.24-.585 1.867 0 .559.051 1.146.472 1.672.338.48.953.715 1.087.738l3.764 1.296c.872.29.985.828.985 1.263 0 .805-.329 1.17-.985 1.17h-5.21c-.01.178-.02.664.235.999.226.29.585.436 1.088.436h4.461c.595 0 1.17-.056 1.641-.704.41-.57.462-1.342.462-1.878 0-.391-.051-.962-.277-1.465-.226-.536-.687-.871-1.651-1.207z" fill="#fff"/></svg>