<!-- by TradingView --><svg width="18" height="18" viewBox="0 0 18 18" xmlns="http://www.w3.org/2000/svg"><path fill="#F0F3FA" d="M0 0h18v18H0z"/><path d="M7.6 4.2c-.12.35-.24.74-.34 1.17-.34-.21-.67-.4-.98-.57.4-.26.85-.47 1.33-.6Zm.38-.1c-.16.42-.32.9-.44 1.45.73.48 1.5 1.07 2.2 1.76a11 11 0 0 1 2.14 2.79 16.49 16.49 0 0 0-.08-5.24 4.98 4.98 0 0 0-3.82-.76Zm4.19 1.03a17.08 17.08 0 0 1-.05 5.46c.12.27.22.55.32.84l1.01-.15a4.98 4.98 0 0 0-1.28-6.15Zm1.07 6.51c-.24.04-.48.08-.71.1l.14.66c.21-.24.4-.49.57-.76Zm-.84 1.03a7 7 0 0 0-.19-.9l-.37.03c-.16.56-.35 1.12-.6 1.67.42-.21.81-.48 1.16-.8Zm-1.6 1c.3-.6.53-1.23.71-1.86-1.42.04-2.73-.14-3.89-.45.23.86.56 1.74 1.03 2.63a5.08 5.08 0 0 0 2.15-.32Zm-2.52.28c-.47-.9-.8-1.8-1-2.69a12.98 12.98 0 0 1-3.2-1.4 5 5 0 0 0 4.2 4.09ZM4.02 9.44c.74.5 1.83 1.05 3.17 1.46a12.6 12.6 0 0 1 0-5.2c-.42-.27-.83-.5-1.2-.7a5 5 0 0 0-1.97 4.44ZM7.53 11c-.43-1.9-.35-3.68-.06-5.11.68.46 1.4 1.01 2.06 1.66.91.87 1.72 1.9 2.26 3.08-.05.28-.12.57-.19.86A13.3 13.3 0 0 1 7.53 11Zm4.4.47.07-.33.12.32h-.2Z" fill="url(#azpqcbbwe)"/><defs><linearGradient id="azpqcbbwe" x1="4.16" y1="9.16" x2="13.53" y2="9.16" gradientUnits="userSpaceOnUse"><stop stop-color="#EAE611"/><stop offset=".51" stop-color="#58B651"/><stop offset="1" stop-color="#00A1CE"/></linearGradient></defs></svg>