<svg height="18" viewBox="0 0 18 18" width="18" xmlns="http://www.w3.org/2000/svg"><path d="m0 0h18v18h-18z" fill="#f0f3fa"/><path d="m9 12v-3.4c0-.44.09-.86.26-1.26.28-.64.75-1.01 1.34-1.21.4-.13.82-.15 1.24-.11.5.03.96.18 1.35.54.41.36.66.85.75 1.43.04.25.06.51.06.76v3.25h-1.67v-3.17c0-.2-.04-.42-.1-.61-.14-.42-.58-.6-1-.46-.3.1-.56.5-.56.87v3.37z" fill="#d70f37"/><path d="m3.7 11.02.7-1.13c.05-.1.09-.12.2-.03.46.4.98.65 1.6.62a.8.8 0 0 0 .23-.06c.11-.04.2-.11.2-.25s-.08-.22-.18-.26c-.22-.1-.44-.17-.66-.26-.37-.14-.75-.24-1.08-.48a1.56 1.56 0 0 1 -.68-1.32c0-.46.12-.85.41-1.18.26-.29.6-.49.97-.57.81-.18 1.6-.14 2.34.29.18.1.34.23.52.35l-.53.87-.17.27c-.04.08-.08.08-.15.03-.29-.19-.6-.35-.93-.4-.15-.03-.3-.03-.46 0-.17.03-.26.15-.27.27 0 .11.12.26.26.3l.6.21c.43.16.86.31 1.23.6.32.25.5.57.54.99.03.36 0 .7-.16 1.02-.2.42-.54.7-.95.89a3.2 3.2 0 0 1 -1.6.19 3.04 3.04 0 0 1 -1.65-.66z"/></svg>