<svg height="18" viewBox="0 0 18 18" width="18" xmlns="http://www.w3.org/2000/svg"><path d="m0 0h18v18h-18z" fill="#f0f3fa"/><path d="m8.09 3.21a10.11 10.11 0 0 0 -4.95 5.23c-.17.43-.2.92-.02 1.36.52 1.32 1.92 3.4 4.8 4.92a2.3 2.3 0 0 0 2.14.03 11.73 11.73 0 0 0 4.67-4.65c.34-.62.36-1.36.07-2a10.25 10.25 0 0 0 -4.91-4.9 2.11 2.11 0 0 0 -1.8.01z" fill="#2f4a3a"/><path d="m9 6 1.5-1.5 1.5 1.5-1.5 1.5zm0 6v-2c-1.38 0-2.5-1.1-2.5-2.44v-.12a2.47 2.47 0 0 1 2.5-2.44v3c1.38 0 2.5 1.1 2.5 2.44v.12a2.47 2.47 0 0 1 -2.5 2.44zm0 0-1.5-1.5-1.5 1.5 1.5 1.5z" fill="#f18b00"/></svg>