<svg fill="none" height="18" width="18" xmlns="http://www.w3.org/2000/svg"><path d="m0 0h18v18h-18z" fill="#f0f3fa"/><g clip-rule="evenodd" fill-rule="evenodd"><path d="m8.593 12.621a4.032 4.032 0 0 0 4.035-4.029 4.032 4.032 0 0 0 -4.035-4.029 4.032 4.032 0 0 0 -4.036 4.03 4.032 4.032 0 0 0 4.036 4.028zm0 .864c2.706 0 4.9-2.19 4.9-4.893a4.896 4.896 0 0 0 -4.9-4.892c-2.707 0-4.9 2.19-4.9 4.892a4.896 4.896 0 0 0 4.9 4.893z" fill="#726038"/><path d="m8.352 13.437c2.207 0 3.988-1.776 3.988-3.957 0-2.182-1.781-3.957-3.988-3.957-2.206 0-3.987 1.775-3.987 3.957 0 2.181 1.781 3.957 3.987 3.957zm0 .863c2.68 0 4.853-2.158 4.853-4.82 0-2.663-2.173-4.82-4.853-4.82s-4.852 2.157-4.852 4.82c0 2.662 2.173 4.82 4.852 4.82z" fill="#ffe38d" opacity=".8"/><path d="m9.602 13.197a4.032 4.032 0 0 0 4.035-4.03 4.032 4.032 0 0 0 -4.035-4.027 4.032 4.032 0 0 0 -4.036 4.029 4.032 4.032 0 0 0 4.036 4.029zm0 .863c2.706 0 4.9-2.19 4.9-4.892a4.896 4.896 0 0 0 -4.9-4.892c-2.707 0-4.9 2.19-4.9 4.892a4.896 4.896 0 0 0 4.9 4.892z" fill="#f99638" opacity=".8"/></g></svg>