<svg height="18" width="18" xmlns="http://www.w3.org/2000/svg" xmlns:xlink="http://www.w3.org/1999/xlink"><linearGradient id="a"><stop offset="0" stop-color="#18b7c8"/><stop offset="1" stop-color="#087986"/></linearGradient><linearGradient id="b" gradientUnits="userSpaceOnUse" x1="7.68" x2="7.68" xlink:href="#a" y1="3" y2="4.47"/><linearGradient id="c" gradientUnits="userSpaceOnUse" x1="5" x2="5" xlink:href="#a" y1="6.22" y2="8.19"/><linearGradient id="d" gradientUnits="userSpaceOnUse" x1="7.64" x2="7.64" xlink:href="#a" y1="11.46" y2="13.95"/><linearGradient id="e" gradientUnits="userSpaceOnUse" x1="8.7" x2="8.7" y1="9.33" y2="15"><stop offset="0" stop-color="#f37654"/><stop offset="1" stop-color="#ee392b"/></linearGradient><path d="m0 0h18v18h-18z" fill="#f0f3fa"/><g fill-rule="evenodd"><path d="m7.68 4.47a.73.73 0 1 0 0-1.47.73.73 0 0 0 0 1.47zm0-.4a.33.33 0 1 0 0-.66.33.33 0 0 0 0 .65z" fill="url(#b)"/><path d="m5 8.19a1 1 0 0 0 1-.99 1 1 0 0 0 -1-.98 1 1 0 0 0 -1 .98 1 1 0 0 0 1 .99zm0-.46a.53.53 0 1 0 0-1.06.53.53 0 1 0 0 1.06z" fill="url(#c)"/><path d="m7.64 13.93a1.25 1.25 0 1 0 0-2.5 1.25 1.25 0 0 0 0 2.5zm0-.45a.8.8 0 1 0 0-1.6.8.8 0 0 0 0 1.6z" fill="url(#d)"/></g><path d="m13.58 4.08c.1-.1.24-.1.34-.02.1.1.1.25.01.35l-2.6 2.77s-.06.07-.06.18c.32.36.53.8.6 1.3.07.07.15.07.15.07h1.13a.26.26 0 1 1 0 .52h-1.13s-.08 0-.16.05c-.07.5-.3.96-.62 1.32a.32.32 0 0 0 .07.24l.49.65c.08.11.06.28-.06.37a.26.26 0 0 1 -.37-.06l-.49-.65a.33.33 0 0 0 -.17-.11c-.26.16-.55.27-.86.32a.33.33 0 0 0 -.14.2v3.18a.24.24 0 1 1 -.48 0v-3.16a.3.3 0 0 0 -.1-.21 2.44 2.44 0 0 1 -1.58-.87.32.32 0 0 0 -.27.04h-.01l-1.13.67a.24.24 0 0 1 -.33-.08.24.24 0 0 1 .08-.33l1.15-.68c0-.01.12-.08.14-.23a2.42 2.42 0 0 1 -.16-.52c-.09-.16-.23-.16-.23-.16h-3.14a.25.25 0 0 1 0-.5h3.13s.14 0 .24-.15c.1-.6.4-1.12.85-1.5l-.01-.08a.5.5 0 0 0 -.08-.17l-1.44-2.15a.24.24 0 0 1 .07-.34.25.25 0 0 1 .33.07l1.46 2.16c.02.04.05.08.09.1.03.03.08.06.14.07a2.44 2.44 0 0 1 1.24-.2.32.32 0 0 0 .16-.11.5.5 0 0 0 .08-.18l.33-1.19a.23.23 0 0 1 .45.13l-.35 1.26a.36.36 0 0 0 .04.27c.13.05.26.12.38.2.13 0 .22-.07.22-.07zm-4.15 6.92a2 2 0 1 0 0-3.98 2 2 0 0 0 0 3.98z" fill="url(#e)"/></svg>