<svg height="18" viewBox="0 0 18 18" width="18" xmlns="http://www.w3.org/2000/svg"><path d="m0 0h18v18h-18z" fill="#f0f3fa"/><g fill="#003f77"><path d="m15 9.79c0-.85-1.13-1.55-1.7-1.79.38.3.95.85.95 1.5 0 1.11-2.13 2.1-4.07 2.1-1.55 0-2.76-.3-3.18-.45.34.29 1.57.85 3.72.85 2.68 0 4.28-1.15 4.28-2.21zm-11.18.02c-.38 0-.7-.07-.82-.11.08.1.37.3.82.3.56 0 1.57-.19 1.57-.6s-1.27-.88-1.27-1.3c0-1.08 3.16-1.7 4.88-1.7 1.38 0 2.58.3 3 .44-.33-.28-1.54-.84-3.72-.84-3.5 0-4.55 1.3-4.63 1.96 0 .56 1.46 1.23 1.46 1.37 0 .27-.82.48-1.3.48z"/><path d="m9.1 11c-1.18 0-2.1-.76-2.1-1.99 0-1.18.88-2.01 2.04-2.01s1.96.57 1.96 1.73v.27h-3.51v-.56h2.67c0-.63-.52-.82-1.11-.82-.62 0-1.2.37-1.2 1.03v.44c0 .74.53 1.29 1.26 1.29.41 0 .9-.1 1.08-.5l.81.12c-.24.77-1.17 1-1.9 1z"/></g></svg>