<svg height="18" width="18" xmlns="http://www.w3.org/2000/svg"><path d="m0 0h18v18h-18z" fill="#df134c"/><path d="m12.639 2a4.214 4.214 0 0 1 -.025 3.85c.357-.396.586-.892.657-1.42.072.15.122.308.15.473a2.28 2.28 0 0 0 -.02-1.606s.755 1.175-.067 2.214a2.511 2.511 0 0 0 -.053-.291c-.234.4-.539.752-.9 1.04.933-.267 1.354-.722 1.54-1.33.467-1.548-1.282-2.93-1.282-2.93z" fill="#004694"/><g fill="#eff7fb"><path d="m13.818 5.826a.036.036 0 0 0 -.05 0c-.02.02-1.084 1.158-3.128.885a14.428 14.428 0 0 1 -1.706-.356c.148-.302.254-.733-.184-.981-.63-.356-1.485.26-1.534.34-.019.033.006.05.033.053.11.01.955-.012 1.316.5-.896-.222-1.004.162-.872.558.144.39.337.76.574 1.102.01.015.01.036 0 .051a.089.089 0 0 1 -.044.028c-1.411.475-2.464 1.886-3.136 3.09a4.525 4.525 0 0 1 -.508-2.087 4.596 4.596 0 0 1 1.886-3.683 4.568 4.568 0 0 1 4.076-.663v-.01a4.812 4.812 0 0 0 -5.45 1.452 4.845 4.845 0 0 0 -.347 5.644c-.203.415-.381.843-.533 1.28-.063.187-.079.341.041.393s.19-.013.355-.24c.523-.723 2.743-4.027 4.287-2.982.767.52 1.008 1.002.561 1.451-.236.237-.8.571-1.139.732-.525.249-.81.298-.765.484.043.186.266.17 1.144-.059 1.015-.267 3.321-.865 2.134-2.825-.539-.883-1.095-1.552-1.46-2.097a.037.037 0 0 1 0-.046c.013-.019.046-.016.046-.016 3.92-.294 4.391-1.885 4.406-1.945 0-.01.016-.044 0-.06z"/><path d="m13.275 10.974a4.581 4.581 0 0 1 -7.404 1.204c-.133.168-.266.333-.381.486a4.81 4.81 0 0 0 4.343 1.227 4.824 4.824 0 0 0 3.453-2.913h-.01v-.004z"/></g></svg>