<svg height="18" viewBox="0 0 18 18" width="18" xmlns="http://www.w3.org/2000/svg"><path d="m0 0h18v18h-18z" fill="#ff642c"/><path d="m10.2 13c2.2.1 4.3-1 4.3-3.5 0-1.93-1.43-3.5-3.38-3.5h-5.91c-.09 0-.13.1-.07.16.36.34.86.94 1.98 1.7.06.04.05.14-.03.14h-4.49c-.09 0-.14.1-.09.16.77 1.11 3.3 2.36 4.04 2.7.07.03.05.14-.03.14h-2.17c-.1 0-.15.12-.08.19 1.63 1.51 3.6 1.7 5.93 1.8zm3.35-3.5c0 1.4-1.13 2.55-2.52 2.55a2.54 2.54 0 0 1 -2.53-2.55c0-1.4 1.13-2.55 2.53-2.55s2.52 1.14 2.52 2.55zm-2.64-1.27c-.1.01-.2-.06-.2-.17v-.3c0-.09.06-.15.13-.16h.19c.99 0 1.8.76 1.88 1.74.01.09-.06.16-.15.16h-.31c-.09 0-.16-.07-.17-.16a1.27 1.27 0 0 0 -1.37-1.1z" fill="#fff"/></svg>