<svg fill="none" height="18" viewBox="0 0 18 18" width="18" xmlns="http://www.w3.org/2000/svg" xmlns:xlink="http://www.w3.org/1999/xlink"><linearGradient id="a" gradientUnits="userSpaceOnUse" x1="9" x2="9" y1="0" y2="18"><stop offset="0" stop-color="#87b212"/><stop offset=".383302" stop-color="#1e5620"/><stop offset="1" stop-color="#1b3918"/></linearGradient><path d="m0 0h18v18h-18z" fill="url(#a)"/><path d="m9.0731 14c-1.2296 0-2.22094-.245-2.94737-.7278-.36021-.2314-.65031-.5332-.84599-.8801-.19567-.3469-.29122-.7289-.27864-1.1139v-.4131c-.00315-.0485.00573-.0971.02607-.1424.02034-.0454.05168-.0866.09196-.1209s.08859-.0609.14176-.0781c.05316-.0173.10999-.0247.16674-.0218h.76308c.05668-.0029.11344.0045.16653.0217.05308.0173.10129.0439.14144.0782.04016.0344.07133.0756.09148.121.02015.0453.02881.0939.02541.1423v.3604c-.0053.2082.05046.4143.16222.5994.11175.1851.27593.3433.47757.4602.44819.2849 1.09131.4273 1.91104.4273.7331 0 1.2896-.1282 1.6545-.3803.1707-.1157.307-.2642.398-.4335.0909-.1693.1337-.3546.1251-.5407.0097-.2376-.0735-.4711-.2366-.6637-.2207-.2324-.4945-.4238-.8047-.5626-.53929-.25045-1.09567-.47304-1.66612-.66657-.62549-.20896-1.23729-.44669-1.83274-.71215-.44831-.20169-.83692-.48811-1.13629-.83748-.31049-.39004-.46748-.85453-.44819-1.32603 0-.81612.34156-1.46275 1.013-1.91995.67145-.4572 1.55283-.66942 2.66913-.66942 1.21131 0 2.27781.25068 2.98921.74491.354.23993.6376.54719.8282.89732s.2943.73346.2811 1.11948v.29341c.0032.04853-.0171.09707-.0374.14245-.0203.04539-.0517.08658-.092.12088-.0402.0343-.0886.06092-.1417.07814-.0532.01721-.11.02461-.1668.02173h-.778c-.0568.00288-.1136-.00452-.1668-.02173-.0531-.01722-.1015-.04384-.1417-.07814-.0403-.0343-.0717-.07549-.092-.12088-.0203-.04538-.0292-.09392-.0261-.14245v-.23928c.0058-.20941-.0465-.41701-.1524-.60587-.106-.18886-.2627-.35363-.4574-.48087-.4215-.29341-1.11812-.44723-1.89286-.44723-.66645 0-1.18961.11394-1.5345.33898-.16525.11107-.29604.25514-.38087.41955-.08484.16442-.12111.34413-.10564.52334-.01281.23285.06902.46232.23159.64948.20044.20696.45116.37414.73476.48996.34822.14955.89804.3518 1.63613.59678.64249.21775 1.26699.47233 1.86939.762.4706.22805.8803.53754 1.2029.9087.3295.39204.5013.86484.4899 1.34734.0144.3761-.0745.7499-.2597 1.0912-.1852.3414-.4615.6409-.8066.8744-.6981.4757-1.6578.7164-2.8591.7164z" fill="#fff"/></svg>