<svg height="18" viewBox="0 0 18 18" width="18" xmlns="http://www.w3.org/2000/svg"><path d="m0 9a9 9 0 1 1 18 0 9 9 0 0 1 -18 0z" fill="#f0f3fa"/><path d="m8 3a1 1 0 1 1 0 2 1 1 0 0 1 0-2zm1.4 9.33.1.01v1.65l-.1.01a.85.85 0 0 1 -.87-.83c0-.46.38-.84.86-.84zm-4.15-2.75a.92.92 0 0 1 .88 1.16l-.64.65a.92.92 0 0 1 -1.15-.89c0-.5.4-.92.91-.92z" fill="#a6a8ab"/><path d="m14 8a1 1 0 1 1 0 2 1 1 0 0 1 0-2zm-8.33.5c-.09.32-.43.56-.84.56-.4 0-.75-.24-.83-.56z" fill="#a4cd39"/><path d="m10.8 4.5c1 0 1.7.81 1.7 1.81 0 .92-.62 1.57-1.5 1.69v-.22c0-.5-.36-.78-.86-.78h-1.01a1.81 1.81 0 0 1 1.68-2.5zm-4.47.5c.92 0 1.67.77 1.67 1.72l-.01.28h-3.3c-.02-.08-.02-.2-.02-.28-0-.95.73-1.72 1.66-1.72zm5.52 6c.6 0 1.1.5 1.1 1.11a1.1 1.1 0 0 1 -1.1 1.11c-.34 0-.65-.16-.85-.42v-1.38c.2-.26.5-.42.85-.42z" fill="#48c7f4"/><path d="m7.47 12.06a.7.7 0 1 1 -.69.6l.6-.6h.1zm3.78-3.34c.4 0 .72.31.72.7 0 .38-.32.7-.72.7a.76.76 0 0 1 -.25-.05v-1.3a.73.73 0 0 1 .25-.05z" fill="#a6a8ab"/><path d="m9.5 11.6a1.65 1.65 0 0 1 -1.66.2l1.66-1.8zm-3.17-1.94c0 .18.03.35.07.5l1.6-1.66h-1.25c-.26.31-.42.72-.42 1.16z" fill="#a4cd39"/></svg>