<svg fill="none" height="18" width="18" xmlns="http://www.w3.org/2000/svg" xmlns:xlink="http://www.w3.org/1999/xlink"><linearGradient id="a" gradientUnits="userSpaceOnUse" x1="11.326" x2="6" y1="4.497" y2="9.007"><stop offset="0" stop-color="#2797d4"/><stop offset=".352" stop-color="#a7d3ee"/><stop offset=".77" stop-color="#156cac"/><stop offset="1" stop-color="#01397c"/></linearGradient><linearGradient id="b" gradientUnits="userSpaceOnUse" x1="6.31" x2="14.007" y1="6.497" y2="6.497"><stop offset="0" stop-color="#037"/><stop offset="1" stop-color="#2795d3"/></linearGradient><linearGradient id="c" gradientUnits="userSpaceOnUse" x1="7.894" x2="12.806" y1="13.854" y2="9.778"><stop offset="0" stop-color="#3197d3"/><stop offset=".304" stop-color="#94caea"/><stop offset=".861" stop-color="#0a4c8d"/></linearGradient><linearGradient id="d" gradientUnits="userSpaceOnUse" x1="4" x2="11.193" y1="11.887" y2="12.449"><stop offset="0" stop-color="#2595d3"/><stop offset="1" stop-color="#003477"/></linearGradient><path d="m0 0h18v18h-18z" fill="#f0f3fa"/><path d="m6.395 4.578c-1.511.77-2.395 1.993-2.395 1.993l4 4.557a.852.852 0 0 0 1.247.044.91.91 0 0 0 -.01-1.294l-3.389-3.248c2.096-2.053 5.082-1.834 6.886-.06l-.767 1.283a.486.486 0 0 0 .188.679.459.459 0 0 0 .59-.15l1.255-1.812c-2.42-3.06-5.811-2.905-7.605-1.992z" fill="url(#a)"/><path d="m5.953 6.532c2.09-1.946 5.007-1.706 6.782.039l-.767 1.283a.486.486 0 0 0 .188.679.459.459 0 0 0 .59-.15l1.254-1.813c-.806-1.02-1.72-1.683-2.648-2.08-1.946-.228-4.114 0-5.399 2.04z" fill="url(#b)"/><path d="m11.605 13.422c1.511-.77 2.395-1.993 2.395-1.993l-4-4.557a.852.852 0 0 0 -1.247-.044.91.91 0 0 0 .01 1.294l3.388 3.247c-2.096 2.053-5.082 1.834-6.886.06l.767-1.283a.486.486 0 0 0 -.188-.679.459.459 0 0 0 -.59.15l-1.254 1.813c2.42 3.062 5.811 2.906 7.605 1.993z" fill="url(#c)"/><path d="m12.047 11.469c-2.09 1.945-5.007 1.705-6.782-.04l.767-1.283a.486.486 0 0 0 -.188-.679.459.459 0 0 0 -.59.15l-1.254 1.813c.806 1.02 1.72 1.683 2.648 2.08 1.946.228 4.114 0 5.399-2.04z" fill="url(#d)"/></svg>