<svg height="18" viewBox="0 0 18 18" width="18" xmlns="http://www.w3.org/2000/svg"><path d="m0 0h18v18h-18z" fill="#f0f3fa"/><path d="m5.5 11c-.53.02-1.04-.1-1.5-.35l.24-.6c.37.21.78.32 1.2.31.75 0 1.21-.47 1.21-1.12 0-1.64-2.65-1.34-2.65-3.5 0-1.05.8-1.74 1.9-1.74.45 0 .9.13 1.3.37l-.22.54c-.31-.19-.66-.3-1.02-.3-.68 0-1.14.4-1.14 1.07 0 1.61 2.67 1.25 2.67 3.5-.01 1.06-.83 1.82-2 1.82z" fill="#de1915"/><path d="m14 11.93c-.8 1.17-3.52 3.47-4.7 1.9.26.42.59.78.96 1.06.08.03.15.05.23.06 1.8.33 3.07-1.15 3.47-2.61.03-.13.05-.27.04-.4z" fill="#65b32e"/><path d="m12.14 6.6c-.18-.91-.95-1.4-1.73-.97-1.38.74-1.78 2.62-1.99 3.95l-.15.05a.41.41 0 0 0 -.19.22.45.45 0 0 0 0 .35c.02.06.06.1.1.14s.1.07.14.08c-.16 1.85.4 3.86 1.95 4.47-.38-.3-.7-.66-.96-1.08a4.68 4.68 0 0 1 -.6-2.62c0-.3.03-.59.09-.87.64-.22 1.08-.44 1.08-.44.53-.24 1.02-.6 1.44-1.05.54-.55.99-1.37.82-2.23zm-.5.83c-.25.6-.67 1.08-1.2 1.38-.18.11-.38.22-.58.3l-.58.23-.44.17s.23-.76.4-1.17a4.7 4.7 0 0 1 1.13-1.76c.1-.11.22-.2.35-.26a.93.93 0 0 1 .42-.08c.55.07.69.7.5 1.19z" fill="#005332"/></svg>