<svg height="18" viewBox="0 0 18 18" width="18" xmlns="http://www.w3.org/2000/svg" xmlns:xlink="http://www.w3.org/1999/xlink"><linearGradient id="a" gradientUnits="userSpaceOnUse" x1="13" x2="9.03" y1="4.26" y2="4.26"><stop offset="0" stop-color="#efdec7"/><stop offset=".5" stop-color="#927635"/></linearGradient><linearGradient id="b" gradientUnits="userSpaceOnUse" x1="12" x2="5.05" y1="9.76" y2="9.76"><stop offset=".39" stop-color="#927635"/><stop offset=".72" stop-color="#bfa06f"/><stop offset="1" stop-color="#f2e7d1"/></linearGradient><linearGradient id="c" gradientUnits="userSpaceOnUse" x1="11.38" x2="9.39" y1="7.5" y2="7.5"><stop offset=".39" stop-color="#927635"/><stop offset="1" stop-color="#efdec7"/></linearGradient><path d="m0 0h18v18h-18z" fill="#f0f3fa"/><path d="m13 4.63v-1.63a20.7 20.7 0 0 0 -3.43 1.64c-.36.2-.57.56-.57.94v2.42c.02-.52.7-1.02 1.05-1.2l2.33-1.2c.38-.2.62-.57.62-.97z" fill="url(#a)"/><path d="m9.93 9.74c1.52-.7 2.01-1.44 2.07-1.74v2.54c0 .48-.26.93-.7 1.16a50.55 50.55 0 0 1 -3.97 1.95c-1.7.72-2.26 1.2-2.33 1.35v-2.21c0-.54.33-1.02.83-1.24 1.18-.5 2.91-1.26 4.1-1.8z" fill="url(#b)"/><path d="m11.38 7.9c0-.34-.58-.74-.87-.9-.87.54-1.13.74-1.13 1.13 0 .31.55.71.82.87.4-.23 1.18-.78 1.18-1.1z" fill="url(#c)"/></svg>