<svg height="18" width="18" xmlns="http://www.w3.org/2000/svg"><path d="m0 0h18v18h-18z" fill="#f0f3fa"/><path d="m8.28 6.4h-2.28v-1.9h4.36a6.33 6.33 0 0 0 -2.08 1.9z" fill="#ef8201"/><path d="m10.76 10.54c-.34.42-2.97 3.82-5.29 3.43-1.64-.28-.65-2.13.23-2.69 0 0-.9 1.73 1.64.78a7.23 7.23 0 0 0 3.15-2.37s.04.43.27.85zm1.49-2.87.1-.22c.13-.36.27-.79.2-1 0 0-.01-.05-.03-.07a.53.53 0 0 0 -.46-.19.38.38 0 0 0 -.18.06.6.6 0 0 0 -.22.17 3.1 3.1 0 0 0 -.37.53l-.26.51-.1.2h1.32zm-.34 2.39a.47.47 0 0 1 -.26-.31c-.1-.3-.1-.5-.1-.5h.01-.92c0 .3.03.58.12.87 0 0 .3.87.88.92 1.24.1 1.49-1.44 1.49-1.44-.79.68-1.22.46-1.22.46zm-.17-4.35c.2.31.64.35 1 .1.35-.27.48-.73.29-1.04-.2-.31-.65-.35-1-.1-.36.27-.49.73-.3 1.04z" fill="#009844"/><path d="m9.7 7.67a2.74 2.74 0 0 1 1.36-1.25v-1.89c-.28.04-1.23.53-1.86 1.12a4.8 4.8 0 0 0 -1.4 2.02zm-2.32 4.18c.79-.33 1.4-.78 1.84-1.2 0-.43.03-.84.05-1.16l.02-.24h-1.86c-.17 1-.2 2.02-.2 2.65z" fill="#e50113"/><path d="m4 8h10v1h-10z" fill="#009844"/></svg>