<svg height="18" viewBox="0 0 18 18" width="18" xmlns="http://www.w3.org/2000/svg"><path d="m0 0h18v18h-18z" fill="#f0f3fa"/><path d="m5.82 5.2a6.33 6.33 0 0 1 6.36 0l1.13-.88a7.66 7.66 0 0 0 -8.62 0zm0 7.6a6.33 6.33 0 0 0 6.37 0l1.12.88a7.66 7.66 0 0 1 -8.61 0zm6.98-6.98a6.33 6.33 0 0 1 0 6.37l.88 1.12a7.67 7.67 0 0 0 0-8.61zm-7.6 0a6.33 6.33 0 0 0 0 6.37l-.88 1.12a7.68 7.68 0 0 1 0-8.61zm3.32.93v1.05s-.46-.47-1.3-.47c-.68 0-.84.34-.83.53 0 .18.1.38.9.75.96.46 1.45 1.06 1.45 1.8 0 .73-.45 1.6-1.69 1.6-1.1 0-1.68-.54-1.68-.54v-1.2a2 2 0 0 0 1.58.79c.67 0 .79-.44.8-.66 0-.22-.19-.53-.53-.7-.42-.2-1.29-.59-1.55-.95s-.3-.61-.3-.9c0-.52.41-1.46 1.8-1.46.95 0 1.35.37 1.35.37zm2.39-.37c-.9 0-1.9.37-1.9.37v5.25h.99v-4.5c.17-.09.53-.15.98-.15.98 0 1.49.43 1.49.43v-1.03s-.56-.38-1.56-.38z" fill="#231815"/><path d="m12.16 9.1a.64.64 0 1 1 -1.29 0 .64.64 0 0 1 1.3 0z" fill="#e60012"/></svg>