<svg height="18" viewBox="0 0 18 18" width="18" xmlns="http://www.w3.org/2000/svg"><path d="m0 0h18v18h-18z" fill="#f0f3fa"/><path d="m8 14.92a6.04 6.04 0 0 0 2.1-.02c-.39-2.02-.93-5.77-.86-11.9a6.1 6.1 0 0 0 -.37 0c.06 6.15-.48 9.9-.87 11.92zm.61-11.9c-.13 0-.27.01-.4.03a15.86 15.86 0 0 1 -3.39 10.26c.42.4.9.75 1.42 1.02 1.9-2.97 2.45-8.31 2.36-11.33zm-4.88 8.86c3.5-2 4.18-6.33 4.2-8.78a6 6 0 0 0 -4.2 8.78zm5.77-8.86c-.08 2.98.46 8.3 2.34 11.27.52-.27.98-.62 1.4-1.03a15.92 15.92 0 0 1 -3.34-10.2 6.02 6.02 0 0 0 -.4-.04zm.69.1c.02 2.43.7 6.71 4.1 8.73a6 6 0 0 0 -4.1-8.73z" fill="#e62129"/><path d="m8 14.92a6.04 6.04 0 0 0 2.1-.02c-.21-1.1-.46-2.7-.64-4.9a17.21 17.21 0 0 0 -.81 0 44.08 44.08 0 0 1 -.65 4.93zm-.1-4.87c-.38.04-.77.08-1.16.14a13.22 13.22 0 0 1 -1.92 3.12c.42.4.9.75 1.42 1.02a13.89 13.89 0 0 0 1.65-4.28zm-4.17 1.83c.72-.41 1.32-.92 1.81-1.49-.72.15-1.46.33-2.22.54.11.33.25.65.41.95zm6.47-1.85c.37 1.59.9 3.1 1.63 4.26.52-.27.98-.62 1.4-1.03-.54-.63-1.27-1.7-1.9-3.13a17.3 17.3 0 0 0 -1.13-.1zm2.28.29c.49.58 1.09 1.1 1.8 1.53.16-.3.3-.6.4-.93a14.4 14.4 0 0 0 -2.2-.6z" fill="#231d1d"/></svg>