<svg height="18" width="18" xmlns="http://www.w3.org/2000/svg"><path d="m0 0h18v18h-18z" fill="#73b337"/><g fill="#fff"><path d="m4.29 6.318c.595-1.218 2.094-2.315 4.718-2.315 2.55 0 4.037 1.159 4.657 2.309.234.432.155.888-.11 1.212-.25.304-.645.476-1.055.476h-7c-.41 0-.806-.172-1.06-.472a1.09 1.09 0 0 1 -.15-1.21zm4.718-1.315c-2.333 0-3.429.954-3.82 1.754-.018.038-.017.058-.016.067a.119.119 0 0 0 .03.057.397.397 0 0 0 .298.119h7a.37.37 0 0 0 .281-.11c.018-.022.022-.037.022-.043 0-.004.003-.022-.018-.06-.428-.795-1.557-1.784-3.777-1.784z"/><path d="m5.246 10.488c-.286.212-.684.512-1.262.512v-1c.229 0 .352-.09.657-.311l.132-.095c.397-.286.92-.594 1.814-.594.433 0 .766.072 1.04.21.27.135.445.317.567.444.128.135.193.2.286.25.083.045.228.096.514.096.285 0 .444-.05.547-.103.113-.056.195-.131.335-.262l.006-.005c.132-.124.315-.295.579-.423.273-.134.6-.207 1.023-.207s.752.074 1.028.205c.27.128.458.3.596.425.147.134.232.21.345.269.103.052.254.101.522.101v1c-.401 0-.714-.076-.978-.211-.237-.122-.411-.282-.538-.397l-.024-.022a1.432 1.432 0 0 0 -.353-.262c-.118-.057-.296-.108-.598-.108s-.474.052-.586.106c-.117.057-.204.133-.339.26l-.017.016c-.127.118-.303.283-.55.408-.268.135-.587.21-.998.21-.41 0-.727-.074-.99-.216-.238-.13-.4-.3-.511-.416l-.021-.022c-.118-.123-.19-.191-.293-.243-.1-.05-.271-.103-.592-.103-.612 0-.933.192-1.231.406a7.07 7.07 0 0 0 -.11.082zm-.746 1.508a.5.5 0 0 0 0 1h9a.5.5 0 0 0 0-1z"/></g></svg>