<svg height="18" viewBox="0 0 18 18" width="18" xmlns="http://www.w3.org/2000/svg"><path d="m0 0h18v18h-18z" fill="#f0f3fa"/><path d="m11.9 7.2-2.75 1.2c.68-.13 2.05-.24 2.05.4 0 .8-2.43 1.2-3.11 1.2-1.95 0-3.9-.9-3.9-1.6 0-.92 1.54-1.73 3.93-1.73 1.92 0 2.4.4 2.4.53l.68-.4s-1.2-.47-3.08-.47c-3.07 0-4.22 1.27-4.22 2.07s1.46 2.1 4.2 2.1 4.5-1.3 4.5-2.1c0-.64-.48-1.07-.7-1.2zm.19-.87c-.67-.16-1.52-.33-2.04-.33.28.04 1.14.27 1.78.47z" fill="#190772"/><path d="m12.88 6.84.39-.16c.7.3 1.52.88 1.7 1.72.34 1.6-2.4 3.6-6.84 3.6-3.56 0-4.9-1.6-5.13-2.4.34.76 1.95 1.9 5.1 1.9 4.11 0 5.7-1.47 5.7-3.1 0-.92-.5-1.34-.92-1.56z" fill="#190772"/><path d="m11.58 6.6a7.84 7.84 0 0 0 -2.27-.33c.35.05 1.1.17 2 .47zm.64.51.4-.16c.45.22 1.01.68 1.01 1.45 0 1.2-1.74 2.93-5.84 2.93-2.09 0-4.04-1.33-4.45-2.13a7.07 7.07 0 0 0 4.45 1.47c2.73 0 4.96-1.07 4.96-2.27 0-.75-.25-1.1-.53-1.29z" fill="#fa4e01"/></svg>