<svg height="18" viewBox="0 0 18 18" width="18" xmlns="http://www.w3.org/2000/svg" xmlns:xlink="http://www.w3.org/1999/xlink"><linearGradient id="a" gradientUnits="userSpaceOnUse" x1="5.33" x2="13.8" y1="9.16" y2="9.73"><stop offset="0" stop-color="#382700"/><stop offset=".2" stop-color="#90784c"/><stop offset=".33" stop-color="#fffbe3"/><stop offset=".54" stop-color="#9d8642"/><stop offset=".71" stop-color="#513c00"/><stop offset="1" stop-color="#f1dda2"/></linearGradient><linearGradient id="b" gradientUnits="userSpaceOnUse" x1="6.99" x2="11.87" y1="7.24" y2="4.97"><stop offset="0" stop-color="#472c01"/><stop offset=".29" stop-color="#926d28"/><stop offset=".46" stop-color="#a98e3d"/><stop offset=".66" stop-color="#fff796"/><stop offset=".8" stop-color="#a18738"/><stop offset="1" stop-color="#665423"/></linearGradient><linearGradient id="c" gradientUnits="userSpaceOnUse" x1="6.69" x2="6.69" y1="4.55" y2="12.97"><stop offset="0" stop-color="#4b3004"/><stop offset=".26" stop-color="#ad913d"/><stop offset=".4" stop-color="#dcc97a"/><stop offset=".51" stop-color="#fafa96"/><stop offset=".6" stop-color="#d4bf70"/><stop offset=".73" stop-color="#9c762d"/><stop offset="1" stop-color="#472c01"/></linearGradient><linearGradient id="d" gradientUnits="userSpaceOnUse" x1="7.72" x2="11.98" y1="12.05" y2="9.41"><stop offset="0" stop-color="#482c01"/><stop offset=".25" stop-color="#815e1e"/><stop offset=".38" stop-color="#c9b054"/><stop offset=".55" stop-color="#fff490"/><stop offset=".66" stop-color="#cbb359"/><stop offset=".89" stop-color="#825f1d"/><stop offset="1" stop-color="#482c01"/></linearGradient><path d="m0 0h18v18h-18z" fill="#f0f3fa"/><path d="m7.3 4.58.78 1.37 5.68 3.84.18 1.47c-.2.58-1.1 1.74-3.22 1.74a26.2 26.2 0 0 1 -3.92-.16l-1.78-2.67.2-2.47 1.24-2.2c.14-.2.6-.77.83-.93zm-1 2.13c-.16.85-.27 2.86.65 4.13.75.18 2.28.5 2.34.43s.57-1.06.81-1.55c-.69-.2-2.2-.73-2.7-1.22a5.56 5.56 0 0 1 -1.1-1.8z" fill="url(#a)"/><path d="m10.68 9.55c-2.85-.4-3.98-1.96-4.18-2.69a2.15 2.15 0 0 1 .71-1.92c.92-.78 1.44-1 2.06-.92.5.07.98.44 1.16.62.62.45 2.1 1.8 3 3.53.7.91.62 2.46.5 3.12-.05-1.56-1.6-1.6-3.24-1.74z" fill="url(#b)"/><path d="m4 10.5c0-2.32 2.2-4.93 3.3-5.95-1.4 1.54-1.8 3.61-.93 5.95a3.72 3.72 0 0 0 3.01 2.5h-2.66c-2.1 0-2.69-1.68-2.72-2.5z" fill="url(#c)"/><path d="m9.21 10.57c-.38.26-1.71.27-2.34.24 1.12 2.03 3.2 1.92 3.64 1.92s3.02-.3 3.02-1.6c0-1.29-1.85-1.23-2.3-1.24a9.54 9.54 0 0 1 -1.25-.2c-.1.19-.4.62-.77.88z" fill="url(#d)"/></svg>