<svg height="18" viewBox="0 0 18 18" width="18" xmlns="http://www.w3.org/2000/svg" xmlns:xlink="http://www.w3.org/1999/xlink"><linearGradient id="a" gradientUnits="userSpaceOnUse" x1="4" x2="13.99" y1="9" y2="9"><stop offset=".1" stop-color="#0082eb"/><stop offset=".9" stop-color="#00d26e"/></linearGradient><path d="m0 0h18v18h-18z" fill="#f0f3fa"/><path d="m9 4-5 .9 1.16 8.6 3.84.5 3.84-.5 1.16-8.6zm0 9.07-2.94-.4-.69-5.1 3.13-.57v4.02l-1.06-.15-.17-1.17h.5l-.14-1.55-1.33.2.47 3.45 2.25.3 3.06-.4-.14.95zm3.22-2.4-2.7.35v-4l1.57.28-.15 1.03-.54-.11-.14 1.52 1.3-.09.45-3.24-3.01-.54-3.77.67-.12-.91 3.89-.7 3.89.7z" fill="url(#a)"/></svg>