<svg height="18" viewBox="0 0 18 18" width="18" xmlns="http://www.w3.org/2000/svg"><path d="m0 0h18v18h-18z" fill="#f0f3fa"/><path d="m9.31 4c.49.51 1.3 1.3 2.22 2.01.92.72 1.87 1.72 2.45 2.4a5.05 5.05 0 0 0 -4.67-4.41zm4.69 5.08a5 5 0 1 1 -9.93-.94c.3-.6.87-1.14 1.95-1.14 1.1 0 2.47.71 3.02 1.07l-.25-.62c.42.2 1.4.78 2.05 1.4.3 0 .79.23.8.32.02.08 0 .26 0 .34.33.3 1.04.9 1.29 1.49.18 0 .14-.19.07-.34l-.9-1.66c.17.07.63.47 1 1.04.14.25.3.44.36.5a6.75 6.75 0 0 0 -1.99-2.68c0-.24.22-.21.27-.17l.05.04c.14.13.5.46.68.34.17-.11.16-.37.13-.49.33.29.98.9 1.39 1.5z" fill="#008cc8"/></svg>