<svg height="18" viewBox="0 0 18 18" width="18" xmlns="http://www.w3.org/2000/svg"><path d="m0 0h18v18h-18z" fill="#f0f3fa"/><g fill="#025198"><path d="m2.3 8.17v2.05c2.65.88 4.73 1.31 6.77 1.32 2.05 0 4.07-.43 6.64-1.31v-2.06c-2.59-1.16-4.62-1.72-6.66-1.7-2.05 0-4.11.57-6.76 1.7zm13.7-.35c-5.4-2.46-8.47-2.4-14 0v2.78c5.57 1.85 8.62 1.88 14 0z" fill-rule="evenodd"/><path d="m6.64 6.4c.63.32 1.45.52 2.36.52.84 0 1.6-.17 2.2-.44l.62.14c-.7.47-1.7.76-2.82.76-1.2 0-2.26-.33-2.96-.86zm5.56 5.28a4.73 4.73 0 0 0 -3.2-1.06c-1.32 0-2.49.4-3.17 1.04l.54.1.05-.04c.65-.4 1.56-.64 2.58-.64a5.04 5.04 0 0 1 2.67.7zm-8.45-3.01v-.67h2.25v.67l-.94.66h.94v.67h-2.25v-.67l.87-.66z"/><path d="m6.28 8v2h.72v-.33h1.1c.36 0 .9-.04.9-.84s-.54-.83-.9-.83h-1.83zm.72.67v.33h.89c.2 0 .4-.03.4-.17 0-.16-.2-.16-.4-.16z" fill-rule="evenodd"/><path d="m9.88 10h-.88l.7-2h.7l.35.67.35-.67h.7l.7 2h-.88l-.17-.67-.35.67h-.7l-.35-.67-.18.67zm4.31-2h-1.17c-.13 0-.52 0-.52 1 0 .8.35 1 .52 1h1.17c.51 0 .64-.56.64-.83h-.52c0 .13-.17.16-.25.16h-.4c-.12 0-.46 0-.46-.33 0-.27.38-.33.47-.33h.39c.2 0 .25.1.25.16h.52c0-.66-.43-.83-.64-.83z"/></g></svg>