<svg height="18" viewBox="0 0 18 18" width="18" xmlns="http://www.w3.org/2000/svg"><path d="m0 0h18v18h-18z" fill="#f0f3fa"/><path d="m9 13c3.87 0 7-1.8 7-4s-3.13-4-7-4-7 1.8-7 4 3.13 4 7 4zm-2-5.64h1v3.28h-1zm-1.62 0c.95-.02 1.2.66 1.2.98h-.84c0-.25-.22-.33-.36-.33s-.35.06-.35.25.33.23.54.26l.1.02c.8.16 1 .7 1 .96.03.36-.22 1.14-1.29 1.14-1.1 0-1.36-.74-1.34-1.14h.84c.01.4.27.49.48.49.14 0 .33-.07.33-.32s-.34-.38-.56-.42c-.92-.22-1.1-.7-1.1-.95 0-.3.17-.92 1.35-.94zm2.95 3.28v-3.28h1.41a1.07 1.07 0 1 1 0 2.13h-.42v1.15h-1zm.99-1.8v-.84h.25c.22 0 .4.19.4.42 0 .22-.18.4-.4.4h-.25zm3.42 1.8c.63 0 1.12-.23 1.44-.6v-1.37h-1.53v.66h.67v.39c-.12.23-.4.27-.66.27-.36 0-.66-.45-.66-.99s.3-.99.66-.99c.23 0 .43.18.55.44l1.1-.27c-.33-.49-.92-.82-1.57-.82-.96 0-1.74.44-1.74 1.64s.78 1.64 1.74 1.64z" fill="#003578" fill-rule="evenodd"/></svg>