<svg height="18" viewBox="0 0 18 18" width="18" xmlns="http://www.w3.org/2000/svg"><path d="m0 0h18v18h-18z" fill="#f0f3fa"/><path d="m7 9.9 1.1 1.75c.14.23.4.35.66.35s.52-.12.66-.35l1.58-2.55 1.6 2.55c.2.33.66.45 1.02.26.36-.2.49-.62.28-.95l-2.25-3.61a.77.77 0 0 0 -.65-.35.77.77 0 0 0 -.66.35l-1.59 2.57-.9-1.44-.85 1.41zm-1.36-1.43-1.54 2.49c-.2.33-.08.76.28.95s.82.07 1.02-.26l1.1-1.77z" fill="#03519b"/><path d="m8.13 5.08c.3.18.4.57.24.87l-1.37 2.53c-.1.2-.38.2-.49 0l-1.41-2.51a.66.66 0 0 1 .2-.88.6.6 0 0 1 .85.22l.6 1.06.56-1.04a.6.6 0 0 1 .83-.25z" fill="#de0033"/></svg>