<svg height="18" viewBox="0 0 18 18" width="18" xmlns="http://www.w3.org/2000/svg"><path d="m0 0h18v18h-18z" fill="#f0f3fa"/><g fill="#a9384a"><path d="m3 8.65a6.01 6.01 0 0 1 5.65-5.65v1.01a5 5 0 0 0 -4.65 4.64zm0 .7a6.01 6.01 0 0 0 5.65 5.65v-1.01a5 5 0 0 1 -4.65-4.64zm10.99 0a5 5 0 0 1 -4.64 4.65v1a6.01 6.01 0 0 0 5.65-5.65zm1.01-.7a6.01 6.01 0 0 0 -5.65-5.65v1.01a5 5 0 0 1 4.65 4.64z"/><path d="m5 5h1v6h-1zm7 2h1v6h-1zm-7 6v-1h6v1zm2-7v-1h6v1z"/><path d="m11 7h-4v4h4zm-1 1h-2v2h2z" fill-rule="evenodd"/></g></svg>