<svg height="18" viewBox="0 0 18 18" width="18" xmlns="http://www.w3.org/2000/svg"><path d="m0 0h18v18h-18z" fill="#f0f3fa"/><path d="m9 4c-1.72.08-5 5.78-5 7.42 0 1.31 3.32 1.6 5 1.58 1.68.02 5-.27 5-1.58 0-1.64-3.28-7.34-5-7.42z" fill="#ed1e2c"/><path d="m9 4.6c-1.5.07-4.38 5.2-4.38 6.68 0 1.18 2.91 1.44 4.38 1.42 1.47.02 4.38-.24 4.38-1.42 0-1.48-2.87-6.6-4.38-6.68z" fill="#ffee35"/><path d="m12 11a10.46 10.46 0 0 0 -3-3.74c0-.16.3-1.26.72-1.26.82 0 1.9 3.3 2.28 5zm-6 .83a11.31 11.31 0 0 0 4.53-1.83c.1.06.67.8.4 1.27-.54.89-3.51.81-4.93.56zm2-5.83c-.73 1.98-.7 4.12-.6 4.94-.1.07-1.03.17-1.3-.31-.5-.94 1-3.53 1.9-4.63zm0 2 2 .54-1.46 1.46z" fill="#ed1e2c"/></svg>