<svg height="18" viewBox="0 0 18 18" width="18" xmlns="http://www.w3.org/2000/svg" xmlns:xlink="http://www.w3.org/1999/xlink"><linearGradient id="a" gradientUnits="userSpaceOnUse" x1="5.88" x2="11.66" y1="5.09" y2="13.53"><stop offset=".05" stop-color="#ee431c"/><stop offset=".19" stop-color="#fca67e"/><stop offset=".38" stop-color="#f79e79"/><stop offset=".55" stop-color="#bd231a"/><stop offset=".67" stop-color="#990f0e"/><stop offset="1" stop-color="#a50e14"/></linearGradient><path d="m0 0h18v18h-18z" fill="#f0f3fa"/><path d="m14 9a5 5 0 1 1 -10 0 5 5 0 0 1 10 0zm-2.81-1.25-2.5-2.19c-1.46.64-4.39 2.04-4.39 2.82s.78 1.24 1.57 1.24h1.71c-.41-.05-1.25-.3-1.25-.93s.79-.94 1.41-.94h3.44zm-1.89 4.69-2.5-2.19h3.44c.63 0 1.4-.31 1.4-.94 0-.62-.83-.88-1.24-.94h1.71c.79 0 1.57.47 1.57 1.26 0 .78-2.92 2.18-4.38 2.8z" fill="url(#a)" fill-rule="evenodd"/></svg>