<svg height="18" viewBox="0 0 18 18" width="18" xmlns="http://www.w3.org/2000/svg"><path d="m0 0h18v18h-18z" fill="#f0f3fa"/><path d="m14 4h-10v4.21c4.76-.21 6.67-1.5 7.03-2.1-.22.63-1 1.14-1.35 1.31 1.5-.42 2.07-1.05 2.16-1.31-.22.63-1 1.31-1.35 1.57.65-.2 2.07-1.31 2.7-1.84-.22.84-2.61 2.46-3.78 3.16.86 0 2.52-1.05 3.24-1.58-.22.42-2.07 1.76-2.97 2.37.86 0 2.16-1.05 2.7-1.58-.43 1.26-2.7 2.28-3.79 2.63 1.09 0 2.98-1.05 3.79-1.58-.65.85-2.8 1.93-3.79 2.37 1.3 0 2.35-.7 2.7-1.05-1.07 1.47-5.3 2.2-7.29 2.37v1.05h10z" fill="#054f90"/></svg>