<svg height="18" viewBox="0 0 18 18" width="18" xmlns="http://www.w3.org/2000/svg"><path d="m0 0h18v18h-18z" fill="#f0f3fa"/><path d="m9 14a5 5 0 1 0 0-10 5 5 0 0 0 0 10zm0-.57a4.43 4.43 0 1 0 0-8.86 4.43 4.43 0 0 0 0 8.86z" fill="#004097" fill-rule="evenodd"/><path d="m5 8c.14-.24.31-.38.5-.38s.36.14.5.38c-.02-.56-.24-1-.5-1s-.48.44-.5 1zm1 0c.14-.24.31-.38.5-.38s.36.14.5.38c-.02-.56-.24-1-.5-1s-.48.44-.5 1zm-1 1c.14-.24.31-.38.5-.38s.36.14.5.38c-.02-.56-.24-1-.5-1s-.48.44-.5 1zm1 0c.14-.24.31-.38.5-.38s.36.14.5.38c-.02-.56-.24-1-.5-1s-.48.44-.5 1zm-1 1c.14-.24.31-.38.5-.38s.36.14.5.38c-.02-.56-.24-1-.5-1s-.48.44-.5 1zm1 0c.14-.24.31-.38.5-.38s.36.14.5.38c-.02-.56-.24-1-.5-1s-.48.44-.5 1zm5-2c.14-.24.31-.38.5-.38s.36.14.5.38c-.02-.56-.24-1-.5-1s-.48.44-.5 1zm1 0c.14-.24.31-.38.5-.38s.36.14.5.38c-.02-.56-.24-1-.5-1s-.48.44-.5 1zm-1 1c.14-.24.31-.38.5-.38s.36.14.5.38c-.02-.56-.24-1-.5-1s-.48.44-.5 1zm1 0c.14-.24.31-.38.5-.38s.36.14.5.38c-.02-.56-.24-1-.5-1s-.48.44-.5 1zm-1 1c.14-.24.31-.38.5-.38s.36.14.5.38c-.02-.56-.24-1-.5-1s-.48.44-.5 1zm1 0c.14-.24.31-.38.5-.38s.36.14.5.38c-.02-.56-.24-1-.5-1s-.48.44-.5 1z" fill="#004097"/><g fill="#e50014"><path d="m6.49 6h2.51v.33h-.27c-.46 0-.73.3-.73.77v4.07c-.04.25-.05.83-.9.83-.7 0-1.1-.33-1.1-.7 0-.36.24-.46.53-.46s.16.5.55.5c.23 0 .23-.15.24-.3v-3.87c0-.47.01-.83-.45-.83h-.38z"/><path d="m9 6h3v.33h-.27c-.46 0-1.05.3-1.05.77v4.07c-.04.25-.05.83-.9.83-.69 0-1.1-.33-1.1-.7 0-.36.24-.46.53-.46s.16.5.56.5c.23 0 .23-.15.23-.3v-3.87c0-.47.01-.83-.45-.83h-.55z"/></g></svg>