<svg height="18" viewBox="0 0 18 18" width="18" xmlns="http://www.w3.org/2000/svg"><path d="m0 0h18v18h-18z" fill="#f0f3fa"/><ellipse cx="4.63" cy="7.89" fill="#adadad" rx=".63" ry=".64"/><ellipse cx="5.88" cy="8.54" fill="#adadad" rx=".63" ry=".64"/><path d="m6.5 5.64c0 .36-.28.65-.63.65a.63.63 0 0 1 -.62-.65c0-.35.28-.64.63-.64.34 0 .62.29.62.64zm-.63 2.1c.35 0 .63-.3.63-.65a.63.63 0 0 0 -.63-.64.63.63 0 0 0 -.62.64c0 .35.28.64.63.64zm1.55.63c.34 0 .62-.28.62-.64a.63.63 0 0 0 -.62-.64.63.63 0 0 0 -.63.64c0 .36.28.64.63.64zm.02-1.44c.34 0 .62-.29.62-.64a.63.63 0 0 0 -.62-.65.63.63 0 0 0 -.63.65c0 .35.28.64.63.64z" fill="#adadad"/><path d="m6.45 7.34-1.1-.6c.1-.17.3-.3.53-.3.34 0 .62.3.62.65 0 .09-.02.17-.05.25zm1.46.8-1.09-.6a.63.63 0 0 1 .6-.45c.34 0 .62.29.62.64 0 .15-.05.3-.13.4zm-1.04-2.13 1.13.56a.62.62 0 0 1 -.56.36.63.63 0 0 1 -.63-.64c0-.1.02-.19.06-.27zm-.4-.19a.63.63 0 0 1 -.6.46.63.63 0 0 1 -.62-.65c0-.13.04-.25.1-.35z" fill="#363e62"/><path d="m11.81 6.29c.35 0 .63-.3.63-.65a.63.63 0 0 0 -.64-.64.63.63 0 0 0 -.62.64c0 .36.28.65.62.65zm-1.25.64c.35 0 .63-.29.63-.64a.63.63 0 0 0 -.63-.65.63.63 0 0 0 -.62.65c0 .35.28.64.62.64zm-.02 1.45c.35 0 .63-.3.63-.65a.63.63 0 0 0 -.63-.64.63.63 0 0 0 -.62.64c0 .36.28.64.62.64zm1.9-1.3c0 .36-.28.65-.63.65a.63.63 0 0 1 -.62-.64c0-.36.28-.64.62-.64.35 0 .63.28.63.64z" fill="#adadad"/><path d="m12.38 6.83a.62.62 0 0 0 -.57-.38.63.63 0 0 0 -.62.64c0 .14.04.27.12.38zm-1.23.73a.63.63 0 0 0 -.6-.47.63.63 0 0 0 -.63.64c0 .18.07.34.18.46zm-1.13-.95c.11.2.31.32.54.32.35 0 .63-.29.63-.64a.65.65 0 0 0 -.11-.37l-1.06.7zm1.2-.77c.08.26.31.45.6.45.34 0 .62-.3.62-.65a.65.65 0 0 0 -.2-.47z" fill="#363e62"/><ellipse cx="9" cy="6.93" fill="#363e62" rx=".63" ry=".64"/><ellipse cx="9" cy="8.54" fill="#363e62" rx=".63" ry=".64"/><ellipse cx="9" cy="10.14" fill="#363e62" rx=".63" ry=".64"/><ellipse cx="9" cy="11.75" fill="#363e62" rx=".63" ry=".64"/><ellipse cx="9" cy="13.36" fill="#363e62" rx=".63" ry=".64"/><g fill="#adadad"><ellipse cx="7.44" cy="9.18" rx=".63" ry=".64"/><ellipse cx="10.56" cy="9.18" rx=".63" ry=".64"/><ellipse cx="7.44" cy="10.79" rx=".63" ry=".64"/><ellipse cx="10.56" cy="10.79" rx=".63" ry=".64"/><ellipse cx="7.44" cy="12.39" rx=".63" ry=".64"/><ellipse cx="10.56" cy="12.39" rx=".63" ry=".64"/><ellipse cx="13.38" cy="7.89" rx=".63" ry=".64"/><ellipse cx="12.13" cy="8.54" rx=".63" ry=".64"/></g><ellipse cx="4.63" cy="6.29" fill="#eb000f" rx=".63" ry=".64"/><ellipse cx="13.38" cy="6.29" fill="#eb000f" rx=".63" ry=".64"/></svg>