<svg height="18" viewBox="0 0 18 18" width="18" xmlns="http://www.w3.org/2000/svg"><path d="m0 0h18v18h-18z" fill="#f0f3fa"/><path d="m11.74 12h-5.48c0-1.81.55-1.81 1.23-2.47.69-.66 2.06-.5 3.02-.33.77.13 1.14 1.92 1.23 2.8z" fill="#e4660f"/><path d="m14.14 12v-1.29l-2.05.74v-.19l.68-.55-.68.18-.18-.36 1.72-.92-.69-.74-.34-1.1-1.37 1.65-.34-.37.51-.73-.69.55-.17-.19 1.03-1.65-1.03-.19-.85-.55v2.4h-.19l-.34-1.11-.16 1.1h-.34v-2.4l-1.03.56-1.03.19 1.03 1.65-.34.37-.69-.92.51 1.1-.17.2-1.2-1.85-.51 1.1-.86.74 1.72 1.1-.18.37-.85-.36.68.73v.19l-1.88-.92v1.1h-.17l-.19-1.66-.5-.17.34-.55.35.18.34-.37 1.03-.55.34-1.29.17-.18-.34-.56.51-.36.35.55.51-.19 1.03.19 1.03-.92h.34v-.75h.51v.74h.35l.85.92 1.2-.19.35.19.34-.37.34.37-.34.37.34.36.17 1.3 1.03.55.17.37.52-.19.17.55-.51.19v.37l-.19 1.47h-.17z" fill="#0f3482"/></svg>