<svg height="18" viewBox="0 0 18 18" width="18" xmlns="http://www.w3.org/2000/svg"><path d="m0 0h18v18h-18z" fill="#f0f3fa"/><g fill="#006597"><path d="m6.3 8 .75-1h-2.55c-.56 0-1.2.33-1.2 1.17 0 .83.6 1.16 1.2 1.16h2.1c.63 0 .96.85.97 1.44.26.18.67.23.83.23h1.72c.36 0 .49-.11.6-.25-.01-.43-.18-.91-.52-1.15v.07c0 .33-.36.33-.45.33h-1.05c-.38 0-.83-.2-.9-.67-.1-.7-.6-1-1.2-1h-2.1c-.11 0-.3 0-.3-.16 0-.17.15-.17.3-.17z"/><path d="m7.42 10.72c-.02-.42-.19-.89-.53-1.12l.01.07c0 .33-.5.33-.6.33h-2.55l-.75 1h3.6c.35 0 .57 0 .82-.28zm1.3-2.72a.9.9 0 0 0 -.91.85c-.2-.4-.57-.62-1-.67.21-.54.78-1.18 1.59-1.18h2.1l-.75 1zm1.18 1.33c.62 0 .95.82.97 1.4.2.14.57.27.83.27h2.1c.37 0 1.05-.27 1.05-1.33 0-1.07-.68-1.34-1.05-1.34h-1.45l-.56 1h1.56c.28 0 .45 0 .45.34 0 .33-.3.33-.45.33h-1.05c-.45 0-1.1-.03-1.2-.67-.1-.7-.6-1-1.2-1h-.9l-.75 1z"/><path d="m12.3 8c-.56 0-1.12.18-1.2.85a1.2 1.2 0 0 0 -.86-.65c.2-.54.83-1.2 1.76-1.2h3l-.75 1z"/></g></svg>