<svg height="18" viewBox="0 0 18 18" width="18" xmlns="http://www.w3.org/2000/svg"><path d="m0 0h18v18h-18z" fill="#f0f3fa"/><g fill="#1b4a9d"><path d="m7.33 5h-2.33c1.33 1.31 3.07 3.67 3.5 3.67s.5-.18.5-.27v-1.73h.33c.84.66 2.71 2 3.14 2 .42 0 .53-.18.53-.27v-3.4h-1v1.67l-1.67-1.67h-1.66v1.33z"/><path d="m13 6.95v3.77c0 .1-.11.28-.56.28-.44 0-2.22-1.32-3.35-2.16l-.09-.06v1.94c0 .1-.05.28-.5.28-.26 0-1.22-1.17-2.27-2.43l-1.32-1.58c-1.17.64-1.91 1.54-1.91 2.54 0 1.92 2.69 3.47 6 3.47 2.23 0 4.17-.7 5.2-1.74-1 .72-2.82 1.2-4.91 1.2-3.16 0-5.72-1.1-5.72-2.45 0-.47.3-.9.83-1.28-.19.25-.28.51-.28.78 0 1.36 2.43 2.46 5.44 2.46 2.82 0 5.14-.97 5.41-2.2l.01.04a2.04 2.04 0 0 0 -.22-1.25c-.3.4-.8.93-1.47 1.24.33-.3.94-1.04 1.1-1.8-.34-.4-.82-.75-1.39-1.05z"/></g></svg>