<svg height="18" viewBox="0 0 18 18" width="18" xmlns="http://www.w3.org/2000/svg"><path d="m0 0h18v18h-18z" fill="#de2523"/><path d="m9.38 3.59h.02l.02.02 4.16 2.34c.24.14.4.39.42.66v4.73c0 .28-.14.53-.38.69h-.02l-.02.02-4.16 2.34a.86.86 0 0 1 -.8.02h-.02l-.02-.02-4.16-2.34a.82.82 0 0 1 -.42-.67v-4.72c0-.28.14-.53.38-.69h.02l.02-.02 4.16-2.35a.86.86 0 0 1 .8-.02zm-.48.56h-.03l-.02.02-4.08 2.23a.29.29 0 0 0 -.14.22v4.71c0 .09.04.17.11.23h.02l.01.02 4.08 2.24a.3.3 0 0 0 .27.02h.01l.02-.02 4.08-2.25a.29.29 0 0 0 .14-.21v-4.7c0-.09-.04-.18-.11-.23h-.02l-.01-.02-4.08-2.24a.3.3 0 0 0 -.25-.02zm.1 3.24 3.1 1.75c.2.11.32.31.34.53v.74c0 .22-.12.42-.3.55h-.02l-.02.02-2.73 1.54a.7.7 0 0 1 -.65.03l-.02-.01-.02-.02-2.77-1.54a.67.67 0 0 1 -.35-.53v-1.02l.63.37v.6c0 .04.02.08.04.1h.01l.01.01 2.7 1.46a.13.13 0 0 0 .11 0h.03l2.66-1.45a.13.13 0 0 0 .06-.1v-.72a.13.13 0 0 0 -.04-.1h-.02l-2.75-1.54zm.36-2.23h.02l.02.02 2.61 1.53c.25.13.4.39.43.66v.91l-.63-.31v-.55c0-.1-.04-.18-.12-.23v-.01h-.02l-2.54-1.45a.3.3 0 0 0 -.27-.02l-.01.01h-.02l-2.5 1.44a.28.28 0 0 0 -.14.22v.53c0 .1.04.18.12.23v.01l.02.01 2.67 1.56v.62l-3.02-1.7a.82.82 0 0 1 -.42-.67v-.55c0-.28.14-.53.38-.69l.02-.01.02-.01 2.57-1.53a.86.86 0 0 1 .8-.02z" fill="#fff"/></svg>