<svg height="18" viewBox="0 0 18 18" width="18" xmlns="http://www.w3.org/2000/svg"><path d="m0 0h18v18h-18z" fill="#f0f3fa"/><path d="m5.55 4h1.13c-.45.9-.89 1.8-1.31 2.71-.24.5-.3.97 0 1.42l1.24 1.76c.2.28.24.56.14.84-.16.45-.4.95-.71 1.5-.04.06-.1.1-.17.11-.36.06-.53.26-.52.6a.55.55 0 0 0 .19.39.53.53 0 0 0 .4.13c.3-.03.49-.2.55-.54a.27.27 0 0 0 -.06-.22.4.4 0 0 1 -.08-.18.24.24 0 0 1 .02-.17c.43-.76 1.15-1.76.57-2.62-.34-.5-.73-1.06-1.16-1.65-.27-.36-.31-.73-.14-1.1.47-1.01.96-2 1.47-2.98h.95l-1.39 2.85a1.13 1.13 0 0 0 .11 1.17l1.51 2.02a.07.07 0 0 0 .06.03.06.06 0 0 0 .05-.04l3.02-6.03h2.52l-3.88 7.93a.04.04 0 0 0 0 .03l.02.01.01.03h3.79c.12 0 .15.03.1.13l-1 1.87h-5.04l4-8.01c.1-.22.24-.3.43-.42a.5.5 0 0 0 .23-.37.5.5 0 0 0 -.13-.4c-.56-.6-1.37.23-.86.7.08.07.1.15.05.25l-4.14 8.25h-3.46l1.37-2.84c.3-.6.3-1.07-.12-1.57-.52-.62-.95-1.27-1.31-1.97v-.5z" fill="#00a9b7"/></svg>