<svg height="18" viewBox="0 0 18 18" width="18" xmlns="http://www.w3.org/2000/svg"><path d="m0 0h18v18h-18z" fill="#f0f3fa"/><path d="m6 7.36v-.36h-2.77c-.98 0-1.23.48-1.23.73 0 .87 1.03 1.45 1.54 1.63.4.19 1.23.62 1.23.91 0 .3-.2.37-.3.37h-2.47v.36h2.77c.4 0 1.23-.18 1.23-.9 0-.74-1.03-1.28-1.54-1.46-.4-.19-1.23-.62-1.23-.91 0-.3.2-.37.3-.37zm5-.36v.36h-2.15c-.25 0-.35.25-.35.37v2.54c0 .3.24.37.35.37h2.15v.36h-3.08c-.74 0-.92-.48-.92-.73v-2.54c0-.58.62-.73.92-.73zm5 0v.36h-2.15c-.25 0-.31.25-.31.37v2.54c0 .3.2.37.3.37h2.16v.36h-3.08c-.74 0-.92-.48-.92-.73v-2.54c0-.58.62-.73.92-.73z" fill="#0060af"/></svg>