<svg height="18" viewBox="0 0 18 18" width="18" xmlns="http://www.w3.org/2000/svg"><path d="m0 0h18v18h-18z" fill="#f0f3fa"/><path d="m6.47 4h.19c.46.11.85.34 1.2.67.04.04.03.05-.02.02-.28-.18-.66-.24-.93-.03a.8.8 0 0 0 -.27.44c-.09.31-.09.65 0 .99 0 .2.04.39.11.55l.06.23.24.68a1 1 0 0 0 .15.35c.1.34.25.64.43.92 0 .06.02.13.09.23l.68 1.2.2.31.58.83c.05.11.13.2.21.28l.48.54c.04.08.08.13.14.14.11.16.26.29.44.4.2.17.41.28.66.34.63.16.89-.27.95-.85 0-.08.01-.08.03 0 .05.37.05.71 0 1.02-.11.85-.78.88-1.37.53a4.79 4.79 0 0 1 -.94-.7c-.01 0-.02 0-.02.02v-.06l-.32-.32-.17-.19-.42-.5-.25-.34-.54-.78-.22-.36-.66-1.16-.14-.27-.4-.87-.16-.4-.23-.63-.08-.27-.14-.46c-.06-.3-.12-.63-.16-.97-.07-.54-.04-1.4.6-1.53z" fill="#005bab"/><path d="m7.05 7.55-.24-.68a31.88 31.88 0 0 1 4.96-2.57c.06-.02.06-.01.02.02a30.1 30.1 0 0 1 -4.74 3.23zm-.3-.91c-.07-.16-.1-.35-.12-.55a15.56 15.56 0 0 1 3.27-1.63c.05-.02.06-.01.01.03a16.9 16.9 0 0 1 -3.01 2.11.29.29 0 0 1 -.14.04zm.88 2.18a3.91 3.91 0 0 1 -.43-.92 34.46 34.46 0 0 1 6.12-3.1c.1-.04.1-.02.03.05a34.83 34.83 0 0 1 -5.72 3.97zm.77 1.44-.69-1.21a32.57 32.57 0 0 1 7.2-3.51c.1-.04.12-.02.04.05a35.07 35.07 0 0 1 -6.55 4.67zm-2.37-3.76.14.46-1.5.64a11.96 11.96 0 0 1 1.36-1.1zm.23.73.22.63c-.95.5-1.9.94-2.85 1.35-.1.04-.1.02-.02-.04.83-.67 1.71-1.32 2.65-1.94zm2.92 4.17-.58-.84a34.52 34.52 0 0 1 6.27-3.16 34.7 34.7 0 0 1 -5.69 4zm-2.54-3.14.4.87a37.38 37.38 0 0 1 -3.89 1.75c1.12-.93 2.28-1.8 3.5-2.62zm3.24 3.95-.49-.54a31.83 31.83 0 0 1 5.03-2.6c.06-.03.07-.02.02.02a31.83 31.83 0 0 1 -4.56 3.12zm-2.7-2.81.66 1.16a37.3 37.3 0 0 1 -4.77 2.1c-.08.04-.1.02-.03-.03a39.14 39.14 0 0 1 4.14-3.23zm3.27 3.34c-.18-.1-.33-.23-.45-.39a15.2 15.2 0 0 1 3.32-1.68c.06-.02.07 0 .02.04a15.5 15.5 0 0 1 -2.9 2.03zm-2.39-1.82.54.78c-1.3.7-2.6 1.3-3.94 1.82-.08.03-.09.02-.02-.03 1.08-.9 2.22-1.76 3.42-2.57zm.79 1.12.42.5c-1 .53-2 1-2.98 1.42-.08.04-.09.03-.01-.03.8-.66 1.66-1.29 2.57-1.9zm.59.69.31.32.01.03v.03l-1.63.7c-.08.03-.08.02-.02-.03z" fill="#e50012"/></svg>