<svg height="18" viewBox="0 0 18 18" width="18" xmlns="http://www.w3.org/2000/svg" xmlns:xlink="http://www.w3.org/1999/xlink"><linearGradient id="a" gradientUnits="userSpaceOnUse" x1="6.55" x2="11.34" y1="6.77" y2="6.77"><stop offset="0" stop-color="#4c282a"/><stop offset="1" stop-color="#4f2d2d" stop-opacity="0"/></linearGradient><linearGradient id="b" gradientUnits="userSpaceOnUse" x1="9.11" x2="11.61" y1="5.86" y2="10.52"><stop offset="0" stop-color="#4c2929"/><stop offset="1" stop-color="#4c2929" stop-opacity="0"/></linearGradient><linearGradient id="c" gradientUnits="userSpaceOnUse" x1="12.61" x2="9.79" y1="7.98" y2="12.21"><stop offset="0" stop-color="#5a3a3c"/><stop offset="1" stop-color="#4f2c2e" stop-opacity="0"/></linearGradient><linearGradient id="d" gradientUnits="userSpaceOnUse" x1="11.82" x2="7.35" y1="10.71" y2="10.71"><stop offset="0" stop-color="#523132"/><stop offset="1" stop-color="#553435" stop-opacity="0"/></linearGradient><linearGradient id="e" gradientUnits="userSpaceOnUse" x1="9.74" x2="4.01" y1="10.11" y2="10.94"><stop offset="0" stop-color="#533233"/><stop offset="1" stop-color="#523132" stop-opacity="0"/></linearGradient><linearGradient id="f" gradientUnits="userSpaceOnUse" x1="4.96" x2="7.33" y1="9.8" y2="5.9"><stop offset="0" stop-color="#563537"/><stop offset="1" stop-color="#5a3b3d" stop-opacity="0"/></linearGradient><path d="m0 0h18v18h-18z" fill="#f0f3fa"/><path d="m9.05 9.87c1.7 0 3.09-1.31 3.09-2.93a3.02 3.02 0 0 0 -3.1-2.94 3.02 3.02 0 0 0 -3.08 2.94 3.02 3.02 0 0 0 3.09 2.93z" fill="url(#a)"/><path d="m10.91 10.95c1.7 0 3.09-1.32 3.09-2.95a3.02 3.02 0 0 0 -3.09-2.94 3.02 3.02 0 0 0 -3.09 2.94 3.02 3.02 0 0 0 3.09 2.94z" fill="url(#b)"/><path d="m10.85 13.02c1.71 0 3.1-1.32 3.1-2.94a3.02 3.02 0 0 0 -3.1-2.94 3.02 3.02 0 0 0 -3.09 2.94 3.02 3.02 0 0 0 3.1 2.94z" fill="url(#c)"/><path d="m8.94 14c1.7 0 3.09-1.31 3.09-2.94a3.02 3.02 0 0 0 -3.09-2.93 3.02 3.02 0 0 0 -3.09 2.93 3.02 3.02 0 0 0 3.09 2.94z" fill="url(#d)"/><path d="m7.09 12.91c1.7 0 3.09-1.31 3.09-2.94a3.02 3.02 0 0 0 -3.09-2.93 3.02 3.02 0 0 0 -3.09 2.93 3.02 3.02 0 0 0 3.09 2.94z" fill="url(#e)"/><path d="m7.16 10.84c1.71 0 3.1-1.31 3.1-2.93a3.02 3.02 0 0 0 -3.1-2.94 3.02 3.02 0 0 0 -3.09 2.93 3.02 3.02 0 0 0 3.1 2.93z" fill="url(#f)"/><path d="m10.73 9.63-.17.78c0 .05-.06.15-.31.15h-.31l.2-.94h-1.3l.16-.3h1.22l.13-.63h-1.2l.16-.31h1.11l.07-.32h-1.18v-.31h1.25c.05-.1.19-.31.31-.31h.32l-.07.31h2.57l.15.31h-2.78l-.07.31h1.13l.32.32h-1.52l-.13.62h1.18l.15.31h-1.4zm-5.28.62.11-.47c0-.15.13-.47.63-.47h1.87c.26 0 .75.13.63.63l-.1.31h.41l.31.31h-5l-.31-.31zm.77 0h.16l.12-.63h-.16zm.78 0h.16l.12-.63h-.16zm.78 0h.16l.12-.63h-.15zm-1.44-1.09h-.62l.16-.79c.12-.74.57-.93.78-.93h.78l-.16-.32h.63l.15.32h.31l-.15-.32h.47l.31.63h-.94l.31.63.16-.32h.47l-.63 1.1h-.46l-.32-1.1h-.93v.16h.93l-.15.47c-.13.37-.37.47-.47.47h-.47v-.16h.16l.15-.47h-.31z" fill="#ffe100"/></svg>