<svg height="18" viewBox="0 0 18 18" width="18" xmlns="http://www.w3.org/2000/svg"><path d="m0 0h18v18h-18z" fill="#f0f3fa"/><path d="m10.47 6.45a2.86 2.86 0 0 0 -1.54-.45 2.96 2.96 0 0 0 -2.93 3c0 1.66 1.31 3 2.93 3 .56 0 1.1-.16 1.54-.45l-.92-1.55h-1.55v-2h1.54l.92-1.55z" fill="#d93725"/><g fill="#0b50a2"><path d="m12.36 7h-1.4l-1.33 2 1.33 2h1.4l-1.33-2z"/><path d="m13.8 7h-1.05l-1.33 2 1.33 2h1.05l-1.33-2z"/><path d="m15 7h-.77l-1.33 2 1.32 2h.78l-1.32-2z"/></g><path d="m13.33 11.5a5 5 0 1 1 0-5h-1.2a4 4 0 1 0 0 5z" fill="#d93725"/></svg>