<svg height="18" width="18" xmlns="http://www.w3.org/2000/svg"><path d="m0 0h18v18h-18z" fill="#0067b1"/><path d="m5.192 6c-1.056 0-2.288.454-2.288 1.734 0 .834.61 1.154 1.2 1.464.482.253.938.493.938 1 0 .667-.624.966-1.243.966-.548 0-1.062-.197-1.506-.388l-.293.91c.615.206 1.197.314 1.727.314.76 0 2.53-.187 2.53-1.92 0-.904-.67-1.275-1.262-1.603-.45-.25-.876-.485-.876-.92 0-.498.552-.721 1.1-.721.415 0 .873.108 1.27.29l.269-.879c-.444-.162-.969-.247-1.566-.247zm7.599 4.631-.09-.014v-4.617h-1.509l-1.955 4.63-.091-.012-.15-4.618h-1.093l.339 6h1.385c.02-.045 2.073-4.982 2.073-4.982l.09.014.034 4.968h1.4c.021-.043 2.728-5.898 2.776-6h-1.127z" fill="#fff"/></svg>