<svg height="18" viewBox="0 0 18 18" width="18" xmlns="http://www.w3.org/2000/svg"><path d="m0 0h18v18h-18z" fill="#00b37f"/><path d="m10.51 8h-1.68c-.08 0-.14-.22-.13-.3l.23-1.46c0-.06.06-.24.12-.24h2.6c.57 0 1.05-.13 1.15-.71l.2-1.14a.13.13 0 0 0 -.12-.15h-4.81c-.8 0-1.48.59-1.62 1.4l-.49 2.87c-.16.98.56 1.73 1.54 1.73h1.7c.07 0 .13.22.12.3l-.23 1.45c-.01.06-.06.25-.12.25h-2.6c-.58 0-1.06.13-1.16.71l-.21 1.14c-.01.08.05.15.12.15h4.82c.8 0 1.47-.59 1.61-1.4l.5-2.87c.15-.98-.58-1.73-1.55-1.73z" fill="#fff"/></svg>