<svg height="18" viewBox="0 0 18 18" width="18" xmlns="http://www.w3.org/2000/svg"><path d="m0 0h18v18h-18z" fill="#f0f3fa"/><g fill="#c00"><path d="m4 10.93 3.2-3.87.47 2.9-1.82.26.04.4c1-.2 2.98-.15 2.98-.15l-1.2-5.28-3.68 5.74zm10.13.15-3.96-6.96-.15-.27-1.52 2.98.26 1.26.33-.53.91-1.56.1.29 1.26 3.73.07.2-1.56-.08.02.37c1.88.08 3.25.53 4.04.88l.48.22-.29-.53z"/><path d="m14.62 11.1a6 6 0 1 0 -.38.83c-3.79-1.78-9.07-.86-10.13-.53l-.13-.28a5.32 5.32 0 0 1 -.43-2.12 5.32 5.32 0 0 1 1.6-3.85 5.52 5.52 0 0 1 5.18-1.43l.04-.07.06.09a5.52 5.52 0 0 1 3.57 3.14 5.32 5.32 0 0 1 .23 3.57l.38.65zm-1.08.89a5.54 5.54 0 0 1 -4.54 2.44 5.28 5.28 0 0 1 -3.84-1.59l-.3-.32c3.64-1.9 8.02-.8 8.7-.53z"/></g></svg>