<svg height="18" viewBox="0 0 18 18" width="18" xmlns="http://www.w3.org/2000/svg"><path d="m0 0h18v18h-18z" fill="#f0f3fa"/><path d="m13.95 11.83c1.31-.75 2.05-1.77 2.05-2.83s-.74-2.08-2.05-2.83a10.22 10.22 0 0 0 -4.95-1.17c-1.86 0-3.64.42-4.95 1.17s-2.05 1.77-2.05 2.83.74 2.08 2.05 2.83 3.1 1.17 4.95 1.17c1.86 0 3.64-.42 4.95-1.17zm-3.95-3.05c.01-.52-.18-1.04-.71-1.15a.03.03 0 0 1 -.02-.04v-.02c.33-.18.62-.53.55-.92-.2-1.1-1.8-.89-1.68.2.03.3.2.52.5.68.1.05.1.09-.01.13a.92.92 0 0 0 -.63.84v2.29c0 .3.16.6.4.77.34.24.84.28 1.18 0 .24-.19.42-.44.42-.76zm-4.34-.04c-.24.22-.51.65-.1.88.21.11.44.17.7.18a19.25 19.25 0 0 0 1.06.02l.01.02v1.06c0 .05-.02.07-.08.07-.87-.02-2.97-.23-3.21-1.16-.1-.35-.01-.68.24-.98.6-.71 1.55-.94 2.52-1.14a4.4 4.4 0 0 1 .84-.09l.02.02.01.02v.03a.22.22 0 0 1 -.15.15c-.68.23-1.36.48-1.86.92zm8 1.55c.48-.34.46-.96.12-1.4a2.46 2.46 0 0 0 -1.15-.8 9.42 9.42 0 0 0 -2.17-.49.12.12 0 0 0 -.04.02c-.05.05-.07.08-.04.1.08.07.16.12.25.15.74.22 1.68.61 2 1.2.48.87-1.5.77-1.9.75-.06 0-.06.03-.06.07v1.02c0 .04.01.07.07.07.79-.01 1.52-.12 2.2-.33.26-.08.5-.2.72-.36z" fill="#c42a22" fill-rule="evenodd"/></svg>