<svg height="18" viewBox="0 0 18 18" width="18" xmlns="http://www.w3.org/2000/svg"><path d="m0 0h18v18h-18z" fill="#f0f3fa"/><path d="m6.12 6.22c.19.1.3.16.43.05l.02-.02c.07-.07.1-.16.14-.25h.29l-.41 2h-.29c.05-.7-.07-1.39-.84-1.4-.38 0-.65.2-.66.66-.03 1.22 1.67 1.67 1.67 3.03 0 1.02-.96 1.73-1.8 1.7-.3 0-.59-.1-.87-.23-.55-.27-.23.24-.69.24h-.11l.42-2.4h.28c-.05.8-.03 1.78.93 1.8.48.01.77-.3.77-.87 0-1.3-1.44-1.67-1.4-3.07.02-.81.59-1.46 1.31-1.46.28 0 .55.06.81.22z" fill="#00426c"/><path d="m10 10-.31 1h-2.69l.32-1z" fill="#21a9d9"/><path d="m12 10-.3 1h-1.7l.29-1z" fill="#0f8048"/><g fill="#00426c"><path d="m15 10-.31 1h-2.69l.32-1zm-5.37-4-.08.3h.05c.17 0 .3.03.3.04v.08l-.35 1.08-.73-1.5h-1.02l-.08.3h.08c.14 0 .2 0 .28.11a647 647 0 0 1 -.63 2.13c-.02.05-.08.17-.34.17h-.04l-.07.29h1.37l.08-.29h-.04a.99.99 0 0 1 -.31-.04v-.07l.47-1.52.98 1.92h.24l.74-2.54c.04-.14.22-.16.39-.16l.08-.3z"/><path d="m13 6.63c0-.5-.58-.63-1.05-.63h-1l-.08.3h.02c.1 0 .22 0 .2.11l-.55 2.12c-.02.08-.08.17-.34.17h-.12l-.08.3h1.44c.66 0 1.33-.37 1.35-1.01a.6.6 0 0 0 -.3-.55.9.9 0 0 0 .51-.8zm-.67.12c0 .36-.27.6-.65.6h-.17c.07-.26.21-.99.21-.99.01-.05.1-.06.19-.06.21.01.42 0 .42.45zm-1 1.95a.49.49 0 0 1 -.17-.02l.02-.07.23-.91h.11c.25 0 .6.04.6.32 0 .41-.35.68-.8.68z"/><path d="m12.4 8.7c.14 0 .27-.04.3-.17l.61-2.11v-.06c0-.04-.02-.06-.09-.06h-.24l.08-.3h1.33l-.08.3h-.08c-.24 0-.3.1-.32.18-.16.68-.34 1.07-.6 2.22h.31c.47 0 .76-.14 1.09-.65l.03-.05h.26l-.24 1h-2.46l.08-.3z"/></g></svg>