<svg height="18" viewBox="0 0 18 18" width="18" xmlns="http://www.w3.org/2000/svg" xmlns:xlink="http://www.w3.org/1999/xlink"><linearGradient id="a" gradientUnits="userSpaceOnUse" x1="9" x2="9" y1="9.29" y2="14"><stop offset="0" stop-color="#60bff3"/><stop offset="1" stop-color="#09559f"/></linearGradient><path d="m0 0h18v18h-18z" fill="#f0f3fa"/><path d="m13.67 12-4.67 2-4.67-2 4.67-2.35z" fill="url(#a)"/><path d="m14 6.5-5-2.5-5 2.5v5l4-2.33v-.4l-3.8-2.2 4.13 1.77.38-.19.29-3.92.29 3.92.38.2 4.13-1.79-3.8 2.2v.42l3.98 2.31-.03-.01.05.02z" fill="#f47c08"/><path d="m12.67 10.73v-3.5h-.02l-2.66 1.53v.42zm-.2-3.6-3.38-1.6.2 2.63.38.2 2.8-1.21zm-3.57-1.6-3.37 1.61 2.8 1.2.39-.19.19-2.63zm-3.56 1.7-.02.02v3.48l2.68-1.55v-.4l-2.65-1.56z" fill="#f9a404"/><path d="m11.33 9.96v-1.97l-1.33.77v.42l1.34.78zm-.2-2.24-1.95-.98.1 1.41.39.2 1.45-.63zm-2.31-.98-1.95.98 1.46.62.38-.19.1-1.41zm-2.15 1.25v1.96l1.33-.78v-.4l-1.34-.78z" fill="#ffe001"/></svg>