<svg height="18" viewBox="0 0 18 18" width="18" xmlns="http://www.w3.org/2000/svg"><path d="m0 0h18v18h-18z" fill="#f0f3fa"/><path d="m3.46 13 .74-1.11h-1.2l4.05-7.46.62 1.07 1.37-2.5 1.38 2.5.62-1.07 3.96 7.46h-2.4a2.84 2.84 0 0 0 -1.45-2.13c-.63-.32-1.28-.62-1.67-1.2-.05.57.78 1.2 1.17 1.56.89.8.8 2.05-.05 2.88z" fill="#020201"/><path d="m9.38 13h-1.88c.44-.49.7-1.05.78-1.63.07-.58.02-1.18-.15-1.8.05.39.03.8.01 1.23-.02.6-.25 1.3-.8 1.63-.5.3-1.22.25-1.71 0 .35-.05.66-.28.9-.49.37-.34.52-.72.58-1.19.07-.47-.01-.95.07-1.42.05-.22.14-.44.28-.66a5 5 0 0 1 .23-.33c0-.01-.02-.03-.03-.01-.28.27-.47.58-.57.95-.04.14-.04.3-.06.46 0 .02-.01.03-.04.03l-.72-.07a.12.12 0 0 1 -.1-.08c-.08-.27-.02-.48.18-.62a.03.03 0 0 0 0-.05.23.23 0 0 0 -.14-.04c-.03 0-.03 0 0 .02l.04.04c.03.02.03.04 0 .06l-.07.05c-.03.02-.04.01-.05-.01 0-.06 0-.1.02-.15.02-.04-.04-.07 0-.12l.67-.72c.04-.05.07-.1.08-.15.12-.43.25-.8.53-1.17.1-.14.08-.33.13-.5.13-.38.37-.69.73-.9.22-.13.5-.18.75-.22-.08.38-.2.73-.48 1.01.11-.1.23-.2.3-.33.18-.3.57-.47.9-.56-.04.12-.03.25-.05.38-.04.24-.14.47-.33.63.5-.13 1.06.05 1.21.55.01.03.02.03.04.01l.33-.36a.07.07 0 0 0 .01-.09l-.17-.3a.13.13 0 0 1 0-.13c.1-.15.18-.3.25-.45.03-.06.07-.06.1 0l3.1 5.66h-1.28a.08.08 0 0 1 -.07-.06c-.2-.96-.85-1.35-1.7-1.76a6.24 6.24 0 0 1 -.93-.53c-.15-.1-.29-.24-.39-.39-.05-.07.55-.17.64-.2.49-.15 1.03-.1 1.48.14l-.38-.73-1.7.61c-.03.02-.03-.02 0-.03l1.47-.89a.09.09 0 0 0 .04-.12l-.24-.44c-.02-.04-.05-.04-.08 0l-1.2 1.3-.05-.01c.1-.18.26-.33.35-.51.04-.1.1-.19.13-.3a.53.53 0 0 0 -.1-.48c-.57-.67-1.76.09-1.24.85.04.05.12.06.17.02l.2-.14c.07-.04.06-.06-.02-.07-.06 0-.09-.04-.1-.1-.05-.29.08-.44.37-.46a.3.3 0 0 1 .3.15c.12.19-.07.48-.2.62-.16.17-.3.34-.4.53-.5.95.63 1.73 1.21 2.34.26.26.34.56.35.9 0 .2-.04.37-.12.53-.12.22-.25.47-.47.63-.12.08-.3.03-.43.04-.03 0-.06-.03-.04-.06.3-.63.38-1.25.06-1.9-.04-.08-.05-.08-.03 0a3.7 3.7 0 0 1 -.47 2.36z" fill="#c9a608"/><path d="m8.63 13h-.38a3.44 3.44 0 0 0 .66-2.63h.03c.14.38.19.74.15 1.08a3.8 3.8 0 0 1 -.46 1.55z" fill="#020201"/><path d="m3.75 11.2 3.19-5.7.31.56-2.87 5.15h-.63zm2.95-1.36c.03 0 .05.02.05.05l-.01.15c-.02.22-.16.48-.4.46h-.01c-.23-.02-.34-.3-.33-.51l.01-.16c0-.03.03-.05.05-.04l.65.05z" fill="#c9a608"/><path d="m7.17 8c.08.08.2.13.3.18.03.02.05.11 0 .1a.51.51 0 0 0 -.34.08z" fill="#020201"/></svg>