<svg height="18" viewBox="0 0 18 18" width="18" xmlns="http://www.w3.org/2000/svg"><path d="m0 0h18v18h-18z" fill="#f0f3fa"/><path d="m8.64 4h.94a6.3 6.3 0 0 1 2.06.63l.01.06v1.47l-.02.01a.04.04 0 0 1 -.05 0c-.91-.82-2.05-1.26-3.19-.96-.62.17-1.14.71-1.1 1.49.03.74.41 1.21 1.13 1.41l1.75.5c.36.1.68.26.96.48 1.07.82 1.1 2.51.39 3.62-1.18 1.85-3.94 1.41-5.52.52v-1.67a4.13 4.13 0 0 0 2.8 1.32c1 .04 2.15-.5 1.95-1.9-.09-.61-.45-1.01-1.09-1.2-.62-.16-1.19-.32-1.71-.48a2.41 2.41 0 0 1 -1.87-2.25c-.18-1.72 1.12-2.9 2.56-3.05z" fill="#044fa2"/></svg>