<svg height="18" viewBox="0 0 18 18" width="18" xmlns="http://www.w3.org/2000/svg"><path d="m0 0h18v18h-18z" fill="#f0f3fa"/><path d="m9 4.52s-2.66-.06-5 1.16c0 .45 0 .87.03 1.28.25 3.76 2.17 6.06 4.97 7.04 3.1-1.08 5.13-3.8 5-8.32-2.34-1.22-5-1.16-5-1.16z" fill="#7ac1e1"/><g fill="#005787"><path d="m12.45 11.52-.04.05-.22-1.34-.48 2.14a7.3 7.3 0 0 1 -2.71 1.63 7.15 7.15 0 0 1 -3-1.94v-.5h3v2.35l1.66-5h-.66v-4.34c.76.07 1.87.24 3 .67v3.66h.67a7.61 7.61 0 0 1 -1.22 2.61z"/><path d="m4 5.68c.84-.44 1.73-.71 2.51-.88l.27.06c.7.15 1.42.3 2.01.68.76.48.99 1.51.57 2.36-.49 1-1.75 1.16-1.75 1.16.45.14 1.08.5 1.08 1.8h-2.19c0-.15-.15-.53-.66-.53-.45 0-.67.3-.75.47a9.08 9.08 0 0 1 -1.06-3.85h1.95c0 .36.1.93.66.93.41 0 .6-.41.6-.65.02-.29-.35-.39-.6-.46l-.14-.04-.77-.22-.72-.22c-.6-.19-.84-.36-1-.58v-.03"/></g></svg>