<svg height="18" viewBox="0 0 18 18" width="18" xmlns="http://www.w3.org/2000/svg"><path d="m0 0h18v18h-18z" fill="#f0f3fa"/><path d="m9.76 3.76-.76-.76-5.5 5.5-.27.27-.23.24 3.09 3.08c.9-.98 1.27-2.48 1.64-3.99.42-1.7.84-3.4 2.03-4.34zm2.22 2.22-1.92-1.92c-.63.62-.86 1.63-1.08 2.64-.09.37-.17.73-.27 1.08a9.23 9.23 0 0 1 -1.43 3.67c-.16.23-.38.45-.58.67l-.28.3 1.88 1.89c.88-.99 1.25-2.48 1.62-3.98.37-1.49.74-2.97 1.61-3.96.2-.2.32-.3.45-.4zm.28.28 2.74 2.74-6 6-.39-.38a5.4 5.4 0 0 0 1.1-1.24c.63-.92.92-2.2 1.2-3.48.3-1.38.61-2.75 1.35-3.64z" fill="#b9d137"/></svg>