<svg height="18" viewBox="0 0 18 18" width="18" xmlns="http://www.w3.org/2000/svg"><path d="m0 0h18v18h-18z" fill="#f0f3fa"/><path d="m12.75 6.19v.81h-2.09v-.11c0-.52-.4-.89-.89-.89h-1.79c-.5 0-.98.37-.98.89v.09c0 .51.49 1.02.98 1.02h2.34a2.67 2.67 0 0 1 2.68 2.73v1.08c0 1.21-.93 2.19-2.09 2.19h-3.81a2.14 2.14 0 0 1 -2.1-2.19v-.81h2.09c0 .52.4 1 .89 1h2.1c.49 0 .92-.48.92-1v-.07a.93.93 0 0 0 -.92-.93h-2.4a2.76 2.76 0 0 1 -2.68-2.82v-1c0-1.19.93-2.18 2.09-2.18h3.57c1.16 0 2.09.98 2.09 2.19z" fill="#7d7e80"/></svg>