<svg height="18" viewBox="0 0 18 18" width="18" xmlns="http://www.w3.org/2000/svg"><path d="m0 0h18v18h-18z" fill="#f0f3fa"/><path d="m9.17 3a6.09 6.09 0 0 0 -6.17 6c0 3.31 2.76 6 6.17 6 2.7 0 5-1.7 5.83-4.05a5.85 5.85 0 0 1 -5.39 3.48 5.77 5.77 0 0 1 -5.84-5.69 5.77 5.77 0 0 1 6.48-5.65c-.35-.06-.72-.09-1.08-.09zm0 10c-.9 0-1.8-.08-2.61-.42l.09-1.26c.7.36 1.68.54 2.19.54.8 0 1.8-.27 1.8-1.1 0-.61-.83-.93-1.74-1.29-1.13-.44-2.4-.93-2.4-2.12 0-1.58 1.48-2.35 3.36-2.35.83 0 1.5.14 2.19.3l-.15 1.23c-.4-.2-1.44-.4-1.85-.4-.9 0-1.68.3-1.68.94 0 .69.81.98 1.72 1.31 1.13.42 2.41.88 2.41 2.24 0 1.63-1.63 2.38-3.33 2.38z" fill="#007fa3"/></svg>