<!-- by TradingView --><svg xmlns="http://www.w3.org/2000/svg" width="18" height="18"><path fill="url(#aelqjayws)" d="M0 0h18v18H0z"/><path d="M3.82 7.12c.64-.78 2.43-2.1 5.43-2.12 2.99-.02 4.88 2.06 5.45 3.1.14.26.39.75.27 1.25-.05.15-.18.45-.74.52-.65.1-2.03.58-2.84 1.62l-.42.58c-.65.93-1.35 1.92-2.7 1.93-1.73.01-4.9-1.13-5.27-4.46a6.4 6.4 0 002.51.46c1.94 0 3.5-.67 3.5-1.5S7.45 7 5.51 7c-.6 0-1.17.07-1.66.18l-.03-.06z" fill="#fff"/><defs><linearGradient id="aelqjayws" x1="18" y1="9" x2="-2.16" y2="9" gradientUnits="userSpaceOnUse"><stop stop-color="#0D2548"/><stop offset="1" stop-color="#BCE4F8"/></linearGradient></defs></svg>