<svg height="18" width="18" xmlns="http://www.w3.org/2000/svg" xmlns:xlink="http://www.w3.org/1999/xlink"><linearGradient id="a" gradientUnits="userSpaceOnUse" x1="9.09" x2="9.09" y1="5.3" y2="14"><stop offset="0" stop-color="#f3f2f2"/><stop offset=".88" stop-color="#7c8b9b"/></linearGradient><linearGradient id="b" gradientUnits="userSpaceOnUse" x1="7.38" x2="7.38" y1="5" y2="14"><stop offset=".21" stop-color="#7c8b9b"/><stop offset="1" stop-color="#f3f2f2"/></linearGradient><path d="m0 0h18v18h-18z" fill="#f0f3fa"/><path d="m13 9.78c0-2.98-4.93-4.23-7.81-4.48 2.1.4 6.52 1.88 6.5 4.48 0 2.59-4.09 3.9-6.12 4.22 5.81-.54 7.43-2.63 7.43-4.22z" fill="url(#a)"/><path d="m11.75 9.78c0-3.14-5.82-4.62-8.75-4.78 3.34 1.1 5.36 2.55 5.57 5.1.18 2.02-1.94 3.45-3.02 3.9 5.34-.94 6.2-3.13 6.2-4.22z" fill="url(#b)"/></svg>