<svg height="18" viewBox="0 0 18 18" width="18" xmlns="http://www.w3.org/2000/svg"><path d="m0 0h18v18h-18z" fill="#f0f3fa"/><path d="m7.59 9.64 2.81-2.86v1.54l-2.8 2.85v-1.53z" fill="#035875"/><path d="m11.34 7.96.67.68v1.03l-.67-.69z" fill="#3b6d8e"/><path d="m6 8.34.66.7v1.02l-.66-.69zm6 1.33-4.5 4.33v-1.32l3.85-3.7.66.69z" fill="#035875"/><path d="m6 8.34 4.5-4.34v1.32l-3.84 3.72z" fill="#3b6d8e"/><path d="m4 7.62 1 .38v2l-1 .33z" fill="#035875"/><path d="m14 7.62-1 .38v2l1 .33zm-10 0 4-3.62h1.3l-4.3 4z" fill="#3b6d8e"/><path d="m14 10.33-3.63 3.67h-1.37l4-4z" fill="#035875"/><path d="m7.5 14-3.5-3.67 1-.33 2.5 2.68z" fill="#3b6d8e"/><path d="m10.5 4 3.5 3.63-1 .37-2.5-2.68z" fill="#035875"/></svg>