<svg height="18" viewBox="0 0 18 18" width="18" xmlns="http://www.w3.org/2000/svg"><path d="m0 0h18v18h-18z" fill="#f0f3fa"/><path d="m4 11.5c0-1.07 1.3-2.11 1.9-2.5.04.07.1.16.1.28-1.16.74-1.43 1.78-1.43 2.16 0 .57 1.43.76 1.43 1.7 0 .4-.41.74-.61.86h-1.39c0-.48 1.14-.79 1.14-1.02 0-.7-1.14-.57-1.14-1.48z"/><path d="m9.63 12.5-.63-.5-.63.5v1l.63.5.63-.5zm-.32.2-.31-.27-.31.27v.54l.31.27.31-.27zm1.29-.7.59.49v.98l-.32.39-.54-.12v.26h-.33v-1.51zm0 .43.23.27v.55l-.1.2-.37-.04v-.7l.23-.28z" fill-rule="evenodd"/><path d="m12.5 13.5v-.03h-.38l-.3-.26v-.13h.62v-.26h-.63v-.14l.31-.26h.3l-.42-.42-.5.5v1l.5.5zm-6.5-8.6h.31v9.1h-.31zm.67-.3h.33v.32l.67 6.05v-6.36h.33v9.39h-.33l-.67-6.05v6.05h-.33v-9.39z"/><path d="m8 8h5v1h-5z" fill-opacity=".5"/><path d="m4.78 11.14c.29.42.64.8 1.05 1.1v-.53c-.35-.32-.65-.7-.87-1.11zm-.52-1 .37-.35c-.1-.35-.15-.72-.15-1.1 0-2.32 2.02-4.21 4.52-4.21s4.52 1.9 4.52 4.23c0 1-.38 1.94-1.01 2.66v.6a4.48 4.48 0 0 0 1.49-3.32c0-2.57-2.24-4.65-5-4.65s-5 2.08-5 4.65c0 .52.1 1.02.26 1.48z" fill="#f1314a"/><path d="m13.38 12 .62.5v.18h-.31l-.31-.26-.32.26v.53l.31.26.32-.26h.31v.29l-.63.5-.62-.5v-1z"/></svg>