<svg height="18" width="18" xmlns="http://www.w3.org/2000/svg"><path d="m0 0h18v18h-18z" fill="#ff2911"/><path d="m9.625 5v1.912l.375.171v1.402l-1-.586-4.452 2.671-.548-.987 4.375-2.67v-1.913zm-4.643 6.3 1.518-.9v-.608l1.25-.749v1.357l4.374 2.614-.549.986-4.45-2.671-1.595.956-.548-.986zm1.518-3.6v-2.7h1.25v1.912zm6.04 4.585-1.665-.956-.416.247-1.097-.658.888-.518v-5.4h1.25v5.4l1.587.9-.548.985zm-3.838.408-2.209 1.307-.549-.986 1.662-.979zm3.11-4.459 2.188 1.35-.547.986-1.64-1.02v-1.317z" fill="#fff"/></svg>