<svg height="18" width="18" xmlns="http://www.w3.org/2000/svg" xmlns:xlink="http://www.w3.org/1999/xlink"><linearGradient id="a" gradientUnits="userSpaceOnUse" x1="3.35" x2="21.9" y1="3.12" y2="24.43"><stop offset="0" stop-color="#1a1e21"/><stop offset="1" stop-color="#06060a"/></linearGradient><path d="m0 0h18v18h-18z" fill="url(#a)"/><path d="m9.67 12.27v-2.1l1.87-1.06 1.86 1.05v2.11l-1.86 1.05zm-6.07-3.43v-2.1l1.86-1.06 1.87 1.05v2.12l-1.87 1.04zm4.04 0v-2.1l1.87-1.06 1.87 1.05v2.11l-1.87 1.05-1.87-1.04zm1.87-3.52-2 1.15-2.05-1.15-2.18 1.23v2.47l2.18 1.23 2.05-1.14 1.85 1.05v2.29l2.18 1.23 2.18-1.23v-2.46l-2.03-1.15v-2.29z" fill="#beb51b"/><path d="m9.36 12.45v-2.29l-1.86-1.05-2.05 1.14-2.18-1.23v-2.47l2.18-1.23 2.05 1.15 2-1.15 2.18 1.23v2.29l2.02 1.14v2.47l-2.18 1.23-2.17-1.23zm2.62-3.77 2.02 1.14v2.79l-2.46 1.39-2.47-1.4v-2.28l-1.56-.88-2.05 1.13-2.46-1.39v-2.79l2.46-1.39 2.05 1.14 2-1.14 2.46 1.4v2.28zm-2.03 3.42 1.59.89 1.58-.9v-1.78l-1.58-.89-1.59.9zm-.28-1.95v2.1l1.87 1.06 1.86-1.05v-2.1l-1.86-1.06zm-5.79-1.47 1.58.9 1.59-.9v-1.78l-1.59-.9-1.58.9zm-.28-1.95v2.11l1.86 1.05 1.87-1.04v-2.12l-1.87-1.05zm4.33 1.97 1.58.88 1.59-.9v-1.78l-1.6-.9-1.58.9v1.78zm-.29-1.96v2.12l1.87 1.04 1.87-1.05v-2.1l-1.87-1.08-1.87 1.06z" fill="#beb51b"/><path d="m4.68 7.03h1.54v1.48h-1.54zm4.01 0h1.55v1.48h-1.55zm2.06 3.38h1.55v1.48h-1.55z" fill="#f1f1f1"/></svg>