<!-- by TradingView --><svg xmlns="http://www.w3.org/2000/svg" width="18" height="18"><path fill="#F0F3FA" d="M0 0h18v18H0z"/><path d="M3.6 5.05c.1-.1.26-.12.39-.04l4.38 2.66a.32.32 0 01-.34.55L4.7 6.19l4.25 7.58 1.17-2.07a.32.32 0 01.55.32l-1.44 2.56a.32.32 0 01-.56 0L3.54 5.44a.32.32 0 01.06-.39z" fill="url(#a03ojj4n3)"/><path d="M8.95 3.2c.12 0 .22.06.28.16l1.44 2.57a.32.32 0 01-.55.31L8.95 4.17 4.71 11.6l2.95-1.77a.32.32 0 01.33.55l-4 2.4a.32.32 0 01-.45-.43l5.13-8.98c.06-.1.17-.16.28-.16z" fill="url(#b03ojj4n3)"/><path d="M14.4 4.9c.1.1.13.25.06.38L13.4 7.2a.32.32 0 01-.56-.3l.5-.92-2.21 1.3a.32.32 0 11-.32-.56L14 4.85a.32.32 0 01.4.04z" fill="url(#c03ojj4n3)"/><path d="M13.13 10.94a.32.32 0 01.43.12l.8 1.44a.32.32 0 01-.44.44L12 11.8a.32.32 0 11.32-.55l.92.53-.24-.42a.32.32 0 01.13-.43z" fill="url(#d03ojj4n3)"/><path d="M3.99 5.01a.32.32 0 00-.45.43l2.68 4.77.63-.19L4.7 6.2l3.33 2.03a.32.32 0 10.34-.55L3.99 5z" fill="url(#e03ojj4n3)"/><path d="M9.24 9.61l.27.25c.16.11.4.17.58.06.15-.09.18-.3.03-.41-.33-.27-.89-.19-1.05-.66a.85.85 0 01.44-1c.14-.07.29-.1.44-.1.29 0 .58.09.83.24l-.23.5-.25-.14c-.15-.07-.35-.1-.5.03-.07.06-.1.17-.03.25.09.11.24.15.37.19.24.06.5.11.64.35a.9.9 0 01-.02.94.91.91 0 01-.77.41 1.53 1.53 0 01-1.09-.38l.34-.53zm2.18.91V7.86h.56v2.66h-.56zm1.88-2.77h.75l-.67 1.02.28-.03c.4 0 .67.27.76.61.17.65-.33 1.17-.97 1.17-.57 0-1.06-.34-1.04-.96 0-.19.05-.38.13-.54.2-.41.76-1.27.76-1.27zm.53 1.8c-.06-.48-.78-.45-.83.01-.05.56.9.57.83 0z" fill="#091921"/><defs><linearGradient id="a03ojj4n3" x1="3.82" y1="5.12" x2="8.63" y2="14.75" gradientUnits="userSpaceOnUse"><stop offset=".72" stop-color="#E7CD65"/><stop offset="1" stop-color="#E3C165"/></linearGradient><linearGradient id="b03ojj4n3" x1="8.79" y1="3.52" x2="4.94" y2="12.82" gradientUnits="userSpaceOnUse"><stop stop-color="#CFCFCF"/><stop offset="1" stop-color="#8C8C8D"/></linearGradient><linearGradient id="c03ojj4n3" x1="14.08" y1="5.12" x2="12.57" y2="7.37" gradientUnits="userSpaceOnUse"><stop stop-color="#CEA545"/><stop offset="1" stop-color="#E5CA63"/></linearGradient><linearGradient id="d03ojj4n3" x1="13.12" y1="10.9" x2="14.08" y2="13.14" gradientUnits="userSpaceOnUse"><stop stop-color="#D0D0D0"/><stop offset="1" stop-color="#8C8D8E"/></linearGradient><linearGradient id="e03ojj4n3" x1="3.82" y1="5.12" x2="8.63" y2="14.75" gradientUnits="userSpaceOnUse"><stop stop-color="#CBA040"/><stop offset=".72" stop-color="#F9E388"/></linearGradient></defs></svg>