<svg height="18" viewBox="0 0 18 18" width="18" xmlns="http://www.w3.org/2000/svg"><path d="m0 0h18v18h-18z" fill="#fd5e00"/><path d="m7 6.17c1.66 0 2.37-.38 2.69-1.17h1.7c-.51 1.88-1.89 3.06-4.39 2.9z" fill="#fff"/><path d="m12.57 8-.62 1.12 1.5 2.42v-3.54zm-4.2.32v3.1l1.27-2.32-.63-.96c.53-.17 1-.43 1.42-.81l.41.6.77-1.4h4.39v1.47h-1v4h-3.38l-.87-1.65-.9 1.65h-2.85v-1.17c-.23.73-1.3 1.17-2.73 1.17-2.13 0-2.24-.82-2.27-1.82h1.69c0 .3.04.46.15.6.1.14.25.22.47.22.34 0 .71-.12.71-.55 0-.1-.03-.18-.07-.25-.22-.34-2.1-.6-2.62-1.23a1.52 1.52 0 0 1 -.28-.94c0-1.19.79-1.5 2.36-1.5 1.67 0 2.06.34 2.08 1.46h-1.62c-.01-.3-.09-.42-.2-.53a.46.46 0 0 0 -.37-.15c-.35.01-.53.18-.53.46 0 .08.02.19.07.25.57.76 2.8.54 3.16 1.64v-1.26c.54.03.81 0 1.36-.1z"/></svg>