<svg height="18" viewBox="0 0 18 18" width="18" xmlns="http://www.w3.org/2000/svg"><path d="m0 0h18v18h-18z" fill="#f93822"/><path d="m9.7 8.14-1.45-.3c-.95-.23-1.8-.88-1.8-1.97 0-1.3 1.35-1.49 2.36-1.49.57 0 1.1.1 1.27.33l2.77 2.29h.15l-1-2.62c-.9-.25-1.98-.37-2.91-.38-2.09 0-4.09 1.03-4.09 2.77 0 1.47 1.24 2.39 2.95 2.76l1.28.3c1.14.27 2.13.86 2.13 2.05 0 1.37-1.35 1.76-2.57 1.76-.63 0-1.05-.11-1.26-.44l-2.38-3.2h-.15l.66 3.64c1 .25 2.02.37 3.05.36 2.64 0 4.29-1.24 4.29-2.96 0-1.62-1.51-2.48-3.3-2.9z" fill="#fff"/></svg>