<svg height="18" viewBox="0 0 18 18" width="18" xmlns="http://www.w3.org/2000/svg"><path d="m0 0h18v18h-18z" fill="#f0f3fa"/><path d="m10.38 13.68a4.87 4.87 0 0 1 -5.29-1.76l-.85.73a5.99 5.99 0 0 0 6.37 2.13zm2.87-7.07 1.03-.46c-.2-.36-.42-.7-.68-1l-.8.8c.17.2.32.43.45.66zm-5.5-1.15a3.75 3.75 0 0 0 -1.84 5.67l-.84.76a4.85 4.85 0 0 1 2.3-7.48zm4.93 2.79c-.05-.2-.1-.4-.18-.6l1.1-.27c.1.28.17.57.22.87zm-2.93-2.92a3.77 3.77 0 0 0 -2 .14l.27 1.1a2.62 2.62 0 0 1 1.73-.09zm1.46 5.09c.17-.26.29-.55.36-.86h1.14a3.73 3.73 0 0 1 -.58 1.51z" fill="#0358b1"/><path d="m4.16 9.58c.1.87.44 1.67.93 2.34l-.85.73a5.97 5.97 0 0 1 -1.2-2.93zm9.27 3.47a6 6 0 0 1 -2.8 1.72l-.24-1.1a4.88 4.88 0 0 0 2.24-1.42zm-1.15-5.88c-.1-.18-.22-.35-.35-.52l.86-.72c.19.23.35.48.5.74zm-.14 3.89c.38-.6.61-1.3.61-2.06h1.13c0 .96-.28 1.86-.77 2.62zm-2.08-6.82-.25 1.1a3.76 3.76 0 0 0 -2.07.13l-.42-1.05a4.87 4.87 0 0 1 2.74-.18zm2.07 6.83a3.75 3.75 0 0 1 -6.25.02l.96-.6a2.62 2.62 0 0 0 4.37-.07zm-4.39-5.6c-1.4.5-2.41 1.8-2.49 3.34h1.13a2.63 2.63 0 0 1 1.64-2.24z" fill="#cee5f8"/><path d="m9 3c-1.43 0-2.74.5-3.77 1.33l.72.86a4.85 4.85 0 0 1 3.05-1.07zm4.14 8.58c.3-.48.51-1.01.63-1.58l1.1.24c-.15.72-.43 1.4-.82 2zm-8.88-3.7a4.89 4.89 0 0 0 -.1 1.7l-1.12.12a6.06 6.06 0 0 1 .07-1.82zm8.84 3.75a4.87 4.87 0 0 1 -5.83 1.93l.45-1.03a3.74 3.74 0 0 0 4.41-1.47l.98.57z" fill="#0098ef"/><g fill="#45bae8"><path d="m3.1 7.88a6 6 0 0 1 2.12-3.54l.75.84a4.88 4.88 0 0 0 -1.71 2.7zm11.8.06a6.03 6.03 0 0 1 .1 1.26h-1.13a4.86 4.86 0 0 0 -.06-.97l1.1-.28zm-3.62-4.5a5.98 5.98 0 0 0 -2.28-.44v1.13c.59 0 1.15.1 1.67.29l.6-.97z"/><path d="m9.92 4.21c.25.05.5.12.72.2l-.44 1.04a3.72 3.72 0 0 0 -.44-.12zm-2.66 9.35a4.89 4.89 0 0 1 -2.21-1.7l.86-.73a3.76 3.76 0 0 0 1.81 1.4zm5.48-4.24a3.79 3.79 0 0 0 -.08-1.15l-1.07.4a2.64 2.64 0 0 1 .03.48zm-7.49-.5a3.81 3.81 0 0 0 .66 2.3l.93-.62a2.61 2.61 0 0 1 -.46-1.69h-1.13zm6.03-2.8-.65.92c.16.13.31.28.44.45l.99-.56c-.22-.3-.48-.58-.78-.8z"/></g></svg>