<svg height="18" width="18" xmlns="http://www.w3.org/2000/svg"><path d="m0 0h18v18h-18z" fill="#00529b"/><path d="m13.979 6.56c.016-.154.021-.311.021-.45 0-1.615-1.66-2.11-4.018-2.11-.74 0-2.023.076-3.097.692-1.088.643-1.619 1.653-1.619 2.624 0 1.534 1.176 2.25 2.027 2.578l.962.341c.726.25.99.341 1.2.551a.802.802 0 0 1 .25.565c0 .394-.333 1.023-1.227 1.023-.516 0-.865-.25-1.005-.486a1.12 1.12 0 0 1 -.11-.525c0-.131.014-.245.014-.363l-3.377.465v.07c0 1.94 1.744 2.465 4.158 2.465 1.004 0 2.595-.092 3.864-1.115.838-.682 1.242-1.56 1.242-2.44 0-1.613-1.19-2.329-1.97-2.644l-.991-.341c-.837-.275-1.004-.34-1.214-.524a.69.69 0 0 1 -.279-.525c0-.367.307-.8 1.102-.8.405 0 .976.157.976.813 0 .092-.025.418-.069.576z" fill="#fff"/></svg>