<svg height="18" width="18" xmlns="http://www.w3.org/2000/svg"><path d="m0 0h18v18h-18z" fill="#1e7591"/><path d="m5.706 10.928c.277.331 1.157 1.442 3.436 1.442 1.684 0 2.335-.56 2.335-1.199 0-.638-.799-.97-1.99-1.182-.245-.042-.962-.171-1.171-.208-1.489-.261-3.826-.741-3.826-2.944.001-1.797 1.779-2.837 4.485-2.837 3.407 0 4.704 1.72 4.817 1.843l-1.656 1.13c-.228-.261-1.067-1.34-3.189-1.34-1.096 0-1.998.334-1.998.984 0 .835 1.181 1.017 2.022 1.166l1.38.239c1.916.33 3.649 1.223 3.649 2.98 0 1.942-2.087 2.998-4.833 2.998-3.602 0-4.933-1.596-5.167-1.848z" fill="#fff"/></svg>