<svg height="18" width="18" xmlns="http://www.w3.org/2000/svg"><path d="m0 0h18v18h-18z" fill="#133156"/><path d="m9 4c-2.761 0-5 2.244-5 5 0 2.757 2.239 5 5 5s5-2.243 5-5c-.014-2.763-2.239-5-5-5zm1.518 5.63-1.368 3.325s-.047.045-.15.045-.137-.045-.137-.045-1.401-3.284-1.415-3.325a.265.265 0 0 1 .02-.212c.055-.089.172-.102.172-.102h2.727c.103 0 .15.034.178.116.041.096-.027.198-.027.198zm.027-1.06c-.034.083-.082.117-.178.117h-2.727s-.117 0-.172-.102a.267.267 0 0 1 -.02-.213l1.415-3.288s.034-.084.137-.084c.09 0 .151.084.151.084l1.374 3.295c-.007-.013.061.103.02.192z" fill="#fff"/></svg>