<svg height="18" viewBox="0 0 18 18" width="18" xmlns="http://www.w3.org/2000/svg" xmlns:xlink="http://www.w3.org/1999/xlink"><linearGradient id="a"><stop offset=".23" stop-color="#1474b1"/><stop offset="1" stop-color="#2aa3da"/></linearGradient><linearGradient id="b" gradientUnits="userSpaceOnUse" x1="12.99" x2="5" xlink:href="#a" y1="5.88" y2="5.88"/><linearGradient id="c"><stop offset="0" stop-color="#1894d2"/><stop offset=".78" stop-color="#0c6ab2"/></linearGradient><linearGradient id="d" gradientUnits="userSpaceOnUse" x1="12.99" x2="6.11" xlink:href="#c" y1="6.5" y2="6.5"/><linearGradient id="e" gradientUnits="userSpaceOnUse" x1="5.01" x2="13" xlink:href="#a" y1="12.12" y2="12.12"/><linearGradient id="f" gradientUnits="userSpaceOnUse" x1="5.01" x2="11.89" xlink:href="#c" y1="11.5" y2="11.5"/><path d="m0 0h18v18h-18z" fill="#f0f3fa"/><path d="m13 4.02v4.83c-.34-1.43-1.09-2.35-3.12-2.35s-3.03.91-3.03 1.49c0 .57.42.72 1.16.97-2.64.3-3.01-1.06-3.01-1.56.33-3.07 5.47-3.54 8-3.39z" fill="url(#b)"/><path d="m12.58 4c-2.4.34-6.3 1.42-6.47 3.63 0 .42.43 1.17 1.71 1.35a7.36 7.36 0 0 0 .14-.04c-.71-.24-1.11-.39-1.11-.94 0-.58 1-1.49 3.03-1.49s2.78.92 3.12 2.35v-4.84l-.42-.01z" fill="url(#d)"/><path d="m5 13.98v-4.83c.34 1.43 1.09 2.35 3.12 2.35s3.03-.91 3.03-1.49c0-.57-.42-.72-1.16-.97 2.64-.3 3.01 1.06 3.01 1.56-.33 3.07-5.47 3.54-8 3.39z" fill="url(#e)"/><path d="m5.42 14c2.4-.34 6.3-1.42 6.47-3.63 0-.42-.43-1.17-1.71-1.35l-.19.02.05.02c.71.24 1.11.39 1.11.95 0 .58-1 1.49-3.03 1.49s-2.78-.92-3.12-2.35v4.83l.42.01z" fill="url(#f)"/></svg>