<svg height="18" viewBox="0 0 18 18" width="18" xmlns="http://www.w3.org/2000/svg"><path d="m0 0h18v18h-18z" fill="#30a5a7"/><path d="m3.98 10.88a3.41 3.41 0 0 1 -1.69-.48c-.04 0-.07.02-.08.07l-.2.4-.01.06c0 .04.02.07.06.1a4.23 4.23 0 0 0 1.92.47c.9 0 2.02-.36 2.02-1.4 0-1.07-1.02-1.23-1.93-1.38-.75-.12-1.43-.23-1.43-.81 0-.6.9-.79 1.38-.79.56 0 1.05.18 1.48.43l.07.02c.04 0 .07-.02.09-.07l.18-.4.02-.06a.1.1 0 0 0 -.07-.1 3.74 3.74 0 0 0 -1.77-.45c-.87.01-1.99.4-1.99 1.42 0 .4.15.72.43.95.3.23.75.38 1.37.46l.26.04c.76.1 1.27.34 1.27.73 0 .6-.9.79-1.38.79zm8.02-4.26c0-.08.04-.12.12-.12h.44c.08 0 .1.04.1.12v2.08h1.88c.08 0 .13.04.13.12v.41c0 .08-.05.1-.13.1h-1.87v2.06c0 .08-.04.12-.12.12h-.43c-.08 0-.12-.04-.12-.12zm3.33 0c0-.08.07-.12.15-.12h.4c.08 0 .12.04.12.12v4.76c0 .08-.04.12-.12.12h-.44c-.08 0-.1-.04-.1-.12v-4.76zm-8.77 2.38c0-.5.11-.94.34-1.32.22-.37.54-.66.96-.87a3.47 3.47 0 0 1 3.17.13c.04.02.06.05.06.1l-.02.06-.2.4c-.02.04-.06.06-.1.06-.03 0-.05 0-.07-.02a3.1 3.1 0 0 0 -1.4-.41c-1.1 0-2.1.82-2.1 1.87 0 1.08 1.03 1.88 2.1 1.88.36 0 .83-.13 1.17-.25v-.6c0-.07.04-.1.12-.1h.4c.09 0 .13.03.13.1v.87c0 .1-.05.18-.14.22-.46.25-1.02.38-1.67.38-.55 0-1.04-.1-1.45-.3-.42-.21-.74-.5-.96-.88a2.52 2.52 0 0 1 -.34-1.32zm2.93.21c0 .08.03.12.11.12h1.4c.08 0 .12-.04.12-.12v-.4c0-.08-.04-.12-.12-.12h-1.4c-.08 0-.11.04-.11.12z" fill="#fff"/></svg>