<svg height="18" width="18" xmlns="http://www.w3.org/2000/svg"><path d="m0 0h18v18h-18z" fill="#003059"/><path d="m6.55 8.697s.412-.532.969-.547c.858-.014 1.557 1.381 1.668 1.582.953-1.927 2.542-3.639 3.813-4.732h-8v8.021c0 .432-.087.748-.12.892.35-.043 1.86-.24 3.195-.671 2.383-.777 3.32-1.597 3.32-1.611l.064-.058.032.072s.302.604.588.92c.333.346.508.389.603.36.127-.043.223-.23.255-.56.031-.317.063-1.05.063-1.928v-4.732c-2.288 2.56-3.988 6.415-3.988 6.415s-1.128-3.452-2.462-3.423z" fill="#fff"/></svg>