<svg height="18" width="18" xmlns="http://www.w3.org/2000/svg"><path d="m0 0h18v18h-18z" fill="#5700ff"/><path d="m8 9.98c-2.83-.795-2.83-2.288-2.83-3.19 0-1.45 1.693-2.79 3.67-2.79 1.886 0 3.849.86 3.872 3.25h-2.641c0-.736-.623-.859-1.066-.859-.604 0-1.01.295-.986.737 0 .294.264.589.825.736l1.595.442c2.278.648 2.561 2.224 2.561 2.853 0 2.076-2.094 3.063-4.07 3.063-1.977 0-3.911-1.198-3.93-3.378h2.623c.057.334.23.635.487.844.257.21.579.313.904.29.623 0 1.151-.314 1.151-.82 0-.417-.24-.652-.943-.84z" fill="#fff"/></svg>