<svg height="18" viewBox="0 0 18 18" width="18" xmlns="http://www.w3.org/2000/svg" xmlns:xlink="http://www.w3.org/1999/xlink"><linearGradient id="a" gradientUnits="userSpaceOnUse" x1="9" x2="9" y1="0" y2="18"><stop offset="0" stop-color="#011a46"/><stop offset="1" stop-color="#0a3859"/></linearGradient><linearGradient id="b" gradientUnits="userSpaceOnUse" x1="6.11" x2="11.8" y1="4.01" y2="9.77"><stop offset="0" stop-color="#00a6d3"/><stop offset="1" stop-color="#17efff"/></linearGradient><linearGradient id="c" gradientUnits="userSpaceOnUse" x1="5.91" x2="7.95" y1="14.23" y2="6.41"><stop offset="0" stop-color="#166cfe"/><stop offset="1" stop-color="#17efff"/></linearGradient><linearGradient id="d" gradientUnits="userSpaceOnUse" x1="15.02" x2="7.11" y1="9.27" y2="11.45"><stop offset="0" stop-color="#0c66ee"/><stop offset="1" stop-color="#0fd8ff"/></linearGradient><path d="m0 0h18v18h-18z" fill="url(#a)"/><path d="m4.05 7.7a1.16 1.16 0 0 1 0-1.67 7.1 7.1 0 0 1 9.9-.04c.46.46.46 1.2 0 1.66-.47.46-1.23.46-1.7.01a4.66 4.66 0 0 0 -6.51.04c-.47.44-1.22.46-1.7 0z" fill="url(#b)"/><path d="m5.57 13.19a6.75 6.75 0 0 1 -1.84-6.66c.18-.63.84-1 1.47-.84.64.17 1.02.82.85 1.44a4.44 4.44 0 0 0 .47 3.44 4.63 4.63 0 0 0 2.8 2.11c.64.17 1.03.82.86 1.44s-.83 1-1.46.84a6.86 6.86 0 0 1 -3.15-1.77z" fill="url(#c)"/><path d="m8.16 14.66a1.19 1.19 0 0 1 -.3-.53c-.18-.62.2-1.27.83-1.45a4.51 4.51 0 0 0 3.25-5.55c-.17-.62.2-1.27.84-1.45.64-.16 1.3.2 1.48.83a6.9 6.9 0 0 1 -4.94 8.45 1.2 1.2 0 0 1 -1.16-.3z" fill="url(#d)"/></svg>