<svg height="18" viewBox="0 0 18 18" width="18" xmlns="http://www.w3.org/2000/svg"><path d="m0 0h18v18h-18z" fill="#2a9a47"/><path d="m6.48 12.34c-.83 0-1.4-.33-1.83-.77-.07-.05-.2-.16-.33-.16-.19 0-.32.16-.32.33 0 .08.01.2.1.3.4.45 1.1.96 2.36.96 1.33 0 2.54-.77 2.54-1.98 0-2.43-4.2-1.46-4.2-3.2 0-.54.58-1.15 1.6-1.15.78 0 1.28.34 1.63.62.15.12.22.2.35.2.23 0 .33-.2.33-.36 0-.14-.09-.24-.2-.35-.26-.27-.98-.78-2.08-.78-1.4 0-2.34.9-2.34 1.88 0 2.42 4.16 1.34 4.16 3.24 0 .66-.75 1.22-1.76 1.22zm5.52-8.34c.55 0 1 .33 1 .74v7.52c0 .4-.45.74-1 .74s-1-.33-1-.74v-7.52c0-.4.45-.74 1-.74z" fill="#f0f3fa"/></svg>