<svg height="18" viewBox="0 0 18 18" width="18" xmlns="http://www.w3.org/2000/svg"><path d="m0 0h18v18h-18z" fill="#0089d1"/><path d="m6 6.25c0 1.62 1.24 2.75 3.01 2.75.69 0 1.36-.2 1.92-.58a2.53 2.53 0 0 0 1.07-2.16 2.54 2.54 0 0 0 -1.02-2.15 3.37 3.37 0 0 0 -1.97-.61c-1.45 0-3.01.86-3.01 2.75zm1.7 0c0 1.58.82 1.82 1.31 1.82.48 0 1.29-.24 1.29-1.86 0-1.14-.46-1.77-1.29-1.77-.4 0-1.31.17-1.31 1.8zm-1.17 0c0-1.55 1.29-2.25 2.48-2.25.91 0 2.46.47 2.46 2.25 0 1.76-1.55 2.23-2.46 2.23-1.48 0-2.48-.9-2.48-2.24zm1.56 0c0-.9.32-1.39.92-1.39s.9.46.9 1.36c0 .65-.15 1.42-.9 1.42-.61 0-.92-.47-.92-1.4zm-1.92 7.75 1.1.5-.03-.25c-.15-1.23.24-2.15 1.27-2.98.35-.3.77-.54 1.24-.7.47-.17.97-.26 1.49-.26h.08l.68-.82-.23-.04a6.83 6.83 0 0 0 -1.31-.13c-1.3 0-2.52.36-3.27.95a3.47 3.47 0 0 0 -1.04 3.67zm.62-.16-.36-.17c-.3-1.06.29-2.48 1.05-3.11a5.85 5.85 0 0 1 3.65-.88l-.27.33a5 5 0 0 0 -2.69 1.08c-.76.6-1.48 1.84-1.38 2.75z" fill="#fff"/></svg>