<svg height="18" viewBox="0 0 18 18" width="18" xmlns="http://www.w3.org/2000/svg"><path d="m0 0h18v18h-18z" fill="#f0f3fa"/><path d="m4.24 8.13c3.2-1.25 7.38-2.48 9.76-3.13a71.38 71.38 0 0 1 -4.81 5.03c1.9.89 3.57 2.27 4.81 3.97h-.1a18.25 18.25 0 0 0 -5.28-3.43c-.92.87-1.88 1.77-2.87 2.68h-.09l1.14-1.55 1.07-1.45a17.2 17.2 0 0 0 -2.27-.65c-.64.6-1.2 1.11-1.53 1.4h-.07l.32-.42c.26-.33.56-.72.79-1.08-1.02-.2-2.06-.3-3.11-.3v-.07a10.84 10.84 0 0 1 3.4-.17c.23-.59.06-.98-1.16-.76zm1.92.94c.73.12 1.44.32 2.13.57 1.13-1.68 1.65-2.95 0-2.8-.62.72-1.4 1.51-2.13 2.23z" fill="#00479d"/></svg>