<svg height="18" width="18" xmlns="http://www.w3.org/2000/svg"><path d="m0 0h18v18h-18z" fill="#f99d1c"/><path d="m8.713 8.677c-.549.155-1.098.284-1.646.465a7.139 7.139 0 0 0 -4.067-1.886 12.983 12.983 0 0 1 7.684-2.584l-.948.904s4.017-.155 5.014-1.576c-.03.15-.071.297-.124.44a4.75 4.75 0 0 1 -1.472 2.144 8.537 8.537 0 0 1 -2.07 1.24 18.6 18.6 0 0 1 -2.271.853c-.025-.026-.075 0-.1 0zm6.287-.13a21.657 21.657 0 0 0 -7.534.983 7.497 7.497 0 0 1 1.272 1.886c2.02-1.163 4.815-2.661 6.262-2.868zm-6.012 3.463c.24.638.39 1.308.449 1.99l3.517-3.747z" fill="#fff"/></svg>