<svg height="18" width="18" xmlns="http://www.w3.org/2000/svg"><path d="m0 0h18v18h-18z" fill="#f0f3fa"/><path d="m11.64 5.1-.92 1.62c.04.1.74.44.8.44l.92-1.62c-.04-.12-.74-.44-.8-.44zm-2.64-2.06v3.82c.42.08.84.03 1 0v-3.82a3.03 3.03 0 0 0 -1 0zm-3.2.94 1.94 3.45c.4-.12.75-.36.87-.46l-1.93-3.44c-.37.1-.74.35-.88.45zm4.2 10.66v-2.4c-.42-.05-.85 0-1 .02v2.4c.37.06.83 0 1-.02zm2.53-.92-.87-1.93c-.44.12-.83.33-.97.42l.87 1.93c.4-.15.81-.33.97-.42zm1.44-2.36-1.61-.8c-.22.33-.37.7-.42.83l1.62.8c.2-.29.35-.67.41-.83zm-.67-4.6-1.41.91c.17.3.4.56.5.65l1.4-.9a3.74 3.74 0 0 0 -.5-.66zm-9.25.36 2.85 1.43c.27-.34.41-.72.45-.87l-2.85-1.42c-.25.29-.4.7-.45.86zm-.4 2.7h3.27c.1-.39.05-.78.02-.93h-3.28c-.09.35-.05.77-.01.93zm1.27 3.09 2.58-1.84a2.17 2.17 0 0 0 -.53-.72l-2.57 1.85c.13.31.4.6.53.71zm2.19 1.74 1.5-2.7c-.34-.27-.75-.41-.9-.45l-1.5 2.7c.3.24.72.4.9.45z" fill="#9aba79"/><path d="m9 9h5v1h-5z" fill="#2e81c5"/></svg>