<svg height="18" viewBox="0 0 18 18" width="18" xmlns="http://www.w3.org/2000/svg"><path d="m12.75 5.78-3.36-1.68a.87.87 0 0 0 -.8 0l-4.2 2.15a.8.8 0 0 0 -.3.29l5.41.96z" fill="#db40ef"/><path d="m8.59 10.5-3.59 1.7 3.59 1.7c.25.13.56.13.8 0l4.2-2.15c.11-.06.2-.13.26-.22l-5.25-1.03z" fill="#4067e2"/><path d="m9.5 7.5-5.5 2.61 4.5.39 5.5-2.4z" fill="#59cfdb"/><path d="m4.08 6.54c-.05.1-.08.2-.08.32v3.25l5.5-2.61z" fill="#4c34cd"/><path d="m14 8.1-5.5 2.4 5.35 1.05a.73.73 0 0 0 .15-.4v-3.07z" fill="#0051d2"/></svg>