<svg height="18" viewBox="0 0 18 18" width="18" xmlns="http://www.w3.org/2000/svg"><path d="m0 0h18v18h-18z" fill="#073937"/><path d="m8.84 7.16c.01.53.17 1.13.64 1.7.54.67.79 1.06.9 1.31.11.23.11.35.11.49 0 .04-.01.17-.08.34s-.17.37-.33.57c-.3.36-.83.71-1.72.72a3.6 3.6 0 0 1 -.92-.28c-.24-.17-.45-.4-.63-.67a4.59 4.59 0 0 1 -.63-1.47zm-3.24 3.3-.88.9h.02c.45-.1.88-.1 1.23-.03-.15-.3-.28-.6-.37-.86zm1.46 2.12c-.2-.1-.37-.2-.51-.3h-.01c-.2-.15-.68-.28-1.63-.27l-1.91-.01 6.24-6.23v-.01l.1-.09a4.98 4.98 0 0 1 .44-.36c.3-.18.9-.31 1.47-.31.6 0 .92.2 1.34.42.29.16.56.34.78.5l.22.14.41.27-1.57 1.08c.29.45.45.89.47 1.59.03.88-.2 2.06-1.22 2.93-1 .86-2.2 1.07-3.18 1.07-.55 0-.96-.1-1.44-.42zm3.79-.87c.1-.17.18-.34.24-.49.08-.22.13-.42.13-.55 0-.2 0-.4-.17-.76a7.5 7.5 0 0 0 -.99-1.44c-.73-.9-.5-1.87-.27-2.27a6 6 0 0 0 .17-.16c.07-.07.14-.13.22-.18.17-.1.42-.2.87-.2.42 0 .81.15 1.17.34.21.1.39.22.56.34l-1.35.93.22.27c.28.34.6.96.62 1.67.02.7-.22 1.5-1.08 2.23z" fill="#f0f3fa" fill-rule="evenodd"/></svg>