<svg height="18" viewBox="0 0 18 18" width="18" xmlns="http://www.w3.org/2000/svg" xmlns:xlink="http://www.w3.org/1999/xlink"><linearGradient id="a" gradientUnits="userSpaceOnUse" x1="0" x2="18" y1="9" y2="9"><stop offset="0" stop-color="#3b1f1f"/><stop offset="1" stop-color="#781b1b"/></linearGradient><path d="m0 0h18v18h-18z" fill="url(#a)"/><g fill="#fff"><path d="m8.55 12c4.11 0 7.45-1.34 7.45-3s-3.34-3-7.45-3c-2.5 0-4.72.5-6.07 1.26a12.74 12.74 0 0 1 5.4-1.04c3.82 0 6.92 1.24 6.92 2.76s-3.1 2.76-6.92 2.76c-2.48 0-4.66-.52-5.88-1.3 1.26.92 3.72 1.56 6.55 1.56z"/><path d="m11.59 7-.22.81c-.05-.2-.26-.3-.37-.31h-1.49c-.14-.02-.24.1-.27.15l-.2.4c-.05.2.07.21.13.2h1.23c.63.02.6.5.51.73-.27.73-.7 1.34-.7 1.4-.27.52-.85.63-1.11.62h-2.64l.24-.8c.06.18.24.3.3.3h1.76l.28-.5c.1-.2-.05-.26-.13-.27h-1.32c-.57-.02-.52-.42-.43-.62l.72-1.55c.28-.46.89-.56 1.16-.56z"/></g></svg>