<svg height="18" viewBox="0 0 18 18" width="18" xmlns="http://www.w3.org/2000/svg"><path d="m0 0h18v18h-18z" fill="#f0f3fa"/><path d="m10.54 14.65a4.54 4.54 0 0 0 2.46-4.15c0-1.3-.9-2.43-1.88-3.66-.89-1.14-1.85-2.34-2.27-3.84l-.66.92-.78 1.08c-.47.67-.17 1.61.1 2.33.3.78.9 1.34 1.51 1.92.58.54 1.18 1.11 1.61 1.92.62 1.16.39 2.38-.09 3.48z" fill="#9fb9d9"/><path d="m8.97 15c-2.2-.02-3.97-2.03-3.97-4.5 0-1.37.63-2.75 1.5-4.14.1.86.34 1.8.87 2.47.37.48.76.85 1.13 1.2.78.75 1.44 1.38 1.54 2.64.08 1.01-.5 1.82-1.07 2.33z" fill="#003963"/></svg>