<svg height="18" width="18" xmlns="http://www.w3.org/2000/svg"><path d="m0 0h18v18h-18z" fill="#37bfc3"/><g fill="#fff"><path d="m7.286 6.128-2.91 2.834-1.376-1.386 2.893-2.862z"/><path d="m6.987 8.887-2.713 2.684-1.274-1.291 2.74-2.645 1.247 1.253zm-.628 4.803-1.645-1.625 1.352-1.35 1.623 1.643-1.33 1.331z"/><path d="m10.379 12.249-2.714 2.751-1.306-1.31 2.755-2.76z"/><path d="m13.286 12.174-2.781 2.811-1.41-1.436 1.284-1.3.107.108 1.516-1.534zm-5.44-9.174 1.541 1.593-1.37 1.357-1.589-1.595zm1.31 7.046-1.382 1.405-1.328-1.355 1.396-1.346 1.314 1.297zm4.344-1.406 1.5 1.548-1.344 1.383-1.58-1.544 1.423-1.387z"/><path d="m10.75 3.245 4.11 4.07-4.264 4.153-4.097-4.015 4.25-4.208z"/></g></svg>