<svg height="18" width="18" xmlns="http://www.w3.org/2000/svg" xmlns:xlink="http://www.w3.org/1999/xlink"><linearGradient id="a" gradientUnits="userSpaceOnUse" x1="5.065" x2="35.501" y1="9.001" y2="9.001"><stop offset="0" stop-color="#0b355f"/><stop offset="1" stop-color="#00a4e3"/></linearGradient><path d="m0 0h18v18h-18z" fill="#f0f3fa"/><path d="m5 6.757c0 1.272.72 1.927 1.712 2.319 1.264.56 2.606.679 3.901 1.133.775.312 1.28.788.681 1.695-.58.693-1.315.797-2.076.797-1.301 0-2.718.02-2.718-1.701h-1.5c0 2.304 2.142 3 4 3 1.577 0 3.996-.597 3.996-2.727.076-1.27-.903-1.98-1.864-2.377-.916-.349-1.865-.489-2.782-.734-.634-.187-1.862-.092-1.85-1.328s1.372-1.485 2.304-1.54c1.446-0 2.696.576 2.696 1.706h1.496c0-.802-.46-1.492-.996-2.086-.57-.63-2.095-.914-3.196-.914-1.1 0-3.804.511-3.804 2.757z" fill="url(#a)"/></svg>