<svg height="18" viewBox="0 0 18 18" width="18" xmlns="http://www.w3.org/2000/svg"><path d="m0 0h18v18h-18z" fill="#f0f3fa"/><path d="m9 10.41h-2.06l.15.75 1.93.55 2.14-1 .47-1.64h-1.2v-1.68l-1.43-.33z" fill="#bc7574"/><g fill-rule="evenodd"><path d="m9.96 5.97c.05-.1.08-.2.08-.33 0-.4-.39-.73-.87-.73s-.87.33-.87.73c0 .1.02.17.05.25-.3.06-.6.17-.87.32a.63.63 0 0 0 -.14-.2c-.28-.28-.8-.24-1.13.1-.34.34-.39.85-.1 1.14.05.05.1.09.17.12-.15.24-.26.5-.34.78a.64.64 0 0 0 -.32-.09c-.4 0-.74.4-.74.87 0 .49.33.88.74.88.1 0 .2-.03.29-.07.08.34.22.67.4.96a.67.67 0 0 0 -.47.19c-.28.28-.24.8.1 1.13.34.34.85.39 1.14.1a.66.66 0 0 0 .19-.46c.28.19.59.32.92.41a.66.66 0 0 0 -.15.42c0 .4.39.74.87.74s.87-.33.87-.74a.65.65 0 0 0 -.13-.38c.29-.06.56-.16.8-.29.04.11.1.22.18.3.28.29.8.24 1.13-.1.34-.34.39-.85.1-1.13a.63.63 0 0 0 -.2-.14c.16-.26.3-.54.38-.83.12.1.27.15.42.15.4 0 .74-.39.74-.87s-.33-.87-.74-.87a.64.64 0 0 0 -.34.1 3.15 3.15 0 0 0 -.31-.92.64.64 0 0 0 .3-.17c.29-.28.24-.8-.1-1.13-.34-.34-.85-.39-1.13-.1a.63.63 0 0 0 -.15.23c-.24-.16-.5-.28-.77-.37zm1.13 3.38a2.12 2.12 0 0 1 -2.09 1.77v-4.14h-.06l-1.54.64a2.11 2.11 0 0 1 2.84-.34l-1.24-.3v.13l1.41.35v1.54h-1.41v.35zm.03-.35c0-.57-.23-1.1-.6-1.48v1.48zm-4.16-.58a2.12 2.12 0 0 0 0 1.15c.18-.1.43-.22.63-.22.24 0 .37.2.35.3v.68c.22-.19.34-.48.38-.62.02.32.28.56.45.67v-.54l-1.8-1.42zm.07 1.35c.28.72.94 1.25 1.74 1.34v-.7h-1.17v-.65c0-.1-.13-.2-.56.01zm1.78-.96-.14-1.3-.5.18zm-1.66-.81.3-.17 1.25 1.55c-.04-.06-1.06-.93-1.55-1.36z" fill="#c8242b"/><path d="m9 14c3.12 0 5-2.38 5-5 0-2.7-1.88-5-5-5s-5 2.22-5 5 1.88 5 5 5zm0 1a6 6 0 1 0 0-12 6 6 0 0 0 0 12zm0-2.12a3.88 3.88 0 1 0 0-7.76 3.88 3.88 0 0 0 0 7.76zm0 .36a4.24 4.24 0 1 0 0-8.48 4.24 4.24 0 0 0 0 8.48z" fill="#12539d"/></g></svg>