<svg height="18" viewBox="0 0 18 18" width="18" xmlns="http://www.w3.org/2000/svg"><path d="m0 0h18v18h-18z" fill="#f0f3fa"/><path d="m14 4h-4.98v.09a5.47 5.47 0 0 1 2.86 4.76c0 3.78-2.84 5.03-2.87 5.03-.02 0 0 .08 0 .12h4.99z" fill="#a2d071"/><path d="m4 4v10h5v-10zm4.64.08v1.34a3.3 3.3 0 0 1 -.85-.75c.2-.2.6-.5.85-.59zm-1.1.78c.15.2.57.7 1.1 1.03v1.9c-.54-.23-1.72-.92-2.07-1.77.15-.22.56-.77.97-1.16zm1.1 3.35a4.3 4.3 0 0 1 -2.24-1.84c-.32.55-.48 1.31-.52 1.62.55 1.14 2.08 1.95 2.77 2.22v-2zm-2.84.33c.2.38 1.05 1.32 2.84 2.05v1.76a4.9 4.9 0 0 1 -2.58-1.6 5.5 5.5 0 0 1 -.26-2.21zm2.84 4.26a7.25 7.25 0 0 1 -2.25-1.22c.78 1.64 1.82 2.24 2.25 2.33z" fill="#6a923e" fill-rule="evenodd"/></svg>