<svg height="18" viewBox="0 0 18 18" width="18" xmlns="http://www.w3.org/2000/svg"><path d="m0 0h18v18h-18z" fill="#f0f3fa"/><path d="m9.72 7a5 5 0 0 0 -.93 1.07c.2-.04.7-.07 1.1-.07 2.5 0 3.49.91 3.49 1.6 0 .56-.29 1.14-.45 1.37.36-.24 1.07-.95 1.07-1.84-0-2.13-3.85-2.13-4.28-2.13zm-3.11 1.63c.22-.67 1-1.37 1.35-1.63-3.53.96-3.96 2.63-3.96 3.6 0 .98.88 2.4 3.54 2.4 2.13 0 3.03-.57 3.46-1-.37.2-1 .5-2.56.5-1.95 0-2.88-1.14-2.88-2.03 0-.9.77-1.71 1.05-1.84z" fill="#e72028"/><g fill="#303095"><path d="m12.56 4c-.38 0-.53.87-.56 1.24.04-.08.13-.24.22-.24.22 0 .37.5.37.9 0 .38-.06.73-.18 1.1.5-.7.59-1.45.59-1.89s-.12-1.11-.44-1.11zm-1.82 3c.23-2.08 1-2.87 1.26-3-.54.74-.85 2.05-.86 3.6 0 1.53-.77 2.92-1.76 2.92-.8 0-1-.8-1-1.19.06.2.29.6.67.6 1.02 0 1.63-2.19 1.69-2.93z"/><path d="m6.5 9.83c0-2.1 2.24-3.1 3.44-3.35-1.09.74-1.94 1.88-1.94 2.8 0 .9.7 1.48 1.37 1.48 1.24 0 1.6-1.1 1.82-1.76-.33 2.41-1.55 3-2.65 3s-2.04-.95-2.04-2.17z"/></g></svg>