<svg height="18" viewBox="0 0 18 18" width="18" xmlns="http://www.w3.org/2000/svg"><path d="m0 0h18v18h-18z" fill="#f73601"/><path d="m9 4h1v3.28a3 3 0 1 1 0 4.45v.27l-.2.5h-.8zm1 4.82v1.36c.3.74 1.05 1.26 1.94 1.26 1.14 0 2.06-.87 2.06-1.94s-.92-1.94-2.06-1.94c-.9 0-1.65.52-1.94 1.26zm-2-.47c0-.62-.48-1.85-2.4-1.85-2.35 0-2.35 1.61-2.34 1.78v.01c0 .6.33 1.35 2.03 1.58.55.05 1.7.29 1.7.88 0 .73-.97.83-1.39.82-.41 0-1.22-.12-1.57-1.06h-1.03c0 .68.54 1.99 2.61 1.99s2.46-1.24 2.39-1.83c0-.48-.41-1.48-1.95-1.62-1.54-.15-1.85-.76-1.78-1.05.02-.25.39-.7 1.34-.67.96.04 1.3.69 1.34 1h1.05z" fill="#fff"/></svg>