<svg height="18" viewBox="0 0 18 18" width="18" xmlns="http://www.w3.org/2000/svg"><path d="m0 0h18v18h-18z" fill="#f0f3fa"/><path d="m11.72 6.93a1.97 1.97 0 0 0 -2.72.27v-.7h-1v5.5h1v-1.7a2 2 0 0 0 1.5.7c.68 0 1.28-.35 1.66-.9a4.14 4.14 0 0 1 -4 2.9 4.19 4.19 0 0 1 -3.66-2.1c.29.21.68.35 1.2.35 1.74 0 1.94-1.23 1.94-1.46v-.02c0-.24 0-.9-1.14-1.28l-.15-.04c-1.02-.33-1.13-.37-1.13-.57 0-.21.2-.33.43-.33s.41.13.41.33h1.32c-.06-.46-.44-1.38-1.78-1.38-.3 0-.57.05-.79.13a4.21 4.21 0 0 1 3.35-1.63c1.51 0 2.83.77 3.56 1.93zm-7.7 1.67c.16.18.41.35.79.47 1.15.36 1.39.52 1.39.75s-.29.37-.55.37-.5-.28-.5-.45h-1.08a3.87 3.87 0 0 1 -.05-1.14zm7.53.01c0 .63-.53 1.13-1.18 1.13-.64 0-1.17-.5-1.17-1.13 0-.62.53-1.12 1.17-1.12.65 0 1.18.5 1.18 1.12z" fill="#e31b23"/><path d="m14 7h-1v1h-1c.04.15.09.55 0 1h1v1h1v-1h1v-1h-1z" fill="#fdb913"/></svg>