<svg height="18" viewBox="0 0 18 18" width="18" xmlns="http://www.w3.org/2000/svg"><path d="m0 0h18v18h-18z" fill="#f0f3fa"/><path d="m7.26 3 1.7.4h.02l1.69-.4c.04 0 .06 0 .04.05l-1.71 4.23c-.03.06-.05.06-.07 0l-1.71-4.23c-.02-.04 0-.05.04-.04z" fill="#c99c28"/><path d="m7.32 4.67a.09.09 0 1 0 0-.18.09.09 0 0 0 -.1.1c0 .04.05.08.1.08zm3.3-.14c.05-.04.1-.04.15 0 .03.03.04.06 0 .1-.04.05-.09.06-.14 0-.04-.03-.04-.06 0-.1zm.58 1.23a4.5 4.5 0 0 1 -.74-.52.24.24 0 0 0 -.13-.06c-.07 0-.11.03-.14.1l-.29.72c-.24.57-.5 1.17-.75 1.8-.12.29-.24.29-.37 0l-1.08-2.57c-.03-.06-.07-.08-.13-.03-.95.67-1.46 1.33-1.54 1.97-.03.26.03.48.2.65.1.11.1.22-.03.31-.2.16-.19.4.05.69l.14.2c.2.38.35.77.45 1.18l-.62-1.3a.21.21 0 0 0 -.07-.09c-.2-.14-.26-.34-.16-.58.02-.06.07-.1.14-.16l.06-.05c.04-.02.04-.06.01-.09l-.13-.15a.23.23 0 0 1 -.05-.08c-.18-.47-.06-.98.36-1.52.31-.41.74-.8 1.3-1.15.02-.02.04-.01.05.02l1.17 2.82c.04.1.07.1.11 0l1.19-2.83c.01-.04.04-.04.07-.03.33.2.64.44.92.75z" fill="#1d1b24"/><path d="m11.2 5.76c.33.26.58.6.75 1 .2.48.15.87-.15 1.18-.03.03-.03.06 0 .09.27.17.34.34.2.5-.17.14-.28.27-.35.41l-1.72 3.7c-.02.03-.04.04-.07.02-.03-.01-.04-.04-.04-.07.16-.88.24-1.8.22-2.74 0-.1.04-.17.12-.23.41-.3.85-.62 1.3-.98.03-.02.05-.07.06-.15.12-.1.13-.15.03-.11 0-.05-.03-.06-.1-.04a75.55 75.55 0 0 0 -2.16.77c-.18.1-.36.1-.55.02-.7-.28-1.43-.55-2.19-.8-.04-.01-.07 0-.09.03l.01.04a.11.11 0 0 0 -.03-.02c-.03 0-.04.01-.02.04.02.04.03.07.02.08.44.4.9.77 1.38 1.1.1.07.15.14.15.22-.06.77 0 1.52.19 2.26l.3 1.55c.04.16.02.17-.04.02l-1.58-3.45c-.1-.4-.25-.8-.45-1.18a1.58 1.58 0 0 0 -.14-.2c-.25-.3-.25-.53-.05-.69.12-.1.13-.2.03-.3a.77.77 0 0 1 -.2-.66c.08-.64.6-1.3 1.54-1.97.06-.05.1-.03.13.03l1.08 2.57c.13.29.25.29.37 0a128.47 128.47 0 0 1 1.04-2.52c.03-.07.07-.1.14-.1.05 0 .1.03.13.06.23.2.47.37.74.52z" fill="#36333d"/><path d="m4.82 6.99c.09 0 .16-.07.16-.16a.16.16 0 0 0 -.16-.15.16.16 0 0 0 -.16.15c0 .09.07.16.16.16zm8.37 0a.16.16 0 1 0 0-.31.16.16 0 0 0 -.16.15c0 .09.07.16.16.16zm-1.64 1.39-2.5.92a.15.15 0 0 1 -.1 0l-2.48-.9v-.04c.01-.03.04-.04.08-.03.77.25 1.5.52 2.19.8.19.08.37.08.55-.02l.27-.11 1.89-.66c.07-.02.1 0 .1.04zm-7.32.32c.1 0 .2-.07.2-.17s-.1-.19-.2-.19-.18.09-.18.19.08.18.18.18zm9.54.01c.1 0 .2-.08.2-.19 0-.1-.1-.18-.2-.18s-.2.08-.2.18.1.2.2.2zm-7.33-.21 1.57 1.15c.03.02.04.04.04.07l.1 2.36a6.92 6.92 0 0 1 -.18-2.26c0-.08-.05-.15-.15-.22-.48-.33-.94-.7-1.38-1.1zm5.08-.01c-.01.08-.03.13-.06.15-.45.36-.88.69-1.3.98a.26.26 0 0 0 -.11.23c0 .94-.07 1.86-.23 2.74 0 .03 0 .06.04.07.03.02.05 0 .07-.02a588.2 588.2 0 0 0 1.72-3.7c.07-.14.19-.27.36-.4l-2.51 5.24c-.01.02-.01.02 0 0a16.24 16.24 0 0 0 .48-4.08c0-.04.03-.07.05-.09l1.5-1.13z" fill="#1d1b24"/><path d="m6.37 9.5 1.97 4.37c.03.07.02.08-.04.03l-2.42-2.4c-.03-.02-.03-.06-.01-.1.3-.54.45-1.17.44-1.89 0-.1.02-.1.06 0z" fill="#36333d"/><path d="m9.67 13.87 2-4.43c.02-.05.03-.04.02 0-.03.7.12 1.35.44 1.96.02.04.01.08-.02.11l-2.4 2.38c-.06.05-.07.05-.04-.02z" fill="#1d1b24"/><path d="m10.26 13.18c0 .02-.01.04-.03.04a.57.57 0 0 0 -.07.03c-.03.02-.06 0-.07-.07a163.18 163.18 0 0 0 1.2-2.7c.04-.1.1-.2.17-.3a.19.19 0 0 0 .03-.1.1.1 0 0 1 .04-.07c.03-.03.06-.02.06.03.08.46.21.91.41 1.36.02.04.01.07-.02.1a219.4 219.4 0 0 1 -1.72 1.68z" fill="#36333d"/><path d="m4 10.43v-.09c.1-.2.23-.23.38-.12.06.05.1.1.09.18a.2.2 0 0 1 -.11.18c-.16.09-.28.04-.36-.15zm9.77.18c.13 0 .23-.1.23-.22s-.1-.22-.23-.22c-.12 0-.23.1-.23.22s.1.22.23.22zm-8.95 1.72a.25.25 0 1 0 0-.49.25.25 0 0 0 -.25.24c0 .14.11.25.25.25zm8.38 0c.13 0 .25-.11.25-.25a.25.25 0 0 0 -.26-.25.25.25 0 0 0 -.25.25c0 .14.11.25.25.25zm-1.07 1.37c.16 0 .28-.12.28-.28a.28.28 0 0 0 -.28-.27.28.28 0 0 0 -.29.27c0 .16.13.28.29.28zm-6.25 0c.16 0 .29-.12.29-.27a.28.28 0 0 0 -.29-.28.28.28 0 0 0 -.28.28c0 .15.12.27.28.27zm1.43.94c.18 0 .32-.14.32-.31s-.14-.3-.32-.3a.31.31 0 0 0 -.31.3c0 .17.14.3.31.3zm3.39 0c.17 0 .31-.14.31-.31s-.14-.3-.31-.3a.31.31 0 0 0 -.32.3c0 .17.14.3.32.3z" fill="#1d1b24"/><path d="m9.07 15h-.17c-.31-.24-.35-.44-.1-.6.12-.07.24-.09.36-.04.15.06.22.16.2.32-.03.16-.12.26-.29.32z" fill="#36333d"/></svg>