<svg height="18" viewBox="0 0 18 18" width="18" xmlns="http://www.w3.org/2000/svg" xmlns:xlink="http://www.w3.org/1999/xlink"><linearGradient id="a" gradientUnits="userSpaceOnUse" x1="5.18" x2="11.5" y1="10.74" y2="14.58"><stop offset="0" stop-color="#a60004"/><stop offset=".61" stop-color="#e40011"/><stop offset="1" stop-color="#ee6b03"/></linearGradient><linearGradient id="b" gradientUnits="userSpaceOnUse" x1="12.82" x2="6.58" y1="7.18" y2="3.29"><stop offset="0" stop-color="#00412d"/><stop offset=".61" stop-color="#13773b"/><stop offset="1" stop-color="#57ad0c"/></linearGradient><linearGradient id="c" gradientUnits="userSpaceOnUse" x1="7.72" x2="12.95" y1="11.14" y2="7.16"><stop offset="0" stop-color="#008a3d"/><stop offset=".32" stop-color="#3a9b39"/><stop offset="1" stop-color="#accf1b"/></linearGradient><linearGradient id="d" gradientUnits="userSpaceOnUse" x1="10.28" x2="5.05" y1="6.86" y2="10.84"><stop offset="0" stop-color="#9d0200"/><stop offset=".32" stop-color="#de0011"/><stop offset="1" stop-color="#fca40c"/></linearGradient><path d="m0 0h18v18h-18z" fill="#f0f3fa"/><path d="m5 11.14c.56 2.56 4.9 2.96 7 2.84v-1.27a.9.9 0 0 0 -.92-.9h-.92c-3.17 0-4.56-1.36-4.87-2.03z" fill="url(#a)"/><path d="m13 6.8c-.56-2.5-4.9-2.9-7-2.78v1.24c0 .49.41.88.92.88h.92c3.17 0 4.56 1.32 4.87 1.98l.29-1.33z" fill="url(#b)"/><path d="m13 9.29v-2.64c-.35 1.47-2.16 1.29-3.62 1.6-1.18.25-1.4 1.15-1.38 1.58v2.4c3.29-.42 4.7-2.14 5-2.94z" fill="url(#c)"/><path d="m5 8.71v2.64c.35-1.47 2.16-1.29 3.62-1.6 1.18-.25 1.4-1.15 1.38-1.58v-2.4c-3.3.41-4.7 2.13-5 2.93z" fill="url(#d)"/></svg>