<svg height="18" viewBox="0 0 18 18" width="18" xmlns="http://www.w3.org/2000/svg"><path d="m0 0h18v18h-18z" fill="#f0f3fa"/><path d="m5.68 7.8c-.07-.98-.76-1.2-1.56-1.2s-1.41.31-1.41.95c0 .75.61.92 1.82 1.15.9.17 1.82.43 1.82 1.52 0 1.4-1.11 1.78-2.09 1.78-1.26 0-2.18-.5-2.26-2.03h.52c.09 1.19.79 1.43 1.74 1.43.75 0 1.53-.18 1.53-1.08 0-.82-.8-.96-1.65-1.11l-.17-.03c-1.2-.22-1.82-.6-1.82-1.52-0-1.26 1-1.66 1.97-1.66 1.02 0 2.05.44 2.08 1.8zm4.83 0c-.08-.98-.76-1.2-1.57-1.2-.8 0-1.37.31-1.37.95 0 .75.58.92 1.79 1.15.9.17 1.81.43 1.81 1.52 0 1.4-1.1 1.78-2.08 1.78-1.26 0-2.19-.5-2.26-2.03h.51c.1 1.19.8 1.43 1.75 1.43.75 0 1.48-.18 1.48-1.08 0-.82-.77-.96-1.62-1.12l-.15-.02c-1.2-.22-1.83-.6-1.83-1.52 0-1.26 1-1.66 1.97-1.66 1.02 0 2.05.44 2.09 1.8zm2.04 3.63v-2.43h2.88v-.58h-2.88v-1.85h3.45v-.57h-4v6h4v-.57z" fill="#e31c24"/></svg>