<svg height="18" viewBox="0 0 18 18" width="18" xmlns="http://www.w3.org/2000/svg"><path d="m0 0h18v18h-18z" fill="#ed1c24"/><path d="m7.88 4.13a5.01 5.01 0 0 0 -3.5 2.94l4.1 4.51 3.5 1-.34-3.52zm-3.6 3.21a5 5 0 0 0 -.23 2.37l1.47 1.02 2.48.71zm-.16 2.74.06.27.55.16zm.16.57a5 5 0 0 0 1.12 1.82l2.3.1-2.3-1.6zm1.4 2.1a4.98 4.98 0 0 0 4 1.2l-1.57-1.1-2.42-.1zm4.38 1.14.12-.03-.86-.95-.72-.03 1.46 1zm.4-.1a4.98 4.98 0 0 0 1.5-.76l-2.27-.1.78.85zm1.94-1.12c.4-.37.74-.82 1-1.3l-.72-.95zm1.14-1.57.08-.2-.78-1.69-.1.83zm.21-.54a5 5 0 0 0 -.54-4.26l-.31 2.42zm-.75-4.58c-.4-.53-.91-.98-1.5-1.31l.13 1.3 1.07 2.3zm-1.77-1.46-.34-.16.4.89zm-.7-.28a5 5 0 0 0 -2.35-.17l3.43 4.49-.24-2.53-.83-1.8zm1.68 7.89-.25-2.68.5.67zm.43-3.36-.13.98-.6-.8-.2-2.2zm-3.19 3.88 2.13.1-2.76-.8zm-3.25-1.45 2.14.61.74.82-.88-.04-2-1.4z" fill="#fff"/></svg>