<svg height="18" viewBox="0 0 18 18" width="18" xmlns="http://www.w3.org/2000/svg"><path d="m0 0h18v18h-18z" fill="#f0f3fa"/><path d="m9.88 7s-.16-2.62-5.88-3c4.88 0 7.23.87 9 2.47-1.48-.65-3.13.53-3.13.53zm0 4s-.16 2.62-5.88 3c4.88 0 7.23-.87 9-2.47-1.48.64-3.13-.53-3.13-.53zm2.12 0a2 2 0 1 0 0-4 2 2 0 0 0 0 4z" fill="#4d5d7a"/><g fill="#f0f3fa"><path d="m12.73 8c-.07-.06-.07-.15 0-.2a.21.21 0 0 1 .26 0c.4.32.68.75.68 1.22 0 .45-.26.87-.66 1.19a.21.21 0 0 1 -.26 0c-.07-.06-.07-.15 0-.2.33-.26.54-.62.54-1 0-.4-.22-.73-.56-1.01z"/><path d="m12.21 8.34c-.07-.05-.07-.14 0-.2a.23.23 0 0 1 .25 0c.3.22.46.55.46.88s-.17.63-.46.86a.2.2 0 0 1 -.26-.01c-.07-.06-.06-.16.01-.2.23-.17.33-.4.33-.65 0-.24-.08-.52-.33-.68z"/><path d="m11.65 8.67c-.07-.06-.07-.14 0-.2a.21.21 0 0 1 .25 0c.19.15.27.32.27.53 0 .22-.12.4-.3.57-.05.06-.17.08-.25.02-.07-.05-.1-.15-.02-.2.11-.12.2-.24.2-.39 0-.13-.03-.23-.15-.33z"/></g></svg>