<svg height="18" width="18" xmlns="http://www.w3.org/2000/svg"><path d="m0 0h18v18h-18z" fill="#f0f3fa"/><path d="m9.1 15h-.04l-.06-.02a8.4 8.4 0 0 1 -2.96-1.12 4.1 4.1 0 0 1 -1.71-5.1c.21-.47.54-.9.94-1.23.73-.66 1.69-1.13 2.55-1.53 1.22-.58 2.25-1.08 2.25-1.96 0-.58-.67-.88-1.09-1l-.05-.01-.05-.03h.06l.07.02a8.4 8.4 0 0 1 2.96 1.12 4.1 4.1 0 0 1 1.71 5.1c-.21.47-.54.9-.94 1.23-.74.66-1.7 1.12-2.56 1.53-1.22.58-2.25 1.08-2.25 1.96 0 .6.69.88 1.11 1l.03.01.05.03zm1.3-11.27c.28.5-.21 1.22-.59 1.5-1.32 1.04-2.96 1.43-4.28 2.5-.7.59-1.2 1.62-1.17 2.55a4.18 4.18 0 0 0 1.44 3.02c-.18-.3-.38-.87-.38-1.22.01-1.58 2.38-2.56 3.58-3.08.84-.37 1.64-.81 2.4-1.32.73-.55 1.17-1.13 1.17-1.76 0-1.33-1.84-2.07-2.17-2.19z" fill="#002d71"/></svg>