<svg height="18" width="18" xmlns="http://www.w3.org/2000/svg" xmlns:xlink="http://www.w3.org/1999/xlink"><linearGradient id="a" gradientUnits="userSpaceOnUse" x1="5.09" x2="8.81" y1="5.98" y2="6.78"><stop offset="0" stop-color="#f2e292"/><stop offset="1" stop-color="#92791f"/></linearGradient><linearGradient id="b" gradientUnits="userSpaceOnUse" x1="4.68" x2="8.79" y1="6.52" y2="7.85"><stop offset="0" stop-color="#594000"/><stop offset=".47" stop-color="#d9c33a"/><stop offset=".61" stop-color="#dec93c"/><stop offset="1" stop-color="#dec737"/></linearGradient><linearGradient id="c" gradientUnits="userSpaceOnUse" x1="6.83" x2="3.9" y1="7.7" y2="10.56"><stop offset="0" stop-color="#a38b27"/><stop offset=".69" stop-color="#f0e8ba"/><stop offset="1" stop-color="#f0e7bc"/></linearGradient><linearGradient id="d" gradientUnits="userSpaceOnUse" x1="7.56" x2="4.13" y1="8.75" y2="10.83"><stop offset="0" stop-color="#d9c63b"/><stop offset="1" stop-color="#7e611b"/></linearGradient><linearGradient id="e" gradientUnits="userSpaceOnUse" x1="6.47" x2="6.88" y1="9.9" y2="13.94"><stop offset="0" stop-color="#ddc73e"/><stop offset="1" stop-color="#f1e6a4"/></linearGradient><linearGradient id="f" gradientUnits="userSpaceOnUse" x1="7.47" x2="7.82" y1="9.59" y2="14"><stop offset="0" stop-color="#dec93c"/><stop offset=".33" stop-color="#dac43a"/><stop offset=".63" stop-color="#baa32f"/><stop offset="1" stop-color="#745711"/></linearGradient><linearGradient id="g" gradientUnits="userSpaceOnUse" x1="8.12" x2="11.25" y1="11.6" y2="13.6"><stop offset="0" stop-color="#dec83e"/><stop offset="1" stop-color="#ede0a5"/></linearGradient><linearGradient id="h" gradientUnits="userSpaceOnUse" x1="8.22" x2="11.97" y1="11.16" y2="13.05"><stop offset="0" stop-color="#ddc73e"/><stop offset=".33" stop-color="#d7c139"/><stop offset=".61" stop-color="#bea732"/><stop offset="1" stop-color="#705707"/></linearGradient><linearGradient id="i" gradientUnits="userSpaceOnUse" x1="13.58" x2="9.63" y1="9.4" y2="10.72"><stop offset="0" stop-color="#f1e29d"/><stop offset=".49" stop-color="#e6d262"/><stop offset="1" stop-color="#a48827"/></linearGradient><linearGradient id="j" gradientUnits="userSpaceOnUse" x1="13.77" x2="10.21" y1="10.04" y2="11.3"><stop offset="0" stop-color="#72550f"/><stop offset="1" stop-color="#b69720"/></linearGradient><linearGradient id="k" gradientUnits="userSpaceOnUse" x1="12.96" x2="11.44" y1="6.21" y2="9.6"><stop offset="0" stop-color="#d5c039"/><stop offset="1" stop-color="#614403"/></linearGradient><linearGradient id="l" gradientUnits="userSpaceOnUse" x1="12.33" x2="10.73" y1="5.59" y2="8.95"><stop offset="0" stop-color="#f7e9a8"/><stop offset="1" stop-color="#dcc63d"/></linearGradient><linearGradient id="m" gradientUnits="userSpaceOnUse" x1="8.83" x2="10.66" y1="4.01" y2="7.34"><stop offset="0" stop-color="#ddc434"/><stop offset=".43" stop-color="#d3ba39"/><stop offset="1" stop-color="#7b6017"/></linearGradient><linearGradient id="n" gradientUnits="userSpaceOnUse" x1="8.33" x2="9.92" y1="4.01" y2="8.26"><stop offset="0" stop-color="#604305"/><stop offset=".73" stop-color="#dec93c"/></linearGradient><path d="m0 0h18v18h-18z" fill="#f0f3fa"/><path d="m8.6 6.29.35.6-4.41-.52.5-.5z" fill="url(#a)"/><path d="m8.31 7.84-3.38-.38-.4-1.09 4.42.53z" fill="url(#b)"/><path d="m6.44 7.62.75.06-3.15 3.12-.04-.7 2.44-2.49z" fill="url(#c)"/><path d="m7.2 7.68-3.17 3.12 1.08.42 2.44-2.43-.37-1.1z" fill="url(#d)"/><path d="m6.74 9.59.46 4.41-.58-.4-.37-3.49.5-.52z" fill="url(#e)"/><path d="m8.2 13.39-.38-3.4-1.08-.4.46 4.41z" fill="url(#f)"/><path d="m11.01 13.72.64-.24-3.7-2.32.03.64 3.02 1.92z" fill="url(#g)"/><path d="m11.78 12.33-2.86-1.8-.97.63 3.7 2.32z" fill="url(#h)"/><path d="m10 9.98-.12 1.17 4.12-1.49-.8-.8z" fill="url(#i)"/><path d="m14 9.66-4.12 1.49.56.35 3.36-1.18z" fill="url(#j)"/><path d="m12.94 6.02-.4-.58-1.44 4.16.66-.2z" fill="url(#k)"/><path d="m11.42 5.56c-.39 1.06-1.16 3.2-1.16 3.24l.84.8 1.45-4.16z" fill="url(#l)"/><path d="m10.65 7.68-2.32-3.68.7.09 1.85 2.95z" fill="url(#m)"/><path d="m9.52 7.83-1.79-2.9.6-.93 2.32 3.68z" fill="url(#n)"/></svg>