<svg height="18" viewBox="0 0 18 18" width="18" xmlns="http://www.w3.org/2000/svg"><path d="m0 0h18v18h-18z" fill="#f0f3fa"/><path d="m5.56 6.23v1.22l-1.22-1.27c-.37 0-1.12.05-1.12.84 0 .61.62.93 1.02 1.14.11.06.21.1.27.15.04.04.13.08.23.12.46.2 1.26.57 1.26 1.78 0 1.52-1.5 1.79-2.18 1.79-.53 0-1.28-.14-1.59-.22v-1.28l1.23 1.28a1 1 0 0 0 .36.06c.24 0 .96-.15.96-.96 0-.65-.83-1.1-1.25-1.24-1.24-.52-1.54-1.44-1.53-1.83 0-1.63 1.54-1.81 2.18-1.81.5 0 1.13.15 1.38.23zm2.44-.23-1 .95h-.4v.16h.4v2.09c-.04.27.1.8.78.8a.9.9 0 0 0 .95-.77.44.44 0 0 1 -.4.26.32.32 0 0 1 -.33-.29v-2.1h.8v-.15h-.8zm-.46 4.44-.65.66.65.67.65-.67zm3.96-4.44h-2.49l.49.58v4.33c0 1.31-.6 1.94-.92 2.09 1.89-.1 2.4-1.47 2.42-2.15v-4.27l.52-.55.48.63v4.7l-.5.64h2.45l-.45-.64v-1.56h.45c.27 0 2.05-.17 2.05-1.96 0-1.43-1.17-1.82-1.75-1.84zm2 .22v3.25h.44c.36.03 1.06-.25 1.06-1.72 0-1.46-1-1.63-1.5-1.53z" fill="#0d1629" fill-rule="evenodd"/></svg>