<svg height="18" viewBox="0 0 18 18" width="18" xmlns="http://www.w3.org/2000/svg" xmlns:xlink="http://www.w3.org/1999/xlink"><linearGradient id="a" gradientUnits="userSpaceOnUse" x1="10.8" x2="7" y1="-.86" y2="22.58"><stop offset=".2" stop-color="#187bc3"/><stop offset=".39" stop-color="#064b7f"/><stop offset=".42" stop-color="#08497b"/><stop offset=".53" stop-color="#0c558c"/><stop offset=".76" stop-color="#1c679f"/></linearGradient><linearGradient id="b" gradientUnits="userSpaceOnUse" x1="1.88" x2="12.99" y1="9.44" y2="9"><stop offset=".14" stop-color="#fff" stop-opacity=".4"/><stop offset=".37" stop-color="#fff" stop-opacity="0"/></linearGradient><linearGradient id="c" gradientUnits="userSpaceOnUse" x1="10.19" x2="8.3" y1="2.5" y2="12.06"><stop offset=".12" stop-color="#fff" stop-opacity=".77"/><stop offset=".46" stop-color="#fff" stop-opacity=".01"/></linearGradient><linearGradient id="d" gradientUnits="userSpaceOnUse" x1="13.03" x2="8.06" y1="3.36" y2="8.35"><stop offset=".21" stop-color="#fff" stop-opacity=".69"/><stop offset=".78" stop-color="#fff" stop-opacity="0"/></linearGradient><path d="m0 0h18v18h-18z" fill="#f0f3fa"/><circle cx="9" cy="9" fill="url(#a)" r="6"/><path d="m8.65 3.3a5.65 5.65 0 0 1 5.65 5.66 5.8 5.8 0 0 1 -5.65 5.83 5.8 5.8 0 0 1 -5.65-5.83 5.65 5.65 0 0 1 5.65-5.66z" fill="url(#b)"/><circle cx="8.3" cy="8.98" fill="url(#c)" r="4.96"/><path d="m4 7.7v.65h2.12c.12 0 .21.13.21.25v.17h-2.33v.46h2.33v.22c0 .13-.1.2-.21.2h-2.12v.65h2.56c.24 0 .44-.2.44-.46v-1.68c0-.25-.2-.46-.44-.46zm6.4.65v-.65h-2.3c-.22 0-.4.2-.4.46v1.68c0 .26.18.46.4.46h1.9c.22 0 .4-.2.4-.46v-1.06h-2.1v-.04c0-.13 0-.39.29-.39zm-2.1.97h1.48c0 .14-.04.38-.42.38h-.68c-.34 0-.38-.24-.38-.38z" fill="#fff"/><path d="m11.66 7.7c-.32 0-.66.27-.66.6v1.4c0 .34.34.6.66.6h1.65c.32 0 .69-.26.69-.6v-1.4c0-.34-.37-.61-.7-.61h-1.64zm.34.65c-.12 0-.25.1-.25.22v.86c0 .13.13.22.25.22h1c.13 0 .25-.1.25-.22v-.85c0-.13-.12-.23-.24-.23z" fill="#fff" fill-rule="evenodd"/><path d="m7.55 6.42c-1.94-.39-2.36.38-2.52.43 0 0-.1-1.23 1.4-2.1a3.71 3.71 0 0 1 1.86-.52c1.06 0 2.1.38 2.72.83 1.5 1.08 2.68 3.7 1.6 4.15-.77.32-3.12-2.4-5.06-2.79z" fill="url(#d)" fill-opacity=".8"/></svg>