<svg height="18" viewBox="0 0 18 18" width="18" xmlns="http://www.w3.org/2000/svg" xmlns:xlink="http://www.w3.org/1999/xlink"><linearGradient id="a"><stop offset="0" stop-color="#1d64a9"/><stop offset="1" stop-color="#9aaadb"/></linearGradient><linearGradient id="b" gradientUnits="userSpaceOnUse" x1="5" x2="8.35" xlink:href="#a" y1="5.15" y2="6.91"/><linearGradient id="c" gradientUnits="userSpaceOnUse" x1="3.73" x2="7.37" xlink:href="#a" y1="7.05" y2="9.88"/><linearGradient id="d" gradientUnits="userSpaceOnUse" x1="3.36" x2="7.01" xlink:href="#a" y1="9.16" y2="12"/><path d="m0 0h18v18h-18z" fill="#f0f3fa"/><path d="m11.48 5.18c-.71-.5-1.57-.8-2.5-.8-2.5 0-4.53 2.16-4.53 4.81a4.7 4.7 0 0 0 4.27 4.81l-.28.01c-2.6 0-4.72-2.24-4.72-5s2.12-5 4.72-5c1.16 0 2.22.44 3.04 1.18z" fill="#005aa8"/><path d="m8.99 5.56a3.58 3.58 0 0 0 -3.09 3.63 3.58 3.58 0 0 0 3.1 3.64 3.3 3.3 0 0 1 -.37.02c-1.9 0-3.44-1.64-3.44-3.66s1.54-3.65 3.44-3.65c.12 0 .25 0 .37.02z" fill="#005aa8"/><path d="m8.44 6.88a4.57 4.57 0 0 1 -3.44-2.11v.77a5.3 5.3 0 0 0 3.44 1.92z" fill="url(#b)"/><path d="m8.44 8.42c-2.58-.14-4.53-1.72-5.08-2.69v.96c1.27 1.73 3.27 2.31 5.08 2.31z" fill="url(#c)"/><path d="m8.08 10.54c-2.58-.14-4.54-1.74-5.08-2.7v.97c1.27 1.73 3.27 2.3 5.08 2.3z" fill="url(#d)"/><path d="m14 8.54h-1.6c0-.3-.27-.39-.4-.39h-2c-.2 0-.4 0-.4.39 0 .3.27.38.4.38h3.2c.6 0 .8.39.8.77v1.54c0 .77-.53.77-.8.77h-4.4c-.64 0-.8-.51-.8-.77v-.77h1.6c0 .3.27.39.4.39h2c.2 0 .4 0 .4-.39 0-.3-.27-.38-.4-.38h-3.2c-.64 0-.8-.52-.8-.77v-1.54c0-.62.53-.77.8-.77h4.4c.64 0 .8.51.8.77z"/></svg>