<svg height="18" viewBox="0 0 18 18" width="18" xmlns="http://www.w3.org/2000/svg"><path d="m0 0h18v18h-18z" fill="#f0f3fa"/><path d="m9 9v-6l1.49 4.01z" fill="#002d62"/><path d="m9 9v-6l-1.5 4z" fill="#cdcccc"/><path d="m7.5 7h-4.5l6 1.99z" fill="#002d62"/><path d="m10.5 7h4.5l-6 1.99zm-3.82 2.81-3.68-2.81 6 1.98z" fill="#cdcccc"/><path d="m11.28 9.82 3.72-2.82-6 1.98z" fill="#002d62"/><path d="m6.68 9.81-1.37 4.19 3.7-5.02z" fill="#002d62"/><path d="m11.28 9.81 1.37 4.19-3.65-5.02 2.27.83zm-2.28 1.62-3.68 2.57 3.68-5.02z" fill="#cdcccc"/><path d="m9 11.43 3.65 2.57-3.65-5.02z" fill="#002d62"/></svg>