<svg height="18" viewBox="0 0 18 18" width="18" xmlns="http://www.w3.org/2000/svg"><path d="m0 0h18v18h-18z" fill="#f0f3fa"/><g fill="#e3011f"><path d="m13.5 5.25c0 1.29-1.43 3.04-2.15 3.75h.9c1.47-1.8 1.75-2.93 1.75-3.75s-.76-1.25-1.7-1.25c-2.44 0-4.91 2.57-5.8 3.5 3.33-2.55 4.84-3.17 5.8-3.17.95 0 1.2.6 1.2.92zm-7.5 3.75h-.6c-.48.89-1.4 2.19-1.4 3.32 0 1.12.8 1.68 1.7 1.68 1.3 0 3.4-1.41 4.3-2.11h-1.26c-.66.36-2.14 1.11-2.8 1.11-.84 0-1.11-.54-1.11-1.11 0-.86.78-2.23 1.17-2.89z"/><path d="m9 11a.45.45 0 0 0 .03-.13l.41-2.74.01-.08v-.05h.44l-.08.36c.16-.2.36-.36.61-.36.36 0 .58.3.58.81 0 .7-.3 1.59-.97 1.59-.2 0-.34-.11-.45-.3l-.1.77-.02.08.01.05zm.7-1.81-.06.45c0 .3.13.5.33.5.49 0 .53-.95.53-1.37 0-.3-.07-.46-.26-.46-.38 0-.5.52-.55.88zm-2.7 1.56.14-.42c.18.2.39.36.65.36.25 0 .5-.2.5-.5 0-.27-.28-.38-.45-.47l-.06-.03c-.27-.14-.48-.33-.48-.7 0-.6.5-.99 1-.99.22 0 .46.06.7.2l-.14.37a.78.78 0 0 0 -.54-.27.47.47 0 0 0 -.48.47c0 .1.03.19.12.25l.32.17c.37.17.55.4.55.7 0 .69-.5 1.11-1.08 1.11-.29 0-.53-.09-.75-.25z"/></g></svg>