<svg height="18" viewBox="0 0 18 18" width="18" xmlns="http://www.w3.org/2000/svg"><path d="m0 0h18v18h-18z" fill="#f0f3fa"/><path d="m7.7 13.44-3.14-3.14a1.94 1.94 0 0 1 0-2.74l3-3a1.94 1.94 0 0 1 2.74 0l3.14 3.14c.75.76.75 1.99 0 2.74l-3 3c-.75.75-1.98.75-2.74 0zm-2.66-3.35 2.87 2.87c.32.32.74.48 1.16.48.43 0 .85-.16 1.17-.48l2.79-2.72c.32-.32.47-.74.47-1.17 0-.42-.15-.84-.47-1.16l-2.94-2.87a1.64 1.64 0 0 0 -1.16-.48c-.43 0-.85.16-1.17.48l-2.72 2.72c-.32.32-.48.74-.48 1.17 0 .42.16.84.48 1.16z" fill="#2b2b2a"/><path d="m8.92 12.85-1.92-1.87c.03-.03.2.08.44.08.26-.01.6-.15.99-.52l2.32-2.26a1.02 1.02 0 0 1 1.41 0l.65.64a.6.6 0 0 1 0 .88l-3.13 3.05c-.21.2-.55.2-.76 0z" fill="#e4121d"/><path d="m9.08 5.15 1.92 1.87c-.03.03-.18-.08-.41-.08-.26 0-.62.13-1.02.52l-2.32 2.26c-.39.37-1.02.37-1.41 0l-.65-.64a.6.6 0 0 1 0-.88l3.13-3.05c.21-.2.55-.2.76 0z" fill="#17449f"/></svg>