<svg height="18" viewBox="0 0 18 18" width="18" xmlns="http://www.w3.org/2000/svg"><path d="m0 0h18v18h-18z" fill="#19294c"/><path d="m14 11.7v1c-.45.2-1.04.3-1.6.3-1.56 0-2.4-.74-2.4-2.26v-5.74h1v1.6h3v.97h-3v3.12c0 .47.37.81.59 1 .21.2.55.3 1.02.3.46 0 1-.1 1.39-.3zm-10-.7h1.07c.04.75.86 1.02 1.5 1.02.62 0 1.43-.26 1.43-1.02 0-.63-.63-.84-1.15-.92l-1.09-.2c-1.15-.2-1.72-.82-1.72-1.88 0-1.39 1.16-2 2.41-2 1.26 0 2.42.64 2.49 2h-1.06c0-.53-.52-.99-1.44-.99-.6 0-1.44.25-1.44.99 0 .58.7.8 1.16.88l1.1.19c.59.1 1.02.31 1.3.63.3.3.44.73.44 1.26 0 1.42-1.18 2.04-2.46 2.04-1.3 0-2.45-.6-2.54-2z" fill="#fff"/></svg>