<svg height="18" width="18" xmlns="http://www.w3.org/2000/svg"><path d="m0 0h18v18h-18z" fill="#00956e"/><path d="m15 8.938c0 .995-.808 1.803-1.803 1.803a1.804 1.804 0 0 1 -1.803-1.803c0-.995.808-1.803 1.803-1.803s1.803.808 1.803 1.803zm-8.394 0c0 .995-.808 1.803-1.803 1.803a1.804 1.804 0 0 1 -1.803-1.803c0-.995.808-1.803 1.803-1.803s1.803.808 1.803 1.803zm1.648-2.953c0 .684-.56 1.243-1.243 1.243-.684 0-1.244-.56-1.244-1.243 0-.684.56-1.244 1.244-1.244.684.031 1.243.56 1.243 1.244zm4.01 0c0 .684-.56 1.243-1.243 1.243-.684 0-1.244-.56-1.244-1.243 0-.684.56-1.244 1.244-1.244.684.031 1.243.56 1.243 1.244zm-4.01 5.969c0 .683-.56 1.243-1.243 1.243-.684 0-1.244-.56-1.244-1.243 0-.684.56-1.244 1.244-1.244.684.031 1.243.59 1.243 1.243zm2.02-3.016a1.26 1.26 0 0 1 -1.274 1.274 1.26 1.26 0 0 1 -1.275-1.274c0-.715.56-1.275 1.275-1.275s1.274.59 1.274 1.275zm-.497-5.192a.756.756 0 0 1 -.746.746.756.756 0 0 1 -.746-.746c0-.404.342-.746.746-.746s.746.31.746.746zm0 10.446a.756.756 0 0 1 -.746.746c-.436 0-.778-.342-.778-.746s.342-.746.747-.746c.435-.031.777.31.777.746zm2.487-2.238c0 .683-.56 1.243-1.243 1.243-.684 0-1.244-.56-1.244-1.243 0-.684.56-1.244 1.244-1.244.684.031 1.243.59 1.243 1.243z" fill="#fff"/></svg>