<svg height="18" viewBox="0 0 18 18" width="18" xmlns="http://www.w3.org/2000/svg"><path d="m6.37 8.25c-1.02-.15-1.77-.32-1.77-1.04 0-.63.55-1.04 1.42-1.04.5-.03 1.34.29 1.48.83h1.47c-.27-1.33-1.37-2-2.9-2-1.76 0-2.94.94-2.94 2.31 0 1.7 1.63 1.95 2.73 2.1 1.1.17 2 .38 2 1.2 0 .7-.75 1.11-1.74 1.11-.48.02-1.44-.21-1.64-.72h-1.48c.32 1.35 1.5 2 3.1 2 1.88 0 3.06-1.06 3.06-2.54-.04-1.61-1.35-1.98-2.79-2.2zm5-.83h-1.37v-1.42h1.38v1.42zm2.26 3.58c0 .49-.55.7-1.08.67-.74 0-1.16-.53-1.16-1.23v-1.44h-1.39v1.48a2.44 2.44 0 0 0 2.54 2.52c1.5 0 2.2-.82 2.46-2h-1.38z" fill="#333f48"/><path d="m15 7.44v1.56h-1.45v-1.56zm-2.18 0h-1.45v1.56h1.45z" fill="#ff4700"/></svg>