<svg height="18" viewBox="0 0 18 18" width="18" xmlns="http://www.w3.org/2000/svg"><path d="m0 0h18v18h-18z" fill="#f0f3fa"/><path d="m13 10.5v2.01c0 .27-.28.49-.62.49h-6.76c-.34 0-.62-.22-.62-.49v-1.11c.3.13 1.03.3 2.48.3 2.22 0 4.13-.36 5.52-1.2z" fill="#f16700"/><path d="m5 5.6c0-.33.28-.6.62-.6h6.76a.6.6 0 0 1 .62.6v4.33a9.12 9.12 0 0 1 -4.62 1.07 6.67 6.67 0 0 1 -3.38-.85v-4.56zm2.75 2v-.46c-.1-.05-.32-.14-.67-.14-.44 0-1.08.12-1.08.64 0 .27.27.42.67.5.41.1.58.22.58.28 0 .07-.13.09-.43.09-.29 0-.74-.09-.82-.12v.46c.12.05.5.15.93.15.53-0 1.07-.1 1.07-.61v.02c.04.2.27.59.85.59.43 0 .64-.14.68-.2v-.62a.76.76 0 0 1 -.4.13c-.2 0-.34-.09-.36-.13v-1.03h.76v-.69h-.76v-.46h-.77v2.39c0-.34-.32-.47-.75-.58-.43-.12-.5-.15-.5-.26 0-.07.11-.1.27-.1.15 0 .4.07.64.13zm3.25 1.33c.55 0 1-.43 1-.96a.98.98 0 0 0 -1-.97c-.55 0-1 .43-1 .97 0 .53.45.96 1 .96zm0-.52c.22 0 .4-.2.4-.44 0-.25-.18-.44-.4-.44s-.4.2-.4.44.18.44.4.44z" fill="#666464"/></svg>