<svg height="18" viewBox="0 0 18 18" width="18" xmlns="http://www.w3.org/2000/svg"><path d="m0 0h18v18h-18z" fill="#f0f3fa"/><path d="m5.22 12c-.91 0-1.53-.11-1.97-.29l-.25-1.24h.2l.19.3a2.08 2.08 0 0 0 1.94 1.03c1.03 0 1.64-.42 1.64-1.09 0-.6-.41-.91-1.66-1.24-1.42-.38-2.12-.83-2.12-1.78.01-.96 1.12-1.69 2.48-1.69.86 0 1.36.09 1.83.24l.25 1.32h-.2l-.19-.32a1.86 1.86 0 0 0 -1.78-1.02c-.86 0-1.36.42-1.36 1s.42.9 1.59 1.2c1.55.42 2.19.9 2.19 1.85-.03 1.02-1.28 1.73-2.78 1.73zm9.78 0h-2.89v-.12l.3-.05c.28-.05.4-.13.4-.3 0-.15-.1-.32-.3-.64l-1.03-1.59-1.03 1.4c-.25.33-.35.6-.35.77s.1.3.4.35l.3.05v.13h-2.28v-.12l.15-.03c.43-.07.8-.42 1.13-.81l1.5-1.95-1.5-2.15c-.35-.5-.6-.74-.96-.8l-.2-.02v-.12h2.89v.12l-.3.05c-.25.03-.4.13-.4.3 0 .15.1.32.3.64l.9 1.36.89-1.21c.22-.32.35-.6.35-.74 0-.17-.13-.3-.4-.35l-.3-.05v-.12h2.27v.12l-.15.03c-.43.07-.8.4-1.13.81l-1.36 1.76 1.63 2.37c.36.49.6.74.96.79l.2.02v.1z" fill="#040c17"/></svg>