<svg height="18" viewBox="0 0 18 18" width="18" xmlns="http://www.w3.org/2000/svg"><path d="m0 0h18v18h-18z" fill="#f0f3fa"/><path d="m11.12 4.21c-.76.86-5.5 6.05-8.09 8.88-.1.1.05.26.15.17l8.87-8.13c.13-.12.2-.3.2-.48a.63.63 0 0 0 -.61-.65h-.04a.63.63 0 0 0 -.48.21z" fill="#e4007f"/><path d="m12.54 5.63c-.74.8-5.3 5.57-7.8 8.2-.09.09.05.23.15.14l8.54-7.49a.6.6 0 0 0 -.4-1.05h-.03a.62.62 0 0 0 -.46.2z" fill="#7fcef4"/><path d="m13.77 7.05-5.26 5.7c-.08.1.05.23.15.15l6.14-5a.59.59 0 0 0 -.4-1.04h-.03c-.17 0-.49.07-.6.2z" fill="#dadf00"/></svg>