<svg height="18" viewBox="0 0 18 18" width="18" xmlns="http://www.w3.org/2000/svg"><path d="m0 0h18v18h-18z" fill="#f0f3fa"/><g fill="#1f3c60"><path d="m10.65 7h2.2c-.02.02-1.36.58-1.75 2h-1.16l-.9 1.68a.52.52 0 0 0 -.04.19c0 .08.05.13.17.13h1.62c.23 0 .42-.2.45-.4l.1-.9c.02-.2.04-.52.1-.7 0 0 .54-1.52 1.84-1.92.18-.06.4-.08.72-.08 0-.83 0-1.67-.05-1.9-.13-.7-.3-1.35-1.45-1l-.92.27z"/><path d="m13.83 9.02c-.22 0-.48.24-.48.45l.04 1.35c-.08 1.43-1.76 2.18-3.1 2.18h-1.69c-.97-.02-1.62-.46-1.61-1.27 0-.21.05-.45.14-.71.2-.58.56-1.2.86-2.02h-1.19c.07-.35.32-1.46 1.38-2h.49c.16-.44.5-1.53.64-1.9-2.22.67-4.92 1.54-5.73 2-.6.33-.83 2.1-.22 3.9h.22c.2 0 .41-.2.46-.4l.09-1.24c.07-1.43 1.2-2.36 2.56-2.36h.81c-.33.18-1.03.75-1.25 1.97-.18.08-.25.29-.25.45v1.39c-.06.98-.79 1.77-1.7 2.19.57.63 1.38 1 2.43 1h4.4s1.74 0 2.35-1.2c.37-.9.44-2.3.51-3.8z"/></g></svg>