<svg height="18" viewBox="0 0 18 18" width="18" xmlns="http://www.w3.org/2000/svg" xmlns:xlink="http://www.w3.org/1999/xlink"><linearGradient id="a" gradientUnits="userSpaceOnUse" x1="4.95" x2="12.09" y1="5.63" y2="12.81"><stop offset="0" stop-color="#1562ae"/><stop offset=".86" stop-color="#1b294f"/></linearGradient><linearGradient id="b" gradientUnits="userSpaceOnUse" x1="9.35" x2="8.97" y1="4.5" y2="13.5"><stop offset="0" stop-color="#dfdfdf"/><stop offset=".44" stop-color="#d1d9db"/><stop offset=".58" stop-color="#5c6159"/><stop offset=".79" stop-color="#d9dcdd"/><stop offset="1" stop-color="#9e9fa9"/></linearGradient><linearGradient id="c" gradientUnits="userSpaceOnUse" x1="9.07" x2="9.07" y1="5.55" y2="12.67"><stop offset=".35" stop-color="#fff"/><stop offset="1" stop-color="#88949f"/></linearGradient><path d="m0 0h18v18h-18z" fill="#f0f3fa"/><ellipse cx="8.95" cy="9" fill="url(#a)" rx="6.76" ry="4.08"/><path d="m9 4.5a9 9 0 0 1 5.13 1.44c.97.68 1.87 1.71 1.87 3.06 0 1.58-1.22 2.72-2.4 3.4-1.39.79-3.04 1.1-4.6 1.1a8.95 8.95 0 0 1 -5.12-1.44c-.98-.68-1.88-1.7-1.88-3.06 0-1.58 1.22-2.72 2.4-3.4 1.4-.78 3.04-1.1 4.6-1.1zm-.01.48c-1.63 0-3.39.33-4.8 1.27-.9.58-1.77 1.5-1.77 2.73 0 1.43 1.2 2.44 2.25 3.02 1.32.7 2.86.98 4.32.98 1.63 0 3.38-.34 4.8-1.28.88-.58 1.76-1.5 1.76-2.72 0-1.44-1.18-2.45-2.25-3.02a9.18 9.18 0 0 0 -4.31-.98z" fill="url(#b)"/><path d="m2.84 7.98 2.68-.5.8-1.93.81 1.93 2.68.5-2.68.51-.8 1.93-.81-1.93-2.68-.49zm5.9 1.47 1.18-.23.35-.87.35.87 1.18.23-1.18.23-.35.87-.35-.87-1.19-.23zm2.44-2.32 1.18-.23.36-.87.35.87 1.18.23-1.18.23-.35.87-.36-.87zm-1.26 4.12 1.17-.22.36-.88.35.88 1.19.22-1.19.23-.35.87-.36-.87zm-3.64.32 1.18-.23.36-.87.35.87 1.19.23-1.19.22-.35.88-.36-.88zm5.95-2.15 1.18-.23.35-.87.36.87 1.18.23-1.18.22-.36.87-.35-.87z" fill="url(#c)"/></svg>