<svg height="18" viewBox="0 0 18 18" width="18" xmlns="http://www.w3.org/2000/svg"><path d="m0 0h18v18h-18z" fill="#f0f3fa"/><path d="m5 5h8v8h-8z" fill="#fbbb1e"/><path d="m6.97 9.73c-.07-.42-.31-.73-.7-.73-.49.03-.72.31-.72.84 0 .8 1 .8 1 1.36 0 .2-.12.35-.29.35-.11 0-.28-.14-.34-.5l-.45.11c.14.6.42.84.76.84.49 0 .77-.35.77-.84 0-.9-1-.94-1-1.36 0-.2.1-.31.23-.31.18 0 .26.1.35.38l.4-.14zm.53-.73v2.07c0 .64.28.93.74.93.48 0 .76-.29.76-.93v-2.07h-.5v2.07c0 .29-.04.43-.23.43-.23 0-.27-.14-.27-.43v-2.07zm3.36.73c-.06-.42-.29-.73-.66-.73-.41.03-.65.31-.65.84 0 .8.92.8.92 1.36 0 .2-.1.35-.24.35-.13 0-.29-.14-.34-.5l-.39.11c.1.6.37.84.7.84.42 0 .68-.35.68-.84 0-.9-.91-.94-.91-1.36 0-.2.08-.31.23-.31.13 0 .21.1.3.38zm1.82 0c-.08-.42-.31-.73-.68-.73-.42.03-.65.31-.65.84 0 .8.94.8.94 1.36 0 .2-.13.35-.26.35s-.26-.14-.32-.5l-.41.11c.1.6.36.84.7.84.44 0 .68-.35.68-.84 0-.9-.91-.94-.91-1.36 0-.2.07-.31.23-.31.13 0 .24.1.29.38z" fill="#00437a"/></svg>