<svg height="18" viewBox="0 0 18 18" width="18" xmlns="http://www.w3.org/2000/svg"><path d="m0 0h18v18h-18z" fill="#f0f3fa"/><path d="m11.73 4.33h-.94v.41c-.89-.6-1.79-.74-2.12-.74a3.27 3.27 0 0 0 -3.42 2.8c0 2.6 1.97 3.26 3.91 3.53 1.55.22 1.88.81 1.84 1.09 0 .87-1.11.86-1.67.91-1.7 0-2.88-1.4-3.25-2.27l-1.08.27 1.08 3.67h.92v-.85a3.4 3.4 0 0 0 2.33.85c1.53 0 3.67-.85 3.67-3.37s-2.96-3.1-4.33-3.26c-1.1-.13-1.28-.67-1.23-.92 0-.84.91-.8 1.37-.78 1.26 0 2.38 1.25 2.79 1.97l.99-.5-.86-2.8z" fill="#253770"/></svg>