<svg height="18" viewBox="0 0 18 18" width="18" xmlns="http://www.w3.org/2000/svg"><path d="m0 0h18v18h-18z" fill="#f0f3fa"/><path d="m8.98 5.55c-.04-.51-.15-.86-.42-.67-.37.25-.87 2.06-.9 3.38-1.1-2.98 0-4.64.53-4.75.46-.09 1.2.29.8 2.04zm2.52.55c.32.02.5.3.25.85.8-1.03.82-2.06.4-2.25-.55-.28-2.56.17-3.87 3.66 1.34-1.55 2.72-2.28 3.22-2.26zm-6.08.38c.05-.3.31-.42.82-.3-1.05-.56-1.82-.28-2 .18-.15.44.29 1.95 3 2.3v-.01c-1.16-.67-1.94-1.58-1.82-2.17zm1.83 2.77c-1.25.3-4.45.55-3.05-.51-.52.27-.94.6-1.11.9-.24.45-.02.94.9.92a7.56 7.56 0 0 0 3.26-1.3zm-1.83 3.25c.44.1 1.82-1.7 2.31-2.88h.01c-.54 4.53-2.11 4.61-2.42 4.3-.31-.32-.49-1.1-.26-2.15 0 .14-.02.65.36.73zm2.94-3.06c1.25 1.23 2.96 3.16 2.3 3.94-.24.29-1.05.29-1.75-.14 1.59 1.46 2.93 1.5 3.5.89.78-.82-.1-3.16-4.05-4.69zm.2-.67c2.73-1.48 5.58-1.24 6.28-.35.51.65-.25 1.8-1.84 1.87 1.49-.56.25-2-4.44-1.5v-.01z" fill="#008059"/></svg>