<svg height="18" width="18" xmlns="http://www.w3.org/2000/svg"><path d="m0 0h18v18h-18z" fill="#f0f3fa"/><path d="m12.9 10.65-1.48-.29a1.93 1.93 0 0 0 0-.6v-.04l1.49.93zm-2.97 1.25.08-.04c.13-.05.25-.1.36-.16l.29 1.26zm-2.5 1.09.2-1.15.41.14-.62 1zm-2.35-2.3 1.58-1-.03.2.02.45zm.02-3.32 1.48.35a1.65 1.65 0 0 0 -.06.6zm3.14-1.04-.53.17-.34-1.44zm2.15.12a5.12 5.12 0 0 1 -.54-.12l.84-1.19-.3 1.3zm2.52.94-1.89 1.11a.49.49 0 0 0 .14-.25v-.15l-.03-.32 1.77-.39zm-1.65 1.94a1.6 1.6 0 0 0 -.41-.46l-.28-.2 4.43-.02-1.08-.82a5.09 5.09 0 0 0 -1.32-2.38l-1.5 1.9-.05-.79 1.98-2.05-1.39.18a5.02 5.02 0 0 0 -2.64-.76l.34 2.3-.68.04v-3.27l-.77 1.06a5 5 0 0 0 -2.44 1.34l1.78 1.4c-.2.15-.33.3-.44.45l-2.23-2.32.15 1.4c-.49.78-.77 1.7-.77 2.68l2.63-.34s.25.43.46.6l.05.05-4.08.02 1.07.81a5.1 5.1 0 0 0 1.44 2.54l1.13-1.52.01.46.34.04-1.9 1.9 1.35-.18c.75.45 1.63.7 2.56.7h.15l-.28-2.02.47-.07v3l.97-1.08c1.27-.25 2.35-1.4 2.35-1.4l-1.66-1.3c.14-.15.25-.33.33-.52l2.28 2.28-.18-1.52.02-.03c.39-.71.61-1.54.61-2.42v-.05l-2.81.36z" fill="#f47e28"/><path d="m9.67 8.67c.32.16.62.35.9.57.29.22.43.5.43.84 0 .48-.2.86-.62 1.13a2.8 2.8 0 0 1 -1.57.46c-.39 0-.52-.06-.79-.15-.28-.09-.67-.2-1.02-.25v-1.37c0-.02 0-.03.04-.04a.64.64 0 0 1 .12-.02c.04 0 .07 0 .11.02.04 0 .06.02.06.04.1.4.4.74.73 1s.44.43.74.43c.33 0 .54-.1.68-.22.14-.11.21-.27.21-.47 0-.24-.14-.45-.42-.61-.29-.17-.6-.33-.92-.5a5.02 5.02 0 0 1 -.92-.56.99.99 0 0 1 -.43-.8c0-.43.2-.78.58-1.07s.91-.43 1.58-.43c.3 0 .56.03.78.09.21.06.48.1.73.15v1.26a.58.58 0 0 1 -.24 0c-.03 0-.06-.02-.07-.03-.1-.36-.26-.63-.46-.84-.2-.2-.45-.3-.75-.3a.98.98 0 0 0 -.6.17.52.52 0 0 0 -.22.43c0 .23.13.42.4.58l.94.5z" fill="#13377d"/></svg>