<svg height="18" viewBox="0 0 18 18" width="18" xmlns="http://www.w3.org/2000/svg"><path d="m0 0h18v18h-18z" fill="#f0f3fa"/><path d="m11.01 4.33h1.13c.96-.03 1.55.51 1.53 1.47v1.2c0 .03 0 .06.02.08.3.34.52.67.84 1 .48.5.68 1.09.19 1.63-.38.42-.67.82-1.03 1.21-.02.03-.02.05-.02.09v1.25c.03.9-.6 1.45-1.47 1.42h-1.2a.1.1 0 0 0 -.07.02c-.36.32-.72.56-1.07.9-.54.52-1.13.56-1.68.04-.38-.36-.75-.62-1.1-.94-.03-.02-.05-.02-.08-.02h-1.22c-.57.01-1.12-.24-1.34-.76a2.24 2.24 0 0 1 -.1-.94v-.98a.12.12 0 0 0 -.04-.08c-.3-.35-.55-.7-.9-1.07-.5-.53-.55-1.13-.03-1.67.34-.36.6-.73.94-1.1.02-.03.02-.05.02-.08v-1.2c-.03-.84.49-1.49 1.35-1.47h1.32c.03 0 .05-.02.07-.04.34-.3.68-.5 1-.82.56-.54 1.14-.66 1.73-.11.38.35.75.6 1.1.92.04.03.07.05.11.05z" fill="#f8b600"/><path d="m7.17 8.67a.5.5 0 1 0 0-1 .5.5 0 0 0 0 1zm3.66 0a.5.5 0 1 0 0-1 .5.5 0 0 0 0 1z" fill="#111"/><path d="m10.8 9.67c.57.08.98.3 1.18.79.23.57-.1 1.2-.73 1.44-.2.07-.43.1-.7.1h-3.13c-1.82.01-2-2.12-.24-2.33.05 0 .07-.03.08-.07.4-1.7 3.05-1.68 3.47.01 0 .04.03.06.07.06z" fill="#fff"/><path d="m8.6 10.92c-.26-.19-.5-.36-.69-.52-.08-.07-.1-.15-.07-.25a.23.23 0 0 1 .22-.15h2.08c.09 0 .16.04.21.11a.22.22 0 0 1 -.05.3c-.26.2-.53.4-.8.56-.28.19-.62.13-.9-.05z" fill="#111"/></svg>