<svg height="18" width="18" xmlns="http://www.w3.org/2000/svg"><path d="m0 0h18v18h-18z" fill="#f0f3fa"/><path d="m5.79 6c.98.02 2.09.18 2.5.25v1.56c-.42-.04-1.46-.15-1.96-.17-.61-.03-.94.02-.95.17 0 .12.2.19.3.2l1.2.24c.81.22 1.58.37 1.62 1.77s-1.08 2.02-2.71 1.98a14.1 14.1 0 0 1 -2.79-.34v-1.5c.64.1 1.81.16 2.23.18.3.02.92 0 .94-.19s-.8-.3-1.21-.33c-.66-.04-2.01-.35-1.96-1.84.07-1.86 1.56-2 2.79-1.98zm6.81 0h-3.1v2.56l5.47-.75c0-1.51-1.46-1.81-2.36-1.81z"/><path d="m9.5 9.04v2.96h2.19v-1.5h.56l.38 1.5h2.3l-.64-2c.63-.5.73-1.33.7-1.68-.53.02-1.78.08-2.52.16-.73.08-2.29.4-2.97.56z" fill="#5b6065"/><path d="m11.27 8.16c-.5.08-1.39.24-1.77.32v.63l1.77-.35-.9.83 1.39-.83-.07.23.25-.11-.06 1.2.35-1.2.16.26.07-.29.49.5-.27-.63.3.1-.07-.24 1.44.5-1.1-.6c.17-.03 1.24-.11 1.74-.16 0 0 .01-.38-.02-.65l-1.89.22.92-.84-1.28.8.05-.25-.26.14.08-.9-.36.85-.17-.27-.05.27-1.35-1.59 1.1 1.71h-.27l.09.23-1.54-.35z" fill="#fdd038"/></svg>