<svg height="18" viewBox="0 0 18 18" width="18" xmlns="http://www.w3.org/2000/svg"><path d="m0 0h18v18h-18z" fill="#f0f3fa"/><path d="m4.29 5.49 2.8 1.86.19-.2-2.85-1.88a.13.13 0 1 0 -.14.22zm3.57.89.07.34.25-.1-.07-.34-.6-2.96a.13.13 0 0 0 -.13-.11h-.03a.13.13 0 0 0 -.1.15zm-4.08-.13 2.1 1.39.75.5.1-.24-1.27-.85-1.54-1.02a.13.13 0 0 0 -.13 0 .13.13 0 0 0 -.04.04.13.13 0 0 0 .03.18zm5.04.24h.27l-.7-3.36a.13.13 0 0 0 -.05-.08.13.13 0 0 0 -.2.13l.68 3.3zm2.55 1.69 3.3-.67a.13.13 0 0 0 .1-.13v-.04a.13.13 0 0 0 -.15-.08l-3.34.68.1.24zm-4.88.99v-.26l-2.23.46-1.13.22a.13.13 0 0 0 -.09.2h.01l.03.03.04.02h.07l1.62-.33zm4.34-1.89 1.89-2.85a.13.13 0 0 0 0-.14.13.13 0 0 0 -.04-.04.13.13 0 0 0 -.13 0 .13.13 0 0 0 -.05.04l-1.86 2.81.2.18zm-.73-.54 1.86-2.82a.13.13 0 0 0 .02-.07.13.13 0 0 0 -.1-.12.13.13 0 0 0 -.14.05l-1.74 2.64-.14.21.25.1zm-.04 4.54a2.4 2.4 0 0 1 -.25.1l.68 3.3a.13.13 0 0 0 .12.1h.03a.13.13 0 0 0 .1-.14zm3.64 1.23-2.81-1.86-.18.19.82.55 2.03 1.34.03.01h.1l.02-.01v-.01l.03-.02a.13.13 0 0 0 .02-.08.13.13 0 0 0 -.06-.1zm.5-.76-2.84-1.88a2.5 2.5 0 0 1 -.1.24l2.8 1.86.04.01a.2.2 0 0 0 .07 0h.03l.02-.02.02-.02a.13.13 0 0 0 -.03-.19zm-7.58-1.93-3.3.67a.13.13 0 0 0 -.09.2l.02.03h.01l.03.02h.07l3.35-.68a2.5 2.5 0 0 1 -.1-.24zm8.34-1.57v-.02a.13.13 0 0 0 -.1-.07h-.05l-3.3.67v.26l3.35-.68a.13.13 0 0 0 .1-.13zm-5.79 3.26h-.27l.68 3.36a.13.13 0 0 0 .13.1h.02a.13.13 0 0 0 .1-.15l-.67-3.31zm-2.01-.79-1.9 2.85a.13.13 0 0 0 .05.18l.03.01h.1l.01-.01.02-.01.03-.03 1.86-2.82a1.99 1.99 0 0 1 -.2-.17zm.74.54-1.87 2.82a.13.13 0 0 0 .04.18.1.1 0 0 0 .03.01h.1l.02-.02.02-.03 1.9-2.85a2.42 2.42 0 0 1 -.25-.1z" fill="#ebf53d"/><path d="m7.87 6.75c.08-.04.16-.08.24-.1l-1.9-2.85a.13.13 0 0 0 -.22 0 .13.13 0 0 0 0 .15zm-4.57.81 3.31.64.1-.24-3.36-.66h-.02a.13.13 0 0 0 -.03.26zm3.84-.26.19-.19-1.89-2.8a.13.13 0 0 0 -.23.06.13.13 0 0 0 .02.1zm2.9-.6.65-3.35v-.03a.13.13 0 0 0 -.26-.02l-.63 3.31.25.1zm-1.04-.22h.15l.13-.68.51-2.62v-.03a.13.13 0 0 0 -.25-.02l-.42 2.16-.24 1.2h.12zm2.35 1.64 2.83-1.92a.13.13 0 0 0 -.04-.23c-.04 0-.07 0-.1.02l-2.8 1.88zm-.47-.79 2.8-1.89a.13.13 0 0 0 .04-.15l-.01-.02a.13.13 0 0 0 -.18-.04l-2.83 1.91.18.2zm-4.4 1.67v-.15l-3.3-.65a.13.13 0 0 0 -.15.08v.02a.13.13 0 0 0 .1.15l3.35.66zm4.37 1.7-.19.19 1.89 2.8.02.02.02.01.03.02h.07l.03-.02a.13.13 0 0 0 .04-.18zm3.84-.26-3.31-.64a2.5 2.5 0 0 1 -.1.24l3.36.66h.02l.04-.01.04-.02.03-.03.02-.05a.13.13 0 0 0 -.1-.15zm-4.57.81c-.08.04-.16.08-.24.1l1.9 2.84.03.03.02.01.03.02h.07l.04-.02a.13.13 0 0 0 .03-.18zm4.74-1.71-3.35-.65v.26l3.3.64h.06l.04-.02a.1.1 0 0 0 .03-.03l.02-.05a.13.13 0 0 0 -.1-.15zm-5.86 1.98h-.16l-.64 3.3a.13.13 0 0 0 .1.16h.03c.03 0 .05-.01.08-.03a.13.13 0 0 0 .04-.08l.65-3.36h-.1zm-1.89-.85-2.8 1.88a.13.13 0 0 0 0 .2v.01a.1.1 0 0 0 .03.02h.09l.03-.01 2.84-1.92a2.52 2.52 0 0 1 -.19-.18zm-.47-.79-2.84 1.92a.13.13 0 0 0 -.06.09.13.13 0 0 0 .04.12l.02.01h.01l.02.01h.07a.1.1 0 0 0 .04-.01l2.8-1.9a2.63 2.63 0 0 1 -.11-.23zm1.31 1.41-.65 3.36a.13.13 0 0 0 .1.15h.03a.13.13 0 0 0 .12-.1l.65-3.31a2.43 2.43 0 0 1 -.25-.1z" fill="#03ffff"/><path d="m9.64 6.57.75-1.8.54-1.32a.13.13 0 1 0 -.23-.1l-.57 1.37-.74 1.8zm-1.3 0 .26-.06-1.3-3.16a.13.13 0 1 0 -.25.1l1.3 3.12zm-4.64-.12 3.12 1.3.14-.23-3.16-1.3a.13.13 0 0 0 -.18.11.13.13 0 0 0 .08.12zm6.77.51 1.31-3.16a.13.13 0 0 0 -.17-.16.13.13 0 0 0 -.07.06l-1.29 3.12zm1.01 1.64 3.16-1.3a.13.13 0 0 0 -.1-.24l-3.12 1.29.06.26zm-8.12-1.3 3.14 1.3c.02-.08.03-.17.06-.25l-3.12-1.3a.13.13 0 0 0 -.18.1.13.13 0 0 0 .09.15zm7.81.44 3.12-1.3a.13.13 0 0 0 -.1-.23l-3.16 1.31zm-3.65-.78.22-.14-1.3-3.12a.13.13 0 1 0 -.23.1l1.3 3.16zm2.58 5.58-.45-1.1-.26.05.6 1.45.71 1.7.02.04a.13.13 0 0 0 .1.05l.05-.01a.13.13 0 0 0 .07-.17zm4.18-.99-3.11-1.3-.14.23 3.15 1.3.03.01h.06l.03-.02s.02 0 .02-.02l.03-.03a.13.13 0 0 0 -.07-.17zm-7.77-2.15-3.15 1.3a.13.13 0 0 0 -.07.17c0 .01 0 .02.02.03 0 .02.02.02.03.03l.02.01h.1l3.11-1.3a2.57 2.57 0 0 1 -.06-.25zm8.12 1.3-3.15-1.3a2.4 2.4 0 0 1 -.06.25l3.12 1.3h.08l.04-.02.02-.02.03-.03a.13.13 0 0 0 -.08-.17zm-4.16.34-.22.14 1.3 3.12.01.03.03.03.03.01h.09a.13.13 0 0 0 .07-.17l-1.3-3.16zm-3.65-.78-3.12 1.3a.13.13 0 0 0 -.05.2l.03.02.03.01h.09l3.16-1.3zm.7.78-1.32 3.16a.13.13 0 0 0 .24.1l1.29-3.12-.22-.14zm.82.39-1.29 3.12a.13.13 0 0 0 .07.17h.09l.03-.01.03-.02v-.01l.02-.03 1.31-3.16a2.37 2.37 0 0 1 -.26-.06z" fill="#00f003"/><path d="m8.67 6.5v-3.37a.13.13 0 1 0 -.26 0v3.42zm-5.54 2.17h3.37l.05-.26h-3.42a.13.13 0 1 0 0 .26zm3.72-.99.15-.21-2.38-2.39a.13.13 0 0 0 -.19.18zm.61-.68.22-.15-2.42-2.42a.13.13 0 0 0 -.18.19zm3.53.47.15.21 1.37-1.37 1.05-1.05a.13.13 0 0 0 -.02-.2.13.13 0 0 0 -.17.02l-1.2 1.2-1.17 1.19zm-1.41-.92v-3.42a.13.13 0 0 0 -.26 0v3.37zm.94.45.31-.3 2.08-2.08a.13.13 0 0 0 .04-.1.13.13 0 0 0 -.13-.13.13.13 0 0 0 -.1.04l-1.78 1.8-.63.62zm.97 1.67h3.37a.13.13 0 0 0 0-.26h-3.42zm.28 2.27-.63-.63-.15.22 2.38 2.39a.13.13 0 0 0 .22-.04.13.13 0 0 0 -.04-.15zm-.54.76-.7-.7-.22.15 1.37 1.37 1.04 1.05a.13.13 0 0 0 .19 0 .13.13 0 0 0 0-.19zm-1.91-.2v3.37a.13.13 0 0 0 .13.13.13.13 0 0 0 .13-.13v-3.42l-.26.04zm-2.82-2.17h-3.37a.13.13 0 0 0 -.13.13.13.13 0 0 0 .13.13h3.42a2.62 2.62 0 0 1 -.05-.26zm8.36 0h-3.37a2.4 2.4 0 0 1 -.05.26h3.42a.13.13 0 1 0 0-.26zm-8.01.98-2.42 2.42a.13.13 0 0 0 0 .19l.06.03a.13.13 0 0 0 .13-.03l2.38-2.39zm1.55 1.14v3.42a.13.13 0 1 0 .27 0v-3.37a2.43 2.43 0 0 1 -.26-.04zm-.94-.45-2.38 2.38a.13.13 0 1 0 .18.18l2.42-2.41z" fill="#61ffb0"/></svg>