<svg height="18" viewBox="0 0 18 18" width="18" xmlns="http://www.w3.org/2000/svg"><path d="m0 0h18v18h-18z" fill="#f0f3fa"/><g fill="#de2535"><path d="m14 5-.31.92h-4.82c-.33 0-.83.32-1.12.62a1.98 1.98 0 0 1 1.7-1.54zm-10 8 .31-.92h4.82c.33 0 .83-.32 1.12-.62a1.98 1.98 0 0 1 -1.7 1.54z"/><path d="m13.69 6.23-.31.92h-4.84c-.33 0-.82.32-1.11.62a1.98 1.98 0 0 1 1.7-1.54h4.55zm-9.38 5.54.32-.92h4.82c.33 0 .82-.32 1.11-.62a1.98 1.98 0 0 1 -1.7 1.54h-4.54z"/><path d="m13.38 7.46-.32.92h-4.82c-.33 0-.82.32-1.12.62a1.98 1.98 0 0 1 1.7-1.54h4.55zm-8.75 3.08.3-.92h4.83c.33 0 .82-.32 1.12-.62a1.98 1.98 0 0 1 -1.7 1.54z"/></g></svg>