<svg height="18" viewBox="0 0 18 18" width="18" xmlns="http://www.w3.org/2000/svg"><path d="m0 0h18v18h-18z" fill="#5bc2dc"/><path d="m12 6.61c-.5-.5-1.32-.79-2.26-.79-.67 0-1.48.11-1.48.93 0 .61.67.9 1.68 1.29 1.18.46 2.56 1.07 2.56 2.82 0 2.78-2.8 3.14-4.1 3.14-.75 0-1.55-.07-2.16-.25-.6-.18-.74-.46-.74-1.32v-1.03c.68.5 1.75.74 2.63.74 1.07 0 1.61-.32 1.61-1.03 0-.68-.57-.93-2.09-1.54-1.04-.43-2.15-1-2.15-2.6 0-2.37 2.52-2.97 4.04-2.97.9 0 1.65.18 2.12.4.4.21.34.46.34 1.03z" fill="#fff"/></svg>