<svg height="18" viewBox="0 0 18 18" width="18" xmlns="http://www.w3.org/2000/svg" xmlns:xlink="http://www.w3.org/1999/xlink"><linearGradient id="a" gradientUnits="userSpaceOnUse" x1="5.25" x2="6.18" y1="6.57" y2="10.97"><stop offset=".07" stop-color="#fee5be"/><stop offset=".32" stop-color="#faa81b"/><stop offset="1" stop-color="#d4882e"/></linearGradient><linearGradient id="b" gradientUnits="userSpaceOnUse" x1="8.15" x2="2.53" y1="5.43" y2="12.52"><stop offset="0" stop-color="#b7a789"/><stop offset="1" stop-color="#cf9134"/></linearGradient><linearGradient id="c" gradientUnits="userSpaceOnUse" x1="7.64" x2="10.32" y1="6.41" y2="11.39"><stop offset=".07" stop-color="#1d4175" stop-opacity="0"/><stop offset=".4" stop-color="#134887"/><stop offset=".93" stop-color="#161447"/></linearGradient><linearGradient id="d" gradientUnits="userSpaceOnUse" x1="11.73" x2="5.25" y1="5.76" y2="12.57"><stop offset="0" stop-color="#4a6d85"/><stop offset="1" stop-color="#0e1839"/></linearGradient><linearGradient id="e" gradientUnits="userSpaceOnUse" x1="10.53" x2="13.53" y1="5.92" y2="11.88"><stop offset=".21" stop-color="#ffd0c3"/><stop offset=".43" stop-color="#f03029"/><stop offset="1" stop-color="#a91b1d"/></linearGradient><linearGradient id="f" gradientUnits="userSpaceOnUse" x1="11.65" x2="11.65" y1="6" y2="12"><stop offset="0" stop-color="#ad5351"/><stop offset="1" stop-color="#ae1b1e"/></linearGradient><path d="m0 0h18v18h-18z" fill="#f0f3fa"/><path d="m2.18 11.92h.87a1 1 0 0 0 .64-.33l4.68-5.5h-.87a1 1 0 0 0 -.64.32l-4.68 5.5z" fill="url(#a)"/><path d="m7.13 6.1c.12-.06.26-.1.37-.1h1.05l-4.8 5.64c-.08.1-.2.2-.33.25a.87.87 0 0 1 -.37.11h-1.05l4.8-5.64c.08-.1.2-.2.33-.25zm-.2.36-4.57 5.38h.69a.7.7 0 0 0 .3-.09c.1-.05.2-.13.27-.21l4.58-5.38h-.7a.7.7 0 0 0 -.29.09.95.95 0 0 0 -.28.21z" fill="url(#b)"/><path d="m4.53 11.92h1.53a1 1 0 0 0 .64-.33l4.63-5.5h-1.53a1 1 0 0 0 -.64.32c-.02 0-4.63 5.5-4.63 5.5z" fill="url(#c)"/><path d="m9.43 6.1c.12-.06.26-.1.37-.1h1.7l-4.73 5.64c-.1.1-.22.2-.34.25a.87.87 0 0 1 -.37.11h-1.71l.11-.13.07.05-.07-.05.72-.86a4729.9 4729.9 0 0 1 3.92-4.65c.09-.1.2-.2.33-.25zm-4.73 5.75h1.36a.7.7 0 0 0 .29-.09c.1-.05.21-.13.28-.21l4.52-5.38h-1.35a.7.7 0 0 0 -.29.09.95.95 0 0 0 -.28.21l-.03.03a6.68 6.68 0 0 0 -.18.21 260.4 260.4 0 0 0 -2.12 2.51l-1.58 1.88-.62.73z" fill="url(#d)"/><path d="m7.47 11.92h2.96c.2 0 .5-.15.64-.33l4.75-5.5h-2.96c-.2 0-.5.14-.64.32l-4.75 5.5z" fill="url(#e)"/><path d="m12.48 6.1a.9.9 0 0 1 .38-.1h3.14l-4.86 5.64c-.08.1-.2.2-.33.25a.9.9 0 0 1 -.38.11h-3.13l4.86-5.64c.08-.1.2-.2.33-.25zm.08.15a.82.82 0 0 0 -.27.21l-4.64 5.38h2.78c.08 0 .19-.03.3-.09a.82.82 0 0 0 .28-.21l4.63-5.38h-2.78a.73.73 0 0 0 -.3.09z" fill="url(#f)"/></svg>