<svg height="18" viewBox="0 0 18 18" width="18" xmlns="http://www.w3.org/2000/svg"><path d="m0 0h18v18h-18z" fill="#f0f3fa"/><g fill="#871625"><circle cx="13.24" cy="5.7" r=".96"/><circle cx="11.46" cy="4.35" r=".93"/><circle cx="9.5" cy="3.81" r=".81"/></g><circle cx="7.44" cy="3.96" fill="#a33f2f" r=".75"/><circle cx="5.47" cy="5.03" fill="#c06134" r=".69"/><circle cx="4.22" cy="6.79" fill="#df813a" r=".64"/><circle cx="3.59" cy="8.8" fill="#f59a3e" r=".59"/><circle cx="3.9" cy="10.91" fill="#f39d3e" r=".55"/><circle cx="4.9" cy="12.71" fill="#f89b3c" r=".5"/><circle cx="6.64" cy="14.01" fill="#f89b3c" r=".45"/><circle cx="8.68" cy="14.6" fill="#f89b3c" r=".4"/><circle cx="10.78" cy="14.36" fill="#d77839" r=".35"/><circle cx="12.63" cy="13.23" fill="#b45530" r=".3"/><path d="m9 12a3 3 0 0 0 2.8-4.07 1.4 1.4 0 1 1 -1.27-1.51 3 3 0 1 0 -1.53 5.58z" fill="#bbbcbe"/></svg>