<svg height="18" width="18" xmlns="http://www.w3.org/2000/svg"><path d="m0 0h18v18h-18z" fill="#102668"/><circle cx="9" cy="9" fill="#dbdd58" r="5"/><circle cx="9.567" cy="8.021" fill="#102668" r="3.918"/><g fill="#dbdd58"><path d="m12.041 8.628c-.427.343-.99.55-1.606.55-1.336 0-2.419-.976-2.419-2.182 0-.556.231-1.064.61-1.45-.497.4-.811.983-.811 1.632 0 1.206 1.083 2.183 2.418 2.183.72 0 1.365-.283 1.808-.733z"/><path d="m12.48 8.74a2.887 2.887 0 0 1 -4.797-3.192 2.887 2.887 0 1 0 4.797 3.192z"/><path d="m12.902 9.21a3.449 3.449 0 0 1 -2.768 1.388c-1.907 0-3.366-1.337-3.366-3.244 0-.641.175-1.242.48-1.756a3.438 3.438 0 0 0 -.686 2.065c0 1.907 1.459 3.244 3.366 3.244a3.452 3.452 0 0 0 2.974-1.698z"/><path d="m12.653 10.015a3.608 3.608 0 1 1 -5.081-5.081 3.66 3.66 0 1 0 5.081 5.081z"/></g></svg>