<svg height="18" width="18" xmlns="http://www.w3.org/2000/svg"><path d="m0 0h18v18h-18z" fill="#f0f3fa"/><path d="m2 7.14c0-.08.06-.14.14-.14h3.72c.08 0 .14.06.14.14v3.72c0 .08-.06.14-.14.14h-3.72a.14.14 0 0 1 -.14-.14z" fill="#009de1" opacity=".8"/><path d="m7 7.14c0-.08.06-.14.14-.14h3.72c.08 0 .14.06.14.14v3.72c0 .08-.06.14-.14.14h-3.72a.14.14 0 0 1 -.14-.14z" fill="#f5a200" opacity=".8"/><path d="m12 7.14c0-.08.06-.14.14-.14h3.72c.08 0 .14.06.14.14v3.72c0 .08-.06.14-.14.14h-3.72a.14.14 0 0 1 -.14-.14z" fill="#e75291" opacity=".8"/><path d="m3 8h2v2h-2zm5 0h2v2h-2zm5 0h2v2h-2z" fill="#dfdfdf"/></svg>