<svg height="18" width="18" xmlns="http://www.w3.org/2000/svg"><path d="m0 9a9 9 0 1 1 18 0 9 9 0 0 1 -18 0z" fill="#f0f3fa"/><path d="m6.06 6.23c.31-1.32 1.56-2.24 3.15-2.23 1.14 0 2.4.38 3.18.98l-1.2 1.62a3.72 3.72 0 0 0 -2-.58c-.82 0-1.13.43-1.2.68a.55.55 0 0 0 .08.42c.09.15.28.35.69.5l.46.15c.44.14.99.32 1.43.54.69.34 1.42.9 1.72 1.91.3 1 .13 2.22-.9 3.03-.83.66-1.97.83-3 .72a5 5 0 0 1 -2.97-1.4l1.41-1.42c.43.43 1.1.72 1.78.8.72.09 1.28-.07 1.56-.3.23-.18.32-.46.2-.85-.07-.26-.25-.46-.67-.67a6.13 6.13 0 0 0 -.99-.37l-.7-.24c-1.56-.57-2.36-1.91-2.03-3.29z" fill="#00b7f0"/><path d="m12.04 9.49c.13.21.25.46.33.73.3 1 .13 2.22-.9 3.03-.83.66-1.97.83-3 .72a5 5 0 0 1 -2.97-1.4l1.41-1.42c.43.43 1.1.72 1.78.8.72.09 1.28-.07 1.56-.3.23-.18.32-.46.2-.85-.07-.26-.25-.46-.67-.67a4.7 4.7 0 0 0 -.5-.2c.9-.16 1.82-.3 2.76-.44z" fill="#164989"/></svg>