<svg height="18" viewBox="0 0 18 18" width="18" xmlns="http://www.w3.org/2000/svg"><path d="m0 0h18v18h-18z" fill="#f0f3fa"/><g fill="#a68858"><path d="m4.4 4.4v9.2h9.2v-9.2zm-.29 9.6h9.78c.06 0 .11-.05.11-.11v-9.78a.11.11 0 0 0 -.11-.11h-9.78a.11.11 0 0 0 -.11.11v9.78c0 .06.05.11.11.11z" fill-rule="evenodd"/><path d="m8.86 6.39c.08.07.1.2.03.28l-2.02 2.55 3.56-.77a.2.2 0 0 1 .17.35l-6.25 5.13a.2.2 0 0 1 -.25-.3l5.6-4.63-3.3.72a.2.2 0 0 1 -.2-.32l2.38-2.99a.2.2 0 0 1 .28-.03z"/><path d="m10.32 8.56a.2.2 0 0 1 .28-.03l1.74 1.43c.08.07.1.18.04.27l-1.2 1.83a.2.2 0 0 1 -.22.08l-2.9-.72 1.64 2.26a.2.2 0 0 1 -.33.24l-1.96-2.7a.2.2 0 0 1 .2-.32l3.31.82 1.03-1.56-1.6-1.32a.2.2 0 0 1 -.03-.28z"/><path d="m8.71 6.42a.1.1 0 0 1 .14.02l1.75 2.14a.1.1 0 1 1 -.16.13l-1.74-2.15a.1.1 0 0 1 .01-.14zm3.55 3.65a.1.1 0 0 1 .14.05l1.56 3.66a.1.1 0 1 1 -.19.08l-1.56-3.66a.1.1 0 0 1 .05-.13zm-1.27 1.68a.2.2 0 0 1 .22.17l.22 1.86a.2.2 0 1 1 -.4.04l-.22-1.85a.2.2 0 0 1 .18-.22z"/><path d="m10.97 11.94a.1.1 0 0 1 .14-.03l2.81 1.87a.1.1 0 0 1 -.1.17l-2.82-1.88a.1.1 0 0 1 -.03-.13zm-4.67-2.48a.1.1 0 0 1 .15.02l1.11 1.51a.1.1 0 0 1 -.16.12l-1.1-1.51a.1.1 0 0 1 .02-.14z"/><path d="m6.43 9.46c.04.04.05.1.01.14l-1.14 1.33.5 1.68 1.85 1.2a.1.1 0 1 1 -.1.17l-1.9-1.22a.1.1 0 0 1 -.04-.05l-.43-1.48-.85 2.45a.1.1 0 0 1 -.2-.07l.96-2.74a.1.1 0 0 1 .02-.03l1.2-1.37a.1.1 0 0 1 .13-.01z"/></g></svg>