<svg height="18" viewBox="0 0 18 18" width="18" xmlns="http://www.w3.org/2000/svg"><path d="m0 0h18v18h-18z" fill="#38bdef"/><path d="m11.44 5.79a3.45 3.45 0 0 0 -2.24-.79c-1.02 0-1.71.55-1.71 1.36 0 .68.43.96 1.92 1.74a7.5 7.5 0 0 1 1.83 1.15c.42.4.72 1.06.76 1.68.03.7-.18 1.42-.65 1.99-.76.9-1.83 1.05-2.86 1.07a7.02 7.02 0 0 1 -2.49-.44v-1.68a3.88 3.88 0 0 0 2.73 1.01c1.1 0 1.87-.75 1.87-1.58 0-.38-.13-.76-.43-1.04s-.62-.47-1.66-1a6 6 0 0 1 -1.8-1.12 2.19 2.19 0 0 1 -.67-1.58c-0-1.56 1.26-2.56 3.23-2.56.68 0 1.47.18 2.17.4v1.4z" fill="#fff"/></svg>