<svg height="18" viewBox="0 0 18 18" width="18" xmlns="http://www.w3.org/2000/svg"><path d="m0 0h18v18h-18z" fill="#f0f3fa"/><path d="m10.2 9.86c0 .43-.4 1.28-1.2 1.28-4.25 0-3.6-5.75-1.6-8.14-.8.57-2.4 2.4-2.4 5.14 0 3.43 2.8 4.29 4 4.29s2.4-.86 2.4-2.57c0-1.37-1.6-1.72-2.4-1.72 1.2.43 1.2 1.37 1.2 1.72z" fill="#a5cf4d"/><path d="m7.8 8.14c0-.43.4-1.28 1.2-1.28 4.25 0 3.61 5.75 1.6 8.14.8-.57 2.4-2.4 2.4-5.14 0-3.43-2.8-4.29-4-4.29s-2.4.86-2.4 2.57c0 1.37 1.6 1.72 2.4 1.72-1.2-.43-1.2-1.37-1.2-1.72z" fill="#009de1"/></svg>