<svg height="18" width="18" xmlns="http://www.w3.org/2000/svg"><path d="m0 0h18v18h-18z" fill="#e52126"/><path d="m8.888 14.002c1.878 0 3.112-1.57 3.112-3.367 0-1.66-1.221-2.141-2.543-2.576-1.395-.459-2.211-.759-2.211-1.817 0-.893.59-1.472 1.663-1.472 1.074 0 1.694.474 2.091 1.778h1v-1.999c-.612-.301-2.006-.549-3.037-.549-1.793 0-2.963 1.05-2.963 2.762s1.3 2.225 2.62 2.66c1.37.445 2.157 1.212 2.157 2.251 0 1.004-.623 1.595-1.815 1.595-1.245 0-1.542-.786-1.962-2.268h-1v2.32c.57.356 1.697.684 2.888.684" fill="#f6f8fd"/></svg>