<svg height="18" viewBox="0 0 18 18" width="18" xmlns="http://www.w3.org/2000/svg" xmlns:xlink="http://www.w3.org/1999/xlink"><linearGradient id="a" gradientUnits="userSpaceOnUse" x1="9" x2="9" y1="8.8" y2="15"><stop offset="0" stop-color="#eae8e8"/><stop offset=".53" stop-color="#bfbfbf"/></linearGradient><linearGradient id="b" gradientUnits="userSpaceOnUse" x1="5" x2="5" y1="5" y2="9"><stop offset="0" stop-color="#dadada"/><stop offset=".5" stop-color="#ababab"/><stop offset="1" stop-color="#bbb"/></linearGradient><linearGradient id="c" gradientUnits="userSpaceOnUse" x1="10" x2="10" y1="4" y2="12"><stop offset="0" stop-color="#92baca"/><stop offset="1" stop-color="#068dc4"/></linearGradient><path d="m0 0h18v18h-18z" fill="#f0f3fa"/><path d="m11.96 11.37c-.58.34-1.25.53-1.96.53a3.97 3.97 0 0 1 -3.37-1.9c-.4.53-.63 1.19-.63 1.9 0 1.71 1.34 3.1 3 3.1a3.05 3.05 0 0 0 2.96-3.63z" fill="url(#a)"/><path d="m6.63 5.84a2 2 0 1 0 -.57 2.86 4.03 4.03 0 0 1 .57-2.86z" fill="url(#b)"/><circle cx="10" cy="8" fill="url(#c)" r="4"/></svg>