<svg height="18" viewBox="0 0 18 18" width="18" xmlns="http://www.w3.org/2000/svg"><path d="m0 0h18v18h-18z" fill="#f0f3fa"/><path d="m12.53 5.44a4.88 4.88 0 0 0 -3.23-1.44.25.25 0 0 0 -.2.2l-.1.32-.08-.3a.26.26 0 0 0 -.27-.22 5.05 5.05 0 0 0 -4.65 4.64c0 .11.09.24.2.27l.33.09-.33.1c-.11.03-.2.14-.2.26.1 1.25.64 2.37 1.47 3.2a4.92 4.92 0 0 0 3.16 1.44c.12.01.25-.06.28-.2l.09-.32.09.3c.01.12.13.23.26.22a4.89 4.89 0 0 0 3.18-1.44 4.84 4.84 0 0 0 1.47-3.2.27.27 0 0 0 -.2-.26l-.34-.1.37-.1c.1-.04.16-.12.17-.21 0-1.2-.7-2.48-1.47-3.25zm-4.18 2.54.38-2.5c0 1.05.02 2 .01 2.88l-.4-.38zm-.39 1.7-2.53-.41h2.93l-.4.42zm.77 2.88-.4-2.52.42-.4zm.92-2.54-.38 2.5-.01-2.88.4.38zm2.92-.75-2.52.42-.4-.42zm-2.53-.96 2.55.42-2.95.01zm-.76-2.86.38 2.52-.4.39zm-3.86 3.29 2.93-.01-.39-.41zm.4-2.94a4.37 4.37 0 0 1 2.54-1.26l-.53 3.28-3.29.54c.15-1 .61-1.88 1.28-2.56zm4.35 2.02-.53-3.28c.98.13 1.86.59 2.54 1.26a4.55 4.55 0 0 1 1.28 2.56l-3.3-.54zm-4.35 4.38a4.55 4.55 0 0 1 -1.28-2.55l3.3.54.52 3.27a4.37 4.37 0 0 1 -2.54-1.26zm3.82 1.26.53-3.27 3.29-.54c-.15.99-.61 1.87-1.28 2.55a4.37 4.37 0 0 1 -2.54 1.26z" fill="#ce1141" fill-rule="evenodd"/></svg>