<svg height="18" width="18" xmlns="http://www.w3.org/2000/svg" xmlns:xlink="http://www.w3.org/1999/xlink"><linearGradient id="a" gradientUnits="userSpaceOnUse" x1="15.97" x2="-2.31" y1="9.41" y2="9.81"><stop offset=".36" stop-color="#002d73"/><stop offset=".75" stop-color="#002d73" stop-opacity=".59"/></linearGradient><linearGradient id="b" gradientUnits="userSpaceOnUse" x1="14.13" x2="3.06" y1="5.87" y2="12.94"><stop offset=".31" stop-color="#019bd7"/><stop offset=".87" stop-color="#019bd7" stop-opacity=".27"/></linearGradient><path d="m0 0h18v18h-18z" fill="#f0f3fa"/><path d="m9.4 8.34c-.8-1-1.88-2.26-3.75-2.34-1.6 0-3.1.97-3.65 2.82.16-.13.34-.3.51-.48l.13-.13c.23-.23.47-.45.76-.66.55-.4 1.24-.73 2.19-.7 1.25.06 2.09.92 2.93 1.97.16.21.34.5.54.83.39.63.84 1.36 1.36 1.74.48.38 1.1.61 1.8.61 1.52 0 2.78-1.18 2.78-2.6h-1c0 .85-.73 1.6-1.79 1.6-1.48 0-2-1.64-2.81-2.66z" fill="url(#a)"/><path d="m14 9.4c0-.92-.6-1.97-1.79-1.97-1.03 0-1.33.52-2.52 1.85-1.39 1.56-2.66 2.9-4.9 3.66a12.8 12.8 0 0 0 4.08-3.94 15.36 15.36 0 0 1 1.4-1.71 2.8 2.8 0 0 1 1.94-.8c1.86.01 2.79 1.38 2.79 2.91z" fill="url(#b)"/></svg>