<svg height="18" viewBox="0 0 18 18" width="18" xmlns="http://www.w3.org/2000/svg" xmlns:xlink="http://www.w3.org/1999/xlink"><linearGradient id="a" gradientUnits="userSpaceOnUse" x1="2" x2="7.44" y1="9.11" y2="9.11"><stop offset=".06" stop-color="#0396d7"/><stop offset=".38" stop-color="#10aae1"/><stop offset=".7" stop-color="#18b7e7"/><stop offset="1" stop-color="#1bbbe9"/></linearGradient><linearGradient id="b" gradientUnits="userSpaceOnUse" x1="3.86" x2="9.98" y1="10.36" y2="10.36"><stop offset="0" stop-color="#1bbbe9"/><stop offset=".29" stop-color="#17b5e6"/><stop offset=".67" stop-color="#0da5de"/><stop offset="1" stop-color="#0091d5"/></linearGradient><linearGradient id="c" gradientUnits="userSpaceOnUse" x1="10.56" x2="16" y1="8.89" y2="8.89"><stop offset=".16" stop-color="#9fc546"/><stop offset=".33" stop-color="#92c246"/><stop offset=".51" stop-color="#7ebd46"/><stop offset=".68" stop-color="#61b546"/><stop offset=".86" stop-color="#3cac45"/><stop offset="1" stop-color="#17a345"/></linearGradient><linearGradient id="d" gradientUnits="userSpaceOnUse" x1="8.02" x2="14.14" y1="7.64" y2="7.64"><stop offset="0" stop-color="#a3c646"/><stop offset=".13" stop-color="#9ac446"/><stop offset=".35" stop-color="#82be46"/><stop offset=".62" stop-color="#5ab445"/><stop offset="1" stop-color="#17a345"/></linearGradient><path d="m0 0h18v18h-18z" fill="#f0f3fa"/><path d="m2 8.93a4.66 4.66 0 0 0 .94.88c.28.17.6.28.94.3.49.05 1.16-.13 1.94-.52.57-.28 1.1-.61 1.62-.99l-.32-.11c-1.82-.63-3.9-.5-5.03.32-.06.05-.09.08-.09.12z" fill="url(#a)"/><path d="m9.98 9.49-3.01 2.3c-.18.14-.26.19-.38.2a.55.55 0 0 1 -.38-.09l-2.35-1.5c1.23.1 3.03-1.03 3.9-1.69z" fill="url(#b)"/><path d="m16 9.07a4.7 4.7 0 0 0 -.94-.88 2.15 2.15 0 0 0 -.94-.3 3.94 3.94 0 0 0 -1.94.52c-.57.28-1.11.61-1.62.99 0 0 .28.1.32.1 1.82.64 3.9.51 5.03-.32.06-.04.09-.07.09-.1z" fill="url(#c)"/><path d="m8.02 8.51 3.01-2.3c.18-.14.26-.19.38-.2.13-.02.27 0 .38.09l2.35 1.5c-1.23-.1-3.03 1.03-3.9 1.69l-2.22-.79z" fill="url(#d)"/></svg>