<svg height="18" viewBox="0 0 18 18" width="18" xmlns="http://www.w3.org/2000/svg"><path d="m0 0h18v18h-18z" fill="#f0f3fa"/><path d="m3.8 7h-1.3v-1h4v1h-1.5v5h-1.2" fill="#d80d18"/><path d="m12.33 7h.6c1.02 0 1.74.8 1.74 2s-.7 2-1.74 2h-.6zm-1.33 5h1.9c1.79 0 3.1-.78 3.1-3.03 0-2.32-1.27-2.97-3.1-2.97h-1.9" fill="#006cb7"/><path d="m8.98 10.63c-.28.4-.78.64-1.24.64-.6 0-1.16-.38-1.16-1.13 0-.61.46-1.07.94-1.27zm-1.04-2c.6-.32 1.21-.63 1.21-1.5 0-.76-.58-1.13-1.18-1.13-.67 0-1.37.41-1.37 1.2 0 .55.35.97.66 1.36-.67.28-1.2.76-1.2 1.6 0 1.07.8 1.54 1.66 1.54.6 0 1.12-.22 1.53-.73l1.73 2.03h.63l-2.04-2.43a3.6 3.6 0 0 0 .56-1.99h-.43c0 .6-.12 1.18-.43 1.68l-1.33-1.62zm-.83-1.4c0-.53.4-.8.83-.8s.71.27.71.8c0 .64-.53.9-.97 1.12-.28-.33-.57-.68-.57-1.12z" fill="#727172"/></svg>