<svg height="18" viewBox="0 0 18 18" width="18" xmlns="http://www.w3.org/2000/svg"><path d="m0 0h18v18h-18z" fill="#192650"/><g fill="#309d63"><path d="m9.39 4.17a.2.2 0 0 1 .21-.17c1.21.16 2.34.72 3.18 1.59a.2.2 0 0 1 0 .28.2.2 0 0 1 -.29 0 4.97 4.97 0 0 0 -2.94-1.48.2.2 0 0 1 -.17-.22zm-.39.03c0 .12-.08.21-.18.22a4.3 4.3 0 0 0 -2.23.7c-.09.06-.2.03-.26-.07a.22.22 0 0 1 .07-.28 4.65 4.65 0 0 1 2.4-.77c.11 0 .2.09.2.2zm-3.14 1.15c.07.07.07.19-.01.26a4.63 4.63 0 0 0 -1.24 4.85.19.19 0 1 1 -.36.11 5 5 0 0 1 1.35-5.23c.07-.07.19-.07.26 0zm-1 5.98c.09-.05.2-.02.25.07a4.54 4.54 0 0 0 3.35 2.24.18.18 0 1 1 -.05.36 4.96 4.96 0 0 1 -3.62-2.42.18.18 0 0 1 .07-.25zm8.64-.78c.1.05.14.16.1.26a5.17 5.17 0 0 1 -1.76 2.29 4.7 4.7 0 0 1 -2.65.9c-.1 0-.19-.08-.19-.19 0-.1.08-.2.18-.2a4.35 4.35 0 0 0 2.45-.83 4.78 4.78 0 0 0 1.63-2.12c.04-.1.15-.15.24-.1zm-.41-4.1c.09-.05.2-.02.25.07a5 5 0 0 1 .53 3.62.19.19 0 0 1 -.37-.08 4.62 4.62 0 0 0 -.49-3.35.19.19 0 0 1 .08-.26zm-2.55-.7a3.49 3.49 0 0 0 -2.26-.28.2.2 0 1 1 -.08-.39 3.87 3.87 0 0 1 4.3 2.13.2.2 0 1 1 -.35.17c-.34-.7-.9-1.28-1.6-1.63zm-2.98-.27a.2.2 0 0 1 -.09.26c-.7.34-1.26.9-1.6 1.6a.2.2 0 0 1 -.35-.17c.38-.78 1-1.4 1.78-1.78a.2.2 0 0 1 .26.1z"/><path d="m5.46 7.84c.1.03.17.13.15.24a3.49 3.49 0 0 0 1 3.37.2.2 0 0 1 .01.28c-.07.08-.15.08-.23.01a3.88 3.88 0 0 1 -1.16-3.75.2.2 0 0 1 .23-.15zm5.82 3.93a.2.2 0 0 1 -.05.27 3.87 3.87 0 0 1 -4.16.2.2.2 0 1 1 .2-.35 3.49 3.49 0 0 0 3.73-.17.2.2 0 0 1 .28.05zm1.27-3.87a.2.2 0 0 1 .24.16c.21 1 .02 2.05-.53 2.92a.2.2 0 1 1 -.33-.22 3.49 3.49 0 0 0 .47-2.62.2.2 0 0 1 .15-.23zm-2.52-1.49a.22.22 0 0 1 .3-.1 3 3 0 0 1 1.67 2.7.22.22 0 0 1 -.45 0 2.55 2.55 0 0 0 -1.42-2.3.22.22 0 0 1 -.1-.3zm-.93.04a2.55 2.55 0 0 0 -2.34 1.35.22.22 0 0 1 -.4-.22 3 3 0 0 1 2.76-1.58.22.22 0 1 1 -.02.45z"/><path d="m6.24 8.65c.12 0 .22.11.21.24a2.55 2.55 0 0 0 1.33 2.35.22.22 0 0 1 -.22.4 3 3 0 0 1 -1.56-2.78c0-.13.11-.22.24-.22zm5.36 1.37c.1.05.15.19.1.3a3 3 0 0 1 -2.7 1.68.22.22 0 1 1 0-.45 2.55 2.55 0 0 0 2.29-1.43.22.22 0 0 1 .3-.1zm3.08-2.27c.1-.02.2.04.22.14a6 6 0 0 1 -1.78 5.47.18.18 0 0 1 -.25-.26 5.64 5.64 0 0 0 1.67-5.14c-.02-.1.05-.2.14-.21zm-3.23-4.03a.18.18 0 0 1 .24-.08 6 6 0 0 1 3 3.48.18.18 0 0 1 -.34.11 5.64 5.64 0 0 0 -2.82-3.27.18.18 0 0 1 -.08-.24zm-.61-.05a5.63 5.63 0 0 0 -3.2-.14 5.64 5.64 0 0 0 -2.78 1.64.18.18 0 0 1 -.26-.25 6 6 0 0 1 6.36-1.59.18.18 0 1 1 -.12.34zm-6.36 1.66c.08.06.1.17.04.25-.7.92-1.11 2.04-1.16 3.2a.18.18 0 0 1 -.36-.02 6 6 0 0 1 1.23-3.4c.06-.08.17-.1.25-.03zm-1.29 4.07c.1-.02.19.05.2.15a5.63 5.63 0 0 0 2.57 4.2.18.18 0 1 1 -.2.3 6 6 0 0 1 -2.73-4.45.18.18 0 0 1 .17-.2zm9.04 4.44c.06.09.03.2-.06.25a6 6 0 0 1 -5.57.41.18.18 0 1 1 .15-.33 5.68 5.68 0 0 0 5.23-.39c.09-.05.2-.02.25.06z"/><path d="m9 10a1 1 0 1 0 0-2 1 1 0 0 0 0 2zm0-.5a.5.5 0 1 0 0-1 .5.5 0 0 0 0 1z" fill-rule="evenodd"/></g></svg>