<svg height="18" viewBox="0 0 18 18" width="18" xmlns="http://www.w3.org/2000/svg"><path d="m0 0h18v18h-18z" fill="#2d4154"/><path d="m7.7 6h2.66l-1.34-1-1.31 1zm-.8 0-2.68 1.62 1.05-1.62zm-3.1 2.2-1.8 2.85.34-2.01 1.47-.84zm12.2 2.85-1.8-2.85 1.46.84zm-4.9-5.05 2.68 1.62-1.05-1.62z" fill="#00a594"/><path d="m6.28 11.14 1.52-.88-.92-.02zm5.44 0-1.52-.88.92-.02z" fill="#b8d98e"/><path d="m7.98 8h2.1l-1.06-.74zm-.64.2-2.1 1.21.83-1.23zm-2.43 1.62-1.41 2.18.27-1.54 1.15-.64zm9.6 2.18-1.42-2.18 1.15.64zm-3.85-3.8 2.1 1.21-.83-1.23z" fill="#68be4a"/><path d="m6.38 7.43 2.26-.63-1.28-.41zm2.92-.63 2.53.72-1.16-1.13zm-5.59 2.98 2.02-1.98-1.39.35zm10.56.1-2-2 1.38.38.62 1.63z" fill="#2ea657"/><path d="m6.93 9.62 1.78-.5-1-.33zm2.3-.49 2 .57-.91-.9-1.08.33zm-4.4 2.34 1.57-1.56-1.09.28-.5 1.28zm8.33.09-1.58-1.58 1.1.29z" fill="#9ace69"/></svg>