<svg height="18" viewBox="0 0 18 18" width="18" xmlns="http://www.w3.org/2000/svg"><path d="m0 0h18v18h-18z" fill="#e1efef"/><path d="m9.5 7.84c0 .23-.08.45-.23.61l-.97 1.05.97 1.05c.15.16.23.38.23.6v.85h4.5v-5h-4.5zm-2.5 1.66 1.5-1.66v-1.1c0-.41.33-.74.73-.74h5.04c.4 0 .73.33.73.74v5.52c0 .41-.33.74-.73.74h-5.09c-.4 0-.68-.33-.68-.74v-1.1z" fill="#195967"/><path d="m4.7 6.37h-1v1.63h-.7v1h.7v1.72c0 .9.45 1.57 1.41 1.54.33 0 .62-.09.91-.22l-.3-.88c-.17.09-.36.18-.56.18-.34 0-.47-.3-.47-.62v-1.72h1.31v-1h-1.3z" fill="#00585f"/></svg>