<svg height="18" width="18" xmlns="http://www.w3.org/2000/svg" xmlns:xlink="http://www.w3.org/1999/xlink"><linearGradient id="a" gradientUnits="userSpaceOnUse" x1="7.55" x2="7.92" y1="4.34" y2="13.79"><stop offset="0" stop-color="#bc8538"/><stop offset="1" stop-color="#f3d987"/></linearGradient><linearGradient id="b" gradientUnits="userSpaceOnUse" x1="10.49" x2="10.37" y1="13.66" y2="4.21"><stop offset="0" stop-color="#bc8538"/><stop offset="1" stop-color="#f3d886"/></linearGradient><path d="m0 0h18v18h-18z" fill="#f0f3fa"/><g fill="url(#a)"><path d="m4.23 8.14 2.47-2.44c.25-.25.57-.39.9-.4l.82-.83.08-.08a2.43 2.43 0 0 0 -2.54.57l-2.46 2.44a2.43 2.43 0 0 0 0 3.44l2.45 2.46c.9.88 2.3.94 3.25.16-.32-.17-.57-.43-.82-.69-.54.32-1.23.25-1.7-.21l-2.44-2.46a1.39 1.39 0 0 1 0-1.96z"/><path d="m9.11 12.1c.29.22.54.48.9.57l1.83-1.83c.95-.95.95-2.49 0-3.44l-1.7-1.7c-.23.06-.45.18-.63.35l-.24.25 1.84 1.84c.54.54.54 1.42 0 1.96z"/><path d="m6.51 13.72c.93.5 2.1.35 2.88-.42l2.45-2.46c.78-.78.92-1.95.42-2.87l-.8.8c.13.46.01.97-.35 1.33l-2.46 2.46c-.36.36-.88.48-1.34.36z"/></g><path d="m13.8 9.86-2.45 2.45c-.25.25-.57.39-.9.4l-.82.83-.08.08c.86.3 1.85.12 2.54-.57l2.45-2.45c.95-.95.95-2.5 0-3.44l-2.44-2.46a2.43 2.43 0 0 0 -3.25-.16c.32.17.57.43.82.69a1.39 1.39 0 0 1 1.7.21l2.43 2.46c.54.54.54 1.42 0 1.96z" fill="url(#b)"/><path d="m8.93 5.9c-.29-.22-.54-.48-.9-.57l-1.83 1.83a2.43 2.43 0 0 0 0 3.44l1.7 1.7c.23-.06.45-.18.63-.35l.24-.25-1.84-1.84a1.39 1.39 0 0 1 0-1.96z" fill="url(#b)"/><path d="m11.53 4.28c-.92-.5-2.1-.35-2.88.42l-2.45 2.46a2.43 2.43 0 0 0 -.42 2.87l.8-.8c-.13-.46-.01-.97.35-1.33l2.47-2.46c.36-.36.88-.48 1.34-.36l.8-.8z" fill="url(#b)"/></svg>