<svg fill="none" height="18" viewBox="0 0 18 18" width="18" xmlns="http://www.w3.org/2000/svg" xmlns:xlink="http://www.w3.org/1999/xlink"><linearGradient id="a" gradientUnits="userSpaceOnUse" x1="9" x2="9" y1="3" y2="15"><stop offset="0" stop-color="#6facc0"/><stop offset="1" stop-color="#ebf8fa"/></linearGradient><path d="m0 0h18v18h-18z" fill="#f0f3fa"/><path clip-rule="evenodd" d="m9.13334 8.61158c1.16106.94038 2.64986 2.50422 2.54056 4.29302.4053-.7087.7595-2.5083-1.0654-4.03748-2.28105-1.91142-2.04885-3.72061.123-5.86712-2.54425 1.07694-3.73382 3.88181-1.59816 5.61158zm.17123-5.43852c-1.10152.42034-3.30457 1.84403-3.30457 4.17607 0 1.46791.899 2.41258 1.79159 3.35057.87997.9246 1.75371 1.8428 1.75371 3.2493-.01439.1936-.08689.6748-.26172 1.0509.56458-.2419 1.69372-1.0548 1.69372-2.3714 0-1.6456-2.02154-3.58769-2.62255-4.07832-.601-.49063-.87418-1.36967-.87418-2.29983 0-.93015.86153-2.27042 1.824-3.07729z" fill="url(#a)" fill-rule="evenodd"/></svg>