<svg height="18" viewBox="0 0 18 18" width="18" xmlns="http://www.w3.org/2000/svg"><path d="m0 0h18v18h-18z" fill="#f0f3fa"/><path d="m3.01 8.45h-1.01l.2-.95h3.15l-.2.95h-1l-.58 2.55h-1.12zm6.17 0h-1.01l.2-.95h3.15l-.2.95h-1.01l-.57 2.55h-1.12zm-3.07 1.28h.7l-.11-1.03-.6 1.03zm.29-2.23h1.1l.57 3.5h-1.1l-.06-.5h-1.21l-.28.5h-1.14l2.11-3.5z" fill="#050505"/><path d="m10.25 10-.15 1h1.78c.7 0 1.22-.36 1.6-1z" fill="#0265a1"/><path d="m11.29 8.77-.16 1h2.04c.7 0 1.2-.36 1.58-1h-3.45z" fill="#0094c9"/><path d="m12.29 7.5-.16 1h2.28c.7 0 1.22-.36 1.59-1z" fill="#86d0e6"/></svg>