<svg height="18" viewBox="0 0 18 18" width="18" xmlns="http://www.w3.org/2000/svg"><path d="m0 0h18v18h-18z" fill="#f0f3fa"/><path d="m2 7 .15.95h.22c.35-.59.32-.7.89-.7h.42v2.92c0 .42-.16.6-.69.6v.23h2.58v-.22c-.54 0-.57-.2-.57-.58v-2.95h.31c.57 0 .51.1.88.7h.22l.15-.95zm12.7 0h-2.91v.23c.57 0 .86.2.86.58v2.3c0 .5-.26.64-.87.67v.22h4.22l-.14-.97h-.27c-.33.52-.4.72-.96.72h-.08c-.63 0-.55-.24-.55-.78v-2.17c0-.34.28-.56.7-.56zm-5.32.65c0 .2-.13.34-.47.55-.3-.28-.49-.48-.49-.66 0-.23.24-.43.5-.43.21 0 .46.33.46.54zm-.39 2.95h-.02c-.52.06-1.03-.49-1.03-.97v-.05c0-.16 0-.4.42-.7.3.28.77.94 1.08 1.52-.23.21-.38.2-.45.2zm2.01-1.9v2.09c-.11-.04-.16-.1-.25-.21l-.23-.28a4.76 4.76 0 0 1 -.24-.29l-.08-.1c.22-.3.34-.54.45-.73.12-.23.2-.39.35-.48zm-.7 2.3h-1.3c.17-.08.35-.2.58-.42.16.25.43.37.73.42zm.7-2.64h-.94v.22c.22.04.4.1.36.34-.02.15-.12.45-.36.78a7.31 7.31 0 0 0 -.98-1.33c.58-.38.78-.56.78-.82 0-.14-.1-.37-.27-.55h1.41zm-2.44-1.36h-1.56v4h.87c-.44-.19-.66-.6-.66-1 0-.49.27-.76 1.04-1.32-.3-.34-.42-.58-.42-.81 0-.3.37-.65.73-.87z"/></svg>