<svg height="18" viewBox="0 0 18 18" width="18" xmlns="http://www.w3.org/2000/svg"><path d="m0 0h18v18h-18z" fill="#003057"/><g fill="#fff"><path d="m13.5 4.5h-9v9h9zm-9.5-.5v10h10v-10z" fill-rule="evenodd"/><path d="m10.85 5.67h-3.25v.9h.15c0-.48.2-.57.3-.57h.89v3.74c0 .24-.5.3-.74.3v.15h2.07v-.15c-.24 0-.74-.15-.74-.3v-1.96c.47 0 .69.4.74.6h.3v-1.2h-.15c0 .24-.2.4-.3.45-.24-.12-.5-.15-.6-.15v-1.48h.9c.23 0 .3.37.3.57h.14v-.9z"/><path d="m8.78 7.93v-.3c-.6.1-1.78.75-1.78 2.1 0 1.67 1.19 2.27 2.37 2.27.8 0 1.38-.4 1.63-.6l-.15-.15c-.2.15-.89.45-1.48.45-.74 0-1.78-.6-1.78-1.96 0-1.09.8-1.66 1.19-1.81z"/></g></svg>