<svg fill="none" height="18" width="18" xmlns="http://www.w3.org/2000/svg"><path d="m0 0h18v18h-18z" fill="#f0f3fa"/><g clip-rule="evenodd" fill-rule="evenodd"><path d="m6.713 4h4.574a2.719 2.719 0 0 1 2.713 2.703v4.594a2.719 2.719 0 0 1 -2.713 2.703h-4.574a2.719 2.719 0 0 1 -2.713-2.703v-4.594a2.719 2.719 0 0 1 2.713-2.703z" fill="#017eff"/><path d="m6.193 7h2.664c.076 0 .143.052.143.111 0 .626-.36.889-.797.889h-.203v2.288c0 .392-.338.712-.84.712-.093 0-.16-.059-.16-.124v-2.876h-.807c-.1 0-.193-.065-.193-.15v-.7c0-.085.084-.15.193-.15zm5.807.004h-1.409s-1.59-.145-1.59 1.371v1.253s-.094 1.372 1.467 1.372h.532s1 0 1-1h-1.213c-.334 0-.787 0-.787-.919 0-1.081.192-1.081.693-1.081h.552s.755 0 .755-.996z" fill="#f0f3fa"/></g></svg>