<svg height="56" viewBox="0 0 56 56" width="56" xmlns="http://www.w3.org/2000/svg"><path d="m0 0h56v56h-56z" fill="#0146ad"/><g fill="#fff"><path d="m45.77 27.81c.07.02.16.08.23.13l6 5.06h-3.82l-5.68-5.2 5.18-4.8h3.62l-5.3 4.69a.57.57 0 0 1 -.23.12zm-18.77-4.81h6.57c3.3 0 5.43 2.16 5.43 5 0 3.16-2.6 5-5.36 5h-6.64zm3 8h3.48c2.15 0 2.98-1.36 2.98-3 0-1.5-.65-3-3.14-3h-3.32zm-14-1.66-4-2.34v-4zm-12 0 4-2.34v-4zm6 1.55-3.8 2.11h7.6zm2-7.89h-4l2 2.11zm0 4-2 3.89 3-.78zm-4 0h4l-2-1.89zm5 3.11.8 2.89 2.2-3.66zm-5-3.11 2 3.89-3-.78zm-1 3.11-.8 2.89-2.2-3.66zm19.5-7.11h-10.5v2h4v8h3v-8h3.5z"/><path d="m43 33v-10h-3v10z"/></g></svg>