<svg height="18" viewBox="0 0 18 18" width="18" xmlns="http://www.w3.org/2000/svg"><path d="m0 0h18v18h-18z" fill="#008681"/><g fill="#fff"><path d="m9 11.37c1.27 0 2.3-.92 2.3-2.05 0-1.14-1.03-2.06-2.3-2.06s-2.3.92-2.3 2.06c0 1.13 1.03 2.05 2.3 2.05zm0 .63c1.66 0 3-1.2 3-2.68 0-1.49-1.34-2.69-3-2.69s-3 1.2-3 2.69c0 1.48 1.34 2.68 3 2.68z" fill-rule="evenodd"/><path d="m9 9.79c.25 0 .45-.21.45-.47 0-.27-.2-.48-.45-.48a.46.46 0 0 0 -.45.48c0 .26.2.47.45.47zm0 .63c.58 0 1.05-.5 1.05-1.1 0-.61-.47-1.11-1.05-1.11s-1.05.5-1.05 1.1c0 .62.47 1.11 1.05 1.11z" fill-rule="evenodd"/><path d="m15 8.6-.04-.04a8.9 8.9 0 0 0 -5.96-2.56c-3.6 0-6 2.6-6 2.6v.39s1.9-1.7 4.86-2.08a9.77 9.77 0 0 1 7.14 2.09z"/></g></svg>