<svg height="18" width="18" xmlns="http://www.w3.org/2000/svg"><path d="m0 0h18v18h-18z" fill="#f0f3fa"/><path d="m4.73 6.49c.41-.37 2.83-2.49 4.27-2.49 1.47 0 3.69 1.97 4.23 2.45l.06.05a10.95 10.95 0 0 0 -5.24-.76l-.2.02a12.57 12.57 0 0 0 -3.12.73zm3.87 2.74c-.32-.63-1.1-1.75-1.6-1.83-1.55 0-2.61.1-3.72.92-.46.34-.36.95.2 1.3 2.2 1.38 3.25 2.22 4.57 4 .2.27.4.38.65.38.2 0 .46-.06.6-.24a.74.74 0 0 0 .13-.38c0-1.6-.06-2.75-.83-4.15zm5.4-1.3c-.32-.2-2.05-.52-3.01-.53-.47.02-.99.15-.99.56 0 .29.12.5.26.78.23.44.54 1.02.54 2.26 0 .43-.03 1.44-.3 2.18 1-1.32 1.76-1.8 3.2-2.74l.79-.52c.38-.25.51-.5.51-.75 0-.41-.47-.8-.86-1.13l-.14-.12z" fill="#36a1d7"/></svg>