<svg height="18" viewBox="0 0 18 18" width="18" xmlns="http://www.w3.org/2000/svg" xmlns:xlink="http://www.w3.org/1999/xlink"><linearGradient id="a"><stop offset="0" stop-color="#00ffc1"/><stop offset="1" stop-color="#4287f2"/></linearGradient><linearGradient id="b" gradientUnits="userSpaceOnUse" x1="-511.3" x2="540.66" xlink:href="#a" y1="336.94" y2="336.94"/><linearGradient id="c" gradientUnits="userSpaceOnUse" x1="-166.4" x2="898.96" xlink:href="#a" y1="455" y2="455"/><path d="m0 0h18v18h-18z" fill="#414242"/><path d="m9.46 6h-.46v6.32c0 .12.13.22.26.22h1.51c.14 0 .23-.1.23-.22v-4.32h1.76c.13 0 .24-.06.24-.18v-.49c-.04-.08-.18-.15-.29-.15-.1 0-.26.07-.3.15v.12h-2.05v4.55h-.75v-5.42h4.14c.14 0 .25-.13.25-.26 0-.12-.1-.32-.24-.32z" fill="url(#b)"/><path d="m5.25 5c-.14 0-.25.1-.25.22v1.56c0 .12.11.22.25.22h2.15v6.78c0 .12.16.22.3.22s.3-.1.3-.22v-7.32h-2.4v-.93h6.82v.16c.04.08.2.15.3.15.12 0 .24-.07.28-.15v-.47c0-.12-.1-.22-.23-.22z" fill="url(#c)"/></svg>