<svg height="18" viewBox="0 0 18 18" width="18" xmlns="http://www.w3.org/2000/svg" xmlns:xlink="http://www.w3.org/1999/xlink"><linearGradient id="a"><stop offset=".43" stop-color="#072d6b"/><stop offset=".62" stop-color="#83a9e4"/><stop offset=".74" stop-color="#8fb5f0"/><stop offset=".89" stop-color="#083782"/></linearGradient><linearGradient id="b" gradientUnits="userSpaceOnUse" x1="11" x2="6" xlink:href="#a" y1="10.46" y2="10.46"/><linearGradient id="c" gradientUnits="userSpaceOnUse" x1="10" x2="7" y1="12.46" y2="12.46"><stop offset=".43" stop-color="#072d6b"/><stop offset=".62" stop-color="#83a9e4"/><stop offset=".89" stop-color="#083782"/></linearGradient><linearGradient id="d" gradientUnits="userSpaceOnUse" x1="12" x2="5" xlink:href="#a" y1="8.46" y2="8.46"/><linearGradient id="e" gradientUnits="userSpaceOnUse" x1="14" x2="4" xlink:href="#a" y1="5.69" y2="5.69"/><path d="m0 0h18v18h-18z" fill="#f0f3fa"/><path d="m10.43 11.07c-2.4 0-3.95-.71-4.43-1.07 1.14 1.83 3.86 2 4.33 2 .48 0 .67-.23.67-.47 0-.23-.29-.46-.57-.46z" fill="url(#b)"/><path d="m6.1 10.08a6.16 6.16 0 0 0 4.9 1.52c-.04.2-.24.39-.67.39-.47 0-3.19-.17-4.33-2l.1.08z" fill="#083782"/><path d="m9.48 13.06c-1 .03-2.07-.7-2.48-1.06.62 1.6 2 2 2.38 2s.62-.2.62-.45c0-.24-.33-.49-.52-.49z" fill="url(#c)"/><path d="m9.99 13.63c-.12.03-.37.08-.51.08-.18 0-1.38-.2-2.35-1.6l-.13-.11c.62 1.6 2 2 2.38 2 .34 0 .56-.16.61-.37z" fill="#083782"/><path d="m7 8.86c-1.28 0-1.87-.35-2-.52.96 2.06 4.7 1.78 6.46 1.38.18-.02.54-.21.54-.86s-.46-.86-.69-.86c-.9.29-3.04.86-4.32.86z" fill="url(#d)"/><path d="m11.98 8.65c-.48.42-1.65 1.02-3.75 1.02-1.4 0-2.45-.56-3.13-1.13 1.1 1.84 4.66 1.56 6.36 1.18.18-.02.54-.21.54-.86 0-.08 0-.15-.02-.21z" fill="#083782"/><path d="m4 7.24c0-.74 2.6-1.14 3.82-1.24-1.43.14-2.64.76-2.64.93s.37.2.57.2c2 0 6.86-2.13 7.27-2.13.4 0 .98.24.98.8 0 .43-.38.7-.57.79-1.8.47-5.74 1.41-7.23 1.41-1.83 0-2.2-.48-2.2-.76z" fill="url(#e)"/><path d="m4 7.19v.05c0 .28.37.76 2.21.76 1.48 0 5.43-.94 7.22-1.41.19-.08.57-.36.57-.8a.7.7 0 0 0 -.04-.25c-1.23.74-4.51 2.21-8.24 2.21-.55 0-1.23-.3-1.72-.56z" fill="#083782"/></svg>