<svg height="18" viewBox="0 0 18 18" width="18" xmlns="http://www.w3.org/2000/svg" xmlns:xlink="http://www.w3.org/1999/xlink"><linearGradient id="a" gradientUnits="userSpaceOnUse" x1="3.35" x2="21.9" y1="3.12" y2="24.43"><stop offset="0" stop-color="#1a1e21"/><stop offset="1" stop-color="#06060a"/></linearGradient><linearGradient id="b" gradientUnits="userSpaceOnUse" x1="5.81" x2="9.6" y1="6.81" y2="11.4"><stop offset="0" stop-color="#0a87dd"/><stop offset="1" stop-color="#0b79dd"/></linearGradient><linearGradient id="c" gradientUnits="userSpaceOnUse" x1="9.28" x2="11.3" y1="4.74" y2="14.53"><stop offset="0" stop-color="#128efb"/><stop offset="1" stop-color="#0242b3"/></linearGradient><linearGradient id="d" gradientUnits="userSpaceOnUse" x1="8.76" x2="8.76" y1="5.81" y2="14.57"><stop offset="0" stop-color="#ebf0f3"/><stop offset="1" stop-color="#9fb2c5"/></linearGradient><path d="m0 0h18v18h-18z" fill="url(#a)"/><path d="m13.2 5.25-3.72-1.68c-.44-.13-.8-.05-.93 0l-3.95 1.79c-.3.19-.52.49-.58.77-.05.22.08.72.13.98l1.13 5c.1.42.3.71.45.83.8.56 2.47 1.73 2.8 1.94.34.21.8.1.98 0l2.73-1.87c.24-.2.42-.47.5-.7l1.19-5.2c.05-.2.13-.68.04-1.05-.09-.38-.54-.7-.76-.81z" fill="#9fb2c5"/><path d="m12.84 5.57-3.4-1.54c-.4-.12-.73-.05-.85 0l-3.62 1.64c-.28.18-.47.45-.53.71-.04.2.07.66.12.9l1.03 4.6c.09.38.28.65.42.77.72.5 2.25 1.58 2.56 1.78.3.2.72.08.88 0l2.5-1.72c.22-.18.38-.44.45-.65l1.09-4.78c.05-.18.12-.62.04-.96-.08-.35-.5-.65-.7-.75z" fill="url(#b)"/><path d="m12.84 5.57-3.4-1.54a1.52 1.52 0 0 0 -.44-.06v10.56c.19 0 .36-.06.45-.1l2.5-1.72c.22-.18.38-.44.45-.65l1.09-4.78c.05-.18.12-.62.04-.96-.08-.35-.5-.65-.7-.75z" fill="url(#c)"/><path d="m5.15 9.96c.24-.45.96-1.38 1.88-1.53-.53-.05-1.65-.28-1.92-.79.72-.06 2.26-.26 2.67-.51.51-.31 1.14-.46 2.25-.38l1.57-.85c.18-.1.55-.2.6.25-.11.03-.34.1-.46.17h.56c.11.14.23.51-.18.85l-.13.47-.17-.28c-.05.08-.18.35-.28.77l-.25-.3-.81.97.2.1 1.06-.53.08-.41.22.3.23-.13c.06.31-.04 1.12-.9 1.81-1.08.88-1.25 1.38-1.4 2.48-.15-.19-.42-.67-.3-1.1a.95.95 0 0 0 -.45.84c0 .58.7 1.27 1.6 1.35l-1.38.95a1 1 0 0 1 -.9 0l-2.56-1.82c-.12-.11-.4-.46-.44-.9zm2.62-1.4 1.64-.48.18-.24h-1.19l.22.18z" fill="url(#d)"/></svg>