<svg height="18" width="18" xmlns="http://www.w3.org/2000/svg"><g stroke="#fff" stroke-width=".019"><path d="m0 0h18v18h-18z" fill="#0054a4"/><circle cx="9" cy="9" fill="#0054a4" r="9"/><path d="m8.068 13c-.804 0-1.455.499-1.77.853 0 0-.764.822-1.282 1.106-.023.014-.022.041.01.041h4.68c.925 0 1.36-.34 1.91-.873 0 0 .799-.806 1.347-1.066.056-.023.043-.061 0-.061zm-3.068-10v1.967c.569-.532 1.701-.955 3-.967v5.589c0 .78 0 1.002-.275 1.411h2.569c-.289-.409-.294-.63-.294-1.411v-5.589c1.126.012 2.431.434 3 .967v-1.967z" fill="#fff"/></g></svg>