<svg height="18" width="18" xmlns="http://www.w3.org/2000/svg"><path d="m0 9a9 9 0 1 1 18 0 9 9 0 0 1 -18 0z" fill="#f0f3fa"/><path d="m13.63 7.6h-9.33a5.5 5.5 0 0 0 -.17 1.02h9.67c-.02-.33-.1-.7-.18-1.02zm-9.49 1.43c.01.22.03.43.07.64h9.53c.04-.21.06-.42.07-.64zm.33 1.57h9c.07-.16.11-.31.16-.48h-9.33c.04.17.1.32.16.48zm.47-4.44c-.22.33-.4.7-.53 1.08h9.13a4.93 4.93 0 0 0 -.54-1.08zm.27-.36a4.82 4.82 0 0 1 7.53 0h-7.54z" fill="#0079c1"/><path d="m8.96 5.03-1.23 6.34 6.32 1.63-5.1-7.97z" fill="#f0f3fa"/><path d="m7.73 11.37 6.32 1.63h-10.18z" fill="#0079c1"/><path d="m8.96 5.03-1.23 6.34-3.86 1.63z" fill="#7bacdc"/></svg>