<svg height="18" viewBox="0 0 18 18" width="18" xmlns="http://www.w3.org/2000/svg"><path d="m0 0h18v18h-18z" fill="#f0f3fa"/><path d="m7.52 4.55c.42 0 .98-.27 1.48-1.55.5 1.28 1.06 1.55 1.48 1.55.34 0 .76-.12.85-.18l-.33 3.77c.27-.37.79-1.15 1-1.37.19.68.73 1.03 1.2 1.03.38 0 1.2-.2 1.47-.34-.14.17-.67.63-.67 1.3 0 .68.7 1.1 1 1.23l-3.33 2.73 1 .9h-2v.9a1.55 1.55 0 0 0 -1.67.48 1.55 1.55 0 0 0 -1.67-.49v-.88h-2l1-.91-3.33-2.73c.3-.12 1-.55 1-1.22 0-.68-.53-1.14-.67-1.31.28.13 1.09.34 1.47.34.47 0 1.01-.35 1.2-1.03.21.22.73 1 1 1.37l-.33-3.77c.1.06.51.18.85.18z" fill="#d00a2d"/><path d="m7.28 13.6 1-3.86c.03-.12-.1-.23-.22-.19l-1.59.47a.18.18 0 0 1 -.19-.06l-.25-.31c-.07-.09-.02-.21.1-.24l5.4-1.41c.07-.02.14 0 .18.05l.24.28c.08.09.03.22-.08.25l-2.5.66a.16.16 0 0 0 -.12.11l-1.04 4.52c-.02.09-.13.14-.23.11l-.6-.2c-.08-.03-.13-.11-.11-.19z" fill="#fff"/></svg>