<svg height="18" viewBox="0 0 18 18" width="18" xmlns="http://www.w3.org/2000/svg"><path d="m0 0h18v18h-18z" fill="#f0f3fa"/><circle cx="9" cy="9" fill="#231f20" r="6"/><path d="m9 14a5 5 0 1 0 0-10 5 5 0 0 0 0 10zm3-6c-.03-.47-.29-1.25-1.83-1.25h-2.53c-.56-.02-1.67.28-1.64 1.35.03 1.16 1.1 1.28 1.64 1.27h2.72c.25 0 .7.15.7.56 0 .42-.46.58-.7.57h-2.72c-.23 0-.6-.07-.68-.51h-.96c.02.48.33 1.29 1.74 1.26h2.43c.62 0 1.83-.19 1.83-1.27 0-1.29-1.31-1.34-1.69-1.36h-2.81c-.18 0-.56-.2-.56-.57s.38-.55.56-.56h2.83c.26 0 .61.1.73.5h.94z" fill="#b1bb00" fill-rule="evenodd"/></svg>