<svg height="18" width="18" xmlns="http://www.w3.org/2000/svg"><path d="m0 0h18v18h-18z" fill="#f0f3fa"/><path d="m14.73 9.55c-.18-.3-.44-.56-.77-.75a1.78 1.78 0 0 0 .8-1.59 2 2 0 0 0 -.34-1.17 2.11 2.11 0 0 0 -.93-.76c-.4-.19-.86-.28-1.38-.28-.51 0-.97.1-1.37.28a2.04 2.04 0 0 0 -1.26 1.93c0 .35.07.66.2.93.15.26.34.48.6.66-.34.2-.6.44-.78.75a2.2 2.2 0 0 0 -.26 1.07c0 .48.12.9.35 1.26.24.36.58.63 1 .83.44.2.95.29 1.52.29s1.08-.1 1.51-.29c.44-.2.78-.47 1.02-.83s.36-.78.36-1.26c0-.4-.1-.76-.27-1.07zm-3.4-2.97c.2-.18.46-.27.78-.27.33 0 .59.1.78.27.2.17.3.4.3.7s-.1.53-.3.7-.45.26-.78.26-.58-.09-.77-.26a.89.89 0 0 1 -.28-.7c0-.3.09-.53.28-.7zm1.72 4.8c-.23.2-.54.3-.94.3-.39 0-.7-.1-.93-.3-.22-.2-.34-.46-.34-.81 0-.34.12-.6.34-.8.23-.2.54-.3.93-.3.4 0 .71.1.94.3a1 1 0 0 1 .35.8c0 .34-.12.61-.35.82zm-4.56-1.82c-.18-.3-.44-.56-.77-.75a1.78 1.78 0 0 0 .8-1.59 2 2 0 0 0 -.34-1.17 2.11 2.11 0 0 0 -.93-.76c-.4-.2-.86-.29-1.38-.29-.51 0-.97.1-1.37.28a2.04 2.04 0 0 0 -1.26 1.93c0 .35.07.66.2.93.15.26.34.48.6.66-.34.2-.6.44-.78.75a2.2 2.2 0 0 0 -.26 1.07c0 .48.12.9.35 1.26.24.36.58.63 1 .83.44.2.95.29 1.52.29s1.08-.1 1.51-.29c.44-.2.78-.47 1.02-.83s.36-.78.36-1.26c0-.4-.1-.76-.27-1.07zm-3.4-2.97c.2-.18.46-.26.78-.26.33 0 .59.08.78.26.2.17.3.4.3.7s-.1.53-.3.7-.45.26-.78.26-.58-.09-.77-.26a.89.89 0 0 1 -.28-.7c0-.3.09-.53.28-.7zm1.72 4.8c-.23.2-.54.3-.94.3-.39 0-.7-.1-.93-.3a1 1 0 0 1 -.34-.81 1 1 0 0 1 .34-.8c.23-.2.54-.3.93-.3.4 0 .71.1.94.3a1 1 0 0 1 .35.8c0 .34-.12.61-.35.82z" fill="#f48909"/></svg>