<svg height="18" viewBox="0 0 18 18" width="18" xmlns="http://www.w3.org/2000/svg"><path d="m0 0h18v18h-18z" fill="#f0f3fa"/><path d="m5 13v-8h8v8h-.5v-.9c-.12-.63-.52-1.25-1.56-1.25-1.56 0-1.71 1.38-1.66 2.15h-.57c.05-.77-.2-2.15-1.7-2.15-1.1 0-1.43.72-1.51 1.42v.73zm.5-1.77c.3-.44.79-.8 1.52-.8 1.38 0 1.93 1 1.98 1.5a1.9 1.9 0 0 1 1.94-1.5c.8 0 1.28.32 1.56.75v-5.68h-7zm5.43.27c-.54 0-.93.48-.93 1.09v.41h-.36v-.41c0-.8.58-1.45 1.3-1.45.7 0 1.28.65 1.28 1.45v.41h-.32v-.41c0-.6-.43-1.1-.97-1.1zm-4.96 1.1c0-.57.46-1.04 1.02-1.04s1.01.47 1.01 1.05v.39h.34v-.4c0-.76-.6-1.38-1.35-1.38s-1.35.62-1.35 1.39v.39h.33z" fill="#183f6b"/></svg>