<svg height="18" viewBox="0 0 18 18" width="18" xmlns="http://www.w3.org/2000/svg"><path d="m0 0h18v18h-18z" fill="#f0f0fa"/><path d="m9.1 14.4-1.16-2.23 1.12-.91.96.83-.92 2.32zm3.83-1.6-2.3-.7c.12-.66.2-.85.21-1.55l1.35-.11.74 2.37zm-7.74.02.73-2.37 1.5.11.12 1.51zm4.4-2.55.6.15c.12.42.03.9-.07 1.32l-.9-.7zm-1.75 1.63-.14-1.36.83-.28.35.78zm-1.74-1.74.92-1.06.72.37-.24.8-1.4-.1zm5.92-.03-1.2.11c-.14-.6-.22-.59-.35-.83l.62-.31zm2.5-1.24-2.18 1.15-.96-1.11.9-1.12 2.25 1.08zm-4.41 1.27-.64-.14-.4.83-.41-.84-.91.24.22-.87-.74-.44.52-.32c.41.2.77.43 1.17.64.47.2.96.42 1.19.9zm-6.51-1.23 2.2-1.12c.22.28.79.9.92 1.13l-.95 1.1-2.18-1.1zm7.02-1.36 1.35.16-.89 1.03-.73-.36zm-3.32.03c.08.5.28.7.34.86l-.67.3-.87-1.06zm3.62 1.35-.62.3c-.4-.2-.77-.47-1.26-.7-.45-.21-.86-.45-1.03-.85l.6.14.44-.74.42.75.9-.24-.25.9zm-1.68-2.1 1.05-.85.1 1.34-.8.27-.35-.75zm-1.26-.78c.94.79.02.03.94.79l-.39.77-.6-.18zm1.08.53-1-.85a7.9 7.9 0 0 1 1-2.28c.19.26 1.09 2.06 1.11 2.2zm3.87-1.54-.73 2.34-1.51-.13-.12-1.47zm-5.68 2.24-1.33.1-.73-2.36 2.27.73zm6.06 5.78c.19-.24-.22-1.2-.75-2.72.44-.2 2.44-1.12 2.44-1.47 0-.32-2.27-1.28-2.44-1.42.05-.37.33-1.09.45-1.46.43-1.37.72-1.63-.4-1.25l-2.1.66c-.73-1.46-1.27-3.2-1.9-2.04-.52.93-.76 1.44-1.02 2.02-1.96-.61-2.48-.92-2.85-.79-.11.35.2 1 .8 2.86-.65.36-2.54 1.08-2.54 1.5 0 .25 1.77 1.09 2.53 1.43-.65 2.08-.3 1.05-.42 1.4-.58 1.67-.56 1.6.35 1.32.6-.19 1.65-.58 2.13-.68 1 2.05 1.27 2.57 1.55 2.56.41-.03 1.1-1.8 1.37-2.55 1.3.45 2.55.97 2.8.63z" fill="#c4ad65"/></svg>