<svg height="18" viewBox="0 0 18 18" width="18" xmlns="http://www.w3.org/2000/svg"><path d="m0 0h18v18h-18z" fill="#f0f3fa"/><path d="m10.5 6v-3c-2.63.23-6.5 2.65-6.5 5.95 0 4.16 4.11 5.8 5.5 6.05-.82-.21-4-1.78-4-4.73 0-3.03 3.34-3.97 5-4.27z" fill="#e70017"/><path d="m10.5 7.54v-1.54c1.42.23 3.5 1.45 3.5 3.44 0 3.4-3.77 3.56-5 3.56 1.75-.15 3.5-1.07 3.5-2.82 0-1.39-1.27-2.37-2-2.64z" fill="#1c1a88"/><g fill="#201e7f"><path d="m10.64 8.14-.55.78c-1.45 0-2.36.76-2.36 1.65 0 .7.55 1.25.9 1.43-.53-.14-1.63-.72-1.63-1.92 0-1.51 1.64-2.08 2.53-2.08.56 0 .93.1 1.1.14z"/><path d="m8.94 10.18-.85.72c.2.16.76.48 1.29.48.67 0 1.62-.42 1.62-1.3 0-.66-.63-1.05-.94-1.16.16.1.47.39.47.68 0 .58-.6.79-.93.79-.26 0-.55-.14-.66-.2z"/></g></svg>