<svg height="18" viewBox="0 0 18 18" width="18" xmlns="http://www.w3.org/2000/svg"><path d="m0 0h18v18h-18z" fill="#f0f3fa"/><path d="m7 11v-4h2.03c.9 0 1.7.34 1.7 1.05 0 .43-.31.74-.88.84v.04c.71.03 1.15.52 1.15 1 0 .75-.93 1.07-1.87 1.07zm.65-.47h1.4c.52 0 1.12-.19 1.12-.64 0-.43-.53-.69-1.1-.69h-1.41v1.33zm0-1.8h1.3c.2 0 .37-.03.52-.08.3-.1.6-.3.6-.55 0-.4-.59-.63-1.09-.63h-1.33z" fill="#7da42d"/><path d="m12.22 4c-3.34 0-6.2 2.5-7.22 3.74 1.14-.92 3.88-2.76 5.73-2.76s1.36 1.66.89 2.48c1.08-.12 1.5.31 1.56.54.8-1.33 1.71-4-.96-4z" fill="#0061ae"/><path d="m5.89 14c3.33 0 6.1-2.47 7.11-3.59-1.13.83-3.93 2.69-5.77 2.69-1.83 0-1.36-1.59-.9-2.33-1.07.11-1.18-.56-1.25-.77-1.3 1.14-1.84 4 .8 4z" fill="#7da42d"/></svg>