<svg height="18" viewBox="0 0 18 18" width="18" xmlns="http://www.w3.org/2000/svg"><path d="m0 0h18v18h-18z" fill="#1946b9"/><path d="m4.67 8.49.57-1.01a1.9 1.9 0 0 0 -1.24-.48c-1.21 0-2 .96-2 2.01 0 1.01.86 1.99 2 1.99.57 0 .97-.16 1.24-.4l-.54-1.01c-.21.2-.5.25-.7.24a.8.8 0 0 1 -.78-.8c0-.52.4-.83.78-.83.25 0 .48.07.67.3zm7.16 0 .56-1.01a1.9 1.9 0 0 0 -1.24-.48c-1.2 0-2 .96-2 2.01 0 1.01.86 1.99 2 1.99.58 0 .98-.16 1.24-.4l-.53-1.02c-.22.2-.5.25-.7.24a.8.8 0 0 1 -.79-.8c0-.52.4-.83.79-.83.25 0 .47.07.67.3zm4.1-.08c-.4-.19-.9-.1-1.2.03 0 0-.64-.83-1.65-.29-.1-.16-.24-.25-.33-.32a2.22 2.22 0 0 1 -.05-.04c.2-.29.68-.79 1.56-.79 1.12 0 1.57 1.02 1.66 1.41zm.03.17c-.62-.2-1.14.01-1.24.08-.13-.17-.73-.8-1.67-.3a1.6 1.6 0 0 0 -.43-.42c-.9 1.34.06 3.08 1.4 3.06a1.8 1.8 0 0 0 1.3-.53c.57-.5.77-1.3.64-1.89zm-8.3-.14c.3-.12.8-.22 1.19-.03-.1-.39-.55-1.41-1.66-1.41-.88 0-1.37.5-1.57.8l.06.03c.1.07.22.16.32.33 1.02-.55 1.66.28 1.66.28zm-.02.22c.1-.07.63-.28 1.25-.08a2.06 2.06 0 0 1 -.65 1.9c-.3.3-.73.51-1.29.52-1.35.02-2.3-1.72-1.41-3.06.2.13.34.29.43.43.95-.5 1.54.12 1.67.3z" fill="#9bdbf5"/></svg>