<svg height="18" viewBox="0 0 18 18" width="18" xmlns="http://www.w3.org/2000/svg"><path d="m0 0h18v18h-18z" fill="#f0f3fa"/><path d="m9 7 3 5s1.7.08 3-.55c0 0-1.47-.4-3.16-1.55 0 0 .44-.03 1.27-.31 0 0-1.97-.87-2.69-1.56 0 0 .78-.16 1.1-.3 0 0-1.23-.94-1.66-1.56 0 0 .87-.16 1.03-.3 0 0-1.17-.5-1.89-1.87-.7 1.37-1.9 1.86-1.9 1.86.17.13 1.04.31 1.04.31-.43.62-1.67 1.55-1.67 1.55.35.15 1.1.31 1.1.31-.7.68-2.67 1.57-2.67 1.57.83.28 1.27.3 1.27.3a11.35 11.35 0 0 1 -3.17 1.56c1.3.63 3 .55 3 .55l3-5z" fill="#00774e"/><g fill="#181b1e"><path d="m7 11h1l-.09 1h-.8z"/><path d="m9.49 8.7a4 4 0 0 1 .18.01l.02-.05s.42.39.5.79l.03.16c.07.34.14.69.36 1.19l-.06.03s-.22-.41-.48-1.34l-.4-.62-.15.01.14 3.12h-1.26l.08-1.58-.45.28.05-.2c0-.02.27-.3.41-.4l.07-1.83c0-.09.06-.16.06-.16l.37-.34h.09s.12.1.28.27c.17.16.15.22.15.22v.45zm-3.49 4.3h6v-.5h-6z"/></g></svg>