<svg height="18" width="18" xmlns="http://www.w3.org/2000/svg"><path d="m0 0h18v18h-18z" fill="#f0f3fa"/><path d="m4 4.267.254-.267 2.896 2.867c.934-1.002 1.414-2.242 1.538-2.737v4.558h-4.626c1.328-.35 2.425-1.168 2.807-1.533z" fill="#88bae5"/><path d="m14 4.267-.254-.267-2.896 2.867c-.934-1.002-1.414-2.242-1.538-2.737v4.558h4.626c-1.329-.35-2.425-1.168-2.807-1.533z" fill="#0076bd"/><path d="m14 13.733-.254.267-2.896-2.867c-.934 1.002-1.414 2.242-1.538 2.737v-4.558h4.626c-1.329.35-2.425 1.168-2.807 1.533z" fill="#88bae5"/><path d="m4 13.733.254.267 2.896-2.867c.934 1.002 1.414 2.242 1.538 2.737v-4.558h-4.626c1.328.35 2.425 1.168 2.807 1.533z" fill="#0076bd"/></svg>