<svg height="18" viewBox="0 0 18 18" width="18" xmlns="http://www.w3.org/2000/svg"><path d="m0 0h18v18h-18z" fill="#f0f3fa"/><path d="m7.24 4a8.45 8.45 0 0 1 -1.38 5.5 6.9 6.9 0 0 0 1.81-4.6 5.53 5.53 0 0 1 2.59 4.67 6.74 6.74 0 0 1 -.62 2.97c1-1.2 1.24-3.11 1.23-3.92-.03-3.38-2.43-4.49-3.63-4.62z" fill="#ec1c24"/><path d="m10.03 4.6a6.2 6.2 0 0 1 -.98 2.7 5.03 5.03 0 0 0 1.28-2.09c1.5.73 1.95 1.96 2.03 3.27a7.54 7.54 0 0 1 -.57 2.88 5.69 5.69 0 0 0 1.15-3.31 3.38 3.38 0 0 0 -2.91-3.45z" fill="#f9a51a"/><path d="m3 13.64c5.89.97 10.45-.26 12-.99l-.2-.35-1.24.2-.15-.32c-3.41 1.52-8.36 1.6-10.41 1.46z" fill="#00adee"/><path d="m6.13 5.44a6.09 6.09 0 0 1 -1.62 3.35 4.86 4.86 0 0 0 1.81-2.52c1.3 1.17 1.34 2.37 1.22 2.94a2.8 2.8 0 0 0 -1.41-3.77z" fill="#c0272d"/></svg>