<svg height="18" viewBox="0 0 18 18" width="18" xmlns="http://www.w3.org/2000/svg" xmlns:xlink="http://www.w3.org/1999/xlink"><linearGradient id="a" gradientUnits="userSpaceOnUse" x1="14.69" x2="3.94" y1="7.41" y2="14.81"><stop offset=".53" stop-color="#97b0c4"/><stop offset=".76" stop-color="#1c6b9b"/><stop offset=".78" stop-color="#4a91be"/><stop offset=".81" stop-color="#90acc2"/></linearGradient><linearGradient id="b" gradientUnits="userSpaceOnUse" x1="14.69" x2="3.94" y1="7.41" y2="14.81"><stop offset=".23" stop-color="#97b0c4"/><stop offset=".53" stop-color="#28719f"/><stop offset=".53" stop-color="#97b0c4"/><stop offset=".76" stop-color="#1c6b9b"/></linearGradient><linearGradient id="c" gradientUnits="userSpaceOnUse" x1="14.69" x2="3.94" y1="7.41" y2="14.81"><stop offset="0" stop-color="#6c99b9"/><stop offset=".23" stop-color="#126597"/><stop offset=".23" stop-color="#97b0c4"/><stop offset=".53" stop-color="#28719f"/></linearGradient><linearGradient id="d" gradientUnits="userSpaceOnUse" x1="11.73" x2="6.11" y1="11.48" y2="10.5"><stop offset="0" stop-color="#377ea8"/><stop offset=".84" stop-color="#4296c7"/></linearGradient><path d="m0 0h18v18h-18z" fill="#f0f3fa"/><path d="m6.36 7.5h-3.13c-.47 0-.91.2-1.23.55h2.2c.2 0 .33.2.25.39l-.7 1.51h1l.9-1.9h.4z" fill="url(#a)"/><path d="m5.73 9.95.88-1.82a1.1 1.1 0 0 1 1-.63h3.76l-.38.73c-.32.6-.88 1.03-1.55 1.17l.72-1.35h-2.26c-.2 0-.4.11-.5.3l-.53 1.05h2.27l.31 1.09-1.06-.55h-2.66z" fill="url(#b)"/><path d="m16 7.5-.32.55h-2.81c-.2 0-.38.1-.48.27l-.64 1.09h3.37l-.32.54h-4.13l.98-1.86c.19-.36.56-.59.97-.59z" fill="url(#c)"/><path d="m11.65 10.5h1.32l-3.96 3-4.04-3h1.34l2.7 1.46z" fill="url(#d)"/><path d="m9.03 6c-2.97 0-4.9.93-5.03 1 .75-.23 2.8-.68 5.03-.63 2.23.04 3.7.25 4.97.63-.46-.25-2.2-1-4.97-1z" fill="#53b4e0"/></svg>