<svg height="18" viewBox="0 0 18 18" width="18" xmlns="http://www.w3.org/2000/svg"><path d="m0 0h18v18h-18z" fill="#f0f3fa"/><path d="m9.13 12.98 3.45-.88c.6-.16 1.08-.52 1.36-1l.93-1.66c.28-.5.09-1.1-.45-1.4l-2.76-1.55-.44 2.88 1.39.23c.3.05.47.33.36.58l-.41.92a.34.34 0 0 1 -.24.2l-3.32.7-3.32-.7a.34.34 0 0 1 -.24-.2l-.4-.92c-.12-.25.06-.53.35-.58l.68-.1-.66-2.5-1.83 1.04c-.54.3-.73.9-.45 1.4l.93 1.66c.28.48.77.84 1.36 1l3.45.88c.09.03.17.03.26 0zm2-6.79-.5 3.33-.28 1.71-1.35.29-1.35-.29-.31-1.95-.7.12-.72-2.68 3.08-1.72 2.13 1.2z" fill="#275ca8"/></svg>