<svg height="18" width="18" xmlns="http://www.w3.org/2000/svg"><path d="m0 0h18v18h-18z" fill="#324067"/><g fill="#fff"><path d="m9.196 8.602 2.707-1.716-1.183-1.59-1.704 3.182c.063.036.123.078.18.124zm.451.651 3.675-.46-1.177-1.583-2.59 1.83c.037.068.067.14.092.213zm.033.785 5.401 1.12-1.489-2.002-3.877.646c-.005.08-.017.16-.036.236z"/><path d="m15.341 11.533c-1.664-.242-5.282-.773-6.1-.926-.835-.155-1.31-.517-1.31-1.25 0-.387.198-.618.424-.978.76-1.209 2.145-3.379 2.145-3.379h-1.503l-5.997 7h12.688z"/></g></svg>