<svg height="18" viewBox="0 0 18 18" width="18" xmlns="http://www.w3.org/2000/svg"><path d="m0 0h18v18h-18z" fill="#f0f3fa"/><path d="m4.17 5h8.51l-1.17 1.73h-8.51l.15-.13 6.74-.13-6.74-.14.14-.13 6.75-.13-6.6-.14.15-.13 6.45-.13h-6.3l.14-.14 5.57-.13h-5.57l.15-.13 5.28-.14zm1.32 7h2.4l1.07-1.9c.25-.44.77-.73 1.34-.73h1.76c.95 0 1.7-.84 1.94-1.37h-3.28l.44-.99a3.47 3.47 0 0 0 -2.68.99h-3.29l-1.19 1.37h3.02c.12 0 .19.12.13.2zm4.64 1h-2.13l1.48-2.38c.24-.38.68-.62 1.15-.62h1.37z" fill="#0371bc"/></svg>