<svg height="18" viewBox="0 0 18 18" width="18" xmlns="http://www.w3.org/2000/svg"><path d="m0 0h18v18h-18z" fill="#f0f3fa"/><path d="m9 14a5 5 0 0 0 4.76-6.54l-2.76 1.05c.03.21.06.44.05.67-.02 1.1-.47 1.77-.7 1.96-.26.26-.33.04-.33-.1l-.08-1.78-.94.3-.95-.32-.08 1.78c0 .14-.07.37-.34.1-.22-.19-.67-.85-.7-1.95 0-.27.03-.52.08-.75l-2.74-1.04a5 5 0 0 0 4.73 6.62z" fill="#ee3a43"/><path d="m9.94 8.91-.94.3-.95-.4-.08-1.63c-.02-.4-.2-.31-.28-.21-.16.17-.43.56-.6 1.1l-2.67-1.07a5 5 0 0 1 9.21.08l-2.7 1.07c-.17-.58-.45-1-.62-1.18-.08-.1-.26-.19-.28.21l-.08 1.72z" fill="#02548e"/></svg>