<svg height="18" viewBox="0 0 18 18" width="18" xmlns="http://www.w3.org/2000/svg"><path d="m0 0h18v18h-18z" fill="#f0f3fa"/><path d="m9 14.5a5.5 5.5 0 1 0 0-11 5.5 5.5 0 0 0 0 11zm0 .5a6 6 0 1 0 0-12 6 6 0 0 0 0 12z" fill="#3271af" fill-rule="evenodd"/><path d="m14 9.02a4.99 4.99 0 0 1 -7.8 4.12c0-2.81 2-4.3 2.8-4.64a5.72 5.72 0 0 1 5 .52z" fill="#9ed5b6"/><path d="m11.83 13.13a5 5 0 0 1 -7.83-4.1 5.76 5.76 0 0 1 5.12-.5 5.1 5.1 0 0 1 2.71 4.6z" fill="#2b75bc"/><path d="m9.02 8.49.1.04a5.1 5.1 0 0 1 2.71 4.6 5 5 0 0 1 -5.64.01 5.15 5.15 0 0 1 2.83-4.64z" fill="#17a5a5"/><circle cx="9" cy="6" fill="#9e90c4" r="2"/></svg>