<svg height="18" width="18" xmlns="http://www.w3.org/2000/svg" xmlns:xlink="http://www.w3.org/1999/xlink"><linearGradient id="a" gradientUnits="userSpaceOnUse" x1="8.7" x2="8.7" y1="4.5" y2="8.6"><stop offset="0" stop-color="#08586a"/><stop offset=".51" stop-color="#2ba5b3"/><stop offset="1" stop-color="#cbe8ec"/></linearGradient><linearGradient id="b" gradientUnits="userSpaceOnUse" x1="8.96" x2="5.67" y1="8.94" y2="11.17"><stop offset="0" stop-color="#d0eaeb"/><stop offset=".44" stop-color="#29a0ae"/><stop offset="1" stop-color="#075366"/></linearGradient><linearGradient id="c" gradientUnits="userSpaceOnUse" x1="9.14" x2="13.01" y1="8.98" y2="10.71"><stop offset="0" stop-color="#cae7eb"/><stop offset=".4" stop-color="#33b7c0"/><stop offset="1" stop-color="#0a5e6f"/></linearGradient><path d="m0 0h18v18h-18z" fill="#f0f3fa"/><path d="m9.43 4.55c-1.96-.26-4.37.49-5.32.9 2.08.46 4.06 2.19 4.92 3.15l4.27-3.75c-.47.01-1.9-.03-3.87-.3z" fill="url(#a)"/><path d="m4.9 9.84-1.4-2.87 5.46 1.79c-.94 3-.33 5.5-.33 5.74-1.63-1.1-2.75-2.63-3.73-4.66z" fill="url(#b)"/><path d="m10.37 14.3-1.23-5.55c1.83-.16 4.34-1.78 5.36-2.57-.9 4.74-2.73 5.58-4.13 8.1z" fill="url(#c)"/></svg>