<svg height="18" viewBox="0 0 18 18" width="18" xmlns="http://www.w3.org/2000/svg"><path d="m0 0h18v18h-18z" fill="#f0f3fa"/><g fill="#ce1224"><path d="m9 13.94c-2.62 0-5-2.34-5-4.96a5.13 5.13 0 0 1 5-4.92 5.23 5.23 0 0 1 5 4.94h1a6.1 6.1 0 0 0 -6.13-6 5.99 5.99 0 1 0 .27 12 5.86 5.86 0 0 0 5.86-5.5h-1c-.18 2.5-2.5 4.44-5 4.44z"/><path d="m14.37 8.65h-4.12c-.1 0-.15-.07-.18-.14 0-.03 0-.1.03-.12l1.14-2.41c.06-.13 0-.2-.12-.13l-5.38 2.95c-.12.07-.12.2.03.2h1.38c.1 0 .15-.04.18.06 0 .03 0 .1-.03.13l-.72 1.5c-.48 1.03.33 1.8 1.23 1.36.97-.49 3.28-1.61 3.28-1.61a.8.8 0 0 0 .33-.39l.03-.06c.03-.16-.03-.22-.18-.16 0 0-1 .48-1.23.61-.54.29-.81-.13-.57-.67l.24-.52a.46.46 0 0 1 .39-.25h4.24z"/></g></svg>