<svg height="18" width="18" xmlns="http://www.w3.org/2000/svg" xmlns:xlink="http://www.w3.org/1999/xlink"><linearGradient id="a" gradientUnits="userSpaceOnUse" x1="4.57" x2="6.36" y1="6.66" y2="13.98"><stop offset="0" stop-color="#62c4ef"/><stop offset=".12" stop-color="#97d4f3"/><stop offset=".23" stop-color="#00b0e9"/><stop offset="1" stop-color="#006491"/></linearGradient><linearGradient id="b" gradientUnits="userSpaceOnUse" x1="6.79" x2="10.54" y1="4.44" y2="13.7"><stop offset="0" stop-color="#00b0e9"/><stop offset=".09" stop-color="#a8daf5"/><stop offset=".19" stop-color="#e2f3fd"/><stop offset=".35" stop-color="#86cef2"/><stop offset=".52" stop-color="#008fca"/><stop offset="1" stop-color="#005f8a"/></linearGradient><linearGradient id="c" gradientUnits="userSpaceOnUse" x1="10.86" x2="12.44" y1="4.62" y2="9.35"><stop offset=".04" stop-color="#e7cd87"/><stop offset=".39" stop-color="#d2a43c"/><stop offset="1" stop-color="#735717"/></linearGradient><linearGradient id="d" gradientUnits="userSpaceOnUse" x1="10.16" x2="12.66" y1="4" y2="11.47"><stop offset="0" stop-color="#00a4e5"/><stop offset=".2" stop-color="#58c1ee"/><stop offset=".44" stop-color="#0092cf"/><stop offset="1" stop-color="#00608b"/></linearGradient><path d="m0 0h18v18h-18z" fill="#f0f3fa"/><path d="m5.1 6.02c-.28.02-.43.29-.46.42-.07.3.06 1.07.14 1.41.66-.04 2.02 1.57 2.62 2.38l-1.3-3.6c-.22-.21-.73-.63-1-.6zm4.1-1.01c-1.06-1.04-1.66-.97-1.81-.8-.18.32-.04 1.28.06 1.72.38.04 1.25.84 1.57 1.16.06-.6.34-1.13.47-1.32z" fill="#00567c"/><path d="m5.26 12.04a3.84 3.84 0 0 0 3.3 1.96c-.28-.12-1.45-1.06-2.8-3.8-1.08-2.19-1.2-3.45-1.11-3.8-1.26 1.94-.48 3.84.61 5.64z" fill="url(#a)"/><path d="m5.77 5.29c-.01-.43 1.1-.93 1.66-1.12-.25.29-.15 2.36 1.64 5.55 1.44 2.56 2.45 3.22 2.78 3.24-.36.33-1.05.64-1.35.75-.46.25-1.23-.57-1.56-1-.18-.2-1-1.48-1.8-2.99-1.26-2.4-1.35-3.9-1.37-4.43z" fill="url(#b)"/><circle cx="11.5" cy="7.12" fill="url(#c)" r="2.5"/><circle cx="11.27" cy="6.02" fill="#fcf9e2" r=".89"/><path d="m9.76 7.1a6.27 6.27 0 0 1 -.57-2.88c.02-.16.16-.22.37-.22.43 0 1.04.23 1.66.63-1.02.52 1.07 4.15 1.77 4.81.4.39.64.4.73.34-.05.46-.28 1.1-.37 1.28-.14.27-.33.84-1.13 0-1-1.04-1.96-2.67-2.46-3.96z" fill="url(#d)"/></svg>