<svg height="18" viewBox="0 0 18 18" width="18" xmlns="http://www.w3.org/2000/svg"><path d="m0 0h18v18h-18z" fill="#f0f3fa"/><g fill="#e73917"><path d="m9 6.42c-1.82 0-3.3 1.22-3.3 2.73 0 1.5 1.48 2.73 3.3 2.73s3.3-1.22 3.3-2.73c0-1.5-1.48-2.73-3.3-2.73zm.03 5.38s-.14-2.67-2.8-4.06c0 0 2.55 1.3 5.48-.03 0 0-2.33 1.05-2.68 4.1zm-.03 1.05c-4.75-.14-5.08-3.73-5.08-3.73h-.05s.25 3.99 5.05 4.16a18.63 18.63 0 0 0 .15 0c4.8-.17 5.05-4.15 5.05-4.15h-.05s-.32 3.57-5.07 3.71zm-5.95-3.73s.43 4.28 5.95 4.44c5.52-.17 5.95-4.44 5.95-4.44h.05s-.13 4.63-5.94 4.88h-.12c-5.8-.25-5.94-4.87-5.94-4.87h.05zm5.96 3.06c-3.94-.03-4.2-3.07-4.2-3.07h-.06s.06 3.32 4.2 3.47a12.6 12.6 0 0 0 .13 0c4.14-.15 4.2-3.47 4.2-3.47h-.06s-.27 3.04-4.2 3.07z"/><path d="m4.69 6.93-.9-.54a8.1 8.1 0 0 1 5.35-2.39c2.3 0 4.36 1.5 5.1 2.4l-1.24.52a5.65 5.65 0 0 0 -4-1.92c-2.03 0-3.68 1.4-4.31 1.93z" fill-opacity=".6"/></g></svg>