<svg height="18" viewBox="0 0 18 18" width="18" xmlns="http://www.w3.org/2000/svg"><path d="m0 0h18v18h-18z" fill="#f0f3fa"/><g fill="#43b040"><path d="m9.11 14c-4.53 0-5.96-3.33-6.11-5h.1c.25 1.53 1.82 4.58 6.01 4.58 4.2 0 5.6-3.05 5.8-4.58h.09c-.07 1.67-1.36 5-5.89 5zm-.01-.94c-3.86 0-5.07-2.7-5.2-4.06h.1c.2 1.24 1.53 3.72 5.1 3.72 3.56 0 4.76-2.48 4.92-3.72h.08c-.06 1.35-1.15 4.06-5 4.06zm-4.3-4.06c.1 1.15 1.1 3.44 4.28 3.44 3.17 0 4.07-2.3 4.12-3.44h-.07c-.13 1.05-1.12 3.15-4.05 3.15-2.94 0-4.04-2.1-4.2-3.15z"/><path d="m9 12c1.93 0 3.5-1.34 3.5-3s-1.57-3-3.5-3-3.5 1.34-3.5 3 1.57 3 3.5 3zm.03-3.94c-1.32 0-2.3-.38-2.63-.56.87.63 2.63 2.36 2.63 4.23a6.22 6.22 0 0 1 2.48-4.21c-.32.19-1.22.54-2.48.54z" fill-rule="evenodd"/><path d="m4.15 7.75-.55-.2a6.13 6.13 0 0 1 5.52-3.55c3.2 0 5.05 2.23 5.58 3.34l-.6.41c-.53-.99-2.27-3.12-4.98-3.12s-4.44 2.13-4.97 3.12z" opacity=".5"/></g></svg>