<svg height="18" viewBox="0 0 18 18" width="18" xmlns="http://www.w3.org/2000/svg" xmlns:xlink="http://www.w3.org/1999/xlink"><linearGradient id="a" gradientUnits="userSpaceOnUse" x1="3.57" x2="15" y1="11.36" y2="7.69"><stop offset="0" stop-color="#9cc94c"/><stop offset="1" stop-color="#6f9d41"/></linearGradient><linearGradient id="b" gradientUnits="userSpaceOnUse" x1="6.74" x2="11.56" y1="11.81" y2="9.14"><stop offset=".18" stop-color="#c1d994"/><stop offset="1" stop-color="#719f41"/></linearGradient><path d="m0 0h18v18h-18z" fill="#f0f3fa"/><path d="m9 15a6 6 0 1 0 0-12 6 6 0 0 0 0 12zm0-2a4 4 0 1 0 0-8 4 4 0 0 0 0 8z" fill="url(#a)" fill-rule="evenodd"/><path d="m8.03 11.85.07.57.35.05c-.05-.2-.14-.63-.13-.67.52.05 1.7-.15 2.27-1.4.57-1.26.55-3.43.47-4.36a5.93 5.93 0 0 1 -2 1.57c-1.03.4-2.32.93-2.32 2.56 0 .9.51 1.34 1 1.57l-.02-.04a3.58 3.58 0 0 1 0-1.55c.2-.5 1.5-1.72 2.18-2.1-.55.52-1.7 1.74-1.83 2.54-.1.59-.07.98-.04 1.25z" fill="url(#b)"/></svg>