<svg height="18" viewBox="0 0 18 18" width="18" xmlns="http://www.w3.org/2000/svg"><path d="m0 0h18v18h-18z" fill="#f0f3fa"/><path d="m3.35 6.32c.23-.2.53-.32.85-.32h9.6c.32 0 .62.12.85.32.22.2.35.49.35.78v3.8c0 .3-.13.57-.35.78-.23.2-.53.32-.85.32h-9.6c-.32 0-.62-.12-.85-.32-.22-.2-.35-.49-.35-.78v-3.8c0-.3.13-.57.35-.78zm4.65 1.14v.54h-1.5v3h-1v-3h-1.5v-1h3.58c.06 0 .11.01.16.03l.14.1.09.15a.5.5 0 0 1 .03.18zm6 0v.54h-1.5v3h-1v-3h-1.5v-1h3.58c.06 0 .11.01.16.03l.14.1.09.15a.5.5 0 0 1 .03.18z" fill="#0052a4" fill-rule="evenodd"/></svg>