<svg height="18" viewBox="0 0 18 18" width="18" xmlns="http://www.w3.org/2000/svg"><path d="m0 0h18v18h-18z" fill="#f0f3fa"/><path d="m5 7h-2l2.79 6h1.95z" fill="#261565"/><path d="m15 6.03-.03-.03h-9.83l3.12 6.9 2.37-1.74-.73-2.1h-1.08c-.22-.08-.7-.17-.91 0l-.2.2c-.19-.22-.57-.72-.53-.94l.54-.12 1.48-.75.12-.96.7.82 4.73.13c.14-.5.22-1 .25-1.4zm-1.25 3.27-.84-.4 1.12.09c-.09.11-.18.22-.28.31zm.35-.4-1.36-.33h1.56l-.2.32zm.23-.39-2.1-.2 2.24-.08zm.17-.35-2.8-.23 2.94-.13zm.14-.38-3.52-.13 3.62-.2z" fill="#d82413"/></svg>