<svg height="18" viewBox="0 0 18 18" width="18" xmlns="http://www.w3.org/2000/svg"><path d="m0 0h18v18h-18z" fill="#181b1e"/><path d="m6 10.72c.18.35 1.01.36 1.46.4-.18.2-.34.3-.27.75.38.22.58.1 1.04.07-.22 1.2-2.2 2.21-2.12 3 .16.04.3.06.42.06.49 0 .78-.3 1.14-.41.23 0 .37.22.62.22.24-.03.42-.27.58-.46.13.06.13.09.36.09.35 0 .52-.35.64-.66.1-.3.13-.54.13-.8 0-.22 0-.45-.02-.72l.16-.1.8-.2c1.89-.57 2.3-1.56 2.3-2.51-.01-.59-.24-1.11-.24-1.51 0-.43.24-.71 1-.74-.43-.67-.1-.16-.18-.88a1.33 1.33 0 0 0 -.87-.32c-.68 0-1.05.45-1.32.94-.21.38-.32 1.06-.85 1.06-.24 0-.89-.6-1.02-.72a7.5 7.5 0 0 1 -2.1-3.28c-.3-.84-.24-1.02-.7-1-.39.6-.02 1.28.12 1.88-.4-.16-.65-.41-1.16-.38.1.46.97 1.26 1.3 1.55 1.34 1.2 2.7 1.68 3.44 2.22.34.25.64.62.65 1.15 0 .23-.03.48-.18.7.01-1.61-1.51-1.19-3.81-3.02-1.79-1.43-2.94-3.4-3.18-3.57-.11.34-.15.65-.14.92.05.93.68 1.45.77 1.65-.54.1-.78.27-.77.45.01.23.32.46.38.54a.77.77 0 0 0 -.13.54c.02.16.14.3.35.49.2.19.51.4.84.56-.17.18-.48.32-.48.64 0 .43.8.92 1.13.96.07 0 .1.03.1.07 0 .11-.15.31-.19.37z" fill="#fab03b"/></svg>