<svg height="18" viewBox="0 0 18 18" width="18" xmlns="http://www.w3.org/2000/svg"><path d="m0 0h18v18h-18z" fill="#f0f3fa"/><g fill="#3c4c05"><path d="m7 13h4v1h-4zm3.65-.33h-.89l.45-4.34zm-2.06 0h.88l-.44-5zm-1.18 0h.88l-.14-6.5a6.84 6.84 0 0 0 -4.7 2.5 6.97 6.97 0 0 1 4.4-1.84z"/><path d="m9.62 4c-2.24 0-5 1.67-6.62 3.33 2.06-1.33 5-2.33 6.62-2.33 1.9 0 2.2.83 2.2 1.33s-.44 1-1.03 1c-.58 0-.73-.33-.73-.66 0-.34.15-.5.3-.5.14 0 .29.1.29.33s-.2.28-.3.33c.15 0 .44-.1.44-.5s-.39-.5-.58-.5c-.6 0-.74.5-.74.84 0 .93.98 1.33 1.47 1.33 1.62 0 2.06-1.17 2.06-1.83 0-.67-.59-2.17-3.38-2.17z"/></g></svg>