<svg height="18" viewBox="0 0 18 18" width="18" xmlns="http://www.w3.org/2000/svg"><path d="m0 0h18v18h-18z" fill="#f0f3fa"/><path d="m7.6 7.04a14.03 14.03 0 0 1 6.4-3.04c-.42.23-.87.39-1.3.61a13 13 0 0 0 -4.86 4.28 20.23 20.23 0 0 0 -2.2 4.11h-2.64a29.85 29.85 0 0 1 3.06-4.31c.5-.57.96-1.17 1.54-1.65z" fill="#e63a26"/><path d="m9.42 8.08c.27-.38.56-.73.86-1.08l3.16 4.71c.14.21.31.47.23.75-.07.38-.47.64-.8.5-.18-.05-.3-.24-.4-.4-.29-.41-.69-1.14-.98-1.56h-4.03c.2-.4.39-.6.59-1h2.65c-.47-.67-.78-1.27-1.28-1.92z" fill="#a5a9ab"/></svg>