<svg height="18" viewBox="0 0 18 18" width="18" xmlns="http://www.w3.org/2000/svg"><path d="m0 0h18v18h-18z" fill="#f0f3fa"/><path d="m3.74 7.44c-.39-.97-.41-1.54 0-2.13.49-.72 1.3-.96 2.63-.77 1.33.2 2.89.75 4.4 1.83a10.56 10.56 0 0 1 3.22 3.55c.64 1.22.77 2.17.28 2.89-.4.57-1 .71-1.97.7-.97 0-2.02-.3-3.23-.9l-.25.46a8.4 8.4 0 0 0 3.48.93c1.02 0 1.87-.3 2.34-.98.58-.85.42-2.07-.23-3.32a11.11 11.11 0 0 0 -3.38-3.66 10.87 10.87 0 0 0 -4.54-1.98c-1.37-.2-2.54.07-3.13.92-.49.71-.46 1.68-.05 2.7l.43-.24zm.84 4.56-.4-.48.63-.5-.33-.46.63-.5-.3-.53.58-.53h-1.29l.57-2h4.49l-.62 2h-1.1l.3.53-.61.54.3.5-.58.45.28.5-.58.48zm2.54 0h4.11l-1.28-.98c.63-.1 1.9-.62 1.94-1.94.04-1.65-1.62-2.08-2.3-2.08l-.65 2.37h-.84l.18.16-.6.54.3.45-.56.5.25.5z" fill="#082d74"/></svg>