<svg height="18" viewBox="0 0 18 18" width="18" xmlns="http://www.w3.org/2000/svg"><path d="m0 0h18v18h-18z" fill="#f0f3fa"/><path d="m16 12-7-8-7 8zm-6.42-.51-.14.12h5.73l-2.44-2.78-2.64 2.23h.15c.2 0 .27-.11.28-.17v.6zm-1.2-.43h.21l-.59-1.76c-.82-.1-1.38-.32-1.38-.57 0-.21.4-.4 1-.51l-.5-1.46-1.63 1.84 2.57 2.2v-.1c0 .05.03.1.06.14zm-.33-.4a.2.2 0 0 0 0 .04zm.05.56-2.8-2.4-2.43 2.8h5.7l-.14-.13h-.3l-.02-.27zm1.6-.22v-.74l.34-.94c.89-.1 1.51-.33 1.51-.59 0-.22-.44-.42-1.1-.53l.49-1.4 1.59 1.81zm-.8.07h.2l.02-.06.11-1.64a9.76 9.76 0 0 1 -.36 0l-.08 1.28h-.03l.15.42zm.81-1.72v.02zm1.06-.36c-.19.04-.4.08-.65.11l.25-.7.4.07c.21.06.37.12.47.18.07.04.09.07.1.08-.01.01-.03.04-.1.08-.1.06-.26.12-.47.18zm-.98.15.28-.8a7.8 7.8 0 0 0 -.36-.02v.82zm-.09-1.04.43.04.57-1.6-1.7-1.97-1.67 1.9.58 1.68c.17-.03.35-.05.55-.06v-1.29h-.54c-.19 0-.26.12-.28.18v-.6h2.4l.07.79c-.03-.15-.2-.3-.3-.37h-.76l-.09 1.28a9.7 9.7 0 0 1 .36 0l.05-.85h.34v.87zm.4-.9a.2.2 0 0 0 0-.03zm-2.7 1.26.29-.06.23.68-.52-.1a1.8 1.8 0 0 1 -.47-.18.27.27 0 0 1 -.09-.08c0-.01.03-.04.1-.08.1-.06.25-.12.46-.18zm.59-.1.26.76.22.01v-.82c-.17 0-.33.02-.48.04zm.48 1.39-.15-.42h.15zm.78-.6.06-.86a9.43 9.43 0 0 0 -.35 0l-.06.86a9.4 9.4 0 0 0 .35 0z" fill="#2a497e" fill-rule="evenodd"/></svg>