<svg height="18" viewBox="0 0 18 18" width="18" xmlns="http://www.w3.org/2000/svg"><path d="m0 0h18v18h-18z" fill="#f0f3fa"/><g fill-rule="evenodd"><path d="m9 14.65a5.65 5.65 0 1 0 0-11.3 5.65 5.65 0 0 0 0 11.3zm0 .35a6 6 0 1 0 0-12 6 6 0 0 0 0 12z" fill="#838387"/><path d="m9 14a5 5 0 1 0 0-10 5 5 0 0 0 0 10zm.36-7.86a.36.36 0 1 1 -.72 0 .36.36 0 0 1 .72 0zm.71 1.07a.36.36 0 1 1 -.71 0 .36.36 0 0 1 .71 0zm-2.24.79-.26-.15-.36.72v.26h.19a.8.8 0 0 1 .5-.48h.74v3.1c0 .12-.1.2-.23.2h-.41v.35h2v-.35h-.42c-.12 0-.22-.08-.22-.2v-3.1h.75c.27 0 .43.32.47.48h.2v-.26l-.36-.72-.2.15zm.81-.79a.36.36 0 1 1 -.71 0 .36.36 0 0 1 .71 0z" fill="#00396d"/></g></svg>