<svg height="18" viewBox="0 0 18 18" width="18" xmlns="http://www.w3.org/2000/svg"><path d="m0 0h18v18h-18z" fill="#f0f3fa"/><g fill-rule="evenodd"><path d="m9.15 3.04a.33.33 0 0 0 -.3 0l-2.51 1.32a.27.27 0 0 0 -.15.24v2.64c0 .1.06.2.15.24l2.5 1.33c.1.05.22.05.31 0l2.51-1.33c.1-.05.15-.14.15-.24v-2.64c0-.1-.06-.2-.15-.24l-2.5-1.32zm1.91 1.76-2.06-1.1-2.06 1.1v2.24l2.06 1.12 2.06-1.12z" fill="#005890"/><path d="m5.66 8.2c.1-.06.21-.06.3 0l2.51 1.32c.1.04.15.14.15.24v2.64c0 .1-.05.2-.15.24l-2.5 1.32a.33.33 0 0 1 -.31 0l-2.5-1.32a.27.27 0 0 1 -.16-.24v-2.64c0-.1.06-.2.15-.24l2.51-1.33zm.15.62 2.15 1.13v2.26l-2.16 1.13-2.13-1.14v-2.25l2.13-1.13zm-.37 1.06h.74v.85h.95v.7h-.95v.85h-.74v-.86h-.94v-.69h.94z" fill="#6d97a7"/><path d="m12.04 8.2c.09-.06.2-.06.3 0l2.5 1.32c.1.04.16.14.16.24v2.64c0 .1-.06.2-.15.24l-2.51 1.32a.33.33 0 0 1 -.3 0l-2.51-1.32a.27.27 0 0 1 -.15-.24v-2.64c0-.1.05-.2.15-.24l2.5-1.33zm.15.62 2.14 1.13v2.26l-2.14 1.13-2.15-1.13v-2.26zm-1.13 1.91v.7h2.25v-.7z" fill="#02b1e0"/><path d="m9 7.12c.72 0 1.31-.53 1.31-1.2 0-.66-.59-1.2-1.31-1.2s-1.31.54-1.31 1.2c0 .67.59 1.2 1.31 1.2zm0-.55c.4 0 .7-.29.7-.65s-.3-.65-.7-.65-.7.3-.7.65c0 .36.3.65.7.65z" fill="#005890"/></g></svg>