<svg height="18" viewBox="0 0 18 18" width="18" xmlns="http://www.w3.org/2000/svg"><path d="m0 0h18v18h-18z" fill="#f0f3fa"/><path d="m14 4h-10v10h10zm-5.67 2.42c-.41.1-.78.3-1.1.58l-.94-.94a3.99 3.99 0 0 1 5.3-.11l-.87 1.01c-.3-.25-.66-.44-1.05-.54v5.16c.44-.11.84-.34 1.16-.64l.8 1.07a3.98 3.98 0 0 1 -5.5-.23l.94-.94c.34.35.77.62 1.26.74zm-2.27-.13.94.95a2.66 2.66 0 0 0 -.15 3.34l-.95.95a3.98 3.98 0 0 1 .16-5.24zm4.9.9.87-1.02a3.99 3.99 0 0 1 .05 5.61l-.82-1.09a2.66 2.66 0 0 0 -.1-3.5z" fill="#d12513"/></svg>