<svg height="18" viewBox="0 0 18 18" width="18" xmlns="http://www.w3.org/2000/svg"><g fill="#fff"><path d="m10.7 12.52-.63.64-.59-.59-1.7-1.7-1.22 1.22-1.92 1.91-.63-.63 2.85-2.86.28-.28-.47-.47.63-.64z"/><path d="m10.1 4.84.6.6-.96.95-.6-.6zm-.66 2.73-1.94-1.92-.2-.2.59-.6.9.91 1.16 1.15.23.23 3.14-3.13.67.67-3.14 3.14.44.43-.6.6-1.26-1.28zm3.72 2.54-.6.6-.96-.97.6-.6zm-6.22-2.1.2-.2-.41-.41-2.73-2.73.67-.67 3.14 3.13.44-.44.6.6-.21.2-3.2 3.2-.6-.59 2.1-2.1zm-2.1-.07.64-.64.93.93-.63.64-.93-.93zm7.72-.64.59.59-.6.6-1.3 1.3-.4.39.35.35 2.79 2.79-.67.67-3.14-3.14-.42.43-.6-.6zm-4.67 5.85-.6-.6.94-.93.6.6z"/></g></svg>