<svg height="18" viewBox="0 0 18 18" width="18" xmlns="http://www.w3.org/2000/svg"><path d="m0 0h18v18h-18z" fill="#f0f3fa"/><path d="m14 4-1.84 1.1 1.84 1.1zm0 8.8-1.84-1.1 1.84-1.1zm-7.33-8.8-1.84 1.1 1.84 1.1 1.83-1.1z" fill="#a1a2a3"/><path d="m10.33 4-1.83 1.1 1.83 1.1 1.84-1.1z" fill="#a1a2a3"/><path d="m14 10.6-1.83-1.1-1.84 1.1 1.84 1.1zm-5.5-3.3-1.83-1.1-1.84 1.1 1.84 1.1zm5.5 5.5-1.83-1.1-1.84 1.1 1.84 1.1zm-5.5-1.1-1.84-1.1-1.83 1.1 1.83 1.1z" fill="#474645"/><path d="m10.33 6.2-1.83-1.1-1.84 1.1 1.84 1.1zm0 2.2-1.83-1.1-1.84 1.1 1.84 1.1zm0 2.2-1.83-1.1-1.84 1.1 1.84 1.1z" fill="#dddede"/><path d="m12.17 9.5-1.84-1.1-1.83 1.1 1.83 1.1zm-3.67 0-1.83-1.1-1.84 1.1 1.84 1.1zm0 4.4 1.83 1.1 1.84-1.1-1.84-1.1zm-3.67 0 1.84 1.1 1.83-1.1-1.83-1.1z" fill="#a1a2a3"/><path d="m10.33 12.8-1.83-1.1-1.84 1.1 1.84 1.1z" fill="#dddede"/><path d="m14 6.2-1.83-1.1-1.84 1.1 1.84 1.1z" fill="#474645"/><path d="m3 4v2.2l1.83-1.1z" fill="#a1a2a3"/></svg>