<svg height="18" viewBox="0 0 18 18" width="18" xmlns="http://www.w3.org/2000/svg"><path d="m0 0h18v18h-18z" fill="#f0f3fa"/><path d="m7.78 3a.8.8 0 0 0 -.78.82v1.29c0 .5-.38.89-.85.89h-1.37a.8.8 0 0 0 -.78.82v2.36c0 .45.35.82.78.82h1.37c.47 0 .85.4.85.9v3.28c0 .45.35.82.78.82h2.44a.8.8 0 0 0 .78-.82v-3.39c0-.5.38-.79.72-.79h1.51c.43 0 .77-.37.77-.82v-2.36a.8.8 0 0 0 -.78-.82h-1.56c-.37 0-.66.32-.66.7v2.48a.8.8 0 0 1 -.78.82h-2.44a.8.8 0 0 1 -.78-.82v-2.36a.8.8 0 0 1 .78-.82h2.52c.4 0 .7-.34.7-.73v-1.45a.8.8 0 0 0 -.78-.82z" fill="#662508"/></svg>