<svg height="18" viewBox="0 0 18 18" width="18" xmlns="http://www.w3.org/2000/svg"><path d="m0 0h18v18h-18z" fill="#e60012"/><path d="m7.51 12.86v-6.51l.01-.07a.12.12 0 0 1 .09-.03l1-.01a.12.12 0 0 0 .1-.04.13.13 0 0 0 .03-.1v-.97a.13.13 0 0 0 -.05-.1.12.12 0 0 0 -.08-.03h-3.49a.12.12 0 0 0 -.08.04.13.13 0 0 0 -.04.09v.99c0 .03.02.06.04.09.02.02.05.04.09.04h.96c.03 0 .06.01.08.04.03.02.04.05.04.09v6.5c0 .03.02.06.04.08.02.03.05.04.08.04l1.04-.01c.03 0 .06-.01.08-.04.03-.03.06-.06.06-.09zm4.12-7.74v3.02c0 .03-.02.06-.05.08a.13.13 0 0 1 -.08.04h-1.01a.13.13 0 0 1 -.09-.04.12.12 0 0 1 -.03-.08v-3.01a.12.12 0 0 0 -.04-.09.12.12 0 0 0 -.04-.03.1.1 0 0 0 -.05-.01h-1.12a.13.13 0 0 0 -.08.04.12.12 0 0 0 -.04.08v7.76a.12.12 0 0 0 .04.09.12.12 0 0 0 .09.03h1.12c.03 0 .06-.03.08-.05a.12.12 0 0 0 .04-.08v-3.3c0-.03.01-.06.04-.09a.13.13 0 0 1 .08-.03h1c.04 0 .07.02.09.04s.05.05.05.08v3.3c0 .04 0 .07.03.1.02.01.05.03.09.03h1.13c.03 0 .06-.02.08-.04a.12.12 0 0 0 .04-.09v-7.74a.12.12 0 0 0 -.04-.08c-.02-.02-.05-.05-.08-.05h-1.14a.13.13 0 0 0 -.09.04c-.02.02-.02.04-.02.07z" fill="#fff"/></svg>