<svg height="18" viewBox="0 0 18 18" width="18" xmlns="http://www.w3.org/2000/svg"><path d="m0 0h18v18h-18z" fill="#f0f3fa"/><g fill="#006143"><path d="m6.42 5c.81 0 1.52.47 1.91 1.17l-.56.3c-.29-.47-.78-.79-1.35-.79-.88 0-1.6.77-1.6 1.72-.02.16-.02.3-.01.4l-.57.1v-.01h-.01c-.88 0-1.6.77-1.6 1.71 0 .95.72 1.72 1.6 1.72.53 0 1-.28 1.3-.71l.44.48c-.4.56-1.03.91-1.74.91-1.23 0-2.23-1.07-2.23-2.4 0-1.3.98-2.37 2.2-2.4.09-1.22 1.05-2.2 2.22-2.2zm5.16 0a2.2 2.2 0 0 0 -1.91 1.17l.56.3c.29-.47.78-.79 1.35-.79.88 0 1.6.77 1.6 1.72.02.16.02.3.01.4l.57.1v-.01h.01c.88 0 1.6.77 1.6 1.71 0 .95-.72 1.72-1.6 1.72-.53 0-1-.28-1.3-.71l-.44.48c.4.56 1.03.91 1.74.91 1.23 0 2.23-1.07 2.23-2.4 0-1.3-.98-2.37-2.2-2.4-.09-1.23-1.05-2.2-2.22-2.2zm-2.55 1 2.47 6h-5zm-1.03 5h2l-.36-1h-1.27zm1.29-2-.27-.73-.27.73z"/><path d="m5 7.04 1.74-1.04.9 1.62-1.74 1.03zm-2 2.34 1.74-1.03.91 1.61-1.74 1.04zm10-2.34-1.74-1.04-.9 1.62 1.74 1.03zm2 2.34-1.74-1.03-.91 1.61 1.74 1.04z" opacity=".5"/></g></svg>