<svg height="18" width="18" xmlns="http://www.w3.org/2000/svg"><path d="m0 0h18v18h-18z" fill="#9e0b0f"/><path d="m4.833 8.47c1.279-2.367 2.512-3.3 2.969-3.47.66.115.834 1.357.839 1.964-1.363-.007-1.696.548-1.74.757-.091.42 0 1.04.602 1.5.735.56.948.946.984 1.043.252.546 0 1.082-.159 1.281-1.081 1.23-2.464 1.481-3.02 1.453-2.108-.26-1.195-3.127-.475-4.529zm8.334 0c-1.277-2.367-2.511-3.3-2.967-3.47-.66.115-.835 1.357-.84 1.964 1.364-.007 1.725.444 1.764.757.06.49-.069 1.023-.625 1.5-.703.602-.949.946-.984 1.043-.253.546 0 1.082.158 1.281 1.082 1.23 2.465 1.481 3.02 1.453 2.108-.26 1.195-3.127.475-4.529z" fill="#fff"/></svg>