<svg height="18" viewBox="0 0 18 18" width="18" xmlns="http://www.w3.org/2000/svg"><path d="m0 0h18v18h-18z" fill="#f0f3fa"/><path d="m4 4.94v2.01c.68.27 2.05.8 2.16.8.14 0 .27-.13.27-.4 0-.21-.18-.09-.27 0 .11-.43.5-.62.68-.67h-.4l.8-.4-.27-.13c1.22-.4 1.22-.54 2.7-.54 1.2 0 1.58.63 1.63.94h-.4c-.05-.05-.22-.14-.55-.14-.32 0-.58.18-.67.27.1-.1.4-.13.54-.13 0 .13.05.4.27.4.21 0 .18-.27.13-.4.11 0 .23.09.27.13h.95c.86 0 .9.72.8 1.08 0-.22-.35-.27-.53-.27-1.3 0-1.62.98-1.62 1.47 0 1.3 1.62 1.88 2.43 2.02a8.57 8.57 0 0 0 1.08-4.03v-2.01c-.22.21-1 .27-1.35.27-1.84 0-3.1-.8-3.51-1.21-1.09.94-3.25 1.2-3.79 1.2a5.3 5.3 0 0 1 -1.35-.25z" fill="#035688"/><path d="m9.08 4.04-.08.5c.59.3 2.14.94 3.65.94.22 0 .71-.02 1.04-.12v1.34c0 .85-.19 2.83-1.05 4.22l.28.06a8.57 8.57 0 0 0 1.08-4.03v-2.01c-.22.21-1 .27-1.35.27-1.84 0-3.1-.8-3.51-1.21z" fill="#6e84ab"/><path d="m4.31 7.07v-1.73c.14.05.53.14 1.18.14.8 0 2.43-.14 3.51-.94l.08-.5c-1.1.9-3.2 1.17-3.73 1.17a5.3 5.3 0 0 1 -1.35-.27v2.01z" fill="#416b98"/><path d="m5.76 8.3a5.09 5.09 0 0 1 -1.76-.82c.43 4.83 3.6 7.02 5.14 7.51a7.43 7.43 0 0 0 3.64-3.62 4.8 4.8 0 0 1 -1.75-.67c0 .21-.18.44-.27.53a1.8 1.8 0 0 0 -.54-.53c-.22.43-.72.71-.95.8 0-.21-.18-.53-.27-.67-.32.43-.86.63-1.08.67 0-.64-.18-.98-.27-1.07-.22.1-.54.5-.68.67a3.74 3.74 0 0 1 -.4-1.2c-.11.1-.23.48-.27.66a4.98 4.98 0 0 1 -.4-1.6l-.28.4c-.1-.43.05-.9.14-1.08z" fill="#f8b21e"/><path d="m12.48 11.32a6.36 6.36 0 0 1 -3.48 3l.07.66.07.02a7.43 7.43 0 0 0 3.64-3.62 3.5 3.5 0 0 1 -.3-.06z" fill="#fbce7d"/><path d="m4.24 7.64c.45 2.24 1.88 6 4.76 6.69l.1.66c-1.55-.52-4.67-2.71-5.1-7.5.06.04.14.1.24.15z" fill="#f9c152"/></svg>