<svg height="18" viewBox="0 0 18 18" width="18" xmlns="http://www.w3.org/2000/svg" xmlns:xlink="http://www.w3.org/1999/xlink"><linearGradient id="a" gradientUnits="userSpaceOnUse" x1="2.9" x2="5.71" y1="8.2" y2="12.89"><stop offset=".62" stop-color="#5f0e0d"/><stop offset=".82" stop-color="#aa1d26"/></linearGradient><linearGradient id="b" gradientUnits="userSpaceOnUse" x1="3.79" x2="12.03" y1="10.3" y2="6.3"><stop offset=".44" stop-color="#ec2427"/><stop offset=".93" stop-color="#601416"/></linearGradient><linearGradient id="c" gradientUnits="userSpaceOnUse" x1="4.33" x2="5.28" y1="13.12" y2="12.1"><stop offset="0" stop-color="#5b0c11"/><stop offset="1" stop-color="#98171c"/></linearGradient><path d="m0 0h18v18h-18z" fill="#f0f3fa"/><path d="m4.2 12.52-.21.48a6.92 6.92 0 0 1 -.99-3.12 5.57 5.57 0 0 1 5.05-5.88l-2.72 1.46-1.8 2.9z" fill="url(#a)"/><path d="m6.52 12.52h-2.3a5.52 5.52 0 0 1 -1.03-2.89c0-3.95 2.95-5.63 5.11-5.63 1.74 0 2.93.8 3.3 1.2l-.03.07a5.09 5.09 0 0 0 -2.85-.78c-1.81 0-4.22 1.28-4.22 3.71 0 1.95 1.35 3.68 2.02 4.3z" fill="url(#b)"/><path d="m6.32 13h-2.33l.2-.48h2.34z" fill="url(#c)"/><path d="m10.94 6-.7 6h4.06l.18-1.55h-2.28l.06-.68h1.96l.17-1.58h-1.94l.1-.63h2.28l.17-1.56zm-5.28 0h1.68l-.43 3.51c-.05.3 0 .9.62.9.63 0 .82-.67.84-1l.45-3.41h1.76l-.51 3.89c-.04.7-.6 2.11-2.54 2.11-2.42 0-2.4-1.4-2.37-1.85.02-.36.34-2.92.5-4.15z"/></svg>