<svg fill="none" height="18" viewBox="0 0 18 18" width="18" xmlns="http://www.w3.org/2000/svg"><path d="m0 0h18v18h-18z" fill="#f0f3fa"/><path clip-rule="evenodd" d="m9 14c2.431 0 4.4587-1.7178 4.9243-4h-2.1011c-.4095 1.1674-1.5188 2.0043-2.82299 2.0043-1.3042 0-2.41348-.8369-2.82298-2.0043h-2.10153c.46557 2.2822 2.49334 4 4.9243 4zm2.9498-5.5h2.0502c-.2521-2.52666-2.3945-4.5-5-4.5-2.60554 0-4.74789 1.97334-5 4.5h2.05059c.02904-.17209.07271-.3392.12966-.5h5.63995c.0569.1608.1006.32791.1296.5zm-.7235-1.5c-.5477-.61127-1.34211-.99573-2.22609-.99573-.88399 0-1.67843.38446-2.2261.99573z" fill="#c39e06" fill-rule="evenodd"/></svg>