<svg height="18" viewBox="0 0 18 18" width="18" xmlns="http://www.w3.org/2000/svg"><path d="m0 0h18v18h-18z" fill="#f0f3fa"/><path d="m6.77 4.53 1.29 1.47.88-2c-.78.01-1.52.2-2.17.53z" fill="#ffdd84"/><path d="m6.82 13.5 1.22-1.5.88 2c-.75 0-1.46-.18-2.1-.5z" fill="#1270a4"/><path d="m11.25 4.53-1.27 1.47-1-2h.02c.81 0 1.57.2 2.25.53z" fill="#fdb513"/><path d="m11.2 13.48-1.23-1.48-1 2h.01c.8 0 1.56-.19 2.22-.52z" fill="#06466c"/><path d="m9 4h-.07l-.87 2h1.93l-1-2z" fill="#fdca4d"/><path d="m4.58 11.35 1.42-1.45-2-.82c.01.83.22 1.6.58 2.28z" fill="#27bfcc"/><path d="m4.56 6.72 1.44 1.41-2 .9v-.01c0-.83.2-1.61.56-2.3z" fill="#9ad9e2"/><path d="m4 9.03v.07l2 .8v-1.78l-2 .9z" fill="#69cbd6"/><path d="m13.42 11.34-1.42-1.47 2-.82c-.01.83-.22 1.6-.58 2.29z" fill="#d22135"/><path d="m13.42 6.65-1.42 1.46 2 .9v-.01c0-.84-.2-1.64-.58-2.34z" fill="#f16a78"/><path d="m14 9v.07l-2 .8v-1.77z" fill="#eb4a5c"/><path d="m8.98 14h-.08l-.87-2h1.93l-1 2z" fill="#0f5980"/><path d="m11.52 4.68a5.03 5.03 0 0 1 1.77 1.75l-1.5-.24z" fill="#f68d20"/><path d="m6.48 4.68a5.03 5.03 0 0 0 -1.78 1.76l1.5-.25.28-1.5z" fill="#86cfb1"/><path d="m11.48 4.66-1.48 1.54h1.84l-.3-1.5-.06-.03z" fill="#f9a55d"/><path d="m6.51 4.67 1.5 1.52h-1.87l.31-1.5.05-.02z" fill="#65c39e"/><path d="m11.84 8 1.45-1.57-1.45-.25z" fill="#f47822"/><path d="m6.16 8-1.46-1.56 1.46-.25z" fill="#6ac59c"/><path d="m10 6.19h1.84v1.81h-1.84z" fill="#f6931e"/><path d="m8 6.2h-1.85v1.8h1.85z" fill="#47bb8a"/><path d="m6.52 13.34a5.02 5.02 0 0 1 -1.78-1.75l1.5.25z" fill="#27b1e5"/><path d="m6.55 13.36 1.45-1.52h-1.8l.3 1.5z" fill="#11a1d5"/><path d="m6.2 10-1.46 1.6 1.46.24z" fill="#5fccf3"/><path d="m8 11.84h-1.8v-1.84h1.8z" fill="#22aee3"/><path d="m11.5 13.34a5.02 5.02 0 0 0 1.77-1.75l-1.5.25-.28 1.5z" fill="#7c1228"/><path d="m11.46 13.36-1.46-1.52h1.82l-.31 1.5z" fill="#921944"/><path d="m11.81 10 1.46 1.6-1.46.24z" fill="#981a40"/><path d="m10 11.84h1.82v-1.84h-1.82z" fill="#af2d5d"/></svg>