<svg height="18" width="18" xmlns="http://www.w3.org/2000/svg"><path d="m0 0h18v18h-18z" fill="#2f4888"/><path d="m9.31 5h1.88c1.53 0 2.81 1.19 2.81 2.57 0 1.4-1.3 2.57-2.81 2.57h-4.39c-.17 0-.31.13-.31.29s.14.28.31.28h2.81l-.4.86h-2.4c-.76 0-1.26-.46-1.26-1.14 0-.69.5-1.14 1.25-1.14h4.38c.95 0 1.87-.73 1.87-1.72s-.92-1.71-1.87-1.71h-2.28l.4-.86zm-2.5 3.71c-.95 0-1.87.77-1.87 1.72s.92 1.71 1.87 1.71h2.29l-.4.86h-1.9c-1.5 0-2.8-1.17-2.8-2.57 0-1.39 1.28-2.57 2.81-2.57h4.38c.17 0 .31-.13.31-.29s-.14-.28-.31-.28h-2.81l.4-.86h2.4c.76 0 1.26.46 1.26 1.14 0 .69-.5 1.14-1.25 1.14h-4.39z" fill="#fff"/></svg>