<svg height="18" width="18" xmlns="http://www.w3.org/2000/svg"><path d="m0 0h18v18h-18z" fill="#f0f3fa"/><path d="m12.77 7.638c-1.088-.227-2.567-.363-3.805-.332.499-.936 1.148-1.842 1.782-2.4l-.166-.121s-1.6.966-2.747 3.547l.528.166c.12-.272.272-.559.408-.83a21.31 21.31 0 0 1 4.075.377c-1.494.257-4.242.951-5.842 4.438 0 0 .287-1.72 1.057-3.245.166.06.513.21.513.21l.408-.346c-1.072-.514-2.294-.83-3.608-1.012 0 0 .876-.272 2.415-.377l.227-.377c-2.446.105-4.333.8-3.97.905.422.106 1.645.166 3.381.77-1.072 2.355-1.268 5.103-.86 5.329.392.211 1.298-2.883 3.11-4.332 0 0 1.6.8 2.913 2.098a.412.412 0 0 1 .181-.136c-.724-.936-1.72-1.812-2.642-2.28.68-.467 1.948-.95 3.17-1.222.483-.106 1.54-.423-.529-.83z" fill="#325e9e"/><path d="m13.072 12.951a.357.357 0 0 0 .362-.362.349.349 0 0 0 -.362-.362.358.358 0 0 0 -.363.362c0 .197.166.362.363.362zm-1.917-8.227c.196 0 .362-.15.362-.362a.367.367 0 0 0 -.362-.362.367.367 0 0 0 -.363.362c0 .196.166.362.363.362z" fill="#c64a4c"/></svg>