<svg height="18" viewBox="0 0 18 18" width="18" xmlns="http://www.w3.org/2000/svg"><path d="m0 0h18v18h-18z" fill="#f0f3fa"/><path d="m3 7c.81-.52 1.73-1.14 2.7-1.56 2.23-.97 4.41-1.46 6.1-1.44 1.62.02 2.79.5 3.12 1.42.14.42.1 1.04-.13 1.58h-.54c.17-.46.19-1 .04-1.38-.66-1.7-4.64-1.69-8.65.16-.7.34-1.4.84-2.02 1.22zm12 4c-.81.52-1.73 1.14-2.7 1.56-2.23.97-4.41 1.46-6.1 1.44-1.62-.02-2.79-.5-3.12-1.42-.14-.42-.1-1.04.13-1.58h.54c-.17.46-.19 1-.04 1.38.66 1.7 4.64 1.69 8.65-.16.7-.34 1.4-.84 2.02-1.22z" fill="#722533"/><path d="m6 7.23v1.54h.85c.27 0 .46-.03.54-.1a.6.6 0 0 0 .2-.46h.11v1.39h-.12c-.03-.2-.07-.34-.11-.37a.44.44 0 0 0 -.2-.16 1.2 1.2 0 0 0 -.42-.07h-.85v1.34c0 .16 0 .3.04.33 0 .03.04.07.12.1.03.03.11.03.18.03h.7c.27 0 .47 0 .58-.03.12-.03.24-.1.35-.2.16-.13.27-.3.43-.56h.15l-.38.99h-3.5v-.1h.15c.12 0 .23-.03.31-.07a.28.28 0 0 0 .16-.13c.04-.06.04-.2.04-.4v-2.6c0-.27-.04-.4-.08-.47a.69.69 0 0 0 -.43-.13h-.15v-.1h3.5v.9h-.12c-.04-.2-.08-.37-.12-.44a1.65 1.65 0 0 0 -.27-.2 1.89 1.89 0 0 0 -.5-.03zm6.82-.2.1 1.3h-.1a1.83 1.83 0 0 0 -.6-.86 1.7 1.7 0 0 0 -.9-.25c-1.07 0-1.59.88-1.59 1.86 0 1 .64 1.67 1.66 1.67.29 0 .55-.06.77-.16s.47-.31.73-.63l.11.06c-.22.35-.48.6-.77.76-.3.16-.66.22-1.06.22-1.14 0-2.17-.71-2.17-1.92 0-1.23 1.08-2.05 2.24-2.05.33 0 .62.06.95.19.08.03.15.06.19.06.07 0 .1-.03.14-.06.08-.06.11-.13.11-.22z" fill="#2b2a29"/></svg>