<svg height="18" viewBox="0 0 18 18" width="18" xmlns="http://www.w3.org/2000/svg"><path d="m0 0h18v18h-18z" fill="#f0f3fa"/><path d="m4.43 8.11 3.6 3.66c.24.25.22.63-.04.86a.68.68 0 0 1 -.91-.04l-3.82-3.88a.87.87 0 0 1 .05-1.29l2.8-2.42c.4-.34 1.02-.32 1.38.05l3.82 3.89c.24.24.23.63-.04.86a.68.68 0 0 1 -.91-.04l-3.6-3.66z" fill="#040707"/><path d="m13.57 9.89-3.6-3.66a.58.58 0 0 1 .04-.86.68.68 0 0 1 .91.04l3.82 3.88c.37.37.34.95-.05 1.29l-2.8 2.42c-.4.34-1.02.32-1.38-.05l-3.82-3.88a.58.58 0 0 1 .04-.85.68.68 0 0 1 .91.03l3.6 3.66z" fill="#ffcf06"/></svg>