<!-- by TradingView --><svg width="18" height="18" viewBox="0 0 18 18" xmlns="http://www.w3.org/2000/svg"><path fill="#F0F3FA" d="M0 0h18v18H0z"/><path d="M9.18 12H7.33v-1h1.69c.47 0 .98-.3.98-.8 0-.48-.5-.7-.98-.7h-.29C7.67 9.45 7 8.95 7 7.78S7.71 6 8.82 6h1.85v1H8.95c-.47 0-.95.3-.95.79 0 .48.47.71.95.71h.32c1.05.05 1.73.52 1.73 1.71 0 1.14-.71 1.79-1.82 1.79ZM6 9.89V6H5v3.85C5 10.68 4.43 11 4 11c-.43 0-1-.4-1-1.15V6H2v3.89C2 11.18 2.9 12 4 12c1.09 0 2-.82 2-2.11ZM16 9.89V6h-1v3.85c0 .83-.57 1.15-1 1.15-.43 0-1-.4-1-1.15V6h-1v3.89c0 1.29.9 2.11 2 2.11 1.09 0 2-.82 2-2.11Z" fill="#004F9F"/></svg>