<svg height="18" viewBox="0 0 18 18" width="18" xmlns="http://www.w3.org/2000/svg" xmlns:xlink="http://www.w3.org/1999/xlink"><linearGradient id="a" gradientUnits="userSpaceOnUse" x1="4" x2="10.52" y1="5.63" y2="11.47"><stop offset="0" stop-color="#030303"/><stop offset="1" stop-color="#505254"/></linearGradient><path d="m0 0h18v18h-18z" fill="#f0f3fa"/><path d="m4 12.38v-6.8l6.34-1.58 3.66 1.59v6.8l-6.34 1.61z"/><path d="m7.66 14-3.66-8.41 6.34-1.59 2.12 6.02z" fill="url(#a)"/><g fill="#fff"><path d="m5.64 7.72h-.64v1.38a1.2 1.2 0 1 0 2.41 0v-1.38h-.64v1.38a.56.56 0 0 1 -1.13 0zm4.68 0h-2.42v.65h.8v1.93h.65v-1.93h.77z"/><path d="m10.32 10.3.9-2.58h1.08l.91 2.58h-.74l-.15-.53h-1.1l-.16.53zm1.1-1.13.24-.8h.21l.26.8z" fill-rule="evenodd"/></g></svg>