<svg height="18" viewBox="0 0 18 18" width="18" xmlns="http://www.w3.org/2000/svg" xmlns:xlink="http://www.w3.org/1999/xlink"><linearGradient id="a" gradientUnits="userSpaceOnUse" x1="5.25" x2="11.06" y1="5.27" y2="11.51"><stop offset="0" stop-color="#adc2d6"/><stop offset=".64" stop-color="#94b0cb" stop-opacity=".58"/><stop offset="1" stop-color="#a6bcd3"/></linearGradient><linearGradient id="b" gradientUnits="userSpaceOnUse" x1="5.25" x2="11.06" y1="5.27" y2="11.51"><stop offset=".64" stop-color="#94b0cb" stop-opacity=".58"/><stop offset="1" stop-color="#a6bcd3"/></linearGradient><linearGradient id="c" gradientUnits="userSpaceOnUse" x1="8.58" x2="13.44" y1="5.54" y2="11.35"><stop offset="0" stop-color="#112335"/><stop offset=".5" stop-color="#162c42" stop-opacity=".54"/><stop offset="1" stop-color="#111c27" stop-opacity=".64"/></linearGradient><linearGradient id="d" gradientUnits="userSpaceOnUse" x1="8.58" x2="13.44" y1="5.54" y2="11.35"><stop offset="0" stop-color="#112335"/><stop offset=".5" stop-color="#162c42" stop-opacity=".54"/></linearGradient><path d="m0 0h18v18h-18z" fill="#f0f3fa"/><path d="m5.86 5h2.58v4.06c0 .18.12.47.56.47s.56-.29.56-.47v-4.06h2.58a4.82 4.82 0 0 1 -.62 8l-1-1.5c.7-.27 1.54-1.22 1.54-2.17 0-1.43-.56-2.3-.84-2.44v2.17c0 .72-.44 1.94-2.22 1.94s-2.22-1.22-2.22-1.94v-2.16a3.8 3.8 0 0 0 -.84 2.3c0 .87.7 2.04 1.53 2.3l-.99 1.5a4.82 4.82 0 0 1 -.62-8z" fill="#369"/><path d="m6.08 5.14-.22-.14a4.82 4.82 0 0 0 .62 8l-.12-.27a4.6 4.6 0 0 1 -2.08-3.93c0-1.53.67-2.76 1.8-3.65z" fill="url(#a)"/><path d="m11.64 12.73-.83-1.23a2.84 2.84 0 0 0 1.52-2.3c0-1.3-.53-2.09-.88-2.42-.1-.09-.23-.01-.23.11.42.28.84 1.36.84 2.3 0 .95-.84 2.04-1.53 2.3l.99 1.51c.07-.04.05-.23.12-.27z" fill="url(#b)"/><path d="m9 11c-1.66-.07-2-1.24-2-1.94v-1.9c0-.15-.12-.2-.2-.07a.24.24 0 0 0 -.02.1v1.87c0 .72.44 1.94 2.22 1.94z" fill="url(#a)"/><path d="m8.44 5h-2.58l.22.14h2.09zm1.12 0h2.58l-.22.14h-2.09z" fill="#6e92b6"/><path d="m11.92 5.14.22-.14a4.82 4.82 0 0 1 -.62 8l.12-.27a4.68 4.68 0 0 0 2.08-3.94c0-1.53-.67-2.76-1.8-3.65z" fill="url(#c)"/><g fill="url(#d)"><path d="m9 9.53c-.7 0-.83-.29-.83-.47v-3.92l.27-.14v4.06c0 .16.14.47.56.47z"/><path d="m6.36 12.73.7-1.23c-.7-.27-1.4-1.36-1.4-2.3 0-1.19.48-2.08.88-2.44.1-.09.24 0 .24.13a4.2 4.2 0 0 0 -.84 2.3c0 .82.64 2 1.53 2.3l-.99 1.51c-.07-.04-.05-.23-.12-.27z"/></g></svg>