<svg height="18" viewBox="0 0 18 18" width="18" xmlns="http://www.w3.org/2000/svg"><path d="m0 0h18v18h-18z" fill="#003449"/><g fill="#f0f3fa"><path d="m7 13h-2.64a.35.35 0 0 1 -.36-.34v-5.28c0-.11.06-.22.15-.28l4.65-3.04a.38.38 0 0 1 .4 0l4.64 3.02c.1.06.16.17.16.28v5.3c0 .19-.16.34-.36.34h-2.64v-1h1.82c.1 0 .18-.08.18-.17v-3.83a.17.17 0 0 0 -.08-.14l-3.82-2.57a.2.2 0 0 0 -.2 0l-3.83 2.57a.17.17 0 0 0 -.07.14v3.83c0 .1.08.17.18.17h1.82z"/><path d="m7 11h-1v-2.6c0-.12.07-.23.18-.3l2.6-1.5a.44.44 0 0 1 .44 0l2.58 1.5c.12.06.2.18.2.3v2.6h-1v-2.28a.19.19 0 0 0 -.1-.16l-1.89-1.03-1.91 1.02a.2.2 0 0 0 -.1.15z"/></g></svg>