<svg height="18" width="18" xmlns="http://www.w3.org/2000/svg"><path d="m0 0h18v18h-18z" fill="#f0f3fa"/><path d="m8 9-3-5-2 3 1 2-1 2 2 3z" fill="#fbd80e"/><path d="m6.3 4.006h5c.222-.031.794.098 1.303.86l1.615 2.848a.558.558 0 0 1 .021.037l-.02-.037c-.145-.234-.631-.714-1.617-.714h-4.602zm5.006 9.99h-5.006l1.7-2.996h4.61c1.044 0 1.508-.618 1.59-.77l-1.59 2.906c-.51.762-1.082.89-1.304.86z" fill="#002a4e"/><path d="m11 9-1-2h2.997c1.24 0 1.835 1.35 2.003 2-.613 1.56-1.574 2.038-2.003 2.002h-2.997l1-2.001z" fill="#778c9a"/></svg>