<svg fill="none" height="18" width="18" xmlns="http://www.w3.org/2000/svg" xmlns:xlink="http://www.w3.org/1999/xlink"><linearGradient id="a" gradientUnits="userSpaceOnUse" x1="8.552" x2="12.15" y1="8.203" y2="12.943"><stop offset="0" stop-color="#b2b3b3"/><stop offset=".264" stop-color="#858482"/><stop offset="1" stop-color="#41433d"/></linearGradient><path d="m0 0h18v18h-18z" fill="#ed1b24"/><g clip-rule="evenodd" fill-rule="evenodd"><path d="m9 3c2.212 0 4 1.948 4 4.357 0 .79-.198 1.528-.527 2.174l-3.473 6.469-3.445-6.428a4.669 4.669 0 0 1 -.555-2.215c0-2.41 1.788-4.357 4-4.357z" fill="#d8d9dd"/><path d="m12 10.406-1.576 2.94c.055-1.514-.018-4.65-2.424-4.782-.015-.195.478-.175 1.241-.063.817.113 1.887.574 2.759 1.905z" fill="url(#a)"/><path d="m9 4.083c1.657 0 3 1.326 3 2.962 0 1.635-1.343 2.96-3 2.96s-3-1.325-3-2.959c0-1.636 1.334-2.962 3-2.962z" fill="#6eb0c1"/><path d="m11.939 6.424-.939-.737-.606.617-.944-1.234-2.45 1.543-.5-.555-.44.335a3.32 3.32 0 0 0 -.06.652c0 1.65 1.342 2.96 3 2.96 1.656 0 2.998-1.31 2.998-2.96a2.484 2.484 0 0 0 -.06-.621z" fill="#5f9038"/><path d="m9.664 5.348c0 .306-.064.653-.562 1.347a.452.452 0 0 0 -.102.293c.028.442.993.645 1 1.016 0 .021-.029.03-.081.028-.39-.012-1.712-.594-1.919-.494l-.484-1.238 1.933-1.23z" fill="#3e6429"/><path d="m8 5.07c.551 0 1 .447 1 .994 0 .183-.051.345-.133.497l-.867 1.47-.857-1.47a.975.975 0 0 1 -.143-.507.99.99 0 0 1 1-.984z" fill="#ededed"/></g></svg>