<svg height="18" viewBox="0 0 18 18" width="18" xmlns="http://www.w3.org/2000/svg"><path d="m0 0h18v18h-18z" fill="#f0f3fa"/><path d="m9.16 4.07c.3 0 .54-.23.54-.53s-.25-.54-.54-.54c-.3 0-.55.24-.55.54s.25.53.55.53zm-2.74.76a.6.6 0 0 0 .6-.59.6.6 0 0 0 -.6-.6.6.6 0 0 0 -.6.6c0 .33.27.6.6.6zm.86 1.49a.6.6 0 0 0 .6-.6.6.6 0 0 0 -.6-.6.6.6 0 0 0 -.6.6c0 .33.28.6.6.6zm-2.86.55c.37 0 .67-.29.67-.65 0-.37-.3-.66-.67-.66-.36 0-.67.29-.67.66 0 .36.3.65.67.65zm1.52.83c.36 0 .67-.3.67-.66 0-.37-.3-.66-.67-.66s-.67.3-.67.66c0 .37.3.66.67.66zm-2.24 1.84c.38 0 .7-.3.7-.68a.7.7 0 0 0 -.7-.7.7.7 0 0 0 -.7.7c0 .38.32.68.7.68zm1.75 0c.38 0 .7-.3.7-.68a.7.7 0 0 0 -.7-.7.7.7 0 0 0 -.7.7c0 .38.32.68.7.68zm.49 1.87c.41 0 .75-.33.75-.74a.75.75 0 0 0 -.75-.75.75.75 0 0 0 -.76.75c0 .41.35.74.76.74zm1.34 1.41a.8.8 0 0 0 .8-.8.8.8 0 0 0 -.8-.8.8.8 0 0 0 -.81.8c0 .44.36.8.8.8zm1.82.39a.84.84 0 1 0 -.01-1.69.84.84 0 0 0 0 1.7zm0 1.79c.45 0 .83-.37.83-.83a.84.84 0 0 0 -.84-.83.84.84 0 0 0 -.84.83c0 .46.38.83.84.83zm-2.68-.7a.8.8 0 0 0 .8-.8.8.8 0 0 0 -.8-.8.8.8 0 0 0 -.81.8c0 .45.36.8.8.8zm-2-2.03c.41 0 .75-.33.75-.74a.75.75 0 0 0 -.75-.75.75.75 0 0 0 -.75.75c0 .41.34.74.75.74zm4.74-6.5c.3 0 .54-.23.54-.53s-.25-.54-.54-.54c-.3 0-.55.24-.55.54s.25.53.55.53zm1.85.44c.27 0 .5-.21.5-.49a.49.49 0 0 0 -.5-.48c-.27 0-.5.21-.5.48 0 .28.23.5.5.5zm.81-1.48c.27 0 .5-.22.5-.49a.49.49 0 0 0 -.5-.49c-.27 0-.5.22-.5.49s.23.49.5.49zm.53 2.77c.25 0 .46-.2.46-.45a.46.46 0 0 0 -.46-.46.46.46 0 0 0 0 .91zm1.52-.84a.46.46 0 0 0 0-.91c-.25 0-.46.2-.46.45 0 .26.2.46.46.46zm-1.02 2.61a.4.4 0 0 0 .41-.4.4.4 0 0 0 -.4-.41.4.4 0 0 0 -.42.4c0 .23.19.41.41.41zm1.74 0a.4.4 0 0 0 .41-.4.4.4 0 0 0 -.41-.41.4.4 0 0 0 -.41.4c0 .23.19.41.4.41zm-2.23 1.79c.2 0 .36-.16.36-.36s-.16-.37-.36-.37-.37.16-.37.37c0 .2.17.36.37.36zm1.51.84c.2 0 .37-.17.37-.37s-.17-.37-.37-.37-.36.16-.36.37c0 .2.16.36.36.36zm-2.89.4c.17 0 .31-.13.31-.3a.31.31 0 0 0 -.31-.31.31.31 0 0 0 -.31.3c0 .18.14.32.3.32zm.89 1.5c.16 0 .3-.13.3-.3a.31.31 0 0 0 -.3-.31.31.31 0 0 0 -.32.3c0 .18.15.32.32.32zm.09-.24a.11.11 0 0 0 .01-.06z"/></svg>