<svg height="18" viewBox="0 0 18 18" width="18" xmlns="http://www.w3.org/2000/svg"><path d="m0 0h18v18h-18z" fill="#f0f3fa"/><path d="m16 7h-14v4h14zm-.11.13h-13.78v3.74h13.79v-3.74z" fill-rule="evenodd"/><path d="m2.29 7.33h13.42v3.33h-13.42z" fill="#008ece"/><path d="m6 8h3v.75h-.67v-.25h-1.1v.25h1.17v.5h.6v.75h-3v-.5h.27v-1h-.27zm1.23 1.25v.25h1.1v-.25z"/><path d="m8.88 8.1h-2.77v.3h.27v1.22h-.27v.3h2.77v-.55h-.45v.25h-1.33v-.42h1.18v-.3h-1.18v-.5h1.33v.25h.45z" fill="#fff"/><path d="m3 8h1.43v.5h-.13l.37.62.38-.62h-.1v-.5h1.05v.5h-.24l-.91 1.5h-.62l-.91-1.5h-.32z"/><path d="m4.33 8.1h-1.23v.3h.28l.91 1.5h.5l.9-1.5h.2v-.3h-.83v.3h.17l-.56.93-.55-.93h.21z" fill="#fff"/><path d="m12 8h1.07l.42.92.41-.92h1.1v.5h-.23v1h.23v.5h-1.15v-.48l-.24.48h-.44l-.22-.46v.46h-.95v-.5h.23v-1h-.23zm2.05 1.5v-.4l-.19.4h.2zm-1.29-.35.17.35h-.17z" fill-rule="evenodd"/><path d="m12.1 8.1v.3h.22v1.19h-.23v.3h.76v-.3h-.18v-.7h.08l.47 1.01h.34l.49-1h.1v.69h-.21v.3h.97v-.3h-.23v-1.2h.23v-.3h-.95l-.47 1.05-.47-1.04h-.93z" fill="#fff"/><path d="m9 8h3v.75h-.67v-.25h-1.1v.25h1.17v.5h.6v.75h-3v-.5h.27v-1h-.27zm1.23 1.25v.25h1.1v-.25z"/><path d="m11.88 8.1h-2.77v.3h.27v1.22h-.27v.3h2.77v-.55h-.45v.25h-1.33v-.42h1.18v-.3h-1.18v-.5h1.33v.25h.45z" fill="#fff"/></svg>