<svg height="18" viewBox="0 0 18 18" width="18" xmlns="http://www.w3.org/2000/svg"><path d="m0 0h18v18h-18z" fill="#f0f3fa"/><path d="m8.94 9.45-3.47-6.34a.07.07 0 0 1 -.01-.05c0-.02.02-.04.03-.05a.08.08 0 0 1 .06 0c.02 0 .03 0 .05.02l3.34 4a.08.08 0 0 0 .06.02.08.08 0 0 0 .06-.02l3.35-4a.08.08 0 0 1 .1-.01l.02.04v.05l-3.46 6.34c0 .02-.02.02-.03.03a.08.08 0 0 1 -.1-.03z" fill="#212859"/><path d="m11.06 10.02h3.94v-.02l-3.83-.8-1.43.28v.02l1.33.52m-.7 1.03 3.27 2.11v-.01l-2.7-2.74-1.34-.53v.01l.78 1.18m.66-2.13 3.27-2.09v-.01l-3.68 1.36-1.03 1v.02l1.43-.25m-1.82 2.55 1.46 3.48h.02l-.61-3.7-.8-1.17h-.02l-.04 1.38m-2.27-1.51-3.95.02s-.01-.02 0-.02l3.84-.8 1.43.28v.02l-1.33.5m.69 1.05-3.26 2.11-.01-.01 2.7-2.74 1.34-.53s.02 0 0 .01l-.76 1.16m-.68-2.11-3.26-2.09v-.01l3.67 1.36 1.03.98v.02l-1.43-.25m1.83 2.57-1.48 3.48h-.02l.62-3.7.8-1.17h.01l.05 1.38" fill="#f08521"/></svg>