<svg height="18" viewBox="0 0 18 18" width="18" xmlns="http://www.w3.org/2000/svg" xmlns:xlink="http://www.w3.org/1999/xlink"><linearGradient id="a"><stop offset="0" stop-color="#a8d8e1"/><stop offset="1" stop-color="#04a387"/></linearGradient><linearGradient id="b" gradientUnits="userSpaceOnUse" x1="14.3" x2="11.51" xlink:href="#a" y1="10.29" y2="6.92"/><linearGradient id="c" gradientUnits="userSpaceOnUse" x1="3.7" x2="6.49" xlink:href="#a" y1="7.71" y2="11.08"/><linearGradient id="d"><stop offset="0" stop-color="#a8d8e1"/><stop offset=".11" stop-color="#a1d1de"/><stop offset=".28" stop-color="#8ebdd6"/><stop offset=".49" stop-color="#6d9cc6"/><stop offset=".75" stop-color="#4272af"/><stop offset="1" stop-color="#184894"/></linearGradient><linearGradient id="e" gradientUnits="userSpaceOnUse" x1="14.07" x2="6.88" xlink:href="#d" y1="7.59" y2="7.14"/><linearGradient id="f" gradientUnits="userSpaceOnUse" x1="3.93" x2="11.12" xlink:href="#d" y1="10.41" y2="10.86"/><path d="m0 0h18v18h-18z" fill="#f0f3fa"/><path d="m11.58 4c2.15-.02 2.42 4.85 2.42 4.85.15 4.51-3.72 3.56-1.9.35 1.8-3.2-.52-5.2-.52-5.2z" fill="url(#b)"/><path d="m6.42 14c-2.15.02-2.42-4.85-2.42-4.85-.15-4.51 3.72-3.56 1.92-.35-1.82 3.2.5 5.2.5 5.2z" fill="url(#c)"/><path d="m6.66 10.62s2.14-6.6 4.92-6.62c2.19 0 2.42 4.85 2.42 4.85s-.45-2.31-2.33-2.39c-1.86-.09-3.9 1.52-5 4.16z" fill="url(#e)"/><path d="m11.33 7.38s-2.12 6.6-4.91 6.62c-2.15.02-2.42-4.85-2.42-4.85s.46 2.3 2.34 2.39c1.87.07 3.9-1.54 5-4.16z" fill="url(#f)"/></svg>