<svg height="18" width="18" xmlns="http://www.w3.org/2000/svg"><path d="m0 0h18v18h-18z" fill="#b24794"/><g fill="#fff"><path d="m8.98 3 5.02 6-5.02 6-4.98-6zm0 1 4.2 5-4.2 5-4.16-5z" fill-rule="evenodd"/><path d="m8.99 5.03 3.31 3.97-3.32 3.97-3.29-3.97 3.31-3.97zm0 .47-2.9 3.5 2.9 3.5 2.93-3.5z"/><path d="m7.4 8.04h-.4v.3h.16l.67 1.86h.34l.83-2.16h-.33l-.67 1.7z"/><path d="m9.16 8.04h1.08c.19 0 .56.12.58.5 0 .09-.04.28-.25.42.14.06.43.27.43.61-.01.43-.37.64-.76.63h-.9v-1.85h-.18zm.5.3h.62c.09 0 .2.08.21.23 0 .15-.12.24-.21.24h-.28v.3h.34c.1 0 .32.13.32.4 0 .26-.21.38-.34.38h-.65v-1.54z" fill-rule="evenodd"/></g></svg>