<svg height="18" width="18" xmlns="http://www.w3.org/2000/svg"><circle cx="9" cy="9" fill="#0069a6" r="9"/><g fill="#fff"><path d="m13.225 6.325a5.703 5.703 0 0 0 -.866-1.025 12.71 12.71 0 0 0 -6.772.022c-.325.3-.596.628-.846 1.003a18.022 18.022 0 0 1 8.484 0z"/><path d="m9.608 7.05c.324-.45.524-.775.649-.925-1.947-.15-3.909.025-5.706.525-.124.25-.235.525-.335.775a29.15 29.15 0 0 1 5.392-.375zm-.774 3.9c-.2.3-.45.625-.674.95 1.797.075 3.582-.1 5.254-.55.124-.25.234-.5.334-.775-1.498.275-3.092.4-4.74.4-.074 0-.124-.025-.174-.025zm.599-3.65c-1.822-.025-3.63.093-5.301.418-.05.225-.107.45-.132.7a73.36 73.36 0 0 1 4.809-.143c.225-.375.424-.7.624-.975z"/><path d="m7.96 12.15c-.274.375-.524.725-.673.875 1.697.225 3.444.1 5.09-.35.325-.3.625-.65.85-1.025-1.348.35-2.796.525-4.243.525-.35 0-.674 0-1.023-.025zm3.932-7.225a5.036 5.036 0 0 0 -5.82 0c1.923-.45 3.899-.45 5.82 0zm-2.085 4.55c1.448-.025 2.87-.05 4.193-.15v-.65a54.951 54.951 0 0 0 -3.594-.125c-.2.3-.374.575-.599.925zm.774-1.2c1.173.025 2.286.075 3.384.125a6.851 6.851 0 0 0 -.124-.7c-.874-.15-1.738-.275-2.661-.325-.25.35-.45.65-.599.9zm-1.971.25c-.974 0-1.922.025-2.87.05.1.2.274.55.449.85.598.025 1.197.025 1.796.05.2-.275.4-.6.624-.95zm-2.247 1.175.724 1.125.724-1.1zm2.646 1c1.672 0 3.307-.15 4.829-.425.05-.225.112-.45.137-.7-1.373.075-2.845.125-4.342.15-.15.275-.375.6-.624.975zm-4.119-1.05c-.299-.025-.59-.025-.889-.05.025.225.086.475.136.7.4.075.754.125 1.178.2-.175-.325-.3-.625-.424-.85zm1.249 2.025c-.25-.325-.4-.525-.624-.9-.45-.05-.872-.127-1.296-.202.1.275.186.527.336.777.524.15 1.085.25 1.634.35-.025-.025-.05-.025-.05-.025zm.249.325c-.574-.075-1.092-.2-1.641-.325.25.375.54.725.864 1.025.524.15 1.027.275 1.576.35-.325-.425-.574-.75-.799-1.05z"/><path d="m6.064 13.075a5.072 5.072 0 0 0 5.84 0c-.949.225-1.947.325-2.92.325-.974 0-1.972-.1-2.92-.325z"/></g></svg>