<svg height="18" viewBox="0 0 18 18" width="18" xmlns="http://www.w3.org/2000/svg"><path d="m0 0h18v18h-18z" fill="#f0f3fa"/><path d="m13.38 11.42a5 5 0 1 0 -.02.04h-.57v-2.22h.59zm-7.5-3.98h-.94l1.56 4.06h.63l2.8-5.63h-.93l-2.19 3.76-.93-2.18zm6.91 1.5v-.56h.59v.56zm-.79.75a.85.85 0 0 1 .44-.11v-.58h-.11a.63.63 0 0 0 -.37.16c-.11.1-.2.23-.28.4v-.56h-.5v2.5h.54v-1.5a.62.62 0 0 1 .28-.3zm-2.37 1.81a1.22 1.22 0 0 1 -1.25-1.24c0-.23.05-.44.15-.63s.24-.34.43-.46c.2-.11.42-.17.67-.17.26 0 .49.06.67.17a1.27 1.27 0 0 1 .56 1.27h-1.84c.01.13.05.24.1.33.07.09.14.16.23.21a.7.7 0 0 0 .64-.02c.11-.06.19-.14.23-.24l.52.15a.99.99 0 0 1 -.25.33c-.1.1-.23.17-.38.22-.14.05-.3.08-.48.08zm-.62-1.45h1.24a.7.7 0 0 0 -.1-.31.6.6 0 0 0 -.52-.29.6.6 0 0 0 -.52.29.74.74 0 0 0 -.1.31z" fill="#b52932" fill-rule="evenodd"/></svg>