<svg height="18" viewBox="0 0 18 18" width="18" xmlns="http://www.w3.org/2000/svg" xmlns:xlink="http://www.w3.org/1999/xlink"><linearGradient id="a" gradientUnits="userSpaceOnUse" x1="13.56" x2="6.43" y1="8.87" y2="10.83"><stop offset=".35" stop-color="#b1c6ee"/><stop offset="1" stop-color="#fff" stop-opacity="0"/></linearGradient><path d="m0 0h18v18h-18z" fill="#f0f3fa"/><path d="m8.45 7.25c-2.12 0-3.65-.75-4.18-1.25-.1.24-.27.78-.27 1.67 0 2.95 1.64 5.45 2.46 6.33.1-.03.42-.1.54-.1a5.39 5.39 0 0 1 -1.38-3.18c0-1.8 2.18-2.7 4.3-3.05 2.89-.44 4.09-.92 4.43-1.06.15-.47.65-1.36.65-1.61-2.02 1.32-3.9 2.25-6.55 2.25z" fill="#143d8d"/><path d="m7 14c3.56-.73 6.15-4.3 7-6l-7 1.48z" fill="url(#a)"/></svg>