<svg height="18" viewBox="0 0 18 18" width="18" xmlns="http://www.w3.org/2000/svg" xmlns:xlink="http://www.w3.org/1999/xlink"><linearGradient id="a" gradientUnits="userSpaceOnUse" x1="11.56" x2="9.96" y1="8.27" y2="11.37"><stop offset=".2" stop-color="#00aeef"/><stop offset="1" stop-color="#0075a2"/></linearGradient><linearGradient id="b" gradientUnits="userSpaceOnUse" x1="3" x2="10.25" y1="8.13" y2="13.42"><stop offset=".78" stop-color="#863695"/><stop offset="1" stop-color="#4f0e58"/></linearGradient><path d="m0 0h18v18h-18z" fill="#f0f3fa"/><path d="m11.77 10.66 3.23-5.23c-1.83-.5-2.92.38-3.23.89l-2.95 4.6.62.34z" fill="url(#a)"/><path d="m9.03 15-6.03-9.61a3.15 3.15 0 0 1 3.57 1.18l2.16 3.45c.91 1.34 2.7.48 3.51-.12l-3.2 5.1z" fill="url(#b)"/><circle cx="7.83" cy="4.83" fill="#0077a2" r=".83"/><circle cx="7.63" cy="4.6" fill="#3dc7f4" r=".42"/><circle cx="10.17" cy="4.83" fill="#56175f" r=".83"/><circle cx="10.05" cy="4.69" fill="#73367c" r=".61"/><circle cx="9.96" cy="4.6" fill="#b884bb" r=".42"/><ellipse cx="9.13" cy="6.59" fill="#56175f" rx=".83" ry=".85"/><ellipse cx="8.92" cy="6.35" fill="#b884bb" rx=".42" ry=".43"/></svg>