<svg height="18" viewBox="0 0 18 18" width="18" xmlns="http://www.w3.org/2000/svg"><path d="m0 0h18v18h-18z" fill="#f0f3fa"/><path d="m8.72 12h1.28v-6l-1.28.5z" fill="#f56e1e"/><path d="m4.58 12h1.5l2.05-5.5h-1.22l-1.53 4.33h-.02l-1.55-4.33h-1.31zm9.11-2.84c.66-.13 1.13-.6 1.13-1.25 0-1.2-1.1-1.41-1.83-1.41h-1.99v5.5h2c.7 0 2-.2 2-1.59-.02-.67-.55-1.18-1.31-1.25zm-1.46-1.8h.35c.11 0 .21 0 .33.02.4.03.72.18.72.68 0 .44-.34.6-.72.64l-.32.01h-.36v-1.34zm.68 3.77h-.68v-1.57h.68c.48.03.86.2.86.82-.02.55-.4.7-.86.75z" fill="#005aaa"/></svg>