<svg fill="none" height="18" viewBox="0 0 18 18" width="18" xmlns="http://www.w3.org/2000/svg" xmlns:xlink="http://www.w3.org/1999/xlink"><linearGradient id="a" gradientUnits="userSpaceOnUse" x1="10.93" x2="10.29" y1="8.29" y2="9.08"><stop offset=".62" stop-color="#ae6a4b"/><stop offset="1" stop-color="#c4c4c4"/></linearGradient><linearGradient id="b" gradientUnits="userSpaceOnUse" x1="10.37" x2="10.89" y1="8.72" y2="10.28"><stop offset="0" stop-color="#e59f6d"/><stop offset=".37" stop-color="#f2d292"/><stop offset="1" stop-color="#fcfcfc"/></linearGradient><linearGradient id="c" gradientUnits="userSpaceOnUse" x1="6.32" x2="6.32" y1="7.79" y2="10.04"><stop offset="0" stop-color="#fdfbe9"/><stop offset="1" stop-color="#e59f6d"/></linearGradient><linearGradient id="d" gradientUnits="userSpaceOnUse" x1="8.9" x2="8.9" y1="9.28" y2="12.04"><stop offset="0" stop-color="#57636c"/><stop offset=".19" stop-color="#5f737e"/><stop offset=".43" stop-color="#667c89"/><stop offset=".8" stop-color="#bcdbee"/><stop offset="1" stop-color="#fff"/></linearGradient><linearGradient id="e" gradientUnits="userSpaceOnUse" x1="6.93" x2="8.12" y1="9.64" y2="11.08"><stop offset="0" stop-color="#9bc13f"/><stop offset=".27" stop-color="#fdfbe9"/><stop offset=".51" stop-color="#dfdb23"/><stop offset="1" stop-color="#00794b"/></linearGradient><linearGradient id="f" gradientUnits="userSpaceOnUse" x1="6.16" x2="6.16" y1="9.1" y2="10.06"><stop offset="0" stop-color="#f0f0f0"/><stop offset="1" stop-color="#005e93"/></linearGradient><linearGradient id="g" gradientUnits="userSpaceOnUse" x1="6.43" x2="7.42" y1="7.86" y2="8.23"><stop offset="0" stop-color="#f1e855"/><stop offset=".45" stop-color="#fff490"/><stop offset="1" stop-color="#fdfbe9"/></linearGradient><linearGradient id="h" gradientUnits="userSpaceOnUse" x1="7.33" x2="8.21" y1="7.14" y2="8.05"><stop offset="0" stop-color="#ae3031"/><stop offset="1" stop-color="#e6a59a"/></linearGradient><linearGradient id="i" gradientUnits="userSpaceOnUse" x1="8.9" x2="9.13" y1="6.42" y2="6.87"><stop offset="0" stop-color="#fdfbe9"/><stop offset=".57" stop-color="#a9c63c"/></linearGradient><linearGradient id="j" gradientUnits="userSpaceOnUse" x1="8.75" x2="8.75" y1="6.76" y2="7.19"><stop offset=".66" stop-color="#d75639"/><stop offset=".79" stop-color="#6b4b77"/></linearGradient><linearGradient id="k" gradientUnits="userSpaceOnUse" x1="9.68" x2="9.26" y1="6.62" y2="9.16"><stop offset=".11" stop-color="#f8f6d3"/><stop offset=".2" stop-color="#013822"/><stop offset=".58" stop-color="#0e6942"/><stop offset=".75" stop-color="#739049"/><stop offset="1" stop-color="#a8a651"/></linearGradient><linearGradient id="l" gradientUnits="userSpaceOnUse" x1="9.61" x2="9.61" y1="7.09" y2="7.65"><stop offset="0" stop-color="#eaeaea"/><stop offset=".65" stop-color="#cba884"/></linearGradient><linearGradient id="m" gradientUnits="userSpaceOnUse" x1="7.39" x2="8.28" y1="8.91" y2="8.9"><stop offset="0" stop-color="#e6a59a"/><stop offset="1" stop-color="#6c6c6c"/></linearGradient><linearGradient id="n" gradientUnits="userSpaceOnUse" x1="8.33" x2="9.25" y1="7.39" y2="8.86"><stop offset="0" stop-color="#764b6c"/><stop offset=".29" stop-color="#8c5578"/><stop offset=".45" stop-color="#a06e80"/><stop offset="1" stop-color="#cbcbcb"/></linearGradient><linearGradient id="o"><stop offset="0" stop-color="#e3e16a"/><stop offset="1" stop-color="#f8f6d3"/></linearGradient><linearGradient id="p" gradientUnits="userSpaceOnUse" x1="8.42" x2="8.6" xlink:href="#o" y1="7.52" y2="7.91"/><linearGradient id="q" gradientUnits="userSpaceOnUse" x1="8.85" x2="9.03" xlink:href="#o" y1="7.52" y2="7.91"/><linearGradient id="r" gradientUnits="userSpaceOnUse" x1="8.85" x2="8.95" xlink:href="#o" y1="8.06" y2="8.37"/><linearGradient id="s" gradientUnits="userSpaceOnUse" x1="8.77" x2="8.71" y1="8.86" y2="9.21"><stop offset="0" stop-color="#6b4b77"/><stop offset="1" stop-color="#c19dae"/></linearGradient><linearGradient id="t" gradientUnits="userSpaceOnUse" x1="9.46" x2="9.95" y1="7.97" y2="8.69"><stop offset="0" stop-color="#007ec1"/><stop offset="1" stop-color="#d1e4f1"/></linearGradient><linearGradient id="u" gradientUnits="userSpaceOnUse" x1="9.96" x2="10.65" y1="7.5" y2="8.36"><stop offset="0" stop-color="#3a3a3a"/><stop offset=".21" stop-color="#5c5448"/><stop offset=".75" stop-color="#d4c7a7"/><stop offset="1" stop-color="#d9d7c2"/></linearGradient><linearGradient id="v" gradientUnits="userSpaceOnUse" x1="10.22" x2="10.4" y1="8.45" y2="8.64"><stop offset=".58" stop-color="#007ec1"/><stop offset="1" stop-color="#a4bfd2"/></linearGradient><linearGradient id="w" gradientUnits="userSpaceOnUse" x1="11.25" x2="10.93" y1="7.61" y2="8.1"><stop offset="0" stop-color="#fdfbe9"/><stop offset=".34" stop-color="#bbcd73"/><stop offset="1" stop-color="#00794b"/></linearGradient><linearGradient id="x" gradientUnits="userSpaceOnUse" x1="11.22" x2="11.93" y1="8.86" y2="9.13"><stop offset="0" stop-color="#d43b33"/><stop offset=".52" stop-color="#de8d4f"/><stop offset=".71" stop-color="#e2ab59"/><stop offset="1" stop-color="#fff"/></linearGradient><linearGradient id="y" gradientUnits="userSpaceOnUse" x1="11" x2="11.54" y1="10.27" y2="10.8"><stop offset="0" stop-color="#c19d73"/><stop offset="1" stop-color="#fff"/></linearGradient><linearGradient id="z"><stop offset="0" stop-color="#8ca7b7"/><stop offset="1" stop-color="#a7a7a7"/></linearGradient><linearGradient id="A" gradientUnits="userSpaceOnUse" x1="11.26" x2="11.26" xlink:href="#z" y1="9.79" y2="10.35"/><linearGradient id="B" gradientUnits="userSpaceOnUse" x1="11.61" x2="11.61" xlink:href="#z" y1="9.69" y2="10.25"/><path d="m0 0h18v18h-18z" fill="#f0f3fa"/><path d="m7.95 6.16c-.46.11-.84.5-.97.68l3.86.9c.1.02.64.03.9.03-.11-.25-.41-.8-.75-1.05a5 5 0 0 0 -1.72-.75c-.38-.04-.73.04-1.32.19z" fill="#007ec1"/><path d="m8.07 7.67-1.35-.55c.07-.1.22-.3.29-.37.08-.08.3-.11.72-.2.42-.1.5 0 .57 0 .09 0 .3-.1.48-.18.19-.08.9.11 1.07.17s.34.26.46.43c.13.18.58.25.71.34.13.1.37.13.54.2.18.08.35.52.4.77.05.2.09.54.1.68l-4-1.29z" fill="#fcfcfc"/><path d="m10.22 9.1-.12-.14.87-.84.02.16-.68.74-.09.07z" fill="url(#a)"/><path d="m10.1 9.6-.2.26.17.41.3.58.11.64.19-.52.35-1 .04-.3-.08-1.41-.77.85-.12.5z" fill="url(#b)"/><path d="m6.51 9.08.13.68-.1.07-.32.21-.07-.04-.14-.78-.01-.92c0-.03.18-.35.28-.51l.1.24.14 1.05z" fill="url(#c)"/><path d="m8.41 9.64a1.08 1.08 0 0 0 -.41-.32l.3-.03c.45-.02.63.03 1 .2.36.18.55.65.63.88.08.22.13.75.11.91-.01.14-.1.44-.13.57-.16.06-.54.17-.81.19-.33.02-.8-.08-1.01-.17a.9.9 0 0 1 -.32-.2c.25-.12.48-.43.56-.58.04-.1.14-.3.18-.43l.09-.47a.99.99 0 0 0 -.18-.55z" fill="url(#d)"/><path d="m8.58 10.08a1.3 1.3 0 0 1 -.05.46c-.06.17-.2.5-.3.69-.08.14-.23.28-.35.37a.3.3 0 0 1 -.3.03 6.4 6.4 0 0 1 -.83-.66 42.2 42.2 0 0 1 -.42-.65c-.1-.14-.1-.31.05-.4l.06-.04a3.69 3.69 0 0 1 1.51-.55c.21 0 .45.3.5.37s.1.2.13.38z" fill="url(#e)"/><path d="m6.08 8.44s.05.08.1.1c.05.03.09-.03.07-.1 0-.06-.07-.2-.1-.27l-.08.21zm.17.72a.4.4 0 0 0 -.02-.2.68.68 0 0 0 -.16-.2l-.08.23.07.3z" fill="#00794b"/><path d="m6.3 9.1-.28.18.02.1.14.68.13-.08v-.88z" fill="url(#f)"/><path d="m6.32 7.75.32 2.02.41-.21.31-.1-.02-.96h-.22l-.05-.04.22-.3v-.7l-.97.3z" fill="url(#g)"/><path d="m7.27 7.47-.92.26v-.15l.9-.27z" fill="#d75639"/><path d="m7.28 7.31-.94.28.06-.2.83-.22z" fill="#efe644"/><path d="m7.24 7.15-.73.19.09-.17.64-.2z" fill="#eb8d4d"/><path d="m7.25 7.18v-.2h1.03l.03.07-.08.28v.61l.04.16-1 .08.01-.75z" fill="url(#h)"/><path d="m7.37 8.5-.29-.04.2-.28.97-.08.23.42-1.1-.01z" fill="#104f1f"/><path d="m8.93 6.78-.4-.01c0-.02.02-.07.06-.1a.62.62 0 0 1 .18-.06l.04-.09c.03-.05.13-.15.24-.16.11 0 .22.08.26.13.18-.06.26.05.28.11l-.16.08a.62.62 0 0 0 -.1.17c-.05 0-.14.03-.17.05a.21.21 0 0 0 -.07.07l-.16-.2z" fill="url(#i)"/><path d="m8.94 6.76h-.4l-.23.25-.04.18h.96z" fill="url(#j)"/><path d="m9.24 7.19-.15-.21.08-.08.15-.04.09-.15.14-.1.18.02.12.14.04.06h.16l.16.1.05.2-.03.2-.28.02-.05-.03-.06.05-.28.28-.16.17-.03.55-.02.46-.02.16-.14.36v-.3l.05-.46z" fill="url(#k)"/><path d="m9.42 7.26.13.32v.07l.14-.13.12-.17.07-.2s-.03-.04-.09 0l-.19.08-.05-.05c-.04-.04-.14-.1-.19-.09-.05.03 0 .06.06.17z" fill="url(#l)"/><path d="m7.35 9.46v-.97l.95.02v.78h-.08l-.31.04z" fill="url(#m)"/><path d="m7.42 8.58h.19v.54h-.19zm.33.12-.02.66.09-.02.05-.46h.12l.04.05v.4l.15-.03-.06-.6z" fill="#0e94d3"/><path d="m7.87 8.89-.05.46.22-.05-.02-.4z" fill="#aabe7b"/><path d="m8.24 7.94v-.59l.04-.17.95-.01v1.48l-.05.39v.37l-.12-.02-.2-.08-.33-.04-.22.01v-.75h.15l-.01-.05-.17-.39z" fill="url(#n)"/><path d="m8.39 7.46h.26v.47h-.26z" fill="url(#p)"/><path d="m8.82 7.46h.26v.47h-.26z" fill="url(#q)"/><path d="m8.82 8.02h.26v.35h-.26z" fill="url(#r)"/><path d="m8.39 8.02h.26v.35h-.26z" fill="#e3e16a"/><path d="m8.71 8.46-.24.22.59.03-.22-.25z" fill="#a23b2a"/><path d="m8.45 8.7v.57l.26.02.35.09v-.69h-.6z" fill="#ddd47e"/><path d="m8.6 8.86v.41l.33.07v-.48z" fill="url(#s)"/><path d="m9.34 8.93-.14.49.32.24.18.24.2-.3.13-.4.23-.84-.33-1-.04-.03-.05.04-.44.46z" fill="url(#t)"/><path d="m9.5 8.84-.05.4.16.07.1-.42-.2-.05z" fill="#dc753c"/><path d="m9.78 9.78-.39-.37-.06.1.2.14.15.26z" fill="#6b7016"/><path d="m10.5 7.3-.57.04.31 1 .45.02.2-.22-.38-.84z" fill="url(#u)"/><path d="m10.38 7.9.06-.3.21.08-.1.27z" fill="#d75639"/><path d="m10.08 8.95.18-.59h.44l-.51.54-.1.05z" fill="url(#v)"/><path d="m10 9.73-.1-.13.04-.12.13-.51.14.12-.12.51-.1.13z" fill="#5ea5cc"/><path d="m9.99 10.19-.14-.27-.1.07.17.35z" fill="#37481b"/><path d="m10.18 10.62-.1-.18-.11.13.05.23z" fill="#739049"/><path d="m9.97 11.69-.06.12.4-.11v-.25z" fill="#0c3621"/><path d="m10.34 9.67-.16-.1.16-.41.18.08z" fill="#5f737e"/><path d="m10.76 9.5-.17-.14-.23.39.1.12.3-.36zm.25.33-.17-.15-.23.4.1.1z" fill="#57636c"/><path d="m10.55 10.35-.11.07.01.17-.08.12.13.2.05-.1.15-.36z" fill="#8bbbbc"/><path d="m10.65 7.33-.14.01.37.79.58-.02.04-.11a.18.18 0 0 0 -.05-.1.25.25 0 0 0 -.12-.06v-.1l-.07-.21a.43.43 0 0 0 -.18-.12c-.08-.02-.16.04-.2.07l-.06-.07a.31.31 0 0 0 -.17-.08z" fill="url(#w)"/><path d="m11.04 9.63-.05-1.5h.57l.46 1.01-.04.3-.91.23z" fill="url(#x)"/><path d="m11.02 9.96-.62 1.75.88-.68c.1-.16.35-.53.47-.74.13-.2.23-.65.27-.84l-.95.22-.05.3z" fill="url(#y)"/><path d="m11.27 10.35h-.17l.08-.55h.24z" fill="url(#A)"/><path d="m11.62 10.25h-.17l.08-.55h.24z" fill="url(#B)"/><path d="m10.87 10.72-.11.68.11-.03.09-.52.42.02.07-.13-.43-.02z" fill="#8bbbbc"/><path d="m11.35 10.87-.4-.03-.1.52.26-.22z" fill="#ae6a4b"/><path d="m9 3.34a5.7 5.7 0 1 0 0 11.39 5.7 5.7 0 0 0 0-11.4zm0 8.96a3.29 3.29 0 1 1 0-6.58 3.29 3.29 0 0 1 0 6.58zm1.2-6.16a3.11 3.11 0 1 0 -2.42 5.74 3.11 3.11 0 0 0 2.43-5.74zm1.76 2.86a2.94 2.94 0 1 1 -5.87 0 2.94 2.94 0 0 1 5.87 0zm2.93-1.21a6 6 0 1 0 -11.76 2.42 6 6 0 0 0 11.75-2.41zm-.15 2.39a5.85 5.85 0 1 1 -11.47-2.35 5.85 5.85 0 0 1 11.46 2.35z" fill="#000101"/><path d="m6.13 6.73-1.67-.43.19-.36.85.28-.47-.77.31-.26.8 1.55h-.01zm.67-.73-1-1.25-.29.28 1.02 1.24zm.9-.49-.07-.37-.46.24-.58-1.13-.33.21.72 1.42zm.21-1.72-.38.11.33 1.56.79-.17.03-.37-.51.1-.27-1.22zm1.18 1.51-.37-.14 1.08-1.43.61 1.7-.4.02-.11-.36-.6-.1-.2.32zm.35-.6.42.07-.15-.41-.27.35zm1.52 1.2c.2.11.42.19.65.2l.43-.7-.59-.36-.27.23.35.22-.12.2c-.06 0-.17-.05-.22-.08-.24-.14-.34-.41-.19-.66a.46.46 0 0 1 .65-.16c.12.08.2.19.24.32l.35-.12a.96.96 0 0 0 -.72-.63.83.83 0 0 0 -.57 1.53zm1.17 1.1.32-.14-.4-.49.24-.2.26.32.26-.21-.26-.32.22-.17.36.44.22-.26-.58-.7-1.22 1.01.58.71zm-7.27.41.28-.27-.28-.28-.27.28zm3.03 6.03.27.27.28-.27-.28-.28zm4.98-6.34.28.28.28-.28-.28-.27zm-8.71 1.75c.59.09.53-.65.78-.61.09.01.11.12.1.2-.02.12-.07.18-.16.26l.24.26c.14-.13.23-.3.26-.49.05-.29-.09-.6-.4-.66-.58-.08-.54.65-.79.62-.1-.02-.12-.15-.1-.24a.39.39 0 0 1 .17-.28l-.27-.28a.86.86 0 0 0 -.27.53c-.05.33.08.64.44.7zm.29 1.68 1.08-.2-.11-.39-.87.16c-.22.04-.4.04-.45-.21-.04-.2.1-.27.26-.3l1-.19-.11-.39-1.07.2c-.39.07-.52.37-.45.74.08.4.35.65.72.58zm.48.87-.08-.12-.49.29-.23-.33 1.41-.83.25.42c.2.35.23.63-.12.83-.27.16-.58.03-.75-.26zm.54-.08c.1-.06.11-.16.04-.3l-.06-.09-.3.18.06.1c.07.13.17.16.26.1zm.61 1.34.24-.25-.3-.29.18-.2.43.4.18-.3-.67-.62-1.1 1.18.68.64.3-.18-.46-.44.22-.23zm1.59.37c-.07.15-.24.27-.41.25l.12.75-.42-.06-.1-.9-.3.64-.39-.14.72-1.47.4.2c.35.16.54.4.38.73zm-.57-.45-.2.4c.15.09.3.1.38-.07.09-.18-.03-.27-.18-.33zm2.93-.02-.39 1.06-.64-.92-.22 1.69h.41l.04-.79.49.72.32-.83.25.75.39-.11zm.7-.33 1.53 1-.32.28-.31-.23-.54.3.02.37-.38.12v-1.83zm.3 1.03.38-.2-.38-.25zm1.49-1.27.75.1-.19.4-.88-.2.51.5-.25.31-1.18-1.13.31-.33c.26-.27.55-.38.82-.12.11.11.18.31.1.47zm-.35-.14c-.14-.13-.26-.05-.37.07l.33.31c.12-.11.18-.25.04-.38zm.55-1.91-.26.3.43.81v.01l-.67-.31-.14.38 1.48.7.14-.38-.68-.32v-.01l.96-.14.09-.43-.94.17zm1.28-.94-.07.63-.31-.04.04-.41-.33-.04-.05.41-.28-.03.07-.58-.35.03-.1.91 1.6.18.1-.93zm-1.13-1.37-.36.07.21 1.09.38.03-.08-.41 1.25-.24-.11-.39-1.21.23z" fill="#fff"/><g fill="#000"><path d="m8.5 6.76.02-.02h.4c.02 0 .03 0 .04.02l.3.4c.01.01 0 .05-.03.05h-.97v-.06h.92l-.26-.35h-.38l-.22.26-.05-.04zm-2.26 3.32-.03-.05.02-.01.02-.02a3.12 3.12 0 0 1 .58-.36c.38-.2.94-.39 1.63-.39.7 0 1.1.33 1.32.72.22.38.27.82.3 1.05.02.37-.13.75-.2.9l-.06-.03c.08-.14.22-.51.2-.87a2.51 2.51 0 0 0 -.3-1.03c-.2-.36-.58-.68-1.26-.68a3.6 3.6 0 0 0 -2.2.75z"/><path d="m8.32 9.58c-.13-.13-.29-.2-.39-.24l.02-.06c.11.04.27.12.41.26a.8.8 0 0 1 .25.57c0 .6-.3 1.31-.87 1.62l-.03-.05c.55-.3.84-.98.84-1.57 0-.23-.1-.4-.23-.53zm-.11-2.87.1.26.02.08-.07.31v.58l.04.16.21.43-.05.02-.2-.4-.97.05-.2.29-.05-.03.2-.3v-.63l-.89.23.32 2.02h-.07l-.32-2.06.96-.25v-.1l-.85.2-.02-.05.86-.2-.02-.12-.7.16v-.05l.7-.17v-.12l-.07.01a3.56 3.56 0 0 0 -.5.16l-.02-.05a9.66 9.66 0 0 1 .58-.18v-.22l1-.03zm-.94.3v.15l.04.17v.81l.93-.06-.04-.14v-.58l.07-.3-.02-.06h-.98zm.96-.06h-.96v-.15l.9-.03z"/><path d="m7.57 7.54h.33l.05.09h.17l.03.35-.76.05v-.33l.18-.02v-.13zm.06.06v.12l-.18.02v.23l.64-.05-.02-.23h-.15l-.05-.1h-.24zm.21-.5h.24v.4h-.24zm.06.06v.28h.12v-.28zm-1.58 1.91c.02 0 .03.01.03.03v.88h-.06v-.82a.48.48 0 0 1 -.27.13v-.06c.13-.02.23-.1.27-.15a.04.04 0 0 1 .03-.01zm.86.01.06.4h.06l-.06-.43a.04.04 0 0 0 -.04-.03l-.5.06a.04.04 0 0 0 -.03.04l.08.58h.06l-.08-.57zm-.48-1.22-.17.04.06.32.16-.05-.05-.3zm.01-.06c.02 0 .04 0 .05.03l.05.35c0 .02-.01.04-.03.04l-.2.07c-.02 0-.04-.01-.05-.03l-.06-.37c0-.02 0-.04.02-.04zm.43-.03-.18.02.02.33.16-.03zm.02-.06c.02 0 .04.02.04.04v.36c0 .01-.01.03-.03.03l-.2.04a.04.04 0 0 1 -.05-.03l-.02-.38.03-.03zm-.34.84-.17.04.04.32.16-.04zm.02-.06c.02 0 .04.01.04.03l.03.36c0 .02 0 .03-.02.04l-.21.05c-.02 0-.04 0-.04-.03l-.05-.37c0-.02 0-.03.02-.04zm.48.97v-.98h.06v.98zm1.01-.94v.76h-.06v-.76zm.02-1.04c0-.02.02-.04.04-.04h.25c.02 0 .04.02.04.04v.46c0 .02-.02.04-.04.04h-.24a.04.04 0 0 1 -.04-.04v-.46zm.06.02v.42h.21v-.42h-.2zm.27.94h.17l.24.24v.71h-.06v-.67h-.53v.55h-.06v-.6zm-.14.22h.46l-.16-.16h-.14l-.17.16z"/><path d="m8.57 8.83h.4v.5h-.07v-.43h-.28v.38h-.06v-.44zm.63-.23v-1.42h.06v1.42l-.05.46v.36h-.06v-.36z"/><path d="m9.86 7.32a.06.06 0 0 1 .1.02l.32 1v.03l-.34 1.2v.02l-.2.33-.06-.03.2-.33.34-1.2-.32-1-.47.48-.06 1.09v.01l-.16.51-.05-.01.15-.52.06-1.08.01-.04z"/><path d="m10.9 8.1a.06.06 0 0 1 .04-.01h.6c.02 0 .04.01.05.04l.46 1.04v.04l-.06.25c0 .03-.02.04-.04.05l-.88.19a.06.06 0 0 1 -.07-.06l-.04-1.3-.7.77-.03-.02-.03.02-.09-.09a.06.06 0 0 1 0-.08l.8-.83zm-.67.96.73-.8v-.11h-.02l-.79.83zm.78-.91.05 1.49.88-.19.06-.26-.47-1.04z"/><path d="m10.06 9.6.12-.55.06.01-.12.55-.01.02-.32.4-.04-.04.31-.4zm.94.36.04-.32h.06l-.05.33v.01l-.61 1.7-.05-.02.6-1.7zm-.7-.79a.06.06 0 0 1 .08-.03l.14.07c.03.02.04.05.03.08l-.17.37a.06.06 0 0 1 -.09.03l-.11-.07a.06.06 0 0 1 -.03-.07l.06.02.11.07.18-.37-.15-.08-.14.38-.06-.02z"/><path d="m10.56 9.37a.06.06 0 0 1 .1-.01l.11.1c.03.03.03.06.01.09l-.25.32a.06.06 0 0 1 -.09 0l-.1-.08a.06.06 0 0 1 0-.08l.04.03.1.1.25-.33-.12-.1-.23.33-.04-.03zm.24.33a.06.06 0 0 1 .09-.02l.12.11c.02.02.02.06 0 .08l-.24.33a.06.06 0 0 1 -.1 0l-.09-.09a.06.06 0 0 1 0-.07l.04.03.1.09.25-.32-.12-.11-.23.34-.05-.03.23-.35zm-.73.3a.06.06 0 0 1 .1 0l.09.17v.05l-.25.39-.05-.04.25-.38-.08-.17-.18.34-.06-.02.18-.35zm-.1-.25-.1-.15.05-.03.1.15z"/><path d="m9.97 10.22-.16-.27.05-.03.16.27zm.38.14a.06.06 0 0 1 .1.01l.04.1v.13l-.02.04-.4.45-.04-.04.4-.45v-.1l-.04-.1-.34.42-.04-.03zm.15.51a.06.06 0 0 1 .05-.02l.14.01v.06l-.15-.01-.5.49-.04-.04.5-.5zm.09.39-.66.52-.03-.05.65-.52zm.56-1.45c.01-.02.03-.04.06-.04h.18c.04 0 .06.03.05.07l-.13.5c0 .03-.03.05-.06.05h-.13a.06.06 0 0 1 -.06-.07l.1-.5zm.24.01h-.18l-.09.51h.13l.14-.5zm-.56.92c0-.02.03-.04.06-.04h.53c.05 0 .08.05.05.09l-.5.62a.06.06 0 0 1 -.04.02h-.14a.06.06 0 0 1 -.06-.07zm.6.01h-.54l-.1.62h.14zm.07-1.04c.01-.03.04-.05.07-.05h.17c.04 0 .07.04.06.08l-.14.5c0 .03-.03.04-.05.04h-.13a.06.06 0 0 1 -.06-.06l.09-.51zm.24.01h-.17l-.1.5h.14zm-2.85-3.26a.36.36 0 0 0 -.08.14c0 .02-.03.04-.06.04-.13 0-.19.1-.2.14l-.06-.01a.26.26 0 0 1 .27-.19c.01-.05.04-.1.09-.16a.26.26 0 0 1 .2-.09c.13 0 .2.07.24.12v.01h.02c.04-.01.1-.02.16 0 .06.01.11.06.15.14l-.06.03c-.03-.07-.07-.1-.11-.12a.21.21 0 0 0 -.13 0 .07.07 0 0 1 -.08-.03c-.02-.04-.08-.09-.2-.09a.2.2 0 0 0 -.15.07z"/><path d="m9.62 6.64c-.15 0-.23.12-.25.2 0 .02-.03.04-.06.04-.13 0-.19.09-.2.12l-.06-.02c.02-.05.1-.15.26-.15.03-.1.12-.25.31-.25.1 0 .16.03.2.08.04.04.06.1.07.14.1 0 .22 0 .3.08.1.08.13.22.07.46l-.06-.02c.06-.22.02-.34-.04-.4-.07-.06-.17-.07-.25-.06a.07.07 0 0 1 -.08-.05.2.2 0 0 0 -.05-.11.2.2 0 0 0 -.16-.06z"/><path d="m9.4 7.15c.02.05.05.12.1.19.06.12.08.27.08.34h-.06c0-.06-.01-.2-.08-.31a1.5 1.5 0 0 1 -.1-.24v-.03c0-.01 0-.03.02-.03h.04c.03 0 .08.03.11.06a1.5 1.5 0 0 1 .11.08 1.08 1.08 0 0 1 .19-.1c.02-.01.04-.02.06-.01.02 0 .03.02.03.03v.05l-.03.1-.11.22-.05-.02a2.31 2.31 0 0 0 .14-.33h-.02a1.02 1.02 0 0 0 -.17.1.06.06 0 0 1 -.07 0 1.45 1.45 0 0 0 -.2-.13zm1.3.22a.43.43 0 0 0 -.17 0l-.01-.05a.49.49 0 0 1 .18 0c.07.01.14.04.18.11h.01a.34.34 0 0 1 .19-.05c.07 0 .14.03.2.12.08.13.1.24.07.31v.02l.02.01c.04.01.1.04.12.08.03.06.03.12-.01.21l-.05-.02c.03-.08.03-.13.01-.16-.01-.03-.05-.04-.08-.05a.08.08 0 0 1 -.05-.04.08.08 0 0 1 -.01-.06c.01-.05 0-.15-.07-.27-.05-.07-.1-.1-.15-.1-.06 0-.11.03-.15.06-.04.02-.08 0-.1-.03-.03-.05-.08-.07-.14-.09zm1.12 1.05a.34.34 0 0 0 -.07.09l-.05-.03a.4.4 0 0 1 .09-.1c.04-.04.1-.07.16-.08v.06a.2.2 0 0 0 -.13.06zm-4.05.3h.32l.03.57h.06l-.04-.57a.06.06 0 0 0 -.05-.05h-.32a.06.06 0 0 0 -.06.05l-.02.63h.06z"/><path d="m7.82 8.88c0-.04.04-.06.07-.06l.1.01c.04 0 .06.03.06.06l.02.41h-.07l-.02-.4-.1-.02-.03.45h-.05zm1.64 0c0-.03.04-.06.07-.05l.16.02c.03 0 .05.04.05.08l-.1.36.05.02c.02 0 .04.03.04.05v.18l.14.1-.03.05-.15-.1a.06.06 0 0 1 -.02-.05v-.18l-.05-.02a.06.06 0 0 1 -.03-.07l.09-.36-.16-.02-.04.37v.02l-.12.24-.06-.03.12-.24zm.39-1.29c.03-.04.1-.02.1.02l.07.48c.01.05-.04.08-.08.06l-.34-.15a.06.06 0 0 1 -.02-.09l.27-.31zm.04.03-.27.32.35.16zm-.44.62c0-.03.04-.06.07-.05l.15.03c.03 0 .05.03.05.06l-.05.43c0 .04-.04.06-.07.05l-.16-.04a.06.06 0 0 1 -.04-.07zm.21.04-.15-.03-.05.41.15.05zm.16.05c0-.03.04-.05.07-.04l.15.05c.03 0 .05.03.04.06l-.1.42c0 .04-.04.06-.07.04l-.15-.06a.06.06 0 0 1 -.03-.06l.09-.4zm.2.06-.14-.05-.1.4.15.07.1-.42zm-2.68 2.74v.05l.02.02c.02.01.05.03.1.03.07.02.15.02.21.01a1.09 1.09 0 0 0 -.21-.1.22.22 0 0 0 -.1-.02h-.02zm.14-.05c.08.03.18.08.25.13.02.01.03.03.03.05s-.03.03-.04.04h-.27a.31.31 0 0 1 -.13-.05.1.1 0 0 1 -.05-.11.1.1 0 0 1 .04-.06.1.1 0 0 1 .05-.02c.03 0 .08 0 .12.02z"/><path d="m7.99 11.04s.02 0 .02.05 0 .08-.02.1a.15.15 0 0 1 -.08.04.4.4 0 0 1 -.16 0 .91.91 0 0 1 .18-.16.19.19 0 0 1 .04-.02h.02zm-.1-.02c-.06.04-.14.13-.2.2v.04c0 .01 0 .02.02.03.05.01.14.02.22 0a.2.2 0 0 0 .1-.07.18.18 0 0 0 .04-.14c0-.05-.03-.09-.07-.1a.1.1 0 0 0 -.05.01.24.24 0 0 0 -.06.03zm-.39-.1v.02a1.36 1.36 0 0 0 .2.15 18.15 18.15 0 0 0 .19-.2v-.01a.48.48 0 0 0 -.13-.1.16.16 0 0 0 -.06-.02l-.05.01a.33.33 0 0 0 -.06.05.65.65 0 0 0 -.1.1zm.13-.2a.15.15 0 0 1 .08-.02l.08.03a.6.6 0 0 1 .15.13l.01.02v.03h-.01a1.3 1.3 0 0 1 -.07.08l-.13.13a.06.06 0 0 1 -.07.01 1.4 1.4 0 0 1 -.15-.1.35.35 0 0 1 -.06-.06c-.02-.02-.03-.05-.01-.08a.7.7 0 0 1 .1-.12.4.4 0 0 1 .08-.05z"/></g></svg>