<svg fill="none" height="18" width="18" xmlns="http://www.w3.org/2000/svg"><path d="m0 0h18v18h-18z" fill="#00adef"/><path clip-rule="evenodd" d="m11.876 11.232c-1.448 1.818-2.735 2.768-3.676 2.768-.621 0-1.147-.596-1.576-1.703l-.86-3.042c-.319-1.106-.66-1.848-1.026-1.848-.08 0-.359.162-.836.484l-.502-.623c.522-.442 1.04-.888 1.555-1.338.701-.585 1.228-.892 1.579-.923.829-.077 1.34.47 1.53 1.64.208 1.264.351 2.238.431 2.545.24 1.048.502 1.571.79 1.571.223 0 .557-.34 1.004-1.019.446-.68.685-1.257.718-1.612.063-.587-.176-.88-.718-.88-.255 0-.518.056-.788.168.35-1.473 1.524-2.459 3-2.413 1.324.041 1.62 1.077 1.454 2.188-.228 1.515-1.133 2.864-2.079 4.037z" fill="#fff" fill-rule="evenodd"/></svg>