<svg height="18" width="18" xmlns="http://www.w3.org/2000/svg"><path d="m0 0h18v18h-18z" fill="#f0f3fa"/><path d="m11.327 4.83c-.522-.217-1.178-.415-1.78-.415a4.42 4.42 0 0 0 -4.42 4.42c0 1.527.751 2.914 1.928 3.709-1.655-.672-2.699-2.284-2.699-4.124a4.42 4.42 0 0 1 4.42-4.42c.914 0 1.846.355 2.551.83z" fill="#252525"/><path d="m12.235 11.337a4.48 4.48 0 0 1 -7.155-5.359 4.48 4.48 0 1 0 7.156 5.359z" fill="#989898"/><path d="m9.043 14.086a4.984 4.984 0 0 0 4.984-4.984l-1.098-.712v.024c0 .598 0 1.303-.207 1.845-.678 1.77-2.305 3.115-4.243 3.115-1.793 0-3.306-1.112-4.064-2.61.708 1.89 2.49 3.322 4.628 3.322z" fill="#222"/><path d="m12.84 12.306a4.33 4.33 0 0 0 1.219-3.01c0-2.425-2.01-4.88-4.485-4.88-1.64 0-3.073.863-3.854 2.15a4.51 4.51 0 0 1 3.261-1.38c2.474 0 4.485 2.456 4.485 4.881 0 .818-.228 1.584-.626 2.24z" fill="#525252"/><path d="m12.769 10.16c.34-.282.546-.652.546-1.058 0-.884-.983-1.602-2.195-1.602-.395 0-1.484.356-1.484.356-1.243-.392-2.877-1.486-2.877-.89v1.246l.385-.593.144.593.242-.445 1.602 1.068c-.148.594-1.854 1.56-1.844 1.602.331 1.395 2.9-1.69 3.743-1.69.896 0 1.636.617 1.738 1.413z" fill="#222"/><circle cx="8.882" cy="7.995" fill="#f0f3fa" r=".148"/></svg>