<svg height="18" width="18" xmlns="http://www.w3.org/2000/svg"><path d="m0 0h18v18h-18z" fill="#00306e"/><path d="m12.068 4a.694.694 0 0 0 -.312.075.617.617 0 0 0 -.233.203l-5.146 7.444a.25.25 0 0 0 0 .283l1.265 1.852c.028.043.069.08.117.105a.35.35 0 0 0 .319 0 .31.31 0 0 0 .118-.103l6.804-9.859z" fill="#0c9"/><path d="m5.667 7.005-2.401-.007a.307.307 0 0 0 -.137.036.255.255 0 0 0 -.097.09.21.21 0 0 0 .011.237l1.17 1.64z" fill="#0e7a77"/><path d="m6.126 11.637 4.512-6.634h-3.058a.713.713 0 0 0 -.318.076.619.619 0 0 0 -.233.204l-2.516 3.72a.252.252 0 0 0 0 .285z" fill="#099d91"/></svg>