<svg height="18" viewBox="0 0 18 18" width="18" xmlns="http://www.w3.org/2000/svg"><path d="m0 0h18v18h-18z" fill="#f0f3fa"/><path d="m5.35 5-2.35 8h2.76l1.01-3.63z" fill="#d58449"/><path d="m6.54 8.67-1.2-3.67-.25.88c.43.54 1.03 1.81 1.45 2.79z" fill="#bb653b"/><path d="m12.65 5 2.35 8h-2.76l-1.01-3.63z" fill="#d58449"/><path d="m11.46 8.67 1.2-3.67.25.88c-.43.54-1.03 1.81-1.45 2.79z" fill="#bb653b"/><path d="m7.67 13-2.32-7.97c2.18-.32 3.37 2.03 3.69 3.25.9-2.99 2.79-3.41 3.62-3.25l-2.31 7.97z" fill="#3a3a3c"/><path d="m7.4 12.08.27.92h.09l1.06-4.16c-.59 2.02-1.1 2.91-1.42 3.24z" fill="#212122"/></svg>