<svg height="18" viewBox="0 0 18 18" width="18" xmlns="http://www.w3.org/2000/svg"><path d="m0 0h18v18h-18z" fill="#281352"/><path d="m9 6.59c-.02 0-.25-.58-.5-1.29a5.06 5.06 0 0 0 -.59-1.3 7.1 7.1 0 0 0 -1.35.48c-.03.03.2.73.5 1.56s.53 1.52.51 1.54-.71-.21-1.54-.52c-.83-.3-1.53-.52-1.56-.5-.08.1-.5 1.32-.48 1.4.02.03.6.28 1.3.54s1.28.48 1.28.5-.57.25-1.27.5c-.7.27-1.3.5-1.3.55-.04.07.39 1.3.47 1.39.03.02.73-.2 1.56-.5s1.52-.54 1.54-.52-.22.71-.52 1.54-.52 1.53-.5 1.56c.1.08 1.32.5 1.4.48.03-.02.28-.6.54-1.3.25-.7.48-1.28.5-1.28s.25.57.5 1.27c.26.7.5 1.3.55 1.3.07.04 1.3-.39 1.38-.47.03-.03-.2-.73-.5-1.56s-.53-1.52-.51-1.54.71.22 1.54.52 1.53.52 1.56.5c.08-.1.5-1.32.48-1.4-.02-.03-.6-.27-1.3-.53a15.6 15.6 0 0 1 -1.28-.5c0-.03.57-.25 1.27-.51s1.3-.5 1.3-.55c.04-.07-.39-1.3-.47-1.38-.03-.03-.73.2-1.56.5s-1.52.53-1.54.51.22-.7.52-1.54c.3-.83.52-1.53.5-1.56a6.92 6.92 0 0 0 -1.4-.48c-.03.02-.28.6-.54 1.3-.25.71-.48 1.29-.5 1.29zm0 3.41a1 1 0 1 0 0-2 1 1 0 0 0 0 2z" fill="#fdc300" fill-rule="evenodd"/></svg>