<svg fill="none" height="18" width="18" xmlns="http://www.w3.org/2000/svg"><path d="m0 0h18v18h-18z" fill="#f0f3fa"/><g clip-rule="evenodd" fill-rule="evenodd"><path d="m8 8.139c0-.658-.404-1.139-1.047-1.139h-1.722c-.705 0-1.231-.565-1.231-1.223v-.777h2.837c1.781 0 3.163 1.315 3.163 3.139 0 1.68-2 1.66-2 0z" fill="#adae98"/><path d="m8.881 15c.642 0 1.119-.592 1.119-1.25v-5.581c0-.659.575-1.169 1.217-1.169h1.615c.643 0 1.168-.565 1.168-1.223v-.777h-2.666c-1.781 0-3.334 1.495-3.334 3.318v6.682z" fill="#85716b"/></g></svg>