<svg height="18" viewBox="0 0 18 18" width="18" xmlns="http://www.w3.org/2000/svg" xmlns:xlink="http://www.w3.org/1999/xlink"><linearGradient id="a"><stop offset="0" stop-color="#0c942e"/><stop offset="1" stop-color="#96fd00"/></linearGradient><linearGradient id="b" gradientUnits="userSpaceOnUse" x1="12" x2="12" xlink:href="#a" y1="6" y2="14"/><linearGradient id="c" gradientUnits="userSpaceOnUse" x1="9.15" x2="9.15" y1="4" y2="11.35"><stop offset="0" stop-color="#00389c"/><stop offset=".94" stop-color="#00f4f8"/></linearGradient><linearGradient id="d" gradientUnits="userSpaceOnUse" x1="6" x2="6" xlink:href="#a" y1="6" y2="14"/><path d="m0 0h18v18h-18z" fill="#f0f3fa"/><path d="m10 14a5.5 5.5 0 0 0 4-5.25c0-1-.28-1.94-.76-2.75l-1.52 4.77-.46-.87z" fill="url(#b)"/><path d="m11.94 4.77a5.54 5.54 0 0 0 -5.59-.06l2.65 6.29 1.51-4.1.5.87z" fill="url(#c)"/><path d="m4.87 6a5.18 5.18 0 0 0 -.87 2.88c0 2.42 1.7 4.49 4 5.12z" fill="url(#d)"/></svg>