<svg height="18" width="18" xmlns="http://www.w3.org/2000/svg" xmlns:xlink="http://www.w3.org/1999/xlink"><linearGradient id="a"><stop offset="0" stop-color="#f7941d"/><stop offset="1" stop-color="#f26322"/></linearGradient><linearGradient id="b" gradientUnits="userSpaceOnUse" x1="17.293" x2=".5" xlink:href="#a" y1="9.541" y2="9.496"/><linearGradient id="c" gradientUnits="userSpaceOnUse" x1="17.658" x2=".5" xlink:href="#a" y1="9.633" y2="9.541"/><path d="m0 0h18v18h-18z" fill="url(#b)"/><circle cx="9" cy="9" fill="url(#c)" r="9"/><g fill="#fff"><path d="m11.945 5.752c-.309.693-2.133 4.817-2.948 6.668.173.395.302.68.36.816.308.692.642.757.687.764h.006l3.95-8.87a1.766 1.766 0 0 0 -.694-.129c-.507 0-1.104.175-1.361.75z"/><path d="m9.357 13.23c-.334-.751-2.91-6.584-3.3-7.478-.393-.9-1.639-.822-2.056-.628l3.584 8.086c.224.486.687.79 1.406.79h1.06s-.36-.02-.694-.77z"/></g></svg>