<svg fill="none" height="18" width="18" xmlns="http://www.w3.org/2000/svg"><path d="m0 0h18v18h-18z" fill="#f0f3fa"/><path clip-rule="evenodd" d="m9.411 7.487c.05 1.284 1.344 2.558 2.539 2.558 1.667 0 2.767-1.803 2.514-3.269-.152-.88-.985-1.764-2.15-1.817-2.007-.091-2.956 1.15-2.903 2.528zm2.225 1.318v-1.941h-.671c-.157 0-.283-.143-.283-.318 0-.176.126-.319.283-.319h1.979c.157 0 .283.143.283.319 0 .175-.126.318-.283.318h-.671v1.94c0 .159-.143.287-.318.287-.176 0-.319-.128-.319-.286zm-7.634-2.115c.05 1.365 1.344 2.72 2.539 2.72 1.667 0 2.767-1.917 2.514-3.475-.152-.934-.985-1.873-2.15-1.93-2.007-.097-2.956 1.221-2.903 2.686zm1.873-1.082a.318.318 0 1 0 -.569.284l.955 1.91a.318.318 0 0 0 .569 0l.955-1.91a.318.318 0 0 0 -.57-.284l-.67 1.34zm.036 6.333c.05 1.284 1.344 2.559 2.539 2.559 1.667 0 2.767-1.803 2.514-3.27-.152-.879-.985-1.763-2.15-1.816-2.007-.092-2.956 1.15-2.903 2.527zm1.874-1.083a.318.318 0 0 0 -.57.284l.955 1.91a.318.318 0 0 0 .57 0l.954-1.91a.318.318 0 1 0 -.57-.284l-.67 1.34-.67-1.34z" fill="#1a429a" fill-rule="evenodd"/></svg>