<svg height="18" width="18" xmlns="http://www.w3.org/2000/svg"><path d="m0 0h18v18h-18z" fill="#ed1c24"/><g fill="#fff"><path d="m10.046 4.11a5 5 0 0 1 -2.092 9.78l.206-.964a4.015 4.015 0 1 0 1.68-7.852l.206-.963z"/><path d="m13.313 9.965a4.42 4.42 0 0 1 -8.626-1.93l.4.089a4.01 4.01 0 1 0 7.827 1.752l.4.09z"/><path d="m5.64 8.298a3.433 3.433 0 0 1 6.721 1.404l-1.015-.212a2.396 2.396 0 1 0 -4.69-.98z"/><path d="m8.63 10.795a1.833 1.833 0 0 1 .742-3.59l-.2.966a.846.846 0 0 0 -.343 1.658l-.2.966z"/><path d="m8.011 7.457a1.832 1.832 0 0 1 1.978 3.086l-.222-.347a1.421 1.421 0 0 0 -1.533-2.392z"/><path d="m9.676 5.634a3.433 3.433 0 0 1 -1.35 6.732l.086-.434a2.99 2.99 0 1 0 1.178-5.864l.087-.434z"/></g></svg>