<svg height="18" viewBox="0 0 18 18" width="18" xmlns="http://www.w3.org/2000/svg" xmlns:xlink="http://www.w3.org/1999/xlink"><linearGradient id="a" gradientUnits="userSpaceOnUse" x1="3.35" x2="21.9" y1="3.12" y2="24.43"><stop offset="0" stop-color="#1a1e21"/><stop offset="1" stop-color="#06060a"/></linearGradient><path d="m0 0h18v18h-18z" fill="url(#a)"/><path d="m9.02 7.13-.4 1.2 1.16 3.67h.75l.93-3 .93 3h.75l1.86-6h-.75l-1.5 4.5-.9-2.76.53-1.74h-.74l-.19.56-.19-.56h-.74l.54 1.74-.92 2.76z" fill="#fff"/><path d="m3 11.25v.75c.75 0 1.56-2.75 1.87-4.13.32.63.98 2 1.13 2.44.19.56.56 1.69 1.31 1.69s1.13-1.13 1.13-1.69.75-2.62.75-3c0-.37.37-1.31 0-1.31-.38 0-.75 1.88-.94 2.25s-.75 2.44-.94 2.63c-.19.18-1.12-1.7-1.31-2.44-.19-.75-.75-2.44-1.31-2.44-.45 0-1.32 3.5-1.69 5.25z" fill="#bcab98"/></svg>