<svg height="18" viewBox="0 0 18 18" width="18" xmlns="http://www.w3.org/2000/svg"><path d="m0 0h18v18h-18z" fill="#007dc3"/><path d="m9 7.37c.26 0 .48-.12.51-.28l.26-2.62c0-.27-.34-.47-.77-.47-.42 0-.77.21-.77.47l.26 2.62c.03.16.25.28.51.28zm-1.59.81c.13-.2.12-.43-.02-.53l-2.41-1.5c-.25-.13-.63.02-.84.35s-.18.7.07.82l2.67 1.11c.18.06.4-.04.53-.25zm3.18 0c.13.2.36.31.52.25l2.68-1.1c.25-.14.29-.5.07-.83s-.6-.49-.84-.36l-2.42 1.51c-.13.1-.14.33-.01.53zm-1.59 2.45c.26 0 .48.12.51.28l.26 2.62c0 .26-.34.47-.77.47-.42 0-.77-.21-.77-.47l.26-2.62c.03-.16.25-.28.51-.28zm1.59-.81c.13-.2.36-.31.52-.25l2.68 1.1c.25.14.29.5.07.83s-.6.49-.84.36l-2.42-1.51c-.13-.1-.14-.33-.01-.53zm-3.18 0c.13.2.12.43-.02.53l-2.41 1.5c-.25.13-.63-.02-.84-.35s-.18-.7.07-.83l2.67-1.11c.18-.05.4.05.53.26z" fill="#fdbb30"/></svg>