<svg height="18" viewBox="0 0 18 18" width="18" xmlns="http://www.w3.org/2000/svg"><path d="m0 0h18v18h-18z" fill="#f0f3fa"/><g fill="#0072bf"><path d="m9.61 11.04c2.12-1.58 2.9-3.81 1.76-4.98a2.64 2.64 0 0 0 -1.82-.7c1.58-.56 3.12-.48 3.92.34 1.15 1.17.37 3.4-1.75 4.98a6.75 6.75 0 0 1 -4.1 1.44c.67-.25 1.36-.6 2-1.08z"/><path d="m8.39 6.96c-2.12 1.58-2.9 3.81-1.76 4.98.43.44 1.07.67 1.82.7-1.58.56-3.12.48-3.92-.34-1.15-1.17-.37-3.4 1.75-4.98a6.74 6.74 0 0 1 4.1-1.44c-.67.25-1.36.6-2 1.08z"/><path d="m9.98 8.82a1 1 0 1 1 -1.96.36 1 1 0 0 1 1.96-.36z"/></g></svg>