<svg height="18" viewBox="0 0 18 18" width="18" xmlns="http://www.w3.org/2000/svg"><path d="m0 0h18v18h-18z" fill="#f0f3fa"/><path d="m4.91 6h-1.66c-.18 0-.3.18-.23.33l3.05 6.46c.06.13.19.21.34.21h1.79c.15 0 .28-.08.34-.21l2.98-6.46c.07-.16-.05-.33-.23-.33h-1.59c-.1 0-.19.05-.23.14l-2.2 4.6-2.13-4.6a.25.25 0 0 0 -.23-.14z" fill="#0ba5e1"/><path d="m8.37 6h-1.66c-.18 0-.3.18-.23.33l3.05 6.46c.06.13.19.21.34.21h1.79c.15 0 .28-.08.34-.21l2.98-6.46c.07-.16-.05-.33-.23-.33h-1.6c-.09 0-.18.05-.22.14l-2.2 4.6-2.13-4.6a.25.25 0 0 0 -.23-.14z" fill="#024997"/><path d="m7.92 9.39 1.1 2.34 1.09-2.33-1.08-2.33-1.1 2.32z" fill="#007bb7"/></svg>