<svg height="18" viewBox="0 0 18 18" width="18" xmlns="http://www.w3.org/2000/svg"><path d="m0 0h18v18h-18z" fill="#55524b"/><path d="m10.26 6h.79l-2.25 6h-.6l-1.13-2.82-.76-1.92-1.87 4.74h-.6l-.06-.16-.01-.03-2.17-5.8h.79l1.76 4.73 1.87-4.74h.6l1.88 4.73zm-3.94.72-2 5.06zm2.35 5.06 1.04-2.78 1.04-2.77h-.36.36zm-.17-.48-2-5.07h-.35.34zm-6.24-5.07h-.07.07l1.89 5.07-1.9-5.07zm12.63 4.93c-.3.16-.76.26-1.44.26-.82 0-1.41-.12-1.8-.37a1.28 1.28 0 0 1 -.58-1.05v-.22l-.33.02.16-.01.16-.01v.08c.01.54.2.93.59 1.19.39.25.98.37 1.8.37.68 0 1.13-.1 1.44-.26zm.6-.02c.23-.28.31-.6.31-.9 0-.37-.12-.65-.37-.87-.22-.2-.56-.34-1-.42l-1.89-.35-.08-.02c-1.05-.2-1.19-.6-1.19-.95 0 .34.14.75 1.2.95l1.96.37c.44.08.78.22 1 .42.25.22.37.5.37.87 0 .3-.08.62-.32.9zm.17-3.2v-.08l-.02-.14c-.12-1.02-.9-1.5-2.45-1.5 1.62 0 2.4.52 2.46 1.64v.07zm-4.9-.32c0-.55.22-.97.66-1.24a3.37 3.37 0 0 1 1.77-.38c.82 0 1.46.13 1.92.43.46.31.7.79.74 1.41v.04l.02.26-.2.02-.53.05v-.3c-.03-.29-.1-.53-.31-.72-.23-.2-.65-.37-1.44-.39h-.16c-.58 0-1 .06-1.28.18a.82.82 0 0 0 -.37.27c-.07.1-.11.22-.11.38 0 .13.02.25.14.37s.37.27.89.36l.07.02 1.9.36c.45.08.82.22 1.09.46.3.25.44.6.44 1.04 0 .4-.12.86-.53 1.2-.4.35-1.06.56-2.06.56-.8 0-1.45-.12-1.92-.4a1.77 1.77 0 0 1 -.86-1.1c-.05-.2-.08-.4-.08-.62v-.28l.5-.05h.21v.31c0 .24.05.44.13.6.07.15.2.29.36.4.34.22.9.34 1.7.34.86 0 1.32-.18 1.56-.38.23-.18.27-.4.27-.57 0-.2-.06-.33-.2-.44a1.86 1.86 0 0 0 -.82-.3l-1.84-.34a4.25 4.25 0 0 1 -.46-.11 1.9 1.9 0 0 1 -.86-.5 1.34 1.34 0 0 1 -.35-.94z" fill="#ffebb6"/></svg>