<svg height="18" viewBox="0 0 18 18" width="18" xmlns="http://www.w3.org/2000/svg"><path d="m0 0h18v18h-18z" fill="#f0f3fa"/><path d="m6 8.33 1.72 1.83c.37.4.37 1.04 0 1.44l-1.04 1.1c-.38.4-.98.4-1.36 0l-1.04-1.1a1.06 1.06 0 0 1 0-1.44zm6 0 1.72 1.83c.37.4.37 1.04 0 1.44l-1.04 1.1c-.38.4-.98.4-1.36 0l-1.04-1.1a1.06 1.06 0 0 1 0-1.44z" fill="#5ec1d6"/><path d="m7.9 6.45c.6-.6 1.6-.6 2.2 0l1.4 1.56-2.5 2.66-2.5-2.67 1.4-1.56zm-3.48-.06c-.42-.52-1.1-.52-1.52 0l-.58.72a1.56 1.56 0 0 0 0 1.88l1.3 1.68a1.8 1.8 0 0 1 .27-1.24l1.62-1.69-1.1-1.35zm9.16 0c.42-.52 1.1-.52 1.52 0l.59.72c.21.27.32.62.31.97 0 .33-.11.66-.31.9l-1.35 1.69a1.8 1.8 0 0 0 -.28-1.24l-1.56-1.69 1.1-1.35z" fill="#036991"/></svg>