<svg height="18" viewBox="0 0 18 18" width="18" xmlns="http://www.w3.org/2000/svg"><path d="m0 0h18v18h-18z" fill="#f0f3fa"/><path d="m5 6h1.58v1h-1.58zm0 2v3.83c0 .59 0 1.17 1.05 1.17.53 0 .83-.21 1.06-.58.35-.59 1.15-1.99 1.57-2.92.35-.77.34-.53.33-.21l-.01.21v2.33c0 .59.21 1.17 1.26 1.17.68 0 1.06-.58 1.06-.58l2.53-4.42h-1.82c-.27.56-.54 1.1-.71 1.5-.43.93-.82.39-.82 0v-.28-1.22h-2.67c-.3.54-.54 1.1-.72 1.5-.43.93-.53.39-.53 0v-1.5zm3.43-1h1.96c-.1-.58-.3-1-.65-1-.45 0-.9.42-1.3 1zm4.1 0h1.9l.57-1h-2l-.48 1z" fill="#0070b9"/></svg>