<svg height="18" viewBox="0 0 18 18" width="18" xmlns="http://www.w3.org/2000/svg"><path d="m0 0h18v18h-18z" fill="#253551"/><path d="m3 5v.22h.3c.32 0 .46.27.48.41l2.52 8.25c.02.07.09.12.16.12h.03c.07 0 .13-.05.15-.12l2.26-6.36 2.4 6.37c.03.07.1.11.16.11h.04c.07 0 .13-.05.16-.12l2.5-8.2c.12-.36.33-.46.41-.46h.43v-.22h-2.42v.22h.34c.33 0 .38.27.36.41l-1.53 5.93-2.37-6.46a.17.17 0 0 0 -.16-.1h-.01a.17.17 0 0 0 -.16.12l-2.17 6.44c-.5-1.82-1.53-5.56-1.6-5.93-.08-.38.12-.43.23-.41h.36v-.22z" fill="#fff"/></svg>