<svg height="18" width="18" xmlns="http://www.w3.org/2000/svg"><path d="m0 0h18v18h-18z" fill="#004684"/><path d="m14.47 7.943-1.373 1.225-1.028-1.13a.53.53 0 0 0 -.679.043c-.259.243-.144.542-.054.66.46.471 1.415 1.435 1.557 1.524.142.09.335.037.414 0l1.665-1.795a.443.443 0 0 0 -.07-.431c-.134-.18-.343-.139-.431-.096zm-6.4 1.547 1.56 1.018-1.833.2a.402.402 0 0 0 -.352.406c0 .288.235.383.352.395h2.923c.093-.004.324-.073.5-.318.177-.245.018-.585-.083-.724l-2.072-2.038c-.218-.188-.737-.442-1.066.047-.329.49-.09.88.072 1.013zm1.427-5.49-2.169.068c-.102.027-.306.132-.3.333s.203.306.3.333c.515.043 1.563.211 1.839.268.23.047.317.083.33.115l.675.63c.27.202.503.121.75-.103.199-.18.048-.464-.052-.584l-.825-.829c-.162-.163-.433-.222-.548-.231zm1.506 2h-2.255c-.25.03-.748.276-.743 1.01s.498.966.743.99h2.255c.245-.007.742-.214.761-.99.02-.776-.5-.997-.761-1.01zm-4.57 1.554.066 2.755c-.804.989-2.425 3.004-2.472 3.153-.06.186-.023.322.151.472.14.12.333.05.413 0 .778-.816 2.38-2.496 2.569-2.682.189-.187.286-.495.311-.626l.397-3.072c-.01-.228-.164-.678-.708-.663a.718.718 0 0 0 -.727.663zm6.949-1.21a.795.795 0 0 1 -.809.781.795.795 0 0 1 -.808-.781c0-.432.362-.782.808-.782.447 0 .81.35.81.782z" fill="#fff"/></svg>