<svg height="18" viewBox="0 0 18 18" width="18" xmlns="http://www.w3.org/2000/svg"><path d="m0 0h18v18h-18z" fill="#f0f3fa"/><path d="m5.85 6h-1.67c-.13 0-.22.15-.16.28l2.7 6.6c.05.15.23.16.3.03l.95-1.58a.22.22 0 0 0 .02-.19l-1.99-5.02a.18.18 0 0 0 -.15-.12zm4 0h-1.67c-.13 0-.22.15-.16.28l2.7 6.6c.05.15.23.16.3.03l.95-1.58a.22.22 0 0 0 .02-.19l-1.99-5.02a.18.18 0 0 0 -.15-.12z" fill="#aa263d"/><path d="m13.9 6h-2.8c-.1 0-.14.11-.06.16.37.25 1.01.63 1.3.8.1.05.16.15.16.25v1.34c0 .1.08.1.13.01l1.36-2.43c.03-.06-.02-.13-.1-.13z" fill="#eeb210"/></svg>