<svg height="18" viewBox="0 0 18 18" width="18" xmlns="http://www.w3.org/2000/svg" xmlns:xlink="http://www.w3.org/1999/xlink"><linearGradient id="a"><stop offset="0" stop-color="#242577"/><stop offset="1" stop-color="#0083cd"/></linearGradient><linearGradient id="b" gradientUnits="userSpaceOnUse" x1="4.88" x2="5.47" xlink:href="#a" y1="6" y2="13.01"/><linearGradient id="c" gradientUnits="userSpaceOnUse" x1="10.5" x2="10.5" y1="6" y2="13"><stop offset="0" stop-color="#da251c"/><stop offset=".46" stop-color="#d82520"/><stop offset="1" stop-color="#f9db05"/></linearGradient><linearGradient id="d" gradientUnits="userSpaceOnUse" x1="7.88" x2="8.47" xlink:href="#a" y1="6" y2="13.01"/><linearGradient id="e" gradientUnits="userSpaceOnUse" x1="13.13" x2="13.13" y1="6" y2="13"><stop offset="0" stop-color="#212879"/><stop offset="1" stop-color="#097fc7"/></linearGradient><path d="m0 0h18v18h-18z" fill="#f0f3fa"/><path d="m5.25 6h-2.25l1.88 7h1.5l.37-1.33z" fill="url(#b)"/><path d="m9.75 6.5c0-.27.25-.44.38-.5h-.76c-.93 0-1.68.83-1.68 1.5 0 .53.25 1 .37 1.17l2.06 2.5c.2.16.94 1 .94 1.33 0 .27-.25.44-.37.5h.56c.75 0 1.69-.83 1.69-1.67 0-.83-.94-1.83-1.31-2.33-.38-.5-1.88-2.17-1.88-2.5z" fill="url(#c)"/><path d="m8.25 6h-2.25l1.88 7h1.5l.37-1.33-.15-.58-1.84-2.23h-.01c-.16-.22-.44-.75-.44-1.36 0-.44.24-.89.6-1.23.1-.1.21-.19.34-.27z" fill="url(#d)"/><path d="m12.28 13h1.72v-5h1v-2h-3.75v1.98l.14.17c.23.27.44.52.55.67l.2.25c.18.23.4.51.6.8.29.43.57.95.57 1.46 0 .53-.29 1.02-.66 1.38-.11.1-.24.2-.37.29z" fill="url(#e)"/></svg>