<svg height="18" width="18" xmlns="http://www.w3.org/2000/svg"><path d="m0 0h18v18h-18z" fill="#2d4691"/><path d="m3.6 12.98c-.375-.021-.597-.4-.597-1.05 0-2.24-.007-4.131 0-6.37 0-.29.357-.56.551-.56h10.855c.296 0 .544.36.591.624v6.304c0 .572-.236 1.051-.64 1.051 0 0-7.75.047-10.76 0zm3.52-4.28s.16 1.734.234 2.302h1.294s.195-.443.432-1.259.41-1.526.41-1.526l-1.028-.044-.191.716c-.227.94-.173.888-.273-.095l-.07-.646-1.501-.063-.612 1.367.11-1.39-.998-.04-.298 2.98h1.419l1.072-2.301zm4.293 2.3c.255 0 .659.02 1-.254 1.169-.927 1.58-2.586.825-3.394-.156-.168-.479-.32-.744-.352h-2.336l-.248.783h2.014c.471 0 .522.862.334 1.323-.256.62-.94 1.036-1.532.923-.021-.004.076-.414.209-.88.13-.466.223-.859.223-.859l-1.38-.06-.41 1.453c-.227.808-.428 1.319-.428 1.319zm-5.273-4h-1.108l-.09.783h1.064l.133-.783zm1.664 0h-.83l-.417.783h1.345l-.099-.783zm2.106 0h-1.103l-.26.783h1.083l.281-.783z" fill="#fff" opacity=".98"/></svg>