<svg height="18" viewBox="0 0 18 18" width="18" xmlns="http://www.w3.org/2000/svg"><path d="m0 0h18v18h-18z" fill="#58baab"/><path d="m14 6v.45c-.3.04-.58.12-.74.26-.16.13-.3.35-.4.66l-2.06 5.63h-.47l-1.38-3.85-1.41 3.85h-.46l-2.1-5.79a2.27 2.27 0 0 0 -.37-.63c-.1-.1-.38-.16-.61-.16v-.42h2.5v.45c-.5.01-.68.07-.68.25 0 .07.02.15.07.25l1.73 4.62 1.1-3.08-.46-1.28a2.27 2.27 0 0 0 -.38-.63c-.1-.1-.27-.15-.5-.15v-.43h2.42v.43c-.5.01-.71.1-.71.27 0 .07.02.15.06.25l1.74 4.62 1.58-4.46a.89.89 0 0 0 .03-.2.35.35 0 0 0 -.18-.32 2.79 2.79 0 0 0 -.82-.14v-.45z" fill="#f0f3fa"/></svg>