<svg height="18" viewBox="0 0 18 18" width="18" xmlns="http://www.w3.org/2000/svg" xmlns:xlink="http://www.w3.org/1999/xlink"><linearGradient id="a" gradientUnits="userSpaceOnUse" x1="13.71" x2="7.86" y1="5.25" y2="11.78"><stop offset="0" stop-color="#103547"/><stop offset=".47" stop-color="#3e88ad"/><stop offset="1" stop-color="#113947"/></linearGradient><linearGradient id="b" gradientUnits="userSpaceOnUse" x1="4" x2="7.9" y1="7.35" y2="11.12"><stop offset="0" stop-color="#163341"/><stop offset=".58" stop-color="#4b95cd"/><stop offset="1" stop-color="#1d303f"/></linearGradient><linearGradient id="c" gradientUnits="userSpaceOnUse" x1="14" x2="9.86" y1="7.13" y2="11.2"><stop offset="0" stop-color="#7a3b00"/><stop offset=".58" stop-color="#d7861d"/><stop offset="1" stop-color="#864005"/></linearGradient><linearGradient id="d" gradientUnits="userSpaceOnUse" x1="4.29" x2="10.14" y1="5.25" y2="11.78"><stop offset="0" stop-color="#8d4303"/><stop offset=".47" stop-color="#cb7a11"/><stop offset="1" stop-color="#894002"/></linearGradient><linearGradient id="e" gradientUnits="userSpaceOnUse" x1="4" x2="14" y1="12.75" y2="12.75"><stop offset="0" stop-color="#6b3604"/><stop offset=".51" stop-color="#ef9b29"/><stop offset="1" stop-color="#6e3706"/></linearGradient><path d="m0 0h18v18h-18z" fill="#f0f3fa"/><path d="m8 11c0-2.76 2.78-5 6-5v-1c-3.87 0-7 2.69-7 6z" fill="url(#a)"/><path d="m4 7.94c1.66 0 3 1.27 3 2.82l-.01.24h1l.01-.24c0-2.06-1.8-3.76-4-3.76z" fill="url(#b)"/><path d="m14 8a3 3 0 0 0 -3 3h-1a4 4 0 0 1 4-4z" fill="url(#c)"/><path d="m10 11c0-2.76-2.78-5-6-5v-1c3.87 0 7 2.69 7 6z" fill="url(#d)"/><path d="m4 12h10v1h-10z" fill="url(#e)"/></svg>