<svg height="18" width="18" xmlns="http://www.w3.org/2000/svg"><path d="m0 0h18v18h-18z" fill="#07683b"/><g fill="#fff"><path d="m8.316 7.166a.698.698 0 0 1 -.166.182.915.915 0 0 1 -.256-.03c-.11-.026-.215-.04-.232-.028a.75.75 0 0 0 -.083.215.773.773 0 0 1 -.099.232.719.719 0 0 1 -.212.05c-.238.023-.268.034-.268.1 0 .033.05.138.11.232l.113.171.254-.256c.362-.362.673-.525 1.15-.596l.221-.033v-.114c0-.11-.005-.115-.162-.204a.975.975 0 0 0 -.207-.087c-.025 0-.097.075-.163.166zm.962-.075c-.14.083-.146.091-.146.204 0 .102.008.119.055.119.146 0 .505.096.703.19.287.135.53.317.696.524a1.1 1.1 0 0 0 .146.166c.025.003.248-.353.248-.395 0-.063-.063-.09-.262-.11-.234-.022-.26-.047-.342-.315-.069-.223-.066-.22-.306-.157-.248.066-.262.06-.406-.138-.149-.207-.176-.215-.386-.088z"/><path d="m8.627 7.568a2.356 2.356 0 0 0 -.455.169 1.89 1.89 0 0 0 -.81.778c-.08.154-.097.201-.059.187.025-.01.235-.047.464-.08.397-.055.424-.063.568-.165a1.163 1.163 0 0 1 1.374.025c.105.08.157.096.416.132.163.025.373.058.47.08.168.033.17.033.154-.022a1.759 1.759 0 0 0 -.135-.251 1.891 1.891 0 0 0 -1.987-.853zm-.607 2.756c-.013.003-.154.03-.308.056l-.282.05.047.082c.077.132.43.447.615.552.31.17.54.226.935.223.296 0 .376-.01.566-.074.364-.119.676-.342.924-.654l.083-.105-.143-.033a21.35 21.35 0 0 0 -.4-.075l-.254-.041-.13.085a1.115 1.115 0 0 1 -.66.205c-.259.002-.449-.053-.65-.19-.127-.086-.243-.114-.343-.08zm-1.52-2.824h-4.5l1.5 2 3.5-1zm5 0h4.5l-1.5 2-3.5-1zm-4.295 3.102-1.705.898 2-.602zm3.59 0 1.705.898-2-.602z"/><path d="m14 10.15c-4.5-2.65-8.5-1.15-10 0l1 1.25c1.333-1 4.8-2.4 8 0z" opacity=".8"/></g></svg>