<svg height="18" width="18" xmlns="http://www.w3.org/2000/svg"><path d="m0 0h18v18h-18z" fill="#194881"/><path d="m9.903 7.603c-.071-.217-.183-.492-.183-.679 0-.236.264-.54.558-.708.07-.039.152-.059.223-.078v-.138h-3.093v.138c.395.049.923.462 1.105.825.05.099.294.758.294.856 0 .059-.02.128-.111.373l-1.106 3.128h-.02l-1.288-3.776c-.06-.177-.162-.472-.162-.58 0-.276.436-.807.77-.826v-.138h-2.89v.138l.355.196c.314.177.507.482.578.698l2.09 5.968h.1l1.755-4.985h.02l1.766 4.985h.081l1.948-5.535a1.67 1.67 0 0 1 .395-.6l.68-.649c.06-.059.142-.078.233-.078v-.138h-2.505v.138l.426.078c.213.03.69.59.69.895 0 .118-.082.374-.153.59l-1.247 3.579h-.02z" fill="#fff"/></svg>