<svg height="18" viewBox="0 0 18 18" width="18" xmlns="http://www.w3.org/2000/svg"><path d="m0 0h18v18h-18z" fill="#f0f3fa"/><path d="m11 11c.05.13.1.13.12-.02l1.15-5.9c.01-.06.04-.08.08-.08h1.63c.02 0 .02.01.02.03l-1.72 8.89c0 .05-.03.08-.07.08h-1.93a.1.1 0 0 1 -.08-.03 669.77 669.77 0 0 1 -1.12-4.77.14.14 0 0 0 -.04-.08c-.04-.03-.07-.02-.1 0a624.3 624.3 0 0 1 -1.05 4.51c-.02.1-.02.23-.05.3-.01.05-.04.07-.07.07h-2s-.02 0-.03-.02a.08.08 0 0 1 -.02-.04l-1.72-8.88c0-.04 0-.06.04-.06h1.62c.04 0 .06.02.07.07l1.15 5.96.01.04.03.02a.06.06 0 0 0 .07 0c.03-.03.05-.06.04-.11l.01-.14 1.2-5.78c0-.04.02-.06.06-.06h1.4c.03 0 .05.02.06.07a4910.88 4910.88 0 0 0 1.24 5.93z"/></svg>