<!-- by TradingView --><svg width="18" height="18" viewBox="0 0 18 18" xmlns="http://www.w3.org/2000/svg"><path fill="#F0F3FA" d="M0 0h18v18H0z"/><path d="M10.77 11.18c0 1.05-.38 2.01-1 2.76a5.1 5.1 0 0 1-.8.06 4.73 4.73 0 0 1-4.06-1.98 2.64 2.64 0 0 1-.54-1.3c0-.57.2-1.08.63-1.39a1.67 1.67 0 0 1 1.46-.27c.3.45.7.83 1.15 1.12.55.34 1.16.38 1.86.38.43 0 .86-.17 1.25-.31.06.28.05.63.05.93Z" fill="#F4951B"/><path d="M14 9a5 5 0 0 1-4.23 4.94c.62-.75 1-1.7 1-2.76 0-.3 0-.65-.05-.93a3.58 3.58 0 0 0 1.18-2.7 3.76 3.76 0 0 0-2.47-3.52 5.76 5.76 0 0 1 3.6 2.02c.6.82.97 1.85.97 2.95Z" fill="#F5CE6B"/><path d="M11.9 7.55c0 1.1-.43 2.02-1.18 2.7 0 0 0-.06 0 0a4.21 4.21 0 0 0-1.87-2.64c-.42-.28-.84-.5-1.35-.61-.38-.06-.5-.79-.5-1.29 0-.22.04-.44.1-.63.2-.58.68-.97 1.28-1.04.3-.03.64-.06.95-.03.26.03.47.13.7.27.5.32 1 .78 1.32 1.3a3.73 3.73 0 0 1 .55 1.97Z" fill="#F8B82D"/><path d="M5 8a1 1 0 1 0 0-2 1 1 0 0 0 0 2Z" fill="#E08103"/></svg>