<svg height="18" viewBox="0 0 18 18" width="18" xmlns="http://www.w3.org/2000/svg"><path d="m0 0h18v18h-18z" fill="#f0f3fa"/><path d="m4.88 10.07 1.45-.91v2.84z" fill="#020202"/><path d="m12.14 6-5.8 3.23v2.77l5.89-3.68-.1-2.32zm-10.14 0 2.96 4.06 1.37-.86v-3.2h-4.32z" fill="#ffa80b"/><path d="m7.92 8.35-1.59.87v-3.22z" fill="#020202"/><path d="m12.14 6-4.22 2.35-1.65-2.35z" fill="#704d13"/><path d="m2 6 2.96 4.06-2.96 1.89z" fill="#020202"/><path d="m6.4 12h-4.4v-.05l2.96-1.9z" fill="#452e04"/><path d="m10.33 9.41-1.18.74-1.21-1.81 2.4-1.35v2.41z" fill="#c88208"/><path d="m12 8.44v3.56h-1.67v-2.6l1.67-.95z" fill="#452e04"/><path d="m9.14 10.15 1.2 1.85v-2.6z" fill="#020202"/><path d="m6.2 12 2.95-1.85 1.25 1.85z" fill="#704d13"/><path d="m12 6v2.43l4-2.43z" fill="#020202"/><path d="m16 12h-4v-3.56l4-2.44z" fill="#ffa80b"/></svg>