<!-- by TradingView --><svg width="18" height="18" viewBox="0 0 18 18" xmlns="http://www.w3.org/2000/svg"><path fill="#F0F3FA" d="M0 0h18v18H0z"/><path fill-rule="evenodd" d="M2.75 11 2 7h.78l.4 2.78h.03L3.75 7h.83l.53 2.79h.03L5.52 7h1.42l.4 2.78h.03L7.92 7h.84l.54 2.79h.03L9.7 7h.79l-.75 4h-.88l-.51-2.62h-.03L7.81 11h-.9l-.69-3.6-.66 3.6H4.7l-.5-2.62h-.03L3.64 11h-.89Zm7.3 0h.76l.27-1h1.16l.27 1h.76l-1.15-4h-.91l-1.16 4Zm2.03-1.6-.4-1.49h-.03l-.4 1.49h.83Zm3.2-.98H16C15.9 7.48 15.24 7 14.55 7c-.9 0-1.55.85-1.55 2 0 1.16.64 2 1.55 2 .66 0 1.36-.48 1.45-1.38h-.71c-.07.44-.4.58-.73.58-.57 0-.9-.53-.9-1.2 0-.67.34-1.2.9-1.2.35 0 .67.16.73.62Z" fill="#06234F"/></svg>