<svg height="18" width="18" xmlns="http://www.w3.org/2000/svg" xmlns:xlink="http://www.w3.org/1999/xlink"><linearGradient id="a" gradientUnits="userSpaceOnUse" x1="3.349" x2="21.904" y1="3.122" y2="24.434"><stop offset="0" stop-color="#1a1e21"/><stop offset="1" stop-color="#06060a"/></linearGradient><path d="m0 0h18v18h-18z" fill="url(#a)"/><path d="m4 13.507c.852-.83 2.89-1.496 5.034-1.774.398-.052.795-.092 1.182-.122l.132-.006.178.413.216-.44.172-.01a23.782 23.782 0 0 1 2.748.016c-.174.378-.558 1.2-.558 1.2-.634-.209-2.603-.438-4.512-.28a19.013 19.013 0 0 0 -4.592 1.002" fill="#ee2624"/><g fill="#fff"><path d="m10.53 11.969-1.448-3.573-1.448 3.572-3.47-7.133 1.345 3.76 2.081 5.415 1.49-3.394 1.492 3.394 2.082-5.415 1.346-3.76z"/><path d="m13.274 4.846-2.68 3.54-1.507-3.443-1.507 3.443-2.68-3.54 2.7 5.356 1.487-3.834 1.486 3.834 2.7-5.356z"/></g></svg>