<svg height="18" viewBox="0 0 18 18" width="18" xmlns="http://www.w3.org/2000/svg" xmlns:xlink="http://www.w3.org/1999/xlink"><linearGradient id="a" gradientUnits="userSpaceOnUse" x1="5.08" x2="13.86" y1="4.46" y2="14.63"><stop offset="0" stop-color="#4fb8e6"/><stop offset="1" stop-color="#2a78bc"/></linearGradient><linearGradient id="b" gradientUnits="userSpaceOnUse" x1="4.76" x2="13.2" y1="4.56" y2="13.4"><stop offset=".11" stop-color="#1c5ea6"/><stop offset="1" stop-color="#122f5d"/></linearGradient><path d="m0 0h18v18h-18z" fill="#f0f3fa"/><path d="m3 9a6 6 0 0 0 5.95 6h.1a6 6 0 1 0 -6.05-6z" fill="url(#a)"/><path d="m4 9a5 5 0 1 0 10 0 5 5 0 0 0 -10 0z" fill="url(#b)"/><g fill="#f0f3fa"><path d="m12.71 9c.17 0 .3.15.29.33l-.06.42a3.95 3.95 0 0 1 -4.7 3.15.34.34 0 0 1 -.24-.36.3.3 0 0 1 .37-.26c.29.06.58.09.88.08a3.5 3.5 0 0 0 3.11-2.9l.02-.18a.3.3 0 0 1 .3-.28zm-6.59.57c.05.27.15.43.45.43h.02c.3 0 .43-.2.55-.43l.39-.9h.01l.16.9c.06.27.15.43.45.43h.02c.28 0 .42-.18.55-.43l.59-1.19c.11-.21 0-.38-.27-.38-.2 0-.28.1-.33.23l-.49 1.14-.18-.97c-.06-.3-.17-.39-.41-.4h-.03c-.25 0-.36.1-.5.4l-.41.97h-.02l-.2-1.14c-.03-.13-.1-.23-.3-.23-.26 0-.39.17-.33.38l.28 1.2z"/><path d="m11.28 6.76c.15 0 .29-.13.29-.33a.38.38 0 0 0 -.1-.28c-.11-.1-.28-.15-.47-.15-.63 0-.9.47-.96.98l-.05.56h-.09c-.16 0-.31.1-.33.33-.02.22.11.32.27.32h.09l-.23 2.4c-.02.2.06.41.29.41s.35-.2.37-.4l.23-2.41h.28c.16 0 .32-.1.33-.32.03-.23-.1-.33-.27-.33h-.28l.05-.54c.02-.21.12-.34.26-.34.15 0 .16.09.32.09z"/></g></svg>