<svg height="18" viewBox="0 0 18 18" width="18" xmlns="http://www.w3.org/2000/svg"><path d="m0 0h18v18h-18z" fill="#f0f3fa"/><path d="m2.75 11-.75-4h.78l.4 2.78h.03l.54-2.78h.83l.53 2.79h.03l.38-2.79h1.42l.4 2.78h.03l.55-2.78h.84l.54 2.79h.03l.37-2.79h.79l-.75 4h-.88l-.51-2.62h-.03l-.51 2.62h-.9l-.69-3.6-.66 3.6h-.86l-.5-2.62h-.03l-.53 2.62zm7.3 0h.76l.27-1h1.16l.27 1h.76l-1.15-4h-.91zm2.03-1.6-.4-1.49h-.03l-.4 1.49zm3.2-.98h.72c-.1-.94-.76-1.42-1.45-1.42-.9 0-1.55.85-1.55 2 0 1.16.64 2 1.55 2 .66 0 1.36-.48 1.45-1.38h-.71c-.07.44-.4.58-.73.58-.57 0-.9-.53-.9-1.2s.34-1.2.9-1.2c.35 0 .67.16.73.62z" fill="#06234f" fill-rule="evenodd"/></svg>