<svg height="18" viewBox="0 0 18 18" width="18" xmlns="http://www.w3.org/2000/svg"><path d="m0 0h18v18h-18z" fill="#f0f3fa"/><path d="m12.61 13h-1.14l-.51-2.57-.5 2.57h-.4l-.29-.6s.14-.27.2-.55h-.33c-.03.15-.11.3-.11.3l-.33-.38s.4-.23.32-.62a.53.53 0 0 0 -.62-.42.53.53 0 0 0 -.42.66c.04.2.2.33.2.33s-.56.32-.48.82c.02.17.15.4.18.46h-.84l-.52-2.57-.49 2.57h-1.13l-.84-4h1.04l.47 2.64.51-2.64h.9l.53 2.64.48-2.64h1.03l.48 2.64.5-2.64h.9l.53 2.64.48-2.64h1.03l-.84 4zm-3.83-1.72c0-.11.06-.24.2-.26.12-.02.2.07.23.18.04.22-.22.37-.22.37s-.2-.13-.2-.3zm.12.72.45.5c-.14.24-.36.24-.36.24s-.3.02-.36-.29c-.03-.18.14-.34.27-.45zm-4.9 2h10v-10h-10z" fill="#f30"/></svg>