<svg height="18" viewBox="0 0 18 18" width="18" xmlns="http://www.w3.org/2000/svg"><path d="m0 0h18v18h-18z" fill="#f0f3fa"/><path d="m12.43 12-.82-1.57c-.26-.5-.37-.83-.93-.83h-.18v2.4h-1.5v-6h2.5c.98 0 1.94.33 1.94 1.6 0 .75-.33 1.52-1.2 1.74a2.71 2.71 0 0 1 1.05 1.2l.71 1.46zm-.24-4.27c0-.58-.6-.73-1.05-.73h-.64v1.5h.6c.47 0 1.1-.18 1.1-.77zm-3.19 1.25c0 1.54-.8 3.02-2.61 3.02h-2.39v-6h2.36c1.8 0 2.64 1.34 2.64 2.98zm-1.56.04c0-1.06-.35-2.02-1.6-2.02h-.28v4h.45c1.12 0 1.43-.98 1.43-1.98z" fill="#003e8f"/></svg>