<svg height="18" viewBox="0 0 18 18" width="18" xmlns="http://www.w3.org/2000/svg"><path d="m0 0h18v18h-18z" fill="#f0f3fa"/><path d="m8.4 12.99a4.32 4.32 0 0 1 -2.53-3.99c0-1.8 1.05-3.35 2.53-3.99l-.3-.01c-2.26 0-4.1 1.8-4.1 4a4.05 4.05 0 0 0 4.4 3.99z" fill="#005197"/><g fill="#e90013"><path d="m10.25 5a3.9 3.9 0 0 0 -4.06 4c0 2.2 1.75 4 3.92 4 1.03 0 1.97-.41 2.68-1.08l-2.01-2.2a.97.97 0 0 1 -.67.28.99.99 0 0 1 -.98-1 .99.99 0 0 1 1.12-.99v-3z"/><path d="m13.69 9h-4.06l4.06 4zm-3.13-4h.63v3.08h-.63zm.94 0h.63v3.08h-.63zm.94 0h.63v3.08h-.63zm.94 0h.63v3.08h-.63z"/></g></svg>