<svg height="18" viewBox="0 0 18 18" width="18" xmlns="http://www.w3.org/2000/svg"><path d="m0 0h18v18h-18z" fill="#f0f3fa"/><g fill="#ee020e"><path d="m5 6.5a.5.5 0 0 0 -1 0v4.37a3.2 3.2 0 0 0 3.28 3.13h3.44a3.2 3.2 0 0 0 3.28-3.13v-4.37a.5.5 0 0 0 -1 0v4.29c0 1.27-1.31 2.21-2.65 2.21h-2.7c-1.34 0-2.65-.94-2.65-2.21z"/><path d="m8.5 10.3v-4.74c0-.32.15-.57.5-.57s.5.25.5.57v4.72c0 .27.07.71.68.71.62 0 .82-.44.82-.7v-5.73c0-.32.15-.57.5-.57s.5.25.5.57v5.8c0 .9-.81 1.63-1.82 1.63-.45 0-.86-.15-1.18-.4-.32.25-.73.4-1.18.4-1 0-1.82-.73-1.82-1.63v-5.8c0-.32.15-.57.5-.57s.5.25.5.57v5.72c0 .27.2.71.82.71.6 0 .68-.44.68-.7z"/></g></svg>