<svg height="18" viewBox="0 0 18 18" width="18" xmlns="http://www.w3.org/2000/svg"><path d="m0 0h18v18h-18z" fill="#f0f3fa"/><path d="m12.37 11.96h.13v-7.61l-.35.69v6.92zm-4.41 1.04 4.35-9h-1.27l-4.3 9z" fill="#e12129"/><path d="m6 10.44h1.58l.47-.99h-2.05v-.45h2.2l.45-1h-3.65v4h1.9l.48-1h-1.38zm-3 .56v-3h-1v4h2.8v-1zm7.18-.77h1.27v-2.6zm1.27.77h-1.5l-.5 1h2zm3.58 1c.4-.01 1-.38.97-1.18v-1.62c.02-.8-.47-1.2-1.13-1.19h-1.87v2.55h1v-1.56h.67c.24 0 .33.21.33.42v1.13c0 .25-.08.45-.3.45h-1.7v1z" fill="#243663"/></svg>