<svg height="18" viewBox="0 0 18 18" width="18" xmlns="http://www.w3.org/2000/svg"><path d="m0 0h18v18h-18z" fill="#f0f3fa"/><path d="m7.58 5h1.7l-2.23 2.9 2.38 3.1h-1.7l-1.51-2-1.52 2h-1.7l2.37-3.1-2.21-2.9h1.69l1.36 1.79z" fill="#69a8bd"/><circle cx="13.23" cy="7.17" fill="#ba1d4a" r=".83"/><path d="m13.66 5h-1.54l-3.12 4.48 1.1 1.52h2.37v2h1.53v-2h1v-1.32h-1v-1.33h-1.53v1.33h-1.77l1.28-2.02a1.46 1.46 0 0 1 -.12-.57 1.36 1.36 0 0 1 1.37-1.4l.44-.69z" fill="#69a8bd"/><path d="m3 12h9v1h-9z" fill="#1a2c35" fill-opacity=".8"/></svg>