<svg height="18" width="18" xmlns="http://www.w3.org/2000/svg"><path d="m0 0h18v18h-18z" fill="#1a4f5e"/><path d="m12.075 3.702c-.52.668-1.075 1.298-1.075 1.298s-2.044.004-2.638 0c-.51-.004-.581.996.035 1 .76.004 2.388 0 2.603 0l2 3-1.561 2.155c-.669.818.13 1.365.65.845.126-.126 1.836-2.54 1.91-2.651.298-.446.344-.744 0-1.19-.482-.627-1.87-2.66-1.87-2.66l.871-1.169c.595-.669-.214-1.541-.924-.628z" fill="#20bdc1"/><path d="m6 14.5c.076-.076 1.448-1.5 1.448-1.5s1.56-.01 2.155 0c.539.009.572-.99 0-1-.76-.012-1.888 0-2.103 0l-2.5-3 1.56-2.155c.67-.818-.302-1.495-.822-.975-.126.126-1.664 2.52-1.738 2.63-.297.446-.343.743 0 1.19.482.627 2.5 2.81 2.5 2.81l-1 1.066c-.595.669 0 1.434.5.934z" fill="#fff"/></svg>