<svg height="18" width="18" xmlns="http://www.w3.org/2000/svg"><path d="m0 0h18v18h-18z" fill="#d92231"/><path d="m9.004 7.5c.347-.342 1.44-1.548 2.336-3.157.15-.276.284-.343.486-.343h1.937c.149 0 .328.069.23.343-.659 1.867-2.656 3.81-3.489 4.657.91.82 2.707 2.73 3.465 4.633.068.17.035.367-.345.367h-1.986c-.207 0-.366-.02-.505-.343-.493-1.17-1.25-2.35-2.129-3.157-.959.97-1.99 2.121-2.482 3.157-.12.254-.24.343-.502.343h-1.822c-.121 0-.245-.136-.165-.344.54-1.416 1.633-3.33 3.177-4.656-1.212-1.397-2.73-3.223-3.19-4.657-.07-.215.05-.343.22-.343h1.994c.232 0 .35.091.467.343.303.657 1.756 2.539 2.303 3.157z" fill="#fff"/></svg>