<svg height="18" viewBox="0 0 18 18" width="18" xmlns="http://www.w3.org/2000/svg"><path d="m0 0h18v18h-18z" fill="#f0f3fa"/><path d="m11.5 11 .02.01.02.02c.47.7.51 1.18.98 1.87.12.17.16.52.17.58.05.3-.3.36-.58.5l-.24.02h-5.66s-.3-.01-.43-.03a.4.4 0 0 0 -.1-.12 2 2 0 0 1 -.1-.11c-.08-.1-.28-.32-.26-.44a.8.8 0 0 1 .14-.3c.45-.66.65-1.2 1.07-1.84.09-.12.02-.1.08-.16h4.88z" fill="#013d79"/><path d="m11.11 4-2.09 3.45-3.4 5.56a.94.94 0 0 0 -.13.32c-.02.13 0 .26.09.38l.1.12c.05.04.08.09.1.14-.11 0-.23-.03-.36-.08a1.88 1.88 0 0 1 -1-.84l-1.32-2.18a.58.58 0 0 1 -.09-.43c.02-.07.07-.18.16-.34a3471.83 3471.83 0 0 0 3.73-6.09l.04-.01z" fill="#008fc5"/><path d="m11.11 4 2.91 4.78.88 1.43a.6.6 0 0 1 .09.45c-.02.09-.08.22-.19.39-.4.63-.8 1.29-1.18 1.94-.13.2-.25.37-.36.48-.2.2-.46.35-.77.46a.81.81 0 0 1 -.38.04c.28-.15.46-.33.4-.67a1.43 1.43 0 0 0 -.19-.4l-3.12-5.1a2.37 2.37 0 0 1 -.18-.35l2.1-3.45z" fill="#fcb134"/></svg>