<svg height="18" viewBox="0 0 18 18" width="18" xmlns="http://www.w3.org/2000/svg"><path d="m0 0h18v18h-18z" fill="#005bac"/><circle cx="9" cy="9" fill="#fff" r="5"/><path d="m6.5 6.23c.91.37 2.16 1.12 2.5 2.77.34-1.65 1.59-2.4 2.5-2.77a5.5 5.5 0 0 0 -2.5-.67 5.5 5.5 0 0 0 -2.5.67z" fill="#1c1e7c"/><path d="m9 13.69a4.69 4.69 0 1 0 0-9.39 4.69 4.69 0 0 0 0 9.38zm0-.31a4.38 4.38 0 1 0 0-8.76 4.38 4.38 0 0 0 0 8.75z" fill="#74634d" fill-rule="evenodd"/><path d="m6.66 7a3.85 3.85 0 0 0 -.66 2.2c0 1.36 1.03 2.5 1.63 2.8a5 5 0 0 0 .37-1.93c0-.54-.3-2.24-1.34-3.07zm4.68 0c.22.28.66 1.12.66 2.2 0 1.36-1.03 2.5-1.63 2.8a5 5 0 0 1 -.37-1.93c0-.54.3-2.24 1.34-3.07z" fill="#e70012"/></svg>