<svg height="18" viewBox="0 0 18 18" width="18" xmlns="http://www.w3.org/2000/svg"><path d="m0 0h18v18h-18z" fill="#f0f3fa"/><path d="m9 5 7 2.62v2.68l-7 2.7-7-2.7v-2.68zm3.37 1.7-3.34-1.2-3.35 1.2zm.84.3h-8.36l-1.85.66v2.09h1.52c.26 0 .39-.16.42-.25l.18-.3.3-.52c.15-.3-.02-.41-.13-.43h-.64l.38-.75h1.17c.33 0 .43.37.43.56.26-.46.62-.57.76-.56h.98l-.4.75h-.27c-.12 0-.19.04-.2.08l-.59 1.1c-.1.23.03.3.11.32h.23l-.44.75h-.57c-.37 0-.47-.45-.48-.68-.18.5-.55.66-.71.68h-1.42l1.35.5h8.1l1.92-.71v-2.04h-6.64l.4-.75h5.84l-1.4-.5zm-4.18 5.5-3.07-1.14h6.13zm-1.38-2.77.57-1.13h1.94c-.07.14-.14.34-.21.51-.05.15-.1.28-.15.37-.1.19.03.26.1.27h.4c.17 0 .28-.18.31-.27l.52-1.23h1.97c-.13.23-.32.61-.5.97l-.45.86c-.22.36-.5.43-.63.42h-3.56c-.66 0-.49-.52-.31-.77z" fill="#ee1a30" fill-rule="evenodd"/></svg>