<svg height="18" viewBox="0 0 18 18" width="18" xmlns="http://www.w3.org/2000/svg"><path d="m0 0h18v18h-18z" fill="#f0f3fa"/><path d="m4 4h10v7h-10z" fill="#d01027"/><path d="m4 11h10v3h-10z" fill="#231816"/><path d="m6.72 13-.5-5.22c-.43.12-.85.26-1.22.4v-1.5l1.1-.24-.16-1.44h1.46l.1 1.18c.5-.08.99-.15 1.45-.2l-.04-.98h1.59l.04.98c1.52.22 2.46 1.25 2.46 2.55 0 1.45-1.05 3.17-4.1 3.17v-1.37c.89.01 2.65-.33 2.65-1.8 0-.55-.37-.89-.95-1.06l.07 1.53h-1.57l-.1-1.68c-.44.02-.9.07-1.38.15l.53 5.53z" fill="#f0f3fa"/></svg>