<svg height="18" viewBox="0 0 18 18" width="18" xmlns="http://www.w3.org/2000/svg"><path d="m0 0h18v18h-18z" fill="#f0f3fa"/><path d="m8 9.97v-2.67c0-.17-.08-.3-.18-.3h-.24c-.1 0-.18.13-.18.3v2.79c0 .13-.05.25-.13.28h-4.54c-.08-.03-.13-.12-.13-.28v-1.99c0-.16-.09-.31-.19-.31h-.23c-.1 0-.18.15-.18.31v1.9c.02.62.33 1 .73 1h4.54c.4 0 .71-.35.73-1z" fill="#004f9f"/><path d="m11.46 10c-.17 0-.3-.07-.3-.35 0-1.23 1.04-2.04 1.44-2.04.15 0 .19.1.19.27v.77c0 .22-.02.28-.22.28-.19 0-.21-.08-.21-.28v-.4l-.02-.01c-.17 0-.75.7-.75 1.21 0 .06 0 0 .12 0h1.2c.08 0 .09 0 .09-.1v-1.74c0-.25.08-.3.25-.3s.23.03.23.3v1.74c0 .5-.1.65-.5.65zm-.46-.65v-1.3c0-.23-.08-.26-.23-.26-.17 0-.27.03-.27.26v1.26c0 .09-.01.15-.1.15h-.55c-.23 0-.35-.18-.35-.52v-.89c0-.23-.07-.26-.24-.26-.15 0-.26.03-.26.26v1.06c0 .35.15.9.72.9h.83c0 .22-.2 1.06-.95 1.18-.18.04-.22.05-.22.23 0 .1.05.28.19.28.61 0 1.4-.63 1.43-1.7zm3.64-1.56c.71 0 1.36.6 1.36 1.37v.57c0 .24-.08.27-.25.27-.18 0-.22-.03-.22-.27v-.59c-.01-.5-.41-.8-.87-.8h-.4c-.07 0-.11 0-.13.02v1.37c0 .24-.04.27-.21.27s-.25-.03-.25-.27v-1.69c0-.22.06-.25.25-.25z" fill="#f59c00"/></svg>