<svg height="18" viewBox="0 0 18 18" width="18" xmlns="http://www.w3.org/2000/svg"><path d="m0 0h18v18h-18z" fill="#f0f3fa"/><path d="m5.68 6h-2.56c-.1 0-.16.13-.08.2l3.24 3.12-2.07 3.5c-.05.08.01.18.1.18h2.25c.04 0 .08-.02.1-.06l2.35-3.84a.12.12 0 0 0 -.02-.15l-3.23-2.9a.12.12 0 0 0 -.08-.05z" fill="#e7003e"/><path d="m7.94 6h6.94c.1 0 .15.1.1.18l-.85 1.32c-.02.03-.06.02-.1.02h-3.83c-.04 0-.08.06-.1.09l-.23.35a.12.12 0 0 1 -.18.02l-1.83-1.78c-.08-.07-.03-.2.08-.2zm2.42 3.1c.04-.06.12-.1.2-.1h2.62c.19 0 .3.19.2.33l-.7 1.09a.24.24 0 0 1 -.21.1h-2.6c-.18 0-.3-.18-.2-.33l.69-1.08zm-1.31 2.49c.05-.07.12-.11.21-.11h2.62c.19 0 .3.18.2.33l-.71 1.08a.24.24 0 0 1 -.2.11h-2.6c-.18 0-.3-.18-.2-.33z" fill="#1f3969"/></svg>