<svg height="18" viewBox="0 0 18 18" width="18" xmlns="http://www.w3.org/2000/svg"><path d="m0 0h18v18h-18z" fill="#f0f3fa"/><path d="m12.46 4.02a1.84 1.84 0 0 1 1.24 2.84c-.06.1-.18.24-.36.42l-2.8 2.85a.66.66 0 0 1 .06-.19l.08-.17c.22-.58.16-1.2-.17-1.7-.07-.12-.2-.27-.39-.45l-1-1.01a.36.36 0 0 0 -.14-.11v-.04h.05l1.86-1.9c.28-.28.61-.46 1-.53.19-.04.38-.04.57 0z" fill="#4aa44a"/><path d="m6.1 4.02c.4.08.74.25 1 .51l1.88 1.93v.04l-1.2 1.23a1.82 1.82 0 0 0 -.57 1.16 1.77 1.77 0 0 0 .24 1.13l.06.15-3.05-3.1a1.81 1.81 0 0 1 -.27-2.02 1.82 1.82 0 0 1 1.91-1.03z" fill="#b2cc40"/><path d="m8.98 6.5c.04.01.1.05.15.1.3.31.62.65 1 1.02a1.89 1.89 0 0 1 .48 2.33.66.66 0 0 0 -.07.18c-.17.18-.3.3-.4.39a1.82 1.82 0 0 1 -1.94.21 2 2 0 0 1 -.36-.24 3.4 3.4 0 0 1 -.33-.32.74.74 0 0 0 -.06-.15l-.09-.16c-.14-.3-.2-.62-.16-.97a1.82 1.82 0 0 1 .57-1.16l1.2-1.23z" fill="#387f3d"/><path d="m9 15a2 2 0 1 0 0-4 2 2 0 0 0 0 4z" fill="#b2cc40"/></svg>