<svg height="18" viewBox="0 0 18 18" width="18" xmlns="http://www.w3.org/2000/svg" xmlns:xlink="http://www.w3.org/1999/xlink"><linearGradient id="a" gradientUnits="userSpaceOnUse" x1="11.01" x2="11.01" y1="5.28" y2="14"><stop offset=".37" stop-color="#ac662e"/><stop offset="1" stop-color="#d7b378"/></linearGradient><linearGradient id="b" gradientUnits="userSpaceOnUse" x1="5.77" x2="10.96" y1="4.55" y2="4.62"><stop offset="0" stop-color="#eac88f"/><stop offset="1" stop-color="#ac662e"/></linearGradient><linearGradient id="c" gradientUnits="userSpaceOnUse" x1="4.85" x2="5.75" y1="5.97" y2="13.72"><stop offset="0" stop-color="#eeb979"/><stop offset="1" stop-color="#ac662e"/></linearGradient><path d="m0 0h18v18h-18z" fill="#f0f3fa"/><path d="m14.86 8.45-2.1-3.17-5.73 8.72h4.37c.32 0 .62-.16.79-.42l2.69-4.24a.81.81 0 0 0 0-.9z" fill="url(#a)"/><path d="m12.04 4h-5.8a.45.45 0 0 0 -.43.64l1.67 2.83c.15.32.48.53.84.53h1.62c.36 0 .7-.2.84-.53l1.68-2.83a.45.45 0 0 0 -.42-.64z" fill="url(#b)"/><path d="m3.06 8.83 2.36-3.71 3.35 5.27-2.1 3.13a.48.48 0 0 1 -.76-.02l-2.84-4.22a.4.4 0 0 1 0-.45z" fill="url(#c)"/></svg>