<svg height="18" viewBox="0 0 18 18" width="18" xmlns="http://www.w3.org/2000/svg"><path d="m0 0h18v18h-18z" fill="#f0f3fa"/><g fill="#1c213e"><path d="m15 9a6 6 0 1 0 -12 0 6 6 0 0 0 12 0zm-.73 0a5.27 5.27 0 1 0 -10.54 0 5.27 5.27 0 0 0 10.54 0z" fill-rule="evenodd"/><path d="m6.02 10.48.3-.72.72-1.76h-.57l-.44 1.05-.43-1.05h-.58l.72 1.76-.51 1.24h.57z"/><path d="m10.1 9a1 1 0 0 0 -1.02-1 1 1 0 0 0 -1.02 1 1 1 0 0 0 1.02 1 1 1 0 0 0 1.01-1zm-.5 0c0-.28-.24-.5-.52-.5a.51.51 0 0 0 -.52.5c0 .28.23.5.52.5.28 0 .51-.22.51-.5z" fill-rule="evenodd"/><path d="m13.1 8.24-.34.42a.66.66 0 0 0 -.45-.16c-.33 0-.6.23-.6.5 0 .28.27.5.6.5.2 0 .37-.08.48-.2l.34.43c-.21.17-.5.27-.82.27-.67 0-1.2-.45-1.2-1s.53-1 1.2-1c.3 0 .57.09.78.24z"/></g></svg>