<svg height="18" width="18" xmlns="http://www.w3.org/2000/svg" xmlns:xlink="http://www.w3.org/1999/xlink"><linearGradient id="a" gradientUnits="userSpaceOnUse" x1="13.99" x2="10.92" y1="7.16" y2="14.96"><stop offset="0" stop-color="#dc058e"/><stop offset="1" stop-color="#3c2f92"/></linearGradient><linearGradient id="b" gradientUnits="userSpaceOnUse" x1="9" x2="9" y1="3" y2="9"><stop offset="0" stop-color="#e1e51b"/><stop offset="1" stop-color="#72c28f"/></linearGradient><linearGradient id="c" gradientUnits="userSpaceOnUse" x1="4.31" x2="7.19" y1="7.67" y2="15.27"><stop offset="0" stop-color="#ffee02"/><stop offset=".99" stop-color="#ee3120"/></linearGradient><path d="m0 0h18v18h-18z" fill="#f0f3fa"/><path d="m9.67 14.8c0 .18.24.27.39.14l3.22-2.75a.78.78 0 0 0 .28-.51l.44-4.31c.02-.19-.23-.3-.39-.17l-3.64 2.9c-.2.15-.3.37-.3.6z" fill="url(#a)"/><path d="m9.67 13.22 2.16-1.83c.2-.17.32-.39.34-.63l.24-2.6-2.46 1.95a.73.73 0 0 0 -.28.58z" fill="#fff" opacity=".4"/><path d="m5.15 5.93a.4.4 0 0 1 .04-.66l3.3-2.12c.31-.2.72-.2 1.03 0l3.29 2.11a.4.4 0 0 1 .04.66l-3.55 2.97a.46.46 0 0 1 -.6 0l-3.54-2.96z" fill="url(#b)"/><path d="m6.1 6.73 2.4-1.6c.3-.2.7-.2 1 0l2.39 1.6-2.6 2.16a.46.46 0 0 1 -.58 0z" fill="#fff" opacity=".4"/><path d="m4.39 7.22c-.16-.13-.4-.02-.39.17l.44 4.29c.02.2.12.38.28.51l3.22 2.75c.15.13.4.04.4-.14v-4.08c0-.23-.1-.46-.3-.61l-3.64-2.9z" fill="url(#c)"/><path d="m5.61 8.2.3 2.58c.03.23.15.44.33.6l2.1 1.82v-2.51a.74.74 0 0 0 -.3-.58l-2.43-1.92z" fill="#fff" opacity=".4"/></svg>