<svg height="18" viewBox="0 0 18 18" width="18" xmlns="http://www.w3.org/2000/svg"><path d="m0 0h18v18h-18z" fill="#f0f3fa"/><circle cx="9" cy="7.5" fill="#e60012" r="3.5"/><path d="m4 11.7a2.37 2.37 0 0 1 3.37.01 2.37 2.37 0 0 1 3.32-.06 2.36 2.36 0 0 1 3.31.05l-.59.6a1.58 1.58 0 0 0 -2.22.03c.5.08.96.32 1.3.67l-.58.59a1.52 1.52 0 0 0 -2.41.41h-.8a1.61 1.61 0 0 0 -.1-.18 1.55 1.55 0 0 0 -2.34-.23l-.58-.6c.31-.3.71-.53 1.16-.63a1.58 1.58 0 0 0 -2.25-.07zm6.19.62a1.58 1.58 0 0 0 -2.28.04c.46.11.86.36 1.18.69.29-.3.65-.54 1.07-.66z" fill="#00a0e9"/></svg>