<svg height="18" viewBox="0 0 18 18" width="18" xmlns="http://www.w3.org/2000/svg"><path d="m0 0h18v18h-18z" fill="#f0f3fa"/><g fill="#0171bb"><path d="m6 11.14v-.55c.64.04 1.62-.34 2.54-1.04 1.31-.99 2.03-2.25 1.6-2.82-.28-.37-.98-.35-1.8-.01-.12.05-.27-.04-.27-.18 0-.07.05-.14.11-.17 1.13-.5 2.15-.5 2.57.05.59.77-.2 2.37-1.78 3.55a5 5 0 0 1 -2.97 1.17z"/><path d="m15 9a6 6 0 1 1 -12 0 6 6 0 0 1 12 0zm-9 1.56c-.27-.01-.48-.1-.6-.27-.18-.24-.16-.6.03-1.02a.2.2 0 0 0 .02-.08c0-.2-.23-.26-.32-.1-.3.64-.35 1.22-.06 1.6.2.26.52.4.93.41v1.1c0 .44.36.8.8.8h4.4a.8.8 0 0 0 .8-.8v-6.4a.8.8 0 0 0 -.8-.8h-4.4a.8.8 0 0 0 -.8.8zm1.88-2.5a.56.56 0 1 1 -1.13 0 .56.56 0 0 1 1.13 0z"/></g></svg>