<!-- by TradingView --><svg width="18" height="18" viewBox="0 0 18 18" xmlns="http://www.w3.org/2000/svg"><path fill="#F0F3FA" d="M0 0h18v18H0z"/><path d="M8.9 4.02a.24.24 0 0 1 .2 0l3.75 1.71c.1.04.15.14.15.24v3.16c0 1.41-.67 2.5-1.49 3.29a8.09 8.09 0 0 1-2.42 1.56.24.24 0 0 1-.18 0 8.09 8.09 0 0 1-2.42-1.56A4.52 4.52 0 0 1 5 9.13V5.97c0-.12 0-.13.15-.24l3.75-1.7ZM5.5 6.15v2.98c0 1.22.58 2.17 1.33 2.9.7.7 1.56 1.16 2.17 1.42.6-.26 1.46-.73 2.17-1.42a3.98 3.98 0 0 0 1.33-2.9V6.15L9 4.55l-3.5 1.6Z" fill="#191919"/><path d="m9 8 2.5-1.5.5 1L9.5 9 9 8Z" fill="#F9BD15"/><path d="M8.5 12v-2h1v2h-1Z" fill="#F25A27"/><path d="M8.5 9 6 7.5l.5-.88L9 8l.5 1v1h-1V9Z" fill="#86C040"/></svg>