<svg height="18" viewBox="0 0 18 18" width="18" xmlns="http://www.w3.org/2000/svg" xmlns:xlink="http://www.w3.org/1999/xlink"><linearGradient id="a" gradientUnits="userSpaceOnUse" x1=".79" x2="10.55" y1="3.06" y2="13.81"><stop offset=".33" stop-color="#f18c30"/><stop offset=".65" stop-color="#ec592d"/><stop offset=".86" stop-color="#dc3d33"/></linearGradient><linearGradient id="b" gradientUnits="userSpaceOnUse" x1="17.25" x2="7.43" y1="14.92" y2="4.17"><stop offset=".35" stop-color="#f18c30"/><stop offset=".65" stop-color="#ec592d"/><stop offset=".92" stop-color="#dc3d33"/></linearGradient><path d="m0 0h18v18h-18z" fill="#f0f3fa"/><path d="m8.68 14c.9 0 1.76-.23 2.5-.6l-4.98-10.4a5.93 5.93 0 0 0 -3.2 5.21c0 3.3 2.55 5.79 5.68 5.79z" fill="url(#a)"/><path d="m9.3 4c-.88 0-1.64.1-2.4.48l4.96 10.52c1.84-.95 3.14-3 3.14-5.26a5.63 5.63 0 0 0 -5.7-5.74z" fill="url(#b)"/><g fill="#f0f3fa"><circle cx="9.95" cy="6.05" r=".45"/><circle cx="11.05" cy="6.05" r=".45"/><path d="m9 7h-1.04l-.63 2.56c-.4-.98-.4-1.58-.68-2.56h-1.15a14.9 14.9 0 0 0 1.22 3.49s.1.51-.53.51c-.2 0-.48-.1-.48-.1l-.21.86s.4.24.88.24c.8 0 1.23-.62 1.58-1.4.58-1.32 1.04-3.6 1.04-3.6zm3 0h-1v2.83s-.21.17-.59.17-.41-.27-.41-1.04v-1.96h-1v2.64c0 .85.6 1.36 1.54 1.36.71 0 1.46-.34 1.46-.34z"/></g></svg>