<svg height="18" viewBox="0 0 18 18" width="18" xmlns="http://www.w3.org/2000/svg"><path d="m0 0h18v18h-18z" fill="#f0f3fa"/><path d="m10.01 12.29c-1.1 1.17-3.18.87-4.66-.67s-1.8-3.73-.7-4.9c1.1-1.18 3.18-.88 4.66.66s1.8 3.73.7 4.9z" fill="#0096b8"/><path d="m6.48 12.29c1.37 1.17 3.98.87 5.83-.67s2.24-3.73.87-4.9c-1.36-1.18-3.97-.88-5.82.66s-2.24 3.73-.88 4.9z" fill="#efaa04"/><path d="m8.45 13a2.3 2.3 0 0 0 1.56-.71c1.1-1.17.79-3.37-.7-4.9a4.98 4.98 0 0 0 -.86-.73c-.38.2-.75.44-1.1.72-1.84 1.54-2.23 3.74-.87 4.9.52.45 1.2.68 1.97.71z" fill="#007099"/></svg>