<svg height="18" width="18" xmlns="http://www.w3.org/2000/svg"><path d="m0 0h18v18h-18z" fill="#ed1c24"/><path d="m4.488 14.941 3.664-1.993c.283.03.555.047.837.047 3.315 0 6.011-1.8 6.011-4.004s-2.696-3.986-6.01-3.986c-3.31-0-5.99 1.782-5.99 3.985 0 1.5 1.234 2.81 3.06 3.485l-1.572 2.465z" fill="#fff"/><g fill="#ed1c24"><path d="m5.728 7.489.06.287h.396s-.476.77-.619.968l-.483-.968h.371l-.046-.287h-1.44l.06.287h.297s.52 1.032.736 1.428a36.2 36.2 0 0 0 -.125.924c-.045.27-.259.22-.479.243l.05.291h1.694l-.065-.291s-.292 0-.408-.04c-.087 0-.044-.266-.032-.306 0 0 .076-.678.092-.806.032-.044.842-1.211.842-1.211a.868.868 0 0 1 .142-.173c.062-.058.206-.05.288-.06l-.066-.286z"/><path d="m7.293 8.443-.82.158.043.257c.073 0 .235-.032.288.015.024.022.017.06.017.089-.038.468-.098.938-.098 1.409.06.21.229.346.446.346.255 0 .472-.144.663-.416.032-.044.081-.118.13-.188-.059.163.005.426.141.52.457.332.815-.272 1-.608l-.271-.158-.174.246c-.027.033-.052.066-.077.1v-.04l.174-1.69h-.603c-.117.37-.124.765-.32 1.112-.075.153-.277.647-.49.647l.142-1.626c0-.124-.075-.173-.19-.173zm1.745.173.049.271c.072 0 .38-.067.331.085l-.19 1.69h.62c.035-.221.08-.44.109-.662.084-.349.212-.624.429-.91.141-.173.207-.188.239-.188 0 0-.103 1.179-.158 1.76h.615c.04-.26.056-.522.097-.781.05-.298.292-.902.636-.979 0 .435-.074.878-.114 1.31 0 .264.1.504.38.504.379 0 .632-.38.794-.677l-.283-.173c-.08.111-.153.253-.255.346v.015c.016-.143.109-1.122.109-1.122 0-.337-.102-.662-.49-.662-.324 0-.513.26-.711.474a.473.473 0 0 0 -.479-.474c-.328 0-.535.264-.712.504.017-.173.05-.435.05-.435l-.131-.084c-.31.077-.626.114-.935.188zm4.266-.999c-.049.09-.065.247-.065.45v.4c0 .03 0 .158-.016.593l-.017.767.098.024.207.03.174-.722c.06-.301.092-.415.108-.46.114-.39.174-.617.19-.691a.775.775 0 0 0 0-.272.475.475 0 0 0 -.124-.218.378.378 0 0 0 -.256-.089.317.317 0 0 0 -.299.188z"/><circle cx="13.285" cy="10.297" r=".273"/></g></svg>