<svg height="18" viewBox="0 0 18 18" width="18" xmlns="http://www.w3.org/2000/svg"><path d="m0 0h18v18h-18z" fill="#02caec"/><path d="m4.55 7c.76.03 1.4.41 1.63.6l-.34.53c-.3-.25-.83-.45-1.29-.46-.45-.02-.9.18-.9.46 0 .29.48.4 1.14.44s1.43.3 1.45 1.13c.03.83-.73 1.3-1.55 1.3-.65 0-1.4-.36-1.69-.54l.25-.64c.33.2.93.51 1.44.51s.94-.28.9-.55c-.03-.28-.24-.34-1.1-.42-.87-.09-1.52-.37-1.49-1.13s.6-1.27 1.55-1.23z" fill="#213247"/><path d="m7 6h3v.6h-3zm0 6h3v-.6h-3z" fill="#5a8aa3"/><path d="m7 7.2h3v.6h-3zm0 3h3v.6h-3zm0-1.5h2.53v.6h-2.53zm4-1.7v4h.67v-2.72l1.33 2.72 1.33-2.64v2.64h.67v-4h-.86l-1.14 2.41-1.15-2.41z" fill="#213247"/></svg>