<svg height="18" viewBox="0 0 18 18" width="18" xmlns="http://www.w3.org/2000/svg"><path d="m0 0h18v18h-18z" fill="#085ca2"/><path d="m4 7v-3h10v3.37c-.38 1.1-1.15 3.63-1.15 3.63h1.15v3h-10v-3.34l1.15-3.66zm5 5c2.2 0 4-1.34 4-3s-1.8-3-4-3-4 1.34-4 3 1.8 3 4 3zm0-.35c2.03 0 3.67-1.2 3.67-2.67s-1.64-2.66-3.67-2.66c-2.02 0-3.67 1.19-3.67 2.66 0 1.48 1.65 2.67 3.67 2.67zm-3-3.3v-.35h1.26v.35l-.54 1.32h.54v.33h-1.26v-.33l.56-1.32zm1.33.3v1.35h.5v-.67h.5v.67h.5v-1.35c0-.36-.3-.65-.65-.65h-.19a.65.65 0 0 0 -.66.65zm1-.07v.25h-.5v-.25c0-.11.07-.24.25-.24.17 0 .25.13.25.24zm1.27-.58c-.32 0-.59.25-.59.57v.86c0 .32.27.57.6.57h.14c.33 0 .6-.25.6-.57v-.86a.58.58 0 0 0 -.6-.57zm.06.33c-.08 0-.15.07-.15.28v.8c0 .2.07.26.15.26h.03c.09 0 .15-.06.15-.27v-.8c0-.2-.06-.27-.15-.27zm1.34-.33h-.5v2h.5v-.67h.5v.67h.5v-2h-.5v.83h-.5z" fill="#fff" fill-rule="evenodd"/></svg>