<svg height="18" width="18" xmlns="http://www.w3.org/2000/svg" xmlns:xlink="http://www.w3.org/1999/xlink"><linearGradient id="a" gradientUnits="userSpaceOnUse" x1="3.349" x2="21.904" y1="3.122" y2="24.434"><stop offset="0" stop-color="#1a1e21"/><stop offset="1" stop-color="#06060a"/></linearGradient><path d="m0 0h18v18h-18z" fill="url(#a)"/><g fill="#fff"><path d="m11.408 9.15-.775-.714v1.99h.775zm-3.128-2.132h1.91l-.775-.696h-1.015c.646-.058 1.181-.548 1.181-1.153 0-.638-.572-1.169-1.3-1.169v2.313l-2.151-1.907c-.12.058-.222.108-.323.166-.12.075-.222.15-.342.216l2.03 1.824v3.997l1.56 1.4v-1.002l-.794-.713.018-3.276z"/><path d="m9.046 7.018v3.408h.794v-2.695zm2.704 1.418-.793-.705h-1.117l.794.705zm-5.056 1.501v-3.027l-1.808-1.625a3.05 3.05 0 0 0 -.443.605l1.457 1.31v1.004l-1.762-1.592c-.083.273-.12.564-.138.879.018 0 2.61 2.371 2.694 2.446zm-2.657-1.443v1.003l5.01 4.503v-.979zm8.948 1.062h-.793v.895h-.794c0 .639.59 1.17 1.301 1.17.71 0 1.301-.531 1.301-1.17z"/></g></svg>