<svg height="18" viewBox="0 0 18 18" width="18" xmlns="http://www.w3.org/2000/svg" xmlns:xlink="http://www.w3.org/1999/xlink"><linearGradient id="a" gradientUnits="userSpaceOnUse" x1="3.35" x2="21.9" y1="3.12" y2="24.43"><stop offset="0" stop-color="#1a1e21"/><stop offset="1" stop-color="#06060a"/></linearGradient><path d="m0 0h18v18h-18z" fill="url(#a)"/><path d="m10.44 6h-4.04c-.22 0-.4-.26-.4-.49s.18-.51.4-.51h5.04c.28 0 .56.18.56.52 0 .11-.04.32-.11.43l-4.33 6.05h4.03c.22 0 .41.27.41.5s-.19.5-.41.5h-5.03c-.4 0-.56-.33-.56-.61 0-.19.06-.36.14-.47z" fill="#fff"/></svg>