<svg height="18" viewBox="0 0 18 18" width="18" xmlns="http://www.w3.org/2000/svg" xmlns:xlink="http://www.w3.org/1999/xlink"><linearGradient id="a" gradientUnits="userSpaceOnUse" x1="6.47" x2="11.89" y1="4.6" y2="13.29"><stop offset="0" stop-color="#c8c9c9"/><stop offset=".32" stop-color="#fff"/><stop offset="1" stop-color="#484647"/></linearGradient><linearGradient id="b" gradientUnits="userSpaceOnUse" x1="7.8" x2="10.45" y1="5.7" y2="12.36"><stop offset="0" stop-color="#585656"/><stop offset="1" stop-color="#fff"/></linearGradient><linearGradient id="c" gradientUnits="userSpaceOnUse" x1="7.74" x2="10.58" y1="6.53" y2="11.38"><stop offset="0" stop-color="#0e6da6"/><stop offset=".08" stop-color="#14b0e6"/><stop offset=".57" stop-color="#0c6399"/><stop offset=".91" stop-color="#143681"/></linearGradient><linearGradient id="d" gradientUnits="userSpaceOnUse" x1="6.43" x2="10.49" y1="4.83" y2="13.58"><stop offset="0" stop-color="#fff"/><stop offset="1" stop-color="#a5a6a7"/></linearGradient><linearGradient id="e" gradientUnits="userSpaceOnUse" x1="12.58" x2="5.21" y1="10.14" y2="10.14"><stop offset=".49" stop-color="#fff"/><stop offset="1" stop-color="#9b9b9c"/></linearGradient><path d="m0 0h18v18h-18z" fill="#f0f3fa"/><circle cx="9" cy="9" fill="url(#a)" r="5"/><circle cx="9" cy="9" fill="url(#b)" r="3.71"/><circle cx="9" cy="9" fill="#064e78" r="3.26"/><circle cx="9" cy="9" fill="url(#c)" r="2.81"/><path d="m13.88 9a4.88 4.88 0 1 1 -9.76 0 4.88 4.88 0 0 1 9.76 0zm-4.66 3.43h-.22c-1.1 0-2.07-.5-2.7-1.3l.82-.8zm1.38-.39-2.59-2.59.97-.94 2.62 2.74c-.28.32-.62.6-1 .8zm1.73-2.17-3.35-3.2-3.35 3a3.45 3.45 0 0 1 3.37-4.1 3.44 3.44 0 0 1 3.33 4.3z" fill="url(#d)" fill-rule="evenodd"/><path d="m9 6.5-4.06 3.75 4.06-3.44 3.75 3.44z" fill="url(#e)"/></svg>