<svg height="18" viewBox="0 0 18 18" width="18" xmlns="http://www.w3.org/2000/svg"><path d="m0 0h18v18h-18z" fill="#f0f3fa"/><path d="m4.67 4c-.37 0-.67.3-.67.67v2.2l3.1-1.87h3.73c.72 0 2.17.37 2.17 1.86 0 1.24-.47 1.55-.78 1.7.31.16.78.54.78 1.4 0 1.1-.47 2.04-1.86 2.04h-3.88l-3.02 1.85c.12.1.27.15.43.15h8.66c.37 0 .67-.3.67-.67v-8.66c0-.37-.3-.67-.67-.67zm-.67 8.76 3.1-1.76h4.04c.3 0 .86-.22.86-1 0-.62-.24-1-.86-1h-3.88l-3.26 2.05v1.7zm0-2.96 3-1.8h4c.31-.05 1-.38 1-1 0-.78-.55-.98-1.02-.98h-3.88l-3.1 1.93z" fill="#f73210"/></svg>