<svg height="18" viewBox="0 0 18 18" width="18" xmlns="http://www.w3.org/2000/svg"><path d="m0 0h18v18h-18z" fill="#f0f3fa"/><g fill="#da2324"><path d="m11.93 4.55c.03.04-.01.11-.06.1l-.4-.16c-.14-.05-.3-.28-.4-.39-.04-.04 0-.12.06-.1l.5.19c.1.04.22.27.3.36zm.75.92a2.36 2.36 0 0 1 -.57-1.02c-.01-.03 0-.04.02-.02.35.23.59.52.6 1.02 0 .02-.03.03-.05.02zm-.8-.32c.2.15.4.22.43.16s-.1-.23-.3-.38c-.21-.14-.4-.21-.44-.15-.03.06.1.22.31.37zm1.29.39c.16.28.15.58.1.89 0 .04-.02.05-.04 0a2.32 2.32 0 0 1 -.31-1.18c0-.06.02-.07.05-.02zm-.19.68c0 .02-.01.03-.03.02a2 2 0 0 1 -.73-.73c-.04-.07-.02-.09.04-.07.32.1.64.4.72.78zm.53.11c.23.43.36.86.1 1.3 0 .02-.02.02-.02 0a2.32 2.32 0 0 1 -.14-1.29c.01-.06.03-.06.06 0zm-.71 0c.34.24.53.6.52 1.05 0 .04-.02.04-.04.01a2.8 2.8 0 0 1 -.53-1.03c0-.05 0-.06.04-.03zm.3 1.06.33.48c.08.12.07.44.09.58 0 .04-.05.06-.07.03l-.28-.48c-.08-.14-.1-.43-.13-.59 0-.04.04-.07.07-.03zm.76 1.31-.19.3c0 .02-.04.02-.04 0-.03-.5.05-.95.25-1.36.05-.1.07-.09.07.02.01.34.12.75-.09 1.05zm-.57 1.03c-.01-.13-.03-.26-.06-.37a2.8 2.8 0 0 1 -.04-.86c0-.04.05 0 .05.02.2.33.25.7.15 1.08-.02.05-.01.11-.07.15-.01 0-.03 0-.03-.02zm.08.44c.07-.43.32-.84.57-1.16.05-.08.07-.06.06.03l-.03.3c-.01.35-.33.67-.59.85 0 0-.02 0-.01-.02zm-.46.05.19-.6c0-.03.05-.03.06 0 .01.15.1.47.06.6l-.23.66c0 .04-.05.03-.05 0-.01-.18-.08-.5-.03-.66zm.05 1.03c-.02 0-.06 0-.04-.03.2-.4.49-.74.87-1 .03-.02.04-.02.02.02-.06.16-.1.34-.2.48-.17.24-.38.41-.65.53zm-.69.59c.08-.43.21-.77.46-1.1.02 0 .04 0 .04.02.05.46-.17.81-.46 1.1 0 0-.05.01-.04-.02zm1.07-.44c-.22.57-.58.7-1.07.82-.03.01-.03 0-.02-.03a2.3 2.3 0 0 1 1.07-.82c.01 0 .03.01.02.03zm-1.11.18-.27.63-.02.02-.44.4h-.03l-.03-.01-.01-.03v-.03l.28-.58.01-.01.45-.44.02-.02.03.01.02.03v.03zm-1.83 1.6c.1-.16.28-.6.43-.69l.6-.33c.02-.01.04.02.02.05-.11.17-.27.54-.43.65l-.6.37c-.02.01-.04-.02-.03-.05zm2.37-.84c-.22.25-.42.43-.73.44-.18 0-.37.02-.55.04-.04 0-.05-.01-.01-.05.35-.3.83-.4 1.28-.46.03 0 .03 0 .01.03z"/><path d="m9.78 13.48c.05 0 .1-.02.14-.03.29-.09.72.02 1.02.12.12.05.12.09 0 .12l-.2.07c-.5.24-1.02.35-1.44-.16a.07.07 0 0 1 -.01-.05 3.21 3.21 0 0 0 .37-.5c.18-.26.53-.3.79-.43.05-.02.06 0 .03.05-.16.31-.4.56-.71.75-.1.06-.1.08.01.06z"/><path d="m12.06 13.08c-.33.2-.56.42-.97.28a4.1 4.1 0 0 0 -.34-.1c-.1-.02-.1-.05 0-.08.42-.15.86-.2 1.3-.15.06 0 .06.02.01.05zm-6-8.53c-.03.04.01.11.06.1l.4-.16c.14-.05.3-.28.4-.39.04-.04 0-.12-.06-.1l-.5.19c-.1.04-.22.27-.3.36zm-.74.92c.27-.27.47-.63.58-1.02.01-.03 0-.04-.03-.02-.35.23-.58.52-.59 1.02 0 .02.03.03.04.02zm.81-.32c-.2.15-.4.22-.43.16-.04-.06.1-.23.3-.38.2-.14.4-.21.43-.15.04.06-.1.22-.3.37zm-1.29.39c-.16.28-.16.58-.1.89 0 .04.02.05.04 0 .19-.37.33-.74.3-1.18 0-.06-.02-.07-.05-.02l-.2.31zm.19.68c0 .02 0 .03.02.02a2 2 0 0 0 .74-.73c.03-.07.02-.09-.04-.07-.32.1-.64.4-.72.78zm-.53.11c-.24.43-.37.86-.1 1.3 0 .02.01.02.02 0 .17-.42.21-.85.13-1.29 0-.06-.03-.06-.06 0zm.71 0c-.34.24-.54.6-.52 1.05 0 .04 0 .04.03.01.26-.33.44-.67.53-1.03.01-.05 0-.06-.04-.03zm-.31 1.06-.33.48c-.07.12-.06.44-.08.58-.01.04.04.06.06.03l.28-.48c.08-.14.1-.43.13-.59.01-.04-.04-.07-.06-.03zm-.76 1.31.19.3c0 .02.04.02.04 0 .03-.5-.05-.95-.25-1.36-.04-.1-.07-.09-.07.02-.01.34-.12.75.09 1.05zm.57 1.03c.01-.13.03-.26.06-.37.07-.28.06-.58.04-.86 0-.04-.04 0-.05.02-.2.33-.25.7-.15 1.08.02.05.01.11.07.15.02 0 .03 0 .03-.02zm-.07.44a2.9 2.9 0 0 0 -.57-1.16c-.06-.08-.08-.06-.07.03l.03.3c.01.35.34.67.59.85 0 0 .02 0 .02-.02zm.46.05-.2-.6c0-.03-.05-.03-.05 0-.02.15-.11.47-.07.6l.23.66c.01.04.06.03.06 0 0-.18.08-.5.02-.66zm-.05 1.03c.02 0 .05 0 .04-.03-.2-.4-.5-.74-.87-1-.04-.02-.04-.02-.03.02.06.16.1.34.2.48.17.24.39.41.66.53zm.69.59a2.31 2.31 0 0 0 -.47-1.1c-.01 0-.04 0-.04.02-.04.46.18.81.46 1.1.01 0 .05.01.05-.02zm-1.08-.44c.22.57.59.7 1.08.82.02.01.03 0 .01-.03a2.3 2.3 0 0 0 -1.07-.82c-.01 0-.02.01-.02.03zm1.11.18.28.63.01.02.45.4h.03l.02-.01.02-.03v-.03l-.29-.58v-.01l-.45-.44-.03-.02-.03.01-.01.03zm1.85 1.6c-.1-.16-.29-.6-.45-.69l-.58-.33c-.03-.01-.05.02-.04.05.12.17.28.54.44.65l.6.37c.02.01.04-.02.03-.05zm-2.39-.84c.22.25.43.43.74.44.18 0 .36.02.54.04.05 0 .05-.01.02-.05-.36-.3-.84-.4-1.29-.46-.02 0-.03 0 0 .03z"/><path d="m8.23 13.48c-.05 0-.1-.02-.14-.03-.29-.09-.72.02-1.02.12-.12.05-.12.09 0 .12l.2.07c.5.24.67.29 1.47.2.18 0 .55.05.55.04 0-.02-.57-.48-.58-.49a3.22 3.22 0 0 1 -.36-.45c-.18-.27-.53-.31-.79-.44-.05-.02-.06 0-.03.05.16.31.4.56.71.75.1.06.1.08-.01.06z"/><path d="m5.94 13.08c.34.2.57.42.98.28l.34-.1c.1-.02.1-.05 0-.08a3.1 3.1 0 0 0 -1.31-.15c-.05 0-.06.02 0 .05z"/><path d="m9.7 7.57c-.1.02-.2.04-.3.04h-.1c-.26-.03-.51-.04-.7.15l-.13.15c-.05.07-.08.07-.08 0v-.02c.02-.3.11-.55.33-.73.11-.09.26-.16.4-.16.12 0 .22.05.32.1l.07.02c.15.07.31.14.48.13.11 0 .17-.06.23-.14l.05-.06c.04-.04.1-.05.16-.05.04 0 .06.02.06.06v1.38c0 .08.11.12.2.1l.2-.02c.1 0 .2-.06.2-.15v-.5c0-.1-.02-.2-.06-.28-.02-.05-.11-.06-.16-.03a.4.4 0 0 1 -.15.04c-.05 0-.08-.05-.04-.08l.54-.5c0-.02.02-.02.03-.02l.03.01.3.3h.06l.14-.13c.04-.04.1-.05.15-.03h.02c.03.02.04.03.04.05 0 .01 0 .03-.03.04-.27.26-.27.56-.27.89v2.12c0 .06.03.1.09.09.03 0 .06-.03.09-.05l.02-.01c.03-.03.06 0 .08.02.03.04.03.08-.01.12l-.56.56a.08.08 0 0 1 -.1 0c-.21-.17-.21-.42-.21-.67v-.1c0-.03-.01-.04-.03-.01-.2.25-.54.56-.85.7-.17.06-.34.1-.5.1a1.2 1.2 0 0 1 -1.17-.7c-.2.27-.46.43-.56.5h-.02a.24.24 0 0 1 -.04-.04.8.8 0 0 1 -.61.24c-.88 0-1.31-.74-1.31-1.38 0-.81.54-1.62 1.32-2.05.04-.02.03-.03 0-.02l-.08.02c-.1.02-.22.04-.31.04h-.1c-.24-.03-.44-.04-.62.15l-.13.15c-.06.08-.09.07-.08-.02.02-.3.14-.55.36-.73a.51.51 0 0 1 .57-.09l.11.05h.01c.15.07.31.14.48.13.1 0 .14-.05.19-.12l.06-.08c.04-.04.1-.05.16-.05.04 0 .06.02.06.06v3.43a.55.55 0 0 1 .12-.06c.23-.1.33-.21.37-.29a1.54 1.54 0 0 1 -.09-.47c-.01-.83.6-1.67 1.39-2.1.03-.02.03-.03 0-.02zm-.2 2.59c.53-.3.72-.71.71-1.24v-1.3c0-.07.1-.48.1-.27v3.04c0 .03-.02.05-.04.05a.94.94 0 0 1 -.78-.25v-.03zm.32-2.47a1.9 1.9 0 0 0 -.73 1.6c0 .3.1.54.27.76l.02.01.03-.01a1 1 0 0 0 .1-.48v-.13c-.03-.61-.05-1.22.35-1.73.06-.08.05-.09-.04-.02zm1.26.92.02.02v.6c0 .02-.01.03-.04.02a1.05 1.05 0 0 0 -.52-.03c-.03 0-.04 0-.04-.03v-.52c0-.01 0-.02.02-.02.06.04.42.06.56-.04zm-.18.74-.19-.02c-.1-.02-.21.02-.21.1v.82c0 .1.1.12.19.05l.23-.2c.08-.07.18-.16.18-.26v-.34c0-.1-.1-.15-.2-.16zm-3.87.81c.53-.3.67-.71.67-1.24v-1.4c0-.06-.01-.13.03-.19.05-.09.08-.08.08.02v3.04c0 .03-.02.05-.04.05-.32.03-.5-.05-.75-.25v-.03zm.33-2.47a1.9 1.9 0 0 0 -.74 1.6c0 .3.1.54.27.76l.03.01.02-.01.03-.07a.88.88 0 0 0 .13-.54v-.22c-.04-.53-.06-1.06.29-1.5.06-.09.05-.1-.03-.03z" fill-rule="evenodd"/></g></svg>