<svg height="18" viewBox="0 0 18 18" width="18" xmlns="http://www.w3.org/2000/svg"><path d="m0 0h18v18h-18z" fill="#f0f3fa"/><path d="m5 5.51c0-.28.21-.51.47-.51h1.06c.26 0 .47.23.47.51v2.49h4c0-.28.21-.5.47-.5h1.06c.26 0 .47.22.47.5v4.5c0 .28-.21.5-.47.5h-1.06c-.26 0-.47-.22-.47-.5v-2.5h-4v2.49c0 .28-.21.51-.47.51h-1.06c-.26 0-.47-.23-.47-.51z" fill="#006cb8"/><path d="m11 5.51c0-.28.21-.51.47-.51h1.06c.26 0 .47.23.47.51v.98c0 .28-.21.51-.47.51h-1.06c-.26 0-.47-.23-.47-.51v-.99z" fill="#e60012"/></svg>