<svg height="18" viewBox="0 0 18 18" width="18" xmlns="http://www.w3.org/2000/svg"><path d="m0 0h18v18h-18z" fill="#f0f3fa"/><path d="m15 13h-12v-.38l4.2-2.1 3.4.77 4.4-2.29zm-12-4.38v-3.62h12v.19l-6.4 3.05-3.4-.76z" fill="#0067ac"/><path d="m15 6.03-5.83 2.96-3.2-.76-2.97 1.41v.43l3.02-1.44 3.2.76 5.78-2.93zm0 1.52-5.03 2.58-3.4-.76-3.57 1.7v.43l3.62-1.73 3.4.77 4.98-2.55z" fill="#0067ac"/><path d="m6 8.24-.8-.76 3.4.76.6.76zm.6 1.14-.6-.76 3.2.76.8.76zm.6 1.14-.6-.76 3.4.76.6.77z" fill="#76c6f1"/></svg>