<svg height="18" viewBox="0 0 18 18" width="18" xmlns="http://www.w3.org/2000/svg"><path d="m0 0h18v18h-18z" fill="#f0f3fa"/><path d="m10.46 3.98s.38 1.6 2.1 1.35l-1.19 2.27s-.81-1.27-2.22-1.6l1.3-2.02z" fill="#bdc98b"/><path d="m7.9 3.86s-.3 1.53-2.5 1.47l1.26 2.17s.78-1.5 2.5-1.5z" fill="#bdc98b"/><path d="m10.48 14s.36-1.59 2.07-1.33l-1.22-2.16s-.85 1.16-2.18 1.49zm-2.6.15s-.29-1.48-2.48-1.48l1.41-2.34s.64 1.34 2.35 1.34z" fill="#70acde"/><path d="m4.08 7s.94 1.67 0 4l2.73-.17s-.83-1.99 0-3.33z" fill="#fcce5c"/><path d="m12.5 5a1.5 1.5 0 1 1 0 3 1.5 1.5 0 0 1 0-3zm-3.5-2a1.5 1.5 0 1 1 0 3 1.5 1.5 0 0 1 0-3z" fill="#83b11d"/><path d="m12.5 10a1.5 1.5 0 1 1 0 3 1.5 1.5 0 0 1 0-3z" fill="#3f7cbf"/><path d="m5.5 5a1.5 1.5 0 1 1 0 3 1.5 1.5 0 0 1 0-3zm0 5a1.5 1.5 0 1 1 0 3 1.5 1.5 0 0 1 0-3z" fill="#f08d01"/><path d="m9 12a1.5 1.5 0 1 1 0 3 1.5 1.5 0 0 1 0-3z" fill="#3f7cbf"/><path d="m11.81 9c0 1.66-1.13 3-2.73 3s-2.9-1.34-2.9-3 1.3-3 2.9-3 2.73 1.34 2.73 3z" fill="#f0f3fa"/></svg>