<svg height="18" viewBox="0 0 18 18" width="18" xmlns="http://www.w3.org/2000/svg"><path d="m0 0h18v18h-18z" fill="#f0f3fa"/><path d="m7.22 13h-3.22c2.06-4.29 7.16-6 8-6a9.2 9.2 0 0 0 -4.78 6z" fill="#c9151e"/><circle cx="12.5" cy="6.5" fill="#50c5ed" r=".5"/><path d="m11 6.85c-.67.16-1.49.48-1.82.65a6.05 6.05 0 0 0 -2.93-.9c-.74 0-1.3.6-1.3 1.35s.2 1.33.4 2.05a5.05 5.05 0 0 1 -1.35-3.15c0-.9.7-1.85 2.1-1.85 1.85 0 4.22 1.4 4.9 1.85z" fill="#50c5ed"/><path d="m8.8 10.33c.58.33 1.77 1 2.9 1 1.14 0 1.51-.83 1.51-1.39s-.53-1.55-.8-1.94c.92.95 1.59 2.04 1.59 3 0 .95-.89 2-2.3 2-1.4 0-3.18-.95-3.7-1.32.3-.65.65-1.15.8-1.35z" fill="#0076c0"/></svg>