<svg height="18" viewBox="0 0 18 18" width="18" xmlns="http://www.w3.org/2000/svg"><path d="m0 0h18v18h-18z" fill="#f0f3fa"/><path d="m8 4h2v1h4v1h-10v-1h4zm6 8h-10v1h4v1h2v-1h4zm-10-4.12c0-.76.62-1.38 1.38-1.38h2.62v1.07h-2.25a.42.42 0 0 0 -.42.42v2.02c0 .23.19.42.42.42h2.25v1.07h-2.62c-.76 0-1.38-.62-1.38-1.38zm2.52.4c-.1 0-.19.1-.19.23v.98c0 .12.09.22.19.22h1.48v-1.41h-1.48zm6.1 3.22c.76 0 1.38-.62 1.38-1.38v-2.24c0-.76-.62-1.38-1.38-1.38h-2.62v1.07h2.25c.23 0 .42.19.42.42v2.02c0 .23-.19.42-.42.42h-2.25v1.07zm-.95-2.01c0 .12-.09.22-.19.22h-1.48v-1.41h1.48c.1 0 .19.1.19.22v.98z" fill="#c80015"/></svg>