<svg height="18" viewBox="0 0 18 18" width="18" xmlns="http://www.w3.org/2000/svg"><path d="m0 0h18v18h-18z" fill="#f0f3fa"/><path d="m12.23 11.46a4.33 4.33 0 0 0 1.27-3.06c0-2.43-2.01-4.4-4.5-4.4a4.45 4.45 0 0 0 -4.5 4.4c0 1.19.48 2.27 1.27 3.06 1.35-1.31 2.83-2.76 2.83-2.76h.79l2.85 2.77zm-2.59 1.29h-1.28a4.65 4.65 0 0 0 1.28 0z" fill="#a7262b"/><path d="m6.43 9.58h1.36l.89-.86h-.65l.33-.96h.48l.16.3.16-.3h.48l.33.96h-.5l.92.86h1.18v-.58h-.48l-.6-2h-1.17l-.32.37-.32-.37h-1.34l-.44 2h-.48v.58z" fill="#f0f3fa"/><path d="m9.36 4.62h-.57v.77h.55l.03-.14h-.37v-.19h.29l.02-.13h-.31v-.17h.33l.02-.14zm1.05.5-.37.52-.15-.1.38-.52-.15-.11.09-.1.42.3-.1.1zm.74 1.33.38-.67-.16-.15-.67.33.13.14.16-.09.13.14-.1.15zm-.05-.5.22-.13.01.02-.14.2-.1-.1zm1.09.71-.54.27.13.26-.12.04-.21-.43.65-.32zm.39 1.29c.02.17-.03.27-.17.31l-.06-.19c.07-.02.1-.06.09-.12a.09.09 0 0 0 -.03-.06.06.06 0 0 0 -.05-.01.1.1 0 0 0 -.04.01.12.12 0 0 0 -.03.04.87.87 0 0 0 -.07.19.72.72 0 0 1 -.06.13.18.18 0 0 1 -.13.09c-.06 0-.12-.02-.18-.07a.35.35 0 0 1 -.1-.21.59.59 0 0 1 .04-.32l.13.06a.5.5 0 0 0 -.02.23c0 .03.01.05.03.07.01.02.03.03.06.02.02 0 .04-.02.06-.05a.63.63 0 0 0 .04-.11.72.72 0 0 1 .06-.18.57.57 0 0 1 .04-.04.18.18 0 0 1 .1-.06.2.2 0 0 1 .19.06c.05.05.08.12.1.21zm-5.84-2.48.48.54-.16.15-.38-.1-.12-.04.1.08.21.23-.17.16-.49-.55.17-.15.37.1.13.06v-.01l-.1-.08-.22-.23zm-.6 2.02-.73-.03-.02.24.4.16.1.03-.1.01-.43.08-.02.24.71.13.02-.17-.39-.06h-.1v-.01l.47-.09.01-.2-.43-.18v-.01l.1.03.4.02.01-.2zm2.02-2.7.18.7-.18.04-.1-.38v-.1h-.01l-.06.46-.18.05-.22-.43h-.01l.03.1.05.4-.17.02-.07-.72.23-.05.2.4.03.09h.01v-.1l.04-.44.23-.05zm-1.77 2.11-.65-.33-.08.15.65.33z" fill="#fff"/><path d="m4.5 12.7 4.22-4.17-4.05 4.22h.3l3.8-4.22-3.46 4.22h.84l2.7-4.22-2.33 4.22h.4l1.98-4.22-1.6 4.22h.63l1.03-4.22-.67 4.22h.56l.16-4.22.11 4.22h.74l-.8-4.22 1.09 4.22h.48l-1.51-4.22 1.75 4.22h.81l-2.52-4.22 2.73 4.22h.54l-3.22-4.22 3.47 4.22h.5l-3.89-4.22 4.21 4.16v1.31h-9zm.16 1.14v-.93h.27v.78h.21v.15zm.6-.93h.83v.93h-.84v-.93zm1.97.46c0 .26-.21.47-.48.47a.48.48 0 0 1 -.48-.46c0-.26.21-.47.48-.47s.48.2.48.46zm-.27 0c0 .12-.1.2-.21.2a.2.2 0 0 1 -.2-.2c0-.1.08-.2.2-.2s.2.1.2.2zm2.2 0c0 .26-.22.47-.48.47a.48.48 0 0 1 -.48-.46c0-.26.21-.47.48-.47.26 0 .48.2.48.46zm1.29.47c.26 0 .48-.2.48-.46a.48.48 0 0 0 -.48-.47.48.48 0 0 0 -.49.46c0 .26.22.47.49.47zm2.25-.46c0 .25-.22.46-.49.46a.48.48 0 0 1 -.48-.46c0-.26.22-.47.48-.47.27 0 .49.2.49.46zm-5.47-.32v-.15h.97v.15h-.35v.63h.35v.15h-.97v-.15h.35v-.63zm3.7-.15v.15h.32v.63h-.32v.15h.8v-.15h-.29v-.63h.3v-.15zm1.77.15v-.15h.48v.93h-.48v-.15h.26v-.63zm-3.54-.15v.15h.3v.78h.18v-.78h.32v-.15z" fill-rule="evenodd"/></svg>