<svg height="18" width="18" xmlns="http://www.w3.org/2000/svg"><path d="m0 0h18v18h-18z" fill="#f6f8fd"/><path d="m5.152 8.439-1.152 1.31 1.951-.392-.864 2.709c1.61-1.776 4.837-5.321 4.858-5.297-2 .409-4.029 1.284-4.793 1.67z" fill="#8ac63f"/><path d="m9.996 4c-.314.132-2.334 1.81-3.312 2.664 2.174-.843 3.746-.994 5.329-1.16-.681-.49-2.038-1.48-2.017-1.504zm2.28 1.686-3.981 4.499c1.54-.59 3.662-.878 4.53-.948l.296-1.008 1.879-.179-2.724-2.363z" fill="#0074e3"/><path d="m12.52 10.503c-2.11-.067-5.985 1.138-7.633 2.053-.147.493-.417 1.444-.417 1.444 3.681-1.318 6.557-1.76 7.485-1.82 0 0 .532-1.668.565-1.677z" fill="#8ac63f"/></svg>