<svg height="18" width="18" xmlns="http://www.w3.org/2000/svg"><path d="m0 0h18v18h-18z" fill="#1d2b62"/><path d="m5.2 4.52-.3-.52-.3.52h-.6l.3.52-.3.51h.6l.3.52.3-.52h.6l-.29-.51.3-.52h-.6zm1.26 2.27-.3-.51-.3.51h-.61l.3.52-.3.52h.6l.3.52.3-.52h.6l-.29-.52.3-.52zm3.9-2.79.3.52h.61l-.3.52.3.51h-.6l-.3.53-.3-.53h-.6l.29-.51-.3-.52h.6zm1.79 2.8-.3-.52-.3.51h-.6l.29.53-.3.51h.6l.3.52.3-.52h.61l-.3-.51.3-.53h-.6zm-4.52-2.8.3.52h.6l-.29.52.3.51h-.6l-.3.53-.3-.53h-.61l.3-.51-.3-.52h.6zm1.67 2.8-.3-.53-.3.51h-.6l.3.53-.3.51h.6l.3.52.3-.52h.6l-.3-.51.3-.53h-.6zm3.8-2.8.3.52h.6l-.3.52.3.52h-.6l-.3.52-.3-.52h-.6l.29-.52-.3-.52h.6l.3-.52zm-9.1 5h3.75v.92l-2.14 2.08h2.14v1h-3.75v-.92l2.15-2.08h-2.15zm4.38 0h1v4h-1zm1.62 4v-4h1.23l.8 1.84.74-1.84h1.23v4h-1v-2l-.7 2h-.6l-.7-2v2z" fill="#fff"/></svg>