<svg height="18" viewBox="0 0 18 18" width="18" xmlns="http://www.w3.org/2000/svg"><path d="m0 0h18v18h-18z" fill="#f0f3fa"/><path d="m3.42 8-1.42-1v1zm.98.85-.69 1.15h1.79v1h-3.5l1.68-2.73z" fill="#22335f"/><path d="m5.5 7h-3.5l1.4 1h.44l-.2.32.76.54z" fill="#059bd8"/><path d="m6 7v1.36l1-.7z" fill="#ea178e"/><path d="m6 8.28v2.72h1v-3.34z" fill="#8b2781"/><path d="m8.58 7.54a2.1 2.1 0 0 0 -.58 1.46v2h1v-1.85c0-.45.11-.68.29-.88l.02-.03.07-.08-.75-.67zm2.42 3.46v-1.58l1 .76v.82z" fill="#048375"/><path d="m12 9c0-.6-.17-1.11-.52-1.46a1.97 1.97 0 0 0 -1.45-.54c-.59 0-1.06.17-1.4.49l.72.7c.17-.13.39-.19.68-.19.34 0 .58.08.75.26.18.19.22.52.22.9v.26l1 .75v-1.16z" fill="#9ebe35"/><path d="m13.5 9.01c0-.5.33-1.01 1-1.01.32 0 .58.12.78.36l.72-.56c-.36-.52-.9-.8-1.56-.8-1.12 0-1.94 1-1.94 2.01 0 .62.26 1.23.76 1.61l.84-.66c-.34-.2-.6-.5-.6-.95z" fill="#f58725"/><path d="m14.47 10c-.2 0-.4-.07-.56-.17l-.64.8c.34.26.82.37 1.25.37.6 0 1.12-.26 1.48-.73l-.71-.64a1 1 0 0 1 -.82.37z" fill="#ed2420"/></svg>