<svg height="18" viewBox="0 0 18 18" width="18" xmlns="http://www.w3.org/2000/svg"><path d="m0 0h18v18h-18z" fill="#f0f3fa"/><path d="m5.26 7h-1.86c-.22 0-.4-.31-.4-.55s.18-.45.4-.45h3.23c.3 0 .47.34.31.6l-2.4 4a.27.27 0 0 0 -.04.13c0 .14.1.27.24.27h1.87c.21 0 .39.32.39.55s-.18.45-.4.45h-3.22c-.3 0-.47-.34-.31-.6l2.4-4.03c.03-.05.04-.1.04-.14 0-.14-.1-.23-.24-.23zm6.2-.5c0-.24-.2-.5-.43-.5h-3.13c-.24 0-.44.26-.44.5s.2.5.44.5h.75c.2 0 .35.17.35.38v4.19c0 .24.26.43.5.43s.5-.2.5-.43v-4.2c0-.2.14-.37.36-.37h.67c.24 0 .43-.26.43-.5zm.87-.5c-.18 0-.33.17-.33.39v5.22c0 .22.15.39.33.39h2.3c.2 0 .37-.26.37-.5s-.17-.5-.37-.5h-1.26c-.2 0-.37-.2-.37-.43v-.74c0-.24.17-.43.37-.43h.99c.2 0 .37-.21.37-.45s-.17-.45-.37-.45h-.99c-.2 0-.37-.2-.37-.23v-.84c0-.24.17-.43.37-.43h1.26c.2 0 .37-.22.37-.5 0-.24-.17-.5-.37-.5z" fill="#0088ce"/></svg>