<svg height="18" width="18" xmlns="http://www.w3.org/2000/svg"><path d="m0 0h18v18h-18z" fill="#3d5266"/><path d="m13.959 13.745c-.44-.39-.597-.864-.806-1.68-.01-.06-.1-.065-.153-.065h-4.376c-.105 0-.157-.153-.095-.25l4.471-6.303c-.01.036.02-.025 0 0v-1.228c.01.012 0-.024 0 0-.042-.134-.119-.219-.39-.219h-7.209c-.22 0-.397.207-.397.462l.01 1.123c0 .256.177.415.397.415h4.205c.104 0 .157.182.094.279l-4.047 5.701c-.366.487-.743.962-.648 1.485.02.158.083.304.167.425.052.073.126.11.199.11h8.504c.105-.012.157-.17.074-.255z" fill="#fff"/></svg>