<svg height="18" viewBox="0 0 18 18" width="18" xmlns="http://www.w3.org/2000/svg"><path d="m0 0h18v18h-18z" fill="#f0f3fa"/><path d="m11.38 14h-3.88l2.38-2.6c.35-.42.87-.8 1.58-.8.9 0 1.54.68 1.54 1.65 0 .93-.68 1.75-1.54 1.75z" fill="#63bd41"/><path d="m6.62 4h3.88l-2.38 2.6c-.35.42-.87.8-1.58.8-.9 0-1.54-.68-1.54-1.65 0-.93.68-1.75 1.54-1.75z" fill="#00b2d7"/><path d="m12.37 7.25c.32-.43.63-.84.63-1.41 0-.9-.61-1.7-1.42-1.84l-6.16 6.92c-.15.2-.42.64-.42 1.26 0 .63.42 1.48 1.28 1.82z" fill="#646569"/></svg>