<svg height="16" viewBox="0 0 16 16" width="16"><g fill="none" fill-rule="evenodd"><path d="m3.546 9.669-.557 2.08-2.036.042a7.964 7.964 0 0 1 -.953-3.791 7.96 7.96 0 0 1 .894-3.68l1.813.333.794 1.802a4.755 4.755 0 0 0 .045 3.214z" fill="#fbbb00"/><path d="m15.86 6.505a8.009 8.009 0 0 1 -.035 3.165 7.998 7.998 0 0 1 -2.817 4.569l-2.283-.117-.323-2.017a4.768 4.768 0 0 0 2.052-2.435h-4.278v-3.165z" fill="#518ef8"/><path d="m13.008 14.238a7.966 7.966 0 0 1 -5.008 1.762 7.999 7.999 0 0 1 -7.047-4.209l2.593-2.121a4.757 4.757 0 0 0 6.856 2.436l2.606 2.133z" fill="#28b446"/><path d="m13.106 1.842-2.591 2.121a4.758 4.758 0 0 0 -7.015 2.491l-2.605-2.132a7.998 7.998 0 0 1 7.105-4.322c1.941 0 3.72.691 5.106 1.842z" fill="#f14336"/></g></svg>