<svg height="194" viewBox="0 0 152 194" width="152" xmlns="http://www.w3.org/2000/svg"><g fill="#fff" fill-rule="evenodd"><path d="m47.598 87.522a1.513 1.513 0 0 0 -2.097.443c-6.877 10.559-21.093 13.563-31.68 6.7-5.146-3.335-8.677-8.458-9.94-14.424-1.26-5.954-.117-12.05 3.223-17.166a22.826 22.826 0 0 1 4.798-5.321c.65-.527.752-1.481.227-2.132a1.518 1.518 0 0 0 -2.133-.227 25.962 25.962 0 0 0 -5.431 6.024c-3.782 5.796-5.078 12.703-3.649 19.45 1.432 6.76 5.43 12.562 11.257 16.338a25.837 25.837 0 0 0 14.09 4.171c8.49 0 16.817-4.146 21.777-11.759a1.515 1.515 0 0 0 -.442-2.097zm96.339-29.409c-2.965-13.949-16.746-22.892-30.74-19.936-.82.174-1.34.977-1.17 1.797a1.523 1.523 0 0 0 1.797 1.168c12.36-2.61 24.532 5.286 27.148 17.6.728 3.424.674 6.861-.157 10.217a1.514 1.514 0 0 0 1.47 1.88c.681 0 1.3-.46 1.471-1.152.945-3.802 1.004-7.698.181-11.574z"/><path d="m128.816 33.929c-2.818-13.257-15.063-21.99-28.563-20.305a1.515 1.515 0 0 0 -1.314 1.691c.104.832.873 1.402 1.693 1.316 11.869-1.497 22.73 6.217 25.218 17.928.447 2.103.601 4.209.456 6.26a1.515 1.515 0 0 0 1.515 1.623c.787 0 1.453-.61 1.51-1.41a25.586 25.586 0 0 0 -.515-7.103zm-48.196 58.53c-.806-.118-1.6.438-1.73 1.265-.288 1.858-3.57 4.989-10.096 7.474-10.764 4.098-25.923 4.687-35.523-3.226a1.513 1.513 0 0 0 -2.132.206c-.533.644-.441 1.599.205 2.132 6.115 5.042 13.784 6.91 21.237 6.91 6.27 0 12.386-1.323 17.292-3.191 6.978-2.657 11.468-6.336 12.013-9.84a1.516 1.516 0 0 0 -1.267-1.73z"/><path d="m107.434 27.247c-3.944-18.537-22.268-30.43-40.874-26.495-9.042 1.912-16.784 7.212-21.795 14.92-4.992 7.683-6.69 16.86-4.78 25.845a1.518 1.518 0 0 0 1.799 1.167 1.518 1.518 0 0 0 1.167-1.797c-1.743-8.193-.197-16.56 4.356-23.563 4.57-7.03 11.63-11.862 19.88-13.607 16.956-3.59 33.688 7.254 37.283 24.16.175.822 1 1.343 1.8 1.168a1.516 1.516 0 0 0 1.165-1.798zm14.446 68.693a1.514 1.514 0 0 0 -2.128-.25c-3.809 3.008-8.182 5.052-13 6.076-9.766 2.062-19.208-.37-26.604-6.854a1.516 1.516 0 1 0 -1.999 2.279c6.245 5.474 13.818 8.324 21.853 8.324 2.426 0 4.894-.26 7.377-.784 5.28-1.122 10.073-3.365 14.249-6.661.657-.52.77-1.473.251-2.13z"/><path d="m43.773 19.075h-.008c-2.419.014-4.825.27-7.15.761-9.04 1.91-16.778 7.206-21.79 14.913-4.994 7.683-6.693 16.865-4.783 25.855a34.279 34.279 0 0 0 5.615 12.812 1.515 1.515 0 1 0 2.468-1.758 31.26 31.26 0 0 1 -5.118-11.684c-1.743-8.197-.195-16.569 4.359-23.573 4.569-7.027 11.628-11.858 19.876-13.6a32.456 32.456 0 0 1 6.538-.695 1.515 1.515 0 0 0 -.007-3.03zm100.267 41.514a1.516 1.516 0 1 0 -2.25 2.033c.114.123 11.007 12.37 5.47 23.739-7.398 15.183-25.322 9.338-26.085 9.084a1.515 1.515 0 0 0 -.973 2.869c.094.032 4.231 1.393 9.563 1.393 6.756 0 15.427-2.183 20.218-12.019 6.424-13.19-5.436-26.537-5.942-27.1z"/><path d="m33.688 129.624v-.844c0-.837-.678-1.515-1.515-1.515h-12.121c-.837 0-1.515.678-1.515 1.515v.844c-3.76 2.524-6.06 6.768-6.06 11.277 0 7.52 6.116 13.637 13.635 13.637 7.52 0 13.637-6.117 13.637-13.637 0-4.51-2.302-8.756-6.061-11.277zm-7.575 21.884c-5.848 0-10.606-4.759-10.606-10.606 0-3.785 1.984-7.197 5.307-9.13a1.52 1.52 0 0 0 .753-1.31v-.166h9.09v.165c0 .54.288 1.04.754 1.312 3.323 1.929 5.307 5.344 5.307 9.129 0 5.847-4.758 10.606-10.605 10.606z" fill-rule="nonzero"/><path d="m33.244 118.618-3.03-3.03a1.513 1.513 0 0 0 -1.072-.444h-6.06c-.402 0-.787.16-1.071.444l-3.03 3.03a1.513 1.513 0 0 0 -.444 1.072v9.09c0 .838.678 1.516 1.515 1.516h12.12c.838 0 1.516-.678 1.516-1.516v-9.09c0-.403-.16-.787-.444-1.072zm-2.587 8.648h-9.09v-6.949l2.142-2.142h4.806l2.142 2.142z" fill-rule="nonzero"/><path d="m32.173 121.205h-12.121a1.514 1.514 0 1 0 0 3.03h12.12a1.514 1.514 0 1 0 0-3.03zm-1.959 9.535a1.514 1.514 0 0 0 -2.143 0l-1.959 1.959-1.959-1.96a1.514 1.514 0 1 0 -2.142 2.143l3.03 3.03a1.512 1.512 0 0 0 2.142 0l3.03-3.03a1.514 1.514 0 0 0 0-2.142z"/><path d="m23.082 130.296c-.837 0-1.515.677-1.515 1.515v9.09a1.514 1.514 0 1 0 3.03 0v-9.09c0-.838-.678-1.515-1.515-1.515zm6.06 0c-.837 0-1.515.677-1.515 1.515v9.09a1.514 1.514 0 1 0 3.03 0v-9.09c0-.838-.677-1.515-1.515-1.515zm-3.03-27.273c-.837 0-1.515.678-1.515 1.515v12.121a1.514 1.514 0 1 0 3.03 0v-12.12c0-.838-.678-1.516-1.515-1.516z"/><path d="m133.686 123.563v-.843c0-.838-.677-1.515-1.515-1.515h-12.12c-.838 0-1.516.677-1.516 1.515v.843c-3.758 2.525-6.06 6.768-6.06 11.278 0 7.52 6.116 13.636 13.636 13.636s13.636-6.117 13.636-13.636c0-4.51-2.303-8.756-6.06-11.278zm-7.576 21.884c-5.847 0-10.605-4.758-10.605-10.606 0-3.785 1.982-7.197 5.305-9.13.468-.272.755-.772.755-1.31v-.166h9.09v.166c0 .538.288 1.038.755 1.31 3.324 1.93 5.306 5.345 5.306 9.13 0 5.847-4.758 10.606-10.606 10.606z" fill-rule="nonzero"/><path d="m133.242 112.558-3.03-3.03a1.513 1.513 0 0 0 -1.072-.444h-6.06c-.402 0-.787.16-1.071.444l-3.03 3.03a1.513 1.513 0 0 0 -.444 1.071v9.09c0 .838.678 1.516 1.515 1.516h12.121c.838 0 1.515-.678 1.515-1.515v-9.09c0-.403-.16-.788-.444-1.072zm-2.586 8.647h-9.09v-6.949l2.142-2.142h4.806l2.142 2.142z" fill-rule="nonzero"/><path d="m132.171 115.144h-12.12a1.514 1.514 0 1 0 0 3.03h12.12a1.514 1.514 0 1 0 0-3.03zm-1.959 9.535a1.515 1.515 0 0 0 -2.142 0l-1.96 1.96-1.958-1.96a1.515 1.515 0 1 0 -2.143 2.142l3.03 3.03a1.51 1.51 0 0 0 2.143 0l3.03-3.03a1.514 1.514 0 0 0 0-2.142z"/><path d="m123.08 124.235c-.837 0-1.514.678-1.514 1.515v9.091a1.514 1.514 0 1 0 3.03 0v-9.09c0-.838-.678-1.516-1.515-1.516zm6.06 0c-.836 0-1.514.678-1.514 1.515v9.091a1.514 1.514 0 1 0 3.03 0v-9.09c0-.838-.677-1.516-1.515-1.516zm-3.03-21.212c-.837 0-1.514.678-1.514 1.515v6.061a1.514 1.514 0 1 0 3.03 0v-6.06c0-.838-.678-1.516-1.515-1.516z"/><path d="m82.172 153.866v-.844c0-.837-.678-1.515-1.515-1.515h-12.122c-.837 0-1.515.678-1.515 1.515v.844c-3.76 2.524-6.06 6.768-6.06 11.277 0 7.52 6.117 13.637 13.636 13.637 7.52 0 13.636-6.117 13.636-13.637 0-4.51-2.302-8.756-6.06-11.277zm-7.576 21.884c-5.847 0-10.606-4.759-10.606-10.606 0-3.785 1.984-7.197 5.308-9.13a1.52 1.52 0 0 0 .753-1.31v-.166h9.09v.165c0 .54.288 1.039.755 1.312 3.323 1.929 5.306 5.344 5.306 9.129 0 5.847-4.758 10.606-10.606 10.606z" fill-rule="nonzero"/><path d="m81.728 142.861-3.03-3.03a1.515 1.515 0 0 0 -1.071-.444h-6.061c-.403 0-.787.16-1.071.444l-3.03 3.03a1.514 1.514 0 0 0 -.444 1.071v9.09c0 .838.677 1.516 1.515 1.516h12.121c.837 0 1.515-.678 1.515-1.515v-9.09c0-.403-.16-.788-.444-1.072zm-2.586 8.647h-9.09v-6.949l2.142-2.142h4.806l2.142 2.142z" fill-rule="nonzero"/><path d="m80.657 145.447h-12.121a1.514 1.514 0 1 0 0 3.03h12.121a1.514 1.514 0 1 0 0-3.03zm-1.96 9.535a1.514 1.514 0 0 0 -2.142 0l-1.959 1.959-1.959-1.96a1.514 1.514 0 1 0 -2.142 2.143l3.03 3.03c.296.296.684.444 1.071.444.388 0 .776-.148 1.07-.444l3.031-3.03a1.515 1.515 0 0 0 0-2.142z"/><path d="m71.566 154.538c-.837 0-1.515.678-1.515 1.515v9.09a1.514 1.514 0 1 0 3.03 0v-9.09c0-.837-.677-1.515-1.515-1.515zm6.061 0c-.838 0-1.516.678-1.516 1.515v9.09a1.514 1.514 0 1 0 3.03 0v-9.09c0-.837-.677-1.515-1.514-1.515zm-3.031-51.515c-.837 0-1.515.678-1.515 1.515v36.363a1.514 1.514 0 1 0 3.03 0v-36.363c0-.837-.677-1.515-1.515-1.515zm27.273 60.603h-9.091a1.514 1.514 0 1 0 0 3.03h9.09a1.514 1.514 0 1 0 0-3.03zm-45.454 0h-9.091a1.514 1.514 0 1 0 0 3.03h9.09a1.514 1.514 0 1 0 0-3.03zm6.397 13.301a1.514 1.514 0 0 0 -2.142 0l-6.43 6.427a1.514 1.514 0 1 0 2.142 2.143l6.43-6.427a1.514 1.514 0 0 0 0-2.143zm11.784 4.883c-.837 0-1.515.678-1.515 1.516v9.09a1.514 1.514 0 1 0 3.03 0v-9.09c0-.838-.677-1.516-1.515-1.516zm20.36 1.544-6.43-6.427a1.514 1.514 0 1 0 -2.143 2.143l6.43 6.427a1.51 1.51 0 0 0 2.143 0 1.514 1.514 0 0 0 0-2.143z"/></g></svg>