<svg height="256pt" viewBox="0 0 1536 700" width="384pt" xmlns="http://www.w3.org/2000/svg"><path d="m0 0h1536v1024h-1536zm990.28 192.2c-14.72 12.25-24.79 29.01-32.96 46.1-13.08 28.15-23.08 57.69-30.61 87.77-49.51-19.47-102.73-29.82-155.94-29.72-5.81.39-11.64.47-17.45.83-18.18 1.15-36.42 3.24-54.39 6.45-9.66 1.6-19.31 3.44-28.84 5.74-.73-.01-1.45.11-2.14.37-28.18 6.56-55.9 15.75-81.76 28.79-.66.17-1.3.34-1.93.52l.01.35c-4.74 2.28-9.45 4.61-14.03 7.18-.78.4-1.53.83-2.26 1.28-3 1.41-5.82 3.18-8.61 4.96-1.96.49-3.54 1.83-5.21 2.88-.56.41-1.67 1.23-2.23 1.65l-.39-.28c-3.5 2.28-7.18 4.3-10.54 6.79-3.04 1.74-5.86 3.83-8.8 5.72-1.11.68-2.16 1.42-3.17 2.23-7.81 5.29-15.39 10.95-22.6 17.03-.63.04-.94.36-.91.96-1.44.34-3.66 1.53-3.61 3.15-.46.23-1.39.69-1.85.92-2.06 1.61-4.01 3.36-5.77 5.29-.32.18-.97.54-1.29.72-2.65 2.28-5.24 4.65-7.61 7.22-2.12 1.15-3.72 3.04-5.34 4.78-7.9 7.12-15.42 14.69-22.66 22.48l-.24.02c-.82.83-1.61 1.69-2.39 2.56-.16.35-.48 1.06-.63 1.41-1.88 1.76-3.77 3.54-5.27 5.65-2.32 2.66-5.08 5.07-6.78 8.19-1.8 1.79-3.41 3.77-4.76 5.92l-.18.1-.07.19c-11.43 13.78-21.81 28.48-31.25 43.69-1.22 1.62-2.33 3.32-3.39 5.05-3.45-4.4-8.09-7.59-12.06-11.47-13.36-12.14-27.74-23.1-42.44-33.56-.66-.5-1.39-.84-2.19-1-4.44-3.65-9.48-6.48-14.26-9.65-14.34-8.76-29.28-17.05-45.49-21.76-10.15-3.49-21.51-3.86-31.72-.4-10.25 3.64-18.82 12.18-21.46 22.87l.52.95c-.79 1.7-.83 4.03.04 5.72l-.57.97c1.38 4.65 3.39 9.13 6.4 12.96 8.68 11.42 20.82 19.51 32.53 27.52 1.23.64 2.33 1.89 3.82 1.86 4.29 3.33 9.14 5.83 13.8 8.59 9.14 5.4 18.46 10.49 27.79 15.54 19.14 11.33 39.15 21.53 56.5 35.58l.92-1.43c-1.03 2.51-2.07 5.03-3.05 7.57l-.39.3c-2.44-1.34-4.8-3.18-7.6-3.61-2.25-1.38-4.68-2.42-7.15-3.3l-.08-.24c-2.52-.94-4.97-2.18-7.65-2.58-6.32-2.63-12.95-4.58-19.65-5.92-4.67-1.18-9.47-2.36-14.28-2.42-7.75-.87-15.59-.62-23.34.04-6.5.37-12.91 1.91-19.32 3.06l.33.22c-10.1 2.13-20.39 3.77-30.74 2.91l.31-.24c-13.41-1.22-26.26-7.42-39.91-5.85-8.3.86-17.31 4.69-21.07 12.63-4.02 8.04-3.26 17.53-.88 25.95 3.73 11.95 12.33 22.38 23.33 28.29 4.36 3.17 9.49 4.93 14.27 7.33.87.27 1.71.71 2.64.8 7.03 2.6 14.16 5 20.74 8.65 8.3 6.57 15.01 15.12 18.92 25 4.48 11.57 9.96 23.2 19.15 31.82 1.93 1.66 3.85 3.55 6.29 4.42 7.25 4.22 16.37 4.91 24.27 2.21 4.14-.83 8.14-2.31 12.28-3.21 4.62-.25 9.38-.09 13.8-1.66.34.03 1.01.08 1.35.11-.74 6.17-1.72 12.37-1.94 18.57-.67 8.24-.79 16.52-1.19 24.78 94.68-.08 189.35-.03 284.02-.03-.04-2.97.23-5.93.45-8.88.49-3.47.93-6.95 1.16-10.43 3.34-19.2 9.94-37.81 19.52-54.77.97-1.46 1.83-2.98 2.69-4.49 12.16 12.24 24.53 24.29 36.55 36.66l-.63-.56-.03.73c-9.77 14.26-14.29 31.59-14.91 48.74 60.39-.04 120.77-.03 181.16 0-.43-4.25-.7-8.51-1.22-12.74-3.22-26.87-17.43-52.71-39.63-68.52-11.81-8.44-25.95-13.65-40.43-14.65-4.08-.23-8.17-.2-12.25-.01-3.52-.01-7.01.84-10.49 1.34-10.74 2.42-21.36 6.45-30.05 13.35-13.33-11.93-26.72-23.79-40.2-35.55 1.44-1.33 2.91-2.63 4.29-4.02 1.67-1.27 3.15-2.76 4.69-4.18.22-.07.66-.2.88-.27l-.08-.68c1.38-.35 3.54-1.43 3.55-2.98.44-.19 1.32-.57 1.76-.76 6.77-5.29 14.2-9.61 21.55-14.01 1.72-.32 3.18-1.37 4.7-2.17 2.89-1.06 5.67-2.42 8.42-3.81 1.23-.08 2.36-.59 3.55-.92l-.59-.24c3.85-.94 7.52-2.51 11.35-3.53.22.03.65.11.87.15l-.16-.46c8.64-2.05 17.35-3.83 26.21-4.68 3.33.03 6.66-.87 10.03-.46 3.06.56 6.19.72 9.31.8 25.63 2.22 50.97 10.12 72.57 24.25 21.89 13.82 39.36 34 51.25 56.89 11.67 21.77 17.54 46.25 19.02 70.81 36.07-.35 72.16.04 108.23-.23 1-.13 1.88.14 2.63.82.15.87.46 2.61.61 3.48-.04.5-.14 1.52-.19 2.03l.37-.28.25.83c.52 1.26.94 2.67 2 3.65-1.38 1.41-2.49 3.14-4.18 4.21-6.92 1.95-15.03 1.57-20.74 6.46.11 1.4-.15 3.1 1.35 3.91 3.75 2.38 8.4 2.81 12.75 3.16 9.03-.08 18.07.24 27.11.01 4.51-2.51 5.39-8.01 7.11-12.42 1.83-.75 3.33-2.1 4.78-3.41 3.71-2.69 6.59-6.31 9.72-9.62.85-.83 1.59-1.77 2.38-2.67 30.24-.12 60.48.05 90.72-.11.38 1.82 1.48 3.4 2.7 4.79-3.05 6.02-7.84 12.09-6.41 19.27 2.08 4.47 7.58 5.56 11.92 6.72 9.44 1.94 19.52 4.34 28.99 1.37.45-1.36 1.48-2.86.18-4.08-4.25-4.34-10-7.29-16.06-8.08-.76-.74-1.5-1.48-2.23-2.2.21-1.56.68-3.05 1.26-4.5 9.38-.41 16.37-7.79 23.43-13.15l.02-.28c10.34-8.71 20.08-18.19 29.04-28.31 1.5-.69 2.47-2.27 3.29-3.66 1.87-1.8 3.76-3.61 5.23-5.76 7.42-8.11 14.35-16.77 19.96-26.25 8.4 5.51 17.06 10.87 24.1 18.12 5.88 6.87 11.15 14.92 11.96 24.17.27 2.28 4.18 1.65 3.31-.9-1.44-10.9-7.77-20.5-15.44-28.11-6.77-6.21-14.46-11.28-22.14-16.26 3.01-4.66 4.49-10.11 5.07-15.58.33-4.28-.84-8.47-1.11-12.71l-.31.05c-.88-4.49-2.09-8.95-4.24-13-.31-1.38-.98-2.63-1.52-3.9l-.24-.01c-3.23-6.41-6.99-12.61-11.48-18.21-1.9-3.6-4.43-6.91-7.1-9.98l-.18-.25c-.22-.47-.66-1.41-.89-1.88l-.33-.2c-1.27-2.26-2.63-4.48-4.26-6.49-.13-.9-.61-1.69-.95-2.48-.45-.57-1.35-1.7-1.79-2.26 1.2-.5 2.29-1.24 3.42-1.92.15-1.94.42-3.86.66-5.77 1 2.96 2.4 5.76 3.61 8.65l.11-.05c2.13 4.7 4.91 9.18 8.61 12.82l.16.41c5.62 5.98 13.69 9.76 21.94 9.81 3.69-.1 8.02-1.6 8.87-5.67.85-7.42-2.52-14.43-5.39-21.05 8.05.51 16.89-1.92 22.07-8.46 5.7-6.73 7.19-15.79 7.69-24.32.72-6.14.7-12.34-.01-18.49-.61-12.92-1.59-26.41-8.03-37.94-7.22-12.89-15.65-25.48-27.12-34.97 1.67-3.05 2.36-6.47 3.25-9.8 1.29-1.01 2.82-1.62 4.33-2.24 5.2-2.97 10.17-6.54 14.06-11.14 3.16-3.95 5.41-9.25 3.88-14.32-1.92-5.6-6.89-9.43-12.14-11.71-4.33-1.84-8.18-4.55-11.89-7.4-2.13-1.82-5.06-1.32-7.61-1.25-1.9.08-3.1 2.21-5.04 2-2.71-.83-5.3-2.11-8.16-2.18-5.37 3.94-3.03 12.5 1.37 16.38-1.81 6.18-4.2 12.32-4.25 18.86l2.21-1.28c-4.14 3.44-2.76 10.11-.02 14.06l-.21 1.55c-16.66-6.42-35.21-6.84-52.53-2.96-.3-3.21 1.24-6.17 1.5-9.32.28-3.69.41-7.44-.13-11.12-1.84-8.65-7.4-16.07-14.08-21.68-7.45-6.13-16.1-11.07-25.6-13.11-10.72-2.51-21.84-1.01-32.44 1.33-11.36 2.51-23.81 2.78-34.34-2.81-19.79-10.01-40.21-20.8-62.83-21.93 35.03-23.54 69.94-47.6 101.27-76.01 12.02-11.33 24.15-22.8 33.53-36.49 4.97-7.56 9.15-16.13 9.32-25.34.06-10.14-7.84-18.84-16.89-22.33-12.34-6.4-27.34-6.34-40.39-2.25-3.1.19-5.89 1.79-8.77 2.82l-.06.23c-7.44 3.24-14.53 7.35-21.02 12.23l-.3-.03c-10.31 7.39-19.6 16.08-28.7 24.9-16.36 16.1-31.72 33.18-46.92 50.37 9.43-23.29 20.78-46.38 23.91-71.62 1.1-9.32 1.56-19.64-3.73-27.86-4.41-7.01-12.86-10.1-20.79-10.68-10.09-1.29-19.97 3.25-27.66 9.48m-63.04 1.06c-3.76 1.01-4.9 5.29-5.28 8.69-.62 7.42 0 14.95 1.61 22.23 1.18 4.95 2.76 10.1 6.38 13.85.65 1.16 2.78 1.65 3.06-.1 4.25-11.12 4.85-23.41 3.34-35.12-.52-4.56-3.92-10.18-9.11-9.55m-210.84 75.91c-17.56 1.47-35.07 4.28-52.32 8.02-23.01 5-45.74 11.48-67.69 20.03l-.31.33c-7.45 2.63-14.8 5.63-21.81 9.27-1.59.29-2.98 1.14-4.42 1.82l-.72.45c-1.03.54-2.03 1.09-3.02 1.66-3.68 1.73-7.29 3.65-10.66 5.92-3.06.77-5.52 2.97-8.22 4.5l-.21.29c-3.4 1.89-6.65 4.05-9.71 6.47-.28.08-.84.23-1.13.31l.27.52c-1.5.1-2.32.83-2.47 2.16-.42.01-1.27.02-1.7.03l.15.89c-1.49.25-2.95 1.41-3.49 2.82l-.74-.16c-.27.36-.81 1.07-1.08 1.42-1.91 1.04-3.4 2.67-4.85 4.24-.32.17-.94.53-1.25.7-2.31 1.92-4.48 4-6.63 6.09l-.6.21-.02.2c-1.84 1.6-3.44 5.12-.5 6.53 5.86.89 10.6-3.67 15.34-6.39l.3-.01c.64-.4 1.27-.81 1.91-1.21.57-.41 1.7-1.23 2.26-1.64l.46.31c.8-.64 1.6-1.28 2.4-1.92 6.1-3.24 11.86-7.12 17.79-10.66 7.54-3.88 14.69-8.49 22.39-12.08l.71-.48c1.06-.49 2.13-.97 3.21-1.45l.75-.4c1.77-.83 3.54-1.68 5.22-2.68 2.96-1.11 5.83-2.48 8.59-4.03.65-.07 1.31-.16 1.98-.25v-.38c10.6-4.48 21.45-8.33 32.33-12.08.27.02.81.07 1.08.09l-.21-.25.81-.26c1.7-.46 3.41-.92 5.13-1.35l-.1-.29c10.01-2.87 20.12-5.38 30.22-7.87 1.02.1 2.06-.19 3.08-.36 13.53-2.97 27.26-4.84 40.98-6.72 2.24-.32 4.49-.53 6.76-.78 1.14.22 2.3-.17 3.44-.35 5.14-.48 10.31-.46 15.45-.99 5.16-.49 6.42-8.77 2.13-11.19-7.08-.7-14.19.82-21.28.95m-315.13 31.38c.77 12.7 3.25 25.82 10.48 36.56 1.41 2.63 4.97 3.58 5.55 6.69 6.71 23.8 6.03 49.63-2.32 72.94 2.84-1.97 3.01-5.77 4.2-8.76 4.37-13.54 4.37-27.92 3.81-41.99-.86-8.42-2.49-16.77-4.96-24.88.69-1.97 1.29-4.04 1-6.15-.93-8.85-4.81-17.1-9.73-24.41-2.41-3.53-4.65-7.3-8.03-10m719.73 24.4c-5.75 3.4-9.8 9.11-12.41 15.16-4.06 7.58-6.91 15.78-8.46 24.23 1.57-.33 3.03-1.03 4.35-1.97l.35.19c8.5-6.29 16.83-13.18 22.88-21.95 2.8-4.02 4.99-9.77 2.01-14.27-1.76-2.99-6.03-3.08-8.72-1.39m-686.88 31.18c-4.11 2.48-7.38 6.79-7.38 11.74-1.32 1.18-2.63 2.4-3.5 3.98 1.38-.7 2.74-1.46 4.07-2.25 10.49-.43 18.07-9.63 21.93-18.63-5.49-.21-10.57 2.36-15.12 5.16m688.94 8.45c-3.41 1.66-6.8 3.53-9.44 6.29 1.07.3 2.22.63 3.34.92 10.98 1.55 22.19.96 33.07-1.15 3.66-.8 7.53-1.58 10.61-3.88 2.88-2.09 4.27-6.45 1.97-9.48l.12-.36c-.93-.54-1.83-1.07-2.74-1.6-12.97-2.23-25.56 3.71-36.93 9.26m-774.38-4.3c6.31 8.65 15.23 15.04 24.65 19.94l1.02-.34c1.42.47 3.36 1.05 4.62-.11.07-.56.2-1.67.27-2.22-1.11-3.96-4.02-7.11-7.21-9.55-7.27-5.45-16.03-8.44-24.81-10.43.34.98.79 1.91 1.46 2.71m43.55 2.13c-1.26 7.4-2.08 15.12-.47 22.53.53 3.37 2.97 5.84 4.99 8.41.55 1.89.13 3.92.18 5.87-5.07-6.46-10.14-13.17-16.74-18.14 1.13 2.86 3.47 4.92 5.5 7.12 4.54 4.71 8.57 9.89 12.47 15.13-4.72-1.25-9.46-2.39-14.22-3.47-1.2-.18-2.13-.99-3.07-1.67-4.12-3.33-9.23-5.11-14.21-6.7-7.2-2.36-14.83-1.35-22.24-1.45.66 1.8 2.42 2.71 3.9 3.76 5.29 3.54 10.6 7.19 16.61 9.4 5.64 2.15 12.22 3.09 17.91.67.1-.73.32-2.2.42-2.94 5.06 1.25 10.12 2.57 15.29 3.33 2.08 1.61 3.56 3.84 5.21 5.87 10.51 13.23 19.99 27.31 27.93 42.23 1.24 2.16 1.96 4.9 4.43 6.05-1.25-3.41-3.02-6.59-4.76-9.77-8.96-16.42-19.79-31.78-31.76-46.14-2.14-2.18-1.41-5.41-1.57-8.16 5.07-1.2 5.31-7.22 4.86-11.45-1.3-7.7-5.16-14.97-10.66-20.48m-168.97 141.83c-1.56 3.92-.01 8.49 3.73 10.49l.1.23c.27.14.83.4 1.11.54 8.06 3.46 17.07 3.73 25.71 3.46-1-1.4-1.95-2.85-3.14-4.09-4.59-5.54-10.77-9.74-17.44-12.35-3.34-.95-7.73-1.45-10.07 1.72z" fill="#fff"/><path d="m683.83 334.31c7.23-2.29 14.79-3.27 22.07-5.4.91 1.69 1.69 3.45 2.33 5.27-4.81 1.25-9.76 1.94-14.51 3.46l-.98.23c1.02 2.24 2.04 4.47 3.07 6.71 4.18-1.35 8.56-1.97 12.67-3.49.94 1.7 1.79 3.45 2.66 5.2-4.27 1.2-8.62 2.03-12.91 3.14.13 2.71 2.08 5.21 2.88 7.85 1.08-.35 2.16-.69 3.26-1 1.84-.44 3.69-.9 5.54-1.38.55-.12 1.65-.34 2.2-.46.4-.07 1.21-.22 1.62-.3.76-.06 2.29-.2 3.05-.26.18.55.53 1.65.71 2.2.11.39.33 1.15.44 1.53l.36 1.29c-7.19 2.26-14.72 3.19-21.96 5.28-4.03-10.01-8.54-19.83-12.5-29.87z" fill="#fff"/><path d="m861.98 336.13c5.16-4.27 12.76-2.51 17.76 1.12 3.62 2.61 4.99 7.47 3.68 11.68-2.13-.72-4.24-1.42-6.34-2.16.31-2.74-.17-5.87-3.07-7-3.11-1.91-6.91-.22-8.74 2.62-2.43 3.79-4.55 8.05-4.71 12.63-.25 3.91 3.87 6.77 7.53 6.15 2.92-.04 3.61-3.55 4.71-5.61-1.91-.83-3.88-1.47-5.89-1.94.7-1.56 1.42-3.1 2.19-4.63 3.78 1.67 7.99 2.3 11.6 4.34l.24.65c-1.56 3.81-3.2 7.78-5.96 10.89-4.17 3.67-10.1 1.78-14.55-.28-4.74-2.06-8.37-7.36-6.98-12.61 1.48-5.82 3.81-11.88 8.53-15.85z" fill="#fff"/><path d="m659.75 340.8c4.67-2.08 10.2-3.95 15.17-1.72 2.84 1.09 4.55 3.73 5.93 6.29-2.07.45-4.14.91-6.18 1.44-.94-.97-1.86-1.93-2.78-2.89-4.08-.93-9.03.39-10 5 1.29 4.93 3.04 9.88 6.26 13.9 3.11 3.26 8.33 2.56 11.62-.04.69-1.98-.71-4.05-.96-6.03-1.92.31-3.81.74-5.66 1.28-.74-1.58-1.45-3.18-2.16-4.77 4.18-1.08 8.26-2.63 12.54-3.33.96 3.82 3.06 7.29 3.69 11.2.26 3.49-2.6 6.19-5.62 7.36-5.36 2.25-11.75 2.69-17.14.31-4.98-3.87-7.62-9.95-9.16-15.9-1.13-4.53.89-9.25 4.45-12.1z" fill="#fff"/><path d="m895.44 345.47c3.52-1.16 7.28-.01 10.52 1.49 3.6 1.73 7.12 4.85 7.36 9.12.54 6.48-2.63 12.67-6.67 17.53-3.23 3.76-8.78 4.11-13.26 2.85-4.08-1.36-8.43-3.77-9.74-8.17-1.86-5.33.99-10.72 3.49-15.31 1.75-3.39 4.51-6.44 8.3-7.51m1.98 5.95c-3.93 3.05-5.78 8.05-7.26 12.64-1.8 5.66 6.75 10.2 10.57 5.67 2.87-3.62 5.27-8.02 5.64-12.69.49-4.55-5.12-7.76-8.95-5.62z" fill="#fff"/><path d="m631.97 351.35c2.28-.94 4.58-1.83 6.97-2.48 2.29 3.23 5.35 5.81 7.95 8.78 1.6 1.84 3.28 3.61 4.96 5.39 3.34 3.79 6.92 7.35 10.5 10.92-2.03.74-4.06 1.47-6.05 2.27-.58-.1-1.72-.29-2.29-.38-1.27-1.54-2.59-3.04-3.91-4.53-3.1 1.26-6.2 2.5-9.29 3.77.07 1.35.16 2.71.26 4.08.06.67.18 2.01.24 2.68-2.25.99-4.5 1.94-6.77 2.85-.57-11.14-2.04-22.21-2.57-33.35m6.42 6.29c.52 3.85 1.25 7.68 1.66 11.56 2.1-.76 4.21-1.54 6.27-2.42-2.95-2.79-4.92-6.44-7.93-9.14z" fill="#fff"/><path d="m928.21 357.23c4.44.4 9 2.07 12.11 5.39 3.8 3.89 3.31 10.21 1.06 14.78-2.32 4.66-5.11 9.88-10.33 11.73-4.39 1.95-9.21-.12-13.06-2.33-4.64-2.66-7.28-8.69-4.99-13.74 2.56-6.9 6.89-15.28 15.21-15.83m.03 5.86c-3.22 1.42-4.96 4.67-6.57 7.61-1.62 3.05-3.28 6.78-1.57 10.16 1.49 2.23 4.19 3.79 6.93 3.11 2.98-1.1 4.83-3.93 6.36-6.55 1.87-3.33 3.78-7.23 2.42-11.1-1.55-2.51-4.67-3.95-7.57-3.23z" fill="#fff"/><path d="m596.42 368.32c5.49-3.09 11.14-6.64 17.57-7.18 6.12.14 10.46 6.4 9.04 12.25-.69 1.03-1.36 2.08-2.02 3.14 1.64 1 3.29 2.02 4.92 3.07 2.69 1.82 5.25 3.83 7.77 5.89-2.33.89-4.59 1.92-6.8 3.06-3.25-2.44-6.63-4.69-9.83-7.18-.51-.11-1.53-.33-2.04-.44-1.14.43-2.29.84-3.43 1.26 1.4 3.99 3.62 7.62 5.26 11.51-.48.23-1.43.69-1.91.91-.98.44-1.95.89-2.91 1.35-.4.06-1.2.18-1.6.24-4.46-9.4-9.28-18.62-14.02-27.88m8.43 1.5c1.56 2.65 2.97 5.39 4.36 8.14 2.27-1.34 4.94-2.18 6.74-4.2.67-1.46.18-3.1.18-4.62-3.07-4.01-7.91-1.33-11.28.68z" fill="#fff"/><path d="m941.8 384.76c3.53-5.35 6.36-11.14 10.13-16.34 5.26 3.46 11.75 5.89 15.02 11.64 2.22 4.19 1.01 9.48-1.71 13.17-3.41 5.03-8.76 9.57-15.15 9.44-5.39-.86-9.82-4.31-14.4-7.01 1.19-4.05 4.15-7.22 6.11-10.9m13.46-8.86c-3.68 6.42-8.03 12.44-11.64 18.91 2.66 2.03 6.48 3.62 9.56 1.45 4.87-3.71 8.95-9.64 7.91-16.04-1.78-1.66-3.75-3.09-5.83-4.32z" fill="#fff"/><path d="m572.81 380.6c6.23-3.17 12.11-6.99 18.55-9.73.87 1.51 1.77 3.01 2.68 4.52-4.3 2.24-8.52 4.64-12.81 6.91 1.08 2.03 2.12 4.09 3.07 6.2 4.26-1.56 7.94-4.34 12.26-5.73.85 1.59 1.71 3.18 2.59 4.76-3.91 1.82-7.65 3.97-11.58 5.75 1.15 2.56 2.57 5 4.03 7.41 4.71-2.18 9.1-5.03 13.95-6.89.87 1.47 1.73 2.95 2.61 4.42-.74.58-1.5 1.14-2.26 1.69-5.82 3.23-11.96 5.84-17.73 9.14-.61-1.06-1.19-2.12-1.78-3.18l-.41-.72c-4.37-8.19-9.53-15.99-13.17-24.55z" fill="#fff"/><path d="m562.83 387.39c2.04-1.13 4.05-2.32 6.06-3.5 3.18 10.61 4.86 21.61 8.23 32.16-2.1 1.3-4.22 2.58-6.32 3.88-9.18-7.32-18.78-14.09-27.92-21.46 2.1-1.14 4.17-2.37 6.2-3.65 5.7 4.44 11.1 9.25 16.71 13.81 1.45 1.19 2.88 2.4 4.34 3.59-2.29-7.67-4.6-15.33-7.01-22.96-.07-.46-.22-1.4-.29-1.87z" fill="#fff"/><path d="m530 408.74c1.92-1.49 3.91-2.89 5.96-4.2 9.42 6.35 18.7 12.92 28.17 19.2-2.27 1.56-4.59 3.05-6.98 4.42-1.69-1.34-3.15-3.24-5.18-3.99-2.82 1.74-5.39 3.88-8.05 5.85.81 2.14 1.52 4.33 2.17 6.53-2 1.47-3.98 2.97-5.92 4.52-3.29-10.81-6.42-21.67-10.17-32.33m7.67 3.91c1.21 3.95 2.65 7.85 4.38 11.62 1.94-1.06 3.74-2.35 5.45-3.74-3.44-2.42-6.49-5.33-9.83-7.88z" fill="#fff"/><path d="m1273.34 423.55c.25-.02.76-.05 1.01-.06l-1.09 2.16c-.73.53-1.47 1.03-2.22 1.48-.49-.91-.94-1.82-1.34-2.75 1.19-.28 2.41-.55 3.64-.83z"/><path d="m1136.63 506.11c9.8-.21 19.87-.3 29.28-3.36-4.16 6.43-8.41 12.86-11.76 19.76-3.49-.92-6.98-1.79-10.44-2.78l-.58-1.15c-1.95-4.27-4.25-8.36-6.5-12.47z" fill="#fff"/><path d="m1145.97 524.66c1.74.43 3.51.86 5.27 1.3-.29.5-.88 1.48-1.18 1.97-.61-.1-1.84-.3-2.45-.4-.55-.97-1.09-1.93-1.64-2.87z" fill="#fff"/><path d="m1270.37 530.79c1.63 2.39 2 5.31 2.69 8.06-1.28-.02-2.54-.04-3.79-.05.89-2.58.96-5.32 1.1-8.01z" fill="#fff"/><path d="m445.21 554.62c2.34-4.22 7.31-6.92 12.05-5.07 4.88 1.58 8.86 6.64 7.39 11.93 4.49-1.9 9.33-2.72 14.18-3.03l-.78 1.51c-1.1 2.01-2.13 4.06-3.18 6.09-1.26-.02-2.5-.04-3.75-.05-3-.15-5.95.43-8.84 1.15-.34 1.14-2.03 2.26-1.23 3.51 3.07 1.15 6.15 2.29 9.14 3.68-.78 1.97-1.67 3.91-2.64 5.81-1.15-.61-2.34-1.15-3.54-1.61-2.02-.86-4.07-1.65-6.12-2.43-6.34-2.39-12.5-5.42-19.07-7.13.2-1.36.37-2.76 1.04-3.98 1.21-2.21 2.35-4.46 3.39-6.75.61-1.24 1.25-2.46 1.96-3.63m1.96 10.08c2.74 1.1 5.47 2.22 8.13 3.5 1.84-3.03 3.53-6.44 2.83-10.09-.82-.73-1.62-1.45-2.41-2.19-5.36-1.04-6.21 5.48-8.55 8.78z" fill="#fff"/><path d="m432.82 581.81c2.26-2.87 5.23-5.67 9.09-5.85 6.48-.32 12.77 2.39 18 6.04 6.49 6.64 2.94 19.16-5.3 22.62-5.6 1.55-11.5-.06-16.59-2.5-3.32-1.55-6.17-4.14-7.85-7.41-.4-3.2-.21-6.44.91-9.47.54-1.17 1.12-2.32 1.74-3.43m6.63 12.81c4.32 2.29 9.47 4.84 14.43 3.33 3.15-2.77 4.66-9.07.1-11.27-.72-.42-1.45-.8-2.16-1.17-2.56-1.04-5.13-2.12-7.86-2.56-6.13-1.77-10.42 8.95-4.51 11.67z" fill="#fff"/><path d="m422.04 611.55c2.23-2.73 5.17-5.29 8.85-5.58 5.19-.6 10.07 1.54 14.84 3.24.22.11.65.33.87.44 3.2 2.13 5.93 5.35 6.37 9.3.43 3.93-1.3 7.6-2.95 11.05-2.52 3.39-6.59 6.01-10.95 5.55-6.54-.98-13.34-2.87-18.16-7.65-1.76-2.93-2.18-6.33-1.73-9.68.2-.55.61-1.65.81-2.2.45-1 .89-1.99 1.32-2.98.18-.37.55-1.12.73-1.49m7.38 1.68c-2.98 1.98-4.43 6.05-3.32 9.47 2.25 2.87 6.02 3.73 9.3 4.87l-.09.25c2.74.33 5.88 1.88 8.39.02 2-1.8 2.66-4.69 2.57-7.29.03-3.8-4.37-5.32-7.42-6.01-2.97-.97-6.32-2.47-9.43-1.31z" fill="#fff"/><path d="m1187.89 615.42c7.24 6.63 14.47 13.41 20.33 21.32 4.02 5.27 3.74 12.7 1.02 18.49-2.79 6-6.42 11.57-9.78 17.26-.87-10.98-2.95-21.82-5.28-32.57-1.82-8.23-3.62-16.5-6.29-24.5z" fill="#fff"/><path d="m414.4 641.42c3.71-6.66 13.89-5.39 18.03.1 3.34 4.63.92 10.62-.61 15.49 3.38 1.24 7.27 1.27 10.41 2.98 0 .55.01 1.64.01 2.19-.45 1.32-.88 2.64-1.3 3.98-.63-.13-1.9-.39-2.54-.53-9.8-2.44-19.59-4.94-29.48-6.98 1.58-5.81 2.68-11.87 5.48-17.23m2.52 12.16c3.13.59 6.26 1.25 9.25 2.37.73-3.19 2.91-6.87.81-9.96-1.17-2.21-3.86-2.07-5.99-2.14-2.65 2.55-3.46 6.23-4.07 9.73z" fill="#fff"/><path d="m990.28 192.2c7.69-6.23 17.57-10.77 27.66-9.48 7.93.58 16.38 3.67 20.79 10.68 5.29 8.22 4.83 18.54 3.73 27.86-3.13 25.24-14.48 48.33-23.91 71.62-7.99 11.83-16.55 23.28-24.38 35.22-5.45 7.71-10.51 15.68-15.99 23.35-16.58-9.58-33.69-18.24-51.47-25.38 7.53-30.08 17.53-59.62 30.61-87.77 8.17-17.09 18.24-33.85 32.96-46.1z" fill="#dcebdd"/><path d="m926.29 195.14c3.47-.57 6.75 1.4 7.7 4.83 2.82 12.1 1.81 25.06-2.34 36.73-1.52.13-2.03-1.58-2.76-2.58-3.96-7.41-4.97-15.93-5.57-24.18 0-5-.52-10.73 2.97-14.8z" fill="#dcebdd"/><path d="m401.27 300.55c3.38 2.7 5.62 6.47 8.03 10 4.92 7.31 8.8 15.56 9.73 24.41.29 2.11-.31 4.18-1 6.15 2.47 8.11 4.1 16.46 4.96 24.88.56 14.07.56 28.45-3.81 41.99-1.19 2.99-1.36 6.79-4.2 8.76 8.35-23.31 9.03-49.14 2.32-72.94-.58-3.11-4.14-4.06-5.55-6.69-7.23-10.74-9.71-23.86-10.48-36.56z" fill="#dcebdd"/><path d="m1121 324.95c2.69-1.69 6.96-1.6 8.72 1.39 2.98 4.5.79 10.25-2.01 14.27-6.05 8.77-14.38 15.66-22.88 21.95l-.35-.19c-.52-.28-1.54-.84-2.06-1.12 1.11-5.18 2.86-10.22 5.04-15.05.79-1.92 1.86-3.97 1.13-6.09 2.61-6.05 6.66-11.76 12.41-15.16z" fill="#dcebdd"/><path d="m434.12 356.13c4.55-2.8 9.63-5.37 15.12-5.16-3.86 9-11.44 18.2-21.93 18.63-1.33.79-2.69 1.55-4.07 2.25.87-1.58 2.18-2.8 3.5-3.98 0-4.95 3.27-9.26 7.38-11.74z" fill="#dcebdd"/><path d="m1159.99 355.32c.91.53 1.81 1.06 2.74 1.6l-.12.36c-1.45 2.83-.2 7.1-3.69 8.61-7.93 4.05-17.17 4.53-25.91 4.83-5.34.35-11.01-1.18-16.05 1.07-1.12-.29-2.27-.62-3.34-.92 2.64-2.76 6.03-4.63 9.44-6.29.46.12 1.4.35 1.87.47 8.74-3.55 17.47-7.82 27.05-8.52 2.68-.22 5.52.05 8.01-1.21z" fill="#dcebdd"/><path d="m348.68 360.28c-.67-.8-1.12-1.73-1.46-2.71 8.78 1.99 17.54 4.98 24.81 10.43 3.19 2.44 6.1 5.59 7.21 9.55-1.61.82-3.18 1.74-4.89 2.33l-1.02.34c-9.42-4.9-18.34-11.29-24.65-19.94z" fill="#dcebdd"/><path d="m392.23 362.41c5.5 5.51 9.36 12.78 10.66 20.48.45 4.23.21 10.25-4.86 11.45.16 2.75-.57 5.98 1.57 8.16 11.97 14.36 22.8 29.72 31.76 46.14 1.74 3.18 3.51 6.36 4.76 9.77-2.47-1.15-3.19-3.89-4.43-6.05-7.94-14.92-17.42-29-27.93-42.23-1.65-2.03-3.13-4.26-5.21-5.87-5.17-.76-10.23-2.08-15.29-3.33-.1.74-.32 2.21-.42 2.94-5.69 2.42-12.27 1.48-17.91-.67-6.01-2.21-11.32-5.86-16.61-9.4-1.48-1.05-3.24-1.96-3.9-3.76 7.41.1 15.04-.91 22.24 1.45 4.98 1.59 10.09 3.37 14.21 6.7.94.68 1.87 1.49 3.07 1.67 4.76 1.08 9.5 2.22 14.22 3.47-3.9-5.24-7.93-10.42-12.47-15.13-2.03-2.2-4.37-4.26-5.5-7.12 6.6 4.97 11.67 11.68 16.74 18.14-.05-1.95.37-3.98-.18-5.87-2.02-2.57-4.46-5.04-4.99-8.41-1.61-7.41-.79-15.13.47-22.53z" fill="#dcebdd"/><path d="m1017.54 377.66c6.53-4.47 13.19-8.75 19.94-12.88 22.62 1.13 43.04 11.92 62.83 21.93 10.53 5.59 22.98 5.32 34.34 2.81 10.6-2.34 21.72-3.84 32.44-1.33 9.5 2.04 18.15 6.98 25.6 13.11 6.68 5.61 12.24 13.03 14.08 21.68.54 3.68.41 7.43.13 11.12-.26 3.15-1.8 6.11-1.5 9.32-21.02 3.65-40.44 12.82-60.38 19.94-4.2-.94-8.05-2.87-12.01-4.45-10.09-4.04-20.37-7.69-29.93-12.93-4.14-2.39-8.98-3.78-12.41-7.24 18.87-4.7 37.83-9.06 57.06-12.07 14.71-2.46 29.51-4.39 44.22-6.87 2.01-.34 4.12-.87 5.44-2.57-20.17 2.28-40.29 5.16-60.32 8.53-18.14 2.73-35.84 7.65-53.65 11.96-10.93-12.44-22.86-23.98-35.08-35.13 3.52-4.41 5.97-9.53 8.99-14.28 1.36-2.11 2.36-4.43 3.05-6.84-3.08 2.04-4.51 5.52-6.44 8.5-2.37 3.72-5.07 7.23-7.18 11.11-9.64-7.93-19.12-16.07-29.22-23.42z" fill="#dcebdd"/><path d="m254.27 429.3c10.21-3.46 21.57-3.09 31.72.4-.63.09-1.89.26-2.52.35 5.07 2.31 10.51 3.63 15.59 5.9 14.16 6.21 27.74 13.75 40.41 22.61 1.82 1.41 3.99 2.24 6.27 2.55.8.16 1.53.5 2.19 1 14.7 10.46 29.08 21.42 42.44 33.56 3.97 3.88 8.61 7.07 12.06 11.47-10.44 17.12-19.84 34.91-27.87 53.29l-.92 1.43c-17.35-14.05-37.36-24.25-56.5-35.58l1.46-.55c-4.24-3.07-9.08-5.11-13.57-7.75-7.43-4.28-14.98-8.37-22.28-12.87-2.24-1.31-4.44-3.24-7.2-2.96-1.49.03-2.59-1.22-3.82-1.86-11.71-8.01-23.85-16.1-32.53-27.52-3.01-3.83-5.02-8.31-6.4-12.96l.57-.97c1.32-1.7 1.19-4.03-.04-5.72l-.52-.95c2.64-10.69 11.21-19.23 21.46-22.87m13.64 25.29c-.22.6-.66 1.81-.87 2.42 6.6 3.13 13.33 6.01 19.92 9.19 8.2 4.8 16.64 9.18 24.76 14.13 24.85 15.29 49.27 31.55 71.19 50.89 1.39 1.06 3.12 2.62 4.76.98-4.88-5.81-11.23-10.05-16.92-14.98-26.67-21.21-55.6-39.47-85.68-55.44-5.64-2.55-10.97-6.13-17.16-7.19z" fill="#dcebdd"/><path d="m1086.29 441.08c5.38 1.22 9.87 4.54 14.7 7.01 2.07 1.19 4.36 2.18 6.02 3.96 1.21 5.34.58 10.89.68 16.32-6.62-9.48-14.02-18.39-21.4-27.29z" fill="#dcebdd"/><path d="m1110.39 452.97c9.59 4.05 19.46 7.43 28.93 11.75-9.9 2.57-19.84 5.02-29.73 7.64l.1-.82c1.27-6.12.56-12.38.7-18.57z" fill="#dcebdd"/><path d="m223.26 504.24c2.34-3.17 6.73-2.67 10.07-1.72 6.67 2.61 12.85 6.81 17.44 12.35l-1.13-.25c.32 1.08.65 2.16.99 3.25-5.85-.55-11.75-.93-17.47-2.34-1.63-.3-3.41-1.08-4.96-.03-.28-.14-.84-.4-1.11-.54l-.1-.23c-1.56-3.38-2.69-6.93-3.73-10.49z" fill="#dcebdd"/><path d="m927.24 193.26c5.19-.63 8.59 4.99 9.11 9.55 1.51 11.71.91 24-3.34 35.12-.28 1.75-2.41 1.26-3.06.1-3.62-3.75-5.2-8.9-6.38-13.85-1.61-7.28-2.23-14.81-1.61-22.23.38-3.4 1.52-7.68 5.28-8.69m-.95 1.88c-3.49 4.07-2.97 9.8-2.97 14.8.6 8.25 1.61 16.77 5.57 24.18.73 1 1.24 2.71 2.76 2.58 4.15-11.67 5.16-24.63 2.34-36.73-.95-3.43-4.23-5.4-7.7-4.83z" fill="#88b2b0"/><path d="m1108.59 340.11c.73 2.12-.34 4.17-1.13 6.09-2.18 4.83-3.93 9.87-5.04 15.05.52.28 1.54.84 2.06 1.12-1.32.94-2.78 1.64-4.35 1.97 1.55-8.45 4.4-16.65 8.46-24.23z" fill="#dcebdd"/><path d="m1123.06 364.58c11.37-5.55 23.96-11.49 36.93-9.26-2.49 1.26-5.33.99-8.01 1.21-9.58.7-18.31 4.97-27.05 8.52-.47-.12-1.41-.35-1.87-.47z" fill="#dcebdd"/><path d="m1158.92 365.89c3.49-1.51 2.24-5.78 3.69-8.61 2.3 3.03.91 7.39-1.97 9.48-3.08 2.3-6.95 3.08-10.61 3.88-10.88 2.11-22.09 2.7-33.07 1.15 5.04-2.25 10.71-.72 16.05-1.07 8.74-.3 17.98-.78 25.91-4.83z" fill="#dcebdd"/><path d="m374.35 379.88c1.71-.59 3.28-1.51 4.89-2.33-.07.55-.2 1.66-.27 2.22-1.26 1.16-3.2.58-4.62.11z" fill="#88b2b0"/><path d="m1053.94 389.97c1.93-2.98 3.36-6.46 6.44-8.5-.69 2.41-1.69 4.73-3.05 6.84-3.02 4.75-5.47 9.87-8.99 14.28-.4-.38-1.18-1.13-1.58-1.51 2.11-3.88 4.81-7.39 7.18-11.11z" fill="#88b2b0"/><path d="m1137.07 425.76c20.03-3.37 40.15-6.25 60.32-8.53-1.32 1.7-3.43 2.23-5.44 2.57-14.71 2.48-29.51 4.41-44.22 6.87-19.23 3.01-38.19 7.37-57.06 12.07 3.43 3.46 8.27 4.85 12.41 7.24 9.56 5.24 19.84 8.89 29.93 12.93 3.96 1.58 7.81 3.51 12.01 4.45-1.9.48-3.82.88-5.7 1.36-9.47-4.32-19.34-7.7-28.93-11.75-.14 6.19.57 12.45-.7 18.57-.66-1.07-1.33-2.13-2-3.17-.1-5.43.53-10.98-.68-16.32-1.66-1.78-3.95-2.77-6.02-3.96-4.83-2.47-9.32-5.79-14.7-7.01-.95-1.13-1.93-2.25-2.87-3.36 17.81-4.31 35.51-9.23 53.65-11.96z" fill="#88b2b0"/><path d="m283.47 430.05c.63-.09 1.89-.26 2.52-.35 16.21 4.71 31.15 13 45.49 21.76 4.78 3.17 9.82 6 14.26 9.65-2.28-.31-4.45-1.14-6.27-2.55-12.67-8.86-26.25-16.4-40.41-22.61-5.08-2.27-10.52-3.59-15.59-5.9z" fill="#dcebdd"/><path d="m233.33 453.12c1.23 1.69 1.36 4.02.04 5.72-.87-1.69-.83-4.02-.04-5.72z" fill="#dcebdd"/><path d="m267.91 454.59c6.19 1.06 11.52 4.64 17.16 7.19 30.08 15.97 59.01 34.23 85.68 55.44 5.69 4.93 12.04 9.17 16.92 14.98-1.64 1.64-3.37.08-4.76-.98-21.92-19.34-46.34-35.6-71.19-50.89-8.12-4.95-16.56-9.33-24.76-14.13-6.59-3.18-13.32-6.06-19.92-9.19.21-.61.65-1.82.87-2.42z" fill="#88b2b0"/><path d="m275.55 502.15c2.76-.28 4.96 1.65 7.2 2.96 7.3 4.5 14.85 8.59 22.28 12.87 4.49 2.64 9.33 4.68 13.57 7.75l-1.46.55c-9.33-5.05-18.65-10.14-27.79-15.54-4.66-2.76-9.51-5.26-13.8-8.59z" fill="#dcebdd"/><path d="m223.26 504.24c1.04 3.56 2.17 7.11 3.73 10.49-3.74-2-5.29-6.57-3.73-10.49z" fill="#dcebdd"/><path d="m228.2 515.5c1.55-1.05 3.33-.27 4.96.03 5.72 1.41 11.62 1.79 17.47 2.34-.34-1.09-.67-2.17-.99-3.25l1.13.25c1.19 1.24 2.14 2.69 3.14 4.09-8.64.27-17.65 0-25.71-3.46z" fill="#dcebdd"/><path d="m1127.47 241.53c2.84-2.21 5.49-4.68 8.6-6.53-.4 2.26-1.48 4.36-3.49 5.58-22.67 15.95-44.55 33.15-64.59 52.32-6.22 5.45-12.08 11.32-17.45 17.61-8.76 8.94-17.15 18.26-24.88 28.1-7.74 9.49-15.45 19.03-22.47 29.06 4.78 3.33 9.6 6.61 14.35 9.99 10.1 7.35 19.58 15.49 29.22 23.42.4.38 1.18 1.13 1.58 1.51 12.22 11.15 24.15 22.69 35.08 35.13.94 1.11 1.92 2.23 2.87 3.36 7.38 8.9 14.78 17.81 21.4 27.29.67 1.04 1.34 2.1 2 3.17l-.1.82c-10.91 3.15-22.04 5.62-32.73 9.44.01.52.03 1.55.04 2.06-.49-.39-.97-.79-1.43-1.17-2.27.91-4.58 2.19-7.11 1.92-3.93-.19-7.5-2.32-11.41-2.43-2.53.79-4.24 3.12-6.65 4.2-3.06 1.33-4.87 4.21-7.24 6.4-28.45 4.82-56.71 10.66-85.24 14.98-1.83-.48-3.71-.79-5.56-.4-9.06 1.53-18.11 3.06-27.25 3.94.3.33.9.99 1.21 1.32-.37.04-1.11.12-1.48.15-4.84-1.52-9.78.2-14.63.68-11.05 1.32-22.08 2.83-33.15 3.96.37.31 1.1.94 1.46 1.25-9.27 1.04-18.52 2.25-27.8 3.14-4.15-1.3-8.44-.25-12.63.17-10.69 1.17-21.36 2.59-32.08 3.4.57.31 1.72.94 2.29 1.25-7.22.71-14.42 1.62-21.65 2.2-3.77-1.04-7.69-1.01-11.5-.3l1.35 1.2c-.63.06-1.9.18-2.53.24-.74-1.19-1.77-1.64-3.11-1.35-.11-76.93.04-153.86-.08-230.78l.09-1.48c53.21-.1 106.43 10.25 155.94 29.72 17.78 7.14 34.89 15.8 51.47 25.38 7.91 4.54 15.58 9.49 23.05 14.74 8.52-11.12 16.81-22.43 26.03-33.01 13.19-16.63 28.52-31.37 43.6-46.28 17.92-16.26 36.81-31.46 56.61-45.37m-265.49 94.6c-4.72 3.97-7.05 10.03-8.53 15.85-1.39 5.25 2.24 10.55 6.98 12.61 4.45 2.06 10.38 3.95 14.55.28 2.76-3.11 4.4-7.08 5.96-10.89l-.24-.65c-3.61-2.04-7.82-2.67-11.6-4.34-.77 1.53-1.49 3.07-2.19 4.63 2.01.47 3.98 1.11 5.89 1.94-1.1 2.06-1.79 5.57-4.71 5.61-3.66.62-7.78-2.24-7.53-6.15.16-4.58 2.28-8.84 4.71-12.63 1.83-2.84 5.63-4.53 8.74-2.62 2.9 1.13 3.38 4.26 3.07 7 2.1.74 4.21 1.44 6.34 2.16 1.31-4.21-.06-9.07-3.68-11.68-5-3.63-12.6-5.39-17.76-1.12m33.46 9.34c-3.79 1.07-6.55 4.12-8.3 7.51-2.5 4.59-5.35 9.98-3.49 15.31 1.31 4.4 5.66 6.81 9.74 8.17 4.48 1.26 10.03.91 13.26-2.85 4.04-4.86 7.21-11.05 6.67-17.53-.24-4.27-3.76-7.39-7.36-9.12-3.24-1.5-7-2.65-10.52-1.49m32.77 11.76c-8.32.55-12.65 8.93-15.21 15.83-2.29 5.05.35 11.08 4.99 13.74 3.85 2.21 8.67 4.28 13.06 2.33 5.22-1.85 8.01-7.07 10.33-11.73 2.25-4.57 2.74-10.89-1.06-14.78-3.11-3.32-7.67-4.99-12.11-5.39m13.59 27.53c-1.96 3.68-4.92 6.85-6.11 10.9 4.58 2.7 9.01 6.15 14.4 7.01 6.39.13 11.74-4.41 15.15-9.44 2.72-3.69 3.93-8.98 1.71-13.17-3.27-5.75-9.76-8.18-15.02-11.64-3.77 5.2-6.6 10.99-10.13 16.34z" fill="#74caa8"/><path d="m897.42 351.42c3.83-2.14 9.44 1.07 8.95 5.62-.37 4.67-2.77 9.07-5.64 12.69-3.82 4.53-12.37-.01-10.57-5.67 1.48-4.59 3.33-9.59 7.26-12.64z" fill="#74caa8"/><path d="m928.24 363.09c2.9-.72 6.02.72 7.57 3.23 1.36 3.87-.55 7.77-2.42 11.1-1.53 2.62-3.38 5.45-6.36 6.55-2.74.68-5.44-.88-6.93-3.11-1.71-3.38-.05-7.11 1.57-10.16 1.61-2.94 3.35-6.19 6.57-7.61z" fill="#74caa8"/><path d="m955.26 375.9c2.08 1.23 4.05 2.66 5.83 4.32 1.04 6.4-3.04 12.33-7.91 16.04-3.08 2.17-6.9.58-9.56-1.45 3.61-6.47 7.96-12.49 11.64-18.91z" fill="#74caa8"/><path d="m953.86 512.5c28.64-4.22 57.04-9.87 85.51-15.05.8 2.83 2.31 5.72 5.25 6.79 4.12 1.29 8.51 1.41 12.72 2.36 3.48.61 6.98 1.82 10.57 1.4 1.72-.8 2.58-2.63 3.65-4.1.36.09 1.08.28 1.44.37-.17.35-.52 1.03-.69 1.37 19.9 5.4 39.68 11.27 59.6 16.59 4.24 1 8.45 3.12 12.92 2.13.28.07.86.22 1.14.3.55.94 1.09 1.9 1.64 2.87.61.1 1.84.3 2.45.4-1.6 2.7-3 5.52-4.46 8.3-3.96 6.95-9 13.22-13.37 19.92-23.32 35.31-44.54 71.94-65.05 108.93-9.11 16.97-18.6 33.74-27.14 51-2.58 6.07-6.47 12.03-6.06 18.89-.06.4-.18 1.2-.24 1.6-.75-.68-1.63-.95-2.63-.82-36.07.27-72.16-.12-108.23.23-1.48-24.56-7.35-49.04-19.02-70.81-11.89-22.89-29.36-43.07-51.25-56.89-21.6-14.13-46.94-22.03-72.57-24.25-3.12-.08-6.25-.24-9.31-.8-.1-16.37-.04-32.74.02-49.1 35.19-2.77 70.23-7.22 105.29-11.27 25.99-3.07 51.95-6.38 77.82-10.36z" fill="#74caa8"/><path d="m1101.37 506.03c11.75-.16 23.5.16 35.26.08 2.25 4.11 4.55 8.2 6.5 12.47-13.66-5-28.28-7.08-41.76-12.55z" fill="#74caa8"/><path d="m291.37 550.27c7.75-.66 15.59-.91 23.34-.04-2.54.59-5.14.95-7.75.84-5.2-.17-10.47.46-15.59-.8z" fill="#cfded1"/><path d="m326.76 553.27c.56-.15 1.67-.46 2.23-.62 6.7 1.34 13.33 3.29 19.65 5.92-2.38-.02-4.74-.35-6.96-1.21-4.86-1.77-9.96-2.69-14.92-4.09z" fill="#cfded1"/><path d="m241.64 556.46c10.35.86 20.64-.78 30.74-2.91l1.52 1.04c-11.16 2.02-22.45 4.37-33.86 3.07z" fill="#cfded1"/><path d="m356.81 562.69c-.11-.33-.33-.98-.44-1.3 2.47.88 4.9 1.92 7.15 3.3-2.43.2-4.77-.54-6.71-2z" fill="#cfded1"/><path d="m192.82 569.45c5.13-.45 10.19.62 15.18 1.66 48.96 10.09 97.99 22.95 142.49 46.3.13.59.38 1.78.51 2.37-5.32-2.7-10.79-5.09-16.18-7.64-15.01-7.61-31.08-12.75-46.91-18.3-1.53-.47-3.52-1.34-4.7.28-14 14.2-32.2 24.84-52.18 27.43-4.59.46-9.21.28-13.81.35.11.67.35 2 .47 2.67-4.78-2.4-9.91-4.16-14.27-7.33 12.73 4.32 26.56 3.47 39.27-.48 15.16-4.13 27.93-13.86 39.36-24.29-2.51-1.29-5.16-2.27-7.89-2.96-19.44-5.97-39.37-10.06-59.15-14.72-7.35-1.96-15.26-1.97-22.19-5.34z" fill="#74caa8"/><path d="m1149.33 644.31c9.53-12.94 19.3-25.73 28.31-39.05 3.17 3.62 6.77 6.83 10.25 10.16 2.67 8 4.47 16.27 6.29 24.5 2.33 10.75 4.41 21.59 5.28 32.57-10.14 17.99-21.3 35.48-29.71 54.38-1.36 2.78-1.99 5.84-1.97 8.93-30.24.16-60.48-.01-90.72.11 11.19-12.82 21.78-26.15 32.21-39.59 13.63-17.12 27.02-34.43 40.06-52.01z" fill="#74caa8"/><path d="m220.33 625.37c2.37-.01 4.77.22 6.97 1.17 5.2 2.07 10.67 3.84 15.11 7.37l-1.34.11c-6.58-3.65-13.71-6.05-20.74-8.65z" fill="#cfded1"/><path d="m318.84 693.49c5.63-.49 11.28-1.51 16.94-.89-4.42 1.57-9.18 1.41-13.8 1.66-1.05-.25-2.1-.5-3.14-.77z" fill="#cfded1"/><path d="m285.43 695.26c3.57.35 7.01 1.37 10.49 2.19 4.55 1.07 9.18-.38 13.78.02-7.9 2.7-17.02 2.01-24.27-2.21z" fill="#cfded1"/><path d="m1124.32 202.36c4.62.48 9.06-1.22 13.65-1.34 4.46-.19 8.96-.21 13.4.42 4.55.61 8.7 2.99 13.34 3.17 9.05 3.49 16.95 12.19 16.89 22.33-.17 9.21-4.35 17.78-9.32 25.34-9.38 13.69-21.51 25.16-33.53 36.49-31.33 28.41-66.24 52.47-101.27 76.01-6.75 4.13-13.41 8.41-19.94 12.88-4.75-3.38-9.57-6.66-14.35-9.99 7.02-10.03 14.73-19.57 22.47-29.06 7.73-9.84 16.12-19.16 24.88-28.1 5.37-6.29 11.23-12.16 17.45-17.61 20.04-19.17 41.92-36.37 64.59-52.32 2.01-1.22 3.09-3.32 3.49-5.58-3.11 1.85-5.76 4.32-8.6 6.53-19.8 13.91-38.69 29.11-56.61 45.37-15.08 14.91-30.41 29.65-43.6 46.28-9.22 10.58-17.51 21.89-26.03 33.01-7.47-5.25-15.14-10.2-23.05-14.74 5.48-7.67 10.54-15.64 15.99-23.35 7.83-11.94 16.39-23.39 24.38-35.22 15.2-17.19 30.56-34.27 46.92-50.37 9.1-8.82 18.39-17.51 28.7-24.9l.3.03c.38.03 1.14.09 1.51.12 6.24-3.95 12.51-7.83 19.16-11.07.09-.32.27-.96.35-1.28l.06-.23c2.88-1.03 5.67-2.63 8.77-2.82z" fill="#cfded1"/><path d="m1087.9 504.38c4.45.77 8.98 1 13.47 1.65 13.48 5.47 28.1 7.55 41.76 12.55l.58 1.15c-10.88-2.88-21.71-5.95-32.56-8.94-7.77-2.08-15.37-4.78-23.25-6.41z" fill="#74caa8"/><path d="m1072.31 505.64c.17-.34.52-1.02.69-1.37 23.86 7 47.82 13.61 71.83 20.09-4.47.99-8.68-1.13-12.92-2.13-19.92-5.32-39.7-11.19-59.6-16.59z" fill="#74caa8"/><path d="m952.26 507.36c1.85-.39 3.73-.08 5.56.4-10.49 1.93-21.04 3.5-31.6 4.86-.31-.33-.91-.99-1.21-1.32 9.14-.88 18.19-2.41 27.25-3.94z" fill="#74caa8"/><path d="m910.11 513.45c4.85-.48 9.79-2.2 14.63-.68-15.39 2.31-30.86 4.04-46.32 5.89-.36-.31-1.09-.94-1.46-1.25 11.07-1.13 22.1-2.64 33.15-3.96z" fill="#74caa8"/><path d="m837.99 521.97c4.19-.42 8.48-1.47 12.63-.17-14.13 1.7-28.27 3.3-42.42 4.82-.57-.31-1.72-.94-2.29-1.25 10.72-.81 21.39-2.23 32.08-3.4z" fill="#74caa8"/><path d="m775.05 528.52c3.81-.71 7.73-.74 11.5.3-3.4.19-6.77.58-10.15.9z" fill="#ced787"/><path d="m770.45 530.07c.08-.36.23-1.09.31-1.46 1.34-.29 2.37.16 3.11 1.35-1.15.12-2.29.16-3.42.11z" fill="#ced787"/><path d="m1205.12 539.7c.46.1 1.38.3 1.85.4-.54.1-1.62.29-2.16.39z" fill="#ced787"/><path d="m180.97 563c3.76-7.94 12.77-11.77 21.07-12.63 13.65-1.57 26.5 4.63 39.91 5.85l-.31.24c-.4.3-1.2.9-1.6 1.2 11.41 1.3 22.7-1.05 33.86-3.07-.38-.26-1.14-.78-1.52-1.04l-.33-.22c6.41-1.15 12.82-2.69 19.32-3.06 5.12 1.26 10.39.63 15.59.8 2.61.11 5.21-.25 7.75-.84 4.81.06 9.61 1.24 14.28 2.42-.56.16-1.67.47-2.23.62 4.96 1.4 10.06 2.32 14.92 4.09 2.22.86 4.58 1.19 6.96 1.21 2.68.4 5.13 1.64 7.65 2.58l.08.24c.11.32.33.97.44 1.3 1.94 1.46 4.28 2.2 6.71 2 2.8.43 5.16 2.27 7.6 3.61-17.04 39.61-28.85 81.56-33.99 124.41-.34-.03-1.01-.08-1.35-.11-5.66-.62-11.31.4-16.94.89 1.04.27 2.09.52 3.14.77-4.14.9-8.14 2.38-12.28 3.21-4.6-.4-9.23 1.05-13.78-.02-3.48-.82-6.92-1.84-10.49-2.19-2.44-.87-4.36-2.76-6.29-4.42-9.19-8.62-14.67-20.25-19.15-31.82-3.91-9.88-10.62-18.43-18.92-25l1.34-.11c-4.44-3.53-9.91-5.3-15.11-7.37-2.2-.95-4.6-1.18-6.97-1.17-.93-.09-1.77-.53-2.64-.8-.12-.67-.36-2-.47-2.67 4.6-.07 9.22.11 13.81-.35 19.98-2.59 38.18-13.23 52.18-27.43 1.18-1.62 3.17-.75 4.7-.28 15.83 5.55 31.9 10.69 46.91 18.3 5.39 2.55 10.86 4.94 16.18 7.64-.13-.59-.38-1.78-.51-2.37-44.5-23.35-93.53-36.21-142.49-46.3-4.99-1.04-10.05-2.11-15.18-1.66 6.93 3.37 14.84 3.38 22.19 5.34 19.78 4.66 39.71 8.75 59.15 14.72 2.73.69 5.38 1.67 7.89 2.96-11.43 10.43-24.2 20.16-39.36 24.29-12.71 3.95-26.54 4.8-39.27.48-11-5.91-19.6-16.34-23.33-28.29-2.38-8.42-3.14-17.91.88-25.95z" fill="#cfded1"/><g fill="#ffdd8e"><path d="m716.4 269.17c7.09-.13 14.2-1.65 21.28-.95 4.29 2.42 3.03 10.7-2.13 11.19-5.14.53-10.31.51-15.45.99-.85-.2-2.55-.61-3.4-.81 6.63-1.06 13.41-.61 20.02-1.84 2.48-1.29 3.07-4.94 1.69-7.21-1.45-1.92-4.15-1.25-6.2-1.23-5.25.54-10.62 1.29-15.81-.14z"/><path d="m707.76 280.21c2.97-.3 5.99-.26 8.9.54-2.27.25-4.52.46-6.76.78-.54-.33-1.6-.99-2.14-1.32z"/><path d="m660.69 288.58c1.69-.51 3.44-.27 5.15.03-10.1 2.49-20.21 5-30.22 7.87-.09-.3-.29-.88-.38-1.17 8.47-2.29 16.94-4.61 25.45-6.73z"/><path d="m629.78 298.38c-2.09-1.36 1.6-2.6.81-.26z"/><path d="m753.32 297.18c5.81-.36 11.64-.44 17.45-.83l-.09 1.48c-5.78.07-11.69.84-17.36-.65z"/><path d="m574.27 306.82c7.01-3.64 14.36-6.64 21.81-9.27-1.99 2.54-5.33 3.14-8.12 4.41-4.54 1.68-8.76 4.43-13.69 4.86z"/><path d="m623.13 299.2c1.84-.72 3.82-.95 5.78-.66-10.88 3.75-21.73 7.6-32.33 12.08 0-.31 0-.95 0-1.26 8.71-3.72 17.62-7.01 26.55-10.16z"/><path d="m670.09 309.37c9.53-2.3 19.18-4.14 28.84-5.74.58.18 1.75.56 2.33.74-8.4 1.65-16.87 2.89-25.2 4.91-1.96.55-4 .41-5.97.09z"/><path d="m569.13 309.09.72-.45c2.38.82-.85 2.89-.72.45z"/><path d="m586.19 338.53c25.86-13.04 53.58-22.23 81.76-28.79l2.44.52c-26.14 6.28-51.98 14.28-76.34 25.77-2.52 1.09-4.99 2.81-7.86 2.5z"/><path d="m555.45 316.67c3.37-2.27 6.98-4.19 10.66-5.92l1.19.49c-3.79 2.1-7.42 4.95-11.85 5.43z"/><path d="m584.42 315.12c3.09-1.93 6.4-3.92 10.18-3.87-2.76 1.55-5.63 2.92-8.59 4.03z"/><path d="m580.04 318.36c-2.35-.92 1-2.84.75-.4z"/><path d="m576.12 320.29c-2.46-.64.67-2.91.71-.48z"/><path d="m537.31 327.93c3.06-2.42 6.31-4.58 9.71-6.47-2.04 3.5-5.9 5.49-9.71 6.47z"/><path d="m533.98 330.92c.15-1.33.97-2.06 2.47-2.16 1.1 1.52-1.26 2.42-2.47 2.16z"/><path d="m528.94 334.66c.54-1.41 2-2.57 3.49-2.82.67 1.97-1.76 3.55-3.49 2.82z"/><path d="m547.61 334.66c1.88-1.06 3.79-2.73 6.12-2.29-5.93 3.54-11.69 7.42-17.79 10.66l-1.45.05c4.09-3.22 8.77-5.57 13.12-8.42z"/><path d="m522.27 340.16c1.45-1.57 2.94-3.2 4.85-4.24l1.46-.16c-1.71 1.99-3.81 3.57-6.31 4.4z"/><path d="m692.74 337.87.98-.23c2.25.32 1.41 3.78 2.28 5.45 4.41-1 8.74-2.42 13.27-2.86l-.79.86c-4.11 1.52-8.49 2.14-12.67 3.49-1.03-2.24-2.05-4.47-3.07-6.71z"/><path d="m570.24 346.58c4.58-2.57 9.29-4.9 14.03-7.18.01.3.02.89.02 1.18-4.67 1.92-8.87 5.82-14.05 6z"/><path d="m653.96 350.06c-.07-4.32 2.32-9 6.57-10.5l-.78 1.24c-3.56 2.85-5.58 7.57-4.45 12.1 1.54 5.95 4.18 12.03 9.16 15.9-3.15.1-4.68-2.98-6.1-5.26-2.32-4.13-4.57-8.62-4.4-13.48z"/><path d="m514.39 346.95c2.15-2.09 4.32-4.17 6.63-6.09l1.53-.23c-2.34 2.52-4.6 5.56-8.16 6.32z"/><path d="m530.82 346.28c-1.71-1.34 1.19-3.07 2.26-1.64-.56.41-1.69 1.23-2.26 1.64z"/><path d="m521.41 350.54c2.32-1.15 4.42-3.32 7.2-3.04-4.74 2.72-9.48 7.28-15.34 6.39-2.94-1.41-1.34-4.93.5-6.53-.24 1.87-.47 3.75-.68 5.63 2.93-.12 5.84-.83 8.32-2.45z"/><path d="m559.37 352.82c2.79-1.78 5.61-3.55 8.61-4.96l1.62.01c-3.06 2.27-6.31 4.62-10.23 4.95z"/><path d="m638.67 347.91c3 2.88 7.36 5.44 8.22 9.74-2.6-2.97-5.66-5.55-7.95-8.78z"/><path d="m712.11 354.44c-2.58-1.15 2.27-2.74 1.62-.3-.41.08-1.22.23-1.62.3z"/><path d="m702.62 356.16c2.13-2.01 5.23-1.97 7.95-2.37l-.66 1.11c-1.85.48-3.7.94-5.54 1.38z"/><path d="m717.49 356.08c1.19-2.5 2.92 2.16.44 1.53-.11-.38-.33-1.14-.44-1.53z"/><path d="m551.93 357.35c.56-.42 1.67-1.24 2.23-1.65 1.73 1.3-1.17 3.09-2.23 1.65z"/><path d="m651.26 361.34c3.38 2.37 5.71 5.86 8.76 8.61 1.26 1.33 3.71 3.09 2.15 5.12-2.01 1.26-4.38 1.74-6.67 2.23l.8-1.07c1.99-.8 4.02-1.53 6.05-2.27-3.58-3.57-7.16-7.13-10.5-10.92z"/><path d="m532.2 369.58c2.94-1.89 5.76-3.98 8.8-5.72l1.41.13c-3.21 2.05-6.14 5.69-10.21 5.59z"/><path d="m506.43 388.84c7.21-6.08 14.79-11.74 22.6-17.03l1.45.02c-4.8 4.08-10.22 7.37-15.1 11.35-2.91 1.97-5.31 5.07-8.95 5.66z"/><path d="m640.81 375.09c3.09-1.27 6.19-2.51 9.29-3.77 1.32 1.49 2.64 2.99 3.91 4.53l.2 1.27c-1.58-1.32-3.02-2.77-4.41-4.27-2.45.84-4.86 1.78-7.24 2.77-.51 1.17-1 2.36-1.49 3.55-.1-1.37-.19-2.73-.26-4.08z"/><path d="m623.03 373.39.71-.94c-.21 1.16-.42 2.31-.64 3.47 1.07 1.1 2.58 2.01 2.83 3.68-1.63-1.05-3.28-2.07-4.92-3.07.66-1.06 1.33-2.11 2.02-3.14z"/><path d="m615.03 380.93c.51.11 1.53.33 2.04.44l-.69.62-1.03-.23z"/><path d="m561.85 388.44 1.27.82c2.41 7.63 4.72 15.29 7.01 22.96-1.46-1.19-2.89-2.4-4.34-3.59.98-1.02 1.27-2.17.89-3.45-1.39-5.64-3.7-11.03-4.83-16.74z"/><path d="m501.91 392.95c-.05-1.62 2.17-2.81 3.61-3.15.33 2.18-1.79 3.05-3.61 3.15z"/><path d="m494.29 399.16c1.76-1.93 3.71-3.68 5.77-5.29l1.54-.18c-1.95 2.41-4.37 4.41-7.31 5.47z"/><path d="m612.04 395.96c.96-.46 1.93-.91 2.91-1.35l.54.21c.76 1.77-3.24 3.15-3.45 1.14z"/><path d="m485.39 407.1c2.37-2.57 4.96-4.94 7.61-7.22l1.52-.22c-2.67 2.89-5.35 6.01-9.13 7.44z"/><path d="m588.17 409.05c5.77-3.3 11.91-5.91 17.73-9.14l1.64-.36c-2 2.56-5.25 3.47-7.97 5.01-4.14 1.88-8.02 4.66-12.63 5.26.3-.19.92-.58 1.23-.77z"/><path d="m586.39 405.87c-.52 2.53-2.91-1.2-.41-.72z"/><path d="m457.39 434.36c7.24-7.79 14.76-15.36 22.66-22.48l1.41-.19c-6.69 6.9-13.81 13.38-20.39 20.4-1.09.91-2.03 2.5-3.68 2.27z"/></g><path d="m448.86 444c1.5-2.11 3.39-3.89 5.27-5.65-.96 2.89-3.07 5.1-5.35 7.01z" fill="#ec8795"/><path d="m437.32 458.11c1.35-2.15 2.96-4.13 4.76-5.92-.67 2.6-2.05 5.05-4.76 5.92z" fill="#ec8795"/><path d="m405.82 502.09c9.44-15.21 19.82-29.91 31.25-43.69-.83 3.31-3.25 5.79-5.29 8.4-9.42 11.76-17.39 24.57-26.03 36.89z" fill="#ec8795"/><path d="m1204.28 535.4c.12.03.36.09.47.12-.11-.03-.35-.09-.47-.12z" fill="#ffdd8e"/><path d="m449.09 549.06c2.66-1.74 5.98-.96 8.95-.89-.19.35-.58 1.04-.78 1.38-4.74-1.85-9.71.85-12.05 5.07-.56-2.69 1.93-4.33 3.88-5.56z" fill="#ec8795"/><path d="m438.65 565.71c1.24-3.18 2.27-6.67 4.83-9.08l-.23 1.62c-1.04 2.29-2.18 4.54-3.39 6.75z" fill="#ec8795"/><path d="m478.05 559.96 1.26-.32c-.92 2.21-1.77 4.5-3.2 6.43-1.41.88-3.09 1.16-4.65 1.66-.08-.43-.25-1.29-.34-1.73 1.25.01 2.49.03 3.75.05 1.05-2.03 2.08-4.08 3.18-6.09z" fill="#ec8795"/><path d="m374.56 560.43c.12 2.8-.27 6.12-3.05 7.57.98-2.54 2.02-5.06 3.05-7.57z" fill="#ffdd8e"/><path d="m437.8 568.97 1.02.01c6.57 1.71 12.73 4.74 19.07 7.13l.86 1.24c-7.16-2.28-14.33-4.83-20.95-8.38z" fill="#ec8795"/><path d="m431.54 582.54c1.26-3.73 4.72-6.42 8.4-7.5 7.67-.74 16.41 1.56 21.59 7.52l-1.62-.56c-5.23-3.65-11.52-6.36-18-6.04-3.86.18-6.83 2.98-9.09 5.85z" fill="#ec8795"/><path d="m467.55 580.15c-.42 2.19-5.94-.2-3.54-1.61 1.2.46 2.39 1 3.54 1.61z" fill="#ec8795"/><path d="m1240.26 582.12c.32-.08.97-.24 1.3-.32.44.56 1.34 1.69 1.79 2.26-1.37 1.45-2.59-.85-3.09-1.94z" fill="#ec8795"/><path d="m1250.32 582.25c1.98 4.76 5.87 8.44 7.65 13.28-3.7-3.64-6.48-8.12-8.61-12.82z" fill="#ec8795"/><path d="m439.45 594.62c-5.91-2.72-1.62-13.44 4.51-11.67 2.73.44 5.3 1.52 7.86 2.56-3.7.84-7.08-2.03-10.72-1.28-2.84 1.42-2.93 4.99-3.36 7.72 4.48 3.25 10.18 6.14 15.85 4.7 1.14-1.55 2.01-3.43 2.06-5.38-.49-1.78-1.84-3.18-2.75-4.75l1.08.16c4.56 2.2 3.05 8.5-.1 11.27-4.96 1.51-10.11-1.04-14.43-3.33z" fill="#ec8795"/><path d="m734.11 587.24c6.88-1.64 13.79-3.26 20.82-4.07 1.93-.26 3.86.21 5.77.52-8.86.85-17.57 2.63-26.21 4.68-.09-.28-.28-.85-.38-1.13z" fill="#ffdd8e"/><path d="m428.9 591.92c-.05-2.97-.02-6.46 2.5-8.52l-.32 1.84c-1.12 3.03-1.31 6.27-.91 9.47l.09 1.53c-1.5-.94-1.19-2.84-1.36-4.32z" fill="#ec8795"/><path d="m1248.56 593.03c-2.7-1.05-4.08-3.74-4.26-6.49 1.63 2.01 2.99 4.23 4.26 6.49z" fill="#ec8795"/><path d="m721.04 591.67c4.15-1.21 8.27-4.06 12.74-2.99-3.83 1.02-7.5 2.59-11.35 3.53-.34-.13-1.04-.41-1.39-.54z" fill="#ffdd8e"/><path d="m709.7 596.8c3.03-1.68 6.17-3.56 9.77-3.43-2.75 1.39-5.53 2.75-8.42 3.81z" fill="#ffdd8e"/><path d="m1249.96 595.36c-.04-.06-.13-.19-.18-.25z" fill="#ffdd8e"/><path d="m701.64 600.79c1.41-.91 3.08-1.21 4.71-1.44-7.35 4.4-14.78 8.72-21.55 14.01l-.89-.66c5.58-4.43 11.56-8.36 17.73-11.91z" fill="#ffdd8e"/><path d="m426.23 606.22c4.18-2.38 9.27-1.57 13.69-.38 2.56.82 5.45 1.42 7.28 3.59l-1.47-.22c-4.77-1.7-9.65-3.84-14.84-3.24-3.68.29-6.62 2.85-8.85 5.58-.07-2.58 2.32-4.07 4.19-5.33z" fill="#ec8795"/><path d="m1257.06 605.34c4.49 5.6 8.25 11.8 11.48 18.21-.33-.01-.98-.02-1.3-.03-1.5-2.48-2.75-5.1-4.25-7.57-2.06-3.49-4.85-6.62-5.93-10.61z" fill="#ec8795"/><path d="m446.6 609.65c2.06-.42 3.6 1.35 4.79 2.76 4.56 5.53 3.17 14.41-1.84 19.19l.47-1.6c1.65-3.45 3.38-7.12 2.95-11.05-.44-3.95-3.17-7.17-6.37-9.3z" fill="#ec8795"/><path d="m419.99 616.02c-2.44-.21.24-5.39 1.32-2.98-.43.99-.87 1.98-1.32 2.98z" fill="#ec8795"/><path d="m429.42 613.23c3.11-1.16 6.46.34 9.43 1.31-2.93.23-5.81-.36-8.72-.42-2.5 1.82-4.1 5.47-2.66 8.39 2.29 2.14 5.46 2.84 8.33 3.88-.1.29-.3.88-.4 1.18-3.28-1.14-7.05-2-9.3-4.87-1.11-3.42.34-7.49 3.32-9.47z" fill="#ec8795"/><path d="m679.49 617.1c-.63-2.15 1.83-3.05 3.55-2.98-.01 1.55-2.17 2.63-3.55 2.98z" fill="#ffdd8e"/><path d="m421.4 629.43c-3.85-2.77-4.83-9.23-2.15-12.9l-.07 1.69c-.45 3.35-.03 6.75 1.73 9.68z" fill="#ec8795"/><path d="m672.58 622.16c1.69-1.83 3.51-3.72 6.11-4.11-1.54 1.42-3.02 2.91-4.69 4.18z" fill="#ffdd8e"/><path d="m1201.24 627.3c.52.48.52.48 0 0z" fill="#ffdd8e"/><path d="m1273.39 640.68c-.93-4.44-2.69-8.69-3.09-13.22 2.15 4.05 3.36 8.51 4.24 13-.28.06-.86.16-1.15.22z" fill="#ec8795"/><path d="m621.93 700.87c4.06-14.1 9.11-28.17 17.18-40.5l.04 1.58c-9.58 16.96-16.18 35.57-19.52 54.77-1.15-5.41 1.18-10.65 2.3-15.85z" fill="#ec8795"/><path d="m442.24 662.18.82-.88c-.28 1.72.23 4.09-1.49 5.24-1.58.46-3.26.28-4.87.34.43-.31 1.28-.93 1.7-1.25.64.14 1.91.4 2.54.53.42-1.34.85-2.66 1.3-3.98z" fill="#ec8795"/><path d="m1243.91 703.69c1.09-2.83 3.05-5.15 5.34-7.09l-.11 1.33c-1.47 2.15-3.36 3.96-5.23 5.76z" fill="#ec8795"/><path d="m1224.99 722.02c5.01-4.62 9.4-9.9 14.54-14.36l1.09-.31c-8.96 10.12-18.7 19.6-29.04 28.31.03-.35.09-1.06.12-1.41 4.34-4.17 9.09-7.91 13.29-12.23z" fill="#ec8795"/><path d="m335.19 711.28c1.95 7.76.02 15.78.44 23.66 93.77.13 187.54.1 281.31.04.01-3.74.11-7.48.46-11.19.37 1.11.72 2.22 1.07 3.36-.22 2.95-.49 5.91-.45 8.88-94.67 0-189.34-.05-284.02.03.4-8.26.52-16.54 1.19-24.78z" fill="#ec8795"/><path d="m1033.98 734.97c1.35 1.43 1.57 3.46.37 5.08-.15-.87-.46-2.61-.61-3.48.06-.4.18-1.2.24-1.6z" fill="#ec8795"/><path d="m1063.62 748.23c3.35-3.27 6.71-6.54 9.94-9.93l1.12.28c-3.13 3.31-6.01 6.93-9.72 9.62z" fill="#ec8795"/><path d="m1034.53 741.8c1.47-2.01 2.56 1.63.25.83z" fill="#ec8795"/><path d="m664.08 277.19c17.25-3.74 34.76-6.55 52.32-8.02 5.19 1.43 10.56.68 15.81.14 2.05-.02 4.75-.69 6.2 1.23 1.38 2.27.79 5.92-1.69 7.21-6.61 1.23-13.39.78-20.02 1.84.85.2 2.55.61 3.4.81-1.14.18-2.3.57-3.44.35-2.91-.8-5.93-.84-8.9-.54.54.33 1.6.99 2.14 1.32-13.72 1.88-27.45 3.75-40.98 6.72-1.02.17-2.06.46-3.08.36-1.71-.3-3.46-.54-5.15-.03-8.51 2.12-16.98 4.44-25.45 6.73.09.29.29.87.38 1.17l.1.29c-1.72.43-3.43.89-5.13 1.35.79-2.34-2.9-1.1-.81.26l.21.25c-.27-.02-.81-.07-1.08-.09-1.96-.29-3.94-.06-5.78.66-8.93 3.15-17.84 6.44-26.55 10.16v1.26.38c-.67.09-1.33.18-1.98.25-3.78-.05-7.09 1.94-10.18 3.87l1.59.16c-1.68 1-3.45 1.85-5.22 2.68.25-2.44-3.1-.52-.75.4-1.08.48-2.15.96-3.21 1.45-.04-2.43-3.17-.16-.71.48-7.7 3.59-14.85 8.2-22.39 12.08-2.33-.44-4.24 1.23-6.12 2.29-4.35 2.85-9.03 5.2-13.12 8.42l1.45-.05c-.8.64-1.6 1.28-2.4 1.92l-.46-.31c-1.07-1.43-3.97.3-2.26 1.64-.64.4-1.27.81-1.91 1.21l-.3.01c-2.78-.28-4.88 1.89-7.2 3.04-2.48 1.62-5.39 2.33-8.32 2.45.21-1.88.44-3.76.68-5.63l.02-.2.6-.21c3.56-.76 5.82-3.8 8.16-6.32l-1.53.23c.31-.17.93-.53 1.25-.7 2.5-.83 4.6-2.41 6.31-4.4l-1.46.16c.27-.35.81-1.06 1.08-1.42l.74.16c1.73.73 4.16-.85 3.49-2.82l-.15-.89c.43-.01 1.28-.02 1.7-.03 1.21.26 3.57-.64 2.47-2.16l-.27-.52c.29-.08.85-.23 1.13-.31 3.81-.98 7.67-2.97 9.71-6.47l.21-.29c2.7-1.53 5.16-3.73 8.22-4.5 4.43-.48 8.06-3.33 11.85-5.43l-1.19-.49c.99-.57 1.99-1.12 3.02-1.66-.13 2.44 3.1.37.72-.45 1.44-.68 2.83-1.53 4.42-1.82 4.93-.43 9.15-3.18 13.69-4.86 2.79-1.27 6.13-1.87 8.12-4.41l.31-.33c21.95-8.55 44.68-15.03 67.69-20.03z" fill="#ffdd8e"/><path d="m698.93 303.63c17.97-3.21 36.21-5.3 54.39-6.45 5.67 1.49 11.58.72 17.36.65.12 76.92-.03 153.85.08 230.78-.08.37-.23 1.1-.31 1.46-35.08 3.49-70.28 5.78-105.4 8.87-13.7.89-27.38 1.91-41.1 2.35-10.62 1.2-21.32.31-31.95 1.11-5.41.41-10.91.09-16.22 1.38-9.11-7.35-17.45-15.63-26.75-22.76-4.17-3.34-8.86-6.32-14.27-7.01-1.21-1.68-2.4-3.38-3.9-4.8-21.04-19.65-41.54-39.85-62.49-59.58-4.54-4.24-8.61-8.98-13.61-12.69.78-.87 1.57-1.73 2.39-2.56l.24-.02c1.65.23 2.59-1.36 3.68-2.27 6.58-7.02 13.7-13.5 20.39-20.4l-1.41.19c1.62-1.74 3.22-3.63 5.34-4.78 3.78-1.43 6.46-4.55 9.13-7.44l-1.52.22c.32-.18.97-.54 1.29-.72 2.94-1.06 5.36-3.06 7.31-5.47l-1.54.18c.46-.23 1.39-.69 1.85-.92 1.82-.1 3.94-.97 3.61-3.15-.03-.6.28-.92.91-.96 3.64-.59 6.04-3.69 8.95-5.66 4.88-3.98 10.3-7.27 15.1-11.35l-1.45-.02c1.01-.81 2.06-1.55 3.17-2.23 4.07.1 7-3.54 10.21-5.59l-1.41-.13c3.36-2.49 7.04-4.51 10.54-6.79l.39.28c1.06 1.44 3.96-.35 2.23-1.65 1.67-1.05 3.25-2.39 5.21-2.88 3.92-.33 7.17-2.68 10.23-4.95l-1.62-.01c.73-.45 1.48-.88 2.26-1.28 5.18-.18 9.38-4.08 14.05-6 0-.29-.01-.88-.02-1.18l-.01-.35c.63-.18 1.27-.35 1.93-.52 2.87.31 5.34-1.41 7.86-2.5 24.36-11.49 50.2-19.49 76.34-25.77-.61-.13-1.83-.39-2.44-.52.69-.26 1.41-.38 2.14-.37 1.97.32 4.01.46 5.97-.09 8.33-2.02 16.8-3.26 25.2-4.91-.58-.18-1.75-.56-2.33-.74m-15.1 30.68c3.96 10.04 8.47 19.86 12.5 29.87 7.24-2.09 14.77-3.02 21.96-5.28l-.36-1.29c2.48.63.75-4.03-.44-1.53-.18-.55-.53-1.65-.71-2.2-.76.06-2.29.2-3.05.26.65-2.44-4.2-.85-1.62.3-.55.12-1.65.34-2.2.46l.66-1.11c-2.72.4-5.82.36-7.95 2.37l1.75.12c-1.1.31-2.18.65-3.26 1-.8-2.64-2.75-5.14-2.88-7.85 4.29-1.11 8.64-1.94 12.91-3.14-.87-1.75-1.72-3.5-2.66-5.2l.79-.86c-4.53.44-8.86 1.86-13.27 2.86-.87-1.67-.03-5.13-2.28-5.45 4.75-1.52 9.7-2.21 14.51-3.46-.64-1.82-1.42-3.58-2.33-5.27-7.28 2.13-14.84 3.11-22.07 5.4m-24.08 6.49.78-1.24c-4.25 1.5-6.64 6.18-6.57 10.5-.17 4.86 2.08 9.35 4.4 13.48 1.42 2.28 2.95 5.36 6.1 5.26 5.39 2.38 11.78 1.94 17.14-.31 3.02-1.17 5.88-3.87 5.62-7.36-.63-3.91-2.73-7.38-3.69-11.2-4.28.7-8.36 2.25-12.54 3.33.71 1.59 1.42 3.19 2.16 4.77 1.85-.54 3.74-.97 5.66-1.28.25 1.98 1.65 4.05.96 6.03-3.29 2.6-8.51 3.3-11.62.04-3.22-4.02-4.97-8.97-6.26-13.9.97-4.61 5.92-5.93 10-5 .92.96 1.84 1.92 2.78 2.89 2.04-.53 4.11-.99 6.18-1.44-1.38-2.56-3.09-5.2-5.93-6.29-4.97-2.23-10.5-.36-15.17 1.72m-21.08 7.11.27.96c-2.39.65-4.69 1.54-6.97 2.48.53 11.14 2 22.21 2.57 33.35 2.27-.91 4.52-1.86 6.77-2.85-.06-.67-.18-2.01-.24-2.68.49-1.19.98-2.38 1.49-3.55 2.38-.99 4.79-1.93 7.24-2.77 1.39 1.5 2.83 2.95 4.41 4.27l-.2-1.27c.57.09 1.71.28 2.29.38l-.8 1.07c2.29-.49 4.66-.97 6.67-2.23 1.56-2.03-.89-3.79-2.15-5.12-3.05-2.75-5.38-6.24-8.76-8.61l.59 1.7c-1.68-1.78-3.36-3.55-4.96-5.39-.86-4.3-5.22-6.86-8.22-9.74m-42.25 20.41c4.74 9.26 9.56 18.48 14.02 27.88l1.6-.24c.21 2.01 4.21.63 3.45-1.14l-.54-.21c.48-.22 1.43-.68 1.91-.91-1.64-3.89-3.86-7.52-5.26-11.51 1.14-.42 2.29-.83 3.43-1.26l.32.83 1.03.23.69-.62c3.2 2.49 6.58 4.74 9.83 7.18 2.21-1.14 4.47-2.17 6.8-3.06-2.52-2.06-5.08-4.07-7.77-5.89-.25-1.67-1.76-2.58-2.83-3.68.22-1.16.43-2.31.64-3.47l-.71.94c1.42-5.85-2.92-12.11-9.04-12.25-6.43.54-12.08 4.09-17.57 7.18m-23.61 12.28c3.64 8.56 8.8 16.36 13.17 24.55-2.5-.48-.11 3.25.41.72.59 1.06 1.17 2.12 1.78 3.18-.31.19-.93.58-1.23.77 4.61-.6 8.49-3.38 12.63-5.26 2.72-1.54 5.97-2.45 7.97-5.01l-1.64.36c.76-.55 1.52-1.11 2.26-1.69-.88-1.47-1.74-2.95-2.61-4.42-4.85 1.86-9.24 4.71-13.95 6.89-1.46-2.41-2.88-4.85-4.03-7.41 3.93-1.78 7.67-3.93 11.58-5.75-.88-1.58-1.74-3.17-2.59-4.76-4.32 1.39-8 4.17-12.26 5.73-.95-2.11-1.99-4.17-3.07-6.2 4.29-2.27 8.51-4.67 12.81-6.91-.91-1.51-1.81-3.01-2.68-4.52-6.44 2.74-12.32 6.56-18.55 9.73m-9.98 6.79c.07.47.22 1.41.29 1.87l-1.27-.82c1.13 5.71 3.44 11.1 4.83 16.74.38 1.28.09 2.43-.89 3.45-5.61-4.56-11.01-9.37-16.71-13.81-2.03 1.28-4.1 2.51-6.2 3.65 9.14 7.37 18.74 14.14 27.92 21.46 2.1-1.3 4.22-2.58 6.32-3.88-3.37-10.55-5.05-21.55-8.23-32.16-2.01 1.18-4.02 2.37-6.06 3.5m-32.83 21.35c3.75 10.66 6.88 21.52 10.17 32.33 1.94-1.55 3.92-3.05 5.92-4.52-.65-2.2-1.36-4.39-2.17-6.53 2.66-1.97 5.23-4.11 8.05-5.85 2.03.75 3.49 2.65 5.18 3.99 2.39-1.37 4.71-2.86 6.98-4.42-9.47-6.28-18.75-12.85-28.17-19.2-2.05 1.31-4.04 2.71-5.96 4.2z" fill="#ffdd8e"/><path d="m638.39 357.64c3.01 2.7 4.98 6.35 7.93 9.14-2.06.88-4.17 1.66-6.27 2.42-.41-3.88-1.14-7.71-1.66-11.56z" fill="#ffdd8e"/><path d="m604.85 369.82c3.37-2.01 8.21-4.69 11.28-.68 0 1.52.49 3.16-.18 4.62-1.8 2.02-4.47 2.86-6.74 4.2-1.39-2.75-2.8-5.49-4.36-8.14z" fill="#ffdd8e"/><path d="m537.67 412.65c3.34 2.55 6.39 5.46 9.83 7.88-1.71 1.39-3.51 2.68-5.45 3.74-1.73-3.77-3.17-7.67-4.38-11.62z" fill="#ffdd8e"/><path d="m649.09 543.93c40.58-2.91 81.11-6.51 121.66-9.8-.06 16.36-.12 32.73-.02 49.1-3.37-.41-6.7.49-10.03.46-1.91-.31-3.84-.78-5.77-.52-7.03.81-13.94 2.43-20.82 4.07.1.28.29.85.38 1.13l.16.46c-.22-.04-.65-.12-.87-.15-4.47-1.07-8.59 1.78-12.74 2.99.35.13 1.05.41 1.39.54l.59.24c-1.19.33-2.32.84-3.55.92-3.6-.13-6.74 1.75-9.77 3.43l1.35.38c-1.52.8-2.98 1.85-4.7 2.17-1.63.23-3.3.53-4.71 1.44-6.17 3.55-12.15 7.48-17.73 11.91l.89.66c-.44.19-1.32.57-1.76.76-1.72-.07-4.18.83-3.55 2.98l.08.68c-.22.07-.66.2-.88.27-2.6.39-4.42 2.28-6.11 4.11l1.42.07c-1.38 1.39-2.85 2.69-4.29 4.02-30.23-26.41-60.22-53.09-90.65-79.28 2.93-.54 5.89-1.03 8.88-.97 11.71 0 23.44.25 35.11-.92 8.71.23 17.33-1.28 26.04-1.15z" fill="#ffdd8e"/><path d="m1260.2 413.19c-4.4-3.88-6.74-12.44-1.37-16.38 2.86.07 5.45 1.35 8.16 2.18 1.94.21 3.14-1.92 5.04-2 2.55-.07 5.48-.57 7.61 1.25 3.71 2.85 7.56 5.56 11.89 7.4 5.25 2.28 10.22 6.11 12.14 11.71 1.53 5.07-.72 10.37-3.88 14.32-3.89 4.6-8.86 8.17-14.06 11.14-1.51.62-3.04 1.23-4.33 2.24.74-2 1.78-3.99 1.44-6.19-2.42 3.46-4.11 8.14-8.55 9.45-5.59 2.06-11.61-.07-16.15-3.48-2.74-3.95-4.12-10.62.02-14.06 1.06-.65 2.15-1.3 3.25-1.93.5.05 1.5.14 2 .18 2.82 1.93 5.57 4.03 7.61 6.82 2.65.62 5.33 1.13 8.05 1.47 2.08-4.84 4.32-10.47 2.01-15.64-1.43.56-2.88 2.05-4.5 1.43-2.34-.98-4.51-2.42-6.12-4.38 3.27.09 6.57.18 9.84-.23-3.43-.33-6.89-.2-10.3-.6-3.62-.65-6.94-2.46-9.8-4.7m24.21 16.84c-1.03 2.21-2.33 4.47-2.43 6.96 1.08 1.52 3.08 1.22 4.71 1.09 2.03-2.5 4.15-5.44 3.29-8.87-1.43-2.17-4.6-1.27-5.57.82m-26.63 5.1c.76-.16 2.27-.49 3.03-.65 2.33 1.25 4.92 1.89 7.58 1.59-1.29-2.22-4.48-2-6.01-4.08-2.22-.47-4.76.52-4.6 3.14z" fill="#2b0f3a"/><path d="m1260.87 418.59c.92-2.18 4.54.14 3.93 2.11-1.42-.12-3.04-1-3.93-2.11z" fill="#2b0f3a"/><path d="m1259.83 421.22c2.26-.85 3.34 1.49 5.03 2.44-.32 1.73-.73 3.44-1.01 5.19-1.46-1.68-.67-3.54.35-5.22-1.99.68-3.54-.79-4.37-2.41z" fill="#2b0f3a"/><path d="m1268.96 422.85c1.68-.36 3.36-.48 4.95.56l-.57.14c-1.23.28-2.45.55-3.64.83.4.93.85 1.84 1.34 2.75.75-.45 1.49-.95 2.22-1.48.95 2.72-1.54 2.47-3.38 2.45-1.2-1.54-1.44-3.4-.92-5.25z" fill="#2b0f3a"/><path d="m1043.06 492.78c3.6-.69 7.18-1.81 10.89-1.8 1 .59 1.93 3.06.25 3.33-4.83 1.46-9.9 2.08-14.83 3.14-28.47 5.18-56.87 10.83-85.51 15.05-25.87 3.98-51.83 7.29-77.82 10.36-35.06 4.05-70.1 8.5-105.29 11.27-40.55 3.29-81.08 6.89-121.66 9.8-8.71-.13-17.33 1.38-26.04 1.15-11.67 1.17-23.4.92-35.11.92-2.99-.06-5.95.43-8.88.97 30.43 26.19 60.42 52.87 90.65 79.28 13.48 11.76 26.87 23.62 40.2 35.55 8.69-6.9 19.31-10.93 30.05-13.35.22.27.64.82.85 1.09-10.81 1.93-21.16 6.33-30.05 12.77 9.88 9.1 20.22 17.7 30.2 26.68 4.31 4 9.89 7.07 12.41 12.63 2.46 5.61 3.12 12.13 1.22 18.01-2.28 8.1-9.36 14.64-17.63 16.19-6.97.83-14.97.72-20.34-4.48-13.03-12.1-25.19-25.13-38.23-37.22-12.02-12.37-24.39-24.42-36.55-36.66-23.93-23.98-47.88-47.94-72.07-71.66-1.34 6.3-1.16 12.76-1.69 19.14-.52-.21-1.56-.64-2.08-.85-.16-6.69-.28-13.52 1.99-19.93-1.84-1.85-3.7-3.68-5.54-5.52-3.43 3.59-6.38 7.61-8.98 11.84-7.95 13.4-13.57 28.45-14.55 44.1-1.39-.7-3.27-1.67-2.73-3.56 2.06-20.06 10.99-39.2 24.03-54.47-3.94-3.72-7.72-7.6-11.59-11.4-1.64 7.42-1.86 15-1.47 22.56-.52.15-1.57.45-2.09.6-1.63-8.3-.03-16.75 2.06-24.81-7.32-7.63-14.74-15.35-20.28-24.42-3.53-5.64-3.99-13.16-.95-19.1 1.75-3.36 5.32-5.1 8.86-5.97 5.41.69 10.1 3.67 14.27 7.01 9.3 7.13 17.64 15.41 26.75 22.76 5.31-1.29 10.81-.97 16.22-1.38 10.63-.8 21.33.09 31.95-1.11 13.72-.44 27.4-1.46 41.1-2.35 35.12-3.09 70.32-5.38 105.4-8.87 1.13.05 2.27.01 3.42-.11.63-.06 1.9-.18 2.53-.24 3.38-.32 6.75-.71 10.15-.9 7.23-.58 14.43-1.49 21.65-2.2 14.15-1.52 28.29-3.12 42.42-4.82 9.28-.89 18.53-2.1 27.8-3.14 15.46-1.85 30.93-3.58 46.32-5.89.37-.03 1.11-.11 1.48-.15 10.56-1.36 21.11-2.93 31.6-4.86 28.53-4.32 56.79-10.16 85.24-14.98m-496.17 41.18c1.19 2.43 3.66 3.74 5.68 5.39 8.99 7.08 18.46 13.54 27.41 20.69 1.54 1.26 3.23 2.38 5.14 3.06-.32-1.01-.89-1.82-1.7-2.44-10.74-7.95-21.34-16.09-31.89-24.28-1.37-1.13-2.91-2.01-4.64-2.42z" fill="#2b0f3a"/><path d="m1073.27 500.59c1.19.21 2.38.45 3.59.72 3.67 1.01 7.29 2.26 11.04 3.07 7.88 1.63 15.48 4.33 23.25 6.41 10.85 2.99 21.68 6.06 32.56 8.94 3.46.99 6.95 1.86 10.44 2.78 15.1 4.25 30.32 8.12 45.6 11.66 1.52.38 2.96.8 4.53 1.23.12.03.36.09.47.12 3.27.66 6.64 1.26 9.52 3.1-1.52 3.26-4.62 2.05-7.3 1.48-.47-.1-1.39-.3-1.85-.4-18.04-4.25-35.98-8.94-53.88-13.74-1.76-.44-3.53-.87-5.27-1.3-.28-.08-.86-.23-1.14-.3-24.01-6.48-47.97-13.09-71.83-20.09-.36-.09-1.08-.28-1.44-.37.57-1.11 1.14-2.21 1.71-3.31z" fill="#2b0f3a"/><path d="m1229.71 561.37c1.41 1.23 2.86 2.47 4.3 3.7.57 6.2 1.05 12.45.3 18.66-.64 11.46-3.64 22.73-3.29 34.24.91 10 2.97 20.54 9.71 28.37 8.22 9.66 19.85 15.3 30.16 22.36 7.68 4.98 15.37 10.05 22.14 16.26 7.67 7.61 14 17.21 15.44 28.11.87 2.55-3.04 3.18-3.31.9-.81-9.25-6.08-17.3-11.96-24.17-7.04-7.25-15.7-12.61-24.1-18.12-10.54-7.24-22.35-13.1-30.87-22.88-6.04-6.88-8.9-15.92-10.05-24.85-1.5-13.37 1.48-26.63 2.35-39.93.72-7.54.83-15.23-.82-22.65z" fill="#2b0f3a"/><path d="m1180.84 600.81c4.42-3.98 9.4-7.38 14.85-9.8-.19.44-.59 1.31-.79 1.75-6.37 2.8-11.63 7.39-16.52 12.23.57-1.52 1.16-3.12 2.46-4.18z" fill="#2b0f3a"/><path d="m750.45 647.11c4.08-.19 8.17-.22 12.25.01-4.04.96-8.21.93-12.25-.01z" fill="#2b0f3a"/><path d="m677.73 694.29c-.02.39-.06 1.19-.08 1.59-4.24 7.51-8.07 15.32-10.26 23.69-2.12 7.3-2.82 14.9-3.55 22.44 59.55.07 119.1.03 178.65.06-.26-3.93-.57-7.9.27-11.78.52 4.23.79 8.49 1.22 12.74-60.39-.03-120.77-.04-181.16 0 .62-17.15 5.14-34.48 14.91-48.74z" fill="#2b0f3a"/><path d="m1170.48 740.59c4.46 4.96 11.01 8.03 17.65 8.5-.58 1.45-1.05 2.94-1.26 4.5.73.72 1.47 1.46 2.23 2.2 6.06.79 11.81 3.74 16.06 8.08 1.3 1.22.27 2.72-.18 4.08-9.47 2.97-19.55.57-28.99-1.37-4.34-1.16-9.84-2.25-11.92-6.72-1.43-7.18 3.36-13.25 6.41-19.27z" fill="#2b0f3a"/><path d="m1036.78 746.28c5.8 6.22 15.47 8.56 23.4 5.33-1.72 4.41-2.6 9.91-7.11 12.42-9.04.23-18.08-.09-27.11-.01-4.35-.35-9-.78-12.75-3.16-1.5-.81-1.24-2.51-1.35-3.91 5.71-4.89 13.82-4.51 20.74-6.46 1.69-1.07 2.8-2.8 4.18-4.21z" fill="#2b0f3a"/><path d="m1260.2 413.19c2.86 2.24 6.18 4.05 9.8 4.7 3.41.4 6.87.27 10.3.6-3.27.41-6.57.32-9.84.23 1.61 1.96 3.78 3.4 6.12 4.38 1.62.62 3.07-.87 4.5-1.43 2.31 5.17.07 10.8-2.01 15.64-2.72-.34-5.4-.85-8.05-1.47-2.04-2.79-4.79-4.89-7.61-6.82-.5-.04-1.5-.13-2-.18-1.1.63-2.19 1.28-3.25 1.93l-2.21 1.28c.05-6.54 2.44-12.68 4.25-18.86m.67 5.4c.89 1.11 2.51 1.99 3.93 2.11.61-1.97-3.01-4.29-3.93-2.11m-1.04 2.63c.83 1.62 2.38 3.09 4.37 2.41-1.02 1.68-1.81 3.54-.35 5.22.28-1.75.69-3.46 1.01-5.19-1.69-.95-2.77-3.29-5.03-2.44m9.13 1.63c-.52 1.85-.28 3.71.92 5.25 1.84.02 4.33.27 3.38-2.45l1.09-2.16c-.25.01-.76.04-1.01.06l.57-.14c-1.59-1.04-3.27-.92-4.95-.56z" fill="#f6ad83"/><path d="m1284.41 430.03c.97-2.09 4.14-2.99 5.57-.82.86 3.43-1.26 6.37-3.29 8.87-1.63.13-3.63.43-4.71-1.09.1-2.49 1.4-4.75 2.43-6.96z" fill="#f6ad83"/><path d="m1257.78 435.13c-.16-2.62 2.38-3.61 4.6-3.14 1.53 2.08 4.72 1.86 6.01 4.08-2.66.3-5.25-.34-7.58-1.59-.76.16-2.27.49-3.03.65z" fill="#f6ad83"/><path d="m1282.84 438.86c.34 2.2-.7 4.19-1.44 6.19-.89 3.33-1.58 6.75-3.25 9.8-6.05-4.4-13.87-4.69-20.22-8.47l.21-1.55c4.54 3.41 10.56 5.54 16.15 3.48 4.44-1.31 6.13-5.99 8.55-9.45z" fill="#f6ad83"/><path d="m1050.3 486.38c2.41-1.08 4.12-3.41 6.65-4.2 3.91.11 7.48 2.24 11.41 2.43 2.53.27 4.84-1.01 7.11-1.92.46.38.94.78 1.43 1.17.41 5.81.43 11.64-.04 17.45-1.21-.27-2.4-.51-3.59-.72-.57 1.1-1.14 2.2-1.71 3.31-1.07 1.47-1.93 3.3-3.65 4.1-3.59.42-7.09-.79-10.57-1.4-4.21-.95-8.6-1.07-12.72-2.36-2.94-1.07-4.45-3.96-5.25-6.79 4.93-1.06 10-1.68 14.83-3.14 1.68-.27.75-2.74-.25-3.33-3.71-.01-7.29 1.11-10.89 1.8 2.37-2.19 4.18-5.07 7.24-6.4z" fill="#f6ad83"/><path d="m1199.75 534.17c5.49-.37 10.91.8 15.91 3.05.47-.6 1.39-1.81 1.86-2.41 5.28.67 10.1 3.04 15.01 4.98-2.43 7.27-4.61 15.05-2.95 22.75-8.93 1.67-17.75-1.66-26.56-2.69-.08-1.59-.14-3.17-.18-4.75 1.98-.5 3.99-1 5.98-1.58-1.71-.57-3.38-1.1-5.06-1.63.12-1.21.33-2.4.64-3.56 2.55-1.12 5.39-1.23 8.09-1.84-2.87-.86-5.99-1.04-8.58-2.62.12-1.17.42-2.3.9-3.38.54-.1 1.62-.29 2.16-.39 2.68.57 5.78 1.78 7.3-1.48-2.88-1.84-6.25-2.44-9.52-3.1-.11-.03-.35-.09-.47-.12-1.57-.43-3.01-.85-4.53-1.23z" fill="#f6ad83"/><path d="m454.13 438.35c.15-.35.47-1.06.63-1.41 5 3.71 9.07 8.45 13.61 12.69 20.95 19.73 41.45 39.93 62.49 59.58 1.5 1.42 2.69 3.12 3.9 4.8-3.54.87-7.11 2.61-8.86 5.97-3.04 5.94-2.58 13.46.95 19.1 5.54 9.07 12.96 16.79 20.28 24.42-2.09 8.06-3.69 16.51-2.06 24.81.52-.15 1.57-.45 2.09-.6-.39-7.56-.17-15.14 1.47-22.56 3.87 3.8 7.65 7.68 11.59 11.4-13.04 15.27-21.97 34.41-24.03 54.47-.54 1.89 1.34 2.86 2.73 3.56.98-15.65 6.6-30.7 14.55-44.1 2.6-4.23 5.55-8.25 8.98-11.84 1.84 1.84 3.7 3.67 5.54 5.52-2.27 6.41-2.15 13.24-1.99 19.93.52.21 1.56.64 2.08.85.53-6.38.35-12.84 1.69-19.14 24.19 23.72 48.14 47.68 72.07 71.66-.86 1.51-1.72 3.03-2.69 4.49l-.04-1.58c-8.07 12.33-13.12 26.4-17.18 40.5-1.12 5.2-3.45 10.44-2.3 15.85-.23 3.48-.67 6.96-1.16 10.43-.35-1.14-.7-2.25-1.07-3.36-.35 3.71-.45 7.45-.46 11.19-93.77.06-187.54.09-281.31-.04-.42-7.88 1.51-15.9-.44-23.66.22-6.2 1.2-12.4 1.94-18.57 5.14-42.85 16.95-84.8 33.99-124.41l.39-.3c2.78-1.45 3.17-4.77 3.05-7.57 8.03-18.38 17.43-36.17 27.87-53.29 1.06-1.73 2.17-3.43 3.39-5.05l-.07 1.6c8.64-12.32 16.61-25.13 26.03-36.89 2.04-2.61 4.46-5.09 5.29-8.4l.07-.19.18-.1c2.71-.87 4.09-3.32 4.76-5.92 1.7-3.12 4.46-5.53 6.78-8.19l-.08 1.36c2.28-1.91 4.39-4.12 5.35-7.01m-5.04 110.71c-1.95 1.23-4.44 2.87-3.88 5.56-.71 1.17-1.35 2.39-1.96 3.63l.23-1.62c-2.56 2.41-3.59 5.9-4.83 9.08l1.21-.71c-.67 1.22-.84 2.62-1.04 3.98l-1.02-.01c6.62 3.55 13.79 6.1 20.95 8.38l-.86-1.24c2.05.78 4.1 1.57 6.12 2.43-2.4 1.41 3.12 3.8 3.54 1.61.97-1.9 1.86-3.84 2.64-5.81-2.99-1.39-6.07-2.53-9.14-3.68-.8-1.25.89-2.37 1.23-3.51 2.89-.72 5.84-1.3 8.84-1.15.09.44.26 1.3.34 1.73 1.56-.5 3.24-.78 4.65-1.66 1.43-1.93 2.28-4.22 3.2-6.43l-1.26.32.78-1.51c-4.85.31-9.69 1.13-14.18 3.03 1.47-5.29-2.51-10.35-7.39-11.93.2-.34.59-1.03.78-1.38-2.97-.07-6.29-.85-8.95.89m-17.55 33.48 1.28-.73c-.62 1.11-1.2 2.26-1.74 3.43l.32-1.84c-2.52 2.06-2.55 5.55-2.5 8.52.17 1.48-.14 3.38 1.36 4.32l-.09-1.53c1.68 3.27 4.53 5.86 7.85 7.41 5.09 2.44 10.99 4.05 16.59 2.5 8.24-3.46 11.79-15.98 5.3-22.62l1.62.56c-5.18-5.96-13.92-8.26-21.59-7.52-3.68 1.08-7.14 3.77-8.4 7.5m-5.31 23.68c-1.87 1.26-4.26 2.75-4.19 5.33-.18.37-.55 1.12-.73 1.49-1.08-2.41-3.76 2.77-1.32 2.98-.2.55-.61 1.65-.81 2.2l.07-1.69c-2.68 3.67-1.7 10.13 2.15 12.9l-.49-1.53c4.82 4.78 11.62 6.67 18.16 7.65 4.36.46 8.43-2.16 10.95-5.55l-.47 1.6c5.01-4.78 6.4-13.66 1.84-19.19-1.19-1.41-2.73-3.18-4.79-2.76-.22-.11-.65-.33-.87-.44l1.47.22c-1.83-2.17-4.72-2.77-7.28-3.59-4.42-1.19-9.51-2-13.69.38m-11.83 35.2c-2.8 5.36-3.9 11.42-5.48 17.23 9.89 2.04 19.68 4.54 29.48 6.98-.42.32-1.27.94-1.7 1.25 1.61-.06 3.29.12 4.87-.34 1.72-1.15 1.21-3.52 1.49-5.24l-.82.88c0-.55-.01-1.64-.01-2.19-3.14-1.71-7.03-1.74-10.41-2.98 1.53-4.87 3.95-10.86.61-15.49-4.14-5.49-14.32-6.76-18.03-.1z" fill="#ec8795"/><path d="m1248.44 459.57c2.75.11 4.71-2.33 7.19-3.23.33 3.28 2.08 6.27 2.29 9.54-2.7 7.74-4.08 15.95-4.08 24.15-.57 16.27 2.54 32.59 8.3 47.79-9.75-1.4-19.71-1.06-29.44.29-.32-19.65 2.65-39.59 10.93-57.55 2.7-6.01 5.55-12.27 10.57-16.72-1.89-1.48-3.78-2.94-5.76-4.27z" fill="#ec8795"/><path d="m1132.23 556.15c4.37-6.7 9.41-12.97 13.37-19.92 5.57 11.98 15.36 21.55 25.89 29.28 17.12 12.16 38.1 18.49 59.04 18.51-.87 13.3-3.85 26.56-2.35 39.93 1.15 8.93 4.01 17.97 10.05 24.85 8.52 9.78 20.33 15.64 30.87 22.88-5.61 9.48-12.54 18.14-19.96 26.25l.11-1.33c-2.29 1.94-4.25 4.26-5.34 7.09-.82 1.39-1.79 2.97-3.29 3.66l-1.09.31c-5.14 4.46-9.53 9.74-14.54 14.36-4.2 4.32-8.95 8.06-13.29 12.23-.03.35-.09 1.06-.12 1.41l-.02.28c-7.06 5.36-14.05 12.74-23.43 13.15-6.64-.47-13.19-3.54-17.65-8.5-1.22-1.39-2.32-2.97-2.7-4.79-.02-3.09.61-6.15 1.97-8.93 8.41-18.9 19.57-36.39 29.71-54.38 3.36-5.69 6.99-11.26 9.78-17.26 2.72-5.79 3-13.22-1.02-18.49-5.86-7.91-13.09-14.69-20.33-21.32-3.48-3.33-7.08-6.54-10.25-10.16-9.01 13.32-18.78 26.11-28.31 39.05-13.04 17.58-26.43 34.89-40.06 52.01-10.43 13.44-21.02 26.77-32.21 39.59-.79.9-1.53 1.84-2.38 2.67l-1.12-.28c-3.23 3.39-6.59 6.66-9.94 9.93l1.34-.03c-1.45 1.31-2.95 2.66-4.78 3.41-7.93 3.23-17.6.89-23.4-5.33-1.06-.98-1.48-2.39-2-3.65 2.31.8 1.22-2.84-.25-.83l-.37.28c.05-.51.15-1.53.19-2.03 1.2-1.62.98-3.65-.37-5.08-.41-6.86 3.48-12.82 6.06-18.89 8.54-17.26 18.03-34.03 27.14-51 20.51-36.99 41.73-73.62 65.05-108.93m48.61 44.66c-1.3 1.06-1.89 2.66-2.46 4.18 4.89-4.84 10.15-9.43 16.52-12.23.2-.44.6-1.31.79-1.75-5.45 2.42-10.43 5.82-14.85 9.8m20.4 26.49c.52.48.52.48 0 0z" fill="#ec8795"/><path d="m447.17 564.7c2.34-3.3 3.19-9.82 8.55-8.78.79.74 1.59 1.46 2.41 2.19.7 3.65-.99 7.06-2.83 10.09-2.66-1.28-5.39-2.4-8.13-3.5z" fill="#ec8795"/><path d="m1245.47 572.21c12.19 4.38 25.04 7.42 38.08 6.82 2.87 6.62 6.24 13.63 5.39 21.05-.85 4.07-5.18 5.57-8.87 5.67-8.25-.05-16.32-3.83-21.94-9.81l-.16-.41c-1.78-4.84-5.67-8.52-7.65-13.28l-.96.46-.11.05c-1.21-2.89-2.61-5.69-3.61-8.65-.04-.48-.12-1.43-.17-1.9z" fill="#ec8795"/><path d="m1234.31 583.73c1.97-.57 3.95-1.1 5.95-1.61.5 1.09 1.72 3.39 3.09 1.94.34.79.82 1.58.95 2.48.18 2.75 1.56 5.44 4.26 6.49l.33.2c.23.47.67 1.41.89 1.88.05.06.14.19.18.25 2.67 3.07 5.2 6.38 7.1 9.98 1.08 3.99 3.87 7.12 5.93 10.61 1.5 2.47 2.75 5.09 4.25 7.57.32.01.97.02 1.3.03l.24.01c.54 1.27 1.21 2.52 1.52 3.9.4 4.53 2.16 8.78 3.09 13.22.29-.06.87-.16 1.15-.22l.31-.05c.27 4.24 1.44 8.43 1.11 12.71-.58 5.47-2.06 10.92-5.07 15.58-10.31-7.06-21.94-12.7-30.16-22.36-6.74-7.83-8.8-18.37-9.71-28.37-.35-11.51 2.65-22.78 3.29-34.24z" fill="#ec8795"/><path d="m441.1 584.23c3.64-.75 7.02 2.12 10.72 1.28.71.37 1.44.75 2.16 1.17l-1.08-.16c.91 1.57 2.26 2.97 2.75 4.75-.05 1.95-.92 3.83-2.06 5.38-5.67 1.44-11.37-1.45-15.85-4.7.43-2.73.52-6.3 3.36-7.72z" fill="#ec8795"/><path d="m430.13 614.12c2.91.06 5.79.65 8.72.42 3.05.69 7.45 2.21 7.42 6.01.09 2.6-.57 5.49-2.57 7.29-2.51 1.86-5.65.31-8.39-.02l.09-.25c.1-.3.3-.89.4-1.18-2.87-1.04-6.04-1.74-8.33-3.88-1.44-2.92.16-6.57 2.66-8.39z" fill="#ec8795"/><path d="m416.92 653.58c.61-3.5 1.42-7.18 4.07-9.73 2.13.07 4.82-.07 5.99 2.14 2.1 3.09-.08 6.77-.81 9.96-2.99-1.12-6.12-1.78-9.25-2.37z" fill="#ec8795"/><path d="m1205.4 443.42c17.32-3.88 35.87-3.46 52.53 2.96 6.35 3.78 14.17 4.07 20.22 8.47 11.47 9.49 19.9 22.08 27.12 34.97 6.44 11.53 7.42 25.02 8.03 37.94.71 6.15.73 12.35.01 18.49-.5 8.53-1.99 17.59-7.69 24.32-5.18 6.54-14.02 8.97-22.07 8.46-13.04.6-25.89-2.44-38.08-6.82.05.47.13 1.42.17 1.9-.24 1.91-.51 3.83-.66 5.77-1.13.68-2.22 1.42-3.42 1.92-.33.08-.98.24-1.3.32-2 .51-3.98 1.04-5.95 1.61.75-6.21.27-12.46-.3-18.66-1.44-1.23-2.89-2.47-4.3-3.7 1.65 7.42 1.54 15.11.82 22.65-20.94-.02-41.92-6.35-59.04-18.51-10.53-7.73-20.32-17.3-25.89-29.28 1.46-2.78 2.86-5.6 4.46-8.3.3-.49.89-1.47 1.18-1.97 17.9 4.8 35.84 9.49 53.88 13.74l-.31.79c-.48 1.08-.78 2.21-.9 3.38 2.59 1.58 5.71 1.76 8.58 2.62-2.7.61-5.54.72-8.09 1.84-.31 1.16-.52 2.35-.64 3.56 1.68.53 3.35 1.06 5.06 1.63-1.99.58-4 1.08-5.98 1.58.04 1.58.1 3.16.18 4.75 8.81 1.03 17.63 4.36 26.56 2.69-1.66-7.7.52-15.48 2.95-22.75-4.91-1.94-9.73-4.31-15.01-4.98-.47.6-1.39 1.81-1.86 2.41-5-2.25-10.42-3.42-15.91-3.05-15.28-3.54-30.5-7.41-45.6-11.66 3.35-6.9 7.6-13.33 11.76-19.76-9.41 3.06-19.48 3.15-29.28 3.36-11.76.08-23.51-.24-35.26-.08-4.49-.65-9.02-.88-13.47-1.65-3.75-.81-7.37-2.06-11.04-3.07.47-5.81.45-11.64.04-17.45-.01-.51-.03-1.54-.04-2.06 10.69-3.82 21.82-6.29 32.73-9.44 9.89-2.62 19.83-5.07 29.73-7.64 1.88-.48 3.8-.88 5.7-1.36 19.94-7.12 39.36-16.29 60.38-19.94m43.04 16.15c1.98 1.33 3.87 2.79 5.76 4.27-5.02 4.45-7.87 10.71-10.57 16.72-8.28 17.96-11.25 37.9-10.93 57.55 9.73-1.35 19.69-1.69 29.44-.29-5.76-15.2-8.87-31.52-8.3-47.79 0-8.2 1.38-16.41 4.08-24.15-.21-3.27-1.96-6.26-2.29-9.54-2.48.9-4.44 3.34-7.19 3.23m21.93 71.22c-.14 2.69-.21 5.43-1.1 8.01 1.25.01 2.51.03 3.79.05-.69-2.75-1.06-5.67-2.69-8.06z" fill="#68a6d3"/><path d="m546.89 533.96c1.73.41 3.27 1.29 4.64 2.42 10.55 8.19 21.15 16.33 31.89 24.28.81.62 1.38 1.43 1.7 2.44-1.91-.68-3.6-1.8-5.14-3.06-8.95-7.15-18.42-13.61-27.41-20.69-2.02-1.65-4.49-2.96-5.68-5.39z" fill="#6a3f75"/><path d="m739.96 648.45c3.48-.5 6.97-1.35 10.49-1.34 4.04.94 8.21.97 12.25.01 14.48 1 28.62 6.21 40.43 14.65 22.2 15.81 36.41 41.65 39.63 68.52-.84 3.88-.53 7.85-.27 11.78-59.55-.03-119.1.01-178.65-.06.73-7.54 1.43-15.14 3.55-22.44 2.19-8.37 6.02-16.18 10.26-23.69.02-.4.06-1.2.08-1.59l.03-.73.63.56c13.04 12.09 25.2 25.12 38.23 37.22 5.37 5.2 13.37 5.31 20.34 4.48 8.27-1.55 15.35-8.09 17.63-16.19 1.9-5.88 1.24-12.4-1.22-18.01-2.52-5.56-8.1-8.63-12.41-12.63-9.98-8.98-20.32-17.58-30.2-26.68 8.89-6.44 19.24-10.84 30.05-12.77-.21-.27-.63-.82-.85-1.09z" fill="#6a3f75"/></svg>