<svg height="40" viewBox="0 0 40 40" width="40" xmlns:xlink="https://www.w3.org/1999/xlink"><mask id="a" fill="#fff"><path d="m0 0h23.333v23.333h-23.333z" fill="#fff" fill-rule="evenodd"/></mask><g fill="none" fill-rule="evenodd"><circle cx="20" cy="20" fill="#3547a4" fill-rule="nonzero" r="20"/><path d="m22.361 7.778a1.95 1.95 0 0 1 -1.944 1.944c-.175 0-.34-.02-.496-.068l-3.461 3.452c.048.155.068.33.068.505a1.95 1.95 0 0 1 -1.945 1.945 1.95 1.95 0 0 1 -1.944-1.945c0-.175.02-.35.068-.505l-2.48-2.48c-.155.049-.33.068-.505.068s-.35-.019-.505-.068l-4.424 4.434c.049.155.068.32.068.496a1.95 1.95 0 0 1 -1.944 1.944 1.95 1.95 0 0 1 -1.945-1.944 1.95 1.95 0 0 1 1.945-1.945c.175 0 .34.02.496.068l4.433-4.423a1.717 1.717 0 0 1 -.068-.506 1.95 1.95 0 0 1 1.944-1.944 1.95 1.95 0 0 1 1.945 1.944c0 .175-.02.35-.068.506l2.479 2.479c.155-.049.33-.068.505-.068s.35.02.506.068l3.451-3.461a1.652 1.652 0 0 1 -.068-.496 1.95 1.95 0 0 1 1.945-1.945 1.95 1.95 0 0 1 1.944 1.945z" fill="#fff" mask="url(#a)" transform="translate(8.333 8.333)"/></g></svg>