<svg height="40" viewBox="0 0 40 40" width="40" ><g fill="none" fill-rule="evenodd"><circle cx="20" cy="20" fill="#3547a4" fill-rule="nonzero" r="20"/><path d="m8.333 8.333h23.334v23.334h-23.334z"/><path d="m26.806 12.222h-.973v-.972a.975.975 0 0 0 -.972-.972.975.975 0 0 0 -.972.972v.972h-7.779v-.972a.975.975 0 0 0 -.972-.972.975.975 0 0 0 -.972.972v.972h-.973c-1.079 0-1.934.875-1.934 1.945l-.01 13.61c0 1.07.865 1.945 1.944 1.945h13.612a1.95 1.95 0 0 0 1.944-1.944v-13.611a1.95 1.95 0 0 0 -1.944-1.945zm0 14.584a.975.975 0 0 1 -.973.972h-11.666a.975.975 0 0 1 -.973-.972v-9.723h13.612zm-11.667-7.778h1.944v1.944h-1.943v-1.944zm3.889 0h1.944v1.944h-1.944zm3.889 0h1.944v1.944h-1.944z" fill="#fff" fill-rule="nonzero"/></g></svg>