<svg height="18" viewBox="0 0 18 18" width="18"><g fill="none" fill-rule="evenodd"><path d="m-5-5h28v28h-28z"/><path d="m2.467 5.733h.233c.898 0 1.633.735 1.633 1.634v8.166c0 .899-.735 1.634-1.633 1.634h-.233a1.638 1.638 0 0 1 -1.634-1.634v-8.166c0-.899.735-1.634 1.634-1.634zm6.533-4.9c.898 0 1.633.735 1.633 1.634v13.066c0 .899-.735 1.634-1.633 1.634a1.638 1.638 0 0 1 -1.633-1.634v-13.066c0-.899.735-1.634 1.633-1.634zm6.533 9.334c.899 0 1.634.735 1.634 1.633v3.733c0 .899-.735 1.634-1.634 1.634a1.638 1.638 0 0 1 -1.633-1.634v-3.733c0-.898.735-1.633 1.633-1.633z" fill="#b8c4ce" fill-rule="nonzero"/></g></svg>