<svg height="10" viewBox="0 0 10 10" width="10" xmlns:xlink="https://www.w3.org/1999/xlink"><defs><path id="a" d="m8.867.473a.664.664 0 0 0 -.94 0l-3.26 3.254-3.26-3.26a.664.664 0 1 0 -.94.94l3.26 3.26-3.26 3.26a.664.664 0 1 0 .94.94l3.26-3.26 3.26 3.26a.664.664 0 1 0 .94-.94l-3.26-3.26 3.26-3.26a.668.668 0 0 0 0-.934z"/><mask id="b" fill="#fff"><use fill="#fff" fill-rule="evenodd" xlink:href="#a"/></mask></defs><g fill="none" fill-rule="evenodd" transform="translate(.333 .333)"><use fill="#000" fill-rule="nonzero" xlink:href="#a"/><g fill="#fff" mask="url(#b)"><path d="m-3.333-3.333h16v16h-16z"/></g></g></svg>