<svg fill="none" height="18" viewBox="0 0 18 18" width="18" xmlns="http://www.w3.org/2000/svg"><path d="m0 0h18v18h-18z" fill="#f0f3fa"/><g clip-rule="evenodd" fill="#007ec4" fill-rule="evenodd"><path d="m3 7h-1v.984h1v3.016h1v-4h-.00001z"/><path d="m5 7h-1v.984h1v3.016h1v-3.016-.984z"/><path d="m8.49999 7c.69038 0 1.25001.43668 1.25001.97533 0 .28475-.15638.54101-.40579.71932.39589.22718.65579.6097.65579 1.04329 0 .69696-.67157 1.26206-1.5 1.26206-.82841 0-1.5-.5651-1.5-1.26206 0-.43358.25991-.8161.6558-1.04329-.24941-.17831-.4058-.43457-.4058-.71932 0-.53865.55964-.97533 1.24999-.97533zm0 .49189c.27615 0 .5.22026.5.492 0 .27173-.22385.492-.5.492s-.5-.22027-.5-.492c0-.27174.22385-.492.5-.492zm.00001 1.50811c.27615 0 .5.22385.5.5s-.22385.5-.5.5-.5-.22385-.5-.5.22385-.5.5-.5z"/><path d="m11.5 7c.6904 0 1.25.43668 1.25.97533 0 .28475-.1564.54101-.4058.71932.3959.22718.6558.6097.6558 1.04329 0 .69696-.6716 1.26206-1.5 1.26206s-1.5-.5651-1.5-1.26206c0-.43358.2599-.8161.6558-1.04329-.2494-.17831-.4058-.43457-.4058-.71932 0-.53865.5596-.97533 1.25-.97533zm0 .49189c.2761 0 .5.22026.5.492 0 .27173-.2239.492-.5.492-.2762 0-.5-.22027-.5-.492 0-.27174.2238-.492.5-.492zm0 1.50811c.2762 0 .5.22385.5.5s-.2238.5-.5.5-.5-.22385-.5-.5.2238-.5.5-.5z"/><path d="m16 8.968c0-1.0869-.6716-1.968-1.5-1.968s-1.5.8811-1.5 1.968.6716 1.968 1.5 1.968 1.5-.8811 1.5-1.968zm-.9059-.00005c0-.62742-.266-1.13604-.5941-1.13604-.3282 0-.5941.50862-.5941 1.13604 0 .62741.2659 1.13605.5941 1.13605.3281 0 .5941-.50864.5941-1.13605z"/></g></svg>