<svg height="18" width="18" xmlns="http://www.w3.org/2000/svg"><path d="m0 0h18v18h-18z" fill="#f0f3fa"/><path d="m5.5 4.5h7a1 1 0 0 1 1 1v7a1 1 0 0 1 -1 1h-7a1 1 0 0 1 -1-1v-7a1 1 0 0 1 1-1zm-1.5 1c0-.83.67-1.5 1.5-1.5h7c.83 0 1.5.67 1.5 1.5v7c0 .83-.67 1.5-1.5 1.5h-7a1.5 1.5 0 0 1 -1.5-1.5zm7.33 2.18v-1.64a6.84 6.84 0 0 0 -1.93-.34c-1.07-.01-3.4.42-3.4 3.24 0 2.83 2.14 3.37 3.62 3.36.34 0 1.14-.1 1.5-.22.12-.05.38-.19.38-.53v-2.13l.5-.09v-.33h-2v.33l.5.09v1.82c0 .19-.02.4-.25.4h-.77c-.78 0-2.48-1.02-2.48-2.92 0-.9.35-2.44 2.72-2.36.96.03 1.28.58 1.28 1.32z" fill="#4f4f4f" fill-rule="evenodd"/></svg>