<svg height="18" viewBox="0 0 18 18" width="18" xmlns="http://www.w3.org/2000/svg"><path d="m0 0h18v18h-18z" fill="#f0f3fa"/><path d="m6.1 11.85c-.25.47-.02 1.04.49 1.28.5.23 1.13.02 1.38-.45l.43-.78-.88-2.69-1.41 2.64zm5.8-8.75a1.08 1.08 0 0 0 -1.38.44l-1.67 3.16.88 2.7 2.66-5a.93.93 0 0 0 -.48-1.3z" fill="#92c746"/><path d="m9.2 14.33c.16.5.76.78 1.3.63a1 1 0 0 0 .7-1.2l-1.44-4.4-1.36 2.54zm-.94-9.4c-.17-.5-.77-.79-1.3-.66a1 1 0 0 0 -.71 1.2l1.24 3.74 1.36-2.53-.6-1.75z" fill="#d50f67"/><path d="m7.5 9.21.9 2.72 1.33-2.54-.88-2.69z" fill="#3ba510"/></svg>