<svg height="18" viewBox="0 0 18 18" width="18" xmlns="http://www.w3.org/2000/svg"><path d="m0 0h18v18h-18z" fill="#f0f3fa"/><path d="m6.26 5c-2.73 0-3.31 2-3.26 3h2.08c.06-.93.56-1.18.8-1.23.3-.06.9-.02.97.65.06.67-.7 1.64-1.1 2.04l2.12.47v.2l-3.62.58-1.25.71v1.58h4.38l.36-1.8c.04-.1.1-.35-.1-.43-.23-.09-.18-.18 0-.23l.7-.14v2.6h.36v-2.6l.66.14c.24.04.22.16 0 .23-.18.06-.17.21-.14.28l.36 1.95h3.21a2.95 2.95 0 0 0 2.21-2.78c0-2.4-2.06-2.8-3.09-2.7l1.87-2.52h-2.54l-2.54 3.67c1.1-2.83-1.17-3.63-2.44-3.67zm6.62 5.37c0 .63-.55 1.14-1.23 1.14-.69 0-1.24-.5-1.24-1.14 0-.62.55-1.13 1.24-1.13.68 0 1.23.5 1.23 1.13zm-4.95.04v-.63l-.1.03v-.07l.58-.23v-.18l.05-.09h.06l.06.09v.18l.58.23v.07l-.1-.03v.63l-.56-.09zm.47-.64v.4l-.32.1v-.4zm.19.4v-.4l.32.1v.4z" fill="#fd6a02"/></svg>