<svg height="18" width="18" xmlns="http://www.w3.org/2000/svg"><path d="m0 0h18v18h-18z" fill="#1576d4"/><g fill="#fff"><path d="m5.828 5c-2.334 0-2.828 1.742-2.828 2.56h2.065c0-.28.09-.725.763-.725.755 0 .966.699.696 1.058s-2.91 2.474-3.382 3.192.227 1.915 1.192 1.915h6.166c-1.006-.463-1.597-1.541-1.709-2h-3.03s1.28-.813 2.2-1.71c.405-.472.658-.937.673-1.397s-.005-.912-.202-1.337c-.4-.864-1.31-1.556-2.604-1.556z"/><path d="m11 5h-2v5.486c0 .898 1.04 2.514 3.104 2.514 2.21 0 2.896-1.676 2.896-2.514v-5.486h-2v5.486c0 .274-.268.738-1 .738s-1-.464-1-.738z"/></g></svg>