<svg height="18" viewBox="0 0 18 18" width="18" xmlns="http://www.w3.org/2000/svg" xmlns:xlink="http://www.w3.org/1999/xlink"><linearGradient id="a" gradientUnits="userSpaceOnUse" x1="3" x2="7.61" y1="11.89" y2="12.07"><stop offset="0" stop-color="#30b34b"/><stop offset=".49" stop-color="#00bce9"/><stop offset="1" stop-color="#01427c"/></linearGradient><path d="m0 0h18v18h-18z" fill="#f0f3fa"/><path d="m13.33 5h.4l.2.02c.21.01.41.08.6.2.38.28.48.85.47 1.3 0 .01-.02.06-.04.06h-.87c-.02 0-.03-.01-.03-.03.03-.5-.31-.72-.75-.74-.63-.02-1.19.37-1.5.9-.26.45-.68 1.5-.32 1.99.2.25.45.4.77.36a2.9 2.9 0 0 0 1.3-.63l-.94-.05c-.01 0-.02-.01-.02-.03l.07-.65v-.02l.02-.01h2.16l.01.02-.3 2.18c0 .02 0 .02-.02.02h-.64l-.01-.02.1-.75a.01.01 0 0 0 -.02-.01c-1.1.79-2.24 1.5-3.42 2.14-.94.5-1.92.93-2.95 1.26v-.94a14.06 14.06 0 0 0 3.75-1.74c-.75-.23-1.09-.9-1-1.65a3.68 3.68 0 0 1 1.8-2.86c.35-.19.74-.3 1.18-.32z" fill="#01427c"/><path d="m7.68 7.43.23-.1c.27-.11.57-.14.88-.13.69.02 1.37.4 1.33 1.17-.05.87-.7 1.6-1.46 1.9-.4.16-.86.2-1.3.17a1.69 1.69 0 0 1 -1-.37c-.28-.23-.38-.64-.31-1.07-.01 0 0 0 0 0h1.13c0-.02.01 0 0 0-.03.3.12.62.44.66.45.06.8-.08 1.04-.4.3-.41.43-1.2-.27-1.28-.39-.05-.7 0-.95.26a.1.1 0 0 1 -.05.02h-.95a.01.01 0 0 1 -.01-.02l1.14-2.78v-.01h3.11c.02 0 .03 0 .02.02l-.24.84v.02h-2.3c-.02 0-.03.01-.03.03l-.47 1.04c0 .03 0 .04.02.02z" fill="#01427c"/><path d="m4.2 12.93a1.86 1.86 0 0 1 -.46-.16 1.48 1.48 0 0 1 -.61-.5c-.4-.57.2-1.56.57-2.04a10.94 10.94 0 0 1 1.6-1.78c-.47.46-.86.93-1.17 1.43-.17.28-.37.71-.32 1.06a.7.7 0 0 0 .4.56l.22.1.38.14a4.4 4.4 0 0 0 1.67.06l.26-.04.86-.2v.95l-.88.25-.24.06a5.7 5.7 0 0 1 -1.66.18l-.4-.03-.23-.04z" fill="url(#a)"/></svg>