<svg height="18" viewBox="0 0 18 18" width="18" xmlns="http://www.w3.org/2000/svg" xmlns:xlink="http://www.w3.org/1999/xlink"><linearGradient id="a" gradientUnits="userSpaceOnUse" x1="3.35" x2="21.9" y1="3.12" y2="24.43"><stop offset="0" stop-color="#1a1e21"/><stop offset="1" stop-color="#06060a"/></linearGradient><linearGradient id="b" gradientUnits="userSpaceOnUse" x1="3" x2="7.94" y1="7.35" y2="7.35"><stop offset="0" stop-color="#95aacc"/><stop offset=".06" stop-color="#adbfdb"/><stop offset=".12" stop-color="#c2d0e7"/><stop offset=".19" stop-color="#cedbef"/><stop offset=".32" stop-color="#d7e2f3"/><stop offset=".4" stop-color="#e3ebf6"/><stop offset=".48" stop-color="#f8fafc"/><stop offset=".52" stop-color="#f8fafc"/><stop offset=".6" stop-color="#e3ebf6"/><stop offset=".68" stop-color="#d7e2f3"/><stop offset=".81" stop-color="#cedbef"/></linearGradient><linearGradient id="c"><stop offset=".4" stop-color="#060a2a" stop-opacity="0"/><stop offset=".59" stop-color="#060a2a" stop-opacity=".14"/><stop offset=".83" stop-color="#060a2a" stop-opacity=".53"/><stop offset="1" stop-color="#060a2a"/></linearGradient><linearGradient id="d" gradientUnits="userSpaceOnUse" x1="3.38" x2="4.61" xlink:href="#c" y1="7.03" y2="8.87"/><linearGradient id="e"><stop offset="0" stop-color="#95aacc"/><stop offset=".06" stop-color="#adbfdb"/><stop offset=".12" stop-color="#c2d0e7"/><stop offset=".19" stop-color="#cedbef"/><stop offset=".32" stop-color="#d7e2f3"/><stop offset=".4" stop-color="#e3ebf6"/><stop offset=".48" stop-color="#f8fafc"/><stop offset=".52" stop-color="#f8fafc"/><stop offset=".6" stop-color="#e3ebf6"/><stop offset=".68" stop-color="#d7e2f3"/><stop offset=".75" stop-color="#d3dff2"/><stop offset=".81" stop-color="#cedbef"/></linearGradient><linearGradient id="f" gradientUnits="userSpaceOnUse" x1="3" x2="7.94" xlink:href="#e" y1="10.64" y2="10.64"/><linearGradient id="g"><stop offset=".45" stop-color="#060a2a" stop-opacity="0"/><stop offset=".63" stop-color="#060a2a" stop-opacity=".14"/><stop offset=".88" stop-color="#060a2a" stop-opacity=".53"/></linearGradient><linearGradient id="h" gradientUnits="userSpaceOnUse" x1="3" x2="7.94" xlink:href="#g" y1="7.35" y2="7.35"/><linearGradient id="i"><stop offset=".4" stop-color="#060a2a" stop-opacity="0"/><stop offset=".59" stop-color="#060a2a" stop-opacity=".14"/><stop offset=".83" stop-color="#060a2a" stop-opacity=".53"/><stop offset="1" stop-color="#060a2a" stop-opacity=".9"/></linearGradient><linearGradient id="j" gradientUnits="userSpaceOnUse" x1="8.08" x2="5.95" xlink:href="#i" y1="11.48" y2="9.25"/><linearGradient id="k" gradientUnits="userSpaceOnUse" x1="6.53" x2="11.47" y1="7.35" y2="7.35"><stop offset="0" stop-color="#95aacc"/><stop offset=".06" stop-color="#adbfdb"/><stop offset=".12" stop-color="#c2d0e7"/><stop offset=".19" stop-color="#cedbef"/><stop offset=".32" stop-color="#d7e2f3"/><stop offset=".4" stop-color="#e3ebf6"/><stop offset=".48" stop-color="#f8fafc"/><stop offset=".52" stop-color="#f8fafc"/><stop offset=".6" stop-color="#e3ebf6"/><stop offset=".68" stop-color="#d7e2f3"/><stop offset=".75" stop-color="#d3dff2"/><stop offset=".88" stop-color="#c2d0e7"/></linearGradient><linearGradient id="l" gradientUnits="userSpaceOnUse" x1="6.91" x2="8.14" y1="7.03" y2="8.87"><stop offset=".4" stop-color="#060a2a" stop-opacity="0"/><stop offset=".59" stop-color="#060a2a" stop-opacity=".14"/><stop offset=".83" stop-color="#060a2a" stop-opacity=".53"/></linearGradient><linearGradient id="m" gradientUnits="userSpaceOnUse" x1="6.53" x2="11.47" xlink:href="#e" y1="10.64" y2="10.64"/><linearGradient id="n" gradientUnits="userSpaceOnUse" x1="6.53" x2="11.47" xlink:href="#g" y1="7.35" y2="7.35"/><linearGradient id="o" gradientUnits="userSpaceOnUse" x1="11.61" x2="9.49" xlink:href="#i" y1="11.48" y2="9.25"/><linearGradient id="p"><stop offset=".06" stop-color="#adbfdb"/><stop offset=".12" stop-color="#c2d0e7"/><stop offset=".19" stop-color="#cedbef"/><stop offset=".25" stop-color="#d3dff2"/><stop offset=".32" stop-color="#d7e2f3"/><stop offset=".4" stop-color="#e3ebf6"/><stop offset=".48" stop-color="#f8fafc"/><stop offset=".52" stop-color="#f8fafc"/><stop offset=".6" stop-color="#e3ebf6"/><stop offset=".68" stop-color="#d7e2f3"/><stop offset=".75" stop-color="#d3dff2"/><stop offset=".81" stop-color="#cedbef"/><stop offset=".88" stop-color="#c2d0e7"/><stop offset="1" stop-color="#95aacc"/></linearGradient><linearGradient id="q" gradientUnits="userSpaceOnUse" x1="10.06" x2="15" xlink:href="#p" y1="7.35" y2="7.35"/><linearGradient id="r" gradientUnits="userSpaceOnUse" x1="10.45" x2="11.67" xlink:href="#c" y1="7.03" y2="8.87"/><linearGradient id="s" gradientUnits="userSpaceOnUse" x1="10.07" x2="15" xlink:href="#p" y1="10.64" y2="10.64"/><linearGradient id="t" gradientUnits="userSpaceOnUse" x1="10.06" x2="15" y1="7.35" y2="7.35"><stop offset=".45" stop-color="#060a2a" stop-opacity="0"/><stop offset=".63" stop-color="#060a2a" stop-opacity=".14"/><stop offset=".88" stop-color="#060a2a" stop-opacity=".53"/><stop offset="1" stop-color="#060a2a" stop-opacity=".8"/></linearGradient><linearGradient id="u" gradientUnits="userSpaceOnUse" x1="15.15" x2="13.02" xlink:href="#i" y1="11.48" y2="9.25"/><path d="m0 0h18v18h-18z" fill="url(#a)"/><path d="m7.93 7.48v-.19a2.2 2.2 0 0 0 -.71-1.6 2.44 2.44 0 0 0 -1.75-.69c-.68 0-1.26.23-1.75.69a2.22 2.22 0 0 0 -.72 1.66c0 .65.24 1.2.72 1.67.49.46 1.06.68 1.75.68a2.43 2.43 0 0 0 2.46-2.22zm-2.46-1.08c.27 0 .52.1.72.28.19.18.28.4.28.66s-.1.49-.28.67c-.2.18-.45.27-.72.27s-.5-.1-.69-.27a.88.88 0 0 1 -.29-.67c0-.26.1-.48.3-.66.19-.19.4-.28.68-.28z" fill="url(#b)"/><path d="m5.47 8.29c-.28 0-.5-.1-.7-.27a.88.88 0 0 1 -.28-.67v-.07h-1.49v.07c0 .64.24 1.2.7 1.65l.02-.02a2.45 2.45 0 0 1 1.75-.7z" fill="url(#d)"/><path d="m3.72 8.98a2.22 2.22 0 0 0 -.72 1.66c0 .65.24 1.2.72 1.67.49.46 1.07.69 1.75.69.69 0 1.26-.23 1.75-.69.45-.43.69-.94.71-1.54v-.18a2.21 2.21 0 0 0 -.71-1.6 2.41 2.41 0 0 0 -1.74-.7c-.68 0-1.27.23-1.76.69zm1.76.72c.27 0 .5.1.7.28s.3.4.3.66-.1.48-.3.67c-.2.18-.44.27-.71.27-.28 0-.5-.1-.7-.27a.89.89 0 0 1 -.28-.67c0-.26.1-.48.29-.66.2-.19.43-.28.7-.28z" fill="url(#f)"/><path d="m7.93 7.48v-.19a2.2 2.2 0 0 0 -.71-1.6 2.44 2.44 0 0 0 -1.75-.69c-.68 0-1.26.23-1.75.69a2.22 2.22 0 0 0 -.72 1.66c0 .65.24 1.2.72 1.67.49.46 1.06.68 1.75.68a2.43 2.43 0 0 0 2.46-2.22zm-2.46-1.08c.27 0 .52.1.72.28.19.18.28.4.28.66s-.1.49-.28.67c-.2.18-.45.27-.72.27s-.5-.1-.69-.27a.88.88 0 0 1 -.29-.67c0-.26.1-.48.3-.66.19-.19.4-.28.68-.28z" fill="url(#h)"/><path d="m7.24 9-.02.02c-.49.46-1.06.68-1.74.68.28 0 .51.1.7.28.2.18.3.4.3.66s-.1.48-.3.67l-.01.02 1.04.99v-.01c.46-.43.7-.94.72-1.54v-.19a2.2 2.2 0 0 0 -.69-1.58z" fill="url(#j)"/><path d="m11.47 7.48v-.19a2.22 2.22 0 0 0 -.72-1.6 2.42 2.42 0 0 0 -1.75-.69c-.68 0-1.26.23-1.74.69a2.22 2.22 0 0 0 -.73 1.66 2.43 2.43 0 0 0 2.47 2.35c.69 0 1.26-.22 1.75-.68.45-.43.69-.95.72-1.54zm-2.47-1.08c.27 0 .52.1.72.28.19.18.29.4.29.66s-.1.49-.3.67c-.19.18-.44.27-.7.27-.28 0-.5-.1-.7-.27a.88.88 0 0 1 -.29-.67c0-.26.1-.48.3-.66.19-.19.4-.28.68-.28z" fill="url(#k)"/><path d="m9 8.29c-.27 0-.5-.1-.69-.27a.88.88 0 0 1 -.28-.74h-1.5v.07c0 .64.24 1.2.7 1.65l.03-.02a2.45 2.45 0 0 1 1.74-.7z" fill="url(#l)"/><path d="m7.26 8.98a2.22 2.22 0 0 0 -.73 1.66c0 .66.25 1.2.73 1.67.48.46 1.06.69 1.74.69.69 0 1.26-.23 1.75-.7.45-.42.69-.93.72-1.53v-.19a2.22 2.22 0 0 0 -.72-1.6 2.41 2.41 0 0 0 -1.75-.7c-.68 0-1.27.24-1.75.7zm1.74.72c.28 0 .51.1.7.28.2.18.3.4.3.66s-.1.48-.3.67c-.19.18-.44.27-.7.27-.28 0-.5-.1-.7-.27a.89.89 0 0 1 -.29-.67c0-.26.1-.48.3-.66.19-.19.42-.28.7-.28z" fill="url(#m)"/><path d="m11.47 7.48v-.19a2.22 2.22 0 0 0 -.72-1.6 2.42 2.42 0 0 0 -1.75-.69c-.68 0-1.26.23-1.74.69a2.22 2.22 0 0 0 -.73 1.66 2.43 2.43 0 0 0 2.47 2.35c.69 0 1.26-.22 1.75-.68.45-.43.69-.95.72-1.54zm-2.47-1.08c.27 0 .52.1.72.28.19.18.29.4.29.66s-.1.49-.3.67c-.19.18-.44.27-.7.27-.28 0-.5-.1-.7-.27a.88.88 0 0 1 -.29-.67c0-.26.1-.48.3-.66.19-.19.4-.28.68-.28z" fill="url(#n)"/><path d="m10.77 9-.02.02c-.48.46-1.06.68-1.74.68.28 0 .51.1.7.28.2.18.3.4.3.66s-.1.48-.3.67l-.01.02 1.04.99v-.01c.46-.43.7-.94.73-1.54v-.19a2.2 2.2 0 0 0 -.7-1.58z" fill="url(#o)"/><path d="m15 7.48v-.19a2.22 2.22 0 0 0 -.72-1.6 2.44 2.44 0 0 0 -1.75-.69c-.68 0-1.26.23-1.74.69a2.22 2.22 0 0 0 -.72 1.66c0 .66.24 1.2.72 1.67.48.46 1.06.68 1.74.68.69 0 1.26-.22 1.75-.68.45-.43.69-.95.72-1.54zm-2.47-1.08c.28 0 .52.1.72.28s.29.4.29.66-.1.49-.3.67c-.19.18-.43.27-.7.27-.28 0-.5-.1-.7-.27a.88.88 0 0 1 -.28-.67.95.95 0 0 1 .98-.94z" fill="url(#q)"/><path d="m12.53 8.29c-.27 0-.5-.1-.69-.27a.88.88 0 0 1 -.28-.67v-.07h-1.5v.07c0 .64.24 1.2.71 1.65l.02-.02a2.44 2.44 0 0 1 1.74-.7z" fill="url(#r)"/><path d="m10.79 8.98a2.22 2.22 0 0 0 -.72 1.66c0 .66.24 1.2.72 1.67.48.46 1.06.69 1.74.69.69 0 1.26-.23 1.75-.7.45-.42.69-.93.72-1.53v-.19a2.22 2.22 0 0 0 -.72-1.6 2.41 2.41 0 0 0 -1.74-.7c-.68 0-1.27.24-1.75.7zm1.76.72c.27 0 .5.1.7.28s.29.4.29.66-.1.48-.3.67c-.19.18-.43.27-.7.27-.28 0-.5-.1-.7-.27a.89.89 0 0 1 -.28-.67c0-.26.1-.48.28-.66.2-.19.43-.28.7-.28z" fill="url(#s)"/><path d="m15 7.48v-.19a2.22 2.22 0 0 0 -.72-1.6 2.44 2.44 0 0 0 -1.75-.69c-.68 0-1.26.23-1.74.69a2.22 2.22 0 0 0 -.72 1.66c0 .66.24 1.2.72 1.67.48.46 1.06.68 1.74.68.69 0 1.26-.22 1.75-.68.45-.43.69-.95.72-1.54zm-2.47-1.08c.28 0 .52.1.72.28s.29.4.29.66-.1.49-.3.67c-.19.18-.43.27-.7.27-.28 0-.5-.1-.7-.27a.88.88 0 0 1 -.28-.67.95.95 0 0 1 .98-.94z" fill="url(#t)" opacity=".5"/><path d="m14.3 9-.02.02c-.48.46-1.06.68-1.73.68.27 0 .5.1.7.28s.29.4.29.66-.1.48-.3.67v.02l1.03.99v-.01c.46-.43.7-.94.73-1.54v-.19a2.2 2.2 0 0 0 -.7-1.58z" fill="url(#u)"/></svg>