<svg height="18" viewBox="0 0 18 18" width="18" xmlns="http://www.w3.org/2000/svg"><path d="m0 0h18v18h-18z" fill="#f0f3fa"/><g fill="#0156a1"><path d="m6.52 7v4h-1.52v-.38h-.01c-.14.14-.4.39-.87.38-.62-.01-2.07-.33-2.12-2.3-.01-.4.08-1.3.6-1.7zm-2.26 2.6c.47 0 .85-.37.85-.82a.84.84 0 0 0 -.85-.83.84.84 0 0 0 -.85.83c0 .45.38.82.85.82z"/><path d="m11 7v4h-1.4v-.38c-.14.13-.5.39-1 .38-.6-.01-2.05-.33-2.1-2.3-.01-.4.08-1.3.6-1.7zm-2.25 2.61c.47 0 .84-.37.84-.82a.83.83 0 0 0 -.84-.83.83.83 0 0 0 -.84.83c0 .45.37.82.84.82z"/><path d="m11.33 7h3.67v3.48c-.42.38-.94.52-1.36.52-.49 0-.77-.14-.9-.27v.5a.8.8 0 0 0 -1.41.03zm0 5.02v.98h1.4v-.96a.8.8 0 0 1 -1.4-.02zm2.26-2.44a.85.85 0 0 1 -.85-.85c0-.46.38-.84.85-.84s.84.38.84.84c0 .47-.37.85-.84.85z" fill-rule="evenodd"/></g><circle cx="12.03" cy="11.65" fill="#00988d" r=".71"/></svg>