<svg height="18" width="18" xmlns="http://www.w3.org/2000/svg"><path d="m0 0h18v18h-18z" fill="#003865"/><path d="m3.654 8.854c.415-2.038 1.032-3.114 1.289-3.397 1.27 0 3.686 1.06 3.752 1.085s.09.06.09.104c0 .018-.038.034-.067.047l-4.833 2.25c-.097.047-.148.032-.192.024s-.045-.078-.04-.113zm2.862-4.079c2.113-.74 3.436-.818 3.833-.766.664.994.94 3.435.95 3.5.011.064-.008.102-.05.125-.016.01-.05-.012-.079-.028l-4.615-2.604c-.095-.051-.108-.099-.123-.137-.016-.039.05-.076.084-.09zm5.127.088c1.82 1.275 2.594 2.272 2.754 2.611-.594 1.036-2.77 2.517-2.825 2.559-.056.042-.101.046-.145.026-.018-.008-.035-.047-.035-.077v-4.97c-.002-.101.093-.136.122-.168.028-.033.098 0 .13.02zm2.714 4.197c-.345 2.05-.925 3.143-1.172 3.433-1.27.037-3.72-.952-3.788-.976-.066-.023-.092-.057-.094-.101 0-.018.037-.035.066-.05l4.754-2.387c.095-.05.147-.037.19-.03.045.007.048.077.044.111zm-2.753 4.22c-2.127.703-3.452.759-3.848.7-.643-1.006-.868-3.451-.877-3.516-.01-.065.01-.102.052-.125.016-.009.051.014.078.03l4.561 2.684c.094.053.106.1.12.14.015.038-.05.074-.085.087zm-5.243-.15c-1.822-1.272-2.599-2.267-2.759-2.606.593-1.037 2.766-2.524 2.822-2.565.056-.042.101-.046.145-.026.018.008.016.047.016.077l-.002 4.97c.002.101-.064.136-.092.168-.028.033-.098.001-.13-.019z" fill="#fff"/><path d="m5.637 6.753c-.257.155-1.4 1.54-1.94 2.213 0 0 .075.024.16-.01l4.873-2.269c.067-.023.056-.05.056-.05-.942-.025-2.89-.04-3.149.115zm3.869-1.523c-.279-.122-2.164-.292-3.071-.362 0 0 .016.07.092.118l4.654 2.627c.057.04.075.018.075.018-.468-.75-1.472-2.28-1.75-2.402zm3.284 2.215c-.032-.28-.865-1.847-1.278-2.595 0 0-.115.05-.12.134v5.01c-.008.065.039.068.039.068.466-.755 1.391-2.336 1.36-2.617zm-.344 3.773c.252-.162 1.347-1.58 1.863-2.268 0 0-.075-.022-.158.015l-4.794 2.407c-.066.025-.054.05-.054.05.942 0 2.89-.043 3.143-.204zm-3.822 1.556c.276.126 2.157.33 3.063.416 0 0-.014-.072-.09-.12l-4.599-2.708c-.055-.041-.074-.02-.074-.02.452.759 1.425 2.306 1.7 2.432zm-3.414-2.224c.032.28.869 1.845 1.283 2.593 0 0 .086-.05.09-.134v-5.01c.009-.066-.017-.069-.017-.069-.465.757-1.389 2.34-1.356 2.62z" fill="#bfbfbf"/></svg>