<svg height="18" width="18" xmlns="http://www.w3.org/2000/svg"><path d="m0 0h18v18h-18z" fill="#fff8b4"/><path d="m3.6 9.43c0 1.9.97 3.57 2.44 4.55l.18-.66.76-2.63.47-1.63c.1-.4.38-.3.5-.21l1.03.63.97-.63c.3-.24.46 0 .52.2l1.28 4.35.17.6a5.44 5.44 0 0 0 -2.92-10 5.42 5.42 0 0 0 -5.4 5.43zm8.58 3.57a4.8 4.8 0 0 0 -3.18-8.36 4.78 4.78 0 0 0 -3.3 8.26l.45-5.6c0-.27.1-.7.49-.72.1 0 .22.04.33.18.13.17.67.65 1.95.6 1.13-.03 1.85-.5 1.98-1.11-.17.46-1 .81-2 .81-1.13 0-2.04-.44-2.04-.99 0-.54.91-.99 2.03-.99 1.08 0 1.96.41 2.03.92.28.65-.06 1.84-1.94 1.96-.44.03-1.4.02-2.01-.6-.14-.13-.34-.31-.4.13l-.86 5.4v.01l1.35-4.35c.07-.16.18-.42.42-.42.08 0 .18.04.27.12l1.23.91 1.24-.94h.01c.07-.06.13-.1.2-.1.12 0 .27.06.42.43.11.28.9 2.99 1.33 4.45zm-1.74-7.07c0 .31-.68.57-1.51.57-.84 0-1.52-.26-1.52-.57 0-.32.68-.57 1.52-.57.83 0 1.51.25 1.51.57z" fill="#221f1c" fill-rule="evenodd"/></svg>