<svg height="18" viewBox="0 0 18 18" width="18" xmlns="http://www.w3.org/2000/svg"><path d="m0 0h18v18h-18z" fill="#f0f3fa"/><path d="m6.27 6-.7-1.42c.43-.2 1.53-.58 2.46-.58 1.17 0 5.14.45 5.14 4.44-.02.4-.1 1.28-.31 1.72a6.45 6.45 0 0 1 1.14 3.34h-1.68c0-.4-.07-1.09-.36-1.59a5.23 5.23 0 0 1 -4.26 2.09c-2.93 0-3.7-2.19-3.7-3.3 0-1.1 1.2-2.94 4.12-2.94.63.03 2.19.26 3.39 1 .14-.62.06-2.04-1.35-2.77-1.42-.72-3.19-.3-3.9 0zm4.71 4.44a4.77 4.77 0 0 0 -3-1.08c-1.86 0-2.39 1.2-2.39 1.64 0 .45.32 1.36 2.19 1.36 1.86 0 2.72-1.2 3.2-1.92z" fill="#f04b37"/></svg>