<svg height="18" viewBox="0 0 18 18" width="18" xmlns="http://www.w3.org/2000/svg"><path d="m0 0h18v18h-18z" fill="#f0f3fa"/><path d="m10.95 13.64.25-.4-1.1-1.77h-2.2l-1.1 1.77.25.4 1.47 1.36h.96zm-6.87-4.29h2.22l1.1 1.78-1.09 1.75-2.81-2.6zm6.52 1.78 1.1-1.78h2.22l.58.93-2.81 2.6-1.1-1.75z" fill="#004c82"/><path d="m7.05 4.36-.25.4 1.1 1.77h2.2l1.1-1.76-.25-.41-1.47-1.36h-.96zm-.75 4.29h-2.22l-.58-.93 2.82-2.6 1.08 1.75zm7.62 0h-2.21l-1.12-1.78 1.1-1.74 2.8 2.6z" fill="#1d96d3"/><path d="m10.1 10.76 1.1-1.76-1.1-1.76h-2.2l-1.1 1.76 1.1 1.76z" fill="#55595b"/></svg>