<svg height="18" width="18" xmlns="http://www.w3.org/2000/svg"><path d="m0 0h18v18h-18z" fill="#f0f3fa"/><path d="m8.3 9.94-1-3.16h-.03l-1.12 3.38-.56 1.77c-.04.1-.08.24-.08.38 0 .41.32.38.55.38h.32v.31h-2.08v-.31h.14c.44-.04.65-.26.79-.67l2.69-8.02h.17l3.1 8.69h.54v.31h-3.57v-.31h1.07l-.93-2.73z" fill="#63666a"/><g fill="#f68d2e"><path d="m14.42 10.3c-.37.16-.8.3-1.26.4-.87.18-1.86.23-2.85-.09-.68-.22-1.17-.41-1.57-.57a5.7 5.7 0 0 0 -1.1-.36l-.58.07a4.66 4.66 0 0 0 -3.06 1.68l.31.2a3.82 3.82 0 0 1 2.78-1.7c.32-.03 1.07.07 1.3.63.18.4.18.83.18.84v.54l.17-.51c.05-.16.12-.18.14-.18.18-.04.46.22.55.32.52.7 1.91.42 1.97.4l.3-.07-.3-.1c-.28-.12-.36-.3-.33-.4.03-.07.14-.12.33-.05.5.2 1.43.47 1.44.47l.4.12-.33-.28c-.06-.05-.05-.14-.03-.21.03-.1.12-.19.23-.18.34.02.67-.1.91-.35.22-.22.51-.46.52-.46l.46-.38-.55.21-.03.02z"/><path d="m8.8 9.84c.39.15.88.34 1.55.56 1.23.4 2.47.24 3.47-.06l-.08-.05c-.28-.2-.29-.7-.29-.7v-.16l-.12.08c-.51.33-.95.45-1.26.34a.6.6 0 0 1 -.34-.25c.16-.39 1.1-.67 1.47-.75l.37-.08-.37-.1c-.15-.04-.24-.11-.27-.2-.06-.23.2-.6.3-.71l.1-.1-.11-.05a.16.16 0 0 1 -.07-.1c-.06-.24.23-.75.34-.93l.45-.69-.57.57s-.77.76-1.78 1.53c-1.33 1-2.48 1.57-3.33 1.62h-.03l.56.23z"/></g></svg>