<svg height="18" viewBox="0 0 18 18" width="18" xmlns="http://www.w3.org/2000/svg"><path d="m0 0h18v18h-18z" fill="#3a52ac"/><g fill="#fff"><path d="m9 4.65v-.65c-.95 0-1.3.67-1.37 1l-.66 4h-1.84c-1.33 0-2.13 1.51-2.13 2.43s.6 2.57 2.37 2.57c1.85 0 2.53-1.66 2.64-2.49l.2-1.51h.79v-1h-.67l.5-4c.03-.26.13-.35.17-.35zm-2 5.35h-1.85c-.39.11-1.15.54-1.15 1.32 0 .98.53 1.68 1.32 1.68.78 0 1.68-.88 1.68-3z" fill-rule="evenodd"/><path d="m9 4v.65c.04 0 .14.09.17.35l.82 6.51c.1.83.79 2.49 2.64 2.49 1.76 0 2.37-1.65 2.37-2.57s-.8-2.43-2.13-2.43h-1.84l-.66-4c-.07-.33-.42-1-1.37-1zm2 6h1.85c.39.11 1.15.54 1.15 1.32 0 .98-.53 1.68-1.32 1.68-.78 0-1.68-.88-1.68-3z"/></g></svg>