<svg fill="none" height="18" width="18" xmlns="http://www.w3.org/2000/svg" xmlns:xlink="http://www.w3.org/1999/xlink"><linearGradient id="a"><stop offset="0" stop-color="#b6ccf2"/><stop offset="1" stop-color="#2b468b"/></linearGradient><radialGradient id="b" cx="0" cy="0" gradientTransform="matrix(0 -1.62966 2.08596 0 42.39 -45.85)" gradientUnits="userSpaceOnUse" r="1" xlink:href="#a"/><radialGradient id="c" cx="0" cy="0" gradientTransform="matrix(0 -1.62966 2.08596 0 34.45 -52.46)" gradientUnits="userSpaceOnUse" r="1" xlink:href="#a"/><radialGradient id="d" cx="0" cy="0" gradientTransform="matrix(0 -1.62966 2.08596 0 25.93 -60.16)" gradientUnits="userSpaceOnUse" r="1" xlink:href="#a"/><radialGradient id="e" cx="0" cy="0" gradientTransform="matrix(0 -1.62966 2.08596 0 62.76 -55.5)" gradientUnits="userSpaceOnUse" r="1" xlink:href="#a"/><radialGradient id="f" cx="0" cy="0" gradientTransform="matrix(0 -1.62966 2.08596 0 52.62 -50.16)" gradientUnits="userSpaceOnUse" r="1" xlink:href="#a"/><linearGradient id="g" gradientUnits="userSpaceOnUse" x1="3.27" x2="10.4" y1="11.67" y2="10.52"><stop offset="0" stop-color="#00b0f0"/><stop offset=".5" stop-color="#c8c8c8"/><stop offset="1" stop-color="#02215e"/></linearGradient><linearGradient id="h" gradientUnits="userSpaceOnUse" x1="3.07" x2="9.77" y1="8.55" y2="8.55"><stop offset="0" stop-color="#4ef6ff"/><stop offset=".48" stop-color="#fff" stop-opacity=".6"/></linearGradient><linearGradient id="i" gradientUnits="userSpaceOnUse" x1="6.48" x2="341" y1="33.99" y2="33.99"><stop offset="0" stop-color="#4ef6ff"/><stop offset="1" stop-color="#fff" stop-opacity=".6"/></linearGradient><path d="m0 9a9 9 0 1 1 18 0 9 9 0 0 1 -18 0z" fill="#f0f3fa"/><path d="m10.98 8.25c-1.03-1.13-2.14-1.95-3.31-1.94a2.71 2.71 0 0 0 0 5.4c1.16.03 2.26-.78 3.27-1.9.24-.25.46-.52.68-.8-.2-.26-.42-.51-.64-.76zm.96.35-.6-.7c-1.03-1.13-2.28-2.13-3.68-2.1a3.22 3.22 0 0 0 0 6.43c1.4.02 2.62-.94 3.65-2.07l.64-.74.45.6.28.36c.33.45.65.87.94 1.22l.38-.33a28.57 28.57 0 0 1 -1.2-1.56 42.5 42.5 0 0 0 -.53-.7c.33-.43.64-.85.92-1.25.27-.37.52-.72.75-1.01l-.39-.32-.79 1.06c-.26.36-.53.74-.82 1.11z" fill="#a3d1f1" fill-rule="evenodd"/><path d="m10 8h-7v2h7z" fill="url(#g)"/><path d="m9.49 9h-6.15l-.27-.9h6.7z" fill="url(#h)" opacity=".8"/><path d="m9.77 9.9h-6.7l.27-.9h6.16l.28.9z" fill="url(#i)" opacity=".2"/><path d="m13.16 5-1.86 1.88.57.57 1.88-1.87-.58-.58z" fill="#00b0f0"/><path d="m11.86 10.55-.57.57 1.87 1.88.58-.58z" fill="#00b0f0"/><g fill="#2b468b"><path d="m10.84 8.17a.4.4 0 1 0 0-.8.4.4 0 0 0 0 .8zm-1.12-1.18a.4.4 0 1 0 0-.8.4.4 0 0 0 0 .8zm-1.43-.46a.4.4 0 1 0 0-.79.4.4 0 0 0 0 .79zm-1.59.19a.4.4 0 1 0 0-.78.4.4 0 0 0 0 .78zm-1.3.92a.4.4 0 1 0 0-.79.4.4 0 0 0 0 .8z"/><path d="m5.4 11.31a.4.4 0 1 0 0-.78.4.4 0 0 0 0 .78z"/><path d="m6.7 12.17a.4.4 0 1 0 0-.8.4.4 0 0 0 0 .8zm1.58.26a.4.4 0 1 0 0-.79.4.4 0 0 0 0 .79zm1.44-.59a.4.4 0 1 0 0-.79.4.4 0 0 0 0 .79zm1.12-1.12a.4.4 0 1 0 0-.78.4.4 0 0 0 0 .78z"/></g><path d="m11.91 9.41a.4.4 0 1 0 0-.79.4.4 0 0 0 0 .8z" fill="url(#b)"/><path d="m12.8 8.3a.4.4 0 1 0 0-.79.4.4 0 0 0 0 .79z" fill="url(#c)"/><path d="m13.6 7.08a.4.4 0 1 0 0-.78.4.4 0 0 0 0 .78z" fill="url(#d)"/><path d="m13.6 11.74a.4.4 0 1 0 0-.79.4.4 0 0 0 0 .79z" fill="url(#e)"/><path d="m12.8 10.6a.4.4 0 1 0 0-.8.4.4 0 0 0 0 .8z" fill="url(#f)"/><path d="m3 8 .3 1-.3 1z" fill="#0491c5" opacity=".5"/></svg>