<svg height="18" width="18" xmlns="http://www.w3.org/2000/svg" xmlns:xlink="http://www.w3.org/1999/xlink"><linearGradient id="a" gradientUnits="userSpaceOnUse" x1="12.29" x2="5.09" y1="4.25" y2="11.82"><stop offset="0" stop-color="#c1c2c4"/><stop offset=".29" stop-color="#d5d6d8"/><stop offset=".68" stop-color="#414244"/></linearGradient><linearGradient id="b" gradientUnits="userSpaceOnUse" x1="14.66" x2="4.7" y1="6.41" y2="13.94"><stop offset="0" stop-color="#2c3994"/><stop offset=".31" stop-color="#2397d9"/><stop offset=".49" stop-color="#ebf6f8"/><stop offset=".72" stop-color="#239ddb"/></linearGradient><linearGradient id="c" gradientUnits="userSpaceOnUse" x1="14.68" x2="4.71" y1="6.61" y2="14.21"><stop offset="0" stop-color="#2860ab"/><stop offset=".11" stop-color="#47b0e1"/><stop offset=".25" stop-color="#eef6fc"/><stop offset=".46" stop-color="#1aa5de"/><stop offset=".73" stop-color="#2c3995"/><stop offset="1" stop-color="#2b3897"/></linearGradient><linearGradient id="d" gradientUnits="userSpaceOnUse" x1="7.36" x2="5.66" y1="3.05" y2="14.87"><stop offset="0" stop-color="#1b96d2"/><stop offset=".21" stop-color="#2a3c9a"/><stop offset=".44" stop-color="#1aa0dd"/><stop offset=".63" stop-color="#ecf0fd"/><stop offset=".8" stop-color="#2689c8"/><stop offset="1" stop-color="#2b3897"/></linearGradient><linearGradient id="e" gradientUnits="userSpaceOnUse" x1="7.86" x2="5.73" y1="3" y2="14.83"><stop offset="0" stop-color="#1b96d2"/><stop offset=".29" stop-color="#99caeb"/><stop offset=".79" stop-color="#1b7dbd"/><stop offset="1" stop-color="#2b3897"/></linearGradient><linearGradient id="f" gradientUnits="userSpaceOnUse" x1="8.61" x2="12.62" y1="3.29" y2="13.84"><stop offset="0" stop-color="#313a9f"/><stop offset=".29" stop-color="#2b3a8f"/><stop offset=".52" stop-color="#2786c9"/><stop offset=".66" stop-color="#e3f0fe"/><stop offset=".82" stop-color="#1c6cb5"/><stop offset="1" stop-color="#2b3898"/></linearGradient><linearGradient id="g" gradientUnits="userSpaceOnUse" x1="8.54" x2="11.91" y1="3.16" y2="14.04"><stop offset="0" stop-color="#1b96d2"/><stop offset=".27" stop-color="#e9f3fc"/><stop offset=".57" stop-color="#1b9dd9"/><stop offset="1" stop-color="#2c3a93"/></linearGradient><path d="m0 0h18v18h-18z" fill="#f0f3fa"/><circle cx="9" cy="9" fill="url(#a)" r="5"/><path d="m5.38 12.92c-.17.31-.68 1.56.26 1.54-.35-.48 1.97-3.04 4.31-4.8 2.35-1.76 3.97-2.56 4.28-2.26.26.24-.51 1.29-.93 1.79.71-.7 2-2.2 1.47-2.65-.66-.57-3.45.89-5.51 2.4a16.15 16.15 0 0 0 -3.88 4z" fill="url(#b)"/><path d="m5.57 15c.75-.01 1.9-.75 2.4-1.12-.63.42-1.99 1.12-2.23.79-.35-.49 1.97-3.05 4.31-4.8 2.35-1.76 3.97-2.58 4.29-2.28.25.24-.52 1.3-.94 1.79.71-.7 2-2.19 1.47-2.64-.66-.57-3.45.88-5.51 2.39-2.09 1.52-3.53 3.27-3.99 3.81-.46.55-.74 2.08.2 2.06z" fill="url(#c)"/><path d="m4.69 8.53c.87-4.21 2.98-5.5 3.9-5.48-1.34.98-2.46 2.36-3.19 5.08a14.8 14.8 0 0 0 -.15 5.79l.15.95c-.35-.47-1.4-2.95-.71-6.34z" fill="url(#d)"/><path d="m8.32 3c.93 0 1.57.66 1.71.86l-1.2-.23-1.2-.07c-1.04.95-1.9 2.28-2.5 4.52a14.8 14.8 0 0 0 -.16 5.8l.15.95c-.35-.47-1.4-2.95-.71-6.35.87-4.21 2.98-5.48 3.89-5.48z" fill="url(#e)"/><path d="m12.59 13.64c.7-.23.57-1.1.34-1.74.15 1.08-.2 1.17-.44 1.23-.83 0-2.42-1.3-3.67-3.93-1.47-3.1-1.18-4.48-.48-5.11.3-.27 1.45-.21 1.97.08-1.14-1-2.15-1.2-2.8-.36-.71.91-.77 2.55.65 5.62s3.36 4.56 4.43 4.2z" fill="url(#f)"/><path d="m12.53 14.01c.87-.2.63-1.54.4-2.17.14 1.07-.28 1.47-.51 1.54-1.02.02-2.17-.79-3.92-3.97-1.72-3.11-1.25-4.85-.55-5.48.55-.5 1.83-.08 2.35.22-1.19-1.47-2.45-1.11-3.1-.15-.65.95-.77 2.54.65 5.61 1.42 3.08 3.58 4.67 4.68 4.4z" fill="url(#g)"/></svg>