<svg height="18" width="18" xmlns="http://www.w3.org/2000/svg"><path d="m0 0h18v18h-18z" fill="#00465a"/><path d="m13.592 3.092a.314.314 0 0 1 0 .444l-1.286 1.286a.314.314 0 0 1 -.444-.444l1.287-1.286a.314.314 0 0 1 .443 0zm-8.77 9.092a.314.314 0 0 1 0 .444l-1.287 1.286a.314.314 0 0 1 -.443-.444l1.286-1.286a.314.314 0 0 1 .444 0z" fill="#bed733"/><path d="m11.654 5.255a.5.5 0 0 1 .308.462v5.803a.5.5 0 1 1 -1 0v-1.524h-3.07l-1.753 1.774a.5.5 0 0 1 -.71-.704l1.9-1.922 3.78-3.78a.5.5 0 0 1 .545-.108zm-2.764 3.741h2.072v-2.072z" fill="#fff"/></svg>