<svg height="18" width="18" xmlns="http://www.w3.org/2000/svg"><path d="m0 0h18v18h-18z" fill="#eb1b2a"/><path d="m12.539 9.73-.487 1.895-.192.52-.329 1.281s-.282-.012-.933-.035a2.059 2.059 0 0 0 -.623.093l-.45.244c-.293.106-.572.21-.817.237a5.947 5.947 0 0 1 -1.222.007l-.346-.142c-.918-.111-1.454-.323-1.454-.323l.322-1.255.08-.543.487-1.898.229-.657.182-.708.076-.53.487-1.898.146-.332.374-1.457s.536.223 1.454.34l.388-.046c.433.04.809.043 1.229-.007.244-.03.523-.143.816-.257l.24-.012c.261-.091.527-.16.785-.145.647.034.934.046.934.046l-.332 1.29-.07.498-.486 1.895-.19.513-.216.837-.082.548z" fill="#fff"/><path d="m8.945 8.286c.431.038.804.04 1.223-.007.247-.028.527-.141.823-.253l.486-1.897c-.293.11-.578.225-.822.253a5.91 5.91 0 0 1 -1.223.006zm-.975 3.794c.433.037.806.039 1.226-.008.245-.028.526-.142.82-.253l.487-1.895c-.294.11-.575.224-.82.251a5.912 5.912 0 0 1 -1.223.007l-.49 1.897zm3.986-7.82-.479 1.87c.355-.135.727-.245 1.083-.23l.954.036.486-1.887s-.28-.008-.954-.047c-.357-.02-.735.115-1.09.257z" fill="#211e1f"/><path d="m6.088 11.709s.548.214 1.485.328c.14.017.27.03.397.042l-.484 1.893c-.128-.011-.26-.026-.4-.042-.938-.114-1.484-.33-1.484-.33zm3.345-5.321.48-1.865a10.668 10.668 0 0 1 -.394-.044c-.938-.119-1.485-.346-1.485-.346l-.484 1.885s.546.215 1.483.329c.14.016.272.029.4.04zm-2.858 3.422.486-1.895s.547.215 1.484.328c.14.017.271.032.4.042l-.486 1.896c-.128-.01-.26-.024-.4-.04-.937-.114-1.484-.33-1.484-.33zm5.477 1.815-.95-.036c-.358-.014-.731.096-1.086.23l-.49 1.909c.354-.134.73-.255 1.088-.246.672.016.952.034.952.034zm-1.548-1.701.487-1.898c.355-.133.727-.242 1.084-.23.664.022.952.035.952.035l-.487 1.899s-.277-.014-.952-.036c-.357-.012-.73.097-1.084.23z" fill="#211e1f"/><path d="m5.048 14 2.583-10h-1.05l-2.581 10z" fill="#ffb300"/></svg>