<svg height="18" viewBox="0 0 18 18" width="18" xmlns="http://www.w3.org/2000/svg" xmlns:xlink="http://www.w3.org/1999/xlink"><linearGradient id="a" gradientUnits="userSpaceOnUse" x1="9.52" x2="8.98" y1="10.08" y2="13.98"><stop offset="0" stop-color="#0c93c4"/><stop offset="1" stop-color="#325ba2"/></linearGradient><linearGradient id="b" gradientUnits="userSpaceOnUse" x1="8.39" x2="4.51" y1="8.73" y2="10.69"><stop offset="0" stop-color="#237eb9"/><stop offset=".82" stop-color="#374e95"/></linearGradient><linearGradient id="c" gradientUnits="userSpaceOnUse" x1="4" x2="7.18" y1="6.75" y2="6.75"><stop offset="0" stop-color="#384d92"/><stop offset="1" stop-color="#3266a4"/></linearGradient><linearGradient id="d" gradientUnits="userSpaceOnUse" x1="7.36" x2="8.58" y1="4.18" y2="4.86"><stop offset="0" stop-color="#3060a5"/><stop offset="1" stop-color="#296faf"/></linearGradient><linearGradient id="e" gradientUnits="userSpaceOnUse" x1="8.9" x2="9.89" y1="4.33" y2="4.93"><stop offset="0" stop-color="#2775b3"/><stop offset="1" stop-color="#1a82bc"/></linearGradient><linearGradient id="f" gradientUnits="userSpaceOnUse" x1="13.83" x2="12.71" y1="11.17" y2="9.29"><stop offset="0" stop-color="#0994c9"/><stop offset="1" stop-color="#03a2d1"/></linearGradient><linearGradient id="g" gradientUnits="userSpaceOnUse" x1="12.65" x2="11.62" y1="13.14" y2="10.31"><stop offset="0" stop-color="#2578b5"/><stop offset="1" stop-color="#069ecf"/></linearGradient><linearGradient id="h" gradientUnits="userSpaceOnUse" x1="9.47" x2="12.41" y1="8.68" y2="8.14"><stop offset=".19" stop-color="#059864"/><stop offset="1" stop-color="#77b081"/></linearGradient><path d="m0 0h18v18h-18z" fill="#f0f3fa"/><path d="m10.57 12.21c-.13 1.08-.81 1.88-1.52 1.78-.72-.1-1.19-1.05-1.06-2.13.14-1.08.82-1.88 1.53-1.78.72.1 1.19 1.05 1.05 2.13z" fill="url(#a)"/><path d="m6.97 11.4c-.9.5-1.94.32-2.31-.43-.38-.75.05-1.77.95-2.29.9-.5 1.95-.32 2.32.43.38.75-.05 1.77-.96 2.29z" fill="url(#b)"/><path d="m5.53 7.8c-.82.03-1.5-.4-1.53-.98-.02-.57.63-1.07 1.45-1.1.82-.05 1.5.39 1.53.96.02.58-.63 1.07-1.45 1.11z" fill="url(#c)"/><path d="m6.38 5.63c-.55-.1-.95-.45-.9-.79.06-.34.54-.54 1.08-.45.55.1.95.45.9.79-.06.34-.54.54-1.08.45z" fill="#35509a"/><path d="m7.92 4.78c-.36-.1-.6-.35-.56-.56.06-.2.4-.28.75-.17.36.1.61.35.56.55s-.39.29-.75.18z" fill="url(#d)"/><path d="m9.3 4.85c-.29-.16-.45-.4-.38-.55s.36-.14.64.02c.29.16.45.4.38.56-.07.14-.36.13-.64-.03z" fill="url(#e)"/><path d="m10.54 5.36c-.27-.15-.43-.39-.36-.53s.35-.13.61.02c.27.15.43.39.36.53s-.34.13-.61-.02zm1.09.77c-.24-.2-.37-.45-.29-.58.1-.12.36-.08.6.11.25.19.38.44.3.57-.1.13-.36.08-.6-.1z" fill="#0893c9"/><path d="m12.61 7.25c-.2-.23-.28-.52-.16-.64.11-.11.38-.02.59.21.2.23.28.52.16.64-.11.11-.38.02-.59-.21z" fill="#069bcd"/><path d="m13.28 8.7c-.24-.26-.32-.57-.19-.7.13-.14.42-.03.65.22.23.26.32.57.19.7-.13.14-.42.03-.65-.22z" fill="#059dce"/><path d="m12.88 10.46c-.28-.53-.31-1.08-.07-1.23.25-.14.67.17.96.7.28.54.3 1.1.06 1.24s-.67-.17-.95-.7z" fill="url(#f)"/><path d="m11.36 12c-.26-.79-.1-1.56.36-1.73.46-.16 1.04.34 1.29 1.13.26.8.1 1.57-.36 1.74-.46.16-1.04-.34-1.3-1.13z" fill="url(#g)"/><path d="m9.65 5.83c-.16-.05-.27-.16-.25-.25.03-.1.18-.13.34-.08s.27.16.25.25c-.02.1-.17.13-.34.08zm-1.1.03c-.02.15.16.31.41.35.24.04.46-.05.49-.2.02-.15-.16-.31-.4-.35-.25-.05-.47.04-.5.2zm.03 1.33c-.37.01-.68-.18-.69-.44s.28-.48.65-.5.68.18.69.44-.28.48-.65.5zm-.4 1.43c.17.33.64.42 1.05.19.4-.23.6-.7.43-1.03-.17-.34-.64-.42-1.04-.2-.41.24-.6.7-.43 1.04zm1.98 1.36c.32.04.63-.32.69-.8.06-.49-.15-.92-.47-.96-.32-.05-.63.31-.7.8-.05.48.16.91.48.96zm-.06-4.38c-.03.07.05.18.17.25.13.08.26.08.3.01.03-.06-.05-.18-.18-.25-.12-.07-.25-.07-.29 0zm.73.48c-.12-.07-.19-.17-.16-.24.03-.06.16-.05.28.01.12.07.19.18.16.24s-.16.06-.28 0zm.37.09c-.04.06.01.17.13.26.1.08.23.1.27.04.04-.05-.02-.17-.13-.25-.11-.09-.24-.1-.27-.05zm.57.76c-.1-.1-.13-.23-.08-.28.05-.06.17-.02.27.09.1.1.13.23.07.28-.05.06-.17.02-.26-.09zm.21.34c-.06.06-.02.2.09.31.1.12.23.16.29.1.06-.05.02-.2-.08-.31-.1-.12-.24-.16-.3-.1zm-.1 1.1c-.12-.23-.13-.48-.02-.55.1-.06.3.08.43.32.12.24.14.49.03.56-.11.06-.3-.08-.43-.32zm-.51-.08c-.2.08-.28.43-.17.78.12.36.38.59.58.51.2-.07.28-.42.17-.78-.12-.35-.38-.58-.58-.5z" fill="url(#h)"/></svg>