<svg height="18" viewBox="0 0 18 18" width="18" xmlns="http://www.w3.org/2000/svg"><path d="m0 0h18v18h-18z" fill="#f0f3fa"/><g fill="#007ec8"><path d="m9 14a5 5 0 1 0 0-10 5 5 0 0 0 0 10zm-5-5a4 4 0 1 1 8 0 4 4 0 0 1 -8 0z"/><path d="m8 6.01c-1.35.13-2.4 1.42-2.4 2.99s1.05 2.86 2.38 2.99l-.23.01c-1.52 0-2.75-1.34-2.75-3s1.23-3 2.76-3l.23.01zm1.99 4.99.07-.04a2.24 2.24 0 0 0 .65-2.94 1.88 1.88 0 0 0 -2.7-.7h-.01c.85-.25 1.79.12 2.27.98.5.88.36 2-.28 2.7z"/><path d="m7.72 8.38-.02.01a.73.73 0 0 0 -.16.94c.19.3.56.39.83.18-.25.09-.54-.01-.7-.28a.77.77 0 0 1 .05-.86z"/><path d="m6 8.93c0-1.07.88-1.73 1.32-1.93-.29.16-.86.7-.86 1.63 0 1.15 1.1 1.75 1.85 1.75.8 0 1.19-.48 1.19-1.07 0-.98-1.01-1.14-1.5-1.08.09-.06.33-.17.59-.17.47 0 1.41.42 1.41 1.25s-.8 1.69-1.73 1.69c-.94 0-2.27-.72-2.27-2.07z"/></g></svg>