<svg height="18" width="18" xmlns="http://www.w3.org/2000/svg"><path d="m0 0h18v18h-18z" fill="#f0f3fa"/><path d="m9 14a5 5 0 1 0 0-10 5 5 0 0 0 0 10zm0 1a6 6 0 1 0 0-12 6 6 0 0 0 0 12z" fill="#a0ce69" fill-rule="evenodd"/><path d="m4.08 10.38 2.42.38a8.35 8.35 0 0 1 5.04 0l2.46-.38-2.46-.45 2.46-1.43-2.7.65 2.09-2.49-2.56 1.84 1.38-3.25-2.03 2.75.52-3.68-1.26 3.39-.44-3.65-.4 3.65-1.26-3.39.5 3.68-2.02-2.76 1.4 3.25-2.6-1.83 2.1 2.48-2.72-.65 2.5 1.44z" fill="#ffc425"/><path d="m9 10.06c-2.09.02-3.7.95-4.24 1.41.61-.22 2.3-.68 4.25-.73 1.93-.04 3.62.47 4.22.73a6.69 6.69 0 0 0 -4.22-1.41z" fill="#5287c6"/><path d="m6.42 12.7a.74.74 0 0 1 -.24.3h1.09c-.1-.04-.08-.2-.07-.26l1.84-4.55 1.77 4.55a.24.24 0 0 1 -.06.26h1.07c-.12-.11-.15-.19-.2-.3l-2.63-6.18-2.57 6.16z" fill="#ec3d46"/></svg>