<svg height="18" viewBox="0 0 18 18" width="18" xmlns="http://www.w3.org/2000/svg"><path d="m0 0h18v18h-18z" fill="#f0f3fa"/><path d="m7.37 8.94a2.43 2.43 0 0 0 -1.57 1.76c-.43.9-.5 2.73 2.69 2.94 4.51-.02 4.96-4.15 5.03-5.75.07-1.61-2.05-1.53-2.53-1.58-.49-.05-1.02 1.41-1.12 1.5-.1.08-1.17.68-2.5 1.14z" fill="#fc0"/><path d="m6.56 5.57a.4.4 0 0 1 .2-.53c.2-.1.44-.01.53.19l.39.77c.1.2.01.44-.19.54s-.45 0-.54-.19zm-2.22 1.07a.4.4 0 0 0 .06.56l.69.53c.18.14.43.11.57-.06a.4.4 0 0 0 -.07-.56l-.68-.54a.41.41 0 0 0 -.57.07zm-1.3 2.26a.4.4 0 0 0 .18.53l.79.39c.2.1.44.02.54-.18a.4.4 0 0 0 -.18-.53l-.78-.4a.41.41 0 0 0 -.55.19zm2.05 2.55v-.01c.08-.74.64-2.33 2.31-3.09a5.52 5.52 0 0 1 1.41-.5c.2-.04.37-.08.5-.15.4-.22.48-.54.62-1.14l.07-.28c.15-.7 1.25-.94 2-.87.56 0 1.4.63 1.72 1.11.77 1.2-.2 4.24-.84 5.26a4.7 4.7 0 0 1 -4.23 2.22c-1.31 0-2.22-.33-2.81-.86a2.12 2.12 0 0 1 -.75-1.67zm.68.06c.06-.6.53-1.92 1.92-2.55a4.33 4.33 0 0 1 1.98-.48c.24 0 .4 0 .58-.13.24-.18.26-.36.28-.57.02-.2.04-.41.23-.67.35-.48.58-.47 1.08-.47h.16c.61 0 1.1.58 1.1 1.9s-.67 4.79-4.45 4.79c-2.4 0-2.92-1.22-2.88-1.82zm2.95-1.29c-.08.33-.37.54-.63.47s-.4-.39-.31-.71c.08-.33.36-.54.62-.47s.4.39.32.71zm-1.46 1.18a.36.36 0 0 1 .48 0c.33.33 1.38.87 2.72.02.15-.1.37-.06.47.08a.3.3 0 0 1 -.09.44c-1.66 1.06-3.08.41-3.6-.1a.3.3 0 0 1 .02-.44zm3.36-.7c.27.03.51-.22.54-.55s-.16-.61-.43-.64c-.27-.02-.5.23-.54.56-.03.33.16.61.43.64z" fill="#404040" fill-rule="evenodd"/></svg>