<svg fill="none" height="18" width="18" xmlns="http://www.w3.org/2000/svg"><path d="m0 0h18v18h-18z" fill="#f0f3fa"/><path clip-rule="evenodd" d="m5.64 11.5h1.45l-1.601-5h-1.868l-1.621 5h1.43l.27-1h1.62zm-1.657-2 .55-1.899h.028l.521 1.899zm11.94-2.78s-.422-.22-1.288-.22-2.635.417-2.635 2.47c0 1.982 1.598 2.53 2.765 2.53.576 0 1.002-.15 1.235-.255l-.216-.901c-.18.09-.497.156-.912.156-.492 0-1.539-.317-1.539-1.53s1.065-1.47 1.411-1.47c.347 0 .695.028.93.167l.248-.946zm-6.153-.22c.998 0 1.45.26 1.45.26l-.314.979a2.569 2.569 0 0 0 -1.03-.239c-.492 0-1.577.239-1.577 1.417 0 1.339.928 1.583 1.385 1.583.27 0 .441-.052.563-.125v-.906l1.298-.969v2.635c-.426.25-1.055.365-1.71.365-1.095 0-2.835-.464-2.835-2.51 0-2.107 1.958-2.49 2.77-2.49z" fill="#032069" fill-rule="evenodd"/><path d="m9.318 9.5h.955l1.272-1h-2.227z" fill="#e60048"/></svg>