<svg height="18" width="18" xmlns="http://www.w3.org/2000/svg"><path d="m0 0h18v18h-18z" fill="#013764"/><path d="m13.18 12.07c-.16.08-.35.11-.53.1-.27-.04-.65-.29-.65-.54v-4.65c0-1.38-.3-2.98-2.98-2.98-1.35 0-3.25.62-3.25 1.84 0 .34.25.68.59.8.63.2 1.34-.29 1.27-.93 0-.6.16-1.1 1.37-1.1 1.64 0 2 1.4 2 2.7v2.44a2.55 2.55 0 0 1 -2.43 2.46c-.67-.01-1.57-.66-1.57-1.63 0-1.35 1.75-1.76 2.85-1.88l.18-.63c-1.7.13-4.53.42-4.53 2.8 0 1.21 1.11 2.2 2.35 2.13a3.2 3.2 0 0 0 2.77-1.37h.04c0 .75.28 1.28 1.22 1.36h.24c.42 0 .92-.33 1.27-.54l.11-.57c-.1.07-.2.14-.32.19" fill="#ff328b"/></svg>