<svg height="18" viewBox="0 0 18 18" width="18" xmlns="http://www.w3.org/2000/svg"><path d="m0 0h18v18h-18z" fill="#f0f3fa"/><path d="m6.3 5h-2v.57h.08c.46 0 .78.16.88.27l2.55 3.12-2.69 3.16c-.3.34-.57.51-.74.51h-.38v.37h2.22l2.78-3.34 2.78 3.34h2.22v-.37h-.3c-.4-.04-.8-.43-.95-.62l-2.55-3.05 2.35-2.93c.34-.43.8-.46.98-.46h.27v-.57h-2.08l-2.72 3.32z" fill="#0068b3"/><path d="m11.3 5h-4.6l.48.57h3.66zm0 8h-4.6l.5-.57h3.63z" fill="#00457c"/><path d="m10.25 6.14h-2.52l.45.57h1.61zm0 5.72h-2.52l.5-.57h1.55z" fill="#0068b3"/><path d="m9.38 7.29h-.78l.36.44h.07zm0 3.42h-.78l.36-.44h.07z" fill="#418dc5"/></svg>