<svg height="18" viewBox="0 0 18 18" width="18" xmlns="http://www.w3.org/2000/svg"><path d="m0 0h18v18h-18z" fill="#f0f3fa"/><g fill="#b7b15e"><path d="m8.89 12h-6.89c4.4-6.26 7.87-7 9.22-7 1.08 0 2.66.92 2.31 1.46-.34.55-.8-.17-2.9-.13s-4.38 2.03-4.36 3.5c.01 1.16 1.75 1.96 2.62 2.17z"/><path d="m9.62 7.82-1.74 2c3.05-1.04 4.15-.43 4.33 0 .06 0 .25-.04.5-.2.24-.15.28-.33.27-.4-.16-1.24-1.76-.9-2.14-1.1-.38-.21.56-.66.16-1.02-.32-.28-1.05.36-1.38.72zm1.3 2.3c.33.11.19.62.08.86a5.14 5.14 0 0 1 2.95-1c1.3.01 1.91 1.38 2.05 2.02h-1.5a1 1 0 0 0 -.97-.9c-2.02.13-3.8 1.4-4 .69s.98-1.8 1.4-1.67z"/></g></svg>