<svg height="18" viewBox="0 0 18 18" width="18" xmlns="http://www.w3.org/2000/svg"><path d="m0 0h18v18h-18z" fill="#f0f3fa"/><g fill="#0030ad"><path d="m13.23 6.18a8.31 8.31 0 0 0 -4.53-1.18c-2.13 0-5.7 1.18-5.7 4.07 0 .11 0 .22.02.33.01.16.3.13.28-.03a2.7 2.7 0 0 1 -.01-.3c0-2.18 2.89-3.76 5.42-3.76 3.45 0 6 1.58 6 3.76v.24c-.02.2-.12.3-.3.3h-10.71a.48.48 0 0 0 -.33.17.5.5 0 0 0 -.1.56c1 2.09 3.46 2.66 5.44 2.66 2.11 0 4.88-.35 5.98-2.63.06-.14-.17-.27-.24-.14-.77 1.61-3 2.46-5.74 2.46-2.75 0-4.4-.84-5.16-2.47-.07-.16-.01-.22.15-.22h10.7c.32 0 .55-.33.59-.66l.01-.27c0-1.11-.63-2.14-1.77-2.9z"/><path d="m6 7h6v3h-6z" opacity=".5"/></g></svg>