<svg height="18" viewBox="0 0 18 18" width="18" xmlns="http://www.w3.org/2000/svg"><path d="m0 0h18v18h-18z" fill="#f0f3fa"/><path d="m9 14c3.31 0 6-2.24 6-5s-2.69-5-6-5-6 2.24-6 5 2.69 5 6 5zm4.55-5.62h-4.27l-.62-2.16c-.07-.27-.5-.3-.63-.05l-1.2 2.21h-1.43c-.77 0-1.4.55-1.4 1.23v.17c0 .67.63 1.22 1.41 1.22h.08c.57 0 1.1-.29 1.33-.74l.88-1.63h1.3l.58 1.93c.09.29.36.44.65.44.25 0 .5-.11.63-.35l.57-1.17.35 1.1c.09.27.36.41.64.42.25 0 .5-.1.63-.34l.9-1.72c.15-.26-.07-.56-.4-.56zm-4.6-.01h-1.15l.56-1c.07-.13.28-.11.32.02l.25.98zm-2.22.26-.83 1.5c-.1.21-.34.34-.6.34-.55 0-.99-.38-.99-.85v-.1c0-.54.52-.89 1.15-.89zm6.13 0h-3.52l.48 1.5c.02.06.07.08.12.08.04 0 .08-.02.1-.06l.69-1.13a.51.51 0 0 1 .46-.26c.22 0 .42.13.48.32l.19.52.2.54c0 .05.05.07.1.07.04 0 .08-.02.1-.06l.8-1.24a.17.17 0 0 0 .03-.09c0-.1-.1-.19-.23-.19z" fill="#32106e" fill-rule="evenodd"/></svg>