<svg height="18" viewBox="0 0 18 18" width="18" xmlns="http://www.w3.org/2000/svg"><path d="m0 0h18v18h-18z" fill="#f0f3fa"/><path d="m6.05 8.97a6.17 6.17 0 0 1 -2.05 4.4 5 5 0 0 0 2.6-4.4c0-2.5-1.73-3.93-2.6-4.33a5.94 5.94 0 0 1 2.05 4.33z" fill="#005ba3"/><path d="m9.55 8.96c0 2.7-1.72 4.8-2.58 5.52a6.3 6.3 0 0 0 3.28-5.52 6.1 6.1 0 0 0 -3.28-5.44 7.47 7.47 0 0 1 2.58 5.44z" fill="#29a7b5"/><path d="m13.23 8.95a8.5 8.5 0 0 1 -2.82 6.05 6.9 6.9 0 0 0 3.59-6.05c0-3.43-2.4-5.4-3.59-5.95.94.76 2.82 3 2.82 5.95z" fill="#3a7a81"/></svg>