<svg height="18" viewBox="0 0 18 18" width="18" xmlns="http://www.w3.org/2000/svg"><path d="m0 0h18v18h-18z" fill="#f0f3fa"/><path d="m11.33 4c.05 0 .11.03.14.07l.36.44c.03.03.02.09-.01.12l-.6.5a.27.27 0 0 1 -.15.06h-2.72a.19.19 0 0 1 -.14-.07l-.28-.4a.1.1 0 0 1 .02-.12l.69-.55a.3.3 0 0 1 .15-.05zm-3.36 1.34c.03.04.05.11.04.16l-.5 2.67c0 .05-.04.1-.08.14l-.5.4a.08.08 0 0 1 -.12-.01l-.36-.48a.23.23 0 0 1 -.04-.15l.5-2.65c0-.05.04-.11.08-.14l.5-.39c.04-.03.1-.02.13.02zm-1.84 4.62a.28.28 0 0 0 -.08.14l-.55 3.18c0 .04 0 .11.03.15l.33.54c.03.04.08.04.11.01l.58-.54a.3.3 0 0 0 .08-.14l.56-3.2c0-.04 0-.1-.03-.14l-.35-.48a.08.08 0 0 0 -.12-.01l-.56.5zm6.33-4.54c.03.04.05.1.04.15l-.5 2.6c0 .05-.04.1-.08.14l-.5.4a.08.08 0 0 1 -.12-.01l-.36-.48a.23.23 0 0 1 -.04-.15l.5-2.58c0-.05.04-.1.08-.14l.5-.38c.04-.03.1-.02.13.01zm-1.84 4.56a.28.28 0 0 0 -.08.14l-.56 3.16c-.01.04 0 .11.03.15l.33.46c.02.04.07.05.11.02l.59-.47c.03-.03.07-.1.08-.14l.58-3.2c0-.05-.01-.12-.04-.16l-.36-.46a.08.08 0 0 0 -.12-.01l-.56.5zm-3.2-.28a.2.2 0 0 0 .14.07l2.7-.02c.05 0 .12-.02.16-.05l.57-.5a.1.1 0 0 0 .02-.13l-.33-.45a.19.19 0 0 0 -.13-.07h-2.7a.26.26 0 0 0 -.16.05l-.6.52a.1.1 0 0 0 0 .13z" fill="#d90021"/></svg>