<svg height="18" width="18" xmlns="http://www.w3.org/2000/svg" xmlns:xlink="http://www.w3.org/1999/xlink"><linearGradient id="a" gradientUnits="userSpaceOnUse" x1="3.349" x2="21.904" y1="3.122" y2="24.434"><stop offset="0" stop-color="#1a1e21"/><stop offset="1" stop-color="#06060a"/></linearGradient><path d="m0 0h18v18h-18z" fill="url(#a)"/><g fill="#09c"><path d="m9.518 13.778c-2.238-.626-3.865-2.528-3.865-4.778 0-2.274 1.661-4.192 3.934-4.802.233-.063.172-.198-.112-.198-3.022 0-5.475 2.243-5.475 5s2.453 5 5.475 5c.284 0 .301-.15.043-.222z"/><path d="m6.696 10.161a3.192 3.192 0 0 1 -.026-.404c0-2.195 1.928-3.97 4.313-3.97 2.255 0 2.927.927 3.013.864.095-.063-.818-1.902-3.46-1.902-2.386 0-4.314 1.775-4.314 3.97 0 .507.104.99.293 1.434.077.19.198.19.18.008z"/><path d="m8.504 7.298c1.12-.451 2.532-.467 3.917-.015.93.3 1.473.729 1.516.705.077-.032-.543-.927-1.653-1.316-1.344-.467-2.79-.221-3.84.54-.12.086-.077.142.06.086z"/></g></svg>