<svg height="18" viewBox="0 0 18 18" width="18" xmlns="http://www.w3.org/2000/svg"><path d="m0 0h18v18h-18z" fill="#f0f3fa"/><path d="m13.12 12.57a6.15 6.15 0 0 1 -3.63 1.19 6.34 6.34 0 0 1 -6.29-6.41c0-.55.07-1.07.2-1.58a6.3 6.3 0 0 0 -.4 2.23c0 3.41 2.7 6.18 6.05 6.18 1.57 0 3-.6 4.07-1.6z" fill="#f3af28"/><path d="m14.84 10.7a6.2 6.2 0 0 1 -11.14.54 6.5 6.5 0 0 1 -.6-1.47c.11.73.35 1.46.74 2.14a5.98 5.98 0 0 0 8.26 2.26 6.14 6.14 0 0 0 2.74-3.48z" fill="#a7d340"/><path d="m8.07 13c-1-.25-1.93-.8-2.66-1.66a5.32 5.32 0 0 1 1.56-8.1 5.13 5.13 0 0 0 -2.05 8.06 4.88 4.88 0 0 0 3.15 1.7z" fill="#4b8ab7"/><path d="m5.78 9.92a4.73 4.73 0 0 1 -.4-2.8 4.57 4.57 0 0 1 6.32-3.5 4.4 4.4 0 0 0 -6.57 3.12 4.56 4.56 0 0 0 .65 3.18z" fill="#b4d138"/><path d="m9.44 10.22c-1.91-1.1-1.28-3.96-.6-5.58.08-.18.3-.19.4-.03 1.92 3.25 1.15 5.03.42 5.6a.2.2 0 0 1 -.22.01zm-.22 2.1c-1.73.44-2.8-1.9-3.21-3.42-.05-.17.09-.32.23-.26 2.82 1.01 3.26 2.7 3.1 3.53a.18.18 0 0 1 -.12.15zm5.42-5.35c-2.11.59-5.37 2.22-4.9 5.11.02.11.1.2.2.23 1.13.3 3.46-.32 5.04-4.94.08-.23-.11-.46-.34-.4z" fill="#aac73a"/></svg>