<svg height="18" width="18" xmlns="http://www.w3.org/2000/svg"><path d="m0 0h18v18h-18z" fill="#f0f3fa"/><path d="m7.96 3h2.07l.44.45.55-.15 1.89 1.08.15.56.6.14 1.04 1.84-.17.6.47.46v2.05l-.46.46.16.59-1.05 1.79-.59.16-.13.52-1.89 1.12-.6-.17-.49.5h-1.91l-.5-.5-.64.17-1.8-1.05-.17-.58-.6-.15-1-1.66.17-.75-.5-.53v-2.01l.49-.46-.16-.64 1.02-1.75.6-.16.17-.62 1.84-1.01.55.15zm-.77.78-.18-.05-1.55.85-.06.22 1.06-.28zm-.6.97v1.83h-1.79l.95 1.52-1.62.88 1.54.92-.93 1.53h1.83v1.75l1.55-.84.92 1.46.85-1.53 1.52.91v-1.8h1.78l-.87-1.5 1.52-.9-1.52-.9.93-1.5h-1.85v-1.8l-1.52.91-.89-1.56-.86 1.57-1.53-.95zm2.39-.88-1.03-.3.18-.17h1.73l.17.17zm1.38.03-.9.25.56.99.98-.6zm1.24.69 1.01.24-.04-.18-1.6-.92-.17.05.8.8zm1.13.68-.94-.23v1.16h1.18l-.24-.92zm.73 1.2.75.73.06-.23-.88-1.54-.22-.06zm.62 1.17-.64-.63-.58.93.98.58zm.04 1.34.3 1.07.18-.18v-1.72l-.19-.19zm-.03 1.4-.26-.93-.97.57.57 1 .66-.65zm-.68 1.22-.24.99.22-.06.88-1.51-.06-.2zm-.68 1.11.23-.93h-1.16v1.2zm-1.28.78-.68.68.22.07 1.6-.94.03-.14zm-1.12.56.65-.66-.95-.57-.55.98zm-1.3.04-1.05.29.22.22h1.58l.23-.23zm-1.38-.04.9-.25-.57-.93-.98.53zm-1.18-.61-1.09-.28.06.2 1.52.88.25-.07zm-1.22-.73.91.24v-1.12h-1.16l.26.88zm-.76-1.2-.66-.68-.07.33.84 1.38.2.06-.31-1.08zm-.55-1.15.6.63.57-.96-.96-.57-.2.9zm-.1-1.39-.24-1.04-.2.18v1.68l.21.22.24-1.04zm.1-1.35.2.89 1.03-.56-.57-.95-.66.6zm.59-1.1.3-1.15-.21.06-.86 1.47.06.27.7-.65zm.75-1.27-.25.93h1.17v-1.18l-.91.25zm2.35-1.35.88.25-.54.99-.97-.6z" fill="#9e890f" fill-rule="evenodd"/></svg>