<svg height="18" width="18" xmlns="http://www.w3.org/2000/svg"><path d="m0 0h18v18h-18z" fill="#f0f3fa"/><path d="m4.64 6.4-.35-.3a4.4 4.4 0 0 1 2.9-1.68c-.4.2-1.3.8-1.8 1.62l.37.28a4.1 4.1 0 0 0 -1 2.67c0 2.37 2.06 4.3 4.6 4.3.29 0 .57-.03.84-.08l.01.03a4.8 4.8 0 0 1 -2.61.76c-2.54 0-4.6-1.93-4.6-4.3 0-1.33.64-2.5 1.64-3.3z" fill="#0000fe"/><circle cx="7.5" cy="5.5" fill="#0000fe" r=".5"/><path d="m13.82 8a4.4 4.4 0 0 0 -4.82-3.99 4.88 4.88 0 0 1 4.02 4.45h.98c.1 2.7-1.52 4.38-2.5 4.82 3.15-.86 3.63-3.92 3.47-5.28z" fill="#b3b3b3"/></svg>