<svg height="18" width="18" xmlns="http://www.w3.org/2000/svg"><path d="m0 0h18v18h-18z" fill="#e3711e"/><g fill="#fff"><path d="m9.299 6.627a.434.434 0 0 0 -.614 0l-3.685 4.373 1.677-.321s1.563-1.941 1.953-2.375c.15-.15.26-.304.372-.304s.26.173.372.304c.39.396 1.964 2.374 1.964 2.374l1.667.321-3.705-4.372z"/><path d="m14.998 10.242v-2.45c0-.05 0-.51-.252-.918-.307-.459-.794-.714-.794-.748-.036 0-.162-.085-.36-.187-.921-.46-3.122-1.565-3.79-1.803a2.595 2.595 0 0 0 -.792-.136h-.036a2.69 2.69 0 0 0 -.794.136c-.686.238-2.868 1.344-3.788 1.803-.199.102-.325.187-.38.187-.035 0-.522.289-.793.714-.219.442-.219.918-.219.918v2.45c0 .034-.036.51.253.918.307.459.794.714.794.748.036.034.162.085.36.187.92.46 3.085 1.565 3.789 1.803.27.085.523.136.794.136h.036c.252 0 .523-.051.794-.136.685-.238 2.868-1.344 3.788-1.803.199-.102.325-.187.379-.187.036 0 .523-.289.794-.714.252-.442.216-.918.216-.918zm-.33.008c0 .034 0 .464-.146.689-.198.306-.556.574-.61.625-.037 0-.055.034-.145.05-2.67 1.361-3.585 1.83-3.946 1.932a2.835 2.835 0 0 1 -.83.142h-.036c-.217 0-.433-.13-.65-.198-.469-.153-1.892-.787-4.002-1.875a.524.524 0 0 0 -.108-.051c-.037 0-.43-.274-.664-.632-.171-.26-.196-.657-.196-.69v-2.45c0-.034-.024-.5.174-.77.199-.306.563-.554.617-.605.036 0 .054-.034.108-.051 2.11-1.089 3.534-1.733 4.003-1.886.216-.085.483-.168.7-.168h.09c.216 0 .469.1.685.168.47.153 1.963.826 4.074 1.915 0 0 .443.29.678.63.198.305.204.768.204.768z"/><path d="m11.498 7c.278 0 .5.222.5.5s-.222.5-.5.5a.498.498 0 0 1 -.5-.5c0-.278.223-.5.5-.5z"/></g></svg>