<svg height="18" width="18" xmlns="http://www.w3.org/2000/svg"><path d="m0 0h18v18h-18z" fill="#f0f3fa"/><path d="m3.43 10.02c1.43-2.33 2.84-4.02 4.17-6.02h2.72l-4.07 6.02s-.52.7-.52 1.37c0 .43.15.76.35 1.11h-2.58c-.27-.2-.51-.75-.51-1.1 0-.54.17-.96.43-1.38z" fill="#00539f"/><path d="m10.71 4c1.34 2 2.43 3.69 3.86 6.02.26.42.43.84.43 1.37 0 .36-.24.9-.51 1.11h-2.59c.2-.35.35-.68.35-1.1 0-.68-.52-1.38-.52-1.38l-2.52-3.8 1.51-2.22z" fill="#00a0e0"/><g fill="#00539f"><path d="m9 10.65c.26-.62.84-1.12.86-1.85 0-.7-.54-1.27-.86-1.84-.32.57-.87 1.15-.86 1.85 0 .73.6 1.22.86 1.84z"/><path d="m9 11.21-.16-.34s-.4-.96-1.62-.96h-.74c-.03.08-.05.24-.05.3 0 1.05.63 1.55 1.64 1.55.51 0 .63.17.73.3.09.1.2.44.2.44s.1-.34.19-.44c.1-.13.22-.3.73-.3 1.07 0 1.65-.5 1.65-1.55 0-.04 0-.21-.03-.3h-.76c-1.24 0-1.63.96-1.63.96z"/></g></svg>