<svg height="18" width="18" xmlns="http://www.w3.org/2000/svg"><path d="m0 0h18v18h-18z" fill="#008676"/><g fill="#fff"><path d="m4 12.997h5s.408.062.748-.402c.238-.34-.068-.835-.068-.835l-2.517-4.482c-.17.31-.328.65-.328.897 0 .278.136.65.34 1.02.442.747 1.197 2.08 1.336 2.319.139.24-.092.489-.262.489h-2.735c-.51 0-.615-.331-.65-.578z"/><path d="m11.058 12.997h-1.054s.238-.185.34-.494c.068-.279-.102-.65-.102-.65l-2.84-5.04.476-.865 3.248 5.627s.375.68.273.959c-.068.278-.34.463-.34.463z"/><path d="m12.401 12.997h-.71s.404-.402.234-.773c-.204-.587-.578-1.144-.578-1.144l-3.198-5.627.851-1.453 5 8.997h-1.598z"/></g></svg>