<svg height="18" viewBox="0 0 18 18" width="18" xmlns="http://www.w3.org/2000/svg" xmlns:xlink="http://www.w3.org/1999/xlink"><linearGradient id="a" gradientUnits="userSpaceOnUse" x1="6.85" x2="10" y1="3.6" y2="5.26"><stop offset=".38" stop-color="#ffc720"/><stop offset="1" stop-color="#ba921f"/></linearGradient><linearGradient id="b" gradientUnits="userSpaceOnUse" x1="7.87" x2="9.91" y1="10.9" y2="11.14"><stop offset=".17" stop-color="#775a27"/><stop offset=".39" stop-color="#b69529"/></linearGradient><linearGradient id="c" gradientUnits="userSpaceOnUse" x1="12.31" x2="7.95" y1="10.04" y2="14.67"><stop offset=".11" stop-color="#947529"/><stop offset=".24" stop-color="#bb9929"/><stop offset=".43" stop-color="#fbc626"/><stop offset=".79" stop-color="#fee19a"/><stop offset="1" stop-color="#e5b82b"/></linearGradient><radialGradient id="d" cx="0" cy="0" gradientTransform="matrix(5.39956 -5.49958 4.22768 4.15079 6.3 11.07)" gradientUnits="userSpaceOnUse" r="1"><stop offset=".08" stop-color="#eebe28"/><stop offset=".21" stop-color="#ffdf93"/><stop offset=".84" stop-color="#b89729"/><stop offset="1" stop-color="#977829"/></radialGradient><path d="m0 0h18v18h-18z" fill="#f0f3fa"/><circle cx="8.5" cy="4.5" fill="url(#a)" r="1.5"/><path d="m9.23 10.44c-.96 0-1.34-.82-1.32-.85-.27.3-.76 1-.55 1.43s1.23.73 1.71.83l1.86-1.44c-.25 0-.93.03-1.7.03z" fill="url(#b)"/><path d="m9.9 6.17c.61-.51.73-1 .7-1.17.02 0 .2.16.88.86.7.68.18 1.54-.16 1.88-.54.4-1.82 1.36-2.69 2.03a1.4 1.4 0 0 0 -.42 1.88c-.73-.25-2.21-.99-2.21-1.88 0-1.12 3.12-2.97 3.9-3.6z" fill="url(#d)"/><path d="m8.17 15c.12-.7 1.8-1.93 3.2-3.02 1.1-.85.51-1.87.05-2.3a15.7 15.7 0 0 0 -2.29 1.44c-.71.58-2.13 1.9-2.13 2.53 0 .64.78 1.17 1.18 1.35z" fill="url(#c)"/></svg>