<svg height="18" viewBox="0 0 18 18" width="18" xmlns="http://www.w3.org/2000/svg"><path d="m0 0h18v18h-18z" fill="#f0f3fa"/><path d="m15 8.25c-2.83-.36-4.04.4-6.26 2.65-.6-.65-1.16-1.15-1.69-1.53l.3-.6c.85.56 1.92.56 2.74-.03 1.02-.74 2.4-1.2 4.91-.49zm-12 0c1.54-.49 2.66-.38 3.7.16l-.27.56c-1.59-1-2.69-.89-3.43-.72z" fill="#389fc8"/><path d="m5 13v-.3a.8.8 0 0 0 .76-.53l2.7-7.5a.27.27 0 0 0 -.25-.37v-.3h1.37l1.34 4.26c-.27.14-.63.33-.87.52l-1.22-3.55-2.32 6.8a.5.5 0 0 0 .47.67h.66v.3zm5-.3h.7a.5.5 0 0 0 .48-.66l-.7-2.03.76-.76 1.02 2.93c.11.31.4.52.74.52v.3h-3z" fill="#0e233d"/></svg>