<svg height="18" viewBox="0 0 18 18" width="18" xmlns="http://www.w3.org/2000/svg" xmlns:xlink="http://www.w3.org/1999/xlink"><linearGradient id="a" gradientUnits="userSpaceOnUse" x1="8.38" x2="9.52" y1="3" y2="5"><stop offset=".26" stop-color="#e6d937"/><stop offset=".8" stop-color="#e7a919"/></linearGradient><linearGradient id="b" gradientUnits="userSpaceOnUse" x1="9" x2="9" y1="4" y2="14"><stop offset="0" stop-color="#010101"/><stop offset="1" stop-color="#184179"/></linearGradient><path d="m0 0h18v18h-18z" fill="#f0f3fa"/><circle cx="9" cy="4" fill="url(#a)" r="1"/><path d="m7 4.1a2 2 0 0 0 1.03 1.65l-2.31 6.98a5.22 5.22 0 0 1 -1.72-3.9 5.17 5.17 0 0 1 3-4.73zm5.28 8.63-2.3-6.98a2 2 0 0 0 1.02-1.65c1.76.8 3 2.62 3 4.74 0 1.55-.66 2.94-1.72 3.9zm-5.68.63.74-2.36h3.32l.74 2.36a4.86 4.86 0 0 1 -4.8 0zm3.74-3.36h-2.68l1.34-4.25z" fill="url(#b)"/></svg>