<svg height="18" viewBox="0 0 18 18" width="18" xmlns="http://www.w3.org/2000/svg"><path d="m0 0h18v18h-18z" fill="#f0f3fa"/><path d="m4 7h4v1h-4z" fill="#00a2a5"/><path d="m4 8.5h3v1h-3zm7 0h3v1h-3zm-3 0h2v1h-2z" fill="#01bff1"/><path d="m7 14v-3h1v3zm0-7v-3h1v3zm0 3v-2h1v2z" fill="#f09927"/><path d="m10 14v-3h1v3zm0-7v-3h1v3zm0 3v-2h1v2z" fill="#ee4d23"/><path d="m4 10h4v1h-4z" fill="#0070b4"/><path d="m10 7h4v1h-4z" fill="#00a2a5"/><path d="m9.5 4v4h-1v-4zm0 6v4h-1v-4z" fill="#66b444"/><path d="m10 10h4v1h-4z" fill="#0070b4"/></svg>