<svg height="18" width="18" xmlns="http://www.w3.org/2000/svg"><path d="m0 0h18v18h-18z" fill="#f0f3fa"/><path d="m7.32 12.18v.91c.25.42.25.7.25.7a5 5 0 0 1 -3.27-6.46s.43.16.43.86c0 .38.88.81.88.81l.2 1.43s.82 0 1.52 1.75z" fill="#163d68"/><path d="m13.9 10.15a5.01 5.01 0 0 1 -5.8 3.77s.36-.72 1.71-.79c1.88-.8 1.83-1.37 1.96-1.4 1.39-.24 2.12-1.58 2.12-1.58zm-1.07-2.28c-.72.95-1.69.75-1.69.75l-.28-.6h-.43c-.8-.8-1.3-2.1-1.3-2.1h-.4c-.81-.3-.81-.8-.81-.8l-.98-.67a5 5 0 0 1 7.06 4.04s-.47 0-1.17-.62z" fill="#00a3de"/></svg>