<svg height="18" width="18" xmlns="http://www.w3.org/2000/svg"><path d="m0 0h18v18h-18z" fill="#e13a3e"/><g fill="#fff"><path d="m6.958 13.4c-1.502-.665-1.705-3.144-.406-5.55 1.259-2.369 3.533-3.738 5.035-3.072.893.408 1.38 1.48 1.38 2.777.163-1.591-.284-2.886-1.38-3.367-1.705-.741-4.223.775-5.644 3.44-1.421 2.664-1.218 5.439.487 6.179 1.056.48 2.477.037 3.736-1.036-1.137.777-2.355 1.036-3.207.628v.001z"/><path d="m8.845 9.582 1.403-1.95.207 1.95zm-.619.836h2.353l.082.836-.413.04-.248.706h2.405l.196-.706-.248-.04-.082-.318-.618-4.936h-1.238l-3.507 4.936-.332.358-.248.04-.328.666h1.831l.19-.666-.37-.04.577-.876z"/></g></svg>