<svg height="18" width="18" xmlns="http://www.w3.org/2000/svg"><path d="m0 0h18v18h-18z" fill="#0675aa"/><path d="m8.995 4-1.063 2.35 1.05 2.09 1.064-2.068zm.398 4.592.754-2.176 2.35-.96-.957 2.386zm2.182-.655 2.425 1.058-2.374 1.013-2.063-1.015zm-.013 2.164-2.173-.716.773 2.223 2.336.936zm-2.569-.542 1.06 2.078-1.057 2.363-1.057-2.356zm-.39-.174-.758 2.216-2.359.938.945-2.452zm-4.603-.39 2.395-1.037 2.057 1.022-2.093 1.02zm2.452-1.138-.98-2.404 2.359.941.772 2.188-2.15-.725z" fill="#f6f8fd"/></svg>