<svg fill="none" height="18" width="18" xmlns="http://www.w3.org/2000/svg" xmlns:xlink="http://www.w3.org/1999/xlink"><linearGradient id="a" gradientUnits="userSpaceOnUse" x1="3.349" x2="21.904" y1="3.122" y2="24.434"><stop offset="0" stop-color="#1a1e21"/><stop offset="1" stop-color="#06060a"/></linearGradient><path d="m0 0h18v18h-18z" fill="url(#a)"/><g fill="#ffe900"><path d="m10.059 4.112a5 5 0 0 0 -4.72 8.292l.016-.015c.896.98 1.694 1.028 2.114.967.6-.087 1.037-.627.93-1.19-.098-.52-.549-.88-1.116-.952l-.133-.016c-.415-.049-.9-.105-1.324-.52-.558-.547-.763-1.416-.485-2.211.19-.542.594-1.01 1.177-1.244.832-.334 1.9-.128 2.465.67.265.372.348.81.382 1.255.03.404.21.686.599.92a1.442 1.442 0 0 0 1.6-.094l.003-.003.004-.002c.442-.309.624-.956.469-1.521a1.178 1.178 0 0 0 -.242-.485.885.885 0 0 0 -.338-.23 2.86 2.86 0 0 0 -.503-.138l-.115-.023c-.163-.033-.345-.07-.524-.12a1.886 1.886 0 0 1 -.769-.424 1.845 1.845 0 0 1 -.596-1.562c.068-.575.434-1.1 1.106-1.354z"/><path d="m8.044 13.909a5 5 0 0 0 3.928-8.93c-.68-.332-1.247-.368-1.65-.22-.442.16-.64.47-.677.79-.04.336.093.708.374.964.13.12.293.214.486.268.153.042.303.073.463.105h.002l.128.027c.202.041.42.091.627.176.212.087.418.213.593.41.176.197.306.448.393.764.216.783-.005 1.761-.738 2.275a2.139 2.139 0 0 1 -2.37.127c-.558-.338-.884-.81-.933-1.465-.03-.404-.101-.687-.255-.904-.351-.496-1.058-.659-1.637-.427-.38.153-.65.46-.779.828-.193.55-.043 1.132.314 1.483.248.242.497.273.938.328l.12.015c.794.102 1.546.63 1.713 1.513.159.84-.347 1.566-1.04 1.873z"/></g></svg>