<svg height="18" width="18" xmlns="http://www.w3.org/2000/svg"><path d="m0 0h18v18h-18z" fill="#0886c8"/><path d="m10.03 6.931.427 1.207 1.043.502 1.03-2.932z" fill="#74be45"/><path d="m5.457 5.708 1.043 2.932 1.03-.502.427-1.207z" fill="#fab01a"/><path d="m12.53 9.141-1.03-.501-.428 1.223.428 1.207 1.03-.502 1.47-.706-1.47-.72z" fill="#fee600"/><path d="m11.928 12.291-.428-1.221-.428-1.207-.615 1.708-.428 1.223 1.043.502 1.458.704-.601-1.709z" fill="#23aae2"/><path d="m6.5 8.64-1.043.501-1.457.721 1.457.705 1.043.502.428-1.207z" fill="#fee600"/><path d="m6.5 8.64.428 1.222.601-1.724-1.029.501z" fill="#fecf0a"/><path d="m10.457 8.138.615 1.724.428-1.223z" fill="#c3d830"/><path d="m7.53 11.57-.602-1.708-.428 1.208-.428 1.222-.615 1.708 1.47-.705 1.03-.502-.428-1.223z" fill="#23aae2"/><path d="m7.957 12.793 1.043-2.93 1.03 2.93.427-1.223.615-1.708-.615-1.724-.428-1.207-1.029-2.931-1.043 2.931-.427 1.207-.601 1.724.601 1.708.428 1.223z" fill="#fff"/></svg>