<svg height="18" width="18" xmlns="http://www.w3.org/2000/svg"><path d="m0 0h18v18h-18z" fill="#d71920"/><g fill="#fff"><path d="m7.792 9.21c-.51 1.265-1.087 2.706-1.597 3.925.089.045.155.111.244.156l1.685-3.127zm.665-1.64.532.997.554-.997a37.185 37.185 0 0 0 -.554-1.33c0 .044-.222.554-.532 1.33zm1.685 1.485a84.456 84.456 0 0 1 -.532-1.33l-.444 1.153.533.976z"/><path d="m8.967 6.062.022-.044s.022.044.044.044l3.526 6.453a5.036 5.036 0 0 0 1.441-3.526c0-2.75-2.24-4.989-5.011-4.989a4.997 4.997 0 0 0 -4.989 4.989c0 1.375.554 2.617 1.441 3.526z"/><path d="m9.321 11.716 1.131 2.063c.067-.023.155-.045.244-.09l-1.086-2.814-.289.842zm-.332.887-.466 1.375c.155 0 .31.022.466.022.177 0 .332-.022.488-.022zm1.22-3.393-.333.954 1.685 3.127a1.5 1.5 0 0 1 .244-.156c-.51-1.22-1.087-2.683-1.597-3.925zm-1.819 1.664-1.086 2.816c.088.044.177.066.244.088l1.13-2.062zm1.02-.488-.421-1.087-.4 1.087.4.754zm-1.552-1.33.443.798.533-.976-.444-1.153c-.155.4-.332.842-.532 1.33z"/></g></svg>