<svg height="18" width="18" xmlns="http://www.w3.org/2000/svg" xmlns:xlink="http://www.w3.org/1999/xlink"><linearGradient id="a" gradientUnits="userSpaceOnUse" x1="3.349" x2="21.904" y1="3.122" y2="24.434"><stop offset="0" stop-color="#1a1e21"/><stop offset="1" stop-color="#06060a"/></linearGradient><path d="m0 0h18v18h-18z" fill="url(#a)"/><path d="m3.999 4h2.003v1h-1.002v8h1.002v1h-2.003zm10.001 0h-2v1h1v8h-1v1h2zm-6.996 4 1.333-4h1.334l1.333 4h-1.001l-.332-1h-1.334l-.333 1z" fill="#fff"/><path d="m8.634 6 .364-1 .37 1z" fill="#08090d"/><path d="m7.004 14v-4h2.738c1.01 0 1.262.62 1.262 1.057 0 .629-.576.874-.798.956.548 0 .798.44.798.87 0 .9-.841 1.12-1.262 1.117z" fill="#fff"/><path d="m9.298 10.63h-.963v.92h.963a.488.488 0 0 0 .368-.496c0-.333-.245-.42-.368-.423zm0 1.84h-.963v.918h.963a.489.489 0 0 0 .368-.495c0-.333-.245-.421-.368-.423z" fill="#08090d"/></svg>