<svg height="18" width="18" xmlns="http://www.w3.org/2000/svg"><path d="m0 0h18v18h-18z" fill="#50104a"/><path d="m8.177 13.958a5.02 5.02 0 0 1 -3.608-2.633 5.033 5.033 0 0 1 3.159-7.183c.516-.132.61-.142 1.28-.142.584 0 .637.004.925.061a4.98 4.98 0 0 1 2.606 1.395 5.004 5.004 0 0 1 1.439 3.038c.022.506.022 2.752.022 2.752v2.754h-3v-1.49c0-.279.002-.538.003-.75a8.272 8.272 0 0 0 -.003-.549c-.006-.004-.046.044-.146.162-.205.242-.664.784-1.6 1.793-.722.781-.777.837-.817.834a8.16 8.16 0 0 1 -.26-.042zm2.823-4.018c.004-.698-.002-1.111-.018-1.22a2 2 0 0 0 -3.772-.609 2.11 2.11 0 0 0 -.205 1.013c.062.817.588 1.51 1.343 1.77.112.038.255.078.319.088.063.011.612.018 1.22.017l1.107-.003z" fill="#fff"/></svg>