<svg height="18" viewBox="0 0 18 18" width="18" xmlns="http://www.w3.org/2000/svg"><path d="m0 0h18v18h-18z" fill="#f0f3fa"/><path d="m8.96 4 4.72 7.47c.19.28.3.56.32.84 0 .55-.5.94-1.27 1.19.54-.34.92-.75.92-1.2 0-1.12-2.14-2.03-4.7-2.03s-4.65.91-4.65 2.04c0 .44.31.83.83 1.16-.7-.26-1.13-.64-1.13-1.16 0-.28.1-.55.3-.83zm3.44 8.18c.46.2.4.82-.26.82h-1.04c-.3 0-.59-.33-.59-.37h1.67l-1.24-.54c-.43-.19-.43-.78.27-.78h.94c.2 0 .34.13.37.33h-1.38l1.27.54zm-3.52.45h1.38c0 .04-.28.37-.58.37h-1c-.24 0-.38-.17-.38-.4v-1.3h.58zm-2.71-1.32h.75l1.03 1.69c-.27 0-.6-.09-.77-.35l-.04-.07h-1.2a.29.29 0 0 1 -.04.07c-.15.26-.5.34-.78.34l1.05-1.7zm.37.3-.39.62h.77z" fill="#005387"/><path d="m9 9.63c-1.29-1.74 0-3.13 0-3.13s1.29 1.38 0 3.13z" fill="#ffcf46"/><path d="m9.73 10.34c.3 0 .54-.25.54-.54 0-.3-.25-.54-.54-.54h-1.46c-.3 0-.54.25-.54.54 0 .3.25.54.54.54z" fill="#96a9c9"/></svg>