<svg height="18" viewBox="0 0 18 18" width="18" xmlns="http://www.w3.org/2000/svg" xmlns:xlink="http://www.w3.org/1999/xlink"><linearGradient id="a" gradientUnits="userSpaceOnUse" x1="9.01" x2="9.01" y1="3" y2="5.83"><stop offset="0" stop-color="#e3cae0"/><stop offset="1" stop-color="#e6cfe3"/></linearGradient><linearGradient id="b"><stop offset="0" stop-color="#8a3094"/><stop offset="1" stop-color="#b87cbc"/></linearGradient><linearGradient id="c" gradientUnits="userSpaceOnUse" x1="4.09" x2="8.09" xlink:href="#b" y1="6.73" y2="10.5"/><linearGradient id="d" gradientUnits="userSpaceOnUse" x1="13" x2="9.98" xlink:href="#b" y1="6.35" y2="10.58"/><linearGradient id="e" gradientUnits="userSpaceOnUse" x1="8.85" x2="4.9" y1="9.02" y2="9.11"><stop offset="0" stop-color="#eedded"/><stop offset="1" stop-color="#e3cae0"/></linearGradient><linearGradient id="f" gradientUnits="userSpaceOnUse" x1="12.95" x2="9.17" y1="8.93" y2="8.97"><stop offset="0" stop-color="#e3cae0"/><stop offset="1" stop-color="#eedded"/></linearGradient><linearGradient id="g" gradientUnits="userSpaceOnUse" x1="8.99" x2="8.99" y1="9.84" y2="15"><stop offset="0" stop-color="#bf8cc4"/><stop offset="1" stop-color="#98459f"/></linearGradient><path d="m0 0h18v18h-18z" fill="#f0f3fa"/><path d="m8.3 3.24a3.77 3.77 0 0 0 -1.6 2.59h.7c.47-1.63 1.22-2.03 1.61-2.03.63 0 1.44 1.2 1.59 2.03h.72c-.07-1.08-1.15-2.26-1.62-2.6a1.17 1.17 0 0 0 -1.41 0z" fill="url(#a)"/><path d="m3 8.1c0-.8 2.07-2.23 4.05-2.15 1.7.07 1.7 1.45 1.48 2.14-.07-1.34-.9-1.54-1.48-1.47-1.66.22-2.9 1.14-2.9 1.63 0 1.13 1.64 2.93 2.3 2.93.37 0 .54-.61.78-.94a1.2 1.2 0 0 1 1.47-.46c-.64.04-1.1.36-1.32 1.34a1 1 0 0 1 -1.07.83c-1.49-.08-3.31-2.63-3.31-3.86z" fill="url(#c)"/><path d="m15 8.1c0-.8-2.07-2.23-4.05-2.15-1.7.07-1.7 1.45-1.48 2.14.07-1.34.9-1.54 1.48-1.47 1.66.22 2.9 1.14 2.9 1.63 0 1.13-1.64 2.93-2.3 2.93-.37 0-.54-.61-.78-.94a1.2 1.2 0 0 0 -1.47-.46c.64.04 1.1.36 1.32 1.34a1 1 0 0 0 1.07.83c1.49-.08 3.31-2.63 3.31-3.86z" fill="url(#d)"/><path d="m7.72 8.03a7.28 7.28 0 0 1 -.84-1.23h.64c.08.14.2.33.8 1.23.48.72.55 1.44.52 1.71-.02-.12-.33-.37-1.35-.43-1-.06-1.8.67-2.06 1.04l-.53-.67a2.9 2.9 0 0 1 3.3-.67c.04-.08 0-.38-.48-.98z" fill="url(#e)"/><path d="m10.3 8.03c.49-.6.76-1.07.84-1.23h-.65c-.08.14-.2.33-.8 1.23a2.91 2.91 0 0 0 -.52 1.71c.03-.12.34-.37 1.35-.43s1.8.67 2.06 1.04l.53-.67a2.9 2.9 0 0 0 -3.3-.67c-.04-.08 0-.38.49-.98z" fill="url(#f)"/><path d="m3.67 12.53c.12-.86.38-1.54.5-1.77l.66.65-.18.56c.27.19 1.1.55 2.21.51 1.12-.03 1.73-.6 1.89-.9 0 .16-.42 1.64-2.33 1.61a5.1 5.1 0 0 1 -2.75-.66zm10.66 0a6.25 6.25 0 0 0 -.5-1.77l-.66.65.19.56c-.27.19-1.1.55-2.22.51-1.12-.03-1.72-.6-1.88-.9 0 .16.42 1.64 2.33 1.61a5.1 5.1 0 0 0 2.74-.66z" fill="#e3cae0"/><path d="m9.3 10.64c0 .48-.13.88-.3.88s-.3-.4-.3-.88c0-.36.07-.66.18-.8-.38.07-.67.43-.67.86 0 .13.02.25.06.35a2.8 2.8 0 0 0 -1.27 1.27l.52-.06c.3-.5.71-.8.94-.92.14.15.33.24.54.24.22 0 .41-.1.56-.25.21.1.65.41.96.93l.52.06a2.8 2.8 0 0 0 -1.3-1.28c.03-.1.05-.22.05-.34 0-.43-.29-.8-.66-.86.1.14.18.44.18.8zm-1.73 2.48c.15.3.66.92 1.42.95.75.03 1.28-.62 1.44-.95.14.06.47.18.71.18 0 .53-.94 1.7-2.08 1.7a2.3 2.3 0 0 1 -2.22-1.7c.1-.01.4-.06.73-.18z" fill="url(#g)"/></svg>