<svg height="18" viewBox="0 0 18 18" width="18" xmlns="http://www.w3.org/2000/svg"><path d="m0 0h18v18h-18z" fill="#003340"/><g fill="#cac6a9"><path d="m3 12 6.03-7 5.97 7h-.88c-.12-.2-.32-.46-.63-.72a4.04 4.04 0 0 1 -.87-.95 8.1 8.1 0 0 0 -.73-.42h-.02l-.04-.02-.04.03c-.08.06-.24.2-.38.4-.11.17-.38.53-.55.76a8.74 8.74 0 0 0 -.84-1.19 1.14 1.14 0 0 0 -.35-.27 1.57 1.57 0 0 1 -.52-.43 3.6 3.6 0 0 1 -.37-.52v-.02l-.62-.4-.05.08c-.26.38-.84 1.2-1.22 1.61-.14.13-.27.23-.38.27-.41.19-1.85 1.27-2.51 1.79z"/><path d="m8.1 8.54v2.28l.58.69.92-.69v.89l.54.29.64-.7-.01-.01a8.59 8.59 0 0 0 -.89-1.29.97.97 0 0 0 -.28-.23 1.74 1.74 0 0 1 -.6-.47 3.8 3.8 0 0 1 -.37-.52l-.42-.28zm3.9 1.56v1.53l.42.37h1.48c-.1-.17-.28-.38-.53-.6a4.22 4.22 0 0 1 -.86-.92 8.17 8.17 0 0 0 -.26-.16c-.12-.07-.14-.15-.25-.21z"/></g></svg>