<svg height="18" width="18" xmlns="http://www.w3.org/2000/svg"><path d="m0 0h18v18h-18z" fill="#f0f3fa"/><path d="m7.928 9.562-3.896.002a4.509 4.509 0 0 1 -.015-.92l3.91.838v.08z" fill="#3f9b2c"/><path d="m10.572 9.094 3.309-1.273c.052.252.099.516.12.807l-3.407.538z" fill="#ef3120"/><g fill="#3f9b2c"><path d="m7.992 9.076-3.92-.956c.061-.34.199-.835.339-1.13l3.606 2.013a.313.313 0 0 0 -.025.073zm2.164-.628 2.193-3.206c.254.231.553.533.722.813l-2.86 2.443c-.014-.015-.032-.035-.055-.05zm-1.899.151-3.507-2.267c.18-.335.726-.954 1.011-1.176l2.544 3.39a.253.253 0 0 0 -.048.053zm1.268-.457.095-4.142c.45.05 1.069.213 1.416.39l-1.446 3.764a.22.22 0 0 0 -.064-.012zm-.731.068-2.247-3.6a4.973 4.973 0 0 1 1.8-.607l.519 4.182a.438.438 0 0 0 -.072.024zm-4.442 2.621s-.067-.177-.135-.403a10.987 10.987 0 0 1 -.124-.464c1.277-.167 3.27-.176 4.641-.176 0 0-2.651.252-4.382 1.043zm2.833 2.834s-.312-.1-.699-.321a4.485 4.485 0 0 1 -.675-.494c.768-.99 3.267-2.938 5.611-3.066 0 0-2.415.87-4.237 3.881z"/><path d="m10.32 13.827s-.588.178-1.312.173c-.708-.005-1.032-.107-1.032-.107.146-.51 1.821-3.486 3.828-4.109 0 0-1.548 1.67-1.485 4.043zm-5.04-1.488s-.153-.139-.409-.51c-.235-.341-.335-.572-.335-.572.632-.41 2.855-1.473 6.008-1.473 0 0-2.735.5-5.264 2.555z"/></g></svg>