<svg height="18" viewBox="0 0 18 18" width="18" xmlns="http://www.w3.org/2000/svg"><path d="m0 0h18v18h-18z" fill="#f0f3fa"/><circle cx="9" cy="9" fill="#cdc6c0" r="5"/><path d="m6 12v-.18c.48 0 .8-.62.9-.93l1.95-5.89h.15l1.95 5.9c.24.73.8.92 1.05.92v.18h-1.95v-.18c.24 0 .2-.25.15-.37l-1.5-4.6c-.35 1.28-1.21 3.72-1.35 4.23-.15.55.2.74.45.74v.18z" fill="#183d74"/><path d="m6.05 9.07c-.28 0-.82.05-1.05.14v-.14c.35-.14.7-.28 1.05-.28 1.75 0 2.1.28 4.2.28.56 0 1.05-.43 1.22-.57l.53.43c-.3.14-1.05.57-1.75.57-.88 0-3.85-.43-4.2-.43z" fill="#183d74"/><path d="m5 10.06v-.23c.32-.1.64-.33 1.12-.33 1.44 0 2.48.33 5.03.33.31 0 1.07-.26 1.23-.33l.62 1h-1.23c-2.24 0-4.7-.75-5.65-.75-.48 0-.9.2-1.12.3z" fill="#db282e"/></svg>