<svg height="18" width="18" xmlns="http://www.w3.org/2000/svg" xmlns:xlink="http://www.w3.org/1999/xlink"><linearGradient id="a" gradientUnits="userSpaceOnUse" x1="5.44" x2="17.25" y1="15.19" y2=".94"><stop offset=".21" stop-color="#185daa"/><stop offset=".78" stop-color="#019bd9"/></linearGradient><linearGradient id="b"><stop offset="0" stop-color="#fff"/><stop offset=".84" stop-color="#0a82c6"/></linearGradient><linearGradient id="c" gradientUnits="userSpaceOnUse" x1="10.31" x2="11.92" xlink:href="#b" y1="5.98" y2="7.5"/><linearGradient id="d" gradientUnits="userSpaceOnUse" x1="11.7" x2="10.09" xlink:href="#b" y1="9.03" y2="7.51"/><path d="m0 0h18v18h-18z" fill="#f0f3fa"/><path d="m14 11.4v-7.4h-7.44c-1.53 0-2.56 1-2.56 2.63v7.37h7.47c1.5 0 2.53-1.03 2.53-2.6z" fill="url(#a)"/><path d="m10.98 7.45-1.08.98c-.57-1.03-.24-1.74 0-1.97l1.14-1.11c.32-.24.67-.34.96-.35.44 0 .81.17 1 .32l-1 .99c-.72-.34-1.14-.3-1.26-.24-.2.5.08 1.12.24 1.38z" fill="url(#c)"/><path d="m11.03 7.56 1.08-.98c.58 1.03.24 1.74 0 1.97l-1.17 1.15c-.32.24-.63.3-.92.31-.45 0-.83-.16-1.02-.3l1.02-1c.7.34 1.13.3 1.26.24.2-.5-.09-1.12-.25-1.38z" fill="url(#d)"/><path d="m6.79 13c-.37 0-.68-.11-.93-.36a1.34 1.34 0 0 1 -.36-.98c0-.48.16-.84.49-1.08s.8-.3 1.4-.3c.12 0 .37-.03.6 0 0-.75-.6-.8-.89-.8-.42 0-.65.06-1.1.17v-.83c.36-.2.76-.29 1.34-.29 1.17 0 1.66.6 1.66 1.81v2.66h-1.01v-.48s-.3.48-1.2.48zm.31-.73c.6 0 .8-.31.89-.54v-.7c-.37 0-1.47-.08-1.47.63 0 .26.19.6.58.6z" fill="#fff"/></svg>