<svg height="18" width="18" xmlns="http://www.w3.org/2000/svg"><path d="m0 0h18v18h-18z" fill="#d54a35"/><g fill="#fefefe"><path d="m13.152 8.187c-.391-2.007-2.148-3.521-4.258-3.521-2.396 0-4.339 1.954-4.339 4.365 0 2.412 1.943 4.366 4.34 4.366a4.318 4.318 0 0 0 3.301-1.534l.71.021a4.955 4.955 0 0 1 -4.058 2.116c-2.744 0-4.97-2.239-4.97-5s2.226-5 4.97-5c2.47 0 4.517 1.811 4.904 4.186l-.599.001z"/><path d="m6.91 7.557h-.666l.632-1h.01zm-.865 1.23.092-.356c-.214 0-.294-.002-.294-.095 0-.076.282-.488.282-.488h.87l.07.547-.353.048-.084.344h1.43l.073-.282-.199-.032-.386-2.873h-.493l-1.557 2.472c-.121.183-.267.388-.51.433l-.087.282z"/><path d="m9.07 8.497h-.665l.631-1h.01zm-.864 1.23.091-.356c-.213 0-.293-.002-.293-.095 0-.076.282-.488.282-.488h.869l.07.547-.352.047-.084.345 1.563-.011.106-.357-.34.012-.423-2.855-.458-.012-1.58 2.508c-.121.182-.267.387-.51.432l-.087.283z"/><path d="m9.847 8.443 1.715-.012.223 1.641.07-.012 1.175-1.63h1.21l-.048.382h-.387s-.646 2.414-.576 2.45c.07.035.34.011.34.011l-.058.357h-1.667l.07-.357s.294.013.388-.035.34-1.558.34-1.558l-1.221 1.938-.305.024-.317-2.057-.27 1.225c-.035.098-.071.257-.071.333 0 .188.14.113.305.13l-.047.357h-1.268l.07-.344c.388 0 .432-.114.495-.293l.492-2.205-.617-.018-.04-.327z"/></g></svg>