<svg height="18" viewBox="0 0 18 18" width="18" xmlns="http://www.w3.org/2000/svg"><path d="m0 0h18v18h-18z" fill="#f0f3fa"/><g fill-rule="evenodd"><path d="m10.25 7.58.31.5c.13-.13.63-.3 1.1-.3.46 0 .53.31.53.88h-.92c-.4.02-1.27.22-1.27 1.03 0 1.02.79 1.31 1.28 1.31.5 0 .79-.32.91-.56v.56h.81v-2.7c-.01-.43-.3-1.3-1.35-1.3-.6 0-1.18.39-1.4.58zm1.94 1.66h-1.04c-.19.03-.57.19-.57.55 0 .47.41.62.73.62s.88-.3.88-.7z" fill="#fa531a"/><path d="m9.13 4a5.13 5.13 0 0 1 4.87 3.4c0 .1-.03.25-.08.35-.2-.49-.58-.88-1.07-1.11a3 3 0 1 0 -.2 4.86h.93a5.16 5.16 0 0 1 -4.45 2.5 5.07 5.07 0 0 1 -5.13-5c0-2.76 2.3-5 5.13-5zm-4.13 5c0-2.68 2.6-4 4-4a4.32 4.32 0 0 0 -3 4 4.4 4.4 0 0 0 3 4c-1.4 0-4-1.32-4-4z" fill="#980087"/></g></svg>