<svg height="18" width="18" xmlns="http://www.w3.org/2000/svg"><path d="m0 0h18v18h-18z" fill="#f0f3fa"/><path d="m10.066 13.363-1.886-2.808h1.758l1.384 2.195c-.172.397-.5 1.107-.688 1.107-.076 0-.39-.264-.568-.494z" fill="#34b234"/><path d="m12.198 7.428-1.719.01 1.959 3.124h1.562a.702.702 0 0 0 -.097-.38l-.001-.003-1.704-2.75z" fill="#003c6a"/><path d="m8.193 10.563 2.287-3.126.814 1.305-1.357 1.82h-1.744z" fill="#015bbb"/><path d="m7.87 4.607-1.915 2.84h1.718l1.45-2.134c-.178-.399-.59-1.234-.77-1.162-.146.059-.34.246-.483.456z" fill="#ad98db"/><path d="m12.209 7.447h-1.736l-2.155-3.28a.977.977 0 0 1 .402-.15c.08-.01.207-.017.69-.017.345 0 .644.246.822.458l1.977 2.99z" fill="#663ab6"/><path d="m12.463 13.474 1.51-2.627c.027-.074.027-.279.027-.347h-1.597l-1.81 3.33a.85.85 0 0 0 .389.152c.078.011.247.024.656.01.292-.01.562-.163.825-.518z" fill="#018b96"/><path d="m5.958 7.437-1.958 3.125h1.736l1.17-1.874z" fill="#5eb6e4"/><path d="m8.195 10.563-2.238-3.126h1.725l1.387 1.93-.874 1.195z" fill="#0098db"/><path d="m8.195 10.57-2.224 3.43h1.736l1.375-2.1z" fill="#7bb801"/></svg>