<svg height="18" viewBox="0 0 18 18" width="18" xmlns="http://www.w3.org/2000/svg" xmlns:xlink="http://www.w3.org/1999/xlink"><linearGradient id="a" gradientUnits="userSpaceOnUse" x1="3.35" x2="21.9" y1="3.12" y2="24.43"><stop offset="0" stop-color="#1a1e21"/><stop offset="1" stop-color="#06060a"/></linearGradient><path d="m0 0h18v18h-18z" fill="url(#a)"/><path d="m10.2 6.17c0 .64-.54 1.16-1.2 1.16s-1.2-.52-1.2-1.16c0-.65.54-1.17 1.2-1.17s1.2.52 1.2 1.17zm2.4 2.33c0 .64-.54 1.17-1.2 1.17-.22 0-.43-.06-.61-.16l-.76.73c.1.17.17.38.17.6 0 .64-.54 1.16-1.2 1.16s-1.2-.52-1.2-1.17c0-.21.06-.42.17-.59l-.76-.73c-.18.1-.39.16-.61.16-.66 0-1.2-.53-1.2-1.17s.54-1.17 1.2-1.17 1.2.53 1.2 1.17c0 .22-.06.42-.17.6l.76.73a1.22 1.22 0 0 1 1.22 0l.76-.74c-.1-.17-.17-.37-.17-.59 0-.64.54-1.17 1.2-1.17s1.2.53 1.2 1.17zm-7.2 2.33c0 .65-.54 1.17-1.2 1.17s-1.2-.52-1.2-1.17c0-.64.54-1.16 1.2-1.16s1.2.52 1.2 1.16zm8.4 1.17c.66 0 1.2-.52 1.2-1.17 0-.64-.54-1.16-1.2-1.16s-1.2.52-1.2 1.16c0 .65.54 1.17 1.2 1.17z" fill="#d1372c"/></svg>