<svg height="18" viewBox="0 0 18 18" width="18" xmlns="http://www.w3.org/2000/svg"><path d="m0 0h18v18h-18z" fill="#f0f3fa"/><path d="m10 9c0-1.74 1.07-3 2.5-3 1.47-.02 2.56 1.22 2.5 3 .03 1.67-.98 3.02-2.5 3-1.5.05-2.52-1.26-2.5-3zm2.5 1.75c.71 0 1.29-.63 1.29-1.75 0-1.13-.58-1.72-1.29-1.72s-1.28.6-1.28 1.72c0 1.13.57 1.75 1.28 1.75z" fill="#fd5000"/><path d="m7.68 6h1.32v6h-1.32v-1c-.35.68-1.11 1-1.88 1-1.78 0-2.8-1.41-2.8-3 0-1.78 1.24-3 2.8-3 .99 0 1.64.55 1.88 1zm-1.7 4.88c.94 0 1.7-.84 1.7-1.88s-.76-1.88-1.7-1.88c-.95 0-1.71.84-1.71 1.88s.76 1.88 1.7 1.88z" fill="#46555f"/></svg>