<svg height="18" viewBox="0 0 18 18" width="18" xmlns="http://www.w3.org/2000/svg" xmlns:xlink="http://www.w3.org/1999/xlink"><linearGradient id="a"><stop offset=".23" stop-color="#d9d9d9" stop-opacity=".23"/><stop offset=".78" stop-color="#fff"/></linearGradient><linearGradient id="b" gradientUnits="userSpaceOnUse" x1="8.93" x2="13.91" xlink:href="#a" y1="10.62" y2="10.56"/><linearGradient id="c" gradientUnits="userSpaceOnUse" x1="9.31" x2="3.97" xlink:href="#a" y1="10.5" y2="10.46"/><path d="m0 0h18v18h-18z" fill="#f0f3fa"/><path d="m4 4h10v10h-10z" fill="#1f165e"/><path d="m13 13v-8s-3 .38-3 4.04c0 3.15 3 3.96 3 3.96z" fill="url(#b)"/><path d="m5 13v-8s3 .38 3 4.04c0 3.15-3 3.96-3 3.96z" fill="url(#c)"/><path d="m7.59 7.67a.59.59 0 1 0 0-1.17.59.59 0 0 0 0 1.17zm1.58-.07a.5.5 0 1 0 0-1 .5.5 0 0 0 0 1zm1.32-.05a.46.46 0 1 0 0-.92.46.46 0 0 0 0 .92zm.84.95a.5.5 0 1 1 -1 0 .5.5 0 0 1 1 0zm.04 2.17a.62.62 0 1 0 0-1.25.62.62 0 0 0 0 1.25zm-1.04-.34c0 .36-.3.65-.66.65a.66.66 0 0 1 -.67-.65c0-.36.3-.65.67-.65.36 0 .66.29.66.65zm-1.66.34a.83.83 0 1 1 -1.67 0 .83.83 0 0 1 1.67 0zm1.25-2.03a.62.62 0 1 1 -1.25 0 .62.62 0 0 1 1.25 0zm-1.59.1a.67.67 0 1 1 -1.33 0 .67.67 0 0 1 1.33 0z" fill="#fff"/></svg>