<svg height="18" viewBox="0 0 18 18" width="18" xmlns="http://www.w3.org/2000/svg"><path d="m0 0h18v18h-18z" fill="#2d3e50"/><g fill="#fff"><path d="m13 7-.06.04c-.48.25-.95.46-1.38.84a5.36 5.36 0 0 0 -1.38 2c-.17.4-.3.83-.4 1.27-.1.42-.14.96-.2 1.4l-.05.45c-.08-.19-.1-.4-.14-.62l-.09.18h-.02l.02-.1c.04-.13.07-.27.06-.42-.02-.57.02-1.25.11-1.83v-.25c-.07-.51-.15-1.02-.2-1.54-.04-.42-.05-.85-.04-1.28a8.61 8.61 0 0 1 .65-3.09.1.1 0 0 1 .05-.05v.04c-.13.24-.16.5-.18.77-.02.32-.04.64.04.96l.26 1.06c.1.4.2.8.2 1.23l.02.07a5.1 5.1 0 0 1 2.73-1.17zm-4.45 5.67c-.1-.81-.13-1.6-.38-2.39a9.31 9.31 0 0 0 -.4-1.08 4.86 4.86 0 0 0 -2.07-2.34 5.32 5.32 0 0 0 -1.68-.65c-.17-.03-.34-.04-.52-.06l.04-.04c.19-.08.39-.1.58-.11a5.62 5.62 0 0 1 3.25 1.05c.37.28.62.66.8 1.1.27.65.4 1.32.45 2.02.03.43.04.88.04 1.32 0 .12-.02 1.18-.11 1.18z"/><path d="m11 12c-.11.2-.23.29-.36.5h1.36c.08.17-.52.47-.59.5h-4.88c-.17 0-.53-.34-.53-.5h1.33c-.1-.2-.24-.3-.33-.5z"/></g></svg>