<svg height="18" viewBox="0 0 18 18" width="18" xmlns="http://www.w3.org/2000/svg"><path d="m0 9a9 9 0 1 1 18 0 9 9 0 0 1 -18 0z" fill="#f0f3fa"/><path d="m4.59 9.88c.58 1.36 1.48 2.61 2.03 2.62.7 0 2.4-1.33 3.25-2.62h-1.29c-.57.6-1.35 1.12-1.72 1.12-.29 0-.73-.48-1.07-1.12z" fill="#002596"/><path d="m8.14 4.02c1.75-.3 5.86 2.86 5.86 4.84-.01 1.73-4.59 5.14-5.86 5.14-1.5 0-1.66-4.94-1.64-6.17.03-2.2.44-3.6 1.64-3.81zm.65 1.98c.93.01 3.73 1.9 3.71 3-.02.95-3.13 3-3.96 3-.41 0-.56-1.55-.54-3 0-.54-.08-3.01.8-3z" fill="#df0037" fill-rule="evenodd"/><path d="m10.26 7.98c-1.26-.98-3.4-.98-4.7-.98h-.08c-.72 0-1.48 0-1.48.97 0 .62.24 1.1.59 1.91h1.2c-.3-.54-.52-.98-.5-1.4 0-.49.4-.48.75-.48.67 0 3.2 0 3.24 1 0 .23-.3.47-.7.88h1.3c.3-.47.62-.94.62-1.32a.77.77 0 0 0 -.24-.58z" fill="#002596"/></svg>