<svg height="18" width="18" xmlns="http://www.w3.org/2000/svg" xmlns:xlink="http://www.w3.org/1999/xlink"><linearGradient id="a" gradientUnits="userSpaceOnUse" x1="3.349" x2="21.904" y1="3.122" y2="24.434"><stop offset="0" stop-color="#1a1e21"/><stop offset="1" stop-color="#06060a"/></linearGradient><path d="m0 0h18v18h-18z" fill="url(#a)"/><path d="m13.02 10.586c-.086.231-.39.717-.899 1.053-.51.336-1.076.873-1.627 1.107-.695.295-1.294.346-1.607.438-.315.093-.832.297-1.157.297-.326 0-.863-.014-1.242-.233-.38-.22-.585-.324-.726-1.17-.14-.844.184-1.608.228-1.979.043-.37.646-1.817.798-2.199.152-.383.5-1.454.836-1.998s.29-1.026.693-1.192c.302-.124.434-.008.684.088.269.102.683.347.932.567s1.614 1.794 1.614 1.794c.314.452.736.927.975 1.378.238.451.412.682.455 1.146.043.463.13.671.043.903zm.502-1.61c-.136-.365-.348-1.609-.664-2.025-1.147-1.508-2.059-1.84-2.427-2.118s-1.093-.585-1.538-.726c-.193-.06-.596-.177-.997-.05-.532.17-.672.417-1.007.891-.336.475-.683 1.76-.856 2.188s-.856 1.887-1.05 2.234c-.137.242-1.073 1.655-.976 2.338.051.36.033 1.17.802 1.563 1.106.565 2.026.729 2.773.729s1.233-.209 1.885-.209c.617 0 1.387.024 2.015-.3s1.256-.533 1.755-1.112c.498-.578.704-.66.758-1.273s-.345-1.782-.473-2.13z" fill="#0b69c8"/><path d="m10.734 10.93c-.34.26-1.144.78-1.576.973-.526.234-1.137.433-1.43.39-.423-.063-.512-.79-.43-1.12.08-.33.122-1.068.333-1.64.211-.574.674-1.624.772-1.902.097-.278.52-1.207.698-1.207.179 0 .414.248.61.521.26.365.341.521.454.677.114.156.537.8.667 1.094.13.295.416.803.471 1.198.065.469-.227.755-.569 1.016zm1.116-1.7c-.214-.862-.325-.949-.823-1.666a4.977 4.977 0 0 0 -1.42-1.401c-.43-.288-1.011-.696-1.137-.637-.152.072-.281.417-.411.741s-.374.677-.503 1.111c-.136.463-.357 1.338-.407 1.528-.13.498-.325.857-.477 1.297-.151.44-.281 1.238-.14 1.817.092.381.227.544.725.66.499.115 1.062.023 1.495-.023.433-.047 1.184-.195 1.617-.427.434-.231.463-.35.745-.57.284-.221.79-.601.916-.896.111-.263.005-.79-.18-1.534z" fill="#0b69c8"/><path d="m9.881 9.957c-.04.148-.243.175-.536.33-.292.157-.66.42-.756.33-.065-.06.114-.46.13-.65.017-.191.177-.509.236-.652.057-.139.153-.387.203-.4.05-.012.457.359.569.617.097.226.177.342.154.425zm.642-.425c-.081-.191-.536-.729-.747-1.024-.212-.295-.62-.773-.845-.773-.158 0-.325.808-.472 1.155-.146.347-.357 1.354-.406 1.562-.048.209-.252.687-.065.8.124.074.618-.175.926-.244.31-.07.555-.235.797-.364.26-.14.617-.243.812-.452.195-.208.081-.47 0-.66z" fill="#d6371d"/></svg>