<svg height="18" viewBox="0 0 18 18" width="18" xmlns="http://www.w3.org/2000/svg"><path d="m0 0h18v18h-18z" fill="#f0f3fa"/><path d="m9 14a5 5 0 1 0 0-10 5 5 0 0 0 0 10zm.85-5c.26 0 .79.06.79.33 0 .15-.2.3-.43.5-.3.24-.66.53-.66.89 0 .32.4.41.78.5.34.09.67.16.67.4 0 .1-.26.1-.53.12-.28.01-.56.02-.56.14v.04c0 .26.02.9-1.66 1.08-.14-.08.05-.22.25-.37.22-.15.45-.32.38-.47-.08-.17-.53-.03-.9.1-.24.07-.44.13-.5.1-.07-.03-.12-.1-.12-.2 0-.13.1-.28.37-.28.44 0 .86-.07.86-.44 0-.3-.37-.32-.56-.29.16-.06.42-.3.42-.74 0-.1-.26-.1-.55-.1-.41.01-.9.03-.9-.23 0-.45 1.87-1.08 2.85-1.08zm-1.85-.67c0-.6-.81-1.33-1.36-1.33s-.64.2-.64.4c0 .09.1.16.24.26.15.1.32.22.4.41.27.72.41.93.74.93.32 0 .62-.2.62-.67zm2.37-3.33c.52 0 1.63.43 1.63 1.04 0 .21-.29.35-.57.49-.27.13-.54.27-.54.46 0 .18.15.21.31.24.18.04.36.07.36.3s-.9.36-1.76.43-1.03.08-1.03-.25c0-.12.18-.23.4-.38.35-.24.83-.55.83-1.1 0-.17-.21-.24-.42-.23-.14 0-.35.1-.57.19-.43.18-.92.39-1 .03-.13-.54 1.06-1.22 2.36-1.22z" fill="#a52834" fill-rule="evenodd"/></svg>