<svg height="18" viewBox="0 0 18 18" width="18" xmlns="http://www.w3.org/2000/svg"><path d="m0 0h18v18h-18z" fill="#f0f3fa"/><path d="m13.3 8.55c-.2.4-.1.94.18 1.23.3.3.63.35.98.13.13-.08.2-.2.32-.32a.16.16 0 0 1 .12-.06h1.04l.03.01.02.03a.1.1 0 0 1 0 .07c-.5 1.35-1.89 1.61-2.86 1.15-1.32-.63-1.6-2.62-.21-3.45a2.05 2.05 0 0 1 3.08 1.06v.03l-.03.03h-1.07a.19.19 0 0 1 -.15-.07c-.12-.15-.24-.3-.41-.36-.45-.17-.8 0-1.04.52zm-8.96 1.54c.3-.02.38-.29.37-.59v-2.42c0-.05.03-.08.07-.08h1.18l.02.02.01.03v.03l.01 2.52c.01.84-.5 1.4-1.27 1.4h-1.1c-1.13 0-1.67-.27-1.63-1.52 0-.1.04-.14.12-.14h1.04c.1 0 .14.06.13.16-.08.75.64.62 1.05.59zm5.21-.71-.51-1.08-.02-.02h-.05l-.01.02-1.26 2.67-.01.02h-1.17l-.01-.02a.07.07 0 0 1 0-.06l1.85-3.87.02-.02h.02l1.2-.02h.02l.02.03 1.85 3.88.01.03v.03l-.02.02-.03.01h-1.12l-.02-.01-.02-.03-.29-.6-.01-.03h-1.66l-.01-.03a.07.07 0 0 1 0-.06l.36-.75.01-.02h.85l.01-.03a.07.07 0 0 0 0-.06z" fill="#ce010a"/></svg>