<svg height="18" viewBox="0 0 18 18" width="18" xmlns="http://www.w3.org/2000/svg"><path d="m0 0h18v18h-18z" fill="#f0f3fa"/><path d="m13.62 9.3c.39-.8.5-1.64.24-2.38-.53-1.58-2.51-2.26-4.72-1.76v.96c1.76-.37 3.33.14 3.75 1.32.21.58.1 1.24-.23 1.87h.96zm-.57.93h-1.09a6 6 0 0 1 -2.25 1.41v.95l.45-.18a7.28 7.28 0 0 0 2.89-2.18zm-4.2 2.6c-2.2.5-4.18-.17-4.71-1.75a3.17 3.17 0 0 1 .24-2.39h.96a2.28 2.28 0 0 0 -.23 1.87c.42 1.18 2 1.69 3.75 1.32v.96zm-2.8-5.05h-1.1a7.29 7.29 0 0 1 3.35-2.38v.95a6.56 6.56 0 0 0 -2.25 1.4z" fill="#001f66"/><path d="m8.7 4h.14l.13 2.9c1.42-.48 2.76-.28 3.2.56.32.64.04 1.5-.66 2.25l3.49.15v.14h-5.08c.9-.54 1.39-1.39 1.1-1.96-.3-.6-1.32-.68-2.32-.21zm-1.2 4h-4.5v.14l3.8.14c-.7.75-1 1.61-.66 2.26.43.84 1.77 1.04 3.2.55l.11 2.91h.14v-3.83c-1 .47-2.02.38-2.32-.2-.29-.58.2-1.43 1.1-1.97z" fill="#0096e2"/></svg>