<svg height="18" viewBox="0 0 18 18" width="18" xmlns="http://www.w3.org/2000/svg"><path d="m0 0h18v18h-18z" fill="#f0f3fa"/><path d="m5.57 7.62v-1.76c.81-.28 2.9-.86 4.8-.86 2.36 0 4.67.52 4.02 2.8l-1.15 2.49c-.13.41.07 1.57.77 1.71h-4.18l-.06-.94c-.27.31-1.33.94-3.38.94-2.55 0-3.39-.48-3.39-1.52s2.64-3.1 8.38-2.92c.15-.2.41-.64.44-1.03.03-.47-.72-1.13-2.05-1.13s-3.27 1.25-4.2 2.22zm.92 2.55c.36-.75 1.52-1.98 4.4-1.98-.57 1.8-1.93 3.29-3.63 3.29-.58 0-1.13-.71-.77-1.31z" fill="#429bb9" fill-rule="evenodd"/></svg>