<svg height="18" viewBox="0 0 18 18" width="18" xmlns="http://www.w3.org/2000/svg"><path d="m0 0h18v18h-18z" fill="#f0f3fa"/><path d="m7.71 7.53s2.25-2.25 3.59-2.95a5.12 5.12 0 0 0 -7.17 2.8c-.13.54-.46 2.12 1.02 2.12.77 0 1.97-1.27 2.56-1.96zm1.01 5.39s-1.37.99-.97-.8c.25-1.13.66-2.14.99-2.97.2-.5.37-.92.46-1.26 0 0 1.04-2.46-.93-.53 0 0-1.93 2.14-3.27 3.6-.48.52-.05 1.15.26 1.49a5.1 5.1 0 0 0 8.27-1.35c.46-.98.59-2.1.35-3.16a49.05 49.05 0 0 1 -5.16 4.98zm-2.16-2.84a.65.65 0 0 1 .4-.61.68.68 0 0 1 .74.14.66.66 0 0 1 -.47 1.13.68.68 0 0 1 -.62-.4.65.65 0 0 1 -.05-.26zm6.98-2.14c-.8.6-1.66 1.16-1.95 1.12-.77-.1 0-2.01.04-2.08.35-.84.52-1.41.58-1.8a5.02 5.02 0 0 1 1.39 1.87c.11.24.28.6-.06.89z" fill="#19559b"/></svg>