<svg height="18" viewBox="0 0 18 18" width="18" xmlns="http://www.w3.org/2000/svg"><path d="m0 0h18v18h-18z" fill="#f0f3fa"/><path d="m6.41 6.67c.75 0 1.36-.6 1.36-1.33-0-.74-.6-1.34-1.37-1.34-.75 0-1.35.6-1.35 1.34s.6 1.33 1.35 1.33zm4.76.89c.63 0 1.13-.5 1.13-1.12 0-.61-.5-1.11-1.13-1.11-.62 0-1.13.5-1.13 1.11 0 .62.5 1.12 1.13 1.12zm1.96 3.2c.48 0 .87-.39.87-.86 0-.48-.4-.87-.87-.87a.87.87 0 0 0 -.88.87c0 .47.4.86.88.86zm-6.49 1.16-.35 1.05a.03.03 0 0 1 -.03.03h-1.24a.03.03 0 0 1 -.02-.05l1.73-4.93a.03.03 0 0 1 .03-.02h1.52a.04.04 0 0 1 .03.02l1.73 4.93a.03.03 0 0 1 0 .03.04.04 0 0 1 -.03.02h-1.24l-.02-.03-.36-1.06a.03.03 0 0 0 -.03-.02h-1.68l-.02.01zm.33-1.06a.04.04 0 0 0 .02.04h1.07a.04.04 0 0 0 0-.04l-.5-1.58a.04.04 0 0 0 -.04-.02.04.04 0 0 0 -.03.02zm5.42 2.94c.37 0 .67-.29.67-.65s-.3-.66-.67-.66-.67.3-.67.66.3.66.67.66zm-1.79 1.2c.3 0 .54-.24.54-.54s-.24-.53-.54-.53-.55.24-.55.53c0 .3.25.54.55.54z" fill="#24337a"/></svg>