<svg height="18" viewBox="0 0 18 18" width="18" xmlns="http://www.w3.org/2000/svg" xmlns:xlink="http://www.w3.org/1999/xlink"><linearGradient id="a" gradientUnits="userSpaceOnUse" x1="5.17" x2="8.3" y1="8.69" y2="10.26"><stop offset="0" stop-color="#3baab3"/><stop offset="1" stop-color="#008095"/></linearGradient><linearGradient id="b" gradientUnits="userSpaceOnUse" x1="6.22" x2="2.84" y1="10.13" y2="12.05"><stop offset="0" stop-color="#87b5c3"/><stop offset="1" stop-color="#b1dcdd"/></linearGradient><linearGradient id="c" gradientUnits="userSpaceOnUse" x1="11.95" x2="8.09" y1="7.94" y2="11.68"><stop offset="0" stop-color="#aad5d8"/><stop offset="1" stop-color="#88b6c3"/></linearGradient><linearGradient id="d" gradientUnits="userSpaceOnUse" x1="6.39" x2="9.08" y1="7.05" y2="6.59"><stop offset="0" stop-color="#f9d4a2"/><stop offset="1" stop-color="#f2b599"/></linearGradient><linearGradient id="e" gradientUnits="userSpaceOnUse" x1="6.55" x2="11.46" y1="6.52" y2="6.42"><stop offset=".24" stop-color="#dc3532"/><stop offset="1" stop-color="#eea022"/></linearGradient><linearGradient id="f" gradientUnits="userSpaceOnUse" x1="11.07" x2="14.78" y1="10.34" y2="10.38"><stop offset="0" stop-color="#63c3c4"/><stop offset="1" stop-color="#047c93"/></linearGradient><path d="m0 0h18v18h-18z" fill="#f0f3fa"/><path d="m6.4 7.13-1.82 2.57c.47-.34 1.22-.14 1.53 0l1.07 1.36c.3.37 1.13.3 1.41.06l.4-.51z" fill="url(#a)"/><path d="m6.39 10.06-1.83 2.55a.89.89 0 0 1 -1.26.19c-.37-.29-.39-.77-.11-1.14.5-.7 1.08-1.6 1.38-1.96.43-.5 1.14-.4 1.43-.13l.39.5z" fill="url(#b)"/><path d="m8.43 12.68-1.25-1.6c.8.47 1.53-.12 1.8-.46l2.57-3.55 1.06 1.49-2.9 4.08a.81.81 0 0 1 -1.28.04z" fill="url(#c)"/><path d="m7.34 5.83-.94 1.3 1.1 1.49 1.65-2.25-.15-.46-.93-.35z" fill="url(#d)"/><path d="m8.8 6.07 1.7 2.46 1.05-1.46-1.97-2.79c-.26-.38-.88-.37-1.16 0l-1.21 1.72c.69-.56 1.35-.18 1.59.07z" fill="url(#e)"/><path d="m13.52 12.67-1.97-2.65 1.06-1.46 2.25 3.18c.2.3.18.69-.05.96-.34.41-.98.4-1.3-.03z" fill="url(#f)"/></svg>