<svg height="18" viewBox="0 0 18 18" width="18" xmlns="http://www.w3.org/2000/svg" xmlns:xlink="http://www.w3.org/1999/xlink"><linearGradient id="a"><stop offset=".06" stop-color="#0195dd"/><stop offset=".85" stop-color="#104686"/></linearGradient><linearGradient id="b" gradientUnits="userSpaceOnUse" x1="7.57" x2="10.36" xlink:href="#a" y1="4.98" y2="10.83"/><linearGradient id="c" gradientUnits="userSpaceOnUse" x1="13.01" x2="11.1" xlink:href="#a" y1="14.02" y2="6.54"/><path d="m0 0h18v18h-18z" fill="#f0f3fa"/><path d="m10.25 11.15a5.7 5.7 0 0 1 -2.19-1.15c.2.86.93 1.69 1.25 2 .24-.2.74-.64.94-.85z" fill="#8fc321"/><path d="m4 9.75c0-3.86 5-5.66 7-5.75-4.46 1.41-5.1 4.23-5.1 5.49 0 1.25 1.02 2.1 1.74 2.3-2.44.81-3.64-.92-3.64-2.04z" fill="#8fc321"/><path d="m11 8.75c0-1.42-2.28-3.1-3.43-3.75v1.88c0 .25.12.49.3.62.65.46 1.55 1.15 1.55 1.42 0 .4-.53.53-.95.53-.41 0-.89-.23-1.47-.63a8.51 8.51 0 0 0 2.29 3.18 5.6 5.6 0 0 1 -1.15-1.9c.19.03.66.15.97.15.95 0 1.89-.67 1.89-1.5z" fill="url(#b)"/><path d="m14 8.25c0 3.86-5 5.66-7 5.75 4.46-1.41 5.1-4.23 5.1-5.49 0-1.25-1.02-2.1-1.74-2.3 2.44-.81 3.64.92 3.64 2.04z" fill="url(#c)"/></svg>