<svg height="18" viewBox="0 0 18 18" width="18" xmlns="http://www.w3.org/2000/svg"><path d="m0 0h18v18h-18z" fill="#c8102e"/><path d="m6 11h-1v-.37c-.22.3-.73.37-1.1.37-.55 0-1.03-.21-1.37-.56a1.97 1.97 0 0 1 -.53-1.41c0-.58.19-1.1.53-1.46a1.9 1.9 0 0 1 1.4-.57c.33 0 .82.08 1.07.36v-.36h1zm-1-2a1 1 0 0 0 -1-1c-.55 0-1 .42-1 1a1 1 0 0 0 1 1 1 1 0 0 0 1-1zm10.5 2h-1v-.37c-.22.3-.74.37-1.1.37-.56 0-1.03-.21-1.37-.56a1.98 1.98 0 0 1 -.53-1.41c0-.58.19-1.1.53-1.46s.83-.57 1.39-.57c.33 0 .83.08 1.08.36v-.36h1zm-1-2a1 1 0 0 0 -1.02-1 .98.98 0 0 0 -.98 1c0 .56.43 1 .98 1 .58 0 1.02-.47 1.02-1zm-3.5.15c0-.62-.2-1.16-.54-1.54a1.8 1.8 0 0 0 -1.37-.61c-.32 0-.9.06-1.09.36v-.36h-1v6h1v-2.1c.08.05.21.1.32.14l.13.04a1.8 1.8 0 0 0 2.01-.5 2 2 0 0 0 .54-1.43zm-2-1.1c.51 0 1 .46 1 1.06 0 .58-.5 1.09-1 1.09-.54 0-1-.5-1-1.1 0-.58.48-1.05 1-1.05z" fill="#f0f3fa"/></svg>