<!-- by TradingView --><svg xmlns="http://www.w3.org/2000/svg" width="18" height="18" viewBox="0 0 18 18"><path fill="#F0F3FA" d="M0 0h18v18H0z"/><path d="M8.24 6.8 8 6.82v1.24h.15c.6 0 1.38 0 1.37-.66 0-.6-.71-.59-1.28-.58ZM5.71 8.57 5.1 7.12l-.52 1.24h.69l.32.72H4.33l-.42.92h-.17L3 10 4.67 6h.8l1.78 4h-.91L5.7 8.56ZM8.01 10h-.76V6h.42c.7 0 1.2 0 1.48.05.94.17 1.32 1.01 1.06 1.85-.27.89-1.28.88-2.03.87H8V10Zm3.45 0h-.77V6h.93l.92 1.7.92-1.7h.92v4h-.76V7.48c0 .01-.06.14-1.08 1.6l-1.08-1.6V10Z" fill="#F99D25"/><path d="M3.3 11h1.4c.16 0 .3.17.3.36v.28c0 .2-.14.36-.3.36H3.3c-.16 0-.3-.16-.3-.36v-.28c0-.2.14-.36.3-.36ZM5.78 11h2.87c.18 0 .35.17.35.36v.28c0 .2-.17.36-.35.36H5.78c-.17 0-.32-.16-.32-.36v-.28c0-.2.14-.36.32-.36ZM9.78 11h4.9c.18 0 .32.17.32.36v.28c0 .2-.14.36-.32.36h-4.9c-.17 0-.32-.16-.32-.36v-.28c0-.2.14-.36.32-.36Z" fill="#1F355E"/></svg>