<svg height="18" viewBox="0 0 18 18" width="18" xmlns="http://www.w3.org/2000/svg"><path d="m0 0h18v18h-18z" fill="#f0f3fa"/><path d="m9 4a5 5 0 0 0 0 10" fill="#b90e49"/><path d="m9 14a5 5 0 0 0 0-10" fill="#d3305a"/><path d="m4 9v.1l4.7-2.5v.4l-4.66 2.65.02.1 4.63-2.63v.38l-4.52 2.8.03.1 4.5-2.8v.41l-4.3 2.96.04.08 4.26-2.92v.41l-3.97 3.06.05.08 3.9-3.02v.4l-3.45 3.22.06.07 3.4-3.16v.4l-2.23 2.76h-1.16l.17.18h3.23v1.47l.3.01v-1.47-2.77l2.07 2.58h-2.07v.18h3.54l.17-.18h-.2l-3.51-3.25v-.4l4.1 3.17.06-.08-4.16-3.23v-.4l4.47 3.07.05-.08-4.52-3.1v-.42l4.74 2.96a5 5 0 0 0 .03-.1l-4.77-2.97v-.37l4.91 2.79.02-.1-4.93-2.81v-.43l5 2.67v-.1l-5-2.67v-.94h-.31v.92zm2.58 3.35 2.1-2.61v2.61zm2.42-3.13v.4l2.2 2.73h1.17z" fill="#f0f3fa" fill-rule="evenodd"/></svg>