<svg height="18" viewBox="0 0 18 18" width="18" xmlns="http://www.w3.org/2000/svg"><path d="m0 0h18v18h-18z" fill="#0f8740"/><path d="m12.73 9.74-1.6-4.12c-.43-1.08-1.28-1.62-2.13-1.62s-1.71.54-2.13 1.62l-2.87 7.38h.8c.16 0 .3-.1.36-.27l2.58-6.64c.24-.63.75-.99 1.34-.95.52.03.97.42 1.19.97l.8 2.09a2.06 2.06 0 0 0 -.46-.06c-.85 0-1.7.54-2.13 1.62l-1.26 3.24h.8c.16 0 .3-.1.36-.27l.96-2.46c.23-.6.72-.99 1.27-1 .55 0 1.02.36 1.25.94l.98 2.52c.03.08.08.15.14.2.07.04.14.07.21.07h.81l-1.26-3.24v-.02z" fill="#fff"/></svg>