<svg height="18" viewBox="0 0 18 18" width="18" xmlns="http://www.w3.org/2000/svg"><path d="m0 0h18v18h-18z" fill="#0321a7"/><g fill="#fff"><path d="m10.56 11.4c-1.4.63-1.56-.8-1.56-1.39v-6.01h-1v.71a1.8 1.8 0 0 0 -1.35-.71c-1.9-.02-2.65 2.57-2.65 4.82 0 1.82.47 4.16 2.3 4.18.91 0 1.53-.68 1.85-1.64.13.81.29 1.64 2.41 1.64.99-.8 0-1.4 0-1.6zm-2.56-1.66c0 .88-.52 2.13-1.35 2.13-1.13.01-1.65-2.09-1.65-3.12 0-1.3.43-3.63 2.03-3.63.44 0 .8.45.97.9v3.73z"/><path d="m12.38 7c-.68 0-1.12.47-1.38.76v-.76h-1v8l1-.37v-2.16c.22.28.93.53 1.26.53 1.33 0 1.74-1.8 1.74-3 0-1.09-.38-3-1.62-3zm-.58 5c-.17 0-.7-.25-.8-.41v-3c.07-.27.5-.59 1-.59.67.04 1 1.07 1 2 0 1.34-.38 2-1.2 2z"/></g></svg>