<svg height="18" viewBox="0 0 18 18" width="18" xmlns="http://www.w3.org/2000/svg"><path d="m0 0h18v18h-18z" fill="#f0f3fa"/><g fill="#49699c"><path d="m6.23 11v-.01l.01-.04v-.05c0-.06 0-.12-.02-.19a1.4 1.4 0 0 0 -.1-.25l-.32-.76h-1.79l-.32.72-.09.23a.66.66 0 0 0 -.04.3l.01.03v.02h-.57v-.01a4.14 4.14 0 0 0 .3-.52l1.6-3.47h.22l1.52 3.34a6.64 6.64 0 0 0 .36.65v.01zm-1.81-1.53h.33a20.85 20.85 0 0 1 .93 0l-.8-1.74-.76 1.74z"/><path d="m7 10.99a.9.9 0 0 0 .12-.36 64.38 64.38 0 0 0 .28-2.05 61.33 61.33 0 0 0 .2-1.58h.33l1.63 3.28 1.61-3.28h.25l.42 3.31a4.02 4.02 0 0 0 .12.6.9.9 0 0 0 .04.08v.01h-.65v-.01l.02-.1a.93.93 0 0 0 .01-.24v-.09l-.34-2.67-1.52 3.11-.18-.02-1.54-3.1-.16 1.22-.05.48a62.65 62.65 0 0 0 -.1 1.04 2.38 2.38 0 0 0 .03.39h-.52v-.01zm6.28-3.72c-.43 0-.87.05-1.28.18v-.45h3v.45c-.4-.13-.85-.18-1.28-.18 0 1.02-.02 2.04 0 3.06l.07.67h-.58l.06-.67c.03-1.02 0-2.04 0-3.06z"/></g></svg>