<svg height="18" viewBox="0 0 18 18" width="18" xmlns="http://www.w3.org/2000/svg"><path d="m0 0h18v18h-18z" fill="#f0f3fa"/><path d="m6.17 6 2.22 5.3c.1.23.27.51.61.53v.17h-2.35v-.17c.31-.01.5-.06.58-.14.09-.1.07-.28-.05-.57l-1.64-4.1.15-.14-1.52 3.65c-.1.26-.17.47-.2.64-.01.16 0 .3.05.4.05.09.15.15.27.2.13.03.29.06.48.06v.17h-1.77v-.17c.13-.03.25-.1.38-.2.13-.12.25-.31.37-.58l2.1-5.05zm.95 3.52v.17h-2.7l.08-.17zm2.38-3.52h2.41c1.14 0 2.09.64 2.09 1.85 0 1.32-1.01 1.83-2.29 1.83h-.91v-.17h.82c1.08 0 1.38-.74 1.38-1.66 0-.9-.22-1.69-1.28-1.69-.27 0-.44.05-.53.14-.08.1-.19.31-.19.6v4.2c0 .6 0 .7.62.72v.18h-2.12v-.17c.5 0 .5-.23.5-.74v-4.19c0-.52 0-.73-.5-.72z" fill="#636465"/></svg>