<svg height="18" width="18" xmlns="http://www.w3.org/2000/svg"><path d="m0 0h18v18h-18z" fill="#00a7e1"/><path d="m8.932 7.22c.694 0 1.107.23 1.284.466v-.466h.485v5.78h-.535v-2.493c-.24.304-.677.578-1.308.578-1.025 0-1.763-.77-1.763-1.862 0-1.459.93-2.002 1.837-2.002zm3.987-1.22c.862 0 1.86.322 1.86 1.336 0 .484-.288 1.063-.841 1.15.476 0 1.062.29 1.062 1.035 0 1.119-.98 1.479-2.225 1.479h-1.043v-5zm-8.389 0 2.045 5h-.551l-.654-1.479h-2.198l-.62 1.479h-.552l2.054-5zm4.402 1.686c-.799 0-1.298.57-1.298 1.51 0 .64.333 1.452 1.298 1.452.534 0 .98-.312 1.164-.813.044-.113.07-.242.07-.338v-.788a.996.996 0 0 0 -.038-.31c-.122-.424-.562-.713-1.196-.713zm3.962 1.047h-.627v1.756c.136.02.32.028.61.028.59-.006 1.577-.114 1.577-.988 0-.687-.586-.796-1.56-.796zm-8.61-1.99-.938 2.34h1.85l-.913-2.34zm8.61-.305a3.6 3.6 0 0 0 -.627.04v1.825h.733c.727 0 1.234-.388 1.234-.944 0-.612-.45-.921-1.34-.921z" fill="#fff"/></svg>