<svg height="18" viewBox="0 0 18 18" width="18" xmlns="http://www.w3.org/2000/svg"><path d="m0 0h18v18h-18z" fill="#f0f3fa"/><path d="m7.81 10.6s.05-1.3-.98-1.43c-1.02-.13-.59 1.24-.59 1.24s1.07 2.16-.47 3.73c0 0 .96-1.1-.22-3.11s-.24-3.22.74-2.95 1.55 1.12 1.61 1.71" fill="#006b3f"/><path d="m10.4 7.73c-.2.07-.4.15-.57.25l-.04.05c.68-.47 1.2-.25 1.2-.25s1.22.2.3 2c-1.24 2.84-6.17 5.22-6.17 5.22 2.54-.28 4.73-1.75 6-2.8 1.56-1.86 1.64-5.2-.72-4.47z" fill="#fe9901"/><path d="m12.75 6.39c-1.93-.6-3.07.63-3.63 1.56.12-.39.25-.78.4-1.17 1.07-2.75 2.84-3.54 2.84-3.54s-1.74-1.03-2.62 1.16c-1.66 3.91-1.28 7.94-1.28 7.94v-.34l.02-.15c-.03-.76.05-1.51.26-2.25l.01-.08.04-.07c.28-.8.82-1.55 1.85-1.87 2.41-.74 2.28 2.74.63 4.6.44-.36.85-.74 1.24-1.14 0 0 3.19-3.73.24-4.65z" fill="#293275"/></svg>