<svg height="18" viewBox="0 0 18 18" width="18" xmlns="http://www.w3.org/2000/svg"><path d="m0 0h18v18h-18z" fill="#f0f3fa"/><path d="m8.6 9.46v-.05c0-.08-.08-.41-.2-.41h-1.4v-3.9c1.56 0 1.61-.66 1.61-.92 0-.07-.07-.11-.14-.18-.2 0-.54-.02-.73 0h-2.1c-.34 0-.64.27-.64.53v4.55c0 .25.3.46.65.46v.23c-.36 0-.65.2-.65.46v1.25c.1 1.54 2.45 3.34 3.61 3.52-1.61-.58-1.6-2.57-1.61-2.97v-2.03h.97c.35 0 .63-.28.63-.54z" fill="#065116"/><path d="m10.2 4h-.52c-.28 0-.33.15-.32.23 0 .61.95.78 1.64.76v4.01h-1.43c-.12 0-.17.2-.17.28v.14c0 .24.25.58.6.58h3v-5.54c0-.25-.32-.46-.68-.46z" fill="#80a205"/><path d="m13 10h-2v2.09c0 .88-.86 2.66-1.45 2.91 2.62-.41 3.39-2.9 3.45-3.55z" fill="#3c8a1d"/></svg>