<svg height="18" viewBox="0 0 18 18" width="18" xmlns="http://www.w3.org/2000/svg"><path d="m0 0h18v18h-18z" fill="#36b0d5"/><g fill="#f0f3fa"><path d="m9 4-5 9h10zm0 .64-4.47 8.06h8.94z" fill-rule="evenodd"/><path d="m8.99 9.28-.52.32c-.13.07-.32.13-.53.17a15.4 15.4 0 0 1 -1.93.23l-.01-.29a15.11 15.11 0 0 0 1.88-.22c.2-.04.36-.1.46-.15.14-.07.3-.18.5-.3l.06-.05.56-.35c.44-.27.96-.53 1.48-.64l.13.28a4.9 4.9 0 0 0 -1.47.6l-.54.35z"/><path d="m9.39 8.31h-2.53v-.31h2.55c.85.12 1.59.83 1.59 1.68 0 .89-.68 1.43-1.27 1.63l3.99 1.38-.1.31-4.53-1.56v-.31c.78-.06 1.6-.62 1.6-1.45 0-.7-.6-1.26-1.3-1.37z"/></g></svg>