<svg height="18" viewBox="0 0 18 18" width="18" xmlns="http://www.w3.org/2000/svg"><path d="m0 0h18v18h-18z" fill="#f0f3fa"/><path d="m9 13a1 1 0 1 0 0-2 1 1 0 0 0 0 2zm0-6a1 1 0 1 0 0-2 1 1 0 0 0 0 2z" fill="#00a2c1"/><path d="m7.39 7.64a.64.64 0 0 0 0-1.01l-.54-.46a.97.97 0 0 0 -1.2 0l-1.65 1.4 1.74 1.46 1.65-1.4z" fill="#0f484e"/><path d="m7.39 10.4-3.39-2.84v2.93l1.65 1.37c.33.28.87.28 1.2 0l.54-.45a.64.64 0 0 0 0-1z" fill="#619a35"/><path d="m10.6 10.41a.64.64 0 0 0 0 1.01l.54.45c.33.28.87.28 1.2 0l1.66-1.37-1.66-1.63z" fill="#0f484e"/><path d="m10.61 7.64 3.39 2.84v-2.93l-1.65-1.37a.97.97 0 0 0 -1.2 0l-.54.45a.64.64 0 0 0 0 1.01z" fill="#619a35"/></svg>