<svg height="18" viewBox="0 0 18 18" width="18" xmlns="http://www.w3.org/2000/svg" xmlns:xlink="http://www.w3.org/1999/xlink"><linearGradient id="a" gradientUnits="userSpaceOnUse" x1="3.57" x2="10.45" y1="9.25" y2="9.25"><stop offset="0" stop-color="#ff1202"/><stop offset=".58" stop-color="#910303"/><stop offset="1" stop-color="#fe1301"/></linearGradient><linearGradient id="b" gradientUnits="userSpaceOnUse" x1="11.42" x2="14.6" y1="7.91" y2="7.91"><stop offset="0" stop-color="#ff1503"/><stop offset="1" stop-color="#b50101"/></linearGradient><path d="m0 0h18v18h-18z" fill="#f0f3fa"/><path d="m3 10 3.16-5 2.98 5h-1.37l-1.6-2.58-1.64 2.58zm3.64-5 .7 1h1.66c.26 0 .48.5.48.77s-.22.58-.48.58h-1.05l1.62 2.65h1.53l-1.08-1.7c.31-.12.95-.6.95-1.68 0-1.35-.97-1.62-1.49-1.62z" fill="url(#a)"/><g fill-rule="evenodd"><path d="m11 10v-5h2.74c.34 0 1.12.46 1.12 1.3 0 .47-.45.93-.67 1.11.27.14.81.58.81 1.22 0 .8-.81 1.37-1.36 1.37zm1-4.41h1.1c.5 0 .9.33.9.73s-.4.74-.9.74h-1.1zm0 2.06h1.1c.5 0 .9.4.9.88 0 .49-.4.88-.9.88h-1.1z" fill="url(#b)"/><path d="m3 11h3.08v.29h-3.08zm2.15 1.71h.93v.29h-3.08v-.29h.92v-1.41h1.23v1.42zm3.23.29c1.28 0 2.31-.45 2.31-1s-1.03-1-2.3-1c-1.28 0-2.31.45-2.31 1s1.03 1 2.3 1zm0-.57c.26 0 .47-.2.47-.43 0-.24-.21-.43-.47-.43-.25 0-.46.2-.46.43 0 .24.21.43.46.43zm5.7-1.43h-3.39v.86h.93v-.57h.61v1.42h-.61v.29h2.46v-.29h-.62v-1.41h.62v.57h.92v-.87z"/></g></svg>