<svg height="18" viewBox="0 0 18 18" width="18" xmlns="http://www.w3.org/2000/svg" xmlns:xlink="http://www.w3.org/1999/xlink"><linearGradient id="a" gradientUnits="userSpaceOnUse" x1="0" x2="20" y1="2.75" y2="18"><stop offset=".36" stop-color="#0583fe"/><stop offset=".73" stop-color="#0cf"/></linearGradient><path d="m0 0h18v18h-18z" fill="url(#a)"/><path d="m4 9c0-2.69 2.3-5 5-5 2.73 0 5 2.11 5 4.83v4.01c0 .74-.36 1.16-1 1.16-.72 0-1-.53-1-1.16-.6.72-1.93 1.16-3 1.16-2.68 0-5-2.28-5-5zm5 3a3 3 0 1 0 0-6 3 3 0 0 0 0 6z" fill="#fff"/></svg>