<svg height="18" width="18" xmlns="http://www.w3.org/2000/svg"><path d="m0 0h18v18h-18z" fill="#9d2135"/><path d="m8.44 4.56v3.08c0 .09.06.24.2.09a5.46 5.46 0 0 1 4.2-2.36c.06 0 .16-.05.16-.13 0-.11-.1-.15-.16-.15-.18 0-2.36-.04-3.72 1l-.27-1.96c-.01-.08-.05-.18-.15-.1a.8.8 0 0 0 -.26.53zm.25 5c.69-1.25 2.86-3.69 6.1-3.51.1 0 .21.03.21.13s-.12.14-.21.15c-1.01.1-3.3.88-4.34 3.22a6.06 6.06 0 0 0 -.19 4.45h-2.7a6.6 6.6 0 0 0 0-3.31c-.49-1.43-1.72-2.64-4.26-2.67-.1 0-.3 0-.3-.15 0-.14.14-.18.24-.2 1.45-.2 3.33-.41 5.45 1.88z" fill="#fff"/></svg>