<svg height="18" viewBox="0 0 18 18" width="18" xmlns="http://www.w3.org/2000/svg"><path d="m0 0h18v18h-18z" fill="#f0f3fa"/><path d="m13.72 11.5c1.01 0 1.9-.6 2.28-1.48h-.55a2 2 0 1 1 -3.2-2.4h-.62a2.5 2.5 0 0 0 2.09 3.88zm-1.96-4.06a2.5 2.5 0 0 1 4.1.28h-.6a2 2 0 0 0 -2.83-.26 7.46 7.46 0 0 0 -.67-.02zm-2.38-.94h-1.38v1.5l.47-.12v-.92h.93c.41 0 .77.22.96.56l.47-.06c-.24-.56-.8-.96-1.45-.96zm1.13 1.57c0-.12-.02-.24-.06-.35l.45-.06a1.57 1.57 0 0 1 -1.2 1.95l1.3 1.89h-.47l-1.6-2.32h.47c.61 0 1.1-.5 1.1-1.11zm-2.04.02-.47.16v3.25h.47zm-5.81 3.41 2.42-5 1 2.09-.41.15-.6-1.22-1.9 3.98zm3.11-2.55 1.23 2.55h.48l-1.3-2.71-.4.16z" fill="#363434"/><path d="m7.26 8.04c-2.75.8-4.4 2.25-5.26 3.2l.25.22c.65-.71 2.84-2.34 5.35-3.07 2.97-.87 5.48-.76 6.38-.64l.15-.2a19.3 19.3 0 0 0 -6.87.5z" fill="#ed3437"/></svg>