<svg height="18" width="18" xmlns="http://www.w3.org/2000/svg" xmlns:xlink="http://www.w3.org/1999/xlink"><linearGradient id="a" gradientUnits="userSpaceOnUse" x1="3.35" x2="21.9" y1="3.12" y2="24.43"><stop offset="0" stop-color="#1a1e21"/><stop offset="1" stop-color="#06060a"/></linearGradient><linearGradient id="b"><stop offset=".26" stop-color="#1f99d6"/><stop offset="1" stop-color="#d8e8f0"/></linearGradient><linearGradient id="c" gradientUnits="userSpaceOnUse" x1="2.13" x2="7.21" xlink:href="#b" y1="7.28" y2="8.14"/><linearGradient id="d" gradientUnits="userSpaceOnUse" x1="15.87" x2="10.79" xlink:href="#b" y1="7.28" y2="8.14"/><linearGradient id="e"><stop offset="0" stop-color="#1a7ba8"/><stop offset="1" stop-color="#1d8ccf"/></linearGradient><linearGradient id="f" gradientUnits="userSpaceOnUse" x1="3.74" x2="5.96" xlink:href="#e" y1="9.31" y2="9.81"/><linearGradient id="g" gradientUnits="userSpaceOnUse" x1="14.26" x2="12.04" xlink:href="#e" y1="9.31" y2="9.81"/><linearGradient id="h" gradientUnits="userSpaceOnUse" x1="10.18" x2="7.73" y1="10.51" y2="10.51"><stop offset="0" stop-color="#84c6e2"/><stop offset="1" stop-color="#61aad1"/></linearGradient><linearGradient id="i" gradientUnits="userSpaceOnUse" x1="8.98" x2="8.98" y1="8.28" y2="12"><stop offset="0" stop-color="#f7f7f6"/><stop offset=".48" stop-color="#827d7c"/><stop offset=".68" stop-color="#7a716e"/><stop offset="1" stop-color="#9e928d"/></linearGradient><path d="m0 0h18v18h-18z" fill="url(#a)"/><path d="m7.52 8.41a26.1 26.1 0 0 1 -5.52-1.41c.1.3.49.92.64 1.14.13.18.37.32.48.37 1.25.58 2.78.95 3.38 1.06z" fill="url(#c)"/><path d="m10.48 8.41a26.1 26.1 0 0 0 5.52-1.41c-.1.3-.49.92-.64 1.14a1.4 1.4 0 0 1 -.48.37c-1.25.58-2.78.95-3.38 1.06z" fill="url(#d)"/><path d="m6.19 9.9a9.83 9.83 0 0 1 -2.77-.9c.24.36.81 1.1 1.17 1.25.35.14.9.25 1.13.28z" fill="url(#f)"/><path d="m11.81 9.9a9.83 9.83 0 0 0 2.77-.9 4.4 4.4 0 0 1 -1.17 1.25c-.35.14-.9.25-1.13.28z" fill="url(#g)"/><path d="m7.93 10.2-.44.62h2.99l-.45-.63h-2.1z" fill="url(#h)"/><path d="m8.24 8.28c-.5 0-2.57 2.62-3.24 3.72 1.11-.1 1.67-.47 1.81-.64.6-.92 1.36-1.93 1.53-2.12.14-.15.28-.18.33-.18h.57c.13 0 .3.12.36.18.33.32 1.16 1.55 1.53 2.12.4.42 1.4.6 1.84.64-1.26-1.98-2.83-3.72-3.3-3.72z" fill="url(#i)"/></svg>