<svg height="18" width="18" xmlns="http://www.w3.org/2000/svg" xmlns:xlink="http://www.w3.org/1999/xlink"><linearGradient id="a" gradientUnits="userSpaceOnUse" x1="3.349" x2="21.904" y1="3.122" y2="24.434"><stop offset="0" stop-color="#1a1e21"/><stop offset="1" stop-color="#06060a"/></linearGradient><path d="m0 0h18v18h-18z" fill="url(#a)"/><path d="m7.919 6.02-5.919 1.648c.115.24.492.736 1.028 1.106s1.189.228 1.448.11l3.334-1.826c-.337.84-.968 2.818-.91 4.018s1.17 1.783 1.75 1.925c.006-1.833.014-5.665 0-6.332-.014-.666-.484-.71-.731-.648z" fill="#f15b44"/><path d="m10.081 6.02 5.919 1.648c-.115.24-.476.721-1.012 1.091s-1.189.229-1.448.111l-3.35-1.813c.338.84.968 2.818.91 4.018s-1.17 1.783-1.75 1.925c-.006-1.833-.014-5.665 0-6.332.014-.666.484-.71.731-.648z" fill="#4081c3"/></svg>