<svg height="18" viewBox="0 0 18 18" width="18" xmlns="http://www.w3.org/2000/svg"><path d="m0 0h18v18h-18z" fill="#f0f3fa"/><circle cx="9" cy="6" fill="#606369" r="1"/><circle cx="6.5" cy="8.5" fill="#888a8e" r="1.5"/><path d="m13.98 10.81.02-.31a2.5 2.5 0 0 0 -5-.36c.6.02 1.45.07 2.49.17.94.08 1.82.3 2.49.5z" fill="#a4a7a9"/><g fill="#fbe65e"><path d="m14 11.5c-.02.5-1.37 1.5-2.51 1.5-1.39 0-2.49-1-2.49-2 .63.02 1.49-.1 2.49 0 .86.09 1.82.29 2.51.5z"/><path d="m9.58 10.71c-2.94 0-6.47 1.63-7.58 2.29 1.63-.35 4.38-1.14 7-1.14 2.8 0 5.6.58 7 .84-1.75-1.41-3.61-1.99-6.42-1.99z"/></g></svg>