<svg height="18" viewBox="0 0 18 18" width="18" xmlns="http://www.w3.org/2000/svg"><path d="m0 0h18v18h-18z" fill="#f0f3fa"/><path d="m5.53 4.56-2.53 8.44h3c.17-.21.62-.73 1.18-1.1.7-.48.77-.32 1.02-.56.25-.23.5-.21.63-.21.12 0 .5.13.5-.52s-.54-.62-.67-.63l-.3-.04a2.02 2.02 0 0 1 -1.75-2.02c0-.57.27-.96.41-1.09-.29-.44-1-.54-1.3-.53.76-.42 1.26-.2 1.3-.2a1.06 1.06 0 0 0 -.68-.33c.77-.18 1.28.2 1.3.22-.2-.28-.54-.43-.69-.47.55-.05.94.26 1.06.43-.03-.3-.38-.5-.55-.55z" fill="#3f7a1c"/><path d="m10.41 5.9-2.47-1.1c.2-.27.97-.8 2.34-.8 1.38 0 2.16.94 2.38 1.42l2.34 7.58h-4.61c0-.33.1-.44.36-.97.25-.53.23-1.58-.05-2.35s-.77-.71-1.35-.68-1.26-.28-1.26-.68c0-.32.23-.52.34-.59.8.6 1.92.78 2.38.8a4.86 4.86 0 0 0 1.97 1.18l-1.9-2.12c-.16-.5-.36-.9-.47-1.05v-.65z" fill="#019ca1"/></svg>