<svg height="18" viewBox="0 0 18 18" width="18" xmlns="http://www.w3.org/2000/svg"><path d="m0 0h18v18h-18z" fill="#323232"/><ellipse cx="4.95" cy="9.62" fill="#f18e15" rx=".17" ry=".18"/><ellipse cx="8.63" cy="6.79" fill="#f1ac32" rx=".17" ry=".18"/><ellipse cx="10.05" cy="4.18" fill="#f1ac32" rx=".17" ry=".18"/><ellipse cx="4.33" cy="8.59" fill="#f18e15" rx=".33" ry=".35"/><ellipse cx="4.41" cy="7.32" fill="#f18e15" rx=".41" ry=".43"/><ellipse cx="7.28" cy="7.11" fill="#f1ac32" rx=".48" ry=".5"/><ellipse cx="5.36" cy="6.02" fill="#f18e15" rx=".62" ry=".66"/><ellipse cx="6.06" cy="8.52" fill="#f1ac32" rx=".62" ry=".66"/><ellipse cx="6.81" cy="5.11" fill="#f18e15" rx=".7" ry=".74"/><g fill="#f1ac32"><ellipse cx="7.44" cy="12.61" rx=".79" ry=".83"/><ellipse cx="9.46" cy="13.06" rx=".89" ry=".94"/><ellipse cx="11.39" cy="12.25" rx=".84" ry=".89"/><ellipse cx="12.72" cy="10.64" rx=".84" ry=".89"/><ellipse cx="13.26" cy="8.53" rx=".74" ry=".78"/></g><ellipse cx="8.49" cy="5.03" fill="#f18e15" rx=".7" ry=".74"/><ellipse cx="10.11" cy="5.77" fill="#f18e15" rx=".7" ry=".74"/><ellipse cx="6.06" cy="10.99" fill="#f1ac32" rx=".7" ry=".74"/><ellipse cx="11.06" cy="7.26" fill="#f18e15" rx=".67" ry=".71"/><ellipse cx="10.94" cy="9.09" fill="#f18e15" rx=".63" ry=".67"/><ellipse cx="12.72" cy="6.45" fill="#f1ac32" rx=".63" ry=".67"/><ellipse cx="11.57" cy="4.73" fill="#f1ac32" rx=".42" ry=".44"/><ellipse cx="9.86" cy="10.56" fill="#f18e15" rx=".53" ry=".56"/><ellipse cx="8.27" cy="10.86" fill="#f18e15" rx=".41" ry=".43"/><ellipse cx="7.14" cy="9.77" fill="#f18e15" rx=".22" ry=".23"/></svg>