<svg height="18" width="18" xmlns="http://www.w3.org/2000/svg" xmlns:xlink="http://www.w3.org/1999/xlink"><linearGradient id="a" gradientUnits="userSpaceOnUse" x1="3.349" x2="21.904" y1="3.122" y2="24.434"><stop offset="0" stop-color="#1a1e21"/><stop offset="1" stop-color="#06060a"/></linearGradient><path d="m0 0h18v18h-18z" fill="url(#a)"/><path d="m8.018 14h1.827c.77 0 1.368-.445 1.54-1.289l1.452-7.911c.129-.578-.256-.8-.77-.8h-.213c-.514 0-.685.178-.77.667l-1.326 7.066c-.08.329-.234.53-.875.53-.547 0-.701-.204-.78-.53l-1.325-7.066c-.085-.49-.256-.667-.77-.667h-.213c-.514 0-.899.222-.77.8l1.454 7.911c.17.844.77 1.289 1.54 1.289z" fill="#fff"/></svg>