<svg height="18" width="18" xmlns="http://www.w3.org/2000/svg"><path d="m0 0h18v18h-18z" fill="#0977cb"/><g fill="#fff"><path d="m8 10.5a1.387 1.387 0 1 0 0-2.773 1.387 1.387 0 0 0 0 2.773z"/><path d="m15 13.733v.42h-4.36l.079-.078c.718-.394 1.397-1.344 1.906-2.146.784-1.21 1.123-2.604 1.332-3.471l.04-.053s.065 2.814.143 4.405c.092.316.429.752.86.923zm-3.692-9.425c.013 1.196-.054 2.624-.328 3.808-.235 1.012-.536 1.617-.823 2.038-.405.592-.81.894-1.228 1.039a2.343 2.343 0 0 1 -3.278-2.156 2.343 2.343 0 0 1 2.339-2.356c1.215 0 2.207.934 2.325 2.117l.026.027c.34-.986.51-2.38.535-3.919-.628-.499-1.855-.906-3.044-.906-1.306 0-2.56.605-3.46 1.538-.902.934-1.372 2.17-1.372 3.524 0 1.342.535 2.59 1.463 3.55.953.987 2.076 1.54 3.421 1.54 3.762.118 5.943-3.775 6.086-9.508v-.336z"/></g></svg>