<svg height="18" viewBox="0 0 18 18" width="18" xmlns="http://www.w3.org/2000/svg"><path d="m0 0h18v18h-18z" fill="#f0f3fa"/><path d="m4 8.8v-.77c0-1.13.95-2.03 2.13-2.03h.74c1.18 0 2.13.9 2.13 2.03v4.97h-2v-.87c-.23.51-.79.87-1.44.87-.86 0-1.56-.62-1.56-1.39v-1.15c0-.44.29-.83.73-1.01l2.27-.91v-1.08c0-.21-.33-.38-.55-.38s-.45.17-.45.38v1.34zm3 .8c-.67.2-.87.66-.9.87v.98c0 .2.19.36.4.36h.15c.06 0 .11-.02.15-.05l.08-.06a.85.85 0 0 1 .12-.08z"/><path d="m10 7.5v4.45c0 .58.5 1.05 1.11 1.05h1.89v-1.32h-.4c-.25 0-.6-.19-.6-.42v-3.76h1v-1.5h-1v-2h-2v2h-1v1.5z" fill="#0268b0"/></svg>