<svg height="18" viewBox="0 0 18 18" width="18" xmlns="http://www.w3.org/2000/svg"><path d="m0 0h18v18h-18z" fill="#f0f3fa"/><path d="m2 6h14v6h-14zm.5.5h13v5h-13zm1.62 3.64h-.53l-.26.86h1.97l.21-.86h-.4l.18-.28h1.24l.05.28h-.53l-.24.86h2.04l.05-.86h-.27l-.55-3.14h-1.9l-.25.86h.5zm2.26-1.14h-.56l.43-.7zm2.18-1.14.18-.86h1.96l-.14.86h-.5l-.4 2.28h.56l-.16.86h-2.04l.25-.86h.38l.44-2.28zm5.31.28h-.83c0-.61-.6-.45-.6-.15 0 .23.16.32.42.5l.25.16.17.12c.37.24.75.49.75 1.13 0 .75-.75 1.1-1.46 1.1-.56 0-.9-.16-1-.24l-.07.24h-.93l.4-1.43h.75v.41c.37.34.85.11.85-.08 0-.2-.1-.3-.38-.38h-.02c-.3-.1-1.2-.39-1.2-1.29 0-.93 1-1.23 1.43-1.23.35 0 .67.22.78.33l.1-.33h.9l-.3 1.14z" fill="#004098" fill-rule="evenodd"/></svg>