<svg height="18" width="18" xmlns="http://www.w3.org/2000/svg" xmlns:xlink="http://www.w3.org/1999/xlink"><linearGradient id="a"><stop offset="0" stop-color="#00477d"/><stop offset="1" stop-color="#03eaf0"/></linearGradient><linearGradient id="b" gradientUnits="userSpaceOnUse" x1="9.69" x2="5.33" xlink:href="#a" y1="9.45" y2="11.99"/><linearGradient id="c" gradientUnits="userSpaceOnUse" x1="13.16" x2="5.56" xlink:href="#a" y1="4.54" y2="14.02"/><path d="m0 0h18v18h-18z" fill="#f0f3fa"/><path d="m9 4.67 3.67 7.33h-.73l-.38-.76-2.56-5.14-2.6 5.23h2.86l1.25.67h-5.18z" fill="url(#b)"/><path d="m5.59 8.67h4.69l.33.66h-6.6z" fill="#f68121"/><path d="m9 14.5a5.5 5.5 0 1 0 0-11 5.5 5.5 0 0 0 0 11zm0 .5a6 6 0 1 0 0-12 6 6 0 0 0 0 12z" fill="url(#c)" fill-rule="evenodd"/></svg>