<svg height="18" width="18" xmlns="http://www.w3.org/2000/svg"><path d="m0 0h18v18h-18z" fill="#f0f3fa"/><path d="m14 9c0 2.73-2.27 5-5 5s-5-2.27-5-5 2.27-5 5-5 5 2.27 5 5zm1 0a6 6 0 1 1 -12 0 6 6 0 0 1 12 0zm-7.59 0c0 1 .77 1.5 1.42 1.5.46 0 1.38-.34 1.38-1.51 0-1.23-.9-1.49-1.38-1.49-.9 0-1.42.71-1.42 1.5zm3.83-2.5c.04 0 .06.03.06.07v4.86c0 .04-.02.07-.07.07h-1c-.04 0-.07-.03-.07-.07v-.38c-.22.26-.8.46-1.33.45a2.44 2.44 0 0 1 -2.53-2.51 2.44 2.44 0 0 1 2.53-2.49c.56 0 1.06.24 1.27.5.03.02.06 0 .06-.04v-.39c0-.04.03-.07.07-.07h1z" fill="#0b0b0a" fill-rule="evenodd"/></svg>