<svg height="18" viewBox="0 0 18 18" width="18" xmlns="http://www.w3.org/2000/svg"><path d="m0 0h18v18h-18z" fill="#f0f3fa"/><path d="m9.17 5-2.17 2.96c1.62.15 3.1-.15 4-.45z" fill="#da3226"/><g fill="#00325d"><path d="m5.57 11.28-.47.94c-.22.42-.06.97.34 1.12.86.31 2.17.66 3.56.66s2.7-.35 3.56-.66c.4-.15.56-.7.34-1.12l-1.62-3.22c-.86.54-1.95.9-2.99 1.16l-.29 1.12h-2.42z"/><path d="m7.66 10.88c-2.25.35-4.1-.08-4.55-1.2-.62-1.5 1.52-3.71 4.78-4.92.67-.25 1.34-.43 1.99-.56-.4.09-.8.2-1.22.35-2.44.86-4.04 2.43-3.58 3.5.32.76 1.54 1.07 3.08.9zm4.65-1.7c1.95-1.2 3.05-2.73 2.58-3.86-.36-.89-1.58-1.34-3.2-1.32 1.13.02 1.97.34 2.23.94.4.93-.74 2.23-2.63 3.12z"/></g></svg>