<svg height="18" viewBox="0 0 18 18" width="18" xmlns="http://www.w3.org/2000/svg"><path d="m0 0h18v18h-18z" fill="#f0f3fa"/><ellipse cx="6.34" cy="5.26" fill="#00b7ae" rx=".61" ry=".59"/><g fill="#006571"><ellipse cx="10.42" cy="6.79" rx=".75" ry=".73"/><ellipse cx="9.35" cy="9.67" rx=".61" ry=".59"/><ellipse cx="4.58" cy="8.47" rx=".58" ry=".56"/></g><ellipse cx="7.47" cy="10.76" fill="#01b6ad" rx=".58" ry=".56"/><ellipse cx="5.42" cy="12.07" fill="#01b6ad" rx=".72" ry=".7"/><ellipse cx="6.89" cy="13.61" fill="#01b6ad" rx=".4" ry=".39"/><ellipse cx="9.55" cy="12.44" fill="#82c539" rx=".58" ry=".56"/><ellipse cx="7.96" cy="7.72" fill="#00b7ae" rx=".38" ry=".36"/><ellipse cx="8.97" cy="4.39" fill="#00b7ae" rx=".4" ry=".39"/><ellipse cx="11.43" cy="8.83" fill="#82c539" rx=".38" ry=".36"/><ellipse cx="13.62" cy="11.18" fill="#82c539" rx=".38" ry=".36"/><ellipse cx="12.12" cy="12.24" fill="#82c539" rx=".72" ry=".7"/><path d="m8.92 4.43-2.2.8-.07-.18 2.2-.8zm-1.16 3.17-1.36-1.91.17-.12 1.36 1.93-.17.12z" fill="#01b7a8"/><path d="m9.46 9.21.75-1.87.18.08-.75 1.87z" fill="#006571"/><path d="m11.9 11.67-.51-2.54.2-.04.51 2.54zm.71.13.7-.53.11.16-.69.53z" fill="#80c43f"/><path d="m10 12.28 1.48-.08.01.2-1.47.08-.01-.2z" fill="#82c539"/><path d="m4.95 8.46 3.87 1-.05.2-3.87-1.01.05-.2z" fill="#006571"/><path d="m5.88 11.65 1.1-.7.1.17-1.09.7-.1-.17zm.04.83.84.83-.14.15-.84-.84z" fill="#01b6ad"/></svg>