<svg fill="none" height="18" width="18" xmlns="http://www.w3.org/2000/svg" xmlns:xlink="http://www.w3.org/1999/xlink"><linearGradient id="a" gradientUnits="userSpaceOnUse" x1="9" x2="9" y1="9" y2="12"><stop offset=".086" stop-color="#f2a00a"/><stop offset=".453" stop-color="#df1922"/></linearGradient><linearGradient id="b" gradientUnits="userSpaceOnUse" x1="3.583" x2="14.624" y1="7.091" y2="7.329"><stop offset="0" stop-color="#ffc812"/><stop offset=".587" stop-color="#f7731f"/><stop offset=".672" stop-color="#f66721"/></linearGradient><linearGradient id="c" gradientUnits="userSpaceOnUse" x1="4.208" x2="7.329" y1="7.455" y2="7.216"><stop offset="0" stop-color="#fef010"/><stop offset="1" stop-color="#e8af18"/></linearGradient><linearGradient id="d" gradientUnits="userSpaceOnUse" x1="4.813" x2="14.217" y1="8" y2="7.748"><stop offset=".156" stop-color="#f48218"/><stop offset=".447" stop-color="#fbba0a"/><stop offset=".963" stop-color="#f97517"/></linearGradient><linearGradient id="e" gradientUnits="userSpaceOnUse" x1="6.307" x2="14.638" y1="7.5" y2="7.774"><stop offset=".24" stop-color="#fff100"/><stop offset=".849" stop-color="#f17418"/></linearGradient><path d="m0 0h18v18h-18z" fill="#f0f3fa"/><g clip-rule="evenodd" fill-rule="evenodd"><path d="m2.755 9h12.49c.418 0 .755.278.755.623v1.754c0 .345-.337.623-.755.623h-12.49c-.418 0-.755-.278-.755-.623v-1.754c0-.345.337-.623.755-.623z" fill="url(#a)"/><path d="m14 8c-.307-2.254-2.427-4-4.994-4-2.566 0-4.7 1.757-5.006 4z" fill="url(#b)"/><path d="m14 7.988a4.025 4.025 0 0 0 -.32-1.11s-.51-.473-1.94-.473c-1.444 0-1.84.647-3.053.693-.817-.011-1.42-.431-2.187-.431-.78 0-1.823.42-2.5 1.333 0 0 .792-.646 2.095-.646 1.302 0 1.698.646 2.784.646 1.085 0 2.158-.74 3.358-.74s1.763.728 1.763.728z" fill="url(#c)"/><path d="m13.525 6.577c-.469-.327-1.67-1.244-2.878-1.244-2.037 0-3.747 2.194-5.397 2.667h8.75a4.106 4.106 0 0 0 -.475-1.423z" fill="url(#d)"/><path d="m14 8-.045-.201a.458.458 0 0 0 -.026-.128c-.066-.243-.122-.466-.24-.688-.012-.011-.514-.316-1.968-.316-1.48 0-1.819.457-3.064.5-.406-.011-.994-.245-1.36-.32-.301.184-.495.366-.797.533.878.117 1.369.62 2.273.62 1.113 0 2.214-.667 3.445-.667 1.206 0 1.782.667 1.782.667z" fill="url(#e)"/></g><path d="m4 9.5h10v2h-10z" fill="#f0f3fa" opacity=".5"/></svg>