<svg height="18" viewBox="0 0 18 18" width="18" xmlns="http://www.w3.org/2000/svg" xmlns:xlink="http://www.w3.org/1999/xlink"><linearGradient id="a" gradientUnits="userSpaceOnUse" x1="12.97" x2="9.45" y1="10.33" y2="12.47"><stop offset="0" stop-color="#f3e6ed"/><stop offset="1" stop-color="#cc96b6"/></linearGradient><linearGradient id="b" gradientUnits="userSpaceOnUse" x1="5.2" x2="9.29" y1="11.37" y2="4.25"><stop offset=".04" stop-color="#c78bb0"/><stop offset=".28" stop-color="#b15a95"/><stop offset=".49" stop-color="#9f337f"/><stop offset=".69" stop-color="#921770"/><stop offset=".87" stop-color="#8a0667"/><stop offset="1" stop-color="#870064"/></linearGradient><linearGradient id="c" gradientUnits="userSpaceOnUse" x1="8.76" x2="12.87" y1="3.9" y2="8.86"><stop offset=".41" stop-color="#b15a98"/><stop offset=".59" stop-color="#9f3381"/><stop offset=".75" stop-color="#921771"/><stop offset=".89" stop-color="#8a0667"/><stop offset="1" stop-color="#870064"/></linearGradient><linearGradient id="d" gradientUnits="userSpaceOnUse" x1="14.84" x2="5.98" y1="14.62" y2="9.65"><stop offset=".22" stop-color="#c98cb6"/><stop offset=".41" stop-color="#b15a98"/><stop offset=".59" stop-color="#9f3381"/><stop offset=".75" stop-color="#921771"/><stop offset=".89" stop-color="#8a0667"/><stop offset="1" stop-color="#870064"/></linearGradient><linearGradient id="e" gradientUnits="userSpaceOnUse" x1="7.31" x2="11.42" y1="5.1" y2="10.06"><stop offset=".02" stop-color="#e5c8d9"/><stop offset=".22" stop-color="#c98cb6"/><stop offset=".41" stop-color="#b15a98"/><stop offset=".59" stop-color="#9f3381"/><stop offset=".75" stop-color="#921771"/><stop offset=".89" stop-color="#8a0667"/><stop offset="1" stop-color="#870064"/></linearGradient><path d="m0 0h18v18h-18z" fill="#f0f3fa"/><path d="m12.7 11.37a5.12 5.12 0 0 0 -6-6.81l-.05.03c-.78.4-1.32.96-1.86 1.74a5 5 0 0 1 7.92 5.04z" fill="none"/><path d="m12.48 10.29a5.01 5.01 0 0 1 -2.9 1.92 4.97 4.97 0 0 0 2.82-1.34c.04-.19.07-.38.08-.58z" fill="url(#a)"/><path d="m11.63 4.77a4.97 4.97 0 0 0 -7.56 3.48 4.93 4.93 0 0 0 1.63 2.8 4.97 4.97 0 0 1 4.77-6.2h.25a5.27 5.27 0 0 1 1.4.26 5.4 5.4 0 0 0 -.49-.34z" fill="url(#b)"/><path d="m12.28 5.25-.16-.14a5.3 5.3 0 0 0 -.65-.17h-.05a5.1 5.1 0 0 1 1.57 7.1 5 5 0 0 0 -.71-6.8z" fill="url(#c)"/><path d="m11.4 13.28a5.03 5.03 0 0 0 1.6-3.1 4.98 4.98 0 0 1 -8.94-1.93 4.98 4.98 0 0 0 7.08 5.26c.1-.07.18-.15.26-.23z" fill="url(#d)"/><path d="m11.7 6.08a5.19 5.19 0 0 0 -1.66-1.21h-.07a4.9 4.9 0 0 0 -1.06.24 5.04 5.04 0 0 1 2.37 8.06c-.15.18-.31.33-.48.48l.33-.14c.1-.07.18-.15.27-.23a5.1 5.1 0 0 0 .3-7.2z" fill="url(#e)"/></svg>