<svg height="18" width="18" xmlns="http://www.w3.org/2000/svg"><path d="m0 0h18v18h-18z" fill="#90072a"/><g fill="#fff"><path d="m7.233 9.277h2.623l-1.4-2.944zm-3.233 3.723v-.389c.199 0 .527-.032.692-.095a1.49 1.49 0 0 0 .45-.28c.236-.213.488-.636.754-1.27l2.972-6.966h.234l3.365 7.457c.216.493.416.808.602.944.093.064.203.115.33.153.13.038.279.057.444.057v.389h-3.886v-.389c.198 0 .363-.013.494-.038a.87.87 0 0 0 .304-.108c.136-.077.203-.221.203-.434a.773.773 0 0 0 -.025-.185 1.217 1.217 0 0 0 -.064-.216l-.754-1.779h-3.085l-.665 1.874-.051.172-.013.166c0 .174.066.306.197.395.067.038.169.075.304.109.14.03.294.044.463.044v.389z"/><path d="m9.648 4.25h.468l3.859 7.881s.056.14 0 .176a.428.428 0 0 1 -.388.05c-.084-.03-.145-.13-.145-.13zm.914.393h.468l2.945 6.088s.055.726 0 .726-.277-.487-.277-.487z"/></g></svg>