<svg height="18" viewBox="0 0 18 18" width="18" xmlns="http://www.w3.org/2000/svg" xmlns:xlink="http://www.w3.org/1999/xlink"><linearGradient id="a"><stop offset="0" stop-color="#1f4884"/><stop offset="1" stop-color="#2d91bf"/></linearGradient><linearGradient id="b" gradientUnits="userSpaceOnUse" x1="4.28" x2="6.79" xlink:href="#a" y1="7.53" y2="7.53"/><linearGradient id="c" gradientUnits="userSpaceOnUse" x1=".28" x2="2.79" xlink:href="#a" y1=".54" y2=".54"/><linearGradient id="d" gradientUnits="userSpaceOnUse" x1="5.28" x2="7.79" xlink:href="#a" y1="9.53" y2="9.53"/><linearGradient id="e"><stop offset=".11" stop-color="#1c226a"/><stop offset="1" stop-color="#2d91bf"/></linearGradient><linearGradient id="f" gradientUnits="userSpaceOnUse" x1="9.28" x2="11.79" xlink:href="#e" y1="5.54" y2="5.54"/><linearGradient id="g" gradientUnits="userSpaceOnUse" x1="11.28" x2="13.79" xlink:href="#e" y1="4.54" y2="4.54"/><linearGradient id="h" gradientUnits="userSpaceOnUse" x1=".08" x2="2.61" y1=".5" y2=".5"><stop offset="0" stop-color="#1d3b7a"/><stop offset="1" stop-color="#2479ae"/></linearGradient><linearGradient id="i" gradientUnits="userSpaceOnUse" x1=".11" x2="2.49" y1=".5" y2=".5"><stop offset="0" stop-color="#1c226a"/><stop offset="1" stop-color="#2d91bf"/></linearGradient><path d="m0 0h18v18h-18z" fill="#f0f3fa"/><path d="m4 7h3v1h-3z" fill="url(#b)"/><path d="m0 0h3v1h-3z" fill="url(#c)" transform="matrix(-1 0 0 1 13 8)"/><path d="m5 9h3v1h-3z" fill="url(#d)"/><path d="m0 0h3v1h-3z" fill="url(#c)" transform="matrix(-1 0 0 1 15 10)"/><path d="m9 5h3v1h-3z" fill="url(#f)" transform="matrix(0 1 -1 0 14 -4)"/><path d="m11 4h3v1h-3z" fill="url(#g)" transform="matrix(0 1 -1 0 15 -7)"/><path d="m0 0h3v1h-3z" fill="url(#h)" transform="matrix(0 -1 -1 0 11 13)"/><path d="m0 0h3v1h-3z" fill="url(#i)" transform="matrix(0 -1 -1 0 9 14)"/></svg>