<svg fill="none" height="18" width="18" xmlns="http://www.w3.org/2000/svg" xmlns:xlink="http://www.w3.org/1999/xlink"><linearGradient id="a" gradientUnits="userSpaceOnUse" x1="3.349" x2="21.904" y1="3.122" y2="24.434"><stop offset="0" stop-color="#1a1e21"/><stop offset="1" stop-color="#06060a"/></linearGradient><path d="m0 0h18v18h-18z" fill="url(#a)"/><path d="m8.902 11.556a.215.215 0 0 0 .251 0l5.764-4.209c.16-.115.074-.358-.126-.358h-11.581c-.2 0-.285.244-.126.359l5.819 4.208z" fill="#b8b8ba"/><path d="m8.8 3.138c.063-.184.333-.184.395 0l3.62 10.6c.063.183-.155.336-.318.224l-3.378-2.313a.215.215 0 0 0 -.242 0l-3.378 2.313c-.164.112-.381-.042-.319-.225l3.62-10.6z" fill="#fff"/></svg>