<svg height="18" viewBox="0 0 18 18" width="18" xmlns="http://www.w3.org/2000/svg"><path d="m0 0h18v18h-18z" fill="#f0f3fa"/><path d="m8.97 13-.12-2.02a4.26 4.26 0 0 0 -6.85.6c0-.44.02-1.4.2-1.8.23-.52 1.52-1.53 3.32-1.53 1.44 0 2.63.92 3.04 1.37-.42-.65-1.64-1.96-3.18-1.96s-2.24.52-2.4.78c.21-.37.98-1.12 2.4-1.12s2.83 1.38 3.36 2.06c-.42-.83-1.64-2.49-3.17-2.49-.16 0-.6.03-.98.23.07-.16.37-.5 1.06-.5.86 0 2.38.73 3.13 2.34v-.52c.06-.09.12-.33.12-.6 0-.28-.23-.6-.34-.72.15-.19.44-.67.44-1.11v-.01c0 .45.3.93.44 1.12-.11.13-.34.44-.34.72 0 .27.06.51.12.6v.52c.75-1.61 2.27-2.33 3.13-2.33.7 0 1 .33 1.06.5-.38-.21-.82-.25-.98-.24-1.53 0-2.75 1.66-3.17 2.49.53-.69 1.94-2.06 3.36-2.06s2.19.75 2.4 1.12c-.16-.26-.86-.78-2.4-.78s-2.76 1.31-3.18 1.96a4.47 4.47 0 0 1 3.04-1.37c1.8 0 3.09 1.01 3.32 1.52.18.4.2 1.37.2 1.8a4.26 4.26 0 0 0 -6.85-.6l-.12 2.03zm.03-5.69c.03-.01.1-.06.1-.17s-.07-.17-.1-.19c-.03.02-.1.08-.1.19 0 .1.07.16.1.17z" fill="#031f8a"/></svg>