<svg height="18" width="18" xmlns="http://www.w3.org/2000/svg"><path d="m0 0h18v18h-18z" fill="#005f71"/><path d="m8.649 4.252c-.348.157-.645.307-.653.328-.007.02.25.799.572 1.723 1.58 4.537 2.097 6.037 2.097 6.072 0 .021-.125.168-.279.328l-.278.293h3.075c-.03-.031-.326-.342-.579-.61-.253-.27-.473-.51-.487-.534-.026-.039-1.023-2.848-2.222-6.243-.3-.848-.557-1.567-.575-1.595-.026-.042-.143 0-.671.238zm-1.906 5.499h2.536l-.08-.21h-2.372z" fill="#fff"/><path d="m5.88 11.391 1.54 1.596h-3.079l1.54-1.596z" fill="#70d549"/></svg>