<svg height="18" viewBox="0 0 18 18" width="18" xmlns="http://www.w3.org/2000/svg"><path d="m0 0h18v18h-18z" fill="#f0f3fa"/><path d="m6.1 10.34c-.35 0-.53.1-.58.16-.29.32 0 .63.15.8.14.15.43.94.72 1.42.29.47.72.31 1.16.47.43.16.87.63 1.3.8.44.15 1.02-.8 1.45-1.43s1.01-.8.87-1.43c-.15-.63-.44-.63-.72-.95-.3-.31-.44-.63-.58-.95-.15-.31-.73-.47-1.16-.63-.44-.16-.44-.47-.87 0-.44.48-.44 1.27-.73 1.43-.29.15-.57.31-1 .31zm-.87-.47c-.23.12-.67-.27-.87-.48-.58-.76-.33-1.26-.14-1.42.24-.05.75-.03.87.47.14.64.14.32.29.64.14.31.14.63-.15.79zm3.04-5.07c.12-.76.44-.84.58-.79.1.06.3.26.3.64 0 .47-.3.95-.3 1.58s-.14 1.74-.58 1.58c-.43-.16-.29-1.1-.14-1.58.11-.38.14-1.11.14-1.43zm2.75.95c.58-.88.34-1.32.15-1.42-.58-.33-1.17 1.57-1.3 1.9-.15.31-.3.79-.44 1.1-.14.32-.43.8 0 .96.44.15.58-.32.73-.64.14-.31.14-.79.86-1.9zm1.74 1.11c.35-.38.15-.68 0-.79-.43-.47-1.01.8-1.3 1.1-.3.32-.58.8-.87.96s-.14.31-.14.63.28.32.57.16c.3-.16 1.3-1.58 1.74-2.06zm-.43 4.12c-.35.25-.53.1-.58 0-.1-.11-.18-.38.29-.64.58-.31.58-.47 1.01-.63.44-.16.58-.63.87-.32.23.26-.1.64-.29.8-.29.15-.96.53-1.3.79z" fill="#1d1d1b"/><path d="m11.31 9.4c-.23.25-.19.52-.14.63.43.47.87-.48 1.3-.8.44-.31.87-.63 1.16-.79.3-.15.24-.53 0-.79-.14-.16-.48.2-.58.32-.14.16-.43.47-.87.79-.43.32-.58.32-.87.63z" fill="#f59618"/></svg>