<svg height="18" viewBox="0 0 18 18" width="18" xmlns="http://www.w3.org/2000/svg"><path d="m0 0h18v18h-18z" fill="#f0f3fa"/><g fill="#008dc9"><path d="m3.6 8.66-1.6-.23c.24-1.2 1.43-1.44 2.5-1.43 1.22 0 2.48.24 2.5 1.76v2.11c0 .4 0 .75.17 1.13h-1.97s-.2 0-.2-.5c-.48.5-.86.5-1.54.5-.8 0-1.46-.49-1.46-1.43 0-1.45 1.5-1.36 2.5-1.66.2-.06.3-.06.5-.15 0-.41-.1-.76-.5-.76-.44 0-.75.21-.9.66zm1.4 1.03c-.24.09-.38.1-.64.17-.32.09-.36.25-.36.67 0 .33.27.47.5.47.53 0 .5-.6.5-1.02v-.3zm5-4.69v2h1v1h-1v2.07c0 .28 0 .58.22.58.15 0 .36-.04.63-.13l.15 1.32c-.46.1-.94.16-1.42.16-1.42 0-1.58-.72-1.58-1.95v-2.05h-1v-1h1v-1.02z"/><path d="m14 7h2v4.96c0 1.48-1.22 2.06-2.49 2.04-1.08 0-2.39-.26-2.39-1.63l.01-.25 1.69.2c.08.35.32.68.69.68.57 0 .49-.62.49-1.15v-.74c-.34.44-.58.7-1.13.7-1.3 0-1.87-1.2-1.87-2.35 0-1.18.57-2.46 1.85-2.46.66 0 .8.18 1.15.55zm-1 2.46c0 .5 0 1.21.5 1.22s.5-.73.5-1.22c0-.5 0-1.17-.5-1.17s-.5.67-.5 1.17z"/></g></svg>