<svg height="18" viewBox="0 0 18 18" width="18" xmlns="http://www.w3.org/2000/svg"><path d="m0 0h18v18h-18z" fill="#f0f3fa"/><path d="m14 4h-10v10h10zm-5 1h-2v.83c.33.1.57.37.57.67s-.24.56-.57.67v1.88c.33.1.57.36.57.67 0 .3-.24.56-.57.66v.45c.33.1.57.37.57.67s-.24.56-.57.67v.83h-.5v-.8c-.4-.07-.71-.35-.71-.7s.3-.63.71-.7v-.38c-.4-.07-.71-.36-.71-.7 0-.35.3-.64.71-.7v-1.82c-.4-.07-.71-.35-.71-.7s.3-.63.71-.7v-.8h-1.5v8h8v-8h-1.5v2.23c.4.06.71.35.71.7 0 .34-.3.63-.71.7v.37c.4.07.71.36.71.7 0 .35-.3.64-.71.7v.39c.4.07.71.35.71.7s-.3.63-.71.7v.66h-.5v-.7c-.33-.1-.57-.36-.57-.66s.24-.56.57-.67v-.45c-.33-.1-.57-.36-.57-.67 0-.3.24-.56.57-.66v-.46c-.33-.1-.57-.36-.57-.66s.24-.57.57-.67v-2.25h-1.5v2.24c.38.08.66.36.66.69s-.28.6-.66.69v.4c.38.09.66.36.66.7 0 .33-.28.6-.66.69v.4c.38.08.66.36.66.69s-.28.61-.66.7v.8h-.5v-.82c-.36-.1-.62-.36-.62-.68s.26-.59.62-.68v-.42c-.36-.1-.62-.37-.62-.68 0-.32.26-.6.62-.68v-.44c-.36-.1-.62-.36-.62-.68s.26-.59.62-.68z" fill-rule="evenodd"/></svg>