<svg height="18" viewBox="0 0 18 18" width="18" xmlns="http://www.w3.org/2000/svg" xmlns:xlink="http://www.w3.org/1999/xlink"><linearGradient id="a" gradientUnits="userSpaceOnUse" x1="5.85" x2="5.85" y1="5.62" y2="12.03"><stop offset="0" stop-color="#f1b147"/><stop offset="1" stop-color="#f9e654"/><stop offset="1" stop-color="#f9d992" stop-opacity="0"/></linearGradient><linearGradient id="b" gradientUnits="userSpaceOnUse" x1="4.39" x2="6.58" y1="9.93" y2="14.14"><stop offset="0" stop-color="#f9e854"/><stop offset="1" stop-color="#eca643"/></linearGradient><linearGradient id="c" gradientUnits="userSpaceOnUse" x1="9.59" x2="4.88" y1="4.74" y2="7.1"><stop offset="0" stop-color="#eeb246"/><stop offset="1" stop-color="#d4c058"/></linearGradient><linearGradient id="d" gradientUnits="userSpaceOnUse" x1="6.18" x2="9.97" y1="11.31" y2="13.35"><stop offset="0" stop-color="#f8e254"/><stop offset="1" stop-color="#eb9f41"/></linearGradient><linearGradient id="e" gradientUnits="userSpaceOnUse" x1="7.28" x2="11.11" y1="4.55" y2="5.67"><stop offset="0" stop-color="#f7de51"/><stop offset="1" stop-color="#eca642"/></linearGradient><path d="m0 0h18v18h-18z" fill="#f0f3fa"/><path d="m9 9.5c0 .74.63 1.5 1.4 1.5.76 0 1.29-.77 1.29-1.5s-.53-1.5-1.3-1.5c-.76 0-1.38.76-1.38 1.5zm-.39 1.78c-.4-.48-.6-1.08-.6-1.78s.2-1.3.6-1.78.92-.72 1.54-.72c.73 0 1.4.43 1.65 1.11l.21-1.11h.99v5h-.99l-.2-1.12a1.76 1.76 0 0 1 -1.67 1.12c-.62 0-1.14-.24-1.54-.72" fill="#1f1a4d"/><path d="m7.67 5.63a4.68 4.68 0 0 0 -3.33 2.54c-.15.3-.27.63-.31.97l-.03.24v.31l.01.05c.02.34.1.67.22.98a2.58 2.58 0 0 0 1 1.3 3.58 3.58 0 0 1 -.51-2.46c.09-.6.33-1.15.73-1.63a.19.19 0 0 0 .03-.09c.01-.08.01-.17.03-.25.25-.84.82-1.43 1.68-1.8.15-.07.33-.11.5-.16zm.01 0 .02-.01h-.02z" fill="url(#a)"/><path d="m5.49 7.97c-.16.21-.29.45-.39.69a3.93 3.93 0 0 0 -.13 2.5c.12.46.3.9.59 1.3a3.85 3.85 0 0 0 2.27 1.45 2.43 2.43 0 0 0 1.01.05c-.75-.2-1.4-.54-1.94-1.05a3.47 3.47 0 0 1 -1.11-2 .17.17 0 0 0 -.05-.08 1.42 1.42 0 0 1 -.33-.46 2.47 2.47 0 0 1 -.26-1.05c-.01-.43.08-.85.3-1.24l.08-.15z" fill="url(#b)"/><path d="m7.83 4.78c-.6.06-1.15.2-1.69.45-.66.3-1.15.77-1.51 1.34a2.6 2.6 0 0 0 -.46 1.8l.02-.02a4.12 4.12 0 0 1 3.37-2.76c.03 0 .07-.02.1-.04l.22-.17c.38-.21.8-.32 1.24-.35.69-.06 1.32.07 1.9.42l.04.03v-.02c-.02 0-.03-.02-.05-.03a3.97 3.97 0 0 0 -1.23-.53 5.3 5.3 0 0 0 -1.95-.12" fill="url(#c)"/><path d="m8.18 12.7c-.08 0-.15 0-.23-.02a2.8 2.8 0 0 1 -1.19-.53 2.6 2.6 0 0 1 -.99-1.3l-.01-.04-.01-.04-.01-.03v.03c.05.3.15.57.3.84a4.8 4.8 0 0 0 2.72 2.2l.26.1.28.03h.07c.02 0 .03 0 .04.02l.44-.02c.43-.03 1.44-.38 1.76-.8-.01 0-.82.24-1.67.18-.76-.05-1-.19-1.62-.59a.24.24 0 0 0 -.09-.03l-.02-.03-.03-.02a7.7 7.7 0 0 1 -.07-.05l-.1-.08a3.21 3.21 0 0 1 -1.57-2.44v-.46.04c-.06.34-.06.67.02 1 .23.92.82 1.59 1.72 2.04z" fill="url(#d)"/><path d="m5.54 7.9.23-.22.02-.03a3.9 3.9 0 0 1 1.41-1.05 3.3 3.3 0 0 1 1.6-.3h.14a3.36 3.36 0 0 0 -3.39 1.6z" fill="#f8ca56"/><path d="m5.74 8.95c-.2.6-.19 1.19.02 1.78l-.01-.3c-.07-.48-.05-.94.07-1.4.13-.46.34-.87.68-1.23l.3-.28c-.5.33-.87.83-1.06 1.43" fill="#eb9f41"/><path d="m9.79 12.62a3.7 3.7 0 0 0 1.8-.11l-.14.01h-.23l-.16.02a4.9 4.9 0 0 1 -1.3-.03c-.57-.1-1.09-.3-1.54-.64l-.02-.01c.45.4.98.64 1.59.76z" fill="#f5bb6a"/><path d="m7.81 5.6h.29c.3-.02.6-.02.89 0 .45.02.87.08 1.25.19l.36.12a4.99 4.99 0 0 0 -2-.37c-.28 0-.55.02-.79.06" fill="#f6d793"/><path d="m9.29 4c-1.45 0-2.53.74-2.89 1.1.83-.28 1.21-.59 2.7-.59 1.18 0 2.44.68 2.91 1.02a3.34 3.34 0 0 0 -2.71-1.53z" fill="url(#e)"/></svg>