<svg height="18" viewBox="0 0 18 18" width="18" xmlns="http://www.w3.org/2000/svg"><path d="m0 0h18v18h-18z" fill="#f0f3fa"/><g fill="#007571"><path d="m2.64 8.64c-.26.6.15 1.18.49 1.42.5.36 1.1.66 1.8.88a14.23 14.23 0 0 0 8.43-.1c.55-.2 2.3-1.03 2.09-2.06-.15-.7-.97-1.26-1.48-1.49a10.49 10.49 0 0 0 -5.86-.64 2.51 2.51 0 0 1 -.06-.47 10.5 10.5 0 0 1 5.72.52c.4.16.78.36 1.14.6.65.43 1.44 1.29.92 2.3a2.6 2.6 0 0 1 -.88.95c-.6.4-1.3.72-2.12.95a14.66 14.66 0 0 1 -7.16.13 7.45 7.45 0 0 1 -2.77-1.19 2.14 2.14 0 0 1 -.88-1.25c-.2-1.23 1.18-2.02 1.88-2.34.05-.03.07 0 .05.07l-.15.4a.23.23 0 0 1 -.1.13c-.44.27-.8.6-1.05 1.19z"/><path d="m4.95 9.46h1.46c.03 0 .06 0 .07.04l.1.71c0 .02 0 .03.02.04l.04.02h1.12l.02-.02.02-.03v-.03l-.76-4.13a.06.06 0 0 0 -.02-.04.07.07 0 0 0 -.04-.02h-1.49s-.02 0-.03.02a.07.07 0 0 0 -.03.02l-2.12 4.14a.06.06 0 0 0 0 .06l.03.02h1.18l.02-.03.35-.75.02-.02zm1.12-2.51-.79 1.65a.03.03 0 0 0 0 .03l.02.01h1.05v-.01l.01-.02-.22-1.66-.01-.01-.02-.01h-.02c-.01 0-.02 0-.02.02z" fill-rule="evenodd"/><path d="m11 8.33v-.67l.02-.03.04-.01h.71l.04.01.01.03v.66l.02.04h.24l.03.01h.01a.04.04 0 0 1 .02.04v.45l-.02.01-.01.01h-.25l-.02.02-.01.01v1.42l-.02.04-.04.01h-.71l-.04-.01-.01-.03v-1.44l-.02-.02h-.02l-.02-.01-.2.02h-.03l-.02-.02v-.01l-.01-.02v-.44a.04.04 0 0 1 .01-.03l.02-.01h.23a.05.05 0 0 0 .04-.01l.01-.02v-.01zm-1.85 1.45c.03.01.05.02.08.01.21-.02.22-.14.22-.33v-1.12c0-.04.03-.07.07-.07h.74a.07.07 0 0 1 .04.02.06.06 0 0 1 .02.04v1.03c.01.52-.14.93-.75 1-.7.08-1.44-.01-1.43-.84v-1.22l.02-.02a.04.04 0 0 1 .03-.01h.77l.02.01.03.03v1.15c0 .16-.03.26.14.32zm5.05.32c.2-.18.3-.43.3-.68v-.2c0-.25-.11-.5-.3-.67a1.04 1.04 0 0 0 -.72-.28h-.21c-.27 0-.53.1-.71.28a.94.94 0 0 0 -.3.68v.2c0 .25.11.5.3.67.2.18.45.28.72.28h.21c.27 0 .52-.1.71-.28zm-.81-.37a.43.43 0 0 1 -.43-.42c0-.24.17-.44.4-.45.23 0 .43.19.43.43.01.24-.17.44-.4.44z"/></g></svg>