<svg height="18" width="18" xmlns="http://www.w3.org/2000/svg"><path d="m0 0h18v18h-18z" fill="#ee2722"/><path d="m3.75 11.4.877-1.5h2.86v1.5h1.577c.928 0 2.207-.704 2.207-2.25 0-.836-.354-1.473-.802-1.9-.435-.414-.984-.65-1.405-.65h-3.178l-2.813 4.8zm1.248-.9h1.859v1.5h2.207c.88 0 1.989-.485 2.522-1.503v1.503h1.892v-1.5h.17c.314 0 .877-.011 1.383-.313.24-.143.494-.357.684-.675.19-.32.285-.693.285-1.112a2.48 2.48 0 0 0 -.66-1.687c-.567-.623-1.388-.713-1.902-.713h-1.852v1.743a3.177 3.177 0 0 0 -.671-.917c-.518-.493-1.219-.826-1.851-.826h-3.548l-3.516 6h2.12zm8.44-3.9h-1.221v4.8h.63v-1.5h.8c.309 0 .708-.018 1.05-.222.168-.1.34-.247.47-.462.128-.216.202-.485.202-.816 0-.581-.248-1.01-.506-1.294-.381-.42-.96-.506-1.425-.506zm-8.09 2.1h1.509l.012-1.5h.618v2.1h-2.501l.361-.6zm3.716 1.5c.363 0 .946-.285.946-1.05 0-.49-.2-.83-.433-1.051-.257-.245-.486-.299-.828-.299h-.631v-.6h.63c.446 0 .791.078 1.141.358a1.986 1.986 0 0 1 .751 1.592c0 .563-.22.97-.523 1.238a1.637 1.637 0 0 1 -1.053.412h-.946v-.6zm4.374-3h-.59v.6h.63c.333.006.43.09.43.09s.2.13.2.36-.094.45-.46.45h-.8v.6h.8c.301 0 .537-.025.713-.13a.732.732 0 0 0 .281-.295c.056-.11.097-.262.097-.475 0-.406-.17-.7-.354-.902-.194-.215-.53-.298-.947-.298z" fill="#fff" fill-rule="evenodd"/></svg>