<svg height="18" viewBox="0 0 18 18" width="18" xmlns="http://www.w3.org/2000/svg" xmlns:xlink="http://www.w3.org/1999/xlink"><linearGradient id="a" gradientUnits="userSpaceOnUse" x1="5.73" x2="10.6" y1="11.92" y2="10.88"><stop offset="0" stop-color="#2b7a77"/><stop offset=".51" stop-color="#4ebaa9"/><stop offset="1" stop-color="#5cc2b1"/></linearGradient><linearGradient id="b" gradientUnits="userSpaceOnUse" x1="8.25" x2="6.09" y1="5.63" y2="11.07"><stop offset="0" stop-color="#236736"/><stop offset=".49" stop-color="#6ba443"/><stop offset="1" stop-color="#86c146"/></linearGradient><linearGradient id="c" gradientUnits="userSpaceOnUse" x1="9.19" x2="12.37" y1="5.02" y2="13.13"><stop offset="0" stop-color="#29a5e3"/><stop offset=".52" stop-color="#356eb9"/><stop offset="1" stop-color="#394da5"/></linearGradient><path d="m0 0h18v18h-18z" fill="#f0f3fa"/><path d="m6.68 13c-.24 0-.37-.09-.5-.29l-1.1-1.92a.45.45 0 0 1 -.08-.28l1.75.07.4.42h3.5l-2.9 1.64c-.15.07-.69.36-1.07.36z" fill="url(#a)"/><path d="m7.15 11h-1.51c-.46 0-.64-.27-.64-.5 0-.13.05-.2.12-.37l2.2-4.9.02-.04.03-.05.06-.06.1-.04.13-.03h.23l1.53.54-.51 1.52z" fill="url(#b)"/><path d="m11.58 13-3.47-7.68c-.06-.13-.16-.3-.4-.3-.23 0-.33.1-.4.2.04-.07.13-.22.4-.22h2.4c.22 0 .33.12.38.23l3.51 7.77z" fill="url(#c)"/></svg>