<svg height="18" width="18" xmlns="http://www.w3.org/2000/svg" xmlns:xlink="http://www.w3.org/1999/xlink"><linearGradient id="a" gradientUnits="userSpaceOnUse" x1="6.17" x2="3.16" y1="6.3" y2="11.68"><stop offset="0" stop-color="#0064c8"/><stop offset=".9" stop-color="#2ec4ff"/></linearGradient><linearGradient id="b" gradientUnits="userSpaceOnUse" x1="6.73" x2="10.18" y1="4.91" y2="12"><stop offset="0" stop-color="#07d364"/><stop offset="1" stop-color="#2ec4ff"/></linearGradient><linearGradient id="c" gradientUnits="userSpaceOnUse" x1="11.73" x2="14.69" y1="12.51" y2="6.25"><stop offset="0" stop-color="#0064c8"/><stop offset=".8" stop-color="#2ec4ff"/></linearGradient><path d="m0 0h18v18h-18z" fill="#f0f3fa"/><path d="m5.24 11.25c-.51 0-.86-.28-.86-.98a6.77 6.77 0 0 1 1.99-3.92c-.25-.2-.54-.32-.85-.35h-.19c-1.57 0-2.83 2.84-2.83 4.18 0 1.1.72 1.82 1.8 1.82 1.1 0 1.93-.88 2.15-1.17l-.01-.04c-.2.14-.65.46-1.2.46z" fill="url(#a)"/><path d="m10.34 10.83-1.35-3.59a1.95 1.95 0 0 0 -.64-.9 1.6 1.6 0 0 0 -.97-.34h-1.85c.3.04.6.16.86.37.25.2.45.48.58.8l1.35 3.6c.13.36.35.67.64.9.29.21.63.33.97.33h.07c.31-.06.6-.2.84-.44-.21-.2-.38-.45-.5-.73z" fill="url(#b)"/><path d="m14.27 6c-.34 0-.68.12-.97.34s-.5.54-.64.9l-1.35 3.6c-.23.6-.74 1.06-1.33 1.16h1.74c.34 0 .68-.12.97-.34s.51-.53.64-.9l1.35-3.59c.24-.6.73-1.02 1.32-1.12v-.05z" fill="url(#c)"/></svg>