<svg height="18" width="18" xmlns="http://www.w3.org/2000/svg"><path d="m0 0h18v18h-18z" fill="#4f892d"/><path d="m6.96 9.245c-.713 1.527.297 2.358.891 2.727.065.04.152.09.271.129 4.73 1.04 2.845-6.188 2.334-7.101-.086 2.063-2.716 2.57-3.496 4.245z" fill="#69ace5"/><path d="m9.702 9.245c-.713 1.527.297 2.358.891 2.727.065.04.152.09.271.129 4.73 1.04 2.845-6.188 2.334-7.101-.086 2.063-2.714 2.57-3.496 4.245z" fill="#f6a704"/><path d="m11.16 7.686c-.592.45-1.16.92-1.458 1.559-.61 1.308.043 2.105.616 2.539.99-.789 1.053-2.553.842-4.098z" fill="#f18903"/><path d="m4.245 9.244c-.713 1.528.297 2.358.891 2.728.065.04.152.09.271.129 4.73 1.04 2.868-6.187 2.357-7.1-.085 2.213-2.737 2.569-3.519 4.243z" fill="#a2d06b"/><path d="m7.591 11.795c-.577-.431-1.247-1.23-.631-2.55.305-.653.89-1.129 1.496-1.588.213 1.558.149 3.35-.865 4.138z" fill="#1f9bde"/><path d="m5.055 14c-.09-1.189.014-1.81.078-2.027l.256.117c-.118.606.044 1.491.143 1.91z" fill="#a2d06b"/><path d="m6.499 9.025a18.277 18.277 0 0 0 -1.364 2.964c-.375-.22-1.125-.779-1.125-1.857 0-1.712 1.71-2.353 2.754-3.227 1.006-.842.94-1.936 1.006-1.896.225 1.936-.41 2.541-1.271 4.016z" fill="#e2efc3"/><path d="m5.049 8.839c.072.839.387 1.606.629 1.858.021-.082.095-.237.095-.237-.285-.3-.692-1.576-.724-1.621zm1.017-.878c.05.564.26 1.08.423 1.25.015-.056.101-.208.101-.208-.19-.203-.502-1.013-.524-1.042zm.934-.867c.03.345.16.66.259.764.009-.034.098-.225.098-.225-.117-.124-.344-.52-.357-.54z" fill="#a2d06b"/></svg>