<svg height="18" viewBox="0 0 18 18" width="18" xmlns="http://www.w3.org/2000/svg"><path d="m0 0h18v18h-18z" fill="#f0f3fa"/><g fill="#0065b3"><path d="m13.96 4.02a14.6 14.6 0 0 1 -2.14 1.53.04.04 0 0 1 -.05 0l-.35-.25a4.48 4.48 0 0 0 -2.48-.76 4.77 4.77 0 0 0 -4.48 6.75 4.77 4.77 0 0 0 4.77 2.71c1.06-.09 2-.5 2.81-1.23a4.64 4.64 0 0 0 .87-5.95 12.45 12.45 0 0 1 1.07-2.78c.03-.04.02-.04-.02 0zm-2.25 1.6a28.28 28.28 0 0 1 -5.94 2.6c-.04.02-.04.03 0 .04l2.28.6c.03.02.06 0 .09-.02l.87-.93a.3.3 0 0 1 .1-.07l1.53-.72a642.42 642.42 0 0 0 2.15-1.76l-3.06 3.83v.02l2.58.76c.02 0 .03 0 .03-.02.1-1.02.27-2.03.53-3.01 0-.04.02-.04.04 0a3.7 3.7 0 0 1 -.47 4.22 3.72 3.72 0 0 1 -2.2 1.28 3.85 3.85 0 0 1 -4.55-4.28 3.8 3.8 0 0 1 3.64-3.26c.86-.03 1.65.2 2.38.7zm-.9 1.52a.73.73 0 0 1 -.17.1c-.4.2-.79.36-1.15.53-.2.09-.36.2-.46.3-.4.44-.81.89-1.25 1.35-.02.02-.01.04.02.04h1.45c.02 0 .05-.01.06-.03a3228.04 3228.04 0 0 1 3.01-3.6h-.01l-1.5 1.3z"/><path d="m7 10h4v1h-4z" opacity=".5"/></g></svg>