<svg height="18" width="18" xmlns="http://www.w3.org/2000/svg"><path d="m0 0h18v18h-18z" fill="#f0f3fa"/><path d="m5.2 10.17h-1.8a.18.18 0 0 0 -.15.09l-.4.74h-.85l2.26-3.95c.01-.03.04-.05.06-.05.03 0 .06.02.07.05l2.26 3.95h-.9l-.4-.74a.18.18 0 0 0 -.14-.1zm-1.4-.71h1.03c.04 0 .06-.05.05-.08l-.52-.93c-.02-.03-.07-.03-.1 0l-.5.93c-.03.03 0 .08.04.08zm1.3-2.46h.79a.2.2 0 0 1 .16.1l1.39 2.57h.03l1.39-2.57a.2.2 0 0 1 .17-.1h.79l-2.22 3.93c-.06.1-.23.1-.3 0zm4.9 4v-3.8c0-.1.09-.2.2-.2h.55v4zm1.22 0v-3.8c0-.1.09-.2.19-.2h1.85c1.4 0 2.24.72 2.24 1.99 0 1.26-.84 2.01-2.24 2.01zm2.04-.83c.96 0 1.4-.46 1.4-1.19 0-.87-.44-1.2-1.4-1.2h-1.26v2.39z" fill="#ca1f40"/></svg>