<svg height="18" width="18" xmlns="http://www.w3.org/2000/svg"><path d="m0 0h18v18h-18z" fill="#f0f3fa"/><path d="m7.17 10.82c.13.24.36.24.5 0l1.9-3.38c.16-.24.03-.44-.25-.44h-3.82c-.29 0-.41.2-.27.44l1.93 3.38zm-3.2-3.64c.13-.24.36-.24.5 0l1.93 3.38c.13.24.02.44-.28.44h-3.78c-.3 0-.42-.2-.28-.44zm11.83 1.57c.27.14.27.37 0 .5l-3.3 1.7c-.28.13-.5.01-.5-.26v-3.38c0-.27.22-.39.5-.25l3.3 1.7zm-4.82 2.25c.29 0 .52-.21.52-.47v-3.05c0-.27-.23-.48-.52-.48h-.46c-.29 0-.52.22-.52.48v3.05c0 .26.23.47.52.47z" fill="#7825e7"/></svg>