<svg height="18" viewBox="0 0 18 18" width="18" xmlns="http://www.w3.org/2000/svg"><path d="m0 0h18v18h-18z" fill="#f0f3fa"/><path d="m7.85 8.62c.2.21.2.56 0 .78l-2.45 2.6c-.1-.14-.32-.46-.4-.6 0-.25 1.28-1.7 1.93-2.4-.63-.71-1.91-2.15-1.93-2.4l.4-.6z" fill="#00b73f"/><path d="m8.62 7.85c.21.2.56.2.78 0l2.6-2.45c-.14-.1-.46-.32-.6-.4-.25 0-1.7 1.28-2.4 1.93-.71-.63-2.15-1.91-2.4-1.93l-.6.4z" fill="#0081e5"/><path d="m4.29 7c.11.24.52.9 1.25 1.57l.46.43-.46.43a5.95 5.95 0 0 0 -1.25 1.57 6.09 6.09 0 0 1 -.29-.91c-.02-.17.45-.8.7-1.09-.25-.3-.72-.92-.7-1.09s.2-.68.29-.91z" fill="#00b73f"/><g fill="#0081e5"><path d="m7 4.29c.24.11.9.52 1.57 1.25l.43.46.43-.46a5.95 5.95 0 0 1 1.57-1.25 6.09 6.09 0 0 0 -.91-.29c-.17-.02-.8.45-1.09.7-.3-.25-.92-.72-1.09-.7s-.68.2-.91.29zm2.38 5.86a.58.58 0 0 0 -.78 0l-2.6 2.45c.14.1.46.32.6.4.25 0 1.7-1.28 2.4-1.93.71.65 2.15 1.92 2.4 1.94l.6-.4-2.62-2.45zm.77-.77a.58.58 0 0 1 0-.78l2.45-2.6c.1.14.32.46.4.6 0 .25-1.28 1.7-1.93 2.4.65.71 1.92 2.15 1.94 2.4l-.4.6-2.45-2.62z"/><path d="m11 13.71c-.24-.11-.9-.52-1.57-1.25l-.43-.46-.43.46a5.95 5.95 0 0 1 -1.57 1.25c.23.1.74.27.91.29s.8-.45 1.09-.7c.3.25.92.72 1.09.7s.68-.2.91-.29zm2.71-2.71c-.11-.24-.52-.9-1.25-1.57l-.46-.43.46-.43a5.95 5.95 0 0 0 1.25-1.57c.1.23.27.74.29.91s-.45.8-.7 1.09c.25.3.72.92.7 1.09s-.2.68-.29.91z"/></g></svg>