<svg height="18" width="18" xmlns="http://www.w3.org/2000/svg"><path d="m0 0h18v18h-18z" fill="#003768"/><path d="m11.254 7.826 2.302-.398.444-2.426h-3.002l.257 2.824zm2.216.039-2.166.428.025.221 2.094-.336zm-.135.735-1.963.383-.003.223 1.907-.327.06-.28zm-3.293 1.216-.2.028.013 3.156h.527zm.764 0-.18.023-.012 3.161h.526zm-.042-4.814-.542-.002.257 3.201.283-.056zm-1.504 4.376-3.76.555-.442.54 4.23-.874zm2.11.31v3.312h1.06l.77-3.672zm-1.643-1.487.27-.057v-3.142h-.532l.008.096zm-.415 1.865-4.463.668-1.845 2.266h3.39l1.091-1.201h2.002zm-.025-1.869v-2.988l-2.932 3.61zm0 .48-3.137.457-.404.49 3.541-.722z" fill="#fff"/></svg>