<svg height="18" width="18" xmlns="http://www.w3.org/2000/svg"><path d="m0 9a9 9 0 1 1 18 0 9 9 0 0 1 -18 0z" fill="#f0f3fa"/><path d="m5 11.53c0-1.73 1.5-2.7 3.35-2.96 1.9-.26 2.95-1.06 2.95-1.95 0-1.26-.9-2.2-1.94-2.2h-.33c-1.17 0-1.7 1.27-2.58 1.27-.24 0-.48.04-.48-.3-0-.84 1.63-1.39 3.07-1.39 4.28 0 3.96 1.65 3.96 5.76v3.1c0 .54-.24.84-.72.84-.4 0-1.13-.3-1.78-.3-1.2 0-1.53.6-2.82.6-1.46 0-2.68-.95-2.68-2.47zm3.55 1.65a2.77 2.77 0 0 0 2.83-2.7c0-.98-.73-1.78-1.82-1.78-1.33 0-2.95 1.18-2.95 2.54 0 1.1.9 1.94 1.94 1.94z" fill="#ce0e2d"/></svg>