<svg height="18" viewBox="0 0 18 18" width="18" xmlns="http://www.w3.org/2000/svg"><path d="m0 0h18v18h-18z" fill="#f0f3fa"/><path d="m3 12 2.5-6h1l2.5 6h-1l-2.15-5.57h.33l-2.18 5.57zm3-1.5-.5-1h2l.5 1z" fill="#1d428a"/><path d="m9 12v-6h2.48c1.02 0 1.58.23 1.94.5.37.27.55.64.55 1.1 0 .32-.07.6-.22.81-.14.22-.5.47-.75.59a2.3 2.3 0 0 1 -.9.13l.15-.31c.34 0 .64.05.9.24.26.12.47.29.62.52.15.22.23.5.23.84 0 .5-.2.89-.58 1.17a2.9 2.9 0 0 1 -1.7.41zm1-1h1.7c.67 0 1.3-.08 1.3-.58 0-.84-.72-.92-1.3-.92h-1.94v-1h1.71c.86 0 1.52 0 1.52-.9 0-.6-.9-.6-1.5-.6h-1.49z" fill="#d51478"/></svg>