<svg height="18" width="18" xmlns="http://www.w3.org/2000/svg"><path d="m0 0h18v18h-18z" fill="#223759"/><path d="m9.66 9.025-3.968-3.968c-.25-.25-.89.39-.64.64l3.328 3.328-3.328 3.328c-.25.25.39.89.64.64z" fill="#faa749"/><path d="m12.291 5.13c-.035.016-.675.643-1.424 1.392l-1.36 1.363.336.336.336.336 1.386-1.386 1.383-1.385c.249-.25-.375-.938-.657-.656zm-2.441 4.717c-.18.179-.327.342-.327.358 0 .045 2.634 2.624 2.743 2.733.275.275.915-.42.682-.653l-1.386-1.382-1.383-1.386-.33.33z" fill="#fff"/></svg>