<svg height="18" viewBox="0 0 18 18" width="18" xmlns="http://www.w3.org/2000/svg"><path d="m0 0h18v18h-18z" fill="#f0f3fa"/><path d="m3 13 2-8h1l-2 8zm9 0 2-8h1l-2 8z" fill="#8ea0ab"/><path d="m9.27 9.25h-1.7l-.01-.5h1.64c.6 0 1.19-.57 1.19-1.25 0-.74-.49-1-1.13-1h-1.7l.07 5.5h-.63v-6h2.18c1.06 0 1.79.28 1.79 1.5 0 .88-.94 1.67-1.7 1.75zm-.07 2.75h-1.86v-.5h1.93c1.13 0 1.63-.5 1.63-1.23 0-.76-.93-1.02-1.63-1.02h-1.15v-.5h1.8c.82.06 1.61.67 1.61 1.52 0 1.22-.56 1.73-2.32 1.73z" fill="#262223"/></svg>