<svg fill="none" height="18" width="18" xmlns="http://www.w3.org/2000/svg" xmlns:xlink="http://www.w3.org/1999/xlink"><linearGradient id="a" gradientUnits="userSpaceOnUse" x1="5.217" x2="5.217" y1="7.226" y2="11.226"><stop offset="0" stop-color="#005795"/><stop offset="1" stop-color="#002b5e"/></linearGradient><linearGradient id="b" gradientUnits="userSpaceOnUse" x1="11.426" x2="4.102" y1="10.625" y2="10.625"><stop offset="0" stop-color="#002f62"/><stop offset="1" stop-color="#005b9a"/></linearGradient><path d="m0 0h18v18h-18z" fill="#f0f3fa"/><g clip-rule="evenodd" fill-rule="evenodd"><path d="m3 7h3.039c.664 0 1.415.238 1.396 1.023-.01.398-.273.77-.809.847.186.029.353.07.483.142 0 .217.106.44.254.554v.024c-.308.086-.576.33-.638.625-.071.342.156.64.465.785h-4.19zm1.584.83h.953c.206 0 .372.152.372.352s-.166.36-.372.36h-.953zm1.04 1.495h-1.04v.818h1.04c.668 0 .638-.818 0-.818zm2.723-.939-.457-1.386h1.603l.588 2.223.841-2.223h1.553l.854 2.223.576-2.223h1.597l-1.213 4h-1.622l-.966-2.481-.946 2.481h-1.133l-.47-.442c.278-.246.44-.613.52-.992h-.675c-.045.385-.171.57-.229.613l-.483-.487c.291-.126.737-.463.607-.873a.629.629 0 0 0 -.545-.433zm-.39 1.005c-.087-.076-.212-.232-.213-.39-.002-.353.548-.362.523 0-.008.107-.078.258-.31.39zm-.309.493.725.686c-.276.168-.682.176-.88-.102-.116-.164-.12-.383.155-.584z" fill="url(#a)"/><path d="m4.46 6.475s1.79-2.798 5.386-2.165c-3.077-.24-4.566 1.871-4.759 2.145a2.17 2.17 0 0 1 -.014.02h-.612zm-.279 5.056h.792c.255.43.863 1.184 1.74 1.767 1.824 1.213 4.162 1.083 5.923-.22-1.882 1.852-4.857 1.844-6.878.275-.81-.629-1.34-1.37-1.577-1.822z" fill="url(#b)"/><path d="m13.602 6.83.123-.361h.434c-.34-.726-1.454-2.157-3.318-2.722-1.822-.554-3.738-.176-5.26 1.13.757-.525 1.58-.869 2.449-.995a5.28 5.28 0 0 1 3.678.84c1.244.833 1.845 1.969 1.894 2.107zm-.339 4.724h.65l-.031.038c-.505.61-2.096 2.535-5.232 2.113 1.137.054 3.112-.16 4.613-2.151z" fill="#818285"/></g></svg>