<svg height="18" viewBox="0 0 18 18" width="18" xmlns="http://www.w3.org/2000/svg"><path d="m0 0h18v18h-18z" fill="#e10626"/><path d="m7.67 2.5s1.88 1.63 1.63 3.07c-.04.2-.14.42-.25.68-.27.6-.59 1.32-.26 2.03.5 1.08.76 3.18-1.5 2.63-2.23-.53-2.06-3.23-.4-4.65 1.68-1.46 1.11-3.04.78-3.76zm1.73 4.88c-.05.4.1.8.23 1.23.25.72.52 1.5-.1 2.45-.68 1.03.36 2.48 1.7 2.21 1.45-.29 1.82-1.2 1.78-2.26-.05-1.27-.54-1.68-1.6-2.57l-.2-.16c-1.3-1.1-.3-3.16-.3-3.16s-1.38 1.05-1.51 2.26zm-1.23 4.34c-1.53-.04-2.33-.63-2.74-1.13-.1-.11-.24.81.05 1.6v.03c.27.72.68 1.86 2.26 2.45 1.34.5 3.23.58 4.32-.8.23-.3-.07-.19-.4-.06h-.01c-.58.22-1.66.2-2.46-.46-.51-.43-.63-.88-.7-1.2-.07-.26-.12-.43-.32-.43z" fill="#fff"/></svg>