<svg height="18" viewBox="0 0 18 18" width="18" xmlns="http://www.w3.org/2000/svg"><path d="m0 0h18v18h-18z" fill="#1694ff"/><path d="m9 5.62 2.82 2.66c.42.4.42 1.07 0 1.48-.42.4-1.1.4-1.52 0l-2.1-2.06a1.85 1.85 0 0 0 -2.57 0c-.7.68-.7 1.8 0 2.5l2.62 2.54a3.8 3.8 0 0 1 -1.35.26c-2.15 0-3.9-1.8-3.9-4s1.75-4 3.9-4c.77 0 1.5.23 2.1.63zm.83-.4c.4-.14.82-.22 1.27-.22 2.15 0 3.9 1.8 3.9 4s-1.75 4-3.9 4a3.8 3.8 0 0 1 -1.85-.48l-3.08-2.9a1 1 0 0 1 0-1.45c.41-.4 1.08-.4 1.49 0l2.1 2.05c.72.7 1.88.7 2.6 0s.72-1.83 0-2.53z" fill="#fff"/></svg>