<svg height="18" viewBox="0 0 18 18" width="18" xmlns="http://www.w3.org/2000/svg"><path d="m0 0h18v18h-18z" fill="#f0f3fa"/><path d="m7.55 5-.17.4c.08.24.26.87.26 1.44s.07 2.03.1 2.68c.03.29.22.85.71.85.48 0 .74-.16.8-.24.17.06.6.18 1 .18.36 0 1.09-.3 1.46-.47-.07.21-.15.54-.15.9 0 .65.42 1.26 1.5 1.26a4.4 4.4 0 0 0 2.52-1.03c.31-.25.4-.64.4-.8 0-.2-.08-.68-.4-.97h.3l-.57-.58-.13.43.63 1.28a4.09 4.09 0 0 1 -2.8 1.18c-1.5 0-1.38-1.15-1.26-1.69l.03-.01c.2.16.71.5 1.15.5.54 0 .95-.47.95-1.44 0-.78-.17-2.3-.26-2.95l.35.2-.53-1.12-.22.35c.16.88.45 2.95.31 4.17-.05.1-.22.29-.55.29s-.61-.15-.71-.22l.66-.28.25-.35c-.08-.13-.45-.4-1.33-.4-.87 0-1.17.15-1.2.23l-.24.47c.1-.05.34-.14.58-.06.23.09.41.25.47.32-.23.1-.81.29-1.25.29s-.53-.05-.52-.07c.08-.06.24-.3.24-.73 0-.54-.23-.62-.34-.62s-.92.44-.64 1.42c-.28.12-.86.17-.96-.6 0-1.26-.06-3.84-.44-4.21zm1.95 3.88a.96.96 0 0 0 -.48.45l.3.28c.03 0 .28-.17.41-.26a.93.93 0 0 0 -.23-.47zm2.83.21c-.28-.1-.62-.09-.76-.07l.36.3zm-10.2-1.02c-.15.1-.34 2.11.5 2.11.43 0 .58-.4.73-.8.15-.42.31-.85.77-.85.07 0 .24.07.4.37.2.37.43.4.84.4.38 0 .75-.41.84-.52a.48.48 0 0 1 .02-.02c.06-.05.42-.39.14.24a.86.86 0 0 0 .33-.65c0-.06-.03-.2-.16-.2-.06 0-.15.09-.26.2-.22.2-.53.48-.9.48-.47 0-.8-.45-.92-.67-.02-.04-.1-.12-.25-.12-.2 0-.43.09-.96.96l-.33.58c-.07.13-.1.18-.13.2h-.19c-.3 0-.64-.15-.48-1.7zm1.65 1.88c-.03 0-.48.64-.48 1.28s.4.77.7.77.43-.1.9-.57v-.01c.47-.48 1.25-1.28 1.92-1.28a.6.6 0 0 1 .5.3h.06c.03-.11.07-.38.06-.5-.02-.14-.34-.3-.54-.3s-.73.04-1.63.92c-.9.87-1.1 1.06-1.46 1.06s-.4-.27-.4-.44c0-.16.15-.76.37-1.23z" fill-rule="evenodd"/></svg>