<svg height="18" viewBox="0 0 18 18" width="18" xmlns="http://www.w3.org/2000/svg" xmlns:xlink="http://www.w3.org/1999/xlink"><linearGradient id="a"><stop offset="0" stop-color="#cbb569"/><stop offset=".34" stop-color="#dfc789"/><stop offset=".56" stop-color="#fde9c3"/><stop offset="1" stop-color="#ccb56a"/></linearGradient><linearGradient id="b" gradientUnits="userSpaceOnUse" x1="4" x2="8.69" xlink:href="#a" y1="9" y2="9"/><linearGradient id="c"><stop offset=".09" stop-color="#806416"/><stop offset=".51" stop-color="#ebd8ae"/><stop offset=".9" stop-color="#846721"/></linearGradient><linearGradient id="d" gradientUnits="userSpaceOnUse" x1="6.2" x2="6.2" xlink:href="#c" y1="5.61" y2="12.34"/><linearGradient id="e" gradientUnits="userSpaceOnUse" x1="14" x2="9.31" xlink:href="#a" y1="9" y2="9"/><linearGradient id="f" gradientUnits="userSpaceOnUse" x1="11.8" x2="11.8" xlink:href="#c" y1="5.61" y2="12.34"/><path d="m0 0h18v18h-18z" fill="#0b253e"/><path d="m8.69 4a5.04 5.04 0 0 0 -4.69 5c0 2.64 2.06 4.8 4.69 5v-1.5c-1.8-.19-3.2-1.7-3.2-3.52s1.4-3.33 3.2-3.52z" fill="url(#b)"/><path d="m7.95 12.34a3.52 3.52 0 0 1 -2.39-3.36c0-1.58 1-2.91 2.43-3.37-2.02.21-3.58 1.64-3.58 3.37 0 1.72 1.54 3.14 3.54 3.36z" fill="url(#d)"/><path d="m9.31 4a5.04 5.04 0 0 1 4.69 5c0 2.64-2.06 4.8-4.69 5v-1.5c1.8-.19 3.2-1.7 3.2-3.52s-1.4-3.33-3.2-3.52z" fill="url(#e)"/><path d="m10.05 12.34a3.52 3.52 0 0 0 2.39-3.36c0-1.58-1-2.91-2.43-3.37 2.02.21 3.58 1.64 3.58 3.37 0 1.72-1.54 3.14-3.54 3.36z" fill="url(#f)"/></svg>