<svg height="18" viewBox="0 0 18 18" width="18" xmlns="http://www.w3.org/2000/svg"><path d="m0 0h18v18h-18z" fill="#f0f3fa"/><path d="m5.67 5.57a.16.16 0 0 0 .08-.13c.04-.6.31-1.02.8-1.26.6-.3 1.16-.23 1.7.2.03.03.08.03.12.01a1.5 1.5 0 0 1 2.07.9c0 .03 0 .05-.04.04a5.53 5.53 0 0 0 -5.6 2.61c-.02.03-.03.03-.04 0a1.86 1.86 0 0 1 0-1.36c.17-.43.47-.77.9-1.01z" fill="#f6ba00"/><path d="m13.25 6.6c0 .07.07.16.2.29l.1.1a1.99 1.99 0 0 1 -.27 2.8c-.04.03-.05.02-.06-.02a3.15 3.15 0 0 0 -1.87-2.7 3.21 3.21 0 0 0 -3.27.33c-.04.03-.06.02-.05-.04.13-.65.46-1.14.98-1.49a2.3 2.3 0 0 1 1.77-.31.1.1 0 0 0 .07-.02c.28-.16.52-.26.75-.28.42-.05.78.06 1.1.32.3.26.48.6.55 1.02z" fill="#d9261c"/><path d="m4.76 9.02a2.52 2.52 0 0 1 3.06-2.22c.05 0 .05.03.02.06a3.62 3.62 0 0 0 -.18 5.65c.73.6 1.57.89 2.52.84.07 0 .07.01.02.05-.58.4-1.23.6-1.95.6a3.59 3.59 0 0 1 -2.2-.8 1.6 1.6 0 0 0 -.51-.33 2.25 2.25 0 0 1 -1.16-3.36c.04-.06.11-.16.22-.27a4.19 4.19 0 0 0 .16-.22z" fill="#009a3e"/><path d="m11.99 9.97-1.96-1.96a.03.03 0 0 0 -.05 0l-1.98 1.97a.03.03 0 0 0 0 .05l1.96 1.96h.05l1.99-1.97a.03.03 0 0 0 0-.05z" fill="#1f2971"/></svg>