<svg height="18" viewBox="0 0 18 18" width="18" xmlns="http://www.w3.org/2000/svg"><path d="m0 0h18v18h-18z" fill="#d6251b"/><g fill="#f0f3fa"><path d="m4.24 8.95c.22.04.4.15.55.34a1 1 0 0 1 .21.63c0 .21-.05.4-.16.56-.1.16-.25.3-.44.38-.2.1-.43.14-.7.14h-1.7v-4h1.63c.26 0 .5.04.69.13a.97.97 0 0 1 .59.9c0 .23-.06.43-.19.59a.97.97 0 0 1 -.48.33zm-1.45-.3h.72c.2 0 .34-.04.44-.13.1-.08.15-.2.15-.37a.47.47 0 0 0 -.15-.37.65.65 0 0 0 -.44-.13h-.71v1zm.8 1.7c.19 0 .34-.05.44-.14.11-.1.17-.22.17-.4a.5.5 0 0 0 -.17-.4.67.67 0 0 0 -.46-.14h-.77v1.08h.8zm10.95.65c-.3 0-.55-.05-.79-.14-.23-.1-.4-.23-.54-.4-.14-.18-.2-.38-.21-.62h.89c.01.16.07.28.18.38.1.09.26.14.45.14.2 0 .34-.05.45-.13.12-.1.17-.2.17-.35a.39.39 0 0 0 -.11-.28.76.76 0 0 0 -.29-.18c-.1-.04-.26-.1-.46-.14a5.77 5.77 0 0 1 -.66-.22 1.21 1.21 0 0 1 -.43-.33.93.93 0 0 1 -.18-.6c0-.23.06-.43.19-.6.12-.17.29-.3.51-.39.22-.1.48-.14.76-.14.43 0 .77.1 1.04.3.27.19.41.46.44.81h-.91a.43.43 0 0 0 -.18-.33.69.69 0 0 0 -.45-.13c-.16 0-.3.04-.39.12-.1.07-.14.19-.14.34 0 .1.03.19.1.26.08.07.17.12.28.17.1.04.26.09.46.14.27.08.49.15.66.23.17.07.31.18.44.33a.9.9 0 0 1 .18.6c0 .2-.06.4-.17.57-.12.18-.28.33-.5.43-.23.1-.49.16-.8.16zm-4.26-1.25a1.4 1.4 0 0 1 -1.04.45c-.75 0-1.35-.54-1.35-1.2s.6-1.2 1.35-1.2c.43 0 .8.18 1.05.46l.71-.49a2.33 2.33 0 0 0 -1.76-.77c-1.24 0-2.24.9-2.24 2s1 2 2.24 2c.7 0 1.33-.3 1.74-.75zm1.68 1.42a3.81 3.81 0 0 1 -2.96 1.39 3.8 3.8 0 0 1 -3.18-1.68l-.38.26a4.27 4.27 0 0 0 3.56 1.86c1.37 0 2.59-.62 3.36-1.58z"/><path d="m5.73 7.27a3.78 3.78 0 0 1 3.27-1.83 3.8 3.8 0 0 1 3.03 1.47l.3-.36a4.3 4.3 0 0 0 -3.33-1.55c-1.56 0-2.91.8-3.64 1.99z"/></g></svg>