<svg height="18" viewBox="0 0 18 18" width="18" xmlns="http://www.w3.org/2000/svg" xmlns:xlink="http://www.w3.org/1999/xlink"><linearGradient id="a"><stop offset="0" stop-color="#fab325"/><stop offset="1" stop-color="#ff6521"/></linearGradient><linearGradient id="b" gradientUnits="userSpaceOnUse" x1="8.71" x2="12.42" xlink:href="#a" y1="14.32" y2="11.32"/><linearGradient id="c"><stop offset="0" stop-color="#ef342b"/><stop offset="1" stop-color="#f27326"/></linearGradient><linearGradient id="d" gradientUnits="userSpaceOnUse" x1="7.01" x2="7.01" xlink:href="#c" y1="5.44" y2="15"/><linearGradient id="e" gradientUnits="userSpaceOnUse" x1="9.29" x2="5.58" xlink:href="#a" y1="3.68" y2="6.68"/><linearGradient id="f" gradientUnits="userSpaceOnUse" x1="10.99" x2="10.99" xlink:href="#c" y1="12.56" y2="3"/><linearGradient id="g" gradientUnits="userSpaceOnUse" x1="9" x2="9" y1="8" y2="10"><stop offset="0" stop-color="#fab23a"/><stop offset="1" stop-color="#f8681f"/></linearGradient><path d="m0 0h18v18h-18z" fill="#f0f3fa"/><path d="m10.9 12.81c-2.12 0-3.2-.37-3.49-.56.33.93 1.93 2.66 3.33 2.56s2.56-1.57 3.27-2.35c-.15.12-.98.35-3.1.35z" fill="url(#b)"/><path d="m11.03 14.78c-3.83 1.07-8.32-1.9-8.01-6.1 0-.1.1-1.1 1.72-2.11a7.82 7.82 0 0 1 3.27-1.13c-.4.35-1.2 1.6-1.2 3.76 0 2.7 1.95 4.98 4.22 5.58z" fill="url(#d)"/><path d="m7.1 5.19c2.12 0 3.2.37 3.49.56-.33-.93-1.93-2.66-3.33-2.56s-2.56 1.57-3.27 2.35c.15-.12.98-.35 3.1-.35z" fill="url(#e)"/><path d="m6.97 3.22c3.83-1.07 8.32 1.9 8.01 6.1 0 .1-.1 1.1-1.72 2.11a7.82 7.82 0 0 1 -3.27 1.13c.4-.35 1.2-1.6 1.2-3.76 0-2.7-1.95-4.98-4.22-5.58z" fill="url(#f)"/><path d="m8 8h2v2h-2z" fill="url(#g)"/></svg>