<svg height="18" width="18" xmlns="http://www.w3.org/2000/svg"><path d="m0 0h18v18h-18z" fill="#1d2b93"/><g fill="#fff"><path d="m14 13h-2.374s.374-.146.374-.761v-3.364c0-.641-.42-.893-.912-1.04-.414-.122-.936.01-1.241.176-.57.26-1.335.577-1.847.864v-3.084c0-.531-.247-.511-.36-.666l2.36-1.125v3.375c.754-.298 1.88-.876 2.875-.51.437.16 1.125.705 1.125 1.407z"/><path d="m10 11.879c0 .485-.24 1.121-.873 1.121h-1.127v-4.126h1.056c.524 0 .946.276.944.958zm-4 1.12h-3c.429-.632 2.532-4.242 3-6.75v6.751z"/></g></svg>