<svg height="18" viewBox="0 0 18 18" width="18" xmlns="http://www.w3.org/2000/svg"><path d="m0 0h18v18h-18z" fill="#f0f3fa"/><path d="m3.25 10.31a3.53 3.53 0 0 0 2.34 2.1l.03.03a3.52 3.52 0 0 0 6.76.02.12.12 0 0 1 .08-.08 3.52 3.52 0 0 0 0-6.76.1.1 0 0 1 -.08-.07 3.52 3.52 0 0 0 -6.76 0 .09.09 0 0 1 -.06.06 3.53 3.53 0 0 0 -2.3 4.7zm6.77-3.57a5.13 5.13 0 0 1 -4.05-.89c-.05-.04-.1-.03-.13.03a.09.09 0 0 0 0 .1 5.1 5.1 0 0 1 .04 6.02c-.04.05-.06.11 0 .16a.08.08 0 0 0 .1 0 5.06 5.06 0 0 1 6.07 0c.03.02.07.02.1-.01a.08.08 0 0 0 .01-.11l-.16-.24a5.09 5.09 0 0 1 0-5.6l.16-.24a.08.08 0 0 0 0-.07.08.08 0 0 0 -.04-.05.1.1 0 0 0 -.1.02c-.61.43-1.28.74-2 .88z" fill="#719732" fill-rule="evenodd"/></svg>