<svg height="18" viewBox="0 0 18 18" width="18" xmlns="http://www.w3.org/2000/svg"><path d="m0 0h18v18h-18z" fill="#f0f3fa"/><path d="m9.97 5.71a2.58 2.58 0 0 1 1.45-.62 2.6 2.6 0 0 0 -3.17-1.47 2.52 2.52 0 0 0 -1.73 3 3.1 3.1 0 0 1 3.45-.9zm-4.14.37c0 .37.08.72.23 1.04a2.94 2.94 0 0 0 -.16 3.49 2.55 2.55 0 0 1 -2.4-2.52 2.55 2.55 0 0 1 2.38-2.52c-.03.17-.05.34-.05.5zm7.5 3.54c-.23-.3-.5-.54-.81-.71a2.94 2.94 0 0 0 -.58-1.88 3.04 3.04 0 0 0 -1.38-1.04 2.61 2.61 0 0 1 3.45.66c.8 1.08.6 2.56-.42 3.4-.07-.14-.16-.3-.27-.43zm-3.53 3.62c.22-.3.37-.63.44-.97a3.05 3.05 0 0 0 2.2-2.75 2.49 2.49 0 0 1 .45 3.42 2.61 2.61 0 0 1 -3.43.68c.12-.11.24-.24.34-.38zm-3.58-2.04a2.62 2.62 0 0 1 -1.56-.3 2.52 2.52 0 0 0 1.74 2.98 2.6 2.6 0 0 0 3.18-1.48 3.1 3.1 0 0 1 -3.36-1.2zm4.13-4.89v2.28c0 .13-.06.33-.4.07l-.92-.97-2.72 2.65a3 3 0 0 1 4.04-4.03zm-2.69 5.39v-2.3c0-.13.07-.33.4-.07l.91.97 2.72-2.65a3 3 0 0 1 -4.03 4.03z" fill="#eb2735"/></svg>