<svg height="18" viewBox="0 0 18 18" width="18" xmlns="http://www.w3.org/2000/svg"><path d="m0 0h18v18h-18z" fill="#f0f3fa"/><path d="m7.37 4.55a.2.2 0 0 1 .11-.25 5.24 5.24 0 0 1 4.78.66c.09.07.1.2.04.28l-3.07 3.99z" fill="#dfb431"/><path d="m9.8 13.4a4.24 4.24 0 0 1 -4.03-1.73l3.46-2.44.56 4.16z" fill="#a8b242"/><path d="m6.91 5.59a4 4 0 0 1 6.09 3.43l-4-.02z" fill="#dd6727"/><path d="m13.77 8.7c.11-.01.2.07.22.18a4.76 4.76 0 0 1 -1.5 3.82.2.2 0 0 1 -.27-.02l-2.99-3.45z" fill="#e49d2b"/><path d="m9.23 9.23.55 5.6c.01.1.1.18.22.17a5.97 5.97 0 0 0 2.93-1.24.19.19 0 0 0 .07-.14.2.2 0 0 0 -.05-.14l-.6-.67c-.47.39-1.05.75-1.63.93z" fill="#d8493b"/><path d="m4.63 6.34a.2.2 0 0 1 -.06-.27c.48-.7 1.12-1.3 1.86-1.72a.2.2 0 0 1 .26.08l2.54 4.8z" fill="#654a92"/><path d="m5.29 12.35a.2.2 0 0 1 -.28-.03 5.22 5.22 0 0 1 -.1-6.05.2.2 0 0 1 .28-.04l4.04 3z" fill="#6098ca"/><path d="m6.66 11.8a.2.2 0 0 1 -.28 0 3.84 3.84 0 0 1 -.95-2.04.2.2 0 0 1 .17-.21l3.63-.32z" fill="#654a92"/><circle cx="9" cy="9" fill="#fff" r="3"/><circle cx="9" cy="9" fill="#d8493b" r="2"/></svg>