<svg height="18" viewBox="0 0 18 18" width="18" xmlns="http://www.w3.org/2000/svg"><path d="m0 0h18v18h-18z" fill="#f0f3fa"/><path d="m5 14v-3.36c3.9 1.93 6.96 2.57 8 2.65v.71z" fill="#007d32"/><path d="m5 10.32v-1.76l1.46-.76a15.3 15.3 0 0 0 6.54 4.23v.88a26.08 26.08 0 0 1 -8-2.59z" fill="#7abb59"/><path d="m6.25 7.58-1.25.62v-1.82z" fill="#fcbd19"/><path d="m6.67 7.39-1.67-1.59v-1.8h8v1.35c-2.82.63-5.36 1.6-6.33 2.04z" fill="#243587"/><path d="m13 5.66a41.93 41.93 0 0 0 -6.1 2c1.77 2 4.81 3.52 6.1 4.04z" fill="#51c0dc"/></svg>