<svg height="18" viewBox="0 0 18 18" width="18" xmlns="http://www.w3.org/2000/svg" xmlns:xlink="http://www.w3.org/1999/xlink"><linearGradient id="a"><stop offset="0" stop-color="#0168a9"/><stop offset=".61" stop-color="#009ddf"/><stop offset="1" stop-color="#0168a9"/></linearGradient><linearGradient id="b" gradientUnits="userSpaceOnUse" x1="6.45" x2="13.21" xlink:href="#a" y1="10.24" y2="6.5"/><linearGradient id="c" gradientUnits="userSpaceOnUse" x1="11.55" x2="4.79" xlink:href="#a" y1="7.76" y2="11.5"/><path d="m0 0h18v18h-18z" fill="#f0f3fa"/><path d="m13.48 8.86c.36 0 .48-.3.5-.45-.14-.22-.57-.85-1.22-1.63a7.85 7.85 0 0 0 -2.24-1.7l-1.73.59c.86 0 1.55.7 2.26 1.36.72.68 1.97 1.83 2.43 1.83z" fill="#063479"/><path d="m6.64 7.46c-1.38 1.24-2.3 1.37-2.39 1.37-.2 0-.25-.33-.25-.49a4.93 4.93 0 0 1 5.21-4.34c3.99 0 4.77 3.84 4.78 4.05.03.49-.05.46-.07.59-.56-1.28-2.65-3.21-3.88-3.21s-2.02.78-3.4 2.03z" fill="url(#b)"/><path d="m4.52 9.14c-.36 0-.48.3-.5.45.14.22.57.85 1.22 1.63a7.85 7.85 0 0 0 2.24 1.7l1.73-.59c-.86 0-1.55-.7-2.26-1.36-.72-.68-1.97-1.83-2.43-1.83z" fill="#063479"/><path d="m11.36 10.54c1.38-1.25 2.3-1.37 2.39-1.37.2 0 .25.33.25.49a4.93 4.93 0 0 1 -5.21 4.34c-3.99 0-4.77-3.84-4.78-4.05-.03-.49.05-.46.07-.59.56 1.28 2.65 3.21 3.88 3.21s2.02-.78 3.4-2.03z" fill="url(#c)"/></svg>