<svg height="18" viewBox="0 0 18 18" width="18" xmlns="http://www.w3.org/2000/svg"><path d="m0 0h18v18h-18z" fill="#41352d"/><path d="m8.73 3h.6l.79.8-.53.53-.42-.43a.2.2 0 0 0 -.28 0l-1.59 1.59a.2.2 0 0 0 0 .28l1.6 1.59c.07.07.2.07.28 0l1.57-1.6a.2.2 0 0 0 0-.27l-.44-.45.52-.53.83.83v.57l-2.37 2.39h-.52l-2.42-2.44v-.46zm-2.76 3.35h-.6l-2.37 2.4v.46l2.41 2.44h.52l2.37-2.38v-.57zm-.44.9-1.57 1.59a.2.2 0 0 0 0 .28l1.57 1.59c.08.08.2.08.28 0l1.59-1.59a.2.2 0 0 0 0-.28l-1.6-1.59a.2.2 0 0 0 -.28 0zm3.2 2.46h.6l2.32 2.34v.57l-2.36 2.38h-.52l-2.42-2.43v-.47l2.38-2.4zm-1.43 2.48 1.6-1.59a.2.2 0 0 1 .28 0l1.57 1.6a.2.2 0 0 1 0 .27l-1.57 1.6a.2.2 0 0 1 -.28 0l-1.58-1.6a.2.2 0 0 1 0-.28zm4.77-5.84h.6l.8.8-.53.54-.43-.44a.2.2 0 0 0 -.28 0l-1.57 1.59a.2.2 0 0 0 0 .28l1.57 1.59c.08.08.2.08.28 0l1.57-1.59a.2.2 0 0 0 0-.28l-.43-.44.52-.53.82.83v.57l-2.36 2.38h-.52l-2.41-2.45v-.46l2.37-2.4z" fill="#fff" fill-rule="evenodd"/></svg>