<svg height="18" viewBox="0 0 18 18" width="18" xmlns="http://www.w3.org/2000/svg"><path d="m0 0h18v18h-18z" fill="#f0f3fa"/><path d="m4 5h.96l2.61 4.36c.2-.1.42-.17.64-.23l-.26-.42c-.18.07-.34.14-.46.21.09-.13.21-.26.36-.4l-2.12-3.52h.94l1.83 3.05c.16-.1.34-.18.53-.26l-1.7-2.79h.92l1.51 2.54c.86-.2 1.85-.15 2.77.43 2.43 1.5 1.31 3.27.45 3.97.22-.42.9-1.77-1.19-3.02a3.9 3.9 0 0 0 -1.79-.54v.67c.38.08.77.23 1.14.46 2.43 1.51 1.31 3.28.45 3.97.22-.42.9-1.76-1.18-3.01a3.78 3.78 0 0 0 -.65-.32l.24.41v.59c2.19 1.48 1.1 3.17.26 3.85.22-.4.88-1.72-1.07-2.95l.81 1.36v1.59l-2.08-3.47a4.8 4.8 0 0 0 -3.14.46 4.14 4.14 0 0 1 2.55-1.44l-.28-.46c-.4.1-.72.25-.95.38.16-.23.42-.48.75-.71zm4.27 5.51c.3.03.6.1.89.2l-.47-.78a4.58 4.58 0 0 0 -.77 0zm1.5-1.5a3.65 3.65 0 0 0 -.71-.01l-.31-.52a5 5 0 0 1 .64-.09l.38.63zm-.95-4.01h1.18v1.84z" fill="#717372" fill-rule="evenodd"/></svg>