<svg height="18" viewBox="0 0 18 18" width="18" xmlns="http://www.w3.org/2000/svg"><path d="m0 0h18v18h-18z" fill="#f0f3fa"/><path d="m16 6.93-.68-.93c-2.06.7-2.51 2.33-2.51 2.8s.23.7.68.7c.37 0 .61-.31.69-.47.18.19.53.24.68.24l.68-.7c-.07 0-.22-.05-.22-.24 0-.18.45-1 .68-1.4zm-1.82 1.57.68-1.25c-.23 0-.68.38-.91.85-.12.24-.08.32 0 .4zm-4.6.36c-.19.68-1.13 1-1.58 1.07-.07.07-.13.21.23.21s.74-.14.9-.21l.22.21c-.23.29-.85.86-1.57.86s-.9-.71-.9-1.07c-0-1.73 1.8-1.93 2.02-1.93s.9 0 .67.86zm-1.58.43c.15-.22.5-.6.67-.43.18.17-.37.35-.67.43zm4.8-1.58-.44-.71h-.45c-.76.24-2.28 1.04-2.28 2.37 0 .4.18 1.14.9.95l-.45 1.18 1.14-.24 1.6-3.55zm-1.13.47-.47 1.32c-.23 0-.45-.13-.45-.37 0-.38.6-.79.9-.95zm-6.19-1.58c-.55 0-1.39.25-1.85.5l-.85 1.9c.1 0 .16 0 .18.03.03.03.01.1-.03.27l-.93 2.22.93 1.48c2.95-.22 3.22-1.26 3.42-2l.06-.22c.19-.59-.23-1.07-.46-1.23.39-.17 1.16-.7 1.16-1.48 0-.99-.93-1.48-1.63-1.48zm-.93 2.7.47-.98c.15-.09.46-.15.46.24 0 .4-.3.66-.46.74zm-.92 2.22.46-.99c.15-.08.46-.14.46.25 0 .4-.3.66-.46.74z" fill="#0b562d" fill-rule="evenodd"/></svg>