<svg height="18" viewBox="0 0 18 18" width="18" xmlns="http://www.w3.org/2000/svg"><path d="m0 0h18v18h-18z" fill="#01349f"/><path d="m8.5 12h1.03c.46-.02.85-.06 1.14-.45.24-.31.24-.63.24-.77 0-.82-.6-1-.89-1.05-.21-.05-.84-.05-1.37-.05h-.65v2.04s.06.28.5.28zm-.5-4c.77 0 1.88.04 2.2-.11.18-.1.52-.34.52-.92 0-.55-.39-.79-.58-.84a4.8 4.8 0 0 0 -1.49-.13h-.65zm.32-4c.52 0 1.08-.02 1.6.03.37.05 1.45.12 2.24.97.38.43.58.94.58 1.54 0 .39-.08 1.28-.94 1.86-.2.14-.29.17-.48.24.33.14.53.29.65.39.4.26 1.03.89 1.03 2.07 0 .3-.05 1-.48 1.64-.94 1.36-2.62 1.26-3.03 1.26h-2.07c-1.37 0-1.42-1.43-1.42-1.43v-8.56h2.32z" fill="#fff"/></svg>