<svg height="18" viewBox="0 0 18 18" width="18" xmlns="http://www.w3.org/2000/svg"><path d="m0 0h18v18h-18z" fill="#f0f3fa"/><path d="m5.52 5.04a5.33 5.33 0 0 0 3.4 1.46c1.18 0 2.59-.58 3.59-1.48l.5-.51c-.42-.32-.93-.51-1.49-.51h-5.04c-.56 0-1.07.2-1.48.5zm6.96 7.96a5.88 5.88 0 0 0 -3.51-1.49c-1.11 0-2.41.58-3.48 1.51l-.5.5c.42.31.93.49 1.49.49h5.04c.55 0 1.06-.18 1.47-.5l-.51-.5zm-.98-4c0 .55.12 1.11.34 1.64-.3-.18-.6-.33-.9-.45-.11-.4-.17-.8-.17-1.19 0-.92.3-1.77.67-2.48-.83.4-1.72.6-2.53.6a5.69 5.69 0 0 1 -3.54-1.32l-.39-.31-.49-.5c-.31.42-.49.93-.49 1.49v5.04c0 .56.18 1.07.5 1.48l.5-.52c.95-1.1 1.5-2.4 1.5-3.48 0-.55-.13-1.11-.35-1.64.3.18.6.33.92.45.1.41.16.81.16 1.2 0 .9-.3 1.8-.65 2.48.8-.4 1.63-.61 2.39-.61 1.26 0 2.54.51 3.47 1.17l.19.15.39.31.49.5c.31-.42.49-.93.49-1.49v-5.04c0-.56-.18-1.07-.5-1.48l-.51.52a5.7 5.7 0 0 0 -1.49 3.48zm-3.53 1.03s.41-.48.41-1.03c0-.53-.41-1.03-.41-1.03s.48.41 1.03.41c.53 0 1.03-.41 1.03-.41s-.41.48-.41 1.03c0 .53.41 1.03.41 1.03s-.48-.41-1.03-.41a1.9 1.9 0 0 0 -1.03.41z" fill="#e9262b"/></svg>