<svg height="18" viewBox="0 0 18 18" width="18" xmlns="http://www.w3.org/2000/svg" xmlns:xlink="http://www.w3.org/1999/xlink"><linearGradient id="a" gradientUnits="userSpaceOnUse" x1="5" x2="13" y1="10.58" y2="10.74"><stop offset="0" stop-color="#014aa6"/><stop offset=".08" stop-color="#007bc7"/><stop offset=".18" stop-color="#009de4"/><stop offset=".82" stop-color="#009de4"/><stop offset="1" stop-color="#007bbe"/></linearGradient><linearGradient id="b" gradientUnits="userSpaceOnUse" x1="5" x2="13" y1="6.5" y2="6.5"><stop offset="0" stop-color="#69a1d5"/><stop offset=".32" stop-color="#25bbee"/><stop offset=".86" stop-color="#00a0e8"/><stop offset="1" stop-color="#0066b8"/></linearGradient><path d="m0 0h18v18h-18z" fill="#f0f3fa"/><path d="m5 6.16c0-.64.52-1.16 1.16-1.16h5.68c.64 0 1.16.52 1.16 1.16v5.68c0 .64-.52 1.16-1.16 1.16h-5.68c-.64 0-1.16-.52-1.16-1.16z" fill="url(#a)"/><path d="m5 7.9c.95.98 2.85 2.15 5.76 2.1.85-.01 1.6-.1 2.24-.25v-3.6c0-.62-.52-1.15-1.16-1.15h-5.68c-.64 0-1.16.52-1.16 1.16z" fill="url(#b)"/><path d="m8.04 6.24c-.09-.09-.03-.24.1-.24h1.86a.7.7 0 0 1 .5.22l1.46 1.54c.09.09.03.24-.1.24h-1.86a.7.7 0 0 1 -.5-.22zm-2 4c-.09-.09-.03-.24.1-.24h1.86a.7.7 0 0 1 .5.22l1.46 1.54c.09.09.03.24-.1.24h-1.86a.7.7 0 0 1 -.5-.22zm.22-2.73a.89.89 0 0 1 1.25-1.25l4.23 4.23a.89.89 0 0 1 -1.25 1.25z" fill="#fff"/></svg>