<svg height="18" viewBox="0 0 18 18" width="18" xmlns="http://www.w3.org/2000/svg"><path d="m0 0h18v18h-18z" fill="#f0f3fa"/><path d="m11.12 6h-3.32v.29c.08.13.24.57.24 1.2 0 1.92-1.37 3.66-2.05 4.29v.22h3.2c.9 0 1.92-1.12 1.92-1.79s-.45-.98-.88-1.22c.6-.06 1.76-.48 1.76-1.65 0-.93-.59-1.28-.88-1.34zm-.68.27c-.46 0-.93 1.64-1.1 2.46h.37c.38 0 .96-1.5.96-1.89 0-.4-.06-.57-.23-.57zm-1.18 2.73c.23.05.4.22.4.92 0 .87-.4 1.8-.68 1.8-.16 0-.31-.08-.31-.53 0-.44.24-2.26.59-2.19z" fill="#e5000b" fill-rule="evenodd"/><path d="m6.92 6.3.08-.3h-2.44l-.03.13a6.03 6.03 0 0 1 -1.48 5.67l-.05.2h2.44l.1-.42a6.04 6.04 0 0 1 1.38-5.27zm8 0 .08-.3h-2.44l-.03.13a6.03 6.03 0 0 1 -1.48 5.67l-.05.2h2.44l.1-.42a6.04 6.04 0 0 1 1.38-5.27z" fill="#1d208a"/></svg>