<svg height="18" viewBox="0 0 18 18" width="18" xmlns="http://www.w3.org/2000/svg" xmlns:xlink="http://www.w3.org/1999/xlink"><linearGradient id="a" gradientUnits="userSpaceOnUse" x1="3" x2="13.03" y1="6.6" y2="11.92"><stop offset=".16" stop-color="#45bdeb"/><stop offset=".47" stop-color="#165baa"/><stop offset="1" stop-color="#033a95"/></linearGradient><path d="m0 0h18v18h-18z" fill="#f0f3fa"/><path d="m14.03 5.15a.22.22 0 0 1 .2-.15h.7c.05 0 .09.06.06.12l-.15.37a.22.22 0 0 1 -.2.15h-.7c-.05 0-.08-.06-.06-.12zm-1.47.49a.23.23 0 0 0 -.2.1l-.22.4c-.03.07.02.14.1.14h.98c.09 0 .17-.04.2-.1l.22-.4c.04-.07-.02-.14-.1-.14zm-4.56 6.65c-.2.43-.58.65-.74.71h3.13c.58-.02.84-.42.99-.68l2.15-4.32h-.8c-.26 0-.39.2-.42.27l-.34.73h-1.24l.46-1h.86c.31 0 .45-.05.53-.18l.08-.18.09-.19c.11-.25 0-.3-.07-.28h-1.1l.4-.89h-.5a.58.58 0 0 0 -.55.34zm-3.6-4.29h-1.4c.08.12.76 2.82 1.1 4.15.07.3.24.33.3.33.86 0 1.4-1.21 1.4-1.7a39 39 0 0 0 -.54-2.04c-.19-.62-.65-.74-.85-.74zm2.92 0h-1.52c.09.09.6 2.26.84 3.3.05.22.1.38.11.47.1.43.3.47.38.44.4-.14.99-1.38 1.23-1.98.1-.22.05-.54 0-.67l-.32-1a.75.75 0 0 0 -.72-.56zm-2.26 5c.22-.12.71-.52.97-1.11 0 .3.14.95.6 1.11zm8.24-6.4a.22.22 0 0 0 -.2.12l-.2.38c-.03.06.02.14.1.14h.82c.1 0 .17-.05.2-.12l.2-.38c.03-.07-.02-.14-.1-.14z" fill="url(#a)"/></svg>