<svg height="18" viewBox="0 0 18 18" width="18" xmlns="http://www.w3.org/2000/svg"><path d="m0 0h18v18h-18z" fill="#f0f3fa"/><path d="m3.46 7.9c-.61.6-.61 1.6 0 2.2l4.43 4.44c.61.61 1.6.61 2.22 0l4.43-4.43c.4-.4.54-.95.42-1.46h-10.18a4.24 4.24 0 0 1 8.32-.7h1.49a1.47 1.47 0 0 0 -.05-.06l-4.43-4.43a1.56 1.56 0 0 0 -2.22 0l-4.43 4.43zm5.54 5.33a4.24 4.24 0 0 0 4.1-3.18h-8.2a4.24 4.24 0 0 0 4.1 3.19z" fill="#147fbc" fill-rule="evenodd"/><path d="m7.24 8.3h-1.42l1.06-2.48h1.42l.7 1.42.7-1.42h1.42l1.06 2.47h-1.41l-.36-1.4-.7 1.4h-1.42l-.7-1.4-.35 1.4z" fill="#147fbc"/><path d="m6.22 10.76c.03.03.07.05.12.06.11 0 .13.06.06.14-.25.29-.27.62-.06.98.04.06.1.1.17.11l.77.12c.05.01.1 0 .15-.01a.25.25 0 0 0 .11-.09c.2-.27.29-.6.26-.98l.01-.07a.16.16 0 0 1 .05-.06.17.17 0 0 1 .15-.04c.18.04.37.04.56-.02.04 0 .07-.03.07-.06v-.06a.16.16 0 0 0 -.13-.07.4.4 0 0 1 -.15-.05.25.25 0 0 1 -.11-.1c-.09-.16-.22-.2-.4-.09a.31.31 0 0 0 -.13.14c-.04.06-.09.08-.15.07-.43-.09-.86-.1-1.3-.05-.1 0-.12.05-.05.13zm1.03.94c.04 0 .06-.01.06-.05l.05-.75c0-.08-.04-.12-.13-.1l-.16.01c-.1.02-.12.07-.05.14.17.19.22.43.15.72l.01.02z" fill="#0776b9" fill-rule="evenodd"/><path d="m10.07 10.99c-.15 0-.28.03-.41-.04a.25.25 0 0 1 -.14-.24c0-.09.04-.12.14-.1.2.07.34.19.41.38zm-.1.31-.17-.07c-.04-.02-.09 0-.1.04l-.31.6c-.02.04 0 .08.04.1l.17.06c.04.02.09 0 .1-.03l.32-.61c.01-.04 0-.08-.05-.1zm.69-.8c-.11.21-.3.38-.59.49 0 .15.07.22.2.23.38 0 .76 0 1.14-.03.03 0 .04 0 .05.03v.05l-.01.01-1.06.05c-.15 0-.22.07-.22.2v.47c0 .14.08.19.24.15.34-.08.64-.07.91.03a.2.2 0 0 0 .16-.02.16.16 0 0 0 .05-.05.13.13 0 0 0 .03-.06l.05-.7c0-.01 0-.03.02-.04a.11.11 0 0 1 .05-.04c.15-.05.18-.14.1-.25a.71.71 0 0 0 -.42-.27h-.08a.12.12 0 0 0 -.06.05.42.42 0 0 1 -.37.17c-.13 0-.14-.04-.05-.1l.22-.17c.06-.04.08-.1.04-.17-.03-.06-.11-.1-.24-.1-.08-.01-.13.01-.16.07zm.46 1.27c-.01.08-.14.12-.27.1s-.22-.1-.2-.19c.02-.08.14-.12.27-.1s.22.1.2.19z" fill="#0776b9"/><path d="m4.77 9h8.47v.71h-8.47z" fill="#d9d9d9"/></svg>