<svg height="18" viewBox="0 0 18 18" width="18" xmlns="http://www.w3.org/2000/svg"><path d="m0 0h18v18h-18z" fill="#f0f3fa"/><path d="m5.39 4-1.39 9h2.01c.28-.86 1.07-.99 1.44-1h2.82c1.09 0 1.59.63 1.7 1h2.03l-1.41-9h-1.44c-.1.81-.8.99-1.14 1h-1.97c-.93 0-1.17-.65-1.18-1h-1.46z" fill="#004098"/><path d="m10.08 6h-3.58v.67h2.45c.31 0 .84 0 .84.2 0 .46-.84.6-1.56.76-.72.17-1.53.7-1.56 1.6-.01.7.61 1.47.92 1.77h5.16v-.31c-2.38-.78-4.08-1.62-4.05-2.2.02-.46.83-.69 1.24-.75.4-.06.97-.3.93-.92a.84.84 0 0 0 -.8-.82z" fill="#fff000"/></svg>