<svg height="18" viewBox="0 0 18 18" width="18" xmlns="http://www.w3.org/2000/svg"><path d="m0 0h18v18h-18z" fill="#eb0928"/><path d="m10.82 6h-5.42c-.02 0-.03-.02-.03-.04s0-.03.02-.05c.31-.28.61-.6.9-.87a.14.14 0 0 1 .11-.04h5.71c.29 0 .47.12.55.36.04.11.03.23-.03.34a.9.9 0 0 1 -.2.23l-6.57 6.07h6.32l-2.48-2.31v-.01l.73-.68.02-.01h.02c1.09 1.02 2.23 2.08 3.4 3.2.04.02.07.07.09.12a.5.5 0 0 1 -.48.69h-8.94c-.22 0-.41-.1-.5-.3a.46.46 0 0 1 .13-.55c2.23-2.06 4.45-4.06 6.65-6.15z" fill="#fff"/></svg>