<svg height="18" viewBox="0 0 18 18" width="18" xmlns="http://www.w3.org/2000/svg"><path d="m0 0h18v18h-18z" fill="#f0f3fa"/><path d="m11.59 4.01c-1.5.13-3.1 3.49-3.73 5.15 2.18 4 2.87 4.8 3.73 4.83 3.15.16 2.58-3.27 1.14-4.83 2.58-2.18.72-5.3-1.14-5.15z" fill="#b1b4b2"/><path d="m5 4h3.72l-3.72 5.16 3.87 4.84h-3.87z" fill="#547959"/><g fill-opacity=".6"><path d="m10.16 4.01c-1.5.13-3.1 3.49-3.73 5.15 2.18 4 2.87 4.8 3.73 4.83 3.15.16 2.58-3.27 1.14-4.83 2.58-2.18.72-5.3-1.14-5.15z" fill="#738a76"/><path d="m8.72 4c-1.49.14-3.1 3.5-3.72 5.16 2.18 4 2.87 4.8 3.72 4.84 3.15.16 2.58-3.28 1.15-4.84 2.58-2.18.72-5.3-1.15-5.14z" fill="#547959"/></g></svg>