<svg height="18" viewBox="0 0 18 18" width="18" xmlns="http://www.w3.org/2000/svg"><path d="m0 0h18v18h-18z" fill="#f0f3fa"/><path d="m4.96 4a.95.95 0 0 0 -.96.95v8.1c0 .53.43.95.96.95h8.08c.53 0 .96-.42.96-.95v-8.1a.95.95 0 0 0 -.96-.95zm6.04 4.37c.72-1.07.93-2.01-.2-2.96-.93-.81-3.8-.17-3.8 1.09v2.78c0 2.85 0 3.51.28 3.66.09.05.21.05.38.05h.34v-5.87c0-.9.85-1.2 1.53-1.12.66.07.99.52.97 1-.01.35-.23.72-.5 1l-.35.38.43.26c.62.37.93 1.04.92 1.73 0 .86-1.14 1.34-1.97 1.48-.3.05-.56.12-.56.15 0 .37.77 1.06 1.14.97 1.17-.27 2.39-1.26 2.39-2.6 0-.91-.34-1.28-.82-1.8l-.17-.2z" fill="#e71a1e" fill-rule="evenodd"/></svg>