<svg height="18" viewBox="0 0 18 18" width="18" xmlns="http://www.w3.org/2000/svg" xmlns:xlink="http://www.w3.org/1999/xlink"><linearGradient id="a" gradientUnits="userSpaceOnUse" x1="13.97" x2="3.35" y1="6.14" y2="12.11"><stop offset="0" stop-color="#898989"/><stop offset=".34" stop-color="#d8d8d9"/><stop offset=".69" stop-color="#868686"/><stop offset="1" stop-color="#d9d9da"/></linearGradient><linearGradient id="b"><stop offset="0" stop-color="#b20009"/><stop offset=".48" stop-color="#e50020"/><stop offset="1" stop-color="#bc000c"/></linearGradient><linearGradient id="c" gradientUnits="userSpaceOnUse" x1="9.03" x2="11.08" xlink:href="#b" y1="9.54" y2="12.51"/><linearGradient id="d" gradientUnits="userSpaceOnUse" x1="8.03" x2="10.08" xlink:href="#b" y1="5.54" y2="8.51"/><linearGradient id="e" gradientUnits="userSpaceOnUse" x1="7.5" x2="7.5" y1="9.72" y2="13"><stop offset=".58" stop-color="#e40112"/><stop offset="1" stop-color="#bb0007"/></linearGradient><linearGradient id="f" gradientUnits="userSpaceOnUse" x1="7.5" x2="7.5" y1="7" y2="13"><stop offset=".39" stop-color="#e60012"/><stop offset="1" stop-color="#e20111"/></linearGradient><path d="m0 0h18v18h-18z" fill="#f0f3fa"/><path d="m9.82 11.08c3.28-1.2 5.57-3.1 5.12-4.24-.45-1.15-3.47-1.11-6.76.08-3.28 1.2-5.57 3.1-5.12 4.24.45 1.15 3.47 1.11 6.76-.08zm-.1-.23c2.77-1 4.66-2.53 4.68-3.56 0-.1-.01-.2-.05-.28-.2-.5-.83-.72-1.9-.71-1.13.01-2.62.28-4.18.85-2.77 1-4.67 2.54-4.67 3.58 0 .9 1.3.98 1.95.97 1.13-.01 2.62-.28 4.18-.85z" fill="url(#a)" fill-rule="evenodd"/><path d="m9.96 9-1.96.75c.23-.05.74-.15.96-.15.72 0 1.56.4 1.56 1.23 0 .94-1.17 1.84-1.76 2.17l1.96-.6c.43-.28 1.28-1.03 1.28-1.78 0-1.2-1.36-1.58-2.04-1.62z" fill="url(#c)"/><path d="m8.87 5.03-1.87 1.15c.15-.04.49-.3 1.21-.3 1 0 1.54.81 1.54 1.62 0 .65-.27 1.27-.4 1.5l1.36-.77c.1-.2.29-.77.29-1.45 0-1.68-1.42-1.88-2.13-1.75z" fill="url(#d)"/><path d="m8 10.64v1.85l-1 .51v-2.36z" fill="url(#e)"/><path d="m7 7.5 1-.5v4.09l-1 .5v-4.07z" fill="url(#f)"/></svg>