<!-- by TradingView --><svg width="18" height="18" viewBox="0 0 18 18" xmlns="http://www.w3.org/2000/svg"><path fill="#F0F3FA" d="M0 0h18v18H0z"/><path fill-rule="evenodd" d="M9.82 11.08c3.28-1.2 5.57-3.1 5.12-4.24-.45-1.15-3.47-1.11-6.76.08-3.28 1.2-5.57 3.1-5.12 4.24.45 1.15 3.47 1.11 6.76-.08Zm-.1-.23c2.77-1 4.66-2.53 4.68-3.56 0-.1-.01-.2-.05-.28-.2-.5-.83-.72-1.9-.71-1.13.01-2.62.28-4.18.85-2.77 1-4.67 2.54-4.67 3.58 0 .9 1.3.98 1.95.97 1.13-.01 2.62-.28 4.18-.85Z" fill="url(#an0qv1eqf)"/><path d="M9.96 9 8 9.75c.23-.05.74-.15.96-.15.72 0 1.56.4 1.56 1.23 0 .94-1.17 1.84-1.76 2.17l1.96-.6c.43-.28 1.28-1.03 1.28-1.78 0-1.2-1.36-1.58-2.04-1.62Z" fill="url(#bn0qv1eqf)"/><path d="M8.87 5.03 7 6.18c.15-.04.49-.3 1.21-.3 1 0 1.54.81 1.54 1.62 0 .65-.27 1.27-.4 1.5l1.36-.77c.1-.2.29-.77.29-1.45C11 5.1 9.58 4.9 8.87 5.03Z" fill="url(#cn0qv1eqf)"/><path d="M8 10.64v1.85L7 13v-2.36h1Z" fill="url(#dn0qv1eqf)"/><path d="M7 7.5 8 7v4.09l-1 .5V7.52Z" fill="url(#en0qv1eqf)"/><defs><linearGradient id="an0qv1eqf" x1="13.97" y1="6.14" x2="3.35" y2="12.11" gradientUnits="userSpaceOnUse"><stop stop-color="#898989"/><stop offset=".34" stop-color="#D8D8D9"/><stop offset=".69" stop-color="#868686"/><stop offset="1" stop-color="#D9D9DA"/></linearGradient><linearGradient id="bn0qv1eqf" x1="9.03" y1="9.54" x2="11.08" y2="12.51" gradientUnits="userSpaceOnUse"><stop stop-color="#B20009"/><stop offset=".48" stop-color="#E50020"/><stop offset="1" stop-color="#BC000C"/></linearGradient><linearGradient id="cn0qv1eqf" x1="8.03" y1="5.54" x2="10.08" y2="8.51" gradientUnits="userSpaceOnUse"><stop stop-color="#B20009"/><stop offset=".48" stop-color="#E50020"/><stop offset="1" stop-color="#BC000C"/></linearGradient><linearGradient id="dn0qv1eqf" x1="7.5" y1="9.72" x2="7.5" y2="13" gradientUnits="userSpaceOnUse"><stop offset=".58" stop-color="#E40112"/><stop offset="1" stop-color="#BB0007"/></linearGradient><linearGradient id="en0qv1eqf" x1="7.5" y1="7" x2="7.5" y2="13" gradientUnits="userSpaceOnUse"><stop offset=".39" stop-color="#E60012"/><stop offset="1" stop-color="#E20111"/></linearGradient></defs></svg>