<svg height="18" viewBox="0 0 18 18" width="18" xmlns="http://www.w3.org/2000/svg"><path d="m0 0h18v18h-18z" fill="#0d1e72"/><path d="m9 4a5.03 5.03 0 0 0 -5 4.69h1.25a3.73 3.73 0 0 1 3.75-3.43 3.77 3.77 0 0 1 3.74 3.43h1.26a4.98 4.98 0 0 0 -5-4.69z" fill="#0171bb"/><path d="m12.74 9.31c-.08.97-.5 1.87-1.2 2.53a3.7 3.7 0 0 1 -5.09 0 3.92 3.92 0 0 1 -1.2-2.53h-1.25c.12 1.28.7 2.48 1.61 3.34a4.93 4.93 0 0 0 6.75 0 5.23 5.23 0 0 0 1.62-3.34z" fill="#57ac32"/><path d="m11.97 8.67a2.92 2.92 0 0 0 -.96-1.9 3.02 3.02 0 0 0 -4.03 0 2.92 2.92 0 0 0 -.96 2.5 2.9 2.9 0 0 0 1.05 2.04c.31.25.67.44 1.05.56s.79.15 1.19.12a3.03 3.03 0 0 0 2.04-1.1 2.92 2.92 0 0 0 .62-2.22z" fill="#f3b800"/></svg>