<svg height="18" width="18" xmlns="http://www.w3.org/2000/svg"><path d="m0 0h18v18h-18z" fill="#f0f3fa"/><path d="m8 8v-5.072c-.203.609-.94 2.007-1.924 3.043-.896.943-2.637 2.029-2.637 2.029z" fill="#c8da30"/><path d="m8 10v5.05c-.203-.608-.941-2.01-1.924-3.046-.896-.942-2.638-2.004-2.638-2.004z" fill="#5aa2d0"/><path d="m10 8v-5.072c.203.609.94 2.007 1.924 3.043.894.943 2.636 2.029 2.636 2.029z" fill="#a2a5a7"/><path d="m10 10v5.05c.203-.608.941-2.01 1.924-3.046.895-.942 2.638-2.004 2.638-2.004z" fill="#ef6b52"/></svg>