<svg height="18" viewBox="0 0 18 18" width="18" xmlns="http://www.w3.org/2000/svg"><path d="m0 0h18v18h-18z" fill="#f0f3fa"/><path d="m5.69 6.16-2.49 2.46c-.29.28-.28.7.02.98l2.46 2.25c.1.1.25.15.4.15h5.82c.15 0 .3-.05.4-.15l2.46-2.25c.3-.27.3-.7.02-.98l-2.48-2.46a.58.58 0 0 0 -.4-.16h-5.8c-.16 0-.3.06-.41.16z" fill="#003a8f"/><path d="m7 7h2c1 0 2 0 2 1 0 .5-.2.75-.5 1 .25.22.5.5.5 1 0 1-1 1-2 1h-2zm1 3.33h.95c.18 0 1.05-.07 1.05-.48s-.57-.52-.97-.52h-1.03zm0-1.66h1.03c.46 0 .97-.04.97-.52 0-.29-.5-.48-1-.48h-1z" fill="#fff"/></svg>