<svg height="18" viewBox="0 0 18 18" width="18" xmlns="http://www.w3.org/2000/svg"><path d="m0 0h18v18h-18z" fill="#f0f3fa"/><path d="m14.37 11.12c-.13.22-.34.42-.61.6-.28.19-.6.28-.98.28-.47 0-.83-.19-1.08-.56-.26-.38-.32-.91-.2-1.6l.31-1.73c.13-.73.36-1.26.7-1.6a1.7 1.7 0 0 1 1.27-.51c.44 0 .77.15.99.44.22.3.29.69.2 1.2v.01h-.4c.06-.39.02-.69-.13-.9-.14-.22-.38-.33-.74-.33-.33 0-.64.15-.9.44-.28.3-.46.7-.56 1.24l-.3 1.75c-.12.6-.09 1.04.08 1.32.17.27.45.41.84.41a1.3 1.3 0 0 0 1.12-.6l.22-1.24h-1.02l.08-.4h1.44l-.32 1.78zm-4.33-.7h-1.8l-.71 1.58h-.43l2.6-6h.39l.5 6h-.42zm-1.6-.42h1.56l-.23-3.17h-.03zm-2.92 1.08c-.15.06-.3.09-.47.08h-.95l.2-1.8h.95c.3 0 .5.06.64.2.06.06.11.14.15.23.03.09.04.19.04.28 0 .15-.02.3-.06.45a.82.82 0 0 1 -.5.57zm-1.13-2.47.2-1.78h.8c.29 0 .5.06.63.17.13.12.2.3.2.55 0 .36-.1.63-.28.8-.2.18-.46.26-.8.26zm1.91-2.51c-.27-.07-.53-.1-.8-.1h-1.8l-.7 6h1.97c.3 0 .6-.05.88-.15a1.74 1.74 0 0 0 1.08-1.02c.1-.24.15-.5.14-.77 0-.3-.07-.54-.23-.73-.15-.2-.4-.33-.7-.42.17-.06.34-.15.5-.26a1.51 1.51 0 0 0 .54-.79c.04-.16.06-.32.06-.49 0-.2-.03-.39-.1-.56a1.08 1.08 0 0 0 -.31-.44 1.47 1.47 0 0 0 -.55-.27z"/></svg>