<svg height="18" viewBox="0 0 18 18" width="18" xmlns="http://www.w3.org/2000/svg" xmlns:xlink="http://www.w3.org/1999/xlink"><linearGradient id="a" gradientUnits="userSpaceOnUse" x1="9" x2="8.85" y1="11" y2="11.94"><stop offset="0" stop-color="#f39f81"/><stop offset="1" stop-color="#910b0a"/></linearGradient><linearGradient id="b" gradientUnits="userSpaceOnUse" x1="6.59" x2="7.65" y1="7.95" y2="8.63"><stop offset="0" stop-color="#f55c46"/><stop offset="1" stop-color="#900a07"/></linearGradient><linearGradient id="c" gradientUnits="userSpaceOnUse" x1="10.89" x2="11.44" y1="8.52" y2="9.48"><stop offset="0" stop-color="#ba171a"/><stop offset="1" stop-color="#ec7152"/></linearGradient><linearGradient id="d" gradientUnits="userSpaceOnUse" x1="7.76" x2="10.15" y1="3.32" y2="7.47"><stop offset="0" stop-color="#ed6c4d"/><stop offset=".48" stop-color="#e52123"/><stop offset="1" stop-color="#bc171b"/></linearGradient><linearGradient id="e" gradientUnits="userSpaceOnUse" x1="9.61" x2="11.49" y1="4.88" y2="7.03"><stop offset="0" stop-color="#e52726"/><stop offset=".79" stop-color="#910c0d"/></linearGradient><linearGradient id="f" gradientUnits="userSpaceOnUse" x1="7.84" x2="8.82" y1="3.49" y2="5.17"><stop offset="0" stop-color="#f8b39d"/><stop offset=".31" stop-color="#f0886b"/><stop offset="1" stop-color="#e52827"/></linearGradient><linearGradient id="g" gradientUnits="userSpaceOnUse" x1="4.32" x2="7" y1="9.72" y2="13.68"><stop offset="0" stop-color="#ef683d"/><stop offset=".42" stop-color="#e52123"/><stop offset=".68" stop-color="#e52123"/><stop offset="1" stop-color="#8f0b09"/></linearGradient><linearGradient id="h" gradientUnits="userSpaceOnUse" x1="4.68" x2="5.54" y1="9.85" y2="11.23"><stop offset="0" stop-color="#f8b39d"/><stop offset=".23" stop-color="#f0886b" stop-opacity=".77"/><stop offset="1" stop-color="#e52123"/></linearGradient><linearGradient id="i" gradientUnits="userSpaceOnUse" x1="11.19" x2="12.94" y1="9.53" y2="13.76"><stop offset="0" stop-color="#ed5f46"/><stop offset=".38" stop-color="#e52123"/><stop offset=".64" stop-color="#e52123"/><stop offset="1" stop-color="#910b0a"/></linearGradient><path d="m0 0h18v18h-18z" fill="#f0f3fa"/><path d="m9.88 12h-1.76v-1h1.76z" fill="url(#a)"/><path d="m5.89 9.22 1.4-2.17.9.52-1.23 1.93-1.06-.28z" fill="url(#b)"/><path d="m11 9.61-1.3-2.07.85-.67 1.53 2.46-1.09.28z" fill="url(#c)"/><circle cx="9" cy="5.41" fill="url(#d)" r="2.41"/><path d="m11.4 5.4c0 .63-.23 1.2-.63 1.63-.32-.09-.44-.43-.09-1.36.28-1.1.17-1.43.17-1.8.35.42.56.95.56 1.54z" fill="url(#e)"/><path d="m7.37 6.4a1.94 1.94 0 0 1 1.79-2.71c.62 0 1.17.29 1.52.73a1.95 1.95 0 1 0 -3.31 1.98z" fill="url(#f)"/><circle cx="5.91" cy="11.59" fill="url(#g)" r="2.41"/><path d="m7.6 10.65a1.94 1.94 0 0 0 -3.33 1.96 1.95 1.95 0 1 1 3.32-1.97z" fill="url(#h)"/><circle cx="12.09" cy="11.59" fill="url(#i)" r="2.41"/></svg>