<svg height="18" viewBox="0 0 18 18" width="18" xmlns="http://www.w3.org/2000/svg"><path d="m0 0h18v18h-18z" fill="#21456b"/><path d="m15 9a6 6 0 1 1 -12 0 6 6 0 0 1 12 0z" fill="#0d1d41"/><path d="m9 14a5 5 0 1 0 0-10 5 5 0 0 0 0 10zm0 1a6 6 0 1 0 0-12 6 6 0 0 0 0 12z" fill="#e4b752" fill-rule="evenodd"/><path d="m9 4.76-3.53 4.19.77-.3c.39-.13 1.27-.31 1.75 0 .48.32.87.36 1.01.35z" fill="#e0b859"/><path d="m9 4.76 3.53 4.19-.77-.3c-.39-.13-1.27-.31-1.75 0-.48.32-.87.36-1.01.35z" fill="#c89b40"/><path d="m6.03 9.5c-.26.1-.81.26-1.03.33v.63c.46.03.86-.1.98-.17.65-.43 1.4-.36 1.72-.17.9.52 2 .34 2.63 0 .62-.35 1.28.02 1.7.17.35.12.8.16.97.17v-.63c-.22-.07-.72-.23-.96-.34a3 3 0 0 0 -2 0c-.74.32-1.35.34-2.04 0-.69-.33-1.63-.13-1.97 0zm0 1.43c-.26.1-.81.26-1.03.33v.63c.46.04.86-.1.98-.17.65-.43 1.4-.35 1.72-.17.9.53 2 .34 2.63 0 .62-.34 1.28.02 1.7.17.35.13.8.17.97.17v-.63c-.22-.07-.72-.23-.96-.33a3 3 0 0 0 -2 0c-.74.32-1.35.33-2.04 0-.69-.34-1.63-.13-1.97 0z" fill="#04a5e0"/></svg>