<svg height="18" viewBox="0 0 18 18" width="18" xmlns="http://www.w3.org/2000/svg" xmlns:xlink="http://www.w3.org/1999/xlink"><linearGradient id="a" gradientUnits="userSpaceOnUse" x1="16.23" x2="2.73" y1="2.25" y2="15.59"><stop offset="0" stop-color="#636267"/><stop offset=".95" stop-color="#0c0111"/></linearGradient><linearGradient id="b" gradientUnits="userSpaceOnUse" x1="5.19" x2="12.81" y1="6.41" y2="6.41"><stop offset=".14" stop-color="#2c5f22"/><stop offset=".33" stop-color="#589337"/><stop offset=".49" stop-color="#6db235"/><stop offset=".68" stop-color="#508c34"/><stop offset=".88" stop-color="#2d5f23"/></linearGradient><linearGradient id="c" gradientUnits="userSpaceOnUse" x1="12.54" x2="9.01" y1="7.12" y2="13.84"><stop offset="0" stop-color="#2e6024"/><stop offset=".29" stop-color="#5f9b3b"/><stop offset=".48" stop-color="#679741"/><stop offset=".7" stop-color="#558c38"/><stop offset="1" stop-color="#296221"/></linearGradient><linearGradient id="d" gradientUnits="userSpaceOnUse" x1="5.46" x2="9.28" y1="6.69" y2="13.97"><stop offset="0" stop-color="#2d6023"/><stop offset=".31" stop-color="#538d35"/><stop offset=".51" stop-color="#65a23b"/><stop offset=".71" stop-color="#558b37"/><stop offset="1" stop-color="#2a6322"/></linearGradient><linearGradient id="e" gradientUnits="userSpaceOnUse" x1="12" x2="9" y1="9.58" y2="9.58"><stop offset="0" stop-color="#5e5e5c"/><stop offset=".5" stop-color="#160d0e"/><stop offset="1" stop-color="#000600"/></linearGradient><linearGradient id="f" gradientUnits="userSpaceOnUse" x1="12" x2="6" y1="7.18" y2="7.18"><stop offset=".16" stop-color="#030104"/><stop offset=".29" stop-color="#242324"/><stop offset=".49" stop-color="#545454"/><stop offset=".67" stop-color="#1e1916"/><stop offset=".85" stop-color="#070c0b"/></linearGradient><linearGradient id="g" gradientUnits="userSpaceOnUse" x1="9" x2="6" y1="10.38" y2="10.38"><stop offset=".13" stop-color="#5d5d5e"/><stop offset=".43" stop-color="#1c1714"/><stop offset="1" stop-color="#040108"/></linearGradient><path d="m0 0h18v18h-18z" fill="url(#a)"/><path d="m9 3.55-3.81 2.71 3.81 2.72 3.81-2.72z" fill="url(#b)"/><path d="m12.8 6.26-3.8 2.72v5.43l3.81-2.72v-5.43z" fill="url(#c)"/><path d="m9 8.98-3.81-2.72v5.43l3.81 2.72z" fill="url(#d)"/><path d="m9 13.05v-4l3-2v4z" fill="url(#e)"/><path d="m9 5.05-3 2 3 2 3-2z" fill="url(#f)"/><path d="m9 9.05-3-2v4l3 2z" fill="url(#g)"/><path d="m9 3.3 4 2.86v5.64l-4 2.85-4-2.85v-5.64zm-3.62 3.35 3.43 2.44v4.95l-3.43-2.44v-4.96zm3.81 7.39 3.43-2.44v-4.96l-3.43 2.44v4.95zm-.19-5.31 3.47-2.47-3.47-2.46-3.47 2.46 3.47 2.48z" fill="#8fa888" fill-rule="evenodd"/></svg>