<svg height="18" viewBox="0 0 18 18" width="18" xmlns="http://www.w3.org/2000/svg" xmlns:xlink="http://www.w3.org/1999/xlink"><linearGradient id="a" gradientUnits="userSpaceOnUse" x1="3.35" x2="21.9" y1="3.12" y2="24.43"><stop offset="0" stop-color="#1a1e21"/><stop offset="1" stop-color="#06060a"/></linearGradient><path d="m0 0h18v18h-18z" fill="url(#a)"/><path d="m3.16 5.35 7.7 2.02v.01l1.12 2.1 1.04-.1 1.23.66a.2.2 0 0 0 -.02.07l1.77.53-1.9.26.01-.06-.02.07-.02.14v.04l-.01.04-1.88.35-1.46.52-2.05-.35 2.25-1.05h.01l1.24-.59.52.24 1.18-.16h-1.13l-.57-.27-.01-.02.01.03-1.17.53-.18.08-2.48 1.14-1.54-.28-1.45-.28-1.64.73-1.3-.64-.41-.3.34-.2.72-.4 2.23.4 1.45-.76 1.25-.37-1.66-.57-1.52-1.22.53.04-1.43-1.28.32.03-1.82-1.48zm9.42 5.16h.02z" fill="#fff"/></svg>