<svg height="18" width="18" xmlns="http://www.w3.org/2000/svg"><path d="m0 0h18v18h-18z" fill="#7cc242"/><path d="m2 7.002h1v1.998h2.003v-2h.993v4.996l-.993.004v-2.003h-2.003v2.003h-1zm5.93 3.532c0-.346.163-.52.428-.665.36.34.714.686 1.055 1.066-.238.18-.435.263-.721.263-.383 0-.763-.248-.763-.664zm2.49-1.313c-.012.312-.047.745-.265.988-.265-.264-.538-.52-.817-.77.504-.298 1.061-.58 1.061-1.19 0-.9-.85-1.249-1.68-1.249-.749 0-1.719.339-1.719 1.19 0 .421.323.75.706 1.056-.586.277-.934.644-.934 1.315 0 .997.892 1.437 1.798 1.437.518 0 1.068-.06 1.477-.42.102.112.19.288.284.42h1.188l-.675-1.008c.443-.443.653-1.153.68-1.769h-1.103zm-2.261-.971c0-.243.275-.43.569-.43.293 0 .552.146.552.43 0 .319-.32.613-.552.751-.191-.153-.569-.474-.569-.751zm4.841-.25h.863c.47 0 .653.222.653.505s-.153.495-.653.495h-.863zm-1 3.996h1v-2h1c.068-.002.54.322.775 1.062l.227.938.998.002s-.203-1.047-.338-1.38c-.134-.332-.253-.724-.662-.835.612-.145.662-.664.662-1.347s-.496-1.436-1.146-1.436h-2.516z" fill="#fff"/></svg>