<svg height="18" viewBox="0 0 18 18" width="18" xmlns="http://www.w3.org/2000/svg"><path d="m0 0h18v18h-18z" fill="#f0f3fa"/><path d="m2 7v4h1.39c.28 0 .51-.05.7-.14.17-.1.3-.22.4-.39.08-.16.12-.34.12-.55 0-.2-.03-.38-.1-.52a.89.89 0 0 0 -.3-.34.68.68 0 0 0 -.35-.13v-.03a.94.94 0 0 0 .3-.14c.1-.07.17-.16.23-.28a.96.96 0 0 0 .08-.42c0-.2-.04-.37-.12-.53a.9.9 0 0 0 -.38-.38 1.3 1.3 0 0 0 -.64-.15zm1.34 3.48h-.74v-1.33h.76a.73.73 0 0 1 .38.14.71.71 0 0 1 .33.6c0 .17-.06.31-.17.42-.11.12-.3.17-.56.17zm-.06-1.75h-.68v-1.22h.7c.21 0 .37.06.48.17.1.11.16.25.16.42 0 .13-.03.24-.1.33a.6.6 0 0 1 -.23.22.7.7 0 0 1 -.33.08zm2.7 2.27-1.02-4h.57l.7 3.1h.04l.75-3.1h.57l.73 3.1h.04l.7-3.1h.58l-1 4h-.56l-.76-3h-.03l-.76 3h-.56zm3.57 0h.58l.32-1h1.45l.31 1h.58l-1.3-4h-.63l-1.3 4zm2.18-1.54-.54-1.73h-.03l-.54 1.73zm3 .33h-.55l.51.66a1 1 0 0 1 -.32.05c-.21 0-.4-.06-.56-.17-.17-.11-.3-.28-.4-.5-.09-.22-.13-.49-.13-.8 0-.33.04-.6.14-.82s.22-.38.39-.5a.96.96 0 0 1 .56-.17c.2 0 .4.06.56.17.16.12.29.28.38.5.1.22.15.5.15.81 0 .32-.05.6-.15.81-.06.15-.14.28-.24.38l-.35-.42zm.67.86c.16-.15.29-.33.39-.55.14-.3.21-.66.21-1.08s-.07-.78-.21-1.08-.34-.53-.59-.7a1.48 1.48 0 0 0 -.83-.24c-.32 0-.6.08-.84.24-.25.17-.44.4-.58.7-.15.3-.22.66-.22 1.08s.07.78.22 1.08c.14.3.33.54.58.7.24.16.52.2.84.2.23 0 .45-.02.65-.1l.08.1h.56z" fill-rule="evenodd"/></svg>