<svg fill="none" height="18" width="18" xmlns="http://www.w3.org/2000/svg"><path d="m0 0h18v18h-18z" fill="#03396b"/><path d="m8.5 8h1.266c.485 0 .734.276.734.672 0 .54-.387.828-.82.828h-1.18zm-1.5 3h3c1.162 0 2-.72 2-2.123 0-1.027-.424-1.661-1.013-1.877.485-.288.684-.535.684-1.237-.001-.72-.437-1.763-2.171-1.763h-2.5zm1.512-5.5h.935c.416 0 .693.126.693.486 0 .45-.26.514-.693.514h-.935c-.012-.562 0-1 0-1z" fill="#f0f3fa"/><g clip-rule="evenodd" fill-rule="evenodd"><path d="m6 14h3v-.542c0-.804.5-1.458 1-1.458h-2.448c-.856 0-1.552.654-1.552 1.458z" fill="#009540"/><path d="m10 14h1.397c.884 0 1.603-.654 1.603-1.458v-.542h-1.397c-.884 0-1.603.654-1.603 1.458z" fill="#fed300"/></g></svg>