<svg fill="none" height="18" width="18" xmlns="http://www.w3.org/2000/svg"><path d="m0 0h18v18h-18z" fill="#f0f3fa"/><g clip-rule="evenodd" fill-rule="evenodd"><path d="m4 4h2.5c-1.12.43-1.839 2.175-1.861 3.747-.016 1.1.309 2.117 1.076 2.542 0 0 1.124.206 3.901 1.32.292.129.404.38.384.615-.022.261-.204.5-.479.526a.645.645 0 0 1 -.333-.066l-5.188-1.684zm5 0h5v2zm5 3v7h-2.619c1.344-.657 2.003-2.271 1.974-3.711-.023-1.163-.469-2.01-1.338-2.542 0 0-1-.266-3.301-1.278-.458-.09-.706-.44-.716-.743-.009-.261.16-.486.525-.476.142.004.313.043.516.13zm-10 7v-2l4.972 2z" fill="#1e4524"/><path d="m9 8a1 1 0 1 1 0 2 1 1 0 0 1 0-2z" fill="#9bb43c"/></g></svg>