<svg height="18" viewBox="0 0 18 18" width="18" xmlns="http://www.w3.org/2000/svg" xmlns:xlink="http://www.w3.org/1999/xlink"><linearGradient id="a" gradientUnits="userSpaceOnUse" x1="9" x2="9" y1="4.23" y2="13.72"><stop offset="0" stop-color="#0c426e"/><stop offset=".5" stop-color="#3774ab"/><stop offset="1" stop-color="#0c426e" stop-opacity="0"/></linearGradient><linearGradient id="b" gradientUnits="userSpaceOnUse" x1="9" x2="9" y1="5.2" y2="12.8"><stop offset="0" stop-color="#3671a9"/><stop offset=".48" stop-color="#5d92cb"/><stop offset="1" stop-color="#3671a9"/></linearGradient><path d="m0 0h18v18h-18z" fill="#f0f3fa"/><path d="m4 6.18 5.01-2.88 4.99 2.88v5.66l-4.99 2.86-5.01-2.86z" fill="#012a4a"/><ellipse cx="9" cy="8.98" fill="url(#a)" rx="4.69" ry="4.75"/><ellipse cx="9" cy="9" fill="url(#b)" rx="3.75" ry="3.8"/><ellipse cx="9" cy="9" fill="#ce916f" rx="2.81" ry="2.85"/><ellipse cx="9" cy="9" fill="#f35437" rx="1.56" ry="1.58"/><path d="m7.28 8.39 3.21-4.25.26.16-1.25 2.38 1.38-.67-2.16 4.12.93-.33-2.49 3.85-.22-.13.9-2.26-1.1.49 2.02-3.86z" fill="#f0f3fa"/></svg>