<svg height="18" viewBox="0 0 18 18" width="18" xmlns="http://www.w3.org/2000/svg"><path d="m0 0h18v18h-18z" fill="#f0f3fa"/><path d="m10.12 5.17a15.5 15.5 0 0 1 -2.5-2.17c-.13 1.28 0 3.16 2.17 4.18 1.74.82 2.55 1.62 2.73 1.92 0-2.03-.6-2.6-2.4-3.93z" fill="#e30011"/><path d="m8.56 7.68a12.83 12.83 0 0 1 -3.48-1.8c.4 1.6.86 3.75 3.98 4.35a7.57 7.57 0 0 1 3.64 1.61c-.59-2.5-1.32-3.18-4.14-4.16z" fill="#00a0a9"/><path d="m8.19 10.76c-2.15-.37-3.77-1.46-4.19-1.68.37 1.68 1.25 3.6 4.56 3.75 3.2.15 4.05.91 4.44 1.17-1.1-2.55-1.73-2.72-4.81-3.24z" fill="#08563c"/></svg>