<svg height="18" viewBox="0 0 18 18" width="18" xmlns="http://www.w3.org/2000/svg"><path d="m0 0h18v18h-18z" fill="#f0f3fa"/><path d="m9 3a6 6 0 1 0 0 12 6 6 0 0 0 0-12z" fill="#fcea1c"/><path d="m3.38 9a5.62 5.62 0 1 1 11.24 0 5.62 5.62 0 0 1 -11.24 0zm1.84-3.78a5.33 5.33 0 0 0 3.78 9.12 5.32 5.32 0 0 0 5.34-5.34 5.32 5.32 0 0 0 -5.34-5.34c-1.48 0-2.81.6-3.78 1.56z"/><path d="m8.12 11h-.12c-.24 0-.44.2-.44.43v1.14c0 .24.2.43.44.43h.12c.24 0 .44-.2.44-.43v-1.14c0-.24-.2-.43-.44-.43zm.1 1.47c0 .1 0 .2-.16.2-.18 0-.17-.1-.17-.2v-.91c0-.1 0-.23.17-.23s.16.14.16.23zm2.28-.88v-.04c0-.3-.22-.55-.49-.55h-.01c-.27 0-.5.25-.5.55v.15c0 .3.23.55.5.55.06 0 .12-.01.17-.04 0 .16 0 .46-.18.46-.16 0-.16-.33-.16-.33h-.33s-.07.66.5.66c.58 0 .49-.54.49-1.41zm-.48.3c-.08 0-.18-.08-.18-.17v-.13c0-.1 0-.25.17-.25.16 0 .16.15.16.25v.13c0 .09-.06.16-.15.16zm-2.56-6.89h.76l.75 2.65.74-2.65h.75l-1.22 4h-.54zm-.74 4s.28-.16.28-.82c0-.98-.85-1.18-.85-1.18h-1.15v4h1.13s.87-.13.87-1.17c0 0 .01-.62-.28-.82zm-.58 1.33h-.57v-1h.57s.29.1.29.5-.29.5-.29.5zm0-1.66h-.57v-1h.58s.28.12.28.5c0 .37-.28.5-.28.5zm6.58.33s.28-.17.28-.83c0-.97-.85-1.17-.85-1.17h-1.15v4h1.13s.87-.13.87-1.17c0 0 .01-.62-.28-.82zm-.58 1.33h-.57v-1h.57s.29.1.29.5-.29.5-.29.5zm0-1.66h-.57v-1h.58s.28.12.28.5c0 .37-.28.5-.28.5z"/></svg>