<svg height="18" viewBox="0 0 18 18" width="18" xmlns="http://www.w3.org/2000/svg"><path d="m0 0h18v18h-18z" fill="#f0f3fa"/><path d="m4 6v6h1.93c.98 0 1.71-.05 2.15-.5.39-.39.44-.77.44-1.33 0-.76-.5-1.25-.96-1.33.4-.19.79-.57.79-1.29 0-1.26-1.12-1.55-2.33-1.55zm2.24 2.49h-.94v-1.46h.8c.51 0 .94.05.94.69s-.36.77-.8.77zm0 2.48h-.94v-1.54h.94c.7 0 1.15.18 1.15.74 0 .7-.52.8-1.15.8zm7.76-1.96c0-2.06-.95-3.01-2.4-3.01-1.43 0-2.38.94-2.38 3.01 0 2.02.93 2.99 2.39 2.99 1.44 0 2.39-.92 2.39-2.99zm-1.3 0c0 1-.22 1.96-1.1 1.96-.86 0-1.08-.96-1.08-1.96s.22-1.98 1.09-1.98 1.09.98 1.09 1.98z"/></svg>