<svg height="18" viewBox="0 0 18 18" width="18" xmlns="http://www.w3.org/2000/svg"><path d="m0 0h18v18h-18z" fill="#f0f3fa"/><path d="m9 5a1 1 0 1 0 0-2 1 1 0 0 0 0 2zm3.5 1.5a1 1 0 1 1 -2 0 1 1 0 0 1 2 0zm-7.5 2.5a1 1 0 1 1 -2 0 1 1 0 0 1 2 0zm10 0a1 1 0 1 1 -2 0 1 1 0 0 1 2 0zm-6 1a1 1 0 1 0 0-2 1 1 0 0 0 0 2zm-2.5 2.5a1 1 0 1 0 0-2 1 1 0 0 0 0 2zm3.5 1.5a1 1 0 1 1 -2 0 1 1 0 0 1 2 0z" fill="#32657f"/><circle cx="6.5" cy="6.5" fill="#ef7724" r="1.5"/><circle cx="11.5" cy="11.5" fill="#683379" r="1.5"/></svg>