<svg height="18" width="18" xmlns="http://www.w3.org/2000/svg"><path d="m0 0h18v18h-18z" fill="#0071f7"/><path d="m9.638 12.186c-.9-.006-1.819-.643-1.819-1.701 0-1.059.619-1.921 1.82-1.937 1.2-.016 1.805.878 1.818 1.937.014 1.059-.918 1.707-1.819 1.701zm3.329-3.369c-.63-1.304-1.849-1.852-3.27-1.852-.853 0-1.262.277-1.878.694v-2.964c0-.37-.533-.695-.913-.695-.426 0-.906.324-.906.695v5.836c.047 1.946 1.659 3.474 3.65 3.474 1.421 0 2.7-.773 3.27-1.899.357-.707.357-1.667.357-1.667s0-.98-.31-1.622z" fill="#fff"/></svg>