<svg height="18" width="18" xmlns="http://www.w3.org/2000/svg" xmlns:xlink="http://www.w3.org/1999/xlink"><linearGradient id="a" gradientUnits="userSpaceOnUse" x1="13.24" x2="7.44" y1="8.49" y2="12.19"><stop offset=".21"/><stop offset="1" stop-color="#eee4a3"/></linearGradient><linearGradient id="b" gradientUnits="userSpaceOnUse" x1="9.89" x2="9.89" y1="5" y2="11.38"><stop offset=".81"/><stop offset="1" stop-color="#e5001c"/></linearGradient><path d="m0 0h18v18h-18z" fill="#e5001c"/><path d="m9.6 12.54c2.74-.79 4.7-2.35 4.36-3.48-.32-1.13-2.81-1.4-5.55-.6-2.75.79-4.7 2.35-4.37 3.48.32 1.13 2.81 1.4 5.55.6zm-.4-.54c2.08-.65 3.55-1.88 3.28-2.74s-2.18-1.03-4.26-.38c-2.09.66-3.55 1.88-3.28 2.75.27.86 2.18 1.02 4.26.37z" fill="url(#a)" fill-rule="evenodd"/><path d="m7 5v6h2v-5.26h.87c.88 0 1.12.54 1.13 1.18 0 .52-.2 1-.3 1.13.27 0 1.1-.02 1.42 0 .53-.47.66-1.25.65-1.56.03-1.16-1.21-1.49-1.75-1.49z" fill="url(#b)"/></svg>