<svg height="18" width="18" xmlns="http://www.w3.org/2000/svg"><path d="m0 0h18v18h-18z" fill="#e22245"/><path d="m8.732 6.303c-.583 0-1.218.061-1.846.182.635-.922 1.645-1.518 2.768-1.518.831 0 1.66.353 2.218.88.101.095.178.103.255.016s.07-.174-.015-.286c-.729-.957-1.8-1.601-3.063-1.576-1.652.033-3.056 1.215-3.591 2.85a6.61 6.61 0 0 0 -1.335.63c-.109.07-.146.155-.109.258.04.096.117.13.226.096.342-.112.69-.208 1.054-.294-.04.215-.062.44-.062.672-.032 1.507.682 2.938 1.783 3.722.11.078.201.078.263-.017s.055-.182-.04-.274c-.697-.706-1.086-1.76-1.086-2.801 0-.527.094-1.033.27-1.49a12.8 12.8 0 0 1 1.196-.062c2.823 0 5.204 1.05 5.204 2.431 0 .698-.784 1.395-1.714 1.863-.226.112-.248.19-.218.302.032.104.131.137.248.095 1.63-.602 2.862-1.592 2.862-2.792.005-1.63-2.322-2.887-5.268-2.887zm1.268 7.537v-3.243c0-.126-.115-.17-.21-.113l-.79.516v2.997h.848c.085 0 .152-.07.152-.156zm-2 .06v-2.245c0-.083.037-.14.097-.177l.595-.359v2.881h-.595c-.055 0-.097-.044-.097-.101z" fill="#fff"/></svg>