<svg height="18" viewBox="0 0 18 18" width="18" xmlns="http://www.w3.org/2000/svg"><path d="m0 0h18v18h-18z" fill="#f0f3fa"/><path d="m11 5.83c0-1.05-1.48-1.66-2.22-1.83.02.08.07.37.07.72 0 .64-.56.88-2.09 1.43-1.86.67-2.76 1.04-2.76 1.9 0 1.36 1.6 1.87 2.4 1.95a1.71 1.71 0 0 1 -.26-.84c0-.73.8-1.05 2.47-1.58 2.26-.74 2.39-1.08 2.39-1.75z" fill="#fe000d"/><path d="m14 7.87c0-1.07-1.5-1.7-2.25-1.87.03.09.08.38.08.73 0 .66-.57.91-2.11 1.47l-.34.13c-1.65.6-2.38.85-2.38 1.67 0 .43.31.8.7 1 .18.1.34.26.34.46 0 .18-.14.34-.3.45-.29.2-.48.55-.48.95 0 .62.47 1.13 1.05 1.13s1.05-.5 1.05-1.13c0-.3-.1-.56-.27-.76-.22-.26-.46-.56-.42-.89v-.03c.04-.1.37-.65 2.96-1.38 2.27-.75 2.37-1.22 2.37-1.93z" fill="#0d3897"/></svg>