<svg height="18" viewBox="0 0 18 18" width="18" xmlns="http://www.w3.org/2000/svg"><path d="m0 0h18v18h-18z" fill="#f0f3fa"/><path d="m5.07 3.47c-.02-.16-.06-.3-.06-.3s.15.01.3.06c1.25.44 2.3 2.07 2.3 2.07l.2.32s.11.16.2.35c.1.25.1.33.1.36a.3.3 0 0 1 0 .05v.03a.6.6 0 0 1 -.21.31 4 4 0 0 1 1.42-.26c1.26 0 2.47.49 3.18 1.4l-1.4 1.43c-.13-1.19-1.03-1.29-1.78-1.29-1.15 0-2.07.97-2.07 2.22 0 1.26.92 2.26 2.07 2.26.8 0 1.56-.42 2.07-1.01l1.08.98a3.93 3.93 0 0 1 -3.15 1.55 3.84 3.84 0 0 1 -3.9-3.77c0-1.5.9-2.79 2.21-3.4l-.03-.03c-1.18-1.8-2.07-2.05-2.25-2.1h-.02a1.26 1.26 0 0 0 -.24-.05c-.1 0-.08-.24-.07-.28.06-.3.06-.74.06-.9zm4.45 2.53c-.82.2-1.47-.34-1.47-.34-.66-3.04 3.83-3.66 3.83-3.66-.62 3-1.69 3.82-2.36 4z" fill="#4a4f55"/></svg>