<!-- by TradingView --><svg width="18" height="18" viewBox="0 0 18 18" xmlns="http://www.w3.org/2000/svg"><path fill="#F0F3FA" d="M0 0h18v18H0z"/><path d="M5.07 3.47c-.02-.16-.06-.3-.06-.3s.15.01.3.06c1.25.44 2.3 2.07 2.3 2.07l.2.32s.11.16.2.35c.1.25.1.33.1.36a.3.3 0 0 1 0 .05v.03a.6.6 0 0 1-.21.31 4 4 0 0 1 1.42-.26c1.26 0 2.47.49 3.18 1.4l-1.4 1.43C10.97 8.1 10.07 8 9.32 8c-1.15 0-2.07.97-2.07 2.22 0 1.26.92 2.26 2.07 2.26.8 0 1.56-.42 2.07-1.01l1.08.98A3.93 3.93 0 0 1 9.32 14a3.84 3.84 0 0 1-3.9-3.77c0-1.5.9-2.79 2.21-3.4L7.6 6.8c-1.18-1.8-2.07-2.05-2.25-2.1h-.02a1.26 1.26 0 0 0-.24-.05c-.1 0-.08-.24-.07-.28.06-.3.06-.74.06-.9ZM9.52 6c-.82.2-1.47-.34-1.47-.34C7.39 2.62 11.88 2 11.88 2c-.62 3-1.69 3.82-2.36 4Z" fill="#4A4F55"/></svg>