<svg height="18" width="18" xmlns="http://www.w3.org/2000/svg"><path d="m0 0h18v18h-18z" fill="#002954"/><g fill="#fff"><path d="m7.578 6.182c1.863 0 2.226 1.324 2.226 1.91 0 .719-.41 1.59-1.67 1.59h-.634c-.34 0-.499-.007-.499-1.4v-2.1h.578zm-1.578 3.326c0 .1.018.174-.105.174h-.575v.318h2.574c2.238 0 2.871-1.055 2.871-1.989 0-1.044-.827-1.721-1.805-1.913v-.023c.692-.26 1.353-.753 1.353-1.55 0-.967-.773-1.525-1.91-1.525h-3.403v.318h.669c.293 0 .331.39.331 1.544zm2.563-3.52c-.351-.081-.508-.124-1.563-.124v-2.318c0-.202.089-.228.259-.228h.817c.557 0 1.353.397 1.353 1.388 0 .62-.34 1.002-.866 1.281z"/><path d="m9.597 11.182c1.863 0 2.226 1.338 2.226 1.923 0 .72-.41 1.584-1.67 1.584h-.678c-.34 0-.475-.03-.475-1.422v-2.085zm-1.596 3.318c0 .1-.006.18-.13.18h-.55v.32h2.593c2.238 0 2.872-1.042 2.872-1.976 0-1.044-.827-1.721-1.805-1.909v-.023c.692-.26 1.353-.753 1.353-1.549 0-.968-.774-1.543-1.91-1.543h-3.424v.318h.688c.294 0 .313.406.313 1.562zm2.621-3.52c-.351-.08-.657-.146-1.622-.146v-2.34c0-.204.049-.206.219-.206l.877.03c.556 0 1.352.413 1.352 1.4 0 .62-.304.98-.826 1.262z"/></g></svg>