<svg height="18" width="18" xmlns="http://www.w3.org/2000/svg"><path d="m0 0h18v18h-18z" fill="#9164cd"/><path d="m9.26 6a.78.78 0 1 0 0-1.57.78.78 0 0 0 0 1.57zm-1.7-.17a.78.78 0 1 1 -1.56 0 .78.78 0 0 1 1.57 0zm5.46.83a4.67 4.67 0 0 1 -3.4 7.22c-4.69.86-5.9-3.14-5.57-5.11.08-.52.34-.93.63-1.11.42-.26 1.16.07 1.02.73-.06.27-.2.46-.34.66-.2.28-.42.58-.42 1.17 0 1.77 1.45 3.7 4.5 3.12 1.95-.37 3.31-1.57 3.56-2.98.33-1.96-.79-2.8-1.45-3.3a5.1 5.1 0 0 1 -.28-.21c-.55-.48-.26-1.21.51-1.09a2.9 2.9 0 0 0 1.54-.09c.5-.16.86.26.59.65-.17.23-.54.35-.89.34z" fill="#fff"/></svg>