<svg height="18" viewBox="0 0 18 18" width="18" xmlns="http://www.w3.org/2000/svg"><path d="m0 0h18v18h-18z" fill="#133259"/><path d="m3 7h1.88a1.02 1.02 0 0 1 .63 1.8 1.12 1.12 0 0 1 -.34 2.2h-2.17zm1 .57h.46a.57.57 0 1 1 0 1.14h-.46zm0 1.73h.83a.57.57 0 1 1 0 1.14h-.83v-1.15z" fill="#fff" fill-rule="evenodd"/><path d="m11 7h1v1.47h2v-1.47h1v4h-1v-1.71h-2v1.71h-1z" fill="#fff"/><path d="m8.22 11c-.33 0-.6-.05-.84-.14-.23-.1-.4-.23-.53-.4a.9.9 0 0 1 -.2-.55c0-.16.05-.3.12-.42.08-.12.2-.23.33-.33.14-.1.3-.2.48-.3l.84-.48a.96.96 0 0 0 .28-.2c.06-.08.1-.17.1-.27 0-.08-.05-.16-.14-.23a.51.51 0 0 0 -.35-.12c-.1 0-.19.02-.26.06a.47.47 0 0 0 -.18.15.35.35 0 0 0 -.06.2c0 .09.03.17.08.26.06.09.14.18.23.27l.3.3 2.22 2.2h-.9l-1.86-1.8-.4-.39a2.07 2.07 0 0 1 -.3-.4.9.9 0 0 1 .03-.94c.1-.15.24-.26.43-.34.18-.09.4-.13.65-.13s.46.04.64.12.32.2.42.33.14.28.14.43a.8.8 0 0 1 -.17.5c-.1.14-.26.27-.46.4l-.95.57c-.16.1-.27.19-.34.28-.07.1-.1.18-.1.25 0 .1.03.2.1.28.06.08.15.15.26.2s.25.07.4.07c.17 0 .34-.03.5-.09.17-.06.22-.24.35-.36.16-.14.82-.63 1-.82l.44.4c0 .02-.61.47-.72.59-.1.12-.03.28-.14.36a3.2 3.2 0 0 0 -.22.13c-.16.12-.36.21-.58.27s-.44.09-.65.09z" fill="#af9d2d"/></svg>