<svg height="18" width="18" xmlns="http://www.w3.org/2000/svg"><path d="m0 0h18v18h-18z" fill="#ac063b"/><path d="m4 9v5h4.158c4.005 0 3.852-.078 4.506-.447.899-.544 1.25-1.158 1.325-2.28.076-1.123-.259-1.965-.974-2.526-.381-.281-.442-.404-.274-.492.365-.158.837-1.193.837-1.824 0-.965-.426-1.79-1.127-2.158-.563-.298-.745-.272-4.37-.272h-4.081v5zm6.61-2.714c.434.355.541 1.046-.046 1.544-.377.229-1.05.167-1.98.167h-2.584v-1.998h2.63c1.386 0 1.72.032 1.98.287zm.396 4.051c.35.421.274 1.006 0 1.322-.275.315-.503.341-2.209.341h-2.797v-2.013h2.721c1.752 0 1.934-.07 2.285.35z" fill="#fff"/></svg>