<svg height="18" viewBox="0 0 18 18" width="18" xmlns="http://www.w3.org/2000/svg"><path d="m0 0h18v18h-18z" fill="#f0f3fa"/><path d="m5.8 11.06a40 40 0 0 0 -3.5.31h3.5c1.74 0 3.64.63 5.82.63a4.3 4.3 0 0 0 3.21-1.25c-.43.47-2.33.94-3.2.94-.88 0-4.82-.63-5.84-.63z" fill="#6ebe29"/><path d="m2.4 8.65-.4 2.07c-.02.1.05.18.15.17.72-.05 2.85-.3 3.91-.3 1.17 0 2.93.16 6.43.46 2.72.23 3.46-2.41 3.51-3.9a.14.14 0 0 0 -.14-.15h-11.56c-1.16 0-1.75 1.1-1.9 1.65z" fill="#e6020f"/><path d="m4 8h10v2h-10z" fill="#d9d9d9"/></svg>