<!-- by TradingView --><svg width="18" height="18" viewBox="0 0 18 18" xmlns="http://www.w3.org/2000/svg"><path fill="#F0F3FA" d="M0 0h18v18H0z"/><path d="M9.3 8.01A6.25 6.25 0 0 1 9.6 2c-.16.69-.1 2.42 1.47 3.83 1.57 1.4 1.11 2.83.69 3.36a5.74 5.74 0 0 0-2.01-3.05c1.4 2.14 1.46 3.86 1.32 4.46a2.73 2.73 0 0 1-1.47 1.35c.44-.28.98-1.46-.3-3.94Z" fill="#00597F"/><path d="M12.99 10.64a9.14 9.14 0 0 0-.4-2.98c-.59 3.86-2.98 4.89-4.1 4.92-3.33.14-4.38-1.89-4.49-2.92.07 3.05 2.42 4.22 4.5 4.1 1.65-.1 3.1-1.4 3.61-2.05a4.52 4.52 0 0 1-3.62 2.43 4.65 4.65 0 0 1-3.8-1.36c1.06 2.01 3.26 2.3 4.23 2.2 3.57-.4 3.97-2.9 4.07-4.34Z" fill="#0589C3"/></svg>