<svg height="18" viewBox="0 0 18 18" width="18" xmlns="http://www.w3.org/2000/svg"><path d="m0 0h18v18h-18z" fill="#f0f3fa"/><path d="m13.89 5.98-1.87-1.87a.4.4 0 0 0 -.56 0l-1.86 1.87a.4.4 0 0 0 0 .56l1.86 1.86c.16.16.4.16.56 0l1.87-1.86a.4.4 0 0 0 0-.56" fill="#03daff"/><path d="m4.11 11.46a.37.37 0 0 0 -.1.2v.15c.01.08.05.15.1.2l1.87 1.88a.39.39 0 0 0 .36.1.38.38 0 0 0 .2-.1l1.01-1.02a2.03 2.03 0 0 1 2.88 0l1.01 1.01c.16.16.4.16.56 0l1.87-1.86a.4.4 0 0 0 0-.56l-1.87-1.86a.4.4 0 0 0 -.56 0l-1.01 1.02a2.03 2.03 0 0 1 -2.88 0l-.16-.16a2.03 2.03 0 0 1 0-2.88l1.03-1a.4.4 0 0 0 0-.56l-1.88-1.88a.4.4 0 0 0 -.55 0l-1.87 1.86a.4.4 0 0 0 0 .55l1.02 1.02a2.03 2.03 0 0 1 0 2.87l-1.04 1.02z" fill="#067ef6"/></svg>