<svg fill="none" height="18" viewBox="0 0 18 18" width="18" xmlns="http://www.w3.org/2000/svg"><path d="m0 0h18v18h-18z" fill="#f0f3fa"/><path d="m13.4923 11.2933c.0597-.2628.1952-.6508.1952-1.0433 0-1.45803-1.5628-2.25-2.8901-2.25-1.29506 0-3.48583.927-6.13313 3.5.85907 1.5282 2.47215 2.5 4.35333 2.5 1.9555 0 3.6464-1.0781 4.4747-2.7067z" fill="#50687b"/><path d="m4.57597 11.3572c.10212-.1172 2.86153-3.39434 2.86153-4.98415 0-.95031-.40091-1.3675-.9375-1.37305-.23957-.00248-.50618.08301-.77624.22955-1.05673.91926-1.72376 2.25678-1.72376 3.77044 0 .84545.2081 1.65901.57597 2.35721z" fill="#50687b"/><path d="m14 8.375c-.3361-2.44673-2.43-4.375-4.97049-4.375-.55068 0-1.09665.08828-1.59201.2515.6878 0 1.0625.75013 1.0625 1.35735 0 1.21669-.5 2.39115-.5 2.39115s.99934-1.5 3.0205-1.5c1.5794 0 2.6061 1.41873 2.9795 1.875z" fill="#01b3e3"/></svg>