<svg height="18" width="18" xmlns="http://www.w3.org/2000/svg"><path d="m0 0h18v18h-18z" fill="#6e3890"/><g fill="#fff"><path d="m15.004 11.86h-12v.025l10.6 1.111h.03z"/><path d="m14.984 11.004h-10.86l9.48 1.078 1.38-1.072zm-3.583-2.674 1.03.167c-.228.561-.627.978-1.196 1.254-.57.276-1.266.415-2.083.415-.719 0-1.333-.093-1.843-.278a2.782 2.782 0 0 1 -1.253-.891c-.325-.409-.487-.891-.487-1.449 0-.55.163-1.015.488-1.394.325-.38.766-.669 1.322-.863a5.619 5.619 0 0 1 1.861-.291c.75 0 1.393.123 1.932.369.538.245.915.606 1.13 1.081l-1.008.154c-.346-.692-1.037-1.037-2.078-1.037-.517 0-.966.07-1.345.21-.38.14-.683.357-.909.651-.226.295-.34.668-.34 1.12 0 .684.228 1.197.685 1.538.457.34 1.066.513 1.825.513.561 0 1.045-.106 1.452-.315.407-.21.68-.527.817-.954z"/></g></svg>