<svg height="18" width="18" xmlns="http://www.w3.org/2000/svg"><path d="m0 0h18v18h-18z" fill="#ed3237"/><g fill="#fff"><path d="m8.502 11.285c-.186 0-.499-.06-.876-.177-1.57-.49-2.626-1.88-2.626-3.465 0-2.008 1.705-3.643 3.799-3.643 1.78 0 3.3 1.16 3.702 2.82l-.41.092c-.356-1.478-1.71-2.506-3.292-2.506-1.864 0-3.376 1.453-3.376 3.237 0 1.41.938 2.646 2.333 3.08.335.104.483.145.746.145z"/><path d="m5.804 14c-.536 0 .877-1.017 1.62-1.017l3.076.017v-.743c0-.147-.57-.432-.77-.54 0 0-.73-.338-.73-.691v-2.616c0-.148.219-.41.512-.41s.488.265.488.41v2.414c.213.106.3.202.5.338v-4.478c0-.111.187-.429.5-.426s.5.289.5.426v2.666l.5-.205v-1.295c0-.108.187-.433.5-.427.312.006.5.282.5.427v1.376c0 .21-.168.439-.326.57-.32.264-1.174.523-1.174.523v2.681h1.5v1z"/></g></svg>