<svg height="18" viewBox="0 0 18 18" width="18" xmlns="http://www.w3.org/2000/svg" xmlns:xlink="http://www.w3.org/1999/xlink"><linearGradient id="a" gradientUnits="userSpaceOnUse" x1="9.7" x2="3.2" y1="6.14" y2="9.4"><stop offset="0" stop-color="#26a5de"/><stop offset="1" stop-color="#272466"/></linearGradient><linearGradient id="b" gradientUnits="userSpaceOnUse" x1="13.95" x2="9.67" y1="7.59" y2="5.98"><stop offset="0" stop-color="#26a4de"/><stop offset="1" stop-color="#2a2c75"/></linearGradient><linearGradient id="c" gradientUnits="userSpaceOnUse" x1="14.06" x2="14.06" y1="7.63" y2="11.1"><stop offset="0" stop-color="#272465"/><stop offset="1" stop-color="#24a2dc"/></linearGradient><linearGradient id="d" gradientUnits="userSpaceOnUse" x1="4.46" x2="13.38" y1="9" y2="11.55"><stop offset=".07" stop-color="#1e82c5"/><stop offset="1" stop-color="#29296e"/></linearGradient><path d="m0 0h18v18h-18z" fill="#f0f3fa"/><path d="m8.32 5.75c-3.87.19-5.44 2.03-5.15 3.52l1.77-1.14 1.65.36c-.04-.3-.01-.57.08-.8.15-.38.46-.64.82-.84a4.24 4.24 0 0 1 1.51-.45l.4.36.5-.67-1.83-.58.26.25z" fill="url(#a)"/><path d="m13.64 7.21a8 8 0 0 0 -4-1.37l.7.29-.24.25c1.39.08 2.49.62 2.95.95l-.34.08 1.24.37-.08-.62z" fill="url(#b)"/><path d="m14.16 8-.53-.15c.83.92.26 1.82-.02 1.98l-.46-.41-.02 1.55 1.84.13-.41-.4c.15-.18 1.13-1.56-.43-3.07l.03.38z" fill="url(#c)"/><path d="m5.06 8.68-3.06 2.51 2.08-.61c3.4 2.94 8.23 1.9 9.72.83l-1.05-.13v-.88c-1.63.6-4.17.25-5.38-.83l1.21-.38z" fill="url(#d)"/></svg>