<svg height="18" viewBox="0 0 18 18" width="18" xmlns="http://www.w3.org/2000/svg"><path d="m0 0h18v18h-18z" fill="#9d2136"/><path d="m5 8.85c0-2.84 1.85-4.85 4.29-4.85.24 0 .88.02 1.48.15a10.12 10.12 0 0 0 1.08.19c.09.02.15.07.15.17v.15c-.1.6-.1 1.24-.1 1.86-.02.17-.03.3-.13.3s-.1-.17-.1-.3c0-.49-.17-1-.43-1.26a2.86 2.86 0 0 0 -1.98-.71c-2.26-0-3.26 1.78-3.26 4.2 0 2.35 1.52 4.6 3.67 4.6.65 0 1.33-.08 1.76-.63.2-.28.33-.83.36-1.05.01-.13.03-.22.12-.22.06 0 .09.07.09.22 0 .1-.12 1.2-.23 1.64-.07.26-.09.28-.28.39a4.7 4.7 0 0 1 -1.85.3c-2.7 0-4.64-2-4.64-5.15z" fill="#fff"/></svg>