<svg height="18" viewBox="0 0 18 18" width="18" xmlns="http://www.w3.org/2000/svg"><path d="m0 0h18v18h-18z" fill="#f0f3fa"/><path d="m10.42 8.74-.8.99-3.32 4.21c-.02.03-.06.06-.1.06-.4 0-1.3-.02-2.2 0l4.07-5.27a.16.16 0 0 0 0-.2l-1.93-2.93c-.35-.52-.22-.7.37-.54l1 .26c.58.15 1.04.5 1.37 1.02l1.55 2.4z" fill="#7fbf26"/><path d="m12.98 5.23-2.1 2.86a.12.12 0 0 1 -.19 0l-.54-.72a.13.13 0 0 1 0-.15c.27-.34 1.5-2.22 1.73-2.22h1c.07 0 .13.1.12.17zm-2.56 3.51 2.5 3.73c.1.14.06.21-.1.2l-.93-.04a.48.48 0 0 1 -.37-.2l-1.9-2.7z" fill="#007e89"/></svg>