<svg height="18" width="18" xmlns="http://www.w3.org/2000/svg"><path d="m0 0h18v18h-18z" fill="#bf1920"/><path d="m10.603 12.206c-1.88 0-3.404-1.44-3.404-3.214 0-1.775 1.524-3.213 3.404-3.213.663 0 1.282.179 1.805.488l-1.805 2.725 3.397-1.852c-.369-.555-.898-1.033-1.538-1.396-.815-.46-1.948-.745-3.2-.745-1.787 0-3.355.613-4.23 1.53-.646.681-1.032 1.535-1.032 2.464 0 .93.385 1.784 1.033 2.463.876.917 2.42 1.544 4.177 1.544s3.301-.627 4.178-1.545c.048-.051.095-.102.139-.155l-.133-.469a3.467 3.467 0 0 1 -2.792 1.375z" fill="#fff"/></svg>