<svg height="18" viewBox="0 0 18 18" width="18" xmlns="http://www.w3.org/2000/svg" xmlns:xlink="http://www.w3.org/1999/xlink"><linearGradient id="a" gradientUnits="userSpaceOnUse" x1="6.03" x2="6.03" y1="3" y2="7.55"><stop offset="0" stop-color="#5ca7db"/><stop offset="1" stop-color="#0374c2"/></linearGradient><linearGradient id="b" gradientUnits="userSpaceOnUse" x1="8.67" x2="8.67" y1="6.18" y2="13.13"><stop offset="0" stop-color="#7dd8a9"/><stop offset="1" stop-color="#0ba585"/></linearGradient><linearGradient id="c" gradientUnits="userSpaceOnUse" x1="10.88" x2="10.88" y1="14.91" y2="7.96"><stop offset="0" stop-color="#54a3d9"/><stop offset="1" stop-color="#0273c2"/></linearGradient><path d="m0 0h18v18h-18z" fill="#f0f3fa"/><circle cx="7.83" cy="5.5" fill="#0072c1" r=".83"/><circle cx="9.83" cy="10.5" fill="#05a283" r=".83"/><path d="m4 5.53c-.1-1.39 2.4-2.2 3.73-2.5.07-.05.25-.04.3.07.1.2-.1.3-.2.33-.72.26-2.21 1-2.26 1.95-.03.76.84 1.37 1.28 1.58.14.04.4.18.33.4-.08.23-.29.2-.38.16-2.27-.62-2.76-1.5-2.8-1.99z" fill="url(#a)"/><path d="m5.56 9.96c-.17-2.13 3.71-3.35 5.74-3.8.17-.04.48-.13.54 0 .14.3-.32.36-.48.4-1.1.4-3.9 1.49-3.9 3.28 0 1.17 1.38 2.1 2.39 2.55.21.06.71.37.63.6-.08.22-.49.13-.63.06-3.47-.93-4.23-2.36-4.29-3.1z" fill="url(#b)"/><path d="m14 11.13c.16 2.12-3.72 3.35-5.74 3.8-.17.04-.49.13-.55 0-.13-.3.33-.36.49-.4 1.1-.4 3.89-1.49 3.89-3.29 0-1.16-1.37-2.1-2.38-2.54-.22-.06-.72-.38-.64-.6s.5-.13.64-.07c3.47.94 4.23 2.36 4.28 3.1z" fill="url(#c)"/></svg>