<svg height="18" viewBox="0 0 18 18" width="18" xmlns="http://www.w3.org/2000/svg"><path d="m0 0h18v18h-18z" fill="#f0f3fa"/><path d="m9.42 11.66c-.09 0 .09 0 0 0a2.7 2.7 0 0 1 -2.6-2.66c0-1.88 1.37-3.13 2.6-3.13l.43-1.46a.3.3 0 0 0 -.25-.39 5.05 5.05 0 0 0 -5.6 4.98 5.05 5.05 0 0 0 5.87 4.94.3.3 0 0 0 .23-.4zm2.66-6.41c-.16.2-1.04 1-1.25.84-.22-.15.32-1.2.48-1.4a.5.5 0 0 1 .68-.1c.21.16.26.45.1.66zm1.39 1.98c-.22.14-1.33.59-1.48.37-.14-.21.73-1.02.95-1.16a.5.5 0 0 1 .67.14c.15.22.08.5-.14.65zm.05 2.4c-.27 0-1.46-.18-1.46-.44s1.17-.49 1.44-.5c.27 0 .49.2.5.47 0 .25-.22.47-.48.47zm-.91 2.17c-.22-.14-1.08-.94-.94-1.16.15-.21 1.25.24 1.48.39.22.14.28.43.13.65a.5.5 0 0 1 -.67.13zm-1.35 1.39c-.15-.21-.64-1.28-.42-1.42.22-.15 1.07.67 1.22.89.15.2.1.5-.12.65a.5.5 0 0 1 -.68-.12z" fill="#fc7f2f"/></svg>