<!-- by TradingView --><svg xmlns="http://www.w3.org/2000/svg" width="18" height="18"><path fill="#020942" d="M0 0h18v18H0z"/><path d="M4 5h.6v5H4V5z" fill="#979CCA"/><path d="M5.5 5H7v5H5.5V5z" fill="#67C5D6"/><path d="M8 5h1v4.53H8V5z" fill="#fff"/><path d="M9 10.49c0 1.45.76 2.34 1.88 2.34.7 0 1.41-.4 1.56-1.16H14c-.25 1.07-1.03 2.33-3.12 2.33-2.13 0-3.5-1.3-3.5-3.47 0-.97.32-1.85.9-2.5A3.4 3.4 0 0110.84 7C13.31 7 14 8.68 14 9.33h-1.56c-.13-.6-.57-1.16-1.6-1.16-1.12 0-1.84.9-1.84 2.32z" fill="#fff"/></svg>