<svg height="18" width="18" xmlns="http://www.w3.org/2000/svg"><path d="m0 0h18v18h-18z" fill="#f0f3fa"/><path d="m13.4 6.8c0 .8-.62 1.2-.93 1.4-2.9-3.6-6.34-2.74-7.7-1.86.2-.25 1.74-2.47 4.6-2.33 2.87.13 4.03 2 4.03 2.8z" fill="#f0806b"/><path d="m13.4 11.2c0-.8-.62-1.2-.93-1.4-2.9 3.6-6.34 2.74-7.7 1.86.2.25 1.74 2.47 4.6 2.33 2.87-.13 4.03-2 4.03-2.8z" fill="#dfe719"/><path d="m8.25 6.36c-1.2.4-2.05 1.44-2.05 2.64s.86 2.24 2.06 2.64a3.5 3.5 0 0 1 -1.1.17c-1.75 0-3.16-1.26-3.16-2.81s1.41-2.81 3.15-2.81c.39 0 .76.06 1.1.17z" fill="#557d4b"/></svg>