<svg height="18" viewBox="0 0 18 18" width="18" xmlns="http://www.w3.org/2000/svg"><path d="m0 0h18v18h-18z" fill="#1c9ad5"/><g fill="#fff"><path d="m7.5 8.03a2.5 2.5 0 0 0 2.5-2.53 2.5 2.5 0 0 0 -2.5-2.5 2.5 2.5 0 0 0 -2.5 2.51 2.5 2.5 0 0 0 2.5 2.52zm0-1.03a1.5 1.5 0 1 0 0-3 1.5 1.5 0 0 0 0 3zm5.5 4a2 2 0 1 0 0-4 2 2 0 0 0 0 4zm0-1a1 1 0 1 0 0-2 1 1 0 0 0 0 2zm-5 5a2 2 0 1 0 0-4 2 2 0 0 0 0 4zm0-1a1 1 0 1 0 0-2 1 1 0 0 0 0 2z" fill-rule="evenodd"/><path d="m11.83 8.62-2.6-1.78.47-.59 2.6 1.79zm-2.69 3.18 2.32-2.12.55.51-2.33 2.13-.54-.51z"/></g></svg>