<svg fill="none" height="18" width="18" xmlns="http://www.w3.org/2000/svg"><path d="m0 0h18v18h-18z" fill="#cb3b43"/><path clip-rule="evenodd" d="m9 3h-1v1h1zm1 2h1.002v1h-1.002v.994h-1v-.994h1zm0 2h.995v1.004h-.995zm-1 3v-2h-1v1h-1.443a18.636 18.636 0 0 0 -.423 1.578 3.072 3.072 0 0 0 -.12 1.198c.152 1.53 1.431 2.724 2.986 2.724 1.556 0 2.835-1.194 2.985-2.724.04-.402 0-.812-.119-1.198-.147-.66-.42-1.434-.838-2.578h-.028v1h-1v-.996 1.996zm0 0h-1v1h1zm1 2h-1v1h1zm0 0h1v-1h-1z" fill="#fff" fill-rule="evenodd"/></svg>