<svg height="18" width="18" xmlns="http://www.w3.org/2000/svg"><path d="m0 0h18v18h-18z" fill="#f0f3fa"/><path d="m8 10c0 1.152-1.38 1.76-2.38 1.76-1.434 0-2.594-1.225-2.594-2.734 0-1.51 1.169-2.734 2.593-2.734 1.115 0 2.381.606 2.381 1.708h1c0-1.83-1.797-2.683-3.38-2.683-2 0-3.62 1.656-3.62 3.7s1.62 3.709 3.62 3.709c1.44 0 3.38-.966 3.38-2.726z" fill="#ef3742"/><path d="m5 8h1v2h-1zm2.03 1.021a.5.5 0 1 0 0-1 .5.5 0 0 0 0 1zm-2.899-.021a.5.5 0 1 0 0-1 .5.5 0 0 0 0 1z" fill="#ef3742"/><g fill="#00a0dd"><path d="m12 9v1h2.434l.026-.049a2.22 2.22 0 0 0 .138-.485 3.32 3.32 0 0 0 .052-.466z"/><path d="m15 10.002c0 1.028-1.137 1.723-2.426 1.723-1.29 0-2.565-1.224-2.565-2.716 0-1.501 1.154-2.726 2.565-2.726.955 0 2.393.648 2.426 1.717h1c0-1.922-1.954-2.726-3.426-2.726-1.97 0-3.572 1.674-3.572 3.726 0 2.053 1.601 3.726 3.572 3.726 1.376 0 3.426-.878 3.426-2.726h-1z"/><path d="m12.636 8.612a.5.5 0 1 0 0-1 .5.5 0 0 0 0 1zm1.514 0a.5.5 0 1 0 0-1 .5.5 0 0 0 0 1z"/></g></svg>