<svg height="18" viewBox="0 0 18 18" width="18" xmlns="http://www.w3.org/2000/svg"><path d="m0 0h18v18h-18z" fill="#115622"/><path d="m9.51 5.73v.97c0 .42-.24.62-.51.64-.27-.02-.51-.22-.51-.64v-.97a.72.72 0 0 0 -.77-.73c-.43 0-.77.49-1.28.49-.52 0-1.13-.15-1.54-.15-.36 0-.75.33-.87.72-.2.64.55 1.14.87 1.63.11.18.2.37.25.58.08.34-.07.69.1 1 .13.25.43.44 1 .28.47-.13.73-.66 1.21-.66.51 0 .77.73.26.97-.45.21-1.18.55-1.28.98-.12.51.25.73.77.97.23.11.45.34.6.6.37.59.17 1.59 1.19 1.59s.83-1 1.18-1.6c.16-.25.38-.48.61-.6.52-.23.9-.45.77-.96-.1-.43-.83-.77-1.28-.98-.51-.24-.25-.97.26-.97.48 0 .74.53 1.2.66.58.16.88-.03 1.01-.28.17-.31.02-.66.1-1 .04-.21.14-.4.25-.58.32-.49 1.06-.99.87-1.63-.12-.4-.5-.72-.87-.72-.4 0-1.02.15-1.54.15-.5 0-.85-.49-1.28-.49a.72.72 0 0 0 -.77.73z" fill="#fff"/></svg>