<svg height="18" width="18" xmlns="http://www.w3.org/2000/svg"><path d="m0 0h18v18h-18z" fill="#f0f3fa"/><path d="m4 5.962.9-.327-.885-1.635z" fill="#231f20"/><path d="m4.567 5.583c.28 0 .506.252.506.553 0 .302-.225.554-.506.554s-.506-.252-.506-.554c0-.301.225-.553.506-.553z" fill="#231f20"/><path d="m5.25 6.5c.256-.176.377-.285.754-.478s.715-.268 1.068-.352c.168-.05.682-.093.722.05.08.184-.112.218-.048.42.064.209 2.16-.303 2.866-.21.86.016 2.248.318 2.248.318-.112.176-.153 1.5.136 2.616.241 1.332 1.004 2.59 1.004 2.59 0 .042-.988-.268-1.814-.235-.827.034-1.325.587-2.409.596-1.076 0-1.244-.403-1.678-.495-.433-.084-1.204.126-1.204.126-.016.008-.257-1.425-.433-2.163-.322-1.367-1.212-2.783-1.212-2.783z" fill="#e71d1c"/><path d="m9.352 6.692c1.06-.058 1.99.83 2.063 1.979.072 1.148-.73 2.13-1.799 2.188-1.06.059-1.99-.83-2.063-1.979-.072-1.14.739-2.129 1.799-2.188z" fill="#fff"/><path d="m9.4 6.952c.747-.042 1.405.746 1.47 1.76.063 1.007-.49 1.862-1.237 1.904s-1.405-.746-1.47-1.76c-.063-1.008.499-1.863 1.237-1.905z" fill="#005a9c"/><path d="m4.426 5.668-.29-1.29.587 1.181-.297.11z" fill="#fff"/><path d="m4.715 6.585 2.594 7.415" stroke="#000" stroke-width=".5"/></svg>