<svg height="18" viewBox="0 0 18 18" width="18" xmlns="http://www.w3.org/2000/svg"><path d="m0 0h18v18h-18z" fill="#f0f3fa"/><path d="m9 3.37a.18.18 0 1 0 0-.37.18.18 0 0 0 0 .37z" fill="#172681"/><path d="m4.88 5.07a.18.18 0 1 0 0-.37.18.18 0 0 0 0 .37zm8.23 0a.18.18 0 1 0 0-.37.18.18 0 0 0 0 .37z" fill="#fdc300"/><path d="m8.98 5.04c.14-.03.24-.11.23-.19-.02-.07-.15-.1-.29-.08-.14.03-.24.12-.22.2.01.07.14.1.28.07z" fill="#172681"/><path d="m8.7 5.12c.22.1.43.05.57-.13.02-.03.04-.02.05 0 .06.1.06.18 0 .27-.17.26-.36.3-.59.1-.07-.05-.09-.12-.07-.21a.03.03 0 0 1 .05-.03z" fill="#172681"/><path d="m6.16 6.55a.14.14 0 0 1 -.18-.07l-.04-.07a.36.36 0 0 1 -.02-.27c.03-.1.1-.17.18-.2l.01-.01a.34.34 0 0 1 .27-.01.36.36 0 0 1 .2.18l.04.08a.14.14 0 0 1 -.07.18zm5.89-.35c-.21-.02-.44.05-.51.25-.04.1-.07.1-.1 0-.18-.6.5-.74.64-.29.01.03 0 .04-.03.04z" fill="#fdc300"/><path d="m11.9 6.56c.12-.06.2-.15.16-.2-.03-.06-.15-.06-.27 0-.12.07-.2.16-.16.21.03.06.15.05.27 0z" fill="#fdc300"/><path d="m8.9 6.57c.11.32.23.54.52.74.02.01.02.03 0 .05-.31.46-1 .17-.96-.36.02-.23.15-.38.4-.45.02 0 .03 0 .04.02zm.57.62c-.16-.1-.44-.41-.44-.61a.05.05 0 0 1 .06-.05c.32.08.47.3.43.63 0 .04-.02.05-.05.03z" fill="#172681"/><path d="m7.8 8c-.04.12-.13.17-.26.14-.7-.17-.52-1.1.2-1.04a.07.07 0 0 1 .06.04c.13.27.13.56 0 .86zm2.87-.73a1.2 1.2 0 0 1 -.75.12.04.04 0 0 1 0-.05c.2-.27.46-.32.75-.15.06.03.06.06 0 .08zm-2.65.41c.02-.14-.02-.28-.04-.42 0-.02 0-.03.02-.02h.02l.01.02a1 1 0 0 1 -.05.77l-.02.02c-.02 0-.03 0-.02-.03zm2.82-.31c.36.94-1.14 1.03-1 .17 0-.03.02-.04.05-.03.32.05.62 0 .9-.16.02 0 .04 0 .05.02zm-1.11 1.27a2.16 2.16 0 0 0 -1.4.92.03.03 0 0 1 -.05-.01c-.73-.96.64-2.09 1.5-1.07a.1.1 0 0 1 -.05.16z" fill="#fdc300"/><path d="m6.65 8.66c.16-.26.55-.26.76-.08.02.03.02.05-.01.06-.24.1-.48.12-.73.07-.03 0-.04-.02-.02-.05zm4.78.34c-.33-.2-.48-.26-.84-.36-.03-.01-.03-.03-.01-.05.35-.32.85-.07.88.39 0 .03 0 .04-.03.02zm-6.31.34a.36.36 0 1 0 0-.71.36.36 0 0 0 0 .71zm8.03-.5a.14.14 0 0 1 .1.17l-.03.08a.39.39 0 0 1 -.18.21.35.35 0 0 1 -.26.03h-.03a.33.33 0 0 1 -.2-.18.37.37 0 0 1 -.01-.28l.02-.08a.14.14 0 0 1 .17-.09zm-5.67-.11c.03-.02.05 0 .06.02.28.63-.57 1.06-.93.53-.08-.12-.1-.27-.05-.45 0-.02.02-.03.04-.02.3.07.6.04.88-.08zm3.02.01c.3.04.66.2.9.4a.05.05 0 0 1 .02.06c-.31.61-1.19.27-.98-.43 0-.02.03-.03.05-.03zm-7.32.43a.18.18 0 1 0 0-.37.18.18 0 0 0 0 .37zm11.63 0a.19.19 0 1 0 0-.37.19.19 0 0 0 0 .37z" fill="#172681"/><path d="m9.62 9.53c-.15.03-.3.14-.45.32a.1.1 0 0 1 -.07.04c-.18.02-.36-.01-.52-.08-.03-.02-.04-.04-.02-.06a1.91 1.91 0 0 1 1.32-.83.06.06 0 0 1 .04.03v.02c0 .22-.04.5-.3.56zm-1.67 1.17a.22.22 0 0 1 -.25.19l-.16-.03a.52.52 0 0 1 -.34-.2.51.51 0 0 1 .11-.73.52.52 0 0 1 .39-.1l.16.03a.22.22 0 0 1 .18.25l-.1.6zm2.42.18a.53.53 0 1 0 0-1.06.53.53 0 0 0 0 1.06z" fill="#fdc300"/><path d="m9.06 11.37c-.16-.3-.2-.61-.1-.94l.01-.03.04-.01c.6.04.71.87.15 1.03-.05 0-.08 0-.1-.05z" fill="#172681"/><path d="m8.94 11.4c.02.04.01.05-.02.04-.53-.07-.62-.77-.13-1.01.04-.02.05 0 .04.03-.07.33-.03.65.11.95z" fill="#172681"/><path d="m5.95 11.7v.01h-.01c-.03-.04-.03-.09-.01-.14s.06-.1.11-.13l.02-.01a.38.38 0 0 1 .08-.05.28.28 0 0 1 .09-.02l.07.01a.1.1 0 0 1 .05.04.01.01 0 0 1 0 .02l-.4.28zm5.85.32a.13.13 0 0 1 -.17.04l-.06-.03a.37.37 0 0 1 -.17-.22.34.34 0 0 1 .03-.26v-.01a.34.34 0 0 1 .22-.16c.1-.02.2 0 .28.04l.06.03a.13.13 0 0 1 .04.19l-.22.38zm-5.86-.21a1.24 1.24 0 0 0 .53-.35h.02l.01.03v.02a1 1 0 0 1 -.55.36.03.03 0 0 1 -.03-.02.03.03 0 0 1 .02-.04zm.64-.19h.01l.04.1c0 .03 0 .06-.02.1a.35.35 0 0 1 -.06.1.43.43 0 0 1 -.09.08l-.01.01a.4.4 0 0 1 -.23.08c-.08 0-.14-.03-.17-.09z" fill="#fdc300"/><path d="m9.04 12.54a.01.01 0 0 1 0-.03c.09 0 .16.02.2.1h.01a.02.02 0 0 1 -.02.02l-.2-.1zm.26.26a.11.11 0 0 1 .05.16l-.03.06a.38.38 0 0 1 -.22.17.35.35 0 0 1 -.27-.02.34.34 0 0 1 -.18-.22.37.37 0 0 1 .04-.28l.03-.06a.11.11 0 0 1 .12-.06l.04.02.43.23z" fill="#172681"/><path d="m4.89 13.27a.18.18 0 1 0 0-.36.18.18 0 0 0 0 .36zm8.35-.27a.03.03 0 0 1 .04.03.18.18 0 0 1 0 .14.18.18 0 0 1 -.11.09h-.02a.18.18 0 0 1 -.22-.12v-.03l.02-.02.3-.08z" fill="#fdc300"/><path d="m8.9 14.93h-.01a.14.14 0 0 1 -.07-.08.18.18 0 0 1 0-.13l.02-.02a.18.18 0 0 1 .09-.1.14.14 0 0 1 .11 0 .01.01 0 0 1 .01.02l-.14.31zm.16.04c-.04.05-.05.04-.03-.02l.08-.22a.03.03 0 0 1 .06 0v.02c0 .08-.04.16-.1.22z" fill="#172681"/></svg>