<svg height="18" viewBox="0 0 18 18" width="18" xmlns="http://www.w3.org/2000/svg"><path d="m0 0h18v18h-18z" fill="#f0f3fa"/><g fill-rule="evenodd"><path d="m12 6h-6v6h6zm-4.06 4.75c.37.17.78.25 1.22.25.41 0 .76-.05 1.04-.16.29-.11.56-.28.82-.51.01-.02.04-.02.07 0l.1.04.07-.07-.92-.64-.08.08c.02 0 .04.02.05.05l.03.05v.02c-.17.15-.34.26-.52.33s-.4.1-.66.1a1.8 1.8 0 0 1 -.77-.16 1.49 1.49 0 0 1 -.57-.45 1.21 1.21 0 0 1 -.02-1.38c.14-.2.33-.35.56-.47.24-.11.5-.17.78-.17a1.84 1.84 0 0 1 1.22.43c.02 0 .02.02 0 .05a.14.14 0 0 1 -.05.05l.07.07.86-.55-.08-.07a.37.37 0 0 1 -.13.04h-.03a2.69 2.69 0 0 0 -1.88-.68c-.43-.01-.83.07-1.2.24-.35.16-.64.4-.86.7a1.87 1.87 0 0 0 0 2.1c.22.29.5.53.88.7z" fill="#27432a"/><path d="m13 5h-8v8h8zm-9-1v10h10v-10z" fill="#9e5425"/></g></svg>