<svg height="18" width="18" xmlns="http://www.w3.org/2000/svg"><path d="m0 0h18v18h-18z" fill="#5d2482"/><path d="m8.303 6.015c-2.093.092-3.961.574-5.13 1.324-.523.334-.906.74-1.063 1.123-.087.208-.11.322-.11.538 0 .239.03.368.139.602.474 1.016 2.174 1.863 4.46 2.221a14.13 14.13 0 0 0 2.155.175c1.174.017 2.173-.068 3.207-.277 2.522-.507 4.11-1.603 4.037-2.79-.024-.372-.186-.71-.502-1.046-.574-.61-1.573-1.113-2.892-1.456-1.268-.329-2.823-.48-4.3-.414z" fill="#fff"/><path d="m10.808 7.5-.5.636s-.366-.31-1.096-.31c-.977 0-1.442 1.507-.712 2.126.584.496 1.334.207 1.577 0l.353.902c-.608.413-2.148.525-3.026-.592-.826-1.051-.168-2.715 1.096-3.262 1.5-.527 2.308.5 2.308.5z" fill="#5d2482"/></svg>