<svg height="18" viewBox="0 0 18 18" width="18" xmlns="http://www.w3.org/2000/svg"><path d="m0 0h18v18h-18z" fill="#f0f3fa"/><circle cx="11.06" cy="6.94" fill="#76bc25" opacity=".5" r="3.94"/><circle cx="6.94" cy="11.06" fill="#1c9432" opacity=".5" r="3.94"/><circle cx="11.06" cy="11.06" fill="#2ab1b1" opacity=".5" r="3.94"/><circle cx="6.94" cy="6.94" fill="#12509c" opacity=".5" r="3.94"/><path d="m6.75 11.52v-.65h-.56c.16.24.35.46.56.65zm-.67-.83h.67v-1.57h-1.12c.02.57.18 1.1.45 1.57zm-.46-1.79h1.13v-1.4h-.78c-.2.43-.33.9-.35 1.4zm.46-1.6h.67v-.83c-.27.24-.5.52-.67.83zm.86 4.36c.54.43 1.23.68 1.97.7v-1.5h-1.97zm2.15.7a3.36 3.36 0 0 0 1.97-.7v-.8h-1.96v1.5zm2.16-.85c.21-.2.4-.4.56-.65h-.56zm.67-.83c.27-.47.43-1 .45-1.57h-1.12v1.57zm.45-1.78c0-.5-.13-.98-.34-1.41h-.78v1.4h1.12zm-.45-1.6a3.4 3.4 0 0 0 -.67-.83v.83zm-.86-.98a3.36 3.36 0 0 0 -1.97-.7v1.68h1.97zm-2.15-.7c-.74.02-1.43.27-1.97.7v.98h1.96v-1.67zm2.15 3.5v1.56h-1.96v-1.56h1.97zm0-1.63v1.4h-1.96v-1.39h1.97zm-4.12 0v1.4h1.96v-1.39h-1.96zm0 1.62v1.57h1.96v-1.56h-1.96z" fill="#eef1f8"/></svg>