<svg fill="none" height="18" width="18" xmlns="http://www.w3.org/2000/svg" xmlns:xlink="http://www.w3.org/1999/xlink"><linearGradient id="a"><stop offset="0" stop-color="#ffa730"/><stop offset=".173" stop-color="#ba4437"/></linearGradient><linearGradient id="b" gradientUnits="userSpaceOnUse" x1="10.671" x2="14.7" xlink:href="#a" y1="11.69" y2="13.848"/><linearGradient id="c"><stop offset="0" stop-color="#8e0234" stop-opacity="0"/><stop offset=".386" stop-color="#8e0234"/><stop offset="1" stop-color="#8e0234" stop-opacity="0"/></linearGradient><linearGradient id="d" gradientUnits="userSpaceOnUse" x1="10.855" x2="13.035" xlink:href="#c" y1="12.156" y2="13.256"/><linearGradient id="e" gradientUnits="userSpaceOnUse" x1="7.671" x2="11.7" xlink:href="#a" y1="6.447" y2="8.605"/><linearGradient id="f" gradientUnits="userSpaceOnUse" x1="7.855" x2="10.035" xlink:href="#c" y1="6.914" y2="8.013"/><linearGradient id="g" gradientUnits="userSpaceOnUse" x1="11.298" x2="7.283" y1="8.82" y2="10.813"><stop offset=".859" stop-color="#f5821f"/><stop offset="1" stop-color="#ffc34a"/></linearGradient><linearGradient id="h" gradientUnits="userSpaceOnUse" x1="4.671" x2="8.7" xlink:href="#a" y1="11.69" y2="13.848"/><linearGradient id="i" gradientUnits="userSpaceOnUse" x1="4.855" x2="7.035" xlink:href="#c" y1="12.156" y2="13.256"/><path d="m0 0h18v18h-18z" fill="#f0f3fa"/><path d="m12 9.242 2.598 4.758h-5.196z" fill="url(#b)"/><path d="m12 9.242 2.598 4.758h-5.196z" fill="url(#d)"/><path d="m9 4 2.598 4.737h-5.196z" fill="url(#e)"/><path d="m9 4 2.598 4.737h-5.196z" fill="url(#f)"/><path d="m9 13.79 2.598-4.79h-5.196z" fill="url(#g)"/><path d="m6 9.242 2.598 4.758h-5.196z" fill="url(#h)"/><path d="m6 9.242 2.598 4.758h-5.196z" fill="url(#i)"/></svg>