<svg height="18" width="18" xmlns="http://www.w3.org/2000/svg"><path d="m0 0h18v18h-18z" fill="#f0f3fa"/><path d="m10.83 4h-3.66l1.83 3z" fill="#fab046"/><path d="m9 7h-3.67l1.83-3z" fill="#fde78b"/><path d="m7.17 10h-3.67l1.83-3z" fill="#f7adad"/><path d="m9 13h-3.67l1.83-3z" fill="#e6408b"/><path d="m14.5 10h-3.67l1.83-3z" fill="#cbeaf1"/><path d="m12.67 7h-3.67l1.83-3z" fill="#f0eb70"/><path d="m12.67 13h-3.67l1.83-3z" fill="#9880ba"/><path d="m9 7h-3.67l1.83 3z" fill="#f2746b"/><path d="m7.17 10h-3.67l1.83 3z" fill="#f071a7"/><path d="m12.67 7h-3.67l1.83 3z" fill="#a0dae6"/><path d="m10.83 10h-3.66l1.83 3z" fill="#cb2127"/><path d="m14.5 10h-3.67l1.83 3z" fill="#8597cc"/></svg>