<svg height="18" width="18" xmlns="http://www.w3.org/2000/svg"><path d="m0 0h18v18h-18z" fill="#f0f3fa"/><path d="m3.94 11a1.9 1.9 0 0 0 1.42-.65l-.42-.4c-.25.3-.62.5-1.03.5-.76 0-1.36-.64-1.36-1.45s.6-1.45 1.36-1.45c.35 0 .67.14.9.37l.48-.35a1.9 1.9 0 0 0 -1.35-.57c-1.07 0-1.94.9-1.94 2s.87 2 1.94 2zm4.66-3.55c-.1-.14-.45-.44-1.02-.45-.7-.02-1.3.46-1.3 1.11.01.65.54.99.98 1.13l.18.06c.36.1.67.2.7.61.02.48-.52.56-.75.56-.24 0-.66-.1-.85-.4l-.33.4c.09.17.46.5 1.18.53.9.03 1.27-.67 1.26-1.09 0-.42-.19-.84-.9-1.08-.72-.24-.9-.36-.92-.72-.03-.35.27-.6.75-.6.42 0 .59.23.64.33zm3.89-.45h-3.12v.54h1.29v3.46h.57v-3.46h1.26zm1.06 0h.6v3.43h1.85v.57h-2.45z" fill="#084e8b"/></svg>