<svg fill="none" height="18" width="18" xmlns="http://www.w3.org/2000/svg" xmlns:xlink="http://www.w3.org/1999/xlink"><linearGradient id="a" gradientUnits="userSpaceOnUse" x1="6.813" x2="12.125" y1="4" y2="13.375"><stop offset="0" stop-color="#0039ef"/><stop offset=".959" stop-color="#00d0ea"/></linearGradient><linearGradient id="b" gradientUnits="userSpaceOnUse" x1="6.208" x2="12.085" y1="4.891" y2="13.032"><stop offset="0" stop-color="#00d0ea"/><stop offset="1" stop-color="#0039ef"/></linearGradient><path d="m0 0h18v18h-18z" fill="#f0f3fa"/><path d="m7 9h-3v-5h.594c1.331 0 2.406.921 2.406 2.033zm4 0h3v5h-.594c-1.331 0-2.406-.921-2.406-2.033z" fill="#0039ef"/><path d="m9 4a5 5 0 0 0 -5 5h3c0-1 1-2 2-2s2 1 2 2l-.059 3.246c0 .421.341.712.606 1.04 1.559-.903 2.452-2.582 2.453-4.284v-.002a5 5 0 0 0 -5-5z" fill="url(#a)"/><g fill="url(#b)"><path d="m4 8.995c.002-1.7.967-3.474 2.419-4.272.296.332.581.888.581 1.31v2.967c0 1 1 2 2 2s1.999-.999 2-1.998v3.13c0 .4.327.833.57 1.145-.304.22-1.331.723-2.57.723a5 5 0 0 1 -5-5z"/><path d="m14 9.006v-.006.01"/></g></svg>