<svg height="18" width="18" xmlns="http://www.w3.org/2000/svg"><path d="m0 0h18v18h-18z" fill="#f0f3fa"/><path d="m14.44 8.34a4.45 4.45 0 0 0 -.8-2.34c.78.8 1.36 1.99 1.36 3.13 0 2.46-2.47 3.86-4.6 4.21-2.3.39-4.4-.34-4.4-.34s2.05.32 4.27-.23 4.07-2.1 4.17-4.43z" fill="#112f7e"/><path d="m3.65 9.62c-.04 1.17 1 2.46 1 2.46a4.04 4.04 0 0 1 -1.65-3.13c0-2.49 2.53-3.82 4.65-4.24a9.3 9.3 0 0 1 3.35 0c-2.92-.13-7.24 1.46-7.35 4.9z" fill="#2695b0"/><path d="m8.48 11 1.25-4h2.32s.95.05.95.91-.74 1.08-.74 1.08.6.12.5.94c-.12.82-.94 1.07-1.55 1.07zm1.8-2.5.17-.5h1.39s.16.06.16.21c0 .16-.13.31-.3.29h-1.43zm-.23 1-.17.5h1.42s.22-.02.29-.25c.06-.22-.15-.25-.15-.25z" fill="#112f7e" fill-rule="evenodd"/><circle cx="12.51" cy="5.04" fill="#2695b0" r=".49"/><path d="m6.99 7h2.31l-.3 1h-2.03c-.27 0-.43.12-.54.34l-.42 1.08a.4.4 0 0 0 -.02.13c0 .22.17.45.38.45h1.99l-.31 1h-1.7c-.94 0-1.59-.91-1.27-1.78l.21-.6.25-.63c.22-.59.8-.99 1.46-.99z" fill="#192e7f"/></svg>