<svg height="18" width="18" xmlns="http://www.w3.org/2000/svg"><path d="m0 0h18v18h-18z" fill="#1d2953"/><path d="m12.008 7.938-.814-.805.814-.806.815.806zm.001-2.328-.814-.805.815-.805.814.805zm1.177 1.165-.815-.805.453-.447.361-.358.815.805z" fill="#33b540"/><path d="m8.42 12.773c-1.819 0-3.001-1.448-3.001-3.567 0-2.12 1.242-3.568 3.044-3.568 1.324 0 1.912.663 2.37 1.136l.813-.806c-.435-.44-1.3-1.514-3.226-1.514-2.38 0-4.42 1.77-4.42 4.767 0 2.996 1.833 4.779 4.36 4.779 1.88 0 2.9-.985 3.3-1.49l-.844-.836a3.131 3.131 0 0 1 -2.396 1.098z" fill="#fff"/></svg>