<svg height="18" viewBox="0 0 18 18" width="18" xmlns="http://www.w3.org/2000/svg"><path d="m0 0h18v18h-18z" fill="#f0f3fa"/><path d="m8.5 8.33h-.62a.78.78 0 0 0 -.1-.27.81.81 0 0 0 -.18-.23.71.71 0 0 0 -.24-.15.84.84 0 0 0 -.3-.05.8.8 0 0 0 -.48.16c-.15.1-.26.26-.34.47-.08.2-.12.45-.12.74 0 .3.04.55.12.75s.2.36.34.46.3.16.49.16c.1 0 .2-.02.28-.05a.75.75 0 0 0 .43-.36.85.85 0 0 0 .1-.3h.62a1.63 1.63 0 0 1 -.45.95 1.36 1.36 0 0 1 -1 .39c-.29 0-.56-.08-.8-.24a1.6 1.6 0 0 1 -.55-.68 2.6 2.6 0 0 1 -.2-1.08c0-.42.07-.78.2-1.08.14-.3.33-.52.56-.68a1.5 1.5 0 0 1 1.33-.15 1.4 1.4 0 0 1 .75.7c.08.17.13.33.16.54zm3.38 0h.62a1.57 1.57 0 0 0 -.48-.97c-.12-.12-.27-.2-.43-.27a1.5 1.5 0 0 0 -1.33.15 1.6 1.6 0 0 0 -.56.68c-.13.3-.2.66-.2 1.08s.07.78.2 1.08c.14.3.32.52.56.68.23.16.5.24.8.24a1.36 1.36 0 0 0 .99-.4 1.64 1.64 0 0 0 .45-.94h-.62a.85.85 0 0 1 -.53.66.88.88 0 0 1 -.77-.1c-.14-.11-.26-.26-.34-.47-.08-.2-.12-.45-.12-.75s.04-.54.12-.74.2-.36.34-.47a.8.8 0 0 1 .49-.16c.1 0 .2.02.29.05.1.03.17.08.24.15a.8.8 0 0 1 .18.23c.05.09.08.16.1.27zm3.5 0h.62a1.57 1.57 0 0 0 -.48-.97c-.12-.12-.27-.2-.43-.27a1.5 1.5 0 0 0 -1.33.15 1.6 1.6 0 0 0 -.56.68c-.13.3-.2.66-.2 1.08s.07.78.2 1.08c.14.3.32.52.56.68.23.16.5.24.8.24a1.36 1.36 0 0 0 .99-.4 1.64 1.64 0 0 0 .45-.94h-.62a.85.85 0 0 1 -.53.66.88.88 0 0 1 -.77-.1c-.14-.11-.26-.26-.34-.47-.08-.2-.12-.45-.12-.75s.04-.54.12-.74.2-.36.34-.47a.8.8 0 0 1 .49-.16c.1 0 .2.02.29.05.1.03.17.08.24.15a.8.8 0 0 1 .18.23c.05.09.08.16.1.27zm-11 0h.62a1.57 1.57 0 0 0 -.48-.97c-.12-.12-.27-.2-.43-.27a1.5 1.5 0 0 0 -1.33.15 1.6 1.6 0 0 0 -.56.68c-.13.3-.2.66-.2 1.08s.07.78.2 1.08c.14.3.32.52.56.68.23.16.5.24.8.24a1.36 1.36 0 0 0 .99-.4 1.63 1.63 0 0 0 .45-.93h-.62a.85.85 0 0 1 -.53.66.88.88 0 0 1 -.77-.1c-.14-.11-.26-.26-.34-.47-.08-.2-.12-.45-.12-.75s.04-.54.12-.74.2-.36.34-.47a.8.8 0 0 1 .49-.16c.1 0 .2.02.29.05.1.03.17.08.24.15.07.06.13.14.18.23s.08.16.1.27z"/></svg>