<svg height="18" viewBox="0 0 18 18" width="18" xmlns="http://www.w3.org/2000/svg"><path d="m0 0h18v18h-18z" fill="#f0f3fa"/><path d="m11.66 4-7.66 2.6 2.34 7.4 3.93-1.33c-1.78.24-3.97-.12-4.52-2.84-.65-3.33 2.69-4.16 4.45-4.16l.55 1.39c-1.3.09-3.33.83-2.77 2.77.55 1.95 2.77 1.4 3.88.84l.52 1.28 1.62-.55z" fill="#ffb202"/><path d="m13.44 5.11h-7.77v3.9c0-2.65 2.92-3.34 4.53-3.34l.55 1.39c-1.3.09-3.33.83-2.78 2.77.56 1.95 2.78 1.4 3.9.84l.55 1.39c-1.12.54-5.83 1.94-6.67-2.23-.06-.29-.08-.56-.08-.82v3.88h7.77v-7.79z" fill="#e8151f"/><path d="m11.2 10.94c-.71-.01-2.25-.2-2.67-.83-.48-.72-.13-2.05.5-2.59a2.84 2.84 0 0 0 -.61.44c-.45.43-.68 1.04-.45 1.87.46 1.61 2.06 1.51 3.23 1.11z" fill="#fd7f3c"/></svg>