<svg height="18" width="18" xmlns="http://www.w3.org/2000/svg"><path d="m0 0h18v18h-18z" fill="#e31836"/><path d="m5.833 9.378c-.312 1.163-1.262 1.622-2.219 1.622-1.352 0-1.803-.812-1.544-2.016.217-1.183 1.106-1.984 2.41-1.984.974 0 1.715.39 1.462 1.696h-1.402c.089-.621-.054-.705-.24-.703-.396 0-.52.399-.65 1.007-.125.577-.185 1.007.2 1.007.197 0 .355-.116.549-.629zm2.007-1.47h.15c.245 0 .37.094.433.255.067.166.041.449-.038.837-.08.388-.17.67-.305.837a.64.64 0 0 1 -.538.255h-.15zm-2.127 3.092h1.9c1.186 0 2.098-.747 2.346-1.956.243-1.186-.074-2.044-1.619-2.044h-1.808zm4.584-4h1.367l-.189 2.511h.01l.874-2.511h1.58l-.156 2.511h.011l.839-2.511h1.367l-1.652 4h-1.656l.174-2.595h-.01l-.891 2.595h-1.655l-.014-4z" fill="#fff"/></svg>