<svg fill="none" height="18" width="18" xmlns="http://www.w3.org/2000/svg"><path d="m0 0h18v18h-18z" fill="#f0f3fa"/><g clip-rule="evenodd" fill-rule="evenodd"><path d="m9 4c-.571 0-.714.588-1.26.588s-1-.2-1.418-.088c-.418.125-.697.85-1.01 1.025-.314.188-1.092.162-1.313.575-.22.413-.197 1.013-.325 1.45-.128.438-.674.725-.674 1.337 0 .613.511.938.662 1.525.151.588.035 1.013.244 1.338.21.325 1.034.35 1.382.7.349.35.488.813.953 1 .465.188 1.01-.125 1.475-.037.465.087.883.575 1.22.587h.128c.337-.012.767-.488 1.22-.588s.999.225 1.475.038c.465-.188.616-.65.952-1 .349-.35 1.174-.375 1.383-.7s.093-.75.244-1.338c.15-.587.662-.912.662-1.525 0-.612-.546-.887-.674-1.337s-.104-1.037-.325-1.45c-.22-.412-.987-.387-1.313-.575-.313-.188-.592-.913-1.01-1.025-.419-.125-.872.088-1.418.088-.298 0-.689-.588-1.26-.588z" fill="#fe6b04"/><path d="m8 7v1.23h-.333s-.211-.922-.795-.922c-.608-0-.872.882-.872 1.422v.69c0 .314.202 1.229.798 1.229.595 0 .82-.403.869-.88h.333v1.231h-.333s.035-.175-.163-.175-.284.175-.806.175c-.52 0-1.698-.527-1.698-1.868 0-1.342.756-2.132 1.736-2.132.421 0 .546.238.72.226.173-.013.21-.226.21-.226zm2.846 0-1.538 3.692h-.308v.308h1.5v-.308h-.73l.318-.923h1.276l.276.923h-.627l-.013.308h2v-.308h-.397l-1.143-3.692h-.615zm.462 2.461-.462-1.461-.615 1.461z" fill="#f0f3fa"/></g></svg>