<svg fill="none" height="18" viewBox="0 0 18 18" width="18" xmlns="http://www.w3.org/2000/svg"><path d="m0 0h18v18h-18z" fill="#f0f3fa"/><path d="m11.4068 13.5769c-.6316.2813-1.3569.4231-2.18039.4231-.75097 0-1.44346-.1205-2.07746-.3616-.63634-.2411-1.18612-.5838-1.65402-1.0258-.46556-.442-.83286-.9714-1.09722-1.5883-.26436-.6168-.39771-1.29516-.39771-2.0373 0-.75869.13569-1.44647.40473-2.06334.26904-.61688.64336-1.14158 1.11828-1.5741.47491-.43252 1.03405-.76577 1.67273-.99976.64102-.23162 1.33116-.3498 2.07044-.3498.68547 0 1.35922.11818 2.02362.35453.6621.23635 1.2002.58378 1.6119 1.03994l-1.5908 1.55519c-.4521-.6074-1.2649-.94966-1.99272-.94966-1.60771 0-2.81818 1.38273-2.81818 3.00119 0 1.61231 1.20524 2.99881 2.81818 2.99881.78932 0 1.56492-.4082 2.04882-1.0655l1.633 1.5009c-.4328.4797-.9615.8603-1.5932 1.1415z" fill="#41669b"/></svg>