<svg height="18" viewBox="0 0 18 18" width="18" xmlns="http://www.w3.org/2000/svg"><path d="m0 0h18v18h-18z" fill="#f0f3fa"/><path d="m11.91 13.06c-1.87 0-3.4-1.82-3.4-4.06s1.53-4.06 3.4-4.06c.79 0 1.51.32 2.09.86a3.94 3.94 0 0 0 -3.21-1.8c-2.31 0-4.19 2.24-4.19 5s1.87 5 4.18 5c1.29 0 2.44-.7 3.21-1.8-.58.54-1.3.86-2.09.86zm-7.21-4.06c0-1.44.52-2.74 1.34-3.67a4.06 4.06 0 0 0 -2.04 3.67c0 1.65.84 3.07 2.03 3.67a5.51 5.51 0 0 1 -1.33-3.67zm3.69-4.6a5.66 5.66 0 0 0 -2.21 4.6c0 1.95.88 3.65 2.2 4.6-1.85-.36-3.26-2.28-3.26-4.6s1.4-4.24 3.26-4.6z" fill="#436ab3"/></svg>