<svg height="18" viewBox="0 0 18 18" width="18" xmlns="http://www.w3.org/2000/svg"><path d="m0 0h18v18h-18z" fill="#134f36"/><path d="m9.02 13.94a4.96 4.96 0 1 0 0-9.92 4.96 4.96 0 0 0 0 9.92z" fill="#fff"/><g fill="#00a851"><path d="m11.6 9.35c-.39-.32-1-.15-1.42 0-.16.05-.38.15-.5-.02-.05-.08-.04-.17-.01-.25.06-.14.18-.15.31-.17.55.09 1.24.15 1.61-.3.17-.2.23-.5.17-.77-.07-.27-.35-.47-.57-.6-.34-.11-.39-.52-.68-.71a.96.96 0 0 0 -.98-.02c-.43.3-.25.88-.24 1.34-.01.18.02.4-.11.54-.05.03-.1 0-.12-.05-.2-.46.04-1.11-.25-1.53a1.3 1.3 0 0 0 -.42-.57c-.39-.11-.75.14-.96.4-.24.54-1.07.43-1.2 1.08-.05.25 0 .52.18.7.5.52 1.27.12 1.9.23.06.02.14.09.12.17a.3.3 0 0 1 -.12.2c-.62.34-1.46-.29-1.92.3a.74.74 0 0 0 -.15.61c.05.43.55.55.78.85.12.2.25.44.4.59.25.21.63.31.95.21.45-.3.3-1.03.2-1.49-.02-.07 0-.17.06-.22.07-.04.17-.05.21.04.1.38 0 .8-.03 1.2-.07.21-.11.5-.33.62.21.03.46.04.66.03-.15-.56-.04-1.2-.02-1.78.03-.05.07-.13.15-.09.1.05.1.14.11.22-.04.36-.17.75-.04 1.1.14.31.47.44.8.42.31.02.5-.2.64-.46.23-.37.73-.38.95-.8.1-.31.16-.8-.13-1.02zm-2.15.63c-.16-.25-.35-.5-.48-.78-.8.2-1.43.85-1.73 1.57-.08-.54.3-.9.65-1.25.27-.23.58-.43.9-.58a2.73 2.73 0 0 0 -1.59-1.78c.38-.07.7.17.96.39l.41.44c.19.23.34.48.48.75.68-.12 1.18-.63 1.54-1.18.06-.13.15-.24.18-.38.06.2-.02.44-.12.62a3.5 3.5 0 0 1 -1.41 1.23 2.7 2.7 0 0 0 1.58 1.75c-.61.09-1.02-.42-1.38-.8z" fill-opacity=".8"/><path d="m9 4a5 5 0 1 0 .01 10.01 5 5 0 0 0 -.01-10.01zm0 9.78a4.79 4.79 0 1 1 .01-9.57 4.79 4.79 0 0 1 -.01 9.57z"/><path d="m9 12.45a3.47 3.47 0 1 0 0-6.93 3.47 3.47 0 0 0 0 6.93zm0 1a4.47 4.47 0 1 0 0-8.93 4.47 4.47 0 0 0 0 8.93z" fill-opacity=".6" fill-rule="evenodd"/></g></svg>