<svg height="18" viewBox="0 0 18 18" width="18" xmlns="http://www.w3.org/2000/svg"><path d="m0 0h18v18h-18z" fill="#f0f3fa"/><path d="m3 8.86a3.04 3.04 0 0 0 2.9 3.14c.55.02 1.62-.13 1.97-.67-.16-.25-.67-.89-.77-1.08-.45.25-.42.39-1.23.39-.91 0-1.57-.86-1.56-1.78 0-.91.78-1.5 1.56-1.49 1.04 0 1.43.54 2 1.44.37-.04.82-.48 1.13-.67-.52-1.02-1.57-2.14-3-2.14-1.55 0-3 1.04-3 2.86z" fill="#564098"/><path d="m15 9.14a3.04 3.04 0 0 0 -2.9-3.14c-.55-.02-1.62.13-1.97.67.16.25.67.89.77 1.08.45-.25.42-.39 1.23-.39.91 0 1.57.86 1.56 1.78 0 .91-.78 1.5-1.56 1.49-1.04 0-1.43-.54-2-1.44-.37.04-.82.48-1.13.67.52 1.02 1.57 2.14 3 2.14 1.55 0 3-1.04 3-2.86z" fill="#1c9ba1"/></svg>