<svg height="18" width="18" xmlns="http://www.w3.org/2000/svg"><path d="m0 0h18v18h-18z" fill="#f0f3fa"/><g fill="#4c9744" fill-opacity=".3" fill-rule="evenodd"><path d="m9 15a6 6 0 1 0 0-12 6 6 0 0 0 0 12zm0-2.58a3.42 3.42 0 1 0 0-6.84 3.42 3.42 0 0 0 0 6.84z" opacity=".2"/><path d="m9 15a6 6 0 1 0 0-12 6 6 0 0 0 0 12zm0-1.7a4.3 4.3 0 1 0 0-8.6 4.3 4.3 0 0 0 0 8.6z" opacity=".6"/><path d="m9 15a6 6 0 1 0 0-12 6 6 0 0 0 0 12zm0-.77a5.23 5.23 0 1 0 0-10.46 5.23 5.23 0 0 0 0 10.46z"/></g><path d="m6.87 11.13a2.88 2.88 0 0 1 -.87-2.13c0-.84.3-1.56.87-2.13a2.9 2.9 0 0 1 2.13-.87c.94 0 1.76.4 2.3 1.1l-.68.67a2 2 0 0 0 -1.6-.77c-1.15 0-2.02.87-2.02 2 0 1.18.82 2 2.02 2 .7 0 1.3-.28 1.67-.81l.7.6a2.93 2.93 0 0 1 -2.39 1.21 2.9 2.9 0 0 1 -2.13-.87z" fill="#0e4a93"/></svg>