<svg height="18" viewBox="0 0 18 18" width="18" xmlns="http://www.w3.org/2000/svg"><path d="m18 0h-18v18h18z" fill="#f0f3fa"/><path d="m13.42 8a.47.47 0 1 0 -.29-.9l-2.7 1.37 3-.48zm-.29 2.8a.48.48 0 0 0 .3-.9l-3-.48zm-1.89 2.1c.15.21.45.26.66.1.21-.15.22-.4.07-.6l-2.14-2.14 1.4 2.64zm-2.75.59a.47.47 0 1 0 .95 0l-.48-3zm-2.54-1.11c-.15.21-.15.47.06.62.22.15.51.1.67-.1l1.4-2.64zm-1.45-2.48a.47.47 0 0 0 .29.9l2.7-1.38-3 .48zm.29-2.8a.47.47 0 1 0 -.3.9l3 .47-2.7-1.38zm1.89-2.11a.47.47 0 0 0 -.66-.1c-.21.15-.24.44-.13.55l2.2 2.19-1.4-2.64zm2.75-.59a.47.47 0 0 0 -.95 0h.01l.47 3zm2.53 1.1a.43.43 0 0 0 -.1-.62c-.2-.16-.46-.1-.61.11l-1.41 2.65 2.12-2.13z" fill="#da1f3d"/></svg>