<svg height="18" viewBox="0 0 18 18" width="18" xmlns="http://www.w3.org/2000/svg"><path d="m0 0h18v18h-18z" fill="#db2532"/><path d="m7.96 6.5a4.69 4.69 0 0 1 4.13-.58c.47.17.92.43 1.3.77h.24a2.89 2.89 0 0 1 .37-1.13c-.23-.08-.46-.16-.68-.21-.27-.06-.56-.14-.86-.19-.29-.05-.62-.08-.93-.1-.31-.03-.62-.06-.91-.06-2.44 0-6.76.66-6.62 4.26 0 3.15 4.07 3.78 6.15 3.74 1.14.02 2.29-.18 3.4-.5a2 2 0 0 1 .12-.48c.07-.15.14-.3.23-.44l-.2-.08c-.2.13-.41.25-.63.34a6.95 6.95 0 0 1 -1.58.42 5.35 5.35 0 0 1 -2.24-.13 4.04 4.04 0 0 1 -1.25-.58c-.37-.25-.68-.6-.91-1a2.72 2.72 0 0 1 -.36-1.47 3.05 3.05 0 0 1 1.23-2.58z" fill="#fff"/></svg>