<svg height="18" viewBox="0 0 18 18" width="18" xmlns="http://www.w3.org/2000/svg"><path d="m0 0h18v18h-18z" fill="#c40c16"/><path d="m3.88 7.8c-.74 0-.96 1-.98 1.5 0 .54.22.96.82.96.48 0 .96-.23 1.14-.35-.28-1.45.66-2.91 1.47-2.91.64 0 .83.73.84 1.05 0 .93-.88 1.7-1.32 1.98-.01.1.07.28.48.28.46 0 .77-.37.83-.44l.01-.01.01-.02c.05-.06.18-.22.33-.15s.13.29.1.4c-.21.37-.64.91-1.4.91-.6 0-.98-.33-1.1-.5-.43.4-1.23.5-1.58.5-1.2-0-1.53-1-1.53-1.5 0-1.8 1.2-2.5 1.88-2.5.31 0 .57.16.73.32.12.11.12.32.01.46-.11.17-.32.18-.49.1a.8.8 0 0 0 -.25-.09zm2.36.08c-.48 0-.62 1-.63 1.5.34-.24.88-.87.88-1.16 0-.24-.16-.32-.25-.34zm2.69-.12c0-.16-.22-.19-.32-.18-.65 0-.71.83-.76 1.5v.05c-.06.68.05 1.45.63 1.45.46 0 .96-.73 1.16-1.1.18 1.3.9 1.55 1.23 1.52.99 0 1.26-1.56 1.28-2.34.09.17.46.41.63.5-.06.51.1 1.84 1.27 1.84 1.16 0 1.95-1.22 1.95-1.48 0-.25-.12-.32-.21-.32-.07 0-.15.1-.17.14-.2.26-.76.77-1.35.77-.58 0-.68-.47-.66-.7a1.37 1.37 0 0 0 1.65-1.25c0-.15-.07-1.16-.92-1.16-.68 0-1.25 1-1.45 1.45-.44-.33-.65-.78-.73-.94l-.01-.04a1.26 1.26 0 0 1 -.04-.1c-.06-.14-.14-.37-.29-.37-.18 0-.37.2-.49.34-.09.1-.02.3.03.39.05.08.16.37.16.93 0 .7-.19 1.54-.63 1.54s-.5-1.02-.5-1.43c0-.4-.26-.56-.53-.56-.2 0-.46.44-.63.72l-.11.2c-.14.2-.51.68-.51.05 0-.4.13-.78.22-1.06.05-.16.1-.29.1-.36zm5.73.37c0-.27-.2-.34-.3-.33-.32 0-.59.61-.69.93.6.09.99-.26.99-.6z" fill="#fff" fill-rule="evenodd"/></svg>