<svg height="18" viewBox="0 0 18 18" width="18" xmlns="http://www.w3.org/2000/svg"><path d="m0 0h18v18h-18z" fill="#f0f3fa"/><path d="m14 5.71-.62-1.71c-1.24 1.97-2.92 2-3.88 2s-2.36-.03-3.87.76a2.85 2.85 0 0 0 -1.57 3.12l1.44 2.8a3.57 3.57 0 0 0 2.74 1.32c.66 0 1.28-.18 1.5-.26l-.95-2.1c.18-.14.71-.43 1.37-.53.82-.14 2.2.13 2.88-.4.55-.42.87-.88.96-1.05l-.41-1.71c-.69.92-2.01 1.2-2.56 1.2s-1.45-.15-2-.15c-.44 0-1.09.44-1.34.66l.96 1.97c-2.08.63-3.24 0-3.56-.4.13-1.56 1.85-3.09 3.91-3.23 2.06-.13 2.26-.05 3.63-.58 1.1-.42 1.37-1.31 1.37-1.7z" fill="#0067a6"/></svg>