<svg height="18" viewBox="0 0 18 18" width="18" xmlns="http://www.w3.org/2000/svg" xmlns:xlink="http://www.w3.org/1999/xlink"><linearGradient id="a" gradientUnits="userSpaceOnUse" x1="14.78" x2="2.99" y1="9.51" y2="10.66"><stop offset=".17" stop-color="#1e2671"/><stop offset=".85" stop-color="#0b4499"/><stop offset="1" stop-color="#18296a"/></linearGradient><linearGradient id="b" gradientUnits="userSpaceOnUse" x1="13.58" x2="2.9" y1="8.93" y2="9.36"><stop offset=".1" stop-color="#396aaa"/><stop offset=".78" stop-color="#0099d0"/><stop offset=".89" stop-color="#0967b5"/><stop offset="1" stop-color="#212f71"/></linearGradient><linearGradient id="c" gradientUnits="userSpaceOnUse" x1="11.28" x2="10.83" y1="5.99" y2="7.72"><stop offset="0" stop-color="#979797"/><stop offset=".66" stop-color="#969696"/><stop offset="1" stop-color="#848388"/></linearGradient><path d="m0 0h18v18h-18z" fill="#f0f3fa"/><path d="m4.33 7.08 1.78-.48c.04 0 .07.01.09.05a.1.1 0 0 1 -.06.14l-.5.15a.14.14 0 0 0 -.1.14c0 .06.05.12.12.13l9.15 2.02c.13.03.22.12.18.25-.03.11-.15.23-.26.23-.9 0-3.8.36-5.43.6-1.8.27-5.38 1.69-5.76 1.69s-.54-.2-.54-1.23c0-.7.45-2.21.77-3.16.09-.27.3-.46.56-.53z" fill="url(#a)"/><path d="m6.11 6.6-1.78.48a.82.82 0 0 0 -.56.53c-.24.72-.56 1.76-.7 2.53.02.53.15 1.11.56 1.11.18 0 .5-.12 1.01-.3 1.35-.5 4.03-1.47 8.94-1.99l-7.92-1.75a.14.14 0 0 1 -.11-.13c0-.07.04-.12.1-.14l.49-.15a.1.1 0 0 0 .06-.14c-.02-.04-.05-.06-.09-.05z" fill="url(#b)"/><path d="m11.4 6c-1.22 0-3.15.34-4.3.57-.06.01-.1.05-.1.1 0 .04.02.08.08.1 1.6.45 7.62 1.93 7.92 1.93.13 0-1.88-2.7-3.59-2.7z" fill="url(#c)"/></svg>