<svg height="18" viewBox="0 0 18 18" width="18" xmlns="http://www.w3.org/2000/svg" xmlns:xlink="http://www.w3.org/1999/xlink"><linearGradient id="a" gradientUnits="userSpaceOnUse" x1="9" x2="9" y1="4" y2="13.91"><stop offset="0" stop-color="#bee1f8"/><stop offset=".53" stop-color="#0091da"/></linearGradient><linearGradient id="b" gradientUnits="userSpaceOnUse" x1="9" x2="9.01" y1="7" y2="13.7"><stop offset="0" stop-color="#bee1f8"/><stop offset="1" stop-color="#0091da"/></linearGradient><linearGradient id="c" gradientUnits="userSpaceOnUse" x1="9" x2="9.01" y1="10" y2="13.41"><stop offset="0" stop-color="#bee1f8"/><stop offset="1" stop-color="#0d96dc"/></linearGradient><linearGradient id="d" gradientUnits="userSpaceOnUse" x1="12.44" x2="5.56" y1="13.84" y2="13.84"><stop offset="0" stop-color="#007fcb"/><stop offset="1" stop-color="#69b8e7"/></linearGradient><linearGradient id="e" gradientUnits="userSpaceOnUse" x1="9" x2="9" y1="13.06" y2="13.69"><stop offset="0" stop-color="#179bde"/><stop offset="1" stop-color="#008ed7"/></linearGradient><path d="m0 0h18v18h-18z" fill="#f0f3fa"/><g fill-rule="evenodd"><path d="m9 13.9c2.76 0 5-2.21 5-4.95a4.98 4.98 0 0 0 -5-4.95c-2.76 0-5 2.22-5 4.95a4.98 4.98 0 0 0 5 4.96zm0-.9a4 4 0 1 0 0-8 4 4 0 0 0 0 8z" fill="url(#a)"/><path d="m9 13.9a3.45 3.45 0 1 0 -.02-6.88 3.45 3.45 0 0 0 .02 6.88zm0-.7c1.46 0 2.65-1.2 2.65-2.7 0-1.49-1.19-2.5-2.65-2.5s-2.65 1.01-2.65 2.5c0 1.5 1.19 2.7 2.65 2.7z" fill="url(#b)"/><path d="m9 14a2 2 0 1 0 0-4 2 2 0 0 0 0 4zm0-.67a1.33 1.33 0 1 0 0-2.66 1.33 1.33 0 0 0 0 2.66z" fill="url(#c)"/></g><path d="m5.56 13.69h6.88v.31h-6.88z" fill="url(#d)"/><path d="m9 13.16-2.43-.1-1 .63h6.87l-1-.63z" fill="url(#e)"/></svg>