<svg height="18" width="18" xmlns="http://www.w3.org/2000/svg"><path d="m0 0h18v18h-18z" fill="#f0f3fa"/><path d="m2.13 10.402c.87-.648 3.31-2.08 6.047-2.08h.334c-2.312.26-4.34 1.31-5.246 2.08h.439c.858-.553 3.245-1.786 5.94-1.817-2.395.29-3.95 1.219-4.664 1.817h.488c.739-.413 2.118-1.3 4.584-1.527a7.028 7.028 0 0 0 -1.099.291c-.666.24-1.092.515-1.473.761l-.245.175c-.115.083-.335.3-.35.31l.516-.01s.2-.165.233-.186c.375-.243.78-.505 1.415-.732a7.532 7.532 0 0 1 1.837-.388c-.071.023-.14.046-.207.07-.667.24-1.118.53-1.474.761-.017.011-.126.094-.235.176-.11.083-.26.289-.277.299h.46a.987.987 0 0 1 .207-.186c.355-.23.78-.505 1.414-.732a6.793 6.793 0 0 1 1.11-.29c-.625.234-1.055.512-1.397.733-.017.011-.119.094-.22.177-.1.082-.225.258-.25.298h.426a.783.783 0 0 1 .199-.186c.355-.23.78-.505 1.414-.732.693-.248 1.64-.484 3.014-.484l.344-1h-7.237c-2.814-0-5.527 1.44-6.489 2.402h.443z" fill="#0b79bf"/></svg>