<svg height="18" viewBox="0 0 18 18" width="18" xmlns="http://www.w3.org/2000/svg"><path d="m0 0h18v18h-18z" fill="#f0f3fa"/><g fill="#d80319"><path d="m7.25 7.25c-1.03.91-1.71 1.23-2.07 1.4.27.18.63.27 1.32.27.55 0 1.33-.43 1.66-.65l1.2-.8v1.53c.79-.7 2.48-2.2 2.92-2.61.43-.4 1.27-.83 1.63-1-.2-.1-.68-.3-1.12-.3-.74 0-1.6.5-1.95.76l-1.1.69v-1.54c-.5.46-1.69 1.55-2.49 2.25z"/><path d="m5.85 10.81c-1.43 1.14-2.36 1.54-2.85 1.76.37.22.86.33 1.8.33.77 0 1.85-.54 2.3-.81l1.64-.97v1.88l4.01-3.26c.6-.5 1.75-1.04 2.25-1.25a4.09 4.09 0 0 0 -1.53-.37c-1.03 0-2.22.63-2.69.94l-1.52.97v-2.03c-.68.57-2.31 1.94-3.41 2.81z"/></g></svg>