<svg height="18" width="18" xmlns="http://www.w3.org/2000/svg"><path d="m0 0h18v18h-18z" fill="#0068a6"/><g fill="#fff"><path d="m10.913 5.86c-2.855-.961-6.215-.925-7.538-.787.087.184.724.451 1.032.561 3.924 1.896 4.567 3.105 5.173 4.16.484.844.296 1.433.142 1.622-.446.755-1.359 2.3-1.446 2.442-.088.141-.037.15 0 .138 2.052-1.906 5.338-3.417 6.724-3.934-.129-.027-.147-.038-.14-.041-.324-.189-.68-.079-.817 0-.453.108-1.071-.045-1.324-.135-1.31-.528-1.341-2.122-1.278-2.971.05-.68-.33-.987-.528-1.056z"/><path d="m6.124 7.45-2.995-.058c-.186 0-.13.083-.08.125.18.074.56.18.728.224 1.451.348 4.337 1.679 5.598 2.3-.567-.8-1.55-1.665-1.97-1.997-.61-.482-.971-.593-1.281-.593z"/></g></svg>