<!-- by TradingView --><svg width="18" height="18" viewBox="0 0 18 18" xmlns="http://www.w3.org/2000/svg"><path fill="#F0F3FA" d="M0 0h18v18H0z"/><path d="M13.24 11.65a.1.1 0 0 0-.08-.15H4.84a.1.1 0 0 0-.08.15 5 5 0 0 0 8.48 0Zm-1.11.35c.09 0 .13.1.07.16a4.49 4.49 0 0 1-6.4 0c-.06-.06-.02-.16.07-.16h6.26Z"/><path fill-rule="evenodd" d="M4.18 8a.1.1 0 0 0-.1.08 4.99 4.99 0 0 0-.06.4v.02a5.06 5.06 0 0 0 .37 2.44.1.1 0 0 0 .1.06H7c.95 0 1.52-.72 1.9-1.5a.1.1 0 0 1 .2 0c.38.78.95 1.5 1.9 1.5h2.52a.1.1 0 0 0 .09-.06 4.98 4.98 0 0 0 .38-2.45l-.01-.01v-.01a4.98 4.98 0 0 0-.06-.39.1.1 0 0 0-.1-.08H4.18Zm.65 2.5a.1.1 0 0 1-.1-.07 4.5 4.5 0 0 1-.21-1.84.1.1 0 0 1 .1-.09h4.07c.06 0 .1.05.07.1-.3.78-.75 1.9-1.76 1.9H4.83Zm8.65-1.91a.1.1 0 0 0-.1-.09H9.31a.08.08 0 0 0-.07.1c.3.78.75 1.9 1.76 1.9h2.17a.1.1 0 0 0 .1-.07 4.5 4.5 0 0 0 .21-1.84Z"/><path d="M4.37 7.5a.1.1 0 0 1-.1-.13 5 5 0 0 1 9.46 0 .1.1 0 0 1-.1.13h-.32a.1.1 0 0 1-.09-.07 4.5 4.5 0 0 0-8.44 0 .1.1 0 0 1-.1.07h-.31Z"/><path d="M7.5 7.4a.1.1 0 0 1-.1.1H5.74a.1.1 0 0 1-.07-.17l.3-.3A.1.1 0 0 1 6.04 7H7.4c.06 0 .1.04.1.1v.3ZM10.6 7.5a.1.1 0 0 1-.1-.1v-.3c0-.06.04-.1.1-.1h1.36a.1.1 0 0 1 .07.03l.3.3a.1.1 0 0 1-.07.17H10.6Z"/></svg>