<svg height="18" viewBox="0 0 18 18" width="18" xmlns="http://www.w3.org/2000/svg"><path d="m0 0h18v18h-18z" fill="#f0f3fa"/><path d="m13.24 11.65a.1.1 0 0 0 -.08-.15h-8.32a.1.1 0 0 0 -.08.15 5 5 0 0 0 8.48 0zm-1.11.35c.09 0 .13.1.07.16a4.49 4.49 0 0 1 -6.4 0c-.06-.06-.02-.16.07-.16z"/><path d="m4.18 8a.1.1 0 0 0 -.1.08 4.99 4.99 0 0 0 -.06.4v.02a5.06 5.06 0 0 0 .37 2.44.1.1 0 0 0 .1.06h2.51c.95 0 1.52-.72 1.9-1.5a.1.1 0 0 1 .2 0c.38.78.95 1.5 1.9 1.5h2.52a.1.1 0 0 0 .09-.06 4.98 4.98 0 0 0 .38-2.45l-.01-.01v-.01a4.98 4.98 0 0 0 -.06-.39.1.1 0 0 0 -.1-.08zm.65 2.5a.1.1 0 0 1 -.1-.07 4.5 4.5 0 0 1 -.21-1.84.1.1 0 0 1 .1-.09h4.07c.06 0 .1.05.07.1-.3.78-.75 1.9-1.76 1.9zm8.65-1.91a.1.1 0 0 0 -.1-.09h-4.07a.08.08 0 0 0 -.07.1c.3.78.75 1.9 1.76 1.9h2.17a.1.1 0 0 0 .1-.07 4.5 4.5 0 0 0 .21-1.84z" fill-rule="evenodd"/><path d="m4.37 7.5a.1.1 0 0 1 -.1-.13 5 5 0 0 1 9.46 0 .1.1 0 0 1 -.1.13h-.32a.1.1 0 0 1 -.09-.07 4.5 4.5 0 0 0 -8.44 0 .1.1 0 0 1 -.1.07z"/><path d="m7.5 7.4a.1.1 0 0 1 -.1.1h-1.66a.1.1 0 0 1 -.07-.17l.3-.3a.1.1 0 0 1 .07-.03h1.36c.06 0 .1.04.1.1zm3.1.1a.1.1 0 0 1 -.1-.1v-.3c0-.06.04-.1.1-.1h1.36a.1.1 0 0 1 .07.03l.3.3a.1.1 0 0 1 -.07.17z"/></svg>