<svg height="18" viewBox="0 0 18 18" width="18" xmlns="http://www.w3.org/2000/svg"><path d="m0 0h18v18h-18z" fill="#f0f3fa"/><path d="m8.5 8c-.67 0-.39-.89-.17-1.33-.55.6-1.33 1.86 0 2 1.29.12 4.21-2.4 5.67-3.84v.48c-2.75 2.4-4.69 3.69-5.67 3.69-.8 0-.89-.67-.83-1-.22.5-.37 1.5.83 1.5 1.4 0 3.7-1.9 5.22-3.16l.45-.37v.52c-2.13 1.91-4.7 3.34-5.67 3.34-.8 0-1.1-.55-1.16-.83 0 1.07.66 1.33 1.16 1.33 1.41 0 4.26-2.05 5.67-3.2v.64l-.57.38c-1.59 1.05-3.81 2.52-5.1 2.52-.93 0-1.27-.67-1.33-1-.06.55.13 1.66 1.33 1.66 1.16 0 4.16-1.85 5.67-2.88v.49l-.8.5c-1.5.98-3.44 2.23-4.87 2.23-.93 0-1.27-.67-1.33-1 0 .66.33 1.5 1.33 1.5 1.9 0 4.93-2.04 5.67-2.55v.5c-2.75 2.06-4.85 2.38-5.67 2.38-.66 0-1.05-.44-1.16-.67.11.85 1.04 1.13 1.5 1.17 1.77 0 4.19-1.4 5.33-2.21v.47c-1.29.75-3.81 2.07-4.83 2.07-.95 0-1.35-.26-1.47-.43.2.36.68 1.1 1.47 1.1h-5.17v-10h9.8c-1.72 1.51-4.68 4-5.3 4zm.67 6h1.79l3.04-1.74v-.32c-1.18.75-3.56 2.06-4.83 2.06zm4.83-1.07-1.78 1.07h.75l1.03-.57z" fill="#014099"/></svg>