<svg height="18" viewBox="0 0 18 18" width="18" xmlns="http://www.w3.org/2000/svg"><path d="m0 0h18v18h-18z" fill="#f0f3fa"/><path d="m4.16 10.95a.56.56 0 0 1 .79-.79l2.89 2.89a.56.56 0 0 1 -.79.79zm6-6a.56.56 0 0 1 .79-.79l2.89 2.89a.56.56 0 0 1 -.79.79zm-5.99 3.06a.6.6 0 0 1 .84-.84l1.82 1.83a.6.6 0 0 1 -.84.84l-1.82-1.84zm1-1a.6.6 0 0 1 .84-.84l1.82 1.83a.6.6 0 0 1 -.84.84l-1.82-1.84zm1-1a.6.6 0 0 1 .84-.84l1.82 1.83a.6.6 0 0 1 -.84.84l-1.82-1.84zm1-1a.6.6 0 0 1 .84-.84l1.82 1.83a.6.6 0 0 1 -.84.84l-1.82-1.84zm1 7a.6.6 0 0 1 .84-.84l1.82 1.83a.6.6 0 0 1 -.84.84l-1.82-1.84zm1-1a.6.6 0 0 1 .84-.84l1.82 1.83a.6.6 0 0 1 -.84.84l-1.82-1.84zm1-1a.6.6 0 1 1 .84-.84l1.82 1.83a.6.6 0 0 1 -.84.84l-1.82-1.84zm1-1a.6.6 0 0 1 .84-.84l1.82 1.83a.6.6 0 0 1 -.84.84l-1.82-1.84z" fill="#d20419"/></svg>