<svg height="18" viewBox="0 0 18 18" width="18" xmlns="http://www.w3.org/2000/svg"><path d="m0 0h18v18h-18z" fill="#f0f3fa"/><g fill-rule="evenodd"><path d="m9 9.4a6 6 0 0 0 .1 0l.58.31 1.77.8-2.45 1.11-2.45-1.1 1.48-.67c-2.3-.23-4.03-1.21-4.03-2.41 0-1.34 2.24-2.44 5-2.44s5 1.1 5 2.45v.12h-1.67v-.07c0-1.06-1.49-1.92-3.33-1.92s-3.33.86-3.33 1.92 1.48 1.9 3.32 1.9h.02zm-1.08 1.12 1.08-.5 1.08.5-1.08.48z" fill="#00a65d"/><path d="m9.97 8.16c2.3.22 4.03 1.2 4.03 2.4 0 1.34-2.24 2.44-5 2.44s-5-1.1-5-2.45v-.12h1.67v.09c0 1.05 1.49 1.9 3.33 1.9s3.33-.85 3.33-1.9c0-1.06-1.49-1.92-3.33-1.92h-.09l-.59-.31-1.77-.8 2.45-1.11 2.45 1.1-1.48.67zm.11-.68-1.08.5-1.08-.5 1.08-.48z" fill="#0071bc"/></g></svg>