<svg height="18" viewBox="0 0 18 18" width="18" xmlns="http://www.w3.org/2000/svg"><path d="m0 0h18v18h-18z" fill="#f0f3fa"/><g fill="#e7010f"><path d="m5.17 6.39h1.06v-.15c0-.13.12-.24.27-.24s.27.1.27.24v.15h.9c.11.03.33.12.33.29 0 .1-.09.16-.17.22-.08.05-.15.1-.15.19 0 .08.03.13.07.17s.08.08.08.17c0 .17-.2.2-.42.2s-.51-.07-.51-.26c0-.08.08-.1.16-.14.1-.03.21-.07.21-.2 0-.23-.04-.23-.16-.23h-.05c-.16 0-.29.08-.29.38v1.25c0 .13-.12.24-.27.24s-.27-.11-.27-.24v-.93c-.12.11-.41.34-.63.34-.26 0-.38-.19-.38-.34 0-.08.04-.12.08-.17.04-.06.08-.12.08-.21 0-.1-.1-.17-.19-.24-.09-.08-.19-.16-.19-.25 0-.2.13-.24.17-.24zm.6.6c.09.08.27.24.35.24.1 0 .12-.15.12-.33 0-.17-.46-.16-.46.08z"/><path d="m9 7.8c0 .37.45.25.67.14v.43a.3.3 0 0 0 .6 0v-.47l.24.4.5-.61c.2.27.65.83.83.83.22 0 .69-.46.7-.58 0-.1-.17-.1-.38-.09h-.17c-.22 0-.45-.2-.64-.36a3.82 3.82 0 0 0 -.12-.1c.38-.21.6-.43.6-.6 0-.15-.2-.29-.35-.4l-.06-.04c-.08-.05-.08-.13-.09-.2 0-.08 0-.15-.1-.15-.19 0-.36.08-.38.35-.02.22-.3.3-.44.3-.02.09-.08.25-.19.25-.14 0-.26-.08-.26-.18s.1-.15.26-.12c.16.04.28-.12.3-.25 0-.12-.2-.12-.37-.12-.08 0-.12-.05-.15-.11-.04-.06-.08-.12-.18-.12-.16 0-.17.15-.15.23-.2-.02-.6-.03-.6.12s.21.31.32.37c-.1.06-.32.22-.32.42 0 .15.14.13.31.1.1 0 .2-.02.29 0 .2.03.08.18 0 .25-.22.02-.67.11-.67.3zm1.73-.42c0-.05-.09-.23-.14-.32-.12.09-.38.26-.48.26 0 .1.26.25.37.25.1 0 .24-.12.25-.19zm.53-.32c.08 0 .14-.1.14-.22s-.06-.22-.14-.22-.14.1-.14.22.06.22.14.22z" fill-rule="evenodd"/><path d="m4.41 5c-.21 0-.41.21-.41.47v7.06c0 .26.19.47.41.47h9.18c.22 0 .41-.21.41-.47v-7.06c0-.26-.19-.47-.41-.47h-9.19zm.16.33c-.15 0-.28.14-.28.32v3.04c0 .17.13.3.28.3h8.86c.15 0 .28-.13.28-.3v-3.04c0-.18-.13-.32-.28-.32zm2.2 4.67v.47h-1.34v1.06h1.32v.47h-1.48c-.15 0-.27-.16-.27-.35v-1.3c0-.2.12-.35.27-.35zm2.23.46v-.46h-1.57c-.24 0-.43.22-.43.48v.27c0 .26.2.48.43.48h1.14v.31h-1.57v.46h1.57c.24 0 .43-.22.43-.48v-.27c0-.26-.2-.48-.43-.48h-1.14v-.31zm4.41-.46v.46h-1.61v.31h1.18c.25 0 .44.22.44.48v.27c0 .26-.2.48-.44.48h-1.62v-.46h1.62v-.31h-1.18c-.24 0-.44-.22-.44-.48v-.27c0-.27.2-.48.44-.48h1.62zm-2.58.34c0 .19-.16.33-.24.38l-.16-.12c.02-.02.06-.1.06-.17 0-.1-.04-.17-.18-.17s-.24.08-.24.2c0 .1.07.21.11.26l.45.56.25-.21.16.27-.24.3.26.36h-.3l-.17-.25c-.12.08-.42.25-.69.25-.34 0-.6-.18-.6-.48 0-.24.15-.44.22-.51l.32-.32a.57.57 0 0 1 -.12-.31c0-.17.21-.38.56-.38s.55.1.55.34zm-.5 1.07-.4-.41c-.2.13-.34.28-.34.37 0 .1.1.27.34.27.19 0 .34-.15.4-.23z" fill-rule="evenodd"/></g></svg>