<svg height="18" viewBox="0 0 18 18" width="18" xmlns="http://www.w3.org/2000/svg" xmlns:xlink="http://www.w3.org/1999/xlink"><linearGradient id="a"><stop offset="0" stop-color="#b9d331"/><stop offset="1" stop-color="#7a1"/></linearGradient><linearGradient id="b" gradientUnits="userSpaceOnUse" x1="5.83" x2="13.11" xlink:href="#a" y1="6.57" y2="6.57"/><linearGradient id="c" gradientUnits="userSpaceOnUse" x1="12.17" x2="4.89" xlink:href="#a" y1="11.57" y2="11.57"/><path d="m0 0h18v18h-18z" fill="#f0f3fa"/><path d="m15 7.93a5.32 5.32 0 0 0 -2.08-.93h-5.92l.95-.86 5.15-.13a4.3 4.3 0 0 1 1.9 1.92z" fill="#00715b"/><path d="m3.01 7.41c.57.3 1.66.73 2.82.73.85 0 1.94-.48 3-.96 1.03-.45 2.02-.9 2.76-.9.82 0 1.87.31 2.68.61-1.12-1.13-3.13-1.89-5.41-1.89-2.62 0-4.87 1-5.86 2.41z" fill="url(#b)"/><path d="m3 10.07c.61.5 1.7.93 2.01.93h5.2l-.16.86-5.14.13a4.3 4.3 0 0 1 -1.91-1.92z" fill="#00715b"/><path d="m14.98 10.6a8.13 8.13 0 0 0 -2.83-.46c-.85 0-1.94.41-3 .82-1.01.38-2 .75-2.74.75-.82 0-1.87-.3-2.68-.6 1.12 1.13 3.13 1.89 5.41 1.89 2.61 0 4.86-.99 5.84-2.4z" fill="url(#c)"/><path d="m3.01 9.5v-1h11.99v1h-12z" fill="#00715b" fill-opacity=".6"/></svg>