<svg height="18" width="18" xmlns="http://www.w3.org/2000/svg"><path d="m0 0h18v18h-18z" fill="#ed1c24"/><path d="m9 4.91a4.09 4.09 0 0 0 -2.452 7.365l-.546.727a5 5 0 1 1 5.996 0l-.546-.727a4.09 4.09 0 0 0 -2.452-7.366z" fill="#fff"/><path d="m9.62 11.107c.243.124 2.257 1.4.38 2.893h-3l1-1s1.237.094 1.369-.203c.131-.297.131-.797-.12-.972 0 0-.692-.402-1.193-.753-.5-.352-.828-.878-.647-1.798.181-.921.523-2.144 3.591-3.274.092-.003-2.262 1.331-2.773 3.187 0 0-.12.61 0 1 .12.391.387.56.597.652.21.093.555.144.797.268z" fill="#08090d"/></svg>