<svg fill="none" height="18" width="18" xmlns="http://www.w3.org/2000/svg"><path d="m0 0h18v18h-18z" fill="#f0f3fa"/><path clip-rule="evenodd" d="m15.7 9c0 1.017-.466 1.974-1.283 2.76a18.04 18.04 0 0 0 -2.292-.506c.071-.201.133-.41.185-.626h-.309c-.05.2-.11.395-.179.582a20.584 20.584 0 0 0 -2.693-.191v-.391h-.3v.391c-.963.008-1.86.078-2.654.182a5.944 5.944 0 0 1 -.176-.573h-.31c.052.212.113.417.182.615-.957.14-1.75.325-2.308.498-.805-.783-1.263-1.733-1.263-2.741 0-1.033.481-2.006 1.324-2.8.546.173 1.324.359 2.268.5-.037.1-.071.202-.103.306l.305.032c.031-.1.065-.199.101-.295.788.106 1.678.179 2.634.188v.266l.075.006h.226v-.271a20.302 20.302 0 0 0 2.677-.186c.055.148.105.3.15.457h.311a6.231 6.231 0 0 0 -.158-.501 17.81 17.81 0 0 0 2.269-.5c.84.793 1.321 1.765 1.321 2.798zm-3.685 2.54c.704.107 1.421.256 2.14.457a5.9 5.9 0 0 1 -.38.294c-.906.648-2.08 1.116-3.402 1.31.689-.42 1.264-1.147 1.642-2.06zm-.307-.043c-.89-.12-1.757-.173-2.58-.178v2.377c.794-.047 1.537-.526 2.101-1.332.182-.26.343-.55.479-.867zm-2.88-.178c-.918.007-1.775.073-2.54.17.138.32.3.613.483.874.554.792 1.28 1.269 2.058 1.33v-2.373zm-2.847.212a16.25 16.25 0 0 0 -2.16.446c.128.108.262.213.404.314.906.648 2.08 1.116 3.402 1.31-.691-.422-1.268-1.152-1.646-2.07zm2.848 2.467c-2.17-.037-4.094-.779-5.343-1.917h-.001l-.001-.002c-.93-.85-1.484-1.919-1.484-3.079 0-2.761 3.134-5 7-5s7 2.239 7 5c0 2.73-3.065 4.95-6.871 5h-.301v-.002zm5.282-8.032a5.987 5.987 0 0 0 -.336-.257c-.906-.648-2.08-1.116-3.402-1.31.678.414 1.246 1.124 1.624 2.017a17.626 17.626 0 0 0 2.114-.45zm-2.422.493a4.84 4.84 0 0 0 -.46-.822c-.564-.807-1.307-1.286-2.1-1.333v2.328a20.037 20.037 0 0 0 2.56-.173zm-2.86.172v-2.324c-.778.061-1.504.538-2.058 1.33a4.84 4.84 0 0 0 -.458.819 21.2 21.2 0 0 0 2.516.175zm-2.825-.218c.378-.891.946-1.6 1.623-2.014-1.321.194-2.496.662-3.402 1.31-.117.083-.23.17-.337.259.533.156 1.257.32 2.116.445z" fill="#004098" fill-rule="evenodd"/><g fill="#e60012"><path d="m5.458 7.175h1.265l-.34 1.043h-.683l-.61 1.642 9.234-.137-.114.439-10.736.284c-.356-.024-.458-.29-.465-.42-.009-.166-.001-.565.738-1.494.74-.929 1.448-1.292 1.71-1.357z"/><path clip-rule="evenodd" d="m6.15 9.526.727-2.363 2.468.128-.493 1.528h-.688l.15.27h.393l-.118.437h-.755l-.437-.63-.207.63zm1.633-1.74h.778l-.145.404h-.761z" fill-rule="evenodd"/><path d="m9.572 7.296 2.534.12-.214.584h-1.426l-.318.807h1.426l-.22.717h-2.528zm2.755.114 2.674.12-.152.47h-1.526l-.297.848h1.553l-.22.676h-2.732z"/></g></svg>