<svg height="18" viewBox="0 0 18 18" width="18" xmlns="http://www.w3.org/2000/svg"><path d="m0 0h18v18h-18z" fill="#f0f3fa"/><path d="m14 4h-10v10h2c.01-.06.03-.12.06-.17l1.54-2.6a.45.45 0 0 1 .79 0l1.53 2.6c.04.05.06.11.06.17h.43c0-.06.02-.12.06-.17l1.53-2.6a.44.44 0 0 1 .21-.2.45.45 0 0 1 .58.2l1.21 2.05v-2.45a.45.45 0 0 1 -.45-.21l-1.15-1.96-1.16 1.96a.45.45 0 1 1 -.77-.46l1.53-2.6a.44.44 0 0 1 .4-.23.45.45 0 0 1 .39.23l1.21 2.05zm-.62 10-.98-1.67-1 1.67zm-4.4 0-.98-1.67-1 1.67zm-1.18-6.62a.45.45 0 0 0 -.2.18l-1.54 2.6a.45.45 0 0 0 .78.46l1.15-1.96 1.16 1.96a.45.45 0 1 0 .77-.46l-1.52-2.6a.45.45 0 0 0 -.59-.18z" fill="#fbb03f" fill-rule="evenodd"/></svg>