<svg height="18" viewBox="0 0 18 18" width="18" xmlns="http://www.w3.org/2000/svg"><path d="m0 0h18v18h-18z" fill="#f0f3fa"/><path d="m8 5c-2.67.26-4.44.96-5 1.29l2.33 7.07h2.67v-2.26l-1.2.19-.94-3.32a5.3 5.3 0 0 1 1.97-.57h.17zm-.31 7.5-2.1.57h2.1v-.56zm-2.22-4.7 1 3.55-.47.08-1.33-4.18c.91-.44 2.22-.6 3-.63v.48c-.44.03-1.13.2-2.08.65l-.12.06zm8.86-1.51a13.75 13.75 0 0 0 -5.33-1.29v2.63h.17c.4 0 1.05.03 1.74.12.5.06 1 .15 1.43.28l-1 3.4-2.34-.33v1.88l3.6 1.02 2.4-6.72-.68-.95zm-1.9 1.45.24-.81c-.61-.1-2.06-.29-3.33-.32v.72c.41.01 1 .04 1.62.12.5.07 1 .16 1.47.3zm-3.1 5.02v-.33l2.67.28 2.18-6.01.45.62-2.25 6.3z" fill="#4f196f" fill-rule="evenodd"/></svg>