<svg height="18" viewBox="0 0 18 18" width="18" xmlns="http://www.w3.org/2000/svg"><path d="m0 0h18v18h-18z" fill="#f0f3fa"/><path d="m5.43 12.35h-.73c-.22 0-.37-.07-.45-.24-.25-.58-.66-1.47-1.23-2.85-.07-.18-.03-.44.12-.79l1.02-2.42v-.02c.09-.2.16-.33.22-.4.1-.12.24-.16.41-.16h.65c.02 0 .02-.02.02-.04v-.67c0-.25.12-.42.33-.5l2.83-1.16c.27-.11.5-.13.68-.05l2.92 1.2c.2.09.3.24.31.47v.72c0 .02.01.03.03.03h.71c.21 0 .37.1.47.34l1.2 2.88c.09.22.08.46-.03.73-.4.93-.77 1.75-1.13 2.63-.1.21-.24.3-.44.3h-.76c-.03 0-.05.03-.05.06v.89c0 .22-.15.4-.44.51l-2.76 1.14a.8.8 0 0 1 -.36.05.87.87 0 0 1 -.28-.07l-2.9-1.2a.48.48 0 0 1 -.32-.45v-.87c0-.03-.01-.06-.04-.06z" fill="#cc0204"/><g fill="#f0f3fa"><path d="m8.47 8.18v-2.44c0-.18-.1-.27-.29-.27h-1.62c-.03 0-.03-.02-.03-.04v-.3c0-.03 0-.06.04-.07l2.44-1h.05l2.37 1c.03 0 .04.03.04.06v.28c0 .03 0 .07-.03.07h-1.62c-.21 0-.32.09-.32.3v2.37c0 .2.1.33.31.33h2.4c.16 0 .32-.18.32-.34v-1.64c0-.03.01-.04.04-.04a3.24 3.24 0 0 1 .23 0c.06 0 .1.02.11.06l1.01 2.43a.2.2 0 0 1 0 .16l-.95 2.33c-.01.03-.03.04-.06.04h-.35c-.02 0-.03-.02-.03-.04v-1.64c0-.23-.12-.26-.34-.26h-2.37c-.2 0-.3.07-.3.3v2.22c0 .18.11.3.3.3h1.6c.04 0 .05 0 .05.02v.51c0 .03 0 .05-.04.06l-2.37 1h-.06l-2.45-1.02c-.02 0-.02-.02-.02-.05v-.48c0-.02 0-.04.02-.04h1.67c.19 0 .28-.08.28-.27v-2.36c0-.19-.1-.28-.28-.28h-2.44c-.2 0-.29.1-.3.29v1.66c0 .03-.01.08-.05.08h-.33c-.02 0-.04-.04-.05-.06l-.97-2.34a.15.15 0 0 1 0-.12l1.02-2.38c.02-.03.04-.04.08-.04h.27c.03 0 .05 0 .05.04v1.59c0 .2.1.29.29.29h2.41c.18 0 .28-.1.28-.27z"/><path d="m7.4 6.53h-.85c-.01 0-.02 0-.02.02v.84l.01.02h.85l.02-.01v-.85c0-.01 0-.02-.02-.02zm4.04 0h-.82a.03.03 0 0 0 -.03.03v.82c0 .02.02.03.03.03h.82c.02 0 .03-.02.03-.03v-.82a.03.03 0 0 0 -.03-.03zm-4.07 4.06h-.8a.04.04 0 0 0 -.04.04v.8c0 .02.02.04.04.04h.8c.02 0 .04-.02.04-.04v-.8a.04.04 0 0 0 -.04-.04zm4.05 0h-.78a.05.05 0 0 0 -.05.05v.78c0 .03.02.05.05.05h.78c.03 0 .05-.02.05-.05v-.78a.05.05 0 0 0 -.05-.05z"/></g></svg>