<svg height="18" viewBox="0 0 18 18" width="18" xmlns="http://www.w3.org/2000/svg"><path d="m0 0h18v18h-18z" fill="#f0f3fa"/><path d="m11 7 1 2.5-1-1z" fill="#a98517"/><path d="m11 7h-4v1.5h4z" fill="#d8b300"/><path d="m6 9.5 1-2.5v1.5z" fill="#ebd100"/><path d="m7 8.5-1 1h6l-1-1z" fill="#b58e19"/><path d="m9.1 14c1.56 0 2.96-.69 3.9-1.78-.35-.88-.65-1.74-.98-2.63a3.83 3.83 0 0 1 -3.2 1.91c-1.77 0-3.22-1.85-3.22-3.5 0-2.03 1.93-3.67 4.3-3.67.6 0 1.15.1 1.66.28a5.16 5.16 0 0 0 -2.46-.61 5.05 5.05 0 0 0 -5.1 5c0 2.76 2.28 5 5.1 5z" fill="#01248a"/></svg>