<svg height="18" viewBox="0 0 18 18" width="18" xmlns="http://www.w3.org/2000/svg" xmlns:xlink="http://www.w3.org/1999/xlink"><linearGradient id="a" gradientUnits="userSpaceOnUse" x1="4.98" x2="4.98" y1="7" y2="11"><stop offset="0" stop-color="#cab388"/><stop offset="1" stop-color="#bc996c"/></linearGradient><linearGradient id="b" gradientUnits="userSpaceOnUse" x1="12.9" x2="12.9" y1="7" y2="11"><stop offset="0" stop-color="#c8b084"/><stop offset="1" stop-color="#c09e72"/></linearGradient><linearGradient id="c" gradientUnits="userSpaceOnUse" x1="9" x2="9" y1="7" y2="11"><stop offset="0" stop-color="#ccb68c"/><stop offset="1" stop-color="#bf9d71"/></linearGradient><linearGradient id="d" gradientUnits="userSpaceOnUse" x1="6.7" x2="5.36" y1="7.25" y2="8.64"><stop offset="0" stop-color="#a0784b"/><stop offset="1" stop-color="#a0784b" stop-opacity="0"/></linearGradient><linearGradient id="e" gradientUnits="userSpaceOnUse" x1="9.03" x2="9.31" y1="7.17" y2="8.91"><stop offset="0" stop-color="#c1ab7c"/><stop offset="1" stop-color="#9f7649"/></linearGradient><linearGradient id="f" gradientUnits="userSpaceOnUse" x1="11.51" x2="14.76" y1="8" y2="7.93"><stop offset="0" stop-color="#9f7648"/><stop offset="1" stop-color="#b69a67"/></linearGradient><path d="m0 0h18v18h-18z" fill="#f0f3fa"/><path d="m3 11h3.03l.93-1h-2.96v-2h2.03l.93-1h-3l-.96 1.16z" fill="url(#a)"/><path d="m13 8h2l-1-1h-2.35l-.85 1h1.2v3h1z" fill="url(#b)"/><path d="m7 7v4h1v-2.87l1 1 1-1v2.87h1v-4z" fill="url(#c)"/><path d="m4.5 8h1.53l.93-1h-.1l-2.46.9z" fill="url(#d)"/><path d="m10.6 7h-1.6v2.11z" fill="url(#e)"/><path d="m15 8-1-1-2.82 1z" fill="url(#f)"/></svg>