<svg height="18" viewBox="0 0 18 18" width="18" xmlns="http://www.w3.org/2000/svg" xmlns:xlink="http://www.w3.org/1999/xlink"><linearGradient id="a"><stop offset="0" stop-color="#b2bf62"/><stop offset="1" stop-color="#529855"/></linearGradient><linearGradient id="b" gradientUnits="userSpaceOnUse" x1="8.04" x2="9.3" xlink:href="#a" y1="8.46" y2="6.13"/><linearGradient id="c" gradientUnits="userSpaceOnUse" x1="9.85" x2="8.59" xlink:href="#a" y1="9.65" y2="11.99"/><linearGradient id="d" gradientUnits="userSpaceOnUse" x1="9.68" x2="12.01" xlink:href="#a" y1="8.05" y2="9.29"/><linearGradient id="e" gradientUnits="userSpaceOnUse" x1="8.21" x2="5.88" xlink:href="#a" y1="10.06" y2="8.82"/><path d="m0 0h18v18h-18z" fill="#f0f3fa"/><path d="m9 14.66a5.66 5.66 0 1 0 0-11.32 5.66 5.66 0 0 0 0 11.32zm0 .34a6 6 0 1 0 0-12 6 6 0 0 0 0 12z" fill="#289d3d" fill-rule="evenodd"/><path d="m9 12.97a3.97 3.97 0 1 0 0-7.94 3.97 3.97 0 0 0 0 7.94zm0 1.32a5.3 5.3 0 1 0 0-10.58 5.3 5.3 0 0 0 0 10.58z" fill="#289d3d" fill-rule="evenodd"/><path d="m7.59 7.43c-.18.41.15.86.34 1.03.56-.3 1.7-1.03 1.7-1.49 0-.45-.5-.95-.74-1.14.11.91-1.08 1.09-1.3 1.6z" fill="url(#b)"/><path d="m10.3 10.68c.18-.4-.15-.85-.34-1.03-.56.3-1.7 1.03-1.7 1.49s.5.95.74 1.14c-.11-.91 1.08-1.08 1.3-1.6z" fill="url(#c)"/><path d="m10.7 7.6c-.4-.19-.85.15-1.02.34.3.57 1.02 1.71 1.47 1.71.46 0 .95-.5 1.14-.74-.91.12-1.08-1.08-1.59-1.31z" fill="url(#d)"/><path d="m7.19 10.52c.4.18.85-.16 1.02-.35-.3-.57-1.02-1.71-1.47-1.71-.46 0-.95.5-1.13.74.9-.11 1.07 1.09 1.58 1.32z" fill="url(#e)"/><circle cx="9" cy="9" fill="#a04d2d" r=".71"/><circle cx="9" cy="9" fill="#d17c5e" r=".35"/></svg>