<svg height="18" viewBox="0 0 18 18" width="18" xmlns="http://www.w3.org/2000/svg"><path d="m0 0h18v18h-18z" fill="#f0f3fa"/><g fill="#c30201"><path d="m9 14.63a5.63 5.63 0 1 0 0-11.26 5.63 5.63 0 0 0 0 11.25zm0 .37a6 6 0 1 0 0-12 6 6 0 0 0 0 12z" fill-rule="evenodd"/><path d="m8.62 4.31-4.12 6.19c-.19-.69-.3-2.73.75-4.13a5.18 5.18 0 0 1 3.37-2.06zm4.51 2.63c-.3-1.35-2.07-2.44-2.82-2.44-1.5 1.2-1.69 3.02-1.12 3.38 1.65 1.04 3.31-.2 3.94-.94zm-4.32 3.19c-2.06 0-3.06.93-3.56 1.5.19.56 1.31 1.87 3.56 1.87 2.26 0 3.25-.94 3.56-1.5 0-.75-1.67-1.88-3.56-1.88z"/></g></svg>