<svg height="18" viewBox="0 0 18 18" width="18" xmlns="http://www.w3.org/2000/svg"><path d="m0 0h18v18h-18z" fill="#f0f3fa"/><path d="m5.29 7.93a2 2 0 0 0 -.83-.18c-.7 0-1.22.42-1.22 1.23s.54 1.23 1.23 1.23a2.32 2.32 0 0 0 .82-.14c.07-.03.13.02.13.1v.62c0 .05-.03.1-.08.1a4.57 4.57 0 0 1 -.98.11 2.6 2.6 0 0 1 -1.74-.53 1.85 1.85 0 0 1 -.62-1.49c0-.6.2-1.09.61-1.45.41-.35.97-.53 1.67-.53.23 0 .46.02.67.05l.4.1c.04 0 .07.05.07.1v.58c0 .08-.05.14-.13.1zm10.58 0a1.94 1.94 0 0 0 -.82-.18c-.68 0-1.19.42-1.19 1.23s.52 1.23 1.2 1.23a2.22 2.22 0 0 0 .8-.14c.07-.03.14.02.14.1v.62c0 .05-.03.1-.08.1a4.29 4.29 0 0 1 -.96.11c-.73 0-1.3-.18-1.71-.53-.4-.36-.61-.85-.61-1.49 0-.6.2-1.09.6-1.45.4-.35.95-.53 1.64-.53.23 0 .45.02.65.05l.39.1c.05 0 .08.05.08.1v.58c0 .08-.05.14-.13.1zm-9.02-.93c.08 0 .15.06.15.14v3.7c0 .15-.09.16-.16.16h-.87c-.08 0-.17-.05-.17-.14v-3.72c0-.08.05-.14.15-.14zm2.67 4c-.23 0-.35-.1-.4-.3l-.59-1.92c-.01-.04-.05-.03-.05 0v2.07c0 .08-.04.15-.14.15h-.9c-.11 0-.15-.04-.15-.15v-3.69c0-.07.05-.16.18-.16h1.14c.27 0 .46.06.55.36l.61 2.07c.02.06.08.06.1 0l.6-2.07c.1-.3.29-.36.56-.36h1.14c.13 0 .18.09.18.16v3.69c0 .11-.04.15-.15.15h-.9c-.1 0-.14-.07-.14-.15v-2.06c0-.04-.04-.05-.05 0l-.59 1.9c-.06.21-.17.31-.4.31z" fill="#165096"/></svg>