<svg height="18" viewBox="0 0 18 18" width="18" xmlns="http://www.w3.org/2000/svg"><path d="m0 0h18v18h-18z" fill="#f0f3fa"/><path d="m15 7.25c0 3.77-4.57 6.04-6.84 6.75 2.8-1.65 3.6-2.85 3.6-3.68 0-.84-.89-1.85-1.5-1.85-.62 0-.86.53-1.37.53a.9.9 0 0 1 -.89-.9c0-1.96 2.82-3.1 4.8-3.1 1.37 0 2.2.94 2.2 2.25z" fill="#283e93"/><path d="m10.81 4c2.05 0 2.82.7 3.19 1.07-.4-.16-1.4-.36-2.08-.36-4.1 0-5.92 2.77-5.92 3.79 0 1.12.68 1.5 1 1.5.82 0 1.05-.64 2.04-.64.6 0 .96.42.96.93 0 1.61-1.66 3.71-3.87 3.71a2.97 2.97 0 0 1 -3.13-2.93c0-2.37 2.04-4.58 4.16-5.86a7.87 7.87 0 0 1 3.65-1.21z" fill="#d93731"/></svg>