<svg height="18" viewBox="0 0 18 18" width="18" xmlns="http://www.w3.org/2000/svg"><path d="m0 0h18v18h-18z" fill="#f0f3fa"/><circle cx="12" cy="4" fill="#0891f3" r="1"/><path d="m9.83 4.07c.16.7.36 1.87.36 2.95 0 1.65-.52 4.62-2.38 6.62a7.8 7.8 0 0 0 5.05-7.82 5 5 0 1 1 -3.03-1.75z" fill="#3388c6"/><path d="m9.92 4.48c.13.7.27 1.65.27 2.54 0 .8-.12 1.92-.47 3.09a2.96 2.96 0 0 1 -3.85-2.85 2.97 2.97 0 0 1 4.05-2.78z" fill="#609fd4"/><path d="m10.05 5.24a11.04 11.04 0 0 1 -.13 4.11 2.35 2.35 0 1 1 .13-4.11z" fill="#8db6e3"/><circle cx="9" cy="7" fill="#deeaf6" r="1"/></svg>