<svg height="18" width="18" xmlns="http://www.w3.org/2000/svg"><path d="m0 0h18v18h-18z" fill="#f00"/><path d="m13.581 10.998s-.297.635-.5.892a5.002 5.002 0 0 1 -6.966 1.193h-.005a5.006 5.006 0 0 1 -1.188-6.976 4.988 4.988 0 0 1 3.955-2.105 4.98 4.98 0 0 1 3.017.917c1.38.978 1.857 2.52 1.857 2.52h-2.143l-1.168-2.922-1.44 3.483-1.364-3.436-2.6 6.503.715.93h6.591l.688-1h.551zm.308-2.986h-2.045l-.125-.313h2.117c.013.052.024.129.035.2zm-1.782.675h1.877a5.618 5.618 0 0 1 -.007-.102c-.006-.073-.011-.155-.019-.21h-1.976zm1.893.626h-1.642l-.097-.24-.027-.073h1.766zm-1.375.683h1.3l.052-.311h-1.477l.004.01.12.301zm1.21.255-.084.312h-.894l-.101-.254-.02-.058h1.1zm-6.27-3.67 1.431 3.419h-2.796l1.365-3.42zm1.431 3.419 1.45-3.42 1.336 3.42h-2.787z" fill="#fff"/></svg>