<svg height="18" width="18" xmlns="http://www.w3.org/2000/svg"><path d="m0 0h18v18h-18z" fill="#3147a4"/><g fill="#fff"><path d="m12.832 7.708-3.025-2.666a1.963 1.963 0 0 0 -1.638-.518c-2.365.372-4.169 2.338-4.169 4.706 0 2.635 2.231 4.77 4.983 4.77 2.688 0 4.882-2.197 4.984-4.746.006-.182-.152-.248-.313-.248h-1.928a.561.561 0 0 0 -.328.14l-2.354 2.395a.102.102 0 0 1 -.14 0l-2.361-2.262a.09.09 0 0 1 0-.133l2.397-2.355a.1.1 0 0 1 .139 0l2.15 1.964c.146.124.285.191.465.052l1.14-1.099z"/><path d="m13.898 6.285-1.598-1.383c-1.802-1.663-3.884-.518-3.884-.518s.885-.454 2.016.685l2.65 2.407.786-.744c.132-.131.164-.296.03-.447z"/></g></svg>