<svg height="18" viewBox="0 0 18 18" width="18" xmlns="http://www.w3.org/2000/svg"><path d="m0 0h18v18h-18z" fill="#f0f3fa"/><g fill="#c4141b"><path d="m15.59 8.02h-13.17v-.2h13.18v.2zm-.07 2.18h-13.1v-.2h13.1z"/><path d="m13.8 11.57c1.22-.7 1.9-1.62 1.9-2.57s-.68-1.87-1.9-2.57a9.87 9.87 0 0 0 -4.8-1.13c-1.89 0-3.59.44-4.8 1.13-1.22.7-1.9 1.62-1.9 2.57s.68 1.87 1.9 2.57a9.87 9.87 0 0 0 4.8 1.13c1.89 0 3.59-.44 4.8-1.13zm-4.8 1.43c3.87 0 7-1.8 7-4s-3.13-4-7-4-7 1.8-7 4 3.13 4 7 4z" fill-rule="evenodd"/><path d="m10.6 11.66c.44-.66.73-1.6.73-2.66 0-1.05-.29-2-.72-2.66-.44-.67-1.02-1.04-1.61-1.04-.6 0-1.17.37-1.6 1.04-.44.66-.73 1.6-.73 2.66 0 1.05.29 2 .72 2.66.44.67 1.02 1.04 1.61 1.04.6 0 1.17-.37 1.6-1.04zm-1.6 1.34c1.45 0 2.63-1.8 2.63-4s-1.18-4-2.63-4-2.63 1.8-2.63 4 1.18 4 2.63 4z" fill-rule="evenodd"/><path d="m9 12.7c2.65 0 4.68-1.71 4.68-3.7s-2.03-3.7-4.68-3.7-4.68 1.71-4.68 3.7 2.03 3.7 4.68 3.7zm0 .3c2.75 0 4.98-1.8 4.98-4s-2.23-4-4.98-4-4.98 1.8-4.98 4 2.23 4 4.98 4z" fill-rule="evenodd"/><rect height="6" rx="1" width="6.83" x="5.59" y="6"/></g><path d="m6.14 11.1c0 .28.15.37.23.38.23 0 .25-.22.23-.33v-3.39c0-.21 0-.76.62-.72.53.03.37.26.22.37-.31.02-.42.3-.44.45v1.61c0 .3.23.39.34.4h.9c.34.07.47.29.5.62.04.33-.35.62-.84.62-.5 0-.56-.56-.16-.56s.5-.06.5-.16-.34-.28-.8-.28c-.36-.01-.42.25-.44.38v.57c.03.3.22.39.34.4h1.33c.18 0 .33-.06.33-.27v-1.48c0-.24-.27-.31-.4-.32h-.82c-.22-.02-.28-.24-.3-.35v-.78c0-.17.08-.34.19-.34.09 0 .1.13.1.2-.09.13-.03.31 0 .39v.25c-.15.09-.16.48.13.45.28-.02.49-.23.49-.45 0-.18-.14-.36-.2-.43v-.27a.19.19 0 0 1 .2-.14c.14 0 .2.14.21.2v.6c0 .2.13.27.2.28h.33l.26.21v1.34c0 .22.12.3.17.33v.09c-.15.07-.18.25-.17.32.04.3.36.2.52.11h1.4c.1.1.29.09.37.08.32-.05.27-.58.2-.84h-.16v.24l-.2.23h-1.68l-.19-.14v-.1c.14-.03.19-.16.2-.23v-3.38l.23-.26h.1c0 .09.19.16.27.15h1.04c.12.02.36-.05.34-.22s-.18-.24-.26-.25h-.96c-.23 0-.38.1-.42.17h-.15s-.11-.35-.32-.4a.36.36 0 0 0 -.18 0c-.18.05-.26.4-.26.4h-.78s-.12-.39-.33-.46a.48.48 0 0 0 -.36 0c-.19.07-.32.46-.32.46h-.64c-.05-.23-.22-.47-.48-.46s-.46.38-.45.47c0 .08.15.27.22.35v3.9zm3.28-2.8v-.82c0-.27-.15-.35-.22-.36h-.45c-.22.02-.27.29 0 .28.22 0 .25.17.25.25v.65c0 .06.07.2.23.2.16.01.2-.13.19-.2zm.98 2.66c-.1 0-.22-.07-.22-.23v-.54l-.02-.01c-.05-.04-.13-.1-.15-.28 0-.2.11-.35.17-.36v-.54a.29.29 0 0 1 -.2-.27c-.01-.2.13-.28.2-.28v-.59c-.07-.04-.2-.15-.2-.27 0-.16.15-.35.29-.36.13-.02.25-.02.47.15h1.04c.07 0 .21.1.23.25v.23c0 .07-.05.22-.17.22-.13.01-.15-.14-.15-.22 0-.04-.07-.11-.3-.1h-.55c-.1 0-.28.06-.28.37 0 .39.2.42.28.43h.7c.07-.02.21-.08.2-.18 0-.13.18-.24.27-.05v.4a.37.37 0 0 1 -.35.26h-.85c-.1 0-.28.04-.25.29.04.32.2.4.33.4h.62c.15-.07.47-.14.5.2.04.33-.14.51-.24.56-.1-.1-.3-.32-.34-.4h-.59c-.08 0-.25.05-.25.2v.47c0 .07.02.23-.19.23z" fill="#f0f3fa" fill-rule="evenodd"/></svg>