<svg height="18" viewBox="0 0 18 18" width="18" xmlns="http://www.w3.org/2000/svg" xmlns:xlink="http://www.w3.org/1999/xlink"><linearGradient id="a" gradientUnits="userSpaceOnUse" x1="8.99" x2="8.99" y1="7.37" y2="12.5"><stop offset=".08" stop-color="#f4a202"/><stop offset="1" stop-color="#bf1920" stop-opacity="0"/></linearGradient><path d="m0 0h18v18h-18z" fill="#f0f3fa"/><path d="m7.45 4-4.45 5 4.43 5 1.54-1.74 1.58 1.74 4.45-5-1.28-1.43-3.17 3.56-.3-.33 3.18-3.57-1.28-1.43-3.15 3.53-.3-.33 3.15-3.57-1.28-1.43-4.45 5.03 1.58 1.77-.27.3-1.88-2.1 3.18-3.57z" fill="#bf1920"/><path d="m6.78 7.62c-1.28.3-2.49.85-3.57 1.62l4.22 4.73 1.54-1.74 1.58 1.77 4.22-4.74c-.53-.38-1.09-.71-1.68-.98l-2.54 2.85-.3-.33 2.41-2.71a9.8 9.8 0 0 0 -2.03-.58l-1.63 1.82-.3-.33 1.42-1.6a9.75 9.75 0 0 0 -2.6.05l-1.4 1.58 1.58 1.77-.27.3-1.88-2.1z" fill="url(#a)"/></svg>