<svg height="18" viewBox="0 0 18 18" width="18" xmlns="http://www.w3.org/2000/svg" xmlns:xlink="http://www.w3.org/1999/xlink"><linearGradient id="a" gradientUnits="userSpaceOnUse" x1="9" x2="8.99" y1="5" y2="11.99"><stop offset="0" stop-color="#cf8b09"/><stop offset=".46" stop-color="#fef2cd"/><stop offset=".6" stop-color="#f7e2b9"/><stop offset="1" stop-color="#bd651c"/></linearGradient><linearGradient id="b" gradientUnits="userSpaceOnUse" x1="3.79" x2="14.65" y1="11.98" y2="11.98"><stop offset="0" stop-color="#c56a1a"/><stop offset=".47" stop-color="#fef8fc"/><stop offset="1" stop-color="#c9601b"/></linearGradient><linearGradient id="c" gradientUnits="userSpaceOnUse" x1="4" x2="14" y1="11.92" y2="11.92"><stop offset=".22" stop-color="#812c30"/><stop offset=".42" stop-color="#f8d7b5"/><stop offset=".73" stop-color="#a10000"/></linearGradient><path d="m0 0h18v18h-18z" fill="#f0f3fa"/><path d="m4 5h10v8h-10z" fill="url(#a)"/><path d="m6.4 7.84c-.06-.04-.1-.05-.13-.05-.04 0-.06.03-.06.08 0 .03-.02.04-.04.05h-.02c-.01 0-.02 0-.02-.02v-.35c.02-.18.02-.44-.02-.76a.31.31 0 0 0 -.09-.2.07.07 0 0 1 -.02-.05c0-.02.01-.04.03-.05l.38-.25c.07-.05.1-.11.1-.18 0-.06.01-.08.05-.04.03.02.06.03.1.03a.7.7 0 0 1 .53.19c.02.01.03.04.02.07-.02.06-.06.12-.12.12-.11 0-.19.07-.3.09-.08 0-.18.03-.25.1-.05.05-.04.07.03.05l.26-.05c.14-.01.24-.1.38-.02a.1.1 0 0 1 .04.12l-.13.52c-.03.13-.14.22-.25.2a.7.7 0 0 1 -.29-.17c-.02-.02-.03-.05-.02-.08 0-.02.01-.02.02-.02.09.02.22.06.28-.04a.66.66 0 0 0 .07-.2c.02-.1-.05-.13-.13-.12a.98.98 0 0 1 -.16.02c-.06 0-.12-.02-.17-.05-.01 0-.02 0-.02.02-.02.14-.01.3 0 .46.01.14 0 .27-.04.4h.02c.26-.06.53-.11.8-.14.28-.03.59-.17.74.23.04.09.04.16 0 .24-.06.14-.1.28-.13.43-.04.21-.2.54-.41.57-.2.02-.48.02-.6-.11a.08.08 0 0 1 -.03-.04c0-.06-.04-.1-.08-.1-.02-.01-.02-.05 0-.05.1.03.17.04.24.03.11-.01.24-.06.39-.15a.22.22 0 0 0 .09-.1c.06-.14.09-.32.12-.47a.31.31 0 0 0 -.03-.17c0-.02-.01-.02-.02-.02a2.4 2.4 0 0 1 -.33-.04c-.1-.02-.15.05-.22.1a.14.14 0 0 1 -.09.04c-.17.02-.33.01-.5 0-.03-.01 0-.05.02-.05s.02-.01 0-.02zm5.73.42c.12-.01.24-.06.36-.07a.4.4 0 0 0 .23-.08h.04c.13.02.26.13.24.3-.05.3-.3.2-.47.21-.2 0-.36 0-.54.1a.4.4 0 0 1 -.16.06c-.13 0-.26.03-.4.07-.07.02-.13.09-.2.14a.07.07 0 0 1 -.1 0 .23.23 0 0 1 -.07-.17c-.01-.07-.02-.14-.05-.22-.03-.1 0-.19.01-.3l.03-.03c.12 0 .25.03.37.1.04.01.08 0 .1-.05.05-.17.22-.18.27-.33a.95.95 0 0 1 .11-.22v-.04c-.05-.1-.12-.2-.23-.19-.14.01-.27 0-.36-.14-.02-.04 0-.08.03-.1l.36-.14.22-.1a.62.62 0 0 1 .38-.05c.03 0 .05.03.05.06l-.02.15c0 .02 0 .03-.02.04l-.13.06c-.04.01-.05.06-.03.1.15.22.05.39.01.62-.01.07-.04.13-.06.2 0 .01 0 .02.03.02zm-2.86-.26c-.06-.1-.17-.16-.2-.27a.72.72 0 0 0 -.07-.2c-.01-.02.03-.04.06-.03h.02c.08.05.17.1.28.1.18-.03.38 0 .6.08.03 0 .04.02.04.03.01.13-.03.24-.14.35a.15.15 0 0 1 -.12.04l-.34-.04c-.06-.01-.1-.03-.13-.07zm.93.37a.4.4 0 0 0 -.04.22l-.01.03c-.06.14-.18.19-.29.28a.38.38 0 0 1 -.15.1c-.21.05-.31-.19-.37-.36-.01-.01 0-.02.01-.02.04 0 .08-.02.11-.04.18-.12.35-.21.53-.29a.4.4 0 0 0 .17-.15.07.07 0 0 1 .05-.03h.1c.02-.01.03 0 .02.02a.54.54 0 0 0 -.05.22.04.04 0 0 1 -.03.04l-.03-.01c0-.02-.01-.02-.02 0z" fill="#1c1513"/><path d="m6.99 8v.12c-.03.14-.05.32-.17.33-.1 0-.2-.02-.3 0l-.34.07c-.15.02-.47.07-.6.2-.11.12-.22.2-.32.26-.09.06-.17-.02-.19-.16a1.99 1.99 0 0 0 -.06-.3.22.22 0 0 1 .02-.19c.08-.13.29.01.4-.04a.97.97 0 0 1 .35-.08c.2 0 .36-.13.55-.15zm3.14-.4c-.1-.02-.1-.06-.02-.13a.15.15 0 0 0 .04-.05v-.05l-.15-.27c0-.01 0-.04.02-.04.14-.04.3-.06.44-.06.12 0 .18.07.2.2.02.12 0 .26-.1.31-.17.07-.31.1-.43.09z" fill="#1c1513"/><path d="m14 11.46v1.54h-10v-1.64a3.8 3.8 0 0 1 2.2-.65c1.12 0 1.82.4 2.51.8.7.42 1.4.87 2.56.87 1.12 0 2.28-.62 2.73-.92z" fill="url(#b)"/><path d="m4 11.52c.4-.3 1.14-.67 2.17-.67.8 0 1.49.4 2.22.83a5.54 5.54 0 0 0 2.88 1.01c1.06 0 2.22-.36 2.73-.65v.96h-10z" fill="url(#c)"/><path d="m4 11.91a3.8 3.8 0 0 1 2.2-.65c.8 0 1.48.37 2.21.77a5.8 5.8 0 0 0 2.88.93c1.11 0 2.25-.44 2.71-.73v.77h-10z" fill="#900000"/></svg>