<svg height="18" viewBox="0 0 18 18" width="18" xmlns="http://www.w3.org/2000/svg"><path d="m0 0h18v18h-18z" fill="#f0f3fa"/><path d="m3.84 5.6a2.2 2.2 0 0 0 -.07.1c.09-.22.2-.42.35-.61 1.3-1.66 4.65-1.4 7.5.58h2.21l-.18 1.87c1.38 1.72 1.78 3.62.83 4.83-.3.37-.69.65-1.16.83.22-.14.42-.32.58-.52.97-1.23.44-3.22-1.13-4.96l.3-1.39h-1.86l-.08-.06c-2.78-1.95-6.03-2.25-7.3-.67zm-.41 1.42c-.23.28-.36.61-.4.98-.1-.7.04-1.35.44-1.86 1.23-1.54 4.39-1.24 7.09.66l.43.32 1.39-.27-.72.85c1.9 1.8 2.62 4.01 1.59 5.32-.51.65-1.36.97-2.37.99a2.3 2.3 0 0 0 1.36-.79c.9-1.14.3-3.05-1.32-4.65l-1.15 1.34c.06-.68-.32-2.05-2.22-2.13l1.92-.37c-2.37-1.51-5-1.71-6.04-.41zm2.55-.4c-.6.07-1.12.3-1.44.71-.88 1.12-.05 3.11 1.87 4.45 1.9 1.35 4.17 1.53 5.05.42.33-.43.42-.98.29-1.58.43.95.45 1.85-.05 2.49-.98 1.24-3.6.98-5.85-.6-2.24-1.58-3.26-3.87-2.28-5.12.49-.62 1.37-.86 2.41-.76z" fill="#003e6a"/></svg>