<svg height="18" viewBox="0 0 18 18" width="18" xmlns="http://www.w3.org/2000/svg"><path d="m0 0h18v18h-18z" fill="#f0f3fa"/><path d="m6.48 6c.7-.34 2.53-1 4.26-1 2.16 0 4.26.97 4.26 2.9 0 1.52-1.59 2.95-2.42 3.5.42-.29 1.2-1.11 1.26-2.37l.02-.03h-1.66c.39-.22.67-.62.77-1.1h-.7a.83.83 0 0 1 -.76.55c-.46 0-.83-.4-.83-.9s.37-.91.83-.91c.34 0 .64.22.76.54h.7a1.54 1.54 0 0 0 -1.46-1.27c-.83 0-1.5.73-1.5 1.64 0 .63.33 1.18.81 1.45h-1.15v.36h2.54a2.5 2.5 0 1 1 -1.79-3.2l.2-.16zm6.06 5.43.04-.03z" fill="#008c52"/><path d="m3 10.1c0-1.78 1.74-3.13 2.61-3.65a3.32 3.32 0 0 0 -.96 3.16 3.49 3.49 0 0 0 2.36 2.39h4.85c-1.73.8-3.3 1-4.6 1-2.63 0-4.26-1.43-4.26-2.9z" fill="#09429c"/></svg>