<svg fill="none" height="18" viewBox="0 0 18 18" width="18" xmlns="http://www.w3.org/2000/svg"><path d="m0 0h18v18h-18z" fill="#f0f3fa"/><path d="m11.6059 10.08c-.2027.5132-.5487.952-.9937 1.2602-.4449.3082-.96854.4718-1.50377.4698-.72392 0-1.38027-.2925-1.8653-.77-.8687.21-1.66259.4075-2.27792.565.43411.7341 1.04332 1.34 1.76896 1.7595.72565.4194 1.5433.6383 2.37426.6355 2.43957 0 4.45687-1.85 4.78507-4.24997-.5333.025-1.3465.15-2.2876.32997z" fill="#003959"/><path d="m7.24313 6.96002c.48261-.475 1.13897-.7725 1.8653-.7725 1.13417 0 2.10177.72 2.49747 1.7325.7556.15703 1.5194.26722 2.2876.33-.3282-2.39999-2.3455-4.24999-4.78507-4.24999-1.76154 0-3.29865.96-4.14322 2.39749.61533.155 1.40922.3525 2.27792.5625z" fill="#003959"/><path d="m9.41007 8.06997c-3.63406-1.405-4.03463-3.26999-.47779-4.04499-2.62057.0525-4.93228 2.26499-4.93228 4.98749v.0025c0 2.72253 2.30688 4.93503 4.92987 4.98503-3.55925-.775-3.15386-2.635.4802-4.03754 2.02213-.7825 4.58993-.93499 4.58993-.93499v-.01s-2.5678-.165-4.58993-.945" fill="#c1cc23"/></svg>