<svg fill="none" height="18" viewBox="0 0 18 18" width="18" xmlns="http://www.w3.org/2000/svg"><path d="m0 0h18v18h-18z" fill="#f0f3fa"/><g fill="#000"><path d="m12 6v-1h1v1zm0 7v-6h1v6z"/><path d="m7.18416 13c-2.21803 0-3.16439-2.0366-3.18416-4 .01949-1.97153.96535-4 3.1901-4 1.27553 0 2.41954.75217 2.80792 1.98637l-.71089.28736c-.33224-.8998-1.13751-1.27373-2.10297-1.27373-1.76894 0-2.16512 1.48036-2.18416 2.9979.01857 1.5147.42715 3.0021 2.1901 3.0021.97426 0 1.70099-.2942 2.08515-1.2381l.72475.2727c-.5341 1.2824-1.51153 1.9654-2.81584 1.9654z"/></g></svg>