<svg height="18" width="18" xmlns="http://www.w3.org/2000/svg" xmlns:xlink="http://www.w3.org/1999/xlink"><linearGradient id="a" gradientUnits="userSpaceOnUse" x1="3.349" x2="21.904" y1="3.122" y2="24.434"><stop offset="0" stop-color="#1a1e21"/><stop offset="1" stop-color="#06060a"/></linearGradient><path d="m0 0h18v18h-18z" fill="url(#a)"/><path d="m8.106 8.76s-.24.24 0 .48l.655.654s.24.24.479 0l.654-.654s.24-.24 0-.48l-.655-.653s-.24-.24-.479 0" fill="#f0553b"/><path d="m7.84 10.555-1.602-1.56 1.594-1.542s.36-.369 0-.738l-.537-.547s-.36-.37-.722 0l-2.412 2.462s-.362.369 0 .738l.536.548.003.002 1.88 1.92s.362.37.723 0l.536-.547s.362-.369 0-.737zm6.01-1.889-3.53-3.516s-.335-.335-.671 0l-.5.497s-.336.335 0 .67l2.695 2.685-2.692 2.683s-.336.335 0 .67l.5.497s.335.335.671 0l3.528-3.515s.336-.335 0-.67z" fill="#fff"/></svg>