<svg height="18" viewBox="0 0 18 18" width="18" xmlns="http://www.w3.org/2000/svg"><path d="m0 0h18v18h-18z" fill="#f0f3fa"/><path d="m11.48 10.84c-.49.7-1.31 1.16-2.48 1.16-2 0-3-1.33-3-3s1-3 2.97-3c1.15 0 2 .46 2.5 1.17l1.53-1.06a5 5 0 0 0 -4.03-2.11 5.04 5.04 0 0 0 -4.97 5c0 2.76 2.3 5 4.97 5a5 5 0 0 0 4.03-2.11z" fill="#1c2641"/><path d="m10 11.85c-.32.1-.66.15-1 .15-1.52 0-3-1-3-3s1.5-3 3-3c.2 0 .39.02.58.05l.5-1.93c-.36-.08-.72-.12-1.08-.12-3 0-5 2.24-5 5s2 5 5 5c.64 0 1.23-.1 1.77-.29z" fill="#35b5b2"/></svg>