<svg height="18" width="18" xmlns="http://www.w3.org/2000/svg"><path d="m0 0h18v18h-18z" fill="#003a72"/><path d="m6.473 10.486-.02.023c-.329.355-.71.545-1.101.545-.819 0-1.414-.654-1.414-1.553 0-.902.595-1.556 1.414-1.556.392 0 .772.189 1.101.547l.02.02.527-.676-.013-.017c-.438-.55-.964-.819-1.61-.819-.648 0-1.24.213-1.67.631-.462.455-.707 1.112-.707 1.87 0 .756.244 1.447.708 1.9.429.42 1.021.599 1.67.599.645 0 1.17-.268 1.609-.82l.013-.016-.527-.677zm2.527-3.486h-1v5h1zm4.115 3.962c-.26.148-.5.223-.718.223-.314 0-.394-.271-.394-.502l-.003-2.676h1v-1.003h-1v-1.504l-1 .501v1.003h-1v1.003h1v2.922c0 .685.423 1.058 1.067 1.07.437.008.7-.112.86-.204l.01-.006.234-.86zm1.885-3.962h-1v5h1z" fill="#f0f3fa"/><path d="m15 6c-.727-1.173-2.067-2-3.5-2-1.409 0-2.75.803-3.5 2h.875a3.619 3.619 0 0 1 2.626-1.17c.914 0 1.94.412 2.624 1.17z" fill="#ed1b2e"/></svg>