<svg height="18" viewBox="0 0 18 18" width="18" xmlns="http://www.w3.org/2000/svg" xmlns:xlink="http://www.w3.org/1999/xlink"><linearGradient id="a" gradientUnits="userSpaceOnUse" x1="11.25" x2="3.88" y1="-4.75" y2="19.88"><stop offset=".12" stop-color="#3c618b"/><stop offset=".67" stop-color="#203b58"/></linearGradient><path d="m0 0h18v18h-18z" fill="url(#a)"/><path d="m8.1 6s-1.3 1.54-2.4 1.75c-.83.16-1.1-.17-1.1-.5 0-.13 0-.25.04-.35.16-.38.7-1.18 1.2-1.38s1.79-.24 1.79-.24l.46.72zm4 3.62s-.52-1.8-.17-2.86c.19-.59.44-.76.67-.76.2 0 .34.15.44.3.23.3.71 1.13.64 1.65a8.43 8.43 0 0 1 -.64 1.67h-.95zm-4.97 1.85s1.69.24 2.43 1.16c.28.33.44.45.44.65 0 .49-.57.61-.83.65-.4.04-1.14.1-1.56-.26-.42-.35-1.11-1.52-1.11-1.52z" fill="#7d8ba1"/><g fill="#fdffff"><path d="m9.2 4a5.04 5.04 0 0 0 -4.6 3s1.19-1.4 2.16-1.4c1.87 0 2.11 2.4 4.16 2.4.93 0 1.58-.67 1.58-1.53 0-1.6-1.77-2.47-3.3-2.47z"/><path d="m14 9.45c0-1.09-.2-2.07-.81-2.95 0 0 .3.98.3 1.68 0 2.08-3.3.95-4.25 2.8-.15.28-.24.7-.24 1.02 0 .98.93 1.5 1.54 1.5 1.87 0 3.46-1.82 3.46-4.05zm-5.36 4.55c.25 0 .49-.02.86-.15-.86.15-2.2-.4-2.2-1.8 0-1.22.3-1.74.3-2.77 0-.96-.72-1.78-1.77-1.78-1.09 0-1.83.9-1.83 1.91 0 2.44 2.35 4.59 4.64 4.59z"/></g></svg>