<svg height="18" viewBox="0 0 18 18" width="18" xmlns="http://www.w3.org/2000/svg"><path d="m0 0h18v18h-18z" fill="#f0f3fa"/><path d="m8.08 9.38c0-.55.46-1 1.13-1 .4 0 .65.12.85.3l-.3.3a.85.85 0 0 0 -.55-.2.6.6 0 1 0 0 1.22c.24-.01.4-.1.56-.24l.3.27c-.21.22-.46.35-.88.35-.64 0-1.11-.44-1.11-1zm-.06-1.88h2.05l2.6-2.5c-.71.07-1.42.33-2.06.56-.61.24-1.16.44-1.61.44s-.9-.2-1.4-.43a5.23 5.23 0 0 0 -1.94-.57l2.37 2.5zm-1.02.37-2.64-2.77c-.65.1-1.14.29-1.36.4v7.5c.33-.34 1.2-1 2-1 .1 0 .22 0 .33.03l1.67-1.6v-2.55zm.86 3.13-1.42 1.36.17.06c.74.27 1.56.58 2.39.58.8 0 1.62-.3 2.35-.56l-1.37-1.44zm3.14-.38 1.4 1.47c.21-.06.41-.1.6-.1.8 0 1.67.67 2 1v-7.49c-.11-.1-.42-.29-.97-.4l-3.03 2.9v2.63z" fill="#f24c4e" fill-opacity=".8"/></svg>