<svg height="18" viewBox="0 0 18 18" width="18" xmlns="http://www.w3.org/2000/svg"><path d="m0 0h18v18h-18z" fill="#f0f3fa"/><path d="m4 11h2.5v3h-2.5z" fill="#6cc8ba"/><path d="m8.5 4h-4v4h4zm2.06 8.39h-1.56v1.61h1.56z" fill="#65cdcf"/><path d="m11 12h1v1h-1z" fill="#2fbfc2"/><path d="m11.5 10h2v1.5h-2z" fill="#65cdcf"/><path d="m5.56 8.5v2.27h1.44v2.23h1.69v-1h2.31v-2.5h1.5v-3.5h-3.5v2.5z" fill="#3bc1c3"/><path d="m13 5.5v3.02h1v-3.52h-3v.5z" fill="#6cc8ba"/><path d="m6.5 13h-1.5v-2h1.5zm6-4.48h-1.5v-2.26h1.5z" fill="#01b19a"/><path d="m8.5 6h-2.94v2h2.94zm2.06 7h-1.56v-.61h1.56zm1.94-3v1.5h-1v-1.5z" fill="#3bc1c3"/></svg>