<svg height="18" viewBox="0 0 18 18" width="18" xmlns="http://www.w3.org/2000/svg"><path d="m0 0h18v18h-18z" fill="#f0f3fa"/><path d="m9.03 10.68c3.48 0 6.29-.89 6.29-1.98 0-.68-1.06-1.27-2.68-1.63 2.01.37 3.36 1.03 3.36 1.8 0 1.19-3.13 2.13-7 2.13s-7-.95-7-2.12c0-.82 1.52-1.53 3.75-1.88-1.8.35-3 .98-3 1.7 0 1.1 2.81 1.98 6.28 1.98z" fill="#1882a1"/><path d="m9.02 7.33c2.45 0 4.43.63 4.43 1.41 0 .48-.75.9-1.89 1.16 1.42-.27 2.37-.74 2.37-1.29 0-.83-2.2-1.5-4.93-1.5-2.72 0-4.93.67-4.93 1.5 0 .58 1.07 1.08 2.64 1.34-1.27-.25-2.11-.7-2.11-1.21 0-.78 1.98-1.41 4.42-1.41z" fill="#184377"/><path d="m9.03 9.34c1.2 0 2.16-.33 2.16-.75 0-.21-.27-.41-.7-.55.94.16 1.58.47 1.58.82 0 .52-1.38.94-3.07.94-1.7 0-3.07-.42-3.07-.94 0-.37.7-.69 1.73-.84-.48.14-.79.34-.79.57 0 .42.97.75 2.16.75z" fill="#1882a1"/><path d="m9.02 8.37c.57 0 1.03.16 1.03.35 0 .1-.13.2-.34.27.45-.08.76-.22.76-.4 0-.24-.66-.44-1.47-.44s-1.47.2-1.47.45c0 .17.34.33.83.4-.23-.07-.38-.16-.38-.28 0-.2.47-.35 1.04-.35z" fill="#184377"/></svg>