<svg height="18" viewBox="0 0 18 18" width="18" xmlns="http://www.w3.org/2000/svg"><path d="m0 0h18v18h-18z" fill="#041a54"/><path d="m7.35 4.76a.37.37 0 0 0 .3.07.41.41 0 0 0 .31-.48.41.41 0 0 0 -.15-.26.38.38 0 0 0 -.56.07c-.13.18-.1.44.08.58zm2.85.03c.05.03.11.04.17.04.04 0 .09 0 .13-.02.15-.06.25-.2.26-.36.01-.05 0-.11-.01-.17a.4.4 0 0 0 -.2-.24.39.39 0 0 0 -.54.2c-.1.2 0 .44.19.55zm2.64.98a.4.4 0 0 0 -.5.27c-.06.22.05.46.26.53l.12.01a.4.4 0 0 0 .18-.04.42.42 0 0 0 .22-.37.4.4 0 0 0 -.28-.4zm1.08 2.98a.39.39 0 0 0 -.56-.09.43.43 0 0 0 -.08.59c.13.18.38.22.56.08a.42.42 0 0 0 .16-.27.45.45 0 0 0 -.08-.31zm-1.2 2.65a.42.42 0 0 0 -.4.45c.01.22.18.4.4.41.23-.01.41-.21.4-.45-.01-.22-.18-.4-.4-.4zm-2.07 1.84a.39.39 0 0 0 -.55.1.43.43 0 0 0 .09.58c.18.14.43.1.55-.1a.43.43 0 0 0 -.09-.58zm-3.2-.04c-.2.07-.32.3-.24.52.05.16.2.27.36.27.05 0 .09 0 .13-.02.2-.06.33-.29.27-.5a.39.39 0 0 0 -.48-.29zm-2.05-1.76a.4.4 0 0 0 -.5.27c-.07.22.05.45.26.52l.12.02a.4.4 0 0 0 .4-.42.41.41 0 0 0 -.29-.4zm-1.24-2.78a.43.43 0 0 0 -.08.58c.13.18.38.22.55.09.18-.14.22-.4.08-.59a.39.39 0 0 0 -.55-.08zm1.12-2.08a.4.4 0 0 0 .38-.43.4.4 0 0 0 -.38-.4.4.4 0 0 0 -.39.44c.01.21.18.39.39.4zm1.27-.41a.38.38 0 0 0 .3.07.42.42 0 0 0 .33-.48.4.4 0 0 0 -.46-.34.4.4 0 0 0 -.26.17.43.43 0 0 0 .1.58zm2.26-.74a.36.36 0 0 0 .3.02c.21-.08.32-.31.26-.53a.4.4 0 0 0 -.5-.26c-.21.07-.33.3-.26.52.04.1.11.2.2.25zm2.24.77.12.03a.4.4 0 0 0 .4-.42.41.41 0 0 0 -.4-.42.4.4 0 0 0 -.4.42c0 .18.12.34.28.4zm1.44 1.98h.05a.4.4 0 0 0 .4-.41.4.4 0 0 0 -.4-.42.4.4 0 0 0 -.4.42c0 .2.15.38.35.4zm.06 2.46c.22-.01.4-.2.38-.44a.4.4 0 0 0 -.39-.4.4.4 0 0 0 -.38.44c0 .22.18.39.38.4zm-1.15 1.21a.39.39 0 0 0 -.55.1.43.43 0 0 0 .09.58c.18.13.43.09.55-.1a.43.43 0 0 0 -.09-.58zm-2.53.69a.42.42 0 0 0 -.25.53c.06.17.21.28.38.28.04 0 .09 0 .13-.02.2-.08.3-.33.22-.54a.4.4 0 0 0 -.48-.25zm-1.7-.53a.4.4 0 0 0 -.23-.2.4.4 0 0 0 -.5.27c-.07.22.05.46.26.52a.4.4 0 0 0 .5-.28.43.43 0 0 0 -.03-.3zm-1.66-2.2a.4.4 0 0 0 -.45.34c-.04.22.1.43.31.47h.03l.05.01c.09 0 .17-.03.24-.08.17-.14.2-.4.07-.58a.37.37 0 0 0 -.25-.16zm-.06-2.46a.4.4 0 0 0 -.38.43c0 .22.17.4.38.4.23 0 .4-.2.39-.43a.41.41 0 0 0 -.39-.4zm2.35-1.45a.43.43 0 0 0 .1.59c.18.13.43.08.56-.1a.43.43 0 0 0 -.1-.59.39.39 0 0 0 -.3-.07.4.4 0 0 0 -.25.18zm1.67.38c.05.18.21.3.39.3.04 0 .09-.01.13-.03a.43.43 0 0 0 .26-.54.4.4 0 0 0 -.54-.23c-.2.08-.3.3-.24.5zm2.16 1.11a.43.43 0 0 0 .02-.14.41.41 0 0 0 -.28-.39.4.4 0 0 0 -.5.28c-.06.22.05.45.26.52l.12.02c.17 0 .33-.12.38-.3zm-.05 1.28a.42.42 0 0 0 -.08.57.4.4 0 0 0 .32.17c.09 0 .17-.03.23-.08a.42.42 0 0 0 .1-.57.38.38 0 0 0 -.54-.1h-.03zm-.6 1.79a.44.44 0 0 0 0 .6.4.4 0 0 0 .3.12c.22-.01.4-.22.38-.46a.42.42 0 0 0 -.39-.4.4.4 0 0 0 -.3.14zm-.8 1.63a.43.43 0 0 0 -.09-.58.39.39 0 0 0 -.55.1.43.43 0 0 0 .1.58.38.38 0 0 0 .54-.1zm-1.68-.39a.4.4 0 0 0 -.5-.26c-.2.07-.32.3-.24.53.05.17.2.28.37.28.04 0 .09 0 .13-.02.2-.08.32-.31.25-.53zm-1.65-1.35a.37.37 0 0 0 -.3.03.43.43 0 0 0 .06.77l.12.02a.4.4 0 0 0 .4-.41.42.42 0 0 0 -.28-.4zm-.28-1.3a.41.41 0 0 0 -.33-.47.4.4 0 0 0 -.45.35c-.02.11 0 .22.07.31.13.19.38.23.56.09a.4.4 0 0 0 .15-.28zm.17-2.25a.4.4 0 0 0 -.4.42c0 .23.18.42.4.42a.4.4 0 0 0 .38-.43.4.4 0 0 0 -.38-.4z" fill="#fff"/></svg>