<svg height="18" viewBox="0 0 18 18" width="18" xmlns="http://www.w3.org/2000/svg"><path d="m0 0h18v18h-18z" fill="#f0f3fa"/><path d="m10.33 8.67a1 1 0 1 0 0-2 1 1 0 0 0 0 2z" fill="#0d1466"/><path d="m7.67 8.67a1 1 0 1 0 0-2 1 1 0 0 0 0 2zm5.33 0a1 1 0 1 0 0-2 1 1 0 0 0 0 2zm-8 0a1 1 0 1 0 0-2 1 1 0 0 0 0 2zm2.67-2.67a1 1 0 1 0 0-2 1 1 0 0 0 0 2zm2.66 0a1 1 0 1 0 0-2 1 1 0 0 0 0 2zm-2.66 5.33a1 1 0 1 0 0-2 1 1 0 0 0 0 2zm2.66 0a1 1 0 0 0 1-1c0-.55-.47-1-1.03-1a.98.98 0 0 0 -.97 1 1 1 0 0 0 1 1zm2.67 0a1 1 0 1 0 0-2 1 1 0 0 0 0 2zm-8 0a1 1 0 1 0 0-2 1 1 0 0 0 0 2zm2.67 2.67a1 1 0 1 0 0-2 1 1 0 0 0 0 2zm2.66 0a1 1 0 1 0 0-2 1 1 0 0 0 0 2z" fill="#8bd0e2"/></svg>