<svg height="18" width="18" xmlns="http://www.w3.org/2000/svg"><path d="m0 0h18v18h-18z" fill="#1383c2"/><path d="m3 8.73c1.26-.12 3.94-.54 4.62-1.25s1-3.28 1.09-4.48h.06v3.12c0 .56-.02 1.83-.2 2.45-.34.1-1.47.28-3.17.23h-2.4zm0 .54c1.26.12 3.94.54 4.62 1.25s1 3.28 1.09 4.48h.06v-3.12c0-.56-.02-1.83-.2-2.45-.34-.1-1.47-.28-3.17-.23h-2.4zm7.38-1.8c.68.72 3.36 1.14 4.62 1.26v.07h-2.4c-1.7.05-2.83-.13-3.18-.23-.17-.62-.19-1.89-.19-2.45v-3.12h.06c.08 1.2.41 3.77 1.09 4.48zm4.62 1.81c-1.26.12-3.94.54-4.62 1.25s-1 3.28-1.09 4.48h-.06v-3.12c0-.56.02-1.83.2-2.45.34-.1 1.47-.28 3.17-.23h2.4z" fill="#fff"/></svg>