<svg height="18" viewBox="0 0 18 18" width="18" xmlns="http://www.w3.org/2000/svg" xmlns:xlink="http://www.w3.org/1999/xlink"><linearGradient id="a" gradientUnits="userSpaceOnUse" x1="4.09" x2="13.78" y1="9.97" y2="7.36"><stop offset=".01" stop-color="#2965ab"/><stop offset=".24" stop-color="#128fcd"/><stop offset=".29" stop-color="#059ada"/><stop offset=".34" stop-color="#009fdf"/><stop offset=".41" stop-color="#079cdb"/><stop offset=".51" stop-color="#1a95d0"/><stop offset=".69" stop-color="#1966aa"/><stop offset=".83" stop-color="#194690"/><stop offset=".95" stop-color="#2c3584"/></linearGradient><linearGradient id="b" gradientUnits="userSpaceOnUse" x1="5.89" x2="12.16" y1="11.89" y2="11.89"><stop offset=".5" stop-color="#bbbcbe"/><stop offset="1" stop-color="#96989b"/></linearGradient><path d="m0 0h18v18h-18z" fill="#f0f3fa"/><path d="m9.02 4a5.02 5.02 0 0 0 -3.6 8.5c.04.04.07.04.09 0l1.8-1.79v-.07a2.38 2.38 0 0 1 -.67-1.66 2.36 2.36 0 1 1 4.07 1.66c-.01.03-.01.06 0 .07l1.78 1.78c.03.03.07.03.08 0a4.97 4.97 0 0 0 1.43-3.5c.05-2.74-2.2-4.99-4.98-4.99z" fill="url(#a)"/><path d="m8.98 9.78-3.08 3.06c-.03.03-.03.06 0 .08a5.02 5.02 0 0 0 6.23 0c.03-.02.03-.06.01-.08l-3.07-3.06c-.03-.03-.06-.03-.1 0z" fill="url(#b)"/></svg>