<svg height="18" width="18" xmlns="http://www.w3.org/2000/svg"><path d="m0 0h18v18h-18z" fill="#0480ca"/><path d="m6.869 4h.974s-.974 1.097-1.39 2.069h-1.643l2.06-2.069zm1.464 0h.485l-.012 2.069h-1.989c.516-1.105 1.516-2.069 1.516-2.069zm.848 0h.485s.833.619 1.492 2.069h-1.98l.004-2.069zm.974 0h.939l2.06 2.069h-1.637c-.423-1.131-1.362-2.069-1.362-2.069zm-5.691 2.413h1.866s-.367 1.064-.385 2.414h-1.941l-.004-1.827zm2.227 0h2.127l.003 2.414h-2.54c0-1.552.41-2.414.41-2.414zm2.494 0h2.12s.388 1.039.415 2.414h-2.535zm2.482 0h1.86l.47.587.003 1.827h-1.94c-.004-1.315-.393-2.414-.393-2.414zm-7.667 2.759h1.936s0 1.15.4 2.408h-1.884l-.452-.46zm2.276 0h2.542v2.413h-2.125c-.417-1.262-.417-2.413-.417-2.413zm2.905 0h2.529s.01 1.323-.41 2.413h-2.12v-2.413zm2.875 0h1.944v1.935l-.464.478h-1.886c.41-1.09.405-2.413.405-2.413zm-7.246 2.758h1.649s.707 1.552 1.448 2.07h-.993zm2.019 0h1.98l.02 2.069h-.496c-1-.862-1.504-2.069-1.504-2.069zm2.35 0h1.963s-.643 1.38-1.476 2.07l-.47-.001zm2.335 0h1.652l-2.068 2.069h-.979c.833-.862 1.395-2.069 1.395-2.069z" fill="#fff"/></svg>