<svg height="18" viewBox="0 0 18 18" width="18" xmlns="http://www.w3.org/2000/svg"><path d="m0 0h18v18h-18z" fill="#f0f3fa"/><path d="m5.96 10.55h1.97l2.67-6.44-.25 6.44h1.93l-1.68-6.55zm2.2 0h.84l1.37-5.57-2.22 5.57zm1.95 0h-.85l1.2-5.51zm-4.45-.55.27.57h-.82c-.09 0-.15.12-.1.2l.43.66h1l.36.57h-2.84l-.93-1.65a.24.24 0 0 1 .21-.35zm1.37 2-.73-1h2.77l.75 1h-.57c-.16-.21-.37-.4-.56-.4-.15 0-.04.27.04.4h-.56c-.16-.19-.35-.4-.6-.4-.18 0-.04.27.06.4zm2.94 0h2.28c.05 0 .09-.05.06-.09l-.33-.54c-.04-.07.01-.12.1-.12h.32l-.13-.25h-2.22c-.06 0-.09.05-.06.09l.35.5c.05.06 0 .15-.1.15h-.46l.2.26zm4.72-1.5h-2.41l.13.3h.38l.63 1.2h1.58l-.63-1.2h.48l-.15-.3z" fill="#277f7a"/></svg>