<svg height="18" viewBox="0 0 18 18" width="18" xmlns="http://www.w3.org/2000/svg"><path d="m0 0h18v18h-18z" fill="#f0f3fa"/><path d="m14 4h-10v10h10v-2.07c-.3-.36-.6-.58-.96-.58-.47 0-.98.27-2.04.92-.94.58-1.93.77-2.32.77-2.44.06-3.27-1.96-3.38-2.98-.62.55-1.09.53-1.25.45.72-.1 1.19-.86 1.33-1.23.25-.8 1.23-2.39 3.2-2.34a2.25 2.25 0 0 1 2.38 2.34 2.3 2.3 0 0 0 -2.28-1.88c-2.15.07-2.72 1.67-2.73 2.46.09 2.47 2.16 2.72 2.86 2.74a3.4 3.4 0 0 0 1.47-.4l1.86-1c.9-.48 1.6-.13 1.86.13v-.45c-.39-.2-.58-.28-.92-.3-.35-.03-1.12.2-2.2.86-.97.59-1.68.68-2 .67-1.87-.14-2.4-1.47-2.4-2.22s.77-2.09 2.26-2.05c1.2.03 1.57.92 1.6 1.36-.4-.82-.9-.94-1.46-.98-.57-.05-1.83.41-1.83 1.67 0 1.36 1.27 1.75 1.92 1.77a2.7 2.7 0 0 0 1.27-.35l.1-.05c.32-.2.94-.56 1.76-.92a2.07 2.07 0 0 1 1.9.08v-.42l-.02-.01c-.17-.1-.35-.2-.96-.22-.62-.02-1.8.56-2.32.88-.28.18-1 .54-1.6.56-.74.03-1.5-.54-1.5-1.31 0-.78.7-1.24 1.3-1.25.48 0 .74.28.8.43-.54-.5-1.66-.15-1.65.7 0 .84.71.96 1.02.97.24 0 .53-.08.64-.13a49.5 49.5 0 0 1 2.44-1.13 2.32 2.32 0 0 1 1.85.06z" fill="#008292"/></svg>