<svg fill="none" height="18" viewBox="0 0 18 18" width="18" xmlns="http://www.w3.org/2000/svg"><path d="m0 0h18v18h-18z" fill="#005da9"/><g fill="#fff"><path d="m12.4378 9.82994-.0524.16993c-.1749-.19404-.2901-.56166-.2901-.94974 0-.40687.1506-.74487.3429-.93892-.0524-.21282-.1245-.41097-.2061-.61127-.3555.28793-.613.84287-.613 1.55019 0 .68853.2539 1.24567.5977 1.53977-.0933.2316-.2098.4507-.3438.6573-.4138-.2003-.9791-.1064-1.556.2504-.58273.363-.94403.6259-.98483 1.1141-.22473.025-.45126.025-.67599 0-.04079-.4882-.40209-.7511-.98484-1.1141-.57693-.3568-1.14219-.457-1.55595-.2504-.13403-.2066-.25058-.4257-.34382-.6573.34382-.2941.6094-.85124.6094-1.53977 0-.70106-.27723-1.26226-.63271-1.55019-.08159.2003-.15152.39845-.19814.61127.19231.19405.35465.53205.35465.93892 0 .38808-.15651.74944-.33134.94974-.02331-.09389-.02952-.12695-.05245-.2058-.05807-.19971-.31119-.34426-.52098-.29419.09324 1.28322.85315 2.29182 1.78556 2.98042.12237-.1377.13403-.3443-.03497-.4945-.08741-.0751-.169-.1565-.25058-.2441.25641-.1002.60023-.0313.93823.1815.34382.2128.57109.2816.61771.5758-.10489-.0313-.20396-.0626-.30303-.1064-.20979-.0814-.37879.0188-.43123.2066.50699.2566 1.06643.4006 1.66666.4006.59441 0 1.15965-.144 1.66665-.4006-.0524-.1878-.2214-.2942-.4312-.2066-.0991.0376-.1982.0751-.30305.1064.0408-.2879.26805-.3567.61775-.5758.3438-.2128.6876-.2817.9382-.1815-.0816.0876-.1632.169-.2506.2441-.169.1502-.1573.3568-.035.4945.9325-.6948 1.7157-1.6972 1.8089-2.98042-.2806 0-.5331.1235-.5622.33006z"/><path d="m12.8869 7.28495c-.1336-.34388-.3079-.66786-.5186-.96395 0-.00626.0058-.00626.0058-.01252.3613-.67602-.0175-1.43967-.8508-1.95294-.3316-.20422-.6594-.35385-.9568-.35552-.4501-.00253-.8303.26747-1.04785.67451-.17483-.02504-.34965-.04958-.52448-.04958-.18065 0-.35548.02454-.52447.04958-.21249-.39758-.58018-.66645-1.01654-.67451-.3056-.00566-.64489.14153-.98812.35552-.62082.38238-1.03825.90371-1.03647 1.42425.00061.17819.09351.35629.18565.52869 0 .00626.00583.00626.00583.01252-.21066.29609-.38498.62007-.51865.96395-.69347.03129-1.1014.75739-1.1014 1.76515 0 1.014.3007 1.7401 1 1.7652-.09324-.2316-.16317-.5651-.21562-.81545-.27972-.15023-.30819-.44899-.30819-.94975 0-.48823.1357-.89371.40376-1.0502-.02331.10641-.04079.22396-.05827.33037-.03497.21908.1282.38808.30886.38182.09324-1.28318.93706-2.35234 1.86946-3.04088-.04956-.09419-.325-.1723-.46299-.17124-.16115.00124-.35028.1521-.46242.26394-.05827-.35053.19231-.73235.61772-.99525.42541-.26289.85081-.1755 1.10722.04357-.09324.0313-.18648.0626-.27972.10016-.22144.08763-.28554.28167-.18648.48823.507-.25664 1.06644-.4006 1.66667-.4006.59441 0 1.1145.14396 1.6215.4006.0315-.06577.0465-.13028.0452-.19048-.0029-.12887-.0808-.23803-.2317-.29775-.0932-.03756-.1413-.06886-.2345-.10016.2564-.22533.6818-.31272 1.1072-.04357.4254.2629.6702.64472.6177.99525-.097-.09679-.3614-.26044-.5033-.26394-.1202-.00296-.372.07588-.4221.17117.9324.6948 1.9068 1.75777 2 3.04095.1748.00626.2075-.16274.1783-.38182-.0175-.10641-.0349-.21908-.0583-.31923.2681.15649.4038.55083.4038 1.03906 0 .50076-.0285.90136-.3082 1.0453-.0524.2504-.1282.4883-.2156.7199.7051-.0251 1-.7512 1-1.7652-.0117-1.00776-.4196-1.73386-1.1131-1.76515z"/><path d="m10.2667 6.66456c.3667.22872.7311.33469.9828.33547.1202.00037.2395-.02423.3696-.0728-.1224-.18152-.2623-.34427-.4138-.50076-.2389.05008-.4141.00023-.7113-.18755s-.56242-.35702-.644-.6074c-.19814-.06259-.4021-.10641-.61189-.13145.07576.45694.48663.82648 1.02859 1.16449zm1.7102 5.70934c-.0233.3067-.372.6197-.7391.845-.3613.2253-.7285.2879-.9849.1565-.2331.0814-.47783.0931-.72841.1244.21149.3201.53931.5035.92331.5.3143-.0029.6663-.1389 1.0231-.3615.6022-.3758 1.0844-.8816 1.1005-1.3885.0051-.1602-.0248-.3205-.0934-.4768-.1515.2191-.3205.4194-.5011.6009zm-4.18817-5.7295c.54195-.33801.8916-.68739.97319-1.14433-.20979.02504-.41375.06886-.61189.13145-.08158.25038-.29137.39946-.58858.58724-.2972.18152-.5278.3251-.76673.28128-.15152.15649-.29138.25077-.41375.43229.11425.04269.23885.06516.37113.0677.33326.00641.64866-.11366 1.03663-.35563zm-1.03814 6.5745c-.36713-.2253-.60023-.5383-.62354-.845-.18065-.1815-.45887-.3818-.60456-.5947-.06522.1487-.09548.301-.0939.4534.00533.5147.48321 1.0304 1.09473 1.4119.37156.2289.738.3625 1.06208.3553.36719-.0083.68001-.1908.88431-.5-.25059-.0313-.49534-.043-.72844-.1181-.25641.1251-.62354.0625-.99068-.1628z"/></g></svg>