<svg fill="none" height="18" viewBox="0 0 18 18" width="18" xmlns="http://www.w3.org/2000/svg" xmlns:xlink="http://www.w3.org/1999/xlink"><linearGradient id="a" gradientUnits="userSpaceOnUse" x1="5.92128" x2="10.4768" y1="5.63024" y2="12.7245"><stop offset="0" stop-color="#2186a2"/><stop offset="1" stop-color="#09405b"/></linearGradient><path d="m0 0h18v18h-18z" fill="#f0f3fa"/><g clip-rule="evenodd" fill-rule="evenodd"><path d="m4.71743 13.2518c-.09896-.075-.36727-.18-.64879 0-.3519.225-.25293.7499.07697.7499s2.44126-.3 4.32169-2.1746c-.06598.2035-.09017.6106.3409.6106.53883 0 1.7815-.8142 2.1333-1.4141l.077.1822c-.2419.2749-.7258.9705-.7258 1.5532 0 .7285.4729.8356.7258.8356s1.3856-.4928 1.3856-1.7675c-.0183-.1607-.1803-.5464-.6818-.8035-.022-.507.0088-1.61539.3079-1.77822.4106.03571 1.4252.10713 2.1993.10713.9677 0 1.7705-.31066 1.7705-.53562 0-.22497-1.0667-.87842-1.8364-1.18908-.7698-.31066-1.6055-.93198-1.6055-1.31763 0-.38564.4728-.56775.7147-.56775.1224 0 .2532.12604.381.24925.125.1204.2471.2381.3558.2328.0291-.00141.0559-.00208.0805-.00269.1612-.00401.2274-.00566.2274-.20084 0-.22496-.2419-.61061-.9567-.61061s-1.9134.2571-1.9134.89984c0 .64275 1.6275 1.48903 1.8254 1.58544.198.09641 1.1327.66417 1.0447.79272s-1.9244.01071-2.3533-.52491c-.1063-.08213-.3387-.30423-.4178-.53562-.099-.28923-.121-.3428-.3629-.57847-.1936-.18854-1.0264-.89984-1.4186-1.23193.022-.1214-.00879-.40921-.3079-.58918s-.6598-.15354-.80276-.11783c-.3079-.06785-.9831-.20354-1.22063-.20354-.2969 0-1.9464.44992-1.9464 1.64971.01099.20354.16935.68345.71478.97483-.04765.30352-.06598.97697.24193 1.24264-.57916.05356-1.87163.22281-2.40827.47134-.07597.04136-.21978.08215-.1872-.08557.03257-.16772.24623-.44007.34899-.55529.05816.05651.23615.16952.48277.16952.23245 0 .42681-.20592.61873-.40924.0626-.06632.12495-.13237.18827-.19091.25743-.23798.25743-.77627-.17881-1.00858-.43624-.23232-.93064-.03967-1.45995.64028-.42345.54395-.72707 1.05391-.82595 1.2409-.04072.09632-.05468.33884.21521.53829.33736.24931.59328.32864 1.00044.32864.21524 0 .71491-.13301 1.18284-.25756.41726-.11107.80926-.21541.95184-.21274.30246.00567.60492.30031.5642.3853-.01603.03347-.05837.00281-.11859-.04078-.09273-.06713-.22785-.16494-.37452-.10654-.24193.09633-.58295.31731-.37937.5043.12722.1168.29986.1186.44413.1201.08659.0009.16296.0017.21314.0272.13378.068.13378.2663-.04072.306-.05001.0114-.16597.0953-.32047.2072-.38456.2786-1.00792.7301-1.44776.6654-.61655-.0907-.58747-.238-.37226-.374.1013-.064.1794-.0439.25371-.0248.08358.0215.16236.0418.26397-.0602.01849-.0185.03715-.0369.05545-.0549.17171-.1689.31282-.3077.00271-.3077-.34317 0-.98666.1756-1.0808.5779s.03964.697.50496.7083c.46533.0113 1.49486-.1473 1.97181-.408.38157-.2085 1.12454-.5326 1.44833-.6686l-.00674.0084c-.66761.8292-2.2204 2.7578-3.48732 2.7578-.18283 0 .09098-.2758.25074-.4137zm3.17004-5.70811c.22421-.08023.70695-.28884.84421-.4814l.21277.7689-1.79138.98286-.08922-.23402c.11897-.03343.39808-.12703.56281-.23401.2059-.13372.43925-.52151.26081-.80233zm-3.58967.64855c.13028-.17161.42511-.53489.56225-.61512.17141-.10029.25369.08024.22626.23402-.02742.15378-.29483.47471-.43197.51482-.1097.0321-.2834-.07577-.35654-.13372zm2.50685-.52272c-.11983 0-.09842.10293-.07274.1544.02424.08903.09243.28627.17117.36306.06961.06788.11782.05436.20365.03029.03554-.00996.07753-.02174.13016-.03029.15992-.02599.21482-.22707.25814-.38572l.00002-.00009c.00536-.01963.01054-.03862.01573-.05654.04707-.16275-.07703-.16692-.1669-.14188s-.38944.06677-.53923.06677zm1.96065 3.81868c.36985-.3314 1.13871-1.0335 1.2553-1.1913.1458-.1973.2511-.2762.3807-.2525s.162.9152-.46976 1.4438c-.63171.5286-.84228.6864-1.00426.6075s-.25917-.3708-.16198-.6075zm2.3814.8265c.1383-.0232.3238-.2963.3993-.43.4826.4707-.3993.9878-.578.9588-.143-.0233-.1192-.3274-.0894-.4765.0318-.0077.1299-.029.2681-.0523z" fill="url(#a)"/><path d="m10.6059 6.50899-1.48278-3.50731-4.45645 10.33332h5.77823c-.0629-.0631-.0709-.2479-.1315-.3333h-5.1289l3.94002-9.31823 1.10918 2.56371zm1.3387 6.49271c-.0886.0728-.2771.2655-.3871.3333h2.1092l-1.8519-3.81539-.0671.41466 1.3825 3.06743z" fill="#40b7ea"/></g></svg>