<svg height="18" viewBox="0 0 18 18" width="18" xmlns="http://www.w3.org/2000/svg"><path d="m0 9a9 9 0 1 1 18 0 9 9 0 1 1 -18 0z" fill="#f0f3fa"/><path d="m12.96 14h-7.92c-.57 0-1.04-.47-1.04-1.04v-7.92c0-.57.47-1.04 1.04-1.04h7.92c.57 0 1.04.47 1.04 1.04v7.92c0 .57-.47 1.04-1.04 1.04z" fill="#79c000"/><g fill="#333f48"><path d="m6 4h6v1h-6zm0 9h6v1h-6z" fill-opacity=".7"/><path d="m11.81 10a2.92 2.92 0 0 1 -2.81 2 3.01 3.01 0 0 1 -2.1-5.16 2.96 2.96 0 0 1 4.9 1.16h-1.7c-.18-.3-.52-.63-1.11-.63-.99 0-1.5.82-1.5 1.63 0 .93.67 1.63 1.56 1.63.38 0 .82-.2 1.06-.63z"/></g></svg>