<svg height="18" viewBox="0 0 18 18" width="18" xmlns="http://www.w3.org/2000/svg" xmlns:xlink="http://www.w3.org/1999/xlink"><linearGradient id="a" gradientUnits="userSpaceOnUse" x1="4.78" x2="8.81" y1="7.2" y2="7.2"><stop offset="0" stop-color="#094682"/><stop offset="1" stop-color="#0b88c1"/></linearGradient><linearGradient id="b" gradientUnits="userSpaceOnUse" x1="9.98" x2="5.78" y1="10.4" y2="12.58"><stop offset="0" stop-color="#faa61a"/><stop offset="1" stop-color="#c85223"/></linearGradient><linearGradient id="c" gradientUnits="userSpaceOnUse" x1="7.13" x2="9.66" y1="7.37" y2="12.08"><stop offset="0" stop-color="#18a3d8"/><stop offset=".52" stop-color="#d6edfa"/><stop offset="1" stop-color="#29acdf"/></linearGradient><linearGradient id="d"><stop offset="0" stop-color="#d8e02c"/><stop offset="1" stop-color="#e6eb8d"/></linearGradient><linearGradient id="e" gradientUnits="userSpaceOnUse" x1="8.47" x2="4.95" xlink:href="#d" y1="7.54" y2="8.38"/><linearGradient id="f" gradientUnits="userSpaceOnUse" x1="5.12" x2="7.61" xlink:href="#d" y1="9.95" y2="12.58"/><path d="m0 0h18v18h-18z" fill="#f0f3fa"/><path d="m5.02 5.58-1.02 4.3c-.03.15.15.27.28.18 2-1.34 3.96-1.39 4.7-1.17-.71-1.54.41-3.5 1.19-4.6.1-.13-.03-.33-.2-.28l-4.45 1.07a.67.67 0 0 0 -.49.5z" fill="url(#a)"/><path d="m8.1 13.97 4.06-1.38c.15-.05.16-.26.02-.33-2.16-1.08-3.02-2.63-3.2-3.37-.98 1.38-3.2 1.32-4.56 1.2-.16 0-.26.2-.15.31l3.15 3.4c.17.18.43.24.67.17z" fill="url(#b)"/><path d="m13.79 7.12-3.14-2.95c-.11-.1-.3 0-.3.15.16 2.42-.83 4.03-1.38 4.57 1.68.15 2.78 1.99 3.35 3.22.07.14.3.13.34-.03l1.32-4.28c.06-.25-.01-.5-.2-.68z" fill="url(#c)"/><path d="m8.8 6.7c-.26.8 0 2.02.17 2.19.17-.12.94-.61 1.34-1.69.4-1.07.17-2.35 0-3.03-.5.5-1.24 1.72-1.5 2.53z" fill="#d7df21"/><path d="m7.31 10.04c.83-.17 1.6-.92 1.66-1.15-.18-.1-.9-.37-2.04-.18-1.13.19-2.11 1.03-2.7 1.37.68.06 2.25.13 3.08-.04z" fill="url(#e)"/><path d="m10.99 9.9c-.57-.64-1.79-1.08-2.02-1.01.02.2.28 1.13 1 2.02a3.72 3.72 0 0 0 2.36 1.34c0-.67-.78-1.72-1.34-2.35z" fill="url(#f)"/></svg>