<svg height="18" width="18" xmlns="http://www.w3.org/2000/svg"><path d="m0 0h18v18h-18z" fill="#ec1c24"/><path d="m9.78 8.94a2.25 2.25 0 0 0 2.26 2.31c1.13 0 2.21-.98 2.22-2.2-.01-1.22-.95-2.36-2.24-2.3a2.17 2.17 0 0 0 -2.24 2.18zm5.22 2.31c0 1.85-1.45 2.73-2.98 2.75-1.4 0-2.43-.81-2.79-1.85h.9c.37.7 1.13 1.16 1.91 1.18 1.22 0 2.21-.68 2.18-1.9v-.73c-.41.85-1.4 1.3-2.27 1.3-1.7 0-3-1.43-2.95-3.05a2.88 2.88 0 0 1 2.95-2.94c.93-.04 1.84.5 2.28 1.34v-1.35h.77z"/><path d="m7.7 9.6a1.8 1.8 0 1 1 0-1.2h1.24a3 3 0 1 0 0 1.2z" fill="#fff"/></svg>