<svg height="18" width="18" xmlns="http://www.w3.org/2000/svg"><path d="m0 0h18v18h-18z" fill="#09253a"/><path d="m4 4v10h3.96c-1.102-.48-2.516-1.711-2.46-4.171.069-3.006 2.271-4.129 3.029-4.129h.885c-.423.086-1.423.443-2.028 1.186-.757.928-1.143 2.314-1.015 3.5.129 1.185.829 2.128 1.386 2.471s2.6.986 3.729-1.857h2.514v-7z" fill="#fff"/><path d="m13.343 12s-1.357 0-1.369.011c-.7 1.5-1.646 1.803-2.131 1.989h.3c2-.229 2.933-1.405 3.2-2zm.657-3h-3.243c-.114-.64-.724-1.529-1.014-1.786.823-.137 1.447.476 1.657.8h1.443c-.64-1.234-1.924-1.419-2.486-1.357-.71.048-2.214.786-2.457 2.614-.263 1.977.614 3.11 1.086 3.429-.229.08-.562.033-.7 0-.343-.062-1.092-.526-1.343-1.886-.252-1.36.228-2.614.5-3.071a3.69 3.69 0 0 1 3.271-2.029c1.886 0 2.962 1.653 3.286 2.5z" fill="#d3a02a"/></svg>