<svg height="18" width="18" xmlns="http://www.w3.org/2000/svg"><path d="m0 0h18v18h-18z" fill="#0077c0"/><path d="m9.225 3.154c.205.061.661.317.775.43v1.416h-.16c-.155-1.416-3.599-1.997-3.84 1.87-.193 3.084 2.242 3.832 3 3.832v-4.702c.826-.006 1.985 0 2.14 0 .273 0 1.593.273 1.633 2.252.032 1.584-1.005 2.293-1.527 2.45.584-.071 1.754.19 1.754 1.812s-1.016 2.237-1.846 2.41c-.83.171-2.154 0-2.154 0v-3.37c-1.155-.031-2.017-.41-2.405-.68-.457-.316-1.72-1.558-1.583-4.004s1.494-3.485 2.14-3.664c.719-.271 1.375-.26 2.073-.052z" fill="#fff"/><path d="m11.665 8.783c.026-1.87-1.134-1.86-1.665-1.737v3.822c.45.013 1.639-.215 1.665-2.085zm.333 3.636c.064-1.496-1.47-1.085-1.998-.856v2.432c.58.034 1.935-.08 1.998-1.576z" fill="#0077c0"/></svg>