<svg height="18" viewBox="0 0 18 18" width="18" xmlns="http://www.w3.org/2000/svg"><path d="m0 0h18v18h-18z" fill="#f0f3fa"/><g fill-rule="evenodd"><path d="m8.1 8.6-1.08-1.96h-1.76c-1.26 0-2.26 1.16-2.26 2.61s1.01 2.61 2.26 2.61h1.84l1-2.03c.2-.38.18-.85-.02-1.23zm-3.37-.05a.73.73 0 0 0 0 1.45h1.74a.73.73 0 0 0 0-1.45z" fill="#2b3991"/><path d="m12.13 9h-2.22c-.42 0-.82-.22-1.02-.59l-1.1-1.95 1.07-1.76a2.5 2.5 0 0 1 4.29 2.57l-1 1.72zm-.38-4.27c.4.26.52.81.28 1.24l-.81 1.49c-.24.43-.75.57-1.15.31a.95.95 0 0 1 -.29-1.24l.82-1.49c.24-.43.75-.57 1.15-.31z" fill="#ff3f30"/><path d="m12.13 10h-2.22c-.42 0-.82.2-1.02.53l-1.1 1.78 1.06 1.59a2.65 2.65 0 0 0 3.43.78c1.19-.65 1.57-2.04.86-3.12l-1-1.56zm-.38 3.88a.8.8 0 0 0 .3-1.13l-.86-1.35a.9.9 0 0 0 -1.19-.28.8.8 0 0 0 -.3 1.13l.86 1.35a.9.9 0 0 0 1.19.28z" fill="#00adef"/></g></svg>