<svg height="18" viewBox="0 0 18 18" width="18" xmlns="http://www.w3.org/2000/svg"><path d="m0 0h18v18h-18z" fill="#f0f3fa"/><path d="m4 13 .95-5.26c.05-.32-.15-.54-.3-.74h.85l-.11.6c.44-.6 1-.78 1.54-.4.72.5.92 1.84.46 2.97-.47 1.13-1.43 1.64-2.15 1.13a1.23 1.23 0 0 1 -.41-.54l-.4 2.24zm3.04-3.03c-.31.88-.97 1.27-1.46.88-.5-.4-.63-1.43-.32-2.32.32-.88.98-1.27 1.47-.88.49.4.63 1.43.31 2.32z" fill="#f5192f" fill-rule="evenodd"/><path d="m14 5h-2.9l-1.64 2.13-1.66-2.13h-2.9l1.16 1.48c.15-.04.3-.06.47-.05 1.14.03 1.7 1.3 1.66 2.44-.05 1.38-.9 3.24-2.27 3.27-.11 0-.22 0-.32-.03l-.7.89h2.9l1.65-2.13 1.66 2.13h2.89l-3.1-4z" fill="#201d1d"/></svg>