<svg height="18" width="18" xmlns="http://www.w3.org/2000/svg"><path d="m0 0h18v18h-18z" fill="#f0f3fa"/><g fill="#1a5078"><path d="m8.08 6.83c-1.35-1.08-.7-2.33-.2-2.83h3.57c-.61.33-1.48 1.25 0 2.31 1.5 1.07.95 2.24.5 2.7-.97.33-3 1.23-3.48 2.2-.47.97-.02 2.27.24 2.79h-2.98c-.49-.88-.73-1.1-.73-2.27s1.57-1.8 2.3-2.11c.72-.3 2.13-1.71.78-2.79z" opacity=".4"/><path d="m11.06 6.83c-1.35-1.08-.7-2.34-.2-2.83h.67c-.35 1.6 1.47 2.25 1.47 3.73 0 1.47-1.95 2.15-3.04 3.07-1.08.91-1.51 2.68-1.25 3.2-.49-.88-.73-1.1-.73-2.27s1.57-1.8 2.3-2.11c.72-.3 2.13-1.71.78-2.79z"/></g></svg>