<svg height="18" viewBox="0 0 18 18" width="18" xmlns="http://www.w3.org/2000/svg"><path d="m0 0h18v18h-18z" fill="#f0f3fa"/><path d="m7.55 10.7c-1 0-1.81-.76-1.81-1.7s.8-1.7 1.81-1.7v-.73c-1.44 0-2.6 1.09-2.6 2.43s1.16 2.43 2.6 2.43v-.74z" fill="#2d9edf"/><path d="m7.55 12.01a3.03 3.03 0 0 1 -3.05-3.01 3.03 3.03 0 0 1 3.05-3.01v-.99a4.03 4.03 0 0 0 -4.05 4c0 2.2 1.81 4 4.05 4z" fill="#244991"/><path d="m10.45 10.7c1 0 1.81-.76 1.81-1.7s-.8-1.7-1.81-1.7v-.73c1.44 0 2.6 1.09 2.6 2.43s-1.16 2.43-2.6 2.43v-.74z" fill="#2d9edf"/><path d="m10.45 12.01a3.03 3.03 0 0 0 3.05-3.01 3.03 3.03 0 0 0 -3.05-3.01v-.99c2.24 0 4.05 1.8 4.05 4s-1.81 4-4.05 4zm-.45-6.01a1 1 0 1 1 -2 0 1 1 0 0 1 2 0z" fill="#244991"/></svg>