<svg height="18" width="18" xmlns="http://www.w3.org/2000/svg" xmlns:xlink="http://www.w3.org/1999/xlink"><linearGradient id="a" gradientUnits="userSpaceOnUse" x1="3.35" x2="21.9" y1="3.12" y2="24.43"><stop offset="0" stop-color="#1a1e21"/><stop offset="1" stop-color="#06060a"/></linearGradient><linearGradient id="b" gradientUnits="userSpaceOnUse" x1="16" x2="2" y1="8.98" y2="8.75"><stop offset="0" stop-color="#3a673c"/><stop offset=".62" stop-color="#c7c7c6"/><stop offset="1" stop-color="#121212"/></linearGradient><linearGradient id="c" gradientUnits="userSpaceOnUse" x1="16" x2="2" y1="9.39" y2="9.39"><stop offset="0" stop-color="#121212"/><stop offset=".41" stop-color="#a4a4a4"/><stop offset=".59" stop-color="#e1e1e1"/><stop offset=".71" stop-color="#e1e1e1"/><stop offset="1" stop-color="#6f6f6e"/></linearGradient><path d="m0 0h18v18h-18z" fill="url(#a)"/><path d="m16 9.4v-.73c0-.92-3.13-1.67-7-1.67s-7 .75-7 1.67 3.13 1.66 7 1.66c3.19 0 6.15-.24 7-.94zm-7 .26c2.01 0 3.65-.44 3.65-1 0-.55-1.64-1-3.66-1s-3.66.45-3.66 1c0 .56 1.64 1 3.66 1z" fill="url(#b)" fill-rule="evenodd"/><path d="m16 9.4c0 .88-3.13 1.6-7 1.6-3.19 0-6.08-.45-7-1.33v-.98c.82 1.09 5 1.6 7 1.64 1.33-.01 3.5-.4 3.5-1 0-.52-2.46-1-3.5-1-2.1.01-3.23.55-3.43.69a.4.4 0 0 1 -.11-.7c.6-.49 2.26-.65 3.54-.65 3.87 0 7 .84 7 1.72z" fill="url(#c)"/></svg>