<svg fill="none" height="18" viewBox="0 0 18 18" width="18" xmlns="http://www.w3.org/2000/svg"><path d="m0 0h18v18h-18z" fill="#f0f3fa"/><path d="m4 9.4288c0-2.66623 1.51629-4.37827 2.27444-4.90102-1.02486 1.28994-1.27125 2.77596-1.26634 3.35772 0 4.3514 3.59603 4.7529 4.183 4.7529.46958 0 .65693-.0872.8089-.1308v2.3297c-.33281.1445-.85722.1681-1.19481.1618-2.29486 0-4.80519-2.2375-4.80519-5.5703z" fill="#00aebb"/><path d="m5.54551 8.05741c0-2.65576 2.00089-4.13552 3.00134-4.54343-.57168.42527-1.71505 1.65594-1.71505 3.17649 0 2.31728 1.83415 2.85104 2.64403 2.85104.64787 0 1.36137-.22565 1.52417-.33848v2.40837c-.5002.2604-1.38125.3646-2.06012.3646s-3.39437-.5989-3.39437-3.91859z" fill="#00a041"/><path d="m7.3622 6.69538c0 .90738.43887 1.49198.6583 1.67085-.02549-.11019-.07646-.38895-.07646-.62245 0-1.93574 1.82922-2.38788 2.79116-2.38788.7696 0 1.0012.28814 1.2648.43221v-2.67713c-.288-.07741-.3118-.10624-.5318-.11098-2.61088 0-4.106 2.41468-4.106 3.69538z" fill="#e8380d"/><path d="m9.5 6.4172v2.24144c.20422-.12667.6783-.38 1.4044-.38 1.8213 0 2.1155 1.92296 2.1155 2.86746 0 .7556-.2375 1.5256-.3563 1.8161.0085.0055.0254.0208.0254.0378 1.0305-1.1288 1.3034-2.7158 1.311-3.36816 0-3.06391-2.3327-3.63184-3.1917-3.63184-.6872 0-1.11992.27813-1.3083.4172z" fill="#f39700"/><path d="m11 14.6651v-2.3185c.0614-.0536 1.0883-.6821.9718-2.69858l.0222-.01252c.1412.20451.4235.8412.4235 1.7517 0 1.955-.8758 3.0119-1.4175 3.2779z" fill="#4c4398"/></svg>