<svg fill="none" height="18" viewBox="0 0 18 18" width="18" xmlns="http://www.w3.org/2000/svg"><path d="m0 0h18v18h-18z" fill="#f0f3fa"/><g clip-rule="evenodd" fill-rule="evenodd"><path d="m3.99997 5.99998h10.00003v-1h-10.00003z" fill="#ffd300"/><path d="m3.99997 13h10.00003v-1h-10.00003z" fill="#ffd300"/><path d="m3.99997 5.29998h10.00003v-.3h-10.00003z" fill="#2ea64a"/><path d="m3.99997 13h10.00003v-.3h-10.00003z" fill="#2ea64a"/><path d="m7.39046 8.47143c-.05109-.21769-.16604-.36075-.3257-.45389-.15328-.09346-.34471-.13062-.55562-.13062-.55546 0-.9321.47877-.9321 1.06344 0 .79599.52991 1.11924.9768 1.10064.33848-.0125.63226-.15553.77276-.46637h1.42385c-.14034 1.15677-1.20687 1.75987-2.33695 1.75987-1.45594 0-2.25392-1.051-2.25392-2.40036 0-1.27492.78521-2.2886 2.16435-2.2886.37057 0 .83024.10574 1.07276.41658h.01277v-.31706h1.21342v1.71637z" fill="#f37920"/><path d="m6.32414 6.8111c-1.1992 0-2.00485.85725-2.00485 2.1331 0 1.3637.82209 2.2449 2.09442 2.2449.9337 0 1.92998-.4497 2.14903-1.44891h-1.1379c-.1694.28741-.47243.45191-.86472.46631-.2802.0125-.56232-.0917-.76844-.28407-.17068-.15922-.37425-.45716-.37425-.97201 0-.69491.46956-1.21893 1.09192-1.21893.25673 0 .47212.05178.64024.15425.16956.09905.2909.24382.36035.43026h.95333v-1.40538h-.89393v.31721h-.23886l-.06067-.06142c-.25721-.32965-.78888-.35531-.94567-.35531zm.08957 4.689c-1.44364 0-2.41374-1.0272-2.41374-2.5559 0-1.46198.93401-2.44409 2.32417-2.44409.35764 0 .68223.08521.92588.23666v-.13715h1.53257v1.90036h-1.51916c-.04508-.19164-.09823-.24242-.28069-.34912-.11894-.07246-.27749-.10838-.47339-.10838-.44769 0-.7726.3819-.7726.90794 0 .32064.09548.57907.2759.74748.14353.13404.33816.20556.53438.19779.32869-.01207.54418-.10533.67552-.39571h1.70757c-.15975 1.31662-1.21446 2.00012-2.51641 2.00012z" fill="#231f20"/><path d="m11.0609 8.68031h.6403c.4489 0 .6866-.21528.6866-.51538 0-.36533-.1981-.55452-.6866-.55452h-.6403zm-1.91432 2.67459v-.9653h.48836v-2.77919h-.48836v-.96553h2.82532c1.3267 0 1.8813.49581 1.8813 1.50048s-.5546 1.50048-1.8813 1.50048h-.911v.74376h.561v.9653z" fill="#f37920"/><path d="m11.2803 8.53542h.4936c.1624 0 .5399-.0361.5399-.37041 0-.24573-.0918-.40955-.5399-.40955h-.4936zm.4936.28994h-.7739v-1.32538h.7739c.553 0 .8333.20097.8333.66503 0 .40114-.3271.66035-.8333.66035zm-2.48053 2.38464h2.25453v-.71h-.5479v-.99906h1.0446c1.2159 0 1.662-.40549 1.662-1.3555 0-.95002-.5188-1.35551-1.7346-1.35551h-2.67863v.71005h.48837v3.00002h-.48837zm2.54793.29h-2.84133v-1.2553h.48837v-2.48924h-.48837v-1.25548h2.97203c1.3647 0 2.028.53829 2.028 1.64546 0 1.10716-.5906 1.64545-1.9554 1.64545h-.7643v.45381h.561z" fill="#231f20"/></g></svg>