<svg height="18" viewBox="0 0 18 18" width="18" xmlns="http://www.w3.org/2000/svg"><path d="m0 0h18v18h-18z" fill="#182341"/><path d="m13.39 4.3-1.03 1.03c-1.82 1.83-3.82 3.51-4.88 4.1-.7.38-1.18.4-1.59.09-.16-.13-.25-.23-.2-.23.07 0 .2.08.3.17.26.22.45.22.45 0 0-.27-.43-.51-.9-.5-.25 0-.53-.02-.63-.04-.34-.06-.29.24.08.5.4.27.55.7.34.98-.1.14-.24.16-.63.1-1.92-.26-2.18-.19-.95.28 1.93.73 7.66 2.36 7.79 2.21.04-.05-.24-.34-.62-.64-.39-.3-.7-.62-.7-.7 0-.2.53-.7 1.81-1.72.54-.42 1-.82 1.03-.89.14-.24-.08-.24-.58 0-1.11.57-1.21.61-1.12.5.06-.07.6-.53 1.19-1.02 1.02-.84 1.32-1.19 1.05-1.19-.06 0-.6.32-1.2.7-.61.39-1.12.69-1.13.66-.02-.02.57-.65 1.3-1.4a11.1 11.1 0 0 0 1.33-1.54c0-.2-.16-.1-1.44.89-.55.42-1.06.81-1.15.86-.08.06.5-.65 1.27-1.57.78-.93 1.42-1.74 1.42-1.8 0-.23-.27-.15-.61.18z" fill="#fdca15"/></svg>