<svg height="18" viewBox="0 0 18 18" width="18" xmlns="http://www.w3.org/2000/svg"><path d="m0 0h18v18h-18z" fill="#f0f3fa"/><path d="m8.38 12.7c-2.1 0-4.08-1.34-4.08-3.57 0-1.19.66-2.48 1.98-3.33-1.5.62-2.78 2-2.78 3.7 0 2.36 1.85 4 4.88 4 1.53 0 3.24-.9 4.12-1.8-1.22.7-3 1-4.12 1z"/><path d="m13.94 9.7a6.03 6.03 0 0 0 -2.2-.7c-.14 0-.23 0-.39.11-.67.45-1.77.89-2.98.89-1.71 0-3.23-1.02-2.8-2.65.37-1.1 2.03-1.35 3.75-1.35.7 0 2.04.24 2.75.89.1.08.28.11.48.11s1.3-.63 1.85-.93c.06-.04.1-.12.1-.17a.3.3 0 0 0 -.1-.24 5.37 5.37 0 0 0 -3.3-1.16c-2.67 0-6.1 1.7-6.1 4.72 0 .73.32 1.43.94 1.97.78.7 1.93 1.01 3.17 1.01 1.87 0 3.59-.78 4.83-2.13a.28.28 0 0 0 .06-.2c0-.04.02-.12-.06-.17z" fill="#e87d0a"/></svg>