<svg height="18" viewBox="0 0 18 18" width="18" xmlns="http://www.w3.org/2000/svg"><path d="m0 0h18v18h-18z" fill="#f0f3fa"/><path d="m9.49 3.2a.69.69 0 0 0 -.98 0l-1.8 1.81a.69.69 0 0 0 0 .98l1.8 1.8c.27.28.7.28.98 0l1.8-1.8a.69.69 0 0 0 0-.98l-1.8-1.8zm0 1a.69.69 0 0 0 -.98 0l-.8.81a.69.69 0 0 0 0 .98l.8.8a.69.69 0 0 0 .98 0l.8-.8a.69.69 0 0 0 0-.98l-.8-.8zm0 6a.69.69 0 0 0 -.98 0l-1.8 1.81a.69.69 0 0 0 0 .98l1.8 1.8c.27.28.7.28.98 0l1.8-1.8a.69.69 0 0 0 0-.98l-1.8-1.8zm0 1a.69.69 0 0 0 -.98 0l-.8.81a.69.69 0 0 0 0 .98l.8.8a.69.69 0 0 0 .98 0l.8-.8a.69.69 0 0 0 0-.98l-.8-.8zm-3.5-4.5a.69.69 0 0 0 -.98 0l-1.8 1.81a.69.69 0 0 0 0 .98l1.8 1.8c.27.28.7.28.98 0l1.8-1.8a.69.69 0 0 0 0-.98l-1.79-1.8zm0 1a.69.69 0 0 0 -.98 0l-.8.81a.69.69 0 0 0 0 .98l.8.8a.69.69 0 0 0 .98 0l.8-.8a.69.69 0 0 0 0-.98l-.8-.8z" fill="#395676" fill-rule="evenodd"/><path d="m12.99 6.7a.69.69 0 0 0 -.98 0l-1.8 1.81a.69.69 0 0 0 0 .98l1.8 1.8c.27.28.7.28.98 0l1.8-1.8a.69.69 0 0 0 0-.98l-1.79-1.8zm0 1a.69.69 0 0 0 -.98 0l-.8.81a.69.69 0 0 0 0 .98l.8.8a.69.69 0 0 0 .98 0l.8-.8a.69.69 0 0 0 0-.98l-.8-.8z" fill="#179cd7" fill-rule="evenodd"/><path d="m7.66 6.4.55.55-1.1 1.1-.55-.55zm.52 4.62-.55.55-1.1-1.1.56-.54z" fill="#395676"/></svg>