<svg fill="none" height="18" viewBox="0 0 18 18" width="18" xmlns="http://www.w3.org/2000/svg"><path d="m0 0h18v18h-18z" fill="#f0f3fa"/><path clip-rule="evenodd" d="m3.13445 6.1723c-.7623.77429-1.13139 1.74785-1.13443 2.83204-.00608 2.23506 1.78738 3.99836 3.88735 3.99266 1.91957-.0052 4.03567-1.6871 4.16263-3.78014.0782-1.29412.6758-2.27471 2.1176-2.21686 1.1897.04774 1.825.75322 1.8324 2 .0071 1.1871-.5202 2-1.6372 2-1.2692 0-1.8232-.397-1.8397-.3781-.0091.0105-.1102.211-.2245.4455s-.2976.6991-.40715.8558l-.19935.2849.3863.2344c.2124.1288.591.3059.8412.3935.386.135.5538.1598 1.1087.1639 1.0702.0079 2.0491-.3753 2.8073-1.1539 1.224-1.2572 1.5042-3.01447.7399-4.6416-.6567-1.39819-2.0744-2.20644-3.5472-2.1956-2.13574.01574-3.86659 1.92443-4.0283 3.9912-.104 1.3289-.79509 2.0035-2.14106 2-1.21273-.0032-2.10894-.7343-2.10894-1.99566 0-1.27235.8779-2.00434 2.10894-2.00434.65877 0 1.10345.17169 1.60779.56693l.09467-.25468c.05209-.1401.23348-.74622.40184-1.02163l.30614-.50078-.21015-.13619c-.64322-.4168-1.26254-.61787-2.00128-.64987-1.1069-.04787-2.12784.36033-2.9235 1.16852z" fill="#202020" fill-rule="evenodd"/><circle cx="12" cy="9" fill="#e92c32" r="1"/></svg>