<svg height="18" viewBox="0 0 18 18" width="18" xmlns="http://www.w3.org/2000/svg"><path d="m0 0h18v18h-18z" fill="#f0f3fa"/><path d="m3.05 7.54 1.95.08v-.16zm-.59 1.43 2.54.09v-.19zm-.46 1.48 3 .1v-.22z" fill="#d90127"/><path d="m5 8.67c.03-.36.1-.71.22-1.05h-.22zm1.12-2.5c.59-.6 1.31-1 2.1-1.17h-3.22v2.46h.29c.2-.49.48-.93.83-1.3zm-1.12 3.15v1.01h.2c-.1-.32-.18-.66-.2-1.01zm1.22 2.56a3.77 3.77 0 0 1 -.94-1.32h-.28v2.44h3.71a4.28 4.28 0 0 1 -2.5-1.12zm3-5.02c-.5-.01-.99.17-1.38.52l2.71-.07a2.2 2.2 0 0 0 -1.33-.45zm3.78-1.86h-3c.33.07.69.18 1 .32v1.98l2-.06zm0 2.82-5.41-.14c-.23.33-.37.72-.4 1.13l5.81-.16zm-2 2.88v1.95a7.3 7.3 0 0 1 -1.45.35h3.45v-2.24zm2-1.42-5.8-.17c0 .43.14.84.37 1.17l5.43-.17zm-3.75 1.79c.44 0 .86-.14 1.23-.39l-2.57-.06c.4.3.86.47 1.34.45z"/><path d="m13 7.24v.58l2.43.07.27-.72zm0 2.02 1.88.06.28-.73-2.16.06zm0 1.5 1.3.03.28-.72-1.58.04z" fill="#d90127"/></svg>