<svg height="18" viewBox="0 0 18 18" width="18" xmlns="http://www.w3.org/2000/svg" xmlns:xlink="http://www.w3.org/1999/xlink"><linearGradient id="a" gradientUnits="userSpaceOnUse" x1="4.25" x2="14.24" y1="9.56" y2="9.27"><stop offset="0" stop-color="#f05523"/><stop offset="1" stop-color="#f89c2f"/></linearGradient><linearGradient id="b" gradientUnits="userSpaceOnUse" x1="6" x2="15.16" y1="6.46" y2="6.14"><stop offset="0" stop-color="#0e93d3"/><stop offset="1" stop-color="#164899"/></linearGradient><linearGradient id="c" gradientUnits="userSpaceOnUse" x1="3" x2="12" y1="12.84" y2="12.2"><stop offset="0" stop-color="#029148"/><stop offset="1" stop-color="#b3c33d"/></linearGradient><linearGradient id="d" gradientUnits="userSpaceOnUse" x1="3.64" x2="12.48" y1="11.7" y2="11.54"><stop offset=".32" stop-color="#008f48"/><stop offset=".89" stop-color="#b1c23e"/></linearGradient><path d="m0 0h18v18h-18z" fill="#f0f3fa"/><path d="m5.43 8.17s.96-.1 1.92-.1 3.55.3 4.18.3c.62 0 2.06-.16 2.47-.37-.05.04-1.43 1.84-1.43 1.84s-1.08.14-1.9.14-3-.3-4.34-.3-2.33.32-2.33.32z" fill="url(#a)"/><path d="m6 6.75s1.57-1.4 3.22-1.4 2.36.14 3.5.14c1.13 0 1.88-.12 2.28-.49-.35.72-.87 1.54-.87 1.54s-.69.46-2.36.46c-1.66 0-2.9-.22-4.05-.25-1.16-.04-1.72 0-1.72 0z" fill="url(#b)"/><path d="m12 11.25s-1.57 1.4-3.22 1.4-2.36-.14-3.5-.14c-1.13 0-1.88.12-2.28.49.35-.72.87-1.54.87-1.54s.69-.46 2.36-.46c1.66 0 2.9.22 4.05.25 1.16.04 1.72 0 1.72 0z" fill="url(#c)"/><path d="m3.88 11.46c.08-.05.7-.4 1.75-.21 1.12.2 2.35.73 3.64.72a7 7 0 0 0 2.73-.72s-.56.04-1.72 0c-1.15-.03-2.38-.25-4.05-.25a4.6 4.6 0 0 0 -2.35.46z" fill="url(#d)"/></svg>