<svg height="18" viewBox="0 0 18 18" width="18" xmlns="http://www.w3.org/2000/svg"><path d="m0 0h18v18h-18z" fill="#f0f3fa"/><path d="m5.5 11a17.26 17.26 0 0 1 -3.5 2h9.27c0-.74.11-1.64.17-2z"/><path d="m6.06 13c.87-.9 1.52-1.71 1.73-2h.92c-.38.68-1.12 1.61-1.44 2h-1.2z" fill="#fec331"/><path d="m12.57 5c-2.7.62-4.66 1.96-5.3 2.56h5.38c.78-1.37 2.56-2.28 3.35-2.56z"/><path d="m14.42 5a8.85 8.85 0 0 0 -4.72 2.56h.9c.97-1.34 3.28-2.27 4.31-2.56h-.5z" fill="#fec331"/><path d="m8.64 8.38-.2.46h-.71l.18-.37a.12.12 0 0 0 -.11-.17h-.25c-.05 0-.09.03-.1.07l-.65 1.44c-.04.08.02.17.1.17h.2c.05 0 .1-.03.12-.07l.25-.43h.71l-.29.53a.86.86 0 0 1 -.71.43h-.48a.6.6 0 0 1 -.56-.85l.58-1.23c.14-.3.44-.48.76-.48h.83c.26 0 .44.26.33.5z"/><path d="m8 10.44.21-.45h.18l.76-1.67h-.23l.23-.44h1.56c.26 0 .44.28.32.53l-.39.8a.48.48 0 0 1 -.43.27h-.87l-.23.51h.23l-.2.45zm1.58-1.48.29-.62h.29c.09 0 .15.1.1.18l-.18.38a.12.12 0 0 1 -.1.06z" fill-rule="evenodd"/><path d="m12.6 7.88h-1.11l-.23.5h.23l-.75 1.62h-.21l-.19.45h1.15l.2-.45h-.24l.72-1.6h.2l.23-.51z"/></svg>