<svg height="18" width="18" xmlns="http://www.w3.org/2000/svg"><path d="m0 0h18v18h-18z" fill="#0099d8"/><g fill="#fff"><path d="m3 9c0-2.761 2.274-5 5.08-5h4.92v1.429h-4.92c-2.004 0-3.629 1.599-3.629 3.571s1.625 3.571 3.629 3.571h4.92v1.429h-4.92c-2.806 0-5.08-2.239-5.08-5z"/><path d="m5.145 9c0-1.657 1.304-3 2.912-3h4.943v1.5h-4.943c-.804 0-1.456.672-1.456 1.5s.652 1.5 1.456 1.5h4.943v1.5h-4.943c-1.608 0-2.912-1.343-2.912-3z"/><path d="m7.447 9c0-.394.337-.8.753-.8h4.8v1.603h-4.8c-.416 0-.753-.409-.753-.803z"/></g></svg>