<svg fill="none" height="18" viewBox="0 0 18 18" width="18" xmlns="http://www.w3.org/2000/svg" xmlns:xlink="http://www.w3.org/1999/xlink"><clipPath id="a"><path d="m0 0h18v18h-18z"/></clipPath><clipPath id="b"><path d="m0 0h18v18h-18z"/></clipPath><g clip-path="url(#a)"><path d="m0 0h18v18h-18z" fill="#f0f3fa"/><g clip-path="url(#b)"><g opacity=".6"><g stroke="#e0e3eb"><circle cx="9" cy="9" r="8.875" stroke-width=".25"/><rect height="7.9" rx=".95" stroke-width=".1" width="11.9" x="3.05" y="5.05"/><rect height="5.9" rx=".95" stroke-width=".1" width="13.9" x="2.05" y="6.05"/><rect height="9.9" rx=".95" stroke-width=".1" width="9.9" x="4.05" y="4.05"/><rect height="11.9" rx=".95" stroke-width=".1" width="7.9" x="5.05" y="3.05"/><rect height="13.9" rx=".95" stroke-width=".1" width="5.9" x="6.05" y="2.05"/></g><circle cx="9" cy="9" r="4.875" stroke="#c1c4cd" stroke-width=".25"/></g></g><path d="m9.07798 3c-4.43374 0-5.89938 3.7048-6.07798 5.55721.28464-1.37277 1.58396-4.11829 4.50406-4.11829 3.12104 0 3.92364 2.2714 3.93474 3.4071 0 3.20198-2.73477 3.78198-4.10218 3.67168.20093.5458 1.0716 1.6374 2.94688 1.6374 3.3354 0 4.2808-2.9329 4.3366-4.39942 0-1.91856-1.1084-5.75568-5.54212-5.75568z" fill="#0154a3"/><path d="m8.92202 15c4.43378 0 5.89938-3.7048 6.07798-5.55721-.2846 1.37281-1.584 4.11831-4.5041 4.11831-3.12099 0-3.92357-2.2714-3.93473-3.4071 0-3.20203 2.7348-3.78201 4.10223-3.67174-.2009-.5458-1.07162-1.63739-2.94692-1.63739-3.33535-.00001-4.28081 2.93297-4.33662 4.39945 0 1.91858 1.10843 5.75568 5.54216 5.75568z" fill="#8b8c91"/></g></svg>