<svg height="18" viewBox="0 0 18 18" width="18" xmlns="http://www.w3.org/2000/svg"><path d="m0 0h18v18h-18z" fill="#f0f3fa"/><path d="m12 6.21c0 .14-.06.12-.2.12h-5.6c-.13 0-.19.02-.19-.12v-.01c0-.05.07-.1.1-.11l2.82-1.09h.16l2.81 1.07c.04.01.11.07.11.11v.03zm-1 4.55v-3.52c0-.14.13-.24.26-.24h.54c.13 0 .2.1.2.24v3.52c0 .14-.07.24-.2.24h-.64c-.13 0-.17-.1-.17-.24zm-2.5 0v-3.52c0-.14.12-.24.25-.24h.54c.13 0 .24.1.24.24v3.52c0 .14-.11.24-.24.24h-.54a.24.24 0 0 1 -.24-.24zm-2.5.04v-3.57c0-.13.1-.23.23-.23h.53c.13 0 .24.1.24.23v3.56c0 .13-.03.21-.17.21h-.66c-.14 0-.17-.08-.17-.21zm6 1.47c0 .13-.07.25-.2.25h-5.6c-.14 0-.2-.12-.2-.25v-.38c0-.13.06-.21.2-.21h5.6c.13 0 .2.08.2.21zm-3-9.27a6 6 0 1 0 0 12 6 6 0 0 0 0-12z" fill="#18739f"/></svg>