<svg fill="none" height="18" width="18" xmlns="http://www.w3.org/2000/svg"><path d="m0 0h18v18h-18z" fill="#f0f3fa"/><path d="m9.814 14c-1.65 0-2.95-.46-3.9-1.377-.944-.927-1.414-2.186-1.414-3.776 0-.536.09-1.08.271-1.633a4.815 4.815 0 0 1 1.049-1.85c.84-.909 2.038-1.364 3.593-1.364.628 0 1.198.051 1.708.153.543.11.908.156 1.167.173.102.009.153.056.153.14 0 .676.021 1.36 0 2.034-.008.179-.047.25-.11.25s-.114-.071-.114-.25c0-.561-.2-.982-.53-1.288-.526-.485-1.312-.727-2.356-.727-1.21 0-2.113.31-2.71.93-.707.74-1.06 1.85-1.06 3.33 0 1.258.392 2.343 1.178 3.252.824.944 1.85 1.416 3.075 1.416.99 0 1.673-.212 2.05-.638.212-.238.357-.595.436-1.07.023-.129.063-.192.117-.192.056 0 .083.063.083.191 0 .068-.027.298-.082.689a7.529 7.529 0 0 1 -.177.944.524.524 0 0 1 -.306.37c-.44.195-1.147.293-2.121.293z" fill="#3d3d3d"/></svg>