<svg height="18" width="18" xmlns="http://www.w3.org/2000/svg" xmlns:xlink="http://www.w3.org/1999/xlink"><linearGradient id="a"><stop offset="0" stop-color="#a5273a"/><stop offset=".477" stop-color="#da8f90"/><stop offset="1" stop-color="#fbe7e7"/></linearGradient><linearGradient id="b" gradientUnits="userSpaceOnUse" x1="6.454" x2="3.024" xlink:href="#a" y1="10.634" y2="10.634"/><linearGradient id="c" gradientUnits="userSpaceOnUse" x1="9.988" x2="6.428" y1="10.633" y2="10.633"><stop offset="0" stop-color="#a5273a"/><stop offset=".466" stop-color="#da8f90"/><stop offset="1" stop-color="#fbe7e7"/></linearGradient><linearGradient id="d" gradientUnits="userSpaceOnUse" x1="11.571" x2="8.034" xlink:href="#a" y1="7.366" y2="7.366"/><linearGradient id="e" gradientUnits="userSpaceOnUse" x1="14.976" x2="11.546" xlink:href="#a" y1="7.366" y2="7.366"/><path d="m0 0h18v18h-18z" fill="#356395"/><path d="m4.74 8.3-1.717 1.4v1.867l1.715 1.4 1.715-1.4v-1.866z" fill="url(#b)"/><path d="m4.725 8.28-1.725 1.406v1.893l1.74 1.421 1.738-1.42v-1.893l-1.738-1.42-.014.012zm.014.053 1.69 1.38v1.84l-1.69 1.381-1.69-1.38v-1.84c.018-.016 1.662-1.357 1.69-1.38z" fill="#9d1535"/><path d="m8.016 8.313-1.588 1.386v1.867l1.78 1.4 1.78-1.4v-1.867z" fill="url(#c)"/><path d="m7.993 8.29-1.59 1.397v1.893l1.793 1.42 1.804-1.42v-1.893l-1.992-1.41-.015.012zm.015.046c.029.024 1.911 1.362 1.93 1.378v1.84l-1.742 1.38-1.743-1.38v-1.84c.02-.016 1.525-1.354 1.555-1.378z" fill="#9d1535"/><path d="m9.803 5.033-1.769 1.4v1.867l1.962 1.376 1.575-1.376v-1.867z" fill="url(#d)"/><path d="m9.786 5.012-1.786 1.408v1.893l2 1.39 1.595-1.39v-1.893l-1.795-1.42-.015.012zm.015.054 1.744 1.38v1.84c-.02.016-1.516 1.328-1.545 1.351-.03-.023-1.923-1.335-1.942-1.35v-1.842l1.742-1.379z" fill="#9d1535"/><path d="m13.26 5.033-1.714 1.4v1.867l1.715 1.4 1.715-1.4v-1.867l-1.715-1.4z" fill="url(#e)"/><path d="m13.246 5.012-1.725 1.408v1.893l1.74 1.42 1.739-1.421v-1.892l-1.74-1.42zm.015.054 1.69 1.38v1.84l-1.69 1.38-1.691-1.38v-1.84l1.69-1.38z" fill="#9d1535"/></svg>