<svg fill="none" height="18" width="18" xmlns="http://www.w3.org/2000/svg"><path d="m0 0h18v18h-18z" fill="#f6cd55"/><path d="m15.8 7.372-6.761-1.364-.033-.008-.038.008-6.78 1.372-.188.045v3.12l.187.045 6.774 1.402.045.008.046-.008 6.76-1.417.188-.045v-3.112z" fill="#fff"/><path d="m8.996 6.264-6.774 1.38v2.685l6.774 1.395 6.768-1.41v-2.684zm.458 3.383a.61.61 0 0 1 -.202.148.537.537 0 0 1 -.237.047c-.426-.035-.598-.571-.392-.91a.44.44 0 0 1 .231-.193.492.492 0 0 1 -.103-.3c0-.232.116-.439.445-.439.22 0 .432.117.432.424 0 .203-.077.315-.245.383l.18.277a3.45 3.45 0 0 0 .214-.33l.18.255c-.057.119-.127.23-.206.33l.297.443h-.5zm-.432-.653c-.1.08-.117.27-.038.377.073.1.213.093.302.013zm.174-.405c.05-.034.088-.06.103-.11.03-.099-.075-.224-.162-.13-.069.075.003.18.06.24z" fill="#000"/><path d="m2.551 10.045v-2.115l6.449-1.32v1.265c-.307.071-.47.478-.34.795a.72.72 0 0 0 -.284.503c-.046.397.212.785.624.827v1.363zm8.214-2.276h1.236l.366 1.487.367-1.487h1.266v2.434h-.806v-1.801l-.5 1.801h-.666l-.467-1.801v1.801h-.801z" fill="#f6cd55"/><path d="m5.394 9.008c0-.549.262-.76.686-.76.316 0 .545.202.572.477h1.176c-.148-1.063-1.11-1.215-1.748-1.215-.637 0-1.813.087-1.813 1.499s1.176 1.455 1.813 1.455c.817 0 1.63-.26 1.764-1.173h-1.176c0 .281-.313.432-.588.434-.422 0-.686-.259-.686-.716z" fill="#000"/></svg>