<svg height="18" width="18" xmlns="http://www.w3.org/2000/svg"><path d="m0 0h18v18h-18z" fill="#f0f3fa"/><path d="m4 7.48a2.42 2.42 0 0 1 2.4-2.48c2.22 0 2.48 1.88 2.1 2.48-.27.4-.28.8-.3 1.04 0 .85.52 1.4 1.66 1.76.9.29 1.07 1.1 1.03 1.47-.22 1.58-1.42 2.08-2.17 2.08-2.35-.12-4.79-3.92-4.7-6.35z" fill="#083a81"/><path d="m14 7.48c.05-2-1.49-2.49-2.26-2.48-2.15 0-3.04 2.54-3.1 3.56-.04.82.84 1.22 1.29 1.31 1.09.47 1.36 1.37 1.37 1.76.01 1.61-1.59 2.23-2.02 2.29a3.9 3.9 0 0 1 -.9 0c.33.09.64.1.9.07 1.15-.12 2.02-1.13 3.02-2.65 1-1.53 1.67-2.7 1.7-3.86z" fill="#009bc9"/></svg>