<svg height="18" viewBox="0 0 18 18" width="18" xmlns="http://www.w3.org/2000/svg"><path d="m0 0h18v18h-18z" fill="#f0f3fa"/><path d="m5.14 4.87a5 5 0 0 1 2.82-.87c.04 0 .04.04.04.05v2.64s0 .05-.04.05a4.73 4.73 0 0 0 -3.48 1.41c-.32-.4-.48-.85-.48-1.32 0-.74.4-1.43 1.14-1.96zm-1.14 4.87v-2.11c.53 1.27 2.26 2.2 4.32 2.2 2 0 3.77-.9 4.31-2.19v1.94c-.17.17-.37.32-.58.46a7.26 7.26 0 0 1 -3.74 1.04c-.12.01-.31.1-.31.23v1.25c-2.34-.03-4-1.28-4-2.82z" fill="#0589d3"/><path d="m8.37 11.27c-.03 0-.05.02-.05.04v2.64c0 .04.03.05.04.05a7.1 7.1 0 0 0 3.71-1.04 3.87 3.87 0 0 0 1.93-3.22v-1.84c-.29.9-.93 1.7-1.85 2.3a7.3 7.3 0 0 1 -3.78 1.07z" fill="#01c2bd"/></svg>