<svg fill="none" height="18" width="18" xmlns="http://www.w3.org/2000/svg" xmlns:xlink="http://www.w3.org/1999/xlink"><linearGradient id="a" gradientUnits="userSpaceOnUse" x1="6.5" x2="6.5" y1="4.008" y2="12.994"><stop offset="0" stop-color="#b1c857"/><stop offset="1" stop-color="#5e902c"/></linearGradient><linearGradient id="b" gradientUnits="userSpaceOnUse" x1="6" x2="6" y1="4.008" y2="12.663"><stop offset="0" stop-color="#8aa71c"/><stop offset="1" stop-color="#5d8e25"/></linearGradient><linearGradient id="c" gradientUnits="userSpaceOnUse" x1="8.749" x2="8.749" y1="4" y2="12.994"><stop offset=".161" stop-color="#9bbce4"/><stop offset=".844" stop-color="#0084c6"/></linearGradient><linearGradient id="d" gradientUnits="userSpaceOnUse" x1="6.808" x2="6.808" y1="7.286" y2="12.821"><stop offset=".073" stop-color="#82afda"/><stop offset=".62" stop-color="#057db7"/></linearGradient><linearGradient id="e" gradientUnits="userSpaceOnUse" x1="11.058" x2="13.234" y1="5.211" y2="11.771"><stop offset=".219" stop-color="#fdc935"/><stop offset="1" stop-color="#f4911d"/></linearGradient><linearGradient id="f" gradientUnits="userSpaceOnUse" x1="9.146" x2="8.943" y1="7.459" y2="12.646"><stop offset="0" stop-color="#f7b42f"/><stop offset=".646" stop-color="#f18c03"/></linearGradient><path d="m0 0h18v18h-18z" fill="#f0f3fa"/><path clip-rule="evenodd" d="m5.092 14c.068-.009.718 0 .718 0s-.437-.594-.218-2.498l-.365.098s-.404.974-.135 2.4z" fill="#598c33" fill-rule="evenodd"/><path clip-rule="evenodd" d="m8.123 4.008s.877 2.287.877 4.62c0 2.335-.727 4.366-2.636 4.366-2.166 0-2.364-2.183-2.364-2.589 0-.5-.041-1.7 2.24-3.307 1.726-1.228 1.883-3.09 1.883-3.09z" fill="url(#a)" fill-rule="evenodd"/><path d="m8.123 4c.001.008.034.815-.061 1.927-.197 2.31-2.532 4.299-2.949 6.736-1.028-.599-1.113-1.981-1.113-2.295v-.026c0-.513-.002-1.692 2.149-3.262 1.651-1.216 1.973-3.066 1.974-3.08z" fill="url(#b)"/><g clip-rule="evenodd" fill-rule="evenodd"><path d="m10.535 4s.964 2.289.964 4.625-.791 4.37-2.9 4.37c-2.382 0-2.6-2.186-2.6-2.592 0-.501-.045-1.703 2.464-3.31 1.909-1.23 2.072-3.093 2.072-3.093z" fill="url(#c)"/><path d="m10.535 4s.964 2.289.964 4.625-.791 4.37-2.9 4.37c-2.382 0-2.6-2.186-2.6-2.592 0-.501-.045-1.703 2.464-3.31 1.909-1.23 2.072-3.093 2.072-3.093z" fill="url(#c)"/><path d="m7.391 12.753c1.148-.604 1.608-2.27 1.608-4.128 0-.62-.061-1.235-.152-1.806-.12.094-.247.185-.384.274-2.466 1.58-2.465 2.767-2.464 3.283v.027c0 .323.138 1.77 1.392 2.35z" fill="url(#d)"/><path d="m13.122 4s.876 2.289.876 4.625-.719 4.37-2.636 4.37c-2.164-.001-2.362-2.187-2.362-2.593 0-.501-.041-1.703 2.24-3.31 1.725-1.229 1.882-3.092 1.882-3.092z" fill="url(#e)"/></g><path d="m11.375 7.01c.033.364.124.737.124 1.112 0 2.441-.813 3.703-1.5 4.476-.976-.63-1-1.927-1-2.195v-.027c0-.469 0-1.851 2.376-3.365z" fill="url(#f)"/></svg>