<svg fill="none" height="18" width="18" xmlns="http://www.w3.org/2000/svg"><path d="m0 0h18v18h-18z" fill="#08325c"/><g clip-rule="evenodd" fill-rule="evenodd"><path d="m14.978 6.976c.015-.014.022-.042.022-.062l-.018-.086c-.024-.128-.041-.22-.204-.22 0 0-.112-.486-.127-.558a.071.071 0 0 0 -.065-.05h-.549a.071.071 0 0 0 -.065.05c-.013.076-.177.816-.177.816-.066.036-.128.065-.187.093-.245.115-.415.195-.415.517 0 0-.996.705-1.14.83 0 0-.007.006-.014 0l-.058-.014c-.007 0-.007-.007-.007-.007 0-.031.021-.062.043-.093.03-.044.063-.09.036-.14l-.622-1.177c-.023-.067-.219-.063-.337-.061h-.075c-.008 0-.008-.008-.008-.008l-.043-.15c-.022-.063-.242-.114-.297-.062l-.362.288c-.125-.022-.056-.104.011-.185.02-.024.04-.047.054-.069.03-.04 0-.096-.043-.096l-6.401-.532c-.028 0-.376.169-.376.174v.405l-.288.421h2.03l.235.5h-2.531l.235 1.234h2.859l.156.5h-2.92l.136.716c.343.183.685.366 1.026.55h2.242l.188.5h-1.503l.595.322c.423.228.845.457 1.268.684.029.02.065.014.087-.013l.137-.165c0-.012.275.062.275.082l.225.59c0 .007.007.02.014.027l.571.46c.015.006.03.013.044.013h.275c.036 0 .09-.027.09-.062v-.507c.171-.105.72-.306.72-.306h.672s.247-.103.356-.129h1.406a.69.69 0 0 0 .055.144c.002.004.004.007.004.01l.637.815c.014.02.029.035.058.035h.217c.03 0 .053-.028.068-.048v-.514c0-.024-.02-.142-.217-.879-.03-.116-.084-.446-.084-.446l.062-.072c.378-.434.708-.813.953-1.33a.041.041 0 0 0 0-.042l-.116-.329v-.006l.137-.987c0-.007 0-.007.008-.007l.543-.281c.021-.014.036-.034.036-.055 0-.107-.03-.2-.062-.293a1.06 1.06 0 0 1 -.061-.255z" fill="#fff"/><path d="m6.87 7.25a.3.3 0 0 0 -.282.405l1.01 2.707a.5.5 0 0 0 .468.325h2.45a.3.3 0 0 0 .279-.408l-.002-.005-1.073-2.768a.4.4 0 0 0 -.373-.256zm.435.5a.1.1 0 0 0 -.093.137l.862 2.174a.2.2 0 0 0 .186.127h1.872a.1.1 0 0 0 .093-.139l-.895-2.174a.2.2 0 0 0 -.185-.124h-1.84z" fill="#062849"/></g></svg>