<svg height="18" viewBox="0 0 18 18" width="18" xmlns="http://www.w3.org/2000/svg"><path d="m0 0h18v18h-18z" fill="#f0f3fa"/><path d="m8.94 8.3c-.26 0-.57.26-.7.38-.14.06-.26-.15-.24-.22s.4-.46.94-.46c.53 0 1.06.39 1.06 1.03s-.65.97-1.06.97c-.36 0-.63-.26-.8-.39l.1-.1c.13.1.45.3.7.3.31 0 .78-.36.78-.78 0-.41-.46-.72-.78-.72z" fill="#ffac50"/><path d="m9.03 7c.73 0 1.34.47 1.63.8.06.06.05.16-.02.22a.18.18 0 0 1 -.24-.01c-.3-.28-.85-.69-1.37-.69-1.3 0-1.75 1.14-1.75 1.75 0 .6.37 1.72 1.84 1.72 1.32 0 1.73-1.63 1.73-1.72 0-.1.15-.16.15-.06 0 .95-.82 1.99-1.88 1.99-1.22 0-2.12-.84-2.12-1.93 0-1.1.99-2.07 2.03-2.07z" fill="#064477"/><path d="m8.92 6.2c-.99 0-1.82.66-2.24 1.13a.34.34 0 0 1 -.41.08c-.15-.09-.2-.27-.1-.4a3.5 3.5 0 0 1 2.75-1.36c2 0 3.43 1.6 3.43 3.23 0 1.44-1.13 3.47-3.24 3.47a3.25 3.25 0 0 1 -3.46-3.03c0-.7.23-1.24.35-1.53l.2.1c-.1.18-.3.69-.3 1.32 0 1.3 1.44 2.77 3.2 2.77 1.6 0 2.82-1.5 2.82-3.1 0-1.59-1.58-2.67-3-2.67z" fill="#43c2bb"/><path d="m9.05 4.77c1.1 0 2.2.6 2.87 1.12.08.07.18.1.28.11.1 0 .2-.02.28-.07.2-.13.27-.42.1-.59a5.32 5.32 0 0 0 -3.53-1.34c-4 0-5.05 3.54-5.05 4.97 0 1.6 1.17 5.03 5.17 5.03 3.49 0 4.83-3.37 4.83-5.02 0-1.11-.43-2.13-.76-2.63l-.24.15c.25.38.64 1.3.7 2.26 0 3.1-2.75 4.78-4.53 4.78s-4.48-1.77-4.48-4.57c0-3 2.78-4.2 4.36-4.2z" fill="#064477"/></svg>