<svg height="18" viewBox="0 0 18 18" width="18" xmlns="http://www.w3.org/2000/svg"><path d="m0 0h18v18h-18z" fill="#f0f3fa"/><g fill="#5b7e96"><path d="m10.67 12h1.12c-.9 1.18-2.3 2-3.88 2a4.95 4.95 0 0 1 -4.91-5c0-2.76 2.2-5 4.91-5 1.7 0 3.21.66 4.09 2h-1.27c-.75-.85-1.53-1-2.73-1-2.26 0-4 1.7-4 4s1.75 4 4 4c1.06 0 1.94-.32 2.67-1z"/><path d="m7.1 7c.18-.43.61-1.09.9-1.45v1.45zm-.46 1.69c.02-.43.1-.86.2-1.25h1.16v1.25zm-.53 0h-1.31c.04-.44.17-.88.37-1.25h1.13c-.1.4-.16.82-.19 1.25zm.2-1.69h-.87c.36-.4.81-.99 1.33-1.2-.18.3-.33.87-.45 1.2zm2.2-1.45c.29.36.53 1.02.72 1.45h-.73v-1.45zm-.51 5.45v1.46a8.43 8.43 0 0 1 -.9-1.46zm0-1.69v1.25h-1.15a5.79 5.79 0 0 1 -.21-1.25zm-1.7 1.25h-1.13a3.5 3.5 0 0 1 -.37-1.25h1.3c.03.43.1.86.2 1.25zm.02.44c.12.33.27.9.45 1.2-.52-.21-.97-.8-1.33-1.2zm2.2 0h.7c-.18.43-.42 1.09-.7 1.46zm5.89-2.86a.58.58 0 0 1 -.59-.57c0-.32.27-.57.6-.57.32 0 .58.25.58.57s-.26.57-.59.57zm-1.41-.04a.53.53 0 0 1 -.54-.52c0-.29.24-.52.54-.52s.53.23.53.52-.23.52-.53.52zm-1.35-.05a.48.48 0 0 1 -.48-.47c0-.26.21-.47.48-.47s.48.21.48.47-.21.47-.48.47zm-1.21-.05a.42.42 0 0 1 -.42-.42c0-.23.19-.41.43-.41.23 0 .42.18.42.41s-.19.42-.42.42zm-1.06-.05a.37.37 0 0 1 -.38-.38c0-.2.17-.36.38-.36.2 0 .38.16.38.36s-.17.37-.38.37zm5.03 3.05a.58.58 0 0 1 -.59-.57c0-.32.27-.58.6-.58.32 0 .58.26.58.58s-.26.57-.59.57zm-1.41-.05a.53.53 0 0 1 -.54-.52c0-.3.24-.53.54-.53s.53.24.53.53-.23.52-.53.52zm-1.35-.05a.48.48 0 0 1 -.48-.47c0-.26.21-.47.48-.47s.48.2.48.47c0 .26-.21.47-.48.47zm-1.2-.06a.42.42 0 0 1 -.42-.41c0-.23.19-.42.43-.42.23 0 .42.19.42.42s-.19.41-.42.41zm-1.06-.05a.37.37 0 0 1 -.38-.36c0-.2.17-.37.38-.37.2 0 .38.17.38.37s-.17.36-.38.36zm5.03-1.22a.58.58 0 0 1 -.59-.57c0-.32.27-.58.6-.58.32 0 .58.26.58.58 0 .31-.26.57-.59.57zm-1.42-.05a.53.53 0 0 1 -.54-.53c0-.28.24-.52.54-.52s.53.24.53.52c0 .3-.23.53-.53.53zm-1.35-.05a.48.48 0 0 1 -.48-.47c0-.26.21-.47.48-.47s.48.2.48.47c0 .26-.21.47-.48.47zm-1.2-.06a.42.42 0 0 1 -.42-.41c0-.23.19-.42.43-.42.23 0 .42.19.42.42s-.19.41-.42.41zm-1.06-.05a.37.37 0 0 1 -.39-.36c0-.2.17-.37.38-.37.2 0 .38.17.38.37s-.17.36-.38.36zm-1.06-.05a.32.32 0 0 1 -.33-.31c0-.18.14-.31.32-.31s.32.13.32.3c0 .18-.14.32-.32.32z"/></g></svg>