<svg height="18" viewBox="0 0 18 18" width="18" xmlns="http://www.w3.org/2000/svg"><path d="m0 0h18v18h-18z" fill="#f0f3fa"/><path d="m6.43 12.32 1.46.1c.77.03 1.41.06 1.9.06 1.78 0 2.75-.47 3.3-1.05.45-.45.71-1.03.75-1.65l-.01-.25c-.08-1.9-2.7-1.9-2.85-1.9h-.42c-.52.03-1.03.02-1.54-.01-.63-.07-.68.17-.64.01.2-.93 1.94-.5 1.94-.5h1.15l.81-1.7s-3.64-.56-4.39-.51-2.56.97-2.67 2.66c-.1 1.69 1.51 1.95 3.94 1.95 3.49-.03.51.85-1.48.25z" fill="#0d3d7b"/><path d="m3.7 14 4.97-7.33h3.4c1.42 0 2.93.74 2.93 2.55 0 .13-.03.32-.04.46-.22 2.1-1.75 3.32-4.54 3.32h-3.95l-.63 1zm6.1-2.4c1.53 0 3.01.13 3.63-1.57.05-.14.07-.34.07-.5 0-.98-.7-1.54-1.8-1.54h-1.9l-2.4 3.6h2.4z" fill="#4fb29c"/><path d="m13 4-.71 1.42h-4.34c-1.4 0-2.45.9-2.45 2.22 0 .96.4 1.58 1.99 1.58h2.87s.64.05.64.7c0 .4-.37.73-.87.73h-2.08c-2.03 0-4.05-.15-4.05-2.85 0-.4.06-.86.24-1.38.5-1.52 2.36-2.42 4.02-2.42z" fill="#25a8e0"/></svg>