<svg height="18" viewBox="0 0 18 18" width="18" xmlns="http://www.w3.org/2000/svg" xmlns:xlink="http://www.w3.org/1999/xlink"><linearGradient id="a" gradientUnits="userSpaceOnUse" x1="8.47" x2="3.99" y1="6.01" y2="6.97"><stop offset="0" stop-color="#d7282f"/><stop offset="1" stop-color="#f26a25"/></linearGradient><linearGradient id="b" gradientUnits="userSpaceOnUse" x1="13.61" x2="10.56" y1="10.34" y2="12.91"><stop offset="0" stop-color="#a3b2d0"/><stop offset="1" stop-color="#585d8e"/></linearGradient><radialGradient id="c" cx="0" cy="0" gradientTransform="matrix(-5.29874 -2.4302 3.97407 -8.66493 13.74 7.13)" gradientUnits="userSpaceOnUse" r="1"><stop offset="0" stop-color="#d7282f"/><stop offset="1" stop-color="#f76a35"/></radialGradient><path d="m0 0h18v18h-18z" fill="#f0f3fa"/><path d="m11.31 7.62c.23.24.55.38.88.38h.67c1.02 0 1.52-1.27.78-2l-1.49-1.48a1.8 1.8 0 0 0 -1.26-.52h-3.09l3.5 3.62z" fill="url(#c)"/><path d="m6.97 4a.85.85 0 0 0 -.5.26l-2.16 2.2c-.4.4-.4 1.06-.04 1.48l.47.52a1 1 0 0 0 1.47.04l2.53-2.63-1.77-1.86z" fill="url(#a)"/><path d="m11.33 14-1.7-1.78 1.73-1.94c.2-.21.5-.28.8-.28h.96a.6.6 0 0 1 .38.12c.58.45.69 1.44.16 1.95l-1.68 1.62c-.17.17-.4.28-.65.3z" fill="url(#b)"/><path d="m10.5 14-4.34-4.46a.94.94 0 0 0 -1.34-.02l-.5.5c-.43.4-.44 1.1-.03 1.52l2.06 2.13c.2.21.47.33.76.33h3.37z" fill="#454f8c"/></svg>