<svg height="18" viewBox="0 0 18 18" width="18" xmlns="http://www.w3.org/2000/svg" xmlns:xlink="http://www.w3.org/1999/xlink"><linearGradient id="a" gradientUnits="userSpaceOnUse" x1="7.05" x2="10.43" y1="9.45" y2="11.67"><stop offset="0" stop-color="#feffff"/><stop offset="1" stop-color="#dbdfe2"/></linearGradient><path d="m0 0h18v18h-18z" fill="#f0f3fa"/><path d="m10.79 7.1c-3.43-.92-6.08.04-6.93.72.91-.73 3.49-2.03 6.98-1.1z" fill="#a2b1b8"/><path d="m3.86 7.71c2.2-2.29 4.74-2.97 8-2.62l-.02.38c-3-.32-5.64-.05-7.98 2.24zm-.16.16c2.57-2.07 5.05-2.6 7.98-1.73l-.06.38c-2.86-.85-5.4-.67-7.92 1.35z" fill="#a2b1b8"/><path d="m7.38 9 .29-1h-2.38c-.42 0-2.29.03-2.29 2.02 0 1.58 1.3 1.98 1.95 1.98h1.12l.47-1h-1.24c-.28 0-.79-.27-.79-.98-.01-.57.49-1.02.76-1.02h2.1z" fill="#055ba8"/><path d="m9.5 8 1.5 4h1v-1h1.29c.55 0 1.71-.37 1.71-1.5s-1.16-1.5-1.71-1.5zm2.5 1.14v.57h1.05c.18 0 .45-.05.45-.28s-.27-.29-.45-.29z" fill="#ec2125" fill-rule="evenodd"/><path d="m9.5 8h-2l-1.43 4h1.79l.14-.57h1.43l.14.57h1.72z" fill="url(#a)"/><path d="m9.43 11.43h-1.43l-.14.57h1.71zm-1.29-1.14.43-1.15.43 1.16h-.86z" fill="#055ba8"/><path d="m12 5.1c-.29 1.37-.79 1.85-1.5 2.04.71.2 1.21.58 1.5 1.36z" fill="#b1212b"/><path d="m12 5.1c.29 1.37.79 1.85 1.5 2.04-.71.2-1.21.58-1.5 1.36z" fill="#e71d29"/></svg>