<svg height="18" viewBox="0 0 18 18" width="18" xmlns="http://www.w3.org/2000/svg"><path d="m0 0h18v18h-18z" fill="#f0f3fa"/><path d="m6 6h.72c.15 0 .28-.1.28-.26v-1.46a.28.28 0 0 0 -.28-.28h-1.8a.92.92 0 0 0 -.92.92v8.16c0 .5.41.92.92.92h8.15c.51 0 .93-.41.93-.92v-1.74c0-.16-.13-.34-.29-.34h-1.43c-.15 0-.28.18-.28.34v.66h-2v-4h-4zm2 6v-2h-2v2z" fill="#2c2a25" fill-rule="evenodd"/><path d="m8 4.26v1.52c0 .14.14.22.27.22h3.73v3.78c0 .14.08.22.22.22h1.53c.14 0 .25-.08.25-.22v-5.63c0-.08-.06-.15-.14-.15h-5.59c-.13 0-.27.12-.27.26z" fill="#00b337"/></svg>