<svg height="18" viewBox="0 0 18 18" width="18" xmlns="http://www.w3.org/2000/svg"><path d="m0 0h18v18h-18z" fill="#ec2127"/><path d="m12.77 8.63c.4 0 .89 0 .89-.43 0-.38-.66-.36-.87-.36h-.04v-.83h.23c.35-.01.72-.02 1.03.07.99.28 1 1.3.62 1.75-.21.26-.37.32-.61.4l-.09.03.18.29.89 1.45h-1.4l-.3-.47c-.2-.3-.39-.6-.55-.9v-1zm-4.27-.63h.5v-1h-.55c-.43 0-1.08.26-1.28.64-.24.47-.17.96.16 1.3.35.37 1.02.52 1.51.63h.04c.12.04.21.09.19.24-.03.2-.27.2-.48.2a4 4 0 0 0 -.1 0v.99c.5 0 1-.09 1.39-.32.32-.2.61-.66.51-1.2-.08-.44-.51-.69-.93-.82l-.38-.11c-.26-.07-.54-.15-.63-.2-.17-.09-.15-.32.05-.35zm-2.25 2.8v-1.04c-.46.16-1.41.49-1.9-.21-.18-.27-.2-.64-.06-.98.1-.24.36-.53.7-.56v-1.01c-.65 0-1.23.35-1.57.8-.97 1.27-.22 3.26 1.83 3.2.28-.02.8-.09 1-.2zm4.75-2.92h.36v3.12h1.07v-3.98h-1.43zm-.75.13h-1v-.99h1v1zm-2.97 3h.97v-1h-.97zm-1.03-3.01h-1v-1h1z" fill="#fdfdfd"/></svg>