<svg height="18" viewBox="0 0 18 18" width="18" xmlns="http://www.w3.org/2000/svg"><path d="m0 0h18v18h-18z" fill="#f0f3fa"/><path d="m11.06 9.58.8 4.37v.01l-.21.04h-.01l-.82-4.38a.01.01 0 0 0 -.01 0l-6.3 3.96a.01.01 0 0 1 -.01 0l-.1-.2a.01.01 0 0 1 -.01 0 .01.01 0 0 1 0-.01l6.03-3.8v-.02l-7.4.23a.01.01 0 0 1 -.01 0 .01.01 0 0 1 0-.01l-.01-.23.01-.01 7.54-.23h.01v-.02l-5.9-5.09a.01.01 0 0 1 -.01 0 .01.01 0 0 1 0-.01l.14-.18a.01.01 0 0 1 .01 0l6.1 5.24a.01.01 0 0 0 .01 0l3.45-2.7a.01.01 0 0 1 .01 0l.14.18v.01l-3.31 2.6v.02l4.8 1.07v.02l-.04.22h-.01l-4.88-1.09a.01.01 0 0 0 -.01 0z" fill="#bfbfbf"/><path d="m6.43 4.6 2.65-.2c.03 0 .06 0 .08.02l3.93 2.34a.02.02 0 0 1 .01.01.02.02 0 0 1 0 .02l-1.95 1.46h-.03l-4.2-3.25c-.16-.13-.32-.26-.5-.37v-.01a.02.02 0 0 1 .01-.03zm-2.52 4.3.79-3.68a.01.01 0 0 1 .01-.01l4.64 3.57v.02h-.01l-5.42.12a.01.01 0 0 1 0-.01z" fill="#bfbfbf"/><path d="m12.35 9.1 1.68-1.26h.01l1.11 1.72v.02l-2.8-.46a.01.01 0 0 1 0-.02zm-8.19 1.16 4.5-.23v.01l-3.76 2.17a.02.02 0 0 1 -.02-.01 138 138 0 0 0 -.72-1.94zm7.91 2.17-.4-2.09a.01.01 0 0 1 .01-.01.01.01 0 0 1 .01 0l2.69.37v.02l-2.3 1.72h-.01zm-5.86.56 4.3-2.58h.01v.01l.47 2.57h-4.77c-.01 0-.02 0 0 0z" fill="#8c8c8c"/></svg>