<svg height="18" viewBox="0 0 18 18" width="18" xmlns="http://www.w3.org/2000/svg" xmlns:xlink="http://www.w3.org/1999/xlink"><linearGradient id="a"><stop offset="0" stop-color="#023976"/><stop offset=".5" stop-color="#daddec"/><stop offset="1" stop-color="#3b5586"/></linearGradient><linearGradient id="b" gradientUnits="userSpaceOnUse" x1="9" x2="3.76" xlink:href="#a" y1="5.02" y2="5.12"/><linearGradient id="c" gradientUnits="userSpaceOnUse" x1="9" x2="14.24" xlink:href="#a" y1="12.98" y2="12.88"/><linearGradient id="d"><stop offset="0" stop-color="#d9dadc"/><stop offset=".52" stop-color="#78797b"/><stop offset="1" stop-color="#8f9094"/></linearGradient><linearGradient id="e" gradientUnits="userSpaceOnUse" x1="3.6" x2="9.1" xlink:href="#d" y1="10.69" y2="10.75"/><linearGradient id="f" gradientUnits="userSpaceOnUse" x1="14.4" x2="8.9" xlink:href="#d" y1="7.32" y2="7.27"/><path d="m0 0h18v18h-18z" fill="#f0f3fa"/><path d="m9 5.99v-2.99c-.1.84-1.12 1.1-1.63 1.24-3.07.86-3.77 2.47-3.87 3.47.49-1.34 3.87-1.71 5.5-1.72z" fill="url(#b)"/><path d="m9 12.01v2.99c.1-.84 1.12-1.1 1.63-1.24 3.06-.85 3.77-2.47 3.87-3.47-.49 1.34-3.87 1.7-5.5 1.72z" fill="url(#c)"/><path d="m9 12.02v-1.96c-3.88 0-5.28-1.12-5.5-1.68.57 2.84 3.9 3.61 5.5 3.64z" fill="url(#e)"/><path d="m9 5.99v1.96c3.88 0 5.28 1.12 5.5 1.68-.57-2.83-3.9-3.61-5.5-3.63z" fill="url(#f)"/></svg>