<svg height="18" viewBox="0 0 18 18" width="18" xmlns="http://www.w3.org/2000/svg"><path d="m0 0h18v18h-18z" fill="#f0f3fa"/><path d="m6.45 7v.29h.27c.13 0 .25.07.3.17l1.74 3.48c.02.03.06.06.11.06s.1-.03.11-.07l1.67-3.49c.05-.1.15-.15.26-.15h.32v-.29h-2.09v.29h.57c.14 0 .23.12.18.23l-1.04 2.38-1.03-2.44c-.03-.08.03-.17.13-.17h.6v-.29zm-.48 1.28-.18.05a1.71 1.71 0 0 0 -1.61-1.15c-.88 0-1.54.64-1.54 1.64s.73 1.87 1.78 1.87c.83 0 1.4-.49 1.58-.73l.14.13c-.7.81-1.45.91-2.05.91s-2.09-.48-2.09-1.98 1.3-2.02 2.18-2.02c.7 0 1.22.24 1.39.36l.1-.24h.12zm5.71-1.28v.28h.56c.06 0 .1.04.1.1v3.25c0 .05-.04.08-.1.08h-.56v.29h2.1c.17 0 2.22-.05 2.22-2.05 0-1.6-1.49-1.97-2.23-1.95zm1.66.14c-.28 0-.34.19-.34.28v2.94c0 .27.23.5.5.5h.04c.2 0 1.79-.04 1.79-1.91 0-1.82-1.55-1.8-1.96-1.8h-.03z" fill="#ee2b37" fill-rule="evenodd"/></svg>