<svg height="18" width="18" xmlns="http://www.w3.org/2000/svg"><path d="m0 0h18v18h-18z" fill="#faae3f"/><path d="m8.355 11.028c-2.855-.13-4.973.225-6.355.483.89-.064 2.585-.171 4.053 0 1.658.193 3.223.387 5.434.483 1.7.075 3.715-.58 4.513-.966-1.934.58-5.526.096-7.645 0zm-2.017-5.028h-2.488c-.673 0-1.127.313-1.347 1.175l-.428 1.65c-.227.863.071 1.175.745 1.175h2.553l.262-.652c-.24.106-.356.15-.99.15h-.895c-.207 0-.292-.063-.24-.256l.638-2.414c.046-.194.252-.328.46-.328h1.132c.305 0 .447.044.61.106l-.013-.606zm2.52 4 2.151-3.275c.26-.387.44-.594.602-.725h-1.069c0 .081 0 .144-.019.219-.045.175-.136.318-.266.518l-1.593 2.413-.286-2.413c-.025-.2-.038-.343.007-.518.02-.075.045-.138.084-.219h-1.969a.635.635 0 0 1 .163.369l.426 3.631zm4.417-3.5h.894c.201 0 .253.031.201.225l-.123.55c-.052.194-.116.225-.317.225h-.894l.24-1zm.072 1.762.303 1.738h1.769c-.097-.15-.123-.356-.188-.613l-.272-1.125c.343-.024.648-.056.803-.643l.188-.738c.175-.668-.123-.881-.849-.881h-3.408c.078.156.091.306-.006.688l-.68 2.625c-.098.38-.188.53-.305.687h1.84c-.039-.156-.052-.306.046-.688l.272-1.05h.486z" fill="#fff"/></svg>