<svg height="18" viewBox="0 0 18 18" width="18" xmlns="http://www.w3.org/2000/svg"><path d="m0 0h18v18h-18z" fill="#f0f3fa"/><path d="m15 9.5c0-1.06-.34-1.91-.6-2.36-.08-.13-.26-.18-.4-.1-.92.5-1.13 1.18-1.13 1.66 0 .52.3 1.07.3 2.31 0 1.05-.61 2.12-1.15 2.81-.07.1.06.23.17.16 1.66-1.07 2.81-2.52 2.81-4.48zm-12-1c0 1.06.34 1.91.6 2.36.08.13.26.18.4.1.92-.5 1.13-1.18 1.13-1.66 0-.52-.3-1.07-.3-2.31 0-1.05.61-2.12 1.15-2.81.07-.1-.06-.23-.17-.16-1.66 1.07-2.81 2.52-2.81 4.48zm6.5-5.5c-1.06 0-1.91.34-2.36.6-.13.08-.18.26-.1.4.5.92 1.18 1.13 1.66 1.13.52 0 1.07-.3 2.31-.3 1.05 0 2.12.61 2.81 1.15.1.07.23-.06.16-.17-1.07-1.66-2.52-2.81-4.48-2.81zm-1 12c1.06 0 1.91-.34 2.36-.6.13-.08.18-.26.1-.4-.5-.92-1.18-1.13-1.66-1.13-.52 0-1.07.3-2.31.3a4.98 4.98 0 0 1 -2.81-1.15c-.1-.07-.23.06-.16.17 1.07 1.66 2.52 2.81 4.48 2.81z"/></svg>