<svg height="18" width="18" xmlns="http://www.w3.org/2000/svg"><path d="m0 0h18v18h-18z" fill="#103657"/><path d="m6.816 7.788 2.183-1.217v-2.571l-4.499 2.504z" fill="#4c8ecb"/><path d="m9 11.5 2.188-1.233 2.312-1.267v2.535l-4.497 2.465zm0-4.929 2.184 1.216 2.311-1.288-4.496-2.499v2.571z" fill="#2e73af"/><path d="m9 11.5-2.25-1.25-2.25 1.254 4.5 2.496z" fill="#4c8ecb"/><path d="m6.816 10.217v-2.429l-2.316-1.284.007 5z" fill="#2e73af"/><path d="m9 6.5 2.25 1.251v2.499l-2.25-1.25z" fill="#808184"/><path d="m9 6.5-2.25 1.253v2.497l2.25-1.25v-2.497" fill="#58595b"/></svg>