<svg height="18" viewBox="0 0 18 18" width="18" xmlns="http://www.w3.org/2000/svg"><path d="m0 0h18v18h-18z" fill="#f0f3fa"/><path d="m6.84 12.58a1.42 1.42 0 1 1 -2.84 0 1.42 1.42 0 0 1 2.84 0zm7.16-7.26a1.33 1.33 0 1 1 -2.65 0 1.33 1.33 0 0 1 2.65 0z" fill="#303ca2"/><path d="m13.2 6.88a1.8 1.8 0 0 1 -2.33-2.17 4.74 4.74 0 0 0 -5.19.97l1.42 1.27a2.84 2.84 0 0 1 4.2 3.79l1.4 1.26a4.7 4.7 0 0 0 .5-5.13zm-.81 5.48-1.41-1.27a2.84 2.84 0 0 1 -4.2-3.8l-1.43-1.25a4.7 4.7 0 0 0 -.7 4.92c.17-.06.36-.09.55-.09.95-.06 1.88.54 1.88 1.8 0 .23-.04.45-.12.65a4.73 4.73 0 0 0 5.42-.95z" fill="#3ad4c4"/></svg>