<svg height="18" viewBox="0 0 18 18" width="18" xmlns="http://www.w3.org/2000/svg"><path d="m0 0h18v18h-18z" fill="#f0f3fa"/><path d="m8.83 3.5v2.4h-4.5z" fill="#1e817e"/><path d="m8.63 9.1a522 522 0 0 0 -2.15 1.24l-2.24-3.76zm.2 5.28v-5.04l-2.25 1.26 2.25 3.77z" fill="#3ac0be"/><path d="m6.33 10.75-2.2 1.26 4.4 2.49zm-2.33.98v-4.95l2.2 3.71zm5.17-8.23v2.4h4.5z" fill="#1e817e"/><path d="m8.83 6.25v2.58l-4.4-2.58zm.34 0v2.58l4.4-2.58z" fill="#7dd1e1"/><path d="m9.37 9.1c.71.4 2.14 1.22 2.15 1.24l2.24-3.76zm-.2 5.28v-5.04l2.24 1.27z" fill="#3ac0be"/><path d="m11.67 10.75 2.2 1.26-4.4 2.49zm2.33.98v-4.95l-2.2 3.71z" fill="#1e817e"/></svg>