<svg height="18" width="18" xmlns="http://www.w3.org/2000/svg" xmlns:xlink="http://www.w3.org/1999/xlink"><linearGradient id="a" gradientUnits="userSpaceOnUse" x1="11.02" x2="9.37" y1="5.1" y2="6.65"><stop offset="0" stop-color="#63297a"/><stop offset="1" stop-color="#8b2680"/></linearGradient><linearGradient id="b" gradientUnits="userSpaceOnUse" x1="7.01" x2="6.36" y1="5.31" y2="8.04"><stop offset="0" stop-color="#452b7d"/><stop offset="1" stop-color="#4c2b7e"/></linearGradient><linearGradient id="c" gradientUnits="userSpaceOnUse" x1="1.14" x2="1.14" y1="0" y2="2.82"><stop offset=".08" stop-color="#2a2a82"/><stop offset="1" stop-color="#4476ba"/></linearGradient><linearGradient id="d" gradientUnits="userSpaceOnUse" x1=".97" x2=".97" y1="0" y2="2.53"><stop offset="0" stop-color="#287755"/><stop offset="1" stop-color="#45a547"/></linearGradient><linearGradient id="e" gradientUnits="userSpaceOnUse" x1=".82" x2=".82" y1="0" y2="1.98"><stop offset="0" stop-color="#f69d30"/><stop offset="1" stop-color="#f3d80e"/></linearGradient><linearGradient id="f" gradientUnits="userSpaceOnUse" x1=".98" x2=".48" y1=".05" y2="1.56"><stop offset="0" stop-color="#d64635"/><stop offset="1" stop-color="#faae17"/></linearGradient><linearGradient id="g" gradientUnits="userSpaceOnUse" x1=".5" x2=".5" y1="0" y2="1.32"><stop offset="0" stop-color="#c12026"/><stop offset="1" stop-color="#f37423"/></linearGradient><linearGradient id="h" gradientUnits="userSpaceOnUse" x1=".6" x2=".6" y1="0" y2="1.01"><stop offset="0" stop-color="#aa232a"/><stop offset="1" stop-color="#e15124"/></linearGradient><path d="m0 0h18v18h-18z" fill="#f0f3fa"/><ellipse cx="10.55" cy="5.57" fill="url(#a)" rx="1.63" ry="1.57"/><ellipse cx="7.01" cy="6.78" fill="url(#b)" rx="1.4" ry="1.47"/><ellipse fill="url(#c)" rx="1.14" ry="1.41" transform="matrix(.97964 -.20077 .22561 .97422 5.44 9.66)"/><ellipse fill="url(#d)" rx=".97" ry="1.27" transform="matrix(.9101 -.41437 .4575 .88921 6.99 12.34)"/><ellipse fill="url(#e)" rx=".82" ry=".99" transform="matrix(.77216 -.63543 .68097 .73231 9.53 13.13)"/><ellipse fill="url(#f)" rx=".69" ry=".84" transform="matrix(.95197 -.3062 .3416 .93985 11.26 12.34)"/><ellipse fill="url(#g)" rx=".5" ry=".66" transform="matrix(.99426 .10696 -.12068 .9927 12.4 10.99)"/><ellipse fill="url(#h)" rx=".6" ry=".51" transform="matrix(.7085 .70571 -.73423 .6789 11.8 9.68)"/></svg>