<svg height="18" viewBox="0 0 18 18" width="18" xmlns="http://www.w3.org/2000/svg"><path d="m0 0h18v18h-18z" fill="#f0f3fa"/><path d="m7 6a3.1 3.1 0 0 0 -2.95 3 3.1 3.1 0 0 0 2.95 3.01z" fill="#6fc7c1"/><path d="m7 5c-2.23.13-4 1.87-4 4a4.12 4.12 0 0 0 4 4v-1.04a3.02 3.02 0 0 1 -2.9-2.96 3.02 3.02 0 0 1 2.9-2.95z" fill="#00a191"/><path d="m8 5.99c1.54.1 2.76 1.4 2.76 3.01 0 1.6-1.22 2.92-2.76 3.01z" fill="#aad8a5"/><path d="m8 5a3.93 3.93 0 0 1 3.67 4c0 2.15-1.63 3.9-3.67 4v-1.1a2.9 2.9 0 0 0 2.67-2.96 2.9 2.9 0 0 0 -2.67-2.94zm-4 4.34a4.23 4.23 0 0 1 0-.68z" fill="#4ab95c"/><path d="m14 6a2.97 2.97 0 0 0 -2.72 3c0 1.6 1.2 2.91 2.72 3z" fill="#aad8a5"/><path d="m14 5a3.94 3.94 0 0 0 -3.67 4c0 2.15 1.63 3.9 3.67 4v-1.05a2.9 2.9 0 0 1 -2.67-2.95 2.9 2.9 0 0 1 2.67-2.95z" fill="#4ab95c"/></svg>