<svg height="18" width="18" xmlns="http://www.w3.org/2000/svg" xmlns:xlink="http://www.w3.org/1999/xlink"><linearGradient id="a" gradientUnits="userSpaceOnUse" x1="5.13" x2="9.71" y1="4.5" y2="14.66"><stop offset="0" stop-color="#e6d9ca"/><stop offset="1" stop-color="#9c8b75"/></linearGradient><linearGradient id="b" gradientUnits="userSpaceOnUse" x1="5.83" x2="6.55" y1="5.82" y2="7.77"><stop offset="0" stop-color="#d2c7b5"/><stop offset="1" stop-color="#fffffd"/></linearGradient><linearGradient id="c"><stop offset="0" stop-color="#786b5a"/><stop offset="1" stop-color="#baad9c"/></linearGradient><linearGradient id="d" gradientUnits="userSpaceOnUse" x1="5.86" x2="6.12" xlink:href="#c" y1="6.48" y2="6.78"/><linearGradient id="e" gradientUnits="userSpaceOnUse" x1="6.45" x2="5.54" y1="8.15" y2="10.39"><stop offset="0" stop-color="#e9dfd3"/><stop offset=".65" stop-color="#c6b9a8"/></linearGradient><linearGradient id="f" gradientUnits="userSpaceOnUse" x1="6.22" x2="6.43" xlink:href="#c" y1="9.32" y2="9.52"/><linearGradient id="g" gradientUnits="userSpaceOnUse" x1="6.35" x2="6.64" xlink:href="#c" y1="11.29" y2="11.5"/><linearGradient id="h" gradientUnits="userSpaceOnUse" x1="7.72" x2="8.5" xlink:href="#c" y1="10.67" y2="11.61"/><linearGradient id="i" gradientUnits="userSpaceOnUse" x1="10.78" x2="8.86" y1="5.04" y2="7.41"><stop offset=".16" stop-color="#9d8d74"/><stop offset="1" stop-color="#c9baa7"/></linearGradient><linearGradient id="j" gradientUnits="userSpaceOnUse" x1="9.42" x2="9.83" xlink:href="#c" y1="6.05" y2="6.48"/><linearGradient id="k" gradientUnits="userSpaceOnUse" x1="8.2" x2="9.75" y1="8.17" y2="10.02"><stop offset="0" stop-color="#c1b3a0"/><stop offset="1" stop-color="#95876d"/></linearGradient><linearGradient id="l" gradientUnits="userSpaceOnUse" x1="8.93" x2="9.21" xlink:href="#c" y1="8.88" y2="9.23"/><linearGradient id="m" gradientUnits="userSpaceOnUse" x1="11.56" x2="12.19" xlink:href="#c" y1="5.7" y2="6.32"/><linearGradient id="n" gradientUnits="userSpaceOnUse" x1="11.45" x2="12.2" xlink:href="#c" y1="7.55" y2="8.14"/><linearGradient id="o" gradientUnits="userSpaceOnUse" x1="10.26" x2="10.95" xlink:href="#c" y1="9.8" y2="11.02"/><path d="m0 0h18v18h-18z" fill="#f0f3fa"/><path d="m14 4.5h-10c0 7.26 3.32 10.03 4.99 10.5 4.26-1.75 5.11-7.73 5-10.5z" fill="url(#a)"/><path d="m7.73 5.03h-3.17c0 1.33.11 2.5.17 2.91l3-.25z" fill="url(#b)"/><path d="m4.4 4.88h3.48v2.95l-3.28.27-.02-.14c-.06-.42-.17-1.6-.17-2.93v-.15zm.31.3c0 1.13.1 2.12.15 2.6l2.72-.23v-2.37z" fill="url(#d)"/><path d="m7.62 8.15-2.8.25c.08.74.44 1.7.6 2.08.26.02 1.35-.1 1.86-.18.12-.32.28-1.57.34-2.15z" fill="url(#e)"/><path d="m7.79 7.98-.02.19a33.97 33.97 0 0 1 -.25 1.77c-.03.17-.06.32-.1.42l-.03.08-.1.01a36.82 36.82 0 0 1 -1.53.17h-.43l-.04-.08a7.8 7.8 0 0 1 -.61-2.13l-.01-.15zm-2.8.55c.1.65.37 1.41.54 1.8h.21a14.3 14.3 0 0 0 1.42-.16l.07-.29a14.23 14.23 0 0 0 .22-1.56l-2.45.21z" fill="url(#f)"/><path d="m7.37 10.6-.05.2c-.25 1-.8 1.32-1.13 1.32h-.07l-.05-.06a13.9 13.9 0 0 1 -.59-1.08l-.09-.2.22-.01c.51-.04 1.24-.11 1.54-.15zm-1.52.45a13.26 13.26 0 0 0 .41.76c.17-.04.5-.24.7-.87l-1.1.11z" fill="url(#g)"/><path d="m7.7 10.71c-.1.53-.37.96-.48 1.11a4.54 4.54 0 0 0 2.2-1.48c-.44.14-1.33.3-1.72.37z" fill="#9e8e75"/><path d="m9.84 10.04-.3.39c-.3.4-1.18 1.25-2.28 1.54l-.43.1.27-.34c.1-.13.35-.54.46-1.05l.02-.1.1-.01c.39-.07 1.26-.23 1.7-.38zm-2.01.8c-.07.28-.17.52-.27.71a4.52 4.52 0 0 0 1.4-.94c-.39.1-.85.18-1.13.23z" fill="url(#h)"/><path d="m10.89 5.04h-2.66v2.57a25.8 25.8 0 0 0 2.58-.26c.12-.36.1-1.69.08-2.3z" fill="url(#i)"/><path d="m8.08 4.9h2.96v.14a25.88 25.88 0 0 1 -.01 1.9 2.3 2.3 0 0 1 -.07.45l-.03.09-.09.02c-.5.08-1.5.2-2.6.26h-.16zm.3.3v2.25c.97-.06 1.82-.15 2.31-.23l.04-.31.02-.62v-1.1h-2.37z" fill="url(#j)"/><path d="m10.65 7.85c-.67.13-1.93.22-2.48.25-.1.74-.28 1.71-.35 2.1.85-.14 1.74-.37 2.07-.48.29-.34.63-1.39.76-1.87z" fill="url(#k)"/><path d="m10.86 7.65-.06.24a12.63 12.63 0 0 1 -.55 1.53 2 2 0 0 1 -.25.4l-.02.04h-.05c-.34.11-1.22.35-2.1.49l-.2.03.04-.2c.08-.4.26-1.36.35-2.1l.01-.12h.13c.55-.04 1.8-.13 2.46-.26zm-2.56.6c-.08.6-.21 1.33-.3 1.77.75-.13 1.47-.33 1.8-.43l.18-.3a12.35 12.35 0 0 0 .47-1.25c-.66.1-1.62.17-2.15.2z" fill="url(#l)"/><path d="m12.81 5.03h-1.4c.05.78-.02 1.69-.06 2.05a2.7 2.7 0 0 0 1.46-2.05z" fill="#938168"/><path d="m11.25 4.88h1.72v.16c-.05.49-.4 1.58-1.55 2.17l-.25.13.03-.28c.04-.35.1-1.25.06-2.02v-.16zm.32.3c.02.59 0 1.21-.04 1.62a2.6 2.6 0 0 0 1.1-1.62z" fill="url(#m)"/><path d="m11.27 7.66a3.92 3.92 0 0 0 1.66-1.45c-.13 1.45-1.57 2.7-2.28 3.13.16-.23.48-1.22.62-1.68z" fill="#96866d"/><path d="m11.2 7.52a3.78 3.78 0 0 0 1.6-1.38l.28.08a3.77 3.77 0 0 1 -.96 2.03c-.47.56-1.02 1-1.39 1.22l-.2-.21.13-.27.17-.45.3-.93.02-.06.06-.03zm.2.24a24.53 24.53 0 0 1 -.4 1.15c.28-.22.6-.51.88-.85.31-.36.58-.77.74-1.21-.28.3-.7.64-1.23.91z" fill="url(#n)"/><path d="m10.22 10.05a5.18 5.18 0 0 1 -1.34 1.43c2-.76 3.08-2.24 3.37-2.89a5.23 5.23 0 0 1 -2.03 1.46z" fill="#96846c"/><path d="m10.32 10.17c-.16.26-.36.52-.57.73.71-.4 1.26-.88 1.65-1.32a5.93 5.93 0 0 1 -1.08.59zm.8-.77a3.9 3.9 0 0 0 1.01-.9l.26.15c-.3.68-1.41 2.2-3.46 2.97l-.14-.26c.29-.2.94-.76 1.3-1.39l.03-.04.04-.02c.22-.09.59-.26.96-.5z" fill="url(#o)"/></svg>