<svg height="18" viewBox="0 0 18 18" width="18" xmlns="http://www.w3.org/2000/svg"><path d="m0 0h18v18h-18z" fill="#f0f3fa"/><path d="m11 4.93-2-.93v8.18l2 .79z" fill="#205ba9"/><path d="m10 5.5-2-.93v8.18l2 .79z" fill="#ef9c02"/><g fill="#205ba9"><path d="m9 5.91-2-.93v8.18l2 .84z"/><path d="m4.58 11.09c-.62-.66 1.38-2.2 2.46-2.9v-.82c-1.06.5-4.83 3.16-3.89 4.53.94 1.38 3.5.93 7.32-.81 3.8-1.75 4.53-3.62 4.53-4.21 0-.6-.48-1.28-2-1.28-1.22 0-2.2.36-2.53.54v.63c.36-.2 1.34-.6 2.35-.63 1.27-.03 1.32.5.85 1.23-.46.74-1.68 1.72-3.35 2.63-1.66.91-4.98 1.9-5.74 1.09z"/></g></svg>