<svg height="18" viewBox="0 0 18 18" width="18" xmlns="http://www.w3.org/2000/svg"><path d="m0 0h18v18h-18z" fill="#f0f3fa"/><path d="m7.01 5.44c.22-.44.51-.84.84-1.2.35-.39.74-.73 1.1-1v2.5c-.74 0-1.38-.12-1.94-.3zm-.22.09a5.53 5.53 0 0 1 -1.21-.6 3.98 3.98 0 0 0 -.55 2.53c.35.28.83.57 1.43.8a3.4 3.4 0 0 1 -.02-1.46c.04-.45.16-.87.35-1.27zm1.87 5.46a4 4 0 0 1 -3.6-3.3c.37.27.85.54 1.44.75l.05.21c-.24-.04-.7-.02-.6.34.09.35.6.29.84.21.1.04.21.08.34.11a7.34 7.34 0 0 0 1.53 1.67zm.28.01h.02v-2.14a8 8 0 0 1 -.59-.02c-.22.44-.64.54-1.03.5l.37.5c.39.47.83.86 1.23 1.16zm.18 0h.1a7.23 7.23 0 0 0 1.57-1.64c-.17.04-.38.07-.62.07-.77 0-.83-.38-.76-.58h-.3v2.15zm3.81-3.26a4 4 0 0 1 -3.42 3.23 7.33 7.33 0 0 0 1.54-1.7.94.94 0 0 0 .53-.86c.53-.2.98-.43 1.35-.67zm.07-.74c0 .18-.01.36-.03.53-.37.25-.84.5-1.4.71a.6.6 0 0 0 -.02-.09 3.65 3.65 0 0 0 -.21-2.67c.41-.15.78-.33 1.1-.53.36.6.56 1.3.56 2.05zm-3.74-4a4 4 0 0 1 3.1 1.82c-.32.19-.68.37-1.1.52a5.87 5.87 0 0 0 -.85-1.2c-.38-.43-.8-.8-1.2-1.1l.05-.03zm-.32.05a8.57 8.57 0 0 0 -.07-.05 4 4 0 0 0 -3.2 1.79c.32.22.72.43 1.19.6.23-.46.54-.88.87-1.25.38-.43.8-.8 1.2-1.1zm-1.24 5.7c-.1.23-.28.28-.4.27-.07-.11-.15-.25-.22-.4l.62.14zm.06-.15a6.8 6.8 0 0 1 -.77-.17c-.23-.51-.36-1.15 0-1.5h.02c.1-.01.62-.05.76 1.03.03.28.02.49-.01.64zm.68.08c.06-.17.1-.4.1-.66 0-1.55-.99-1.81-1.47-1.75-.18 0-.31.05-.41.15.06-.3.15-.57.28-.84a6.5 6.5 0 0 0 2.02.32v2.8c-.18 0-.35 0-.52-.02zm3-.73a3.6 3.6 0 0 0 .1-1.27.75.75 0 0 1 -.1.24c-.15-.57-.92-.68-.92-.12 0 .28.25.5.5.72.16.14.31.27.42.43zm.04-1.56c-.07-.1-.24-.19-.54-.19-.93 0-.99.57-.99.98 0 .33.33.7.49.84.1.08.29.25.37.46-.5.12-1.07.2-1.7.22v-2.8a6.78 6.78 0 0 0 2.08-.36c.13.27.23.56.3.85zm-.62 2.24v.07c0 .36-.26.46-.59.46-.14 0-.26-.1-.39-.19a1.12 1.12 0 0 0 -.22-.14c.43-.04.83-.1 1.2-.2zm-1.74-2.9v-2.54c.39.29.8.65 1.17 1.06.32.35.6.74.82 1.15-.57.2-1.24.33-2 .35zm-2.7 3.1c-.17 0-.18.1-.18.12-.04.13.27.13.43.1-.02-.07-.1-.21-.25-.21zm.43 2.5c-1.05.37-1.55.97-1.55 1.67 0 1.1 1.41 2 3.54 2 2.12 0 3.84-.9 3.84-2 0-.67-.55-1.27-1.54-1.63a3.92 3.92 0 0 1 -4.3-.04zm1.23.67h-1.23v.83h1.23v-.16h3.07v-.34h-3.07zm-1.23 1h4.3v.34h-4.3zm4.3.5h-4.3v.17h4.3zm-1.53.33h1.53v.34h-1.53v.16h-2.77v-.5z" fill="#002e64" fill-rule="evenodd"/></svg>