<svg height="18" viewBox="0 0 18 18" width="18" xmlns="http://www.w3.org/2000/svg"><path d="m0 0h18v18h-18z" fill="#f0f3fa"/><path d="m7.5 4.9v1.89c-.5.68-1.07 1.54-1.07 2.41 0 .86.5 1.53 1.37 1.53 1.69 0 4.14-2.43 4.14-4.43 0-.6-.3-.9-.66-.9-1.27 0-2.6 2.19-2.87 3.5a.75.75 0 0 1 -.75.6c-.41 0-.82-.38-.7-.98.42-2.02 2.34-4.52 4.61-4.52 1.28 0 1.93.85 1.93 2.19 0 2.97-3 6.14-5.73 6.14-2.06 0-2.77-1.5-2.77-2.9 0-2.03 1.41-3.71 2.5-4.53z" fill="#d6082e"/><path d="m8.5 14v-1h-3.5v1zm3.5 0v-1h-2.5v1z" fill="#585656"/></svg>