<svg height="18" viewBox="0 0 18 18" width="18" xmlns="http://www.w3.org/2000/svg"><path d="m0 0h18v18h-18z" fill="#f0f3fa"/><path d="m5.68 4.34a3.09 3.09 0 0 1 4.38 1.87c.08.3.13.82.13 1.55v2.1c0 .26.04.45.11.57.17.27.45.32.79.32h2.86c.03 0 .05.02.05.05v.55c0 .03-.02.04-.05.04h-2.25c-.65 0-1.08-.03-1.29-.1-.7-.27-.9-.87-.9-1.59v-2.48c0-.39-.03-.7-.1-.91a2.43 2.43 0 0 0 -3.54-1.33 2.34 2.34 0 0 0 -1.2 1.98c0 .03-.02.04-.05.04h-.57c-.05 0-.05-.01-.05-.05.1-1.24.66-2.1 1.68-2.61zm7.65 2.61c-.06-1.84-2-2.78-3.62-1.98a.05.05 0 0 1 -.07 0l-.45-.4v-.02a.03.03 0 0 1 0-.02 3.13 3.13 0 0 1 3.33-.06 2.99 2.99 0 0 1 1.48 2.45c0 .03-.03.08-.07.08h-.55c-.04 0-.05-.01-.05-.05z"/><path d="m8.6 6.45c-.39-1.03-1.71-1.28-2.53-.64a1.4 1.4 0 0 0 -.56 1.14c0 .01 0 .02-.02.03l-.03.01h-.58c-.03 0-.05-.01-.05-.04a2.23 2.23 0 0 1 2.1-2.15c1.07-.06 2.01.58 2.32 1.58.07.23.08.56.08 1v1.98c0 .54.05.92.13 1.14.17.47.49.79.97.95.22.07.57.1 1.05.1a207.23 207.23 0 0 1 2.5 0l.02.03v.57a.05.05 0 0 1 -.05.05h-2.75a3.1 3.1 0 0 1 -.86-.1 2.17 2.17 0 0 1 -1.55-1.5c-.06-.21-.12-.48-.12-.82v-2.48c0-.39 0-.67-.07-.86z" fill="#3064a9"/><path d="m10.78 5.48c-.19 0-.4.06-.62.19-.02.01-.04 0-.05-.01l-.32-.5c0-.03 0-.04.02-.05 1.54-.75 3.27.13 3.35 1.84 0 .03-.01.05-.04.05h-.56c-.03 0-.04-.02-.04-.04-.14-1-.72-1.46-1.74-1.48z" fill="#e8871a"/><path d="m7.88 7.14c0-1.03-1.4-1.16-1.51-.18 0 .02-.02.04-.04.04h-.64c-.02 0-.03-.02-.03-.05.05-.7.4-1.1 1.05-1.3.65-.19 1.45.17 1.72.82.06.17.1.43.1.78v2.94a2.43 2.43 0 0 0 1.68 2.04 6 6 0 0 0 1.52.13h2.21c.03 0 .06.01.06.03v.56c0 .03-.03.05-.06.05h-2.8c-.46 0-.82-.05-1.08-.13a3.02 3.02 0 0 1 -2.18-2.9v-2.82zm3.75-.18c-.1-.63-.72-.78-1.21-.42-.02.01-.04 0-.04-.02l-.18-.66c-.01-.02 0-.04.02-.05.97-.5 2.02.1 2.13 1.14 0 .03-.02.05-.05.05h-.62a.05.05 0 0 1 -.05-.04z"/><path d="m7.3 10.75c.17 0 .24-.08.38-.11.02 0 .04 0 .05.02l.16.54c0 .02 0 .04-.02.05-.17.09-.31.14-.44.14h-3.39c-.03 0-.04-.02-.04-.05v-.56c0-.02.02-.03.04-.03z"/><path d="m7.99 11.45.27.4.01.03v.03c0 .01 0 .02-.02.03l-.03.02c-.32.12-.66.2-.97.2h-3.2c-.04 0-.05-.01-.05-.04v-.5l.02-.04h3.26c.23-.01.44-.06.62-.15h.05c.02 0 .03 0 .04.02z" fill="#e8871a"/><path d="m8.85 12.56c-.65.35-1.12.44-1.9.44h-2.9c-.03 0-.05-.02-.05-.04v-.56c0-.03.01-.04.04-.04h3.33c.3 0 .63-.1 1-.3a.06.06 0 0 1 .07.02c.12.15.25.28.41.39.05.03.05.06 0 .1z"/></svg>