<svg height="18" viewBox="0 0 18 18" width="18" xmlns="http://www.w3.org/2000/svg"><path d="m0 0h18v18h-18z" fill="#f0f3fa"/><path d="m3.04 5c.06.23.38.7 1.21.7.57 0 .99-.1 1.37-.2.31-.07.6-.14.92-.14.72 0 1.46.6 1.46 1.73v4.33c-.34.17-1.13.94-1.53 1.68l-.02-.02c-.24-.21-.85-.75-1.6-.75-.97 0-1.32.37-1.32.89s.8.81 1.2.44c-.02.11-.17.34-.55.34-.48 0-1.07-.37-1.07-1.15s.73-1.55 1.98-1.55h.24v-4.6c-.23.06-.47.11-.79.11-.71 0-1.76-.25-1.5-1.8zm2.4 6.31v-1.66c.04-.03.1-.06.2-.09.14-.04.32-.07.56-.07.39 0 .66.15.8.26v1.97c-.15-.15-.74-.36-1.56-.41zm1.56-2.83v1.13a1.4 1.4 0 0 0 -.8-.24 1.99 1.99 0 0 0 -.76.14v-.93l.17.06c.15.05.34.08.59.08.36 0 .63-.12.8-.24zm0-.14c-.14.11-.41.26-.8.26a1.9 1.9 0 0 1 -.56-.07.88.88 0 0 1 -.2-.09v-1.78h.01c.25-.07.49-.14.8-.14.5 0 .75.5.75.76zm-2-.94v2.34c0 1.17-1.04 1.59-1.51 1.65.3-.25.5-.66.51-.83v-1.06h-.35c-.12-.03-.38 0-.48.37a1.15 1.15 0 0 1 -.12-.53c0-.32.26-.74.64-.74h.31v-.44c0-.94.76-1.22 1.19-1.24-.2.13-.2.33-.19.44zm3.93-.7c0-.2.1-.57.43-.57.08-.03.3-.02.54.33l.1.17v1.57h-.2c-.46 0-.71.46-.71.77 0 .26.1.44.16.5.1-.3.48-.39.75-.39v2.12c-.7.05-1.5.51-1.5 1.56 0 1.12.97 1.24 1.4 1.24.34 0 .53-.15.58-.22l-.05-.07c-.02.06-.16.17-.53.17a.87.87 0 0 1 -.86-.84c0-.43.24-.75.86-.75.5 0 .88.16 1.01.24l.1-.12a54.43 54.43 0 0 1 .83-.86l.09-.09.03-.03-.05-.04-.04-.04-.03.03-.09.09-.2.2c-.26-.24-.71-.46-1.35-.48v-1.64c.15-.08.47-.2.79-.2.22 0 .51.06.74.12l2.04 3.4h.23v-6.42c.71-.1.95-.7 1-1.08a1.7 1.7 0 0 1 -.76.19c-.32 0-.76-.33-.98-.5l-.06-.06-.42.55-.74.78.09.08.36-.38c.2.16.67.42 1.31.42v1.16l-.02.01a.68.68 0 0 1 -.14.06 2.4 2.4 0 0 1 -1.39-.08l-1.27-1.96a1.52 1.52 0 0 0 -1.16-.64c-.74 0-1.12.57-1.12 1.02 0 .36.16.6.23.67zm3.43 1.06 1.44 2.2v-2.2a2.1 2.1 0 0 1 -.71.11c-.29 0-.54-.04-.73-.1zm-1.36 1.46a2 2 0 0 0 -.79.2v-2.48l1.44 2.37c-.21-.05-.46-.1-.65-.1z" fill-rule="evenodd"/></svg>