<svg height="18" width="18" xmlns="http://www.w3.org/2000/svg"><path d="m0 0h18v18h-18z" fill="#133880"/><path d="m5 12.14v.28c0 .32.28.58.61.58h6.78c.34 0 .61-.27.61-.58v-1.01c-1.3.08-2.4.18-3.43.29-.13.17-.35.23-.57.23-.27 0-.35 0-.57-.14l-.56.08c-1.08.12-2.02.21-2.87.27zm8-5.94v-1.64c0-.32-.28-.56-.61-.56h-2.24a.56.56 0 0 0 -.58.56v.91c0 .32-.3.53-.64.53h-3.32c-.34 0-.61.3-.61.6v4.72c.8-.05 1.72-.16 2.77-.27l.66-.08v-3.15c0-.31.3-.56.6-.56s.55.26.55.56v3.04c1.02-.1 2.15-.2 3.42-.28z" fill="#fff"/></svg>