<svg height="18" width="18" xmlns="http://www.w3.org/2000/svg" xmlns:xlink="http://www.w3.org/1999/xlink"><radialGradient id="a" cx="10.485" cy="5.3" gradientUnits="userSpaceOnUse" r="7.00667"><stop offset="0" stop-color="#4ba3db"/><stop offset=".963" stop-color="#233d74"/></radialGradient><radialGradient id="b" cx="9.102" cy="9.05" gradientUnits="userSpaceOnUse" r="4.31215"><stop offset="0" stop-color="#f6ab0d"/><stop offset=".693" stop-color="#ef511b"/><stop offset=".957" stop-color="#a21217"/></radialGradient><linearGradient id="c" gradientUnits="userSpaceOnUse" x1="9.889" x2="9.961" y1="12.441" y2="12.699"><stop offset="0" stop-color="#fff"/><stop offset="1" stop-color="#fddb50"/></linearGradient><path d="m0 0h18v18h-18z" fill="#f0f3fa"/><path d="m9 4a5 5 0 1 0 5 5.017v-.034a5 5 0 0 0 -5-4.983z" fill="url(#a)"/><path d="m9.368 4.68a4.335 4.335 0 1 0 -.736 8.64 4.335 4.335 0 0 0 .736-8.64z" fill="#fff"/><path d="m5.029 8.999a3.973 3.973 0 0 0 3.973 3.973c2.228 0 3.972-1.711 3.972-3.973a3.973 3.973 0 1 0 -7.945 0z" fill="url(#b)"/><path d="m7.62 12.59a4.057 4.057 0 0 0 2.312.12c.771-.185 1.518-.6 2.014-1.19a5.315 5.315 0 0 1 -2.046 1.03c-.709.175-1.47.185-2.28.04z" fill="url(#c)" opacity=".44"/><path d="m10.854 6.518c-1.857-.083-4.097.688-4.796 1.196-.127.838.053 1.483.16 1.705 2.353-.593 2.353-.852 5.525-1.186-.188-.945-.614-1.372-.889-1.715zm-3.562 4.876c2.558 0 3.912-.714 4.61-1.222.127-.839-.053-1.493-.159-1.715-1.04.11-5.082.962-5.304 1.195s.853 1.742.853 1.742z" fill="#fff" opacity=".8"/></svg>