<svg height="18" viewBox="0 0 18 18" width="18" xmlns="http://www.w3.org/2000/svg"><path d="m0 0h18v18h-18z" fill="#0065a4"/><path d="m11 10.35c0 .7.27.84 1 .96v.19h-3.24c-2.12 0-2.76-1.13-2.76-2.17 0-1.3.93-2.33 2.3-2.33.6 0 1.25.25 1.7.54v-1.93c0-.55-.4-.77-1.22-.8v-.19l2.08-.12h.14zm-1-2.25a1.8 1.8 0 0 0 -1.37-.68c-.74 0-1.2.7-1.2 1.83 0 1.56.99 2 1.63 2 .58 0 .94-.25.94-.97z" fill="#fff"/><path d="m5 11.6a49.6 49.6 0 0 1 4 2.14c1.32-.85 2.67-1.6 4-2.24v.78c-1.28.63-2.6 1.31-3.88 2.14l-.13.08-.13-.09c-.74-.5-2.43-1.36-3.86-2.08z" fill="#fec057"/></svg>