<svg height="18" viewBox="0 0 18 18" width="18" xmlns="http://www.w3.org/2000/svg"><path d="m0 0h18v18h-18z" fill="#f0f3fa"/><path d="m8.69 4.23c0-.13.14-.23.31-.23s.31.1.31.23v1.42c0 .12-.14.22-.31.22s-.31-.1-.31-.22zm0 2.5c0-.13.14-.23.31-.23s.31.1.31.23v1.42c0 .12-.14.22-.31.22s-.31-.1-.31-.22zm-3.67-.39a.3.3 0 0 1 -.02-.37c.08-.11.22-.13.32-.04l1.1 1.04c.1.1.12.26.04.37s-.23.13-.32.04l-1.1-1.04zm1.19 7.3a.24.24 0 0 0 .12.33c.13.06.3.01.36-.1l.72-1.39a.24.24 0 0 0 -.12-.33.27.27 0 0 0 -.35.11zm5.58 0c.06.12 0 .27-.12.33a.27.27 0 0 1 -.36-.1l-.72-1.39a.24.24 0 0 1 .12-.33.27.27 0 0 1 .35.11zm-7.5-2.77c-.13.03-.25-.06-.28-.2s.04-.3.17-.33l1.4-.4c.13-.03.26.06.29.2.03.15-.05.3-.17.33zm9.42 0c.13.03.25-.06.28-.2s-.04-.3-.17-.33l-1.4-.4c-.13-.03-.26.06-.29.2-.03.15.05.3.17.33zm-6.81-2.97a.3.3 0 0 1 -.04-.37c.08-.1.23-.13.33-.03l1.1 1.03c.1.1.11.26.03.37-.08.12-.22.13-.32.04l-1.1-1.03zm.56 3.55a.24.24 0 0 0 .12.34c.13.06.3 0 .36-.12l.72-1.37a.24.24 0 0 0 -.12-.34.27.27 0 0 0 -.35.12zm-.98-1.21c-.13.04-.25-.05-.29-.2-.03-.14.05-.29.18-.32l1.4-.4c.13-.04.25.05.29.2.03.14-.05.29-.18.32zm4.06 1.21c.06.13 0 .28-.12.34a.27.27 0 0 1 -.36-.12l-.72-1.37a.24.24 0 0 1 .12-.34.27.27 0 0 1 .35.12zm.98-1.21c.13.04.25-.05.29-.2.03-.14-.05-.29-.18-.32l-1.4-.4c-.13-.04-.25.05-.29.2-.03.14.05.29.18.32zm1.46-3.9a.3.3 0 0 0 .03-.37c-.08-.11-.22-.13-.32-.04l-1.1 1.04a.3.3 0 0 0 -.04.37c.08.11.23.13.32.04l1.1-1.04zm-1.88 1.56a.3.3 0 0 0 .04-.37c-.08-.1-.23-.13-.33-.03l-1.1 1.03a.3.3 0 0 0 -.03.37c.08.12.22.13.32.04l1.1-1.03zm-2.41 4.18c0-.15.14-.27.31-.27s.31.12.31.27v1.65c0 .15-.14.27-.31.27s-.31-.12-.31-.27zm-1.85-6.79c-.07-.12 0-.27.13-.33s.29 0 .35.12l.72 1.38c.06.12 0 .27-.13.33-.14.06-.3 0-.36-.12l-.71-1.37zm-2.04 3.31c-.12-.03-.2-.17-.17-.32s.15-.24.28-.21l1.4.38c.13.04.21.19.18.34-.02.14-.15.24-.28.2l-1.4-.38zm.84 3.38c-.1.1-.1.26-.02.37.08.1.23.12.33.03l1.1-1.05c.1-.1.1-.25.02-.36a.22.22 0 0 0 -.33-.03zm6.72 0c.1.1.1.26.02.37a.22.22 0 0 1 -.33.03l-1.1-1.05a.28.28 0 0 1 -.02-.36c.08-.11.23-.13.33-.03zm.84-3.38c.12-.03.2-.17.17-.32s-.15-.24-.28-.21l-1.4.38c-.13.04-.21.19-.18.34.02.14.15.24.28.2l1.4-.38zm-2.04-3.31c.07-.12 0-.27-.13-.33a.28.28 0 0 0 -.35.12l-.72 1.38c-.06.12 0 .27.13.33.14.06.3 0 .36-.12z" fill="#26b6e0"/></svg>