<svg height="18" viewBox="0 0 18 18" width="18" xmlns="http://www.w3.org/2000/svg"><path d="m0 0h18v18h-18z" fill="#f0f3fa"/><path d="m13.42 13h.58l-2.5-6.55c-.33-.81-1-2.45-2.5-2.45s-2.17 1.64-2.5 2.45l-2.5 6.55h.73c.2-.67.5-1.41.77-1.64.25-.2.38-.5.5-.81.13-.31.25-.62.5-.82.5-.41 1-2.05 1-2.46 0-.4.5-1.63 1-1.63.29 0 .57.53.86 1.06.21.4.43.8.64.98.5.41 1 1.23 1.5 2.05.2.31.38.56.55.78.26.35.45.6.45.85 0 .23.47.97.92 1.64zm-.71 0c-.2-.5-.46-1.03-.71-1.23s-.38-.4-.5-.61c-.13-.2-.25-.41-.5-.61-.5-.41-1.5-1.23-1.5-1.64s-1-2.05-1-1.64v2.05c0 .37 0 .49-.05.58-.05.12-.18.2-.45.65a3.5 3.5 0 0 0 -.5 1.63l-.25.82z" fill="#145092"/></svg>