<svg height="18" width="18" xmlns="http://www.w3.org/2000/svg"><path d="m0 0h18v18h-18z" fill="#5d5d5f"/><path d="m5 4.002c.881-.002 1.763 0 2.644-.002 1.273-.011 2.565.233 3.672.788 1.023.507 1.854 1.306 2.29 2.256a4.409 4.409 0 0 1 .143 3.291 2.664 2.664 0 0 0 -1.017-1.166c-.658-.427-1.446-.665-2.228-.859-.714-.177-1.45-.276-2.163-.453-.768-.186-1.546-.398-2.212-.788-.333-.195-.623-.452-.806-.763-.236-.391-.295-.839-.323-1.273zm0 4.654c.576.298 1.182.556 1.817.747 1.212.377 2.503.504 3.72.866.513.156 1.05.332 1.423.688.347.33.397.81.329 1.233-.113.598-.643 1.072-1.248 1.34-.918.41-1.98.504-3 .46-1.018-.086-2.148-.474-3.041-.99z" fill="#fff"/></svg>