<svg height="18" width="18" xmlns="http://www.w3.org/2000/svg" xmlns:xlink="http://www.w3.org/1999/xlink"><linearGradient id="a" gradientUnits="userSpaceOnUse" x1="3.349" x2="21.904" y1="3.122" y2="24.434"><stop offset="0" stop-color="#1a1e21"/><stop offset="1" stop-color="#06060a"/></linearGradient><path d="m0 0h18v18h-18z" fill="url(#a)"/><path d="m4.712 14s-.71 0-.71-.142c0-.111.041-.122.28-.14.595-.035.718-.448.718-1.119v-7.715c-.077-.416-.204-.6-.655-.617-.226-.008-.345.012-.345-.124 0-.137-.012-.156.938-.137h2.758c3.362.053 6.3.771 6.3 4.757.126 3.25-1.537 5.237-4.442 5.216-1.615.021-3.241.021-4.842.021zm4.805-1c2.082-.23 2.465-1.965 2.483-4.237s-1.173-3.764-4.06-3.764c-.574-.002-.707.08-.803.18-.046.05-.122.084-.137.488-.023.588-.03 5.687-.003 6.08.023.355.038.625.08.725.294.69 2.44.528 2.44.528z" fill="#fff"/></svg>