<svg fill="none" height="18" width="18" xmlns="http://www.w3.org/2000/svg"><path d="m0 0h18v18h-18z" fill="#f33"/><path clip-rule="evenodd" d="m3.122 6h2.045v5h-2.045c-.062 0-.122-.062-.122-.123v-4.754c0-.062.06-.123.122-.123zm5.078 2.5c0-1.373-1.117-2.5-2.478-2.5h-.122v5h.122c1.36 0 2.478-1.127 2.478-2.5zm.325 2.379v-4.76c0-.102.144-.162.226-.081l2.049 2.248v2.714h-2.152c-.061 0-.123-.06-.123-.121zm2.6.121v-4.881c0-.102.146-.162.229-.081l2.046 2.134v2.828zm4.755 0h-2.155v-2.495l2.237 2.292c.082.082.02.203-.082.203z" fill="#fff" fill-rule="evenodd"/></svg>