<svg height="18" width="18" xmlns="http://www.w3.org/2000/svg"><path d="m0 9a9 9 0 1 1 18 0 9 9 0 0 1 -18 0z" fill="#fabc11"/><path d="m14 6.14c-.19 2.8-2.26 5.24-5.34 5.24-3.48 0-4.83-3.06-4.64-5.38l1.02-.33a4.14 4.14 0 0 0 .51 2.7 2.83 2.83 0 0 1 2.81-3.37 2.78 2.78 0 0 1 2.86 2.82c.24-.74.38-1.5.42-2.28zm-8.65 5.63h1.33l-1.2 1.23h-1.33zm3.12 0-1.2 1.23h-1.33l1.2-1.23zm.58 0h1.33l1.2 1.23h-1.32l-1.2-1.23zm3.12 0h-1.32l1.2 1.23h1.33l-1.2-1.23zm-3.81-1.77a2 2 0 1 0 0-4 2 2 0 0 0 0 4z" fill="#1f1c1d"/></svg>