<svg height="18" viewBox="0 0 18 18" width="18" xmlns="http://www.w3.org/2000/svg"><path d="m0 0h18v18h-18z" fill="#f0f3fa"/><path d="m14 8c0 3-3 5.25-5 6-2-.75-5-3-5-6 0-1 .47-3 2.33-3 1.67 0 2.57.75 2.67 1.13.11-.38 1-1.13 2.67-1.13 1.86 0 2.33 2 2.33 3z" fill="#c6027d"/><path d="m6.47 7.27c.31.55.63 1.18.72 1.82.57-.09 1.34-.21 1.84.21.56-.45 1.12-.4 1.76-.22.2-.83.47-1.07.94-1.74a6.87 6.87 0 0 0 -2.3-.43l-.4.5-.42-.5c-1 0-1.67.17-2.14.36zm5.6.24c-.51.63-.75.85-.95 1.68.13.05.26.12.39.2l-.16.36c-.17-.1-.33-.17-.5-.23-.53-.18-1.26-.34-1.7.2l-.13.14-.12-.15c-.4-.49-1.3-.27-1.81-.19l-.38.23-.16-.36.3-.19a4.66 4.66 0 0 0 -.71-1.78c-.1.06-.2.1-.28.16.47 1.17.46 2.03.48 3.01h5.33c.01-1.58.44-2.54.56-2.98zm-5.94-.53a5.8 5.8 0 0 1 2.55-.48h.07l.27.32.28-.32h.07c.59 0 1.84.12 2.74.58.15.08.3.17.43.27l.13.1-.07.16c-.09.22-.6 1.23-.6 3.19v.2h-6v-.2c0-.94 0-2.05-.52-3.13l-.15-.18.18-.14c.13-.1.34-.24.62-.37z" fill="#fcf4f9"/></svg>