<svg height="18" viewBox="0 0 18 18" width="18" xmlns="http://www.w3.org/2000/svg"><path d="m0 0h18v18h-18z" fill="#f0f3fa"/><path d="m5.67 6 2.1 2.26c.3.31.3.76.03 1.08l-1.34 1.53a.4.4 0 0 1 -.6 0l-1.53-1.71a1.2 1.2 0 0 1 0-1.64zm6.66 6-2.1-2.26a.79.79 0 0 1 -.03-1.08l1.34-1.53a.4.4 0 0 1 .6 0l1.54 1.71a1.2 1.2 0 0 1 0 1.64zm-.33-6.33-2.26 2.1c-.31.3-.76.3-1.08.03l-1.53-1.34a.4.4 0 0 1 0-.6l1.71-1.54a1.2 1.2 0 0 1 1.64 0zm-6 6.66 2.26-2.1c.31-.3.76-.3 1.08-.03l1.53 1.34a.4.4 0 0 1 0 .6l-1.71 1.54a1.2 1.2 0 0 1 -1.64 0z" fill="#e41d24"/></svg>