<svg height="18" viewBox="0 0 18 18" width="18" xmlns="http://www.w3.org/2000/svg"><path d="m0 0h18v18h-18z" fill="#f0f3fa"/><path d="m12.5 14a.5.5 0 1 0 0-1 .5.5 0 0 0 0 1z" fill="#002a5b"/><path d="m10.5 14a.5.5 0 1 0 0-1 .5.5 0 0 0 0 1z" fill="#647da4"/><path d="m8.5 14a.5.5 0 1 0 0-1 .5.5 0 0 0 0 1z" fill="#ee7c22"/><path d="m6.5 14a.5.5 0 1 0 0-1 .5.5 0 0 0 0 1z" fill="#ffbe84"/><path d="m6 4h3.12c2.45-.05 3.9 1.57 3.88 4 .04 2.76-1.65 4-4.2 4h-2.8zm1 1v6h2.25c1.73 0 2.75-1.18 2.75-3 .02-1.88-1.23-3.06-2.92-3z" fill="#002a5b"/></svg>