<svg height="18" viewBox="0 0 18 18" width="18" xmlns="http://www.w3.org/2000/svg"><path d="m0 0h18v18h-18z" fill="#f0f3fa"/><path d="m13.49 4h-.96l-2.23 3.42h.15l3.05-3.42zm-7.7.9 1.87 2.94-2.3-2.6c.13-.13.28-.24.43-.34zm-1.05.95 2.57 2.36-2.9-1.92c.1-.15.21-.3.33-.44zm-.91 5.33 3.23-1.07.02.05-3.03 1.53a5.22 5.22 0 0 1 -.22-.5zm3.1-2.03v-.05l-3.38-.7c-.03.18-.05.37-.06.55zm-2.09 3.69a5.4 5.4 0 0 1 -.34-.42l2.84-1.82zm2.1-3.18v-.04l-3.44.18.08.55 3.36-.7zm2.78-2.24h-.08l1.12-3.42h.68zm-1.62.16.05-.02-1.08-3.28a5.2 5.2 0 0 0 -.52.2zm.54-.15h-.04l-.7-3.36c.2-.03.37-.05.56-.06l.2 3.42zm.46-.01h.06l.7-3.42h-.56zm-2.02 1.18-.02.04-3.3-1.09.22-.52zm3.74.49v.05l3.18-.17v-.53l-3.17.66zm-.02.56.01-.05 3.15.18c-.01.18-.04.35-.07.52zm-.11.45-.02.05 2.8 1.42.2-.48zm.13-2.16v-.14l3.18-2.8v.88l-3.17 2.08zm0 .58v.08l3.18-1.04v-.64l-3.17 1.6zm1.94 4.16-2.33-2.13 2.63 1.73zm-4.61-1.48-.05-.02-1.47 2.94.5.2zm-2.69 2.22 2.24-2.47-1.8 2.77zm3.18-2.1h-.04l-.66 3.18.53.05.18-3.23zm3.14 2.26-1.7-2.66 2.1 2.35a4.7 4.7 0 0 1 -.4.31zm-2.63-2.26h-.05l.18 3.22c.18-.02.35-.04.52-.08zm.45-.12.04-.02 1.42 2.84-.47.2-1-3.02z" fill="#003262"/></svg>