<svg height="18" viewBox="0 0 18 18" width="18" xmlns="http://www.w3.org/2000/svg"><path d="m0 0h18v18h-18z" fill="#f0f3fa"/><path d="m4.5 7.9-1.5 2.34 1.9.86.5-1.75-.9-1.43zm.96.65-.66-1.16 1.2-.75-.54 1.9zm3.54-2.55-1.8.18.88 1.73z" fill="#4aa385"/><path d="m7.8 8.91-1.02-2.6-.78 3.08.98 2.03.82-2.5z" fill="#2253a0"/><path d="m6.9 12.05-1.13-1.91-.37 1.26zm2.7.67-1.43-3.22-.97 2.67 1.92.83z" fill="#4aa385"/><path d="m9.48 6-1.08 2.93 1.7 3.75.4-1.33z" fill="#2253a0"/><path d="m12 6.69-1.8-.69.7 4.14z" fill="#4aa385"/><path d="m13.8 8.16-1.35-1.2-1.05 3.5z" fill="#2253a0"/><path d="m10.96 11.73-.16.63 4.2-2.05-.89-1.76z" fill="#4aa385"/></svg>