<svg height="18" viewBox="0 0 18 18" width="18" xmlns="http://www.w3.org/2000/svg"><path d="m0 0h18v18h-18z" fill="#181b1e"/><path d="m5.73 4-.73.77 2.39 2.53c.89.95 2.33.95 3.22 0l2.39-2.53-.73-.77-2.76 2.92a.7.7 0 0 1 -1.02 0zm8.27 8.27-.77.73-2.52-2.39a2.2 2.2 0 0 1 0-3.22l2.52-2.39.77.73-2.92 2.76a.7.7 0 0 0 0 1.02zm-10-6.54.77-.73 2.53 2.39c.95.89.95 2.33 0 3.22l-2.53 2.39-.77-.73 2.92-2.76a.7.7 0 0 0 0-1.02zm8.27 8.27.73-.77-2.39-2.52a2.2 2.2 0 0 0 -3.22 0l-2.39 2.52.73.77 2.76-2.92a.7.7 0 0 1 1.02 0z" fill="#fff"/></svg>