<svg height="18" viewBox="0 0 18 18" width="18" xmlns="http://www.w3.org/2000/svg"><path d="m0 0h18v18h-18z" fill="#f0f3fa"/><path d="m14 4h-10v4.55h.49a2.22 2.22 0 0 1 2.22 2.4l.16.5 1-2.9 1.2 2.9.71-2.71h.53l-.8 2.99h2.46a2.35 2.35 0 0 1 -.07-.24h-2.3l1-2.76h.55l.7 2.05c.01-.3.08-.62.2-.9.15-.33.38-.63.7-.84.32-.2.78-.3 1.25-.29zm0 5.22c-.38 0-.76.1-.97.23-.23.15-.4.37-.52.63a2.18 2.18 0 0 0 -.02 1.62c.16.38.44.6.73.7.3.11.6.12.78.1v-3.29zm0 3.77c-.25.03-.6 0-.96-.13a1.78 1.78 0 0 1 -.67-.44l.2.58h-.54l-.27-.77h-1.85l-.24.77h-.5l-1.25-3.05-1.06 3.05-.4-1.2a2.22 2.22 0 0 1 -1.96 1.2h-.5v1h10v-1zm-10-.49h.49a1.72 1.72 0 0 0 0-3.45h-.49zm6.87-3.04-.55 1.54h1.07l-.52-1.53z" fill="#0e3487"/></svg>