<svg fill="none" height="18" width="18" xmlns="http://www.w3.org/2000/svg" xmlns:xlink="http://www.w3.org/1999/xlink"><linearGradient id="a" gradientUnits="userSpaceOnUse" x1="14.999" x2="4.604" y1="9.124" y2="15.561"><stop offset="0" stop-color="#f9be44"/><stop offset=".307" stop-color="#ffcb05"/><stop offset=".664" stop-color="#fae313"/></linearGradient><linearGradient id="b" gradientUnits="userSpaceOnUse" x1="4.574" x2="6.114" y1="12.911" y2="10.099"><stop offset="0" stop-color="#0089cf"/><stop offset=".116" stop-color="#0089cf"/><stop offset=".994" stop-color="#00b6f1"/><stop offset="1" stop-color="#00b6f1"/></linearGradient><linearGradient id="c" gradientUnits="userSpaceOnUse" x1="6.946" x2="13.571" y1="2.898" y2="11.48"><stop offset=".01" stop-color="#90278c"/><stop offset=".332" stop-color="#e4182c"/></linearGradient><linearGradient id="d" gradientUnits="userSpaceOnUse" x1="5.147" x2="6.687" y1="4.773" y2="7.584"><stop offset="0" stop-color="#0089cf"/><stop offset=".178" stop-color="#0089cf"/><stop offset="1" stop-color="#00b6f1"/></linearGradient><path d="m0 0h18v18h-18z" fill="#f0f3fa"/><path d="m14 7.477h-.02c-.208.78-1.946 2.229-4.292 3.514-.96.528-2.005 1.05-2.83 1.357v1.556c0 .104.011.212.057.286s.11.133.194.181l-2.199-1.273 2.207 1.28c.19.123.374.123.638.123.803 0 2.158-.382 3.414-1.071 1.672-.917 2.83-2.069 2.83-2.76v-3.193z" fill="url(#a)"/><path d="m7 12.298v1.725a.484.484 0 0 0 .063.25c.046.075.11.134.194.183l-3.065-1.756-.012-.007c.404.238 1.503.055 2.82-.396z" fill="#009d53"/><path d="m4 10v2.39c0 .068.015.13.047.182a.368.368 0 0 0 .145.131h.002l.683.375-.682-.373c.118.063.287.094.498.094.531 0 1.364-.148 2.307-.501v-2.298z" fill="url(#b)"/><path d="m7.855 3.5c-.255.002-.465.09-.617.172l-3.04 1.62c.677-.359 3.035.249 5.49 1.708 2.502 1.372 4.314 2.936 4.312 3.669v-3.34c0-.69-1.156-1.843-2.828-2.76-1.247-.682-2.471-1.062-3.274-1.069z" fill="url(#c)"/><path d="m7.244 3.67-3.052 1.625a.368.368 0 0 0 -.145.131.344.344 0 0 0 -.047.182v2.392h3v-3.917a.497.497 0 0 1 .072-.252.45.45 0 0 1 .172-.16z" fill="url(#d)"/><path d="m6.996 5.737v-1.643a.483.483 0 0 1 .262-.432l-3.066 1.635-.012.007c.405-.238 1.482-.066 2.816.433z" fill="#36307c"/><path d="m14 10.662v-3.333c.002.382-.488.985-1.308 1.67.815.68 1.302 1.281 1.308 1.663z" fill="#ca1c2a"/></svg>