<svg fill="none" height="18" viewBox="0 0 18 18" width="18" xmlns="http://www.w3.org/2000/svg" xmlns:xlink="http://www.w3.org/1999/xlink"><linearGradient id="a" gradientUnits="userSpaceOnUse" x1="14" x2="4" y1="4" y2="14"><stop offset="0" stop-color="#f4ed71"/><stop offset=".560696" stop-color="#e8683d"/></linearGradient><path d="m0 0h18v18h-18z" fill="#f0f3fa"/><path clip-rule="evenodd" d="m14 4h-10v4.00009h1v-3.00018h8v7.99999h-3v1.0001h4zm-9 10v-1.0001-1.9999-1.99991h-1v4.99991zm1.43545-5h2.56455v5h-2.56455c-.23952 0-.43545-.2064-.43545-.4587v-4.08257c0-.25233.19593-.45873.43545-.45873zm.77822 1h1.78633v3h-1.78633c-.11755 0-.21367-.1239-.21367-.2752v-.7248h1v-1h-1v-.7248c0-.1513.09616-.2752.21367-.2752z" fill="url(#a)" fill-rule="evenodd"/></svg>