<svg height="18" viewBox="0 0 18 18" width="18" xmlns="http://www.w3.org/2000/svg"><path d="m0 0h18v18h-18z" fill="#445680"/><path d="m10.29 7.4c.04-.18-.04-.4-.21-.4h-1.18c-.18 0-.3.22-.34.4l-.13.56c-.04.18.04.24.21.28l1.44.33c.6.14 1.04.53.9 1.19l-.25 1.07c-.16.7-.74 1.17-1.42 1.17h-1.8c-.69 0-1.05-.48-.89-1.17l.17-.83h1.14l-.12.6c-.04.18.03.4.21.4h1.28c.18 0 .3-.22.34-.4l.14-.63c.04-.18-.04-.24-.21-.28l-1.44-.33c-.6-.14-1.05-.53-.9-1.18l.23-1.01c.15-.7.74-1.17 1.41-1.17h1.72c.68 0 1.04.48.88 1.17l-.15.83h-1.14l.1-.6zm-3.89-1.4h-3.06l-.94 4.18 1.32-.69.54-2.49h1.58c.18 0 .26.23.22.42l-.72 3.16c-.04.19-.16.42-.33.42h-2.76l-.25 1h3.04c.68 0 1.26-.48 1.42-1.18l.82-3.64c.15-.7-.2-1.18-.89-1.18zm8.68 0h-1.92c-.68 0-1.26.48-1.42 1.17l-.83 3.66c-.16.7.2 1.17.88 1.17h1.93c.68 0 1.26-.48 1.42-1.17l.45-1.83h-2.05l.68.72-.2.88c-.04.18-.16.4-.34.4h-1.34c-.18 0-.25-.22-.21-.4l.72-3.2c.05-.18.16-.4.34-.4h1.34c.18 0 .26.22.21.4l-.12.6h1.17l.17-.83c.16-.7-.2-1.17-.88-1.17z" fill="#fff"/></svg>