<svg height="18" width="18" xmlns="http://www.w3.org/2000/svg"><path d="m0 0h18v18h-18z" fill="#f0f3fa"/><path d="m3.17 5.9c0-.2.12-.53.66-.34s2.15.11 2.88.06c1.22-.11 3.97-.2 5.21.3 1.55.63 2.86 1.65 3.08 4.47 0 .28 0 .95-.13 1.44-.04.12-.2.38-.48.4-.36.02-1.77.27-2.68.48-.91.2-4 .77-6.33-.63-.99-.6-2.98-2.31-2.2-6.17zm.62.5c.04-.28.05-.36.54-.2.47.15 1.94.08 2.59.03 1.08-.08 3.51-.15 4.61.25 1.38.51 2.53 1.35 2.73 3.65v.07c.01.24.03.7-.02 1.05l-.01.05c-.04.27-.06.44-.3.45-.32.02-1.55.16-2.36.33s-3.72.52-5.79-.63c-.87-.48-2.46-2.05-2-4.98z" fill="#73c11c" fill-rule="evenodd"/><path d="m5.02 7.56h7.99v1.8h-7.99z" fill="#ca102d"/><path d="m5.02 9.87h7.99v.71h-7.99z" fill="#03138a"/><path d="m8.94 7.1.22.82.38-.77-.13.83 1.35-1.28-1.14 1.42 1.43-.66-1.29.87 1.98-.22-1.93.46 1.2.28-1.24-.04.64.53-.77-.32.86 1.22-1.07-1.06.33 1.35-.58-1.28-.24 1.31-.02-1.33-.82 1.28.59-1.38-.69.46.5-.64-1.58.36 1.49-.58-1.5-.1 1.5-.15-1.38-.56 1.46.33-1.49-1.3 1.68 1.11-.27-.8.5.69.04-.85z" fill="#f4e40f"/></svg>