<svg height="18" viewBox="0 0 18 18" width="18" xmlns="http://www.w3.org/2000/svg"><path d="m0 0h18v18h-18z" fill="#f0f3fa"/><path d="m3.1 10.9 3.75-3.75 4 4-3.75 3.75a.36.36 0 0 1 -.27.1.36.36 0 0 1 -.25-.1l-3.48-3.5a.34.34 0 0 1 -.11-.25.4.4 0 0 1 .1-.26z" fill="#006491"/><path d="m7.15 6.85 3.74-3.74a.36.36 0 0 1 .52 0l3.48 3.49c.15.14.15.37 0 .51l-3.74 3.75-4-4z" fill="#e31837"/><g fill="#f0f3fa"><circle cx="11" cy="7" r="1"/><circle cx="8.42" cy="11" r="1"/><circle cx="5.42" cy="11" r="1"/></g></svg>