<svg height="18" viewBox="0 0 18 18" width="18" xmlns="http://www.w3.org/2000/svg"><path d="m0 0h18v18h-18z" fill="#b4293b"/><g fill="#fff"><path d="m11.26 11c.14-.37.21-.77.21-1.19 0-2.1-1.9-3.81-4.23-3.81-2.34 0-4.24 1.7-4.24 3.81 0 .42.07.82.21 1.19z" fill-opacity=".3"/><path d="m12.8 11c.13-.37.2-.77.2-1.19 0-2.1-1.8-3.81-4.01-3.81a3.92 3.92 0 0 0 -4.02 3.81c0 .42.07.82.2 1.19z" fill-opacity=".5"/><path d="m14.8 11c.13-.37.2-.77.2-1.19a3.9 3.9 0 0 0 -4-3.81c-2.2 0-4 1.7-4 3.81 0 .42.07.82.2 1.19z" fill-opacity=".9"/></g></svg>