<svg height="18" viewBox="0 0 18 18" width="18" xmlns="http://www.w3.org/2000/svg"><path d="m0 9a9 9 0 1 1 18 0 9 9 0 0 1 -18 0z" fill="#f0f3fa"/><g fill="#ff151f"><path d="m5.6 9s.2 5.24 5.4 5c-2.7-1.23-3.5-3.1-3.5-4.88a6.63 6.63 0 0 1 1.4-4.12c-2.53.45-4.9 2.06-4.9 6 .5-.85.52-1.18 1.6-2z"/><path d="m12.4 9s-.2-5.24-5.4-5c2.7 1.23 3.5 3.1 3.5 4.88a6.63 6.63 0 0 1 -1.4 4.12c2.53-.45 4.9-2.06 4.9-6-.5.85-.52 1.18-1.6 2z"/><path d="m15 9a6 6 0 1 0 -12 0 6 6 0 0 0 12 0zm-6 5.4c2.92 0 5.4-2.48 5.4-5.4s-2.48-5.4-5.4-5.4a5.48 5.48 0 0 0 -5.4 5.4c0 2.92 2.48 5.4 5.4 5.4z" fill-rule="evenodd"/></g></svg>