<svg height="18" viewBox="0 0 18 18" width="18" xmlns="http://www.w3.org/2000/svg"><path d="m0 0h18v18h-18z" fill="#f0f3fa"/><path d="m12.79 8.68h1.21a4.92 4.92 0 0 0 -4.85-4.68v1.19a3.75 3.75 0 0 1 3.64 3.49zm-.04.72a3.8 3.8 0 0 1 -3.6 3.26v1.34a5 5 0 0 0 4.84-4.6z" fill="#494041"/><path d="m3.4 8.98c0 .4-.31.72-.7.72a.7.7 0 0 1 -.7-.72c0-.4.32-.72.7-.72s.7.32.7.72z" fill="#452e76"/><path d="m4.74 8.98c0 .4-.3.72-.7.72a.7.7 0 0 1 -.7-.72c0-.4.33-.72.7-.72.4 0 .7.32.7.72zm4.69 0c0 .4-.3.72-.7.72a.7.7 0 0 1 -.7-.72c0-.4.33-.72.7-.72.4 0 .7.32.7.72zm-4.63-.1c-.04.32.17.62.48.68.3.05.6-.17.66-.48a.59.59 0 0 0 -.47-.68c-.33-.04-.62.17-.66.48zm1.3.17a.41.41 0 0 1 .34-.48c.22-.05.43.12.47.34.04.24-.11.44-.34.48a.4.4 0 0 1 -.47-.34zm1.07-.02a.3.3 0 0 1 .23-.33c.15-.02.3.09.33.24a.3.3 0 0 1 -.23.33c-.15.03-.3-.08-.33-.24z" fill="#452e76"/><path d="m4.18 10.6c0 .31.25.57.56.57s.57-.26.57-.58a.58.58 0 0 0 -.57-.58c-.3-.01-.56.25-.56.58z" fill="#0c4a9f"/><path d="m5.08 11.89c0 .28.21.5.48.5s.48-.22.48-.5-.21-.5-.48-.5a.49.49 0 0 0 -.48.5z" fill="#4dba31"/><path d="m6.25 12.7c0 .24.19.43.41.43.23 0 .42-.2.42-.43a.42.42 0 0 0 -.42-.42c-.22 0-.41.19-.41.42z" fill="#8c2085"/><path d="m7.36 13.16c0 .2.16.36.35.36s.35-.17.35-.36c0-.2-.16-.36-.35-.36a.36.36 0 0 0 -.35.36z" fill="#e7584e"/><path d="m8.44 13.45c0 .16.13.3.3.3a.3.3 0 0 0 .29-.3.3.3 0 0 0 -.3-.3.3.3 0 0 0 -.3.3z" fill="#eda44a"/><path d="m5.43 10.17c-.04.27.13.52.4.56s.51-.14.55-.41a.49.49 0 0 0 -.4-.57c-.26-.04-.5.15-.55.42z" fill="#0c4a9f"/><path d="m6.1 11.09c-.04.23.1.44.34.48.22.04.43-.1.47-.34a.42.42 0 0 0 -.34-.49c-.23-.02-.44.13-.47.35z" fill="#4dba31"/><path d="m6.92 11.65c-.03.2.1.38.28.42.19.03.38-.1.4-.3.03-.18-.09-.38-.28-.4a.33.33 0 0 0 -.4.29z" fill="#8c2085"/><path d="m6.49 9.83c-.03.2.1.39.28.42.19.03.38-.1.4-.3.03-.18-.09-.38-.28-.4-.19-.05-.36.08-.4.28z" fill="#0c4a9f"/><path d="m6.92 10.51a.3.3 0 0 0 .23.33c.15.03.3-.08.32-.23a.3.3 0 0 0 -.23-.33c-.15-.03-.3.08-.32.23z" fill="#4dba31"/><path d="m7.46 9.64c-.02.13.06.25.18.26.13.02.25-.07.26-.19s-.07-.25-.19-.26c-.12-.02-.24.07-.25.2z" fill="#0c4a9f"/><path d="m7.98 10.11c-.01.1.05.2.15.2.1.02.19-.05.2-.14.01-.1-.05-.2-.15-.21-.1-.02-.19.04-.2.15zm-.5.77c-.02.13.07.25.2.26.11.02.23-.06.25-.19a.22.22 0 0 0 -.2-.26.24.24 0 0 0 -.25.2z" fill="#8c2085"/><path d="m8.1 11.08c-.01.1.06.19.15.2.1.02.19-.05.2-.15.02-.1-.05-.2-.15-.2a.18.18 0 0 0 -.2.15z" fill="#e7584e"/><path d="m8.59 11.13c-.02.08.04.15.12.17.08.01.14-.04.16-.13a.14.14 0 0 0 -.12-.16c-.07-.02-.15.04-.16.12z" fill="#eda44a"/><path d="m7.74 11.94a.3.3 0 0 0 .24.35.3.3 0 0 0 .34-.25.3.3 0 0 0 -.25-.34.3.3 0 0 0 -.33.24z" fill="#e7584e"/><path d="m8.53 12.23c-.03.14.07.27.2.3.14.02.26-.07.27-.21a.25.25 0 0 0 -.2-.3c-.12-.02-.24.08-.27.21z" fill="#eda44a"/><path d="m4.06 7.2c0-.32.25-.58.56-.58.3 0 .56.26.56.58s-.25.58-.56.58c-.3.01-.56-.25-.56-.58z" fill="#0c4a9f"/><path d="m4.97 5.9c0-.27.21-.5.48-.5s.49.23.49.5c0 .28-.22.5-.49.5a.49.49 0 0 1 -.48-.5z" fill="#4dba31"/><path d="m6.13 5.09c0-.23.18-.43.4-.43.23 0 .42.2.42.43s-.2.43-.42.43-.4-.2-.4-.43z" fill="#8c2085"/><path d="m7.24 4.63c0-.19.16-.35.35-.35s.35.16.35.35c0 .2-.16.36-.35.36a.36.36 0 0 1 -.35-.36z" fill="#e7584e"/><path d="m8.32 4.5c0-.17.13-.3.3-.3a.3.3 0 0 1 0 .6.3.3 0 0 1 -.3-.3z" fill="#eda44a"/><path d="m5.32 7.63a.49.49 0 0 1 .4-.57c.27-.04.51.14.55.42a.49.49 0 0 1 -.4.56.48.48 0 0 1 -.55-.41z" fill="#0c4a9f"/><path d="m5.98 6.7a.41.41 0 0 1 .33-.48c.23-.04.43.12.47.35a.42.42 0 0 1 -.33.48c-.23.04-.43-.13-.47-.35z" fill="#4dba31"/><path d="m6.8 6.15c-.03-.2.1-.37.28-.41.19-.03.38.1.4.29.03.2-.1.38-.28.41-.2.03-.38-.1-.4-.29z" fill="#8c2085"/><path d="m6.38 7.97c-.03-.2.1-.38.28-.41.2-.03.38.1.4.29.03.2-.09.38-.28.41-.2.03-.37-.1-.4-.29z" fill="#0c4a9f"/><path d="m6.8 7.28a.3.3 0 0 1 .23-.33c.14-.03.3.08.32.24a.3.3 0 0 1 -.23.33c-.15.02-.3-.09-.32-.24z" fill="#4dba31"/><path d="m7.34 8.15a.22.22 0 0 1 .18-.26c.12-.03.25.07.26.2a.22.22 0 0 1 -.19.25c-.12.02-.24-.06-.25-.19z" fill="#0c4a9f"/><path d="m7.86 7.68c-.01-.1.05-.19.15-.2.1-.02.19.05.2.15s-.05.2-.15.2c-.1.03-.19-.04-.2-.15zm-.48-.77a.22.22 0 0 1 .18-.26c.12-.02.25.07.26.2a.22.22 0 0 1 -.19.25c-.12.03-.24-.07-.25-.19z" fill="#8c2085"/><path d="m7.98 6.72c-.01-.1.05-.2.15-.21s.19.06.2.15c.01.1-.05.2-.15.2a.18.18 0 0 1 -.2-.14z" fill="#e7584e"/><path d="m8.48 6.66a.14.14 0 0 1 .12-.16c.08-.02.15.04.16.12a.14.14 0 0 1 -.12.17c-.08.01-.16-.05-.16-.13z" fill="#eda44a"/><path d="m7.62 5.85a.3.3 0 0 1 .24-.35.3.3 0 0 1 .34.25.3.3 0 0 1 -.25.35c-.14.02-.3-.09-.33-.25z" fill="#e7584e"/><path d="m8.44 5.63a.25.25 0 0 1 .2-.3c.13-.02.25.08.28.21a.25.25 0 0 1 -.2.3c-.15 0-.27-.09-.28-.21z" fill="#eda44a"/></svg>