<svg height="18" width="18" xmlns="http://www.w3.org/2000/svg"><path d="m0 0h18v18h-18z" fill="#f68920"/><path d="m13 6.14v-1.4l-3.98-.74-4.02.74v5.43c.32-.23.73-.48 1.2-.72 1.14-.6 2.17-.9 2.3-.68.12.21-.71.87-1.86 1.46-.54.29-1.06.5-1.47.63.62 1.36 2.73 2.62 3.85 3.14 3.36-1.7 3.98-3.09 3.98-3.78v-3.32a8.6 8.6 0 0 1 -1.17.7c-1.15.6-2.18.9-2.3.69-.13-.22.7-.88 1.85-1.47.61-.32 1.2-.55 1.62-.67zm-2.98.69c.1.17-.48.66-1.3 1.09-.81.42-1.56.62-1.66.44s.47-.67 1.3-1.1c.8-.42 1.55-.61 1.66-.43zm-.22 3.37c1.35-.7 2.32-1.49 2.16-1.76-.15-.27-1.37.07-2.72.77-1.34.7-2.31 1.48-2.16 1.75.16.28 1.38-.07 2.72-.76z" fill="#fff" fill-rule="evenodd"/></svg>