<svg height="18" viewBox="0 0 18 18" width="18" xmlns="http://www.w3.org/2000/svg"><path d="m0 0h18v18h-18z" fill="#f0f3fa"/><path d="m5.97 5.6 6.88 7.08-.72.69-1.1-1.11-1.07 1.02a2.5 2.5 0 0 1 -1.88.72c-.7 0-1.36-.29-1.85-.8a2.43 2.43 0 0 1 -.73-1.86c0-.68.3-1.34.81-1.83l.73-.68.7.71-.73.69a1.56 1.56 0 0 0 -.03 2.26c.29.3.7.48 1.13.48s.84-.14 1.15-.46l1.08-1.03-4.37-4.42z" fill="#005172"/><path d="m12.27 7.49c.5.48.76 1.14.73 1.85a2.5 2.5 0 0 1 -.81 1.83l-.09.09-.7-.72.1-.08c.31-.29.48-.69.48-1.12 0-.42-.14-.82-.46-1.14-.17-.17-.29-.31-.52-.4v-1.05c.52.1.93.37 1.27.74zm-5.67-2.89-.49.49.7.71.49-.45a1.2 1.2 0 0 1 1.7.02c.47.49.47 1.23-.02 1.69l-.5.46.7.71.49-.46c.9-.82.9-2.22.06-3.1a2.25 2.25 0 0 0 -3.13-.07z" fill="#3095b4"/></svg>