<svg height="18" width="18" xmlns="http://www.w3.org/2000/svg"><path d="m0 0h18v18h-18z" fill="#f0f3fa"/><path d="m5.9 4h6.2c1.05 0 1.9.85 1.9 1.9v6.2a1.9 1.9 0 0 1 -1.9 1.9h-6.2a1.9 1.9 0 0 1 -1.9-1.9v-6.2c0-1.05.85-1.9 1.9-1.9z" fill="#50c800"/><path d="m14 10.41v-2.88a2.26 2.26 0 0 0 -.49-.74c.02-.3-.05-.62-.2-.9a.31.31 0 0 0 -.51-.05l-.33.36c.04-.33-.01-.67-.17-.97-.1-.19-.32-.22-.47-.07l-1.55 1.57-.05.05c-.68.62-1.74.64-2.38.08a2.2 2.2 0 0 0 -.12-.13l-1.56-1.57c-.15-.15-.36-.11-.46.07-.16.3-.22.64-.18.96l-.33-.35a.31.31 0 0 0 -.5.05 1.6 1.6 0 0 0 -.21.89c-.2.2-.37.44-.49.7v2.98c.35.8 1.15 1.35 2.08 1.35h.1c.92 0 1.71-.55 2.07-1.33h1.51a2.27 2.27 0 0 0 2.07 1.33h.07c.95 0 1.76-.58 2.1-1.4z" fill="#8ee000"/><path d="m6.19 6.97c.86 0 1.56.7 1.56 1.58v.93c0 .87-.7 1.58-1.56 1.58-.87 0-1.57-.7-1.57-1.58v-.93c0-.88.7-1.58 1.57-1.58zm5.62 0c.86 0 1.56.7 1.56 1.58v.93c0 .87-.7 1.58-1.56 1.58s-1.56-.7-1.56-1.58v-.93c0-.88.7-1.58 1.56-1.58z" fill="#f0f3fa"/><path d="m6.34 7.87c.43 0 .78.34.78.75v.8c0 .42-.34.75-.78.75a.77.77 0 0 1 -.78-.75v-.8c0-.41.35-.75.78-.75z" fill="#4b4b4b"/><path d="m9 9.69c.47 0 .86.38.86.86v.3a.86.86 0 1 1 -1.72 0v-.3c0-.48.39-.86.86-.86z" fill="#f48000"/><path d="m7.82 10.63c.1-.55.6-.94 1.21-.94.55 0 1.05.4 1.15.94v.04c0 .04 0 .05-.04.05l-1.1.2h-.07l-1.11-.2c-.03 0-.04-.01-.04-.05z" fill="#ffc200"/><path d="m11.66 7.87c.43 0 .78.34.78.75v.8c0 .42-.35.75-.78.75a.77.77 0 0 1 -.79-.75v-.8c0-.41.36-.75.79-.75z" fill="#4b4b4b"/></svg>