<svg height="18" viewBox="0 0 18 18" width="18" xmlns="http://www.w3.org/2000/svg"><path d="m0 0h18v18h-18z" fill="#03456c"/><g fill="#fff"><path d="m5.24 6h-2.24v6h2.24c1.54-.05 2.31-1.05 2.31-2.99s-.78-2.99-2.31-3zm.48 4.96c-.15.36-.43.66-.78.66h-.54v-5.24h.54c.35 0 .64.32.78.66.14.36.21 1.02.21 1.96a6 6 0 0 1 -.21 1.96zm8.18-4.96h-2.45v6h1.55v-2.63h.74c1.5-.01 2.26-.44 2.26-1.6 0-1.17-.7-1.77-2.1-1.77zm-.16 2.96c-.08.02-.17.04-.27.04h-.47v-2.63h.47c.1 0 .19.01.27.03.42.11.64.68.64 1.34 0 .7-.22 1.1-.64 1.22z"/><path d="m12.98 4-3.06 4.5 1.66 3.5h-2.03l-.92-1.9-2.93 3.9-.73-.02 3.36-4.51-1.54-3.47h2.04l.8 1.87 2.62-3.87z"/></g></svg>