<svg height="18" width="18" xmlns="http://www.w3.org/2000/svg"><path d="m0 0h18v18h-18z" fill="#f0f3fa"/><path d="m7.25 4.84c-.12.68-.27 1.68-.36 2.7-.14 1.8-.05 3-.05 3l-2.48 2.42s-.19-1.35-.28-2.87a41.3 41.3 0 0 1 -.08-2.29l.01-.08c0-.04.05-.37.37-.69.35-.34 2.92-2.4 2.87-2.2z" fill="#1496ff"/><path d="m4 7.56v.15c.03-.12.08-.2.18-.33.21-.25.55-.32.69-.34a28.65 28.65 0 0 1 5.95-.11l2.4-2.31s-1.34-.24-2.88-.41c-1-.12-1.88-.18-2.38-.2-.04 0-.39-.05-.72.25l-2.94 2.64c-.33.3-.3.64-.3.67z" fill="#b4dc00"/><path d="m13.13 10.95c-.7.1-1.72.2-2.76.23-1.83.06-3.24-.13-3.24-.13l-2.36 2.35a42.76 42.76 0 0 0 5.16.6l.13-.03c.04 0 .4-.06.72-.36.37-.32 2.55-2.67 2.35-2.65z" fill="#6f2da8"/><path d="m10.19 14h-.16c.13-.03.21-.07.34-.17.27-.2.35-.53.38-.67.12-.68.28-1.68.35-2.7.14-1.8.06-3 .06-3l2.46-2.42a49.58 49.58 0 0 0 .38 5.22c0 .04.03.39-.3.7l-2.8 2.77c-.34.31-.68.27-.71.27z" fill="#73be28"/></svg>