<svg height="18" viewBox="0 0 18 18" width="18" xmlns="http://www.w3.org/2000/svg" xmlns:xlink="http://www.w3.org/1999/xlink"><linearGradient id="a" gradientUnits="userSpaceOnUse" x1="6.11" x2="8.21" y1="6.19" y2="11.85"><stop offset="0" stop-color="#777"/><stop offset="1" stop-color="#fff"/></linearGradient><linearGradient id="b" gradientUnits="userSpaceOnUse" x1="5.36" x2="9.04" y1="5.29" y2="12.4"><stop offset="0" stop-color="#d0d0d0"/><stop offset="1" stop-color="#111"/></linearGradient><linearGradient id="c" gradientUnits="userSpaceOnUse" x1="10.55" x2="11.9" y1="6.04" y2="11.86"><stop offset="0" stop-color="#5b5b5b"/><stop offset="1" stop-color="#c6c6c6"/></linearGradient><linearGradient id="d" gradientUnits="userSpaceOnUse" x1="9.11" x2="14.67" y1="5" y2="13.43"><stop offset="0" stop-color="#dcdcdc"/><stop offset=".45" stop-color="#8f8f8f"/><stop offset=".7"/></linearGradient><linearGradient id="e" gradientUnits="userSpaceOnUse" x1="5.13" x2="8.89" y1="5.38" y2="12.09"><stop offset="0" stop-color="#c4c4c4"/><stop offset="1" stop-color="#222"/></linearGradient><path d="m0 0h18v18h-18z" fill="#f0f3fa"/><path d="m9.03 6.97a2.84 2.84 0 0 0 -4.03 0 2.8 2.8 0 0 0 0 4.01 2.84 2.84 0 0 0 3.1.63 3.97 3.97 0 0 1 -.21-.27 2.52 2.52 0 0 1 -2.67-4.13 2.54 2.54 0 0 1 3.58 0c.4.4.66.92.72 1.51l.32-.12a2.89 2.89 0 0 0 -.81-1.63z" fill="url(#a)"/><path d="m10.83 8.22a3.96 3.96 0 0 0 -3.88-3.22 3.99 3.99 0 0 0 0 7.97 3.9 3.9 0 0 0 2.05-.58 4.04 4.04 0 0 1 -.92-.8 2.8 2.8 0 0 1 -3.88-2.6 2.8 2.8 0 0 1 5.57-.37z" fill="url(#b)"/><path d="m11.05 6.14a2.88 2.88 0 0 1 2.87 2.84 2.85 2.85 0 0 1 -2.87 2.85 2.88 2.88 0 0 1 -2.87-2.85 2.88 2.88 0 0 1 2.87-2.85zm1.8 1.07a2.5 2.5 0 0 0 -4.32 1.79 2.54 2.54 0 0 0 2.51 2.53 2.5 2.5 0 0 0 2.54-2.53c.01-.7-.27-1.33-.74-1.79z" fill="url(#c)"/><path d="m15 13h-1v-1.17a4.31 4.31 0 0 1 -2.93 1.15 3.95 3.95 0 0 1 -3.93-3.98 3.95 3.95 0 0 1 3.93-3.98 3.95 3.95 0 0 1 3.92 3.98c.02 1.32 0 2.65 0 4zm-3.92-6.83a2.8 2.8 0 0 1 2.78 2.81 2.8 2.8 0 0 1 -2.78 2.82 2.8 2.8 0 0 1 -2.77-2.82 2.78 2.78 0 0 1 2.77-2.81z" fill="url(#d)" fill-rule="evenodd"/><path d="m9.51 7.54-5.33 2.09.3 1.04 6.22-2.4z" fill="url(#e)"/></svg>