<svg height="18" width="18" xmlns="http://www.w3.org/2000/svg"><path d="m0 0h18v18h-18z" fill="#e9af10"/><g fill="#fff"><path d="m4.803 4a.803.803 0 0 0 -.803.803v2.661c.291-.203.674-.464.761-.504l-.539.032c.289-.177.934-.548 1.205-.624h-.517c.328-.183 1.034-.56 1.237-.603h-.687c.539-.275 1.924-.822 3.15-.814 1.226.009 1.956.159 2.167.233l.655 1.237c.54-.021 1.685.13 1.956.909.27.778-.289 1.614-.603 1.934.113-.338-.057-1.015-1.638-1.015-.233.036-.823.22-1.321.677-.623.57-1.404 2.184.774 5.074h2.598c.443 0 .803-.36.803-.803v-8.394a.803.803 0 0 0 -.804-.803z"/><path d="m10.142 6.114-1.237-.264.803.655.434-.39z"/></g></svg>