<svg height="18" width="18" xmlns="http://www.w3.org/2000/svg"><path d="m0 0h18v18h-18z" fill="#f0f3fa"/><path d="m4.2 6.001h3.901l-.348 1.659h-1.818l-.16.673h1.818l-.297 1.491h-1.616l-.205.8c.418.163 1.738-.066 2.435-.268l-.32 1.644h-4.59l1.2-6z" fill="#00214a"/><path d="m11.1 6h-2.26l-.939 4.38-.327 1.62h2.026l.6-1.667.468 1.667 1.332-1.667-.3 1.667h2.1l1.2-6h-2.4l-.993 1.333z" fill="#bb000d"/><path d="m8.1 6.001h.9l-.3 1.666h1.952c.362 0 .463.31.447.52 1.034-.101 1.392.304 1.445.561l.057.584s-.055-.08-.097-.125c-.107-.115-1.133.057-1.133.057-1.616.34-1.763.493-3.412 1.085-1.319.473-2.65.44-2.859.318l.3-1h1.8l.3-1.334h-1.8l.3-1h1.8z" fill="#f0f3fa"/></svg>