<svg height="18" viewBox="0 0 18 18" width="18" xmlns="http://www.w3.org/2000/svg"><path d="m0 0h18v18h-18z" fill="#f0f3fa"/><path d="m6.34 4.8-.47 2.63c.34.1 1.12.35 1.45.48s1.04.25 1.35.3v-4.63c-.7.23-1.85.9-2.33 1.22z" fill="#7c581c"/><path d="m11 3-2 .5v4.8a16.6 16.6 0 0 1 3.14-.14c-.12-.37-.8-3.6-1.13-5.16z" fill="#7e5720"/><path d="m5.3 10.96.23-1.99c.68.58 2.41.65 3.14.61 0 1.66.9 2.05 1.41 2.04h2.61l.2 1.25c-.1.02-.5.04-1.4 0a5.87 5.87 0 0 1 -2.88-1.1c-.73-.47-1.78-1-2.18-1.02-.32-.02-.89.13-1.13.2z" fill="#7b6a58"/><path d="m5.2 11.43-.2 2.47c2.33.26 6.3-.05 8-.24v-.56c-.1 0-.57-.02-1.6 0-1.3.03-1.89-.35-2.74-.86-.85-.5-1.8-1.1-2.13-1.1-.26 0-1 .2-1.32.29z" fill="#82531d"/><path d="m10.1 11.18c-.9-.18-1.1-1.16-1.1-1.63a6.76 6.76 0 0 1 3.53.73l.14.9h-2.58z" fill="#766656"/><path d="m5.6 8.75.17-1.03c.5.3 2.2.68 2.9.83v.69c-.3.02-1.12.06-1.55 0a8.69 8.69 0 0 1 -1.52-.49z" fill="#ceac7c"/><path d="m9 9.22v-.63a14.3 14.3 0 0 1 3.26-.07l.17 1.3a8.2 8.2 0 0 0 -3.43-.6z" fill="#cdab7b"/></svg>