<svg height="18" viewBox="0 0 18 18" width="18" xmlns="http://www.w3.org/2000/svg" xmlns:xlink="http://www.w3.org/1999/xlink"><linearGradient id="a" gradientUnits="userSpaceOnUse" x1="15.07" x2="3.34" y1="9.17" y2="9.17"><stop offset="0" stop-color="#56ad3b"/><stop offset="1" stop-color="#1d9890"/></linearGradient><linearGradient id="b" gradientUnits="userSpaceOnUse" x1="13.11" x2="9.03" y1="10.22" y2="10.22"><stop offset=".35" stop-color="#3b8f5c"/><stop offset="1" stop-color="#238951"/></linearGradient><path d="m0 0h18v18h-18z" fill="#f0f3fa"/><path d="m3.36 13a.35.35 0 0 1 -.35-.41l1.33-7.3a.35.35 0 0 1 .35-.29h4.45c.12 0 .2.11.17.22l-.39 1.53a.35.35 0 0 1 -.34.25h-2.3l-.26 1h6.38c.75 0 1-1.26.17-1.26h-1.19l-.22 1.03-.04.22a6.19 6.19 0 0 1 -1.74-.34l.5-2.5a.18.18 0 0 1 .17-.15h3.04c1.46 0 2.1 1.32 1.87 2.56-.19 1-.78 2.02-1.75 2.33l.9 2.83a.16.16 0 0 1 -.11.2 3.36 3.36 0 0 1 -1.61-.02.17.17 0 0 1 -.11-.11l-.88-2.79h-.61l-.54 2.8a.16.16 0 0 1 -.1.12c-.13.05-.42.08-.77.08s-.65-.01-.82-.06a.16.16 0 0 1 -.1-.19l.51-2.75h-3.27l-.25 1h2.63c.12 0 .2.11.17.22l-.4 1.53a.35.35 0 0 1 -.33.25z" fill="url(#a)"/><path d="m9 10-.55 2.75c-.01.08.03.16.11.19.17.05.47.06.82.06s.64-.03.77-.08a.16.16 0 0 0 .1-.12l.56-2.8z" fill="url(#b)"/></svg>