<svg height="18" viewBox="0 0 18 18" width="18" xmlns="http://www.w3.org/2000/svg" xmlns:xlink="http://www.w3.org/1999/xlink"><linearGradient id="a" gradientUnits="userSpaceOnUse" x1="5.16" x2="13.38" y1="11.83" y2=".35"><stop offset="0" stop-color="#777575"/><stop offset="1" stop-color="#777575" stop-opacity="0"/></linearGradient><linearGradient id="b" gradientUnits="userSpaceOnUse" x1="7.61" x2="15.37" y1="13.47" y2="7.87"><stop offset=".31" stop-color="#006eb5"/><stop offset="1" stop-color="#006eb5" stop-opacity="0"/></linearGradient><path d="m0 0h18v18h-18z" fill="#f0f3fa"/><path d="m9.04 3c-3.16 2.47-4.68 7.07-5.04 9.06l1.25.37a15.5 15.5 0 0 1 5.55-7.6 24.2 24.2 0 0 0 -1.76-1.83z" fill="url(#a)"/><path d="m6.16 12.9 1.04.6c.95-1.3 3.42-4.17 5.65-5.28a6.57 6.57 0 0 0 -1.2-2.21c-1.33.93-4.3 3.6-5.5 6.9zm1.9 1.22 1.04.88c.9-.79 3.12-2.49 4.91-3.01a9.73 9.73 0 0 0 -.61-2.4 16.27 16.27 0 0 0 -5.33 4.53z" fill="url(#b)"/></svg>