<svg height="18" viewBox="0 0 18 18" width="18" xmlns="http://www.w3.org/2000/svg" xmlns:xlink="http://www.w3.org/1999/xlink"><linearGradient id="a" gradientUnits="userSpaceOnUse" x1="6.2" x2="14.8" y1="4.19" y2="9.36"><stop offset="0" stop-color="#4b95d2"/><stop offset="1" stop-color="#073c88"/></linearGradient><linearGradient id="b" gradientUnits="userSpaceOnUse" x1="3.8" x2="11.51" y1="8.28" y2="14.31"><stop offset="0" stop-color="#286eb6"/><stop offset="1" stop-color="#143673"/></linearGradient><linearGradient id="c" gradientUnits="userSpaceOnUse" x1="4.52" x2="13.21" y1="6.44" y2="12.03"><stop offset="0" stop-color="#ff7663"/><stop offset=".47" stop-color="#ed382f"/><stop offset="1" stop-color="#b50601"/></linearGradient><path d="m0 0h18v18h-18z" fill="#f0f3fa"/><path d="m12.32 4h-6.12l-.58.96 3.48 1.9c.5.28 1.15-.05 1.59-.27.07.5-.07 1.13.42 1.42l3.32 1.92.57-1.15z" fill="url(#a)"/><path d="m3.58 7.7-.58 1.15 2.98 5.15h6.17l.6-1.14-3.6-1.8c-.08-.05-.17-.08-.25-.14-.28-.23-.28-.85-.28-1.18-.37.19-1.12.37-1.43.21l-3.59-2.25z" fill="url(#b)"/><path d="m4.92 5.85-.8 1.18 3.53 2.02c.42.24 1.16 0 1.54-.24 0 .38-.02.87.37 1.12l3.8 2.03.52-1-3.28-1.76c-.5-.3-.59-.99-.66-1.49-.53.13-1.36.32-1.88 0z" fill="url(#c)"/></svg>