<svg height="18" width="18" xmlns="http://www.w3.org/2000/svg"><path d="m0 0h18v18h-18z" fill="#ff6601"/><path d="m12.97 9h-4.6c-.22 0-.31.16-.31.33 0 1.03.95 2.04 2.24 2.04.69 0 1.44-.22 2-.6.23-.16.4-.24.54-.24.43 0 .74.58.74.96 0 .47-.28.91-.88 1.35a5.76 5.76 0 0 1 -3.58 1.16 5.1 5.1 0 0 1 -3.44-1.2 5 5 0 0 1 1.5-8.38 5.42 5.42 0 0 1 2.15-.42c1.24 0 2.29.34 3.17 1.05.84.66 1.5 1.76 1.5 2.85 0 .58-.31 1.1-1.03 1.1zm-4.27-1.5h1c.41 0 .62-.19.62-.57 0-.34-.1-.64-.3-.85a1 1 0 0 0 -.8-.33c-.36 0-.65.15-.86.44-.19.27-.28.53-.28.82 0 .19.03.32.13.42.1.04.25.07.5.07z" fill="#fff"/></svg>