<svg height="18" viewBox="0 0 18 18" width="18" xmlns="http://www.w3.org/2000/svg"><path d="m0 0h18v18h-18z" fill="#f0f3fa"/><path d="m9.52 8.32.07-.06.09-.09.74-.63 1.58-1.37a.67.67 0 0 1 .48-.17 55.68 55.68 0 0 0 1.3 0c.05 0 .1.03.14.05l.07.02a.77.77 0 0 0 -.03.06.35.35 0 0 1 -.07.11l-.39.33-1.94 1.68c-.41.34-.92.36-1.44.25a3.4 3.4 0 0 1 -.4-.11zm-4.62 3.68h-.7c-.05 0-.09-.02-.13-.03l-.07-.02.03-.06c.02-.04.03-.08.06-.11l2.31-2 .3-.25.23-.2.19-.16c.17-.16.18-.16 0-.32l-.71-.61-2.25-1.95a.68.68 0 0 1 -.11-.15 1.55 1.55 0 0 0 -.05-.06l.1-.03a.73.73 0 0 1 .2-.05h1.23c.18 0 .32.05.45.16l.37.33 2.31 1.99c.4.33.4.73 0 1.06-.75.63-1.49 1.27-2.23 1.92l-.44.38a.56.56 0 0 1 -.42.16zm6.27-2.47a2.26 2.26 0 0 0 -1.62.15v.03l.02.02.1.09 2.4 2.07c.05.05.14.1.2.11h1.61c.13 0 .15-.07.08-.16l-.07-.07-.02-.02-.55-.48-1.75-1.51c-.12-.1-.26-.18-.4-.23z" fill="#ff5c35"/></svg>