<svg height="18" viewBox="0 0 18 18" width="18" xmlns="http://www.w3.org/2000/svg"><path d="m0 0h18v18h-18z" fill="#f0f3fa"/><path d="m11.53 4.62a4.51 4.51 0 0 0 -5.53 4.38 4.5 4.5 0 0 0 5.53 4.38c-.73.4-1.56.62-2.45.62a5.04 5.04 0 0 1 -5.08-5c0-2.76 2.27-5 5.08-5 .89 0 1.72.22 2.45.62z" fill="#ef9944"/><path d="m8.9 9.44h4.04c.21-1.15 0-3.44-2.58-3.44-.95.02-2.86.66-2.86 3.03-.06 1 .43 2.97 2.86 2.97 1.17 0 1.83-.44 2.01-.66l-.58-.92c-.11.14-.54.44-1.34.44-1.02 0-1.55-.8-1.55-1.42zm.11-1.02h2.68c-.04-.42-.34-1.26-1.24-1.26-1.13 0-1.38.84-1.45 1.26z" fill="#191411" fill-rule="evenodd"/></svg>