<svg height="18" viewBox="0 0 18 18" width="18" xmlns="http://www.w3.org/2000/svg" xmlns:xlink="http://www.w3.org/1999/xlink"><linearGradient id="a" gradientUnits="userSpaceOnUse" x1="14" x2="6.01" y1="6" y2="14.65"><stop offset="0" stop-color="#1c2e5c"/><stop offset=".44" stop-color="#205486"/><stop offset="1" stop-color="#1872b0"/></linearGradient><path d="m0 0h18v18h-18z" fill="#f0f3fa"/><path d="m13.68 12.45a.65.65 0 0 0 -.78.07c-1.01.91-2.4 1.48-3.95 1.48a5.84 5.84 0 0 1 -3.95-1.49c-.23-.2-.6-.23-.84-.02-.2.18-.22.47-.02.65a7 7 0 0 0 4.81 1.86 7 7 0 0 0 4.81-1.85c.22-.2.17-.53-.08-.7z" fill="url(#a)"/><path d="m4.25 5.43c.23.2.6.19.84-.02 1-.87 2.36-1.41 3.86-1.41 1.6 0 3.03.6 4.04 1.57.18.17.47.23.7.13.32-.15.42-.51.18-.74a6.98 6.98 0 0 0 -4.92-1.96c-1.84 0-3.5.68-4.71 1.77-.2.18-.2.48.01.66z" fill="url(#a)"/><g fill="#19374f"><path d="m11 7-.5 1h-2.5c-.24 0-.93.13-.93 1s.7 1 .93 1h2.5l.5 1h-3c-.6 0-2-.25-2-2s1.19-2 1.79-2z"/><path d="m8 9c0-.28.2-.5.43-.5h1.14c.24 0 .43.22.43.5s-.2.5-.43.5h-1.14c-.24 0-.43-.22-.43-.5z"/></g></svg>