<svg height="18" viewBox="0 0 18 18" width="18" xmlns="http://www.w3.org/2000/svg"><path d="m0 0h18v18h-18z" fill="#f0f3fa"/><path d="m11.85 4.67h-2.85v.33h2.85z" fill="#5bb9bf"/><path d="m9.04 4.67h-2.16v.33h2.16z" fill="#0c3247"/><path d="m7 6a1 1 0 1 0 0-2 1 1 0 0 0 0 2z" fill="#0c3247"/><path d="m11 6a1 1 0 1 0 0-2 1 1 0 0 0 0 2zm3.3 2.67h-5.3v.33h5.3z" fill="#5bb9bf"/><path d="m9 8.67h-4.94v.33h4.94z" fill="#0c3247"/><path d="m4 10a1 1 0 1 0 0-2 1 1 0 0 0 0 2z" fill="#0c3247"/><path d="m14 10a1 1 0 1 0 0-2 1 1 0 0 0 0 2zm-.29-3.33h-4.71v.33h4.71z" fill="#5bb9bf"/><path d="m9 6.67h-4.09v.33h4.1v-.33z" fill="#0c3247"/><path d="m5 8a1 1 0 1 0 0-2 1 1 0 0 0 0 2z" fill="#0c3247"/><path d="m13 8a1 1 0 1 0 0-2 1 1 0 0 0 0 2zm-1.18 5h-2.82v.33h2.82z" fill="#5bb9bf"/><path d="m9 13h-2.12v.33h2.12z" fill="#0c3247"/><path d="m7 14a1 1 0 1 0 0-2 1 1 0 0 0 0 2z" fill="#0c3247"/><path d="m11 14a1 1 0 1 0 0-2 1 1 0 0 0 0 2zm2.59-3h-4.59v.33h4.59z" fill="#5bb9bf"/><path d="m9 11h-4.24v.33h4.24z" fill="#0c3247"/><path d="m5 12a1 1 0 1 0 0-2 1 1 0 0 0 0 2z" fill="#0c3247"/><path d="m13 12a1 1 0 1 0 0-2 1 1 0 0 0 0 2z" fill="#5bb9bf"/></svg>