<svg height="18" viewBox="0 0 18 18" width="18" xmlns="http://www.w3.org/2000/svg"><path d="m0 0h18v18h-18z" fill="#6c2d66"/><g fill="#fff"><path d="m5 8.84v-.18c1.4.36 4.1 1.04 4.15 1.04.07 0 .35-.04.35-.32 0-.23-.22-.37-.33-.41l-4.17-.94v-.16l5-.87 3.72.7c.1.04.28.19.28.5 0 .3-.23.49-.35.54l-4.33 1.26z"/><path d="m3 6.84c.45 1.69.62 4.71.65 6.11.02.02.06.05.11.05.04 0 .07-.01.11-.05.51-.83.47-2.06.46-3.17l-.01-2.58c1.2-.25 3.72-1.54 4.83-2.2 1.7.72 5.16 2.07 5.36 2.07s.4-.22.49-.32l-5.85-2.75c-1.67.76-5.25 2.4-6.15 2.84z"/><path d="m9.45 10.3-4.45-1.2v.69l4.45 1.21 4.55-1.3v-.7z"/><path d="m5 10.1 4.37 1.46 4.4-1.56c.1.07.23.23.23.53 0 .36-.23.57-.35.63l-4.33 1.84-4.32-1.8v-.2c1.04.3 2.78 1.08 3.62 1.45l.5.22c.07 0 .35-.05.35-.38 0-.26-.22-.41-.33-.46l-4.14-1.55v-.19z"/></g></svg>