<svg height="18" viewBox="0 0 18 18" width="18" xmlns="http://www.w3.org/2000/svg" xmlns:xlink="http://www.w3.org/1999/xlink"><linearGradient id="a"><stop offset=".73" stop-color="#ffd00a"/><stop offset="1" stop-color="#feb405"/></linearGradient><linearGradient id="b" gradientUnits="userSpaceOnUse" x1="10.26" x2="11.89" xlink:href="#a" y1="13.49" y2="11.23"/><linearGradient id="c" gradientUnits="userSpaceOnUse" x1="7.74" x2="6.11" xlink:href="#a" y1="4.51" y2="6.77"/><linearGradient id="d" gradientUnits="userSpaceOnUse" x1="9.57" x2="13.28" y1="2.15" y2="6.93"><stop offset=".72" stop-color="#feb81c"/><stop offset=".86" stop-color="#ff950f"/></linearGradient><linearGradient id="e" gradientUnits="userSpaceOnUse" x1="8.43" x2="4.43" y1="15.85" y2="11.33"><stop offset=".67" stop-color="#feb81c"/><stop offset=".86" stop-color="#ff950f"/></linearGradient><linearGradient id="f" gradientUnits="userSpaceOnUse" x1="9.28" x2="12.4" y1="14.23" y2="7.28"><stop offset=".39" stop-color="#ffd100"/><stop offset=".48" stop-color="#fdb600"/><stop offset=".72" stop-color="#fdb900"/><stop offset=".79" stop-color="#ffcf01"/></linearGradient><path d="m0 0h18v18h-18z" fill="#f0f3fa"/><path d="m9 14.1 4-2.1v-1.8l-4.15 2.25z" fill="url(#b)"/><path d="m9 3.9-4 2.1v2l4.28-2.4z" fill="url(#c)"/><path d="m8 3 5 3v2l-5-3.16z" fill="url(#d)"/><path d="m10 15-5-3v-2l5 3z" fill="url(#e)"/><path d="m5 12 8-4v-2l-8 4z" fill="url(#f)"/><path d="m5 6 8 4.22v1.78l-8-4z" fill="#ffb81c"/></svg>