<svg height="18" width="18" xmlns="http://www.w3.org/2000/svg"><path d="m0 0h18v18h-18z" fill="#093254"/><path d="m11.54 3v2.53l-2.32.96.12-1.23zm-1.88 2.38-.07.64 1.62-.67v-1.59l-1.54 1.62zm-3.19-2.38 1.81 1.84-1.05 2.28-.76-.95zm.31 3.02.38.53.74-1.64-1.12-1.13zm4.75 8.98-1.77-1.86 1.08-2.22.7.95v3.13zm-.31-3-.32-.46-.76 1.57 1.08 1.14zm-5.67-5.2h-2.55l2.23 2.23 1.27.12zm.48 2.01-.67-.1-1.62-1.58h1.6zm8.97 2.75h-2.55l-.95-2.36 1.27.13zm-2.36-1.9-.68-.1.7 1.68h1.6l-1.62-1.57zm-7.8.14-1.84 1.76h3.18l.95-.73-2.28-1.03zm1.68 1.11-.45.33h-2.3l1.14-1.07zm-.05 1.54v2.55l2.21-2.24.13-1.2zm1.97-.45-.06.64-1.6 1.62v-1.6zm6.56-5.5-1.84 1.9-2.3-1.11.96-.8h3.18zm-3.05.31-.5.44 1.63.7 1.13-1.14zm-2.95 3.69c.82 0 1.5-.68 1.5-1.5s-.68-1.5-1.5-1.5-1.5.68-1.5 1.5.68 1.5 1.5 1.5z" fill="#fff"/></svg>