<svg height="18" viewBox="0 0 18 18" width="18" xmlns="http://www.w3.org/2000/svg"><path d="m0 0h18v18h-18z" fill="#f0f3fa"/><g fill="#d00000"><path d="m14.29 4.36h-10.59c-.2 0-.35.16-.35.35v8.58c0 .2.16.35.35.35h10.6c.2 0 .35-.16.35-.35v-8.59c0-.2-.16-.35-.35-.35zm-10.59-.36c-.39 0-.7.32-.7.71v8.58c0 .39.31.71.7.71h10.6c.39 0 .7-.32.7-.71v-8.59c0-.39-.31-.71-.7-.71h-10.6z" fill-rule="evenodd"/><path d="m4 5.73v6.72c0 .3.24.55.54.55h.87c.3 0 .59-.24.59-.55v-5.45h.96c.2 0 .37.15.37.35v1.2c0 .2-.17.45-.37.45h-.36c-.2 0-.26.08-.26.28v.33c0 .2.06.39.26.39h.29l.56 2.46c.09.32.37.54.7.54h5.14c.4 0 .72-.33.72-.73v-3.46c0-.4-.32-.81-.72-.81h-.91c-.2 0-.37-.09-.37-.29v-.36c0-.2.17-.35.37-.35h1.27c.2 0 .36-.18.36-.38v-.89c0-.4-.32-.73-.72-.73h-2.64c-.4 0-.64.33-.64.73v3.55c0 .4.25.72.64.72h.97c.2 0 .4.17.4.37v.32c0 .2-.2.31-.4.31h-2.43l-.43-1.1a.35.35 0 0 0 -.33-.23h-.43v-.34h.3c.4 0 .7-.32.7-.72v-2.88c0-.4-.3-.73-.7-.73h-3.57c-.4 0-.72.33-.72.73z"/></g></svg>