<svg height="18" viewBox="0 0 18 18" width="18" xmlns="http://www.w3.org/2000/svg"><path d="m0 0h18v18h-18z" fill="#00b5df"/><path d="m4.88 4.17a.5.5 0 0 0 -.75.66l3.24 3.77c.09.09.13.2.13.33v5.58a.5.5 0 0 0 1 0v-5.59c0-.37-.13-.72-.38-1zm7.3.3a1 1 0 0 1 1.82.56v2.19c0 .35-.12.68-.34.95l-1.73 2.1a.5.5 0 0 1 -.77-.63l1.73-2.1a.5.5 0 0 0 .11-.32v-2.2l-2.41 3.58a.5.5 0 0 0 -.09.28v5.63a.5.5 0 0 1 -1 0v-5.64c0-.3.09-.6.26-.85l2.41-3.55zm-8 2.73a.5.5 0 0 1 .7.05l2 2.32a.5.5 0 0 1 -.75.66l-2-2.33a.5.5 0 0 1 .04-.7zm.7 2.98a.5.5 0 0 0 -.76.66l2 2.32a.5.5 0 0 0 .77-.65z" fill="#fff"/></svg>