<svg height="18" viewBox="0 0 18 18" width="18" xmlns="http://www.w3.org/2000/svg"><path d="m0 0h18v18h-18z" fill="#f0f3fa"/><path d="m7.75 5-.8 1.34h2.85l.12-.34h4.42l.66-1z" fill="#74cee2"/><path d="m12 7.77h-3.05l-.13.23h-2.83l-.93 1.57h2.84l.13-.26h3.03zm-5.23 3.69-.17.54h-2.85l-.75 1h7.25l.56-.93.31-.5.06-.1h-4.41z" fill="#8bb836"/><g fill-opacity=".6"><path d="m6.84 6.58-.7 1.17h2.86l.14-.21h4.35l.75-1.23h-4.42l-.17.27z" fill="#74cee2"/><path d="m4.94 9.78-1.01 1.7h2.85l.13-.27h4.4l.97-1.64h-4.41l-.16.21z" fill="#8bb836"/></g></svg>