<svg height="18" viewBox="0 0 18 18" width="18" xmlns="http://www.w3.org/2000/svg" xmlns:xlink="http://www.w3.org/1999/xlink"><linearGradient id="a" gradientUnits="userSpaceOnUse" x1="10.21" x2="13.35" y1="7.9" y2="11.85"><stop offset="0" stop-color="#fdde9e"/><stop offset="1" stop-color="#7625eb"/></linearGradient><linearGradient id="b" gradientUnits="userSpaceOnUse" x1="5.35" x2="12.14" y1="13.21" y2="7.83"><stop offset="0" stop-color="#aa7132"/><stop offset=".74" stop-color="#af3c59"/><stop offset=".87" stop-color="#903aa1"/><stop offset=".99" stop-color="#fabb9c" stop-opacity="0"/></linearGradient><linearGradient id="c" gradientUnits="userSpaceOnUse" x1="3.97" x2="10.71" y1="8.54" y2="7.94"><stop offset="0" stop-color="#ffb90b"/><stop offset=".57" stop-color="#ffc545"/><stop offset="1" stop-color="#ff8d04"/></linearGradient><linearGradient id="d" gradientUnits="userSpaceOnUse" x1="3.12" x2="10.37" y1="9.18" y2="9.24"><stop offset="0" stop-color="#fdbd20"/><stop offset=".38" stop-color="#ffdd96"/><stop offset=".98" stop-color="#f7a786"/></linearGradient><linearGradient id="e" gradientUnits="userSpaceOnUse" x1="9.39" x2="12.03" y1="9.56" y2="7.61"><stop offset="0" stop-color="#ffefc9"/><stop offset="1" stop-color="#ffefc9" stop-opacity="0"/></linearGradient><linearGradient id="f" gradientUnits="userSpaceOnUse" x1="9.18" x2="13.62" y1="8.58" y2="4.89"><stop offset="0" stop-color="#ffc555"/><stop offset="1" stop-color="#ca6165"/></linearGradient><linearGradient id="g" gradientUnits="userSpaceOnUse" x1="9.5" x2="12.53" y1="7.96" y2="3.27"><stop offset="0" stop-color="#efc373"/><stop offset="1" stop-color="#ad4158"/></linearGradient><linearGradient id="h" gradientUnits="userSpaceOnUse" x1="12.26" x2="13.77" y1="7.43" y2="9.41"><stop offset="0" stop-color="#9640aa"/><stop offset="1" stop-color="#efa697" stop-opacity="0"/></linearGradient><path d="m0 0h18v18h-18z" fill="#f0f3fa"/><path d="m3 8.53c0-1.27.46-1.6.7-1.6.86 0 1.51 2.72 3.06 2.72s3.12-2.42 3.57-3.43c.47-1 1.39-2.22 2.37-2.22s2.3 1.6 2.3 3.9-1.65 6.07-6.1 6.07a5.76 5.76 0 0 1 -5.9-5.44z" fill="url(#a)"/><path d="m9.2 10.28c-.64.2-2.02.58-2.63.75-.06.12-.17.39-.15.53.02.18.15.21.98.34.84.13.55-.16 1.44-.34s1.68-1.33 1.7-1.64c.03-.3-.54.1-1.34.36z" fill="#ffb321"/><path d="m9.64 13.96c-.24.03-.48.04-.74.04a5.7 5.7 0 0 1 -5.68-4.17 4.6 4.6 0 0 0 3.8 2.44 4.37 4.37 0 0 0 4.51-2.7c.02-.06.01-.25 0-.5-.04-.77-.12-2.1.54-2 .88.15 1.88 1.46 1.63 3-.2 1.24-2 3-4.06 3.9z" fill="url(#b)"/><path d="m3.34 7.14c.13-.15.26-.2.35-.2.06 0 .12 0 .18.03a3.75 3.75 0 0 0 2.25 4.12l.47.19c.56.22.61.24.44.25-.22 0-2.02-.18-2.85-1.57a7.84 7.84 0 0 1 -.84-2.82z" fill="#fff311"/><path d="m3.88 6.98c.3.13.58.55.9 1.02.5.76 1.1 1.65 1.98 1.65.65 0 1.31-.43 1.89-1 .06.1.1.23.11.34.01.07-.28.3-.58.53-.43.35-.9.7-.5.65.33-.04.91-.43 1.52-.83.64-.44 1.32-.9 1.74-.96.82-.14.94.76.6 1.66-.33.9-3.19 1.84-3.77 1.69-.32-.1.32-.45.95-.8.49-.27.97-.54.98-.67.02-.3-.55.04-.76.18-.2.14-1.62 1.03-2.8.67a3.68 3.68 0 0 1 -2.24-2.55c-.23-.93-.07-1.42-.01-1.58z" fill="url(#c)"/><path d="m3.4 7.07c-.2.2-.4.62-.4 1.46 0 .3.05.7.18 1.14.22.54.55 1.09 1.05 1.55 1.7 1.6 4.56 1.18 5.1.98s1.91-1.21 1.61-1.36c-.1-.05-.23.03-.45.16-.44.26-1.22.73-2.72.7-2.23-.03-3.34-1.23-3.83-2.27a7.78 7.78 0 0 1 -.54-2.36z" fill="url(#d)"/><path d="m10.5 8.05-1.55 1.4c.47-.3 1.9-1.1 2.42-1.07.53.03.93 1.13 1.2.67.28-.46-.32-1.65-.77-1.79-.45-.13-.81.35-1.3.79z" fill="url(#e)"/><path d="m8.33 9.37c.44-.35 1.52-1.28 2.34-2.2 1.02-1.13 1.95-1.82 2.6-1.75.64.07 1.37 1.03 1.5 1.94.06.48.13.9.19 1.2.03-.22.04-.45.04-.66 0-2.3-1.32-3.9-2.3-3.9s-1.91 1.22-2.37 2.22a8.61 8.61 0 0 1 -2.11 2.81l.1.34z" fill="url(#f)"/><path d="m8.56 8.91c.41-.44 1.36-1.54 1.89-2.47.66-1.15 1.64-2.26 2.41-2.18.62.07.96.88 1.05 1.27.16.05.49.19.73.4-.46-1.2-1.28-1.93-1.94-1.93-.98 0-1.91 1.22-2.37 2.22a8.97 8.97 0 0 1 -1.83 2.58l.07.12z" fill="url(#g)"/><path d="m14.1 9.52c-.1.7-.21.73-.38.75 0-1.51-1.21-3.1-1.32-3.32-.11-.23.32-.8.62-.8.3-.02.92.6 1.09 1.02.16.43.1 1.64 0 2.35z" fill="#ffd7dd"/><path d="m12.76 7.48c-.34-.27-.84-.33-.92-.3-.23.17.45 1.3 1.03 2.22.57.92.62 1.19.83.92s.08-.3 0-.71c-.07-.41-.6-1.86-.94-2.13z" fill="url(#h)"/></svg>