<svg height="18" viewBox="0 0 18 18" width="18" xmlns="http://www.w3.org/2000/svg"><path d="m0 0h18v18h-18z" fill="#f0f3fa"/><path d="m5 7.5v2l1.5-1v-2zm3 0v2l1.5-1v-2zm1.5 3v2l-1.5-.9v-2.1zm0-6v2l1.5-1.04v-1.96z" fill="#1a1955"/><path d="m8 7.5v2l-1.5-1v-2z" fill="#6f319c"/><path d="m14 7.5v2l-1.5-1v-2z" fill="#2a6eb9"/><path d="m9.5 8.5-1.5 1.01 1.5.99 1.5-.99z" fill="#44c9f4"/><path d="m8 11.5-1.5 1.01 1.5.99 1.5-1zm-2.97 0-1.53 1.01 1.53.99 1.47-.99z" fill="#942d98"/><path d="m12.5 8.5-1.5 1.01 1.5.99 1.5-.99z" fill="#44c9f4"/></svg>