<svg height="18" width="18" xmlns="http://www.w3.org/2000/svg"><path d="m0 0h18v18h-18z" fill="#a0acbc"/><path d="m8.816 3c-.024.098.198.344.198.344l3.853 4.531s.148.172.124.221l-.498.892-.182.087-4.026-4.783s-.12-.123-.072-.196c.007-.01.603-1.096.603-1.096zm-.783 1.518c-.023.098.199.344.199.344l3.853 4.531s.148.173.124.222l-.485.871-.188.116-4.034-4.792s-.12-.123-.071-.196zm-.729 1.546 4.015 4.719s.149.172.125.22l-.51.918-.156.08-4.041-4.802s-.129-.135-.08-.208l.466-.84c.06-.108.18-.087.18-.087zm-.902 1.416c-.024.097.273.198.273.198l3.853 4.531s.149.172.124.221l-.627 1.162c-.008-.122-.243-.408-.243-.408l-3.836-4.558s-.12-.124-.072-.196c.007-.01.528-.95.528-.95zm-.852 1.4c-.023.098.262.192.262.192l3.854 4.531s.148.172.124.221c0 0-.643 1.188-.642 1.176.013-.157-.18-.364-.18-.364l-3.884-4.616s-.12-.124-.072-.197c.007-.01.54-.943.54-.943z" fill="#fff"/><path d="m7.502 5.961 4.998 2.009s.467.2.5.115l-.508.903c-.102.181-.322.108-.322.108l-5.203-2.076s-.273-.119-.329-.014c0 0 .314-.599.528-.955.105-.176.337-.09.337-.09zm-.776 1.453 4.994 2.076s.467.2.5.115l-.508.903c-.101.181-.322.108-.322.108l-5.199-2.143s-.274-.12-.33-.014c0 0 .315-.6.528-.956.106-.176.337-.09.337-.09zm-.853 1.371 5.078 2.103s.466.2.499.114l-.508.904c-.1.18-.321.108-.321.108l-5.284-2.17s-.273-.12-.329-.014c0 0 .314-.6.528-.956.105-.176.337-.09.337-.09z" fill="#184680"/></svg>