<svg height="18" viewBox="0 0 18 18" width="18" xmlns="http://www.w3.org/2000/svg"><path d="m0 0h18v18h-18z" fill="#f0f3fa"/><g fill-rule="evenodd"><path d="m9 14a5 5 0 1 0 0-10 5 5 0 0 0 0 10zm-.63-.63a3.75 3.75 0 1 0 0-7.5 3.75 3.75 0 0 0 0 7.5z" fill="#6285c5"/><path d="m8.38 13.06a3.44 3.44 0 1 0 0-6.87 3.44 3.44 0 0 0 0 6.87zm-.16-.62a2.66 2.66 0 1 0 0-5.31 2.66 2.66 0 0 0 0 5.3z" fill="#1e58aa"/><path d="m8.06 12.13a2.19 2.19 0 1 0 0-4.38 2.19 2.19 0 0 0 0 4.38zm-.47-.32a1.4 1.4 0 1 0 .01-2.81 1.4 1.4 0 0 0 0 2.81z" fill="#231f20"/></g></svg>