<svg height="18" viewBox="0 0 18 18" width="18" xmlns="http://www.w3.org/2000/svg"><path d="m0 0h18v18h-18z" fill="#f0f3fa"/><path d="m8.92 4h.15c.13 0 .23.02.3.04l4.33 1.1c.11.03.21.08.27.18.03.06.03.23.03.3l-4.68 1.2v6.56l4.68-1.2v.36c0 .05 0 .08-.02.1-.03.11-.14.18-.25.21l-4.33 1.1c-.1.03-.2.05-.33.05h-.15c-.13 0-.22-.02-.27-.03l-4.35-1.11c-.15-.04-.28-.1-.3-.26v-7.2c.03-.17.17-.23.33-.27l4.3-1.1c.07-.01.17-.03.3-.03zm-3.36 1.42 3.43.88h.01l3.43-.88c.01 0 .01 0 0 0l-3.43-.89h-.02a11807.9 11807.9 0 0 0 -3.43.88zm3.13 1.4-4.06-1.04v1.8l4.05 1.04v-1.8zm-4.06 3.14 4.05 1.04v-1.78l-4.04-1.04v1.78zm0 2.38 4.05 1.04v-1.78l-4.05-1.03z" fill="#003142"/><path d="m14 5.62v1.8l-2.5.62v.58l2.5-.6v1.79l-2.5.62v.57l2.5-.6v1.79l-4.68 1.19v-6.58z" fill="#00d0ce"/><path d="m14 7.43v.6l-2.5.6v-.6zm0 2.37v.6l-2.49.6h-.01v-.57l.01-.02z" fill="#003142"/></svg>