<svg height="18" viewBox="0 0 18 18" width="18" xmlns="http://www.w3.org/2000/svg"><path d="m0 0h18v18h-18z" fill="#f0f3fa"/><path d="m7.33 11.67c-.27 0-.52-.06-.72-.25-.19-.19-.26-.45-.28-.72v-1.13h5.22c.22 0 .45-.2.45-.43v-.42c0-.22-.23-.42-.45-.42h-5.22v-1.97h6.09c.22 0 .42-.19.42-.42v-.48a.44.44 0 0 0 -.12-.3.42.42 0 0 0 -.3-.13h-6.96a.46.46 0 0 0 -.33.14.48.48 0 0 0 -.13.33v5.18c0 .62.24 1.22.67 1.66s1.01.69 1.62.69h5.3a.4.4 0 0 0 .29-.12.43.43 0 0 0 .12-.3v-.43a.43.43 0 0 0 -.12-.3c-.08-.08-.18-.18-.29-.18" fill="#005e72"/></svg>