<svg height="18" viewBox="0 0 18 18" width="18" xmlns="http://www.w3.org/2000/svg"><path d="m0 0h18v18h-18z" fill="#f0f3fa"/><path d="m9 3c.16 0 .3.54.3 1.21s-.14 1.21-.3 1.21-.3-.54-.3-1.2c0-.69.15-1.22.3-1.22zm-1.23 2.63c-.15.06-.46-.4-.7-1.04-.22-.63-.29-1.18-.13-1.23.15-.06.46.4.69 1.04.23.63.3 1.18.14 1.23zm-1.1.63c-.13.1-.58-.23-1.02-.74-.43-.52-.69-1.02-.55-1.12.12-.1.58.23 1.01.75.44.5.7 1 .57 1.1zm-.81.95c-.08.14-.62-.02-1.21-.36-.59-.33-1-.72-.92-.85.08-.14.62.02 1.21.35.59.34 1 .72.92.86zm-.44 1.18c-.02.16-.59.2-1.26.08-.67-.11-1.19-.33-1.16-.49s.6-.2 1.26-.08c.67.12 1.2.33 1.16.5zm0 1.24c.04.15-.48.38-1.15.5-.67.11-1.23.08-1.26-.08-.03-.15.49-.38 1.16-.5.66-.11 1.23-.08 1.26.08zm.44 1.17c.08.13-.33.52-.91.85-.6.34-1.13.5-1.21.36-.09-.13.33-.52.91-.85.59-.34 1.13-.5 1.21-.36zm.8.94c.13.1-.12.6-.56 1.11s-.9.85-1.02.74c-.12-.1.13-.6.57-1.11s.9-.84 1.02-.74zm1.12.63c.15.05.09.6-.14 1.24-.23.63-.54 1.1-.69 1.04-.15-.05-.09-.6.14-1.24.23-.63.54-1.1.69-1.04zm1.22.2c.16 0 .3.55.3 1.22s-.14 1.21-.3 1.21-.3-.54-.3-1.21.14-1.21.3-1.21zm2.06 2.07c-.15.06-.46-.4-.69-1.04-.23-.63-.3-1.18-.14-1.23.15-.06.46.4.7 1.04.22.63.29 1.18.13 1.23zm1.85-1.04c-.12.1-.58-.23-1.01-.75-.44-.5-.7-1-.57-1.1.13-.11.58.22 1.02.73.43.52.69 1.01.56 1.12zm1.36-1.6c-.08.14-.62-.02-1.21-.35-.59-.34-1-.72-.92-.86s.62.02 1.21.36c.59.33 1 .72.92.85zm.73-1.98c-.03.16-.6.2-1.26.08-.67-.12-1.2-.33-1.16-.5.02-.15.59-.18 1.26-.07s1.19.33 1.16.49zm0-2.07c.02.15-.5.38-1.17.5-.66.11-1.23.08-1.26-.08-.03-.15.5-.38 1.16-.5.67-.11 1.23-.08 1.26.08zm-.74-1.96c.08.13-.32.52-.91.85-.59.34-1.13.5-1.21.36-.08-.13.33-.52.91-.85.6-.34 1.13-.5 1.21-.36zm-1.34-1.59c.12.1-.13.6-.57 1.11s-.9.84-1.02.74.13-.6.57-1.11.9-.85 1.02-.74zm-1.87-1.06c.15.05.09.6-.14 1.24-.23.63-.54 1.1-.69 1.04-.15-.05-.09-.6.14-1.24.23-.63.54-1.1.69-1.04z" fill="#14364a"/></svg>