<svg height="18" viewBox="0 0 18 18" width="18" xmlns="http://www.w3.org/2000/svg"><path d="m0 0h18v18h-18z" fill="#f0f3fa"/><path d="m15.99 8.63c-.03-.04-.1-.03-.2.03a18.87 18.87 0 0 1 -3.11 1.46c-.55.2-1.32.27-1.76.04-.37-.18-.8-.73-1.21-1.25l-.11-.14-.11-.14c-.36-.47-1.04-1.33-1.44-1.48-.55-.2-1.05-.1-2.09.39-.76.38-1.5.82-2.2 1.33-.86.61-1.64 1.28-1.72 1.4-.06.1-.04.16-.03.18.04.05.13.05.25-.02l.4-.24c.52-.31 1.17-.7 1.45-.84 1.04-.5 2.1-1 2.84-1.29 1.27-.48 1.6-.07 2.12.54l.24.27.35.46c.47.66 1.12 1.56 2.06 1.65l.42.02c.45 0 .83-.1 1.48-.33.83-.3 1.3-.65 1.5-.83.3-.3.59-.63.83-1 .05-.1.06-.17.04-.21z" fill="#a1c63c"/><path d="m9.46 7h.54v1.77l1.13-1.77h.55l-1.2 1.83 1.32 2.17h-.65l-1.15-1.94v1.94h-.55m-2.99 0h1.84v-.42h-1.3v-1.47h1.2v-.38h-1.2v-1.36h1.26v-.37h-1.8z" fill="#1a1a18"/></svg>