<svg fill="none" height="18" width="18" xmlns="http://www.w3.org/2000/svg"><path d="m0 0h18v18h-18z" fill="#f0f3fa"/><g clip-rule="evenodd" fill-rule="evenodd"><path d="m7 4h3.333s.667.489.667 1.583c0 1.095-.885 2.94-1.51 3.417.01 0 .163-.623.177-1.424.017-1.021-.434-2.303-2.667-3.576z" fill="#00abcc"/><path d="m13 14h-3.503s-2.497-2.262-2.497-3.977 1.88-3.023 2-3.023c0 0-.562.617-.5 1.826.06 1.183.948 2.9 4.5 5.174zm-4 0h-2.368s-.613-.72-.632-1.808c-.006-.33.316-.942.632-1.192.025 0-.424 1.716 2.368 3z" fill="#f36f20"/></g></svg>