<svg height="18" viewBox="0 0 18 18" width="18" xmlns="http://www.w3.org/2000/svg"><path d="m0 0h18v18h-18z" fill="#181b1e"/><g fill="#79c70d"><path d="m11.08 5.6c.77 1.16 1.93 1.74 1.92 3.32 0 .96-.39.8-.66 1.9-.22.93-.04.85-.7 1.43-.58.52-1.6.75-2.6.75a4.59 4.59 0 0 1 -2.53-.61 4.77 4.77 0 0 1 -1.51-3.53c.01-.18.05-.36.11-.52.84-2.08.53-2.34 2.81-3.12.44-.14.84-.22 1.23-.22.78 0 1.35.06 1.93.6zm-7.08 3.1c0 1.32.6 2.87 1.24 3.72.8 1.08 2.3 1.58 3.76 1.58 1.6 0 3.18-.6 3.78-1.69.33-.6.19-1.07.56-1.7.54-.92.65-.6.65-2.04 0-.53-.3-1.37-.51-1.75-.28-.51-.68-.8-1.07-1.19-1.07-1.07-2.04-1.62-3.2-1.63-.68 0-1.43.18-2.3.56-1.51.64-1.71 1.04-2.27 2.4-.17.44-.64 1.27-.64 1.74z"/><path d="m7.5 10a1.5 1.5 0 1 0 0-3 1.5 1.5 0 0 0 0 3zm0-1a.5.5 0 1 0 0-1 .5.5 0 0 0 0 1z" fill-rule="evenodd"/></g></svg>