<svg height="18" viewBox="0 0 18 18" width="18" xmlns="http://www.w3.org/2000/svg"><path d="m0 0h18v18h-18z" fill="#f0f3fa"/><path d="m14 8.95a4.84 4.84 0 0 0 -4.72-4.95c-1.24 0-2.4.57-3.27 1.45-.02.02 0 .06.02.04.6-.37 1.29-.54 2-.54a4 4 0 0 1 3.97 4c0 1.53-1.4 2.63-2.87 2.63-.39 0-.76-.09-1.1-.25-.03-.01 0 0-.03.04a3.9 3.9 0 0 0 2.54 1.16c1.88 0 3.44-1.6 3.46-3.59" fill="#231f20"/><path d="m4 9.04a4.85 4.85 0 0 0 4.72 4.96c1.24 0 2.4-.51 3.27-1.4.02-.01 0-.04-.02-.03-.6.37-1.3.55-2 .55a4 4 0 0 1 -3.97-3.94v-.08c-.03-1.6 1.46-2.72 2.9-2.7.38 0 .74.1 1.07.25.03.01 0 0 .03-.04a3.9 3.9 0 0 0 -2.54-1.16 3.57 3.57 0 0 0 -3.46 3.6" fill="#c8202f"/></svg>