<svg height="18" viewBox="0 0 18 18" width="18" xmlns="http://www.w3.org/2000/svg"><path d="m0 0h18v18h-18z" fill="#f0f3fa"/><path d="m8.47 8.77-4.86.82a.52.52 0 0 1 -.18-1.03l3.9-.68-1.25-1.34a.5.5 0 0 1 .71-.68l1.42 1.45 1.72-4a.5.5 0 0 1 .93.4l-2.01 4.76a.5.5 0 0 1 -.38.3zm1.3-.47 2-4.15a.52.52 0 0 1 .95.43l-1.72 3.42h2c.24 0 .44.19.49.43a.5.5 0 0 1 -.35.56.4.4 0 0 1 -.1.02l-1.93-.01 2.31 3.9a.5.5 0 0 1 -.85.56l-2.8-4.57c-.1-.15-.07-.44 0-.6zm1.86 5.9-2.65-4.24c-.08-.14-.27-.2-.43-.2h-.1l-4.68.9a1.03 1.03 0 0 1 -.14.02.5.5 0 0 0 -.02 1c.05.02.1 0 .15 0l4-.86-.79 1.86a.5.5 0 0 0 .9.4l.76-1.67 2.12 3.35a.52.52 0 0 0 .88-.56z" fill="#052b49"/></svg>