<svg height="18" viewBox="0 0 18 18" width="18" xmlns="http://www.w3.org/2000/svg"><path d="m0 0h18v18h-18z" fill="#f0f3fa"/><path d="m13 10.04c-.53.28-1.15.42-1.77.62-3.13.95-5.89.33-6.37-1.45-.38-1.43.78-3.1 2.92-4.21-2.71 1.06-4.48 3.1-4.03 4.77.5 1.82 3.42 2.52 6.55 1.57a9.56 9.56 0 0 0 2.7-1.3z" fill="#014c8d"/><path d="m11.56 13.5c2.7-1.96 4.07-4.16 3.16-5.39-1.13-1.5-5.31-.95-9.34 1.24a17.45 17.45 0 0 0 -3.38 2.36c.66-.5 1.39-.82 2.2-1.26 4.03-2.2 8.11-2.78 9.24-1.28.77 1.03.03 2.64-1.88 4.33z" fill="#7ac043"/></svg>