<svg height="18" viewBox="0 0 18 18" width="18" xmlns="http://www.w3.org/2000/svg" xmlns:xlink="http://www.w3.org/1999/xlink"><linearGradient id="a" gradientUnits="userSpaceOnUse" x1="3.5" x2="14.5" y1="9.43" y2="9.04"><stop offset="0" stop-color="#dbdbdb"/><stop offset=".23" stop-color="#938086"/><stop offset=".49" stop-color="#f8fcfb"/><stop offset=".76" stop-color="#a4a3a9"/><stop offset="1" stop-color="#e3e4de"/></linearGradient><linearGradient id="b" gradientUnits="userSpaceOnUse" x1="4.9" x2="13.41" y1="6.38" y2="10.38"><stop offset="0" stop-color="#0a2f63" stop-opacity="0"/><stop offset=".48" stop-color="#fff"/><stop offset="1" stop-color="#01295d" stop-opacity="0"/></linearGradient><path d="m0 0h18v18h-18z" fill="#f0f3fa"/><ellipse cx="9" cy="9" fill="#01295d" rx="6" ry="5"/><path d="m9 13.5c3.04 0 5.5-2.01 5.5-4.5s-2.46-4.5-5.5-4.5-5.5 2.01-5.5 4.5 2.46 4.5 5.5 4.5zm0-.3c2.88 0 5.21-1.88 5.21-4.2s-2.33-4.2-5.21-4.2-5.21 1.88-5.21 4.2 2.33 4.2 5.21 4.2z" fill="url(#a)" fill-rule="evenodd"/><path d="m12.98 12.2c-4.03-3.77-7.48-5.33-8.68-5.63.1.03 1.22-2.18 4.52-2.18 3.82.03 5.65 2.5 5.65 4.6 0 1.68-1 2.83-1.5 3.2z" fill="url(#b)" opacity=".3"/><path d="m6.52 6a.51.51 0 0 0 -.52.5c0 .28.23.5.52.5h4.96c.29 0 .52-.22.52-.5s-.23-.5-.52-.5zm.48 3c0-.28.18-.5.4-.5h3.2c.22 0 .4.22.4.5s-.18.5-.4.5h-3.2c-.22 0-.4-.22-.4-.5zm-1 2.5c0-.28.23-.5.52-.5h4.96c.29 0 .52.22.52.5s-.23.5-.52.5h-4.96a.51.51 0 0 1 -.52-.5z" fill="#fefdff"/></svg>