<svg height="18" viewBox="0 0 18 18" width="18" xmlns="http://www.w3.org/2000/svg"><path d="m0 0h18v18h-18z" fill="#f0f3fa"/><path d="m7 12-1.4-2.44 1.5-2.67a3.68 3.68 0 0 1 3.2-1.89h.6z" fill="#7e57c6"/><path d="m5.3 9.14-2.3-4.14h1.24c1.55 0 2.53 1.54 1.78 2.87z" fill="#60269e"/><path d="m11.1 14-1.4-2.44 1.5-2.67a3.68 3.68 0 0 1 3.2-1.89h.6z" fill="#fc671a"/><path d="m9.4 11.1-2.3-4.1h1.24c1.55 0 2.53 1.5 1.78 2.82l-.71 1.27z" fill="#fc7f3f"/><path d="m9.57 7.38-1.12 2.01-1.35-2.39h1.24c.48 0 .9.14 1.23.38z" fill="#60269e"/></svg>