<svg height="18" viewBox="0 0 18 18" width="18" xmlns="http://www.w3.org/2000/svg"><path d="m0 0h18v18h-18z" fill="#f0f3fa"/><path d="m8.8 4h.55a5.07 5.07 0 0 1 4.23 2.95c.02.05 0 .07-.04.06-.28-.02-.55.02-.82.12-.04 0-.06 0-.08-.03a4.09 4.09 0 1 0 -4.85 5.8c1.84.56 3.51.13 4.58-1.49.01-.02.04-.03.07-.02a1.84 1.84 0 0 0 .84.16.04.04 0 0 1 .02.05c-.91 1.63-2.15 2.22-4.01 2.4h-.5c-1.7-.12-3-.85-3.93-2.19a5.07 5.07 0 0 1 -.63-4.31 5.03 5.03 0 0 1 4.57-3.5z" fill="#d0d6d4"/><path d="m9.35 10.45c-.59 0-.92-.3-.98-.93 0-.04.01-.06.05-.06h2.5c.02 0 .03-.02.03-.04 0-.54-.12-1.1-.51-1.46s-.9-.42-1.39-.38c-1.02.1-1.58 1.13-1.43 2.1.19 1.17 1.18 1.67 2.23 1.38.45-.12.8-.4 1.05-.85.02-.04.01-.07-.03-.09l-.52-.29c-.04-.02-.07-.01-.1.03a1 1 0 0 1 -.9.59zm-.9-1.49h1.72v-.02c0-.2-.09-.37-.24-.5a.93.93 0 0 0 -.6-.21h-.05a.98.98 0 0 0 -.33.05c-.1.04-.2.1-.27.16a.72.72 0 0 0 -.18.23.62.62 0 0 0 -.06.28.01.01 0 0 0 0 .01z" fill="#221e1d" fill-rule="evenodd"/><path d="m14.56 10.54a1.82 1.82 0 0 0 -.14-2.52 1.7 1.7 0 0 0 -2.46.15 1.82 1.82 0 0 0 .14 2.52 1.7 1.7 0 0 0 2.46-.15zm-1.29-.15c-.49 0-.9-.44-.9-1 0-.57.4-1.03.88-1.03.5 0 .9.44.9 1 0 .57-.39 1.03-.88 1.03z" fill="#228ece"/></svg>