<svg height="18" width="18" xmlns="http://www.w3.org/2000/svg"><path d="m0 0h18v18h-18z" fill="#f0f3fa"/><path d="m11.61 11.68-.7 2.06c-.07.2-.1.47-.9 0-.8-.46-2.06-.9-2.6-1.05a4.7 4.7 0 0 0 1.59-1.53c.1-.18.2-.5-.2-.37s-.88.2-1.06.21c-1.1.06-2.36-.8-2.85-1.23-.25-.21-.86-.64-1.3-.69-.46-.04-.91.37-1.08.57.13-2.13 2.2-1.99 2.67-1.78.37.18.7.2.83.2.5-.07.79-.47.87-.66-.34.2-.84.2-.87.2-.72-.05-1.08-.58-1.49-1-.32-.33-.84-.3-1.05-.25.5-.81 1.38-.47 1.5-.37.1.1.67.22 1.04 0 .3-.17.64-.26.78-.29-.73-.22-.82-.76-.78-1 1.07.36 1.86.05 2.96-.35a6.36 6.36 0 0 1 2.18-.35c1.9.1 2.03 1.04 1.86 1.49.5.43.55 1.64.45 2.01-.09.37.1.64.22.84.13.2.3.33.31.55s-.21.22-.35.31c-.11.08-.1.18-.08.22.05.02.13.1.12.23 0 .13-.26.2-.38.21.08.03.25.12.26.24 0 .11-.13.21-.2.24.26.88-.52 1-1.05.82-.42-.14-.64.28-.7.52z" fill="#79cc00"/></svg>