<svg fill="none" height="18" viewBox="0 0 18 18" width="18" xmlns="http://www.w3.org/2000/svg"><path d="m0 0h18v18h-18z" fill="#f0f3fa"/><path d="m3 8.53009c0-1.4379.85687-2.53009 2.55031-2.53009 1.72856 0 2.44969.99243 2.44969 2.41971v.08029h-4c.027.81279.61441 1.5 1.58387 1.5.77236 0 1.17856-.15548 1.56609-.71688l.85004.46688c-.49296.818-1.39449 1.25-2.42722 1.25-1.6048 0-2.57278-1.08186-2.57278-2.46991zm1.00669-.53009h2.99331c-.11862-.71956-.62198-1-1.44969-1-.78332 0-1.42446.31731-1.54362 1z" fill="#191516"/><path d="m9 8.5c0-1.35774.89367-2.5 2.3157-2.5h2.6843v4.7973c0 1.709-.5478 3.2027-2.4001 3.2027-1.3715 0-2.57144-.5779-2.5999-2h1c0 .9135.7699 1 1.642 1 1.1379 0 1.358-.9746 1.358-1.9992v-1.00273c-.0286 0-.5745 1.00193-1.6422 1.00193-1.49845 0-2.3578-1.04702-2.3578-2.5zm2.5052 1.5506c1.0448 0 1.4948-.57739 1.4948-1.5506 0-.99064-.4989-1.5-1.5053-1.5-.9669 0-1.4947.58757-1.4947 1.5 0 .92759.5169 1.5506 1.5052 1.5506z" fill="#7e8981"/></svg>