<svg height="18" width="18" xmlns="http://www.w3.org/2000/svg"><path d="m0 0h18v18h-18z" fill="#030365"/><path d="m11.99 8.9v-2.9c0-.74-.31-1.27-.92-1.6-.5-.26-1.2-.39-2.1-.39s-1.6.14-2.1.45c-.58.34-.87.89-.87 1.62v2.88c-1.72.3-3.13.82-4 1.27 6.38-1.72 11.99-.72 14 0a14.86 14.86 0 0 0 -4.01-1.31zm-3-.64h.44v-2.26c0-.16-.03-.28-.1-.36a.43.43 0 0 0 -.33-.12.46.46 0 0 0 -.32.13c-.08.08-.12.2-.12.36v2.25zm3 3.78c0 .73-.31 1.26-.92 1.6-.49.27-1.18.36-2.1.36-.9 0-1.6-.1-2.1-.39-.57-.35-.87-.9-.87-1.66v-1.83l2.56-.39v2.3c0 .16.03.29.1.38.07.08.19.12.34.12s.25-.04.33-.12c.07-.1.1-.22.1-.38v-1.98h2.57v2z" fill="#fff" fill-rule="evenodd"/></svg>