<svg height="18" width="18" xmlns="http://www.w3.org/2000/svg"><path d="m0 0h18v18h-18z" fill="#0079c1"/><g fill="#fffffe"><path d="m5 3h8v11.351c0 .065-.082.081-.115.05l-.885-.613v-2.178l.309-.244c.082-.048.115-.113.115-.178 0-.032-.033-.097-.115-.146l-2.976-1.847v-1.557l.556-.6c.05-.065.066-.097.066-.13 0-.032 0-.065-.05-.097l-.247-.179-.296-.55-.872-.601-.346.049v-1.638c.033-.033.05-.065.05-.097 0-.065-.05-.114-.132-.114-.05 0-.116.049-.116.114 0 .032.021.064.054.097v1.654l-.761.114-1.07 1.248-.013.017c-.04.051-.053.069-.053.113 0 .032.016.097.066.13l.498.34v1.242l-1.519 1.693c-.066.065-.148.049-.148-.048z"/><path d="m6.547 7.005c-.016.016-.016.033 0 .049l.1.081c.005 0 .008.002.012.004.007.003.015.007.037-.004l.411-.47 1.3-.227.955.649a.05.05 0 0 0 .066 0l.115-.13c.017-.016.017-.033 0-.049l-.115-.097-.296-.52-.659-.437-1.135.178c-.025.009-.038.013-.044.02-.006.009-.006.021-.006.045 0 .033.033.033.066.033l.971-.146c.033 0 .066.016.066.097s0 .097-.082.114l-1.251.21-.51.6zm.044 7.995h1.745c.1 0 .132-.016.132-.081 0-.033-.033-.065-.099-.114l-1.794-1.135c-.05-.032-.099-.065-.148-.065-.033 0-.094.017-.094.114v1.086c0 .13.11.195.258.195zm2.313-6.006-.186-.119c-.033-.016-.051-.033-.051-.097v-1.341c0-.146.023-.243.154-.243.132 0 .179.097.179.243v1.508c0 .065-.063.065-.096.049zm3.174 5.925-4.992-3.126-.01-.007c-.044-.028-.076-.046-.076-.106v-.39c0-.13.06-.133.152-.08l5.782 3.628c.05.032.066.065.066.08 0 .066-.05.082-.165.082h-.526c-.083 0-.132-.016-.23-.081zm-2.288-2.984-.609.162c-.05.017-.082.017-.131.017-.067 0-.165-.066-.231-.163-.082-.113-.181-.259-.181-.438 0-.162.099-.356.395-.356.395 0 .642.26.79.454.082.113.099.162.099.21 0 .065-.05.098-.132.114z"/><path d="m7.14 9.519-2.025 2.351c-.05.065-.115.049-.115-.032v-.6c0-.081.017-.114.05-.146l2.172-2.546c.066-.081.116-.097.165-.097.05 0 .115.032.197.08l4.149 2.547c.049.032.098.08.098.13 0 .064-.016.08-.082.13l-.416.291v.34c0 .098-.095.114-.144.082l-3.786-2.352c-.082-.048-.082-.08-.082-.146v-.048c0-.065-.016-.098-.066-.098-.026 0-.042.02-.08.069z"/><path d="m11.436 15h-2.222c-.115 0-.148-.016-.247-.081l-2.387-1.524c-.043-.026-.063-.038-.073-.056-.009-.015-.009-.036-.009-.074v-.065c0-.049-.017-.065-.05-.065-.032 0-.082.065-.131.13l-1.152 1.345-.025.026c-.024.027-.05.055-.074.055-.05 0-.066-.016-.066-.097v-.811c0-.042.012-.06.037-.096l.005-.007.007-.01 1.449-1.703v-.13c0-.097.05-.114.132-.065l4.839 3.065c.099.048.099.162-.033.162zm-3.102-6.428v-1.313c0-.13-.133-.26-.333-.26s-.334.13-.334.26v.94c0 .112.022.145.067.161l.467.277c.044.016.133.016.133-.065zm-1.001-.415v-.617c0-.098-.037-.195-.167-.195s-.166.098-.166.195v.875c0 .065.055.098.11.033l.186-.179c.037-.032.037-.048.037-.113z"/></g></svg>