<svg height="18" width="18" xmlns="http://www.w3.org/2000/svg"><path d="m0 0h18v18h-18z" fill="#ffe900"/><path d="m13 11v.3l-2.14 1.7h-7.86v-.48l2.07-1.52zm2-6v.48l-2.07 1.52h-7.93v-.39l2.14-1.61zm-8.22 2.73h-1.68v2.54h1.74v-.43h-1.3v-.7h1.06v-.44h-1.05v-.52h1.23zm.14 1.72c0 .3.14.82 1 .82.2 0 .92-.06.92-.8 0-.45-.3-.58-.62-.67l-.56-.14c-.1-.03-.25-.08-.25-.2 0-.23.22-.3.4-.3.43 0 .47.26.48.37h.47c0-.3-.2-.8-.9-.8-.77 0-.9.48-.9.76 0 .54.36.58.74.67l.25.06c.24.07.42.12.42.31 0 .26-.26.32-.49.32-.42 0-.49-.26-.5-.4zm2.52.25-.16.57h-.52l.83-2.54h.57l.82 2.54h-.53l-.15-.57zm.43-1.42-.3 1h.6zm1.16 2h.99c.48 0 .6-.1.74-.23.12-.13.2-.32.2-.51 0-.25-.08-.55-.36-.66.1-.05.3-.16.3-.52 0-.25-.16-.63-.74-.63h-1.13v2.54zm.47-1.16h.62c.17 0 .35.15.35.36 0 .25-.14.37-.37.37h-.6zm0-.97h.56c.22 0 .37.07.37.27s-.17.29-.36.29h-.57z" fill="#1f1a17"/></svg>