<svg fill="none" height="18" viewBox="0 0 18 18" width="18" xmlns="http://www.w3.org/2000/svg"><path d="m0 0h18v18h-18z" fill="#f0f3fa"/><g clip-rule="evenodd" fill-rule="evenodd"><path d="m4 4h4.99998c2.76142 0 5.00002 2.23857 5.00002 5v-5h-5.00002c-2.76141 0-4.99998 2.23857-4.99998 5z" fill="#a60610"/><path d="m14 9v5h-10v-5c0 2.7614 2.23857 5 4.99998 5 2.76142 0 5.00002-2.2386 5.00002-5z" fill="#9a0058"/><path d="m8.99998 14c-2.76143 0-4.99998-2.2386-4.99998-5.00002 0-2.76141 2.23855-4.99996 4.99998-4.99998v2h-2.99998v2h2.99998v2h-2.99998v2h2.99998z" fill="#dc0814"/></g></svg>