<svg height="18" viewBox="0 0 18 18" width="18" xmlns="http://www.w3.org/2000/svg" xmlns:xlink="http://www.w3.org/1999/xlink"><linearGradient id="a" gradientUnits="userSpaceOnUse" x1="7.27" x2="14.79" y1="8.72" y2="12.2"><stop offset=".19" stop-color="#e71e3e"/><stop offset="1" stop-color="#701419"/></linearGradient><linearGradient id="b" gradientUnits="userSpaceOnUse" x1="3.58" x2="7.58" y1="9.7" y2="11.88"><stop offset="0" stop-color="#75bf44"/><stop offset="1" stop-color="#4a813d"/></linearGradient><path d="m0 0h18v18h-18z" fill="#f0f3fa"/><path d="m14.75 9.2c-.65 1.26-2.56 1.58-4.27.74s-2.6-2.64-1.95-3.89c.66-1.25 2.99-1.28 4.3-.63 1.33.65 2.57 2.54 1.92 3.79zm-.56-1.26c-.43.78-1.8.87-2.93.35-1.13-.53-1.76-1.59-1.32-2.37.43-.78 1.46-1.04 2.84-.4.87.41 1.84 1.64 1.41 2.42zm-2.43-.56c.67.31 1.48.26 1.74-.2.25-.47-.32-1.2-.84-1.44-.82-.38-1.43-.23-1.68.24-.26.46.11 1.08.78 1.4zm-3.88 3.37c-1.86-1.98-.6-4 .22-4.66-.24.23-.45.83-.53 1.1-.16 1.14.6 2.15 1.01 2.51 2.25 2.27 4.61 1.66 5.38 1.24.62-.34.97-1.14 1.03-1.45a3.45 3.45 0 0 1 -1.54 2.53 5.09 5.09 0 0 1 -5.57-1.27zm-1.02-1.18a4 4 0 0 0 1.91 2.52c1.6.9 2.82.9 4.01.46-1.18.54-2.5.62-4.08-.2-1.27-.67-1.76-2.13-1.84-2.78z" fill="url(#a)" fill-rule="evenodd"/><path d="m6.14 12.8c-.46.25-.94.2-1.12.15l.39-.13c.19.05.57 0 .73-.02z" fill="#9b98a1"/><g fill="url(#b)"><path d="m4.4 10.29c-.22.34-.62.55-.88.4-.26-.14-.22-.64-.05-.9.26-.42.6-.53.86-.39s.28.54.06.88z"/><path d="m3.56 12.01c.69.4 1.68 0 2.22-.9s.4-1.99-.29-2.38c-.69-.4-1.79.26-2.2.95-.42.7-.42 1.94.27 2.33zm-.13-.75c.44.24 1.11-.12 1.48-.7.36-.57.33-1.25-.11-1.49-.45-.24-1.01-.06-1.46.64-.28.45-.35 1.3.09 1.55z" fill-rule="evenodd"/><path d="m7.25 10.73c.25-1.46-.95-2.03-1.55-2.11.18.03.46.25.58.36.43.48.38 1.18.3 1.47-.35 1.71-1.64 2.11-2.13 2.14-.4.02-.8-.25-.93-.37a2 2 0 0 0 1.5.73c.22.01 1.9-.44 2.22-2.22z"/><path d="m7.36 9.88c.12.29.26 1.03-.12 1.74-.47.89-1.03 1.24-1.73 1.38a2.35 2.35 0 0 0 1.84-1.28c.4-.68.17-1.5.01-1.84z"/></g></svg>