<svg height="18" viewBox="0 0 18 18" width="18" xmlns="http://www.w3.org/2000/svg"><path d="m0 0h18v18h-18z" fill="#f0f3fa"/><path d="m7.67 8.38h-1.34c0 2.41 2.1 4.37 4.67 4.37v-1.25c-1.67 0-3.33-1.72-3.33-3.13z" fill="#307ac6"/><path d="m6.33 8.38h-1.33c0 3.09 2.69 5.62 6 5.62v-1.25c-2.49 0-4.67-2.04-4.67-4.38z"/><path d="m11 5.25c-1.84 0-3.33 1.4-3.33 3.13 0 1.72 1.49 3.12 3.33 3.12v-1.56c-.92 0-1.67-.7-1.67-1.56 0-.87.75-1.57 1.67-1.57z" fill="#ffb035"/><path d="m11 4v1.25h-.25l-.1-1.24zm-3.33 4.38v-.24l-1.32-.1-.02.34zm2.83-3.1-.2-1.23a4.9 4.9 0 0 0 -.68.14l.4 1.2c.15-.05.32-.08.48-.1zm-.72.18-.48-1.16c-.21.08-.42.18-.62.29l.66 1.08c.15-.08.3-.15.45-.2zm-.66.34-.75-1.04c-.2.12-.37.26-.54.4l.9.92.4-.29zm-.56.45-.98-.85c-.16.16-.3.33-.44.51l1.1.7c.1-.12.2-.25.32-.36zm-.45.56-1.15-.61c-.12.19-.22.38-.3.59l1.24.45.21-.42zm-.3.64-1.27-.35c-.07.2-.12.41-.16.63l1.32.19.11-.46z" fill="#307ac6"/></svg>