<svg fill="none" height="18" width="18" xmlns="http://www.w3.org/2000/svg"><path d="m0 0h18v18h-18z" fill="#f0f3fa"/><path clip-rule="evenodd" d="m8 6.093v5.556c1.46.62 2.537.344 3.26-.218.81-.628 1.24-1.658 1.24-2.461 0-1.223-.595-2.222-1.47-2.76-.805-.497-1.885-.624-3.03-.117zm3.555-.735c1.18.726 1.945 2.053 1.945 3.612 0 1.098-.563 2.425-1.626 3.25-1.103.856-2.685 1.13-4.593.2l-.281-.137v-6.803l.267-.141c1.538-.81 3.101-.71 4.288.02z" fill="#155a91" fill-rule="evenodd"/><g fill="#268bde"><path d="m11.799 8.561-.586.878h-6.213v-1.439h1v.561z"/><path d="m12.327 13.125a5 5 0 1 1 .115-8.168l.506-.868a6 6 0 1 0 .055 9.783z"/></g></svg>