<svg height="18" viewBox="0 0 18 18" width="18" xmlns="http://www.w3.org/2000/svg"><path d="m0 0h18v18h-18z" fill="#f0f3fa"/><path d="m13.05 8h2.87l.08-1h-4.78l.92-1-2.22 1.35h.9l-1.54 1.99-1-2.1a.38.38 0 0 0 -.14-.16.42.42 0 0 0 -.23-.08h-5.23c-.09 0-.17.06-.23.1a.3.3 0 0 0 -.1.22l-.34 4.14c-.03.15.02.27.12.38.08.1.2.14.32.16h3.87l.08-1h-2.67c-.14 0-.24-.09-.24-.21v-.02l.07-.77h2.95l.06-1h-2.95l.11-.89c0-.04.04-.11.09-.11h2.88l2.08 4 2.77-4-.29 3.46c-.02.15.04.27.12.38.08.1.2.14.35.16h3.86l.06-1h-2.68a.25.25 0 0 1 -.25-.24v-.02l.08-.74h2.98l.06-1h-2.97l.1-.89c0-.04.04-.11.08-.11z" fill="#cf102b"/></svg>