<svg height="18" width="18" xmlns="http://www.w3.org/2000/svg" xmlns:xlink="http://www.w3.org/1999/xlink"><linearGradient id="a" gradientUnits="userSpaceOnUse" x1="3.349" x2="21.904" y1="3.122" y2="24.434"><stop offset="0" stop-color="#1a1e21"/><stop offset="1" stop-color="#06060a"/></linearGradient><path d="m0 0h18v18h-18z" fill="url(#a)"/><path d="m3.088 5.552c-.203-.218-.032-.552.281-.552h3.033c.108 0 .211.044.281.119l2.804 3.021c.203.218.032.552-.282.552h-3.032a.385.385 0 0 1 -.282-.119z" fill="#95c93d"/><path d="m8.513 5.552c-.203-.218-.033-.552.282-.552h3.032c.108 0 .212.044.282.119l2.803 3.021c.203.218.032.552-.281.552h-3.033a.385.385 0 0 1 -.281-.119z" fill="#317cc0"/><path d="m14.912 9.86c.203-.219.032-.552-.281-.552h-3.033a.384.384 0 0 0 -.281.119l-2.804 3.021c-.203.218-.032.552.282.552h3.032a.385.385 0 0 0 .282-.12z" fill="#073552"/><path d="m9.487 9.86c.203-.219.032-.552-.282-.552h-3.032a.385.385 0 0 0 -.282.119l-2.803 3.021c-.203.218-.032.552.281.552h3.033a.384.384 0 0 0 .281-.12z" fill="#acb1ba"/></svg>