<svg height="18" width="18" xmlns="http://www.w3.org/2000/svg"><path d="m0 0h18v18h-18z" fill="#ec6923"/><path d="m15 9.231a.65.65 0 0 1 -.661.64.65.65 0 0 1 -.661-.64.65.65 0 0 1 .66-.64.65.65 0 0 1 .662.64zm-.3-1.687a.65.65 0 0 1 -.662.64.65.65 0 0 1 -.661-.64.65.65 0 0 1 .661-.64.65.65 0 0 1 .662.64zm-2.044.116c0 .29-.242.524-.541.524a.532.532 0 0 1 -.541-.523c0-.29.242-.524.54-.524.3 0 .542.235.542.524zm-1.323-1.22a.473.473 0 0 1 -.48.465.473.473 0 0 1 -.481-.466c0-.257.215-.465.48-.465.266 0 .481.208.481.465zm-.661 1.34c0 .29-.242.524-.54.524a.532.532 0 0 1 -.542-.524c0-.289.242-.523.541-.523s.541.234.541.523zm-1.022-1.777a.385.385 0 0 1 -.39.378.385.385 0 0 1 -.391-.378c0-.209.175-.378.39-.378.216 0 .391.17.391.378zm-.781 1.861a.385.385 0 0 1 -.39.378.385.385 0 0 1 -.392-.378c0-.208.175-.378.391-.378s.39.17.39.378zm-.902 1.367a.355.355 0 0 1 -.36.349c-.2 0-.361-.156-.361-.349s.161-.349.36-.349c.2 0 .361.156.361.349zm.842 1.396c0 .16-.135.29-.3.29-.167 0-.301-.13-.301-.29s.134-.291.3-.291.3.13.3.29zm-.782-4.158a.385.385 0 0 1 -.39.378.385.385 0 0 1 -.391-.378c0-.21.175-.379.39-.379.216 0 .391.17.391.379zm-1.257 1.191a.355.355 0 0 1 -.36.35c-.2 0-.361-.157-.361-.35 0-.192.161-.348.36-.348.2 0 .361.156.361.349zm-.486 1.522c0 .177-.148.32-.33.32a.325.325 0 0 1 -.331-.32c0-.177.148-.32.33-.32.183 0 .331.143.331.32zm.481 1.619c0 .16-.135.291-.3.291-.167 0-.301-.13-.301-.29 0-.161.134-.291.3-.291s.301.13.301.29zm1.082 1.222a.266.266 0 0 1 -.27.261.266.266 0 0 1 -.271-.261c0-.145.121-.262.27-.262.15 0 .271.117.271.262zm1.683.38a.237.237 0 0 1 -.24.232.237.237 0 0 1 -.24-.232c0-.129.107-.233.24-.233.132 0 .24.104.24.233zm1.623-.497c0 .097-.08.175-.18.175s-.18-.078-.18-.175c0-.096.08-.174.18-.174s.18.078.18.174zm2.014.407c0 .049-.04.088-.09.088s-.09-.04-.09-.088.04-.087.09-.087.09.04.09.087zm.093-3.082a.65.65 0 0 1 -.662.64.65.65 0 0 1 -.66-.64.65.65 0 0 1 .66-.64.65.65 0 0 1 .661.64zm.478-3.082a.65.65 0 0 1 -.662.64.65.65 0 0 1 -.66-.64.65.65 0 0 1 .66-.64.65.65 0 0 1 .662.64zm-1.443-1.047c0 .289-.242.523-.54.523a.532.532 0 0 1 -.542-.523c0-.29.242-.524.541-.524s.541.235.541.524zm-.838 4.129c0 .29-.242.523-.541.523a.532.532 0 0 1 -.541-.523c0-.289.242-.523.54-.523.3 0 .542.234.542.523zm-.905-4.766a.473.473 0 0 1 -.481.466.473.473 0 0 1 -.48-.466c0-.257.214-.465.48-.465s.48.208.48.465zm-1.743.055a.414.414 0 0 1 -.421.407.414.414 0 0 1 -.42-.407c0-.225.188-.407.42-.407s.42.182.42.407zm-1.563.582a.414.414 0 0 1 -.42.407.414.414 0 0 1 -.422-.407c0-.225.189-.407.421-.407.233 0 .42.182.42.407zm-1.323 1.047a.414.414 0 0 1 -.42.407.414.414 0 0 1 -.421-.407c0-.225.188-.407.42-.407.233 0 .421.182.421.407zm-1.021 1.401c0 .16-.135.291-.3.291-.167 0-.301-.13-.301-.29 0-.161.134-.292.3-.292s.3.13.3.291zm-.301 1.74c0 .16-.134.29-.3.29s-.301-.13-.301-.29c0-.161.135-.292.3-.292.167 0 .301.13.301.291zm.241 1.57a.237.237 0 0 1 -.24.232.237.237 0 0 1 -.241-.232c0-.129.107-.233.24-.233s.24.104.24.232zm.781 1.512c0 .096-.08.174-.18.174s-.18-.078-.18-.174c0-.097.08-.175.18-.175s.18.078.18.175zm1.382.988c0 .097-.08.175-.18.175s-.18-.078-.18-.175c0-.096.08-.174.18-.174s.18.078.18.174zm1.623.495c0 .08-.067.145-.15.145a.148.148 0 0 1 -.15-.145c0-.08.067-.146.15-.146s.15.065.15.146zm1.774 0c0 .08-.068.145-.15.145a.148.148 0 0 1 -.15-.145c0-.08.066-.146.15-.146.082 0 .15.065.15.146zm1.532-.508a.118.118 0 0 1 -.12.116.118.118 0 0 1 -.12-.116c0-.064.054-.117.12-.117.067 0 .12.053.12.117z" fill="#fff"/></svg>