<svg height="18" width="18" xmlns="http://www.w3.org/2000/svg"><path d="m0 0h18v18h-18z" fill="#f0f3fa"/><path d="m8.947 9.9c1.424 1.742 3.63 2.94 6.053 3.1v-.667a7.925 7.925 0 0 1 -5.652-3l-.326-.446a7.05 7.05 0 0 1 -.556-.957l-.266-.635a7.584 7.584 0 0 1 -.435-2.295h-.706c-.095 2.26-1.766 4.067-4.059 4.333v.667c2.022-.213 3.72-1.553 4.412-3.333.105.446.177.846.353 1.263l.266.548c.17.325.379.704.59 1l.326.423z" fill="#f27121"/><path d="m9.838 8.522c1.129 1.61 3.045 2.808 5.162 2.978v-.667c-2.047-.18-3.828-1.321-4.836-2.942l-.326-.601c-.331-.699-.45-1.48-.485-2.29h-.706c-.035.81-.159 1.582-.49 2.28-.1.214-.21.417-.336.616-1.008 1.62-2.774 2.754-4.821 2.937v.667c2.117-.17 4.028-1.368 5.157-2.978.12-.17.231-.35.336-.53.236-.417.367-.86.507-1.325.14.465.276.928.512 1.345z" fill="#d0202a"/><path d="m10.941 5h-.706a7.345 7.345 0 0 1 -.705 2.93c-.166.35-.314.69-.53 1.005-.105.155-.216.31-.331.456-1.33 1.683-3.361 2.777-5.669 2.942v.667c2.428-.16 4.645-1.364 6.07-3.105a7.22 7.22 0 0 0 .33-.437c.211-.296.394-.584.564-.905.096-.184.186-.433.271-.622.176-.418.295-.92.353-1.264.693 1.78 2.39 3.12 4.412 3.333v-.667c-2.298-.266-3.963-2.063-4.059-4.333z" fill="#58595b"/></svg>