<svg height="18" viewBox="0 0 18 18" width="18" xmlns="http://www.w3.org/2000/svg" xmlns:xlink="http://www.w3.org/1999/xlink"><linearGradient id="a" gradientUnits="userSpaceOnUse" x1="5" x2="5" y1="7" y2="12"><stop offset="0" stop-color="#8bc43f"/><stop offset=".58" stop-color="#92ca6e"/></linearGradient><linearGradient id="b" gradientUnits="userSpaceOnUse" x1="10.44" x2="10.44" y1="7" y2="12"><stop offset="0" stop-color="#84c033"/><stop offset=".59" stop-color="#96d177"/></linearGradient><linearGradient id="c" gradientUnits="userSpaceOnUse" x1="14.5" x2="14.5" y1="7" y2="12"><stop offset="0" stop-color="#8cc341"/><stop offset=".59" stop-color="#8fcb70"/></linearGradient><path d="m0 0h18v18h-18z" fill="#f0f3fa"/><path d="m8 12h-4.65c-.45-.02-1.37-.3-1.35-1.28v-2.68c0-.33.29-1.01 1.49-1.04h2.24c.47-.01 1.23.2 1.27 1.18v.73l-4.04 1.35c-.04.32.07 1.02.81 1.07h4.23zm-5-2.4v-1.2c0-.24.15-.73.88-.73h1.54c.28 0 .71.25.7.9z" fill="url(#a)" fill-rule="evenodd"/><path d="m3.77 10h-1.77v.72c-.02.98.9 1.26 1.35 1.28h4.65v-.67h-4.23c-.74-.05-.85-.75-.81-1.07z" fill="#5ab241"/><path d="m9.76 11.56-2.34-4.56h.92l2.08 4.05 2.09-4.05h.94l-2.28 4.47c-.07.17-.3.53-.7.53a.77.77 0 0 1 -.7-.44z" fill="url(#b)"/><path d="m8.96 10 .8 1.56c.07.13.26.45.7.45.4 0 .64-.37.71-.54l.75-1.47h-.96l-.54 1.05-.52-1.05h-.93z" fill="#5ab241"/><path d="m14 7h1v5h-1z" fill="url(#c)"/><path d="m15 12v-2h-1v2z" fill="#5ab241"/><path d="m14 6h1v.62h-1z" fill="#8bc43f"/></svg>