<svg height="18" width="18" xmlns="http://www.w3.org/2000/svg" xmlns:xlink="http://www.w3.org/1999/xlink"><linearGradient id="a" gradientUnits="userSpaceOnUse" x1="9" x2="9" y1="5" y2="13"><stop offset="0" stop-color="#6f3e2f"/><stop offset=".33" stop-color="#a6442b"/><stop offset=".64" stop-color="#bc7130"/><stop offset="1" stop-color="#6f3e2f"/></linearGradient><path d="m0 0h18v18h-18z" fill="#f0f3fa"/><g fill-rule="evenodd"><path d="m9 13c3.31 0 6-1.8 6-4s-2.69-4-6-4-6 1.8-6 4 2.69 4 6 4zm-.63-.64c1.65.1 3.63-.52 3.7-1.8.06-1.28-2.36-2.96-4.18-3.07-2.03-.18-2.53.94-2.6 2.22s1.08 2.54 3.08 2.65z" fill="url(#a)"/><path d="m8.47 12.2c1.27.07 3.41-.49 3.4-1.65 0-1.16-1.93-2.45-3.86-2.85-1.74-.36-2.52.83-2.58 2.03-.07 1.2 1.32 2.37 3.04 2.46zm-.65-.27c.98.26 3 0 3.24-.9.14-.48-.4-.86-1.03-1.3l-.2-.15c-.19-.14-.38-.3-.57-.46a5.28 5.28 0 0 0 -.98-.72c-1.23-.61-1.9.3-2.13 1.22-.23.93.36 1.96 1.67 2.31z" fill="#daa32e"/></g></svg>