<svg height="18" viewBox="0 0 18 18" width="18" xmlns="http://www.w3.org/2000/svg"><path d="m0 0h18v18h-18z" fill="#fd4b47"/><path d="m5.9 5c-.81 0-1.31.39-1.59.86a2.4 2.4 0 0 0 -.31 1.14c0 .22 0 .99.7 1.67.64.63 1.82 1.11 3.95 1.09a2.81 2.81 0 0 1 -1.18 2.15c-.68.44-1.43.45-1.89.1a.98.98 0 0 1 -.37-.5 1 1 0 0 1 0-.54c.1-.4.38-.77.57-.95a.38.38 0 0 0 .04-.51.33.33 0 0 0 -.5-.04 2.9 2.9 0 0 0 -.77 1.3c-.08.3-.1.62 0 .95s.3.63.63.89c.75.56 1.81.48 2.65-.08a3.3 3.3 0 0 0 1.17-1.39c.28.61.7 1.08 1.17 1.4.84.56 1.9.64 2.65.08.33-.26.54-.56.64-.89s.07-.66 0-.95a2.9 2.9 0 0 0 -.79-1.3.33.33 0 0 0 -.49.04.38.38 0 0 0 .04.51c.2.18.47.55.57.95a1 1 0 0 1 0 .53.98.98 0 0 1 -.37.51c-.46.35-1.21.34-1.89-.1a2.81 2.81 0 0 1 -1.18-2.15c2.13.02 3.31-.46 3.96-1.1.69-.67.69-1.43.69-1.65s-.05-.7-.31-1.15a1.74 1.74 0 0 0 -1.6-.86c-1.14-.01-2.46.77-3.09 2.35-.62-1.58-1.94-2.36-3.1-2.36zm3.45 4.03v-.02c.15-2.28 1.63-3.28 2.75-3.28.57 0 .85.25 1 .52.17.28.2.62.2.76 0 .16 0 .67-.46 1.13-.46.45-1.44.92-3.5.9zm-.7-.02c-.15-2.28-1.63-3.28-2.75-3.28-.57 0-.85.25-1 .52-.17.28-.2.62-.2.76 0 .16 0 .67.46 1.13.46.45 1.44.92 3.5.9v-.04z" fill="#fff4f4" fill-rule="evenodd"/></svg>