<svg height="18" viewBox="0 0 18 18" width="18" xmlns="http://www.w3.org/2000/svg"><path d="m0 0h18v18h-18z" fill="#f0f3fa"/><path d="m13 5h-8v5.41c0 .16.02.38.03.43.23 1.72 2.54 2.62 3.97 3.16 1.45-.47 3.8-1.5 3.97-3.21l.02-.3c.02-.69 0-2.24 0-2.24zm-4 8.45c-1.35-.39-3.38-1.37-3.43-2.93v-4.97h6.86v4.97c-.02 1.54-2.17 2.54-3.43 2.93z" fill="#002f70"/><path d="m8.6 9.46-.6-1.46h.78l.34.86c.54-.73 1.24-1.68 2.01-2.56l.27-.3h-5.4v4.61a.9.9 0 0 0 .24.71c.24-.01.48-.07.7-.17a5.6 5.6 0 0 0 1.66-1.7z" fill="#0085dd"/><path d="m9.4 9.41.6 1.59h-.72l-.37-.92c-.78.98-1.51 1.46-2.31 1.56l.04.05c.79.77 2.26 1.27 2.36 1.31 1.17-.4 2.97-1.31 3-2.5v-4.22c-.93 1-1.8 2.04-2.6 3.13z" fill="#002f70"/></svg>