<svg height="18" viewBox="0 0 18 18" width="18" xmlns="http://www.w3.org/2000/svg"><path d="m0 0h18v18h-18z" fill="#f0f3fa"/><path d="m7.6 8.65 2.2-2.6s.1-.05.17-.05h.63l-2.1 2.5s-.1.13-.2.15c-.11.03-.7 0-.7 0z" fill="#e22e7f"/><g fill="#2419ac"><path d="m16 9.48c0-.06-.01-.74-.04-.84a.84.84 0 0 0 -.24-.39.88.88 0 0 0 -.41-.2c-.25-.05-.92-.05-.92-.05s-.8 0-.97.05a1.1 1.1 0 0 0 -.36.2c-.1.07-.2.24-.22.34a10.92 10.92 0 0 0 0 1.76c.03.17.13.31.25.41.07.07.26.2.5.21l.85.03c.12 0 .85-.02 1.02-.09a.9.9 0 0 0 .37-.27c.04-.07.13-.26.15-.36zm-.6 0-.01.54c0 .12-.03.28-.2.34-.12.04-.67.04-.78.04l-.61-.01c-.17-.02-.33-.03-.38-.29a6.73 6.73 0 0 1 -.03-.68c0-.13 0-.5.03-.57.04-.12.1-.2.28-.23a14.61 14.61 0 0 1 1.38 0c.06 0 .21.05.26.17.06.15.06.61.05.69zm-2.75-1.48v.6h-1.95c-.09 0-.15.13-.17.2v.4h2.13v.6h-2.13v.41c.02.09.1.18.19.19h1.94v.6h-2.06a.69.69 0 0 1 -.46-.26c-.12-.13-.15-.2-.19-.53l-.03-.78c0-.08.02-.74.05-.88a.73.73 0 0 1 .2-.35c.07-.06.27-.2.4-.2h2.1zm-7.37 0h1.32s.06 0 .14.03l.15.07c.09.08.92.97.92.97s.07.08.19.1c.11.03.33.02.37.02.03 0 .15.04.2.08l1.66 1.73h-1.22c-.06 0-.14 0-.23-.03a.8.8 0 0 1 -.25-.15l-.82-.86-.76.88c-.04.04-.05.07-.12.11-.06.03-.12.04-.19.05h-1.34l1.4-1.52z"/><path d="m5.35 8v.8h-2.05c-.07.01-.18.02-.22.1-.06.09-.03.15-.03.15h2.2v.88h-2.2s0 .14.07.19c.09.06.14.05.14.05h2.09v.83h-2.6s-.36-.03-.54-.24c-.18-.22-.18-.3-.2-.64v-1.24c0-.04-.03-.38.17-.61a.8.8 0 0 1 .52-.27z"/></g></svg>