<svg height="18" viewBox="0 0 18 18" width="18" xmlns="http://www.w3.org/2000/svg"><path d="m0 0h18v18h-18z" fill="#f0f3fa"/><path d="m13.14 12.09c.18-.19.15-.46-.06-.62-.22-.17-.44-.12-.65.07-.35.31-.92.6-1.43.6-.97 0-1.87-.77-2.1-1.71h4.55c.3 0 .55-.25.55-.55 0-1.61-1.4-2.88-3-2.88a3 3 0 1 0 2.14 5.09zm-.05-2.52a2.26 2.26 0 0 0 -2.09-1.71c-.97 0-1.87.77-2.1 1.71h4.2z" fill="#2c478c" fill-rule="evenodd"/><path d="m4 6.69a.7.7 0 0 1 .72-.69h1.56c.4 0 .72.3.72.69v1.62a.7.7 0 0 1 -.72.69h-1.56a.7.7 0 0 1 -.72-.69z" fill="#612877"/><path d="m5 10.47c0-.26.22-.47.49-.47h1.02c.27 0 .49.21.49.47v1.06c0 .26-.22.47-.49.47h-1.01a.48.48 0 0 1 -.49-.47v-1.06z" fill="#982781"/><path d="m11.5 4.92c0-.23.19-.42.42-.42h.66c.23 0 .42.19.42.42v.66c0 .23-.19.42-.42.42h-.66a.42.42 0 0 1 -.42-.42zm-4.5 8.47c0-.22.18-.39.4-.39h1.2c.22 0 .4.17.4.39v1.22c0 .22-.18.39-.4.39h-1.2a.39.39 0 0 1 -.4-.39v-1.21z" fill="#c72884"/><path d="m8 3.8c0-.45.35-.8.79-.8h1.42c.44 0 .79.35.79.8v1.4c0 .45-.35.8-.79.8h-1.41a.79.79 0 0 1 -.8-.8z" fill="#406eb3"/></svg>