<svg height="18" viewBox="0 0 18 18" width="18" xmlns="http://www.w3.org/2000/svg"><path d="m0 0h18v18h-18z" fill="#582c83"/><path d="m11 10h1.08c-.09.28-.55.5-1.1.5-.93 0-1.27-.77-1.27-1.48 0-.73.3-1.52 1.27-1.52.65 0 1.02.35 1.03.5h1.92a2.69 2.69 0 0 0 -1.93-1.87 4 4 0 0 0 -2.42.1c-.42.16-.78.38-1.07.66-.28.27-.5.6-.66.96l-.2.6c.05-.03.16-.05.18-.05.4 0 .57.12.6.44h-.44c-.01-.12-.1-.19-.2-.19-.11 0-.2.07-.2.16 0 .1.1.18.3.33l.32.27.2-.29h.5l-.38.53-.02.01.45.34h-.61l-.13-.08c-.12.07-.25.12-.4.13a2.77 2.77 0 0 0 .7 1.07c.29.28.65.5 1.06.65.42.15.9.23 1.41.23a3 3 0 0 0 1.02-.18c.16-.06.32-.13.46-.23l.07.41h1.46v-3.35h-3z" fill="#fff"/><path d="m7.33 9.59c0 .12.14.21.32.21.07 0 .16-.02.24-.05l-.3-.25-.12-.1c-.08.05-.14.11-.14.19zm2.34-3.59h-5.67v6h2v-2h1.35c-.5-.12-.55-.68-.14-.85-.15-.24-.1-.54.26-.65h-1.47v-1h1.8a3.1 3.1 0 0 1 1.87-1.5z" fill="#ffc20e"/></svg>