<svg height="18" viewBox="0 0 18 18" width="18" xmlns="http://www.w3.org/2000/svg"><path d="m0 0h18v18h-18z" fill="#572500"/><path d="m6 10.82c.32-.02.44-.06.44-.35v-2.94c0-.3-.12-.31-.44-.34v-.19h2.41l.19.78h-.26c-.13-.55-.32-.55-.86-.55h-.25c-.15 0-.23.04-.23.2v1.31s.08.04.2.04c.32 0 .39-.08.45-.47h.18v1.12h-.18c-.06-.39-.13-.46-.47-.46-.08 0-.18.03-.18.03v1.46c0 .3.08.34.48.36v.18h-1.48zm3 .03.12-.02c.24-.05.24-.03.24-.67v-2.33c0-.64 0-.62-.24-.67l-.12-.02.03-.14h1.5c-.1 0 1.03-.08 1.03.77a.9.9 0 0 1 -.65.92v.02c.52.08.92.42.9 1.1-.01.87-.66 1.19-1.49 1.19h-1.32zm1-2.21.12.01c.39 0 .73-.12.73-.73 0-.44-.26-.71-.66-.71-.08 0-.1 0-.19.02v1.4zm0 2.06c.13.06.26.05.4.05.52 0 .67-.6.67-.88 0-.7-.3-1-.91-1l-.16-.02z" fill="#fff"/><g fill-rule="evenodd"><path d="m4.71 6.83-.06.02c-.93.27-1.4 1.23-1.4 2.15 0 1.06.63 1.97 1.38 2.1l.07.01.06.06c.99 1.09 2.1 1.53 4.24 1.53 1.06 0 2.03-.17 2.8-.46a3.36 3.36 0 0 0 1.6-1.04l.05-.08.09-.02c.38-.1.68-.32.88-.65.2-.35.33-.83.33-1.45 0-1.17-.65-1.77-1.24-2l-.09-.04-.04-.09c-.25-.45-.78-.85-1.56-1.14a8.4 8.4 0 0 0 -2.82-.43c-2.14 0-3.26.4-4.24 1.48zm8.88-.12c-.59-1.09-2.42-1.71-4.59-1.71s-3.36.4-4.41 1.56c-1.06.31-1.59 1.4-1.59 2.44 0 1.19.7 2.23 1.59 2.39 1.05 1.15 2.24 1.61 4.41 1.61s3.97-.73 4.59-1.61c.88-.2 1.41-1.06 1.41-2.39s-.76-2.03-1.41-2.29z" fill="#f7b41b"/><path d="m4.9 7.01-.07.02c-.89.25-1.33 1.13-1.33 1.97 0 .96.6 1.8 1.3 1.92l.08.01.06.06c.94 1 2.01 1.42 4.06 1.42 1.02 0 1.95-.17 2.69-.43a3.22 3.22 0 0 0 1.52-.96l.05-.08.09-.02c.37-.08.65-.29.84-.6.2-.31.31-.75.31-1.32 0-1.06-.62-1.62-1.18-1.83l-.08-.04-.05-.08c-.23-.42-.74-.8-1.5-1.05a8.3 8.3 0 0 0 -2.69-.4c-2.05 0-3.12.36-4.06 1.36l-.05.05zm8.5-.13c-.56-1-2.32-1.58-4.4-1.58s-3.22.37-4.23 1.44c-1.01.29-1.52 1.3-1.52 2.26 0 1.1.68 2.07 1.52 2.21 1.01 1.07 2.15 1.5 4.23 1.5s3.8-.68 4.4-1.5c.84-.19 1.35-.98 1.35-2.21s-.73-1.88-1.35-2.12z" fill="#ffffec"/></g></svg>