<svg height="18" viewBox="0 0 18 18" width="18" xmlns="http://www.w3.org/2000/svg"><path d="m0 0h18v18h-18z" fill="#f0f3fa"/><g fill="#030305"><path d="m8.92 4h.17a4.99 4.99 0 0 1 4.91 4.94v.12a5 5 0 0 1 -4.93 4.94h-.13a5.01 5.01 0 0 1 -4.94-4.92v-.15a5.01 5.01 0 0 1 4.92-4.93zm4.66 5a4.58 4.58 0 1 0 -9.16 0 4.58 4.58 0 0 0 9.16 0z"/><path d="m8 8.33h-1v-.33h1v-.96c0-.29 0-.57.09-.84.33-.92 1.22-1.31 2.1-1.17.2.03.4.1.57.2.38.23.68.68.59 1.17-.06.33-.32.54-.62.52-.37-.03-.6-.39-.55-.76.03-.27.19-.47.44-.55-.15-.4-.47-.59-.87-.52-.66.1-.75.98-.75 1.56v1.35h1.22v.33h-1.22v4.67h-1z"/></g></svg>