<svg height="18" viewBox="0 0 18 18" width="18" xmlns="http://www.w3.org/2000/svg"><path d="m0 0h18v18h-18z" fill="#f0f3fa"/><path d="m5.31 15-1.14-4.4a5.2 5.2 0 0 1 3.7-6.38l4.82-1.22 1.14 4.4a5.2 5.2 0 0 1 -3.7 6.38z" fill="#fbb138"/><path d="m4 14v-4.16a4.98 4.98 0 0 1 5.1-4.84h4.9v4.16a4.98 4.98 0 0 1 -5.1 4.84z" fill="#00c2ee"/><path d="m9.36 9.47v.53h1.87v1h.77v-1h.36v-.79h-.36v-2.21h-1.04zm1.87-1.66-.9 1.39h.9zm-5.14.57c.02-.46.34-1.38 1.43-1.38 1.1 0 1.33.89 1.32 1.33a2 2 0 0 1 -.51 1.14l-.6.73h1.27v.8h-3l1.68-2.11a1 1 0 0 0 .24-.56c0-.28-.08-.56-.49-.56-.4 0-.52.52-.52.6h-.81z" fill="#eef1f8" fill-rule="evenodd"/></svg>