<svg height="18" viewBox="0 0 18 18" width="18" xmlns="http://www.w3.org/2000/svg"><path d="m0 0h18v18h-18z" fill="#f0f3fa"/><path d="m4.07 5.52 1.7.46.67-1.56 1.23.58.6-2 1.9 1.68 1.67-1.05v1.7l1.32-.32.02 1.26 2.02-.75-.83 3.04 1.63.89-1.53 1.17 1.04 1.55-2.22-.36-.43 1.8-.65-1-1.05 1.62-1.16-1-.8 1.77-.68-1.53-.62.91-.64-1.7-1.41 2.32.18-2.06-1.64.3.53-1.4-1.42.5.9-1.47-1.07-1.01.63-.52-.96-1.7h1.42zm.56.75.4 1.73h-1.4l.84 1.34-.57.58.86.88-.4.8.88-.2-.28 1.38 1.43-.26v.91l.88-1.4.74 1.63.66-.8.54 1.13.8-1.47 1.04 1.08 1.09-1.79.5.7.37-1.3 1.6.38-.75-1.08 1.44-1.06-1.44-.7.61-2.48-1.79.6.05-1.19-1.3.39v-1.65l-1.26.91-1.64-1.4-.67 1.75-1.26-.68-.7 1.59z" fill="#d0252b"/><path d="m9.4 6.05a5.42 5.42 0 0 0 -4.35 2.67c-.06.47.06 1.21 1 .41.95-.8 2.62-1.03 3.35-1.06zm3.87.97-3.46.55c-.14.37-.35 1.16 0 1.37.26.15.47-.09.67-.3.15-.18.3-.34.44-.32.29.02 1.55.52 2.14.77zm-6.97 2.65c.9.9 3.37 2.18 6 0l.41.95a4.72 4.72 0 0 1 -3.32 1.33c-1.69 0-3.1-.97-3.58-1.45z" fill="#3888c3" fill-opacity=".7"/></svg>