<svg height="18" viewBox="0 0 18 18" width="18" xmlns="http://www.w3.org/2000/svg"><path d="m0 0h18v18h-18z" fill="#f0f3fa"/><path d="m12.8 4h-7.6a.2.2 0 0 0 -.2.2v.1c0 .11.09.2.2.2h.6c.11 0 .2.09.2.2v8.6a.2.2 0 0 1 -.2.2h-.6a.2.2 0 0 0 -.2.2v.1c0 .11.09.2.2.2h4.1a.2.2 0 0 0 .2-.2v-.1a.2.2 0 0 0 -.2-.2h-1.1a.2.2 0 0 1 -.2-.2v-4.1c0-.11.09-.2.2-.2h1.8c.68 0 .93.84.99 1.3 0 .11.1.2.21.2h.1a.2.2 0 0 0 .2-.2v-3.1a.2.2 0 0 0 -.2-.2h-.1c-.11 0-.2.09-.2.2-.08 1.03-.69 1.3-1 1.3h-1.8a.2.2 0 0 1 -.2-.2v-3.6c0-.11.09-.2.2-.2h2.8c1.11 0 1.45 1.43 1.5 2.3 0 .11.09.2.2.2h.1a.2.2 0 0 0 .2-.2v-2.6a.2.2 0 0 0 -.2-.2z" fill="#013e77"/></svg>