<svg fill="none" height="18" width="18" xmlns="http://www.w3.org/2000/svg"><path d="m0 0h18v18h-18z" fill="#f0f3fa"/><path clip-rule="evenodd" d="m8.333 8.333v-1.682h1.334v1.684c1.628.024 1.666 1.332 1.666 1.332h-1.666v1.666h-1.334v-1.666c-1.502-.095-1.666-1.334-1.666-1.334zm-1.056 6.388c.488.186 1.049.279 1.675.279h.096c.638 0 1.21-.098 1.707-.288 1.377-.513 2.245-1.725 2.245-3.612v-4.234c0-1.898-.882-3.082-2.276-3.588-.489-.184-1.048-.278-1.675-.278h-.097c-.638 0-1.211.098-1.706.29-1.378.511-2.246 1.69-2.246 3.575v4.235c0 1.9.883 3.116 2.277 3.62z" fill="#64656a" fill-rule="evenodd"/></svg>