<svg height="18" viewBox="0 0 18 18" width="18" xmlns="http://www.w3.org/2000/svg" xmlns:xlink="http://www.w3.org/1999/xlink"><linearGradient id="a" gradientUnits="userSpaceOnUse" x1="0" x2="18" y1="9" y2="9"><stop offset="0" stop-color="#3393d0"/><stop offset="1" stop-color="#1f2e41"/></linearGradient><path d="m0 0h18v18h-18z" fill="url(#a)"/><path d="m13.64 4.33h-.13l-.1-.33h.59v10h-1.59l.12-.33h1.11zm-3.3-.33h.54l-.35.33h-.28zm-1.26 0h-5.08v2.53l.36-.1v-2.1h4.64zm2.47 9.67-.1.33h-3.72l.1-.33zm-4.64 0h-.63l-.8.33h1.32l.1-.33zm-2.55-1.28-.36.1v-.98l.36-.04zm0-2.9v-1.09l-.36.06v1.12l.36-.1zm5.54-5.49h-.5l-.15.66.39-.12.01-.05.01.05.34-.1zm.53 2.3-.34.11 1.13 4.92h-3.14l.3-1.34-.37.08-.91 3.93h.37l.53-2.33h3.3l.54 2.33h.37l-.59-2.54-1.18-5.15zm-1.29.4-.26 1.14-.38.07.25-1.09z" fill="#a4b4bf"/><path d="m3.35 7.74a.69.69 0 0 1 .4-.92l8.52-3.18c.38-.14.81.05.97.42a.69.69 0 0 1 -.4.92l-8.52 3.18a.77.77 0 0 1 -.97-.42zm0 3.1a.69.69 0 0 1 .4-.92l5.27-1.96c.38-.14.8.04.97.41a.69.69 0 0 1 -.4.93l-5.27 1.96a.77.77 0 0 1 -.97-.42zm.4 1.97a.69.69 0 0 0 -.4.93c.16.37.6.55.97.41l2-.74a.69.69 0 0 0 .4-.93.77.77 0 0 0 -.97-.41z" fill="#fff"/></svg>