<svg height="18" viewBox="0 0 18 18" width="18" xmlns="http://www.w3.org/2000/svg"><path d="m0 0h18v18h-18z" fill="#446ca9"/><path d="m9.03 15c.22 0 .55-.4.93-1.07l.06.26c2.36-3.11 2.97-5.98 2.98-7.02l-.23.1a3.68 3.68 0 0 0 -.77-2.83c.12-.23.3-.4.4-.48l-.65.19a3.8 3.8 0 0 0 -2.75-1.15 3.8 3.8 0 0 0 -2.74 1.15l-.66-.19c.1.08.28.25.4.48-.61.78-.92 1.8-.76 2.84a5.33 5.33 0 0 0 -.25-.1c.01 1.03.62 3.9 2.98 7.01l.07-.33c.4.7.75 1.14.98 1.14z" fill="#fff"/><g fill="#426cab"><ellipse cx="7.15" cy="5.53" rx=".62" ry=".63"/><ellipse cx="10.85" cy="5.53" rx=".61" ry=".63"/><path d="m12.26 6.67c0 1.4-.84 2.6-2.03 3.1a6.82 6.82 0 0 0 -.38 3.54l-.85 1.19-.81-1.18a7.3 7.3 0 0 0 -.42-3.53 3.35 3.35 0 0 1 -1.97-3.78c0 .75.6 1.36 1.33 1.36.62 0 1.14-.44 1.3-1.03l.6.87.59-.76c.18.54.67.93 1.26.93.73 0 1.33-.61 1.33-1.37v-.01c.04.22.06.45.06.68zm-.93-2.35a3.22 3.22 0 0 0 -4.66 0c1.53.26 2.15 1.58 2.35 2.08.76-1.44 1.2-1.86 2.3-2.1z"/></g></svg>