<svg height="18" viewBox="0 0 18 18" width="18" xmlns="http://www.w3.org/2000/svg"><path d="m0 0h18v18h-18z" fill="#f0f3fa"/><path d="m3.27 8.4a5.06 5.06 0 0 1 5.1.75c2.62 2 4.48 1.18 5.17.69-.55.86-2.5 2.12-5.9.2-.3-.17-.56-.35-.82-.53-.8-.58-1.57-1.12-3.55-1.12zm-1.27.78a5.26 5.26 0 0 1 5.18.84c2.61 1.99 4.4 1.46 5.09.96-.55.87-2.52 1.8-5.91-.11a8.55 8.55 0 0 1 -.85-.56c-.8-.57-1.55-1.12-3.51-1.12z" fill="#115a77"/><path d="m9.99 7.48c-1.28.75-2.3.7-2.66.57.86.74 2.24.6 3.5 0a5.3 5.3 0 0 1 2.65-.44c-.44-.43-1.9-1.06-3.5-.13zm1.17.78c-1.27.74-2.3.69-2.65.57.86.74 2.24.6 3.5 0a5.3 5.3 0 0 1 2.65-.44c-.44-.43-1.9-1.06-3.5-.13zm-1.3 1.35c.34.12 1.37.17 2.65-.57 1.6-.93 3.06-.3 3.49.13a5.3 5.3 0 0 0 -2.64.44c-1.27.6-2.64.74-3.5 0z" fill="#7ec7bc"/></svg>