<svg height="18" viewBox="0 0 18 18" width="18" xmlns="http://www.w3.org/2000/svg" xmlns:xlink="http://www.w3.org/1999/xlink"><linearGradient id="a"><stop offset="0" stop-color="#a0bd3b"/><stop offset="1" stop-color="#81933e"/></linearGradient><linearGradient id="b" gradientUnits="userSpaceOnUse" x1="6" x2="7.81" xlink:href="#a" y1="10.79" y2="10.79"/><linearGradient id="c" gradientUnits="userSpaceOnUse" x1="6" x2="14" xlink:href="#a" y1="8.92" y2="8.92"/><linearGradient id="d" gradientUnits="userSpaceOnUse" x1="7.56" x2="7.56" y1="11.58" y2="4.77"><stop offset=".08" stop-color="#a0bd3b" stop-opacity="0"/><stop offset=".15" stop-color="#a0bd3b"/><stop offset=".79" stop-color="#81933e"/></linearGradient><path d="m0 0h18v18h-18z" fill="#f0f3fa"/><path d="m7 8.47v.81l1.38.77v2.06l-1.9 1.15-1.86-1.15v-2.06l.95-.77v-.81l-1.42 1.03a.31.31 0 0 0 -.15.27v2.6c0 .12.06.22.15.27l2.2 1.3c.1.06.2.06.3 0l2.2-1.3c.1-.05.15-.15.15-.27v-2.6a.31.31 0 0 0 -.15-.27z" fill="#9fbd3b"/><path d="m6.41 9.34-.41.26v1.59c0 .14.07.26.18.34l1.16.72.5-.3v-.18l-1.22-.8v-1.45l-.2-.2z" fill="url(#b)"/><path d="m13.82 6.32-3.64-2.27a.34.34 0 0 0 -.36 0l-3.64 2.27a.4.4 0 0 0 -.18.34v1.39l.41-.26.2.2v-1.1l3.39-2.15 3.38 2.13v4.08l-3.38 2.18-.92-.6v.3l-.5.2 1.24.76a.34.34 0 0 0 .36 0l3.64-2.27a.4.4 0 0 0 .18-.33v-4.53a.4.4 0 0 0 -.18-.34z" fill="url(#c)"/><path d="m6.36 11.58c-.2 0-.36-.18-.36-.4v-4.51a.4.4 0 0 1 .18-.34l2.4-1.5c.17-.1.4-.04.5.15.1.18.04.29-.13.4l-2.33 1.49v4.3c0 .22-.06.4-.26.4z" fill="url(#d)"/></svg>