<svg height="18" viewBox="0 0 18 18" width="18" xmlns="http://www.w3.org/2000/svg"><path d="m0 0h18v18h-18z" fill="#f0f3fa"/><path d="m6.84 7h1.84v.32h-1.5v.96h1.39v.33h-1.39v1.15h-.34zm3.43 2.76-.82-2.76h.38l.56 1.98.67-1.98h.36l.65 1.98.62-1.98h.35l-.86 2.76h-.24l-.7-2.1-.76 2.1z" fill="#0162a7"/><path d="m3.91 8.73c0-1.3 1.55-1.78 2.25-1.8-1.06.76-1.12 1.33-1.13 1.69-.08 1.6 2.4 1.9 3.66 1.84-.51.22-1.27.3-1.58.3-2.6-.18-3.2-1.4-3.2-2.03z" fill="#1a8f3e"/><path d="m5.52 6c.93-.03 1.63.15 1.87.26-.85-.19-3.87.71-3.76 2.52.1 1.97 3.14 2.8 6 1.74 2.66-.98 5.55-.22 6.37.4-4.95-1.62-5.78.9-9.07 1.08-3.27.07-4.93-1.58-4.93-3 0-1.94 2.02-2.95 3.52-3z" fill="#0162a7"/><path d="m9.96 11.51a4.93 4.93 0 0 1 5.17-.48c-.95-.13-3.3-.21-5.17.48z" fill="#fdcd08"/></svg>