<svg height="18" width="18" xmlns="http://www.w3.org/2000/svg"><path d="m0 0h18v18h-18z" fill="#f0f3fa"/><path d="m10.292 6.8c-2.271 0-3.992 1.874-3.992 4.2h2.4c0-1.478 1.092-2.826 2.854-2.826 1.518 0 2.545 1.26 2.545 2.826h.303c-.011-2.326-1.838-4.2-4.11-4.2z" fill="#fcb126"/><path d="m8.995 5a5.995 5.995 0 0 0 -5.995 6h3c0-2.5 1.872-4.533 4.379-4.533s4.321 2.033 4.321 4.533h.3c-.01-3.315-2.692-6-6.005-6z" fill="#b31f29"/><path d="m11.4 8.6c-1.32 0-2.4 1.009-2.4 2.4h.3c0-.674.366-1.217.991-1.217s1.109.543 1.109 1.217h2.399c0-1.391-1.079-2.4-2.399-2.4z" fill="#7f2427"/></svg>