<svg fill="none" height="18" width="18" xmlns="http://www.w3.org/2000/svg"><path d="m0 0h18v18h-18z" fill="#063"/><g stroke="#fff" stroke-width=".3"><path d="m11 13c2.756-1.874 3.972-1.685 4.517-1.564-.102.363-1.517 1.564-2.017 1.564z"/><path d="m12.519 11.436c1.015-.87 2.453-.967 2.453-.967s-.06.665-.181.846"/><path d="m13.824 9.622s-.786.242-.943.484l-.362 1.33 1.088-.847c.277-.423.217-.967.217-.967zm-.217.968c.12-.142.447-.472.786-.666.338-.193 1.22-.241 1.607-.12 0 0-.314 1.124-1.184 1.51m-2.085-2.296c0 2.585-1.769 4.636-3.9 4.636-2.132 0-3.9-2.051-3.9-4.636 0-2.586 1.768-4.637 3.9-4.637 2.131 0 3.9 2.051 3.9 4.637z"/></g><path d="m9 12.07v-6.57c0-.435.416-.369.577-.308 1.874.665 2.423 2.385 2.423 2.566 0 .145-.06.242-.182.242h-.544c-.096 0-.201-.08-.241-.121l-1.033-1.22v4.84c.677-.338 1-1.116 1-1.5v-1.224c0-.145.12-.242.215-.242h.578c.242 0 .207.242.207.242v1.225c0 1.5-1.412 2.718-2 2.718h-.265c-.532 0-.715-.466-.735-.648zm-.526-5.68v-1.24c-1.474.349-2.484 1.559-2.726 3.444-.242 1.886.7 3.602 1.486 4.146h1.562c.048-.145-.02-.16-.06-.181-1.319-.66-1.981-2.612-1.88-3.56h1.376c.194 0 .242-.142.242-.182v-.637c0-.145-.12-.181-.181-.181h-1.293c.242-.87 1.053-1.61 1.474-1.61z" fill="#fff"/><path d="m3.874 10.469c-.181-.242.035-.968.035-.968s.57.182.69.423l.401 1.076" stroke="#fff" stroke-width=".3"/><path d="m3.5 11.5c-.66-.248-.558-1.031-.558-1.031a8.76 8.76 0 0 1 1.088.12c.531.09.686.119 1.23.663" stroke="#fff" stroke-width=".3"/><path d="m3.874 10.529c0-.345-.873-.665-1.149-.665h-.725s0 .423.06.544c.06.12.182.544 1.028.907m2.912 1.185c-.5-.5-2.822-1.125-3.097-1.125h-.747s.121.484.423.847c.303.362.999.778 1.421.778h2.5" stroke="#fff" stroke-width=".3"/></svg>