<svg height="18" viewBox="0 0 18 18" width="18" xmlns="http://www.w3.org/2000/svg"><path d="m0 0h18v18h-18z" fill="#093266"/><g fill="#fff"><path d="m8.84 13h-.48v-3.85c0-.98-.72-1.15-1.09-1.15h-2.54c-.58 0-.73-1.36-.73-2h4.36c.44 0 .48.53.48.7z"/><path d="m8.22 13h-.47v-1.75c0-.84-.86-1.25-1.23-1.25h-1.27c-.58 0-.72-1.15-.72-1.79.14.14.3.18.36.18h2.55c.58 0 .78.53.78.76z"/><path d="m5.61 10.63c-.29 0-.36-.12-.36-.18 0 1.05.31 1.91.7 1.91h.55c.44 0 .63.46.63.64h.46v-1.75c0-.42-.46-.62-.7-.62h-1.29zm3.55 2.37h.48v-3.85c0-.98.72-1.15 1.09-1.15h2.54c.58 0 .73-1.36.73-2h-4.36c-.44 0-.48.53-.48.7z"/><path d="m9.78 13h.47v-1.75c0-.84.89-1.25 1.25-1.25h1.27c.58 0 .7-1.15.7-1.79a.59.59 0 0 1 -.36.18h-2.55c-.58 0-.78.53-.78.76z"/><path d="m12.39 10.63c.29 0 .36-.12.36-.18 0 1.05-.31 1.91-.7 1.91h-.55c-.44 0-.63.46-.63.64h-.46v-1.75c0-.42.46-.62.7-.62z"/></g></svg>