<svg height="18" width="18" xmlns="http://www.w3.org/2000/svg"><path d="m0 0h18v18h-18z" fill="#ab1355"/><g fill="#fff"><path d="m8.942 7.613c.003-.042.04-.06.06-.065.028 0 .051.044.06.065l.043.621.32.221c.013.012.038.046.028.082s-.046.036-.064.032l-.523-.171z"/><path d="m8.444 8.09c-.023.307.225.56.352.649.013.016.034.057.013.093-.021.037-.077.026-.102.017-.302-.14-.517-.48-.56-.848a.798.798 0 0 1 .224-.622l-.223-.254h1.624l-.21.254c.21.095.241.554.23.772 0 .03-.012.093-.065.1-.052.006-.067-.051-.068-.08.008-.494-.283-.717-.62-.72-.335-.002-.566.255-.595.639z"/><path d="m9.9 9.253c.119.006.153-.052.156-.081 0-.065-.104-.094-.156-.101a9.222 9.222 0 0 0 -1.115-.118c-.35-.005-1.126.047-1.47.073.154-1.638.93-2.846 1.299-3.245h.737c1.076 1.15 1.44 2.859 1.489 3.569 0 .032.011.097.064.097.054 0 .068-.035.068-.053-.024-.815-.152-1.467-.213-1.691.09-.229.134-.464.145-.578h-.355a9.641 9.641 0 0 0 -.903-1.566l.184-.309h-1.71l.195.31c-.367.393-.754 1.224-.902 1.565h-.358c.017.274.104.483.146.578-.195.574-.227 1.604-.218 2.047 1.162-.67 2.769-.505 2.917-.497z"/><path d="m6 3v10.887c0 .022.038.113.194.113s.181-.08.181-.113v-10.512h5.25v11.25l-2.625-1.26-3 1.329v.306h4.396c.07 0 .104-.076.104-.141s-.061-.116-.092-.116l-3.154-.079 1.746-.777 3 1.113v-12z"/><path d="m8.89 3.848-.037 1.29h.297a211.65 211.65 0 0 1 -.041-1.29c0-.03-.009-.198-.113-.204-.082-.005-.104.134-.105.204zm-1.434 6.4.051 3.164c0 .046.028.084.074.088.037.003.06-.058.067-.088.06-.817.186-2.522.213-2.805.034-.353.174-.405.292-.428.095-.019.23.062.287.104-.02-.178-.152-.533-.511-.533-.36 0-.465.332-.473.498zm1.136-.05.047 2.847c0 .042.026.076.07.08.034.003.056-.052.062-.08.056-.735.175-2.269.2-2.523.032-.318.164-.365.275-.386.089-.017.216.056.27.094-.02-.16-.143-.48-.481-.48s-.436.299-.443.448zm1.119.014.048 2.932c0 .042.026.078.069.082.035.002.056-.054.063-.082.056-.758.175-2.337.2-2.6.032-.327.164-.375.275-.397.088-.017.216.058.269.097-.02-.165-.143-.494-.48-.494-.338 0-.437.308-.444.462z"/></g></svg>