<svg height="18" viewBox="0 0 18 18" width="18" xmlns="http://www.w3.org/2000/svg"><path d="m0 0h18v18h-18z" fill="#f0f3fa"/><path d="m11.03 11.54-1.53-.01 1.25.94-.49 1.53 1.24-.95 1.24.95-.49-1.53 1.25-.94h-1.53l-.47-1.53zm-5 0-1.53-.01 1.25.94-.49 1.53 1.24-.95 1.24.95-.49-1.53 1.25-.94h-1.53l-.47-1.53zm-1.5-4-1.53-.01 1.25.94-.49 1.53 1.24-.95 1.24.95-.49-1.53 1.25-.94h-1.53l-.47-1.53zm8 0-1.53-.01 1.25.94-.49 1.53 1.24-.95 1.24.95-.49-1.53 1.25-.94h-1.53l-.47-1.53zm-4-3-1.53-.01 1.25.94-.49 1.53 1.24-.95 1.24.95-.49-1.53 1.25-.94h-1.53l-.47-1.53z" fill="#dcab38"/></svg>