<svg height="18" viewBox="0 0 18 18" width="18" xmlns="http://www.w3.org/2000/svg" xmlns:xlink="http://www.w3.org/1999/xlink"><linearGradient id="a" gradientUnits="userSpaceOnUse" x1="6.67" x2="8.82" y1="8.84" y2="6.58"><stop offset="0" stop-color="#928e8e"/><stop offset=".49" stop-color="#ada597"/><stop offset="1" stop-color="#979897"/></linearGradient><linearGradient id="b" gradientUnits="userSpaceOnUse" x1="4.13" x2="8.84" y1="10.74" y2="7.11"><stop offset=".13" stop-color="#8b673e"/><stop offset=".19" stop-color="#d1cda9"/><stop offset=".24" stop-color="#c7c6c7"/><stop offset=".57" stop-color="#89878a"/><stop offset="1" stop-color="#adb1b7"/></linearGradient><linearGradient id="c" gradientUnits="userSpaceOnUse" x1="9.82" x2="13.4" y1="10.17" y2="7.1"><stop offset="0" stop-color="#baabaa"/><stop offset=".1" stop-color="#c2a17e"/><stop offset=".13" stop-color="#967166"/><stop offset=".18" stop-color="#d7e0ba"/><stop offset=".25" stop-color="#93959a"/><stop offset=".7" stop-color="#c2c5c9"/><stop offset=".95" stop-color="#a6a1a0"/><stop offset="1" stop-color="#dfdcd7"/></linearGradient><path d="m0 0h18v18h-18z" fill="#f0f3fa"/><ellipse cx="9" cy="9" fill="#e5e8d3" rx="7" ry="4"/><path d="m13.7 11.4c1.2-.69 1.8-1.55 1.8-2.4s-.6-1.71-1.8-2.4a9.67 9.67 0 0 0 -4.7-1.1c-1.86 0-3.52.43-4.7 1.1-1.2.7-1.8 1.56-1.8 2.4 0 .85.6 1.71 1.8 2.4a9.67 9.67 0 0 0 4.7 1.1c1.86 0 3.52-.43 4.7-1.1zm-4.7 1.6c3.87 0 7-1.8 7-4s-3.13-4-7-4-7 1.8-7 4 3.13 4 7 4z" fill="#3e62a9" fill-rule="evenodd"/><path d="m7.03 7-.9 2h1.38l.42-1h.87v-1z" fill="url(#a)"/><path d="m7.56 8.89v-.02c-.53-.13-.75-.81-.81-1.23l-.61 1.37h1.36l.05-.12z" fill-opacity=".7"/><path d="m6.4 8 .48-1h-1.51c-.16 0-.3.1-.35.24l-.97 2.58c-.21.57.24 1.18.88 1.18h3.12c.42 0 .75-.32.75-.71v-1.29h-1.2v.58c0 .14-.13.42-.28.42h-1.65c-.13 0-.22-.28-.18-.4l.59-1.6z" fill="url(#b)"/><path d="m5.19 7.05c.18.18.4.45.3.65-.13.3-.92 2.15-.95 2.35-.04.21-.1.59.64.59h3.12c.1 0 .33-.15.5-.27a.73.73 0 0 1 -.75.63h-3.12c-.64 0-1.1-.6-.88-1.18l.97-2.58c.03-.09.09-.15.17-.2z" opacity=".6"/><path d="m7.57 9.7c.01.02.03 0 .04 0 .11.08.24.17.34.16.2-.02.43-.3.17-.5a5.9 5.9 0 0 0 -.52-.37v.59c0 .04-.01.1-.03.13z" fill-opacity=".7"/><path d="m9.2 7v1h.87c.14 0 .25.13.25.26s-.1.2-.25.2h-.87v2.54h3.95c.47 0 .85-.35.85-.78v-.66c0-.54-.6-.98-1.2-.98v-.58h1.2v-1h-1.39c-.52 0-.94.39-.94.87v.87c0 .48.42.8.94.8h.19v.46h-2.4v-.45h.2c.52 0 .95-.43.95-.9v-.78c0-.48-.43-.87-.95-.87z" fill="url(#c)"/><path d="m10.07 8.45c.34.1.76.15.76-.34 0-.42-.4-.55-.61-.56h-1.02v.45h.87c.14 0 .25.13.25.26s-.1.2-.25.2zm2.31-1.42c.06.05.1.13.1.22 0 .15-.08.22-.08.37v1.04c0 .08-.06.28.24.43.08.05.16.08.23.11.26.1.46.19.46.56 0 .38-.27.43-.4.4l-.2-.16h.07v-.45h-.19c-.52 0-.94-.33-.94-.8v-.88c0-.4.3-.75.71-.84zm1.2 3.86c-.17-.26-.45-.24-.6-.25h-2.71c-.43 0-.68-.24-.67-.3v-1.03c0-.42-.16-.7-.4-.81v2.5h3.95a.9.9 0 0 0 .43-.11z" fill-opacity=".7"/></svg>