<svg height="18" width="18" xmlns="http://www.w3.org/2000/svg"><path d="m0 0h18v18h-18z" fill="#0099de"/><path d="m8.007 8.004h-1.153c-.475 0-.86-.369-.86-.823 0-.455.385-.823.86-.823h1.153v-.536c0-.962.255-1.679.733-2.135.476-.457 1.141-.685 2.027-.685.37 0 .683.026.96.07.411.064.71.408.71.806-.001.48-.429.856-.928.814a3.513 3.513 0 0 0 -.282-.011c-.784 0-1.193.407-1.193 1.304v.389h1.533c.47 0 .852.365.852.815s-.382.815-.852.815h-1.567v6.01c0 .544-.393.986-.962.986-.57 0-1.031-.442-1.031-.986z" fill="#fff"/></svg>