<svg height="18" width="18" xmlns="http://www.w3.org/2000/svg"><path d="m0 0h18v18h-18z" fill="#f0f3fa"/><path d="m9.75 12 1.65-2.1-.4-.9h-3z" fill="#a30094"/><path d="m4.5 10.65 2.1 3 .9-2.25v-2.1z" fill="#530473"/><path d="m9.45 14.4.3-2.4-1.75-3v3z" fill="#640376"/><path d="m8.1 4.35-2.55 1.2 1.95.95 2.1-.2z" fill="#b6529e"/><path d="m11.4 3.6-3.3.75 1.5 1.95 1.5.15z" fill="#e1008d"/><path d="m11 6 .4-2.4 1.65 1.8-2.05 1.6-.8-.25z" fill="#ed0076"/><path d="m13.5 6.75-.45-1.35-2.05 1.6z" fill="#f30095"/><path d="m13.05 7.35.45-.6-2.5.25h-3v1.5z" fill="#a40079"/><path d="m6.6 13.65 2.85.75-1.45-2.4h-1z" fill="#7c0e91"/><path d="m6.15 8.4-.6-2.85 1.45.45.35 4.05-2.85.6z" fill="#900098"/><path d="m7 6h4v1h-4z" fill="#f0f3fa"/><path d="m8 6v6h-1v-6z" fill="#f0f3fa"/><path d="m13.35 8.4-.3-1.05-5.05 1.15h2.5z" fill="#d50092"/><path d="m7 8.5h3.5v1h-3.5z" fill="#f0f3fa"/><path d="m11.4 9.9 1.95-1.5-2.85.1v1z" fill="#b60470"/></svg>