<svg height="18" width="18" xmlns="http://www.w3.org/2000/svg"><path d="m0 0h18v18h-18z" fill="#f0f3fa"/><path d="m7.09 4.992 1.75-.992v1.984zm-2.378 1.35 1.717-.993v1.985z" fill="#0055a3"/><path d="m7.09 7.664 1.75-.992v1.984z" fill="#d49e0f"/><path d="m9.468 6.342 1.783-.993v1.985z" fill="#429439"/><path d="m11.765 7.664 1.735-.992v1.984zm0 2.672 1.735-.992v1.984z" fill="#0055a3"/><path d="m9.468 9.048 1.783-.992v1.984z" fill="#d49e0f"/><path d="m9.468 11.691 1.783-.992v1.985z" fill="#429439"/><path d="m7.09 10.336 1.75-.992v1.984z" fill="#d49e0f"/><path d="m7.09 13.008 1.75-.992v1.984z" fill="#0055a3"/><path d="m4.712 9 1.717-.992v1.984z" fill="#429439"/><path d="m4.712 11.691 1.717-.992v1.985zm6.28-6.699-1.832-.992v1.984l1.83-.992z" fill="#0055a3"/><path d="m8.613 6.342-1.863-.993v1.985z" fill="#429439"/><path d="m6.316 7.664-1.816-.992v1.984zm-.081 2.672-1.735-.992v1.984z" fill="#0055a3"/><path d="m10.992 7.664-1.832-.992v1.984l1.83-.992z" fill="#d49e0f"/><path d="m13.37 6.342-1.799-.993v1.985l1.798-.992z" fill="#0055a3"/><path d="m13.37 9.048-1.799-.992v1.984l1.798-.992z" fill="#429439"/><path d="m13.37 11.691-1.8-.991v1.985l1.798-.993z" fill="#0055a3"/><path d="m10.992 10.336-1.832-.992v1.984l1.83-.992z" fill="#d49e0f"/><path d="m10.992 13.008-1.831-.992v1.984l1.83-.992z" fill="#0055a3"/><path d="m8.613 9-1.863-.992v1.984z" fill="#d49e0f"/><path d="m8.613 11.691-1.863-.991v1.985l1.863-.993z" fill="#429439"/></svg>