<svg height="18" viewBox="0 0 18 18" width="18" xmlns="http://www.w3.org/2000/svg"><path d="m0 0h18v18h-18z" fill="#f0f3fa"/><path d="m7.37 4c-1.03 1.34-2.1 3.42-1.67 5.5a2.9 2.9 0 0 1 -1.64-1.5 5.11 5.11 0 0 1 3.3-4z" fill="#8ac72c"/><path d="m12.03 4.8a2.6 2.6 0 0 0 -1.62-.49c-2.66 0-3.24 3.75-3.13 5.35 2 .13 3.64-.9 4.22-1.44-.38 2.44-2.87 2.84-4.07 2.73.2.71.94 2.09 1.5 3.05h.07c2.76 0 5-2.3 5-5.14 0-1.67-.77-3.13-1.97-4.07z" fill="#0073c4"/><path d="m7.74 13.84c-.64-.94-1.45-2.3-1.87-3.05a3.36 3.36 0 0 1 -1.87-1.64 5.11 5.11 0 0 0 3.74 4.69z" fill="#bae105"/></svg>