<svg height="18" viewBox="0 0 18 18" width="18" xmlns="http://www.w3.org/2000/svg"><path d="m0 0h18v18h-18z" fill="#f0f3fa"/><path d="m4.6 7.8-1.6 5.2h2.1l1.5-4.94c.28-.9 1.04-1.6 1.9-1.6h3.48l.45-1.46h-4.29a3.79 3.79 0 0 0 -3.55 2.8z" fill="#022c6b"/><path d="m6.55 9.1c.1-.33.39-.55.72-.55h1.67l-.28.92a.75.75 0 0 1 -.72.53h-1.64zm2.97-1.55c.1-.33.39-.55.72-.55h1.66l-.28.92a.75.75 0 0 1 -.71.53h-1.64z" fill="#022c6b"/><path d="m12.62 5.55c.09-.33.38-.55.72-.55h1.66l-.28.92a.75.75 0 0 1 -.72.53h-1.64z" fill="#d30536"/><path d="m9.11 9h2.16l-1.11 4h-2.16z" fill="#022c6b"/><path d="m12.23 7h2.16l-1.62 6h-2.15z" fill="#d30536"/></svg>