<svg height="18" viewBox="0 0 18 18" width="18" xmlns="http://www.w3.org/2000/svg"><path d="m0 0h18v18h-18z" fill="#f0f3fa"/><path d="m10.33 9.66c.2-.7-.23-1.43-.95-1.62a1.32 1.32 0 1 0 -.69 2.55c.72.2 1.45-.23 1.64-.93z" fill="#e57c27"/><path d="m10 4h-2v1.18c-1.14.28-2.1 1.01-2.67 1.99l1.46.83a2.65 2.65 0 0 1 2.3-1.33c.97 0 1.82.52 2.28 1.28l1.38-.78a4.29 4.29 0 0 0 -2.75-2z" fill="#fabc09"/><path d="m9.04 13.5v-1.62a2.62 2.62 0 0 1 -2.59-2.6c0-.47.13-.9.34-1.28l-1.46-.83a4.16 4.16 0 0 0 -.34 3.48l-.99.7 1.25 1.72.92-.66a4.3 4.3 0 0 0 2.87 1.1z" fill="#de0d1a"/><path d="m13.06 10.72a4.16 4.16 0 0 0 -.31-3.55l-1.38.78c.23.39.37.84.37 1.33a2.62 2.62 0 0 1 -2.7 2.6v1.62a4.3 4.3 0 0 0 2.81-1.04l1 .63 1.15-1.78z" fill="#0b308f"/></svg>