<svg height="18" viewBox="0 0 18 18" width="18" xmlns="http://www.w3.org/2000/svg"><path d="m0 0h18v18h-18z" fill="#074568"/><path d="m13.5 5.18a4.48 4.48 0 0 0 -3.59-1.16c-2.46.18-4.31 2.02-4.18 4.08l.03.31s-.45-.47-.37-2c0 0-1.12 2.75 1.72 4 0 0-1.42-2.09-.28-4.1 0 0-.8 2.53 1.2 3.53 0 0-1.26-2.15.36-3.57 1.6-1.42 3.47-.79 4.2-.4 0 0-2-1.96-4.7 0 0-.03 1.13-2.68 5.61-.69zm-3.63 9.82a4.74 4.74 0 0 0 2.77-2.66c1.07-2.32.5-4.93-1.27-5.83a2.12 2.12 0 0 0 -.28-.13s.62-.16 1.85.68c0 0-1.7-2.4-4.17-.46 0 0 2.44-.23 3.53 1.81 0 0-1.68-2-3.52-.69 0 0 2.41-.05 2.78 2.12a4.02 4.02 0 0 1 -1.8 4s2.62-.82 2.38-4.25c0 0 1.63 2.35-2.27 5.41zm-5.42-4.34a5.1 5.1 0 0 1 -.86-3.84c.63 5.07 3.39 4.74 3.39 4.74-2.98-1.46-2.38-4.25-2.38-4.25.05.85.49 2.84 2.46 3.58 1.98.73 3.12-1.49 3.12-1.49.2 2.32-2.29 2.87-2.29 2.87 2.23.01 3.24-2.32 3.24-2.32.4 3.2-2.43 3.58-2.43 3.58 1.3-.7 1.46-1.35 1.46-1.35l-.24.2c-1.63 1.16-4.08.4-5.48-1.72z" fill="#fff"/></svg>