<svg height="18" width="18" xmlns="http://www.w3.org/2000/svg"><path d="m0 0h18v18h-18z" fill="#006643"/><path d="m13.47 5h-6c-.7 0-1.04.34-1.28 1.32l-.3 1.16c0 .03.03.06.06.03 0 0 .35-.51.94-.51h5.08c.64 0 1.11-.32 1.24-.83l.29-1.14s0-.03-.03-.03zm-1 3h-5.73c-.69 0-1 .28-1.28 1.32l-.3 1.15c0 .03.03.06.06.03 0 0 .37-.5.96-.5h4.66c.73 0 1.24-.35 1.47-1.23l.2-.75zm-3.84 3h-2.63c-.68 0-1.02.28-1.26 1.1l-.25.87c0 .02 0 .03.03.03h2.5c.64 0 1.16-.37 1.4-1.18l.23-.79s-.01-.03-.03-.03z" fill="#72c642"/></svg>