<svg height="18" width="18" xmlns="http://www.w3.org/2000/svg"><path d="m0 0h18v18h-18z" fill="#f0f3fa"/><path d="m5.3 13.73.6-.8a5 5 0 0 1 5.35-8.4l.6-.81a6 6 0 0 0 -6.55 10.01z" fill="#f29d5e"/><path d="m9 15a6 6 0 0 0 3.67-10.75l-.6.8a5 5 0 0 1 -5.3 8.43l-.6.81c.83.45 1.8.71 2.83.71z" fill="#ffc315"/><path d="m9.35 6h-.75l-1.32 2.67h.76zm-1.67 3.33h-.78l-1.29 2.67h.76l1.3-2.67zm2.42-3.33h.77l-1.31 2.67h-.77zm-.9 3.33h-.77l-1.31 2.67h.76zm2.4-3.33h.77l-1.31 2.67h-.77l1.32-2.67zm-.9 3.33h-.77l-1.3 2.67h.76z" fill="#023f5c"/></svg>