<svg height="18" viewBox="0 0 18 18" width="18" xmlns="http://www.w3.org/2000/svg" xmlns:xlink="http://www.w3.org/1999/xlink"><linearGradient id="a"><stop offset="0" stop-color="#ddd"/><stop offset="1" stop-color="#676767"/></linearGradient><linearGradient id="b" gradientUnits="userSpaceOnUse" x1="9" x2="9" xlink:href="#a" y1="3" y2="6.53"/><linearGradient id="c"><stop offset="0" stop-color="#686868"/><stop offset=".48" stop-color="#676767" stop-opacity="0"/><stop offset="1" stop-color="#676767"/></linearGradient><linearGradient id="d" gradientUnits="userSpaceOnUse" x1="10.72" x2="7.19" xlink:href="#c" y1="4.76" y2="4.76"/><linearGradient id="e" gradientUnits="userSpaceOnUse" x1="11.12" x2="11.12" xlink:href="#a" y1="5.12" y2="8.65"/><linearGradient id="f" gradientUnits="userSpaceOnUse" x1="12.83" x2="9.31" xlink:href="#c" y1="6.88" y2="6.88"/><linearGradient id="g" gradientUnits="userSpaceOnUse" x1="13.24" x2="13.24" xlink:href="#a" y1="7.24" y2="10.76"/><linearGradient id="h" gradientUnits="userSpaceOnUse" x1="14.95" x2="11.43" xlink:href="#c" y1="9" y2="9"/><linearGradient id="i" gradientUnits="userSpaceOnUse" x1="11.12" x2="11.12" xlink:href="#a" y1="9.35" y2="12.88"/><linearGradient id="j" gradientUnits="userSpaceOnUse" x1="12.83" x2="9.31" xlink:href="#c" y1="11.12" y2="11.12"/><linearGradient id="k"><stop offset="0" stop-color="#7a9acd"/><stop offset=".92" stop-color="#00398b"/></linearGradient><linearGradient id="l" gradientUnits="userSpaceOnUse" x1="9" x2="9" xlink:href="#k" y1="7.24" y2="10.76"/><linearGradient id="m"><stop offset="0" stop-color="#003174"/><stop offset=".48" stop-color="#003e8e" stop-opacity="0"/><stop offset="1" stop-color="#003c8d"/></linearGradient><linearGradient id="n" gradientUnits="userSpaceOnUse" x1="10.71" x2="7.19" xlink:href="#m" y1="9" y2="9"/><linearGradient id="o" gradientUnits="userSpaceOnUse" x1="6.88" x2="6.88" xlink:href="#k" y1="9.35" y2="12.88"/><linearGradient id="p" gradientUnits="userSpaceOnUse" x1="8.6" x2="5.07" xlink:href="#m" y1="11.12" y2="11.12"/><linearGradient id="q" gradientUnits="userSpaceOnUse" x1="9" x2="9" xlink:href="#k" y1="11.47" y2="15"/><linearGradient id="r" gradientUnits="userSpaceOnUse" x1="10.71" x2="7.19" xlink:href="#m" y1="13.23" y2="13.23"/><linearGradient id="s" gradientUnits="userSpaceOnUse" x1="6.88" x2="6.88" xlink:href="#k" y1="5.12" y2="8.65"/><linearGradient id="t" gradientUnits="userSpaceOnUse" x1="8.58" x2="5.07" xlink:href="#m" y1="6.88" y2="6.88"/><linearGradient id="u" gradientUnits="userSpaceOnUse" x1="4.76" x2="4.76" xlink:href="#k" y1="7.24" y2="10.76"/><linearGradient id="v" gradientUnits="userSpaceOnUse" x1="6.48" x2="2.96" xlink:href="#m" y1="9" y2="9"/><path d="m0 0h18v18h-18z" fill="#f0f3fa"/><path d="m8.63 3.15c.2-.2.53-.2.74 0l1.23 1.25c.2.2.2.53 0 .73l-1.23 1.25c-.2.2-.53.2-.74 0l-1.23-1.25a.52.52 0 0 1 0-.73l1.24-1.25z" fill="url(#b)"/><path d="m8.63 3.15c.2-.2.53-.2.74 0l1.23 1.25c.2.2.2.53 0 .73l-1.23 1.25c-.2.2-.53.2-.74 0l-1.23-1.25a.52.52 0 0 1 0-.73l1.24-1.25z" fill="url(#d)"/><path d="m10.75 5.27c.2-.2.53-.2.73 0l1.25 1.25c.2.2.2.53 0 .73l-1.25 1.25c-.2.2-.53.2-.73 0l-1.25-1.25a.52.52 0 0 1 0-.73z" fill="url(#e)"/><path d="m10.75 5.27c.2-.2.53-.2.73 0l1.25 1.25c.2.2.2.53 0 .73l-1.25 1.25c-.2.2-.53.2-.73 0l-1.25-1.25a.52.52 0 0 1 0-.73z" fill="url(#f)"/><path d="m12.87 7.4c.2-.2.53-.2.73 0l1.25 1.24c.2.2.2.53 0 .73l-1.25 1.24c-.2.2-.53.2-.73 0l-1.25-1.24a.52.52 0 0 1 0-.73z" fill="url(#g)"/><path d="m12.87 7.4c.2-.2.53-.2.73 0l1.25 1.24c.2.2.2.53 0 .73l-1.25 1.24c-.2.2-.53.2-.73 0l-1.25-1.24a.52.52 0 0 1 0-.73z" fill="url(#h)"/><path d="m10.75 9.5c.2-.2.53-.2.73 0l1.25 1.25c.2.2.2.53 0 .73l-1.25 1.25c-.2.2-.53.2-.73 0l-1.25-1.25a.52.52 0 0 1 0-.73z" fill="url(#i)"/><path d="m10.75 9.5c.2-.2.53-.2.73 0l1.25 1.25c.2.2.2.53 0 .73l-1.25 1.25c-.2.2-.53.2-.73 0l-1.25-1.25a.52.52 0 0 1 0-.73z" fill="url(#j)"/><path d="m8.63 7.4c.2-.2.53-.2.73 0l1.24 1.24c.2.2.2.53 0 .73l-1.24 1.24c-.2.2-.53.2-.73 0l-1.24-1.24a.52.52 0 0 1 0-.73z" fill="url(#l)"/><path d="m8.63 7.4c.2-.2.53-.2.73 0l1.24 1.24c.2.2.2.53 0 .73l-1.24 1.24c-.2.2-.53.2-.73 0l-1.24-1.24a.52.52 0 0 1 0-.73z" fill="url(#n)"/><path d="m6.52 9.5c.2-.2.53-.2.73 0l1.25 1.25c.2.2.2.53 0 .73l-1.25 1.25c-.2.2-.53.2-.73 0l-1.25-1.25a.52.52 0 0 1 0-.73z" fill="url(#o)"/><path d="m6.52 9.5c.2-.2.53-.2.73 0l1.25 1.25c.2.2.2.53 0 .73l-1.25 1.25c-.2.2-.53.2-.73 0l-1.25-1.25a.52.52 0 0 1 0-.73z" fill="url(#p)"/><path d="m8.63 11.62c.2-.2.53-.2.73 0l1.24 1.25c.2.2.2.53 0 .73l-1.24 1.25c-.2.2-.53.2-.73 0l-1.24-1.25a.52.52 0 0 1 0-.73z" fill="url(#q)"/><path d="m8.63 11.62c.2-.2.53-.2.73 0l1.24 1.25c.2.2.2.53 0 .73l-1.24 1.25c-.2.2-.53.2-.73 0l-1.24-1.25a.52.52 0 0 1 0-.73z" fill="url(#r)"/><path d="m6.51 5.27c.2-.2.53-.2.73 0l1.24 1.25c.2.2.2.53 0 .73l-1.24 1.25c-.2.2-.53.2-.73 0l-1.24-1.25a.52.52 0 0 1 0-.73l1.23-1.25z" fill="url(#s)"/><path d="m6.51 5.27c.2-.2.53-.2.73 0l1.24 1.25c.2.2.2.53 0 .73l-1.24 1.25c-.2.2-.53.2-.73 0l-1.24-1.25a.52.52 0 0 1 0-.73l1.23-1.25z" fill="url(#t)"/><path d="m4.4 7.39c.2-.2.53-.2.73 0l1.25 1.24c.2.2.2.53 0 .74l-1.25 1.23c-.2.2-.53.2-.73 0l-1.25-1.23a.52.52 0 0 1 0-.74l1.25-1.23z" fill="url(#u)"/><path d="m4.4 7.39c.2-.2.53-.2.73 0l1.25 1.24c.2.2.2.53 0 .74l-1.25 1.23c-.2.2-.53.2-.73 0l-1.25-1.23a.52.52 0 0 1 0-.74l1.25-1.23z" fill="url(#v)"/></svg>