<svg height="18" viewBox="0 0 18 18" width="18" xmlns="http://www.w3.org/2000/svg"><path d="m0 0h18v18h-18z" fill="#f0f3fa"/><path d="m12 9.26-.68 1.97a1.64 1.64 0 0 0 -.67-.23c-1.97 0-2.77 2.86-2.77 3.43 0 .28 0 .57-.44.57s-.44-.54-.44-.9c.55-3.9 3.8-5.1 4.26-5.1.36 0 .64.17.74.26z" fill="#005caa"/><circle cx="8" cy="5" fill="#ee1c25" r="1"/><path d="m12 5.5-.76 2.07c-.12-.07-.42-.2-.66-.2-2.16 0-3.49 4.54-3.49 4.84s.21.5.4.5c.14 0 .36-.1.42-.14v.17c-.12.08-.5.26-.76.26-.7 0-1.15-.66-1.15-1.28 0-3.4 3.67-6.78 5-6.72.6.03.92.33 1 .5z" fill="#005caa"/></svg>