<svg height="18" viewBox="0 0 18 18" width="18" xmlns="http://www.w3.org/2000/svg"><path d="m0 0h18v18h-18z" fill="#f0f3fa"/><path d="m14.5 8h-11l.21 2h3.37c.66-.58 1.2-.9 1.95-.9.55 0 1.36.2 1.89.9h3.37z" fill="#49c7ed"/><path d="m6.94 9.63c-1.26 1.36-1.86 3.65-1.95 4l1.41.37c.32-1.27 1.36-3.87 2.59-3.87s2.27 2.6 2.59 3.87l1.42-.36c-.09-.36-.69-2.65-1.95-4.01l-.14-.15h-3.83z" fill="#005f9e"/><path d="m7.08 10h3.84c-.53-.6-1.16-1-1.92-1s-1.4.4-1.92 1z" fill="#001738"/><path d="m9 7c1.5 0 1.5-2.92 1.5-2.92v-.58l-3 .58s0 2.92 1.5 2.92z" fill="#005f9e"/></svg>