<svg height="18" viewBox="0 0 18 18" width="18" xmlns="http://www.w3.org/2000/svg"><path d="m0 0h18v18h-18z" fill="#f0f3fa"/><g fill="#2f3a68"><path d="m9 14a5 5 0 0 0 5-5h-2.32c-.49.25-.86.76-1.12 1.25h2.24a4 4 0 1 1 .07-2.25h1.03a5 5 0 1 0 -4.9 6z"/><path d="m6.77 6h2.31c-.77.54-1.16 1.45-1.33 1.75h-2.19c.16-.78.9-1.48 1.2-1.75z"/><path d="m11.11 6c.65.32 1.23 1.72 1.33 2l-2.03.01-.4.49.4.5h.93c-.64.56-.9.97-.97 1.25-1.25 0-1.56 2.06-1.56 2.5a3.62 3.62 0 0 1 -1.69-.63c0-3.75 1.76-5.67 2.6-6.12h1.4z"/></g></svg>