<svg height="18" viewBox="0 0 18 18" width="18" xmlns="http://www.w3.org/2000/svg"><path d="m0 0h18v18h-18z" fill="#ceae1d"/><path d="m5 7.94c-.03-1.05.57-2.03 1.53-2.03.54 0 .94.28 1.11.42l.45-.42c-.34-.29-.69-.91-1.46-.91-1.67 0-2.67 1.5-2.63 2.97.02.93.39 1.92 1.15 2.67 1.25 1.2 2.5 2.3 3.85 3.36l.16-.14a39.32 39.32 0 0 0 3.6-3.24c.7-.74 1.24-1.69 1.24-2.67 0-.7-.25-1.42-.67-1.97a2.32 2.32 0 0 0 -1.83-.98 2.48 2.48 0 0 0 -2.07 1.08l-.01.02.42.27.43.25.06-.07a1.5 1.5 0 0 1 1.17-.54c.38 0 .98.14 1.27.51.25.33.24.8.23 1.23v.2c0 .61-.35 1.33-.96 1.97-.9.96-2.2 2.07-2.89 2.65l-.15.13c-.65-.53-2.1-1.77-3.15-2.8a2.85 2.85 0 0 1 -.85-1.96z" fill="#fff"/><path d="m5.3 9.16-.71.78c-.39-.6-.6-1.22-.6-2.14.01-1.33.91-2.8 2.51-2.8.5 0 .89.14 1.19.32a.85.85 0 0 1 1.01.83.85.85 0 1 1 -1.7-.05c-.13-.05-.3-.08-.5-.08-.94 0-1.5 1-1.5 1.78 0 .37.07.84.3 1.36zm7.33-.02.71.76c.4-.6.66-1.18.66-2.1 0-1.33-.88-2.8-2.5-2.8-.5 0-.91.13-1.23.3h-.12a.85.85 0 1 0 .85.8c.14-.05.3-.08.5-.08.95 0 1.5 1 1.5 1.78 0 .37-.13.93-.37 1.34z" fill="#025a63"/></svg>