<svg height="18" viewBox="0 0 18 18" width="18" xmlns="http://www.w3.org/2000/svg"><path d="m0 0h18v18h-18z" fill="#e86e33"/><g fill="#f9f9f9"><path d="m7.83 6.13.17-.93a3.1 3.1 0 0 0 -1.13-.2c-.67 0-1.39.23-1.64 1.58l-.84 4.36a1.2 1.2 0 0 1 -1.17 1.06l-.22.98c.74.07 2.3-.17 2.6-1.68.2-.95.45-2.22.65-3.27h1.19l.2-1.03h-1.19l.08-.42c.03-.2.2-.58.63-.58s.63.08.67.13zm.35.87h1.6l.29 2.87 1.23-2.86 1.7-.01-.17 1h-.63l-2.5 5h-1.7l.27-1h.73l.34-.62-.64-3.38h-.7l.17-1zm6.69 0h-1.55l-.2 1h.51l-.63 3h1.83l.17-1h-.76z"/><circle cx="14.5" cy="5.5" r=".5"/></g></svg>