<svg height="18" viewBox="0 0 18 18" width="18" xmlns="http://www.w3.org/2000/svg"><path d="m0 0h18v18h-18z" fill="#f0f3fa"/><path d="m7 5.67v4.6c0 .54.02 1.13.4 1.52.93.91 2.25.96 3.15.07.4-.4.46-.86.45-1.65v-4.56h-.01c-.6-.1-.92-.14-1.51-.15v4.7c0 .19-.15.52-.49.52-.31 0-.51-.2-.51-.52v-4.7c-.4 0-1.02.09-1.48.17zm6.27 2.36c.28.13.62.28.77.46.63.77-.37 1.21-.95 1.47l-.09.04v-2.09zm-1.69 4.12a7.85 7.85 0 0 0 3.36-1.38c.77-.6 1.06-1.21 1.06-1.8 0-1.23-1.4-2.32-2.9-2.8a13.4 13.4 0 0 0 -1.52-.4zm-5.15 0c-1.48-.12-4.43-1.4-4.43-3.19 0-1.73 2.88-3.06 4.43-3.2v1.77c-.58 0-2.11.5-2.49 1-.52.7.4 1.14.9 1.4l.16.07v-1.76h1.43z" fill="#272a2f"/></svg>