<svg height="18" viewBox="0 0 18 18" width="18" xmlns="http://www.w3.org/2000/svg" xmlns:xlink="http://www.w3.org/1999/xlink"><linearGradient id="a" gradientUnits="userSpaceOnUse" x1="6.47" x2="5.04" y1="8.6" y2="8.03"><stop offset="0" stop-color="#53b3dd"/><stop offset="1" stop-color="#53b3dd" stop-opacity="0"/></linearGradient><path d="m0 0h18v18h-18z" fill="#f0f3fa"/><path d="m12.37 9h-2.04l-.48 2.32c-.77 0-2.16-.04-2.16-1.85 0-1.82 1.49-2.77 2.8-2.77a3.7 3.7 0 0 1 2.12.65l.39-1.85c-.21-.17-.96-.5-2.26-.5s-2.9.68-3.46 1l-1.72 4.82c.22.98 1.42 2.18 3.09 2.18a9.2 9.2 0 0 0 3.12-.6z" fill="#0c3342"/><path d="m8.33 3-3.83 11v-7.35z" fill="url(#a)"/></svg>