<svg fill="none" height="18" width="18" xmlns="http://www.w3.org/2000/svg" xmlns:xlink="http://www.w3.org/1999/xlink"><linearGradient id="a" gradientUnits="userSpaceOnUse" x1="9" x2="9" y1="4" y2="14"><stop offset="0" stop-color="#4adeff"/><stop offset="1" stop-color="#0e8ed5"/></linearGradient><path d="m0 0h18v18h-18z" fill="#f0f3fa"/><g fill="url(#a)"><path d="m8.688 11.5h3.312v-.781h-3.313v.781z"/><path clip-rule="evenodd" d="m5.999 7.516c0-.561.454-1.016 1.015-1.016h1.11v3.516c0 .82-.602 1.484-1.422 1.484h-.39v-.781h.39a.703.703 0 0 0 .703-.703v-.077h-.39c-.562 0-1.016-.455-1.016-1.016zm1.406 1.642v-1.878h-.39a.234.234 0 0 0 -.235.235v1.407c0 .13.105.235.234.235h.39z" fill-rule="evenodd"/><path d="m8.688 6.5v3.5h.78v-2.719h.56v2.719h.625v-2.719h.3c.13 0 .235.105.235.235v2.484h.812v-2.484c0-.561-.485-1.016-1.046-1.016h-2.267z"/><path clip-rule="evenodd" d="m4 5.563c0-.863.7-1.563 1.563-1.563h6.875c.862 0 1.562.7 1.562 1.563v6.875c0 .862-.7 1.562-1.563 1.562h-6.873c-.864 0-1.564-.7-1.564-1.563v-6.873zm1.563-.938h6.875c.517 0 .937.42.937.938v6.875c0 .517-.42.937-.938.937h-6.873a.937.937 0 0 1 -.938-.938v-6.873c0-.518.42-.938.938-.938z" fill-rule="evenodd"/></g></svg>