<svg height="18" viewBox="0 0 18 18" width="18" xmlns="http://www.w3.org/2000/svg"><path d="m0 0h18v18h-18z" fill="#f0f3fa"/><path d="m9.7 4.7c.2-.19.3-.42.3-.7s-.1-.51-.3-.7a.97.97 0 0 0 -.7-.3c-.28 0-.51.1-.7.3-.2.19-.3.42-.3.7s.1.51.3.7c.19.2.42.3.7.3s.51-.1.7-.3zm-.24-.7a.45.45 0 1 1 -.9 0 .45.45 0 0 1 .9 0z" fill="#16ba19"/><g fill="#0870f6"><path d="m7.25 7.5a1.25 1.25 0 1 0 0-2.5 1.25 1.25 0 0 0 0 2.5zm3.5 0a1.25 1.25 0 1 0 0-2.5 1.25 1.25 0 0 0 0 2.5z"/><path d="m5.7 6.7c.2-.19.3-.42.3-.7s-.1-.51-.3-.7a.96.96 0 0 0 -.7-.3c-.28 0-.51.1-.7.3-.2.19-.3.42-.3.7s.1.51.3.7c.19.2.42.3.7.3s.51-.1.7-.3zm-.24-.7a.45.45 0 1 1 -.9 0 .45.45 0 0 1 .9 0zm8.24.7c.2-.19.3-.42.3-.7s-.1-.51-.3-.7a.96.96 0 0 0 -.7-.3c-.28 0-.51.1-.7.3-.2.19-.3.42-.3.7s.1.51.3.7c.19.2.42.3.7.3s.51-.1.7-.3zm-.25-.7a.45.45 0 1 1 -.9 0 .45.45 0 0 1 .9 0zm-7.5 4.25a1.25 1.25 0 1 0 0-2.5 1.25 1.25 0 0 0 0 2.5zm6.3 0a1.25 1.25 0 1 0 0-2.5 1.25 1.25 0 0 0 0 2.5zm-5 2.75a1.25 1.25 0 1 0 0-2.5 1.25 1.25 0 0 0 0 2.5zm3.5 0a1.25 1.25 0 1 0 0-2.5 1.25 1.25 0 0 0 0 2.5z"/><path d="m5.7 12.7c.2-.19.3-.42.3-.7s-.1-.51-.3-.7a.96.96 0 0 0 -.7-.3c-.28 0-.51.1-.7.3-.2.19-.3.42-.3.7s.1.51.3.7c.19.2.42.3.7.3s.51-.1.7-.3zm-.24-.7a.45.45 0 1 1 -.91 0 .45.45 0 0 1 .9 0zm8.24.7c.2-.19.3-.42.3-.7s-.1-.51-.3-.7a.96.96 0 0 0 -.7-.3c-.28 0-.51.1-.7.3-.2.19-.3.42-.3.7s.1.51.3.7c.19.2.42.3.7.3s.51-.1.7-.3zm-.25-.7a.45.45 0 1 1 -.9 0 .45.45 0 0 1 .9 0zm-3.75 2.7c.2-.19.3-.42.3-.7s-.1-.51-.3-.7a.96.96 0 0 0 -.7-.3c-.28 0-.51.1-.7.3-.2.19-.3.42-.3.7s.1.51.3.7c.19.2.42.3.7.3s.51-.1.7-.3zm-.25-.7a.45.45 0 1 1 -.9 0 .45.45 0 0 1 .9 0z"/></g></svg>