<svg height="18" width="18" xmlns="http://www.w3.org/2000/svg"><path d="m0 0h18v18h-18z" fill="#f0f3fa"/><path d="m5.64 9.86c-.35 1.04-.18 2.2.93 3.51a4.98 4.98 0 0 0 4.74.06c.06-.67.11-1.34.11-1.97-.24.05-.5.08-.76.08a9.85 9.85 0 0 1 -3.63-.96c-.43-.19-.9-.44-1.39-.72z" fill="#3993d0"/><path d="m4.34 10.83a4.96 4.96 0 0 0 2.15 2.5l.08.04a5.076 5.076 0 0 1 -2.23-2.54zm3.1-6.21c-.31 0-.65.03-1.03.1a4.93 4.93 0 0 0 -2.41 4.38v-.3c.54.37 1.09.74 1.63 1.06.44-1.3 1.7-2.4 2.96-3.35.38-.3.83-.57 1.32-.85a3.1 3.1 0 0 0 -2.47-1.04z" fill="#3cc1ce"/><path d="m4 8.8v.3a5 5 0 0 0 2.57 4.26c-1.11-1.3-1.28-2.46-.93-3.5-.54-.3-1.09-.69-1.64-1.06z" fill="#008ab1"/><path d="m11.46 4.66c.01 0 .02 0 .03.02l.17.1c-.6.28-1.2.58-1.74.89.9 1.03 1.22 2.67 1.42 4.23.06.47.08 1 .08 1.56 1.08-.2 2-.94 2.57-2.55v.22a5 5 0 0 0 -2.53-4.47zm-2.46-.66c-.85 0-1.71.22-2.5.67h-.01a5.08 5.08 0 0 1 2.49-.67z" fill="#32bbed"/><path d="m14 8.9c-.58 1.62-1.5 2.35-2.58 2.56 0 .63-.05 1.3-.1 1.97a5.06 5.06 0 0 0 2.68-4.3v-.22z" fill="#0087cb"/><path d="m9 4a5.02 5.02 0 0 0 -2.58.72c.37-.07.72-.1 1.04-.1 1.12 0 1.89.4 2.46 1.05.55-.31 1.14-.61 1.75-.9a1.5 1.5 0 0 0 -.17-.1l-.03-.01a5.05 5.05 0 0 0 -2.47-.66z" fill="#00abc7"/></svg>