<svg height="18" viewBox="0 0 18 18" width="18" xmlns="http://www.w3.org/2000/svg" xmlns:xlink="http://www.w3.org/1999/xlink"><linearGradient id="a" gradientUnits="userSpaceOnUse" x1="13.18" x2="7.35" y1="6.45" y2="7.57"><stop offset=".16" stop-color="#f7b215"/><stop offset=".76" stop-color="#8b4602"/></linearGradient><linearGradient id="b" gradientUnits="userSpaceOnUse" x1="12.08" x2="3.87" y1="4.97" y2="8.43"><stop offset="0" stop-color="#ed7803"/><stop offset="1" stop-color="#f6b214"/></linearGradient><linearGradient id="c" gradientUnits="userSpaceOnUse" x1="4.65" x2="10.63" y1="11.39" y2="11.23"><stop offset=".1" stop-color="#064f93"/><stop offset=".79" stop-color="#0183c9"/></linearGradient><linearGradient id="d" gradientUnits="userSpaceOnUse" x1="4.63" x2="14.2" y1="12" y2="9.44"><stop offset=".11" stop-color="#0180c6"/><stop offset=".88" stop-color="#004189"/></linearGradient><path d="m0 0h18v18h-18z" fill="#f0f3fa"/><path d="m10.65 5.5a4.8 4.8 0 0 0 -3.28 1.65c.29-.7 1-2.18 1.47-2.33.6-.2 2.04-.1 2.88.24.67.27 1.37 1.2 1.63 1.62a4.18 4.18 0 0 0 -2.7-1.18z" fill="url(#a)"/><path d="m4 8.8c.18.1.48.2.9.2.71 0 1.64-.54 2.7-2.11 1.09-1.57 2.09-1.89 3.16-1.89 1.08 0 2.05.9 2.63 1.72a4.98 4.98 0 0 0 -4.41-2.72 5.13 5.13 0 0 0 -4.98 4.8z" fill="url(#b)"/><path d="m7.35 12.5a4.8 4.8 0 0 0 3.28-1.65c-.29.7-1 2.18-1.47 2.33-.6.2-2.04.1-2.88-.24a4.55 4.55 0 0 1 -1.63-1.62c.4.4 1.5 1.18 2.7 1.18z" fill="url(#c)"/><path d="m14 9.2c-.18-.1-.48-.2-.9-.2-.71 0-1.64.54-2.7 2.11-1.09 1.57-2.09 1.89-3.16 1.89-1.08 0-2.05-.9-2.63-1.72a4.98 4.98 0 0 0 4.41 2.72 5.13 5.13 0 0 0 4.98-4.8z" fill="url(#d)"/><circle cx="9" cy="9" fill="#ef8507" r="2"/><circle cx="8.76" cy="8.75" fill="#f39a0c" r="1.65"/><circle cx="8.28" cy="8.33" fill="#f7b214" r=".99"/></svg>