<svg height="18" width="18" xmlns="http://www.w3.org/2000/svg"><path d="m0 0h18v18h-18z" fill="#004a8f"/><path d="m8 11.853h-1.12v-.524c-.405.35-.941.671-1.726.671-2.101 0-3.154-1.61-3.154-2.998 0-1.387 1.042-3.002 3.122-3.002s2.866 1.739 2.866 1.739l-.941.528s-.649-1.15-1.904-1.15-1.984 1.015-1.984 1.885.74 1.875 2.005 1.875c.877 0 1.492-.55 1.716-.857h-1.68v-1.048h2.8zm2-2.87h2.857v1.043h-1.714c.223.306.816.852 1.692.852 1.266 0 2.006-1.005 2.006-1.876 0-.87-.73-1.885-1.984-1.885-1.255 0-1.904 1.15-1.904 1.15l-.941-.528s.787-1.739 2.866-1.739c2.08 0 3.122 1.615 3.122 3.002 0 1.388-1.053 2.998-3.154 2.998-.785 0-1.298-.32-1.703-.67v.522l-1.143.001z" fill="#fff"/></svg>