<svg fill="none" height="18" viewBox="0 0 18 18" width="18" xmlns="http://www.w3.org/2000/svg"><path d="m0 13h18v5h-18z" fill="#4ef8f8"/><path d="m0 0h18v13h-18z" fill="#084c5f"/><path d="m5.5427 9.18192c-1.03359.31867-1.31613 1.69668-.38518 2.28458v.0531c-.27355.1505-1.34203 1.0945-.83986 1.4795h.5097c.18057 0 .52432.0174.67449-.0996.11966-.0932.09759-.2967.15855-.4235.15623-.3252.50366-.4554.87282-.476h2.80634s1.58524-.0175 2.21504.0795c.2496.0648.4941.1556.5895.3972.0503.1277.0343.4308.155.5224h1.2774c.1769-.9337-.3667-1.8633-1.3206-1.9263-1.1018-.0728-4.12696-.0728-4.12696-.0728-.48759 0-2.11685-.051-2.15554-.8084-.01362-.26662.30793-.48838.55982-.49141.69543-.00829 1.19199.29981 2.14598.29981 1.4847 0 3.833-.27293 4.0618-2.09319.0766-.60928-.0967-1.07735-.265-1.647.7926 0 1.1543.05653 1.658-.58442.0906-.11535.4064-.38833.3133-.55239-.0918-.12208-.7105-.12208-.8708-.12208h-3.67761c-1.73864 0-4.65899-.10923-4.99863 2.05583-.04358.27778-.04786.62501-.00633.90319.07293.48842.45454.79933.64877 1.22198zm2.58624-3.11869c.85852-.11815 2.15066-.05472 2.83306.52652 1.2108 1.03123-.1834 2.17132-1.30157 2.33841-.98756.1476-2.20815.10893-3.01423-.54398-1.34753-1.09154.40676-2.17282 1.48274-2.32095z" fill="#fff"/></svg>