<svg height="18" viewBox="0 0 18 18" width="18" xmlns="http://www.w3.org/2000/svg"><path d="m0 0h18v18h-18z" fill="#f0f3fa"/><path d="m13.42 6.53a1.48 1.48 0 0 0 .58-.4v7.87h-7.88c.2-.2.31-.44.34-.71l.17.17.48-.48-1.11-1.1-.86.86.4.41.37-.36c0 .1-.01.21-.04.31a.8.8 0 0 1 -.43.5.68.68 0 0 1 -.27.04.78.78 0 0 1 -.27-.08 1 1 0 0 1 -.44-.44.67.67 0 0 1 -.04-.54.61.61 0 0 1 .14-.23c.1-.09.2-.15.34-.18a.67.67 0 0 1 .38 0l.1-.74a1.11 1.11 0 0 0 -.67 0 1.52 1.52 0 0 0 -.71.48v-7.91h7.91a1.7 1.7 0 0 0 -.4.58 1.5 1.5 0 0 0 1.91 1.95zm-.77-.75a1.01 1.01 0 0 1 -.4-.4.75.75 0 0 1 -.1-.27c0-.09 0-.18.03-.27.03-.1.08-.18.17-.26a.69.69 0 0 1 .25-.17.57.57 0 0 1 .28-.03.97.97 0 0 1 .76.75c0 .1 0 .18-.03.28a.66.66 0 0 1 -.17.26.7.7 0 0 1 -.26.17.64.64 0 0 1 -.27.03.8.8 0 0 1 -.26-.1zm-2.85 2.4a1.43 1.43 0 0 1 -.42-1 1.53 1.53 0 0 1 .46-1.12c.2-.19.42-.32.65-.39s.45-.07.66 0l-.13.75a.48.48 0 0 0 -.27-.05.57.57 0 0 0 -.23.08.84.84 0 0 0 -.19.14.63.63 0 0 0 -.18.54.86.86 0 0 0 .25.48c.07.07.16.13.24.17.1.05.18.08.28.09a.64.64 0 0 0 .51-.2c.06-.04.1-.1.14-.18a.64.64 0 0 0 .07-.23c.01-.08 0-.17-.04-.25l.74-.2c.06.15.08.3.06.47-.03.17-.08.34-.16.5-.09.16-.2.3-.31.42a1.42 1.42 0 0 1 -1.1.42c-.2-.01-.38-.05-.56-.13a1.49 1.49 0 0 1 -.47-.31zm-.86.11.08-.02-.22-.72a5.2 5.2 0 0 0 -.68.3 1.6 1.6 0 0 0 -.33.26c-.14.14-.24.3-.3.47a.97.97 0 0 0 -.06.52c.03.18.12.34.28.5.1.1.2.17.31.2s.23.04.36.01.28-.08.44-.16a33.78 33.78 0 0 0 .54-.27c.06-.02.12 0 .16.03.03.03.04.06.03.1-.01.05-.05.1-.1.16a2.42 2.42 0 0 1 -.8.42l-.11.03.25.74a2.5 2.5 0 0 0 .81-.38c.13-.09.25-.18.35-.29.1-.1.18-.2.25-.32.08-.11.12-.24.15-.36a.78.78 0 0 0 -.02-.39.95.95 0 0 0 -.25-.38.8.8 0 0 0 -.39-.24.81.81 0 0 0 -.41.02c-.15.05-.3.11-.47.2l-.28.15a.7.7 0 0 1 -.19.07c-.05.01-.1 0-.13-.03-.04-.04-.05-.08-.03-.13.01-.05.05-.1.1-.14a.94.94 0 0 1 .22-.17 1.95 1.95 0 0 1 .44-.18zm-.55 2.42.5.5-1.5 1.49-2.08-2.08 1.47-1.46.5.5-.9.88.3.3.76-.76.46.46-.76.76.33.33z" fill="#00928f" fill-rule="evenodd"/></svg>