<svg height="18" viewBox="0 0 18 18" width="18" xmlns="http://www.w3.org/2000/svg"><path d="m0 0h18v18h-18z" fill="#181b1e"/><path d="m8.63 5.21c-.67 0-1.13.6-1.13 1.26 0 .67.35 1.17 1.02 1.17.59 0 1.23-.5 1.23-1.17 0-.66-.53-1.26-1.13-1.26zm-1.13 6.85c0 .55.37.73 1.68.73 1 0 1.32-.48 1.32-.73 0-.34-.44-.79-1.95-.79-.86 0-1.05.48-1.05.79zm4.5-7.06c-.37 0-.77.17-1 .34.2.3.25.72.25 1.27 0 1.36-.74 2.39-2.38 2.39-.68 0-1.37-.03-1.37.39 0 1.17 4.5-.4 4.5 2.49 0 1.02-.98 2.12-3.08 2.12-1.76 0-2.92-.58-2.92-1.72 0-.9.62-1.33 1.18-1.33-.18.05-.9-.6-.9-1.2 0-.7.67-1.22.96-1.32-.57-.27-1.24-.39-1.24-1.91 0-1.27 1.15-2.52 2.85-2.52.55 0 1.2.25 1.61.64.3-.44.8-.67 1.54-.64z" fill="#f0f3fa"/></svg>