<svg height="18" viewBox="0 0 18 18" width="18" xmlns="http://www.w3.org/2000/svg" xmlns:xlink="http://www.w3.org/1999/xlink"><linearGradient id="a" gradientUnits="userSpaceOnUse" x1="9.67" x2="4.97" y1="4.09" y2="6.64"><stop offset="0" stop-color="#e22822"/><stop offset="1" stop-color="#f0a829"/></linearGradient><linearGradient id="b" gradientUnits="userSpaceOnUse" x1="5.68" x2="5.47" y1="5.91" y2="11.68"><stop offset="0" stop-color="#ec8327"/><stop offset=".68" stop-color="#ffe808"/></linearGradient><linearGradient id="c" gradientUnits="userSpaceOnUse" x1="9.67" x2="4.97" y1="13.91" y2="11.36"><stop offset="0" stop-color="#0a996e"/><stop offset=".59" stop-color="#5cb14c"/><stop offset="1" stop-color="#f5e50f"/></linearGradient><linearGradient id="d" gradientUnits="userSpaceOnUse" x1="12.32" x2="12.53" y1="5.91" y2="11.68"><stop offset="0" stop-color="#0b65a1"/><stop offset=".62" stop-color="#0b91ca"/></linearGradient><linearGradient id="e" gradientUnits="userSpaceOnUse" x1="8.33" x2="13.03" y1="13.91" y2="11.36"><stop offset="0" stop-color="#44aa56"/><stop offset=".27" stop-color="#069874"/><stop offset=".65" stop-color="#01a7b2"/><stop offset="1" stop-color="#0b90c9"/></linearGradient><linearGradient id="f" gradientUnits="userSpaceOnUse" x1="8.33" x2="12.27" y1="9.18" y2="7.61"><stop offset="0" stop-color="#7f2c7a"/><stop offset=".54" stop-color="#594f8e"/><stop offset="1" stop-color="#0b83bd"/></linearGradient><path d="m0 0h18v18h-18z" fill="#f0f3fa"/><path d="m10.33 4.45c0 .8-.6 1.46-1.33 1.46-.33 0-.69-.01-.97.16l-.52.3c-.55.33-.86.97-1.33 1.4-.23.2-.53.32-.85.32-.73.01-1.33-.65-1.33-1.45s.6-1.46 1.33-1.46c.34 0 .69.01.97-.16l.52-.3c.55-.33.86-.96 1.34-1.4.23-.2.52-.32.84-.32.74 0 1.33.65 1.33 1.45z" fill="url(#a)"/><path d="m6.04 5.38c.6.41.8 1.32.46 2.03-.16.33-.34.66-.34 1.03l-.02.86c-.01.56.26 1.09.38 1.63.1.37.06.78-.12 1.14-.35.72-1.12.96-1.72.55s-.81-1.32-.46-2.03c.15-.33.33-.66.34-1.03l.01-.86c.01-.56-.4-1.09-.52-1.63-.1-.37-.06-.78.12-1.14.35-.72 1.26-.96 1.87-.55z" fill="url(#b)"/><path d="m10.33 13.55c0-.8-.6-1.46-1.33-1.46-.33 0-.69.01-.97-.16l-.52-.3c-.55-.33-.86-.97-1.33-1.4-.23-.2-.53-.32-.85-.32-.73 0-1.33.65-1.33 1.45s.6 1.46 1.33 1.46c.34 0 .69-.01.97.16l.52.3c.55.33.86.96 1.34 1.4.23.2.52.32.84.32.74 0 1.33-.65 1.33-1.45z" fill="url(#c)"/><path d="m11.96 5.38c-.6.41-.8 1.32-.46 2.03.16.33.34.66.34 1.03l.02.86c.01.56-.26 1.09-.38 1.63-.1.37-.06.78.12 1.14.35.72 1.12.96 1.72.55s.81-1.32.46-2.03c-.15-.33-.33-.66-.34-1.03l-.01-.86c-.01-.56.4-1.09.52-1.63.1-.37.06-.78-.12-1.14-.35-.72-1.26-.96-1.87-.55z" fill="url(#d)"/><path d="m7.67 13.55c0-.8.6-1.46 1.33-1.46.33 0 .69.01.97-.16l.52-.3c.55-.33.86-.97 1.33-1.4.23-.2.53-.32.85-.32.73 0 1.33.65 1.33 1.45s-.6 1.46-1.33 1.46c-.34 0-.69-.01-.97.16l-.52.3c-.55.33-.86.96-1.34 1.4-.23.2-.52.32-.84.32-.74 0-1.33-.65-1.33-1.45z" fill="url(#e)"/><path d="m7.67 8.82c0-.8.6-1.46 1.33-1.46.33 0 .69.01.97-.16l.52-.3c.55-.33.86-.96 1.33-1.39.23-.2.53-.33.85-.33.73 0 1.33.65 1.33 1.46 0 .8-.6 1.45-1.33 1.45-.34 0-.69-.01-.97.16l-.52.3c-.55.33-.86.97-1.34 1.4-.23.2-.52.32-.84.32-.74 0-1.33-.65-1.33-1.45z" fill="url(#f)"/></svg>