<svg height="18" viewBox="0 0 18 18" width="18" xmlns="http://www.w3.org/2000/svg"><path d="m0 0h18v18h-18z" fill="#380d76"/><path d="m9 14 1.84-6h-3.68z" fill="#e34329"/><path d="m4.58 8-.56 1.82c-.05.17 0 .35.14.45l4.84 3.73z" fill="#fca325"/><path d="m4.58 8h2.58l-1.11-3.37c-.06-.17-.3-.17-.36 0z" fill="#e34329"/><path d="m13.42 8 .56 1.82c.05.17 0 .35-.14.45l-4.84 3.73z" fill="#fca325"/><path d="m13.42 8h-2.58l1.11-3.37c.06-.17.3-.17.36 0z" fill="#e34329"/><path d="m9 14 1.84-6h2.58zm0 0-4.42-6h2.58z" fill="#fc6e26"/></svg>