<svg height="18" viewBox="0 0 18 18" width="18" xmlns="http://www.w3.org/2000/svg"><path d="m0 0h18v18h-18z" fill="#008084"/><path d="m12 10.37-.51.47a11.4 11.4 0 0 1 -2.49 2.17c-2.76 1.73-5 1.13-5-1.35s2.24-5.92 5-7.66v.72c-2.32 1.47-4.2 4.35-4.2 6.43 0 2.1 1.9 2.6 4.2 1.14a9.63 9.63 0 0 0 3-3.42m-3-2.58c-1.35.85-2.44 2.52-2.44 3.74 0 1.2 1.1 1.5 2.44.65a5.85 5.85 0 0 0 2.07-2.34l-2.07 1.31v-.72c.7-.44 2.36-1.6 3-2.01a7 7 0 0 1 -3 4.5c-1.79 1.13-3.24.73-3.24-.88 0-1.6 1.45-3.83 3.24-4.95m5 3.65-1 .59v-4.24l-4 2.47v-.71l5-3.16" fill="#fff"/></svg>