<!-- by TradingView --><svg width="18" height="18" viewBox="0 0 18 18" xmlns="http://www.w3.org/2000/svg"><path fill="#F0F3FA" d="M0 0h18v18H0z"/><path d="M8.15 4.13a6.58 6.58 0 0 0 2.08 1.05l.19.05c.65.17 1.1.3 1.68.35.14.18.28.39.4.6-.61-.12-1.47-.34-2.65-.7a8.93 8.93 0 0 1-2.52-1.11c.27-.1.54-.18.82-.24ZM7 4.5c-.22.1-.42.21-.62.33.73.48 2 1.13 3.83 1.66.08.02.13.1.1.18l-.09.28a.16.16 0 0 1-.2.1l-.07-.02a.16.16 0 0 0-.19.09l-.1.24c-.04.08 0 .17.09.2.86.25 2.02.57 3.1.83l-.01-.58-1.74-.52a.15.15 0 0 1-.1-.19l.1-.28a.16.16 0 0 1 .2-.1c.35.12.92.29 1.49.45l-.01-.06a2.5 2.5 0 0 0-.15-.59c-.06 0-.12-.02-.19-.04a38.2 38.2 0 0 1-2.7-.71A9.24 9.24 0 0 1 7.02 4.5Zm6.19 4.58-1.03-.25a.16.16 0 0 0-.19.1l-.14.35c-.04.08.02.18.1.2l1.31.3.06-.1a.5.5 0 0 0-.11-.6Zm.02 1.35a.15.15 0 0 0-.06.07l-.18.46c-.04.08.01.17.1.2l.69.15a.41.41 0 0 0-.09-.77l-.46-.1Zm-.3 1.3c-1.07-.27-2.5-.66-3.71-1a.16.16 0 0 0-.2.08l-.11.3c-.04.08.01.17.1.2l.52.08c.09 0 .15.08.14.16l-.02.3c-.01.08-.09.14-.17.13-1-.12-2.44-.6-3.75-1.1-.55-.22-1.1-.44-1.57-.66l.11.37c.75.4 1.94.95 3.11 1.23.08.02.14.1.12.18l-.07.29a.16.16 0 0 1-.19.1c-.92-.21-1.83-.58-2.57-.93l.29.44a39.1 39.1 0 0 0 4.98 1.61c.12-.06.23-.13.33-.2-.86-.22-1.58-.42-1.97-.54a.15.15 0 0 1-.1-.2l.1-.27a.16.16 0 0 1 .2-.1c.45.14 1.32.4 2.37.66.16-.16.28-.3.36-.42l-.7-.22a.25.25 0 0 1 .13-.48l1.98.4.3-.42ZM9.5 13.7a40.01 40.01 0 0 1-4.15-1.34c.14.15.28.28.43.4l.01-.02c.7.26 2.22.79 3.42 1.07l.3-.1Zm-.89.26c-.68-.18-1.41-.41-2.01-.62.56.32 1.2.54 1.87.65.05 0 .1-.02.14-.03ZM4.02 9.51a33.81 33.81 0 0 0 4.37 1.64c.08.02.16-.02.19-.09l.13-.32c.03-.08-.02-.17-.1-.2-.59-.17-1.1-.32-1.43-.44a.14.14 0 0 1-.1-.19l.11-.27a.16.16 0 0 1 .2-.1c1 .34 3.33 1.01 5.08 1.46.08.02.16-.02.2-.1l.17-.43c.03-.08-.02-.18-.11-.2-.91-.2-1.9-.45-2.54-.62a.15.15 0 0 1-.11-.18l.08-.28c.03-.08.11-.13.2-.1l.97.24c.08.02.16-.02.2-.1l.14-.36c.03-.08-.02-.17-.11-.2-1.12-.28-2.18-.6-2.8-.79a.15.15 0 0 1-.1-.19l.1-.28a.16.16 0 0 1 .2-.1l.2.07c.07.02.16-.01.19-.08l.11-.25c.04-.08 0-.17-.1-.2a13.84 13.84 0 0 1-3.5-1.64c-.18.15-.36.32-.53.5.7.47 1.63 1 2.57 1.36.07.04.11.12.08.2l-.11.27a.16.16 0 0 1-.2.08c-1-.39-1.98-.94-2.73-1.45-.16.23-.31.48-.44.73 1.3.67 3.23 1.5 4.78 1.96.08.02.12.1.1.18l-.09.28a.16.16 0 0 1-.2.1 30.3 30.3 0 0 1-4.82-1.96c-.08.21-.14.43-.18.66.67.35 1.55.77 2.23 1.03.08.03.12.11.09.19l-.11.28a.16.16 0 0 1-.2.08A22.7 22.7 0 0 1 4 8.75a4.82 4.82 0 0 0 .02.76Zm7.77-4.26c-.15-.16-.3-.28-.41-.36 0 0-.54-.08-.79-.15A3.04 3.04 0 0 1 9.27 4c-.24 0-.48.02-.7.05a6.49 6.49 0 0 0 1.75.84l.18.05c.51.14.88.24 1.3.3Z" fill="url(#aage43fjt)"/><defs><linearGradient id="aage43fjt" x1="4.31" y1="7.7" x2="13.48" y2="11.54" gradientUnits="userSpaceOnUse"><stop offset=".14" stop-color="#FFD873"/><stop offset="1" stop-color="#E2271E"/></linearGradient></defs></svg>