<svg height="18" viewBox="0 0 18 18" width="18" xmlns="http://www.w3.org/2000/svg"><path d="m0 0h18v18h-18z" fill="#f0f3fa"/><path d="m12.81 11.46a4.67 4.67 0 0 1 -4.1 2.54c-2.6 0-4.71-2.24-4.71-5s2.1-5 4.71-5c1.29 0 2.46.55 3.3 1.44l-.6.7a3.65 3.65 0 0 0 -2.65-1.14c-2.06 0-3.76 1.8-3.76 4s1.69 4 3.77 4c1.29 0 2.42-.68 3.1-1.73l.94.2z" fill="#20386f"/><path d="m9 11.5s1.22-.5 1.82-.5 1.8.5 3.18.5c0 0-.78.5-1.72.5-.95 0-1.65-.5-3.28-.5z" fill="#20386f"/><path d="m8 7.5s1.22-.5 1.82-.5 1.43.5 3.18.5c0 0-.78.5-1.72.5-.95 0-1.4-.5-3.28-.5z" fill="#069edb"/><path d="m7 9.5s1.37-.5 2.55-.5c1.17 0 2.3.5 4.45.5 0 0-.86.5-2.41.5s-2.1-.58-4.59-.5z" fill="#41bfaa"/></svg>