<svg height="18" viewBox="0 0 18 18" width="18" xmlns="http://www.w3.org/2000/svg"><path d="m0 0h18v18h-18z" fill="#f0f3fa"/><path d="m7.76 11.46c-.12.05-.63.28-1.48.28-.9 0-2-.3-2-1.77.01-2.26 2.84-5.97 7.04-5.97.9-.03 2.69.39 2.69 2.36 0 .15-.05.5-.19.77l-.03-.07c-.12-.29-.51-1.3-2.28-1.3-2.05 0-4.62 2.24-4.62 4.21 0 .77.6 1.3.9 1.48h-.02zm-3.6-.48c-.07.04-.16.16-.16.51s.3 2.51 2.87 2.51a7.37 7.37 0 0 0 6.35-4h.78l-1.08-2.34-2.52 2.34h.7c-.64.88-2.5 2.3-4.8 2.3a2.37 2.37 0 0 1 -2.15-1.32z" fill="#0069b6"/></svg>