<svg height="18" width="18" xmlns="http://www.w3.org/2000/svg"><path d="m0 0h18v18h-18z" fill="#f0f3fa"/><g fill="#1e3083"><path d="m14.47 6c-.4 0-3.04-.1-4.75 3.23-1.06 2.05-2.46 3.79-4.89 3.77-.26 0-1.83-.03-1.83-.4 0-.38.16-.9.58-.9.1 0 .83.3 1.53.3 1.12 0 2.68-.27 3.9-2.6 1.31-2.5 2.91-4.4 5.53-4.4.2 0 .46.05.46.14 0 .3-.27.86-.53.86z"/><path d="m15 7.11c0 .46-.1.69-.38.63a5.38 5.38 0 0 0 -1.03-.12c-2.22 0-3.03 2.88-4.21 4.38 1.19.09 2.22.38 3.43.38 1.11 0 1.89-.28 1.7-.81-.05-.17-.07-.57.22-.57.3 0 .27.37.27.57 0 .14-.13.52-.27.66-.36.38-.86.77-2.82.77-.6 0-1.33-.04-1.92-.14-1.07-.2-1.43.06-1.7.14-.12-.06-.28-.17-.29-.3 0-.1.08-.2.28-.32.6-.33 1.28-1.46 1.54-1.96 1.2-2.3 2.43-3.42 4.28-3.42.27 0 .61.05.9.11z"/><circle cx="5.5" cy="7.5" opacity=".8" r="2.5"/></g></svg>