<!-- by TradingView --><svg width="18" height="18" viewBox="0 0 18 18" xmlns="http://www.w3.org/2000/svg"><path fill="#F0F3FA" d="M0 0h18v18H0z"/><path d="M16 5S9.66 4.8 9.21 7.33c-.33 1.93 3.22 1.94 3.22 1.94S10.77 8.8 11.4 7.1C12.1 5.2 16 5 16 5Zm-5.86 4-2.09 3.95c-.57.17-6.58.13-6.01-3.54.74-4.78 9.5-4.4 9.5-4.4s-5.4.36-6.65 3.91c-.78 2.24.34 3.44 1.48 3.64l1.35-2.22.01-.02.03-.04C8.09 9.68 7.2 9 7.2 9h2.94Zm-1.68 4s4.71-.33 5.17-3.38c.2-1.39-1.43-1.7-1.43-1.7s3.61.06 3.24 2.23c-.3 1.7-2.7 2.85-6.91 2.85" fill="#00366D"/></svg>