<svg height="18" viewBox="0 0 18 18" width="18" xmlns="http://www.w3.org/2000/svg"><path d="m0 0h18v18h-18z" fill="#f0f3fa"/><path d="m6.7 6.75-.7-.15v-.1h1.47l1.73 3.5 1.64-3.5h1.56v.1l-.73.15.33 4.75h-.98l-.27-3.66-1.74 3.66-1.88-3.8-.13 3.8h-.48zm-1 4.07v.34c-.55.25-.9.34-1.53.34a2.1 2.1 0 0 1 -2.17-2.13c0-1.67 1.11-2.37 2.54-2.37h1.15v1.4h-.14c0-.45-.26-.9-1.23-.9-1.03 0-1.62.77-1.62 1.75s.63 1.75 1.62 1.75c.49 0 .68-.04.68-.04v-1.08l-.5-.03v-.1l1.5.02v.08l-.3.03zm8.2.68c-.64 0-1.3-.4-1.3-.4v-1.1h.1c.12.65.74 1 1.28 1 .43 0 1.02-.14 1.02-.66 0-.34-.42-.5-1.06-.72l-.04-.02c-.66-.24-1.3-.65-1.3-1.41 0-.92.85-1.19 1.49-1.19.14 0 .29.03.43.05.26.05.51.1.72-.05v1.5h-.1c0-.53-.47-1-1.05-1-.56 0-.93.24-.93.6 0 .4.4.57.93.78l.3.13c.67.3 1.11.56 1.11 1.24s-.56 1.25-1.6 1.25z" fill="#1f3384"/></svg>