<svg height="18" viewBox="0 0 18 18" width="18" xmlns="http://www.w3.org/2000/svg" xmlns:xlink="http://www.w3.org/1999/xlink"><linearGradient id="a" gradientUnits="userSpaceOnUse" x1="8.11" x2="8.11" y1="4.25" y2="8.94"><stop offset="0" stop-color="#b5b5b5"/><stop offset=".45" stop-color="#e7e7e7"/><stop offset="1" stop-color="#b5b5b5"/></linearGradient><path d="m0 0h18v18h-18z" fill="#f0f3fa"/><ellipse cx="8.11" cy="6.59" fill="#2b2c2c" rx="2.55" ry="2.59"/><ellipse cx="8.11" cy="6.72" fill="#1a1b1b" rx="1.8" ry="1.84"/><path d="m8.1 8.94c1.28 0 2.3-1.05 2.3-2.35 0-1.29-1.02-2.34-2.3-2.34a2.32 2.32 0 0 0 -2.28 2.35c0 1.3 1.03 2.35 2.3 2.35zm-.06-2.91-.68-1.27c.25-.17.88-.4 1.43 0zm.5.31.75-1.26c.29.14.84.6.74 1.26zm.62 2.03-.62-1.47 1.5.13c0 .55-.59 1.12-.88 1.33zm-1.24-1.02-.56 1.2c.06.05.31.13.8.13zm-1.86-.31h1.43l-.75 1.14c-.51-.27-.67-.87-.68-1.14zm1.43-.7-.75-1.26c-.27.08-.68.76-.68 1.26z" fill="url(#a)" fill-rule="evenodd"/><circle cx="8.04" cy="6.66" fill="#b9b6b6" r=".25"/><ellipse cx="11.77" cy="9.44" fill="#fd7f2b" rx="3.23" ry="3.29"/><path d="m13.1 12.3a3.04 3.04 0 0 1 -2.88-.12c.27-.12.55-.34.84-.61.32-.32.66-.7.97-1.12.6-.8 1.16-1.7 1.5-2.3.23.24.43.46.58.67a5 5 0 0 0 -.66 2.13zm.05.12.05.01v-.04a3.28 3.28 0 0 0 1.61-1.84h.01l.05-.16c.08-.3.13-.62.13-.95a3.28 3.28 0 0 0 -2.65-3.24 1.25 1.25 0 0 0 -.04-.03l-.02.02a3.26 3.26 0 0 0 -3.74 3.25c0 1.82 1.44 3.3 3.22 3.3.5 0 .96-.12 1.38-.32zm-.65-6.05c.07.09.14.2.2.31.1.21.16.46.08.72.25.15.5.34.72.56.24-.32.31-.71.32-.9a3.08 3.08 0 0 0 -1.32-.7zm1.44.8c-.03.23-.12.58-.35.88.24.23.44.46.6.68.2-.2.4-.28.53-.3a3.17 3.17 0 0 0 -.78-1.26zm.81 1.39a.8.8 0 0 0 -.48.27 3.52 3.52 0 0 1 .57 1.1 3.26 3.26 0 0 0 -.09-1.37zm0 1.78a.86.86 0 0 0 -.03-.38 3.36 3.36 0 0 0 -.53-1.03c-.17.26-.48.94-.62 2.04l-.32 1.26a3.16 3.16 0 0 0 1.5-1.89zm-2.46-4.02c.1.1.22.25.3.42.09.18.14.39.08.6a4.46 4.46 0 0 0 -2.54-.59 3.05 3.05 0 0 1 2.16-.43zm-2.37.58v.01c.5-.1 1.62-.08 2.68.53a6.7 6.7 0 0 1 -3.93 1.94c.02-1.01.5-1.91 1.25-2.48zm-1.25 2.54v.07a6.82 6.82 0 0 0 4.04-2c.25.15.5.33.72.55-.33.6-.89 1.5-1.5 2.3-.31.42-.64.8-.96 1.11-.31.3-.61.53-.88.63a3.18 3.18 0 0 1 -1.42-2.66z" fill="#10253f" fill-rule="evenodd"/><path d="m5.13 12.1c-1.56-.1-2.01-.95-2.05-1.26-.19-1.08 1.49-2.66 2.6-3.23 1.12-.57 4.91-.57 4.54 1.01a5.9 5.9 0 0 1 -2.05 3.04c-.5.38-1.06.57-3.04.44z" fill="#794422"/><path d="m4.32 8.62-.5.5a4.47 4.47 0 0 0 .8 2.92l.7.06c-.65-.5-.94-2.53-1-3.48z" fill="#fee7d5"/><path d="m10.23 8.07c.08.17.1.35.05.57a5.95 5.95 0 0 1 -2.08 3.06c-.26.2-.53.34-1 .42-.45.08-1.1.1-2.09.03-1.58-.1-2.06-.96-2.1-1.31-.05-.3.02-.6.17-.92s.39-.64.66-.94a6.75 6.75 0 0 1 1.8-1.44 3.9 3.9 0 0 1 1.26-.31 7.22 7.22 0 0 1 1.6 0c.53.07 1.02.2 1.35.42.16.11.3.25.37.41zm-3.3-.7c-.51.05-.95.16-1.22.3-.55.28-1.24.8-1.77 1.4-.27.3-.5.61-.64.92-.14.3-.2.58-.16.83.03.29.46 1.12 1.99 1.22 1 .06 1.62.05 2.07-.03.44-.08.69-.22.93-.4a5.83 5.83 0 0 0 2.03-3 .71.71 0 0 0 -.04-.48.9.9 0 0 0 -.33-.36c-.3-.2-.77-.34-1.29-.4a7.1 7.1 0 0 0 -1.58 0z" fill="#10253f"/><path d="m6.12 8.27-.06-.2.12-.04.05.19.24-.1.04.12-.24.1.03.14-.12.03-.03-.12-.32.15.04.2-.12.02-.04-.16-.26.13.05.2-.12.02-.04-.16c-.1.04-.18.08-.25.13l.03.13-.12.03-.03-.1-.25.14-.06-.12.28-.16-.06-.21.12-.03.05.2a18 18 0 0 1 .25-.14l-.05-.21.12-.03.05.18.26-.13-.06-.28.13-.03.05.25c.1-.04.2-.1.32-.14z" fill="#fee7d5"/><ellipse cx="8.91" cy="12.1" fill="#184f98" rx="1.86" ry="1.9"/><path d="m8.91 13.87c.96 0 1.74-.79 1.74-1.77s-.78-1.77-1.74-1.77-1.74.8-1.74 1.77c0 .98.78 1.77 1.74 1.77zm0 .13c1.03 0 1.87-.85 1.87-1.9s-.84-1.9-1.87-1.9-1.86.85-1.86 1.9.83 1.9 1.86 1.9z" fill="#10253f" fill-rule="evenodd"/><path d="m10.03 12.21h-.13a1.04 1.04 0 0 0 0-.2l.13-.02a1.18 1.18 0 0 1 0 .22zm-.05-.44-.12.04a1.02 1.02 0 0 0 -.07-.19l.11-.06zm-.2-.4-.1.09a1 1 0 0 0 -.14-.14l.08-.1.16.16zm-.34-.27-.06.1a.97.97 0 0 0 -.18-.07l.04-.12c.07.02.14.05.2.09zm-.42-.13v.12a.98.98 0 0 0 -.2 0l-.02-.12a1.13 1.13 0 0 1 .22 0zm-.42.03.04.12a.97.97 0 0 0 -.18.08l-.06-.11c.06-.04.13-.07.2-.09zm-.39.21.08.1a1 1 0 0 0 -.13.14l-.1-.08zm-.27.34.1.06-.07.19-.12-.04c.03-.07.05-.14.09-.2zm-.14.45a1.17 1.17 0 0 0 0 .22h.12a1.05 1.05 0 0 1 0-.2zm.04.44.12-.03.08.18-.11.06a1.14 1.14 0 0 1 -.09-.2zm.21.4.1-.09.13.14-.08.1-.15-.16zm.34.28.06-.12c.05.04.11.06.18.08l-.04.12a1.1 1.1 0 0 1 -.2-.08zm.41.13.02-.13a.98.98 0 0 0 .2 0v.13a1.1 1.1 0 0 1 -.22 0zm.44-.05-.04-.12a.97.97 0 0 0 .18-.08l.06.12a1.1 1.1 0 0 1 -.2.08zm.38-.2-.08-.1.14-.15.1.08-.16.16zm.28-.35-.11-.06c.03-.06.06-.12.07-.18l.12.03-.08.2z" fill="#fbfafb"/></svg>