<svg fill="none" height="18" viewBox="0 0 18 18" width="18" xmlns="http://www.w3.org/2000/svg"><path d="m0 0h18v18h-18z" fill="#f0f3fa"/><g clip-rule="evenodd" fill-rule="evenodd"><path d="m7.55225 7.72095c.53291.06275 1.24636.31852 1.4159.49429-.05307.08475-.46192.19016-.5549.16612-.45568-.20552-.66391-.45639-.861-.66041z" fill="#4c97b6"/><path d="m4.00068 11.5928-.00068 1.2422c0 .6431.52111 1.165 1.1656 1.165h7.6687c.6438 0 1.1657-.5219 1.1657-1.165v-7.6693c0-.64384-.5219-1.1657-1.1657-1.1657h-7.6687c-.15304-.00012-.30461.02994-.44604.08847s-.26995.14437-.3782.25264c-.10825.10826-.19412.23681-.25269.3783-.05858.14149-.08871.29314-.08867.44629l.0338 1.40748c.98778-.02336 1.38279-.01793 3.12189.07797 1.95155.10676 2.53876.63134 2.82069 1.41372 1.15732.4185 2.83652 1.43112 3.03432 2.22653.0911.3625.0159 1.1635-.3418 1.7668-.0089-.2206-.0366-.3489-.1227-.5522-.1269-.2971-.1413-.3446-.3784-.5466-3.08541-.8651-6.65199-.1641-8.16712.6334z" fill="#f5c649"/></g></svg>