<svg height="18" viewBox="0 0 18 18" width="18" xmlns="http://www.w3.org/2000/svg"><path d="m0 0h18v18h-18z" fill="#f0f3fa"/><path d="m5.49 5.48a4.87 4.87 0 0 1 3.58-1.48c.8 0 1.55.18 2.25.53s1.3.83 1.77 1.44l-1.8 1.06c-.6-.66-1.34-1-2.22-1-.83 0-1.54.3-2.13.88a2.87 2.87 0 0 0 -.89 2.12c0 .83.3 1.54.89 2.13.59.58 1.3.87 2.13.87.7 0 1.29-.18 1.75-.56.48-.37.77-.87.87-1.5h-3.26v-1.82h5.48c.06.26.09.55.09.88a5 5 0 0 1 -1.37 3.65 4.71 4.71 0 0 1 -3.56 1.32 4.9 4.9 0 0 1 -5.07-4.97c0-1.39.5-2.57 1.49-3.55z"/></svg>