<svg fill="none" height="18" width="18" xmlns="http://www.w3.org/2000/svg"><path d="m0 0h18v18h-18z" fill="#012d63"/><path d="m10.481 9.126a1.607 1.607 0 1 1 -3.214 0 1.607 1.607 0 0 1 3.214 0z" stroke="#fff" stroke-width=".5"/><path d="m8.483 7.902.54.78.926-.274-.595.742.553.772-.909-.322-.583.751.033-.94-.914-.309.93-.26.019-.94z" fill="#fff"/><g stroke="#fff" stroke-width=".5"><path d="m6.578 9.598s-2.113-3.432-2.301-4.146c0 0-.255-.663-.204-1.26 0 0-.205-.166-.188-.398 0 0 .034-.365.358-.381 0 0 .34.016.358.265v.315s1.738.696 2.3 1.061c0 0 1.04.614 1.227.747.188.132 1.015.754 1.96.796l3.34.464s-1.432 1.244-1.517 2.438c0 0 2.368 1.492 3.39 3.914 0 0-1.567-.697-4.123-.962l-1.738-.216s-1.073-.232-1.482-.613c0 0-.784-.68-1.704-.498m-.119-2.189s-.591 2.485 1.145 3.343"/><path d="m7.332 11.284.626 1.4-.443.149-.775-1.68"/></g></svg>