<svg height="18" width="18" xmlns="http://www.w3.org/2000/svg" xmlns:xlink="http://www.w3.org/1999/xlink"><linearGradient id="a" gradientUnits="userSpaceOnUse" x1="3.35" x2="21.9" y1="3.12" y2="24.43"><stop offset="0" stop-color="#1a1e21"/><stop offset="1" stop-color="#06060a"/></linearGradient><path d="m0 0h18v18h-18z" fill="url(#a)"/><path d="m6.51 13c-.25 0-.51-.22-.51-.5s.26-.5.51-.5h4.96c.25 0 .53.22.53.5s-.28.5-.53.5z" fill="#f2591a"/><path d="m6.52 9.5c-.24 0-.52-.22-.52-.5s.28-.5.52-.5h4.94c.25 0 .54.22.54.5s-.29.5-.54.5z" fill="#f3a00f"/><path d="m6.54 6c-.25 0-.54-.22-.54-.5s.29-.5.54-.5h4.91c.25 0 .55.22.55.5s-.3.5-.55.5z" fill="#fbc208"/></svg>