<svg fill="none" height="18" viewBox="0 0 18 18" width="18" xmlns="http://www.w3.org/2000/svg"><path d="m0 0h18v18h-18z" fill="#f0f3fa"/><path d="m4 8.91126c0-2.8538 1.84553-4.91126 5.06187-4.91126 1.10693 0 1.74033.16404 2.51793.94673l.3491-.94673h.96v3h-.8379c-.7209-1.5013-1.1648-2-2.79703-2-2.66029 0-3.5873 2.0048-3.5873 4 0 1.8504.73916 4 3.32535 4 2.34768 0 2.23018-1.519 2.23018-3.14207l-1.1111-.10354v-.75439h3.8889v.75439l-1 .0888v4.15681h-1.2222l-.1427-1.3905h-.0522c-.6434 1.071-1.5618 1.3905-2.83525 1.3905-3.3275 0-4.74765-2.2855-4.74765-5.08874z" fill="#2b2b2a"/></svg>