<svg height="18" viewBox="0 0 18 18" width="18" xmlns="http://www.w3.org/2000/svg"><path d="m0 0h18v18h-18z" fill="#f0f3fa"/><path d="m8.65 12.5-.01-.04c-.01-.03 0-.06.01-.08a.42.42 0 0 1 .12-.08c.8-.32 1.47-.8 2.01-1.48.56-.7.89-1.47.98-2.32a3.17 3.17 0 0 0 -.46-2.08 2.57 2.57 0 0 0 -1.7-1.22 1.84 1.84 0 0 1 -.34-.1c-.08-.04-.08-.06.01-.07 1.07-.1 1.9.07 2.5.51.82.6 1.23 1.44 1.23 2.49a4.65 4.65 0 0 1 -4.35 4.47z" fill="#000263"/><path d="m7.5 15v-4.86l2.74-2.1z" fill="#d6d6d6"/><path d="m10.27 8.02-8.27 2.82 5.5-.67z" fill="#a0a1a1"/><path d="m7.5 12.26v.23c-3.7.2-3.8-4.08-1.7-6.15a4.51 4.51 0 0 1 3.18-1.34c.04 0 .05.02.02.05a.2.2 0 0 1 -.09.06 4.9 4.9 0 0 0 -2.67 2.11c-1.1 1.8-.85 4.24 1.25 5.04z" fill="#0861ad"/></svg>