<svg height="18" viewBox="0 0 18 18" width="18" xmlns="http://www.w3.org/2000/svg"><path d="m0 0h18v18h-18z" fill="#f0f3fa"/><path d="m6.6 13.46-1.66-1.65c.03-.32.08-.7.15-1.15.36-2.2 2.35-4.66 4.65-4.66.62 0 1.26.23 1.26.67 0 .32-.17.75-.63.75-.57 0-.84-.36-.84-.36s.21.94 1.17.94c.73 0 1.3-.49 1.3-1.42 0-1.02-1.22-1.58-2.26-1.58-1.52 0-2.5.49-3.67 1.47a9.88 9.88 0 0 0 -2.67 3.75c-.6-.82-.52-1.98.22-2.72l3.88-3.88a2.11 2.11 0 0 1 2.98 0l3.9 3.9c.83.82.83 2.16 0 2.98l-3.88 3.88c-.76.77-1.97.82-2.8.16l.17-.14c.51-.52 1.38-1.57 2.5-3.21.27-.41.97-.82 1.58-1.18.56-.34 1.05-.63 1.05-.82 0-.25-1-.72-1-.72v.57l-.88.34c-1.56.6-3.1 1.2-4.53 1.72l.59.62s.32-.04 1.1-.53c.17-.11.3-.19.42-.19.19 0 .3.13.3.29 0 .13-.1.3-.14.4l-.01.03a4.3 4.3 0 0 1 -2.25 1.74z" fill="#ea550c"/></svg>