<svg height="18" width="18" xmlns="http://www.w3.org/2000/svg"><path d="m0 0h18v18h-18z" fill="#143461"/><path d="m13 8.993v5.007h-1.364l-.523-1.164c-.3.397-.686.691-1.155.883-.465.187-.974.281-1.528.281-.93 0-1.73-.212-2.402-.637a4.068 4.068 0 0 1 -1.521-1.747c-.338-.74-.507-1.556-.507-2.452 0-.443.04-.876.12-1.301.08-.43.204-.84.373-1.233a4.56 4.56 0 0 1 .662-1.082c.455-.566.974-.966 1.556-1.199.587-.233 1.266-.349 2.035-.349.583 0 1.108.07 1.578.212s.885.354 1.246.637c.362.279.665.633.909 1.062.244.43.418.915.521 1.459l-2.944.308c-.145-1.01-.6-1.514-1.366-1.514-.61 0-1.012.281-1.204.843-.188.561-.282 1.224-.282 1.986 0 .804.087 1.397.26 1.781.123.283.304.51.543.678.24.169.51.254.81.254.399 0 .725-.11.979-.33.253-.223.392-.375.38-.375h-1.676v-2.008z" fill="#fff"/></svg>