<svg height="18" viewBox="0 0 18 18" width="18" xmlns="http://www.w3.org/2000/svg"><path d="m0 0h18v18h-18z" fill="#f0f3fa"/><path d="m15 9a6 6 0 1 1 -12 0 6 6 0 0 1 12 0z" fill="#00467f"/><path d="m9 3.33a5.66 5.66 0 1 0 0 11.33 5.66 5.66 0 0 0 0-11.33zm-1.36 3.07h.01c.26.7 1.1.88 1.24 1.66 0 .12.02.22-.05.27-.48-.57-1.32-.9-1.58-1.56-.09-.21.19-1.88.27-2.8l.3-.08c-.04.3-.3 2.25-.19 2.5zm-.77 1.38c.25 1 1.24 1.39 1.87 1.97.18.19.16.49.11.73-.76-.91-2.5-1.06-2.3-2.85l.45-3.49.3-.1c-.06.69-.48 3.51-.43 3.74zm-.72 1.43c-.04 1.04 1.51 1.73 2.3 2.28.28.18.47.51.41.84l-.02.1c-.83-.86-2.59-1.4-3.05-2.53-.08-.17-.08-.29-.05-.68 0 0 .58-3.7.72-4.82l.34-.16zm3.98-5.32.3.08c.1.92.37 2.59.28 2.8-.26.65-1.1 1-1.58 1.56-.07-.05-.06-.15-.05-.27.13-.78.97-.96 1.24-1.65v-.01c.13-.26-.14-2.2-.19-2.5zm.52.14.3.11c.15 1.13.32 2.38.45 3.49.22 1.79-1.53 1.93-2.28 2.84-.05-.23-.07-.54.11-.73.63-.58 1.63-.96 1.87-1.97.05-.22-.37-3.04-.45-3.74zm-1.55 8.3a.86.86 0 0 1 .41-.84c.79-.55 2.34-1.24 2.3-2.28-.02-.27-.5-3.88-.64-4.97l.34.16c.14 1.12.72 4.82.72 4.82.03.4.02.51-.04.68-.48 1.13-2.23 1.65-3.07 2.52 0-.01 0-.06-.02-.09zm.87-8.48.1 1.02c.06.93-.73 1.14-1.09 1.68-.35-.55-1.14-.75-1.08-1.68l.1-1.02a4.92 4.92 0 0 1 1.98 0zm-6.21 5.15a5.2 5.2 0 0 1 2.5-4.46c-.21 1.4-.97 5.84-.97 5.84-.06.5.09.9.4 1.23.3.29.89.73 1.25.98l1.7 1.24c.15.13.2.36.03.4a5.23 5.23 0 0 1 -4.9-5.23zm8.94 3.7a5.22 5.22 0 0 1 -3.37 1.52c-.12-.03-.14-.26 0-.39l1.7-1.24c.38-.25.95-.7 1.25-.98.31-.32.46-.73.4-1.23 0 0-.75-4.44-.96-5.84a5.22 5.22 0 0 1 .98 8.15z" fill="#ffe14f"/></svg>