<svg height="18" width="18" xmlns="http://www.w3.org/2000/svg" xmlns:xlink="http://www.w3.org/1999/xlink"><linearGradient id="a" gradientUnits="userSpaceOnUse" x1="3.349" x2="21.904" y1="3.122" y2="24.434"><stop offset="0" stop-color="#1a1e21"/><stop offset="1" stop-color="#06060a"/></linearGradient><path d="m0 0h18v18h-18z" fill="url(#a)"/><path d="m7.573 13-.164 1h6.426l.165-1zm-2.546 0h-.226l-.163 1h.226zm.73 0h-.317l-.163 1h.318l.163-1zm-1.46 0h-.134l-.163 1h.134zm2.929 0h-.502l-.163 1h.502zm-.73 0h-.41l-.163 1h.41z" fill="#ed1b2d"/><path d="m10.856 5h1.285l-.34 2.404h-1.462c-.08-.362-.43-.703-.77-.78a1.599 1.599 0 0 0 -1.664.62c-.438.647-.633 1.736-.22 2.443.285.474.833.65 1.344.564.398-.077.799-.452.97-.849l-1.629-.001.204-1.401h3.43l-.57 4h-1.32l.08-.642c-.156.22-.574.595-1.607.595-1.303 0-2.728-1.172-2.728-3.24 0-1.703 1.212-3.768 3.361-3.76.548.002 1.163.148 1.56.551" fill="#fff"/></svg>