<svg height="18" viewBox="0 0 18 18" width="18" xmlns="http://www.w3.org/2000/svg"><path d="m0 0h18v18h-18z" fill="#f0f3fa"/><path d="m10.3 3.08c.6.22 1.04.57 1.33 1.07.6.96.54 1.79-.18 2.47-.49.48-1.17.88-2.04 1.2-.42-.2-.82-.5-1.18-.87.48-.26.96-.5 1.44-.7.68-.3 1.32-.81.7-1.6-.4-.51-.94-.66-1.62-.45-.8.25-1.18.83-1.17 1.73-.38-1.01-.09-1.95.9-2.8a4.1 4.1 0 0 1 1.82-.05z" fill="#1d2088"/><path d="m12.28 3h.52c-.17.73-.56 1.11-1.17 1.15-.3-.5-.74-.85-1.33-1.07l1.98-.07zm-3.81.13c-.98.85-1.27 1.79-.89 2.8.16.44.37.78.65 1.02.36.37.76.66 1.19.88 1.35.75 3.36 1.68 3.55 3.51.1.87-.06 1.59-.45 2.15-.71 1.03-1.82 1.53-3.3 1.5h-.08a2.65 2.65 0 0 0 2.05-3.72 2.71 2.71 0 0 0 -1.02-1.26l-2.13-1.38-1.08-.96c-1.49-1.74-.62-4.1 1.51-4.54z" fill="#7ec04c"/><path d="m6.96 7.67 1.08.96c-1.39.92-1.67 2.64-.4 3.74.44.37.95.56 1.54.57 1.27.01 1.94-.54 2.01-1.67a2.65 2.65 0 0 1 -2.05 3.73h-.64c-3.64-.64-4.89-5.35-1.53-7.33z" fill="#1d2088"/></svg>