<svg height="18" width="18" xmlns="http://www.w3.org/2000/svg"><path d="m0 0h18v18h-18z" fill="#00693c"/><path d="m10 8v2h1v1h-2.926c-1.54 0-2.074-.565-2.074-2 0-1.206.239-2 2.074-2h2.926l2-2h-4.092c-.98 0-2.66.083-3.529.74-.933.682-1.379 1.805-1.379 3.26s.446 2.578 1.371 3.268c.877.665 2.564.732 3.56.732h4.069c-.048-1.597-.361-2.728-1.039-3.534-.582-.69-1.46-1.33-1.961-1.466z" fill="#fff"/><path d="m12.998 10v-2.129c-.015-.26-.134-.46-.284-.46h-2.714c1.216.171 2.714 1.123 2.998 2.589z" fill="#ffb612"/></svg>