<svg height="18" viewBox="0 0 18 18" width="18" xmlns="http://www.w3.org/2000/svg"><path d="m0 0h18v18h-18z" fill="#f0f3fa"/><path d="m5.09 9.33 2.44 2.33.98-.96c-.46-.47-.97-.85-1.44-1.31a.24.24 0 0 0 -.14-.06zm4.27-2.05 1.35 1.34c.04.04.11.05.17.05h1.9l-2.4-2.41zm-4.17 1.39h1.84c.04 0 .1-.04.14-.08l2.7-2.7.06-.07-.93-.95-3.8 3.8zm7.68.66h-3.52l-.05.1c.11.1.23.19.33.3.24.26.23.5-.01.74l-1.58 1.56-.07.08 1.03 1.03 3.87-3.8zm-3.87 5.67c-.43 0-.8-.16-1.1-.46l-4.47-4.46a1.54 1.54 0 0 1 -.02-2.12l4.55-4.56a1.52 1.52 0 0 1 2.02-.05l.3.28 4.21 4.2c.34.34.53.73.5 1.21 0 .4-.14.74-.42 1.01l-4.48 4.49c-.3.3-.67.44-1.09.45z" fill="#29347a"/></svg>