<svg fill="none" height="18" width="18" xmlns="http://www.w3.org/2000/svg"><path d="m0 0h18v18h-18z" fill="#d30212"/><path clip-rule="evenodd" d="m14.7 9c0 .986-.599 1.907-1.63 2.594-1.029.687-2.467 1.12-4.07 1.12s-3.041-.433-4.07-1.12c-1.032-.687-1.63-1.608-1.63-2.594s.599-1.907 1.63-2.594c1.029-.687 2.467-1.12 4.07-1.12s3.041.433 4.07 1.12c1.032.687 1.63 1.608 1.63 2.594zm-5.7 4c3.314 0 6-1.79 6-4s-2.686-4-6-4-6 1.79-6 4 2.686 4 6 4zm-.031-7.43c-2.97.02-5.369 1.587-5.369 3.514 0 .795.436 1.483 1.059 2.014l-.002.001c1.562 1.332 4.193 1.618 4.193.193v-4.229l-2.034 1.023v1.697c.026 1.045-.93 1.187-.93 1.187a1.28 1.28 0 0 1 -.194.014c-.66 0-1.621-.448-1.616-1.9.008-1.79 2.205-3.24 4.924-3.24 2.72 0 4.917 1.45 4.925 3.24.007 1.452-.954 1.9-1.616 1.9a1.23 1.23 0 0 1 -.194-.014s-.956-.142-.93-1.187v-1.697l-2.035-1.023v4.365c0 1.424 2.632 1.002 4.193-.33.62-.531 1.057-1.22 1.057-2.015 0-1.927-2.4-3.493-5.37-3.512h-.06z" fill="#fff" fill-rule="evenodd"/></svg>