<svg height="18" viewBox="0 0 18 18" width="18" xmlns="http://www.w3.org/2000/svg"><path d="m0 0h18v18h-18z" fill="#f0f3fa"/><path d="m8.98 11.71h.52v.65h-2.4v-3.86l3.95-2.73-2.25-1.77-4.8 3.54v5.46h8.94v-1.29h.86c.66 0 1.2-.5 1.2-1.12 0-.58-.46-1.05-1.06-1.12.23-.2.37-.49.37-.8 0-.63-.54-1.13-1.2-1.13-.19 0-.36.04-.52.1v-.1c0-.71-.61-1.29-1.37-1.29s-1.38.58-1.38 1.29v.1a1.27 1.27 0 0 0 -.51-.1c-.67 0-1.2.5-1.2 1.12 0 .35.17.67.44.87-.46.16-.79.57-.79 1.06 0 .62.54 1.12 1.2 1.12z" fill="#006730"/></svg>