<svg height="18" viewBox="0 0 18 18" width="18" xmlns="http://www.w3.org/2000/svg" xmlns:xlink="http://www.w3.org/1999/xlink"><linearGradient id="a" gradientUnits="userSpaceOnUse" x1="0" x2="18" y1="9" y2="9"><stop offset=".25" stop-color="#2a5599"/><stop offset="1" stop-color="#3a7cc6"/></linearGradient><path d="m0 0h18v18h-18z" fill="url(#a)"/><path d="m8.5 7.96c0 .29-.25.54-.54.54h-2.42a.56.56 0 0 1 -.54-.54v-2.42c0-.29.25-.54.54-.54h2.42c.29 0 .54.25.54.54zm4.5 0c0 .29-.25.54-.54.54h-2.42a.56.56 0 0 1 -.54-.54v-2.42c0-.29.25-.54.54-.54h2.42c.29 0 .54.25.54.54zm-4.5 4.5c0 .29-.22.54-.54.54h-2.42a.56.56 0 0 1 -.54-.54v-2.42c0-.29.25-.54.54-.54h2.42c.29 0 .54.25.54.54zm4.5 0c0 .29-.25.54-.54.54h-2.42a.56.56 0 0 1 -.54-.54v-2.42c0-.29.25-.54.54-.54h2.42c.29 0 .54.25.54.54z" fill="#fdb71a"/></svg>