<svg height="18" viewBox="0 0 18 18" width="18" xmlns="http://www.w3.org/2000/svg"><path d="m0 0h18v18h-18z" fill="#f0f3fa"/><path d="m10.15 9.5h1.98c1.06-.62 1.87-1.5 1.87-2.31 0-1.62-2.5-1.89-3.55-1.89-4.64-0-7.45 1.97-7.45 1.97v-.27s3.3-2.5 7.66-2.5c1.85 0 4.34.53 4.34 2.5 0 1.42-1.44 2.35-2.98 2.95l-.74 2.85c-1.13.39-2.1.7-4.28.7-1.29 0-3-.86-3-2.66 0-2.84 3-4.34 5.19-4.34 1.58 0 3.08.42 3.08 1.92v.08h-2.12s-.18-.5-1.26-.5c-1.38 0-2.39 1.32-2.39 2.66 0 1.25 1.04 1.34 1.63 1.34.76 0 1.33-.25 1.33-.25l.21-.75h-1.17z" fill="#e21f25"/></svg>