<svg height="18" viewBox="0 0 18 18" width="18" xmlns="http://www.w3.org/2000/svg"><path d="m0 0h18v18h-18z" fill="#f0f3fa"/><path d="m6.4 11h-1.68l1.75-4.25c1.47 0 1.71.98 1.86 1.36.15.39.4.92.58.92.15 0 .37-.2.47-.3l3-2.8.23.08c-.96 1.6-3.12 4.79-4.08 4.79-.95 0-1.32-1.03-1.38-1.55l-.76 1.75z" fill="#313c96"/><path d="m13.5 11h-3.03v-.3h.53v-1.51c0-.66.34-1.19.92-1.19s1.08.53 1.08 1.19v1.51h.5z" fill="#f09c05"/><g fill="#313c96"><path d="m12.43 9.19c0-.96-.57-1.08-.88-1.05.77-.47 1.21.32 1.21 1.05 0 .58-.3.96-.46 1.08.12.15.2.55.23.73h-.53v-.93c.15-.07.43-.34.43-.88z"/><path d="m9 13c3.31 0 6-1.8 6-4s-2.69-4-6-4-6 1.8-6 4 2.69 4 6 4zm0-.3c3.15 0 5.7-1.66 5.7-3.7s-2.55-3.7-5.7-3.7-5.7 1.67-5.7 3.7 2.55 3.7 5.7 3.7z" fill-rule="evenodd"/></g></svg>