<svg height="18" viewBox="0 0 18 18" width="18" xmlns="http://www.w3.org/2000/svg" xmlns:xlink="http://www.w3.org/1999/xlink"><linearGradient id="a" gradientUnits="userSpaceOnUse" x1="9.38" x2="13.62" y1="5.38" y2="9.32"><stop offset=".08" stop-color="#f0f3fa"/><stop offset=".33"/><stop offset=".49" stop-color="#010101"/></linearGradient><linearGradient id="b" gradientUnits="userSpaceOnUse" x1="9.85" x2="11.5" y1="10.2" y2="7.14"><stop offset=".21" stop-color="#f0f3fa"/><stop offset=".37" stop-color="#c4c4c4"/><stop offset=".71" stop-color="#3d3c3c"/></linearGradient><linearGradient id="c" gradientUnits="userSpaceOnUse" x1="14.25" x2="12.61" y1="6.2" y2="7.95"><stop offset="0" stop-color="#c12725"/><stop offset=".37" stop-color="#38071c"/><stop offset=".74" stop-color="#1d1d1b"/></linearGradient><linearGradient id="d" gradientUnits="userSpaceOnUse" x1="14.44" x2="13.31" y1="8.86" y2="8.86"><stop offset="0" stop-color="#dc3237"/><stop offset=".52" stop-color="#b02626"/></linearGradient><linearGradient id="e" gradientUnits="userSpaceOnUse" x1="13.34" x2="13.34" y1="6.1" y2="8.49"><stop offset="0" stop-color="#de3137"/><stop offset=".75" stop-color="#c33833"/></linearGradient><linearGradient id="f" gradientUnits="userSpaceOnUse" x1="3.97" x2="6.78" y1="6.06" y2="7.75"><stop offset="0" stop-color="#f0f3fa"/><stop offset=".32" stop-color="#9d9d9d"/><stop offset=".52" stop-color="#3d3d3d"/></linearGradient><linearGradient id="g" gradientUnits="userSpaceOnUse" x1="5.36" x2="6.54" y1="6.59" y2="7.82"><stop offset="0" stop-color="#464646"/><stop offset=".56" stop-color="#171717"/></linearGradient><linearGradient id="h" gradientUnits="userSpaceOnUse" x1="7" x2="2.58" y1="8.72" y2="11.44"><stop offset=".15"/><stop offset=".4" stop-color="#272727"/><stop offset=".85"/></linearGradient><linearGradient id="i" gradientUnits="userSpaceOnUse" x1="4.55" x2="7" y1="9.02" y2="9.02"><stop offset=".07" stop-color="#e1dfe2"/><stop offset=".7" stop-color="#484647"/></linearGradient><linearGradient id="j" gradientUnits="userSpaceOnUse" x1="5.59" x2="3.04" y1="9" y2="10.18"><stop offset=".23" stop-color="#504e4f"/><stop offset=".54" stop-color="#f0f3fa"/><stop offset=".72" stop-color="#aeacad"/><stop offset=".94" stop-color="#363435"/></linearGradient><linearGradient id="k" gradientUnits="userSpaceOnUse" x1="5.51" x2="6.02" y1="7.14" y2="8.21"><stop offset="0" stop-color="#403c3d"/><stop offset=".81" stop-color="#828284"/></linearGradient><path d="m0 0h18v18h-18z" fill="#f0f3fa"/><path d="m7.64 12h1.31v-2.02h.98c.92 0 2.07-.4 2.07-1.93 0-1.7-1.7-2-1.7-2h-2.67l.76.69v4.61l-.74.65zm1.31-4.63v1.4h1.92v-1.4z" fill="url(#a)" fill-rule="evenodd"/><path d="m8.37 6.75-.7-.68v5.87l.65-.5z" fill="#dcdcdc"/><path d="m10.2 6h-2.6v6h1.4v-2h.81c.47 0 1.02-.07 1.45-.37.44-.3.74-.8.74-1.58a1.9 1.9 0 0 0 -.9-1.69 2.71 2.71 0 0 0 -.9-.36zm-2.1 5.63-.3.26h1.03v-1.97h.98c.45 0 .98-.1 1.4-.38.4-.28.7-.74.7-1.5a1.8 1.8 0 0 0 -.86-1.59 2.61 2.61 0 0 0 -.86-.35h-2.44l.68.68v4.54l-.06.06v.05zm.18-.3-.58.57v-5.71l.58.59z" fill-rule="evenodd"/><path d="m8.4 9.35h1.85s1.07-.18 1.07-1.28c0-.33-.13-.61-.26-.8l-.48.41c.06.09.07.16.07.35 0 .5-.4.57-.7.57h-1z" fill="url(#b)"/><path d="m8.36 9.42v-2.72h1.9s.5.13.81.57l-.45.49a.62.62 0 0 0 -.58-.36h-1.04v1.2z"/><path d="m13.7 7.95-.57.65v-1.05l1.25-1.2z" fill="url(#c)"/><path d="m14.38 11.35-.68.65h1.3v-6l-.62.35z" fill="#2c171c"/><path d="m14.38 11.39-.68.61v-4.03l.68-1.62z" fill="url(#d)"/><path d="m13.76 6-1.56 1.74.93.86v-.93l1.25-1.32z" fill="url(#e)"/><path d="m15 6h-1.24l.6.35z" fill="#9f4745"/><path d="m5.12 7.3.75-1.16a1.64 1.64 0 0 0 -.55-.08h-1.52c-.56 0-1.02.38-1.33.82-.29.4-.4 1.08-.4 1.08v2c0 .53.3 1.08.65 1.44l.52-.53-.27-2.91 1.11-.82 1.04.17z" fill="url(#f)"/><path d="m6.96 8h-1.36v-.68l-.49-.07.75-1.1c.24.08.46.22.66.42.36.38.43 1.43.43 1.43z" fill="url(#g)"/><path d="m6.56 6.56c-.2-.22-.43-.38-.68-.47l-.07.1c.22.08.5.24.68.44s.24.5.32.8c.05.2.04.37.06.46h-1.27l.05-.55-.45-.07-.17.08.48.07v.58h1.49c0-.34-.13-1.1-.44-1.44z"/><path d="m3.98 12c-.43 0-.95-.23-1.27-.54l.7-.76 2.2.28.52-1.6.87-.78v1.7c0 .37-.26.92-.52 1.17-.34.31-.91.53-1.36.53z" fill="url(#h)"/><path d="m6.32 9.34.57-.7-2.34.06.59.64z" fill="url(#i)"/><path d="m4.55 9.98v-1.36l.58.66z" fill="#e1dfe2"/><path d="m4.98 10.59h-1.14l-.58.38s.47.32.89.32h1.15c.3 0 .59-.13.74-.27.16-.14.34-.48.34-.77v-.95l-.63.35v.4c0 .16 0 .31-.07.39-.09.1-.25.14-.4.14h-.3z" fill="url(#j)"/><path d="m3.8 6c-.58 0-1.09.4-1.4.84-.15.21-.24.5-.3.71-.04.12-.1.36-.1.49v1.91c0 .56.33 1.12.7 1.5l.02.03.74-.8-.1-.05-.64.7a2.19 2.19 0 0 1 -.62-1.38v-1.99a3.5 3.5 0 0 1 .37-1.05c.3-.43.79-.8 1.33-.8h1.52c.16 0 .32.02.47.06l.1.04.05-.1-.06-.02c-.17-.06-.36-.09-.56-.09zm1.33 3.34.01.01h1.26l.6-.75h-2.49l-.01-.01v1.41zm-.53-.54v.96l.48-.49zm.59.44-.53-.54h2.14l-.49.54h-1.13z" fill-rule="evenodd"/><path d="m5.75 10h-1.25l.6-.7h1.33z"/><path d="m4.77 7.41c.18 0 .4.03.48.08l.41-.63a1.32 1.32 0 0 0 -.59-.15h-.94c-.35 0-.87.28-1.1.55s-.38.56-.38.92l-.01.54c-.02.48-.04.92.08 1.39.13.47.52.86.52.86l.6-.38s-.2-.13-.34-.26c-.28-.26-.25-.58-.25-1.05v-1c0-.17.08-.38.22-.58.15-.2.35-.29.6-.29z" fill="#010101"/><path d="m6.13 7.56-.6.44c0-.33-.16-.45-.28-.51l.4-.63c.27.14.42.4.48.7z" fill="url(#k)"/></svg>