<svg height="18" viewBox="0 0 18 18" width="18" xmlns="http://www.w3.org/2000/svg" xmlns:xlink="http://www.w3.org/1999/xlink"><linearGradient id="a" gradientUnits="userSpaceOnUse" x1="3.35" x2="21.9" y1="3.12" y2="24.43"><stop offset="0" stop-color="#1a1e21"/><stop offset="1" stop-color="#06060a"/></linearGradient><linearGradient id="b" gradientUnits="userSpaceOnUse" x1="6" x2="697.76" y1="5.5" y2="598.44"><stop offset="0" stop-color="#64a7a5"/><stop offset="1" stop-color="#346e6c"/></linearGradient><path d="m0 0h18v18h-18z" fill="url(#a)"/><path d="m14 6-5-3-5 3v6l5 3 5-3zm-5-2.83 4.86 2.91v5.84l-4.86 2.91-4.86-2.91v-5.84z" fill="#fff"/><path d="m13 6.5-4-2.5-4 2.5v5l4 2.5 4-2.5zm-4-2.32 3.86 2.4v4.83l-3.86 2.41-3.86-2.4v-4.84z" fill="#fff"/><path d="m9 5.5 3 1.75v3.5l-3 1.75-3-1.75v-3.5z" fill="url(#b)"/><path d="m9 7.54 1.25.73v1.46l-1.25.73-1.25-.73v-1.46z" fill="#fff"/></svg>