<svg height="18" viewBox="0 0 18 18" width="18" xmlns="http://www.w3.org/2000/svg"><path d="m0 0h18v18h-18z" fill="#f0f3fa"/><path d="m3 9.2c0-3.17 3.02-4.12 4.5-4.2-2.67.75-3.24 2.91-3.17 4h9.34c-.18-2.42-2.2-3.61-3.17-4 2 0 4.5 1.86 4.5 4.2 0 1.86-1.63 3.1-2.44 3.5.7-.75.88-1.56.88-1.87-.59-.24-2.3-.83-4.44-.83-2.13 0-3.7.6-4.22.83 0 .74.44 1.55.66 1.86a3.85 3.85 0 0 1 -2.44-3.49z" fill="#fb0300"/><path d="m7.95 6-1.45 3h1.45l.55-3zm2.05 0 1.5 3h-1.5l-.5-3zm-2 7h-2.5l1.1-1.85 2.4-.65 2.4.65 1.1 1.85h-2.5v-.94c-.07-.31-.12-1.06-1-1.06s-.93.75-1 1.06z" fill="#07209b"/></svg>