<svg height="18" viewBox="0 0 18 18" width="18" xmlns="http://www.w3.org/2000/svg"><path d="m0 0h18v18h-18z" fill="#f0f3fa"/><path d="m3 8.7v-2.32a1.6 1.6 0 0 1 1.22-1.24c.31-.09.63-.14.96-.14h7.67c.26 0 .27.03.01.1-3.34.91-6.66 2.14-9.86 3.6z" fill="#ed6c00"/><path d="m10.77 7.36c-.13.08-.27.2-.27.36v5.46c0 .27.16.55.34.75a.04.04 0 0 1 -.03.07h-2.71c-.06 0-.09-.03-.09-.09v-6.09c0-.37.2-.63.6-.76a1498.34 1498.34 0 0 1 6.38-2.05.04.04 0 0 1 .02.02v2.5c0 .04-.02.05-.06.03a1.47 1.47 0 0 0 -.77-.25h-3.22a.33.33 0 0 0 -.18.05z" fill="#005bac"/></svg>