<svg height="18" viewBox="0 0 18 18" width="18" xmlns="http://www.w3.org/2000/svg"><path d="m0 0h18v18h-18z" fill="#f0f3fa"/><g fill="#234898"><path d="m11.06 6.53c0 .27-.06.53-.16.77.15.15.28.31.4.5.22-.38.35-.8.35-1.27a2.6 2.6 0 0 0 -2.65-2.53 2.6 2.6 0 0 0 -2.65 2.53c0 .46.13.9.36 1.27.1-.19.24-.35.4-.5-.11-.24-.17-.5-.17-.77 0-1.09.92-1.97 2.06-1.97s2.06.88 2.06 1.97z"/><path d="m11.56 8.42a2.44 2.44 0 0 0 -.19-.48 2.59 2.59 0 0 1 2.63 2.53 2.6 2.6 0 0 1 -2.65 2.53 2.66 2.66 0 0 1 -2.35-1.37 2.66 2.66 0 0 1 -2.35 1.37 2.6 2.6 0 0 1 -2.65-2.53c0-1.4 1.17-2.52 2.63-2.53a2.63 2.63 0 0 1 2.37-1.4c1.23 0 2.26.8 2.56 1.88zm.02.1c.05.17.07.35.07.54 0 1.2-.87 2.2-2.03 2.46.36.55 1 .92 1.73.92 1.14 0 2.06-.88 2.06-1.97a2 2 0 0 0 -1.83-1.96zm-3.2 3a2.56 2.56 0 0 1 -1.96-3 2 2 0 0 0 -1.83 1.95c0 1.09.92 1.97 2.06 1.97.73 0 1.37-.37 1.73-.91zm2.68-2.46c0 1.09-.92 1.97-2.06 1.97a2.02 2.02 0 0 1 -2.06-1.97c0-1.08.92-1.97 2.06-1.97s2.06.89 2.06 1.97z" fill-rule="evenodd"/></g></svg>