<svg height="18" viewBox="0 0 18 18" width="18" xmlns="http://www.w3.org/2000/svg"><path d="m0 0h18v18h-18z" fill="#f0f3fa"/><path d="m6.94 7.71c0-.5.02-.94.07-1.34h.13c.05.04.1.12.15.23.1.24.5.64.77.76.16.06.2.25.22.4.03.12.05.22.12.22.08 0 .16-.08.23-.17v.82h-1.62c-.04-.29-.07-.6-.07-.92zm2.43.83v.1h.1a.4.4 0 0 1 -.07-.06.66.66 0 0 0 -.03-.04zm1.5.1h.13a5.5 5.5 0 0 0 .08-1.29h-.04l-.1.63c0 .2-.02.46-.07.65zm.54-1.31v.4c0 .31-.02.62-.07.9h.98a1.44 1.44 0 0 0 -.27-.45l-.14-.2c-.04-.07-.04-.17-.05-.27 0-.16 0-.31-.14-.35-.08-.03-.2-.03-.31-.03zm1.08.94-.04-1.61c-.04-.07-.1-.17-.15-.06-.06.14-.4.24-.72.24l-.2-.02c0-.16-.02-.31-.03-.45h1.08l.16.76zm.55-2.62a4.38 4.38 0 0 0 -.76-1.19h-1.41c0 .03.02.06.03.08.18.41.32.9.4 1.46h1.05l-.07-.35zm-2.37-1.55h1.24a4.4 4.4 0 0 0 -2.16-1.04c.36.28.67.61.92 1.04zm-1.67-1.1h.01zm-2.9 1.1a4.4 4.4 0 0 1 2.1-1.03c-.35.28-.64.6-.88 1.03h-1.23zm-1.15 1.55c.19-.44.45-.84.76-1.19h1.42a4.25 4.25 0 0 0 -.12.3l-.63.09c-.05.01-.13.08-.13.18 0 .13.13.34.28.56a11.13 11.13 0 0 0 .19.4v.01h-.9l.07-.35zm.79.72h.93c-.05.4-.07.85-.07 1.34 0 .33.03.63.07.92h-.96l-.13-1.5zm-.03 3.93a4.38 4.38 0 0 1 -.8-1.3h1.83c.11.49.27.92.46 1.3h-1.48zm2.49 1.4a4.4 4.4 0 0 1 -2.1-1.02h1.32c.25.43.53.77.78 1.02zm3.72-1.02a4.4 4.4 0 0 1 -2.12 1.02c.26-.25.55-.59.8-1.02zm1.17-1.68c-.2.48-.47.92-.81 1.3h-1.48c.2-.38.36-.81.47-1.3zm-4.73-3a.24.24 0 0 1 -.04-.05c-.06-.09-.01-.14.03-.18a.21.21 0 0 0 .05-.07c.03-.07-.41-.64-.58-.85-.05-.07-.23-.1-.45-.1a4.12 4.12 0 0 1 .13-.29h1.13v1.54zm1 .48v-.11h1.65l.03.31a.97.97 0 0 0 -.1-.02c-.21-.04-.2.37-.17.58a5.62 5.62 0 0 0 -.41-.29c-.08-.05-.1-.06-.33-.07-.3 0-.48-.17-.63-.36a.41.41 0 0 0 -.03-.04zm-.73 5.18c-.24-.2-.55-.54-.84-1h.84zm-1.05-1.36h1.05v-1.3h-1.53c.11.5.29.93.49 1.3zm1.79 1.34v-.97h.84c-.29.44-.6.77-.84.97zm0-1.34h1.06c.2-.37.38-.8.5-1.3h-1.56zm0-4.3h1.6a5.39 5.39 0 0 0 -.47-1.54h-1.13zm.91-1.9h-.91v-.92c.36.25.66.54.91.92zm-2.57 0c.25-.4.56-.7.92-.95v.95z" fill="#bb8f34"/><path d="m8 12.4v2.27c0 .2-.09.36-.27.33a4.98 4.98 0 0 1 -2.1-1.18c-.99-.8-.97-1.73-.97-2.36v-.17c0-.52-.38-.7-.76-.86a5 5 0 0 1 -.23-.11c-.43-.22-.67-.42-.67-.74 0-.24.07-.64.1-.83l.01-.03.03-.28a.5.5 0 0 0 -.06-.3v-.01a.48.48 0 0 1 -.02-.45.48.48 0 0 0 0-.42v-.03a.56.56 0 0 1 -.02-.45l.04-.07a.46.46 0 0 0 -.02-.4.46.46 0 0 1 0-.42l.01-.03a.45.45 0 0 1 .4-.25h1.73c.18 0 .34.11.41.28.06.14.06.29 0 .42a.53.53 0 0 0 -.01.4l.02.07c.05.15.05.3 0 .45l-.02.05a.53.53 0 0 0 0 .39l.02.04c.05.12.04.27-.02.38a.45.45 0 0 0 -.03.39l.1.25c.02.05.03.1.03.16 0 .23-.17.33-.38.33h-.66v.34a4.43 4.43 0 0 0 3.09 2.48c.17.03.24.19.24.37zm-4.5-6.57a.28.28 0 0 0 -.28.28c0 .17.13.3.28.3h1.67c.16 0 .28-.13.28-.3a.28.28 0 0 0 -.28-.28zm0 .86a.28.28 0 0 0 -.28.3c0 .15.13.28.28.28h1.67c.16 0 .28-.13.28-.29a.28.28 0 0 0 -.28-.29zm-.28 1.23c0-.16.13-.3.28-.3h1.67c.16 0 .28.14.28.3s-.12.29-.28.29h-1.67a.28.28 0 0 1 -.28-.3zm.28.57a.28.28 0 0 0 -.28.3c0 .15.13.28.28.28h1.67c.16 0 .28-.13.28-.29a.28.28 0 0 0 -.28-.29zm6.5 3.93v2.26c0 .2.09.36.27.33.44-.08 1.09-.36 2.1-1.18.99-.8.97-1.74.96-2.37v-.16c0-.52.39-.7.77-.86l.23-.11c.43-.22.65-.45.65-.76 0-.26-.06-.67-.1-.84l-.02-.28a.5.5 0 0 1 .06-.3v-.01c.08-.14.09-.31.02-.45a.48.48 0 0 1 0-.42l.01-.03a.56.56 0 0 0 0-.45l-.03-.07a.46.46 0 0 1 .02-.4.46.46 0 0 0 0-.42l-.01-.03a.45.45 0 0 0 -.4-.25h-1.73c-.18 0-.34.11-.41.28a.52.52 0 0 0 0 .42c.05.13.06.27.01.4l-.02.07a.65.65 0 0 0 0 .45l.02.05c.05.12.05.26 0 .39l-.02.04a.45.45 0 0 0 .02.38c.07.12.08.26.03.39l-.1.25a.43.43 0 0 0 -.03.16c0 .23.17.33.38.33h.66v.34a4.43 4.43 0 0 1 -3.09 2.48c-.17.03-.24.19-.24.37zm4.5-6.62c.16 0 .29.13.29.28 0 .14-.13.27-.28.27h-1.72a.28.28 0 0 1 -.28-.27c0-.15.13-.28.28-.28h1.72zm0 .9c.16 0 .29.13.29.28s-.13.27-.28.27h-1.72a.28.28 0 0 1 -.28-.27c0-.15.13-.27.28-.27h1.72zm.29 1.18a.28.28 0 0 0 -.28-.27h-1.72a.28.28 0 0 0 -.28.27c0 .15.13.27.28.27h1.72c.15 0 .28-.12.28-.27zm-.28.61c.15 0 .28.13.28.3 0 .15-.13.28-.28.28h-1.72a.29.29 0 0 1 -.28-.29c0-.16.13-.29.28-.29z" fill-rule="evenodd"/></svg>