<svg height="18" viewBox="0 0 18 18" width="18" xmlns="http://www.w3.org/2000/svg"><path d="m0 0h18v18h-18z" fill="#f0f3fa"/><path d="m7.25 11h3.5l.9-4h-5.3zm-5.25 0h4.85l-.9-4h-3.95zm14 0h-4.85l.9-4h3.95zm-6.04-3h-.43l-1.21.86v-.86h-.32v2h.31v-.86l.08-.06 1.17.92h.44l-1.38-1.07zm-5.17 1.68c.19-.2.21-.48.2-.75h-.85v.21h.62c0 .36-.37.66-.73.66a.88.88 0 0 1 -.58-.24.76.76 0 0 1 -.23-.55c0-.21.08-.42.24-.57a.84.84 0 0 1 1.29.12l.16-.14c-.1-.14-.24-.25-.4-.32a1.1 1.1 0 0 0 -1.03.06.96.96 0 0 0 -.33 1.35c.09.15.22.27.37.36.16.08.34.13.52.13a1.05 1.05 0 0 0 .75-.32zm9.2-1.68c.64 0 1.01.23 1.01.62 0 .4-.37.64-1.02.64h-.68v.74h-.3v-2h.98zm-.7 1.06h.68c.47 0 .74-.15.74-.44 0-.28-.27-.42-.74-.42h-.67v.86z" fill="#475a67" fill-rule="evenodd"/></svg>