<svg height="18" viewBox="0 0 18 18" width="18" xmlns="http://www.w3.org/2000/svg"><path d="m0 0h18v18h-18z" fill="#0056b9"/><path d="m9.49 12h-2.54l2.08-6h2.46l-.41 1.23a3 3 0 1 1 -.58 1.73zm-3.1 0h-4.39l2.08-6h4.3l-2 6z" fill="#fff"/><path d="m5.46 7h-.69l-1.27 4h.66l.52-1.6h1.07l-.51 1.6h.66l1.3-4h-.7l-.5 1.6h-1.07zm4.85 0h-.69l-1.27 4h.66zm3.51 1.09h.62c-.04-.36-.27-1.09-1.05-1.09s-1 .76-1.03 1.15c-.02.21.06.7.5.95.18.1.56.27.67.3.14.05.4.26.4.51 0 .26-.22.47-.5.47a.47.47 0 0 1 -.47-.47h-.63c.02.37.27 1.09 1.06 1.09 1 0 1.11-.88 1.11-1.09 0-.2-.02-.9-.8-1.19-.75-.26-.74-.47-.74-.6v-.03c0-.14.12-.46.43-.46.3 0 .43.32.43.46z" fill="#0057b8"/></svg>