<svg height="18" width="18" xmlns="http://www.w3.org/2000/svg"><path d="m0 0h18v18h-18z" fill="#f0f3fa"/><circle cx="8.986" cy="9.027" fill="#ffe59e" r="3.716"/><path d="m13.896 9.347a6.191 6.191 0 0 1 -.76-.023l.003-.094c-.03 2.269-1.877 3.95-4.153 3.95a4.153 4.153 0 0 1 -4.142-3.857c-.21.093-.495.254-.733.177.252 2.48 2.33 4.336 4.875 4.336 2.622 0 4.765-1.903 4.91-4.489zm-.239-1.971c-.284.13-.615.14-.815.106a4.154 4.154 0 0 0 -7.69-.051l-.828-.083a4.92 4.92 0 0 1 9.333.028z" fill="#5d9731"/><path d="m8.658 12.142c-.164-.346-.24-1.202.765-1.858 1.257-.82 3.005-1.148 4.317-.164-1.01.129-6.81 2.088-4.426 3.77-.055.146-.219.35-.437 0-.274-.437-.547-.983-1.039-1.475-.491-.492-2.295-.874-3.278-1.257.304-.161.84-.33 1.438-.293-.073-.164-.29-.668-.29-1.237.39.018 1.466.23 1.885.889.105-.267.314-.539.682-.78.274-.109.93-.327 1.093-.437.055-.036.019.545-.054.765-.055.164-.747.966-1.039 1.366-.127.183-.262.645.219 1.257l.11.11z" fill="#5f7238"/><path d="m4 8h10v1h-10zm2-2h6v1h-6z" fill="#455a21" opacity=".67"/></svg>