<svg height="18" viewBox="0 0 18 18" width="18" xmlns="http://www.w3.org/2000/svg"><path d="m0 0h18v18h-18z" fill="#f0f3fa"/><path d="m2 8h2.12c1.9-1.72 2.85-2.68 4.88-2.68 2.05 0 3.06.96 4.89 2.68h2.11c-2.62-2.1-4.38-3-7-3-2.63 0-4.39.9-7 3z" fill="#54b948"/><path d="m11.89 10.3c.38 0 .64.03.76.1.11.06.18.17.18.34s-.07.3-.2.36c-.12.07-.37.1-.74.1h-.89v-.9zm-.08-1.56c.35 0 .57.04.67.1.11.05.17.16.17.3 0 .17-.06.29-.18.34-.11.07-.33.1-.66.1h-.81v-.84zm.23 3.26c.45 0 .78-.04 1-.09.22-.04.4-.11.55-.22.13-.1.24-.22.3-.35.07-.14.11-.3.11-.48 0-.3-.09-.53-.27-.69a1.2 1.2 0 0 0 -.77-.28c.31-.06.53-.17.67-.3a.74.74 0 0 0 .2-.56 1 1 0 0 0 -.16-.55.84.84 0 0 0 -.44-.35 1.76 1.76 0 0 0 -.44-.1 7.52 7.52 0 0 0 -.76-.03h-2.03v4zm-7.04-4h1v1.53h2v-1.53h1v4h-1v-1.65h-2v1.65h-1z"/></svg>