<svg height="18" viewBox="0 0 18 18" width="18" xmlns="http://www.w3.org/2000/svg"><path d="m0 0h18v18h-18z" fill="#f0f3fa"/><path d="m14 4h-10v10h3v-1.25l-.7-1.1a2 2 0 0 1 -.3-1.05v-2.28c0-.16 0-.32.3-.32.24 0 .3.21.3.32v1.58s-.17.02-.3.16c-.24.25-.1.63 0 .79l.75.95c.15.16.26-.05.15-.16l-.6-.63c-.15-.16-.45-.48-.15-.8.24-.25.5-.1.6 0l1.05 1.11c.36.38.4.64.4.8v1.88h1v-1.88c0-.16.04-.41.4-.8l1.05-1.1c.1-.1.36-.26.6 0 .3.31 0 .63-.15.79l-.6.63c-.1.11 0 .32.15.16l.75-.95c.1-.16.24-.54 0-.8a.54.54 0 0 0 -.3-.15v-1.58c0-.1.06-.32.3-.32.3 0 .3.16.3.32v2.27a2 2 0 0 1 -.3 1.07l-.7 1.09v1.25h3z" fill="#0079c2"/><path d="m11 8a2 2 0 1 1 -4 0c0-2 2.33-3 2.33-3s-.16.79.67 1.27c.6.34 1 .99 1 1.73z" fill="#fdc300"/></svg>