<svg height="18" viewBox="0 0 18 18" width="18" xmlns="http://www.w3.org/2000/svg"><path d="m0 0h18v18h-18z" fill="#f0f3fa"/><g fill="#182e60"><path d="m13 7.7-.67.22c0-.35-.03-.77-.29-.77-.7 0-1.04 1.9-1.04 2.26 0 .37.15.6.35.6.26 0 .52-.35.62-.53.13.07.42.23.6.35-.68 1-1.08 1.17-1.49 1.17-.4 0-1.08-.47-1.08-1.52 0-1.96 1.32-3.48 2.21-3.48.7 0 .82 1.13.78 1.7z"/><path d="m2.33 10.21 1.1-.39c.15.17.6.45 1.23.45.78 0 1.31-.58 1.45-1.1l.58-2.17h.97l-.44 1.46h.68l.41-1.46h.86l-.42 1.46h.56l-.14.72h-.6l-.47 1.66h-.8l-.68-1.02c-.17.4-.81 1.18-2.04 1.18-1.06 0-2.01-.52-2.25-.79zm4.84-1.03h.34l-.12.37z" fill-rule="evenodd"/><path d="m13.4 7.4 2.6 1.4-3.8 2.18.1-1 2.03-1.13-1.55-.76v-.34l.63-.35zm-2.28-1.24-2.14-1.16-2.05 1.16 1.02.57h.01l1-.53 1.34.66zm-5.12 1.62v-1.08l-4 2.27 1.2.72 1.34-.47-.54-.37zm1.43 3.4h-.59l-.54.39 2.36 1.43 2.06-1.18-.86-.5-1.2.68-1.23-.83z"/></g></svg>