<svg height="18" viewBox="0 0 18 18" width="18" xmlns="http://www.w3.org/2000/svg"><path d="m0 0h18v18h-18z" fill="#aa2345"/><path d="m14 9.15a5.71 5.71 0 0 0 -1.03-3.15c-2.9-3.8-8.64-1.84-8.97 2.9-.02.37.1.43.37.18l4.41-4.1a.28.28 0 0 1 .39 0l4.64 4.26a.11.11 0 0 0 .17-.03.12.12 0 0 0 .02-.06zm-9.14 2.15 3.99-3.7a.21.21 0 0 1 .29 0l4.01 3.71a.21.21 0 0 0 .35-.1l.17-.64a.22.22 0 0 0 -.07-.21l-4.46-4.18a.21.21 0 0 0 -.29 0l-4.53 4.21a.22.22 0 0 0 -.06.25l.26.6a.22.22 0 0 0 .15.12.21.21 0 0 0 .2-.05zm3.98-.99-2.7 2.5a.24.24 0 0 1 -.32.02l-.44-.35a.25.25 0 0 1 -.1-.2.26.26 0 0 1 .09-.19l3.48-3.2a.24.24 0 0 1 .34 0l3.46 3.25a.25.25 0 0 1 .08.22.25.25 0 0 1 -.14.2l-.51.26a.24.24 0 0 1 -.28-.04l-2.63-2.47a.24.24 0 0 0 -.33 0zm-1.94 3.34c.03.03.07.05.1.06a6.98 6.98 0 0 0 4.06-.05.23.23 0 0 0 .06-.22.23.23 0 0 0 -.06-.1l-1.9-1.75a.22.22 0 0 0 -.3 0l-1.95 1.73a.23.23 0 0 0 -.07.22c.01.04.03.08.06.1z" fill="#fff"/></svg>