<svg height="18" viewBox="0 0 18 18" width="18" xmlns="http://www.w3.org/2000/svg"><path d="m0 0h18v18h-18z" fill="#f0f3fa"/><path d="m6 5.06a.17.17 0 0 1 -.05.07 4.89 4.89 0 0 0 -1.8 2.8c-.04.18-.1.71-.15.88v-4.79a.02.02 0 0 1 0-.01.02.02 0 0 1 .02-.01h1.95l.02.01.01.02zm7.8 2.61c-.03-.09.01-.04 0-.12l-.1-.27a4.63 4.63 0 0 0 -1.66-2.22.12.12 0 0 1 -.04-.05v-1.01l.02-.01h1.96a.02.02 0 0 1 .02.02v3.65s-.19-.02-.2 0zm-1.8 2.66h1.95c.01 0 .03 0 .04.02l.01.03v3.59l-.03.03h-1.92c-.02 0-.05-.04-.05-.05zm-6 2.63v1c0 .01-.02.04-.04.04h-1.92a.04.04 0 0 1 -.03-.01v-.02l-.01-.01v-4.9c.5 1.32.92 3.08 2 3.9z" fill="#195a4b"/><path d="m13.8 7.27.1.4h-1.76a.05.05 0 0 1 -.05-.04 3.2 3.2 0 0 0 -3.25-1.91 3.22 3.22 0 0 0 -2.94 2.24c-.06.18-.13.34-.15.54-.02.29-.03.56-.02.8a3.27 3.27 0 0 0 1.99 2.7 3.28 3.28 0 0 0 2.94-.13c.56-.3 1.07-.8 1.34-1.5v2.7c-.9.55-1.87.92-2.95.92a5.05 5.05 0 0 1 -5.02-5.67 5.06 5.06 0 0 1 9.77-1.05z" fill="#f08419"/><path d="m13.98 8h-6.96l-.02.02v1.96c0 .01 0 .02.02.02h6.96l.02-.02v-1.96c0-.01 0-.02-.02-.02z" fill="#195a4b"/></svg>