<svg height="18" viewBox="0 0 18 18" width="18" xmlns="http://www.w3.org/2000/svg"><path d="m0 0h18v18h-18z" fill="#f0f3fa"/><g fill="#014899"><path d="m14 8.9v-.9c-3.1 3.8-5.07 5.13-5.66 5.31.02.12.09.41.19.69 1.22-.28 4.15-3.52 5.47-5.1zm0-1.85v-1.05a1153.9 1153.9 0 0 0 -4.53 4.9c-1.09 1.19-1.85 1.36-2.62 1.36a2.9 2.9 0 0 1 -1.4-.38l-.45.63c.21.16.88.49 1.85.49 1.43 0 2.55-1.06 3-1.54z"/><path d="m14 4.95v-.95l-5.72 6.14c-.22.28-.9.86-1.85.86-1.05 0-1.73-1.03-1.73-1.67 0-.83.69-1.66 1.74-1.66.94 0 1.4.73 1.65 1.07l.6-.38a2.45 2.45 0 0 0 -2.27-1.36c-1.21 0-2.42.98-2.42 2.31 0 1.34 1.32 2.36 2.43 2.36.9 0 1.78-.55 2.1-.83z"/></g></svg>