<svg height="18" viewBox="0 0 18 18" width="18" xmlns="http://www.w3.org/2000/svg"><path d="m0 0h18v18h-18z" fill="#f0f3fa"/><path d="m5 7.24c0-.5.4-.67.89-.67h7.11v4.49a2.95 2.95 0 0 1 -2.96 2.94h-5.04z" fill="#0aa021"/><path d="m5 6.94c0-.49.4-.94.89-.94h6.61v4.76c0 1.63-1.12 2.74-2.76 2.74h-4.74z" fill="#fff"/><path d="m11.52 4-5.93 8.82c0-1.61-.1-3.53 1.17-5.47 1.37-2.11 3.68-3.3 4.76-3.35z" fill="#026d39"/><path d="m5.6 12.82 5.91-8.82c0 1.76-.15 3.68-1.17 5.47-1.24 2.2-3.68 3.3-4.76 3.35z" fill="#1daa39"/></svg>