<svg height="18" viewBox="0 0 18 18" width="18" xmlns="http://www.w3.org/2000/svg"><path d="m0 0h18v18h-18z" fill="#f0f3fa"/><path d="m8.56 8.4c.24-.3.56-.62.94-.94v-3.18l-.15-.28h1.53l-.16.28v2.32a8.47 8.47 0 0 1 4.28-1.15c-.03.52-.28 1.7-1.05 2.3-.35.27-.57.38-.73.46-.28.14-.4.2-.73.88-.05.19-.28.61-.79.79-.63.21-.75.64-.8.84l-.01.04c-.06.22-.2.78-.94 1.19-.8.43-1.51 1.7-1.51 3.05h-.26c-.04-.44 0-1.58.52-2.62.16-.23.6-.8 1.08-1.27.34-.33.41-.56.48-.8.06-.18.12-.37.3-.61.31-.4.47-.44.66-.5l.27-.11c.17-.1.25-.28.35-.51.1-.26.24-.57.53-.83.26-.22.41-.27.56-.3.17-.06.33-.1.65-.44.47-.5.58-.88.58-1.01-5.02.75-6.5 5.55-6.6 7.86h-.2c0-.55-.16-1.8-.9-2.4-.25-.2-.56-.36-.86-.52-.8-.41-1.6-.83-1.6-2.13 0-1.8 1.8-1.8 1.93-1.8.12 0 1.1.2 1.43.98v-3.71l-.15-.28h1.53l-.16.28v4.02zm-1.2.75c-.24.64-.85.7-1.02.7-.2 0-.95-.15-.95-.95s.84-1.07 1.17-.58h-.23c-.09 0-.4.04-.4.4 0 .35.4.42.48.42s.53-.07.53-.65c0-.57-.53-.85-.84-.85-.3 0-1.12.16-1.12 1.34 0 .96.77 1.28 1.17 1.45l.2.09c.16.12.77.6 1.01 1.29z" fill="#c90729"/></svg>