<svg height="18" viewBox="0 0 18 18" width="18" xmlns="http://www.w3.org/2000/svg"><path d="m0 0h18v18h-18z" fill="#f0f3fa"/><path d="m9 7.8a2.33 2.33 0 1 0 0 2.4 2.33 2.33 0 1 0 0-2.4zm0-1a2.99 2.99 0 0 0 -5 2.2c0 1.66 1.33 3 2.97 3 .79 0 1.5-.3 2.03-.8a2.99 2.99 0 0 0 5-2.2c0-1.66-1.33-3-2.97-3-.79 0-1.5.3-2.03.8z" fill="#2d2d2d" fill-rule="evenodd"/><path d="m9 7 .1.85c.05.56.5 1 1.05 1.06l.85.09-.85.1c-.56.05-1 .5-1.06 1.05l-.09.85-.1-.85c-.05-.56-.5-1-1.05-1.06l-.85-.09.85-.1c.56-.05 1-.5 1.06-1.05z" fill="#cf0015"/></svg>