<svg height="18" viewBox="0 0 18 18" width="18" xmlns="http://www.w3.org/2000/svg"><path d="m0 0h18v18h-18z" fill="#f0f3fa"/><path d="m12.42 11h-.7v-1h.47c.24 0 .43-.25.43-.5 0-.26-.19-.5-.43-.5h-1.14v-1h1.37c.77 0 1.58.67 1.58 1.5s-.8 1.5-1.58 1.5z" fill="#7ea7d8"/><path d="m4 6h4.53v1h-3.03zm7.56 3h.7c.78 0 1.59-.67 1.59-1.5s-.81-1.5-1.59-1.5h-1.36v1h1.14c.24 0 .43.24.43.5 0 .25-.2.5-.43.5h-.48z" fill="#ccd7e6"/><ellipse cx="8.82" cy="9" fill="#0052a4" rx="2.91" ry="5"/><path d="m11.96 8h-4.53l1.51 1h3.02z" fill="#ccd7e6"/><path d="m12.05 10h-4.52l1.51 1h3.01z" fill="#7ea7d8"/></svg>