<svg height="18" width="18" xmlns="http://www.w3.org/2000/svg"><path d="m0 0h18v18h-18z" fill="#f86700"/><path d="m15 8.246h-12v2.536h12zm-10.27 4.024.907-1.106h6.606l1.272.758-.216.347-1.679 1.405-2.247 1.326-1.11-.221-3.533-2.51zm7.068-4.424h-6.812l.09-1.054-.251-1.032h.84l.823-.596 1.001-.505 1.63-.659.644.436 1.48.544 1.11.367.768.413v.527l-.357.803z" fill="#fff"/><g fill="#0a0b09"><path d="m2 7v4h14v-4zm13.008 3h-12.007v-2h12.007zm-5.976-5.82c.731.689 2.91 1.413 3.935 1.413v.376c-.15.263-.62.538-.602 1.031h1.007c-.012-.33.282-.896.628-1.004v-.996c-1.53 0-4.17-1.22-4.968-2-.797.78-3.73 2.002-5.032 2v.997c.347.107.546.674.538 1.003h.973c.017-.493-.416-.796-.527-1.03v-.377c1.033 0 3.317-.725 4.048-1.413z"/><path d="m12.035 10.52c.01.297.864 1.062 1.135 1.273-1.05.848-3.042 1.973-4.164 2.247-1.115-.336-2.972-1.4-4.022-2.247.273-.213 1.029-.973 1.039-1.273l-1.332-.003c-.018.306-.791 1.371-1.129 1.422 1.432 1.188 3.655 2.755 5.444 3.061 1.685-.22 4.157-1.873 5.588-3.06-.337-.054-1.204-1.12-1.222-1.426h-.36z"/></g></svg>