<svg height="18" viewBox="0 0 18 18" width="18" xmlns="http://www.w3.org/2000/svg"><path d="m0 0h18v18h-18z" fill="#f0f3fa"/><path d="m4.53 5.53a3.73 3.73 0 0 1 5.03-.1 3.76 3.76 0 0 0 -5.54-.4 3.74 3.74 0 0 0 .41 5.52 3.71 3.71 0 0 1 .1-5.02z" fill="#003c4b"/><path d="m11.67 11.33h.8c.23 0 .86.02.86-.65 0-.6-.58-.68-.85-.68h-.81zm0-2.66h.6c.24 0 .73.03.73-.53 0-.53-.46-.47-.73-.47h-.6zm-1.67-2.67h2.1c1.14 0 1.67.11 2.17.68.3.32.4.75.4 1.15a1.6 1.6 0 0 1 -.79 1.42c1.1.4 1.12 1.33 1.12 1.62 0 .56-.21 1.17-.62 1.52-.63.54-1.08.61-2.22.61h-2.16z" fill="#a5bbc3"/><path d="m5 6h1.47v2.67h2.06v-2.67h1.47v7h-1.47v-3h-2.06v3h-1.47z" fill="#e32526"/></svg>