<svg height="18" viewBox="0 0 18 18" width="18" xmlns="http://www.w3.org/2000/svg" xmlns:xlink="http://www.w3.org/1999/xlink"><linearGradient id="a"><stop offset="0" stop-color="#434345"/><stop offset=".18" stop-color="#858587"/><stop offset=".26" stop-color="#f6f6f6"/><stop offset=".39" stop-color="#8e8e8f"/><stop offset=".5" stop-color="#5f5f61"/><stop offset=".59" stop-color="#a2a0a1"/><stop offset=".74" stop-color="#fbfbfb"/><stop offset=".83" stop-color="#bebdbd"/><stop offset="1" stop-color="#434345"/></linearGradient><linearGradient id="b" gradientUnits="userSpaceOnUse" x1="6.45" x2="6.45" xlink:href="#a" y1="3.01" y2="15"/><linearGradient id="c" gradientUnits="userSpaceOnUse" x1="11.55" x2="11.55" xlink:href="#a" y1="3.01" y2="15"/><linearGradient id="d"><stop offset="0" stop-color="#323234"/><stop offset=".33" stop-color="#8e8e8f"/><stop offset=".44" stop-color="#fbfbfb"/><stop offset=".53" stop-color="#8e8e8f"/><stop offset=".62" stop-color="#323234"/><stop offset=".7" stop-color="#a7a5a6"/><stop offset="1" stop-color="#323234"/></linearGradient><linearGradient id="e" gradientUnits="userSpaceOnUse" x1="8.5" x2="8.5" xlink:href="#d" y1="6.16" y2="12.47"/><linearGradient id="f" gradientUnits="userSpaceOnUse" x1="9.5" x2="9.5" xlink:href="#d" y1="6.16" y2="12.47"/><path d="m0 0h18v18h-18z" fill="#f0f3fa"/><path d="m5.3 4.96-.3-1.9.7.89.82 1.3-.14-2.25.7 1.34.58 2.37-.4 1.9a6.47 6.47 0 0 0 -.37-2.83l.05.86-.28 1.18-.1 1.3v.8l.35 2.83c.39-.66.36-2.48.29-3.3l.53 2.09-.38 2.32c-.1.72-.52 1.05-.72 1.13l-.1-1.13-.73 1.14h-.38l.2-1.8c.58-.8.78-1.91.8-2.37v-.91c.03-.29.09-1.1.1-2.09.01-.97-.8-2.31-1.22-2.86z" fill="#a7a5a6"/><path d="m5 3.01 1.3 2.72c.06.12.19.51.19 1.06 0 .32-.1.72-.2 1.14-.11.47-.23.95-.23 1.38 0 .37.09.72.18 1.12.12.48.25 1.03.25 1.71 0 1-.73 2.32-1.1 2.86h.67a5 5 0 0 0 1.06-2.86c0-.8-.14-1.16-.27-1.5a3.11 3.11 0 0 1 -.25-1.33c0-.78.16-1.25.3-1.67a3 3 0 0 0 .22-1.02c0-.71-1-2.7-1.5-3.6h-.62zm1.38 0 .93 2.72c.05.12.14.51.14 1.06 0 .32-.07.72-.15 1.14a8.6 8.6 0 0 0 -.16 1.38c0 .37.06.72.13 1.12.08.48.18 1.03.18 1.71 0 1-.53 2.32-.8 2.86h.49c.25-.43.76-1.6.76-2.86 0-.8-.1-1.16-.2-1.5a6.43 6.43 0 0 1 .04-3c.09-.33.16-.63.16-1.02 0-.71-.72-2.7-1.09-3.6h-.43z" fill="url(#b)"/><path d="m12.7 4.96.3-1.9-.7.89-.82 1.3.14-2.25-.7 1.34-.58 2.37.4 1.9c-.11-1.3.2-2.43.37-2.83l-.05.86.28 1.18.1 1.3v.8l-.35 2.83c-.39-.66-.36-2.48-.29-3.3l-.53 2.09.38 2.32c.1.72.52 1.05.72 1.13l.1-1.13.73 1.13h.38l-.2-1.8a4.96 4.96 0 0 1 -.8-2.37v-.91a30.3 30.3 0 0 1 -.1-2.09c-.01-.97.8-2.31 1.22-2.86z" fill="#a7a5a6"/><path d="m13 3.01-1.3 2.72c-.06.12-.19.51-.19 1.06 0 .32.1.72.2 1.14.11.47.23.95.23 1.38 0 .37-.09.72-.18 1.12a6.96 6.96 0 0 0 -.25 1.71c0 1 .73 2.32 1.1 2.86h-.67a5 5 0 0 1 -1.06-2.86c0-.8.14-1.16.27-1.5.13-.33.25-.65.25-1.33 0-.78-.16-1.25-.3-1.67-.11-.33-.22-.63-.22-1.02 0-.71 1-2.7 1.5-3.6h.62zm-1.38 0-.93 2.72c-.05.12-.14.51-.14 1.06 0 .32.07.72.15 1.14.08.47.16.95.16 1.38 0 .37-.06.72-.13 1.12a9.5 9.5 0 0 0 -.18 1.71c0 1 .53 2.32.8 2.86h-.49a6.23 6.23 0 0 1 -.76-2.86c0-.8.1-1.16.2-1.5a6.25 6.25 0 0 0 -.04-3 3.63 3.63 0 0 1 -.16-1.02c0-.71.72-2.7 1.09-3.6h.43z" fill="url(#c)"/><path d="m8.8 12.47v-6.31h-.6c.08.59.23 1.85.23 2.19 0 .42-.18.5-.18 1.18s.18 1 .18 1.4c0 .32-.15 1.16-.22 1.54z" fill="url(#e)"/><path d="m9.2 12.47v-6.31h.6c-.08.59-.23 1.85-.23 2.19 0 .42.18.5.18 1.18s-.18 1-.18 1.4c0 .32.15 1.16.23 1.54z" fill="url(#f)"/></svg>