<svg height="18" viewBox="0 0 18 18" width="18" xmlns="http://www.w3.org/2000/svg"><path d="m0 0h18v18h-18z" fill="#4c5164"/><path d="m11 4.57v8.87c0 .1-.06.22-.11.31a.64.64 0 0 1 -.21.25h2.62a.59.59 0 0 1 -.2-.24c-.05-.1-.11-.21-.1-.32v-8.86c-.01-.11.04-.22.1-.33.04-.1.1-.18.2-.25h-2.62c.09.07.16.15.2.25.06.1.13.2.12.32zm-6.3 9.43h2.6a.62.62 0 0 1 -.22-.24.61.61 0 0 1 -.08-.32v-3.44h2.94l.8-2h-3.74v-3.44a.61.61 0 0 1 .08-.32c.05-.1.12-.18.21-.24h-2.59c.18.13.32.34.3.56v8.88c.02.22-.12.43-.3.56z" fill="#fff"/></svg>