<svg height="18" viewBox="0 0 18 18" width="18" xmlns="http://www.w3.org/2000/svg"><path d="m0 0h18v18h-18z" fill="#fbb716"/><g fill="#fff"><path d="m5.25 5.52c-.11 0-.2.05-.24.18l-1.55 5.59c-.05.2.15.25.32.25h10.42c.17 0 .39-.05.33-.25l-1.58-5.6a.24.24 0 0 0 -.24-.17zm-.65-.1c.07-.25.26-.42.48-.42h7.82c.22 0 .41.17.48.42l1.6 5.77c.1.4-.14.81-.48.81h-11c-.34 0-.58-.4-.47-.8l1.57-5.79z"/><path d="m8 8.48v-1.38c0-.24.05-.51-.23-.58a1.82 1.82 0 0 0 -.3-.04v-.15h1.86v.15c-.12 0-.32.02-.4.04-.21.05-.33.35-.33.58v3.14c0 .24.08.5.34.58l.39.05v.13h-1.86v-.13c.13 0 .17-.02.25-.04.28-.06.28-.42.28-.68v-1.37h-1.7v1.46c0 .25.06.51.3.58l.28.05v.13h-1.76v-.13c.13 0 .22-.02.3-.04.27-.07.28-.42.28-.68v-3.05c0-.23-.04-.52-.29-.58a1.82 1.82 0 0 0 -.3-.04v-.15h1.77v.15c-.12 0-.22.02-.29.04-.24.06-.29.34-.29.58v1.38z"/><path d="m13.5 11h-1.03l-1.5-2.17-.39.02v1.4c0 .46.18.6.56.62v.13h-1.83v-.13c.12-.01.29-.03.36-.05.25-.07.33-.42.33-.67v-3.05c0-.23-.1-.51-.33-.58-.07-.02-.24-.03-.36-.04v-.15h1.86c.31 0 .6.05.84.15.24.09.43.2.55.37.07.09.13.2.17.33.03.12.05.26.05.4 0 .32-.09.57-.27.76a1.7 1.7 0 0 1 -.87.41l1.3 1.8c.1.1.18.19.25.23.09.05.19.08.3.1v.12zm-2.92-2.41a9.67 9.67 0 0 0 .7-.06 1.62 1.62 0 0 0 .45-.18c.12-.07.2-.18.27-.31.06-.14.1-.3.1-.48 0-.33-.1-.57-.29-.73-.18-.15-.48-.23-.89-.23-.2 0-.34-.02-.34.25v1.75z"/></g></svg>