<svg fill="none" height="18" width="18" xmlns="http://www.w3.org/2000/svg"><path d="m0 0h18v18h-18z" fill="#00497b"/><path d="m3.167 8.29v-.457h2.187v.457h-.627v.507h1.628v-.507h-.636v-.457h2.187v.457h-.67v1.42h.67v.457h-2.186v-.457h.636v-.456h-1.629v.456h.627v.457h-2.187v-.457h.678v-1.42zm5.833 0h-.73v-.457h4.011v.964h-.729v-.507h-1.67v.507h1.123v.495h-1.123v.418h1.67v-.418h.73v.875h-4.012v-.457h.73zm5.833-.457h-2.033v.457h.542v1.42h-.542v.457h2.034v-.457h-.542v-1.42h.542v-.457z" fill="#fff"/><path d="m15.75 11.75h-13.5v-5.5h13.5z" stroke="#fff" stroke-width=".5"/></svg>