<svg height="18" viewBox="0 0 18 18" width="18" xmlns="http://www.w3.org/2000/svg"><path d="m0 0h18v18h-18z" fill="#59c4c6"/><path d="m3.28 8.04c-.37.6-.37 1.33 0 1.92l1.96 3.1c.37.58 1.05.94 1.79.94h3.94c.74 0 1.42-.36 1.8-.95l1.95-3.1c.37-.58.37-1.32 0-1.9l-1.96-3.1a2.11 2.11 0 0 0 -1.79-.95h-3.94c-.74 0-1.42.36-1.8.95l-1.95 3.1zm.4.22c-.3.46-.3 1.02 0 1.48l1.95 3.03c.3.45.83.73 1.4.73h3.93c.58 0 1.12-.28 1.41-.73l1.95-3.03c.3-.46.3-1.02 0-1.48l-1.95-3.03c-.3-.45-.83-.73-1.4-.73h-3.94c-.58 0-1.12.28-1.41.73z" fill-rule="evenodd"/><path d="m7 12v-6h.5v2.27c.25-.32.85-.77 1.87-.77 1.48 0 1.63 1.07 1.63 1.47v3.03h-.5v-3.03c.01-.33-.19-.97-1.13-.97a2.4 2.4 0 0 0 -1.87.97v3.03z" fill="#fff"/></svg>