<svg height="18" viewBox="0 0 18 18" width="18" xmlns="http://www.w3.org/2000/svg"><path d="m0 0h18v18h-18z" fill="#f0f3fa"/><path d="m8.51 4h-4.37c-.08 0-.14.07-.14.16v.33c0 .1.06.17.14.17h.13c.36 0 .73.33.73.74v7.1c0 .4-.37.73-.73.73h-.13c-.08 0-.14.08-.14.17v.44c0 .09.06.16.14.16h4.37c.08 0 .15-.07.15-.16v-.44c0-.1-.07-.17-.15-.17h-.15c-.36 0-.36-.33-.36-.73v-2.34c0-.1 0-.16.09-.16h1.81c.08 0 .09.07.09.16v2.34c0 .4-.05.73-.41.73h-.17c-.08 0-.14.08-.14.17v.44c0 .09.06.16.14.16h4.44c.08 0 .14-.07.14-.16v-.44c0-.1-.06-.17-.14-.17h-.23c-.36 0-.63-.33-.63-.73v-7.1c0-.41.27-.74.63-.74h.23c.08 0 .14-.08.14-.17v-.33c0-.09-.06-.16-.14-.16h-4.43c-.08 0-.14.07-.14.16v.33c0 .1.06.17.14.17h.17c.36 0 .41.33.41.74v3.44c0 .09 0 .16-.09.16h-1.81c-.1 0-.1-.07-.1-.16v-3.44c0-.41 0-.74.36-.74h.15c.08 0 .15-.08.15-.17v-.33c0-.09-.07-.16-.15-.16z" fill="#d94042"/></svg>