<svg height="18" viewBox="0 0 18 18" width="18" xmlns="http://www.w3.org/2000/svg"><path d="m0 0h18v18h-18z" fill="#3274bc"/><path d="m11.78 10.63.28-.77c.18.1.67.28 1.16.28.6 0 1.19-.44.34-.75l-.33-.11c-.73-.25-1.41-.49-1.41-1.19 0-.81 1.38-1.49 2.97-.81l-.26.68a2.06 2.06 0 0 0 -.94-.25c-.57 0-1.25.41-.28.71.96.3 1.69.58 1.69 1.5 0 .9-1.24 1.08-1.7 1.08-.45 0-1-.12-1.52-.37zm-8.78-3.63v4h1v-1.57h1.5v1.57h1v-4h-1v1.57h-1.5v-1.57zm4 4v-4h1.47c1.05 0 1.55.5 1.55 1.03 0 .42-.25.71-.38.8.18.12.54.44.54.9 0 .97-1 1.25-1.5 1.27zm1-3.29v.86h.52c.2 0 .48-.15.48-.43 0-.35-.36-.43-.48-.43zm0 1.59v.85h.52c.2 0 .48-.15.48-.43 0-.35-.36-.42-.48-.42zm2.5-2.3h1v4h-1z" fill="#fff"/></svg>