<svg height="18" width="18" xmlns="http://www.w3.org/2000/svg"><path d="m0 0h18v18h-18z" fill="#00abc6"/><g fill="#f6f8fd"><path d="m6.698 9.304c-.22-.694 0-1.228 0-1.228.24-.787 1.167-1.248 2.126-1.317 1.337-.096 2.853.626 2.532 2.239h-1.168c0-1.053-1.511-1.16-1.906-.754-.309.319-.16.889 0 1.06.988 1.09 3.134.81 3.119 2.695-.01 1.202-1.164 1.748-1.827 1.864-1.095.09-3.265-.218-2.937-2.241h1.183c-.257 1.137 1.754 1.614 2.25.68 0 0 .2-.501 0-.7-.592-.582-3.152-1.605-3.372-2.298z"/><path d="m7 3.375c-.884.761-3.12 1.518-4 1.875 2.7 1.016 4.832.847 5.505.558h.095v9.192h.801v-9.192h.095c.528.668 3.89-.146 5.504-.558-.793 0-2.985-1.162-4-1.875-.323 0-1.245.472-1.6.761v-1.136h-.8v1.136a3.25 3.25 0 0 0 -1.6-.761z"/></g></svg>