<svg height="18" viewBox="0 0 18 18" width="18" xmlns="http://www.w3.org/2000/svg"><path d="m0 0h18v18h-18z" fill="#f0f3fa"/><path d="m5.4 9a5 5 0 0 1 4.35-4.94 5.02 5.02 0 0 0 -5.75 4.94 5.02 5.02 0 0 0 5.76 4.95 5.03 5.03 0 0 1 -4.36-4.95z" fill="#f7b525"/><path d="m7.73 11a3.97 3.97 0 0 1 .48-5.22 3.99 3.99 0 0 0 -1.4 5.88 4.06 4.06 0 0 0 6.07.55c-1.75.9-3.96.43-5.15-1.21z" fill="#ec6c00"/><path d="m11.72 10.98c-1.5.66-3.2.1-4.05-1.23l.15.42a3.23 3.23 0 0 0 4.26 1.62 3.18 3.18 0 0 0 1.43-4.6c.45 1.5-.3 3.14-1.8 3.8z" fill="#e50012"/></svg>