<svg height="18" width="18" xmlns="http://www.w3.org/2000/svg"><path d="m0 0h18v18h-18z" fill="#0c4378"/><path d="m8 4h-3v9h7.996v-4.592c0-1.583-1.283-2.408-2.77-2.408-1.321 0-2.006.64-2.226 1z" fill="#fff"/><path d="m8.94 8.065c1.947.007 2.395.986 2.376 1.498h-1.703c0-.532-.673-.523-.957-.374-.444.312-.15.54.052.616.058.012.396.082 1.283.27.964.203 1.459.688 1.44 1.627-.014.68-.558 1.2-.827 1.298h-3.064c-.777-.146-.99-1.142-1.003-1.563h1.845c0 .384.352.692.705.68.282-.01.45-.124.543-.28.127-.16.044-.52-1.313-.682-1.357-.161-1.69-1.097-1.687-1.545-.042-.518.362-1.553 2.31-1.545z" fill="#0c4378"/></svg>