<svg height="18" viewBox="0 0 18 18" width="18" xmlns="http://www.w3.org/2000/svg" xmlns:xlink="http://www.w3.org/1999/xlink"><linearGradient id="a" gradientUnits="userSpaceOnUse" x1="6.36" x2="10.46" y1="5.34" y2="10.23"><stop offset="0" stop-color="#ffee0b"/><stop offset=".83" stop-color="#048542"/></linearGradient><path d="m0 0h18v18h-18z" fill="#f0f3fa"/><path d="m11.9 10c-3.66.15-9.35 1.33-7.56 3h1.8c-1.8-2.03 5.59-3 5.76-3zm1.04 0c-3.52.13-7.28 2.01-5.33 2.5h1.73c-1.35-.9 1.9-1.95 3.22-2.38zm-2.48 2.02c-1.1-.78 2.12-2 3.54-2-.77.26-3.24 1.12-1.73 2h-1.8z" fill="#221715"/><path d="m11.5 9.4c.46-.57.74-1.3.74-2.1 0-1.82-1.45-3.3-3.24-3.3a3.27 3.27 0 0 0 -3.23 3.3c0 1.12.53 2.1 1.36 2.7a63.6 63.6 0 0 1 4.38-.6z" fill="url(#a)"/></svg>