<svg height="18" width="18" xmlns="http://www.w3.org/2000/svg"><path d="m0 0h18v18h-18z" fill="#f0f3fa"/><path d="m8.91 14h.16l.03-.25a74.07 74.07 0 0 0 .17-1.42l-.53.18zm-.48-8.23c.42-.16.71-.28 1.14-.4v-1.37h-1.14zm.1 4.26c.32-.11.64-.23.97-.33.04-.47.05-.94.07-1.4-.38.11-.77.25-1.14.39.02.44.07.98.1 1.34z" fill="#1d1e1c"/><g fill="#a51e35"><path d="m10.58 9.42.37-.08.08-.01.6-.1-1.82-.35a45.82 45.82 0 0 1 -.05.75 24.52 24.52 0 0 1 .82-.21zm-2.97.99c.22-.1.44-.2.67-.28a81.88 81.88 0 0 1 -.08-1.34c-.4.16-.79.34-1.16.53l-.09.05a14.66 14.66 0 0 0 -1.25.74l1.74.37z"/><path d="m13 5.82c.01-.28 0-.56-.06-.84a14.96 14.96 0 0 0 -7.92 2.92 4.1 4.1 0 0 0 .36 2.1 15.7 15.7 0 0 1 7.18-2.58c.25-.49.4-1.04.43-1.6zm-.64 3.58c-2.34.3-4.62 1-6.61 2.31 0 .6.16 1.2.54 1.66 1.69-1.01 3.6-1.62 5.53-1.92.32-.63.5-1.34.54-2.05z"/></g></svg>