<svg height="18" viewBox="0 0 18 18" width="18" xmlns="http://www.w3.org/2000/svg" xmlns:xlink="http://www.w3.org/1999/xlink"><linearGradient id="a" gradientUnits="userSpaceOnUse" x1="14.19" x2="4.62" y1="12.86" y2="4.53"><stop offset="0" stop-color="#d0aa01"/><stop offset=".71" stop-color="#ffd964"/><stop offset="1" stop-color="#fff8e6"/></linearGradient><linearGradient id="b" gradientUnits="userSpaceOnUse" x1="2.81" x2="15.44" y1="9.3" y2="9.3"><stop offset=".33" stop-color="#004b7d"/><stop offset="1" stop-color="#011e3c"/></linearGradient><path d="m0 0h18v18h-18z" fill="#fdc800"/><ellipse cx="9" cy="9" fill="url(#a)" rx="7" ry="5"/><path d="m9 13.33c2.55 0 4.74-.8 5.75-2.33h-.81c-.97 1.22-2.88 1.87-5.06 1.87-3.18 0-5.83-1.7-5.75-3.87.09-2.33 2.57-3.87 5.75-3.87 2.23 0 4.16.6 5.11 1.87h.8c-.96-1.6-3.19-2.33-5.79-2.33-3.5 0-6.24 1.72-6.33 4.33-.09 2.43 2.83 4.33 6.33 4.33zm1.32-5.6c.04.49.08 1.58 0 2.52 0 .03.03.05.06.05l1.72.03c.03 0 .05-.02.05-.04l.06-.5a.05.05 0 0 0 -.05-.05h-1.1c0-.39.01-1.32-.04-2.02a.05.05 0 0 0 -.05-.05h-.6a.05.05 0 0 0 -.05.05zm2.58-.7c-2.72-.04-6.4.14-8.1.25-.09 0-.14-.1-.07-.16a7.18 7.18 0 0 1 4.37-1.35c1.9 0 3.25.65 3.86 1.09.08.05.03.17-.06.17zm-8.1 3.64c1.7.12 5.38.31 8.1.27.1 0 .14.12.06.18a6.53 6.53 0 0 1 -3.86 1.14 6.95 6.95 0 0 1 -4.37-1.42c-.07-.06-.02-.17.08-.17zm.4-1.54a4.3 4.3 0 0 0 .13.99l.44.03c.02 0 .03-.02.03-.03a8.54 8.54 0 0 1 .02-2.3s0-.02-.02-.02l-.46.02-.02.02c-.06.31-.1.6-.1.87h-.77c.02-.39.07-.68.12-.84 0-.01 0-.03-.02-.02l-.47.02-.02.01a5.23 5.23 0 0 0 .02 2.2l.44.02c.02 0 .03-.01.02-.02-.06-.34-.09-.66-.1-.95zm.97-1.32a7.73 7.73 0 0 0 0 2.33l1.77.07c.04 0 .06-.03.06-.06l-.03-.46c0-.02-.02-.02-.04-.02h-1.23l-.02-.05c-.02-.1-.03-.27-.03-.45h1.13c.03 0 .06-.03.06-.05v-.37a.05.05 0 0 0 -.06-.06h-1.12a19.6 19.6 0 0 1 .04-.44h1.2c.02 0 .05-.03.05-.06l.01-.39a.05.05 0 0 0 -.05-.05l-1.72.04zm2.17 2.34v-2.38c0-.03.02-.05.05-.05l.54-.03c.03 0 .07.03.07.06v1.92h.97c.03 0 .06.05.05.08l-.02.46c0 .03-.02.05-.05.05l-1.56-.06a.05.05 0 0 1 -.05-.05zm4.08-2.47a8.33 8.33 0 0 1 0 2.56c-.01.04.02.07.05.07h.64c.02 0 .04-.01.05-.04.06-.2.1-.5.1-.82h1.1c-.03.36-.08.63-.12.8-.01.03.01.06.05.06l.7.04c.02 0 .05-.01.05-.03.3-1.1.14-2.24 0-2.71a.05.05 0 0 0 -.05-.04l-2.52.05a.05.05 0 0 0 -.05.06zm1.96 1.25h-1.1l-.04-.7c0-.04.03-.06.06-.06l.99-.03c.03 0 .05.02.05.05.03.26.04.51.04.74z" fill="url(#b)"/></svg>