<svg height="18" viewBox="0 0 18 18" width="18" xmlns="http://www.w3.org/2000/svg"><path d="m0 0h18v18h-18z" fill="#f0f3fa"/><path d="m9.79 5.56c-.57-.31-1.25-.3-1.81.01l-5.4 3.05a.49.49 0 0 0 .01.86l5.41 2.96c.56.3 1.22.3 1.78.02l5.63-2.97a.5.5 0 0 0 0-.87l-5.61-3.06zm-1.98-.27a2.21 2.21 0 0 1 2.14-.02l5.62 3.06a.82.82 0 0 1 -.01 1.45l-5.63 2.97c-.66.34-1.45.33-2.1-.02l-5.4-2.96a.82.82 0 0 1 -.01-1.43z" fill="#112178"/><path d="m5.67 10.85v-3.39h2.66c.54 0 .9.3 1 .46.17-.3.84-.46 1.17-.46h.67l-.67.77c-.33 0-.67.46-.67.77 0 .25.23.51.34.62l-.67.61-.5-.46a.55.55 0 0 1 -.33.15h-1.5c0-.61.55-.87.83-.92h.83c0-.37-.33-.46-.5-.46h-.16c0 .05-.04.15-.17.15s-.28-.2-.33-.3h.33c0-.13-.17-.31-.33-.31h-.67v2.77zm5 0c-.54 0-.9-.2-1-.31l1-.62h1v-.46l1-.77v2.16z" fill="#112178"/><path d="m12.67 7.3h-1.34l-1.16 1.7h.66l-1.83 1.85 3.67-2.47h-1l1-1.07z" fill="#ea0c0b"/></svg>