<svg height="18" viewBox="0 0 18 18" width="18" xmlns="http://www.w3.org/2000/svg"><path d="m0 0h18v18h-18z" fill="#f0f3fa"/><path d="m5 6.5v1.92h2v-1.92h1v5h-1v-2.15h-2v2.15h-1v-5zm7.45 0v.83h-2.45v1.25h2v.84h-2v1.25h2.51v.83h-3.51v-5z" fill="#7c7c7c"/><path d="m7.23 4.02c.13-.02.29-.02.43-.02 1.52 0 2.86.83 3.69 2.1h-.86a4.46 4.46 0 0 0 -3.26-2.08zm3.24 7.88a4.45 4.45 0 0 1 -3.26 2.08 4.41 4.41 0 0 0 4.12-2.09h-.86z" fill="#4bb165"/><path d="m4.53 4.02c.14-.02.3-.02.43-.02 1.53 0 2.87.83 3.7 2.1h-.88a4.4 4.4 0 0 0 -3.25-2.08zm3.25 7.88a4.45 4.45 0 0 1 -3.26 2.08 4.41 4.41 0 0 0 4.12-2.09h-.86z" fill="#00a039"/><path d="m15 9.02c0-2.78-2.02-5.02-4.53-5.02-.15 0-.3 0-.43.02 2.3.25 4.17 2.38 4.17 4.98 0 2.75-1.86 4.47-4.17 4.98.14.02.3.02.43.02 2.58 0 4.53-2.28 4.53-4.98z" fill="#8fca90"/></svg>