<svg height="18" viewBox="0 0 18 18" width="18" xmlns="http://www.w3.org/2000/svg" xmlns:xlink="http://www.w3.org/1999/xlink"><linearGradient id="a" gradientUnits="userSpaceOnUse" x1="13.89" x2="11.19" y1="7.03" y2="8.4"><stop offset="0" stop-color="#18a024"/><stop offset=".31" stop-color="#c6d82d"/><stop offset=".76" stop-color="#f0f462"/><stop offset="1" stop-color="#add165"/></linearGradient><linearGradient id="b" gradientUnits="userSpaceOnUse" x1="13.7" x2="10" y1="7.64" y2="7.57"><stop offset=".09" stop-color="#f8ea0b"/><stop offset=".56" stop-color="#5da614"/><stop offset=".94" stop-color="#e4e029"/></linearGradient><linearGradient id="c" gradientUnits="userSpaceOnUse" x1="11.68" x2="4.9" y1="9.81" y2="14.47"><stop offset="0" stop-color="#86bb2a"/><stop offset=".3" stop-color="#d5e278"/><stop offset=".69" stop-color="#0aa85b"/><stop offset=".81" stop-color="#9fcd62"/></linearGradient><linearGradient id="d" gradientUnits="userSpaceOnUse" x1="11.68" x2="4.49" y1="8.91" y2="11.38"><stop offset="0" stop-color="#1c636c"/><stop offset=".24" stop-color="#efea6c"/><stop offset=".41" stop-color="#fafac7"/><stop offset=".78" stop-color="#209345"/><stop offset="1" stop-color="#ced584"/></linearGradient><path d="m0 0h18v18h-18z" fill="#f0f3fa"/><circle cx="9" cy="9" fill="#015eac" r="5"/><ellipse cx="8.56" cy="8.38" fill="#0187d0" rx="3.68" ry="3.75"/><ellipse cx="7.82" cy="7.59" fill="#4fb4e6" rx="2.65" ry="2.66"/><ellipse cx="7.53" cy="7.44" fill="#88c9f1" rx="1.76" ry="1.88"/><ellipse cx="7.09" cy="6.97" fill="#cfebff" rx="1.32" ry="1.41"/><path d="m13.72 8c0-1.3-1.38-1.6-1.7-1.6-.31 0-.5.16-.92.16-.43 0-1.1-.23-1.1-.8 0-.59.49-.76 1.1-.76 1.65-0 2.9 1.72 2.9 2.25 0 .42-.22.67-.28.75z" fill="url(#a)"/><path d="m13.71 8c-.09-1.2-1.38-1.6-1.69-1.6-.14 0-.26.03-.38.07-.15.04-.31.09-.54.09-.43 0-1.1-.23-1.1-.8v-.06c.12.27.43.61 1.1.61.37 0 .5-.04.6-.08a.52.52 0 0 1 .2-.04c.22 0 1.97.39 1.81 1.8z" fill="url(#b)"/><path d="m4 9.23c0-.84.2-1.17.37-1.23-.17.61.11 2.2 2.1 2.2 2.29 0 2.28-1.4 3.78-1.4a1.79 1.79 0 0 1 1.75 1.6c0 .6-.6 2.59-3.16 2.59-3.78.01-4.84-2.69-4.84-3.76z" fill="url(#c)"/><path d="m4.04 8.63c.05.67.66 1.87 2.65 1.87 1.35 0 1.85-.4 2.28-.75.34-.27.65-.5 1.3-.5.44 0 1.38.13 1.73 1.09a1.8 1.8 0 0 0 -1.75-1.54c-.68 0-1.05.28-1.45.6-.5.38-1.07.79-2.32.79-2 0-2.28-1.58-2.11-2.19-.12.04-.25.23-.33.63z" fill="url(#d)"/></svg>