<svg height="18" viewBox="0 0 18 18" width="18" xmlns="http://www.w3.org/2000/svg"><path d="m0 0h18v18h-18z" fill="#f0f3fa"/><path d="m15 9a6 6 0 1 1 -12 0 6 6 0 0 1 12 0z" fill="#c30f23"/><g fill="#edc500"><path d="m9 14.5a5.5 5.5 0 1 0 0-11 5.5 5.5 0 0 0 0 11zm0 .5a6 6 0 1 0 0-12 6 6 0 0 0 0 12z" fill-rule="evenodd"/><path d="m14.62 7h-3.68l-.29 1h3.97zm-8.15 4h-2.92l-.17-.55h2.14l1.35-3.45h1.17l-.59 1.5h1.05l.57-1.5h1.2l-1.35 3.45h.67l.85-2.14h2.58l-.4.69h-1.5l-.78 2h-2.82l.78-2h-1.04z"/></g></svg>