<svg height="18" width="18" xmlns="http://www.w3.org/2000/svg"><path d="m0 0h18v18h-18z" fill="#f0f3fa"/><path d="m10.01 8.47c-.4.9-.87 1.96-1 3.33-.17-1.32-.63-2.35-1.02-3.25a5.32 5.32 0 0 1 -.66-2.23c0-1.02.4-1.95 1.67-3.32 1.26 1.37 1.67 2.25 1.67 3.32 0 .68-.3 1.36-.66 2.15zm-3.91 4.03c-.7.64-2.09.21-2.09-1.29 0-.86.9-1.61 1.76-1.61 1.72 0 2.52 1.82 2.52 2.68.05.65-.27 1.72-1.4 1.72.54-.27.7-.86.65-1.34-.05-.54-.37-1.24-1.12-1.24-.43 0-.7.27-.7.54 0 .32.16.54.38.54zm5.82 0c.7.64 2.09.21 2.09-1.29 0-.86-.9-1.61-1.76-1.61-1.72 0-2.52 1.82-2.52 2.68-.05.65.27 1.72 1.4 1.72-.54-.27-.7-.86-.65-1.34.05-.54.37-1.24 1.12-1.24.43 0 .7.27.7.54 0 .32-.1.54-.38.54z" fill="#ee2e24"/></svg>