<svg height="18" viewBox="0 0 18 18" width="18" xmlns="http://www.w3.org/2000/svg"><path d="m0 0h18v18h-18z" fill="#00aaa7"/><path d="m7.42 8h3.42c.14 0 .27-.13.28-.3l.17-3.37c0-.16.13-.33.27-.33h2.16c.18 0 .29.18.28.34l-.6 9.36c-.01.16-.14.3-.28.3h-2.2c-.18 0-.3-.19-.28-.35l.32-3.27c.01-.16-.1-.38-.28-.38h-3.43c-.14 0-.27.18-.28.34l-.24 3.36c-.01.17-.14.3-.28.3h-2.17c-.13 0-.23-.1-.26-.22a.36.36 0 0 1 -.02-.12l.64-9.36c.01-.16.14-.3.28-.3h2.14c.18 0 .28.24.27.4l-.19 3.28c0 .17.1.32.28.32z" fill="#f6fdfc"/></svg>