<svg height="18" viewBox="0 0 18 18" width="18" xmlns="http://www.w3.org/2000/svg"><path d="m0 0h18v18h-18z" fill="#f0f3fa"/><g fill="#ec001f"><path d="m9.46 5.04 1.9.86.13-.16c.17-.22.5-.23.68-.01l1.83 2.12-1.83-1.46a.4.4 0 0 0 -.53.03l-3.2 3.15 2.78-3.49-1.61-.37a.38.38 0 0 0 -.43.27l-1.18 4.02.67-4h-1.36c-.53 0-.5.26-.46.46l.8 4.54-1.13-3.95-1.16.64c-.5.29-.34.47-.2.62l2.84 3.69-2.73-2.77-.53 1.25c-.16.49-.05.69.36.84l3.34 1.68-4.2-1.5c-.27-.05-.28-.5-.18-.75l.84-1.9-.52-.53c-.21-.18-.06-.5.17-.66l1.84-1.06-.15-.54-.01-.04c-.07-.46.65-.46 1.12-.46h1.39l.05-.27c.05-.27.43-.36.67-.26z"/><path d="m10.1 11.32 1.4-2.32 1.4 2.32c.13.22.14.52 0 .75a.63.63 0 0 1 -.99.18l-.21-.2v.3l.39.65h-1.19l.4-.64v-.3l-.22.2a.63.63 0 0 1 -1-.2.77.77 0 0 1 .02-.74z"/></g></svg>