<svg height="18" viewBox="0 0 18 18" width="18" xmlns="http://www.w3.org/2000/svg"><path d="m0 0h18v18h-18z" fill="#f0f3fa"/><path d="m9 15a6 6 0 1 0 0-12 6 6 0 0 0 0 12zm-5-8v4h1v-1.8h1v1.8h1v-4h-1v1.6h-1v-1.6zm3.67 4v-4h1.24c.83 0 1.59.27 1.59 1.04 0 .4-.3.74-.8.81.6.08.85.48.85.95 0 .74-.54 1.2-1.42 1.2zm.96-.6h.31c.47 0 .65-.23.65-.6 0-.38-.17-.6-.67-.6h-.29zm0-1.8h.28c.45 0 .63-.18.63-.54s-.29-.46-.7-.46h-.2v1zm2.37 1.05c0 .75.38 1.35 1.4 1.35.37 0 .69-.13.85-.4l.06.4h.69v-2h-1.49v.4h.49v.44c0 .27-.03.58-.45.58-.4 0-.55-.28-.55-.55v-1.73c0-.26.12-.57.52-.57s.48.26.48.52v.28h.99v-.23c0-.75-.56-1.14-1.48-1.14-1.07 0-1.51.55-1.51 1.35z" fill="#013a65" fill-rule="evenodd"/></svg>