<svg height="18" width="18" xmlns="http://www.w3.org/2000/svg"><path d="m0 0h18v18h-18z" fill="#f0f3fa"/><path d="m10 6.312c-1.92.27-4.133-1.429-5-2.312v10l3.125-3.134c.299-.316.943-.926.95-1.23.007-.303-.258-.514-.392-.582-.493-.25-.558-.608-.558-.768 0-.532 1.23-1.54 1.875-1.974z" fill="#0c4ca3"/><path d="m9.528 7.656 3.472-3.656v10c-.266-.387-1.392-1.291-2.6-1.529-1.442-.283-2.868.118-3.4.354l2.848-2.646c.272-.255.816-.592.816-1.095 0-.38-.582-.548-.878-.664-.132-.052-.396-.204-.396-.401s.07-.277.138-.363z" fill="#00a551"/></svg>