<!-- by TradingView --><svg width="18" height="18" viewBox="0 0 18 18" xmlns="http://www.w3.org/2000/svg"><path fill="#F0F3FA" d="M0 0h18v18H0z"/><path fill-rule="evenodd" d="M2 12V6h1v2.48h2V6h1v6H5V9.52H3V12H2Zm6.56 0c-.38 0-.7-.07-.98-.22a1.57 1.57 0 0 1-.63-.58 1.61 1.61 0 0 1-.1-1.44c.1-.18.21-.34.37-.5.14-.14.31-.28.5-.42L7.7 8.8c-.14-.19-.26-.39-.35-.6a1.71 1.71 0 0 1 .04-1.46c.12-.23.3-.4.52-.54.23-.13.5-.2.8-.2.29 0 .54.06.75.2.21.12.38.28.5.5a1.48 1.48 0 0 1-.02 1.43c-.13.22-.31.42-.54.6l-.33.24.9 1.13.1-.24c.1-.24.15-.57.15-.86h.94c0 .36-.03.75-.1 1.03a2.72 2.72 0 0 1-.42.9L11.5 12h-1.2l-.36-.45c-.19.15-.4.26-.62.33-.26.08-.5.12-.75.12Zm-.28-2.42.03-.02 1.02 1.25-.14.08c-.19.09-.38.14-.57.14a.87.87 0 0 1-.42-.1.7.7 0 0 1-.26-.99c.07-.12.19-.24.34-.36Zm.53-1.5-.28.2c-.1-.14-.19-.27-.25-.39a.8.8 0 0 1-.1-.37c0-.1.02-.19.07-.27a.5.5 0 0 1 .46-.27c.16 0 .29.04.37.14.09.1.13.2.13.33 0 .12-.03.23-.1.33-.06.1-.16.2-.3.3ZM13 6h-1v6h1V9.52h2V12h1V6h-1v2.48h-2V6Z" fill="#6C6C6C"/></svg>