<svg height="18" viewBox="0 0 18 18" width="18" xmlns="http://www.w3.org/2000/svg"><path d="m0 0h18v18h-18z" fill="#f0f3fa"/><path d="m8.45 5c-.93 0-1.79.3-2.45 1 2.9.96 4.98 3.36 5.29 6 .41-.7.65-1.5.7-2.3.14-2.12-1.15-4.7-3.54-4.7z" fill="#00a2d9"/><path d="m12 6c.54.93.6 2.18.52 3.53-.12 2.17-1.17 3.94-2.52 4.47 2.26-.59 3.89-2.13 4-4.06a4.38 4.38 0 0 0 -2-3.94z" fill="#1e63af"/><path d="m5.51 7a4.17 4.17 0 0 0 -2.51 3c.8-.41 1.81-.57 2.9-.57h.01c2.64 0 3.95 1.44 4.09 1.57a7.87 7.87 0 0 0 -4.49-4z" fill="#7fc9e6"/></svg>