<svg height="18" viewBox="0 0 18 18" width="18" xmlns="http://www.w3.org/2000/svg"><path d="m0 0h18v18h-18z" fill="#f0f3fa"/><path d="m2 9.23c.22-1.41 1.87-4.23 6.7-4.23 4.67 0 6.77 3.15 7.3 4.88.02.07-.06.14-.14.11l-1.4-.43c-.41-1.35-2.28-4.06-6.47-4.06a6.34 6.34 0 0 0 -5.99 3.73zm.98 3.37.14 1.4c1.96-1.54 6.57-3.07 11.86-2.22-6.55-1.74-10.73-.18-12 .82z" fill="#d98d1d"/><path d="m7.75 5h-1.97c.2.15.22.28.22.33v7.42c0 .08-.14.2-.22.25h1.97c-.17-.09-.22-.2-.22-.25v-3.21c.07-.12.13-.13.15-.13h2.72c.02 0 .06.05.1.1v3.24c0 .08-.17.2-.24.25h1.96c-.17-.09-.22-.2-.22-.25v-7.42c0-.17.14-.3.22-.33h-1.96c.19.15.23.28.23.33v2.6c-.04.06-.08.08-.1.08h-2.45l-.26-.01c-.07 0-.12-.05-.15-.1v-2.58c0-.17.15-.3.22-.33z" fill="#024619"/></svg>