<!-- by TradingView --><svg width="18" height="18" viewBox="0 0 18 18" xmlns="http://www.w3.org/2000/svg"><path fill="#F0F3FA" d="M0 0h18v18H0z"/><path d="M10.34 10.91c-.54.06-1.05.2-1.42.42-.2.11-.43.35-.5.5a.65.65 0 0 0-.02.62c.07.14.15.24.3.36.1.09.28.2.28.19l-.06-.07c-.17-.19-.23-.36-.22-.57 0-.2.07-.34.23-.5.26-.28.68-.49 1.23-.61.36-.08.53-.1.98-.1a3.84 3.84 0 0 1 1.75.36l-.07-.07a3.18 3.18 0 0 0-1.34-.5 6.6 6.6 0 0 0-1.14-.03Z" fill="#AAD0E3"/><path d="M8.29 10.02c-.83.34-1.33.82-1.4 1.36-.05.4.16.8.59 1.14.15.13.4.28.4.26.01 0-.03-.06-.1-.13-.19-.2-.3-.42-.33-.66-.09-.55.34-1.1 1.14-1.49a6.3 6.3 0 0 1 5.17.06c.01-.02-.21-.19-.37-.29-1.39-.86-3.59-.88-5.1-.25Z" fill="#6093B1"/><path d="M9.63 7.93c-.68.05-1.41.19-2.01.38-.86.27-1.54.64-2 1.1-.4.4-.59.8-.59 1.25 0 .24.05.43.15.65a2.8 2.8 0 0 0 1.32 1.24c.01 0-.04-.07-.1-.13a2 2 0 0 1-.47-.7c-.08-.21-.11-.4-.1-.62.01-.23.05-.35.16-.57a3.1 3.1 0 0 1 1.5-1.32c.77-.37 1.66-.6 2.63-.7 1.01-.1 1.98-.06 2.91.11a7.13 7.13 0 0 1 2.04.67c.01-.01.01-.01-.19-.16a7.17 7.17 0 0 0-3.71-1.2c-.3-.02-1.25-.02-1.54 0Z" fill="#38719A"/><path d="M6.1 6.63a5.79 5.79 0 0 0-2.53 1.54c-1.12 1.32-.46 2.76.87 3.63a3 3 0 0 0 .45.26s-.05-.07-.14-.15a2.71 2.71 0 0 1-.55-.77c-.6-1.22.26-2.36 1.26-3.03a8.16 8.16 0 0 1 2.6-1.05c2.47-.57 5.46-.49 7.75.7l.18.08v-.02l-.12-.1C13.4 5.64 8.93 5.67 6.1 6.63Z" fill="#13537F"/></svg>