<svg height="18" viewBox="0 0 18 18" width="18" xmlns="http://www.w3.org/2000/svg"><path d="m0 0h18v18h-18z" fill="#f0f3fa"/><path d="m3 9a6 6 0 1 1 6 6v-.06a5.93 5.93 0 0 0 5.95-5.95 5.93 5.93 0 0 0 -5.95-5.95 5.93 5.93 0 0 0 -5.95 5.96 5.93 5.93 0 0 0 5.95 5.94v.06a6 6 0 0 1 -6-6z"/><path d="m14.95 9a5.95 5.95 0 1 1 -11.9 0 5.95 5.95 0 0 1 11.9 0z"/><path d="m9 14.22.4.3-.15-.48.4-.28h-.49l-.16-.46-.15.46h-.49l.4.28-.16.48zm2.36-.56.48.08-.34-.35.21-.43-.43.22-.34-.35.07.49-.43.22.48.07.07.49zm1.84-1.56.48-.15-.47-.16v-.48l-.29.4-.46-.17.28.4-.3.4.47-.15.3.4v-.49zm-6.55 1.56.23.45.07-.49.48-.08-.43-.22.07-.49-.34.35-.44-.22.22.43-.34.35zm-1.85-1.56v.5l.29-.4.46.15-.29-.4.3-.4-.48.15-.3-.38.02.48-.46.16z" fill="#f0f3fa"/><g fill="#00aeef"><path d="m14.52 8.96h-1.23v.08h1.23z"/><path d="m13.94 8.48h-.08v1.05h.08z"/><path d="m13.73 8.77-.06.06.4.4.06-.06z"/><path d="m13.74 9.23-.06-.06.4-.4.05.07zm-9.04-.27h-1.23v.08h1.23z"/><path d="m4.14 8.48h-.08v1.05h.08z"/><path d="m3.93 8.77-.06.06.4.4.05-.06-.4-.4z"/><path d="m4.26 8.77-.4.4.07.06.4-.4z"/></g><path d="m13.05 9a4.05 4.05 0 1 1 -8.1 0 4.05 4.05 0 0 1 8.1 0z" fill="#f0f3fa"/><path d="m12.81 9a3.81 3.81 0 1 1 -7.61 0 3.81 3.81 0 0 1 7.62 0z" fill="#00aeef"/><path d="m5.94 10.86c-.31-.3-.53-1.1-.56-1.73l.42-.17.07-.28 1.18-.68h.53l-.02.31c.02-.46.06-.9.18-1.24l.15-.53c.12-.87 1.03-1.22 1.6-.63 0 .02.1.07.16.07.17.03.36.05.5.1.02.01.01.03-.02.04-.27.11-.77.16-.75.75l-.16.05c.05 0 .1-.03.16-.05.12.21.57 1 .58 1.34l.34.06.23.46.16.06.8.25.2.4.2-.36.2.44h.46a3.04 3.04 0 0 1 -.84 1.84l-.21-.64h-1.26l1.16.28.13.37h-2c-.08.2-.16.35-.26.45h.23c.07-.02.18-.02.22.18.01.03.03.08 0 .1h-.72a.3.3 0 0 1 0 .14h-1.06c-.02-.08.02-.1.05-.12-.14-.05-.23-.1-.24-.11a1 1 0 0 1 -.31.05c.18-.27.27-.44.3-.65h-1.48l.18-.83h.28l.16-1.58-.58 1.36h-.26l.29.51h-.39z" fill="#f0f3fa"/><path d="m10.3 9.26.46-.25-.2-.02-.54-.07c.05.23-.08 1.4-.22 1.74.07-.15.46-1.28.5-1.4zm-2.57 1.97-.02-.46h-.32z" fill="#00aeef"/><path d="m8.27 7.1c-.2-.2-.01-.32.08-.24.4.19.68.18 1.03.03-.02-.6.5-.64.76-.74.03-.02.03-.04.02-.05a2.22 2.22 0 0 0 -.5-.1c-.06 0-.14-.05-.16-.07-.56-.6-1.48-.25-1.6.64l-.15.52c-.27.84-.2 2.3-.09 3.12.07 1.1.2 1.25-.23 1.86.7-.02 1.26-.67 1.4-1.48a5.1 5.1 0 0 0 -.5-.81c-.04-.06.01-.11.06-.06.08.09.44.6.55.86.12.5.77.68.57-.47-.09-.69-1-1.37-1.1-1.9-.01-.1.06-.08.08-.02.05.24.33.62.49.73.07-.84 0-1.22-.71-1.83zm-.27 5.02c-.06.03-.1.03-.08.13h1.06c.03-.03 0-.16-.02-.2-.06-.14-.19-.17-.4-.1-.15.02-.49.13-.56.17z"/><path d="m11.71 9.53h.38l-.2.33z" fill="#00aeef"/><path d="m9.26 11.84h.22c.08-.02.19-.02.23.18.01.03.03.08 0 .1h-.77c.11-.07.22-.16.32-.28z"/><path d="m5.14 7.12-.98-.68a5.2 5.2 0 0 1 4.8-2.93 5.61 5.61 0 0 1 4.98 3.03l-1.03.58a4.72 4.72 0 0 0 -3.95-2.42 4.42 4.42 0 0 0 -3.82 2.42z" fill="#fff" fill-opacity=".8"/></svg>