<svg height="18" viewBox="0 0 18 18" width="18" xmlns="http://www.w3.org/2000/svg"><path d="m0 0h18v18h-18z" fill="#f0f3fa"/><path d="m7.78 12.81 2.1 1.19 1.12-1.04a11 11 0 0 0 2.74-4.06l.09-.22a2.7 2.7 0 0 0 -4.34-2.98l-.77.7-.78-.43a2.65 2.65 0 0 0 -2.96.26 2.7 2.7 0 0 0 -.48 3.64c.86 1.2 1.99 2.22 3.28 2.94z" fill="#d9223b"/><path d="m11.33 5.81c.51.38 1.54 1.34 1.6 2.13.2-.71.14-2.13-1.6-2.13z" fill="#fcfefc"/><path d="m6.46 9.15a2.81 2.81 0 0 1 0-2.47c-.58.12-1.7.66-1.5 1.85.21 1.2 2.4 3.05 3.46 3.83a67.99 67.99 0 0 1 -1.96-3.2z" fill="#951a20"/></svg>