<svg height="18" viewBox="0 0 18 18" width="18" xmlns="http://www.w3.org/2000/svg"><path d="m0 0h18v18h-18z" fill="#f0f3fa"/><path d="m11.67 3.63a.41.41 0 0 1 -.75-.31 6 6 0 0 0 -3.68-.06.42.42 0 0 1 -.77.3 6 6 0 0 0 -.01 10.88.42.42 0 1 1 .77.3 6 6 0 0 0 3.7-.06.41.41 0 0 1 .4-.51c.15 0 .28.08.36.2a6 6 0 0 0 -.02-10.74zm-.34 1.94a.58.58 0 1 0 0-1.15.58.58 0 0 0 0 1.15zm.58 7.42a.58.58 0 1 1 -1.15 0 .58.58 0 0 1 1.15 0zm-.58-5.42a.7.7 0 1 0 0-1.4.7.7 0 0 0 0 1.4zm.7 3.55a.7.7 0 1 1 -1.4 0 .7.7 0 0 1 1.4 0zm-.7-1.3a.82.82 0 1 0 0-1.64.82.82 0 0 0 0 1.64zm-3.9-4.82a.58.58 0 1 1 -1.16 0 .58.58 0 0 1 1.15 0zm-.59 8.57a.58.58 0 1 0 0-1.16.58.58 0 0 0 0 1.16zm.7-6.7a.7.7 0 1 1 -1.4 0 .7.7 0 0 1 1.4 0zm-.7 4.95a.7.7 0 1 0 0-1.4.7.7 0 0 0 0 1.4zm.83-2.82a.82.82 0 1 1 -1.65 0 .82.82 0 0 1 1.65 0zm1.42.82a.82.82 0 1 0 0-1.64.82.82 0 0 0 0 1.64z" fill="#3f7091" fill-rule="evenodd"/></svg>