<svg height="18" viewBox="0 0 18 18" width="18" xmlns="http://www.w3.org/2000/svg"><path d="m0 0h18v18h-18z" fill="#f0f3fa"/><path d="m9 3s4 5.68 4 7.95c0 5.26-8 5.25-8 0 0-2.27 4-7.95 4-7.95z" fill="#01259d"/><path d="m12.94 10.46a3.9 3.9 0 0 1 -3.94 4.54 3.9 3.9 0 0 1 -3.94-4.53h7.88z" fill="#181b1e"/><path d="m8.7 6.24-.06.65 2.67 2.28h-.88l-.9-.66.47 1.95h-1.85l.52-2.6-.5-.42-.55.56v1.19l-.16-.01v-1.18c-.15 0-.29-.1-.3-.26-.03-.28.07-.55.32-1 .26-.52.9-.74.9-.74l.31.24z" fill="#fefefe"/><path d="m6 9h6v3h-6z" fill="#6a6a6a"/></svg>