<svg height="18" viewBox="0 0 18 18" width="18" xmlns="http://www.w3.org/2000/svg"><path d="m0 0h18v18h-18z" fill="#f0f3fa"/><path d="m5.57 7.69a.31.31 0 0 0 -.04.25c.09.24 1.28 2.9 1.72 2.14l3.37-5.73a.87.87 0 0 0 .08-.2c.02-.07 0-.15-.08-.15h-2.88l-.03.04a651.9 651.9 0 0 1 -2.15 3.66zm5.4-2.52-.47.86a.73.73 0 0 0 -.12.32c0 .48.37 1.04.77 1.25.09.04.18.03.25-.04.09-.08.14-.14.18-.2l1.66-2.79c.08-.14.15-.29.2-.43.02-.04-.01-.13-.06-.14h-1.67l-.06.03-.02.01a.16.16 0 0 0 -.06.07zm3.95 2.83c.03 0 .08.09.08.12 0 .07-.02.14-.05.2-.2.32-.39.72-.57 1.11-.13.28-.25.55-.38.8l-.02.02c-.05.1-.1.21-.23.2h-3.01c-.37 0-.7-.12-.98-.36a1.79 1.79 0 0 1 -.44-.54 1.5 1.5 0 0 1 -.15-.78c.04-.4.16-.77.36-1.12a26.4 26.4 0 0 0 .4-.73.11.11 0 0 1 .15 0c.05.05.08.11.1.18.09.54.43.94 1.02.9zm-9.42 5.84c.14.07.37.16.52.16h5.4c.19 0 .33-.04.42-.2l1.67-2.73a.14.14 0 0 0 0-.09c0-.02-.02-.01-.04 0l-.04.02h-6.4c-.94 0-1.4-1.53-1.6-2.27a14.68 14.68 0 0 0 -.14-.39.11.11 0 0 0 -.17.03l-.24.4a4.3 4.3 0 0 0 -.88 2.59c.07 1 .63 2 1.5 2.48z" fill="#2b65af"/></svg>