<svg height="18" viewBox="0 0 18 18" width="18" xmlns="http://www.w3.org/2000/svg"><path d="m0 0h18v18h-18z" fill="#1d2b64"/><path d="m11.08 7.4-.74 3.21h-.36l-.39.39h1.76l.35-.39h-.64l.75-3.2h.4l.35-.41h-1.73l-.38.4zm-6.1-.4-.47 2h-1.34l.46-2h-.72l-.91 4h.7l.37-1.58h1.34l-.37 1.58c.4-.03 1.4-.12 1.6-.28h-.44c-.14 0-.35-.06-.26-.5l.19-.8h.45l-.2-.42h-.15l.47-2zm2.03 3.1.71-3.1h.72l-.6 2.74c-.15.5-.49.77-.71.86h1.31c.62 0 .96-.11 1.11-.2-.32.47-.78.6-.97.6h-2.68l.35-.35c.47.02.68-.35.76-.56zm8.99-2.91c-.17-.06-.64-.2-1.12-.2-.61 0-2.35.16-2.69 2.47-.1.7.28 1.56 1.66 1.53a4.9 4.9 0 0 0 1.2-.19l.5-1.81h-1.03a1.2 1.2 0 0 0 -.84.73c.1-.09.4-.26.82-.29h.48l-.3 1.13h-.02c-.65.1-1.8.25-1.69-1 .14-1.58.89-2.29 1.9-2.29.26 0 .76.13.76.62z" fill="#fff"/></svg>