<svg height="18" viewBox="0 0 18 18" width="18" xmlns="http://www.w3.org/2000/svg"><path d="m0 0h18v18h-18z" fill="#f0f3fa"/><g fill="#349800"><path d="m13.69 4.31h-9.39v9.38h9.38v-9.39zm-9.69-.31v10h10v-10z" fill-rule="evenodd"/><path d="m13 5h-8v8h8zm-6.48 1.78h-.52l.78-.78 2.35.78h-1.83v1.44l.53-.65 2.08.78h-2.6v.88c.2-.18.49-.36.75-.36.53 0 .94.26.94.78v1.83c0 .13.16.39.37.39v.13h-1.04v-.13c.08-.04.17-.18.17-.4v-1.55c0-.17-.02-.52-.44-.52-.26 0-.54.14-.76.3v1.79c0 .13.06.39.27.39v.12h-1.3v-.13c.08 0 .25-.08.25-.4v-4.68zm5.22 2.22v.65h-.13l-.13-.52c-.26-.13-.46-.13-.78-.13-.13 0-.4.2-.4.52 0 .28.31.44.67.62.47.25 1.03.54 1.03 1.2 0 .53-.7.66-1.04.66h-1.3v-.13c.6 0 1.69-.1 1.69-.52 0-.24-.34-.42-.72-.62-.46-.24-.98-.52-.98-.95 0-.69.52-.91 1.05-.91.41 0 .87.09 1.04.13z"/></g></svg>