<svg height="18" viewBox="0 0 18 18" width="18" xmlns="http://www.w3.org/2000/svg" xmlns:xlink="http://www.w3.org/1999/xlink"><linearGradient id="a" gradientUnits="userSpaceOnUse" x1="9" x2="9" y1="6" y2="12"><stop offset=".43" stop-color="#0377ce"/><stop offset="1" stop-color="#0377ce" stop-opacity=".53"/></linearGradient><path d="m0 0h18v18h-18z" fill="#f0f3fa"/><path d="m10 11a2 2 0 1 0 0-4 2 2 0 0 0 0 4zm-.42-1.6.23-.3-.78-.9c-.03-.05-.04-.12-.01-.16.02-.05.07-.05.1-.02l.57.67c.04.04.16.13.27.13.13 0 .2-.05.27-.13l.02-.04c.1-.14.4-.57.75-.63-.07.15-.39.66-.54.9h-.14l-.23.23.07.13.16-.28.1.1c-.06.01-.15.07-.13.18.03.13.17.38.68.67-.03.08-.1.06-.23 0a4.6 4.6 0 0 1 -.6-.56c-.07.05-.27.12-.56.02z" fill="#0377ce"/><path d="m9.52 6.37c2.6 0 5.04 1.86 5.43 2.24-.83-.9-3.05-2.61-5.63-2.61-3.3 0-5.65 1.79-6.32 2.67l.03-.01c.01.2 1 1.67 2.38 2.32 2.5 1.17 4.31 1.01 4.31 1.01s-2.23-.8-3.17-1.42c-.93-.6-1.64-1.68-1.64-1.68v-.01c.63-.84 2.43-2.5 4.61-2.5z" fill="url(#a)"/></svg>