<svg height="18" viewBox="0 0 18 18" width="18" xmlns="http://www.w3.org/2000/svg" xmlns:xlink="http://www.w3.org/1999/xlink"><linearGradient id="a" gradientUnits="userSpaceOnUse" x1="3.46" x2="12.31" y1="5.75" y2="8.76"><stop offset=".17" stop-color="#d1692a"/><stop offset=".46" stop-color="#d67f2d"/><stop offset=".86" stop-color="#e0a336"/><stop offset="1" stop-color="#e4b23a"/></linearGradient><linearGradient id="b" gradientUnits="userSpaceOnUse" x1="4.67" x2="13.39" y1="12.75" y2="10.38"><stop offset=".15" stop-color="#406295"/><stop offset=".4" stop-color="#5b90c3"/><stop offset=".72" stop-color="#5f98cb"/><stop offset="1" stop-color="#375388"/></linearGradient><linearGradient id="c" gradientUnits="userSpaceOnUse" x1="3.05" x2="15.35" y1="9.74" y2="5.35"><stop offset=".24" stop-color="#e6bb5a" stop-opacity=".12"/><stop offset=".43" stop-color="#f2f2f2" stop-opacity=".5"/><stop offset=".73" stop-color="#e3b139" stop-opacity="0"/></linearGradient><linearGradient id="d" gradientUnits="userSpaceOnUse" x1="4" x2="13.34" y1="6.94" y2="6.94"><stop offset="0" stop-color="#cf6129"/><stop offset=".15" stop-color="#d06529"/><stop offset=".37" stop-color="#d3722b"/><stop offset=".61" stop-color="#d8862f"/><stop offset=".88" stop-color="#dfa236"/><stop offset="1" stop-color="#e4b23a"/></linearGradient><path d="m0 0h18v18h-18z" fill="#f0f3fa"/><path d="m9 4a5 5 0 0 1 4.34 2.51c-3.32 2.04-4.4 1.09-4.44 1.23-.05.21-.04.5-.04.73-.53.13-1.01-.25-1.01-.25-.15.4-.12.53-.16.53-.3.1-.92-.17-.92-.17-.15.22-.12.52-.12.52.35.1 2.5-.5 2.5-.5a13.2 13.2 0 0 1 -5.08 1.28 5 5 0 0 1 4.93-5.88z" fill="url(#a)"/><path d="m13.47 6.76a5 5 0 1 1 -9.35 3.32c.96.08 2.42-.13 2.42-.13-.13.61-.28 1.54-.28 1.54.9-1.74 2.34-2.04 2.34-2.04-.33 1.57-.57 3.38-.57 3.38.32-.88.83-1.76 1.47-2.57 1.08-1.4 2.2-2.22 3.59-3.22z" fill="url(#b)"/><path d="m9 4a5 5 0 0 1 4.33 2.51c-3.3 2.04-4.39 1.08-4.42 1.23-.04.21-.04.5-.04.74-.52.13-1-.25-1-.25-.15.4-.12.53-.17.53-.3.1-.91-.17-.91-.17-.15.22-.13.52-.13.52.35.1 2.51-.5 2.51-.5-2.71 1.27-5.1 1.27-5.1 1.27a4.99 4.99 0 0 1 4.93-5.88z" fill="url(#c)"/><path d="m12.7 6.15.21.3.15.23.28-.17a5.01 5.01 0 0 0 -9.26 3.37l.32-.01-.03-.26-.03-.32v-.29a4.68 4.68 0 0 1 4.45-4.65c.86-.04 1.76.21 2.5.65a4.8 4.8 0 0 1 1.41 1.15z" fill="url(#d)"/></svg>