<svg height="18" viewBox="0 0 18 18" width="18" xmlns="http://www.w3.org/2000/svg"><path d="m0 0h18v18h-18z" fill="#f0f3fa"/><path d="m6.3 9c-.74.19-1.79.14-2.2.1.12.1.35.47.35.8 0 .47-.97 1.71-1.45 2.1h.34c.46-.22 1.55-.7 2.06-.7.64 0 2.57.7 5.13.7 2.26 0 3.33-.76 3.59-1.14.23-.72.72-2.3.88-2.86-2.22 2.16-6.15 2-9 2 .02-.2.14-.8.3-1z" fill="#025699"/><path d="m7 9 1.02-3.77c.36-.07 1.24-.23 1.88-.23.79 0 2.11.31 2.11 1.39s-1.34 2.69-5 2.6zm1.39-.86.53-2.18c.18-.04.6-.1.93-.1.4 0 1.04.1 1.04.55 0 .62-1.01 1.7-2.5 1.73z" fill="#a9a8ab" fill-rule="evenodd"/></svg>