<svg height="18" viewBox="0 0 18 18" width="18" xmlns="http://www.w3.org/2000/svg"><path d="m0 0h18v18h-18z" fill="#f0f3fa"/><path d="m14.73 7h1.27l-1.68 4h-1.47l-.85-4h1.37l.44 2.46zm-4.97 1.14c0 .4 2.16.15 2.16 1.47 0 .98-.9 1.39-2.04 1.39-1.04 0-1.66-.35-1.88-1.15l1.27-.16c.12.26.3.38.65.38.3 0 .52-.1.52-.26 0-.46-2.11-.17-2.11-1.45 0-1.04 1.1-1.36 1.97-1.36 1 0 1.53.4 1.69 1.03l-1.24.16c-.08-.19-.24-.3-.52-.3-.26 0-.48.1-.48.25zm-4.78-1.14c1.54 0 2.15.81 2 1.94l-.02.12c-.16 1.13-.98 1.94-2.52 1.94h-2.44l.53-4zm.33 2.06.02-.12c.06-.46-.06-.79-.6-.79h-.75l-.22 1.7h.74c.55 0 .74-.33.81-.8z" fill="#005ca4"/></svg>