<svg height="18" viewBox="0 0 18 18" width="18" xmlns="http://www.w3.org/2000/svg"><path d="m0 0h18v18h-18z" fill="#ff6c00"/><path d="m11.6 6.18a4.07 4.07 0 0 0 -2.96-1.18c-1.34 0-2.54.83-2.87 1.18-.26.27-1.29.23-1.77.2.22.28.73 1.03.73 1.5 0 .14-.02.26-.05.4-.04.18-.1.4-.1.75 0 .8.63 3.97 4 3.97h4.42v-2.68a3.7 3.7 0 0 0 .04-5.04l-3.76 3.67a.17.17 0 0 1 -.12.05.17.17 0 0 1 -.11-.04.15.15 0 0 1 -.05-.11c0-.04.02-.08.05-.1zm-3.6.82a1 1 0 1 1 -1.98-.19.5.5 0 1 0 .4-.63 1 1 0 0 1 1.58.82z" fill="#fff"/></svg>