<svg height="18" viewBox="0 0 18 18" width="18" xmlns="http://www.w3.org/2000/svg"><path d="m0 0h18v18h-18z" fill="#f0f3fa"/><path d="m11.4 6h-4.8v-.3c0-.9.48-2.7 2.4-2.7s2.4 1.8 2.4 2.7z" fill="#f30100"/><path d="m11.4 12h-4.8v.3c0 .9.48 2.7 2.4 2.7s2.4-1.8 2.4-2.7zm.6-5.4v4.8h.6c.8 0 2.4-.48 2.4-2.4s-1.6-2.4-2.4-2.4z" fill="#26221f"/><path d="m6 6.6v4.8h-.6c-.8 0-2.4-.48-2.4-2.4s1.6-2.4 2.4-2.4z" fill="#aca9a4"/><path d="m5.4 6.6c-.8 0-2.4.48-2.4 2.4s1.6 2.4 2.4 2.4h.6v-4.8zm.2.4h-.2c-.34 0-.85.1-1.27.4-.4.29-.73.77-.73 1.6s.34 1.3.73 1.6c.42.3.93.4 1.27.4h.2z" fill="#26221f" fill-rule="evenodd"/><path d="m8.67 7h.33l2 3.28v-3.28h.33v4h-.33l-2-3.28v3.28h-.33v-1.8h-1.67v1.8h-.33v-4h.33v1.8h1.67z" fill="#26221f"/><path d="m11.4 5.4c0-.8-.48-2.4-2.4-2.4s-2.4 1.6-2.4 2.4v.6h4.8zm-.4.2v-.2c0-1.15-.85-2-2-2s-2 .85-2 2v.2z" fill="#272320" fill-rule="evenodd"/></svg>