<svg height="18" viewBox="0 0 18 18" width="18" xmlns="http://www.w3.org/2000/svg"><path d="m0 0h18v18h-18z" fill="#f0f3fa"/><g fill="#726849"><path d="m5.23 13.27c.22-.05.4-.2.47-.26l-.95-.6.68-.58-.48-.53c.14-.13.48-.4.75-.26.22.1.1.57 0 .79l-.34.46.69.52c.32-.26.5-.85.54-1.12a6.4 6.4 0 0 1 -.82-.85c-1.09-.27-1.77 1.31-1.77 1.45 0 .1.1.22.14.26z"/><path d="m5.9 13.08c-.05.15-.29.24-.4.26.07.24 1.9.69 3.07.66 2.29-.05 3.9-1.2 4.43-1.78l-.2-.26c-.96.92-3.14.92-3.48.92-.27 0-.43-.3-.48-.46l.14-.2-.14-.2-.07-.66-.34-.2v-.52l-.34-.2v-.4c-.16.12-.46.39-.4.6.06.26.54.79.67 1.19.11.31-.18.61-.34.72.17-.37.07-.72 0-.86-.16-.2-.5-.64-.61-.85-.14-.27-.07-.66.2-1.06.22-.31 1.78-1.84 2.53-2.56l.2.59c.34-.4 2.05-2.3 2.32-3.1.22-.63.14-1.4.07-1.71-.07.6-1.98 2.77-3.2 4.08a25.33 25.33 0 0 0 -2.53 3.1c-.05.16.11.6.2.79a.98.98 0 0 1 -.4-.8c0-.52 1.09-1.7 1.56-2.3.48-.59 1.64-1.9 1.64-2.5 0-.47-.18-.86-.27-.99.07.66-.82 1.58-1.43 2.57-.62.99-1.85 2.3-1.85 3.23 0 .92 1.37 1.78 1.37 1.9 0 .11-.1.27-.14.34l-.88-.6c-.06.53-.44.93-.62 1.06.48.22 1.62.66 2.39.66.76 0 2.25-.3 2.9-.46-.44.2-1.65.6-2.9.66a4.87 4.87 0 0 1 -2.66-.66z"/><path d="m7.82 9.78c-.22.27-.27.64-.27.8.05-.48.56-.77.81-.86v.4l1.64-1.72v-.72c-.64.59-1.96 1.84-2.18 2.1zm2.32-1.05-1.7 1.58v.13h.2v.53l1.5-1.52zm0 1.12-1.37 1.25h.28v.66l1.09-1.19zm-.14 1.25-.95.86.13.13-.07.13v.2l.89-.8zm0 .8-.82.65c.02.07.11.18.27.13.17-.05.44-.55.55-.79zm.27-.6v-.6a14.6 14.6 0 0 0 1.91-1.84c-.33.9-1.4 2-1.9 2.44zm2.18-4.08c-.21.57-1.45 1.69-2.04 2.17v.92a5.1 5.1 0 0 0 2.04-3.1zm-2.05 1.91v-1.13c.77-.43 1.87-2.02 2.33-2.77.06 1.6-1.52 3.26-2.32 3.89z"/></g></svg>