<svg height="18" viewBox="0 0 18 18" width="18" xmlns="http://www.w3.org/2000/svg" xmlns:xlink="http://www.w3.org/1999/xlink"><linearGradient id="a" gradientUnits="userSpaceOnUse" x1="5" x2="8" y1="10" y2="10"><stop offset=".2" stop-color="#4aa7a9"/><stop offset="1" stop-color="#6dc5a8"/></linearGradient><linearGradient id="b" gradientUnits="userSpaceOnUse" x1="13" x2="5" y1="9.05" y2="9.05"><stop offset=".23" stop-color="#4aa7a9"/><stop offset=".98" stop-color="#1f4d80"/></linearGradient><linearGradient id="c" gradientUnits="userSpaceOnUse" x1="13" x2="10" y1="8.5" y2="8.5"><stop offset="0" stop-color="#272963"/><stop offset=".48" stop-color="#1f4d80"/><stop offset="1" stop-color="#3d7b91"/></linearGradient><path d="m0 0h18v18h-18z" fill="#f0f3fa"/><path d="m8 6v8c-1.75-.13-3-.47-3-.88v-6.24c0-.2.31-.4.84-.54a11.2 11.2 0 0 1 2.16-.34z" fill="url(#a)"/><path d="m5 6.86c0 .51 1.8 1.85 4 1.85 2.21 0 4-3.18 4-3.69v7.14c0-.51-1.8-2.04-4-2.04s-4 2.45-4 2.97z" fill="url(#b)"/><path d="m13 4.99v7.03c0 .45-1.25.84-3 .98v-9c1.75.15 3 .53 3 .99z" fill="url(#c)"/></svg>