<svg height="18" width="18" xmlns="http://www.w3.org/2000/svg"><path d="m0 0h18v18h-18z" fill="#f0f3fa"/><path d="m8 10h-1v4h1z"/><path d="m12.375 8.481h-3.375v.519h3.375v-.52z" fill="#f581c6"/><path d="m3.646 11.904 2.327-2.429.685.69-2.341 2.437z" fill="#044e7c"/><path d="m4.173 4.73-.474.481 2.314 2.314.48-.484-2.32-2.31z" fill="#11b798"/><path d="m8 4h-1v3h1z" fill="#72c155"/><path d="m8.658 7.457 2.387-2.543.298.323-2.394 2.55-.29-.33z" fill="#f89f2f"/><path d="m6 8h-3v1h3z" fill="#00aeef"/><path d="m10.364 10c.681 0 1.115.458 1.294.698l-.706.787c-.184-.258-.357-.307-.588-.313s-.706.214-.706.835c0 .622.411.866.763.854a.67.67 0 0 0 .53-.288l.707.755c-.46.584-.919.672-1.358.672-.574 0-1.686-.545-1.64-1.993.045-1.447.823-2.007 1.704-2.007zm1.636 4v-4h2v1h-1v1h1v1h-1v1z"/></svg>