<svg height="18" viewBox="0 0 18 18" width="18" xmlns="http://www.w3.org/2000/svg"><path d="m0 9a9 9 0 1 1 18 0 9 9 0 0 1 -18 0z" fill="#2e294e"/><path d="m10.36 10.71c.62.73 1.03 1.39 1.03 2.28l.01 1.15c.63-.41.57-.96.6-1.54 0-.88-.55-1.89-1.64-1.89zm-.29-7.71c.54.77.77 1.58.73 2.46-.14 2.78-4.28 4.7-4.25 7.68 0 .3.06.7.24 1.06.26.51.72.72 1.42.8-.43-.5-.41-1-.41-1.6.01-3 4.16-5.08 4.2-7.94 0-.36-.07-.9-.3-1.37-.28-.6-.79-.94-1.63-1.09z" fill="#f0f3fa"/><path d="m6.68 3.86c-.34.4-.67.79-.68 1.28 0 .24.05.5.15.78.37 1.06 1.08 2.08 1.7 3.08.32-.35.55-.7.55-1.08 0-.63-1.8-2.35-1.72-4.06z" fill="#f0f3fa"/><path d="m9.17 4.5h.67c.09 0 .16.2.16.27 0 .06-.07.23-.16.23h-.67c-.1 0-.17-.16-.17-.23 0-.08.08-.27.17-.27z" fill="#e82c26"/><path d="m8.15 5.5h1.68c.1 0 .17.17.17.25 0 .07-.08.25-.17.25h-1.68c-.1 0-.17-.18-.17-.25 0-.08.08-.25.17-.25z" fill="#f17224"/><path d="m8.18 6.76c0-.07.08-.26.17-.26h1.5c.09 0 .16.2.16.26 0 .07-.07.24-.16.24h-1.5c-.09 0-.17-.17-.17-.24z" fill="#f7ba1e"/><path d="m9 7.75c0-.07.08-.25.17-.25h.21c.1 0 .17.18.17.25s-.08.25-.17.25h-.21c-.1 0-.17-.18-.17-.25z" fill="#f8d126"/><path d="m9.16 13.5h.32c.08 0 .15.18.15.25s-.07.25-.15.25h-.32c-.09 0-.16-.18-.16-.25s.07-.25.16-.25z" fill="#3f92cf"/><path d="m10 12.75c0 .07-.08.25-.17.25h-1.17c-.09 0-.16-.18-.16-.25s.07-.25.16-.25h1.17c.09 0 .17.18.17.25z" fill="#71c08e"/><path d="m9.85 12h-.69c-.09 0-.16-.2-.16-.26 0-.07.07-.24.16-.24h.69c.08 0 .15.17.15.24 0 .06-.07.26-.15.26z" fill="#cbd93d"/></svg>