<svg height="18" viewBox="0 0 18 18" width="18" xmlns="http://www.w3.org/2000/svg"><path d="m0 0h18v18h-18z" fill="#f0f3fa"/><path d="m13.28 10.21c-.28-.39-.66-.7-1.09-.94-.57-.32-1.38-.29-1.38-.29a1.02 1.02 0 0 1 -.6.54 1.12 1.12 0 0 1 -.82-.03c-.63.78-.57 1.42-.56 1.47.03 1 1.11 3.03 5.17 3.04.01-.08.29-2.53-.72-3.79" fill="#0086f8"/><path d="m10 4.99c-1.14-1.05-3.22-1.44-5.9-.3 0 .03.8 3.26 4.4 3.78.09 0 .18 0 .28.02a1 1 0 0 1 .34-.66c.2-.18.45-.27.72-.27.12 0 .24.02.36.05a1.87 1.87 0 0 0 -.2-2.61z" fill="#ff8300"/><path d="m9.39 9.49a1.05 1.05 0 0 1 -.45-.37.98.98 0 0 1 -.16-.55v-.07a4.67 4.67 0 0 0 -3.16.81c-1.5 1.11-1.62 2.69-1.62 2.69.08 0 2.73.6 4.35-.92.17-.16.31-.33.44-.52l.11-.18c.1-.32.27-.62.49-.89z" fill="#51c21a"/></svg>