<svg height="18" viewBox="0 0 18 18" width="18" xmlns="http://www.w3.org/2000/svg"><path d="m0 0h18v18h-18z" fill="#f0f3fa"/><path d="m4 11.14v2.86h10v-10h-10z"/><path d="m13 8.93v-3.93h-5.31l.12.05c1.25.55 2.7 1.54 4.1 2.83l.8.77zm-2.2-1.52a7.33 7.33 0 0 0 -3.25-1.56c-.1 0-.45-.02-.52-.01-.2.02-.32.04-.46.09-.51.17-.85.54-.96 1.05-.08.36-.05.8.07 1.27.32 1.28 1.29 2.83 2.78 4.47l.2.22.07.06h.65l-.17-.18c-.35-.37-.66-.7-.93-1.04-1.1-1.36-1.77-2.64-1.88-3.64a2.62 2.62 0 0 1 0-.49c.04-.29.15-.51.32-.68.48-.5 1.36-.47 2.48.06.8.37 1.72 1.02 2.62 1.84.3.27.82.78 1.08 1.06l.1.1v-.66l-.28-.27c-.7-.71-1.27-1.2-1.91-1.69zm.63 1.4a5.56 5.56 0 0 0 -2.65-1.38 2.95 2.95 0 0 0 -.58 0c-.44.05-.75.23-.91.55-.29.56-.14 1.45.42 2.48.4.74 1.08 1.62 1.81 2.38l.17.16h.18l.45-1.68.46-1.68.53 1.68.53 1.68h1.16v-2.6l-.1-.11a16.64 16.64 0 0 0 -1.47-1.47zm-4.22 2.86a16.21 16.21 0 0 1 -2.21-3.65v2.48 2.5h3.32l-.03-.04c-.47-.52-.74-.85-1.08-1.29z" fill="#fee60e"/></svg>