<svg height="18" viewBox="0 0 18 18" width="18" xmlns="http://www.w3.org/2000/svg"><path d="m0 0h18v18h-18z" fill="#f0f3fa"/><path d="m2 8.65c-.03-2.1 1.45-2.65 2-2.65v6h-2z" fill="#01402b"/><path d="m2.42 6h-.42v.5c.09-.18.32-.4.42-.5zm.26 0h.62c-.79.37-1.2 1.18-1.3 1.55v-.73c.17-.36.53-.7.68-.82z" fill="#f34d47"/><g fill="#01402b"><path d="m5 6h2v6h-2zm3 0h2v6h-2z"/><path d="m6.5 8h2.32v2h-2.32zm4.5-.2c0-1 .8-1.8 1.8-1.8h2.84v1.6h-2.1a.4.4 0 0 0 -.03.8h.69a1.8 1.8 0 1 1 0 3.6h-3.2v-1.6h2.46a.4.4 0 0 0 0-.8h-.66c-1 0-1.8-.8-1.8-1.8z"/></g></svg>