<svg height="18" viewBox="0 0 18 18" width="18" xmlns="http://www.w3.org/2000/svg"><path d="m0 0h18v18h-18z" fill="#f0f3fa"/><path d="m7 11.77c.3 0 .48-.06.57-.17.1-.12.13-.3.13-.53l.23-4.22c0-.24-.05-.4-.15-.47-.1-.08-.28-.13-.53-.15v-.23h1.71l1.52 4.11h.07l1.5-4.11h1.7v.23c-.25.02-.43.07-.53.16-.1.1-.14.3-.14.65l.24 3.92c.02.23.05.54.14.65.1.1.28.15.54.16v.23h-2.38v-.23a1 1 0 0 0 .51-.13c.12-.08.17-.25.17-.52l-.17-4.34h-.06l-1.89 5.22h-.2l-1.7-5.12h-.03l-.23 4.02c0 .3.05.51.14.65.1.13.3.21.63.22v.23h-1.79zm-3 0c.42 0 1-.1 1-.62v-4.3c0-.53-.58-.6-1-.62v-.23h3v.23c-.44.01-1 .06-1 .62v4.3c0 .55.56.62 1 .62v.23h-3z" fill="#1e5496"/></svg>