<svg height="18" viewBox="0 0 18 18" width="18" xmlns="http://www.w3.org/2000/svg"><path d="m0 0h18v18h-18z" fill="#041038"/><g fill="#a7bc28"><circle cx="7.64" cy="4.99" r=".99"/><circle cx="4.99" cy="7.65" r=".99"/><circle cx="4.99" cy="10.37" r=".99"/><circle cx="7.64" cy="10.37" r=".99"/><circle cx="10.33" cy="7.65" r=".99"/><circle cx="13.01" cy="7.65" r=".99"/><circle cx="13.01" cy="10.37" r=".99"/><circle cx="10.33" cy="13.01" r=".99"/></g><path d="m11.32 5a.99.99 0 0 1 -1.03.99 1.79 1.79 0 0 0 -1.67 1.6 1 1 0 0 1 0 .12c.03.52.4 1.55 1.74 1.67a.99.99 0 1 1 -.14 1.97c-1.2.07-1.54 1.09-1.6 1.6a.99.99 0 1 1 -.93-.92c1.3-.22 1.65-1.12 1.66-1.57a1 1 0 0 1 0-.22c-.04-.5-.43-1.49-1.6-1.58a.99.99 0 1 1 -.1-1.97h.01c1.29-.2 1.67-1.12 1.7-1.58a.99.99 0 1 1 1.96-.11z" fill="#fd7704"/></svg>