<svg height="18" viewBox="0 0 18 18" width="18" xmlns="http://www.w3.org/2000/svg" xmlns:xlink="http://www.w3.org/1999/xlink"><linearGradient id="a" gradientUnits="userSpaceOnUse" x1="10.72" x2="12.89" y1="6.02" y2="6.34"><stop offset=".33" stop-color="#1e6c20"/><stop offset=".82" stop-color="#81b61d"/></linearGradient><linearGradient id="b" gradientUnits="userSpaceOnUse" x1="5.19" x2="4.64" y1="9.14" y2="7.14"><stop offset=".33" stop-color="#044468"/><stop offset=".82" stop-color="#3287a8"/></linearGradient><linearGradient id="c" gradientUnits="userSpaceOnUse" x1="11.05" x2="9.32" y1="12" y2="13.54"><stop offset=".33" stop-color="#6e1d04"/><stop offset=".82" stop-color="#932c33"/></linearGradient><linearGradient id="d" gradientUnits="userSpaceOnUse" x1="3.39" x2="11.56" y1="6.07" y2="7.45"><stop offset=".36" stop-color="#1b496f"/><stop offset=".65" stop-color="#1372a4"/><stop offset="1" stop-color="#28aeeb"/></linearGradient><linearGradient id="e" gradientUnits="userSpaceOnUse" x1="14.24" x2="9.13" y1="5.8" y2="12.04"><stop offset=".31" stop-color="#215c23"/><stop offset=".61" stop-color="#1b8521"/><stop offset="1" stop-color="#76b908"/></linearGradient><linearGradient id="f" gradientUnits="userSpaceOnUse" x1="9.43" x2="6.56" y1="15.29" y2="7.55"><stop offset=".36" stop-color="#761517"/><stop offset=".52" stop-color="#890809"/><stop offset="1" stop-color="#af1a22"/></linearGradient><path d="m0 0h18v18h-18z" fill="#f0f3fa"/><path d="m10.6 6.49-.27-1.04a5.29 5.29 0 0 1 1.52-.34c.85.04 1.12.81 1.15 1.39-.12-.24-.48-.35-.79-.37-.54-.04-1.6.36-1.6.36z" fill="url(#a)"/><path d="m5.65 9.06-.62.8c-.25-.2-.97-.9-1.12-1.2-.07-.15-.16-.3-.15-.51 0-.5.44-.96.83-1.15-.15.2-.1.57.02.84.21.47 1.04 1.22 1.04 1.22z" fill="url(#b)"/><path d="m10.75 11.58 1 .45a6.18 6.18 0 0 1 -.65 1.57 1 1 0 0 1 -.83.43c-.36 0-.67-.14-.94-.34.27.05.54-.2.75-.46.36-.45.67-1.65.67-1.65z" fill="url(#c)"/><path d="m11.5 6.3c0 .77-.92 1.2-1.87 1.2-1.8 0-2.9-1.47-4.7-1.47-.72 0-1.08.47-1.43 1.04.44-2.17 2.46-3.07 4.39-3.07 1.27 0 3.61.78 3.61 2.3z" fill="url(#d)"/><path d="m13.48 7.09c.37-.6.18-1.22-.14-1.79.9.65 1.16 1.75 1.16 2.72 0 1.93-1.27 4.58-3.6 4.58-.94 0-1.4-.6-1.4-1.35 0-2.3 2.97-2.5 3.98-4.16z" fill="url(#e)"/><path d="m8.62 13.97c.37.63 1 .68 1.68.7-.37.23-.82.33-1.22.33a4 4 0 0 1 -1.85-.55c-1.33-.74-2.63-2.45-2.66-4.13-.01-.98.47-2.33 1.64-2.32 1.42.01 1.92 1.66 1.93 2.79.01 1.1-.04 2.29.48 3.18z" fill="url(#f)"/></svg>