<svg height="18" viewBox="0 0 18 18" width="18" xmlns="http://www.w3.org/2000/svg"><path d="m0 0h18v18h-18z" fill="#f0f3fa"/><path d="m4.84 6.52a.85.85 0 0 1 -.78-.47.7.7 0 0 1 .19-.83.85.85 0 0 1 .59-.22.85.85 0 0 1 .77.47.7.7 0 0 1 -.18.83.84.84 0 0 1 -.6.22zm.79.48h-1.63v5h1.63z" fill="#0f1d40"/><path d="m6.5 12v-5h1.5v.97h.1c.1-.28.3-.53.55-.7a1.7 1.7 0 0 1 1.82 0c.25.16.42.42.48.7h.05c.1-.29.3-.54.56-.7.3-.18.64-.28.99-.27.93-.03 1.5.74 1.45 1.68v3.32h-1.45v-2.96a.75.75 0 0 0 -.2-.56.68.68 0 0 0 -.5-.2.69.69 0 0 0 -.54.21c-.13.16-.32.36-.31.56v2.95h-1.44v-2.98a.75.75 0 0 0 -.2-.54.67.67 0 0 0 -.5-.2.67.67 0 0 0 -.63.38c-.07.13-.23.27-.23.42v2.92z" fill="#0d71c9"/></svg>