<svg height="18" viewBox="0 0 18 18" width="18" xmlns="http://www.w3.org/2000/svg"><path d="m0 0h18v18h-18z" fill="#f0f3fa"/><ellipse cx="7.83" cy="5.5" fill="#f6881f" rx=".83" ry=".83"/><ellipse cx="7.83" cy="10.17" fill="#f6881f" rx=".83" ry=".83"/><g fill="#3f4f64"><ellipse cx="5.5" cy="7.83" rx=".83" ry=".83"/><ellipse cx="10.17" cy="7.83" rx=".83" ry=".83"/><ellipse cx="10.17" cy="12.5" rx=".83" ry=".83"/></g><ellipse cx="12.5" cy="10.17" fill="#f6881f" rx=".83" ry=".83"/><ellipse cx="13.17" cy="4.83" fill="#3f4f64" rx=".83" ry=".83"/><ellipse cx="4.83" cy="13.17" fill="#f6881f" rx=".83" ry=".83"/><path d="m10.28 7.36 2.23-2.26.35.35-2.22 2.26z" fill="#3f4f64"/><path d="m7.58 9.85v-3.57h.5v3.57z" fill="#f6881f"/><path d="m9.69 8.08h-3.59v-.5h3.58v.5zm.23 3.87v-3.39h.5v3.39z" fill="#3f4f64"/><path d="m7.57 10.81-2.09 2.02-.34-.36 2.08-2.01zm4.66-.39h-3.73v-.5h3.74v.5z" fill="#f6881f"/></svg>