<svg height="18" viewBox="0 0 18 18" width="18" xmlns="http://www.w3.org/2000/svg" xmlns:xlink="http://www.w3.org/1999/xlink"><linearGradient id="a" gradientUnits="userSpaceOnUse" x1="9" x2="9" y1="3" y2="15"><stop offset="0" stop-color="#00a79b"/><stop offset="1" stop-color="#009bd1"/></linearGradient><linearGradient id="b"><stop offset="0" stop-color="#009ad1"/><stop offset="1" stop-color="#00a09d"/></linearGradient><linearGradient id="c" gradientUnits="userSpaceOnUse" x1="10.73" x2="10.24" xlink:href="#b" y1="4.8" y2="5.1"/><linearGradient id="d" gradientUnits="userSpaceOnUse" x1="11.67" x2="11.07" xlink:href="#b" y1="4.51" y2="4.87"/><linearGradient id="e" gradientUnits="userSpaceOnUse" x1="11.94" x2="11.61" xlink:href="#b" y1="5.15" y2="5.36"/><linearGradient id="f" gradientUnits="userSpaceOnUse" x1="11.48" x2="11.05" xlink:href="#b" y1="5.52" y2="5.78"/><linearGradient id="g" gradientUnits="userSpaceOnUse" x1="10.83" x2="10.28" xlink:href="#b" y1="5.67" y2="6"/><linearGradient id="h" gradientUnits="userSpaceOnUse" x1="12.21" x2="11.78" xlink:href="#b" y1="5.93" y2="6.19"/><linearGradient id="i" gradientUnits="userSpaceOnUse" x1="11.4" x2="10.83" xlink:href="#b" y1="6.34" y2="6.68"/><linearGradient id="j" gradientUnits="userSpaceOnUse" x1="10.51" x2="10.07" xlink:href="#b" y1="6.86" y2="7.13"/><linearGradient id="k" gradientUnits="userSpaceOnUse" x1="12.06" x2="11.56" xlink:href="#b" y1="7" y2="7.31"/><linearGradient id="l" gradientUnits="userSpaceOnUse" x1="11.39" x2="10.59" xlink:href="#b" y1="7.22" y2="7.7"/><linearGradient id="m" gradientUnits="userSpaceOnUse" x1="9" x2="9" y1="6" y2="7"><stop offset="0" stop-color="#01a79d"/><stop offset="1" stop-color="#019cd0"/></linearGradient><path d="m0 0h18v18h-18z" fill="#f0f3fa"/><path d="m5.5 6.2c.05 1.3 1.11 2.35 1.64 2.71l1.68-1.05c-1.12-.6-1.42-1.36-1.42-1.66.03-1.13 1.13-1.49 1.64-1.47.4.02.78.17.91.25h.2v-.02c0-.2.16-.35.36-.35a.35.35 0 0 1 .36.37h.18a.42.42 0 0 1 -.1-.27c0-.24.2-.43.44-.43.25 0 .45.2.45.43 0 .1-.04.2-.1.27h.47a3.57 3.57 0 0 0 -3.17-1.98c-1.9.02-3.6 1.56-3.54 3.2zm6.64 1.15a.36.36 0 0 1 -.53.08v.03a.6.6 0 0 1 -.6.6.6.6 0 0 1 -.6-.7h-.46c-.48.35-1.78 1.14-2.37 1.49-.71.39-2.06 1.46-2.05 3.07.02 1.62 1.66 3.1 3.51 3.08s3.4-1.47 3.46-3.08c.05-1.28-1.04-2.4-1.58-2.8l-1.72 1.07c.56.33 1.46.96 1.48 1.73 0 .78-.8 1.42-1.64 1.43-.83.01-1.63-.6-1.66-1.43-.02-.66.77-1.28 1.17-1.5l1.89-1.24c1-.52 1.6-1.43 1.77-1.83z" fill="url(#a)"/><ellipse cx="10.5" cy="4.95" fill="url(#c)" rx=".3" ry=".29"/><ellipse cx="11.39" cy="4.7" fill="url(#d)" rx=".37" ry=".36"/><ellipse cx="11.79" cy="5.26" fill="url(#e)" rx=".21" ry=".2"/><circle cx="11.29" cy="5.65" fill="url(#f)" r=".26"/><ellipse cx="10.58" cy="5.84" fill="url(#g)" rx=".34" ry=".33"/><circle cx="12.01" cy="6.07" fill="url(#h)" r=".26"/><ellipse cx="11.14" cy="6.52" fill="url(#i)" rx=".35" ry=".34"/><ellipse cx="10.31" cy="7" fill="url(#j)" rx=".27" ry=".26"/><ellipse cx="11.83" cy="7.16" fill="url(#k)" rx=".31" ry=".3"/><ellipse cx="11.02" cy="7.46" fill="url(#l)" rx=".49" ry=".48"/><path d="m8.42 11h1.16v.48h.42v.52h-.42v.5h-1.16v-.5h-.42v-.52h.42z" fill="#00a59f"/><path d="m8 6h2v1h-2z" fill="url(#m)"/></svg>