<svg height="18" viewBox="0 0 18 18" width="18" xmlns="http://www.w3.org/2000/svg" xmlns:xlink="http://www.w3.org/1999/xlink"><linearGradient id="a" gradientUnits="userSpaceOnUse" x1="5.23" x2="11.88" y1="4.03" y2="12.15"><stop offset=".42" stop-color="#b7b3b2"/><stop offset="1" stop-color="#454443"/></linearGradient><linearGradient id="b" gradientUnits="userSpaceOnUse" x1="10.16" x2="14.72" y1="9.07" y2="11.33"><stop offset="0" stop-color="#e53e33"/><stop offset="1" stop-color="#851c10"/></linearGradient><linearGradient id="c" gradientUnits="userSpaceOnUse" x1="9.56" x2="9.56" y1="3.9" y2="5.64"><stop offset="0" stop-color="#871d11"/><stop offset="1" stop-color="#cf382d"/></linearGradient><path d="m0 0h18v18h-18z" fill="#f0f3fa"/><circle cx="9" cy="9" fill="url(#a)" r="6"/><circle cx="7.37" cy="6.84" fill="#b9b6b4" fill-opacity=".7" r="3.18"/><path d="m11.03 9.65c0 2.85-1.42 4.75-2.28 5.32 3.41 0 4.93-1.93 5.4-2.87.06-.35.18-1.34.18-2.45 0-1.1-1.23-3-1.85-3.8l-2.2.8a6 6 0 0 1 .75 3z" fill="url(#b)"/><circle cx="7.37" cy="6.84" fill="#c5c2c0" r="2.35"/><circle cx="7.37" cy="6.84" fill="#d9d7d6" r="1.13"/><path d="m11.49 4.99-1.83.65a5.75 5.75 0 0 0 -2.02-1.74c1.98 0 3.4.73 3.85 1.09z" fill="url(#c)"/></svg>