<svg height="18" viewBox="0 0 18 18" width="18" xmlns="http://www.w3.org/2000/svg"><path d="m0 0h18v18h-18z" fill="#f0f3fa"/><path d="m4 6v6h1.3v-6zm2 0v6h1.3v-2.28h.62c.52 0 .92-.03 1.2-.09a1.65 1.65 0 0 0 1.09-.87c.13-.25.19-.56.19-.92 0-.48-.11-.87-.33-1.17s-.5-.5-.83-.58a6.5 6.5 0 0 0 -1.38-.09zm1.3 2.71v-1.7h.42c.42 0 .7.01.83.04a.8.8 0 0 1 .47.27.8.8 0 0 1 .18.54c0 .17-.04.33-.13.46a.75.75 0 0 1 -.36.3c-.15.06-.46.1-.91.1h-.5z" fill="#2b2a29"/><path d="m11 12v-6h1.3v5h2.7v1z" fill="#969696"/></svg>