<svg height="18" viewBox="0 0 18 18" width="18" xmlns="http://www.w3.org/2000/svg"><path d="m0 0h18v18h-18z" fill="#f0f3fa"/><path d="m7.9 2.5-.13 3.5a3.8 3.8 0 0 1 2.32-.48l.3-.37-.38-.45.55-.53-.62-1.14-.92.65-1.13-1.18z" fill="#0374a6" opacity=".65"/><path d="m12.28 3.2-2.23 2.7a3.8 3.8 0 0 1 2.13 1.04l.47-.1-.04-.6.76-.08.21-1.28-1.12-.05-.18-1.64z" fill="#5d5b5b" opacity=".65"/><path d="m15.2 6.48-3.45.7a3.8 3.8 0 0 1 1 2.15l.43.21.35-.48.64.41.97-.86-.84-.75z" fill="#8a1f68" opacity=".65"/><path d="m15.5 10.72-3.25-1.5c.02.16.01.33 0 .5a3.77 3.77 0 0 1 -.48 1.83l.21.42.57-.18.27.72 1.3-.12-.23-1.1z" fill="#f20102" opacity=".65"/><path d="m12.98 14.34-1.49-3.19a3.8 3.8 0 0 1 -1.85 1.49l-.1.46.54.22-.25.73 1.07.74.53-1z" fill="#ff6601" opacity=".65"/><path d="m8.68 15.5.96-3.37a3.8 3.8 0 0 1 -2.38-.1l-.38.29.27.53-.66.38.32 1.26 1.05-.4z" fill="#f3c302" opacity=".65"/><path d="m4.36 13.52 3-1.82a3.81 3.81 0 0 1 -1.66-1.68l-.47-.06-.17.57-.74-.17-.63 1.14 1.05.42z" fill="#95c916" opacity=".65"/><path d="m2.5 9.32 3.54.6a3.8 3.8 0 0 1 -.17-2.38l-.32-.35-.5.33-.45-.62-1.21.46.51 1z" fill="#62baaf" opacity=".65"/><path d="m3.99 4.65 2.08 2.85a3.8 3.8 0 0 1 1.53-1.83l.01-.47-.58-.12.1-.76-1.2-.51-.32 1.08-1.61-.24z" fill="#018134" opacity=".65"/></svg>