<svg fill="none" height="18" width="18" xmlns="http://www.w3.org/2000/svg"><path d="m0 0h18v18h-18z" fill="#f0f3fa"/><path clip-rule="evenodd" d="m3.39 9.644h2.22v.092h-.305a.305.305 0 0 0 -.305.304v2.563c0 .168.137.305.305.305h.305v.092h-2.22v-.091h.305a.305.305 0 0 0 .305-.306v-2.562a.305.305 0 0 0 -.305-.305h-.305zm4.922 0c-1.136 0-1.913.752-1.913 1.68 0 1.142.944 1.672 2.037 1.676.46.002.94-.06 1.564-.325v-.836c0-.154.132-.28.294-.28h.147v-.083h-1.889v.083h.147c.162 0 .294.126.294.28v.864c-.145.081-.352.095-.557.097-.82 0-1.158-.718-1.158-1.497 0-.827.448-1.498 1.178-1.498.592 0 1.288.441 1.456 1.05h.088v-1.12h-.088s-.071.318-.559.106a2.804 2.804 0 0 0 -1.041-.197zm2.688 1.678c0-.927.715-1.678 1.796-1.678.333 0 .646.071.92.197.464.212.532-.106.532-.106h.084v1.12h-.084c-.16-.609-.75-1.05-1.315-1.05-.695 0-.933.69-.933 1.517 0 .798.134 1.479.933 1.479.62 0 1.147-.372 1.399-.655v.26c-.364.304-.82.596-1.399.594-1.048-.003-1.933-.537-1.933-1.678z" fill="#130f88" fill-rule="evenodd"/><path d="m13.569 4c-.915 2.746-5.034 4.912-5.644 5.217.407 0 1.068 0 1.678.275 1.525-.763 3.813-2.899 4.21-4.73z" fill="#db0026"/><g fill="#130f88"><path d="m14.24 6.258c-.457 1.19-2.044 2.776-2.654 3.295.254-.122.915-.367 1.403-.367.356-.406 1.099-1.403 1.343-2.135z"/><path clip-rule="evenodd" d="m6.992 4.182.25.25.274-.082-.085.313.202.3-.3-.055-.151.267-.101-.348-.295-.135.238-.16zm-.338 1.285-.247-.358-.1.422-.417.125.37.226-.01.435.33-.282.41.144-.167-.402.265-.345zm-1.776.358.654.776.988.031-.503.873.289.981-.965-.236-.81.575-.093-1.018-.79-.626.907-.394zm2.556.768.425.61.74-.062-.448.593.288.686-.703-.244-.563.486.015-.744-.636-.385.712-.216zm.927-.607-.183-.265-.075.314-.308.092.275.168-.008.322.245-.21.304.107-.124-.298.195-.256-.32.026z" fill-rule="evenodd"/></g></svg>