<svg height="18" viewBox="0 0 18 18" width="18" xmlns="http://www.w3.org/2000/svg"><path d="m0 0h18v18h-18z" fill="#f0f3fa"/><path d="m8.2 15c-.26 0-.4-.2-.4-.44v-2.48l-1.73 1.82a.47.47 0 0 1 -.65 0 .43.43 0 0 1 0-.62l3.23-3.32v4.6c0 .24-.2.44-.46.44z" fill="#48508d"/><path d="m9.35 8.02v-4.58c0-.24.2-.44.46-.44.25 0 .39.2.39.44v2.46l1.73-1.8a.47.47 0 0 1 .65 0c.17.16.17.44 0 .61l-3.23 3.3zm-.7-.02-3.23-3.27a.43.43 0 0 1 0-.62.47.47 0 0 1 .65 0l1.73 1.79v-2.47c0-.24.14-.44.39-.44s.46.2.46.44zm4.93 4.72a.43.43 0 0 1 -.31-.13l-3.35-3.24h4.64c.24 0 .44.2.44.46 0 .25-.2.39-.44.39h-2.52l1.85 1.74c.17.18.17.47 0 .65a.43.43 0 0 1 -.3.13zm.98-4.07h-4.64l3.35-3.24a.43.43 0 0 1 .62 0c.17.18.17.47 0 .65l-1.85 1.74h2.52c.24 0 .44.14.44.39s-.2.46-.44.46zm-6.46 0h-4.66a.45.45 0 0 1 -.44-.46c0-.25.2-.39.44-.39h2.54l-1.88-1.74a.47.47 0 0 1 0-.65.43.43 0 0 1 .62 0zm1.7 6.35a.45.45 0 0 1 -.45-.44v-4.6l3.23 3.32c.17.17.17.45 0 .62a.47.47 0 0 1 -.65 0l-1.73-1.82v2.48c0 .24-.14.44-.4.44zm-5.38-2.28a.43.43 0 0 1 -.31-.13.47.47 0 0 1 0-.65l1.88-1.74h-2.55c-.24 0-.44-.14-.44-.39s.2-.46.44-.46h4.68l-3.39 3.25a.43.43 0 0 1 -.31.13z" fill="#0dafd0"/></svg>