<svg height="18" viewBox="0 0 18 18" width="18" xmlns="http://www.w3.org/2000/svg" xmlns:xlink="http://www.w3.org/1999/xlink"><linearGradient id="a" gradientUnits="userSpaceOnUse" x1="6.56" x2="12" y1="8.4" y2="13.12"><stop offset=".47" stop-color="#45381a"/><stop offset=".75" stop-color="#eac60a"/><stop offset=".94" stop-color="#b9962d"/></linearGradient><linearGradient id="b" gradientUnits="userSpaceOnUse" x1="8.75" x2="6.72" y1="6.6" y2="15.04"><stop offset="0" stop-color="#be1522"/><stop offset=".65" stop-color="#e78b0c"/><stop offset="1" stop-color="#fecc00"/></linearGradient><path d="m0 0h18v18h-18z" fill="#f0f3fa"/><path d="m8.7 13.82c1.9 0 3.45-1.24 3.45-2.76 0-1.53-1.55-2.76-3.45-2.76s-3.44 1.23-3.44 2.76c0 1.52 1.54 2.76 3.44 2.76z" fill="url(#a)"/><path d="m8.75 3.9s1.23.6 1.25 1.8c0 1.07-2.17 2.74-2.64 4a4.3 4.3 0 0 0 -.02 2.9c-.16-2.71.77-2.95 3.15-5.85 1.34-1.64.45-3.75.45-3.75s1.6 1.44 1.56 3.25a4.62 4.62 0 0 1 -1.25 2.86c-.8.95-2.5 1.84-2.5 3.19 0 1.06.9 1.06 1.26 1.06.54 0 1.87-.98 1.87-2.26s-.63-1.85-.63-1.85c.63.24 1.25 1.02 1.25 2.15 0 2.37-1.72 3.6-3.75 3.6a3.63 3.63 0 0 1 -3.75-3.6c0-1.46 1.1-3.07 2.27-4 1.21-1.02 2.5-2.18 1.48-3.5z" fill="url(#b)"/></svg>