<svg height="18" viewBox="0 0 18 18" width="18" xmlns="http://www.w3.org/2000/svg" xmlns:xlink="http://www.w3.org/1999/xlink"><linearGradient id="a" gradientUnits="userSpaceOnUse" x1="7.2" x2="6.68" y1="2.89" y2="10.39"><stop offset=".24" stop-color="#23325a"/><stop offset=".4" stop-color="#7b7d97"/><stop offset=".57" stop-color="#22315a"/></linearGradient><linearGradient id="b" gradientUnits="userSpaceOnUse" x1="10.8" x2="13.92" y1="6.71" y2="10.6"><stop offset=".17" stop-color="#c3c1c1"/><stop offset=".83" stop-color="#8c8d8f"/></linearGradient><path d="m0 0h18v18h-18z" fill="#f0f3fa"/><path d="m8.9 6.03a77.31 77.31 0 0 1 -1.99 3.47h-.59c-.73 0-1.2-.02-1.86-.22-.7-.22-.96-.56-.96-1.1 0-.18.17-.61.26-.78l1.62-2.6c.27-.48.77-.8 1.3-.8h4.79c-1.4 0-1.82.84-2.57 2.03z" fill="url(#a)"/><path d="m11.23 10.58c-.76-1.46-2.23-3.55-2.23-3.55s.06-.31 1.1-1.84a2.24 2.24 0 0 1 1.56-.89c.36 0 .68.32.86.61l1.74 2.97c.17.3.24.52.24.79 0 .25-.1.5-.23.71l-2.27 3.62c0-.66 0-.97-.77-2.42z" fill="url(#b)"/><path d="m9 7.02s.12-.4 1.17-1.92c.38-.55.91-.8 1.32-.8.37 0 .7.11 1.05.62l.9 1.56c-.37-.38-.75-.98-1.95-.98s-2.37 1.69-2.37 1.69z" fill="#9997a4"/><path d="m6.15 10h4.09c.48.83.9 1.62 1.2 2.57l.04.14.03.24c0 .54-.46 1.05-1.06 1.05h-2.98a1.6 1.6 0 0 1 -1.32-.74l-2.65-3.76c.92.39 1.63.5 2.65.5z" fill="#8db63f"/><path d="m10.24 10s.54.8 1.08 2.18c.12.29.18.5.18.73 0 .21-.04.4-.13.57-.2.35-.62.52-.94.52h-1.8c.47-.1 1.34-.37 1.77-1.17.1-.2.14-.43.14-.69 0-.84-.5-2.14-.5-2.14z" fill="#819756"/></svg>