<svg height="18" width="18" xmlns="http://www.w3.org/2000/svg"><path d="m0 0h18v18h-18z" fill="#f0f3fa"/><path d="m13.56 4.24c-4.84.91-8.2 2.87-8.14 5.05.05 1.92 2.77 3.52 6.78 4.3-.54.35-1.14.62-1.78.8-4-.98-6.7-2.85-6.72-5-.01-2.61 3.97-4.85 9.45-5.59.14.14.28.29.4.44z" fill="#e41c44" opacity=".9"/><circle cx="9.5" cy="5.37" fill="#f0f3fa" r="2.02"/><path d="m8.37 5.37c0-.6.5-1.1 1.13-1.1.62 0 1.13.5 1.13 1.1 0 .61-.5 1.1-1.13 1.1-.62 0-1.13-.49-1.13-1.1zm.63 1.63h1v5h-1z" fill="#1567ae"/></svg>