<svg height="18" viewBox="0 0 18 18" width="18" xmlns="http://www.w3.org/2000/svg"><path d="m0 0h18v18h-18z" fill="#f0f3fa"/><path d="m11.98 5a.94.94 0 0 1 1.02 1.02l-.04.36c-.15 1.74-.15 3.5 0 5.24l.04.36a.94.94 0 0 1 -1.02 1.02l-.36-.04c-1.74-.15-3.5-.15-5.24 0l-.36.04a.94.94 0 0 1 -1.02-1.02l.04-.36c.15-1.74.15-3.5 0-5.24l-.04-.36a.94.94 0 0 1 1.02-1.02l.36.04c1.74.15 3.5.15 5.24 0zm-5.44 1h-.53c.1.49.18.99.24 1.5h2.25v-.75h-1.82zm-.22 2.75-.02-.75h2.2v.75zm0 .5-.03.75h2.21v-.75zm-.32 2.75c.1-.49.19-.99.24-1.5h2.26v.75h-1.83l-.13.75zm6-6h-.54l-.14.75h-1.82v.75h2.25c.06-.51.14-1.01.24-1.5zm-.29 2-.03.75h-2.18v-.75zm0 2-.03-.75h-2.18v.75zm.05.5c.05.51.13 1.01.24 1.5h-.54c-.05-.25-.1-.5-.13-.75h-1.83v-.75z" fill="#024287" fill-rule="evenodd"/></svg>