<svg fill="none" height="18" viewBox="0 0 18 18" width="18" xmlns="http://www.w3.org/2000/svg"><path d="m0 0h18v18h-18z" fill="#f0f3fa"/><path d="m9.8279 4v.12945l.3424.12945c.0883.03236.1435.0863.0994.22654l-.79522 2.33009c-.05522.1726-.15461.42072-.16566.6041h-.02209c-.01104-.18338-.08835-.38835-.14357-.59331l-.70683-2.35167c-.04417-.14024.01105-.19418.0994-.22654l.34237-.12945v-.11866h-1.93273v.11866l.18775.11866c.07731.05394.12149.10788.16566.23733l1.10442 3.58785h1.25904l1.20386-3.58785c.0552-.12945.0883-.18339.1656-.23733l.1878-.11866v-.11866zm1.0934 9.7519c-.0773-.0539-.1215-.1079-.1657-.2373l-1.10441-3.5771h-1.25903l-1.20382 3.5771c-.05522.1294-.08835.1834-.16566.2373l-.18775.1187v.1294h1.36947v-.1294l-.34237-.1295c-.08835-.0324-.14357-.0863-.09939-.2265l.79518-2.3301c.05522-.1726.15462-.4207.16566-.6041h.02209c.01104.1834.08835.3883.14357.5933l.70683 2.3517c.04418.1402-.01104.1941-.0994.2265l-.34237.1294v.1187h1.9548v-.1187zm-4.98095-8.55449c-.08836-.10787-.12149-.1726-.13253-.2589l-.01105-.21575-.11044-.05394-.68474 1.16505.11044.05394.28715-.22654c.07731-.06472.14358-.0863.24298.03237l1.66767 1.84466c.12148.14023.29819.3452.45281.44228l-.01105.02158c-.16566-.07551-.38654-.11866-.59638-.1726l-2.44077-.57174c-.15461-.03236-.16566-.09709-.15461-.19417l.05522-.35599-.11044-.05394-.96085 1.62891.11044.05394.1988-.09709c.07731-.04315.15462-.05394.29819-.02157l3.76615.82881.58067-.93479z" fill="#686866"/><path d="m14.3785 9.6742-.1988.09709c-.0773.04315-.1546.05394-.2982.02158l-3.8013-.7767-.52729.9202 2.55049 2.85543c.0884.1079.1215.1726.1325.2589l.0111.2157.1104.054.6848-1.1651-.1105-.0539-.2871.2265c-.0773.0647-.1436.0863-.243-.0323l-1.6677-1.8231c-.1214-.1403-.2982-.3452-.4528-.4423l.0111-.0216c.1656.0755.3865.1187.5964.1726l2.4407.5718c.1546.0323.1657.097.1546.1941l-.0552.356.1105.054.9608-1.62896zm-10.27107.03237c-.14357.02157-.20984.02157-.29819-.02158l-.1988-.09709-.11044.05394.68474 1.16506.11044-.0539-.05522-.356c-.02209-.0863 0-.1618.15462-.1942l2.47389-.49623c.18776-.04315.45282-.0863.61848-.16182l.01104.02158c-.15462.09709-.29819.2589-.45281.42071l-1.72289 1.77996c-.0994.1079-.17671.0863-.24297.0323l-.28715-.2265-.11044.0539.96084 1.6289.11044-.0539.01105-.2157c.01104-.0863.03313-.1511.13253-.2589l2.62847-2.79073-.59402-.9202zm9.69677-2.589-.1104.05394.0552.35598c.0221.0863 0 .16182-.1546.19418l-2.4739.49622c-.1878.04315-.4528.0863-.6185.16182l-.011-.02158c.1546-.09709.2982-.2589.4528-.42071l1.7229-1.76915c.0994-.10787.1767-.0863.2429-.03236l.2872.22654.1104-.05394-.9608-1.62891-.1105.05394-.011.21575c-.011.08629-.0331.15102-.1325.25889l-2.57953 2.83927.56733.96872 3.7903-.80906c.1436-.02158.2098-.02158.2982.02157l.1988.09709.1104-.05394z" fill="#686866"/><path d="m9.57521 8h-1.12647l-.55335 1.00508.55335.99492h1.12647l.56319-.99492z" fill="#000"/></svg>