<svg fill="none" height="18" width="18" xmlns="http://www.w3.org/2000/svg" xmlns:xlink="http://www.w3.org/1999/xlink"><linearGradient id="a" gradientUnits="userSpaceOnUse" x1="6.231" x2="6.231" y1="4.846" y2="9.615"><stop offset="0" stop-color="#7967fa" stop-opacity=".49"/><stop offset=".37" stop-color="#7967fa"/><stop offset="1" stop-color="#7967fa"/></linearGradient><linearGradient id="b"><stop offset="0" stop-color="#43b9db"/><stop offset=".521" stop-color="#43b9db"/><stop offset="1" stop-color="#43b9db" stop-opacity="0"/></linearGradient><linearGradient id="c" gradientUnits="userSpaceOnUse" x1="11.461" x2="11.308" xlink:href="#b" y1="10.077" y2="4.077"/><linearGradient id="d" gradientUnits="userSpaceOnUse" x1="6.077" x2="9.923" y1="4.231" y2="11"><stop offset="0" stop-color="#7967fa" stop-opacity=".49"/><stop offset=".478" stop-color="#7967fa"/><stop offset="1" stop-color="#7967fa"/></linearGradient><linearGradient id="e" gradientUnits="userSpaceOnUse" x1="11.462" x2="7.616" xlink:href="#b" y1="6.846" y2="6.846"/><linearGradient id="f" gradientUnits="userSpaceOnUse" x1="6.538" x2="6.538" y1="6.077" y2="7"><stop offset="0" stop-color="#e52462"/><stop offset="1" stop-color="#e52462" stop-opacity="0"/></linearGradient><linearGradient id="g" gradientUnits="userSpaceOnUse" x1="12.077" x2="12.077" y1="5.923" y2="7"><stop offset="0" stop-color="#33cc7d"/><stop offset="1" stop-color="#33cc7d" stop-opacity="0"/></linearGradient><linearGradient id="h"><stop offset=".277" stop-color="#feac47" stop-opacity="0"/><stop offset=".477" stop-color="#feac47"/></linearGradient><linearGradient id="i" gradientUnits="userSpaceOnUse" x1="6.172" x2="9" xlink:href="#h" y1="5.096" y2="3.159"/><linearGradient id="j" gradientUnits="userSpaceOnUse" x1="11.828" x2="9" xlink:href="#h" y1="5.096" y2="3.159"/><path d="m0 0h18v18h-18z" fill="#3e3353"/><g clip-rule="evenodd" fill-rule="evenodd"><path d="m6.172 4.172a4 4 0 1 0 5.768 5.542l-1.81-1.67a1.538 1.538 0 1 1 -2.218-2.131z" fill="url(#a)"/><path d="m11.81 4.172a4 4 0 1 1 -5.768 5.542l1.809-1.67a1.538 1.538 0 1 0 2.218-2.131l1.74-1.741z" fill="url(#c)"/><path d="m5 7a4 4 0 0 0 6.94 2.713l-1.81-1.67a1.538 1.538 0 0 1 -2.669-1.043z" fill="url(#d)"/><path d="m10.52 7a1.538 1.538 0 0 1 -2.669 1.043l-1.809 1.67a4 4 0 0 0 6.94-2.713z" fill="url(#e)"/><path d="m9 3a4 4 0 0 0 -4 4h2.462c0-.85.688-1.538 1.538-1.538z" fill="url(#f)"/><path d="m9 3a4 4 0 0 1 4 4h-2.461c0-.85-.69-1.538-1.539-1.538z" fill="url(#g)"/><path d="m9 3c-1.024 0-2.047.39-2.828 1.172l1.74 1.74c.3-.3.694-.45 1.088-.45z" fill="url(#i)"/><path d="m9 3c1.024 0 2.047.39 2.828 1.172l-1.74 1.74c-.3-.3-.694-.45-1.088-.45z" fill="url(#j)"/></g><path d="m6 12h6v2h-6z" fill="#f0f3fa"/></svg>