<svg height="18" viewBox="0 0 18 18" width="18" xmlns="http://www.w3.org/2000/svg"><path d="m0 0h18v18h-18z" fill="#f0f3fa"/><path d="m8.19 8.08.81-1.41.81 1.4h-1.61z" fill="#030914"/><g fill="#5a81aa"><path d="m9.6 8.38-.6.95-.6-.95z"/><path d="m14.92 7.74c.1.16.1.36 0 .52l-1.5 2.47a.58.58 0 0 1 -.5.27h-3c-.21 0-.4-.1-.5-.27l-1.52-2.47a.5.5 0 0 1 0-.52l1.5-2.47c.1-.17.3-.27.5-.27h3.01c.2 0 .4.1.5.27l1.5 2.47zm-.53.38-1.4 2.3a.27.27 0 0 1 -.24.13l-2.8-.04c-.1 0-.2 0-.24-.08l-1.4-2.3a.23.23 0 0 1 0-.25l1.4-2.3c.05-.08.14-.09.23-.09h2.81c.1 0 .18 0 .23.08l1.41 2.3c.05.08.05.18 0 .25z" fill-rule="evenodd"/><path d="m10.1 7.74c.1.16.1.36 0 .52l-1.52 2.47a.58.58 0 0 1 -.5.27h-3c-.2 0-.4-.1-.5-.27l-1.5-2.47a.5.5 0 0 1 0-.52l1.5-2.47c.1-.17.3-.27.5-.27h3c.21 0 .4.1.5.27l1.51 2.47zm-.45.38-1.42 2.33c-.05.08-.13.08-.23.08h-2.83c-.1 0-.19 0-.24-.08l-1.42-2.33a.24.24 0 0 1 0-.24l1.42-2.33c.05-.08.14-.08.24-.08h2.83c.1 0 .18 0 .23.08l1.42 2.33c.05.07.05.17 0 .24z" fill-rule="evenodd"/><path d="m10.71 13.6 1.47-2.52a.26.26 0 0 0 0-.27l-1.47-2.51c-.05-.08-.14-.09-.24-.09h-2.94c-.1 0-.2 0-.24.09l-1.47 2.51a.26.26 0 0 0 0 .27l1.47 2.51c.05.09.14.09.24.09h2.94c.1 0 .2 0 .24-.09zm1.72-2.38c.1-.17.1-.38 0-.54l-1.48-2.51a.56.56 0 0 0 -.48-.28h-2.94c-.2 0-.38.1-.48.28l-1.48 2.5c-.1.17-.1.38 0 .55l1.48 2.5c.1.18.28.28.48.28h2.94c.2 0 .38-.1.48-.27z" fill-rule="evenodd"/><path d="m10.58 13.4 1.37-2.33a.25.25 0 0 0 0-.25l-1.37-2.32c-.04-.08-.13-.08-.22-.08h-2.72c-.1 0-.18 0-.22.08l-1.37 2.32a.25.25 0 0 0 0 .25l1.37 2.33c.04.08.13.08.22.08h2.72c.1 0 .18 0 .22-.08zm1.6-2.2a.5.5 0 0 0 0-.5l-1.38-2.33a.52.52 0 0 0 -.45-.25h-2.71c-.19 0-.36.1-.45.25l-1.36 2.33c-.1.15-.1.34 0 .5l1.36 2.32c.1.16.26.25.45.25h2.72c.19 0 .36-.1.45-.25l1.36-2.32z" fill-rule="evenodd"/></g></svg>