<svg height="18" width="18" xmlns="http://www.w3.org/2000/svg"><path d="m0 0h18v18h-18z" fill="#0d1f2d"/><path d="m6.12 5.5 3.12 1.75v3.5l-.79.43-.48-.29.77-.43v-2.92l-2.62-1.47-2.62 1.47v2.92l2.62 1.47.71-.38.48.28-1.2.67-3.11-1.75v-3.5z" fill="#fff"/><path d="m11.87 5.5 3.13 1.75v3.5l-3.13 1.75-3.13-1.75v-3.5l.75-.39.46.28-.71.4v2.92l2.63 1.47 2.63-1.47v-2.92l-2.63-1.47-.64.36-.5-.3z" fill="#fff"/><path d="m9 5.5 3 1.75v3.5l-.76.43-.49-.28.76-.44v-2.92l-2.51-1.46-.6.34-.5-.28zm-2.5 2.04.68-.4-.48-.26-.7.37v3.5l3 1.75 1.12-.65-.51-.28-.61.35-2.5-1.46z" fill="#abafb0"/></svg>