<svg height="18" viewBox="0 0 18 18" width="18" xmlns="http://www.w3.org/2000/svg"><path d="m0 0h18v18h-18z" fill="#f0f3fa"/><path d="m4 12h3.88l.85-1.2c.12-.17.42-.17.54 0l.85 1.2h3.88c0-.08-.28-.17-.42-.2l-1.4-1.8h-6.36l-1.4 1.8c-.14.03-.42.12-.42.2z" fill="#103786"/><circle cx="9" cy="6" fill="#ea1927" r="1"/><g fill="#103786"><path d="m7.53 6h-3.53c0 .1.14.23.28.27l1.12 1.73h3.3l-1.16-2z"/><path d="m9.04 8.45h-3.37l.38.55h5.99l1.76-2.75c.14-.11.2-.15.2-.25h-3.25c-.53.88-1.7 2.45-1.7 2.45z"/></g></svg>