<svg height="18" viewBox="0 0 18 18" width="18" xmlns="http://www.w3.org/2000/svg" xmlns:xlink="http://www.w3.org/1999/xlink"><linearGradient id="a" gradientUnits="userSpaceOnUse" x1="6" x2="6" y1="6" y2="13"><stop offset="0" stop-color="#a6a5a5"/><stop offset=".23" stop-color="#fbfcfb"/><stop offset="1" stop-color="#0a0b0b"/></linearGradient><linearGradient id="b" gradientUnits="userSpaceOnUse" x1="7.79" x2="7.79" y1="6" y2="12.81"><stop offset="0" stop-color="#444140"/><stop offset="1" stop-color="#848382"/></linearGradient><linearGradient id="c" gradientUnits="userSpaceOnUse" x1="6" x2="6" y1="6" y2="13"><stop offset=".04" stop-color="#70706e"/><stop offset=".44" stop-color="#d4d5d4"/><stop offset=".82" stop-color="#403d3c"/></linearGradient><linearGradient id="d" gradientUnits="userSpaceOnUse" x1="8.92" x2="10.44" y1="5.31" y2="12.12"><stop offset="0" stop-color="#262626"/><stop offset=".36" stop-color="#aeadad"/><stop offset=".39" stop-color="#4a4846"/><stop offset=".8" stop-color="#8d8d8d"/><stop offset=".95" stop-color="#252423"/></linearGradient><linearGradient id="e" gradientUnits="userSpaceOnUse" x1="11" x2="11" y1="5" y2="12"><stop offset="0" stop-color="#cdcecd"/><stop offset=".21" stop-color="#afb0af"/><stop offset=".5" stop-color="#232322"/></linearGradient><linearGradient id="f" gradientUnits="userSpaceOnUse" x1="11" x2="11" y1="5" y2="12"><stop offset=".04" stop-color="#646362"/><stop offset=".36" stop-color="#d4d5d4"/><stop offset=".79" stop-color="#4a4846"/></linearGradient><path d="m0 0h18v18h-18z" fill="#f0f3fa"/><path d="m8 6a14 14 0 0 0 -.2.1c-2.23 1.2-3.8 2.8-3.8 4.6 0 1.85 1.72 2.3 2.73 2.3.8 0 1.18-.11 1.27-.17z" fill="url(#a)"/><path d="m8 6-.42.7v5.86l.42.25z" fill="url(#b)"/><path d="m4.2 10.7c0-2.06 2.03-3.52 3.6-4.37v6.36l-.2.05c-.19.03-.47.06-.87.06-.48 0-1.12-.11-1.64-.43-.5-.31-.9-.83-.9-1.67z" fill="url(#c)"/><path d="m8.34 11.93a9.5 9.5 0 0 1 -.34.07v-.15l.26-.1c1.17-.52 3.07-1.7 3.07-3.09 0-.53-.59-.77-.98-.84-.29-.05-.48.05-1.34.27.27-.11.51-.25.74-.4.6-.4 1.05-.9 1.05-1.4 0-.66-.87-.77-1.4-.77-.29 0-.52.04-.67.05-.13.01-.2 0-.21-.05 0-.03.05-.09.17-.14a5.17 5.17 0 0 1 2-.38c2.37 0 3.31 1.17 3.31 2.19 0 2.78-3.57 4.26-5.66 4.74z" fill="url(#d)"/><path d="m8.52 5.5 1.1-.2c.72.02 2.22.12 2.47.4.3.34-.57 4.55-.84 4.7l-1.99 1.07-1.26.43v.1l.34-.07c2.09-.48 5.66-1.96 5.66-4.74 0-1.02-.94-2.19-3.3-2.19-.89 0-1.67.21-2 .38-.11.05-.17.1-.18.13z" fill="url(#e)"/><path d="m13.77 7.19c0 1.38-.94 2.44-2.16 3.2-.76.49-1.62.85-2.4 1.1.35-.2.7-.44 1.02-.7.7-.57 1.33-1.3 1.33-2.13 0-.33-.22-.57-.44-.74a1.74 1.74 0 0 0 -.93-.3l.23-.21c.34-.34.58-.72.58-1.11 0-.36-.25-.66-.63-.82-.28-.11-.6-.15-.87-.15a5.6 5.6 0 0 1 1.2-.14c1.13 0 1.9.28 2.38.66s.7.88.7 1.34z" fill="url(#f)"/></svg>