<svg height="18" viewBox="0 0 18 18" width="18" xmlns="http://www.w3.org/2000/svg" xmlns:xlink="http://www.w3.org/1999/xlink"><linearGradient id="a" gradientUnits="userSpaceOnUse" x1="9.86" x2="8.51" y1="3.98" y2="5.33"><stop offset="0" stop-color="#dc332e"/><stop offset="1" stop-color="#efa48d"/></linearGradient><linearGradient id="b" gradientUnits="userSpaceOnUse" x1="3.98" x2="8.27" y1="9.86" y2="5.57"><stop offset="0" stop-color="#cccdcf"/><stop offset="1" stop-color="#697986"/></linearGradient><linearGradient id="c" gradientUnits="userSpaceOnUse" x1="6.23" x2="12.18" y1="12.01" y2="6.06"><stop offset="0" stop-color="#ccccce"/><stop offset="1" stop-color="#697986"/></linearGradient><linearGradient id="d" gradientUnits="userSpaceOnUse" x1="8.43" x2="14.39" y1="14.22" y2="8.27"><stop offset="0" stop-color="#cbcbcd"/><stop offset="1" stop-color="#697986"/></linearGradient><linearGradient id="e"><stop offset="0" stop-color="#89919b"/><stop offset="1" stop-color="#d7d7d7"/></linearGradient><linearGradient id="f" gradientUnits="userSpaceOnUse" x1="3.61" x2="9.19" xlink:href="#e" y1="9.49" y2="3.84"/><linearGradient id="g" gradientUnits="userSpaceOnUse" x1="5.82" x2="11.39" xlink:href="#e" y1="11.69" y2="6.04"/><path d="m0 0h18v18h-18z" fill="#f0f3fa"/><path d="m7.65 4.47 1.47-1.47 1.47 1.47-1.47 1.47z" fill="url(#a)"/><path d="m3 9.12 4.4-4.4 1.48 1.46-4.41 4.41z" fill="url(#b)"/><path d="m5.2 11.33 6.13-6.13 1.46 1.47-6.12 6.13z" fill="url(#c)"/><path d="m7.4 13.53 6.13-6.12 1.47 1.47-6.12 6.12z" fill="url(#d)"/><path d="m4.47 10.6-1.47-1.49 8.33-3.92 1.47 1.47-8.33 3.92z" fill="url(#f)"/><path d="m6.67 12.8-1.47-1.47 8.33-3.92 1.47 1.47z" fill="url(#g)"/></svg>