<svg height="18" width="18" xmlns="http://www.w3.org/2000/svg"><path d="m0 0h18v18h-18z" fill="#439539"/><g fill="#fff"><path d="m11.05 6.768c-.42.023-1.113-.237-1.393-.425v.66c.28.142.792.417.932.417-.024.141.27.569.411.852h.785c-.187-.283-.5-.844-.5-1.269 0-.165-.094-.235-.234-.235zm-4.015 0c.42.023 1.113-.237 1.394-.425v.66c-.28.142-.792.417-.932.417.023.141-.271.569-.411.852h-.786c.187-.283.501-.844.501-1.269 0-.165.094-.235.234-.235zm3.93 4.509c-.42-.024-1.113.236-1.393.425v-.661c.28-.142.791-.416.931-.416-.023-.142.271-.57.412-.852h.785c-.187.283-.501.844-.501 1.268 0 .165-.094.236-.234.236zm-3.93 0c.42-.024 1.113.236 1.394.425v-.661c-.28-.142-.792-.416-.932-.416.023-.142-.271-.57-.411-.852h-.786c.187.283.501.844.501 1.268 0 .165.094.236.234.236z"/><path d="m6.02 6.052c.118.519.106 1.226-.875 2.523-.467.048-1.145 0-1.145 0 .468-.565 1.24-1.698 1.145-2.995-.047-.4.047-.472.444-.448 1.285.118 2.43-.66 2.99-1.132 0 0 .047.684 0 1.132-1.284.99-2.044 1.038-2.558.92zm5.96 5.906c-.117-.519-.106-1.226.875-2.523.467-.048 1.145 0 1.145 0-.467.566-1.238 1.698-1.145 2.995.047.4-.047.472-.444.448-1.285-.118-2.43.66-2.99 1.132 0 0-.047-.684 0-1.132 1.285-.99 2.044-1.038 2.558-.92zm-5.96 0c.118-.519.106-1.226-.875-2.523-.467-.048-1.145 0-1.145 0 .468.566 1.239 1.698 1.145 2.995-.047.4.047.472.444.448 1.285-.118 2.43.66 2.99 1.132 0 0 .047-.684 0-1.132-1.284-.99-2.044-1.038-2.558-.92zm5.96-5.906c-.117.519-.106 1.226.875 2.523.467.048 1.145 0 1.145 0-.467-.566-1.238-1.698-1.145-2.995.047-.4-.047-.472-.444-.448-1.285.118-2.43-.66-2.99-1.132 0 0-.047.684 0 1.132 1.285.99 2.044 1.038 2.558.92z"/></g></svg>