<svg height="18" viewBox="0 0 18 18" width="18" xmlns="http://www.w3.org/2000/svg"><path d="m0 0h18v18h-18z" fill="#f0f3fa"/><path d="m9.2 5.09c.32.28.36.93.35 1.34 0 .35-.04.74-.1 1.16a18.99 18.99 0 0 1 -.46 2.04l-.26-1.1c-.13-.55-.21-1.11-.26-1.68-.05-.48-.07-1.66.47-1.84.08-.03.16 0 .26.08zm-3.62.94c.57-.09 1.14.9 1.37 1.36a16.96 16.96 0 0 1 .98 2.48 16.4 16.4 0 0 1 -1.55-1.51 5.1 5.1 0 0 1 -.96-1.44c-.09-.23-.15-.58 0-.8.03-.05.09-.08.16-.1zm7.07.65c-.08.33-.24.63-.43.9-.16.25-.33.46-.48.64a15.95 15.95 0 0 1 -1.68 1.64c.2-.64.43-1.26.7-1.86.24-.56.93-2.03 1.63-1.98.3.03.31.42.26.66zm-9.2 1.92c.44-.05.95.15 1.35.35a14.48 14.48 0 0 1 2.25 1.5c-.75-.05-1.48-.14-2.2-.3-.44-.1-.84-.25-1.18-.42-.29-.13-.67-.43-.67-.79 0-.22.27-.33.45-.35zm11.55.4c-.12.8-1.74 1.14-2.35 1.24a16.77 16.77 0 0 1 -1.7.2c.63-.5 1.28-.95 1.95-1.33a5.35 5.35 0 0 1 1.2-.49c.26-.05.57-.08.8.12.08.07.11.16.1.26zm-6 3a1 1 0 1 0 0-2 1 1 0 0 0 0 2z" fill="#0c6eb7"/></svg>