<svg height="18" width="18" xmlns="http://www.w3.org/2000/svg"><path d="m0 0h18v18h-18z" fill="#842530"/><path d="m5.015 4h7.97c.565 0 1.015.461 1.015 1.015v7.97c0 .565-.461 1.015-1.015 1.015h-7.97a1.016 1.016 0 0 1 -1.015-1.015v-7.97a1.01 1.01 0 0 1 1.015-1.015z" fill="#fff"/><g fill="#842530"><path d="m6.065 4.691-1.015 1.604-.034.98.657 1.315 1.2.473.472.726.612.104.519.554.392-.035.15-.438.577-.508.692-.08.588.288.184.52.358.391.323-.034.219-.473v-.438l-.254-.866.623-.738-.035-.865.762-2.1h-.727l-.877 1.004h-.173l-.334.104v-.726h-1.638l-1.603-.254z"/><path d="m5.742 8.191.98.474.473.852.657.135.542.595.473-.04.15 1.284.358.203.184-.04.439-.596.588.122.034.987-.945.473-.912.933-1.499-.73.046-.338-.692-1.663-.184.473-.589.04-.323-1.744z"/></g></svg>