<svg height="18" width="18" xmlns="http://www.w3.org/2000/svg"><path d="m0 0h18v18h-18z" fill="#0175ce"/><g fill="#fff"><path d="m8.784 7.18c-.172.265-.287.788-.287 1.153h1.498v1.667h-1.498v3h-1.497v-4.662c0-.626.068-1.441.512-2.126.474-.73 1.418-1.212 2.483-1.212v1.667c-.584 0-1.027.187-1.21.513zm3.994 0c-.171.265-.286.788-.286 1.153h1.492v1.667h-1.492v3h-1.492v-4.662c0-.625.067-1.441.51-2.126.472-.73 1.413-1.212 2.474-1.212v1.667c-.582 0-1.023.187-1.206.513z"/><path d="m4.284 8.333c.012-.363.091-.838.274-1.102.165-.239.568-.525 1.187-.525v-1.706h-1.745v8h1.745v-4.667z"/></g></svg>