<svg height="18" width="18" xmlns="http://www.w3.org/2000/svg" xmlns:xlink="http://www.w3.org/1999/xlink"><linearGradient id="a" gradientUnits="userSpaceOnUse" x1="5.572" x2="9.937" y1="5.206" y2="10.328"><stop offset="0" stop-color="#fde733"/><stop offset=".401" stop-color="#ff9c2e"/><stop offset="1" stop-color="#fa502b"/></linearGradient><path d="m0 0h18v18h-18z" fill="#004793"/><path d="m7.281 4.266c2.254-.724 4.157.215 4.843.847 0 .408.014 1.335-.044 1.99-.059.657-.449 1.847-.705 2.284l-.587.318-.538.355-.244.563-.146.603c-1.014 1.12-3.206 1.489-4.168 1.525-1.679-1.47-1.792-3.604-1.646-4.48.095-1.019.874-3.246 3.235-4.005z" fill="url(#a)"/><g fill="#0078c1"><path d="m10.806 13.664c-2.377.818-4.012-.075-5.12-.918 2.39-.71 2.836-.961 4.994-3.613z"/><path d="m10.786 13.671-.277-2.402 2.159 1.122c-.366.402-1.06.928-1.882 1.28z"/><path d="m12.661 12.4-2.886-.961 3.717-.252a4.282 4.282 0 0 1 -.83 1.212z"/><path d="m13.965 9.629-4.978 2.268 4.502-.702c.18-.293.403-.972.476-1.566z"/><path d="m8.944 11.928 5.028-2.297c.203-2.297-1.285-4.096-1.842-4.514.123 1.994-2.872 6.342-3.186 6.811z"/></g><path d="m10.912 8.22.16-2.116-1.099 1.896a1.992 1.992 0 0 0 -1.278.485l-1.897-.808 1.356 1.553a1.994 1.994 0 0 0 .006 1.556l-1.342 1.508 1.876-.78c.35.303.807.486 1.306.486h.03l.71 1.435-.016-1.57a2.001 2.001 0 0 0 1.274-1.782l1.668-.57-1.793-.217a2.007 2.007 0 0 0 -.96-1.076z" fill="#f6f8fd"/></svg>