<svg height="18" viewBox="0 0 18 18" width="18" xmlns="http://www.w3.org/2000/svg"><path d="m0 0h18v18h-18z" fill="#f0f3fa"/><path d="m3 6v1h.78l-.78.84v4.16h1v-6zm9.56 3.65h1.44v1.22c-.15.05-.74.13-.93.13-1.18 0-2.05-.7-2.07-2.02s.91-1.98 1.91-1.98c.59 0 1.03.23 1.32.53l.77-.74a2.75 2.75 0 0 0 -2.09-.79c-1.72 0-2.91 1.23-2.91 3 0 1.81 1.2 3 3.07 3 .26 0 .64-.04.89-.09l1.04-.98v-2.3h-1.48zm-4.66-2.65c.55 0 .96.21 1.29.55l.81-.75a2.83 2.83 0 0 0 -2.1-.8c-1.7 0-2.9 1.24-2.9 3 0 1.77 1.2 3 2.92 3 .78 0 1.43-.24 1.72-.46v-1.09c-.4.31-1 .55-1.63.55-1.06 0-2.01-.6-2.01-2s.9-2 1.9-2z" fill="#003b49"/></svg>