<svg height="18" viewBox="0 0 18 18" width="18" xmlns="http://www.w3.org/2000/svg"><path d="m0 0h18v18h-18z" fill="#f0f3fa"/><path d="m11.25 5.56c.7-.75 1.84-.75 2.54 0l1.21 1.44-6.03 6.44c-.97 1.06-2.98-.44-3.97-1.44z" fill="#fdaa08"/><path d="m6.45 13.46c.89.95 2.8-.84 3.74-1.3l-3.68-3.63a1.6 1.6 0 0 0 -2.38 0l-1.13 1.47z" fill="#0091fc"/><path d="m5.76 12.76-.76-.76 2.46-2.54 2.72 2.69-1.21 1.3a1.74 1.74 0 0 1 -2.38.14l-.14-.13-.7-.7z" fill="#f08519"/><path d="m9.41 7.41a2 2 0 1 1 -2.81-2.81 2 2 0 0 1 2.8 2.8z" fill="#0091fc"/></svg>