<svg height="18" width="18" xmlns="http://www.w3.org/2000/svg"><path d="m0 0h18v18h-18z" fill="#364c73"/><path d="m3.998 4h9.998v6h-.996v-5.007l-8 .007v8h2v1.004h-3.002z" fill="#9ad0e6"/><g fill="#fff"><path d="m8 11h.625v3.004h-.625zm3.184.179v.565c-.434-.248-1.023-.343-1.44.044a1.096 1.096 0 0 0 0 1.406c.371.44 1.001.347 1.44.096v.53a1.82 1.82 0 0 1 -.827.184c-.416 0-.747-.135-.992-.406-.245-.27-.368-.636-.368-1.096 0-.466.123-.834.37-1.1.249-.268.589-.402 1.02-.402.14 0 .276.015.41.046.133.029.262.073.387.133z"/><path d="m13.998 12.669v-.287c0-.426-.083-.762-.295-1.009-.21-.249-.496-.373-.859-.373-.404 0-.726.138-.964.414-.238.274-.357.645-.357 1.114 0 .453.126.812.376 1.078.252.265.592.398 1.022.398.172 0 .341-.018.508-.056.167-.037.273-.08.432-.15v-.534a1.692 1.692 0 0 1 -.913.253c-.48 0-.93-.307-.963-.848zm-.62-.963c.133.153.147.3.147.46h-1.472c.029-.185.06-.32.207-.468.149-.148.347-.222.594-.222.218 0 .393.076.524.23z"/></g></svg>