<svg height="18" width="18" xmlns="http://www.w3.org/2000/svg" xmlns:xlink="http://www.w3.org/1999/xlink"><linearGradient id="a" gradientUnits="userSpaceOnUse" x1="3.349" x2="21.904" y1="3.122" y2="24.434"><stop offset="0" stop-color="#1a1e21"/><stop offset="1" stop-color="#06060a"/></linearGradient><linearGradient id="b" gradientUnits="userSpaceOnUse" x1="6.578" x2="11.848" y1="11.626" y2="6.422"><stop offset="0" stop-color="#7d5422"/><stop offset=".052" stop-color="#886029"/><stop offset=".244" stop-color="#ae8d4d"/><stop offset=".39" stop-color="#c9af6a"/><stop offset=".473" stop-color="#d6bf77"/><stop offset=".626" stop-color="#d3bb74"/><stop offset=".72" stop-color="#caaf6a"/><stop offset=".797" stop-color="#bd9e5c"/><stop offset=".865" stop-color="#ab8949"/><stop offset=".927" stop-color="#966f35"/><stop offset=".985" stop-color="#7f5522"/></linearGradient><linearGradient id="c" gradientUnits="userSpaceOnUse" x1="12.302" x2="6.072" y1="5.891" y2="12.02"><stop offset=".009" stop-color="#583714"/><stop offset=".569" stop-color="#5d3d20"/><stop offset="1" stop-color="#61422b"/></linearGradient><radialGradient id="d" cx="0" cy="0" gradientTransform="matrix(-6.46918 0 0 -6.55064 7.747 12.075)" gradientUnits="userSpaceOnUse" r="1"><stop offset="0" stop-color="#7d5422"/><stop offset=".157" stop-color="#805723"/><stop offset=".281" stop-color="#875f26"/><stop offset=".394" stop-color="#936c2e"/><stop offset=".5" stop-color="#a6823b"/><stop offset=".601" stop-color="#bfa14f"/><stop offset=".689" stop-color="#e1ca6b"/></radialGradient><path d="m0 0h18v18h-18z" fill="url(#a)"/><path d="m9 15c.883-.731 4-2.356 4-6s-3.117-5.257-4-5.988c-.87.73-3.988 2.344-3.988 5.988-.012 3.644 3.117 5.27 3.988 6z" fill="#fff"/><path d="m9 14.072v-10.202c1.043.813 3.255 2.113 3.255 5.176 0 2.948-2.235 4.318-3.015 4.851-.171.117-.24.175-.24.175z" fill="url(#b)"/><path d="m9 3.87v10.201c-.24-.255-3.266-1.647-3.266-5.025 0-3.063 2.246-4.398 3.266-5.176z" fill="url(#d)"/><path d="m9 14.582c-.825-.696-3.633-2.135-3.633-5.582 0-3.458 2.808-4.897 3.633-5.594v-.406c-.871.731-4 2.344-4 5.988 0 3.645 3.129 5.27 4 6z" fill="#a28347"/><path d="m9.011 14.593c.823-.697 3.623-2.137 3.623-5.587 0-3.462-2.8-4.902-3.634-5.6v-.406c.88.732 4 2.347 4 5.994 0 3.648-3.12 5.274-3.989 6.006z" fill="url(#c)"/><path d="m7.396 12v-.117c.882-.058.997-.887 1.008-1.214v-.128-3.129c0-1.319-1.02-1.295-1.02-1.295v-.117h3.21v.117s-1.02-.012-1.02 1.295v3.257c.01.327.125 1.156 1.008 1.214v.117z" fill="#fff"/></svg>