<svg height="18" viewBox="0 0 18 18" width="18" xmlns="http://www.w3.org/2000/svg"><path d="m0 0h18v18h-18z" fill="#f0f3fa"/><g fill="#0b2c73"><path d="m9 14.95s1.21-.37 1.99-.95c.77-.58 1.8-1 2.01-1-.7.6-.98.7-1.36 1.1-.46.45-1.6 1.08-2.64.85z"/><path d="m9.15 3h-1.7v.5h-.45l.2.98-1.2 9.16v.03l.03.01c.12.15.56.66 1.25.66.67 0 2.17-1.27 2.75-1.76l.23-.19h-.02.02l-.9-7.9.24-1h-.45zm-1.85 1.54h1.94l.33 2.86a8.65 8.65 0 0 0 -1.5-.16c-.53 0-.88.07-1.15.14zm-1.2 9.11c.25.03.98.03 2.05-.65 1.1-.68 1.72-.68 1.98-.64l-.23-1.99c-.37-.06-1.77-.24-3.37 0l-.44 3.28z" fill-rule="evenodd"/><path d="m7 14.75s.65.25 1.22.25c.56 0 1.63-.58 2.62-1.4.96-.82 1.76-1.09 2.16-1.03-.7-.1-.85-.06-1.22-.06-.55 0-1.38.46-2.24 1.24-.85.78-1.82 1-2.54 1z"/></g></svg>