<svg height="18" viewBox="0 0 18 18" width="18" xmlns="http://www.w3.org/2000/svg"><path d="m0 0h18v18h-18z" fill="#f0f3fa"/><path d="m15 10h-1.78l-.9 1.46h-2.63l.9 1.54h2.64z" fill="#046937"/><path d="m10.57 13-2.21-4 1.32-2.39-1.74-.07-1.37 2.46 2.22 4z" fill="#079247"/><path d="m7 13-2.22-4-.89 1.6 1.32 2.4z" fill="#818181"/><path d="m4.78 9 .29.52-1.18 1.09.9-1.6z" fill="#676767"/><path d="m11.13 6.54.86-1.54h-3.2l-.85 1.54zm3.15 1.84h-4.3l.72 1.62h4.3z" fill="#3db54a"/><path d="m3 9 2.21-4h1.8l-3.12 5.6z" fill="#989898"/></svg>