<svg height="18" viewBox="0 0 18 18" width="18" xmlns="http://www.w3.org/2000/svg"><path d="m0 0h18v18h-18z" fill="#0159a3"/><path d="m11 6.51c-.05-3.22-2.1-3.66-3.35-3.47-.52.1-.65.48-.65.67v1.29h.71v1h.29v1.65h-.29v.35h-.71v1h.71v.2c.2 0 .56.34.72.49h-.73v.7h1.05c-.18.29-.8.44-1.05.46v.15h-.36v1h.36v.47c.4 0 1.11-.37 1.67-.66.25-.14.47-.25.62-.31a3.75 3.75 0 0 1 -1.12 1.24l-.04.03c-.22.13-.4.24-.41.4h-.72v1.39h.72v.44c.7 0 2.02-.7 2.57-1.04v-4.52c.41-.18 1-.91 1-1.77 0-.85-.82-1.16-1-1.16zm-3-.01c0-.28.45-.5 1-.5s1 .22 1 .5-.45.5-1 .5-1-.22-1-.5zm3.65.75c-.08.08-.23.41-.18 1.1.18-.19.35-.61.18-1.1z" fill="#fff" fill-rule="evenodd"/></svg>