<svg height="18" viewBox="0 0 18 18" width="18" xmlns="http://www.w3.org/2000/svg"><path d="m0 0h18v18h-18z" fill="#012f6b"/><g fill="#fff"><path d="m11.9 5c.32.22.64.46.94.7-1.2-.24-2.43-.34-3.65-.36l-.32-.59c1 .02 2.02.08 3.02.26zm2.7 5.27c-.16.32-.32.63-.52.95-.08-.99-.32-1.97-.66-2.92l.56-.43c.3.78.52 1.6.62 2.4zm-5.17 3.73c-.4-.02-.82-.04-1.22-.1a17.1 17.1 0 0 0 3.12-1.4l.66.3c-.82.47-1.66.86-2.56 1.2zm-1.78-.18c-.42-.06-.82-.14-1.22-.23 1.34-.4 2.58-.99 3.76-1.64l.82.41c-1.06.57-2.18 1.1-3.36 1.46zm6.17-2.19c-.2.3-.42.6-.66.9a12.99 12.99 0 0 0 -.76-3.48l.74-.53c.36 1.02.62 2.07.68 3.11zm-7.79-6.58c-.65.85-1.13 1.79-1.53 2.75-.24.02-.5.04-.74.08.3-.8.7-1.58 1.18-2.31.34-.2.7-.38 1.08-.53zm.52-.25c.38-.15.78-.29 1.18-.43a14.07 14.07 0 0 0 -1.87 3.34l-.96.06c.42-1.03.94-2.03 1.65-2.96zm6.69 1.25c.3.26.58.53.84.81a24.6 24.6 0 0 0 -4.35-.43c-.12-.26-.24-.52-.38-.77 1.3.02 2.6.12 3.89.4zm-7.36 6.14-.14.59c-.8-.48-1.56-1.03-2.22-1.62a9.1 9.1 0 0 1 -.28-.99c.76.75 1.68 1.42 2.64 2.02z"/><path d="m12.12 13.59a14.86 14.86 0 0 0 -.83-3.32l-.44-1.2.62.61c.2-.12.4-.26.58-.4.4 1.17.75 2.37.8 3.58-.23.25-.47.49-.73.73zm-6.19-.12c-.37-.1-.73-.22-1.09-.36a18.91 18.91 0 0 0 5.01-2.44l-.54.8.5.28c-1.22.67-2.5 1.3-3.88 1.72zm-2.79-3.79c-.06-.33-.1-.69-.12-1.04.9.94 2 1.75 3.17 2.48-.08.26-.16.51-.22.77-1.05-.65-2-1.36-2.83-2.21zm11.86-1.68a41.84 41.84 0 0 0 -5.77-.37l.86-.4c-.08-.15-.14-.33-.22-.49 1.5.04 3.03.14 4.49.44.24.27.44.55.64.82zm-12 .22c0-.33.02-.65.04-.99.8.8 1.74 1.48 2.72 2.12l.49.31c.2.14.82.5 1.26.67l-1.04-.12-.18.57a19.14 19.14 0 0 1 -3.29-2.56zm5.2-3.96c.39-.1.77-.2 1.17-.26-.4.45-1.12 1.9-1.34 2.35-.18.35-.34.73-.5 1.08l-.48 1.2-.08-.94-.68.02c.52-1.2 1.1-2.39 1.92-3.45z"/></g></svg>