<svg height="18" width="18" xmlns="http://www.w3.org/2000/svg"><path d="m0 0h18v18h-18z" fill="#0294d0"/><path d="m14.48 7.57c-.18-.2-.7-.53-1.3-.56-.78-.05-1.87.1-3.99 1.45-.69-.51-2.49-1.46-4.18-1.46-2.1 0-2.95 1.2-3 1.95-.06.77.57 1.93 2.55 2.04 1.42.07 3.48-.98 4.18-1.44.9.53 3.07 1.5 4.43 1.44 1.7-.08 2.83-1.11 2.83-2.04a1.56 1.56 0 0 0 -.38-.9c-.1.64-.64 1.92-2.08 1.96a6.46 6.46 0 0 1 -3.54-1.15 5.44 5.44 0 0 1 4.48-1.28zm-6.62 1.6a8.8 8.8 0 0 0 -3.34-1.24c-1.36-.1-1.68.9-1.68 1.24-.06.45.42 1.29 1.68 1.29 1.37 0 2.85-.78 3.34-1.29z" fill="#fff" fill-rule="evenodd"/></svg>