<svg height="18" viewBox="0 0 18 18" width="18" xmlns="http://www.w3.org/2000/svg" xmlns:xlink="http://www.w3.org/1999/xlink"><linearGradient id="a" gradientUnits="userSpaceOnUse" x1="3.35" x2="21.9" y1="3.12" y2="24.43"><stop offset="0" stop-color="#1a1e21"/><stop offset="1" stop-color="#06060a"/></linearGradient><path d="m0 0h18v18h-18z" fill="url(#a)"/><path d="m5.01 6.82-1.01-.65 5-2.87 5 2.87-1.1.68-3.93-2.08-3.97 2.05z" fill="#d4d4d5"/><path d="m9 13.05v1.65l-5-2.82v-5.71l.99.62v4.34l4 1.92z" fill="#929293"/><path d="m9 13.23v1.47l5-2.82v-5.72l-1.12.7v4.35z" fill="#b7b7b8"/><path d="m6 10.66-1 .47v-4.33l4-2.3v1.28l-3 1.75z" fill="#ed7c37"/><path d="m12 10.65 1 .6v-4.47l-4-2.28v1.28l3 1.75z" fill="#de5126"/><path d="m5 11.13 1-.48 3 1.58 3-1.58.09.06 1.91 1.1-1.26.75-1.1-.68-2.64 1.43z" fill="#f89b33"/><path d="m11.58 13.23v-1.37l1.18.7v1.37z" fill="#929293"/><path d="m14 13.24v-1.42l-1.24.73v1.37z" fill="#b7b7b8"/></svg>