<svg height="18" viewBox="0 0 18 18" width="18" xmlns="http://www.w3.org/2000/svg" xmlns:xlink="http://www.w3.org/1999/xlink"><linearGradient id="a" gradientUnits="userSpaceOnUse" x1="1.76" x2="15.37" y1="8.52" y2="12.2"><stop offset="0" stop-color="#afccd0"/><stop offset=".26" stop-color="#74c4b9"/><stop offset=".48" stop-color="#ea666c"/><stop offset=".7" stop-color="#f04950"/><stop offset=".95" stop-color="#604651"/></linearGradient><path d="m0 0h18v18h-18z" fill="#f0f3fa"/><path d="m7.78 10.46c-.4.34-.94.54-1.53.54-.63 0-1.2-.23-1.62-.6-.23.35-.7.6-1.23.6-.77 0-1.4-.52-1.4-1.15v-1.85h.8v1.87c0 .27.2.5.53.5.4 0 .75-.24.87-.55a1.8 1.8 0 0 1 -.2-.82c0-1.1 1-2 2.25-2 1.24 0 2.25.9 2.25 2 0 .35-.1.68-.28.97.26.2.62.43.92.43.42 0 .6-.35.65-.52l.77-2.09c.1-.26.48-.79 1.33-.79s1.27.53 1.38.8a257.16 257.16 0 0 0 .78 2.16c.04.11.15.43.63.43.43 0 .51-.3.52-.46v-1.93h.8v1.9c0 .26-.19 1.1-1.32 1.1-.9 0-1.28-.59-1.35-.88l-.73-2a.7.7 0 0 0 -.71-.5c-.4 0-.62.33-.68.5l-.73 2c-.17.48-.6.88-1.34.88-.58 0-1.07-.3-1.24-.44zm-.6-.5c-.25.19-.58.3-.93.3-.79 0-1.42-.56-1.42-1.26s.63-1.26 1.42-1.26 1.42.56 1.42 1.26c0 .15-.03.3-.09.44l-.32-.26-.49.44.4.34z" fill="url(#a)" fill-rule="evenodd"/><ellipse cx="2.45" cy="7.37" fill="#abd1d2" rx=".45" ry=".37"/><ellipse cx="15.55" cy="7.37" fill="#bf545a" rx=".45" ry=".37"/></svg>