<svg height="18" viewBox="0 0 18 18" width="18" xmlns="http://www.w3.org/2000/svg"><path d="m0 0h18v18h-18z" fill="#f0f3fa"/><path d="m7.28 9.64.05-.26zm.05-.26-.01-.27v.27zm-.01-.27c-.01-.06-.04-.19-.11-.33l.1.33zm-.11-.33a1 1 0 0 0 -.56-.48zm-.56-.48a1 1 0 0 0 -.73.03zm-.73.03c-.14.06-.23.13-.28.17zm-.28.17c-.09.09-.15.17-.17.2zm-.17.2-.14.23zm1.15 2.12-.12.25-1.81-.84c.19-.42.4-.85.64-1.3" fill="#99b16e"/><path d="m7.41 5.61c-.26.34-.29.74-.07.9.22.15.6 0 .87-.33.26-.34.29-.74.07-.9-.22-.15-.6 0-.87.33zm-1.47 4.89c.17-.36.29-.72.37-1.08.05-.22.02-.23-.1-.03l-.62 1.26c-.45.9-.73 1.49-1.37 1.92-.05.03-.1.04-.14.03a.1.1 0 0 1 -.05-.02.1.1 0 0 1 -.03-.05.1.1 0 0 1 .04-.1c.58-.47.98-1.29 1.26-1.99s.57-1.46.85-2.24c.08-.22.17-.44.29-.65.18-.32.74-.72 1.05-.3.24.34-.03 1.2-.14 1.56-.21.68-.4 1.33-.57 1.97-.01.06 0 .07.06.04 1.18-.67 2.23-1.54 3.34-2.3.68-.46 2.5-1.57 3.28-.92.07.07.06.1-.04.08a2.77 2.77 0 0 0 -1.76.47c-.54.31-1.07.68-1.59 1.1l-2.23 1.85a4.7 4.7 0 0 1 -.98.64c-.51.25-.98 0-1.02-.55 0-.14.03-.37.1-.68z" fill="#7dae26"/><path d="m5.6 10.65c.18-.4.38-.81.62-1.26.1-.2.14-.2.09.03-.08.36-.2.72-.37 1.09-.22.28-.27.6-.16.97.1.31.31.48.65.5.5.04 1.1-.36 1.5-.67.8-.61 1.62-1.26 2.46-1.94.4-.33.85-.63 1.33-.92a2.92 2.92 0 0 1 1.75-.5c.02 0 .04.01.05.03.02 0 .03.02.04.04.62 1.2.64 2.54-.31 3.55-.76.8-1.96 1.2-3.08 1.3-1 .08-2 .12-3.02.13-.47 0-.9-.05-1.26-.15-.46-.12-.7-.43-.67-.9.03-.28.07-.5.15-.65.13-.28.2-.5.22-.65z" fill="#b4b4b6"/></svg>