<svg height="18" width="18" xmlns="http://www.w3.org/2000/svg"><path d="m0 0h18v18h-18z" fill="#0093b3"/><ellipse cx="6.712" cy="7.47" fill="#231f20" rx=".758" ry=".793"/><path d="m7 9h-1l-1 5h1z" fill="#231f20"/><path d="m11.61 4h-4.497a5.5 5.5 0 0 0 -.107.626c-.036.302.133.363.222.374h3.6c.291 0 .986.08.883.92-.127 1.048-.757 2.998-1.808 3.12-.841.097-1.625.02-1.9-.04-.055.766.779 1.04 1.09 1.09l1.733 3.91h1.174l-1.685-3.91c1.231-.186 1.841-1.361 1.987-1.816.248-.676.735-2.25.696-3.138-.04-.888-.941-1.127-1.387-1.136z" fill="#fff"/></svg>