<svg height="18" viewBox="0 0 18 18" width="18" xmlns="http://www.w3.org/2000/svg"><path d="m0 0h18v18h-18z" fill="#20416d"/><path d="m6 8h-1.67v.92h.47v2.16h-.47v.92h2.17v-.92h-.5zm-1.73-1.19.58.4.43-.56.43.56.58-.4-.42-.59.69-.2-.2-.68-.72.21v-.72h-.73v.72l-.7-.2-.21.65.69.21zm4.49 2.73c-.4-.13-.65-.22-.65-.38 0-.2.2-.32.52-.32l.24.02.07.43h.85v-1.13s-.42-.16-1.16-.16c-1 0-1.63.48-1.63 1.23 0 .78.72 1 1.24 1.16.4.12.64.2.64.4 0 .08 0 .34-.5.34a1.9 1.9 0 0 1 -.4-.05l-.06-.42h-.92v1.13s.56.21 1.38.21c.97 0 1.62-.53 1.62-1.31 0-.75-.72-.98-1.24-1.15m3.91-.64c.13 0 .26.02.39.04l.07.45h.87v-1.22s-.48-.17-1.29-.17c-1.42 0-2.38.84-2.38 2.08 0 1.19.84 1.92 2.18 1.92.97 0 1.49-.25 1.49-.25v-1.9h-1.67v.62l.63.07v.51c-.12.03-.24.04-.35.04-.72 0-1.12-.38-1.12-1.07 0-.7.44-1.12 1.18-1.12" fill="#fff"/></svg>