<svg height="18" viewBox="0 0 18 18" width="18" xmlns="http://www.w3.org/2000/svg"><path d="m0 0h18v18h-18z" fill="#f0f3fa"/><g fill="#003f7c"><path d="m8 5.26c0-.14.1-.26.24-.26h1.52c.13 0 .24.12.24.26v.98c0 .14-.1.26-.24.26h-.11v4h.11c.13 0 .24.12.24.26v.98c0 .14-.1.26-.24.26h-1.52c-.13 0-.24-.12-.24-.26v-.98c0-.14.1-.26.24-.26h.11v-4h-.11c-.14 0-.24-.12-.24-.26z"/><path d="m7.59 6h-.35c-.14 0-.24.12-.24.26v.98c0 .15.1.26.24.26h.11v4h-.11c-.13 0-.24.11-.24.26v.98c0 .14.1.26.24.26h1.52c.13 0 .24-.12.24-.26v-.45h-1c-.23 0-.41-.2-.41-.46v-1.07c0-.23.15-.43.35-.46v-3.52c-.2-.03-.35-.22-.35-.45z" fill-opacity=".6"/><path d="m9 15a6 6 0 1 0 -5.93-5.11c.08-3.15 1.96-6.52 5.71-6.52 3.2 0 5.63 2.45 5.63 5.66-.25 3.02-2.67 5.79-5.58 5.97z"/></g></svg>