<svg height="18" viewBox="0 0 18 18" width="18" xmlns="http://www.w3.org/2000/svg"><path d="m0 0h18v18h-18z" fill="#f0f3fa"/><path d="m3 7v.16h1v4.68h-1v.16h3v-.16h-1v-4.68h1v-.16zm3 0v1.33h.23v-.02c.38-1.15.97-1.15 1.35-1.15h.42v4.68h-.9v.16h2.7v-.16h-.8v-4.68h.33c.38 0 1.09 0 1.47 1.15v.02h.16v-1.33z" fill="#456dd1"/><path d="m10.77 7v.16h.85v4.68h-.85v.16h2.41v-.16h-.8v-2.34h.55c.66 0 .94.42 1.08.95v.04h.15v-2.17h-.14l-.01.03c-.2.8-.57 1-1.2 1h-.43v-2.2h1.17c.78 0 1.06.38 1.3 1.08l.01.03h.14v-1.26z" fill="#606463"/><path d="m11.05 4.2-5.14 1.92c-1.87.8-2.68 0-2.68 0l-.14-.75c.38.08.77.07 1.14-.02a3762.77 3762.77 0 0 1 6.82-1.35c.03.01.05.03.06.06a.1.1 0 0 1 0 .08.11.11 0 0 1 -.06.06z" fill="#eeba00"/></svg>