<svg height="18" viewBox="0 0 18 18" width="18" xmlns="http://www.w3.org/2000/svg"><path d="m0 0h18v18h-18z" fill="#f0f3fa"/><path d="m9.3 3.28c0 .15-.14.28-.3.28-.18 0-.31-.13-.31-.28 0-.16.13-.28.3-.28s.3.12.3.28zm1.43.3c.16 0 .3-.12.3-.28 0-.15-.14-.27-.3-.27-.17 0-.3.12-.3.27 0 .16.13.28.3.28zm-1.17.93c0 .29-.25.52-.56.52-.3 0-.56-.23-.56-.52 0-.28.25-.51.56-.51s.56.23.56.51zm1.73 0c0 .29-.25.52-.56.52s-.56-.23-.56-.52c0-.28.25-.51.56-.51.3 0 .56.23.56.51zm-2.29 1.89c.34 0 .61-.25.61-.56 0-.32-.27-.57-.61-.57-.35 0-.62.25-.62.57 0 .3.27.56.62.56zm2.32-.56c0 .3-.27.53-.59.53s-.58-.24-.58-.53c0-.3.26-.54.58-.54s.59.24.59.54zm-2.33 1.8c.34 0 .62-.25.62-.56 0-.32-.28-.57-.62-.57s-.62.25-.62.57c0 .31.28.56.62.56zm2.32-.56c0 .3-.26.53-.58.53-.33 0-.59-.24-.59-.53 0-.3.26-.54.59-.54.32 0 .58.24.58.54zm-2.31 1.84c.34 0 .62-.26.62-.57s-.28-.57-.62-.57-.62.26-.62.57.28.57.62.57zm2.32-.57c0 .3-.26.54-.58.54-.33 0-.59-.24-.59-.54s.26-.54.59-.54c.32 0 .58.24.58.54zm-2.32 1.86c.34 0 .62-.25.62-.57 0-.31-.28-.57-.62-.57s-.62.26-.62.57c0 .32.28.57.62.57zm2.32-.57c0 .3-.26.54-.58.54-.33 0-.59-.24-.59-.54s.26-.53.59-.53c.32 0 .58.24.58.53zm-2.32 1.86c.34 0 .62-.25.62-.57 0-.31-.28-.57-.62-.57s-.62.26-.62.57c0 .32.28.57.62.57zm2.32-.57c0 .3-.26.54-.58.54-.33 0-.59-.24-.59-.54s.26-.53.59-.53c.32 0 .58.24.58.53zm-2.32 1.84c.34 0 .62-.25.62-.57 0-.31-.28-.57-.62-.57s-.62.26-.62.57c0 .32.28.57.62.57zm2.3-.57c0 .29-.25.52-.56.52s-.56-.23-.56-.52c0-.28.25-.51.56-.51.3 0 .56.23.56.51zm1.02-5.84c.33 0 .59-.24.59-.53 0-.3-.26-.54-.59-.54-.32 0-.58.24-.58.54s.26.53.58.53zm.59.72c0 .3-.26.53-.59.53-.32 0-.58-.24-.58-.53 0-.3.26-.54.58-.54.33 0 .59.24.59.54zm-.59 1.8c.33 0 .59-.23.59-.53s-.26-.54-.59-.54c-.32 0-.58.24-.58.54s.26.54.58.54zm.3-4.37c0 .16-.13.28-.3.28-.16 0-.3-.12-.3-.28 0-.15.14-.28.3-.28.17 0 .3.13.3.28zm-5.3-.91c.17 0 .3-.13.3-.28 0-.16-.13-.28-.3-.28-.16 0-.3.12-.3.28 0 .15.14.28.3.28zm6.68 4.75c0 .16-.14.28-.3.28-.17 0-.31-.13-.31-.28s.14-.28.3-.28c.17 0 .3.13.3.28zm-.3-1c.16 0 .3-.12.3-.27 0-.16-.14-.28-.3-.28-.17 0-.31.12-.31.28 0 .15.14.27.3.27zm.3-1.52c0 .15-.14.27-.3.27-.17 0-.3-.12-.3-.27 0-.16.13-.28.3-.28.16 0 .3.12.3.28zm-9.7 2.8c.17 0 .3-.13.3-.28s-.13-.28-.3-.28c-.16 0-.3.13-.3.28s.14.28.3.28zm.3.98c0 .15-.13.28-.3.28-.16 0-.3-.13-.3-.28s.14-.28.3-.28c.17 0 .3.13.3.28zm-.3-2.26c.17 0 .3-.12.3-.27 0-.16-.13-.28-.3-.28-.16 0-.3.12-.3.28 0 .15.14.27.3.27zm.3-1.52c0 .15-.13.27-.3.27-.16 0-.3-.12-.3-.27 0-.16.14-.28.3-.28.17 0 .3.12.3.28zm1.13-1.04c.16 0 .3-.12.3-.28 0-.15-.14-.28-.3-.28-.17 0-.3.13-.3.28 0 .16.13.28.3.28zm.3 6.1c0 .15-.14.28-.3.28-.17 0-.3-.13-.3-.28s.13-.28.3-.28c.16 0 .3.13.3.28zm-.3 1.6c.16 0 .3-.13.3-.29 0-.15-.14-.28-.3-.28-.17 0-.3.13-.3.28 0 .16.13.28.3.28zm1.89.98c0 .15-.14.28-.3.28-.17 0-.3-.13-.3-.28s.13-.28.3-.28c.16 0 .3.13.3.28zm3.1.27c.17 0 .31-.13.31-.28 0-.16-.14-.28-.3-.28-.17 0-.3.12-.3.28 0 .15.13.28.3.28zm-1.41.98c0 .16-.14.28-.3.28-.17 0-.3-.12-.3-.28 0-.15.13-.28.3-.28.16 0 .3.13.3.28zm-3.58-8.36c.32 0 .58-.24.58-.53 0-.3-.26-.54-.58-.54-.33 0-.59.24-.59.54s.27.53.59.53zm.58.72c0 .3-.26.53-.58.53-.33 0-.59-.24-.59-.53 0-.3.27-.54.59-.54s.58.24.58.54zm-.58 3.1c.32 0 .58-.24.58-.54s-.26-.53-.58-.53c-.33 0-.59.24-.59.53 0 .3.27.54.59.54zm.56-1.83c0 .29-.25.52-.56.52s-.56-.23-.56-.52c0-.28.25-.51.56-.51.3 0 .56.23.56.51zm1.59-3.83c0 .29-.25.52-.56.52s-.56-.23-.56-.52c0-.28.25-.51.56-.51.3 0 .56.23.56.51zm-.56 1.86c.32 0 .58-.24.58-.54s-.26-.54-.58-.54c-.33 0-.59.24-.59.54s.26.54.59.54zm.58.7c0 .3-.26.55-.58.55-.33 0-.59-.24-.59-.54s.26-.54.59-.54c.32 0 .58.24.58.54zm-.58 1.82c.32 0 .58-.24.58-.54s-.26-.53-.58-.53c-.33 0-.59.24-.59.53 0 .3.26.54.59.54zm.58.74c0 .3-.26.54-.58.54-.33 0-.59-.24-.59-.54s.26-.54.59-.54c.32 0 .58.24.58.54zm-.58 1.82c.32 0 .58-.24.58-.54s-.26-.54-.58-.54c-.33 0-.59.24-.59.54s.26.54.59.54zm.56.74c0 .28-.25.51-.56.51s-.56-.23-.56-.51c0-.29.25-.52.56-.52.3 0 .56.23.56.52zm1.67 1.26c0 .28-.25.51-.56.51-.3 0-.56-.23-.56-.51 0-.29.25-.52.56-.52s.56.23.56.52z" fill="#009adf"/></svg>