<svg height="18" viewBox="0 0 18 18" width="18" xmlns="http://www.w3.org/2000/svg"><path d="m0 0h18v18h-18z" fill="#f0f3fa"/><path d="m13 8c0 1-.44 1-1 1s-1 0-1-1v-3h-1v3c0 1.5.89 2 2 2s2-.5 2-2v-3h-1zm-5.5.25-1-3.25h-1l1.65 5h.71l1.65-5h-1.02l-1 3.25zm-3.5-3.25h1v5h-1z" fill="#00305b"/><path d="m11.82 10.29c-.09 0-.18.02-.25.07l-2.2 1.5a.73.73 0 0 1 -.43.14h-4.94v-.29h4.94c.1 0 .18-.02.25-.07l2.21-1.5a.73.73 0 0 1 .42-.14h2.18v.29z" fill="#c3cc1e"/><path d="m12.36 11h1.64v.34h-1.52l-2 1.53c-.07.06-.15.13-.24.13h-6.24v-.35h6.12c.09 0 .17-.06.23-.12z" fill="#55bfec"/><path d="m8.31 11.35c-.03 0 .03-.02 0 0l-3.1 2.55a.4.4 0 0 1 -.26.1h-.95v-.3h.95l.09-.03 3-2.57a.4.4 0 0 1 .27-.1h5.69v.35z" fill="#00264d"/></svg>