<svg height="18" viewBox="0 0 18 18" width="18" xmlns="http://www.w3.org/2000/svg"><path d="m0 0h18v18h-18z" fill="#f0f3fa"/><path d="m14 5h-10v9h10z" fill="#e27f33"/><path d="m8.68 7.67s2.16-.02 2.44.07c.27.1.6 1.12.73 1.36.12.23.72 1.2.77 1.5.05.28.05.55.05.55s-.5-.87-.59-.85c-.08 0 .03 1.37-.55 1.37 0 0 .49-1.65-.32-2.58-.19-.22-.81-.01-1.17-.15-.37-.15-.94-.9-.94-.9-.14-.02-.11.1-.3.01-.2-.1-.12-.38-.12-.38z" fill="#231f20"/><path d="m9.67 7.67s.04.94.6.91c.55-.03.67-.86.67-.86-.1-.02-.34-.03-.34-.03l-.46-.02z" fill="#fff"/><g fill="#231f20"><path d="m6.16 7.6c.14-.04.67.58.85.55.19-.03.25-.36.47-.4.22-.06.45.03.46.26.02.23-.33.38-.4.55-.07.18-.03.57-.32.8-.3.25-.64.53-.9.31-.27-.22-.17-.86-.1-1.04.08-.18.13-.2-.17-.24-.3-.05-.3-.38-.3-.38s.27-.38.41-.42zm1.14-1.56c.32-.05.52.22.54.6.01.38-.14.58-.47.57-.32 0-.61-.36-.6-.59 0-.2.2-.53.52-.58zm1.31-.86c.19.2-.03.48-.23.7s-.43.37-.54.29-.11-.43-.07-.64c.05-.2.66-.54.84-.35zm.82-.25c.16.03-.04.8-.17.89-.12.08-.34.02-.38-.05-.07-.11.07-.5.15-.59.08-.08.25-.28.4-.25zm-3.89 4.67c.2 0 .2.57.2.57.19.13.31.29.31.46 0 .78-.7.59-.82.6-.13.01-.71.24-.78-.36-.05-.43.51-.44.63-.53.11-.08.25-.33.24-.42 0-.1.03-.31.22-.31zm2.09 1.92c.15.04 1.47.42 1.56.5.1.1-.45.17-.51.13-.06-.05-.11-.21-.28-.21-.16 0-.71.07-.87.01-.17-.05-.24-.2-.23-.31.02-.12.18-.17.33-.12zm-.33-7.3c-.2.03-.48.39-.46.6.02.2.28.26.46.2.18-.04.47-.35.44-.56-.04-.2-.24-.27-.44-.24zm-1.46 1.9c0 .36-.25 1.05-.6 1.1-.34.03-.53-.35-.51-.6s.4-.73.67-.76c.26-.04.44.09.44.26zm-1.24 2.78c.17.07.4.78.36 1.02-.04.23-.2.33-.52.32-.31-.01-.44-.46-.44-.63s.44-.78.6-.7zm4.89-2.87c.37.01.42.73.49.75.07.01.4.28.4.28-.04.2-.58.1-.7 0-.13-.09-.68-.34-.68-.51 0-.18.12-.53.49-.52zm.63-1.57s.52-.1.6 0c.09.1-.11.6-.33.67-.22.06-.31.25-.48.14-.17-.1-.13-.28-.16-.4-.04-.12.37-.41.37-.41zm-.92 4.92c.16.03.18.42.14.54-.05.11-.34.2-.48.18s-.37-.45-.28-.5c.08-.04.46-.25.62-.22zm.75.54c.08.08.36.17.3.32s-.4.18-.5.2c-.11.03-.32-.14-.26-.2s.39-.4.46-.32zm.67.41c.09.05.17.38 0 .46-.18.08-.5.14-.5 0s.4-.5.5-.46zm.71.6c.08.03-.08.48-.2.57-.13.08-.31.36-.4.27-.1-.1.11-.42.17-.49.06-.06.36-.38.43-.35zm-1.84.35c.08 0 .3-.05.38.07s-.02.33-.18.42c-.15.09-.5-.12-.5-.12s.22-.36.3-.37zm-.91-.35c.18-.16.6 0 .6.1s.11.33 0 .32c-.12-.02-.4.05-.5-.07 0 0-.29-.18-.1-.35zm3.97-5.07c.13-.07.46.04.46.17v.52s.16-.06.12.07-.14.77-.29.87-.03-.5-.1-.57c-.08-.08-.2-.15-.29-.3-.08-.14-.02-.7.1-.76zm-5.49 4.7c.21.01.53.24.47.37-.07.13-.3.12-.47.21-.17.1-.22.25-.4.2-.18-.04-.22-.23-.18-.38.03-.16.37-.4.58-.4zm-.58 1.27c.18-.05 1 .11 1.05.32.03.2-.22.43-.38.43s-.54-.03-.67 0c-.14.03-.2.2-.43.1-.22-.1-.53-.39-.49-.62.05-.22.07-.26.28-.3.22-.02.32.3.4.24.08-.05.05-.12.24-.17zm1.36.84c.22 0 .4.3.37.5-.03.21-.34.45-.47.46-.12 0-.21-.48-.21-.48s.08-.46.3-.48zm-3.4-4.94c.15-.03.28.08.33.01s.2-.3.35-.25.4.41.28.52c-.11.11-.5.67-.7.66-.19-.01-.34-.31-.39-.42-.05-.1-.02-.5.13-.52zm7.78-3.01c.17 0 .33.18.34.4 0 .24-.3.49-.33.43-.04-.05-.3-.1-.32-.24-.05-.17.14-.59.31-.6zm-2.21 2.95s-.07.5.17.51c.24.02.3-.5.3-.5h-.23l-.25-.02zm.56-2.11c.21-.03.33.03.33.22 0 .2-.15.5-.28.54-.14.04-.54-.22-.5-.29.04-.06.23-.45.45-.47zm2.57 2.17c.18.02-.11.5-.22.57-.11.09-.26-.09-.22-.15s.26-.45.44-.42zm.51.73c.11.04 0 .36-.08.44-.08.07-.1.23-.16.15-.06-.09-.05-.3 0-.38s.13-.25.24-.2z"/><path d="m8.05 7.05c-.06.07-.13.38-.1.46.02.07.25.53.26.64s-.04.3-.08.42c-.04.11-.18.27-.19.53 0 .27.1.53.28.5.17-.01.3-.32.3-.4s-.11-.45-.11-.53.17-.18.17-.37c0-.18-.08-.2-.08-.29s-.07-.23-.06-.32c.02-.09.02-.55-.15-.64-.17-.1-.19-.07-.24 0zm5.73-1.02c.15.08.25.28.2.43-.03.15-.08.25-.1.36-.02.12.17.24.1.4-.05.15-.05.08-.1.27-.04.19.08.2-.1.46-.02.04-.03.08-.18.06-.15-.01-.12-.42-.12-.42s.27-.28.26-.37l-.08-.69s-.03-.57.12-.5zm-2.32-.53c.2.06.53.7.5.89s0 .72-.13.78c-.12.06-.14.14-.24.12s-.22 0-.37-.07c-.14-.08-.21-.7-.2-.82l.14-.74s.1-.21.3-.16zm.26-1.09c-.04.1-.03.45-.23.52s-.42-.14-.46-.3-.15-.45 0-.58c.14-.12.62 0 .7.09.06.08.04.18 0 .27zm-.22 7.83c-.07.1-.33.32-.44.29-.12-.04-.02-.22 0-.3.02-.07.36-.28.43-.24.08.04.07.13 0 .25zm-.75-.25c.16-.02.23.2.15.25-.08.03-.26.26-.4.19-.12-.08-.11-.28-.11-.28s.2-.14.36-.16zm2.07.44c.12 0 .27.34.26.38-.01.05.06.15-.05.16-.1 0-.3-.22-.34-.3-.03-.08.01-.24.13-.24zm-1.64.91c.22.04.46.21.38.29-.07.07-.2.36-.35.37-.16.01-.48-.27-.43-.37s.17-.33.4-.29zm-2.18-1.05c.2-.02.48.22.48.22s.17-.28.39-.27c.22 0 .46.26.35.35-.1.1-.2.14-.35.2-.15.07-.21.2-.4.17-.17-.02-.04-.24-.13-.25-.1-.02-.19.14-.34.12-.16-.02-.31-.1-.32-.24 0-.14.11-.28.32-.3z"/><path d="m10.3 12.9c-.13.08-.27.27-.4.25-.14-.01-.13 0-.15-.13-.03-.13.35-.45.47-.43.13.03.44.07.4.2-.05.1-.19.02-.32.1zm2.96-2.98c.08.1-.1.41-.18.41-.1 0-.13-.15-.14-.23 0-.08.24-.3.32-.18zm-1.07 1.61c.06.06.13.66.04.68-.1.03-.16-.17-.17-.23-.02-.05-.16-.1-.16-.22 0-.1.22-.3.29-.23z"/></g></svg>