<svg height="18" viewBox="0 0 18 18" width="18" xmlns="http://www.w3.org/2000/svg"><path d="m0 0h18v18h-18z" fill="#f0f3fa"/><path d="m9 12c3.87 0 7-1.34 7-3s-3.13-3-7-3-7 1.34-7 3 3.13 3 7 3zm0-.4c3.69 0 6.67-1.16 6.67-2.6s-2.98-2.6-6.67-2.6-6.67 1.16-6.67 2.6 2.98 2.6 6.67 2.6z" fill="#ee1c25" fill-rule="evenodd"/><path d="m4.09 7.57a.5.5 0 0 0 .49-.51.5.5 0 0 0 -.5-.51.5.5 0 0 0 -.48.5c0 .3.22.52.49.52zm.49.27v2.43c0 .28-.2.88-.87.9-.14 0-.5-.03-.83-.22v-.9c.22.17.73.38.75-.18v-2.03z" fill="#0072bb"/><path d="m8.68 7.36h-.95v2.9h.95v-.86l.4.85h1.1l-.6-1.05.6-1.05h-1.1l-.4.85z" fill="#ee1c25"/><path d="m11.2 7.03h-.95v3.23h.95v-1l.47 1h1.1l-.65-1.16.62-1.1h-1.1l-.44.94v-1.9z" fill="#0072bb"/><path d="m7.42 8h-.95v.27a.87.87 0 0 0 -.62-.27c-.53 0-.96.5-.96 1.13 0 .62.43 1.13.96 1.13.24 0 .45-.1.62-.27v.27h.95zm-.95 1.13c0 .2-.14.36-.31.36-.18 0-.32-.16-.32-.36s.14-.36.32-.36c.17 0 .31.16.31.36zm7.44-1.13c.34 0 .63.1.73.15v.71c-.12-.07-.41-.2-.57-.22-.16-.01-.21.05-.21.09-.02.03 0 .1.15.13.2.04.73.14.73.6 0 .45-.45.8-1.02.8-.46 0-.77-.12-.86-.18v-.74c.25.2.49.25.6.25.15 0 .26-.01.26-.1 0-.08-.06-.12-.14-.12-.25 0-.8-.07-.77-.6.04-.65.67-.77 1.1-.77z" fill="#00a652"/></svg>