<svg height="18" viewBox="0 0 18 18" width="18" xmlns="http://www.w3.org/2000/svg"><path d="m0 0h18v18h-18z" fill="#f0f3fa"/><path d="m9 5a1 1 0 1 0 0-2 1 1 0 0 0 0 2z" fill="#426693"/><path d="m9.97 5.02c-.04-.03-.1-.02-.13 0-.2.2-.5.36-.84.36a1.3 1.3 0 0 1 -.84-.36.11.11 0 0 0 -.13 0c-.03.02-.04.05 0 .09.21.2.46.39.8.4v9.36c0 .04.05.13.17.13s.17-.09.17-.13v-9.36c.34-.01.59-.2.8-.4.04-.03.03-.07 0-.1z" fill="#363636"/><path d="m7.48 5c-.38.34-.7.68-1 1.1-.17.21-.3.45-.38.7a2.01 2.01 0 0 0 .12 1.57c.35.73.92 1.26 1.47 1.78.36.34.72.68 1.01 1.06.44.54.7 1.16.73 1.83.03.45-.19.98-.5 1.96.49-.58 1.07-1.2 1.07-1.98 0-.8-.38-1.51-.83-2.13a9.88 9.88 0 0 0 -1.05-1.14 7.3 7.3 0 0 1 -1.07-1.1 2.2 2.2 0 0 1 -.48-1.31c0-.8.56-1.65.91-2.34z" fill="#c00000"/><path d="m10.52 5c.38.34.7.68 1 1.1.17.21.3.45.38.7a2.01 2.01 0 0 1 -.12 1.57c-.35.73-.92 1.26-1.47 1.78-.36.34-.72.68-1.01 1.06-.44.54-.7 1.16-.73 1.83-.03.45.19.98.5 1.96-.49-.58-1.07-1.2-1.07-1.98 0-.8.38-1.51.83-2.13.32-.42.68-.79 1.05-1.14.38-.34.77-.7 1.07-1.1s.49-.83.48-1.31c0-.8-.56-1.65-.91-2.34z" fill="#426693"/></svg>