<svg height="18" viewBox="0 0 18 18" width="18" xmlns="http://www.w3.org/2000/svg"><path d="m0 0h18v18h-18z" fill="#f0f3fa"/><path d="m6.83 6h-1.96c1.35-2.3 4.46-1.99 4.46-1.99 3.97.3 4.57 3.99 4.57 3.99h-8.45a3.66 3.66 0 0 0 .44 2.99h.01s.7 1.24 2.1 1.56v-2.55h1.03c-.56 0-1-.47-1-1 0-.52.44-1 1-1s1.01.42 1.01 1c0 .6-.44 1-1 1h.96v3.96s-.31.04-.8.04c-1.19 0-3.45-.35-4.84-3-.94-2.5.28-4.49.28-4.49h7.1c-2.4-2.37-4.9-.51-4.9-.51zm3.46 7.87v-1.44a3.36 3.36 0 0 0 2.27-2.43h1.44c-.75 3.45-3.7 3.87-3.7 3.87z" fill="#e20714"/></svg>