<svg height="18" width="18" xmlns="http://www.w3.org/2000/svg"><path d="m0 0h18v18h-18z" fill="#f6f8fd"/><path d="m11 4.358c2.02.829 3.019 2.75 3 4.748-.021 1.98-1.296 3.804-3.113 4.542-.994.404-1.846.437-2.884.215v-4.897c.007-.966 1.374-1.068 1.94-.57.403.353.377.945-.051 1.288-.683.546-1.312.18-1.637-.066v.617c-.002.079.028.12.09.145.769.316 1.536.227 2.176-.392.291-.28.48-.62.48-1.027v-4.603z" fill="#f7d045"/><path d="m7 11.18v2.479c-1.678-.62-2.562-2.038-2.9-3.692-.52-2.514 1.03-5.072 3.543-5.783.673-.19 1.582-.265 2.357-.061v3.464c-1.195-.757-3.017-.026-3 1.468z" fill="#7a2862"/></svg>