<svg height="18" viewBox="0 0 18 18" width="18" xmlns="http://www.w3.org/2000/svg"><path d="m0 0h18v18h-18z" fill="#f0f3fa"/><path d="m7 5a1 1 0 0 0 1-1c0-.56-.44-1-1-1a1 1 0 0 0 -1 1 1 1 0 0 0 1 1zm0 0h4.19c1.5 0 2.42.52 2.42 1.85 0 1.1-.87 1.67-1.6 1.77v.02c1.14.2 1.99.85 1.99 2.12 0 .92-.4 1.26-.96 1.66-.54.37-1.3.58-2.13.58h-2.91v-.6h.19c.68-.03.81-.04.81-1.17v-5.63h-.41c-.74 0-1 0-1 1.33v3.18c0 2.36-1.22 3.73-3.59 3.9v-.5c1.8-.44 2-2.02 2-3.76v-2.83c0-1.25-.13-1.26-.83-1.32h-.17v-.6zm5.48 5.89c0 1.27-.75 1.52-1.4 1.52h-.72v-3.88l.42.59c1.1 0 1.7.5 1.7 1.77zm-2.12-2.36v-2.94h.5c.6 0 1.24.28 1.24 1.45 0 1.03-.45 1.49-1.43 1.49z" fill="#c70b18" fill-rule="evenodd"/></svg>