<svg height="18" viewBox="0 0 18 18" width="18" xmlns="http://www.w3.org/2000/svg"><path d="m0 0h18v18h-18z" fill="#f0f3fa"/><path d="m6 12.84a5.4 5.4 0 0 1 3.2-4.82l.45-.02c1.84 0 3.5 1.02 3.33 2.9-.19 1.96-2.05 3.1-4.05 3.1-1.07 0-2.29-.28-2.94-1.16zm3.46-3.2c.76 0 1.13.58 1.07 1.24-.07.77-.57 1.53-1.46 1.53-.77 0-1.13-.6-1.07-1.27.08-.76.58-1.5 1.46-1.5z" fill="#243664" fill-rule="evenodd"/><path d="m5 10.47c0 .97.4 1.84.61 2.15-.5-4.6 4.14-6.11 4.45-6.11.24 0 .41.12.47.18.04-.62.2-2.02.47-2.69-1.78 1.35-5.07 2.34-5.57 2.42.14.19 1.01.25 1.9.09a5.5 5.5 0 0 0 -2.33 3.96z" fill="#e62129"/></svg>