<svg height="18" viewBox="0 0 18 18" width="18" xmlns="http://www.w3.org/2000/svg" xmlns:xlink="http://www.w3.org/1999/xlink"><linearGradient id="a" gradientUnits="userSpaceOnUse" x1="8.48" x2="13.27" y1="9.39" y2="6.81"><stop offset="0" stop-color="#694300"/><stop offset=".26" stop-color="#aa8935"/><stop offset=".63" stop-color="#fbf4aa"/><stop offset=".97" stop-color="#8c680d"/></linearGradient><linearGradient id="b" gradientUnits="userSpaceOnUse" x1="7.62" x2="14.42" y1="7.44" y2="11.34"><stop offset="0" stop-color="#efeadc"/><stop offset=".59" stop-color="#7d5801"/><stop offset="1" stop-color="#f5e1aa"/></linearGradient><linearGradient id="c" gradientUnits="userSpaceOnUse" x1="13.6" x2="7.79" y1="10.76" y2="14.54"><stop offset=".07" stop-color="#775100"/><stop offset=".42" stop-color="#fcf5a8"/><stop offset=".69" stop-color="#8c680d"/><stop offset=".81" stop-color="#694301"/></linearGradient><linearGradient id="d" gradientUnits="userSpaceOnUse" x1="14.2" x2="7.18" y1="11.83" y2="12.71"><stop offset="0" stop-color="#f5e1aa"/><stop offset=".41" stop-color="#7d5801"/><stop offset="1" stop-color="#e4dcc8"/></linearGradient><linearGradient id="e" gradientUnits="userSpaceOnUse" x1="6.23" x2="6.23" y1="3.75" y2="13.23"><stop offset=".18" stop-color="#906d21"/><stop offset=".55" stop-color="#fff9b8"/><stop offset="1" stop-color="#734c00"/></linearGradient><linearGradient id="f" gradientUnits="userSpaceOnUse" x1="6.23" x2="6.23" y1="3.75" y2="13.73"><stop offset="0" stop-color="#f0ebdd"/><stop offset=".54" stop-color="#6a4a08"/><stop offset=".88" stop-color="#fcfaf6"/><stop offset="1" stop-color="#b9a46f"/></linearGradient><path d="m0 0h18v18h-18z" fill="#f0f3fa"/><path d="m12.7 6c-1.72-2.41-3.1-2.82-3.9-2.82a2.87 2.87 0 0 0 -3 2.81c.56 3.53 4.49 4.19 6.26 4.13 1.42-.04 2.34 1.04 2.63 1.59.36-.98.18-2.7-1.98-5.72z" fill="url(#a)"/><path d="m5.96 5.97a4.28 4.28 0 0 0 2.58 3.27c1.25.58 2.65.73 3.52.7a3.1 3.1 0 0 1 2.57 1.35c.17-.95-.16-2.55-2.06-5.19-1.7-2.37-3.04-2.74-3.77-2.74a2.73 2.73 0 0 0 -2.84 2.61zm.31-1.8c.5-.66 1.3-1.17 2.53-1.17.86 0 2.29.45 4.04 2.89 2.17 3.01 2.4 4.8 2 5.88l-.13.36-.17-.33c-.27-.52-1.14-1.54-2.47-1.5a8.5 8.5 0 0 1 -3.66-.73 4.62 4.62 0 0 1 -2.78-3.55v-.02a3 3 0 0 1 .64-1.84z" fill="url(#b)"/><path d="m10.7 13.82c2.72-.03 3.79-1.4 3.99-2.08-1.29-2.22-3.22-1.42-4.94-1.89-.04.79-.94 1.13-1.39 1.2h-1.93a4.3 4.3 0 0 0 4.27 2.77z" fill="url(#c)"/><path d="m9.6 9.63.2.05a6.31 6.31 0 0 0 1.5.19c.37.01.75.03 1.1.1.45.06.89.2 1.3.45.41.26.8.65 1.13 1.22l.04.07-.02.08c-.23.78-1.38 2.18-4.15 2.2a4.47 4.47 0 0 1 -4.42-2.88l-.08-.23h2.15c.2-.04.51-.14.77-.31.26-.18.45-.42.46-.73zm.29.44c-.09.36-.33.62-.6.8-.3.2-.66.32-.9.36h-1.72c.4.92 1.62 2.43 4.03 2.4 2.56-.01 3.57-1.25 3.8-1.87-.3-.5-.62-.82-.97-1.03a3.05 3.05 0 0 0 -1.17-.42c-.35-.05-.7-.07-1.06-.09l-.24-.01a7.3 7.3 0 0 1 -1.17-.14z" fill="url(#d)"/><path d="m5.84 13.82h3.46a6.34 6.34 0 0 1 -3.45-5.31c-.22-2.58.58-4.25 1-4.76-.92.77-3.75 4.25-3.67 6.95a3.18 3.18 0 0 0 2.67 3.12z" fill="url(#e)"/><path d="m4.77 6.6c-.81 1.3-1.47 2.8-1.44 4.1.03 1.02.46 1.73.98 2.2.52.46 1.14.7 1.54.74h2.8a6.45 6.45 0 0 1 -2.97-5.11 8.62 8.62 0 0 1 .44-3.78c-.42.49-.9 1.13-1.35 1.85zm-.28-.2a13.28 13.28 0 0 1 2.25-2.8l.23.26c-.4.47-1.18 2.08-.96 4.62a6.16 6.16 0 0 0 3.35 5.17l1.2.34h-4.74a3.37 3.37 0 0 1 -2.82-3.29c-.04-1.4.67-3 1.5-4.3z" fill="url(#f)"/></svg>