<svg height="18" viewBox="0 0 18 18" width="18" xmlns="http://www.w3.org/2000/svg"><path d="m0 0h18v18h-18z" fill="#f0f3fa"/><path d="m14.3 9a5.3 5.3 0 1 1 -.82-2.82h.82a6 6 0 1 0 .66 2.11h-.71c.03.24.04.47.04.71zm-.73.35a4.59 4.59 0 1 1 -.95-3.17h.44a4.94 4.94 0 1 0 .83 2.11h-.36c.02.12.04.24.04.36h-3.69l1.24-2.47h-.5l-1.24 2.3-.06-.03 1.22-2.27h-.48l-1.06 1.76-1.06-1.76h-.37l1.28 2.27-.06.04-1.3-2.31h-.6l1.4 2.47h-2.11l.47.31h1.82v.08h-1.71l.48.31h.88l-1.24 2.47h.35l1.39-2.3.06.03-1.37 2.27h.63l1.06-2.11 1.06 2.11h.63l-1.37-2.27.06-.04 1.4 2.31h.34l-1.24-2.47h3.7zm.02-.31h-3.89v-.08h3.88v.08z" fill="#a70306"/></svg>