<svg height="18" viewBox="0 0 18 18" width="18" xmlns="http://www.w3.org/2000/svg" xmlns:xlink="http://www.w3.org/1999/xlink"><linearGradient id="a" gradientUnits="userSpaceOnUse" x1="3.56" x2="12.5" y1="11.69" y2="11.69"><stop offset="0" stop-color="#008e4a"/><stop offset=".2" stop-color="#00c049"/><stop offset="1" stop-color="#00e459"/></linearGradient><path d="m0 0h18v18h-18z" fill="#f0f3fa"/><path d="m4.52 6.35c.32-.2.59-.11.75.02l-2.27 4.63 2.6-.24-1.91-.15 2.05-.13-1.9-.16 2.04-.11-1.85-.14 2-.1-1.94-.14 2.08-.14-2-.12 2.16-.2-2.03-.1 2.08-.2-1.95-.11 1.93-.16 1.2 2.91h-2.53l-.32.29h2.89l1.46-3.29c-.34-.59-.98-1.83-1.15-2.2-.16-.38-.38-.5-.47-.51h-2.37c-.28 0-.48.23-.55.35zm1.73 2.19.1.22-1.7-.09zm-.11-.29.09.22-1.58-.08zm-.09-.2.06.13-1.23-.05 1.17-.09zm-.13-.34.08.21-1-.09.93-.12zm-.1-.25.05.13-.78-.05zm-.12-.26.05.14-.64-.08zm-.12-.27.05.12-.49-.06zm-.32-.2.25.02-.04-.09-.21.06zm2.54 5.27 2.62-6h5.58l-4.56.23 4.1.13-3.94.2 3.88.12-4.44.19 3.92.13-3.92.13 3.64.15-3.94.23 3.94.08-3.94.2 3.37.09-3.32.14 3.05.17-3.26.3h3l-3.22.15 2.95.14-3.46.2 3.26.07-3.26.24 2.91.1-3 .19 2.64.13-2.9.22 2.56.1-2.85.21 2.57.07-2.76.21 2.58.05-2.52.24 2.28.07-2.46.29 2.07.04-2.25.17 2.02.1-2.28.23 2.18.09z" fill="url(#a)" fill-rule="evenodd"/></svg>