<svg height="18" viewBox="0 0 18 18" width="18" xmlns="http://www.w3.org/2000/svg"><path d="m0 0h18v18h-18z" fill="#f0f3fa"/><path d="m3.75 10.76c.95 1.64 2.3 2.94 4.05 3.89.33.18.95.43 1.36.33.28-.08.57-.19.87-.33a9.43 9.43 0 0 0 2.23-1.48c.81-.74 3.16-3.34 2.68-4.64-.87-2.31-2.57-3.89-4.72-5.09a4.83 4.83 0 0 0 -.95-.41c-.36-.11-.81.1-1.16.28l-.1.05a8.64 8.64 0 0 0 -3.05 2.29c-.73.9-1.34 1.83-1.82 2.78-.37.73.07 1.44.45 2.07zm5.47 3.89 5.4-5.34a.37.37 0 0 0 0-.53l-5.26-5.31a.36.36 0 0 0 -.5 0l-5.46 5.29a.37.37 0 0 0 -.08.41l.08.13 5.3 5.33a.36.36 0 0 0 .52 0z" fill="#004ea2" fill-rule="evenodd"/><path d="m11.8 9.14a3.03 3.03 0 0 0 -.65-3.26 2.94 2.94 0 0 0 -4.18 0 3.02 3.02 0 0 0 0 4.23 2.94 2.94 0 0 0 4.82-.97zm-.21-.08a2.8 2.8 0 0 0 -.6-3.02 2.72 2.72 0 0 0 -3.86 0 2.79 2.79 0 0 0 0 3.92 2.72 2.72 0 0 0 4.46-.9z" fill="#004ea2" fill-rule="evenodd"/><path d="m9.04 10.09a2.1 2.1 0 0 0 2.08-2.11 2.1 2.1 0 0 0 -2.08-2.11 2.1 2.1 0 0 0 -2.08 2.1c0 1.17.93 2.12 2.08 2.12z" fill="#e60012"/><g fill="#004ea2"><path d="m9.74 12.53a.97.97 0 0 1 -.53.5c-.05.02-.1 0-.14-.04a.07.07 0 0 1 -.02-.04.1.1 0 0 1 .07-.1c.24-.1.4-.27.5-.49.01-.04 0-.06-.04-.06h-.41l-.05-.01a.09.09 0 0 1 -.03-.04.1.1 0 0 1 -.01-.06c0-.06.03-.09.09-.09h.44l.03-.01.02-.03v-.17c0-.03-.02-.05-.06-.05h-.36l-.04-.02a.07.07 0 0 1 -.02-.04v-.02a.1.1 0 0 1 .01-.08.1.1 0 0 1 .08-.04h.99c.04 0 .07.03.07.07v.03c0 .07-.02.1-.08.1h-.37c-.02 0-.03 0-.03.03v.2c0 .02 0 .03.03.03h.48a.08.08 0 0 1 .06.03.08.08 0 0 1 .02.06v.05c-.01.04-.04.06-.08.06h-.42c-.04 0-.05.02-.03.06.12.21.3.38.54.5a.08.08 0 0 1 .05.07c0 .03-.01.07-.03.09-.03.03-.06.03-.1.02a1.32 1.32 0 0 1 -.58-.51c-.02-.04-.03-.04-.05 0z"/><path d="m7.9 12.56h-.33c-.1 0-.16-.06-.16-.17v-.42c0-.11.06-.17.17-.17h.31l.04-.01a.06.06 0 0 0 .02-.04l.02-.12c0-.03.02-.05.05-.04h.04l.05.02.01.05v.1c0 .03.03.05.06.05h.35c.11 0 .17.05.17.17v.4c0 .12-.06.17-.17.17h-.35c-.04 0-.05.02-.05.06v.35a.07.07 0 0 1 -.02.05.07.07 0 0 1 -.05.02h-.06c-.04 0-.06-.02-.06-.06v-.36c0-.03-.01-.05-.05-.05zm0-.58h-.26a.05.05 0 0 0 -.05.05v.3c0 .02.02.04.05.04h.27c.02 0 .04-.02.04-.04v-.3a.05.05 0 0 0 -.04-.05zm.27.01h.28c.03 0 .04.02.04.04v.3c0 .03-.01.05-.04.05h-.28a.04.04 0 0 1 -.04-.05v-.3c0-.02.02-.04.04-.04z" fill-rule="evenodd"/></g></svg>