<svg height="18" viewBox="0 0 18 18" width="18" xmlns="http://www.w3.org/2000/svg" xmlns:xlink="http://www.w3.org/1999/xlink"><linearGradient id="a" gradientUnits="userSpaceOnUse" x1="3.35" x2="21.9" y1="3.12" y2="24.43"><stop offset="0" stop-color="#1a1e21"/><stop offset="1" stop-color="#06060a"/></linearGradient><linearGradient id="b" gradientUnits="userSpaceOnUse" x1="6.34" x2="14" y1="5.88" y2="7.75"><stop offset="0" stop-color="#0170b3"/><stop offset=".15" stop-color="#006ca0"/><stop offset=".44" stop-color="#0d9fa3"/><stop offset="1" stop-color="#67bb6e"/></linearGradient><linearGradient id="c" gradientUnits="userSpaceOnUse" x1="6.34" x2="14" y1="5.88" y2="7.75"><stop offset=".15" stop-color="#006ca0"/><stop offset=".44" stop-color="#0d9fa3"/><stop offset="1" stop-color="#67bb6e"/></linearGradient><linearGradient id="d" gradientUnits="userSpaceOnUse" x1="8.55" x2="12.18" y1="4.23" y2="5.14"><stop offset="0" stop-color="#d6e49a"/><stop offset=".39" stop-color="#95c72a"/><stop offset="1" stop-color="#76bc4c"/></linearGradient><linearGradient id="e" gradientUnits="userSpaceOnUse" x1="5.14" x2="10.88" y1="11.95" y2="9.16"><stop offset="0" stop-color="#0197d1"/><stop offset=".69" stop-color="#0170b3"/><stop offset="1" stop-color="#014c99"/></linearGradient><path d="m0 0h18v18h-18z" fill="url(#a)"/><path d="m14 8.97c0-.81-.2-1.57-.55-2.25-.66.07-1.54.03-2.63-.22a12.79 12.79 0 0 1 -4.22-1.9c-.35.2-.68.43-.97.7 1.1 1.17 2.73 2.7 3.82 3.25-1.1-.55-2.73-2.07-3.81-3.25a5.02 5.02 0 0 0 2.23-1.17 6.88 6.88 0 0 0 2.95 1.69 8 8 0 0 0 2.27.3 5 5 0 0 0 .91 2.85zm-9.94-.73c1.18 1.24 3.57 3.03 5.62 3.03 1.9 0 3.2-.43 4.14-.97a5 5 0 0 1 -.35.93c-1 .42-2.34.72-4.02.72-2.24 0-4.22-1.58-5.45-2.73a5.09 5.09 0 0 1 .06-.98z" fill="#f0f3fa"/><path d="m5.64 5.3c.7 1.51 2.64 2.8 3.83 3.39.94.47 1.96.31 2.19.31h2.34c0-.82-.2-1.6-.55-2.28-.66.07-1.54.03-2.63-.22a12.79 12.79 0 0 1 -4.22-1.9c-.35.2-.68.43-.97.7z" fill="url(#b)"/><path d="m10.82 5.82a6.88 6.88 0 0 1 -2.96-1.69 5.02 5.02 0 0 1 5.23 1.99 8 8 0 0 1 -2.27-.3z" fill="url(#c)"/><path d="m12.32 5.27a4.98 4.98 0 0 0 -4.46-1.14l1.87.33c.57.11 1.63.47 2.6.8z" fill="url(#d)"/><g fill="url(#e)"><path d="m5.72 5.25c1.08 1.18 2.5 2.58 3.6 3.13.9.45 1.87.62 2.5.62h2.18c0 .37-.05.88-.16 1.3-.94.54-2.27.97-4.16.97-2.05 0-4.44-1.8-5.63-3.04.18-1.15.73-2.2 1.67-2.98z"/><path d="m9.45 11.95c1.68 0 3.04-.3 4.04-.73a5 5 0 0 1 -9.49-2c1.23 1.15 3.21 2.73 5.45 2.73z"/></g></svg>