<svg height="18" viewBox="0 0 18 18" width="18" xmlns="http://www.w3.org/2000/svg"><path d="m0 0h18v18h-18z" fill="#f0f3fa"/><path d="m5.31 12.34 7.4-6.95a5.2 5.2 0 0 0 -3.57-1.39 5.08 5.08 0 0 0 -5.14 5c0 1.29.5 2.45 1.31 3.34z" fill="#c7010b"/><path d="m7.54 14h-3.54l8.81-8.3zm3.86 0h-3.5l5.03-8-1.51 8z" fill="#043477"/><g fill="#c7010b"><path d="m12.52 12.34.17.52h.54l-.44.32.17.52-.44-.32-.43.32.16-.52-.43-.32h.54zm.93-1.01.16.52h.54l-.44.32.17.52-.44-.32-.43.32.17-.52-.44-.32h.54z"/><path d="m14 10.1.17.53h.54l-.44.32.17.52-.43-.32-.44.32.17-.52-.44-.32h.54l.17-.52z"/><path d="m14.26 8.8.17.51h.53l-.43.33.16.52-.43-.33-.44.33.17-.52-.44-.33h.54l.17-.52z"/><path d="m14.19 7.47.16.52h.54l-.43.32.16.52-.43-.32-.44.32.17-.52-.44-.32h.54zm-.53-1.3.16.53h.54l-.43.32.16.52-.43-.32-.44.32.17-.52-.44-.32h.54z"/></g></svg>