<svg height="18" viewBox="0 0 18 18" width="18" xmlns="http://www.w3.org/2000/svg"><path d="m0 0h18v18h-18z" fill="#f0f3fa"/><path d="m6 4h6.86c.68 0 1.22.66 1.13 1.4l-.86 7.5c-.07.63-.56 1.1-1.13 1.1h-6.85c-.7 0-1.23-.66-1.14-1.4l.86-7.5c.07-.64.56-1.1 1.13-1.1zm4.17 1c-2.11 0-3.77 1.87-4.11 4-.04.27-.06.54-.06.8 0 1.8 1.2 3.2 2.94 3.2s3.24-1.49 3.8-3.2l.26-1.37h-3.77l-.18 1.14h2.36c-.34 1.04-1.12 2.02-2.2 2.02-1.1 0-1.78-.87-1.78-2.02 0-.23.01-.38.05-.56.2-1.34 1.12-2.56 2.48-2.56.73 0 1.24.18 1.45.84h1.59c-.2-1.55-1.4-2.29-2.83-2.29z" fill="#0077cb"/></svg>