<svg height="18" viewBox="0 0 18 18" width="18" xmlns="http://www.w3.org/2000/svg"><path d="m0 0h18v18h-18z" fill="#f0f3fa"/><path d="m10.38 4c-2 0-3.71 2.66-4.38 4 .42-.65 1.35-1.5 2.2-1.5.87 0 1.09.5 1.1.94.75-.49 2.3-1.57 2.7-1.85-.13-.77-.6-1.59-1.62-1.59zm-5.38 7.32c-.01.9.33 2.68 1.83 2.68 1.88 0 4.44-2.67 5.08-5.65.43-.39 1.09-.97 1.09-1.8 0-.35-.17-.55-.46-.55-.22 0-.56.2-.88.4-.25.16-3.1 1.96-4.67 2.9v1.75l.85-.57.08.1 1.08-.52c-.4.9-1.7 2.56-2.88 2.56-.67 0-.92-.72-1.08-1.18z" fill="#da251c"/></svg>