<svg height="18" viewBox="0 0 18 18" width="18" xmlns="http://www.w3.org/2000/svg" xmlns:xlink="http://www.w3.org/1999/xlink"><linearGradient id="a"><stop offset="0" stop-color="#0b2978"/><stop offset="1" stop-color="#028ad3"/></linearGradient><linearGradient id="b" gradientUnits="userSpaceOnUse" x1="4.6" x2="9" xlink:href="#a" y1="9.8" y2="9.8"/><linearGradient id="c"><stop offset="0" stop-color="#0352ab"/><stop offset="1" stop-color="#7cc9f3"/></linearGradient><linearGradient id="d" gradientUnits="userSpaceOnUse" x1="11" x2="2.6" xlink:href="#c" y1="4" y2="7.9"/><linearGradient id="e" gradientUnits="userSpaceOnUse" x1="13.4" x2="9" xlink:href="#a" y1="8.19" y2="8.19"/><linearGradient id="f" gradientUnits="userSpaceOnUse" x1="7" x2="15.4" xlink:href="#c" y1="14" y2="10.1"/><path d="m0 0h18v18h-18z" fill="#f0f3fa"/><path d="m6.53 11.8-1.88-1.52-.39-.98 2.72-2.17c.19-.17.37-.31.52-.4l-.52.4c-.46.42-.95 1.03-.95 1.62 0 1.6 1.98 1.96 2.97 1.95l-1.38 1.1a.85.85 0 0 1 -1.09 0z" fill="url(#b)"/><path d="m9.01 4h1.99l-5.9 4.77c-.39.31-.53.89-.34 1.38l.12.32-1.67-1.4a.62.62 0 0 1 0-.91l4.53-3.7c.36-.29.82-.46 1.26-.46z" fill="url(#d)"/><circle cx="9" cy="9" fill="#9b0200" r="1"/><circle cx="9" cy="9" fill="#e80015" r=".67"/><path d="m11.47 6.2 1.88 1.52.39.98-2.72 2.17c-.19.17-.37.31-.52.4l.52-.4c.46-.42.95-1.03.95-1.62 0-1.6-1.98-1.96-2.97-1.94l1.38-1.11a.85.85 0 0 1 1.09 0z" fill="url(#e)"/><path d="m8.99 14h-1.99l5.9-4.77c.39-.31.53-.89.34-1.38l-.12-.32 1.67 1.4c.28.22.28.69 0 .91l-4.53 3.7c-.37.3-.82.46-1.27.46z" fill="url(#f)"/></svg>