<svg height="18" viewBox="0 0 18 18" width="18" xmlns="http://www.w3.org/2000/svg"><path d="m0 0h18v18h-18z" fill="#f0f3fa"/><g fill="#d6010e"><path d="m12 8.33-2 1.99c-.04.04-.08.04-.13 0l-.6-.6c-.03-.03-.03-.07.01-.11l2.53-2.5c.03-.02.03-.04 0-.06l-1.91-1.89-1.57-1.54c-.04-.04-.04-.08 0-.11l.07-.07c.24-.25.44-.4.58-.43.03-.02.07-.01.1.01.15.1.3.21.45.36l3.72 3.66c.02.03.02.05 0 .07z"/><path d="m9.66 5.37 1.72 1.7c.02.02.02.03 0 .05l-.68.64c-.01.02-.03.02-.04 0l-.96-.92-2.31-2.26c-.06-.05-.06-.11 0-.17l.56-.53c.06-.06.12-.06.17 0l1.54 1.5zm-.34 1.56 1.04 1.02c.06.06.05.11 0 .16l-.57.56c-.05.04-.1.04-.15 0l-2.5-2.47c-.04-.03-.07-.03-.1 0l-3.47 3.4c-.01.03-.04.03-.06.02a.95.95 0 0 1 -.51-.68c.02-.15.07-.26.13-.32l3.86-3.8c.06-.05.12-.05.18 0z"/><path d="m7.06 6.64-3.27 3.2a.07.07 0 0 0 0 .1l.63.63c.03.02.07.02.1 0l3.26-3.21a.07.07 0 0 0 0-.1l-.63-.62a.07.07 0 0 0 -.1 0zm7.13 1.33v.07a2751.73 2751.73 0 0 1 -3.23 3.21c-.04.05-.08.05-.13 0l-.59-.57c-.05-.05-.05-.1 0-.14l1.96-1.95 1.22-1.2c.06-.06.12-.06.18 0zm-4.52 6.45-.65.56c-.04.03-.08.03-.11 0l-4.15-4.08c-.04-.04-.04-.08 0-.11l3.24-3.2c.04-.03.08-.03.11 0l.6.6c.04.04.04.08 0 .11l-2.51 2.47c-.04.04-.04.08 0 .12l3.47 3.41c.04.05.04.09 0 .12z"/><path d="m10.95 11.73 3.42-3.36c.07-.07.13-.07.2 0 .13.1.24.22.33.34.15.21.13.4-.05.58l-3.87 3.82c-.05.05-.1.05-.15 0l-3.23-3.18c-.04-.04-.04-.07 0-.1l.62-.6c.04-.04.07-.03.1 0l2.55 2.5c.03.03.06.03.08 0zm-.35 1.6-3.2-3.15a.11.11 0 0 0 -.16 0l-.57.57a.1.1 0 0 0 0 .15l3.2 3.16c.05.04.12.04.16 0l.57-.58a.1.1 0 0 0 0-.15z"/></g></svg>