<svg height="18" viewBox="0 0 18 18" width="18" xmlns="http://www.w3.org/2000/svg" xmlns:xlink="http://www.w3.org/1999/xlink"><linearGradient id="a" gradientUnits="userSpaceOnUse" x1="13" x2="7.93" y1="8.32" y2="8.32"><stop offset="0" stop-color="#8fc03e"/><stop offset="1" stop-color="#187738"/></linearGradient><linearGradient id="b" gradientUnits="userSpaceOnUse" x1="5" x2="12.09" y1="11.33" y2="11.33"><stop offset="0" stop-color="#822019"/><stop offset="1" stop-color="#dc4323"/></linearGradient><linearGradient id="c" gradientUnits="userSpaceOnUse" x1="6.43" x2="13" y1="4.96" y2="4.96"><stop offset="0" stop-color="#559643"/><stop offset=".6" stop-color="#133525"/></linearGradient><path d="m0 0h18v18h-18z" fill="#f0f3fa"/><path d="m8 9.9v.83c0 .75.61 1.38 1.35 1.26 2.6-.43 3.5-2.06 3.65-2.94v-2.3c-.15.19-.4.57-.68 1.1-.2.36-1.66.6-2.93.64-.76.03-1.39.64-1.39 1.41z" fill="url(#a)"/><path d="m10 8.1v-.85c0-.75-.61-1.37-1.35-1.25-2.6.43-3.5 2.06-3.65 2.94v2.3c.15-.19.6-.74.88-1.26.2-.36 1.46-.45 2.73-.49.76-.02 1.39-.63 1.39-1.4z" fill="#ce011b"/><path d="m12 13.5v-1.17a.53.53 0 0 0 -.52-.52c-4.22-.09-5.44-1.26-5.6-1.86-.25.09-.88.5-.88 1.25 0 2 4 2.68 6.47 2.8a.5.5 0 0 0 .53-.5z" fill="url(#b)"/><path d="m7 4.5v1.17c0 .28.22.51.49.52 3.93.09 4.54 1.19 4.7 1.78.23-.09.81-.44.81-1.18 0-2-3.22-2.67-5.5-2.79-.28-.01-.5.22-.5.5z" fill="url(#c)"/></svg>