<svg height="18" viewBox="0 0 18 18" width="18" xmlns="http://www.w3.org/2000/svg" xmlns:xlink="http://www.w3.org/1999/xlink"><linearGradient id="a"><stop offset="0" stop-color="#ed9100"/><stop offset=".66" stop-color="#fff100"/></linearGradient><linearGradient id="b" gradientUnits="userSpaceOnUse" x1="5.89" x2="5.89" xlink:href="#a" y1="4.72" y2="9.62"/><linearGradient id="c" gradientUnits="userSpaceOnUse" x1="12.11" x2="12.11" xlink:href="#a" y1="4.72" y2="9.62"/><linearGradient id="d"><stop offset="0" stop-color="#e5a80b"/><stop offset=".3" stop-color="#fff100"/></linearGradient><linearGradient id="e" gradientUnits="userSpaceOnUse" x1="7.64" x2="7.64" xlink:href="#d" y1="4" y2="10"/><linearGradient id="f" gradientUnits="userSpaceOnUse" x1="10.43" x2="10.43" xlink:href="#d" y1="4" y2="10"/><path d="m0 0h18v18h-18z" fill="#f0f3fa"/><path d="m4 11.14v-3.8l2.92 3.3h4.27l2.81-3.3v3.8l-2.81 2.86h-4.27z" fill="#008437"/><path d="m6.92 9.62-2.92-2.66 2.19-2.24 1.6 4.9-2.1-3.33z" fill="url(#b)"/><path d="m11.08 9.62 2.92-2.66-2.19-2.24-1.6 4.9 2.1-3.33z" fill="url(#c)"/><path d="m8.57 10-2.17-5.49.56-.51h1.92z" fill="url(#e)"/><path d="m9.5 10 2.16-5.49-.55-.51h-1.91l.31 6z" fill="url(#f)"/></svg>