<svg height="18" viewBox="0 0 18 18" width="18" xmlns="http://www.w3.org/2000/svg"><path d="m0 0h18v18h-18z" fill="#f0f3fa"/><path d="m6.5 13a3.5 3.5 0 1 0 0-7 3.5 3.5 0 0 0 0 7zm0-1a2.5 2.5 0 1 0 0-5 2.5 2.5 0 0 0 0 5z" fill="#028b94" fill-rule="evenodd"/><path d="m4.92 6.38a3.5 3.5 0 0 0 0 6.24 3.23 3.23 0 0 0 3.93-2.27 2.5 2.5 0 1 1 0-1.7 3.23 3.23 0 0 0 -3.93-2.27z" fill="#a7cd4f"/><path d="m11.5 13a3.5 3.5 0 1 0 0-7 3.5 3.5 0 0 0 0 7zm0-1a2.5 2.5 0 1 0 0-5 2.5 2.5 0 0 0 0 5z" fill="#a7cd4f" fill-rule="evenodd"/><g fill="#028b94"><path d="m9.92 6.38a3.5 3.5 0 0 0 0 6.24 3.23 3.23 0 0 0 3.93-2.27 2.5 2.5 0 1 1 0-1.7 3.23 3.23 0 0 0 -3.93-2.27z"/><circle cx="9" cy="5" r="1"/></g></svg>