<svg height="18" viewBox="0 0 18 18" width="18" xmlns="http://www.w3.org/2000/svg"><path d="m0 0h18v18h-18z" fill="#f0f3fa"/><path d="m3 10h12v1h-12z" fill="#a2a300"/><path d="m15 5h-12v5h12zm-8.1.38h.33v3.59c.02.31-.13.93-.92.88l-.06-.26c.22.06.66.01.66-.62v-3.59zm2.9 3.88c1.08 0 1.96-.87 1.96-1.94s-.88-1.94-1.96-1.94-1.96.87-1.96 1.94.88 1.94 1.96 1.94zm0-.28a1.66 1.66 0 1 0 0-3.32 1.66 1.66 0 0 0 0 3.32zm0-3.04-.16 1.07-.56-.41.44.56-1.13.15 1.13.16-.44.55.56-.42.16 1.1.15-1.1.54.42-.4-.55 1.1-.16-1.1-.15.42-.56-.56.43z" fill="#7f7569" fill-rule="evenodd"/><path d="m3 11h12v2h-12z" fill="#8e9fa6"/></svg>