<svg height="18" width="18" xmlns="http://www.w3.org/2000/svg"><path d="m0 0h18v18h-18z" fill="#cc2128"/><path d="m9.12 12.15a4.1 4.1 0 0 0 1.09-1.92c-.22.37-.54.78-1.1 1.1v.82zm0-.82c-.54.3-1.29.69-2.36.67h-2.48l-.28 1h2.7a3.2 3.2 0 0 0 2.42-.85" fill="#fff"/><path d="m9 11.17c.6-.28 1.02-.69 1.17-1.2l.45-1.62s.13-.85.91-.85h1.86l.27-1h-2.12c-1.06 0-1.91.04-2.54.5zm0-4.16c-.48.34-.84.89-1.12 1.72l-.3 1.1c-.23.58-.68.64-1 .67h-1.93l-.29 1h2.34c.9.02 1.7-.04 2.31-.33" fill="#fff"/><path d="m11.53 6h2.2l.27-1h-2.51c-2.74.02-3.3 2.14-3.39 2.46l-.21.75c.71-1.3 1.29-2.26 3.64-2.21z" fill="#7c7a7a"/></svg>