<svg height="18" viewBox="0 0 18 18" width="18" xmlns="http://www.w3.org/2000/svg" xmlns:xlink="http://www.w3.org/1999/xlink"><linearGradient id="a" gradientUnits="userSpaceOnUse" x1="8.86" x2="8.86" y1="4.61" y2="13.34"><stop offset="0" stop-color="#898b97"/><stop offset="1" stop-color="#ede4dd"/></linearGradient><linearGradient id="b" gradientUnits="userSpaceOnUse" x1="7.65" x2="10.19" y1="9.81" y2="10.75"><stop offset="0" stop-color="#02abd2"/><stop offset="1" stop-color="#007ab9"/></linearGradient><path d="m0 0h18v18h-18z" fill="#f0f3fa"/><path d="m12.66 11.67a4.7 4.7 0 1 0 -7.32 0z" fill="url(#a)"/><g fill="#0078b7"><rect height=".6" rx=".3" width="1.76" x="6.24" y="10.67"/><rect height=".6" rx=".3" width="1.7" x="9.97" y="10.67"/><rect height=".67" rx=".33" width="4.2" x="9.79" y="11.67"/><rect height=".67" rx=".33" width="4.2" x="4.03" y="11.67"/><path d="m9.13 12.24c-3.09-.05-5.37.65-6.13 1 2.64-.28 4.34-.06 4.86.09-.07 0-.29.05-.55.16-.26.1-.05.2.1.25 1.4.26 3.35.28 4.15.25-.06-.04-1.3-.3-1.91-.41.45-.07 2.13.08 2.92.16.12.02.37.03.42-.08.05-.1-.16-.2-.27-.25-1.2-.31-4-.53-5.24-.6 2.34-.15 5.67.41 6.37.5.7.08 1.07.07 1.14-.15.06-.17-.17-.3-.3-.36-.56-.17-2.47-.52-5.56-.56z"/><path d="m7.65 12.34.21-5.93a.53.53 0 0 1 -.35-.29v-.62l.3-.14v-.09c-.2-.1-.38-.34.33-.54v-.47c.03-.18.16-.56.53-.62 0-.06.04-.19.16-.21v-.43h.11v.43c.13.02.17.15.17.2.38.07.53.45.55.63v.47c.76.2.56.44.36.54v.1l.31.13v.62c-.07.19-.28.27-.37.3l.23 5.92z"/></g><path d="m8.9 4.92c-.84.02-1.03.38-1.02.56.85-.48 1.75-.2 2.1 0 0-.07-.02-.59-1.08-.56z" fill="#f0f3fa"/><path d="m8.65 7.8c.67-.84 1.18-.53 1.35-.28l.18 4.84h-2.53l.08-2.36c.03-.37.25-1.34.92-2.19z" fill="url(#b)"/><path d="m8.67 8.67h.45v1h-.45z" fill="#f0f3fa"/></svg>