<svg height="18" viewBox="0 0 18 18" width="18" xmlns="http://www.w3.org/2000/svg"><path d="m0 0h18v18h-18z" fill="#0096db"/><path d="m5 6h-1s-.03 2.79 0 4.13v.12c.02.3.05.74-.66.74-.8 0-1.23-.21-1.34-.32v.93c.2.12.79.38 1.48.38 1.88 0 1.58-1.45 1.53-1.72l-.01-.06zm3.02 6-2.02-6h1.24l1.54 4.94 1.55-4.94h1.27l-1.83 5.4a.85.85 0 0 1 -.79.6zm6.32-6c.58 0 1.14.05 1.66.14v1.16a4.2 4.2 0 0 0 -1.81-.41c-1.21 0-2.19.94-2.19 2.11s.98 2.11 2.19 2.11c.7 0 1.31-.13 1.81-.36v1.12c-.52.08-1.08.13-1.66.13-2.28-0-3.34-1.34-3.34-3s1.16-3 3.34-3z" fill="#fff"/></svg>