<svg height="18" viewBox="0 0 18 18" width="18" xmlns="http://www.w3.org/2000/svg"><path d="m0 0h18v18h-18z" fill="#1d3637"/><path d="m10 6.5v5h-.5v-5zm-5.93 4.5c.73 0 1.38-.37 1.74-.93.65-.05.95-.63 1.03-.94.87 0 1.17-.6 1.21-.9.88-.4 1-.98.94-1.23h-4.92c-1.14 0-2.07.9-2.07 2s.93 2 2.07 2zm11.61-2.85-.03-.15-.88.64v.04c-.04.11-.15.34-.31.6-.26.74-.98 2.22-1.73 2.22-.72 0-.62-.7-.47-1.09 0-.1 0-.2.02-.3a.57.57 0 0 1 -.28-.31c-.4-.01-.93-.36-1.15-.53l.85-.02a3.88 3.88 0 0 0 -.1-.1 3.09 3.09 0 0 1 -1.2-.68 12 12 0 0 0 2.3-.06c.35-1.35 1.18-1.91 1.52-1.91s.66.17.66.65c0 .3-.22.52-.4.65l.45-.2.35-.09c.3-.14.6-.16.72-.15-.13.17-.26.6-.32.79zm-2.71.22c.4-.1.76-.2.97-.32l.4-.19c.15-.44.3-1.23-.24-1.06-.56.16-.99 1.11-1.13 1.57z" fill="#d3b297"/></svg>