<svg height="18" viewBox="0 0 18 18" width="18" xmlns="http://www.w3.org/2000/svg"><path d="m0 0h18v18h-18z" fill="#f0f3fa"/><path d="m7.19 11.25h.38v-2.7h-.38zm-1.23-3.75h.39v-.5h-.39zm0 3.75h.39v-2.7h-.38v2.7zm-1.21 0h.37v-2.7h-.37zm3.4-3.75c.2 0 .35.22.34.44l.01 2.04v1.56c.01.24-.3.48-.5.46h-3.8c-.2.01-.37-.22-.36-.46l-.01-3.34v-.24c-.01-.22.12-.44.31-.45h.98v-.48h-.72l-.85-.03c-.01.04-.08.08-.16.12-.09.05-.18.1-.18.16v4.72h-.9v-3.03c-.08.1-.11.18-.15.26-.04.1-.07.18-.16.27a178.54 178.54 0 0 0 0-1.74c.34-.53.63-1.12.78-1.76a1609.75 1609.75 0 0 0 5.71 0v1h-1.29v.5a25.65 25.65 0 0 0 .97 0zm5.78 1.24c-.4.24-.84.45-1.28.6h2.47a4.62 4.62 0 0 1 -1.19-.6zm-.82 2.51h1.42v-1.08h-1.43v1.08zm-1.56-2.97.3.3c.41-.13.84-.26 1.23-.49l-.38-.38a4 4 0 0 1 -.59.45l-.1-.14-.23-.29v.27h-.5c.1.08.18.18.27.28zm2.33-.68c.2-.17.41-.38.59-.6h-1.18c.17.22.38.43.59.6zm1.95 1.93c-.15-.04-.3-.07-.44-.12.08.1.14.22.13.36v1.77c0 .23-.15.47-.35.46h-2.7c-.2.01-.48-.22-.47-.46v-1.98a.9.9 0 0 0 -.19.1c-.06.03-.12.07-.22.09a.87.87 0 0 1 -.16-.15.97.97 0 0 0 -.14-.13v2.53h-1.29v-2.24c-.1.15-.16.29-.23.42-.13.26-.24.5-.48.7v-1.36c.27-.33.42-.73.57-1.15l.14-.37a41.27 41.27 0 0 0 -.7 0v-1a40.88 40.88 0 0 1 .7 0 286.36 286.36 0 0 0 0-1h1.29v1h.5c.43-.24.82-.56 1.12-1h1.18l-.18.24a127.72 127.72 0 0 0 1.24 0l.3.33.26.27c-.07.15-.15.29-.25.41-.23.3-.48.6-.76.84.4.27.85.41 1.3.51v.98z" fill="#2a3487"/></svg>