<svg height="18" viewBox="0 0 18 18" width="18" xmlns="http://www.w3.org/2000/svg"><path d="m0 0h18v18h-18z" fill="#f0f3fa"/><circle cx="9" cy="9" fill="#282828" r="1"/><rect fill="#fa374b" height="3.53" rx=".5" width="1.01" x="8.5" y="3"/><rect fill="#006efa" height="3.53" rx=".5" width="1.01" x="8.5" y="11.47"/><rect fill="#b4dc00" height="3.53" rx=".5" transform="matrix(0 -1 1 0 -6.5 12.5)" width="1.01" x="3" y="9.5"/><rect fill="#00a078" height="3.53" rx=".5" transform="matrix(0 -1 1 0 1.97 20.97)" width="1.01" x="11.47" y="9.5"/><path d="m4.76 5.5a.5.5 0 0 1 .71-.72l1.71 1.7a.5.5 0 0 1 -.71.72l-1.7-1.7z" fill="#ffcd00"/><path d="m4.75 12.5a.5.5 0 0 0 .71.72l1.71-1.7a.5.5 0 0 0 -.71-.72l-1.7 1.7z" fill="#41beff"/><path d="m13.26 5.5a.5.5 0 0 0 -.72-.72l-1.7 1.7a.5.5 0 0 0 .71.72l1.7-1.7z" fill="#3cd2af"/><path d="m13.25 12.5a.5.5 0 0 1 -.72.72l-1.7-1.7a.5.5 0 0 1 .71-.72l1.7 1.7z" fill="#fa0"/></svg>