<svg height="18" viewBox="0 0 18 18" width="18" xmlns="http://www.w3.org/2000/svg"><path d="m0 0h18v18h-18z" fill="#f0f3fa"/><path d="m2 9c0-.92.53-1.76 1.43-2.43l.65 5.27c-1.28-.72-2.08-1.73-2.08-2.84zm7 4c-1.77 0-3.4-.38-4.63-1h9.26c-1.23.62-2.85 1-4.63 1zm6.89-3.27c-.22.68-.74 1.3-1.47 1.8l-8.92.02zm-.57-2.47c.4.48.64 1.01.68 1.58l-5.62 1.3-.8-.58 1.39-.56h.03a1 1 0 0 0 .71-.3l3.6-1.44zm-3.35.5a1 1 0 1 0 -1.72.9l-1.1.58-.85-.7 4.07-3.05c.79.24 1.48.58 2.05.97zm-2.27-2.76c.48.03.95.09 1.4.17l-.83.82h-1.27l.71-.99zm-3.15.23c.65-.12 1.33-.21 2.05-.23l-3.6 5 1.56-4.76zm-2.05 4.77 1.09-4.5c-.54.17-1.03.38-1.46.62z" fill="#58b3ba"/></svg>