<!-- by TradingView --><svg width="18" height="18" viewBox="0 0 18 18" xmlns="http://www.w3.org/2000/svg"><path fill="#F0F3FA" d="M0 0h18v18H0z"/><path d="M4.69 5c-.38 0-.69.3-.69.68v6.64c0 .38.3.68.69.68h8.62c.38 0 .69-.3.69-.68V5.68c0-.38-.3-.68-.69-.68H4.69Zm.05 1.55V6h1.8C7.53 6 8 6.73 8 7.62V8c.59-.12 1-.58 1-1.12V6h3.98c.1.64-.2 2.15-2.28 3.09A3.02 3.02 0 0 1 12.98 12H9v-.88A1.22 1.22 0 0 0 8 10V12h-.93C6.03 12 5 11.22 5 10.25V7c0-.2 0-.44-.23-.44h-.03Zm1.33.88c.24 0 .44-.2.44-.43 0-.24-.2-.43-.44-.43s-.44.2-.44.43c0 .24.2.43.44.43Z" fill="#D82414"/></svg>