<svg height="18" viewBox="0 0 18 18" width="18" xmlns="http://www.w3.org/2000/svg"><path d="m0 0h18v18h-18z" fill="#f0f3fa"/><g fill="#00b48c"><path d="m10.72 9c0-1.4-1.17-2-2.36-2-.92 0-1.74.32-2.12.8h.76c.07 0 .14 0 .22-.07.26-.26.69-.33 1.14-.33.51 0 1 .24 1.2.7a2.36 2.36 0 0 1 0 1.79c-.14.36-.53.74-1.25.74-.73 0-1.31-.47-1.31-1.03 0-.74 1.05-1.08 2.08-1.02.01-.13-.54-.28-1.09-.26-1.21.06-1.99.55-1.99 1.28 0 .7.77 1.4 2.3 1.4.61 0 1.24-.09 1.6-.4.14.18.38.4.63.4h.2v-2z"/><path d="m6.04 7h-.17c-.36 0-.63.1-.94.34l-1.93 1.68v-1.21c0-.73-.56-.81-.78-.81h-.22v3.27c0 .7.62.73.74.73h.26v-1.93s.82.86 1.62 1.56c.26.23.63.37 1.15.37h.54l-2.45-2.18zm7.46 3.6c-.95 0-1.5-.7-1.5-1.6 0-.92.55-1.6 1.5-1.6.94 0 1.5.69 1.5 1.6s-.55 1.6-1.5 1.6zm0-3.6c-1.38 0-2.5.9-2.5 2s1.12 2 2.5 2 2.5-.9 2.5-2-1.12-2-2.5-2z"/></g></svg>