<svg height="18" viewBox="0 0 18 18" width="18" xmlns="http://www.w3.org/2000/svg" xmlns:xlink="http://www.w3.org/1999/xlink"><linearGradient id="a" gradientUnits="userSpaceOnUse" x1="2.64" x2="15.05" y1="6.42" y2="12.19"><stop offset="0" stop-color="#dee326"/><stop offset=".04" stop-color="#dae128"/><stop offset=".07" stop-color="#cfdc2c"/><stop offset=".11" stop-color="#bdd333"/><stop offset=".11" stop-color="#bcd233"/><stop offset=".15" stop-color="#b9d134"/><stop offset=".2" stop-color="#aecc37"/><stop offset=".24" stop-color="#9bc33b"/><stop offset=".25" stop-color="#95c03d"/><stop offset=".26" stop-color="#91bf45"/><stop offset=".29" stop-color="#86bc5c"/><stop offset=".32" stop-color="#73b782"/><stop offset=".35" stop-color="#5ab1b6"/><stop offset=".38" stop-color="#43aae6"/><stop offset=".44" stop-color="#41a6e3"/><stop offset=".5" stop-color="#3e99d9"/><stop offset=".56" stop-color="#3882c9"/><stop offset=".62" stop-color="#3064b2"/><stop offset=".63" stop-color="#2e5dad"/><stop offset=".64" stop-color="#305aab"/><stop offset=".7" stop-color="#463598"/><stop offset=".74" stop-color="#531e8d"/><stop offset=".77" stop-color="#581689"/><stop offset=".77" stop-color="#5a1687"/><stop offset=".8" stop-color="#80166b"/><stop offset=".83" stop-color="#9e1656"/><stop offset=".86" stop-color="#b31646"/><stop offset=".88" stop-color="#c0153d"/><stop offset=".91" stop-color="#c4153a"/><stop offset=".92" stop-color="#c51d3b"/><stop offset=".94" stop-color="#c9333f"/><stop offset=".97" stop-color="#ce5745"/><stop offset="1" stop-color="#d6884d"/></linearGradient><path d="m0 0h18v18h-18z" fill="#f0f3fa"/><path d="m4.42 8.68c0 .1.26.1.3.04l.8-1.63c.02-.05.06-.09.12-.09h1.39c.02 0 .04.03.06.04v.05c-.05.1-1.05 1.9-1.14 2.04-.03.04-.04.07-.04.1s0 .07.03.1l1.2 2.59-.01.05c-.02.03-.05.03-.09.03h-1.39-.08a.22.22 0 0 1 -.04-.05c-.04-.09-.76-2.07-.81-2.16-.04-.09-.3-.15-.3-.01v2.15c0 .06-.03.08-.08.08h-1.26c-.05 0-.08-.02-.08-.08v-5.85c0-.05.03-.08.08-.08h1.26c.05 0 .08.03.08.08zm4.44-.49-.26.01-.3.03-.3.03c-.09 0-.17.02-.23.03h-.08c-.02 0-.04-.01-.04-.04l-.06-.93c0-.06 0-.1.05-.12l.3-.06.43-.05.45-.03.44-.02c.25 0 .48.02.7.06.2.05.4.11.55.2a1 1 0 0 1 .36.39c.1.16.13.36.13.6v3.4c0 .03 0 .05-.02.07 0 .02-.04.03-.08.05l-.33.07a8.14 8.14 0 0 1 -2.25.04c-.26-.04-.46-.1-.62-.2a.8.8 0 0 1 -.33-.4 1.6 1.6 0 0 1 -.1-.62c0-.22.02-.63.05-.78s.1-.28.2-.39c.1-.1.24-.18.42-.25.18-.06.42-.1.72-.15l.84-.1c.03-.01.04-.03.04-.06v-.43c0-.14-.04-.24-.15-.29a1.72 1.72 0 0 0 -.53-.06zm.68 1.68c0-.04-.02-.05-.05-.05h-.25l-.29.01a.4.4 0 0 0 -.2.08.35.35 0 0 0 -.1.16 1 1 0 0 0 -.05.3c0 .12.01.44.04.5.02.07.05.13.1.17.09.07.24.08.44.08.1 0 .36 0 .36-.12zm3.96-2.87c.44 0 1.1.06 1.4.15.28.08.5.22.67.4.16.17.28.4.34.67a8.12 8.12 0 0 1 0 2.5 1.47 1.47 0 0 1 -1 1.12c-.27.09-.6.16-1 .16h-.82c-.04 0-.08 0-.08.05v.87c0 .05-.02.08-.07.08h-1.27c-.06 0-.08-.03-.08-.08v-5.63c0-.05.02-.08.08-.1l.27-.05a6.6 6.6 0 0 1 .9-.1c.19-.02.48-.04.66-.04zm-.5 3.92c0 .04.03.09.08.1h.4c.14 0 .55-.02.64-.06.1-.04.17-.1.22-.2.06-.1.1-.22.12-.38.03-.16.04-.91.04-1.17 0-.24-.01-.44-.04-.6a.94.94 0 0 0 -.12-.35.41.41 0 0 0 -.22-.17c-.1-.03-.5-.05-.64-.05-.24 0-.48.03-.48.09z" fill="url(#a)"/></svg>