<svg height="18" viewBox="0 0 18 18" width="18" xmlns="http://www.w3.org/2000/svg" xmlns:xlink="http://www.w3.org/1999/xlink"><linearGradient id="a" gradientUnits="userSpaceOnUse" x1="8.02" x2="12.75" y1="5.15" y2="13.27"><stop offset="0" stop-color="#093087"/><stop offset=".32" stop-color="#0070b4"/><stop offset=".54" stop-color="#00509d"/><stop offset=".75" stop-color="#006cb4"/><stop offset="1" stop-color="#004690"/></linearGradient><linearGradient id="b" gradientUnits="userSpaceOnUse" x1="7.7" x2="6.12" y1="5" y2="12.3"><stop offset="0" stop-color="#003a88"/><stop offset=".15" stop-color="#0071b9"/><stop offset=".32" stop-color="#0087cc"/><stop offset=".45" stop-color="#008acf"/><stop offset=".54" stop-color="#0079bf"/><stop offset=".64" stop-color="#0068b0"/><stop offset="1" stop-color="#023489"/></linearGradient><linearGradient id="c" gradientUnits="userSpaceOnUse" x1="12.74" x2="4.82" y1="5.89" y2="13.03"><stop offset="0" stop-color="#063389"/><stop offset=".22" stop-color="#007fc5"/><stop offset=".47" stop-color="#0085ca"/><stop offset=".69" stop-color="#007cc2"/><stop offset="1" stop-color="#093086"/></linearGradient><linearGradient id="d" gradientUnits="userSpaceOnUse" x1="13.37" x2="11.81" y1="5.59" y2="9.95"><stop offset="0" stop-color="#004494"/><stop offset=".46" stop-color="#0075bc"/><stop offset=".69" stop-color="#006db5"/></linearGradient><linearGradient id="e" gradientUnits="userSpaceOnUse" x1="11.48" x2="13.18" y1="8.26" y2="13.07"><stop offset="0" stop-color="#0086cb"/><stop offset=".55" stop-color="#0080c6"/><stop offset="1" stop-color="#003b8e"/></linearGradient><path d="m0 0h18v18h-18z" fill="#f0f3fa"/><path d="m8.8 6.18c-.11-.94-.67-1.18-.93-1.18l-.16.6.32 4.72c1 .65 3.13 2.06 3.79 2.37.63.3 1.4.31 1.74.15.31-.15.1-.6 0-.74l-4.44-2.66c-.05-.7-.19-2.31-.31-3.26z" fill="url(#a)"/><path d="m8.64 5.6c-.12-.48-.57-.6-.78-.6-.63 0-1.74 1.88-2.2 2.81l-1.43 2.82v1.33l1.26.3c.06-.3.32-1.3.95-2.96a13.84 13.84 0 0 1 2.2-3.7z" fill="url(#b)"/><path d="m4.86 11.22c-.37 0-.57-.4-.63-.59-.63 1.54.16 2.02.63 2.07 1.42 0 3.5-1.8 4.26-2.37.78-.59 4.25-3.55 4.25-3.55v-.9h-.94c-.48.3-1.9 1.31-3.79 2.97-2.36 2.08-3.3 2.37-3.78 2.37z" fill="url(#c)"/><path d="m13.05 5.6c-.37 0-1 .49-1.26.73.11-.05.38-.14.63-.14.26 0 0 .49-.15.74l-1.42 2.51 1.26.6c.94-1.48 1.89-3.11 1.89-3.56 0-.74-.47-.89-.95-.89z" fill="url(#d)"/><path d="m12.11 9.15c-.25-.48-.48-.9-.54-1.04-.31.35-.85 1.16-.72 1.63.16.6 1.42 2.37 1.42 2.82 0 .35-.58.04-.95-.15.5.47 1.16.59 1.58.59.94 0 .94-.6.94-.89 0-.2-.15-.44-.63-1.18-.58-.92-.79-1.19-1.1-1.78z" fill="url(#e)"/></svg>