<svg height="18" width="18" xmlns="http://www.w3.org/2000/svg"><path d="m0 0h18v18h-18z" fill="#12347d"/><g fill="#fff"><path d="m6.75 8.1c.328-1.79 1.292-2.977 2.165-3.556-.899.195-2.141 1.47-2.446 3.188-.24 1.353-.171 2.73.216 3.55-.16-.876-.144-2.038.065-3.182zm-2.63-3.847.697 1.35.73-1.176-.354 1.487 1.297-.353-1.22.849 1.187.652-1.449-.232.262 1.351-.726-1.225-.942 1.086.518-1.404-1.281.51 1.154-.951-1.154-.89 1.432.408-.15-1.462z"/><path d="m5.462 6.162c.732-1.147 2.068-2.147 3.545-2.325-1.6-.043-3.252.73-4.255 2.085.213.042.496.08.71.24zm-.084 5.852c-.484-.124-.954-.441-1.31-.722.879 2.005 2.802 3.236 4.711 3.242.159 0 .407.01.558-.004-1.463-.12-3.006-.943-3.96-2.516zm4.076.129c-2.034 0-3.85-.643-4.672-1.535-.404-1.545-.111-2.993.428-4.005a3.83 3.83 0 0 1 -.642-.444 5.39 5.39 0 0 0 -.712 4.526c.797.926 2.685 1.624 4.767 1.624.81 0 1.558-.043 2.239-.217-.453.068-.913.05-1.408.05zm4.546-1.369s-.34.374-.58.552c0 0-.645 1.968-2.585 2.864 0 0 2.368-.78 3.165-3.416z"/><path d="m4.752 5.713c.646.548 1.461.86 2.27 1.032l.102-.302c-1.075-.353-1.536-.807-1.536-.807zm2.707.83a2.05 2.05 0 0 0 -.083.27c1.588.262 3.055.029 3.055.029-1.254.046-2.233-.097-2.972-.299zm4.541 2.457h-2v-2h2zm1.751-.312h-1.333v-1.376h1.333zm-.751-2.688h-1v-1h1zm-2-.001h-1v-1h1z"/></g></svg>