<svg height="18" viewBox="0 0 18 18" width="18" xmlns="http://www.w3.org/2000/svg"><path d="m0 0h18v18h-18z" fill="#f0f3fa"/><path d="m3.5 6.55-.5-.55h2.67l-.67.55v2.27l1.3-2.4-.3-.42h2.25l-1.95 2.72c.3.32.51.85.7 1.31a3 3 0 0 0 .38.8c.3.35 1.21.93 1.62 1.17h-2.18c-.48-.28-.8-1.03-1.11-1.76a6.73 6.73 0 0 0 -.71-1.37v2.6l.66.53h-2.66l.5-.53zm6.5-.06-.4-.49h3.18c.74 0 2.22.32 2.22 1.6 0 1.26-1.44 1.7-2.16 1.7h-1.34v2.28l.55.42h-2.46l.41-.42v-5.08zm1.5.17v2.3c.67.11 2.2.02 2.2-1.2 0-1.23-1.53-1.24-2.2-1.1z" fill="#005e9e"/></svg>