<svg height="18" viewBox="0 0 18 18" width="18" xmlns="http://www.w3.org/2000/svg"><path d="m0 0h18v18h-18z" fill="#f0f3fa"/><path d="m4.56 4h8.88c.32 0 .59.28.56.62l-.76 9.02a.4.4 0 0 1 -.39.36h-7.72a.4.4 0 0 1 -.39-.36l-.74-9.02a.57.57 0 0 1 .56-.62zm0 .16h8.88c.23 0 .42.2.4.44l-.75 9.02a.23.23 0 0 1 -.24.22h-7.72a.23.23 0 0 1 -.23-.22l-.74-9.02a.4.4 0 0 1 .4-.44z" fill-rule="evenodd"/><path d="m7 5h-1.98c-.1 0-.18.08-.17.17l.52 5.83h1.63zm4 0h2.01c.1 0 .19.08.18.17l-.53 5.83h-1.66z" fill="#e21e2d"/><path d="m7.86 8.55c0 .13.07.45.49.76l.27.2h-.08c-.03.01-.14 0-.23.02-.08.01-.07.03-.08.09v.18c0 .06 0 .1.02.13.03.03.04.04.15.03l.43-.01c.04-.01.04 0 .01.06-.04.1-.19.52-.4.93-.04.06.05.03.12.07.14.07.13.08.17.02a5.39 5.39 0 0 0 .28-.68 12.37 12.37 0 0 1 0 .8l.03.02a.48.48 0 0 1 .22-.03h.02v-.01l.02-.03a.4.4 0 0 0 0-.05v-.03l.01-.03v-.33a8.6 8.6 0 0 0 -.03-.3l-.01-.07-.02-.07-.01-.06a1.62 1.62 0 0 0 -.05-.22h.26l.22.01c.04 0 .09.02.09-.1v-.24c0-.03 0-.08-.06-.1-.1-.02-.2-.02-.3-.01a2.37 2.37 0 0 0 .68-.64s.21-.4.2-.74c0-.07 0-.07.05-.07a.2.2 0 0 0 .09-.02c.09-.02.17-.32.17-.32s.13-.45.16-.64c.03-.16.02-.26-.08-.31l-.02-.01v-.04c.05-.18.14-.4.12-.48a.05.05 0 0 0 -.04-.04.25.25 0 0 1 -.06-.08v-.01c-.03-.4-.2-.79-.49-1.08l-.04-.04a1.78 1.78 0 0 0 -.43-.29 1.7 1.7 0 0 0 -.77-.14h-.08l-.1.01-.15.03-.17.04-.09.03h-.02a3.02 3.02 0 0 0 -.28.11c-.07.02-.08.06-.08.09l-.01.04c-.1.2-.34.23-.43.23-.02 0-.04 0-.04.03.02.06.13.17.2.2l-.07.02h-.14a.18.18 0 0 0 -.18.13.04.04 0 0 0 0 .04c.04.04.07.08.09.13l.01.05c0 .03.03.05 0 .1-.04.08-.15.1-.16.19-.03.11.01.19.06.38a3.37 3.37 0 0 0 .08.34h-.03c-.06.03-.08.08-.09.18-.01.2.14.53.19.8.01.1.06.25.13.31.02.02.05.03.07.03.06.01.08-.03.09.03v.06c.01.2.12.4.12.4m.1-3.34a.31.31 0 0 1 .07-.07c.03-.02.18-.13.32-.18l.05-.01c.03 0 .04-.05 0-.06a.4.4 0 0 0 -.1 0c-.02 0-.03-.02-.01-.04a.3.3 0 0 1 .1-.06 1.99 1.99 0 0 1 .89-.06 1.75 1.75 0 0 1 .74.35c.23.18.5.52.45 1.24 0 .05 0 .1-.02.15 0 .02-.03.06-.04.01-.05-.15-.11-.42-.25-.64-.02-.03-.05-.02-.05 0v.19c-.02.17.04.1.12.3a1.1 1.1 0 0 1 .07.3c0 .03-.02.03-.02.03l-.2-.03h-.61a.52.52 0 0 0 -.32.15.26.26 0 0 1 -.05.02h-.17c-.04.01-.06.02-.1 0-.05-.04-.14-.17-.44-.17h-.52l-.07.01v-.01c0-.24.15-.19.17-.25.04-.15.05-.52.32-.75a.4.4 0 0 1 .32-.12.8.8 0 0 1 .32.07c.05.03.08.04.1.03.02-.02.07-.07.1-.08.01-.02 0-.05-.01-.06-.03-.02-.22-.26-.51-.3a1.06 1.06 0 0 0 -.32-.02c-.11.01-.26.07-.35.11zm2.31 1.55-.04.01-.06.02a.04.04 0 0 1 -.02-.03v-.03c.02-.04.05 0 .08 0h.04zm-.4.12a.3.3 0 0 1 -.07-.07c0-.01 0-.02.02-.02.08 0 .15 0 .19.02a.09.09 0 0 1 .01.1c-.01.03-.04.02-.06.02a.54.54 0 0 1 -.09-.05m.04.14c-.02.01-.08-.01-.1-.02a.5.5 0 0 1 -.09-.06.2.2 0 0 0 -.13-.04.6.6 0 0 0 -.1.02c-.03 0-.03-.02-.02-.03a.28.28 0 0 1 .13-.07h.05a.2.2 0 0 1 .11.06l.13.1c.02.01.05.02.02.04m-1.24.6a.1.1 0 0 1 0 .06c0 .01-.04.03-.09-.03a.15.15 0 0 1 0-.17c.05-.04.1-.01.1 0a.17.17 0 0 0 -.01.14zm-.57-.68a1.38 1.38 0 0 0 .13-.07.46.46 0 0 1 .17-.07c.04 0 .08.02.11.04.03.03.04.07 0 .06a.3.3 0 0 0 -.14 0 .8.8 0 0 0 -.17.07.23.23 0 0 1 -.09.02c-.01 0-.05-.02-.01-.05m-.05-.07-.1.07c-.04.02-.08 0-.07-.05 0-.02.04-.08.1-.09h.05l.07-.01c.04 0 .04.02.02.04zm-.62-.77a.84.84 0 0 1 .13-.21c.04-.05.02-.11 0-.17a.66.66 0 0 0 -.05-.12.03.03 0 0 1 0-.02l.08-.01a1.42 1.42 0 0 0 .52-.17 1.79 1.79 0 0 1 .19-.04c.04 0 .1.03.09.04-.04.02-.2.05-.33.22-.09.1-.1.16-.14.2-.03.05-.05.07-.09.1a.26.26 0 0 0 -.08.1c-.07.2-.1.39-.1.58 0 .04-.01.08-.05.09-.03.01-.05.03-.06 0-.01-.06-.06-.21-.07-.3l-.02-.1c-.02-.07-.03-.15-.02-.19m.17 1.5c-.06-.04-.05-.1-.07-.14l-.09-.34c-.02-.06-.02-.22.07-.22.04 0 .07.02.09.06.03.1-.03.08-.01.19 0 .07.02.15.05.28 0 .06.03.2-.03.17m.21-.82h-.05c-.02-.01-.04 0-.04-.02v-.03h.04c.02 0 .06-.04.08 0a.04.04 0 0 1 -.03.05m.05.64c-.01-.03 0-.08.08-.03a.45.45 0 0 0 .11.04.04.04 0 0 0 .04-.02c0-.02.03-.06-.01-.08s-.13-.03-.18-.16a.05.05 0 0 1 .02-.05.04.04 0 0 1 .05.01c.02.02.06.05.09.05l.04-.01c.02-.03.1-.13.24-.12l.13.03a.4.4 0 0 0 .1 0c.04-.02.1-.03.07 0-.02.04-.04.05-.02.08a.08.08 0 0 1 0 .1c-.03.05-.1.1-.24.1-.06 0-.06 0-.07.04v.03c.01.02.02.03.07.03h.09s.03 0 .02.01l-.01.02a.2.2 0 0 0 -.05.1.06.06 0 0 1 -.03.04c-.02.01-.1.03-.16.08-.07.05-.2.1-.26.03a.85.85 0 0 1 -.13-.32m.6 1.53c-.1 0-.4-.18-.54-.69-.03-.13.05-.24.1-.26h.06a.05.05 0 0 1 .06.06c0 .04.04.44.14.58.03.04.05.04.06 0l.04-.07c0-.01.04-.07.05-.03l.1.34c.04.08-.02.08-.06.08m.07-.83c-.15 0-.22-.05-.23-.07s0-.03.02-.04a.54.54 0 0 0 .12-.06l.13-.08c.02-.01.12-.06.17-.02.09.07.2.1.31.1.1-.01.1-.09.17-.11a.31.31 0 0 0 .1-.05c.03 0 .05-.01.08.01l.1.12c.03.04.08.08.14.1a.05.05 0 0 1 .03.03s0 .02-.06.04a.9.9 0 0 1 -.54-.02.2.2 0 0 0 -.17 0c-.07.03-.24.05-.38.05m.76.13a.95.95 0 0 1 -.18.04h-.23a.19.19 0 0 1 -.11-.04s-.01-.03.01-.03c.15-.02.3-.02.45 0h.06s.03.02 0 .03m1.31-1.18c-.04.21-.08.32-.11.45-.03.14-.1.34-.15.34-.06.02-.08-.05-.12 0l-.06.1a.16.16 0 0 0 -.03.07c0 .11 0 .22-.03.33-.06.25-.15.43-.25.54-.19.22-.37.25-.39.26a.1.1 0 0 1 -.08 0l-.05-.04c-.02-.02-.03.01-.03.02 0 0 .01.11-.01.16-.06.1-.11.1-.14.23-.01.04 0 .1-.06.07a.78.78 0 0 1 -.33-.44c-.02-.06 0-.12.03-.23a.68.68 0 0 0 .03-.17c0-.07-.03-.13 0-.14.05-.01.08.12.1.11.04-.02.01-.17.01-.17s-.01-.04-.09-.05c-.04-.01-.05-.04 0-.07a.2.2 0 0 1 .11-.03c.3.05.4-.02.52-.05a.07.07 0 0 1 .05 0c.02.01.07.04.08.06.01.03 0 .13.02.2.02.08.07.01.08-.02a.68.68 0 0 0 .03-.12c0-.02.02-.1.05-.12a.29.29 0 0 0 .08-.13.63.63 0 0 0 .03-.2c0-.11-.03-.12-.05-.15-.03-.02-.06-.02-.12-.07-.06-.06-.11-.14-.15-.2a.37.37 0 0 0 -.2-.13c-.07-.02-.04.05-.04.08 0 0 .03.08 0 .1s-.19.13-.33.09c-.17-.05-.23-.14-.24-.23 0-.07.03-.13.07-.2l.04-.2a.9.9 0 0 1 .04-.16.07.07 0 0 1 .07-.04.08.08 0 0 1 .09.07c.03.13.08.17.1.18l.05-.02c.01 0 .05-.04.04-.06a.22.22 0 0 1 -.03-.05c0-.03.03-.03.03-.02.06.04.1.05.2.06.16.03.19-.03.3-.01.02 0 .04.01.05.03l.03.05.07.01c.02 0 .06 0 .05.05-.01.11-.15.15-.21.16h-.05a.06.06 0 0 0 0 .08c0 .02.06.02.13 0a.29.29 0 0 0 .2-.13c.06-.1.09-.3.1-.33 0-.04.02-.1.04-.11a.48.48 0 0 1 .13-.04c.01 0 .02.01.03.05v.29c0 .03.01.03.02.03.02-.01.08-.05.1-.1 0-.03-.02-.08 0-.13.01-.07.04-.09.05-.09.1.01.11.05.09.17"/><path d="m6 11h6v2h-6z" opacity=".5"/></svg>