<svg fill="none" height="18" width="18" xmlns="http://www.w3.org/2000/svg"><path d="m0 0h18v18h-18z" fill="#f0f3fa"/><g clip-rule="evenodd" fill-rule="evenodd"><path d="m7.061 5.251v2.34c0 .13.134.248.223.248h2.383c.195 0 .483.252.483.415.002.03.006.254.01 1.254l.003 1.187c0 .106.13.24.231.24h2.383c.113 0 .223-.122.223-.253v-2.382c0-.09-.121-.232-.235-.232l-1.184-.002h-1.19c-.228 0-.456-.227-.456-.52v-2.315c0-.092-.11-.229-.231-.229h-1.197-1.21c-.12 0-.236.135-.236.249z" fill="#165526"/><path d="m10.394 5.002c-.124 0-.236.123-.236.238v2.365c0 .089.112.237.224.237h2.398c.083 0 .213-.121.213-.234l.007-1.187v-1.2c0-.098-.124-.219-.229-.219h-.499c-1.467-.005-1.878 0-1.878 0zm-6.167.004c-.093 0-.227.126-.227.216v2.384c0 .11.122.24.223.24h2.014c.365 0 .43.013.462.022.208.047.362.288.362.448v2.367c0 .106.122.253.223.253h2.379c.227 0 .495.256.495.435v2.397c0 .11.136.232.219.232h2.393c.109 0 .23-.122.23-.22v-2.416c0-.088-.122-.228-.248-.232h-1.204l-1.186-.001c-.152 0-.426-.207-.426-.423v-2.396c0-.13-.135-.246-.232-.246h-2.387c-.247 0-.458-.248-.458-.483l-.009-2.361c0-.115-.134-.213-.227-.216z" fill="#0f9347"/></g></svg>