<svg height="18" viewBox="0 0 18 18" width="18" xmlns="http://www.w3.org/2000/svg"><path d="m0 0h18v18h-18z" fill="#0020bb"/><path d="m6 5.4v2.45c0 .03 0 .06.02.08l.06.06h.08c.02 0 .05-.01.07-.04l2.36-2.7a.16.16 0 0 0 .03-.07v-.09a.15.15 0 0 0 -.05-.06.12.12 0 0 0 -.08-.03h-2.14c-.1 0-.18.04-.25.12a.43.43 0 0 0 -.1.28zm.35 7.6h2.15c.03 0 .06 0 .08-.03a.15.15 0 0 0 .05-.06.17.17 0 0 0 0-.09.16.16 0 0 0 -.03-.08l-2.36-2.7a.13.13 0 0 0 -.07-.04l-.08.01a.14.14 0 0 0 -.06.06.17.17 0 0 0 -.02.08v2.45c0 .1.04.2.1.28.07.08.16.12.25.12zm1.69-5.26 2.21-2.48a.8.8 0 0 1 .6-.26h2c.04 0 .06 0 .09.02l.05.07v.1c0 .03-.02.05-.04.07l-2.11 2.35c-.22.25-.52.39-.83.39h-1.88c-.02 0-.05 0-.07-.03a.15.15 0 0 1 -.06-.06.17.17 0 0 1 0-.09c0-.03.01-.06.03-.08zm0 2.52 2.21 2.48a.8.8 0 0 0 .6.26h2c.04 0 .06 0 .09-.02a.15.15 0 0 0 .05-.07.17.17 0 0 0 0-.1.15.15 0 0 0 -.04-.07l-2.11-2.35a1.12 1.12 0 0 0 -.84-.39h-1.87c-.02 0-.05 0-.07.03a.15.15 0 0 0 -.05.06.17.17 0 0 0 0 .09c0 .03.01.06.03.08z" fill="#fff"/></svg>