<svg height="18" viewBox="0 0 18 18" width="18" xmlns="http://www.w3.org/2000/svg"><path d="m0 0h18v18h-18z" fill="#004181"/><path d="m5 9a4 4 0 1 1 8 0 4 4 0 0 1 -8 0zm4 3c1.67 0 3-1.33 3-3s-1.32-3-3-3-3 1.33-3 3 1.32 3 3 3zm4.86-5a4.49 4.49 0 0 1 0 4h-1.03a3.7 3.7 0 0 0 0-4zm-8.7 0a3.7 3.7 0 0 0 0 3.99h-1.02a4.49 4.49 0 0 1 0-3.99zm2.34 0h.99v4h-.99zm1.99 4-1-2 1-2h1.1l-1.05 2 1.03 2h-1.1zm-5.6-4a4.85 4.85 0 0 0 -.43 2.05c-.01.2-.05.86.44 1.95h-.9l-1-2 1-2h.88zm10.21 0a4.85 4.85 0 0 1 0 4h.9l1-2-1-2z" fill="#fff"/></svg>