<svg height="18" width="18" xmlns="http://www.w3.org/2000/svg"><path d="m0 0h18v18h-18z" fill="#008c41"/><path d="m9 8.03-2.03-1.91a1.21 1.21 0 0 1 .4-2.05 1.3 1.3 0 0 1 1.65.82 1.3 1.3 0 0 1 1.64-.82c.87.3 1.09 1.41.4 2.05l-2.05 1.91zm0 .2 2.06 1.92c.68.64.46 1.75-.4 2.05a1.3 1.3 0 0 1 -1.66-.82 1.3 1.3 0 0 1 -1.65.82 1.21 1.21 0 0 1 -.4-2.05l2.05-1.91zm.15-.1 2.15 2.06c.49.46 1.22.43 1.69.03a2.25 2.25 0 0 1 .25 1.02c0 .25-.08.6-.26.9-.18.32-.46.58-.88.69a.15.15 0 0 0 -.1.08v-.41h-1v1.5h1v-.97c.03.06.1.1.18.08.53-.13.87-.46 1.08-.82.2-.36.29-.76.29-1.05 0-.34-.07-.63-.14-.85a1.52 1.52 0 0 0 -.21-.4c.05-.08.1-.17.14-.27a1.2 1.2 0 0 0 -.75-1.59c.64-.2 1.02-.9.76-1.58a1.26 1.26 0 0 0 -2.03-.48zm-.3 0-2.17-2.07c-.64-.6-1.7-.35-2.03.48a1.2 1.2 0 0 0 .75 1.58 1.2 1.2 0 0 0 -.74 1.59c.33.82 1.4 1.07 2.03.47l2.16-2.07zm-2.85 4.37h1v1.5h-1zm3.33 0h1v1.5h-1zm-.66 0h-1v1.5h1z" fill="#fff"/></svg>