<svg height="18" viewBox="0 0 18 18" width="18" xmlns="http://www.w3.org/2000/svg"><path d="m0 0h18v18h-18z" fill="#f0f3fa"/><path d="m6.83 6.26s.14.34-.4.49c0 0-.22 0-.26-.15 0 0-.09-.34.3-.3l.2.02c.07 0 .15-.01.16-.06zm2.14-1.55s.27.2-.06.45c0 0-.13.12-.34.09 0 0-.07.67-1.14.12 0 0 .56-.9.94-.44 0 0 .15-.37.6-.22zm-4.97 4.42c0 1.54.66 2.92 1.7 3.86h2.7s.68-.7-.08-1.3l-1.6-1.18s-1.42-.86-.6-2.77c0 0 .35-.75 1.03-1.25 0 0 .3-.35-.16-.53 0 0 .23-.17.02-.47 0 0 .83-.06.75 1.38 0 0-.2 1.64 1 2.15 0 0-.84-1.17.05-2.49 0 0 .49-.9 1.75-.92 0 0 1.44-.01 2.05 1.26 0 0 1.07 2.1-.83 3.75 0 0 1.19-2.12.36-3.2 0 0-.5-.75-1.5-.78 0 0-1.9.02-1.43 2.38 0 0 .01-1.64 1.54-1.7 0 0 1.02.01 1.19 1.1 0 0 .2.92-.5 1.78 0 0 .3-1.3 0-1.76 0 0-.21-.41-.76-.45 0 0-.79-.11-1.04 1.04 0 0 .3-.4.78-.35 0 0 1.17.06.64 1.35 0 0-.1-.95-.68-.91 0 0-1.32-.33-1.4 2.4v1.48h3.31a5.2 5.2 0 0 0 1.71-3.86 5.07 5.07 0 0 0 -5-5.14c-2.76 0-5 2.3-5 5.13z" fill="#e6001a"/></svg>