<svg height="18" viewBox="0 0 18 18" width="18" xmlns="http://www.w3.org/2000/svg"><path d="m0 0h18v18h-18z" fill="#f0f3fa"/><path d="m5.08 12.13h-.08a4.78 4.78 0 0 0 3.74 1.87c.72 0 1.42-.18 2.05-.5h-2.63c-1.2 0-2.29-.51-3.08-1.38zm5.71-7.63a4.57 4.57 0 0 0 -2.06-.5c-1.43 0-2.78.68-3.73 1.87h.08a4.2 4.2 0 0 1 3.07-1.37z" fill="#59ac40"/><path d="m11.4 13.3c.25-.13.47-.28.69-.46l-2.88.22-.09.06 2.29.19zm-1.46-.86 2.39.2.45-.46-2.8.2a.19.19 0 0 1 -.04.06zm3.04-.48c.11-.15.23-.3.32-.46l-2.8.19c-.02.01-.02.02-.03.05l2.5.22zm.47-.72c.08-.15.15-.31.22-.48l-2.83.2s-.02.02-.02.05zm-2.41-1.01 2.73.25c.06-.15.1-.32.13-.48l-2.85.18zm.11-.79 2.8.25a3 3 0 0 0 .05-.5l-2.85.2zm2.85-.61c0-.18-.01-.34-.04-.5l-2.81.24v.06zm-.1-.82a2.64 2.64 0 0 0 -.13-.47l-2.73.24.01.06 2.85.16zm-.23-.76a4.95 4.95 0 0 0 -.22-.47l-2.64.24.01.05zm-.37-.73c-.1-.17-.2-.32-.32-.47l-2.51.24.03.05zm-.52-.7c-.14-.16-.3-.31-.45-.46l-2.39.2.05.06zm-.69-.66a4.45 4.45 0 0 0 -.68-.45l-2.29.17.09.06z" fill="#59ac40"/><path d="m8.32 6s-2.6 2.43-2.75 2.61v-2.61h-.57v6h.57v-2.76c.16.19 2.77 2.76 2.77 2.76h.66l-3.04-3.06 3.04-2.94z" fill="#01617a"/></svg>