<svg height="18" viewBox="0 0 18 18" width="18" xmlns="http://www.w3.org/2000/svg"><path d="m0 0h18v18h-18z" fill="#05203d"/><path d="m10.87 9.05-.61.9c-.76-.88-2.36-2.76-2.7-3.15a2.85 2.85 0 0 0 -1.06-.7c.2-.07.67-.1.88-.1.7 0 1.4.53 1.66.8z" fill="#fdaf4f"/><path d="m6 7.57-.63-.67c.18-.22.62-.67.97-.7.35-.02.66.17.77.27-.37.27-.89.85-1.1 1.1z" fill="#e75732"/><path d="m4.1 6c-.6 0-1.32.26-1.6.4.93.06 1.37.33 1.47.46.6.67 2.06 2.34 3.1 3.63 1.05 1.29 2.28 1.13 2.77.89-.07.02-.35-.03-1-.46-.84-.55-3.87-4.92-4.76-4.92z" fill="#4763a4"/><path d="m14.65 6.3h.2c.08 0 .15-.07.15-.15s-.07-.15-.15-.15h-.56c-1.83 0-2.86 2.44-3.69 3.64-.66.96-1.25 1.34-1.46 1.4.98.65 1.99-.4 2.37-1 .39-.58 1.3-1.94 1.8-2.72.49-.78 1.1-1.02 1.34-1.03z" fill="#54a4d5"/><path d="m14.49 12.7h.36c.08 0 .15.07.15.15s-.07.15-.15.15h-.91c-1.33 0-2.58-1.47-3.03-2.2.33-.24.6-.63.7-.8.22.33.83 1.12 1.44 1.77.62.64 1.21.92 1.44.94z" fill="#fdaf4f"/><path d="m3.69 9.13c-.22.3-.58.42-.74.45.03.07.23.21.87.21.63 0 1.27-.86 1.5-1.29l-.63-.75z" fill="#e75732"/></svg>