<svg height="18" viewBox="0 0 18 18" width="18" xmlns="http://www.w3.org/2000/svg"><path d="m0 0h18v18h-18z" fill="#f0f3fa"/><path d="m8.98 4.95a3.2 3.2 0 0 1 2.23-.95c2.09 0 3.79 2.24 3.79 5s-1.7 5-3.8 5c-.83 0-1.6-.36-2.23-.96h-.01c-.62.58-1.36.96-2.17.96-2.09 0-3.79-2.24-3.79-5s1.7-5 3.8-5c.8 0 1.54.38 2.16.95zm1.58 4.38c0 2.25-1.31 3.46-1.31 3.46.39.27.83.42 1.3.42 1.58 0 2.88-1.62 2.94-3.88zm2.93-.33c-.02-2.3-1.33-4.21-2.95-4.21-.46 0-.9.15-1.28.42 0 0 1.3 1.4 1.3 3.79zm-9.02.33c.05 2.26 1.35 3.88 2.94 3.88.47 0 .9-.15 1.3-.42 0 0-1.31-1.2-1.31-3.46zm2.93-.33c0-2.39 1.3-3.8 1.3-3.8a2.24 2.24 0 0 0 -1.3-.4c-1.6-.01-2.92 1.89-2.93 4.2zm2.9 0c0-2.48-1.33-3.5-1.33-3.5s-1.35 1.14-1.35 3.5zm-1.33 1.5c1.36 0 1.34-1.17 1.34-1.17h-2.7s0 1.17 1.36 1.17z" fill="#0069c8"/></svg>