<svg height="18" width="18" xmlns="http://www.w3.org/2000/svg"><path d="m0 0h18v18h-18z" fill="#0070af"/><path d="m14.654 5.358c1.088 1.523-.476 4.508-3.495 6.669-3.02 2.16-6.35 2.677-7.44 1.155-1.089-1.523.476-4.508 3.495-6.669 3.02-2.16 6.35-2.677 7.44-1.155z" fill="#fff"/><path d="m11.298 12.159c0-.108-.063-.159-.216-.159h-4.582v-.062l3-3.938h-2.407c-.15 0-.213.05-.213.164h-.088v-1.294h.088c0 .108.062.158.213.158h4.293v.063l-2.958 3.909h2.654c.153 0 .216-.053.216-.165h.088v1.323h-.088z" fill="#0070af"/></svg>