<svg height="18" width="18" xmlns="http://www.w3.org/2000/svg"><path d="m0 0h18v18h-18z" fill="#007da4"/><path d="m6 7.587 1.443-1.109-1.443-1.26v2.37zm2.943 8.413h3.057v-2.348zm-1.025-6.739.57.478h2.79l-.57-.478zm-1.102-4.652h3.057l.703-.522h-3.076zm3.171 7.326-1.215.934h2.298zm-.911-1.675.93.783 1.007-.782h-1.937zm-3.076-1.717v5.587l3.437-2.652zm6-6.543h-1.804l-.683.522h2.487zm-5.032 3.13 1.064.914 1.196-.913h-2.26zm5.032 5.261-1.462 1.109 1.462 1.26zm-3.418-3.891 3.418 2.935v-5.565zm.456-4.5h-3.038v2.348zm-.93 11.391-.684.522h3.076l.684-.522h-3.077zm-1.348 1.044-.729.565h3.076l.727-.565zm.208-6.695h1.975l-.93-.805-1.045.804zm4.254-4.175.746-.565h-3.076l-.727.565zm-5.222 11.913v.522h1.823l.664-.522zm.76-7.217.57.478h2.77l-.57-.478z" fill="#fff"/></svg>