<svg height="18" viewBox="0 0 18 18" width="18" xmlns="http://www.w3.org/2000/svg"><path d="m0 0h18v18h-18z" fill="#f0f3fa"/><path d="m6.5 5h.9v5.74c0 .8.62 1.94 1.6 2.45.38-.2 1.6-1.22 1.6-2.45v-5.74h.9v5.74c0 1.42-1 2.87-2.5 3.45-1.78-.89-2.5-2.28-2.5-3.45z" fill="#4a4a4f"/><path d="m5 10.77v-2.77h.8v2.44c0 2.19 1.1 3.97 3.2 4.69 1.98-.8 3.2-2.16 3.2-4.7v-2.43h.8v2.77c0 2.73-1.74 4.43-4 5.23-2.39-.7-4-2.89-4-5.23z" fill="#4a4a4f"/><path d="m8 3.6c0-1.09 1-1.6 1-1.6s1 .5 1 1.6v7.04c0 .96-1 1.36-1 1.36s-1-.45-1-1.36z" fill="#b2913f"/></svg>