<svg height="18" viewBox="0 0 18 18" width="18" xmlns="http://www.w3.org/2000/svg"><path d="m0 0h18v18h-18z" fill="#f0f3fa"/><path d="m8.39 4.05c.25-.05.52-.05.77-.05 1.24.41-1.77 3.34-3.94 5.45l-1 .98c-.1-.27-.14-.55-.18-.82a4.97 4.97 0 0 1 4.35-5.56zm2.76 1.42c-.02.43-.34 1-.43 1.16a52.3 52.3 0 0 1 -1.12 1.95c-.47.78-1.03 1.72-1.7 2.88-.2.35-.16.65.11.85.32.23.93.41 1.64.32 3.06-.43 3.87-1.55 4.1-2.01.23-.69.32-1.47.23-2.22a5 5 0 0 0 -3.43-4.15c.14.07.66.46.61 1.22zm-4.19 8.1a4.97 4.97 0 0 0 6.19-1.8c-1.13.77-2.65 1.39-3.99 1.66-.8.19-1.54.21-2.2.14z" fill="#008c99"/></svg>