<svg height="18" viewBox="0 0 18 18" width="18" xmlns="http://www.w3.org/2000/svg"><path d="m0 0h18v18h-18z" fill="#f0f3fa"/><path d="m8.9 12.98a4.63 4.63 0 0 0 4.67-4.61 4.62 4.62 0 0 0 -3.17-4.37 4.9 4.9 0 0 1 3.72 4.74c0 2.7-2.21 4.9-4.94 4.9a4.91 4.91 0 0 1 -4.94-5.09 4.64 4.64 0 0 0 4.66 4.43z" fill="#68729e"/><path d="m4 5.42c.04-.7.7-.8 1.01-.76-.49.1-.6.55-.6.76.06 1.25 1.53 2.42 2.26 2.84-1.74-.78-2.72-1.96-2.67-2.84zm9.31 2.91c2.05 1.23 1.6 2.25 1.13 2.6 1.05-.3 1.1-.9 1.04-1.18-.45-2.19-5.5-3.2-7.79-3.34 1.15.18 3.06.4 5.62 1.92zm-8.37 5.67c-.8.03-.65-.75-.48-1.15 0 .58.4.65.6.6 2.03-.34 4.58-2.7 5.6-3.83-2.21 2.86-4.74 4.34-5.72 4.38z" fill="#752b8b"/><ellipse cx="9.13" cy="8.53" fill="#e3d9b1" rx="3.8" ry="3.76"/><ellipse cx="9.13" cy="8.53" fill="#f4dc7a" rx="2.64" ry="2.66"/><ellipse cx="9.13" cy="8.53" fill="#fbd407" rx="1.4" ry="1.41"/></svg>