<svg height="18" viewBox="0 0 18 18" width="18" xmlns="http://www.w3.org/2000/svg"><path d="m0 0h18v18h-18z" fill="#f0f3fa"/><path d="m13.95 6.53.3-.52c.05-.01.1-.01.14 0v1.77a.7.7 0 0 1 -.18.01c-.04-.1-.05-.2-.09-.31-.08-.31-.23-.6-.45-.83a1.2 1.2 0 0 0 -.85-.36c-.23-.01-.45.04-.66.15-.2.12-.37.3-.49.52-.15.3-.25.61-.3.94a7.15 7.15 0 0 0 .16 2.84c.08.24.2.46.37.65.16.17.37.28.6.32.3.05.63.01.92-.1l.23-.12.05-.1v-1.32c.01-.23-.07-.33-.26-.37a2.64 2.64 0 0 0 -.27-.03.82.82 0 0 1 0-.24h1.82v.23c-.07.02-.15.01-.22.03-.15.04-.3.1-.27.32v1.33c-.1.09-.25.16-.36.23a3.06 3.06 0 0 1 -1.28.42c-.25.02-.5 0-.74-.07-.37-.1-.7-.32-.94-.62-.32-.41-.53-.9-.6-1.42-.07-.39-.1-.78-.07-1.16.01-.58.15-1.14.42-1.65a1.92 1.92 0 0 1 1.42-1.03 1.8 1.8 0 0 1 1.55.45z" fill="#9e9e9e"/><g fill="#f72509"><path d="m10.97 11.71h-.14c-.1 0-.28-.43-.31-.56l-1.34-4.46-.21-.69a7562.25 7562.25 0 0 1 -1.52 4.51c-.08.24-.15.47-.24.7a.64.64 0 0 1 -.16.26.6.6 0 0 1 -.28.16v.37h1.2v-.29a1.79 1.79 0 0 1 -.35-.06.19.19 0 0 1 -.12-.08.2.2 0 0 1 -.03-.14l.01-.1.1-.36.02-.06.12-.39.08-.23h1.7l.1.35a7.47 7.47 0 0 1 .2.84.2.2 0 0 1 -.07.13.6.6 0 0 1 -.17.06l-.18.03-.08.02a1.89 1.89 0 0 0 0 .28h1.66v-.29zm-2.25-4.27.7 2.56h-1.52l.83-2.56z"/><path d="m3 6v.24c.13 0 .62.02.75.05.27.06.25.37.25.6v4.12c.02.58-.48.66-1 .65v.34h3.83c.02 0 .04-.03.06-.05l.04-.05.05-.37v-.53h-.22c-.01.04-.03.04-.05.08a.86.86 0 0 1 -.33.39c-.14.1-.47.14-.64.13h-.35c-.36 0-.4-.22-.39-.57l.02-4.13v-.12c-.02-.23-.03-.49.24-.5.11-.02.63-.03.74-.05v-.23z"/></g></svg>