<svg fill="none" height="18" width="18" xmlns="http://www.w3.org/2000/svg"><path d="m0 0h18v18h-18z" fill="#1c2f4d"/><path d="m5 9c0 .5-.005.595.013.934.029.397.145.781.34 1.124.378.605 1.117.726 1.516 1.297.537.774.6 1.694.631 2.645.3-.544.504-1.288.5-1.961-.006-1.001-.344-1.708-1.131-2.165-.706-.409-1.694-1.026-1.869-1.874zm1.974-.682c-.702-.853-.974-1.818-.974-2.926-.4.67-.512 1.254-.5 1.963.009.525.16 1.038.439 1.482.399.665 1.08.92 1.668 1.352.588.45.795.83 1.1 1.514.176.41.276.85.293 1.297.201-.537.352-.998.327-1.41-.114-1.847-1.302-2.07-2.353-3.272zm2.766-2.75h1.26v.432h-1.26zm2.33 1.432h-2.07v-.432h2.09s.899-.047.899-1.568h-4.489v.379c-.214-.113-.462-.369-.5-1.379l-.95 1a2.302 2.302 0 0 0 -.05.568c.017.683.3 1.716 1.405 2.69a4.753 4.753 0 0 1 1.372 1.648c.329.65.508 1.37.525 2.103a2.218 2.218 0 0 0 1.085-1.923c-.01-.605-.445-1.196-.887-1.586 1.322.225 1.437 1.15 1.5 1.5.425-.594.712-1.265.946-1.963.037-.12.053-.225.054-.319.003-.712-.931-.718-.931-.718z" fill="#a8934a"/></svg>