<svg height="18" viewBox="0 0 18 18" width="18" xmlns="http://www.w3.org/2000/svg"><path d="m0 0h18v18h-18z" fill="#f0f3fa"/><path d="m5 6a3 3 0 1 0 0 6h8a3 3 0 0 0 0-6zm-.72 1.71.17-.42h1.05l.17-.43h.7l-.17.43h.52l-.17.42h-.7v.43h.63l.42-.85h.52l-.42.85h.25l-.17.43h-1.93l-.35.64h2.1l-.18.43h-2.1v.65h1.93l-.17.42h-2.1l-.18-.42v-.43h-.35l.7-1.29h-.35l.18-.43h1.04v-.43h-1.03zm3.5 0 .17-.42h2.98l-.18.42h-1.4v.43h1.4l-.53 2.57h-2.97l.53-2.57h1.22v-.43zm2.27 1.08h-1.75l-.18.42h1.76zm-.35 1.28.18-.43h-1.76l-.17.43zm1.93-2.78v.21h-.36a7.7 7.7 0 0 0 0 2.14l-.7.43.36.64.7-.64.34.43.35-.64-.35-.22c.42-.34.65-1.43.7-1.93h-.52v-.41h-.53zm.52.85c0 .35-.23.86-.35 1.07v-1.28zm.53-.21h1.57v-.43h-.35v-.21h-.35v.21h-.35v-.21h-.17zm.7.21h.52l-.18.43h.53l-.18.86h-.52v.43h-.53v-.43h-.52l.18-.86h.52zm-1.06 1.93-.17.64h1.57l.18-.64z" fill="#013c87" fill-rule="evenodd"/></svg>