<svg height="18" viewBox="0 0 18 18" width="18" xmlns="http://www.w3.org/2000/svg"><path d="m0 0h18v18h-18z" fill="#f0f3fa"/><path d="m10.45 8.02-.92-.02c-3.87 0-4.37.26-5.39 1.83-.04.06-.16.01-.14-.06 0 0 .13-1.28.32-2.1.2-.83.56-1.64 1.2-2.15.63-.5 1.73-.51 2.46-.52h2.9c1.65 0 2.4.34 1.96 1.65-.47 1.43-1.02 1.42-2.39 1.37zm-2.88 1.96.92.02c3.91 0 4.35-.26 5.37-1.83.04-.06.15-.01.14.06 0 0-.13 1.28-.32 2.1a3.78 3.78 0 0 1 -1.2 2.15c-.63.5-1.73.51-2.46.52h-2.9c-1.65 0-2.4-.34-1.96-1.65.47-1.43 1.04-1.42 2.4-1.37z" fill="#05c3dd"/></svg>