<svg height="18" viewBox="0 0 18 18" width="18" xmlns="http://www.w3.org/2000/svg"><path d="m0 0h18v18h-18z" fill="#f0f3fa"/><path d="m12.5 8c.2 0 .75 0 1.07.18.32.19.43.48.43.78s-.07.52-.26.73c-.21.23-.74.31-1.24.31s-1.03-.08-1.24-.3c-.19-.22-.26-.43-.26-.74 0-.3.11-.6.43-.78s.87-.18 1.07-.18m0 .29c-.24 0-.6.11-.6.67 0 .7.41.75.6.75.2 0 .6-.04.6-.75 0-.56-.36-.67-.6-.67zm-7.53 3.71c1.78 0 4.1-.73 5.03-1.1-.45.12-2.12.61-3.94.61-2.1 0-2.2-.52-2.2-.74 0-.23.11-.52.35-.77-.72.42-1.21.9-1.21 1.3s.7.7 1.97.7zm8.55-6c-1.33 0-2.82.55-3.52.91.34-.1 1.34-.42 2.7-.42 1.59 0 1.66.52 1.66.74 0 .23-.09.52-.27.77.54-.42.91-.91.91-1.3 0-.4-.52-.7-1.48-.7zm-7.77 2h-.75v1.58c0 .23.18.42.4.42h1.4l.2-.29h-1.04c-.12 0-.21-.1-.21-.22zm4.75 0h-2.3c-.24.01-.7.21-.7.91v.18c0 .7.46.9.7.91h2.07l.21-.29h-1.68c-.17 0-.3-.1-.3-.24v-.33h1.49l.18-.28h-1.67v-.33c0-.13.13-.24.3-.24h1.45z" fill="#007b91"/></svg>