<svg height="18" viewBox="0 0 18 18" width="18" xmlns="http://www.w3.org/2000/svg"><path d="m0 0h18v18h-18z" fill="#5a2d82"/><path d="m8.5 4.97c-2.96.58-3.56 2.5-3.5 3.38.56-.44 1.86-.62 3.1-.8.77-.1 1.5-.2 2.02-.37 2.44-.75 2.93-2.43 2.88-3.18-.69.47-2.17.66-3.36.81-.44.06-.84.1-1.14.16zm-1.2 3.28c-2.28.16-2.4 1.74-2.28 2.58.8-.4 2.14-.49 3.56-.58.86-.06 1.76-.12 2.6-.25 1.77-.28 1.91-1.8 1.77-2.52-.98.52-2.24.58-3.99.67zm-1.54 2.75c-.42 0-.76.41-.76.92v1.08h7.24c.42 0 .76-.41.76-.92v-1.08z" fill="#fff"/></svg>