<svg height="18" width="18" xmlns="http://www.w3.org/2000/svg"><path d="m0 0h18v18h-18z" fill="#194d7e"/><path d="m11.22 6.22c.08 1.16-1.03 2.05-1.6 2.34l1.2 1.28.63-.84h2.13l-1.63 2.12 2.05 2.38h-2.32l-.96-1.1a3.75 3.75 0 0 1 -2.43 1.1c-1.46.04-3.23-.92-3.29-2.65-.04-1.4 1.21-2.27 1.84-2.54a2.54 2.54 0 0 1 -.97-1.95c0-1.73 1.72-2.4 2.93-2.36s2.33.78 2.42 2.22zm-1.55 5.08-1.8-2.05c-1.03.55-1.55 1.78-.62 2.5.73.6 1.92-.05 2.42-.45zm-1.22-3.63c-.29-.26-.9-.9-.9-1.37 0-.66.45-1 1.07-1a1 1 0 0 1 1 1c0 .57-.69 1.05-1.11 1.34z" fill="#fff" fill-rule="evenodd"/></svg>