<svg height="18" viewBox="0 0 18 18" width="18" xmlns="http://www.w3.org/2000/svg" xmlns:xlink="http://www.w3.org/1999/xlink"><linearGradient id="a" gradientUnits="userSpaceOnUse" x1="10.57" x2="3.8" y1="12.2" y2="11.62"><stop offset=".27" stop-color="#7bc144"/><stop offset=".96" stop-color="#f0f3fa"/></linearGradient><linearGradient id="b" gradientUnits="userSpaceOnUse" x1="9" x2="13.57" y1="7.5" y2="7.3"><stop offset="0" stop-color="#0095d7"/><stop offset=".88" stop-color="#f0f3fa"/></linearGradient><path d="m0 0h18v18h-18z" fill="#f0f3fa"/><path d="m10.98 7.83c.01 2.35.04 7.07 0 7.17-2.13-1.27-5.31-1.35-6.63-1.24l-.35-7.74c3.83-.19 6.25 1.13 6.98 1.81z" fill="url(#a)"/><path d="m9 5.39v6.61c1.16-1.26 3.15-1.8 4-1.9v-7.1a5.3 5.3 0 0 0 -4 2.39z" fill="url(#b)"/><path d="m9 6.73v5.27a5.78 5.78 0 0 1 2-1.33l-.02-2.84c-.33-.3-1-.74-1.98-1.1z" fill="#007b46"/></svg>