<svg height="18" viewBox="0 0 18 18" width="18" xmlns="http://www.w3.org/2000/svg" xmlns:xlink="http://www.w3.org/1999/xlink"><linearGradient id="a" gradientUnits="userSpaceOnUse" x1="7.92" x2="6.39" y1="9.13" y2="11.03"><stop offset="0" stop-color="#d0151c"/><stop offset="1" stop-color="#b61f24"/></linearGradient><linearGradient id="b" gradientUnits="userSpaceOnUse" x1="6.83" x2="4.24" y1="5.27" y2="8.18"><stop offset="0" stop-color="#cd171d"/><stop offset="1" stop-color="#a62628"/></linearGradient><linearGradient id="c" gradientUnits="userSpaceOnUse" x1="13.79" x2="8.23" y1="7.56" y2="13.88"><stop offset="0" stop-color="#dd1919"/><stop offset="1" stop-color="#a72327"/></linearGradient><linearGradient id="d" gradientUnits="userSpaceOnUse" x1="9.74" x2="5.97" y1="11.66" y2="12.87"><stop offset="0" stop-color="#6f2c30"/><stop offset="1" stop-color="#ca2321"/></linearGradient><linearGradient id="e" gradientUnits="userSpaceOnUse" x1="12.67" x2="12.67" y1="7.3" y2="13.04"><stop offset="0" stop-color="#d51c1f"/><stop offset="1" stop-color="#9f2529"/></linearGradient><linearGradient id="f" gradientUnits="userSpaceOnUse" x1="11.27" x2="12.54" y1="8.56" y2="9.86"><stop offset="0" stop-color="#e26b49"/><stop offset="1" stop-color="#d7111a"/></linearGradient><path d="m0 0h18v18h-18z" fill="#f0f3fa"/><circle cx="7.09" cy="10.04" fill="url(#a)" r="1.32"/><path d="m6.3 5c-2.3.2-2.53 3.84-2.15 5.44.15-2.23 1.1-2.7 1.8-3.04.67-.32 1.67-.15 1.66-1.26-.02-1-.88-1.17-1.3-1.14z" fill="url(#b)"/><path d="m7.97 12.94a2.76 2.76 0 0 1 -2.37-.3c.45.78 4.2 2.45 6.59.3a5.52 5.52 0 0 0 1.62-5.51c-3.16-.7-3.67 1.76-3.77 2.85-.11 1.1-.6 2.25-2.07 2.66z" fill="url(#c)"/><path d="m5.6 12.64c.3.24 1.19.64 2.37.3a2.71 2.71 0 0 0 2.01-2.26c.1.97-.23 2.35-1.88 3.2-1.26-.26-2.28-.85-2.5-1.24z" fill="url(#d)"/><path d="m11.34 7.68c.51.57 1.2 1.54 1.28 2.4a5.4 5.4 0 0 1 -.54 2.96l.11-.1a5.52 5.52 0 0 0 1.62-5.51c-1.12-.25-1.91-.1-2.47.25z" fill="url(#e)"/><path d="m13.47 7.97c-.98-.24-2.92-.04-2.84 2.68.67.04 2.17-.45 2.84-2.68z" fill="url(#f)"/></svg>