<svg height="18" width="18" xmlns="http://www.w3.org/2000/svg"><path d="m0 0h18v18h-18z" fill="#064157"/><g fill="#dbbd5b"><path d="m7.187 6.002h4.287c0 .348.099.939.148 1.119-.206-.09-.527-.117-.662-.12-.637 0-2.007-.003-2.397 0-.39.004-.567.321-.563.465.006.747.013 1.822 0 2.114s.337.401.47.42h.985c.316-.018.558-.287.545-.421v-.58h-.003a16.611 16.611 0 0 0 -.542 0c-.152.004-.355.081-.455.118v-1.118h2.197c-.173.207-.198.642-.197.788-.003 1.007-.007 3.12 0 3.526s.12.627.197.687h-1.323c.14-.184.108-.872.126-1.193v-1.223c-.193.346-.47.423-.65.416-.293.002-1.13.004-2.128 0-.999-.004-1.225-.67-1.213-1-.007-.734-.016-2.234 0-3.044.015-.81.791-.973 1.178-.954z"/><path d="m3 6.839v-.839h2.3c-.24.134-.295.622-.3.839v5.161c.562-.002 2.03-.004 2.892 0 .862.005 1.61-.415 1.876-.5a8.731 8.731 0 0 1 -.248 1.5h-6.52zm9-.119v-.72h2v.72s-.015 5.278 0 5.585v.695h-2v-6.281z"/></g></svg>