<svg height="18" viewBox="0 0 18 18" width="18" xmlns="http://www.w3.org/2000/svg"><path d="m0 0h18v18h-18z" fill="#f0f3fa"/><path d="m10 11.56h1v-4.56h-1zm-3 0h2.45v-.89h-1.45v-4.46h-1z" fill="#005288"/><path d="m13.96 3c-1.35 1.07-3.4 1.8-5.5 2.25-1.97.44-3.61.46-5.08.11-.18-.04-.38.34-.38.34.81.22 1.63.32 2.44.31.99 0 2.05-.12 3.14-.36a12.45 12.45 0 0 0 4.99-2.2s.58-.4.4-.44m-.01 11.99c-1.35-1.07-3.49-1.82-5.57-2.28a11.49 11.49 0 0 0 -5.14-.07c-.17.04-.25-.34-.25-.34a9.2 9.2 0 0 1 2.45-.3c.98 0 2.04.1 3.13.35 2.05.46 3.63 1.16 4.99 2.2 0 0 .58.4.4.43" fill="#717073"/></svg>