<svg height="18" width="18" xmlns="http://www.w3.org/2000/svg"><path d="m0 0h18v18h-18z" fill="#eeedea"/><g fill="#e4952c"><path d="m13 8.98c0 .55-.44 1.02-1.02 1.02a.99.99 0 0 1 -.98-1.02c0-.54.44-.98.98-.98a1 1 0 0 1 1.02.98z" fill-opacity=".9"/><path d="m16 8.98c0 .55-.44 1.02-1.02 1.02a.99.99 0 0 1 -.98-1.02c0-.54.44-.98.98-.98a1 1 0 0 1 1.02.98z"/><path d="m10 8.98a1 1 0 0 1 -.98 1.02c-.55 0-1.02-.44-1.02-1.02 0-.54.44-.98 1.02-.98a1 1 0 0 1 .98.98z" fill-opacity=".8"/><path d="m7 8.98a1 1 0 0 1 -.98 1.02c-.55 0-1.02-.44-1.02-1.02 0-.54.44-.98 1.02-.98a1 1 0 0 1 .98.98z" fill-opacity=".7"/><path d="m4 8.98a1 1 0 0 1 -.98 1.02c-.55 0-1.02-.44-1.02-1.02 0-.54.44-.98 1.02-.98a1 1 0 0 1 .98.98z" fill-opacity=".6"/></g></svg>