<svg height="18" viewBox="0 0 18 18" width="18" xmlns="http://www.w3.org/2000/svg"><path d="m0 0h18v18h-18z" fill="#f0f3fa"/><path d="m8.62 10h.76c.36-.67.73-1.36.78-1.48.5-1 .13-2.18-.24-2.97-.3-.65-.74-1.3-.88-1.49l-.04-.06-.04.06c-.14.2-.58.84-.88 1.5-.37.78-.74 1.97-.24 2.96.05.12.42.8.78 1.48zm1.54 0 .6-1.14c.26-.5.8-.86 1.44-.86h3.8l-.6 1.14c-.27.5-.81.86-1.44.86zm0 1h1.3a1 1 0 0 1 .85.43l.35.57h-1.3a1 1 0 0 1 -.85-.43zm-1.6 0h.89c.05.09.15.25.21.39.28.55.12.93-.09 1.46l-.04.11-.5 1-.03.04-.03-.05a16.07 16.07 0 0 1 -.54-1.1c-.21-.53-.37-.92-.1-1.46l.22-.39zm-2.76-3h-3.8l.6 1.14c.27.5.81.86 1.44.86h3.8l-.6-1.14a1.63 1.63 0 0 0 -1.44-.86zm-.46 4 .35-.57a1 1 0 0 1 .85-.43h1.3l-.35.57a1 1 0 0 1 -.85.43z"/></svg>