<svg height="18" viewBox="0 0 18 18" width="18" xmlns="http://www.w3.org/2000/svg" xmlns:xlink="http://www.w3.org/1999/xlink"><linearGradient id="a"><stop offset=".24" stop-color="#231f20"/><stop offset=".54" stop-color="#fff"/></linearGradient><linearGradient id="b" gradientUnits="userSpaceOnUse" x1="15.68" x2="7.14" xlink:href="#a" y1="11.96" y2="11.48"/><linearGradient id="c" gradientUnits="userSpaceOnUse" x1="11.82" x2="11.36" xlink:href="#a" y1="15.7" y2="6.93"/><linearGradient id="d" gradientUnits="userSpaceOnUse" x1="5.32" x2="10.42" y1="10.42" y2="5.31"><stop offset=".04" stop-color="#231f20"/><stop offset=".06" stop-color="#393536"/><stop offset=".12" stop-color="#6d6a6b"/><stop offset=".25" stop-color="#bebdbd"/><stop offset=".38" stop-color="#efefef"/><stop offset=".44" stop-color="#fbfbfb"/><stop offset=".5" stop-color="#fff"/><stop offset=".57" stop-color="#fbfbfb"/><stop offset=".63" stop-color="#efefef"/><stop offset=".76" stop-color="#c0bfbf"/><stop offset=".82" stop-color="#9d9b9b"/><stop offset=".88" stop-color="#716e6f"/><stop offset=".94" stop-color="#3e3b3c"/><stop offset=".97" stop-color="#231f20"/></linearGradient><path d="m18 0h-18v18h18z" fill="#f0f3fa"/><path d="m11.54 7.88a3.61 3.61 0 0 0 -4.68-3.4 5.01 5.01 0 0 0 -2.38 2.38 3.6 3.6 0 0 0 1.74 4.25c.5.26 1.03.45 1.59.46l1.22-.02a2.54 2.54 0 1 1 2.51-2.55z" fill="#00ab57"/><path d="m10.15 11.6-.26-.05h-2.04a3.72 3.72 0 0 1 -2.87-1.52 3.61 3.61 0 0 1 -.5-3.17 5 5 0 0 0 4.08 7.12l4.74.02a5.37 5.37 0 0 0 -3.15-2.4z" fill="#00b2ba"/><path d="m14 9a5 5 0 0 0 -7.14-4.52 3.6 3.6 0 0 1 4.68 3.4v1.79c0 .08 0 .16.02.24.1.5.55 2.1 2.44 3.32z" fill="#d3df4e"/><path d="m13.37 6.56a5.18 5.18 0 0 0 -1.3-1.5c.16.2.3.41.43.64.39.7.48 1.48.5 2.28v4.45c.32.33.61.55 1 .8v-4.24c0-.85-.23-1.68-.63-2.43z" fill="url(#b)" opacity=".4"/><path d="m11.63 13h-3.39c-.68 0-1.35 0-1.99-.23-.42-.17-.82-.4-1.18-.7h-.01a5.04 5.04 0 0 0 3.5 1.9h.17l.38.03h4.19c-.26-.4-.47-.68-.8-1z" fill="url(#c)" opacity=".4"/><path d="m11.54 7.88a3.61 3.61 0 0 0 -4.68-3.4 5.01 5.01 0 0 0 -2.38 2.38 3.6 3.6 0 0 0 3.3 4.68l1.24.02a2.62 2.62 0 0 1 -2.37-1.6 2.54 2.54 0 1 1 4.89-.96z" fill="url(#d)" opacity=".4"/></svg>