<svg height="18" viewBox="0 0 18 18" width="18" xmlns="http://www.w3.org/2000/svg"><path d="m0 0h18v18h-18z" fill="#f0f3fa"/><path d="m11.67 6.73v-.8c0-.14.1-.26.25-.26h.83c.14 0 .25.12.25.26v.8c0 .15-.11.27-.25.27h-.83a.26.26 0 0 1 -.25-.27zm0 4.17v-3.32c0-.14.1-.25.25-.25h.83c.14 0 .25.11.25.25v4.2c0 .12-.1.22-.22.22a1.1 1.1 0 0 1 -1.11-1.1zm-6.67-4.6v3.84c0 .97.8 1.86 1.79 1.86h4.28c.14 0 .26-.11.26-.25v-.83a.26.26 0 0 0 -.26-.25h-3.86c-.43 0-.88-.34-.88-.76v-3.61c0-.14-.1-.29-.25-.29h-.82c-.16-.01-.26.14-.26.29z" fill="#012c99"/><path d="m13.67 4.33h-9.34v9.34h9.34zm-9.67-.33v10h10v-10z" fill="#46525e" fill-rule="evenodd"/></svg>