<svg height="18" viewBox="0 0 18 18" width="18" xmlns="http://www.w3.org/2000/svg"><path d="m0 0h18v18h-18z" fill="#f0f3fa"/><path d="m4.66 11.5a5.07 5.07 0 0 0 4.04 2.5v-1.18l-3.13-1.81v-3.64l-1.05-.59a5.06 5.06 0 0 0 .15 4.73z" fill="#14487f"/><path d="m9.31 14a5.06 5.06 0 0 0 4.03-2.5c.83-1.43.88-3.23.15-4.72l-1.05.59v3.63l-3.14 1.83v1.17z" fill="#7cafd4"/><path d="m9 4c-1.66 0-3.25.85-4.17 2.23l1.02.6 3.15-1.83 3.15 1.82 1.02-.59a5.06 5.06 0 0 0 -4.17-2.23z" fill="#d62027"/><path d="m7.24 8.35-1.05-.62v2.91l2.5 1.45v-1.24a1.88 1.88 0 0 1 -1.45-2.5z" fill="#14487f"/><path d="m9.31 10.85a1.88 1.88 0 0 0 1.45-2.5l1.05-.62v2.91l-2.5 1.46z" fill="#7cafd4"/><path d="m7.55 7.8a1.87 1.87 0 0 1 2.9 0l1.07-.61-2.52-1.46-2.52 1.47 1.07.62z" fill="#d62027"/></svg>