<svg height="18" width="18" xmlns="http://www.w3.org/2000/svg"><path d="m0 0h18v18h-18z" fill="#0193d0"/><path d="m4 4h8.182c1.004 0 1.818.814 1.818 1.818v8.182h-8.182a1.818 1.818 0 0 1 -1.818-1.818z" fill="#fff"/><g fill="#0193d0"><path d="m5 7.889v-3.889h.515v3.889c0 1.898.073 1.902 2.727 3.384 2.195 1.225 4.341 2.055 5.758 2.727h-3.129c-1.69-1.002-4.121-2.25-5.371-3.5-.644-.644-.5-2.223-.5-2.611z"/><path d="m6 7.889v-3.889h.5v3.889c0 .215-.071.65.304.896.636.416 4.88 1.82 7.196 2.516v1.41c-2.107-.838-6.62-2.736-7.321-3.128-.791-.443-.679-1.139-.679-1.694z"/></g></svg>