<svg height="18" viewBox="0 0 18 18" width="18" xmlns="http://www.w3.org/2000/svg"><path d="m0 0h18v18h-18z" fill="#f0f3fa"/><path d="m9 14a5 5 0 1 0 0-10 5 5 0 0 0 0 10zm-2-8a9.64 9.64 0 0 0 1.37.07c.7-.02 2.05-.07 2.63.93a7.1 7.1 0 0 0 -1.73-.13c-1.03 0-1.8-.15-2.27-.87zm.7 2.58c-.69 0-1.42-.05-1.7-.08.7.72 1.86.87 3.4.87 1.56 0 2.4.08 2.6.13-.86-1-2.9-.95-3.95-.93h-.35zm-1.7 2.42a21.55 21.55 0 0 0 2.05.07c1.05-.02 3.09-.07 3.95.93-.2-.05-1.04-.13-2.6-.13-1.54 0-2.7-.15-3.4-.87z" fill="#005cb9" fill-rule="evenodd"/></svg>