<svg height="18" width="18" xmlns="http://www.w3.org/2000/svg"><path d="m0 0h18v18h-18z" fill="#f0f3fa"/><path d="m8.58 10h-1.856l-1.227 3h4.194v-1.944c.03-.6-.511-1.056-1.111-1.056.029 0 .029 0 0 0zm.142-5h-2.34c-.713 0-1.398.485-1.626 1.17l-1.456 3.83h3.425z" fill="#f26722"/><path d="m9.72 8h1.855l1.256-3h-4.11v2.001c0 .6.372.999 1 .999zm0 5h2.255c.714 0 1.399-.485 1.627-1.17l1.398-3.83h-3.424z" fill="#ed145b"/><path d="m15 8-2.17-3-1.255 3z" fill="#cd163f"/><path d="m3.3 10 2.2 3 1.225-3z" fill="#e82c2a"/></svg>