<svg height="18" viewBox="0 0 18 18" width="18" xmlns="http://www.w3.org/2000/svg"><path d="m0 0h18v18h-18z" fill="#f0f3fa"/><path d="m9.14 3h-.31c-.13.03-.26.04-.39.08-2.2.71-1.74 3.88.57 3.92h.84c.52 0 1.27.18 1.43.7.04.13.06.32.05.58v1.56c0 .76-.72 1.16-1.48 1.16h-.25c-.37 0-.77-.01-1.07.06a2 2 0 0 0 -1.49 2.39c.22.87.91 1.45 1.81 1.55h.28a2.02 2.02 0 0 0 1.87-1.9v-.45c0-.32-.02-.68.05-.93.22-.76.93-.74 1.6-.73.24 0 .47.01.68-.02.92-.15 1.58-.9 1.67-1.84v-.26a2.02 2.02 0 0 0 -1.52-1.8c-.3-.08-.7-.08-1.07-.07h-.25c-.74-0-1.16-.39-1.16-1.14v-.27c.01-.32.02-.67-.03-.93a2.02 2.02 0 0 0 -1.83-1.66zm-6.14 5.86v.25a2 2 0 1 0 0-.25z" fill="#f82790"/></svg>