<svg height="18" width="18" xmlns="http://www.w3.org/2000/svg"><path d="m0 0h18v18h-18z" fill="#2a343d"/><path d="m5.17 6.22c-.04-.15-.07-.22-.2-.22h-1.89l-.02.01-.01.02h-.01s0 .02-.02.02v.02l-.02.02v.04l.01.07.03.1 1.04 3.35.02.02.82 2.61c.14.38.43.72.89.72l.73-2.4c-.6-1.87-1.32-4.2-1.37-4.38zm4.91-.08c0-.04-.07-.1-.1-.14.08.04.07.2.04.26-.1.31-.57 1.9-1.03 3.34l.01.04.01.02.82 2.62c.15.38.46.72.92.72l.37-1.26.29-.94.06-.2z" fill="#fff"/><path d="m14.99 6.11v-.01l-.01-.02-.02-.02v-.01l-.02-.01-.01-.02h-1.91c-.13 0-.16.07-.2.2-.05.19-.77 2.54-1.36 4.42l-.06.2c-.11.35-.2.67-.3.95l-.36 1.21h1.46c.46 0 .76-.31.9-.69.03-.1.42-1.31.81-2.61l.02-.02 1.04-3.37a.28.28 0 0 0 .03-.1l.01-.06-.01-.04zm-5.03-.11h-1.86c-.14.01-.17.08-.2.22l-1.37 4.4-.73 2.38h1.47c.46 0 .75-.31.9-.69l.82-2.61.01-.02 1.05-3.37c.03-.08.06-.3-.09-.3z" fill="#f00843"/></svg>