<svg height="18" viewBox="0 0 18 18" width="18" xmlns="http://www.w3.org/2000/svg"><path d="m0 0h18v18h-18z" fill="#f0f3fa"/><g fill="#e10186"><path d="m10 7.61v-.61c.66-.01 1.36.15 1.96.4.5.2 1 .53 1.39 1.04.39.5.65 1.18.65 2.06a3.2 3.2 0 0 1 -2.03 3.06c-.63.27-1.3.42-1.97.44v-.58a4.78 4.78 0 0 0 1.72-.41c.43-.2.85-.47 1.15-.87s.52-.92.52-1.64c0-.76-.21-1.3-.52-1.7-.3-.4-.71-.67-1.14-.85a4.5 4.5 0 0 0 -1.73-.34z"/><path d="m10 8.3a2.92 2.92 0 0 1 1.17.25c.3.14.6.35.84.68s.38.77.38 1.32c0 .54-.14.96-.38 1.28-.23.33-.54.54-.83.68-.37.17-.78.28-1.18.29v-.6c.32-.02.64-.1.92-.24.23-.1.45-.26.6-.48.16-.22.27-.51.27-.93 0-.44-.11-.75-.27-.97a1.46 1.46 0 0 0 -.6-.48 2.32 2.32 0 0 0 -.92-.2z"/><path d="m10.43 9.85c.22.14.4.4.4.82 0 .41-.19.67-.41.8a.89.89 0 0 1 -.4.12h-.02l-.01-.3v-1.58c.09 0 .24.02.43.14z"/></g><path d="m6 6.83v4.17h.6v-4.58c0-.28 0-.55-.07-.8-.1-.3-.27-.55-.58-.73-.24-.13-.6-.22-.95-.22-.2 0-.5.18-.5.42 0 .92.57 1.6 1.5 1.74zm.04-.6a1 1 0 0 1 -.52-.21c-.13-.11-.37-.4-.38-.76.24.02.56.2.68.34.12.15.2.36.22.63zm3.4.59v4.18h-.6v-4.56c0-.28-.01-.55.07-.8.1-.3.27-.55.58-.73.23-.13.58-.21.92-.21.2 0 .43.17.43.4 0 .91-.49 1.57-1.4 1.72zm-.04-.58a1 1 0 0 0 .51-.2c.14-.12.37-.4.39-.76-.25.02-.56.2-.68.34s-.2.35-.22.62z" fill="#4ca729"/><path d="m9.5 12.5h-3.5v-1h3.5zm0 1.5h-3.5v-1h3.5z" fill="#5db3e7"/><path d="m6.84 4.3c0-.43.17-.85.5-1.13.1-.09.23-.17.36-.17s.25.08.35.16c.33.28.55.7.55 1.15 0 .43-.19.89-.6 1.06v5.63h-.6v-5.63c-.38-.2-.56-.64-.56-1.06zm.86-.66c-.14.17-.25.47-.25.67 0 .19.1.37.26.49.16-.1.24-.3.24-.5s-.1-.5-.25-.66z" fill="#4ca729"/></svg>