<svg height="18" viewBox="0 0 18 18" width="18" xmlns="http://www.w3.org/2000/svg"><path d="m0 0h18v18h-18z" fill="#f0f3fa"/><path d="m8.97 8.27h-1.68c.04-.54-.23-.89-.84-.89-.88 0-1.5.65-1.7 1.71-.16 1.03.18 1.53.94 1.53.57 0 1.12-.27 1.32-.84h1.7a2.81 2.81 0 0 1 -1 1.5 3.24 3.24 0 0 1 -2.11.72 3 3 0 0 1 -1.5-.36 2.09 2.09 0 0 1 -.91-1.05 3.07 3.07 0 0 1 -.12-1.68c.12-.64.34-1.18.67-1.6a3.2 3.2 0 0 1 1.21-.98 3.6 3.6 0 0 1 1.51-.33c.4 0 .77.05 1.1.15.31.1.59.25.8.44.23.2.39.43.5.71.1.28.14.6.1.97z" fill="#27bbeb"/><path d="m13.23 7.74a.7.7 0 0 1 .06.26h1.71a1.66 1.66 0 0 0 -.6-1.44 2.23 2.23 0 0 0 -.77-.41 3.73 3.73 0 0 0 -3.28.64 3.49 3.49 0 0 0 -1.29 2.21c-.1.62-.07 1.15.1 1.6.18.44.48.79.9 1.03a3.68 3.68 0 0 0 3.14 0v.37h1.13l.3-1.87c.08-.2.14-.43.18-.66l.14-.81h-2.75l-.27 1.34h1.14c-.08.49-.88.62-1.27.62a1.1 1.1 0 0 1 -.69-.2.9.9 0 0 1 -.32-.55c-.06-.25-.05-.54.01-.88s.17-.63.32-.87a1.58 1.58 0 0 1 1.7-.7c.1.03.18.07.25.13.07.05.12.11.16.2z" fill="#2a3024"/></svg>