<svg height="18" viewBox="0 0 18 18" width="18" xmlns="http://www.w3.org/2000/svg"><path d="m0 0h18v18h-18z" fill="#f0f3fa"/><path d="m12.08 5.93-1.61-.71c-.03-.02-.04-.04-.03-.08l.04-.11c.01-.03.03-.04.05-.02a6.2 6.2 0 0 0 2.3.62c.08 0 .15.05.19.13l.1.2c.01.03.04.06.07.07.03.02.07.02.1 0 .2-.06.4-.1.61-.12.12 0 .13.04.04.12l-1.2 1.05c-.08.07-.17.07-.24-.02-1.07-1.2-2.9 1.23-1.58 1.99.35.2.78-.19 1.03-.45.42-.43 1.07-.42 1.4.14.35.6.36 1.23.03 1.9a2.22 2.22 0 0 1 -2.2 1.36c-.77-.03-1.7-.37-2.14-1.15-.06-.11-.04-.14.07-.1.12.04.22.1.3.18.57.52 1.74.4 2.37.13.59-.26 1.48-1.34.8-2.05-.37-.38-.83-.04-1.12.27-.81.9-1.91-.08-1.84-1.2.08-1.35 1.35-2.05 2.44-2.01.23 0 .24-.04.02-.14z" fill="#e3462a"/><path d="m4 12v-.25l1.23-5.65.04-.07.07-.03h1.13c.06 0 .08.03.07.1l-1.04 4.75a.12.12 0 0 0 .02.1.1.1 0 0 0 .04.03.1.1 0 0 0 .04.01h2.9l.02.02.01.03v.03l-.19.84c0 .05-.04.08-.1.08h-4.24z" fill="#008c84"/></svg>