<svg height="18" viewBox="0 0 18 18" width="18" xmlns="http://www.w3.org/2000/svg"><path d="m0 0h18v18h-18z" fill="#f0f3fa"/><path d="m10 8.87v-4.17a.7.7 0 0 0 -.68-.7c-.38 0-.82.32-.82.7v4.17l.82 1.13z" fill="#30c462"/><path d="m10.94 9.22 2.4-4.26c.17-.3.07-.7-.23-.87a.61.61 0 0 0 -.85.23l-2.4 4.26v1.28z" fill="#d2e623"/><path d="m11.58 10.55 2.1-1.53c.3-.22.4-.7.24-1.07-.18-.38-.56-.51-.86-.3l-2.1 1.54-.63 1.36z" fill="#ffdb00"/><path d="m13.47 10.55h-2.55l-.92.73.92.72h2.55c.3 0 .53-.32.53-.72s-.24-.73-.53-.73z" fill="#f59b00"/><path d="m10.8 13.04 1.38.88a.5.5 0 0 0 .27.08c.2 0 .38-.1.48-.3.05-.1.08-.22.07-.33 0-.2-.1-.38-.27-.49l-1.39-.88h-1.09z" fill="#e80f17"/><path d="m6.76 10.55h-2.23c-.3 0-.53.33-.53.73s.24.72.53.72h2.23l.9-.72z" fill="#009bd7"/><path d="m7.3 9.38-3.47-2.29c-.27-.19-.6-.07-.76.25-.15.32-.06.74.2.93l3.48 2.28h1.1z" fill="#232396"/><path d="m8.5 8.5-1.06-2.12a.7.7 0 0 0 -.98-.27.76.76 0 0 0 -.27 1.02l1.1 2.22 1.21.65z" fill="#8c50a0"/></svg>