<svg height="18" viewBox="0 0 18 18" width="18" xmlns="http://www.w3.org/2000/svg" xmlns:xlink="http://www.w3.org/1999/xlink"><linearGradient id="a" gradientUnits="userSpaceOnUse" x1="9" x2="9" y1="0" y2="18"><stop offset="0" stop-color="#fe2c2d"/><stop offset="1" stop-color="#d42424"/></linearGradient><path d="m0 0h18v18h-18z" fill="url(#a)"/><path d="m9 14a5 5 0 1 0 0-10 5 5 0 0 0 0 10zm-1.95-5.4.46-.43a.97.97 0 0 0 -.07-.07c-.42-.44-1.19-.4-1.7.1s-.58 1.26-.15 1.7c.42.44 1.18.4 1.69-.1l-.34-.45c-.25.25-.62.27-.82.06s-.17-.58.07-.82c.25-.24.62-.26.82-.05l.04.05zm3.06-.72-.37 2.22h.7l.27-1.42a.33.33 0 0 1 .65.12l-.24 1.27.74.03.22-1.38a.37.37 0 1 1 .73.12l-.24 1.26h.72l.26-1.45c.04-.27-.12-.82-.64-.82-.51 0-.73.24-.85.37l-.02.03c-.02-.13-.15-.4-.53-.4-.48 0-.69.26-.79.4l.04-.35zm-4.88 2.08c-.14.2-.4.26-.6.13a.43.43 0 0 1 -.09-.6c.14-.2.4-.25.6-.12.18.13.23.4.09.6zm2.36-.06c.44.44 1.23.4 1.77-.1.53-.5.6-1.26.16-1.7s-1.23-.4-1.77.1c-.53.5-.6 1.26-.16 1.7zm.66-.38c.26.13.6-.02.76-.33.16-.3.07-.65-.18-.77-.26-.12-.6.03-.76.33s-.08.65.18.77z" fill="#fff" fill-rule="evenodd"/></svg>