<svg height="18" viewBox="0 0 18 18" width="18" xmlns="http://www.w3.org/2000/svg"><path d="m0 0h18v18h-18z" fill="#f0f3fa"/><path d="m10 8.05v-2.05h-7v7h7v-2.04h-.58v1.46h-5.84v-5.84h5.84v1.47z" fill="#bcd85f"/><path d="m4.9 7.52h.63v2.85h1.9l-.11.63h-2.43v-3.48zm6.94 0h1.88c.65 0 1.06.4 1.06.9 0 .3-.15.58-.41.68.33.1.63.42.63.86 0 .66-.49 1.04-1.32 1.04h-1.84zm1.7 1.27c.37 0 .51-.1.51-.32 0-.26-.22-.31-.5-.31h-1.08v.63zm-1.07 1.58h1.1c.32 0 .64-.13.64-.48 0-.27-.26-.47-.62-.47h-1.12zm-3.79-.32c.13.22.38.36.9.36.57 0 .73-.16.73-.38 0-.23-.17-.38-.93-.5-1.27-.2-1.47-.59-1.47-1 0-.67.67-1 1.53-1 1.08 0 1.53.55 1.58.94h-.84c-.06-.16-.2-.36-.77-.36-.41 0-.73.14-.73.36 0 .2.25.32.94.43 1.17.19 1.43.72 1.43 1.05 0 .58-.34 1.05-1.55 1.05-1.06 0-1.58-.4-1.73-.95z" fill="#02508d"/></svg>