<svg height="18" viewBox="0 0 18 18" width="18" xmlns="http://www.w3.org/2000/svg"><path d="m0 0h18v18h-18z" fill="#ff9c75"/><path d="m10.56 4-1.14 1.5h-1.31l-1.14 1.5h-1.27l-1.52 2h1.45l1.06-1.5h1.34l1.07-1.5h1.39l1.42-2zm-.18 2.19-1.28 1.56h-1.18l-1.26 1.56h-1.14l-1.52 1.89h1.45l1.18-1.57h1.22l1.19-1.56h1.27l1.42-1.87h-1.35zm1.12 2.31 1.15-1.5h1.35l-1.42 2h1.29l-1.43 2h-1.38l-1.07 1.5h-1.34l-1.07 1.5h-1.44l1.52-2h-1.39l1.52-2h1.27l1.14-1.5h1.31zm-3.79 3.5h1.21l1.14-1.5h-1.28l-1.06 1.5zm2.41-1.5h1.26l1.14-1.5h-1.33z" fill="#fff"/></svg>