<svg height="18" viewBox="0 0 18 18" width="18" xmlns="http://www.w3.org/2000/svg"><path d="m0 0h18v18h-18z" fill="#f0f3fa"/><circle cx="9" cy="6" fill="#ffca37" r="3"/><circle cx="9" cy="12" fill="#8385c0" r="3"/><circle cx="6" cy="9" fill="#e31937" r="3"/><circle cx="12" cy="9" fill="#04a6e1" r="3"/><path d="m12 6a3 3 0 0 1 -3 3 3 3 0 0 1 3-3z" fill="#a88ca9"/><path d="m6 12a3 3 0 0 1 3-3 3 3 0 0 1 -3 3z" fill="#8c469a"/><path d="m9 9a3 3 0 0 1 -3-3 3 3 0 0 1 3 3z" fill="#f57e20"/><path d="m12 12a3 3 0 0 1 -3-3 3 3 0 0 1 3 3z" fill="#645aa6"/></svg>