<svg height="18" viewBox="0 0 18 18" width="18" xmlns="http://www.w3.org/2000/svg"><path d="m0 0h18v18h-18z" fill="#f0f3fa"/><path d="m8.56 7.58.2.54.12-.02-.02-.58c-.02-.86-.06-2.08-.2-2.94-.1-.48-.35-1.67-.84-1.57h-.02c-.5.1-.28 1.3-.17 1.78.2.84.63 1.99.93 2.79zm.58 2.9-.02-.58.12-.02.2.54c.3.8.74 1.95.93 2.8.1.47.33 1.67-.17 1.77h-.02c-.5.1-.75-1.1-.83-1.57-.15-.86-.19-2.09-.21-2.94zm-1.1-2.63a23.9 23.9 0 0 1 -1.92-2.22c-.28-.4-.94-1.42-.52-1.7l.02-.02c.41-.28 1.1.73 1.37 1.14.46.73.96 1.85 1.32 2.63l.23.53-.1.07zm1.66 2.47-.25-.53.1-.07.4.43a23.9 23.9 0 0 1 1.93 2.22c.28.4.94 1.42.52 1.7l-.02.02c-.41.28-1.1-.73-1.37-1.14-.46-.73-.96-1.85-1.31-2.63zm-2.01-2.02c-.79-.36-1.9-.86-2.64-1.32-.4-.26-1.42-.96-1.14-1.37l.02-.02c.28-.42 1.3.24 1.7.52.7.5 1.6 1.34 2.22 1.93l.43.4-.07.1a48.2 48.2 0 0 0 -.52-.24zm2.46 1.64-.43-.4.07-.1.53.24c.78.36 1.9.86 2.63 1.32.4.26 1.42.96 1.14 1.37l-.02.02c-.28.42-1.3-.24-1.7-.52-.7-.5-1.6-1.34-2.22-1.93zm-2.05-1.06-.58-.02c-.86-.02-2.09-.06-2.94-.2-.48-.1-1.67-.35-1.57-.84v-.02c.1-.5 1.3-.28 1.78-.17.84.2 1.98.63 2.78.93l.55.2zm2.32.56-.54-.2.02-.12.58.02c.86.02 2.09.06 2.94.2.48.1 1.67.35 1.57.84v.02c-.1.5-1.3.28-1.78.17a23.9 23.9 0 0 1 -2.79-.93zm-2.3-.2-.54.2c-.8.3-1.95.74-2.8.93-.47.1-1.67.33-1.77-.17v-.02c-.1-.5 1.1-.75 1.57-.83.86-.15 2.08-.19 2.94-.21l.58-.02zm2.36-.38-.58.02-.02-.12.54-.2c.8-.3 1.95-.74 2.8-.93.47-.1 1.67-.33 1.77.17v.02c.1.5-1.1.75-1.57.83-.86.15-2.08.19-2.94.21zm-2.2.7-.43.39c-.62.59-1.51 1.43-2.22 1.93-.4.28-1.42.94-1.7.52l-.02-.02c-.28-.41.73-1.1 1.14-1.37a23.94 23.94 0 0 1 3.16-1.56l.07.1zm2.04-1.26-.53.24-.07-.1.42-.39c.63-.59 1.52-1.43 2.23-1.93.4-.28 1.42-.94 1.7-.52l.02.02c.28.41-.73 1.1-1.14 1.37-.73.46-1.85.96-2.63 1.31zm-1.78 1.5-.23.53c-.36.78-.86 1.9-1.32 2.63-.26.4-.96 1.42-1.37 1.14l-.02-.02c-.42-.28.24-1.3.52-1.7.5-.7 1.34-1.6 1.93-2.22l.4-.43.1.07zm1.41-1.94-.4.43-.1-.07.25-.53c.35-.78.85-1.9 1.31-2.63.26-.4.96-1.42 1.37-1.14l.02.02c.42.28-.24 1.3-.52 1.7-.5.7-1.34 1.6-1.93 2.22zm-1.07 2.04-.02.58c-.02.85-.06 2.08-.2 2.94-.1.48-.35 1.67-.84 1.57h-.02c-.5-.1-.28-1.3-.17-1.78a24 24 0 0 1 .93-2.79l.2-.54zm.56-2.32-.2.54-.12-.02.02-.58c.02-.86.06-2.09.2-2.94.1-.48.35-1.67.84-1.57h.02c.5.1.28 1.3.17 1.78-.2.84-.63 1.99-.93 2.79z" fill="#b1911f"/></svg>