<svg height="18" viewBox="0 0 18 18" width="18" xmlns="http://www.w3.org/2000/svg" xmlns:xlink="http://www.w3.org/1999/xlink"><linearGradient id="a" gradientUnits="userSpaceOnUse" x1="8.24" x2="10.73" y1="3.49" y2="4.06"><stop offset="0" stop-color="#2f4a98"/><stop offset="1" stop-color="#3468af"/></linearGradient><linearGradient id="b" gradientUnits="userSpaceOnUse" x1="8.59" x2="7.01" y1="14.84" y2="13.62"><stop offset="0" stop-color="#bb2036"/><stop offset="1" stop-color="#d8120e"/></linearGradient><linearGradient id="c" gradientUnits="userSpaceOnUse" x1="10.63" x2="10.63" y1="14" y2="4.77"><stop offset="0" stop-color="#a61e38"/><stop offset="1" stop-color="#e31613"/></linearGradient><linearGradient id="d" gradientUnits="userSpaceOnUse" x1="4.55" x2="10.63" y1="10" y2="10.8"><stop offset="0" stop-color="#2d2d78"/><stop offset=".49" stop-color="#33b0e6"/><stop offset=".63" stop-color="#2fa9e2"/><stop offset="1" stop-color="#34569e"/></linearGradient><path d="m0 0h18v18h-18z" fill="#f0f3fa"/><path d="m7.76 3.63a4.2 4.2 0 0 1 2.36-.63c1.06.06 1.02.77.91 1a.64.64 0 0 1 -.63.4c-.42 0-.62-.17-.68-.33-.17-.41-.56-.92-1.96-.45zm2.28-.48h.08c.2.03.7.08.83.58 0 .05-.02.16-.1.15-.07-.02-.11-.14-.12-.2-.02-.11-.2-.38-.68-.53zm.08.78c.06.06.08.14.04.17s-.11 0-.17-.06c-.06-.07-.08-.14-.05-.17.04-.03.12 0 .18.06z" fill="url(#a)" fill-rule="evenodd"/><path d="m10.06 14.37c-.35.23-1.31.69-2.37.62-1.05-.06-1.01-.77-.91-1 .07-.16.22-.4.64-.4.41 0 .6.16.67.33.17.41.56.92 1.97.45zm-3.1-.2c-.03.03 0 .12.08.2.07.09.17.13.2.1.04-.03 0-.12-.07-.2-.08-.09-.17-.13-.2-.1z" fill="url(#b)"/><path d="m9.54 8.85c-.56-.12-.39.27-.24.47.08.07.25.37 0 .87-.23.48-.95.63-1.3.62-1.93-.18-2.32-1.93-2.28-2.78 0-2.74 2.3-3.83 3.45-4.03-3.57 0-5.1 2.76-5.17 5.03s1.75 4.29 4 4.2c2.25-.08 2.76-1.68 2.75-2.56-.02-.9-.52-1.68-1.21-1.82z" fill="#2d2d78"/><path d="m8.46 9c.56.12.39-.26.24-.47-.08-.07-.24-.52 0-.8.33-.42.83-.54 1.3-.54 1.93.18 2.32 1.93 2.28 2.78 0 2.74-2.3 3.83-3.45 4.03 3.57 0 5.1-2.76 5.17-5.03s-1.75-4.29-4-4.2c-2.25.08-2.76 1.68-2.75 2.56.02.9.52 1.53 1.21 1.67z" fill="url(#c)"/><path d="m9.6 9.02c-.34-.07-.2.12-.05.32.08.07.29.32.05.8-.23.46-.62.86-1.62.86a2.79 2.79 0 0 1 -2.6-2.8c0-1.14.19-2.31 1.83-3.53-2 1.15-2.6 2.09-2.66 4.28-.07 2.2 1.23 4.19 3.43 4.1 2.2-.07 2.66-1.55 2.65-2.4-.02-.87-.35-1.49-1.03-1.63z" fill="url(#d)"/><path d="m7.54 6.16c2.2-1.3 4.73-.15 5.72.6a3.72 3.72 0 0 0 -3.1-1.9 2.88 2.88 0 0 0 -2.62 1.3z" fill="#f4afa0"/><path d="m8.82 7.2c.17-.15.58-.39 1.17-.36.82.03 2.43.6 2.63 3.02a3.84 3.84 0 0 1 -1.93 3.57c.65-.47 1.93-1.83 1.8-3.57-.15-2-1.54-2.83-2.5-2.9-.66-.05-1.03.13-1.17.24z" fill="#f77d86"/></svg>