<svg height="18" viewBox="0 0 18 18" width="18" xmlns="http://www.w3.org/2000/svg"><path d="m14 6.5a5.3 5.3 0 0 0 -4.61-2.5 5.4 5.4 0 0 0 -4.65 2.51 4.92 4.92 0 0 0 -.47 4.19c.3.78.8 1.5 1.47 2.05a5.47 5.47 0 0 0 5.62.84 5.22 5.22 0 0 0 2.46-2c.04-.08.03-.12.08-.2-.9 1.44-2.72 2.14-4.46 2.18a5.24 5.24 0 0 1 -4.52-2.05 4.4 4.4 0 0 1 -.27-4.75c.93-1.54 2.7-2.31 4.53-2.34 1.85-.02 3.64.62 4.61 2.13.02.04.07.06.12.05.04 0 .08-.05.09-.09z" fill="#54bfa2"/><path d="m15 6.78a6.04 6.04 0 0 0 -5.24-3.78 6.55 6.55 0 0 0 -5.34 2.2 5.92 5.92 0 0 0 4 9.78 6.5 6.5 0 0 0 6.09-2.88.1.1 0 0 0 -.06-.1.11.11 0 0 0 -.06-.01c-.05 0-.08.01-.1.04a5.82 5.82 0 0 1 -8.54 1.72 5.98 5.98 0 0 1 -2.43-4.92 5.9 5.9 0 0 1 6.03-5.74 6.17 6.17 0 0 1 5.35 3.78.18.18 0 0 0 .3-.08z" fill="#dda020"/><path d="m13.54 6.64a5.8 5.8 0 0 0 -4.49-2.62 5.83 5.83 0 0 0 -3 .58 5.54 5.54 0 0 0 -2.25 2.02 5.24 5.24 0 0 0 .05 5.66 5.88 5.88 0 0 0 4.3 2.7 5.89 5.89 0 0 0 3.5-.75 5.54 5.54 0 0 0 2.33-2.62.14.14 0 0 0 -.18-.03 5.81 5.81 0 0 1 -9.34 1.46 5.16 5.16 0 0 1 -.98-5.3c.33-.82.85-1.54 1.52-2.14a5.76 5.76 0 0 1 2.37-1.23 6.1 6.1 0 0 1 6.15 2.27z" fill="#0097a4"/><path d="m8 6h.57v5.45h2.43v.55h-3z" fill="#4d5059"/></svg>