<svg height="18" viewBox="0 0 18 18" width="18" xmlns="http://www.w3.org/2000/svg"><path d="m0 0h18v18h-18z" fill="#f0f3fa"/><path d="m3.55 7c-.32 0-.55.26-.55.47v3.14c0 .22.2.4.44.4h5.04c.29 0 .52-.25.52-.5 0-.26-.18-.5-.52-.5h-4.08c-.17 0-.4-.13-.4-.28v-2.26c0-.22-.14-.47-.45-.47zm11.28.1c.2.15.23.56.07.74a4.77 4.77 0 0 1 -3.36 1.66 4.7 4.7 0 0 1 -3.44-1.66c-.16-.17-.14-.58.05-.74.19-.15.61-.13.78.05.67.7 1.49 1.38 2.57 1.35a3.6 3.6 0 0 0 2.57-1.35c.16-.17.56-.2.75-.05z" fill="#158f7b"/><circle cx="11.5" cy="10.5" fill="#69cc14" r=".5"/></svg>