<svg height="18" width="18" xmlns="http://www.w3.org/2000/svg"><path d="m0 0h18v18h-18z" fill="#5d524a"/><path d="m8.477 7.313-1.217-.313s-.695.469-.521.469h.695c0 .156.149.468.566.468v1.563l.477.313-.521.624-.696-.312v-1.25l-1.043-.938-.348.313.696.625v1.719l1.435.469v.937h2v-.938l1.433-.468v-1.719l.695-.625-.347-.313-1.044.938v1.25l-.695.313-.522-.626.48-.312v-1.563c.417 0 .564-.312.564-.468h.695c.174 0-.522-.469-.522-.469l-1.217.313v1.687h-1.043v-1.688zm-3.477 1.718c0-.156.522-.469.522-.469s0 1.094.173 1.407c.05.089-.695-.469-.695-.625v-.314zm8 0c0-.156-.522-.469-.522-.469s0 1.094-.173 1.407c-.05.089.695-.469.695-.625v-.314zm.045-5.031h-3.12l4.121 4.039v-3.037zm0 10.039h-3.12l4.121-4.039v3.037zm-8.044-10.039h3.12l-4.121 4.039v-3.037l1-1.002zm0 10.039h3.12l-4.121-4.039v3.037l1 1.003z" fill="#fff"/></svg>