<svg height="18" width="18" xmlns="http://www.w3.org/2000/svg"><path d="m0 0h18v18h-18z" fill="#f36f3f"/><g fill="#fff"><path d="m9.327 5.335c-.757 1.821-3.127 5.193-4.265 6.415a4.264 4.264 0 0 0 -.14.144 5.011 5.011 0 0 1 -.29-.458c.038-.038.077-.08.118-.123.765-.813 2.625-4.688 3.25-7.127l.031-.093a5.025 5.025 0 0 1 1.919-.003c-.18.273-.385.675-.622 1.245z"/><path d="m5.368 12.436a5.055 5.055 0 0 1 -.29-.334c.06-.05.126-.108.197-.17.912-.807 3.537-4.057 4.912-6.87l.419-.798c.453.153.877.37 1.26.639-.283.368-.75 1.17-1.028 1.624-1.026 1.685-3.275 4.32-5.191 5.691a4.325 4.325 0 0 0 -.28.218z"/><path d="m5.54 12.61c.151.145.312.28.48.405 1.384-.797 3.646-2.442 5.668-5.001.35-.444 1.12-1.46 1.464-1.801a5.03 5.03 0 0 0 -.78-.905l-.684 1.005c-2.688 3.875-4.834 5.458-5.859 6.117-.108.07-.204.129-.289.18z"/><path d="m6.717 13.45a4.953 4.953 0 0 1 -.403-.232c2.888-1.482 5.162-3.924 7.179-6.415.154.315.277.65.362.998-.186.172-.49.507-.837.89-1.738 1.92-3.799 3.853-6.268 4.746a3.093 3.093 0 0 0 -.033.013z"/><path d="m7.196 13.665a5 5 0 0 0 6.787-5.074l-.796.819c-2.632 2.598-4.83 3.874-5.99 4.255zm-2.695-2.48c.813-1.46 2.25-4.311 2.686-6.56.022-.11.043-.213.065-.31a5.002 5.002 0 0 0 -2.75 6.87z"/></g></svg>