<svg height="18" width="18" xmlns="http://www.w3.org/2000/svg"><path d="m0 0h18v18h-18z" fill="#0d3869"/><g fill="#fff"><path d="m3 7.794v5.206h.756v-2.62c.545.9 1.61 1.211 2.078 1.254v1.366h.735v-1.48c.428-.096.829-.321 1.618-.883.63-.45 1.555-1.462 1.938-1.912l-.401-.37c-.481-.386-2.86-2.828-4.799-2.908-1.55-.063-1.93 1.538-1.925 2.347z"/><path d="m15 6.394v6.606h-.75v-4.414c-.87 1.15-1.757 1.798-2.071 1.978v2.436h-.74v-1.826c-.85.618-1.73.737-2.064.719v1.107h-.75v-1.305c-.49-.086-.826-.527-.926-.737l.48-.305c1.3 1.294 3.26-.234 4.068-.845.808-.61 1.864-2.062 2.068-2.616.185-.504.285-1.597-.672-1.471-.767.1-2.717 2.212-3.535 3.08l-.583-.215 2.573-2.641c2.19-1.898 2.847-.492 2.902.449z"/><path d="m7.76 6.149c-1.458 1.48-.322 3.575.437 4.44l-.524.305c-.829-.979-1.036-2.415-1.036-3.01-.014-.29.053-1.014.428-1.594.47-.724 1.215-1.127 2.858-.612 1.315.412 2.794 2.115 3.37 2.914.446.58 1.156 1.877.427 2.431s-1.997-.177-2.54-.612l-1.657-1.271.4-.547.221.21c2.264 2.021 3.125 1.862 3.272 1.529-.018-.483-.491-1.823-2.236-3.316-1.746-1.494-2.993-1.256-3.42-.866z"/></g><path d="m3.99 6.831c.592-1.016 2.056-.27 2.715.23-.173 1.555.276 2.832.522 3.276-1.519.906-2.612.02-2.969-.536-.336-.566-.859-1.953-.268-2.97zm5.187 2.082-2.077-1.623c-.306.873.484 2.77.637 2.756.123-.013 1.011-.76 1.44-1.133zm-.946 1.723 1.424-1.32 1.561 1.2c-1.678 1.092-2.69.535-2.985.12zm4.099-.179.932-.807c.164.27.395.83 0 .922a1.475 1.475 0 0 1 -.933-.115z" fill="#0d3869"/></svg>