<svg height="18" viewBox="0 0 18 18" width="18" xmlns="http://www.w3.org/2000/svg"><path d="m0 0h18v18h-18z" fill="#f0f3fa"/><path d="m9 15a6 6 0 1 0 0-12 6 6 0 0 0 0 12zm0-.7a5.3 5.3 0 1 0 0-10.6 5.3 5.3 0 0 0 0 10.6z" fill="#3e677d" fill-rule="evenodd"/><path d="m6.24 6.02a.44.44 0 0 1 .42.08l2.34 1.8-.5.42-1.83-1.5v4.86c0 .18-.12.32-.34.32-.21 0-.33-.14-.33-.32v-5.36c0-.13.1-.25.24-.3zm5.06 1.62v4.03c0 .18.15.33.35.33s.35-.15.35-.33v-4.67z" fill="#3e677d"/><path d="m11.9 6.1c.13.12.13.32 0 .45l-2.45 2.31c.47.47 1.15.96 1.15 1.67 0 .76-.82 1.47-1.6 1.47-.9 0-1.6-.72-1.6-1.47 0-.48.36-.96.71-1.28l3.31-3.16a.35.35 0 0 1 .48 0zm-2.9 3.16c-.37.35-1 .72-1 1.26 0 .4.48.92 1 .92.4 0 1-.51 1-.92 0-.5-.67-.93-1-1.26z" fill="#58bcc0"/></svg>