<svg height="18" viewBox="0 0 18 18" width="18" xmlns="http://www.w3.org/2000/svg"><path d="m0 0h18v18h-18z" fill="#f0f3fa"/><path d="m9 3.5a5.5 5.5 0 1 0 0 11 5.5 5.5 0 0 0 0-11zm-6 5.5a6 6 0 1 1 12 0 6 6 0 0 1 -12 0z" fill="#00a69c"/><path d="m8.83 6.68c-.47-.33-1.61-1.98-1.55-2.68h3.39c-.1.6-.6 2.07-1.84 2.68zm.34 0a3.1 3.1 0 0 1 1.6 2.35c.11 1.3-1.02 2.16-1.6 2.43a6.48 6.48 0 0 1 1.27 2.54h-3.31c.05-.52.44-1.9 1.55-2.54-.42-.52-1.25-1.74-1.22-2.43.05-.87 1.3-2.22 1.7-2.36z" fill="#00a69c" opacity=".7"/><path d="m10.14 4c0 .15-.08.65-.31 1.08-.23.42-.57.84-1.05 1.14-1.58.98-1.85 2.17-1.85 2.8 0 .23.02.6.19 1.02s.48.88 1.02 1.34l.65-.76c-.43-.36-.64-.7-.74-.95-.1-.26-.12-.48-.12-.64 0-.32.12-1.17 1.38-1.96.66-.4 1.11-.98 1.4-1.52.28-.52.43-1.19.43-1.55zm-1.09 8.12c.14.14.37.44.57.78.21.36.33.88.33 1.1h1c0-.5-.23-1.2-.46-1.6-.24-.4-.52-.76-.7-.96z" fill="#d92c3c"/></svg>