<svg height="18" viewBox="0 0 18 18" width="18" xmlns="http://www.w3.org/2000/svg"><path d="m0 0h18v18h-18z" fill="#f0f3fa"/><path d="m7.1 9.49c.16.52.45 1.09.78 1.5.38.48.95.9 1.6 1.1.55.07.87-.05 1.14-.5.92-1.59.35-4.07-1.17-5.18-.3-.21-.7-.43-1.15-.49-.36 0-.47.03-.63.16-.27.2-.45.5-.55.82-.3.83-.22 1.93-.02 2.59zm-2.31-2.45a3.73 3.73 0 0 0 -.76 1.9c-.07.7 0 1.5.15 2.12.11.6.52 1.3.85 1.74.6.76 1.5 1.2 2.58 1.2.87 0 1.64-.4 2.28-1.08.36-.45.47-.53 1.06-.61a3.3 3.3 0 0 0 1.7-.8c.54-.47 1.01-1.26 1.2-2.05.2-.88.2-1.88-.02-2.77a4.36 4.36 0 0 0 -.74-1.51 3.1 3.1 0 0 0 -2.22-1.18 4.2 4.2 0 0 0 -1.68.23c-.4.15-.79.4-1.06.76-.45.58-.65.58-1.26.65a3.4 3.4 0 0 0 -2.08 1.4z" fill="#3778bc" fill-rule="evenodd"/></svg>