<svg height="18" viewBox="0 0 18 18" width="18" xmlns="http://www.w3.org/2000/svg"><path d="m0 0h18v18h-18z" fill="#dd1e20"/><path d="m9 15a6 6 0 1 0 0-12 6 6 0 0 0 0 12zm-3.58-4c-.22 0-.42-.15-.42-.34v-3.32c0-.19.2-.34.42-.34h6.38c.66 0 1.2.46 1.2 1.02v2.64c0 .19-.18.34-.4.34h-.77c-.22 0-.33-.15-.33-.34v-1.95c0-.18-.24-.21-.46-.21h-.67c-.22 0-.37.03-.37.21v1.95c0 .19-.08.34-.3.34h-1.38c-.22 0-.32-.15-.32-.34v-1.95c0-.18-.13-.21-.35-.21h-.81c-.22 0-.34.03-.34.21v1.95c0 .19-.3.34-.52.34z" fill="#fff"/></svg>