<svg height="18" viewBox="0 0 18 18" width="18" xmlns="http://www.w3.org/2000/svg"><path d="m0 0h18v18h-18z" fill="#f0f3fa"/><path d="m5 6.02v6.98h1v-6.68a1.8 1.8 0 0 1 1.4-.63c1.32 0 1.6 1.2 1.6 1.8v5.51h2v-.4h-.4a.6.6 0 0 1 -.6-.6v-4.52c0-.4-.06-.76-.19-1.08.32-.4.8-.72 1.48-.72 1.3 0 1.71 1.2 1.71 1.8v5.52h2v-.4h-.53c-.34 0-.47-.27-.47-.6v-4.52c0-1.51-1.05-2.48-2.55-2.48-.8 0-1.44.52-1.83 1.02-.42-.65-1.12-1.02-2.06-1.02-.67 0-1.2.33-1.56.7v-.7h-2v.4h.3c.4 0 .7.28.7.62z" fill="#007362"/></svg>