<svg height="18" viewBox="0 0 18 18" width="18" xmlns="http://www.w3.org/2000/svg" xmlns:xlink="http://www.w3.org/1999/xlink"><linearGradient id="a" gradientUnits="userSpaceOnUse" x1="3.35" x2="21.9" y1="3.12" y2="24.43"><stop offset="0" stop-color="#1a1e21"/><stop offset="1" stop-color="#06060a"/></linearGradient><linearGradient id="b" gradientUnits="userSpaceOnUse" x1="2.73" x2="10.66" y1="9.23" y2="8.18"><stop offset=".24" stop-color="#f37739"/><stop offset=".45" stop-color="#fee534"/><stop offset=".6" stop-color="#fecb34"/><stop offset=".79" stop-color="#ff9934"/></linearGradient><linearGradient id="c" gradientUnits="userSpaceOnUse" x1="3.91" x2="9.08" y1="11.05" y2="10.18"><stop offset=".13" stop-color="#194d86"/><stop offset=".65" stop-color="#6cc7f3"/></linearGradient><path d="m0 0h18v18h-18z" fill="url(#a)"/><path d="m3.85 7.2h5.58l-.73 1.4h-5.2c.05-.46.17-.98.35-1.4z" fill="url(#b)"/><path d="m4.38 9.4h4.08l-.71 1.4h-3.01c-.2-.4-.36-.94-.36-1.4z" fill="url(#c)"/><path d="m4.88 11.4c.7 1.6 2.3 2.6 4.16 2.6 1.87 0 3.5-1 4.2-2.6h-8.37z" fill="#104180"/><path d="m8.08 4c1.68 0 3.41.87 4 2.6h-7.96c.55-1.61 2.28-2.6 3.96-2.6z" fill="#f37739"/><path d="m10.05 7.2-1.68 3.6h1.21l1.4-3h.67c.1 0 .17.1.12.2l-1.3 2.8h1.1l1.4-3h.68c.1 0 .17.09.13.2l-1.34 2.8h1.15l1.35-2.88s.06-.16.06-.26c0-.28-.17-.46-.47-.46h-1.8l-.21.16-.15-.14c-.03-.02-.06-.02-.09-.02z" fill="#fff"/></svg>