<svg height="18" viewBox="0 0 18 18" width="18" xmlns="http://www.w3.org/2000/svg" xmlns:xlink="http://www.w3.org/1999/xlink"><linearGradient id="a" gradientUnits="userSpaceOnUse" x1="3.35" x2="21.9" y1="3.12" y2="24.43"><stop offset="0" stop-color="#1a1e21"/><stop offset="1" stop-color="#06060a"/></linearGradient><path d="m0 0h18v18h-18z" fill="url(#a)"/><path d="m12.33 6.77c.87-.2 1.67-1.02 1.67-1.02s-1.1-.65-2.03-.52c-.62.09-1 .5-1.2.76l-.15-.03a6.46 6.46 0 0 0 .14-1.96l-.86.14c.12.57.2 1.18.16 1.77a7.1 7.1 0 0 0 -2.35.38c-2.92.93-4.2 2.77-3.54 5.12s2.68 3.14 5.6 2.2c2.93-.93 4.2-2.77 3.55-5.12-.2-.72-.53-1.3-.99-1.72zm-3.59 4.97c-1.77 0-2.57-.65-2.57-1.79 0-1.12.8-1.78 2.57-1.78 1.78 0 2.58.66 2.58 1.78 0 1.14-.8 1.79-2.58 1.79z" fill="#f28522"/></svg>