<svg height="18" width="18" xmlns="http://www.w3.org/2000/svg"><path d="m0 0h18v18h-18z" fill="#00244f"/><path d="m4.358 11.999h-1.358s.424-.06.453-.369c.01-.089 0-5.261 0-5.261s.027-.243-.377-.369h1.358l1.697 3.016 1.473-3.016h1.358s-.377.1-.377.369v5.261c.02.22.415.37.415.37h-1.811s.44-.14.453-.369c.003-.08 0-4.968 0-4.968l-1.812 3.493-1.883-3.483v4.925c.035.277.36.385.411.4zm6 0h-1.358s.424-.06.453-.369c.01-.089 0-5.261 0-5.261s.027-.243-.377-.369h1.358l1.697 3.016 1.473-3.016h1.358s-.377.1-.377.369v5.261c.02.22.415.369.415.369h-1.811s.44-.14.453-.369c.003-.08 0-4.968 0-4.968l-1.811 3.494-1.884-3.483v4.925c.035.277.36.385.411.4z" fill="#fff"/></svg>