<svg height="18" width="18" xmlns="http://www.w3.org/2000/svg"><path d="m0 0h18v18h-18z" fill="#f0f3fa"/><path d="m5.23 10.33c-1.51.82-2.1 1.46-2.73 1.67h12.5l-5.18-.71c-.79-.12-1.87-.48-1.73-1.23.14-.74 1.3-.88 1.85-.86-.21-.42-2.15-.25-4.7 1.13z" fill="#00529c"/><g fill="#f13526"><path d="m4.08 6-1.58 3h.72l1.28-2.36-.42 2.36h.68l2.2-2.36-1.29 2.36h.76l1.62-3h-1.21l-1.9 2.1.4-2.1h-1.25zm4.44 0-1.58 3h.72l1.29-2.36-.43 2.36h.68l2.2-2.36-1.29 2.36h.76l1.62-3h-1.22l-1.9 2.1.4-2.1h-1.24z"/><path d="m11.36 9 1.6-1.62h.62l-.11 1.25.74-.51-.27-.74h.58l.13.5.66-.5h.6l-1.12.8.28.82h-.59l-.13-.58-.77.58h-.61l.02-.33h-.77l-.32.33zm1.74-1.23-.07.6h-.53z" fill-rule="evenodd"/></g></svg>