<svg height="18" viewBox="0 0 18 18" width="18" xmlns="http://www.w3.org/2000/svg"><path d="m0 0h18v18h-18z" fill="#f0f3fa"/><path d="m9.44 3.64-.34-.64-4.95 2.93a.3.3 0 0 0 -.15.27v2.04c0 .23.25.38.45.26l6.14-3.61.78.43-7.22 4.25a.3.3 0 0 0 -.15.26v2.09c0 .27.3.44.53.3l8.77-5.32v1.04l-7.7 4.56a.3.3 0 0 0 .02.53l1.75.91c.1.05.2.04.29-.01l5.64-3.35v.97l-4.72 2.82.36.63 4.9-2.94c.1-.06.16-.17.16-.3v-1.82c0-.27-.3-.44-.52-.3l-6 3.56-.86-.47 7.21-4.27c.1-.06.17-.17.17-.3v-1.92c0-.27-.3-.44-.53-.3l-8.77 5.31v-1.18l7.6-4.48a.35.35 0 0 0 -.01-.6l-1.53-.85a.35.35 0 0 0 -.35 0l-5.71 3.36v-1.05z"/></svg>