<svg fill="none" height="18" width="18" xmlns="http://www.w3.org/2000/svg"><path d="m0 0h18v18h-18z" fill="#f0f3fa"/><path d="m14.5 5.575h-6.663c-.41 0-.751-.414-1.083-.649a3.282 3.282 0 0 1 -.405-.322.579.579 0 0 0 -.52-.182l-.633-.422.22.727a.553.553 0 0 0 .045.543c.085.149.159.304.219.463.094.242.35.616.366.892a1.25 1.25 0 0 1 -.05.42l-1.996 6.405s2.972-1.477 3.4-4.167c0 0 3.072 1.247 3.665 5.217 0 0 .393-1.244.397-2.527.729.165 1.438.366 2.576.197-3.797-1.51-4.35-4.626-4.35-4.626 2.873 0 4.812-1.969 4.812-1.969z" fill="#16387a"/></svg>