<svg height="18" width="18" xmlns="http://www.w3.org/2000/svg"><path d="m0 0h18v18h-18z" fill="#e60012"/><path d="m3.69 6h3.22c.42 0 1.01.13 1.23.62.2.48 1 2.25 1 2.25s.86-1.94 1.02-2.27c.15-.33.52-.61 1.03-.61h1.52c.73 0 1.28.42 1.28 1.32v3.33c0 .96.21 1.07.29 1.16.07.1 0 .19-.07.19h-3.09c-.12 0-.13-.12-.13-.19v-2.44l-1 2.22c-.18.38-.58.42-.94.42-.37 0-.72-.01-.95-.5-.2-.47-1.1-2.16-1.1-2.16v1.62c0 .5.21.78.3.85.1.07.06.2 0 .2h-3.14c-.12 0-.17-.1-.17-.19v-4.42c0-.6-.25-1.07-.37-1.2-.1-.15.06-.2.06-.2z" fill="#fff"/></svg>