<svg height="18" viewBox="0 0 18 18" width="18" xmlns="http://www.w3.org/2000/svg"><path d="m0 0h18v18h-18z" fill="#f0f3fa"/><path d="m8.38 9.63a.83.83 0 0 1 -1.22 0c-.52-.55-1.16-.16-1.16.64v1.8c0 .49-.52.9-1.01.93-.45 0-.99-.41-.99-.91v-6.15c0-.53.4-.94.86-.94.24 0 .44.11.6.28l2.92 3.09c.34.35.34.93 0 1.26z" fill="#045a71"/><path d="m13 13c-.55 0-1-.4-1-.89v-2.21c0-.49.45-.89 1-.89s1 .4 1 .89v2.22c0 .49-.45.89-1 .89zm-4.58-1.77a1 1 0 0 1 0-1.3l4.17-4.65a.76.76 0 0 1 1.16 0 1 1 0 0 1 0 1.3l-4.17 4.65a.76.76 0 0 1 -1.16 0z" fill="#fbad18"/></svg>