<svg height="18" viewBox="0 0 18 18" width="18" xmlns="http://www.w3.org/2000/svg"><path d="m0 0h18v18h-18z" fill="#f0f3fa"/><path d="m4 13 1.74-8h1.64l-.52 5.5 1.86-5.5h1.63l-1.74 8h-1.07l1.24-5.73-2.02 5.73h-1.02l.48-5.73-1.27 5.73zm7.23-8h1.98c.51 0 .89.54.77 1.1l-.46 2.18c-.07.17-.32.56-.68.67.2.08.54.42.4 1.1l-.4 1.76c-.07.31-.43 1.1-1.25 1.19h-2.11zm.83 1.14-.5 2.29h.57c.18 0 .33-.13.38-.32l.4-1.6c.04-.18-.08-.37-.25-.37zm-1.29 5.72.53-2.29h.6c.17 0 .3.17.25.35l-.43 1.64a.4.4 0 0 1 -.37.3z" fill-rule="evenodd"/></svg>