<svg height="18" viewBox="0 0 18 18" width="18" xmlns="http://www.w3.org/2000/svg"><path d="m0 0h18v18h-18z" fill="#f0f3fa"/><path d="m14 5.16v6.4c0 .07-.1.08-.11.01a8.18 8.18 0 0 0 -6.81-6.46c-.08-.01-.06-.11-0-.11h6.75c.1 0 .17.08.17.16zm-6.48 5.05v2.79h.96v-2.8c0-.49.12-.86.34-1.11.22-.26.55-.38.96-.39.41.01.74.13.96.39.23.25.26.63.26 1.14v2.77h1v-2.86c0-.72-.2-1.27-.59-1.62a2.28 2.28 0 0 0 -1.57-.52c-.77 0-1.32.17-1.71.52l-.07.07-.06.06-.13-.13c-.4-.35-.94-.52-1.7-.52-.67 0-1.2.17-1.58.52-.4.35-.59.9-.59 1.62v2.86h1v-2.77c0-.5.04-.89.27-1.14.23-.26.55-.38.96-.39.42.01.74.13.97.39.22.25.31.62.32 1.12z" fill="#a2aab5"/></svg>