<svg height="18" width="18" xmlns="http://www.w3.org/2000/svg"><path d="m0 0h18v18h-18z" fill="#215ea1"/><path d="m13 12.923c-.24.22-.638.548-.886.68-.742.488-1.966.684-3.114-.349-.701.664-1.83.933-2.762.599-.454-.177-.867-.531-1.238-.93l1-1.407c.082.442.53.88.983.969.454.088.729-.043.935-.486.083-.31.082-.662.082-1.018v-2.776l-.188-.205h-1.268l-.056-.098v-1.227l.139-.11h1.227l.146-.2v-2.32l.118-.044 1.752.003.13.178v2.184c.041.088.076.154.16.198h1.333l.09.156v1.28h-1.53l-.053.168v3.92c0 .595.798.557 1.197.397.399-.161.584-.486.803-.97z" fill="#fff"/></svg>