<svg height="18" viewBox="0 0 18 18" width="18" xmlns="http://www.w3.org/2000/svg"><path d="m0 0h18v18h-18z" fill="#f0f3fa"/><path d="m5.65 6.88-.08.09a7.53 7.53 0 0 0 -1.5 2.66c-.07.24-.03.49-.14.74v-2.8c-.02-.41-1.51-.63-.67-1.09.44-.24 2.25-.95 2.38 0 .02.13.02.26 0 .4z" fill="#a3d0dc"/><path d="m9.78 7.12s.01-.01.02.02a8.84 8.84 0 0 0 -1.67 3.5c-.02-1.08.1-1.93-.2-2.78-.2-.59-.8-.76-1.4-.53-.38.14-.72.62-.88 1.06 0-.16-.23-.83-.06-1.43l.07-.08.4-.3c1.14-.84 3.08-.86 3.72.54z" fill="#c3a2cd"/><path d="m10 8.42a5.39 5.39 0 0 0 -.21-1.28v-.02c.73-.75 1.42-1.2 2.62-1.1 1.54.12 1.63 1.22 1.65 2.4v2.35c0 .3.52.43.75.6.4.3.11.62-.32.63h-2.31c-.26 0-.54-.1-.5-.37.01-.2.32-.38.49-.5.1-.07.2-.17.2-.28v-1.85c0-.82-.19-2.26-1.56-1.66-.42.19-.72.55-.82 1.07z" fill="#f89956"/><path d="m5.65 6.85v3.85c0 .15.07.27.13.36.17.23.7.38.51.73-.06.12-.26.2-.38.2h-2.28c-.47 0-.7-.32-.3-.62.06-.05.59-.33.6-.4v-.6c.06-.41.08-.55.16-.79.3-.99.8-1.91 1.56-2.73z" fill="#898eb6"/><path d="m9.8 7.14c.12.4.18.84.2 1.3v2.12c0 .23 0 .47.21.62.28.19.65.4.34.71-.04.04-.1.07-.22.09a181.45 181.45 0 0 1 -2.39.02c-.22 0-.47-.1-.48-.33-.02-.36.68-.43.67-1.02.31-1.22.83-2.52 1.66-3.51z" fill="#c76f52"/></svg>