<svg height="18" viewBox="0 0 18 18" width="18" xmlns="http://www.w3.org/2000/svg"><path d="m0 0h18v18h-18z" fill="#f0f3fa"/><path d="m12.18 9.42v-.53c0-.24-.06-.35-.26-.35-.24 0-.36.15-.36.46v.42h-.42v-1.13h.4v.17c.13-.15.33-.21.51-.21.32 0 .52.14.53.47v.7zm-1.6.07c-.14.38-.34.53-.67.53-.08 0-.1-.01-.19-.03v-.32c.09.02.08.03.17.03a.3.3 0 0 0 .28-.17c.03-.06.03-.12.03-.12l-.35-.7c-.02-.08-.06-.22-.14-.42h.42l.24.86.04-.15.05.15s.22-.74.23-.86h.43l-.53 1.2zm-1.27-.07v-.13.05a.1.1 0 0 1 -.05.04.9.9 0 0 1 -.38.08c-.28 0-.45-.17-.46-.43 0-.22.1-.02.34-.1l.3-.08c.15-.05.26-.09.25-.17 0-.1-.06-.15-.2-.15s-.3.03-.5.13v-.33c.18-.05.35-.08.54-.08.37 0 .56.12.57.4v.77h-.4zm-1.01 0h-.4v-.63c0-.16-.08-.23-.2-.23-.16 0-.25.09-.25.4v.46h-.39v-.63c0-.16-.09-.23-.21-.23-.15 0-.24.09-.24.4v.46h-.42v-1.13h.42v.18c.11-.16.24-.22.4-.22.15 0 .29.05.4.17.12-.12.22-.17.36-.17.32 0 .53.15.53.5zm5.12.04c-.43 0-.7.07-.72-.38-.01-.48.27-.83.7-.83.26 0 .44.18.53.4l.01.03v.01l.02.03v.02a.9.9 0 0 1 .03.13v.01a5.05 5.05 0 0 0 -4.97-4.88 5 5 0 1 0 4.98 5.38c-.18.05-.41.08-.58.08z" fill="#ec0002"/><path d="m6 8h8v2h-8z" fill="#e2e2e2"/></svg>