<svg height="18" viewBox="0 0 18 18" width="18" xmlns="http://www.w3.org/2000/svg" xmlns:xlink="http://www.w3.org/1999/xlink"><linearGradient id="a" gradientUnits="userSpaceOnUse" x1="3.35" x2="21.9" y1="3.12" y2="24.43"><stop offset="0" stop-color="#1a1e21"/><stop offset="1" stop-color="#06060a"/></linearGradient><linearGradient id="b" gradientUnits="userSpaceOnUse" x1="8.91" x2="8.8" y1="8.79" y2="11.06"><stop offset="0" stop-color="#414143"/><stop offset="1" stop-color="#f4f4f4"/></linearGradient><linearGradient id="c" gradientUnits="userSpaceOnUse" x1="9.96" x2="10.17" y1="8.07" y2="11.77"><stop offset="0" stop-color="#211f20"/><stop offset="1" stop-color="#fff"/></linearGradient><linearGradient id="d" gradientUnits="userSpaceOnUse" x1="3" x2="5.49" y1="8.79" y2="6.93"><stop offset="0" stop-color="#fff"/><stop offset="1" stop-color="#919191"/></linearGradient><linearGradient id="e" gradientUnits="userSpaceOnUse" x1="10.31" x2="12.4" y1="7.52" y2="12.87"><stop offset="0" stop-color="#b4b5b7"/><stop offset=".64" stop-color="#211f20"/><stop offset="1" stop-color="#271e21"/></linearGradient><linearGradient id="f" gradientUnits="userSpaceOnUse" x1="11.61" x2="9.25" y1="7.68" y2="9.95"><stop offset="0" stop-color="#e7e7e7"/><stop offset="1" stop-color="#4c4c4d"/></linearGradient><linearGradient id="g" gradientUnits="userSpaceOnUse" x1="13.2" x2="9.14" y1="7.55" y2="10.13"><stop offset="0" stop-color="#fff"/><stop offset=".97" stop-color="#78787a"/></linearGradient><linearGradient id="h" gradientUnits="userSpaceOnUse" x1="4.05" x2="8.12" y1="6.66" y2="9.84"><stop offset="0" stop-color="#cacacc"/><stop offset=".17" stop-color="#f8f8f8"/><stop offset="1" stop-color="#7d7d7f"/></linearGradient><linearGradient id="i" gradientUnits="userSpaceOnUse" x1="5.83" x2="6.3" y1="8.44" y2="11.22"><stop offset="0" stop-color="#262022"/><stop offset="1" stop-color="#dfe0e2"/></linearGradient><path d="m0 0h18v18h-18z" fill="url(#a)"/><path d="m4.42 9.67c.88 2.81 1.9 3.02 4.4 3.13 3.87.16 4.45-1.82 4.67-2.6.26-.87.11-2 .11-2l.4 1.26-.78 2.39-1.09.76-1.15.33-1.86.2-2.36-.2-1.34-.64-.68-.91-.26-.87s-.11-.62-.06-.85z" fill="#727272"/><path d="m13.53 7.9s.43 1.66-.25 2.98c-.67 1.33-1.32 2.14-4.32 2.15-3 0-3.62-1.18-4.09-2a5.3 5.3 0 0 1 -.52-1.99l-.06 1.38.86 1.53.72.62 1.02.42 2.72.16 1.2-.16 1.28-.3 1.22-.97.48-1.65-.05-1.83c-.08-.28-.15-.4-.2-.34z" fill="url(#b)"/><path d="m13.62 7.95s.43 1.7-.22 3.02-1.12 1.98-4.3 2.1c-2.58.06-3.25-.58-3.72-1.04-.38-.36-.64-.98-.64-.98s-1.16-2.04-1.04-1.4c.16.85.42 2.06 1.42 2.82.61.46 1.85.75 1.85.75l1.94.14 1.74-.1 2.74-1 1.17-2.43a15.5 15.5 0 0 0 -.34-2.8l-.38.32z" fill="url(#c)"/><path d="m3.93 6.3s-.05.5.07.81c-.16.25-.38 1-.4 1.59-.04.6.08 2.15.9 3.04l-.22.4s-1.28-.84-1.28-3.47c0-1.27.73-2.41 1.1-2.71-.11.16-.17.33-.17.33z" fill="url(#d)"/><path d="m3.1 9.18s.03 1.28.54 2.09c.5.8.95 1.32 2.14 1.79 1.2.46 2.9.43 3.18.43.27.01 3.53.15 5.06-1.64a4.5 4.5 0 0 0 .92-3.6c-.18-1.27-.86-2.02-.86-2.02s.1.23-.02.87a4.63 4.63 0 0 1 -.4 4.38c-.36.5-.66.84-1.48 1.2-.81.37-2.06.55-3.2.53a8.3 8.3 0 0 1 -3.13-.5c-.91-.39-1.4-.99-1.75-1.46-.35-.48-.08-.24-.5-.64-.43-.4-.5-1.43-.5-1.43z" fill="url(#e)"/><path d="m3.96 6.1s1.18-1.7 5.16-1.6c3.37.01 4.09.84 4.8 1.44.01.04-.29.27-.29.27l-.48.18-1.39-1.03-2.46-.51s-2.32.26-2.42.25c-.1-.02-1.61.79-1.61.79l-.29.82-.9-.64-.12.02z" fill="#c9cdd1"/><path d="m13 6.67s-.64-1.63-4.02-1.63c-3.37 0-3.96 1.62-3.96 1.62l-.16-.27.57-.75 1.52-.66 1.06-.15 1.01-.05 1.3.07 1.01.2 1.4.68.77.57.05.06-.54.31z" fill="#545454"/><path d="m13.2 6.78s-.61.35-1.28.59c-.66.23-1.55.62-1.92.95-.39.34-.65.7-.74.84-.09.13-.2.33-.25.31l-.03.81.04.03.35-.57 1.15-1.2.53-.52 1.79-.81z" fill="url(#f)"/><path d="m13.99 6.14s-.62.59-1.5 1.06c-.28.15-1.04.47-1.4.64-.77.4-1.17 1.08-1.3 1.22s-.77 1.24-.77 1.24l.28-.06 1.07-1.34.88-.5 2-.6.65-.51s.15.07.2-.63c.03-.44-.11-.52-.11-.52z" fill="url(#g)"/><path d="m12.52 8.45-1.32.4-.74.3-.94.65s-.22.38-.24.46l-.16.5-.01.15-.05.06-.04-.26.02-.35.18-.32.21-.35.4-.4.54-.3.92-.28.77-.18z" fill="#333"/><path d="m13.48 8.12s-.24.14-1.43.48c-1.18.34-1.8.65-2.32 1.26a2.8 2.8 0 0 0 -.49.83c-.05.16-.15.3-.16.32-.02.02-.1.02-.1-.02 0-.02.07.04.1-.12 0-.19.01-.52.13-.72.16-.27.4-.59.8-.81.39-.22.9-.41 1.22-.53.34-.1 1.16-.32 1.52-.45.36-.12.8-.3.8-.3z" fill="#414141"/><path d="m5.12 6.93s.33.2 1 .44c.66.23 1.55.62 1.92.95.38.34.63.7.72.84s.21.33.27.31l.03.81-.04.03-.35-.57-1.17-1.19-.5-.53-1.8-.8-.07-.3z" fill="#1e1e1e"/><path d="m8.9 10.11-.47-.56-.86-.7-2.73-1-.84-.73s-.2-.6-.08-.83c0-.07.14-.44.19-.32.14.14.31.34.89.7-.05.1 0 .15.07.2l.37.22.5.25.94.46.5.3.5.49.37.43.4.49.4.77-.16-.18z" fill="url(#h)"/><path d="m4.92 11.4c-.21-.15-.48-.26-.73-.42-.21-.12-.37-.65-.46-1.08-.29-1.54.28-2.68.28-2.68s.02-.03 0-.04c-.04-.03 0-.1.06-.06.73.46.91.47 1.49.72.82.36 1.68.36 2.59 1.23.43.41.86 1.22.9 1.22v.46s.01-.37-.1-.55a3.1 3.1 0 0 0 -1.26-1.06s-.62-.32-1.62-.5a5.33 5.33 0 0 1 -1.57-.51c-.04-.03-.06 0-.08.02a6.13 6.13 0 0 0 -.02 1.75c.1.62.26.95.52 1.5z" fill="url(#i)"/><path d="m4.54 6.3s.46-.6 1.22-.95a5.56 5.56 0 0 1 1.75-.5c.45-.06 1.37-.07 1.45-.07.07 0 1.05.02 1.5.08.47.07.99.13 1.76.48.76.35 1.3.98 1.3.98s-.2.05-.31.14c-.12.09-.16.05-.16.05s-.01-.25-.37-.62c-.35-.37-.9-.59-1.61-.83a8.7 8.7 0 0 0 -2.1-.24h-.01c-.09 0-1.36 0-2.05.24-.71.25-1.12.52-1.48.89s-.43.74-.43.74-.12-.14-.24-.23c-.12-.1-.22-.16-.22-.16z" fill="#211f20"/><path d="m9.08 10.3c.37-.76.72-1.2 1.46-1.7.42-.29.73-.34 1.21-.52.32-.12.52-.16.84-.29.58-.22.85-.33 1.45-.68.04.13-.27.66-.5.97-.62.26-1.12.4-1.87.57-.45.1-.78.2-1.24.38-.77.29-.99.65-1.35 1.26z" fill="#1a1a1a"/><path d="m9.06 10.29v.59c0 .2-.09.16-.16-.02-.07-.17-.18-.54-.61-1a3.62 3.62 0 0 0 -1.4-.96c-.48-.16-.97-.26-1.18-.33l-.54-.16.56.14s1.25.17 1.95.56c.7.4 1.2.83 1.38 1.18z" fill="#9e9ea0"/><path d="m3.93 6.3c-.03.03-.71.83-.93 2.38 0-1.2.65-2.31 1.05-2.68a.8.8 0 0 0 -.12.3z" fill="#c9cdd1"/><path d="m13.01 6.68.04.1s.18-.09.5-.33l.44-.31s.1.07.43.58c0 0-.1-.3-.48-.75l-.39.45z" fill="#ececec"/></svg>