<svg height="18" viewBox="0 0 18 18" width="18" xmlns="http://www.w3.org/2000/svg"><path d="m0 0h18v18h-18z" fill="#f0f3fa"/><path d="m14 4h-10v10h10zm-8 9v-3h.59l.92 2.45.94-2.45h.55v3h-.37v-2.4l-.94 2.4h-.36l-.95-2.4v2.4zm4.38-3h-.95v3h1.02a.83.83 0 0 0 .31-1.6.75.75 0 0 0 -.38-1.4zm-.06.37h-.52v.88h.52a.44.44 0 1 0 0-.88zm.1 1.27h-.62v.98h.62a.5.5 0 0 0 0-.98zm1.21-1.64h.95a.75.75 0 0 1 .38 1.4.83.83 0 0 1 -.32 1.6h-1.01zm.37.37h.51a.44.44 0 0 1 0 .88h-.51zm0 1.27h.61a.5.5 0 0 1 0 .98h-.61z" fill="#1d1d1b" fill-rule="evenodd"/></svg>