<svg height="18" width="18" xmlns="http://www.w3.org/2000/svg"><path d="m0 0h18v18h-18z" fill="#f0f3fa"/><path d="m14.53 13h-11.23v-.115l11.69-4.775v4.312c0 .452-.307.574-.46.578z" fill="#b50b0b"/><path d="m3.003 5.456v7.306l11.997-4.864v-2.341c0-.495-.394-.575-.59-.554h-10.898c-.454 0-.53.302-.51.453z" fill="#350c71"/><path d="m12.905 8.748-.615-1.808.359-.169.294.793.694-.302-.267-.777.359-.159.629 1.832-.35.141-.28-.735-.712.307.267.722-.378.154zm-.772-1.776-1.346.573.124.327.469-.204.513 1.49.368-.15-.518-1.494.515-.204zm-2.132.895-.03 2.07.34-.138v-.482l.678-.274.27.371.33-.133-1.244-1.57zm-1.329 2.596-.6-1.81.554-.268c.217-.085.686-.15.819.268.133.419-.055.668-.166.74l.684.547-.343.14-.595-.534-.225.098.23.674zm-5.009-.018.592 1.81.337-.134-.423-1.259.857.824.228-.102.165-1.206.412 1.238.31-.121-.645-1.815-.335.122-.158 1.441-1.028-.942zm2.303-.71c.128-.142.336-.119.424-.089 0 .064-.008.191-.04.191-.04 0-.258.007-.275.217-.014.169.093.236.149.249.101.047.31.034.332-.389.029-.53.258-.72.533-.906.22-.148.539-.15.67-.133.052.01.155.062.155.184 0 .123-.05.179-.074.192-.688-.058-.854.255-.86.663-.005.408.275.746.573.714a.728.728 0 0 0 .47-.261l-.109-.28-.252.114-.109-.287.573-.268.293.797c-.17.128-.457.306-.579.358-.75.322-1.085-.17-1.215-.498a.456.456 0 0 1 -.373.268c-.362-.015-.437-.33-.43-.485a.506.506 0 0 1 .144-.35z" fill="#fff"/><path d="m10.302 9.014v-.897l.517.67zm-1.577.315-.207-.574c.163-.114.513-.263.603.056.09.318-.226.478-.396.518z" fill="#350c71"/></svg>