<svg height="18" viewBox="0 0 18 18" width="18" xmlns="http://www.w3.org/2000/svg"><path d="m0 0h18v18h-18z" fill="#f0f3fa"/><path d="m4 4.03h3.94l1.11.68.95-.68 4-.03v10h-3.78l-1.2-.86-1.22.86h-3.8z" fill="#1a8365"/><path d="m10.06 14.03h-3.92v-10h3.86c.61 0 1 .5 1 1.1v2.93c0 .76.9 1.03 1.28 1.07-.88.07-1.28.7-1.28 1v2.8c0 .61-.33 1.1-.94 1.1z" fill="#f0f3fa"/><path d="m7.83 14h-3.83v-10h3.83c.6 0 1.06.5 1.06 1.1v2.93c0 .76.75 1.03 1.11 1.06-.86.07-1.1.7-1.11 1v2.8c0 .61-.46 1.1-1.06 1.1z" fill="#3fb09c"/></svg>