<svg fill="none" height="18" width="18" xmlns="http://www.w3.org/2000/svg"><path d="m0 0h18v18h-18z" fill="#f0f3fa"/><path clip-rule="evenodd" d="m6.032 7-1.699 3.333-1.71-3.333h-.623v4h.467v-3.333l1.655 3.318.008.015h.39l1.68-3.333v3.333h.467v-4zm4.842 2.606c-.257.558-.86.95-1.561.95-.937 0-1.695-.697-1.695-1.556 0-.86.758-1.556 1.695-1.556.717 0 1.33.41 1.577.987l.443-.181c-.323-.733-1.106-1.25-2.02-1.25-1.204 0-2.18.895-2.18 2s.976 2 2.18 2c.908 0 1.686-.51 2.013-1.234zm2.793-.828h2.32c.009.073.013.147.013.222 0 1.105-.94 2-2.1 2s-2.1-.895-2.1-2 .94-2 2.1-2c.855 0 1.59.487 1.918 1.185l-.429.175a1.64 1.64 0 0 0 -1.489-.916c-.902 0-1.633.697-1.633 1.556 0 .86.73 1.556 1.633 1.556.823 0 1.504-.58 1.617-1.334h-1.85z" fill="#000" fill-rule="evenodd"/></svg>