<svg height="18" viewBox="0 0 18 18" width="18" xmlns="http://www.w3.org/2000/svg" xmlns:xlink="http://www.w3.org/1999/xlink"><linearGradient id="a" gradientUnits="userSpaceOnUse" x1="8.77" x2="11.76" y1="4.22" y2="5.87"><stop offset="0" stop-color="#b9afb8"/><stop offset="1" stop-color="#e1e1e1"/></linearGradient><linearGradient id="b" gradientUnits="userSpaceOnUse" x1="4.22" x2="9.26" y1="9.75" y2="11.15"><stop offset="0" stop-color="#9a999e"/><stop offset="1" stop-color="#dbd0d4"/></linearGradient><linearGradient id="c" gradientUnits="userSpaceOnUse" x1="4.26" x2="11.85" y1="6.93" y2="12.78"><stop offset="0" stop-color="#ed1550"/><stop offset="1" stop-color="#8f0632"/></linearGradient><linearGradient id="d" gradientUnits="userSpaceOnUse" x1="3.18" x2="8.57" y1="10.15" y2="14.47"><stop offset="0" stop-color="#d92356"/><stop offset=".56" stop-color="#e71546"/><stop offset="1" stop-color="#cc0c47"/></linearGradient><linearGradient id="e" gradientUnits="userSpaceOnUse" x1="7.05" x2="13.41" y1="4.86" y2="9.3"><stop offset="0" stop-color="#dd1249"/><stop offset="1" stop-color="#97002d"/></linearGradient><path d="m0 0h18v18h-18z" fill="#f0f3fa"/><path d="m9.73 4.22a3.9 3.9 0 0 0 -1.25-.2l.17.99c.96-.29 3.16.98 3.3 1.07.15.1.66.33.77.33.09 0 .07-.1.05-.15-.77-.6-2.47-1.86-3.04-2.04z" fill="url(#a)"/><path d="m8.17 5.78a4.37 4.37 0 0 0 -1.9-.66c-.62 0-.73.3-.7.48l.75 1.55c1.1-.31 3.68 1.17 4.36 1.4.55.18 1.2 0 1.44-.12z" fill="#929798"/><path d="m4.43 8.77c-.48.02-.45.37-.38.54l.5 1.27c.95-.3 4.07 1.24 4.39 1.35.25.09.58-.1.71-.2l-2.7-2.1c-.64-.3-2.05-.87-2.52-.86z" fill="url(#b)"/><path d="m7.08 7.46a4.85 4.85 0 0 1 -1.3-2.27 3.48 3.48 0 0 0 -1.5 2.34c.24 1.1 1.59 2.25 2.25 2.7 2.48 1.7 4.87 2.31 5.41 2.31s.81-.19 1.02-.39c.16-.16.1-.25.06-.27a17.78 17.78 0 0 1 -5.94-4.42z" fill="url(#c)"/><path d="m9.8 13.92c-3.75-1.44-5.43-3.85-5.8-4.87-.03.75.22 2.5 1.43 3.4 1.52 1.12 3.05 1.8 4.37 1.47z" fill="url(#d)"/><path d="m14 8.44c-4.46-1.96-5.43-3.74-5.36-4.4a2.12 2.12 0 0 0 -.81 0c-.37.07-.55.27-.6.36-.13.61.22 1.32.41 1.6 1.07 1.85 4.8 2.9 5.4 2.9.48 0 .84-.3.96-.46z" fill="url(#e)"/></svg>