<svg height="18" viewBox="0 0 18 18" width="18" xmlns="http://www.w3.org/2000/svg"><path d="m0 0h18v18h-18z" fill="#f0f3fa"/><path d="m14 11.55a2.45 2.45 0 0 1 -2.46 2.45h-5.09a2.45 2.45 0 0 1 -2.45-2.45v-5.1a2.45 2.45 0 0 1 2.45-2.45h5.1a2.45 2.45 0 0 1 2.45 2.45zm-5.65-4.69v.01a3.7 3.7 0 0 1 3.06 2.08 3.72 3.72 0 0 0 .29-3.68 3.71 3.71 0 0 0 -3.35 1.6zm-.3 3.7a3.71 3.71 0 0 1 .3-3.69 3.7 3.7 0 0 0 -3.35 1.6l-.02.01a3.7 3.7 0 0 0 3.06 2.08zm3.36-1.6-.01.01a3.71 3.71 0 0 1 -3.35 1.6 3.7 3.7 0 0 0 3.08 2.11 3.72 3.72 0 0 0 .28-3.73z" fill="#004990"/></svg>