<svg height="18" viewBox="0 0 18 18" width="18" xmlns="http://www.w3.org/2000/svg" xmlns:xlink="http://www.w3.org/1999/xlink"><linearGradient id="a" gradientUnits="userSpaceOnUse" x1="9" x2="9.01" y1="10.54" y2="6.89"><stop offset="0" stop-color="#e3cf45"/><stop offset="1" stop-color="#b29531"/></linearGradient><linearGradient id="b"><stop offset="0" stop-color="#c7ae3a"/><stop offset="1" stop-color="#774e1d"/></linearGradient><linearGradient id="c" gradientUnits="userSpaceOnUse" x1="7.35" x2="7.35" xlink:href="#b" y1="8.01" y2="10.41"/><linearGradient id="d" gradientUnits="userSpaceOnUse" x1="10.67" x2="10.67" xlink:href="#b" y1="8.01" y2="10.41"/><path d="m0 0h18v18h-18z" fill="#f0f3fa"/><path d="m3.75 9.02-.75.45 1.4 3.32.82-.1v.9l3.2 1.41.56-.6.65.6 3.26-1.4-.09-.9.83.09 1.37-3.32-.65-.45.65-.6-1.37-3.29-.83.17.1-.94-3.28-1.36-.65.84-.54-.84-3.2 1.36.19.94-1.02-.17-1.4 3.3zm-.04-.76.95-2.53.72.1.37 1.88-1.27.7.39.48 1.52-.94-.64-3.18 2.53-1.07.36.51-.93 1.35-1.68-.2.16.59 1.88.23 1.61-2.48 2.58.99v.72l-1.76.33-.96-1.26-.34.44.92 1.44 3.15-.62 1.09 2.53-.53.4-1.57-1.02.36-1.47-.64.07-.42 1.58 2.66 1.73-.95 2.7-.57-.1-.44-1.71 1.3-.89-.47-.37-1.37.9.26 1.51-.98-1.01v-3h-.59v2.86c.1.28.5.94.94 1.33l.9.78v.68l-2.4 1.17-.46-.51.96-1.63 1.21.29-.61-.63-.83-.33-1.87 2.67-2.5-1.03v-.61l1.83-.36.82 1.27.43-.46-1-1.48-1.25.33.06-.05c.3-.31.95-.94.95-1.43v-2.86h-.59v2.67c-.04.25-.39.84-.8 1.2a5.9 5.9 0 0 0 -.72.7h-.77l-1-2.49.41-.39 1.63.98-.37 1.41.65-.37.36-1.22-2.69-1.82z" fill="#774e1d"/><path d="m7 7v.39h.65l1.33 3.85 1.48-3.85h.54v-.39h-.54c-.26 0-.58.4-.7.66l-.78 1.5c-.1-.27-.37-.95-.65-1.5-.29-.56-.63-.63-.76-.66z" fill="url(#a)"/><path d="m7 7.59h.6v2.82h-.6v-2.81z" fill="url(#c)"/><path d="m10.41 7.59h.59v2.82h-.59v-2.81z" fill="url(#d)"/></svg>