<svg height="18" viewBox="0 0 18 18" width="18" xmlns="http://www.w3.org/2000/svg"><path d="m0 0h18v18h-18z" fill="#f0f3fa"/><path d="m7.18 4h-2.79c-.3 0-.48.32-.3.55l3.14 4.15c.09.12.1.28 0 .4l-3.18 4.35c-.16.23.02.54.32.54h2.8c.13 0 .25-.07.32-.17l3.12-4.92-3.11-4.73a.39.39 0 0 0 -.32-.17z" fill="#75bf20"/><path d="m11.12 4h2.5c.3 0 .48.3.32.53l-2.86 4.17-1.68-2.39 1.39-2.14c.06-.1.19-.17.32-.17zm0 10h2.5c.3 0 .48-.3.32-.53l-2.86-4.17-1.68 2.39 1.39 2.14c.06.1.19.17.32.17z" fill="#bfc3c6"/></svg>