<svg height="18" width="18" xmlns="http://www.w3.org/2000/svg"><path d="m0 0h18v18h-18z" fill="#f0f3fa"/><path d="m7.46 14a9.69 9.69 0 0 1 -.105-1.421c0-2.005.613-3.595 1.645-5.079-1.083-1.557-2.628-2.972-4.413-3.483-.297-.085-.587.162-.587.496v8.975c0 .282.211.512.47.512z" fill="#239de0"/><path d="m9 7.5c1.033 1.484 1.645 3.073 1.645 5.079 0 .483-.036.958-.105 1.421h2.99c.26 0 .47-.23.47-.512v-8.975c0-.334-.29-.581-.587-.496-1.785.512-3.33 1.926-4.413 3.483z" fill="#99d538"/><path d="m9 7.5c-1.032 1.484-2.083 3.073-2.083 5.079 0 .483.014.958.083 1.421h4c.069-.463.083-.938.083-1.421 0-2.006-1.05-3.595-2.083-5.079z" fill="#1563a9"/></svg>