<svg height="18" viewBox="0 0 18 18" width="18" xmlns="http://www.w3.org/2000/svg" xmlns:xlink="http://www.w3.org/1999/xlink"><linearGradient id="a" gradientUnits="userSpaceOnUse" x1="6.6" x2="11.78" y1="5.9" y2="11.88"><stop offset="0" stop-color="#cf6228"/><stop offset="1" stop-color="#7e8082"/></linearGradient><path d="m0 0h18v18h-18z" fill="#f0f3fa"/><path d="m8 10.23-.6.16v-5.77l1.49-.62 1.67.7v5.7l-.3-.17v-5.25l-1.37-.52-.88.37v5.4zm-2.27-3.76-.45.1v4.1h.45zm-2.73 1.6v1.43l1.03-.47 1.02.38v-1.41l-1.02-.4-1.03.46zm9 2.6v-4.67h-.5v.03l-.82.4v.3l.81-.39v3.8l.51.52zm2.5-2.7.5.27v3.76l-.5-.57zm-5.06.44.26.07v-2.94l-.26-.05zm-3.2 1.23-.24-.06v-2.38l.24.05zm-2.75 1.16.24-.07v-1.42l-.24.07zm-.49 1.2h4.13l-.31-.21h-3.6v-2.25l-.22.06zm1.44-1.12.25.06v-1.1l-.25-.06zm4.68-1.3-.27-.03v-3.32l.27.03v3.33zm3.6-.45.28.07v-2.78l-.27-.07v2.78zm.82 1.6.28-.04v-1.75l-.28.04v1.76zm-.29.11-.25.05v-.97l.25-.05zm-6.17-2.3-.2-.05v-1.49l.2.04zm-.01-1.7v-.32l-1.45-.6v.34l1.45.57zm7.36 1.47v-.28l-1.37.46v.3zm-1.9-.54-.21-.06v-.75l.22.05v.76zm-4.96 3.51c-.2 0-.45.24-.5.47a.51.51 0 0 1 .18-.12.86.86 0 0 0 .1-.05c.14-.1.29-.11.45-.07l.22.07c.34.1.67.22 1.1.08-.18 0-.35-.04-.52-.08a4.5 4.5 0 0 1 -.4-.14l-.36-.12a.88.88 0 0 0 -.27-.04zm1.34.1c.11 0 .22-.04.32-.07l.18-.04.1-.02.54-.08c.23-.02.52 0 .69.2.04.05.05.13.07.2l.02.1a1.04 1.04 0 0 0 -.17-.21c-.19-.16-.44-.13-.66-.1l-.07.01c-.34.05-.68.07-1.02 0zm1.44.42.03.06h.22l-.03-.03a1.34 1.34 0 0 0 -.2-.23.68.68 0 0 0 -.54-.13c-.09.01-.18.04-.26.08a.8.8 0 0 1 .52 0c.14.06.18.13.26.25zm-.17-.78a2.1 2.1 0 0 0 -.52-.14l-.11-.02c-.27-.06-.54.02-.8.1-.26.1-.88.26-.88.26l.14-.35-.72.26 1.14-.67-.32.53.12-.06c.3-.15.5-.26.85-.34.39-.08.82.16 1.1.43z" fill="url(#a)"/></svg>