<svg height="18" viewBox="0 0 18 18" width="18" xmlns="http://www.w3.org/2000/svg"><path d="m0 0h18v18h-18z" fill="#f0f3fa"/><path d="m13 5.1c0-.05-.07-.1-.11-.1-.02 0-.04 0-.05.02l-3.85 2.47-3.84-2.47c-.05-.04-.1-.02-.13.03-.02.02-.02.05-.02.05v7.8c0 .05.05.1.1.1h1.77c.05 0 .13-.05.13-.1v-4.3l1.91 1.16.1.03.1-.03 3.84-2.42c.05-.02.05-.06.05-.12z" fill="#003b7e"/><path d="m12.94 8.21a.1.1 0 0 0 -.1 0l-1.78 1.17c-.04.03-.06.05-.06.14v3.38c0 .05.05.1.1.1h1.8c.05 0 .1-.05.1-.1v-4.6c-.02-.05-.03-.08-.06-.1z" fill="#f9ae00"/></svg>