<svg height="18" viewBox="0 0 18 18" width="18" xmlns="http://www.w3.org/2000/svg"><path d="m0 0h18v18h-18z" fill="#f0f3fa"/><g fill="#202a44"><path d="m14 4h-10v10h10zm-.47.49h-9.08v6.51h9.08z" fill-rule="evenodd"/><path d="m4.78 8.06v2.5h.47v-1.19l.86 1.2.86-1.2v1.2h.47v-2.5l-1.34 1.83z"/><path d="m12.13 10.56a1.25 1.25 0 1 0 0-2.5 1.25 1.25 0 0 0 0 2.5zm0-.47a.78.78 0 1 0 0-1.56.78.78 0 0 0 0 1.56z" fill-rule="evenodd"/><path d="m9.15 10.56a1.25 1.25 0 0 0 1.25-1.43h-1.4v.38h.92a.78.78 0 0 1 -.76.63.79.79 0 0 1 -.79-.8c0-.44.35-.8.79-.8.2 0 .4.1.54.24h.02l.38-.29a1.26 1.26 0 0 0 -2.2.82c0 .7.56 1.25 1.25 1.25z"/></g></svg>