<svg height="18" viewBox="0 0 18 18" width="18" xmlns="http://www.w3.org/2000/svg"><path d="m0 0h18v18h-18z" fill="#024780"/><path d="m6.48 7c-1.78 0-3.73 2.77-4.48 4 .63-.78 2.13-2.67 3.14-2.77 1-.1.77 1.8.57 2.77.6-.82 2.16-2.46 3.24-2.46 1.07 0 .7 1.64.48 2.46 1.57-1.85 2.66-2.46 3.1-2.46.45 0 .61.15.61.46 0 .3-.16.77-.6.77-.36 0-.6-.2-.68-.3-.07.3.05.91 1.12.91 1.35 0 2.02-1.46 2.02-2.38 0-.74-.6-1-.9-1-1.25 0-2.61 1.23-3.13 1.85.3-.62.58-1.85-.68-1.85-1.25 0-2.61 1.23-3.13 1.85.53-1.48-.23-1.85-.68-1.85z" fill="#f89b10"/></svg>