<svg height="18" viewBox="0 0 18 18" width="18" xmlns="http://www.w3.org/2000/svg"><path d="m0 0h18v18h-18z" fill="#1a3b78"/><path d="m5.69 4.28-.69 4.72h1.33l.65-4.3c0-.22.15-.65.7-.65.54 0 .63.39.6.58l-.59 4.37h.05-1.37l-.6 4.23c-.18.83.48 1.77 2.05 1.77.6 0 1.04-.21 1.32-.48.3.28.7.48 1.27.48 1.3 0 1.81-.86 1.91-1.28l.68-4.72h-1.33l-.67 4.3c0 .22-.15.65-.7.65-.54 0-.63-.39-.6-.58l.6-4.37h-.05 1.36l.6-4.23c.19-.83-.47-1.77-2.04-1.77-.6 0-1.03.21-1.31.48-.3-.28-.7-.48-1.27-.48-1.29 0-1.8.86-1.9 1.28zm4.56 4.72h-1.25l-.37 2.65-.24 1.65c0 .22-.15.65-.66.65s-.6-.39-.58-.58l.58-4.37h1.27l.36-2.64.24-1.66c0-.22.14-.65.65-.65s.6.39.58.58z" fill="#fff"/></svg>