<svg height="18" viewBox="0 0 18 18" width="18" xmlns="http://www.w3.org/2000/svg"><path d="m0 0h18v18h-18z" fill="#f0f3fa"/><path d="m3.34 6.69c.07-1.09 1.74-1.47 2.57-1.53-3.2 0-3.94 1.27-3.9 1.9.35 3.85 8.77 5.77 11.12 5.15-7.33-.53-9.88-4.17-9.79-5.52z" fill="#dc5828"/><path d="m14.78 12.08c-1.9 1.35-7.26.1-9.7-.68 4.85 1.98 10.61 2.02 10.9.68.24-1.08-2.98-2.33-4.62-2.82 3.8 1.32 3.87 2.43 3.42 2.82z" fill="#037831"/><circle cx="9" cy="8" fill="#d9d9d9" r="3"/><path d="m11 6h-4l1.17 1.53.78 3.47.93-3.47z" fill="#0054a4"/></svg>