<svg height="18" width="18" xmlns="http://www.w3.org/2000/svg"><path d="m0 0h18v18h-18z" fill="#009ce2"/><path d="m13.74 7.53h-.87c-.1 0-.08.09-.08.09.02.11.04.3.04.68 0 .85-.1 2.07-1.03 3.24l-.06.08-.57-4s0-.08-.08-.08h-.87c-.08 0-.08.09-.08.09-.02.45-.27 4.22-3.01 4.83.58.07 1.28-.12 1.9-.5a3.09 3.09 0 0 0 1.44-1.96s.33 2.1.37 2.59c-.76.4-1.64.62-2.5.62a5.3 5.3 0 0 1 -4.94-3.19 5.05 5.05 0 0 0 4.93 3.98c2.8 0 4.46-2.35 4.74-4.02l.37 2.02h1.14c-.01-.1-.76-4.29-.76-4.36 0 0 0-.09-.08-.09zm-9.67 2.05a4.67 4.67 0 0 1 4.8-4.58 4.8 4.8 0 0 1 4.06 2.09 4.73 4.73 0 0 0 -4.48-3.09 4.66 4.66 0 0 0 -4.74 4.57c0 .69.17 1.36.48 1.98a4.37 4.37 0 0 1 -.12-.96z" fill="#fff"/></svg>