<svg height="18" viewBox="0 0 18 18" width="18" xmlns="http://www.w3.org/2000/svg"><path d="m0 0h18v18h-18z" fill="#f0f3fa"/><path d="m7 10.4v-2.27c.17-.35.63-.53 1.17-.53.53 0 .77.24.83.36.13-.29.67-.36.83-.36.84 0 1.17.47 1.17.7v2.12h-.67v-1.77c0-.35-.16-.53-.5-.53-.26 0-.44.24-.5.35v1.94h-.66v-1.76c0-.35-.17-.53-.5-.53-.27 0-.4.24-.5.35v1.94h-.67z" fill="#14324c"/><ellipse cx="4.5" cy="7.91" fill="#0982ad" rx=".5" ry=".47"/><ellipse cx="6.5" cy="12.91" fill="#0982ad" rx=".5" ry=".47"/><ellipse cx="12.5" cy="12.59" fill="#0982ad" rx=".5" ry=".47"/><ellipse cx="13.5" cy="7.59" fill="#0982ad" rx=".5" ry=".47"/><ellipse cx="8.5" cy="4.47" fill="#0982ad" rx=".5" ry=".47"/><ellipse cx="7.67" cy="5.25" fill="#0982ad" rx=".33" ry=".31"/><ellipse cx="8.67" cy="5.87" fill="#0982ad" rx=".33" ry=".31"/><g fill="#014d92"><ellipse cx="6.67" cy="6.5" rx=".33" ry=".31"/><ellipse cx="5.33" cy="6.81" rx=".33" ry=".31"/><ellipse cx="6" cy="10.25" rx=".33" ry=".31"/><ellipse cx="6" cy="11.19" rx=".33" ry=".31"/><ellipse cx="9" cy="12.44" rx=".33" ry=".31"/><ellipse cx="10.33" cy="12.75" rx=".33" ry=".31"/><ellipse cx="12.33" cy="9.94" rx=".33" ry=".31"/><ellipse cx="13" cy="9" rx=".33" ry=".31"/><ellipse cx="11" cy="6.5" rx=".33" ry=".31"/><ellipse cx="10" cy="5.25" rx=".33" ry=".31"/></g><ellipse cx="12.5" cy="6.66" fill="#d21d54" rx=".5" ry=".47"/><ellipse cx="6" cy="8.06" fill="#0982ad" rx=".33" ry=".31"/><ellipse cx="5" cy="9.31" fill="#0982ad" rx=".33" ry=".31"/><ellipse cx="7" cy="11.5" fill="#0982ad" rx=".33" ry=".31"/><ellipse cx="7.67" cy="12.44" fill="#0982ad" rx=".33" ry=".31"/><ellipse cx="11" cy="11.5" fill="#0982ad" rx=".33" ry=".31"/><ellipse cx="12.33" cy="11.19" fill="#0982ad" rx=".33" ry=".31"/><ellipse cx="12.33" cy="8.06" fill="#0982ad" rx=".33" ry=".31"/><ellipse cx="5.83" cy="5.41" fill="#004d8f" rx=".5" ry=".47"/><ellipse cx="4.5" cy="10.72" fill="#004d8f" rx=".5" ry=".47"/><ellipse cx="9.5" cy="13.53" fill="#004d8f" rx=".5" ry=".47"/><ellipse cx="13.5" cy="10.41" fill="#004d8f" rx=".5" ry=".47"/><ellipse cx="11.5" cy="5.09" fill="#004d8f" rx=".5" ry=".47"/></svg>