<svg height="18" viewBox="0 0 18 18" width="18" xmlns="http://www.w3.org/2000/svg"><path d="m0 0h18v18h-18z" fill="#013660"/><path d="m16 8.97a5.75 5.75 0 0 1 -3.51-1l-.11.5c.25.2.86.44 1.14.54-.46.1-1.1.5-1.37.68l-.09.6c1.18-.95 3.12-1.27 3.94-1.32z" fill="#febe3a"/><path d="m6.8 6.55-1.65 4.9h1.19l1.1-3.5.34 3.5h.98l2.31-3.5-.85 3.5h1.25l1.03-4.9h-1.61l-2.13 3.13-.3-3.13z" fill="#fff"/><path d="m5.66 7.92-.22.66c-.39.24-.83.38-1 .43l.78.3-.13.48c-.84-.59-2.41-.76-3.09-.79 1.6 0 3.1-.73 3.66-1.09zm2.64-2.07h-.56a7.81 7.81 0 0 0 1.26-3.64 7.45 7.45 0 0 0 1.37 3.89l-.26.38a7.34 7.34 0 0 1 -1.11-2c-.04.34-.48 1.03-.69 1.37zm-.57 6.3h.55c.2.3.61.95.72 1.4.1-.33.4-1.1.78-1.57l.17.1h.28c-.43.7-1.27 2.4-1.24 3.8a7.11 7.11 0 0 0 -1.26-3.73z" fill="#febe3a"/></svg>