<svg height="18" viewBox="0 0 18 18" width="18" xmlns="http://www.w3.org/2000/svg"><path d="m0 0h18v18h-18z" fill="#f0f3fa"/><path d="m8.05 10.28-3.75-2.95.83-.68 5.52 1.83zm3.27-2.2-2.38-4.15 1.08-.73 3.9 2.99-2.6 1.9z" fill="#00529b"/><path d="m8.08 10.33v4.43l2.52-1.84v-4.4zm3.15-2.13v4.43l2.52-1.83v-4.41z" fill="#ffc523"/><path d="m14 6.01-4.06-3.01-1.21.82v3.8l-3.7-1.15-1.03.82v4.57l4.06 3.13v.01l2.73-2.06v-.76l.21.4.15.29v.01l2.85-2.17v-4.7l-.01.01zm-2.85 6.25v-4.18l-2.15-3.8v3.42l1.8.57h-.01v3.39c.12.16.27.41.37.6zm2.57-6.05-3.79-2.91-.87.58 2.26 3.96 2.01-1.37.4-.27zm.02 4.39v-4.1l-2.33 1.63v4.24zm-9.48-2.95v4.09l3.68 2.86v-4.24l-3.68-2.7zm6.27 1.08v4.1l-2.33 1.77v-4.24zm-5.44-1.99-.74.58 3.73 2.8 2.32-1.6-5.3-1.78z" fill-rule="evenodd"/></svg>