<svg height="18" viewBox="0 0 18 18" width="18" xmlns="http://www.w3.org/2000/svg" xmlns:xlink="http://www.w3.org/1999/xlink"><linearGradient id="a"><stop offset="0" stop-color="#1f4fa2"/><stop offset="1" stop-color="#0499db"/></linearGradient><linearGradient id="b" gradientUnits="userSpaceOnUse" x1="5.26" x2="12.02" xlink:href="#a" y1="7.08" y2="7.87"/><linearGradient id="c" gradientUnits="userSpaceOnUse" x1="5.12" x2="11.88" xlink:href="#a" y1="8.28" y2="9.07"/><linearGradient id="d" gradientUnits="userSpaceOnUse" x1="4.76" x2="11.52" xlink:href="#a" y1="11.35" y2="12.14"/><path d="m0 0h18v18h-18z" fill="#f0f3fa"/><path d="m7.86 5.52c-1.25.09-2.94.62-3.81 1.57a4.8 4.8 0 0 1 2.55-1.06c1.85-.24 4.79.72 5.67 4.13a21.4 21.4 0 0 1 2.73-.33 7.03 7.03 0 0 0 -7.14-4.31z" fill="url(#b)"/><path d="m4.05 7.09c2.48-1.42 5.16.74 4.78 4.1.92-.38 1.86-.69 2.82-.9a4.83 4.83 0 0 0 -7.6-3.2z" fill="url(#c)"/><path d="m4 7.14c2.89-.85 3.03 2.6.16 6.37v.49c1.51-1.16 2.35-1.83 4.04-2.54.54-3.14-1.15-4.7-2.82-4.7-.48 0-.96.13-1.38.38z" fill="url(#d)"/></svg>