<svg height="18" viewBox="0 0 18 18" width="18" xmlns="http://www.w3.org/2000/svg"><path d="m0 0h18v18h-18z" fill="#f0f3fa"/><path d="m9 4a5.04 5.04 0 0 0 -3.56 8.56 4.92 4.92 0 0 0 3.5 1.44 5.1 5.1 0 0 0 5.06-5.06 5.01 5.01 0 0 0 -5-4.94zm1 6h-1v-1.83c0-.39-.06-.47-.28-.47-.21.03-.22.15-.22.28v2.02h-1v-1.8c0-.4 0-.5-.2-.5-.2.02-.3.19-.3.28v2.02h-1v-1.95c0-.35.01-.57-.1-.83l.76-.2c.06.1.1.2.12.32.14-.14.4-.33.61-.33.31 0 .61.17.78.43.22-.27.61-.43.95-.42.63-.02.87.42.87.98v2zm2 .22c.07.6-.33 1.41-1.05 1.47l-.35-.46c.3-.25.43-.6.4-.99v-3.02l1-.2z" fill="#2a2b30"/></svg>