<svg height="18" viewBox="0 0 18 18" width="18" xmlns="http://www.w3.org/2000/svg"><path d="m0 0h18v18h-18z" fill="#f0f3fa"/><path d="m8.44 3h.09c.03 0 .06.03.09.05.02.02.03.05.03.08v1.03c0 .09-.05.13-.13.12a4.72 4.72 0 0 1 -1.9-.53c-.08-.04-.1-.1-.08-.19a6.38 6.38 0 0 1 1.9-.56zm1.04 0h.1c.57.07 1.13.21 1.67.42.07.03.13.07.18.13.06.08.05.14-.04.18a4.7 4.7 0 0 1 -1.83.55c-.05 0-.1 0-.15-.02-.03-.01-.06-.03-.06-.07v-1.09c0-.02.02-.04.04-.05a.21.21 0 0 1 .09-.05zm-1.46 2.49c-.9.44-1.87.66-2.9.66-.39 0-.77-.06-1.15-.17-.1-.03-.12-.1-.06-.19a6.2 6.2 0 0 1 1.53-1.64c.05-.04.1-.05.16 0 .76.54 1.62.86 2.58.96.05 0 .1.03.14.06.06.04.06.08 0 .13-.1.07-.2.14-.3.19zm2.22.13a2.71 2.71 0 0 1 -.48-.26c-.18-.13-.16-.2.05-.24a5.79 5.79 0 0 0 2.6-.99c.04-.03.08-.03.12 0 .61.45 1.13 1 1.56 1.67.02.03.02.06.02.1a.11.11 0 0 1 -.09.08c-1.19.33-2.45.2-3.78-.36z" fill="#71c8ea"/><path d="m5.75 8.39c-.2.05-.3.25-.3.62l-.02.19c0 .05-.03.08-.08.08a5.7 5.7 0 0 1 -2.22-.45c-.1-.04-.14-.1-.13-.18.05-.7.2-1.36.45-1.96.02-.04.05-.06.1-.04.67.22 1.35.3 2.05.25a8.9 8.9 0 0 0 2.9-.77.1.1 0 0 1 .1 0c.03.02.05.05.05.09v1.94a.2.2 0 0 1 -.07.16c-.51.46-1.23.76-2.16.89-.04 0-.07-.02-.07-.06l-.02-.22a.81.81 0 0 0 -.07-.34c-.1-.2-.27-.26-.51-.2zm6.25-.01c-.19.04-.3.22-.33.56l-.02.19c-.01.06-.05.09-.1.08a4.46 4.46 0 0 1 -2.14-.9.16.16 0 0 1 -.06-.12v-1.96c0-.1.05-.14.14-.1.95.42 1.9.68 2.84.76.7.07 1.4 0 2.09-.23.07-.02.12 0 .14.07.26.64.4 1.28.44 1.9 0 .1-.06.17-.18.22l-.03.01a5.71 5.71 0 0 1 -2.17.4c-.02 0-.04-.02-.04-.04l-.03-.3c.03-.42-.15-.6-.54-.54z" fill="#5cb531"/><g fill="#0069b7"><path d="m9.08 9.1c.67.5 1.5.82 2.5.96.04 0 .08.03.1.08.02.04.02.09 0 .13a2.87 2.87 0 0 1 -2.44 1.68c-.5.04-.98-.04-1.44-.25a3.05 3.05 0 0 1 -1.48-1.47c-.03-.09 0-.14.09-.16a6.1 6.1 0 0 0 2.51-.98c.05-.04.1-.04.16 0zm-5.43 2.62a5.84 5.84 0 0 1 -.58-1.88c0-.08.04-.1.1-.08.71.23 1.41.36 2.11.37a.1.1 0 0 1 .09.06c.02.03.02.07 0 .1-.36.7-.9 1.2-1.6 1.47-.06.02-.1 0-.12-.04zm11.35-1.84a5.44 5.44 0 0 1 -.59 1.82c-.03.06-.08.08-.14.06a2.95 2.95 0 0 1 -1.58-1.46.11.11 0 0 1 0-.11.1.1 0 0 1 .1-.06c.7-.02 1.4-.14 2.05-.36a.15.15 0 0 1 .1 0c.05.02.07.06.06.11zm-10.73 2.62c.36-.17.68-.38.98-.63a.1.1 0 0 1 .1-.01.1.1 0 0 1 .07.1v1.62c0 .08-.04.11-.11.11a.14.14 0 0 1 -.09-.03c-.4-.33-.72-.67-.98-1.02-.05-.06-.04-.1.03-.14z"/><path d="m7.1 12.36a4.08 4.08 0 0 0 4.52-.46c.08-.07.15-.05.19.06l.01.11v2.18c0 .08-.03.13-.1.17a6.51 6.51 0 0 1 -5.45-.03.15.15 0 0 1 -.1-.15v-2.24c0-.06.03-.1.08-.12.06-.03.12-.02.18.02.22.2.45.35.67.46zm6.54.07.15.08c.06.04.07.08.03.14a6.27 6.27 0 0 1 -1.06 1.04c-.08.02-.12-.01-.12-.1v-1.63a.1.1 0 0 1 .06-.1.09.09 0 0 1 .1.01c.27.22.55.4.84.56z"/></g></svg>