<svg fill="none" height="18" width="18" xmlns="http://www.w3.org/2000/svg"><path d="m0 0h18v18h-18z" fill="#f0f3fa"/><g clip-rule="evenodd" fill-rule="evenodd"><path d="m7.409 7h2.091l.242 2.68 1.126-2.68h2.132l-.724 4h-1.27l.505-3.02-1.448 3.02h-1.327l-.322-3.02-.563 3.02h-1.166z" fill="#7c7d81"/><path d="m11.618 5c1.148 0 1.661.823 1.6 2h1.67s.016-.032.027-.083c.4-1.796-.645-2.917-2.336-2.917-3.218 0-6.759 3-7.579 6 .724-2.657 3.837-5 6.618-5z" fill="#296cb3"/><path d="m6.887 13c-1.274.01-1.979-.736-1.887-2l-1.816.004c-.07.258-.183.62-.184.95-.002 1.3.854 2.037 2.234 2.046a5.484 5.484 0 0 0 1.748-.29c1.45-.496 2.931-1.292 4.018-2.507v-.203c-1.069 1.033-2.614 1.989-4.113 2z" fill="#da344a"/></g></svg>