<svg height="18" width="18" xmlns="http://www.w3.org/2000/svg"><path d="m0 0h18v18h-18z" fill="#e41d38"/><g fill="#fff"><path d="m16 8-3.826 3.676c-.097.1-.214.18-.344.236-.13.055-.27.085-.413.088a1.057 1.057 0 0 1 -.723-.294.982.982 0 0 1 -.294-.703v-1.988a.96.96 0 0 0 .292.706 1.06 1.06 0 0 0 .725.299 1.114 1.114 0 0 0 .757-.324l3.826-3.696z"/><path d="m12.5 8.957a.954.954 0 0 0 -.288-.7 1.01 1.01 0 0 0 -1.119-.206 1.062 1.062 0 0 0 -.338.231l-3.49 3.4a1.048 1.048 0 0 1 -1.468.03.97.97 0 0 1 -.297-.693v-1.686c-.001.13.024-.018.074.102a1.019 1.019 0 0 0 1.34.528c.129-.055.244-.134.34-.232l3.506-3.411c.193-.197.458-.312.737-.32a1.035 1.035 0 0 1 .71.295.974.974 0 0 1 .287.697z"/><path d="m7.6 9a1.067 1.067 0 0 0 -.29-.738 1.036 1.036 0 0 0 -.712-.297 1.075 1.075 0 0 0 -.746.32l-3.852 3.715v-2l3.85-3.68c.095-.1.211-.179.34-.234.128-.055.267-.084.408-.086.269.004.525.11.712.297a.966.966 0 0 1 .29.695z"/></g></svg>