<svg height="18" width="18" xmlns="http://www.w3.org/2000/svg"><path d="m0 0h18v18h-18z" fill="#472380"/><path d="m7.308 11.492c-.187.18-.457.24-.626.264a.999.999 0 0 1 -.93-.368c-.186-.238-.282-.547-.464-.794-.289-.39-.813-.684-1.288-.594-.938.181-1.3 1.383-.769 2.19.758 1.154 2.463.954 3.337.155.273-.249.527-.525.74-.853z" fill="#e51636"/><path d="m13.443 11.007c-.705-.822-.925-2.19-.969-3.1-.037-.785.003-2.146.584-2.542-.194-.26-.579-.365-.87-.365-.657 0-.973.465-1.197.8l-1.177 1.728s-.928-1.528-1.042-1.71c-.158-.253-.453-.718-.971-.799-.224-.035-.803-.066-1.118.394.543.463.53 1.641.412 2.446-.354 2.415-1.32 2.637-1.32 2.637.495 1.422 1.768.86 2.128-.273.234-.737.384-1.67.419-2.443l1.398 2.282s1.583-2.275 1.583-2.273c-.26 4.023 1.061 5.211 2.197 5.211s1.5-1.153 1.5-1.153c-.615-.04-1.153-.368-1.557-.84z" fill="#fff"/></svg>