<svg fill="none" height="18" viewBox="0 0 18 18" width="18" xmlns="http://www.w3.org/2000/svg"><path d="m0 0h18v18h-18z" fill="#f0f3fa"/><path d="m9 14c2.7614 0 5-2.2386 5-5.00002 0-2.76141-2.2386-4.99998-5-4.99998-2.76142 0-5 2.23857-5 4.99998 0 2.76142 2.23858 5.00002 5 5.00002z" fill="#007bbb"/><path d="m8.46667 5c-1.95699.2619-3.46667 1.94502-3.46667 3.9823 0 1.4311.87831 2.6875 2 3.3992v-.9815c-.19351-.174-.51994-.3932-.66667-.6094.0017-.0312.00277-.0502.00277-.0502l.6639-2.5404 1.46667 4c-.17783-.0309-.30019-.1409-.46667-.2v.842c.33958.0941.63061.158 1 .158s.66042-.0639 1-.158v-.842c-.16647.0591-.28884.1691-.46667.2l1.46667-4 .663 2.5469s.0014.02.0037.0529c-.1454.2126-.4759.4287-.6667.6002v.9815c1.1217-.7117 2-1.9681 2-3.3992 0-2.03728-1.5097-3.7204-3.46667-3.9823v.8c.28647.04827.54477.08067.79997.2l-1.33606 4-1.33057-4c.25714-.12092.51108-.15131.8-.2z" fill="#93c83e"/></svg>