<svg height="18" viewBox="0 0 18 18" width="18" xmlns="http://www.w3.org/2000/svg" xmlns:xlink="http://www.w3.org/1999/xlink"><linearGradient id="a" gradientUnits="userSpaceOnUse" x1="9" x2="9" y1="4" y2="11.24"><stop offset="0" stop-color="#a9d042"/><stop offset="1" stop-color="#12a04a"/></linearGradient><linearGradient id="b" gradientUnits="userSpaceOnUse" x1="6.18" x2="6.18" y1="7.21" y2="12.68"><stop offset=".3" stop-color="#25aae1"/><stop offset=".78" stop-color="#267bc0"/><stop offset="1" stop-color="#2ba2d4"/></linearGradient><path d="m0 0h18v18h-18z" fill="#f0f3fa"/><path d="m3 9.2c0 1.05.22 1.8.33 2.04a4.73 4.73 0 0 1 1.1-3.4 41.73 41.73 0 0 0 1.67-1.9c.11.16.6.75 1.66 1.9.53.6.87 1.3 1.06 1.92a5.32 5.32 0 0 0 .22 1.45c.07-.2.13-.68.14-1.34.17-.66.5-1.4 1.06-2.02a41.77 41.77 0 0 0 1.66-1.9c.12.15.62.74 1.66 1.9a4.73 4.73 0 0 1 1.1 3.39c.12-.25.34-1 .34-2.04 0-1.13-1.06-2.39-1.94-3.43-.63-.74-1.16-1.37-1.16-1.77 0 .4-.53 1.03-1.15 1.77-.65.77-1.4 1.66-1.75 2.53-.35-.87-1.1-1.76-1.75-2.53-.62-.74-1.15-1.37-1.15-1.77 0 .4-.53 1.03-1.16 1.77-.88 1.03-1.94 2.3-1.94 3.43z" fill="url(#a)"/><path d="m5.05 8.3 1.02-1.09 1.12 1.06c.7.67 1.1 1.58 1.1 2.53 0 1.04-.89 1.88-1.98 1.88h-.18c-1.16 0-2.1-.9-2.07-2a3.6 3.6 0 0 1 .99-2.38z" fill="url(#b)"/><path d="m11.9 12.68a3.1 3.1 0 0 1 -2.2-.98c.25.44 1.02 1.3 2.2 1.3 1.16 0 1.85-.86 2.04-1.3-.24.33-.98.98-2.05.98z" fill="#9aaf90"/><path d="m12.05 7.86a6.13 6.13 0 0 0 0 4.82c.29-1.33.69-4.16 0-4.82z" fill="#73bc48"/></svg>