<svg height="18" viewBox="0 0 18 18" width="18" xmlns="http://www.w3.org/2000/svg"><path d="m0 0h18v18h-18z" fill="#f0f3fa"/><path d="m5.93 11h-2.83a.1.1 0 0 1 -.1-.16l3.32-5.79a.1.1 0 0 1 .18 0l1.43 2.41a.4.4 0 0 1 0 .4l-1.65 2.94a.4.4 0 0 1 -.34.2zm6.59-2.9c.04-.07.12-.1.19-.1s.14.03.19.1l2.07 2.62c.08.13-.02.28-.19.28h-3.56c-.17 0-.27-.15-.2-.28l1.5-2.63zm-5.46 3.4 1.37 2.43c.06.1.2.1.25 0l3.56-6.25c.15-.28-.1-.58-.3-.82l-1.27-1.63c-.1-.11-.25-.3-.32-.17l-3.29 5.94a.5.5 0 0 0 0 .5z" fill="#003ab5"/></svg>