<svg height="18" viewBox="0 0 18 18" width="18" xmlns="http://www.w3.org/2000/svg"><path d="m0 9a9 9 0 1 1 18 0 9 9 0 1 1 -18 0z" fill="#f2a4b4"/><path d="m13.21 10.47a2.25 2.25 0 0 0 1.75-2.64 2.22 2.22 0 0 0 -2.6-1.79c-.45.09-.84.31-1.14.62l-.05-.27-.96.19 1.23 6.42.96-.19-.47-2.48c.39.17.83.23 1.28.14zm-.19-.98c.67-.13 1.1-.79.98-1.47a1.24 1.24 0 0 0 -1.45-1c-.67.13-1.1.8-.97 1.47.13.69.78 1.13 1.44 1zm-6.54-1.48c.2-.5.63-.88 1.19-1 .9-.2 1.77.37 1.96 1.27l.56 2.71-.96.21-.52-2.5a.87.87 0 0 0 -1.04-.67.88.88 0 0 0 -.67 1.04l.52 2.5-.96.22-.53-2.51a.87.87 0 0 0 -1.03-.67.88.88 0 0 0 -.68 1.04l.53 2.5-.97.22-.88-4.24.96-.2.06.28a1.67 1.67 0 0 1 2.46-.21z" fill="#fff" fill-rule="evenodd"/></svg>