<svg height="18" viewBox="0 0 18 18" width="18" xmlns="http://www.w3.org/2000/svg"><path d="m0 0h18v18h-18z" fill="#f0f3fa"/><path d="m4 9c0 2.75 2.25 5 5 5s5-2.25 5-5-2.25-5-5-5-5 2.25-5 5z" fill="#ea6224"/><path d="m11.93 12.13c-.1-1.7-.23-4.5-.23-5.12a.2.2 0 0 0 -.06-.15c-.03-.03-.09-.05-.18-.05h-.76c-.22 0-.3.16-.32.18l-1.38 2.2-1.36-2.21c-.01-.02-.1-.16-.32-.16h-.77c-.13 0-.23.02-.23.18-.02.64-.14 3.42-.23 5.12 0 0 0 .27.14.37.4.32.6.56 1.06.73h.04v-4.9l1.67.95h.05l1.62-.95v4.86c0 .02 0 .02.02.02h.04c.48-.16.7-.41 1.1-.74.08-.09.1-.3.1-.34zm-1.37-6.25c0-.34.29-.63.63-.63s.62.29.62.63c0 .33-.28.62-.62.62a.62.62 0 0 1 -.63-.63zm-4.37 0c0-.34.28-.63.62-.63s.63.29.63.63c0 .33-.29.62-.63.62a.62.62 0 0 1 -.62-.63z" fill="#fff"/></svg>