<svg fill="none" height="18" viewBox="0 0 18 18" width="18" xmlns="http://www.w3.org/2000/svg"><path d="m0 0h18v18h-18z" fill="#f0f3fa"/><g clip-rule="evenodd" fill-rule="evenodd"><path d="m9 4c2.7614 0 5 2.23857 5 5 0 2.7614-2.2386 5-5 5-2.76143 0-5-2.2386-5-5 0-2.76143 2.23857-5 5-5z" fill="#e84910"/><path d="m9 5c2.2091 0 4 1.79086 4 4 0 2.2091-1.7909 4-4 4-2.20914 0-4-1.7909-4-4 0-2.20914 1.79086-4 4-4z" fill="#004996"/><path d="m11.5 10c.2761 0 .5.2239.5.5s-.2239.5-.5.5-.5-.2239-.5-.5.2239-.5.5-.5z" fill="#e84910"/><path d="m6 11h1v-2.16535c0-.47103.26204-.83465.72155-.83465s.77845.36362.77845.83465v2.16535h1v-2.23529c0-.97061-.83159-1.76471-1.77845-1.76471-.94687 0-1.72155.7941-1.72155 1.76471z" fill="#fff"/><path d="m8.55682 11h.94312v-2.16535c0-.47103.31893-.83465.77846-.83465.4595 0 .7215.36363.7215.83465v.66535h1v-.73529c0-.97061-.7747-1.76471-1.7215-1.76471-.94689 0-1.72158.7941-1.72158 1.76471z" fill="#fff"/></g></svg>