<svg height="18" viewBox="0 0 18 18" width="18" xmlns="http://www.w3.org/2000/svg"><path d="m0 0h18v18h-18z" fill="#f0f3fa"/><path d="m14 9a5 5 0 1 1 -10 0 5 5 0 0 1 10 0z" fill="#fff"/><path d="m13.97 9.56a5 5 0 0 1 -9.94 0c.4 0 .78-.25 1.19-.56.49-.38 1.02-.82 1.82-.82 1.03 0 1.96.9 1.96.9s.93-.9 1.96-.9c.8 0 1.33.44 1.82.82.41.31.8.56 1.19.56z" fill="#172b7b"/><path d="m13.66 7.18c-.82 0-1.12-.3-1.47-.54a2.3 2.3 0 0 0 -1.38-.38c-1.08 0-1.81.72-1.81.72s-.73-.72-1.81-.72a2.3 2.3 0 0 0 -1.38.38c-.35.24-.65.54-1.47.54a5 5 0 0 1 9.32 0z" fill="#e60012"/></svg>