<svg height="18" viewBox="0 0 18 18" width="18" xmlns="http://www.w3.org/2000/svg" xmlns:xlink="http://www.w3.org/1999/xlink"><linearGradient id="a" gradientUnits="userSpaceOnUse" x1="7.51" x2="6.5" y1="7" y2="5.92"><stop offset=".15" stop-color="#901000"/><stop offset="1" stop-color="#c01802"/></linearGradient><linearGradient id="b" gradientUnits="userSpaceOnUse" x1="6.01" x2="5" y1="10.1" y2="9.02"><stop offset=".15" stop-color="#0b6e16"/><stop offset="1" stop-color="#26b72d"/></linearGradient><linearGradient id="c" gradientUnits="userSpaceOnUse" x1="7.51" x2="6.5" y1="13" y2="11.92"><stop offset=".15" stop-color="#202344"/><stop offset="1" stop-color="#142c89"/></linearGradient><path d="m0 0h18v18h-18z" fill="#f0f3fa"/><path d="m13.99 7.5h-2.99v.33h1.16v2.67h.73v-2.67h1.11c.02 0 0-.22 0-.33z"/><path d="m9 14.66a5.65 5.65 0 1 0 0-11.3 5.65 5.65 0 0 0 0 11.3zm0 .35a6 6 0 1 0 0-12 6 6 0 0 0 0 12z" fill-rule="evenodd"/><circle cx="6.5" cy="6" fill="url(#a)" r="1.5"/><circle cx="5" cy="9.1" fill="url(#b)" r="1.5"/><circle cx="6.5" cy="12" fill="url(#c)" r="1.5"/><path d="m7.24 10.29v.21h.62l.36-1.57.71 1.57h.12l.75-1.57.39 1.57h.57l-.65-3h-.23l-.83 2.14-.78-2.14h-.27l-.65 2.79zm4.06-1.39c.1 0 .17-.09.17-.2s-.08-.2-.18-.2-.17.09-.17.2.08.2.17.2zm-.36.4v-.1c.08.01.28 0 .4-.14h.13v1.44h-.35v-1.2z"/></svg>