<svg height="18" viewBox="0 0 18 18" width="18" xmlns="http://www.w3.org/2000/svg"><path d="m0 0h18v18h-18z" fill="#f0f3fa"/><path d="m4 5h10v8h-10z" fill="#0e2050"/><path d="m12.5 6.5h-7v5h7zm-8-1v7h9v-7z" fill="#fff" fill-rule="evenodd"/><path d="m12.5 6.5h-7v5h7zm-7.5-.5v6h8v-6z" fill="#e30613" fill-rule="evenodd"/><path d="m8 9.96c-.01.07 0 .13.04.2.03.06.07.12.13.17s.13.09.2.11a.7.7 0 0 0 .24.04v-1.39c-.61.01-.61.56-.61.56h-.8v-1.5h-.2l.59-.66.54.65h-.15v.43h.62v-.92h-.2l.58-.65.6.65h-.2v.92h.64v-.43h-.2l.6-.65.58.65h-.2v1.52h-.78s0-.57-.62-.57v1.38c.08 0 .16-.01.24-.04a.63.63 0 0 0 .2-.1c.06-.06.1-.12.14-.18a.44.44 0 0 0 .04-.2h.83c-.05.28-.2.54-.44.74-.4.32-1.41.31-1.41.31s-.98 0-1.4-.3a1.1 1.1 0 0 1 -.44-.75h.84z" fill="#fff"/></svg>