<svg height="18" width="18" xmlns="http://www.w3.org/2000/svg"><path d="m0 0h18v18h-18z" fill="#1a25ab"/><g fill="#fff"><path d="m9.001 13.7a4.7 4.7 0 1 0 0-9.4 4.7 4.7 0 0 0 0 9.4zm0 .3a5 5 0 1 0 0-10 5 5 0 0 0 0 10z" fill-rule="evenodd"/><path d="m8.996 4.436-4.57 4.57 4.57 4.572 4.571-4.571-4.57-4.571zm-4.995 4.57 4.995 4.996 4.995-4.995-4.994-4.997-4.996 4.997z" fill-rule="evenodd"/><path d="m12.329 12.56-6.848-6.847.212-.212 6.847 6.847-.213.212z"/><path d="m8.83 13.733v-9.54h.3v9.54z"/><path d="m13.75 9.113h-9.54v-.3h9.54z"/><path d="m5.694 12.56 6.846-6.847-.212-.212-6.846 6.847z"/><path d="m13.274 11.498h-8.588v-.3h8.588zm.153-4.683h-8.741v-.3h8.741z"/><path d="m9.62 9.006a.624.624 0 1 1 -1.248 0 .624.624 0 0 1 1.249 0zm-2.58 2.35a.46.46 0 1 1 -.919 0 .46.46 0 0 1 .919 0zm-2.008-.008a.406.406 0 1 1 -.812 0 .406.406 0 0 1 .812 0zm.937-5.776a.407.407 0 1 1 -.814 0 .407.407 0 0 1 .814 0zm3.481 8.214a.47.47 0 1 1 -.94 0 .47.47 0 0 1 .94 0zm4.854-4.786a.404.404 0 1 1 -.807 0 .404.404 0 0 1 .807 0zm-.808-2.335a.312.312 0 1 1 -.624 0 .312.312 0 0 1 .624 0zm-6.43 0a.486.486 0 1 1 -.971 0 .486.486 0 0 1 .971 0zm2.323 4.683a.392.392 0 1 1 -.785 0 .392.392 0 0 1 .785 0zm-2.431-6.556a.378.378 0 1 1 -.756 0 .378.378 0 0 1 .756 0zm-1.802 1.873a.452.452 0 1 1 -.904 0 .452.452 0 0 1 .904 0zm6.798 6.547a.46.46 0 1 1 -.919 0 .46.46 0 0 1 .919 0zm.018-8.42a.468.468 0 1 1 -.937 0 .468.468 0 0 1 .937 0zm-.166 4.215a.312.312 0 1 1 -.624 0 .312.312 0 0 1 .624 0z"/></g></svg>