<svg height="18" viewBox="0 0 18 18" width="18" xmlns="http://www.w3.org/2000/svg"><path d="m0 0h18v18h-18z" fill="#f0f3fa"/><circle cx="12" cy="5" fill="#019b48" r="1"/><circle cx="7" cy="7" fill="#95b724" r="1"/><circle cx="5" cy="12" fill="#00a7e2" r="1"/><path d="m8.99 11 1.48 1.53c.04.1.17.33.35.47h-3.82a.5.5 0 0 1 -.5-.5v-1c0-.27.23-.5.5-.5h2zm2.52.12.17 1.65a1 1 0 0 0 -.17-1.65z" fill="#00a7e2"/><path d="m7.75 8.41c-.2.2-.2.53 0 .73l2.85 2.85v-2.83l-1.44-1.44a.51.51 0 0 0 -.72 0l-.7.7zm3.28 1.19v2.68a1 1 0 0 0 1.03-1.65z" fill="#95b724"/><rect fill="#019b48" height="6.5" rx=".7" width="2" x="11" y="6.5"/></svg>