<svg height="18" viewBox="0 0 18 18" width="18" xmlns="http://www.w3.org/2000/svg"><path d="m0 0h18v18h-18z" fill="#f0f3fa"/><path d="m9 14.3a5.3 5.3 0 1 0 0-10.6 5.3 5.3 0 0 0 0 10.6zm0 .7a6 6 0 1 0 0-12 6 6 0 0 0 0 12z" fill="#f2c608" fill-rule="evenodd"/><path d="m10.91 6.1a4.51 4.51 0 0 0 -2.23-1.1h.32a4 4 0 1 1 -3.95 3.36c.1 1.33.56 2.15.74 2.4a3.76 3.76 0 0 0 3.31 1.82c-.98-.4-1.11-1.2-1.14-1.72-.02-.52.21-1 .8-1.65.46-.5.47-1.3.45-1.64-.14-1.32-1.15-1.57-1.68-1.59-.42-.02-.86.07-1.03.11.31-.2.82-.34 1.03-.34 1.44.05 2 1.27 2.05 1.82.06.36.04 1.24-.48 1.83-.67.78-.7 1.24-.7 1.45v.01c0 .2.09 1.66 1.42 1.59a2.34 2.34 0 0 0 1.9-1.27c-.42.03-.8-.15-.93-.25-.06.07-.18.22-.22.22.15-.2.21-.92.22-1.25.08.01.11.58.12.87.1.07.37.1.5.1 1.18-.15 1.25-1 1.25-1.24s-.03-.67-.4-.67c-.3 0-.44.37-.48.56-.04-.1.02-.34.06-.44l-.3-.4c.12-.54.15-1.81-.63-2.59zm-.82 2.59c.2-.13.63-.39.77-.38s.36.15.45.22c-.38.08-1.15.23-1.22.16z" fill="#08a33e"/></svg>