<svg height="18" width="18" xmlns="http://www.w3.org/2000/svg"><path d="m0 0h18v18h-18z" fill="#123864"/><circle cx="11.998" cy="3.397" fill="#fff" r=".317"/><circle cx="6.191" cy="6.006" fill="#fff" r=".397"/><circle cx="6.638" cy="4.782" fill="#fff" r=".397"/><circle cx="6.351" cy="7.38" fill="#fff" r=".476"/><circle cx="7.035" cy="8.495" fill="#fff" r=".397"/><circle cx="7.72" cy="9.592" fill="#fff" r=".317"/><circle cx="8.444" cy="10.429" fill="#fff" r=".317"/><circle cx="7.696" cy="11.668" fill="#eaa263" r=".317"/><circle cx="6.951" cy="12.926" fill="#eaa263" r=".317"/><circle cx="7.854" cy="12.643" fill="#eaa263" r=".317"/><circle cx="9.041" cy="11.328" fill="#fff" r=".238"/><circle cx="9.201" cy="12.365" fill="#fff" r=".238"/><circle cx="8.762" cy="13.243" fill="#fff" r=".238"/><circle cx="7.92" cy="6.131" fill="#eaa263" r=".317"/><circle cx="8.883" cy="5.814" fill="#eaa263" r=".317"/><circle cx="9.835" cy="5.496" fill="#eaa263" r=".317"/><g fill="#fff"><circle cx="12.605" cy="4.503" r=".397"/><circle cx="12.263" cy="6.165" r=".739"/><circle cx="10.807" cy="7.777" r=".873"/><circle cx="9.14" cy="9.116" r=".794"/><circle cx="6.856" cy="10.429" r=".714"/><circle cx="5.685" cy="11.985" r=".556"/><circle cx="5.397" cy="13.481" r=".397"/><circle cx="5.62" cy="14.762" r=".238"/></g></svg>