<svg height="18" viewBox="0 0 18 18" width="18" xmlns="http://www.w3.org/2000/svg"><path d="m0 0h18v18h-18z" fill="#f0f3fa"/><path d="m7.03 4c-.44 4.34 3.65 8.47 5.76 10 .05-.27-.54-.68-.54-1.75 0-1.35 1.75-2.57 1.75-3.75 0-1.17-1.54-2.78-2.1-3.26a9.62 9.62 0 0 1 -.43 3.32c-.02.07-.08.12-.16.12-.1 0-.21-.07-.23-.16-.75-3.49-3.52-4.52-4.05-4.52z" fill="#138542"/><path d="m10 12.72c-1.6-1.64-3.5-4.92-5.02-6.72-.07.12-.21.62-.21 1.64 0 .88 1.19 2.3 2.03 3.13.1.1 0 .27-.14.24-.45-.09-1-.19-1.28-.19-.5 0-.89.08-1.38.3 1.1 1.6 2.12 1.88 3.7 1.88a7.4 7.4 0 0 0 2.3-.28z" fill="#e67629"/></svg>