<svg height="18" width="18" xmlns="http://www.w3.org/2000/svg" xmlns:xlink="http://www.w3.org/1999/xlink"><linearGradient id="a" gradientUnits="userSpaceOnUse" x1="3.349" x2="21.904" y1="3.122" y2="24.434"><stop offset="0" stop-color="#1a1e21"/><stop offset="1" stop-color="#06060a"/></linearGradient><path d="m0 0h18v18h-18z" fill="url(#a)"/><path d="m5.22 5 1.83 2.293c.155.246.27.519.34.806.147.594.147 1.22 0 1.814-.07.288-.185.562-.34.81l-1.83 2.274-1.22-.86 1.83-2.278c.076-.117.13-.25.158-.39a2.175 2.175 0 0 0 0-.929 1.202 1.202 0 0 0 -.158-.398l-1.83-2.293zm4.78 3h-2v2h2zm2.785-3 1.215.853-1.827 2.293a1.18 1.18 0 0 0 -.168.398 2.043 2.043 0 0 0 0 .93c.03.14.088.273.168.39l1.827 2.274-1.215.862-1.834-2.28a2.553 2.553 0 0 1 -.344-.808 3.905 3.905 0 0 1 0-1.815c.068-.288.185-.561.344-.806z" fill="#fff"/></svg>