<svg height="18" width="18" xmlns="http://www.w3.org/2000/svg"><path d="m0 9a9 9 0 1 1 18 0 9 9 0 0 1 -18 0z" fill="#f0f3fa"/><ellipse cx="7.11" cy="6.97" fill="#009cde" rx="2.81" ry="2.97"/><ellipse cx="7.11" cy="11.03" fill="#99ca3c" rx="2.81" ry="2.97"/><ellipse cx="10.86" cy="11.03" fill="#009cde" rx="2.81" ry="2.97"/><ellipse cx="10.86" cy="6.97" fill="#99ca3c" rx="2.81" ry="2.97"/><g fill="#005e7f"><path d="m5.06 9a2.74 2.74 0 0 1 2.05-.94c.81 0 1.54.36 2.05.94-.5.58-1.24.94-2.05.94-.8 0-1.54-.36-2.05-.94z"/><path d="m8.99 13.24c.57-.54.94-1.33.94-2.2 0-.89-.37-1.68-.94-2.22a3.04 3.04 0 0 0 -.94 2.21c0 .88.36 1.67.94 2.21z"/><path d="m8.81 9a2.74 2.74 0 0 1 2.05-.94c.81 0 1.54.36 2.05.94-.5.58-1.24.94-2.05.94-.8 0-1.54-.36-2.05-.94z"/><path d="m8.99 9.18c.57-.54.94-1.33.94-2.21s-.37-1.67-.94-2.21a3.04 3.04 0 0 0 -.94 2.2c0 .89.36 1.68.94 2.22z"/></g><path d="m9.61 9.63s-.35-.2-.7-.54-.55-.71-.55-.71.39.18.74.52c.34.34.51.72.51.72z" fill="#fff"/><path d="m8.36 9.63s.36-.2.7-.54c.35-.34.55-.71.55-.71s-.38.18-.73.52-.52.72-.52.72z" fill="#fff"/></svg>