<svg height="18" viewBox="0 0 18 18" width="18" xmlns="http://www.w3.org/2000/svg"><path d="m0 0h18v18h-18z" fill="#f0f3fa"/><path d="m7 9h2v4h1v-1.12l.65 1.12h.69l.66-1.12v1.12h1v-4h-1l-.94 2.18-.8-2.18-3.26-2zm-2 4v-4h2.6c.2 0 1.22.14 1.22 1.05 0 .67-.57.86-.8.94l-.02.01c.73.2 1 .42 1 .84 0 1.07-.85 1.12-1.38 1.15l-.12.01zm1.33-2.29v-.85h.71c.28 0 .51.19.51.43 0 .23-.23.42-.51.42h-.7zm0 1.43v-.85h.78c.3 0 .56.19.56.42 0 .24-.25.43-.56.43z" fill-rule="evenodd"/><path d="m11 7-4-2h4z" fill="#ee2326"/><path d="m13.64 4.33h-9.28v9.34h9.28zm-9.64-.33v10h10v-10z" fill-rule="evenodd"/></svg>