<svg height="18" viewBox="0 0 18 18" width="18" xmlns="http://www.w3.org/2000/svg"><path d="m0 0h18v18h-18z" fill="#f0f3fa"/><path d="m11 8h1v1.86c0 .6-.26.94-.95.94h-1.67c-.17 0-.38.12-.38.42 0 .7-.26.78-.5.78h-1.5v-1h.66c.2 0 .34-.07.34-.31v-2.69h1v1.55c0 .3.16.45.5.45h1.02c.26 0 .48 0 .48-.45z" fill="#626364"/><path d="m4.85 7.7-1.65-.92s.63-.93.92-1.46c.16-.28.52-.32.82-.32h2.53c.24 0 .43.12.55.34.07.16.17.31.28.46l.13.2c.19-.09.4-.18.57-.29-.15.34-.31.66-.47.97l-.29.56c-.04.1-.08.1-.12.1l-1.92-.17s.35-.13.47-.19c.1-.03.12-.1.06-.18l-.59-.92c-.37.54-.9 1.29-1.29 1.82zm-2.58 2.13a1.06 1.06 0 0 1 -.07-.9c.04-.12.1-.25.18-.39l.1-.2-.24-.17-.24-.17h1.72c.07 0 .14.04.19.1.1.18.23.37.35.55.18.3.37.59.54.9-.13-.08-.57-.26-.57-.26l-.43.48c-.06.08-.1.16-.1.23h2.3v2h-2c-.26 0-.4-.04-.55-.27l-.56-.89-.37-.59c-.12-.18-.2-.32-.25-.42z" fill="#1c583f"/><g fill="#626364"><circle cx="10.2" cy="11.5" r=".5"/><circle cx="11.5" cy="11.5" r=".5"/><path d="m14 12v-.8h.69c.27 0 .45 0 .45-.26v-.14h-1.03c-.54 0-.98-.3-1.07-.87a3.43 3.43 0 0 1 .01-1.13c.07-.43.44-.8.93-.8h1.17c.64 0 .85.52.85.96v2.06c0 .53-.49.98-1.07.98zm.69-2c.19 0 .31-.07.31-.28v-.64c0-.19-.1-.28-.31-.28h-.41c-.2 0-.28.11-.28.28v.58c0 .18.05.34.28.34h.4z"/></g></svg>