<svg height="18" viewBox="0 0 18 18" width="18" xmlns="http://www.w3.org/2000/svg"><path d="m0 0h18v18h-18z" fill="#f0f3fa"/><path d="m8.7 5.7-3.24 3.2a.43.43 0 0 0 -.01.61l3.1 3.24c.18.2.49.2.68.02l3.33-3.15a.43.43 0 0 0 .01-.61l-3.17-3.31a.5.5 0 0 0 -.7 0zm-3.36 3.1a.57.57 0 0 0 -.02.81l3.1 3.24c.24.26.67.27.93.03l3.32-3.15a.57.57 0 0 0 .03-.83l-3.18-3.29a.67.67 0 0 0 -.93 0l-3.26 3.19z" fill="#484848" fill-rule="evenodd"/><path d="m7 10h4v1h-4z" fill="#484848" fill-opacity=".6"/><path d="m7 8h4v1h-4z" fill-opacity=".6"/><path d="m3.75 8.58 3.33-3.58c.8 0 1.09.52 1.13.79l-3.41 3.34 4.08 4.51 4.37-4.32-2.93-3.32c.23-.67.67-.8.86-.79l3.1 3.58c.31.37.3.92-.05 1.27l-4.63 4.66a.97.97 0 0 1 -1.4-.03l-4.46-4.85a.93.93 0 0 1 0-1.26z" fill="#b5b5b5"/><path d="m7.9 3.92v.52h.21c.13.32.54.98 1.21.98s1.04-.28 1.14-.42c.14-.01.44-.12.55-.38.06-.14.13-.23.2-.3.09-.11.16-.2.16-.4 0-.34-.08-.74-.59-.92.1.06.29.2.2.32-.1.14-.15.16-.33.12-.03.08-.12.25-.27.25-.08 0-.14-.1-.23-.23-.14-.2-.32-.46-.63-.46h-.48c-.26 0-.77.24-.9.92zm1.31-.68c-.16 0-.55.14-.76.64l-.13-.01v.6c0 .12.13.13.2.12 0 .14.32.29.48.35-.16-.06-.47-.3-.47-.81s.46-.75.68-.8c.68 0 .68.67.68.8 0 .1-.05.16-.15.16-.09 0-.17-.27-.2-.4v.54c0 .06 0 .06.11.16.1.09-.12.29-.24.38.2 0 .59-.19.59-.87 0-.7-.53-.86-.79-.86z" fill="#aaaead" fill-rule="evenodd"/><path d="m9.15 4.64-2.11 2.72h4.05c-.5-.54-1.49-1.67-1.52-1.84l-.1-.5.18-.25c.02-.04.02-.14-.08-.18s-.32.02-.42.05z" fill="#fa8e2b"/></svg>