<svg height="18" viewBox="0 0 18 18" width="18" xmlns="http://www.w3.org/2000/svg" xmlns:xlink="http://www.w3.org/1999/xlink"><linearGradient id="a" gradientUnits="userSpaceOnUse" x1="6.21" x2="9.12" y1="11" y2="11"><stop offset=".23" stop-color="#466cab"/><stop offset="1" stop-color="#272860"/></linearGradient><linearGradient id="b" gradientUnits="userSpaceOnUse" x1="10.78" x2="8.3" y1="6.16" y2="8.41"><stop offset="0" stop-color="#452e5a"/><stop offset="1" stop-color="#585d94"/></linearGradient><linearGradient id="c" gradientUnits="userSpaceOnUse" x1="7.09" x2="11.39" y1="12.6" y2="12.6"><stop offset="0" stop-color="#5997d2"/><stop offset="1" stop-color="#3b3e7f"/></linearGradient><linearGradient id="d" gradientUnits="userSpaceOnUse" x1="9.6" x2="10.43" y1="11" y2="8.65"><stop offset="0" stop-color="#598bca"/><stop offset="1" stop-color="#43456c"/></linearGradient><path d="m0 0h18v18h-18z" fill="#f0f3fa"/><path d="m9.15 4.06c.46-.44.5-.9.47-1.06-.34.63-.83.74-1.17 1.06-.27.25.12.6.34.75-.07-.07-.1-.31.36-.75zm.38 1.71c.74-.8.46-1.39.4-1.7-.55 1.16-1.33 1.33-1.86 1.92-.43.46.18 1.1.53 1.36-.18-.58.2-.78.93-1.57z" fill="#664f93"/><path d="m8.75 8.75c.4-.34.86-.8 1.04-.98-.06-.48-1.09-.16-1.6.06-.72.47-2.19 1.77-2.19 3.21a3 3 0 0 0 2.98 2.96c1.41 0 3.02-1.02 3.02-2.54 0-1.21-.69-1.78-1.03-1.91l-1.44.9c.3-.05.89.03.89.8 0 .97-.9 1.32-1.44 1.32s-1.5-.15-1.5-1.53.76-1.86 1.27-2.29z" fill="url(#a)"/><path d="m6.08 10.44a5.21 5.21 0 0 1 2.12-2.61c.5-.22 1.53-.54 1.6-.06-.17.17-.58.57-.96.9a3.48 3.48 0 0 0 -2.76 1.77z" fill="#3a3883"/><path d="m9 7.05a5.15 5.15 0 0 0 1.4-1.77 3.31 3.31 0 0 1 -.56 2.47c-1.32-.3-2.63.86-3.12 1.48.5-.68 1.36-1.47 2.29-2.18z" fill="url(#b)"/><path d="m7.55 10.35a3.6 3.6 0 0 0 -.18 3.16c.5.32 1.07.49 1.61.49 1.41 0 3.02-1.02 3.02-2.54l-.01-.29a4.32 4.32 0 0 1 -2.16 1.35c-.39.11-.67.12-.89.05-.54 0-1.46-.18-1.46-1.53 0-.26.02-.49.07-.69z" fill="url(#c)"/><path d="m9.89 10.62c-.68.18-.75.54-.79.59-.7-1.06 0-1.34.09-1.38.08-.03.93-.43 1.45-.7.41-.22.58-.48.6-.58.08.03.23.25.23.81 0 .7-.9 1.08-1.58 1.26z" fill="url(#d)"/></svg>