<svg height="18" viewBox="0 0 18 18" width="18" xmlns="http://www.w3.org/2000/svg"><path d="m0 0h18v18h-18z" fill="#f0f3fa"/><path d="m3 9.73v.7h1.58c-.13-1.74 1.16-4.78 4.43-4.78s4.52 3.11 4.39 4.78h1.6v-.47l-.14-.14.14-.1-.07-.74-.2-.14.13-.15-.25-.74h-.16l.06-.19-.36-.73h-.2l.07-.22-.5-.62h-.19v-.24l-.47-.48-.25.05.04-.19-.62-.46-.22.08v-.23l-.64-.32-.2.13-.02-.22-.77-.2-.17.17-.06-.24-.75-.04-.11.16-.09-.16h-.64l-.12.2-.08-.16-.72.12-.12.22-.13-.1-.73.27-.07.24-.12-.14-.67.35v.25l-.18-.07-.58.54.03.2-.2-.04-.46.55.03.27-.16-.06-.46.72.08.28-.19-.04-.28.8.12.23h-.2l-.15.88.2.22z"/><path d="m9.72 8.82-2.94-2.22a4.88 4.88 0 0 1 1.6-.6l3.84 2.82zm-3.2-1.99a3.78 3.78 0 0 0 -1.45 2.03 9.1 9.1 0 0 1 2.42-1.3zm3.11-.83c.24.26.76.88 1 1.31l2.06 1.5a3.84 3.84 0 0 0 -3.06-2.8z" fill="#8d8f8e"/><path d="m3 11h12v2h-12zm2.4-2h7.2v1.43h-7.2z" opacity=".7"/></svg>