<svg height="18" width="18" xmlns="http://www.w3.org/2000/svg"><path d="m0 0h18v18h-18z" fill="#017fc1"/><path d="m7.54 8.722c1.19-1.097 2.563-1.43 2.956-.945.71.875-.986 2.647-1.833 3.277-1.863 1.386-3.793 1.773-4.42.907-.64-.886-.054-2.729 2.197-4.689 2.106-1.832 5.86-2.972 7.082-1.788 1.23 1.194.1 4.428-3.54 6.629-2.242 1.356-5.345 1.897-5.379 1.887.16-.02 3.043-.769 5.002-2.277 1.788-1.376 3.406-3.703 2.39-4.964-.737-.915-3.02-.517-5.042 1.057-1.307 1.017-2.271 2.458-1.78 3.263.362.591 1.61.648 3.077-.52.687-.547 1.298-1.326 1.078-1.728-.197-.362-.894-.21-1.454.099-.791.437-1.48 1.218-1.48 1.218s.29-.636 1.147-1.426z" fill="#fff"/></svg>