<svg height="18" viewBox="0 0 18 18" width="18" xmlns="http://www.w3.org/2000/svg" xmlns:xlink="http://www.w3.org/1999/xlink"><linearGradient id="a" gradientUnits="userSpaceOnUse" x1="4.7" x2="13.94" y1="9.29" y2="9.76"><stop offset=".32" stop-color="#9acbe7"/><stop offset=".56" stop-color="#58a9d7"/><stop offset=".76" stop-color="#2890cc"/><stop offset=".91" stop-color="#0b81c5"/></linearGradient><linearGradient id="b" gradientUnits="userSpaceOnUse" x1="10.12" x2="8.6" y1="13.16" y2="4.06"><stop offset=".06" stop-color="#9ce061"/><stop offset=".31" stop-color="#4abf00"/><stop offset=".46" stop-color="#17a700"/><stop offset=".53" stop-color="#169f00"/><stop offset=".63" stop-color="#138700"/><stop offset=".75" stop-color="#0d6200"/><stop offset=".89" stop-color="#062e00"/></linearGradient><linearGradient id="c" gradientUnits="userSpaceOnUse" x1="4.88" x2="11.49" y1="11.94" y2="4.52"><stop offset="0" stop-color="#0068ad"/><stop offset=".09" stop-color="#0f779b"/><stop offset=".53" stop-color="#58c048"/><stop offset=".85" stop-color="#85ed14"/><stop offset="1" stop-color="#97ff00"/></linearGradient><linearGradient id="d" gradientUnits="userSpaceOnUse" x1="6.71" x2="8.88" y1="15.66" y2="5.97"><stop offset=".41" stop-color="#1d1d1b"/><stop offset=".49" stop-color="#50504f"/><stop offset=".59" stop-color="#858584"/><stop offset=".68" stop-color="#b1b1b0"/><stop offset=".77" stop-color="#d3d3d2"/><stop offset=".86" stop-color="#ebebeb"/><stop offset=".94" stop-color="#fafafa"/><stop offset="1" stop-color="#fff"/></linearGradient><path d="m0 0h18v18h-18z" fill="#f0f3fa"/><path d="m13.37 11.4c1.13-2.11.6-4.7-1.12-6.19a5.04 5.04 0 0 1 -1.22 6.01c-2.87 2.24-5.5.5-6.41-.27a4.8 4.8 0 0 0 8.75.45z" fill="url(#a)"/><path d="m10.07 4.13a4.93 4.93 0 0 0 -5.49 2.97c1.08-1 3.3-2.2 6.02-.61 2.89 1.95 2.09 5.2 1.64 6.33a5.01 5.01 0 0 0 1.66-2.83 4.94 4.94 0 0 0 -3.83-5.85z" fill="url(#b)"/><path d="m6.29 8.01c1.1-3.17 4.67-3.13 5.85-2.9a4.97 4.97 0 0 0 -8.03 3.89c0 2.4 1.7 4.4 3.95 4.88-1.19-.88-2.74-2.73-1.77-5.88z" fill="url(#c)"/><path d="m4.26 9.17a5.06 5.06 0 0 1 7.92-4.09 5.06 5.06 0 0 0 -8.18 3.9c0 1.68.85 3.17 2.14 4.07a4.95 4.95 0 0 1 -1.88-3.88z" fill="url(#d)"/></svg>