<svg height="18" width="18" xmlns="http://www.w3.org/2000/svg"><path d="m0 0h18v18h-18z" fill="#4fb94a"/><g fill="#fff"><path d="m10.307 6.877.896.875a1.577 1.577 0 0 0 -.273.16c-.148.106-.34.274-.587.55l-1.75 1.92c-.3.33-.605.59-.889.728l-.896-.875c.025-.012.053-.025.085-.043.052-.027.114-.065.188-.119.147-.105.34-.272.587-.548l1.75-1.918c.3-.329.605-.592.89-.73z"/><path d="m6.84 11.521c.396 0 .76-.082 1.007-.214.112-.061.274-.167.412-.278.138-.112.334-.286.5-.468l1.752-1.916c.442-.483.708-.632.868-.69l.9.882-2.425 2.68c-.153.17-.314.335-.423.439-.104.1-.284.25-.377.32-.526.4-1.229.724-2.176.724-2.143 0-3.878-1.81-3.878-3.894 0-2.586 1.948-4.086 3.723-4.086.543-.017.98.078 1.324.2.32.112.56.248.735.34-.206.138-.406.324-.736.69l-.36.4a2.438 2.438 0 0 0 -.92-.15 2.451 2.451 0 0 0 -2.34 2.56c.043 1.469 1.21 2.461 2.414 2.461z"/><path d="m10.154 6.693c-.114.061-.275.166-.414.278a4.745 4.745 0 0 0 -.499.468l-1.751 1.916c-.442.482-.707.631-.868.69l-.9-.882 2.425-2.68c.153-.17.314-.334.423-.44.104-.1.284-.248.377-.319.526-.4 1.23-.724 2.176-.724 2.143 0 3.877 1.81 3.877 3.894 0 2.586-1.948 4.086-3.723 4.086a3.595 3.595 0 0 1 -1.324-.2c-.32-.113-.561-.249-.736-.342.218-.152.405-.32.737-.688l.36-.4c.082.033.45.165.92.151a2.452 2.452 0 0 0 2.34-2.562c-.043-1.468-1.21-2.46-2.414-2.46-.397 0-.76.081-1.006.214z"/></g></svg>