<svg height="18" width="18" xmlns="http://www.w3.org/2000/svg"><path d="m0 0h18v18h-18z" fill="#0e149c"/><path d="m2 7h1.12c.26 0 .56.28.7.43l2 2.5v-2.93h.63v4h-1.17c-.2 0-.41-.06-.65-.33l-2-2.5v2.83h-.63zm14 3.9c-.8.12-1.6.13-2.4.06a3.35 3.35 0 0 1 -1.36-.4c-.53-.3-.7-.97-.7-1.58.01-.57.17-1.17.63-1.5.3-.21.63-.29.98-.35a9.43 9.43 0 0 1 2.85-.03v.68c-1.08-.23-2.52-.17-2.91.37-.25.33-.27.64-.27.8 0 .51.15 1.2 1.1 1.35.62.1 1.48.02 2.08-.1zm-4.75-.63h-2.15c-.38 0-.77-.07-.78-.46v-.63h2.62v-.73h-2.64v-.72h2.94v-.73h-4.24v2.93c.02.49.18 1.07 1.09 1.07h3.16z" fill="#fff"/></svg>