<svg height="18" width="18" xmlns="http://www.w3.org/2000/svg"><path d="m0 0h18v18h-18z" fill="#0b4357"/><path d="m9.32 11.65c.72.61 1.5 1.15 2.32 1.6a5 5 0 0 1 -5.76-.34 6.77 6.77 0 0 1 1.13-4.05l.02.03.13.2c.58.97 1.3 1.83 2.16 2.56zm1.2-3.12.13.2.02.03.01-.03a6.73 6.73 0 0 0 1.11-3.88 5 5 0 0 0 -5.27-.2c.65.39 1.26.82 1.83 1.31.86.73 1.59 1.6 2.17 2.56zm-3.5-.26a.4.4 0 0 1 .31.17l.15.2c.3.4.87 1.16 2.5 2.28.84.6 1.77 1.07 2.75 1.4a4.97 4.97 0 0 0 -.01-6.65 7.2 7.2 0 0 1 -1.66 3.43c-.11.13-.23.24-.4.24a.4.4 0 0 1 -.31-.17l-.16-.2c-.3-.4-.87-1.15-2.49-2.28-.7-.49-1.45-.9-2.25-1.21a4.98 4.98 0 0 0 -.49 6.45 7.3 7.3 0 0 1 1.66-3.42c.1-.12.22-.23.4-.24z" fill="#fff"/></svg>