<svg height="18" viewBox="0 0 18 18" width="18" xmlns="http://www.w3.org/2000/svg" xmlns:xlink="http://www.w3.org/1999/xlink"><linearGradient id="a"><stop offset="0" stop-color="#051b44"/><stop offset=".51" stop-color="#004a79"/><stop offset="1" stop-color="#011e4a"/></linearGradient><linearGradient id="b" gradientUnits="userSpaceOnUse" x1="5.51" x2="5.51" xlink:href="#a" y1="6" y2="12"/><linearGradient id="c" gradientUnits="userSpaceOnUse" x1="11.71" x2="11.71" xlink:href="#a" y1="6" y2="12"/><linearGradient id="d" gradientUnits="userSpaceOnUse" x1="8.89" x2="8.89" y1="6" y2="12"><stop offset="0" stop-color="#cc1937"/><stop offset=".5" stop-color="#ed1848"/><stop offset="1" stop-color="#c11b2f"/></linearGradient><path d="m0 0h18v18h-18z" fill="#f0f3fa"/><path d="m4.22 10.25c-.22 1.09-.48 1.52-.59 1.6l.37.15h1.44c.85.01 1.14-.46 1.19-.7l.76-3.3c0-.64-.2-1.92-1.1-2-.9-.07-1.23.52-1.28.83-.17.69-.58 2.34-.8 3.42z" fill="url(#b)"/><path d="m10.42 10.25c-.21 1.09-.48 1.52-.59 1.6l.38.15h1.43c.85.01 1.15-.46 1.19-.7l.94-4.22c0-.64-.37-1-1.28-1.07-.9-.08-1.23.51-1.27.82-.18.69-.59 2.34-.8 3.42z" fill="url(#c)"/><path d="m4.7 11.4h-2.7c.2.44.6.58.78.6h2.66a1.6 1.6 0 0 1 -.75-.6zm8.66-4.4h2.64c-.12-.81-.7-.99-.87-1h-2.66c.46.18.83.9.89 1z" fill="#ed1848"/><path d="m8.75 6h-2.51c.43.14.7.68.78.93l1.05 4.17a1 1 0 0 0 1.04.9h2.43c-.5-.16-.75-.66-.81-.9l-1.01-4.17c-.1-.7-.69-.91-.97-.93z" fill="url(#d)"/></svg>