<!-- by TradingView --><svg width="18" height="18" viewBox="0 0 18 18" xmlns="http://www.w3.org/2000/svg"><path fill="url(#a2xcf1x1m)" d="M0 0h18v18H0z"/><path d="M8 13H6V5h1.72l.08 1.26.17-.25c.35-.49.83-.83 1.37-.95a2.1 2.1 0 0 1 1.6.26c.25.16.47.4.64.67.17.28.28.6.31.94.07.4.1.79.11 1.2V13h-2V7.93c-.02-.54-.09-1.13-.62-1.23-.44-.13-1.41.02-1.38.74V13Z" fill="#fff"/><defs><linearGradient id="a2xcf1x1m" x1="3.35" y1="3.12" x2="21.9" y2="24.43" gradientUnits="userSpaceOnUse"><stop stop-color="#1A1E21"/><stop offset="1" stop-color="#06060A"/></linearGradient></defs></svg>