<svg height="18" viewBox="0 0 18 18" width="18" xmlns="http://www.w3.org/2000/svg" xmlns:xlink="http://www.w3.org/1999/xlink"><linearGradient id="a"><stop offset=".77" stop-color="#fff"/><stop offset=".93" stop-color="#0b52a2"/></linearGradient><linearGradient id="b" gradientUnits="userSpaceOnUse" x1="4.52" x2="7.82" xlink:href="#a" y1="9.04" y2="13.3"/><linearGradient id="c" gradientUnits="userSpaceOnUse" x1="13.48" x2="10.18" xlink:href="#a" y1="8.96" y2="4.7"/><linearGradient id="d" gradientUnits="userSpaceOnUse" x1="9.04" x2="13.3" xlink:href="#a" y1="13.48" y2="10.18"/><linearGradient id="e" gradientUnits="userSpaceOnUse" x1="8.96" x2="4.7" xlink:href="#a" y1="4.52" y2="7.82"/><path d="m0 0h18v18h-18z" fill="#f0f3fa"/><circle cx="9" cy="9" fill="#0b52a2" r="5"/><path d="m9 3 6 6-6 6-6-6z" fill="#0b52a2"/><path d="m6 9.61c0-1.08.6-2.19.9-2.61l2.1 2.08-2.1 1.83 1.67 1.56-.71.53c-1.1-1.02-1.86-2.04-1.86-3.39z" fill="url(#b)"/><path d="m12 8.39a5.1 5.1 0 0 1 -.9 2.61l-2.1-2.08 2-1.83-1.57-1.56.71-.53c1.1 1.02 1.86 2.04 1.86 3.39z" fill="url(#c)"/><path d="m9.61 12a5.1 5.1 0 0 1 -2.61-.9l2.08-2.1 1.83 2.1 1.56-1.67.53.71c-1.02 1.1-2.04 1.86-3.39 1.86z" fill="url(#d)"/><path d="m8.39 6c1.08 0 2.19.6 2.61.9l-2.08 2.1-1.83-2-1.56 1.57-.53-.71c1.02-1.1 2.04-1.86 3.39-1.86z" fill="url(#e)"/><circle cx="8.98" cy="8.98" fill="#fff" r="2.92"/></svg>