<svg height="18" viewBox="0 0 18 18" width="18" xmlns="http://www.w3.org/2000/svg" xmlns:xlink="http://www.w3.org/1999/xlink"><linearGradient id="a" gradientUnits="userSpaceOnUse" x1="9" x2="9" y1="4" y2="7.75"><stop offset="0" stop-color="#ea5c12"/><stop offset="1" stop-color="#fbc419"/></linearGradient><linearGradient id="b"><stop offset="0" stop-color="#094"/><stop offset="1" stop-color="#77bc28"/></linearGradient><linearGradient id="c" gradientUnits="userSpaceOnUse" x1="3.41" x2="8.39" xlink:href="#b" y1="8.82" y2="8.95"/><linearGradient id="d" gradientUnits="userSpaceOnUse" x1="14.59" x2="9.61" xlink:href="#b" y1="8.82" y2="8.95"/><linearGradient id="e" gradientUnits="userSpaceOnUse" x1="9.03" x2="9.03" y1="9.7" y2="14"><stop offset="0" stop-color="#72bb2a"/><stop offset="1" stop-color="#11a73b"/></linearGradient><path d="m0 0h18v18h-18z" fill="#f0f3fa"/><ellipse cx="9" cy="5.88" fill="url(#a)" rx="1.8" ry="1.88"/><path d="m3 9.06 3.05-2.36 2.35 2.1c-.64.99-2.34 1.84-3.1 2.14z" fill="url(#c)"/><path d="m15 9.06-3.05-2.36-2.35 2.1c.64.99 2.34 1.84 3.1 2.14z" fill="url(#d)"/><path d="m9 9.7a8.54 8.54 0 0 1 -2.85 1.9l2.85 2.4 2.9-2.4a6.93 6.93 0 0 1 -2.9-1.9z" fill="url(#e)"/></svg>