<svg height="18" width="18" xmlns="http://www.w3.org/2000/svg"><path d="m0 0h18v18h-18z" fill="#f0f3fa"/><path d="m6 11.3s1.1-1.69 2.79-2.62c1.6-.89 3.21-.65 3.21-.65v5.47c0 .83-.67 1.5-1.5 1.5h-3a1.5 1.5 0 0 1 -1.5-1.5z" fill="#5d5605"/><path d="m6 4.5c0-.83.67-1.5 1.5-1.5h3c.83 0 1.5.67 1.5 1.5v3.38s-1.65-.1-3.2.56c-1.55.65-2.8 1.98-2.8 1.98z" fill="#02b2e3"/><path d="m8.79 7.42-1-3.2.65 3.27-1.62-1.63 1.48 1.97-1.5-.26 1.44.68-.95.68 1.49-.33 1.75 4.74-1.52-4.86 1.52-1.06-1.2.52 1.74-2.54-1.85 2.17h-.21l.33-2.83-.56 2.68z" fill="#f0f3fa"/></svg>