<svg height="18" viewBox="0 0 18 18" width="18" xmlns="http://www.w3.org/2000/svg" xmlns:xlink="http://www.w3.org/1999/xlink"><linearGradient id="a" gradientUnits="userSpaceOnUse" x1="6" x2="8.6" y1="11.11" y2="13.07"><stop offset=".1" stop-color="#9fd6f5"/><stop offset="1" stop-color="#2b548d"/></linearGradient><linearGradient id="b" gradientUnits="userSpaceOnUse" x1="9.5" x2="12.5" y1="6.64" y2="12.48"><stop offset=".09" stop-color="#79a5d7"/><stop offset=".48" stop-color="#3d71ba"/><stop offset=".77" stop-color="#1e3d64"/></linearGradient><linearGradient id="c" gradientUnits="userSpaceOnUse" x1="12.47" x2="10.05" y1="8.82" y2="14.04"><stop offset=".07" stop-color="#91c4e5"/><stop offset=".81" stop-color="#305c95"/></linearGradient><path d="m0 0h18v18h-18z" fill="#f0f3fa"/><path d="m4 8.85c0 4.17 3.58 5.18 5.26 5.13.36-1.13.94-3.42.34-3.62-.75-.26-2.6-1.72-2.6-3.72 0-1.6 1.57-2.36 2.3-2.54-.1-.05-.32-.1-.52-.1-1.89 0-4.78 1.61-4.78 4.85z" fill="#1e3d64"/><path d="m6.2 11c.2 0 .7.49 1.38 1 .53.38 1.12.66 1.38.77.05.78-.8 1.04-1.38.86-1.35-1-1.58-2.19-1.58-2.28s0-.35.2-.35z" fill="url(#a)"/><path d="m9.14 11.53c0 1.81-1.22 2.16-1.85 2.11.48.2 1.25.36 2.07.36 1.37 0 2.6-.9 3.37-1.76.91-1 1.27-2.07 1.27-2.92 0-1.85-2.24-2.82-3.51-2.82-.9 0-1.8.31-1.8 1.36 0 1.06.45 1.4.45 3.67z" fill="url(#b)"/><path d="m13.5 11.17c.04-.22.07-.46.07-.68 0-.71-1.33-2.49-2.78-2.49-.69 0-1.28.3-1.28 1.11 0 .34.09.74.18 1.2.14.65.31 1.43.31 2.37 0 .69-.42 1.15-.97 1.31l.33.01c1.37 0 2.6-.9 3.37-1.76.32-.35.57-.71.76-1.07z" fill="url(#c)"/></svg>