<svg height="18" viewBox="0 0 18 18" width="18" xmlns="http://www.w3.org/2000/svg" xmlns:xlink="http://www.w3.org/1999/xlink"><linearGradient id="a" gradientUnits="userSpaceOnUse" x1="3.35" x2="21.9" y1="3.12" y2="24.43"><stop offset="0" stop-color="#1a1e21"/><stop offset="1" stop-color="#06060a"/></linearGradient><linearGradient id="b"><stop offset=".11" stop-color="#a4ebfc"/><stop offset=".38" stop-color="#3e73b7"/><stop offset=".71" stop-color="#5383be"/><stop offset=".83" stop-color="#6d97c7"/><stop offset="1" stop-color="#97eeff"/></linearGradient><linearGradient id="c" gradientUnits="userSpaceOnUse" x1="6" x2="6" xlink:href="#b" y1="5" y2="7"/><linearGradient id="d"><stop offset=".14" stop-color="#6ee8ff"/><stop offset=".45" stop-color="#56b2fa"/><stop offset=".66" stop-color="#40aefd"/><stop offset=".91" stop-color="#1449a5"/></linearGradient><linearGradient id="e" gradientUnits="userSpaceOnUse" x1="6" x2="6" xlink:href="#d" y1="5.2" y2="6.8"/><linearGradient id="f"><stop offset="0" stop-color="#45caef"/><stop offset="1" stop-color="#36edfc"/></linearGradient><linearGradient id="g" gradientUnits="userSpaceOnUse" x1="6" x2="6" xlink:href="#f" y1="5.52" y2="6.48"/><linearGradient id="h" gradientUnits="userSpaceOnUse" x1="6" x2="6" y1="8" y2="10"><stop offset=".38" stop-color="#3e73b7"/><stop offset="1" stop-color="#97eeff"/></linearGradient><linearGradient id="i" gradientUnits="userSpaceOnUse" x1="6" x2="6" xlink:href="#b" y1="8" y2="10"/><linearGradient id="j" gradientUnits="userSpaceOnUse" x1="6" x2="6" xlink:href="#d" y1="8.2" y2="9.8"/><linearGradient id="k" gradientUnits="userSpaceOnUse" x1="6" x2="6" xlink:href="#f" y1="8.52" y2="9.48"/><linearGradient id="l" gradientUnits="userSpaceOnUse" x1="6" x2="6" xlink:href="#b" y1="11" y2="13"/><linearGradient id="m" gradientUnits="userSpaceOnUse" x1="6" x2="6" xlink:href="#d" y1="11.2" y2="12.8"/><linearGradient id="n" gradientUnits="userSpaceOnUse" x1="6" x2="6" xlink:href="#f" y1="11.52" y2="12.48"/><linearGradient id="o" gradientUnits="userSpaceOnUse" x1="9" x2="9" xlink:href="#b" y1="5" y2="7"/><linearGradient id="p" gradientUnits="userSpaceOnUse" x1="9" x2="9" xlink:href="#d" y1="5.2" y2="6.8"/><linearGradient id="q" gradientUnits="userSpaceOnUse" x1="9" x2="9" xlink:href="#f" y1="5.52" y2="6.48"/><linearGradient id="r" gradientUnits="userSpaceOnUse" x1="9" x2="9" y1="8" y2="10"><stop offset=".38" stop-color="#3e73b7"/><stop offset=".71" stop-color="#5383be"/></linearGradient><linearGradient id="s" gradientUnits="userSpaceOnUse" x1="9" x2="9" xlink:href="#b" y1="8" y2="10"/><linearGradient id="t" gradientUnits="userSpaceOnUse" x1="9" x2="9" xlink:href="#d" y1="8.2" y2="9.8"/><linearGradient id="u" gradientUnits="userSpaceOnUse" x1="9" x2="9" xlink:href="#f" y1="8.52" y2="9.48"/><linearGradient id="v" gradientUnits="userSpaceOnUse" x1="9" x2="9" xlink:href="#b" y1="11" y2="13"/><linearGradient id="w" gradientUnits="userSpaceOnUse" x1="9" x2="9" xlink:href="#d" y1="11.2" y2="12.8"/><linearGradient id="x" gradientUnits="userSpaceOnUse" x1="9" x2="9" xlink:href="#f" y1="11.52" y2="12.48"/><linearGradient id="y" gradientUnits="userSpaceOnUse" x1="12" x2="12" xlink:href="#b" y1="5" y2="7"/><linearGradient id="z" gradientUnits="userSpaceOnUse" x1="12" x2="12" xlink:href="#d" y1="5.2" y2="6.8"/><linearGradient id="A" gradientUnits="userSpaceOnUse" x1="12" x2="12" xlink:href="#f" y1="5.52" y2="6.48"/><linearGradient id="B" gradientUnits="userSpaceOnUse" x1="12" x2="12" y1="8" y2="10"><stop offset=".38" stop-color="#3e73b7"/><stop offset=".71" stop-color="#5383be"/><stop offset="1" stop-color="#97eeff"/></linearGradient><linearGradient id="C" gradientUnits="userSpaceOnUse" x1="12" x2="12" xlink:href="#b" y1="8" y2="10"/><linearGradient id="D" gradientUnits="userSpaceOnUse" x1="12" x2="12" xlink:href="#d" y1="8.2" y2="9.8"/><linearGradient id="E" gradientUnits="userSpaceOnUse" x1="12" x2="12" xlink:href="#f" y1="8.52" y2="9.48"/><linearGradient id="F" gradientUnits="userSpaceOnUse" x1="12" x2="12" xlink:href="#b" y1="11" y2="13"/><linearGradient id="G" gradientUnits="userSpaceOnUse" x1="12" x2="12" xlink:href="#d" y1="11.2" y2="12.8"/><linearGradient id="H" gradientUnits="userSpaceOnUse" x1="12" x2="12" xlink:href="#f" y1="11.52" y2="12.48"/><path d="m0 0h18v18h-18z" fill="url(#a)"/><path d="m6 7a1 1 0 1 0 0-2 1 1 0 0 0 0 2z" fill="url(#c)"/><path d="m6 6.8a.8.8 0 1 0 0-1.6.8.8 0 0 0 0 1.6z" fill="url(#e)"/><circle cx="6" cy="6" fill="url(#g)" r=".48"/><path d="m6 10a1 1 0 1 0 0-2 1 1 0 0 0 0 2z" fill="url(#h)"/><path d="m6 10a1 1 0 1 0 0-2 1 1 0 0 0 0 2z" fill="url(#i)"/><path d="m6 9.8a.8.8 0 1 0 0-1.6.8.8 0 0 0 0 1.6z" fill="url(#j)"/><circle cx="6" cy="9" fill="url(#k)" r=".48"/><path d="m6 13a1 1 0 1 0 0-2 1 1 0 0 0 0 2z" fill="url(#l)"/><path d="m6 12.8a.8.8 0 1 0 0-1.6.8.8 0 0 0 0 1.6z" fill="url(#m)"/><circle cx="6" cy="12" fill="url(#n)" r=".48"/><path d="m9 7a1 1 0 1 0 0-2 1 1 0 0 0 0 2z" fill="url(#o)"/><path d="m9 6.8a.8.8 0 1 0 0-1.6.8.8 0 0 0 0 1.6z" fill="url(#p)"/><circle cx="9" cy="6" fill="url(#q)" r=".48"/><path d="m9 10a1 1 0 1 0 0-2 1 1 0 0 0 0 2z" fill="url(#r)"/><path d="m9 10a1 1 0 1 0 0-2 1 1 0 0 0 0 2z" fill="url(#s)"/><path d="m9 9.8a.8.8 0 1 0 0-1.6.8.8 0 0 0 0 1.6z" fill="url(#t)"/><circle cx="9" cy="9" fill="url(#u)" r=".48"/><path d="m9 13a1 1 0 1 0 0-2 1 1 0 0 0 0 2z" fill="url(#v)"/><path d="m9 12.8a.8.8 0 1 0 0-1.6.8.8 0 0 0 0 1.6z" fill="url(#w)"/><circle cx="9" cy="12" fill="url(#x)" r=".48"/><path d="m12 7a1 1 0 1 0 0-2 1 1 0 0 0 0 2z" fill="url(#y)"/><path d="m12 6.8a.8.8 0 1 0 0-1.6.8.8 0 0 0 0 1.6z" fill="url(#z)"/><circle cx="12" cy="6" fill="url(#A)" r=".48"/><path d="m12 10a1 1 0 1 0 0-2 1 1 0 0 0 0 2z" fill="url(#B)"/><path d="m12 10a1 1 0 1 0 0-2 1 1 0 0 0 0 2z" fill="url(#C)"/><path d="m12 9.8a.8.8 0 1 0 0-1.6.8.8 0 0 0 0 1.6z" fill="url(#D)"/><circle cx="12" cy="9" fill="url(#E)" r=".48"/><path d="m12 13a1 1 0 1 0 0-2 1 1 0 0 0 0 2z" fill="url(#F)"/><path d="m12 12.8a.8.8 0 1 0 0-1.6.8.8 0 0 0 0 1.6z" fill="url(#G)"/><circle cx="12" cy="12" fill="url(#H)" r=".48"/></svg>