<svg height="18" viewBox="0 0 18 18" width="18" xmlns="http://www.w3.org/2000/svg" xmlns:xlink="http://www.w3.org/1999/xlink"><linearGradient id="a"><stop offset="0" stop-color="#d2e6d4"/><stop offset="1" stop-color="#00883f"/></linearGradient><linearGradient id="b" gradientUnits="userSpaceOnUse" x1="11.26" x2="14" xlink:href="#a" y1="7.87" y2="6.76"/><linearGradient id="c" gradientUnits="userSpaceOnUse" x1="9.62" x2="11.6" xlink:href="#a" y1="7.08" y2="13.68"/><linearGradient id="d" gradientUnits="userSpaceOnUse" x1="9.47" x2="7.63" y1="5.37" y2="12.33"><stop offset="0" stop-color="#62c0b5"/><stop offset="1" stop-color="#006778"/></linearGradient><linearGradient id="e" gradientUnits="userSpaceOnUse" x1="10.51" x2="6.76" y1="9.1" y2="4.45"><stop offset="0" stop-color="#00b9ef"/><stop offset="1" stop-color="#0069b7"/></linearGradient><linearGradient id="f" gradientUnits="userSpaceOnUse" x1="10.79" x2="5.85" y1="7.66" y2="7.13"><stop offset="0" stop-color="#00b9ef"/><stop offset="1" stop-color="#005bac"/></linearGradient><path d="m0 0h18v18h-18z" fill="#f0f3fa"/><path d="m6.38 10.71a4.99 4.99 0 0 1 -.7-3.01 4.4 4.4 0 0 1 -1.27-.68 4.97 4.97 0 0 0 2.17 6.36 4.15 4.15 0 0 1 -.2-2.67z" fill="#00b4ed"/><path d="m9.49 13c-.25.37-.56.7-.9.98l.41.02c1.16 0 2.23-.4 3.09-1.07a5.02 5.02 0 0 1 -2.61.06z" fill="#2db6aa"/><path d="m9.49 13a5.03 5.03 0 0 1 -3.11-2.29 4.17 4.17 0 0 0 .2 2.67c.6.33 1.28.54 2 .6.35-.28.66-.61.9-.99z" fill="#009e9f"/><path d="m6.06 6.15c.33-.76.84-1.42 1.47-1.93a5.02 5.02 0 0 0 -2.7 2.03 4.47 4.47 0 0 1 1.23-.1z" fill="#00b4ed"/><path d="m6.06 6.15a4.25 4.25 0 0 0 -1.24.1 5 5 0 0 0 -.41.77c.38.29.8.52 1.27.68.04-.55.18-1.07.38-1.55z" fill="#0083c9"/><path d="m7.1 7.93c-.5 0-.98-.08-1.42-.23l-.02.42a5 5 0 0 0 .72 2.6 4.17 4.17 0 0 1 2.84-2.96 4.42 4.42 0 0 0 -.22-.26 4.4 4.4 0 0 1 -1.9.43z" fill="#007fc6"/><path d="m11.77 5.16c0 1.55.91 2.9 2.23 3.52a5 5 0 0 0 -2.22-3.84z" fill="url(#b)"/><path d="m9.22 7.76a4.38 4.38 0 0 1 .27 5.23 5.05 5.05 0 0 0 2.6-.06 5 5 0 0 0 1.89-3.34 4.16 4.16 0 0 0 -4.76-1.83z" fill="url(#c)"/><path d="m6.38 10.71a5.03 5.03 0 0 0 3.1 2.29 4.39 4.39 0 0 0 -.26-5.23 4.17 4.17 0 0 0 -2.84 2.95z" fill="url(#d)"/><path d="m7.53 4.22a5.03 5.03 0 0 0 -1.47 1.93 4.4 4.4 0 0 1 2.94 1.35 4.42 4.42 0 0 0 2.39-2.9 4.99 4.99 0 0 0 -3.85-.38z" fill="url(#e)"/><path d="m5.68 7.7a4.4 4.4 0 0 0 3.31-.2 4.4 4.4 0 0 0 -2.93-1.35c-.2.48-.34 1-.38 1.55z" fill="url(#f)"/></svg>