<svg height="18" viewBox="0 0 18 18" width="18" xmlns="http://www.w3.org/2000/svg"><path d="m0 0h18v18h-18z" fill="#f0f3fa"/><path d="m11.07 5c-.07.64-.19 1.27-.36 1.88a8.25 8.25 0 0 1 4.29-.58l-.7 5.05c-.02.2-.16.33-.34.32-3.67-.18-5.21.04-7.03 1.33.07-.64.19-1.27.36-1.88a8.26 8.26 0 0 1 -4.29.58l.7-5.05c.02-.2.16-.33.34-.32 3.66.18 5.21-.03 7.03-1.33zm-.47 2.3c.17.14.3.33.35.54.06.24.07.49.03.73l-.43 2.43h-1.09l.4-2.31a1.3 1.3 0 0 0 0-.38.52.52 0 0 0 -.14-.29.47.47 0 0 0 -.34-.1.87.87 0 0 0 -.88.74l-.4 2.34h-1.1l.7-4c.5.21.94.2 1.96.13l.2-.01c.27-.02.52.05.74.19z" fill="#e50012" fill-rule="evenodd"/></svg>