<svg height="18" width="18" xmlns="http://www.w3.org/2000/svg"><path d="m0 0h18v18h-18z" fill="#03c"/><path d="m8.999 14c-2.31 0-4.999-1.899-4.999-5.2 0-3.113 2.009-4.8 3.762-4.8.49 0 1.056.14 1.237.265h.002c.179-.125.746-.265 1.237-.265 1.752 0 3.762 1.687 3.762 4.8 0 3.3-2.7 5.2-5 5.2zm.002-1.274c1.965 0 3.789-1.587 3.789-4.027 0-2.21-1.498-3.537-2.614-3.439 0 0 .056.056.182.2.277.317.703 1.091.703 1.952 0 1.38-1 2.245-2.06 2.245h-.002c-1.06 0-2.06-.866-2.06-2.245 0-.86.426-1.635.703-1.951.126-.145.182-.201.182-.201-1.117-.098-2.614 1.229-2.614 3.439 0 2.44 1.824 4.027 3.789 4.027zm-.001-4.316c.404 0 .873-.3.873-1.12 0-.791-.517-1.446-.873-1.712h-.002c-.362.266-.872.921-.872 1.712 0 .82.468 1.12.872 1.12z" fill="#fff"/></svg>