<svg height="18" viewBox="0 0 18 18" width="18" xmlns="http://www.w3.org/2000/svg" xmlns:xlink="http://www.w3.org/1999/xlink"><linearGradient id="a" gradientUnits="userSpaceOnUse" x1="3.35" x2="21.9" y1="3.12" y2="24.43"><stop offset="0" stop-color="#1a1e21"/><stop offset="1" stop-color="#06060a"/></linearGradient><linearGradient id="b" gradientUnits="userSpaceOnUse" x1="4" x2="11.23" y1="7.72" y2="12.31"><stop offset="0" stop-color="#facc32"/><stop offset=".51" stop-color="#ee723d"/><stop offset="1" stop-color="#f84cbd"/></linearGradient><path d="m0 0h18v18h-18z" fill="url(#a)"/><path d="m10.32 6.19c.57 0 1.03-.5 1.03-1.1s-.46-1.09-1.03-1.09c-.56 0-1.03.49-1.03 1.1 0 .6.47 1.09 1.03 1.09zm0 2.59c.57 0 1.03-.49 1.03-1.08 0-.6-.46-1.08-1.03-1.08-.56 0-1.03.48-1.03 1.08s.47 1.08 1.03 1.08zm3.68-1.08c0 .6-.46 1.09-1.04 1.09-.57 0-1.03-.49-1.03-1.09s.46-1.08 1.03-1.08c.58 0 1.04.48 1.04 1.08zm-3.68 3.8c.57 0 1.03-.5 1.03-1.1s-.46-1.09-1.03-1.09-1.03.5-1.03 1.1.46 1.09 1.03 1.09zm-1.61 1.4c0 .61-.46 1.1-1.03 1.1s-1.03-.49-1.03-1.1c0-.6.46-1.09 1.03-1.09s1.03.5 1.03 1.1zm-1.03-4.2c.57 0 1.03-.5 1.03-1.1s-.46-1.09-1.03-1.09-1.03.49-1.03 1.1c0 .6.46 1.09 1.03 1.09zm5.32-3.2a.5.5 0 1 1 -1 0 .5.5 0 0 1 1 0zm-7.5.5a.5.5 0 1 0 0-1 .5.5 0 0 0 0 1zm.5 6.5a.5.5 0 1 1 -1 0 .5.5 0 0 1 1 0zm-.97-1c.57 0 1.03-.5 1.03-1.1s-.46-1.09-1.03-1.09-1.03.5-1.03 1.1.46 1.09 1.03 1.09zm8.02-.24a1 1 0 0 1 -.15 0c-.55.06-1.39.42-1.47 1.62-.01.62-.48 1.12-1.07 1.12s-1.07-.5-1.07-1.14c0-.62.48-1.13 1.07-1.13a1 1 0 0 1 .1 0c.48 0 1.33-.33 1.4-1.65.03-.6.5-1.08 1.07-1.08.6 0 1.07.5 1.07 1.13 0 .58-.4 1.06-.93 1.13zm-4.37-6.16a1.08 1.08 0 0 1 -1.13 1.1c-.52.05-1.27.38-1.4 1.42v.15a1.55 1.55 0 0 0 1.5 1.53c.58 0 1.06.5 1.06 1.1s-.48 1.1-1.07 1.1c-.56 0-1.02-.45-1.06-1.03-.06-1.3-.92-1.61-1.4-1.62a1.04 1.04 0 0 1 -.37-.03 1.1 1.1 0 0 1 -.81-1.07 1.08 1.08 0 0 1 1.15-1.1c.49 0 1.34-.33 1.4-1.62h.01c.04-.58.5-1.03 1.06-1.03.59 0 1.06.5 1.06 1.1z" fill="url(#b)"/></svg>