<svg height="18" width="18" xmlns="http://www.w3.org/2000/svg"><path d="m0 0h18v18h-18z" fill="#213864"/><path d="m5.639 5.294c-1.093.99-1.639 2.229-1.639 3.715 0 1.387.483 2.565 1.45 3.536.968.97 2.135 1.455 3.502 1.455.929 0 1.779-.22 2.55-.66s1.38-1.05 1.827-1.831a4.983 4.983 0 0 0 .671-2.519 4.895 4.895 0 0 0 -.665-2.491 4.868 4.868 0 0 0 -1.854-1.827 5.064 5.064 0 0 0 -2.538-.672c-1.244 0-2.346.431-3.304 1.294zm5.218 1.718c.488.51.733 1.172.733 1.988s-.249 1.483-.746 2.002c-.498.519-1.121.778-1.87.778-.75 0-1.368-.257-1.857-.77-.489-.512-.733-1.182-.733-2.01 0-.804.247-1.464.742-1.98.494-.515 1.113-.773 1.856-.773.762 0 1.386.255 1.875.765z" fill="#fff"/><path d="m14 4a1 1 0 1 0 -2 0 1 1 0 0 0 2 0zm-.548 0a.45.45 0 0 1 -.628.428.452.452 0 1 1 .628-.428z" fill="#00b2ff"/></svg>