<svg height="18" viewBox="0 0 18 18" width="18" xmlns="http://www.w3.org/2000/svg"><path d="m0 0h18v18h-18z" fill="#f0f3fa"/><path d="m3 12c.09-1.4.21-4.58 0-6h1.52l.35.47c.72 1 1.64 2.25 2.13 2.7v-3.17h3.94c.8 0 1.42.63 1.42 1.45 0 .4-.1 1.3-1.24 1.71l.63.97c.48.73 1.01 1.56 1.3 1.87h-1.7l-.35-.55c-.53-.83-1.27-2-1.7-2.46l.98-.38c.36-.14.6-.5.6-.89 0-.52-.42-.72-.94-.72h-1.35v5h-1.2c-.7-.96-2.32-3.13-3.24-4.03 0 1.09.04 3.43.14 4.03zm10.2 0c.12-1.34.3-4.41 0-6h1.8c-.11 1.57-.26 4.95 0 6z" fill="#005bac"/></svg>