<svg height="18" viewBox="0 0 18 18" width="18" xmlns="http://www.w3.org/2000/svg"><path d="m0 0h18v18h-18z" fill="#f0f3fa"/><path d="m9.61 8.82c.07.18.12.16.18.18.12 0 .21-.05.21-.27-.09-.83-.86-2.73-3-2.73-2.13 0-5 3.94-5 4.76 0 .84.68 1.24 1.16 1.24.47 0 .85-.5 1.06-.82 1.2-1.6 2.79-3.18 3.73-3.18s1.58.59 1.66.82z" fill="#f38000"/><path d="m8.39 9.18c-.07-.18-.12-.16-.19-.18-.1 0-.2.05-.2.27.09.83.86 2.73 3 2.73 2.13 0 5-3.94 5-4.76 0-.84-.68-1.24-1.16-1.24-.47 0-.85.5-1.06.82-1.2 1.6-2.79 3.18-3.73 3.18s-1.58-.59-1.66-.82z" fill="#630c7d"/></svg>