<svg height="18" viewBox="0 0 18 18" width="18" xmlns="http://www.w3.org/2000/svg"><path d="m0 0h18v18h-18z" fill="#f0f3fa"/><path d="m6.08 8.74h2.16l-.47 2.26h-.65l-.1-.47c-.47.34-1 .47-1.87.47-1.07 0-2.47-.26-2.09-1.98.36-1.64 1.8-2.02 2.96-2.02 1.7 0 2.4.45 2.31 1.41h-1.71c0-.19-.1-.31-.22-.38s-.3-.09-.5-.09c-.62 0-1.08.3-1.24 1.06-.16.7.14 1.06.9 1.06.5 0 .79-.19.96-.47h-.63zm4.15-1.74h1.74l1.1 2.22h.01l.46-2.22h1.46l-.82 4h-1.68l-1.16-2.24h-.01l-.46 2.24h-1.47l.82-4z" fill="#004f9b"/></svg>