<svg height="18" viewBox="0 0 18 18" width="18" xmlns="http://www.w3.org/2000/svg"><path d="m0 0h18v18h-18z" fill="#f0f3fa"/><g fill="#00519f"><path d="m9 13c3.31 0 6-1.8 6-4s-2.69-4-6-4-6 1.8-6 4 2.69 4 6 4zm0-.28c2.49 0 4.5-1.66 4.5-3.72s-2.01-3.72-4.5-3.72-4.5 1.66-4.5 3.72 2.01 3.72 4.5 3.72z" fill-rule="evenodd"/><path d="m8.92 6 .61 1.04c-.3 0-1.18.13-2.27.61-1.35.6-1.94 1.38-1.74 1.73.42.72 2.23.46 3.12.06a17.1 17.1 0 0 0 1.75-.93l.61 1.05c-.1.14-.48.5-1.22.83-.93.41-3.65.6-4.52-.9-.88-1.5.72-2.69 1.51-3.04.64-.28 1.7-.42 2.15-.45z"/><path d="m9.08 12-.61-1.04c.3 0 1.18-.13 2.27-.61 1.35-.6 1.94-1.38 1.74-1.73-.42-.72-2.23-.46-3.12-.06-.72.32-1.47.75-1.75.93l-.61-1.05c.1-.14.48-.5 1.22-.83.93-.41 3.65-.6 4.52.9.88 1.5-.72 2.69-1.51 3.04-.64.28-1.7.42-2.15.45z"/></g></svg>