<svg height="18" viewBox="0 0 18 18" width="18" xmlns="http://www.w3.org/2000/svg" xmlns:xlink="http://www.w3.org/1999/xlink"><linearGradient id="a" gradientUnits="userSpaceOnUse" x1="3" x2="15" y1="11.3" y2="11.3"><stop offset="0" stop-color="#9c8957"/><stop offset=".96" stop-color="#dabc78"/></linearGradient><path d="m0 0h18v18h-18z" fill="#f0f3fa"/><path d="m3.5 13.1c.65.9 1.64 1.1 2.65.68.68-.27.96-.75 1.8-.87 1.07-.17 1.49 1.09 2.67 1.09 1.25 0 2.05-.83 3.5-2.46 2.19-2.57-.3-3.9-.98-2.12-.58 1.55-1.68 2.96-2.78 2.96-.74 0-1.45-1.54-2.38-1.5-1 .04-1.19 1.48-2.04 1.44-.81-.04-.84-.8-1.44-1.33-.75-.67-2.3.42-1 2.1z" fill="url(#a)"/><path d="m12.95 7.33c-.76 1.05-1.97 3.01-3.14 2.87s-1.2-1.82-2.05-1.91c-1.28-.14-.93 1.58-2.02 2.25-.8.5-1.68-.9-.47-1.6 1.8-1 1.3-2.78 2.57-3 1.36-.25 1.15 2.78 2.23 2.74s1.3-1.12 1.56-3.4c.25-2.27 3.82-1.5 1.32 2.05z"/></svg>