<svg height="18" viewBox="0 0 18 18" width="18" xmlns="http://www.w3.org/2000/svg"><path d="m0 0h18v18h-18z" fill="#f0f3fa"/><path d="m15.99 11.89c.02.03.01.07-.02.1a.06.06 0 0 1 -.03.01h-.92a.06.06 0 0 1 -.05-.03l-.47-.68a.1.1 0 0 1 0-.1l.46-.76a.05.05 0 0 1 .08-.01l.01.01zm-1.03-2.62-.45-.73a.07.07 0 0 1 0-.08l.47-.72a.06.06 0 0 1 .05-.03h.9c.04 0 .07.04.07.08l-.01.03-.93 1.45c-.02.03-.06.04-.09.02z" fill="#00405d"/><path d="m14.7 9.9v.01l-.45.71-.84 1.35a.07.07 0 0 1 -.05.03h-.92c-.04 0-.07-.04-.07-.08 0-.02 0-.03.02-.05l1.27-1.97.02-.04-.02-.04-1.29-2a.07.07 0 0 1 .02-.1h.98a.06.06 0 0 1 .04.02l.84 1.35.45.71v.01a.1.1 0 0 1 0 .1zm-5.7-.9h.45c.78 0 1.33-.28 1.33-1.04 0-.68-.5-.96-1.36-.96-.12 0-.31.03-.42.04zm-.07 3h-.85a.08.08 0 0 1 -.08-.08v-5.74c0-.04.03-.07.07-.08.44-.06.9-.1 1.35-.1 1.49 0 2.32.7 2.32 1.93 0 .87-.49 1.49-1.15 1.75l1.4 2.2c.02.03.01.08-.02.1a.07.07 0 0 1 -.05.02h-1.07a.08.08 0 0 1 -.06-.03l-1.24-1.93c-.02-.02-.04-.04-.06-.04h-.41c-.05 0-.08.04-.08.09v1.83c0 .04-.03.08-.07.08z" fill="#ffab3d"/><path d="m6 10.11v-4.01c0-.05.05-.09.1-.09h.8c.06 0 .1.04.1.09v5.81a.1.1 0 0 1 -.09.1h-.84a.1.1 0 0 1 -.07-.04l-3-4.07v4c0 .06-.02.1-.07.1h-.84a.1.1 0 0 1 -.09-.09v-5.83a.1.1 0 0 1 .1-.08h.89a.1.1 0 0 1 .07.04z" fill="#00405d"/></svg>