<svg height="18" viewBox="0 0 18 18" width="18" xmlns="http://www.w3.org/2000/svg"><path d="m0 0h18v18h-18z" fill="#f0f3fa"/><g fill="#fe163e"><path d="m3.5 7h-1.5v4h1v-2.5c.2.33.84 1.43 1.5 2.5h1.5v-4h-1v2.5c-.07-.09-.9-1.55-1.5-2.5zm7.5 1.1v-1.1h-2.56c-1.14 0-1.44.58-1.44 1.1s.43.77.94 1.03c.52.25 1.59.51 1.83.63.06.04.1.08.09.1 0 0-.22.14-.72.14-.99 0-1.87-.14-2.14-.22v1.22h2.35c1.53 0 1.65-.83 1.65-1.36s-.55-.86-1.47-1.06c-.92-.19-1.3-.46-1.39-.58 1.15 0 2.54.05 2.86.1zm3.33.36c.36.74 1.27 2 1.67 2.54h-1.6a11.6 11.6 0 0 0 -.83-1.64c.03-.41.16-1.04.76-.9z"/><path d="m13 7h-1v4h1v-1c.06-.14.88-1.08 1.31-1.56l1.19-1.44h-1.1c-.35.34-1.06 1.17-1.4 1.44z"/></g></svg>