<svg height="18" viewBox="0 0 18 18" width="18" xmlns="http://www.w3.org/2000/svg"><path d="m0 0h18v18h-18z" fill="#f0f3fa"/><path d="m9.31 8h-2.6l-.03.03v.22l.32.82v1.93h2v-1.93l.31-.82zm-.8-1.19h-1.05l-.95.91c-.02 0 0 .03.03.03h2.89c.02 0 .04 0 .04-.03l-.94-.9zm-1.2-.31h1.37c.03 0 .05-.04.03-.04l-.69-1c0-.03-.02-.03-.04 0l-.68 1c-.02.02 0 .04.02.04zm4.29 3.13h-2.03c-.02 0-.05.02-.02.04l.07.2v1.2s.01.02.04.02l.75.7.04.02h1.04c.02 0 .01-.02.01-.02v-1.92l.12-.2c0-.02 0-.04-.02-.04zm1.78-.63a4.52 4.52 0 0 0 -4.4-4.38 4.46 4.46 0 0 0 -4.36 4.38c0 .82.38 1.95.67 2.19h3.69l1.23.81c-.02 0 .03.02 0 0h1.75a4.12 4.12 0 0 0 1.41-3zm.62 0a5.01 5.01 0 0 1 -10 0 5.01 5.01 0 0 1 10 0zm-2.49-.22c0-.02-.04-.02-.07 0l-.17.46c0 .02-.05.02-.07 0l-.57-1.36c0-.03-.04-.03-.07 0l-.56 1.36c0 .02-.04.02-.06 0l-.2-.46c0-.02-.05-.02-.07 0l-.15.48c0 .03 0 .05.02.05h2.16c.02 0 .04-.02.02-.05l-.2-.48z" fill="#0e2c4f"/></svg>