<svg height="18" viewBox="0 0 18 18" width="18" xmlns="http://www.w3.org/2000/svg"><path d="m0 0h18v18h-18z" fill="#f0f3fa"/><path d="m8.98 13c-4.48 0-5.85-3.66-5.98-5.5.7-.66 2.9-1.06 5.98 1.39 2.48 1.96 4.19 2.12 4.73 1.96-1.4 1.7-2.99 2.15-4.73 2.15z" fill="#80c3b2"/><path d="m9.02 13c4.48 0 5.85-3.66 5.98-5.5-.7-.66-2.9-1.06-5.98 1.39-2.48 1.96-4.19 2.12-4.73 1.96a5.7 5.7 0 0 0 4.73 2.15z" fill="#7ab0d6"/><path d="m9 13a6.32 6.32 0 0 1 -2.12-.31c-.92-.3-1.8-.87-2.6-1.84.55.16 2.26 0 4.72-1.95 2.46 1.95 4.17 2.1 4.71 1.95a5.95 5.95 0 0 1 -1.66 1.44 6.05 6.05 0 0 1 -3.05.71z" fill="#3b8898"/></svg>