<svg height="18" viewBox="0 0 18 18" width="18" xmlns="http://www.w3.org/2000/svg" xmlns:xlink="http://www.w3.org/1999/xlink"><linearGradient id="a" gradientUnits="userSpaceOnUse" x1="9" x2="9" y1="7" y2="15"><stop offset="0" stop-color="#64bcd5"/><stop offset="1" stop-color="#3481c3"/></linearGradient><linearGradient id="b" gradientUnits="userSpaceOnUse" x1="9" x2="9" y1="3" y2="11"><stop offset="0" stop-color="#a2abd6"/><stop offset="1" stop-color="#558cc7"/></linearGradient><linearGradient id="c" gradientUnits="userSpaceOnUse" x1="9.07" x2="9.07" y1="5.82" y2="11"><stop offset="0" stop-color="#4d3d87"/><stop offset="1" stop-color="#4b6bae"/></linearGradient><linearGradient id="d" gradientUnits="userSpaceOnUse" x1="9.1" x2="9.1" y1="5.82" y2="10.94"><stop offset="0" stop-color="#39265a"/><stop offset="1" stop-color="#344a7a"/></linearGradient><path d="m0 0h18v18h-18z" fill="#f0f3fa"/><path d="m10.97 8.38-.24-1.38-3.29 4.66a2.41 2.41 0 0 0 -.43 1.6l.15 1.74 3.4-4.83c.37-.52.51-1.17.4-1.8z" fill="url(#a)"/><path d="m11 5.86-.41-2.86-2.93 4.08c-.5.68-.72 1.5-.65 2.34l.13 1.58z" fill="url(#b)"/><path d="m11 5.86-3.71 3.43-.15 1.54v.17z" fill="url(#c)"/><path d="m11 5.86-3.57 4.14-.29 1z" fill="url(#d)"/></svg>