<svg height="18" width="18" xmlns="http://www.w3.org/2000/svg"><path d="m0 0h18v18h-18z" fill="#f0f3fa"/><path d="m10.984 6h-.332l-1.152 2-1.168-2h-.332v6h.332l1.168-1.991 1.152 1.99h.332z" fill="#6dacde"/><path d="m8 6h-1.584l1.584 3.005-1.584 2.995h1.584z" fill="#938647"/><path d="m12.56 6h-1.576v6h1.576l-1.576-2.996z" fill="#6d9a45"/><path d="m14.713 6h-2.153l-1.576 3.005 1.576 2.994v-1.499h2.584c1.165 0 1.514-1.036 1.514-1.927v-.516c0-1.172-.379-2.057-1.945-2.057zm.369 2.238c0 .355-.107.764-.493.764h-2.03v-1.506h1.89c.496 0 .633.23.633.635z" fill="#bfd730"/><path d="m8 9.005-1.587-3.005.002 3.63-2.839-3.63h-1.576v6h1.576v-3.75l2.837 3.75z" fill="#fcb316"/></svg>