<svg height="18" viewBox="0 0 18 18" width="18" xmlns="http://www.w3.org/2000/svg"><path d="m0 0h18v18h-18z" fill="#f0f3fa"/><path d="m12.28 5-9.28.02.83 1.44z" fill="#8fcef1"/><path d="m4.65 7.74-.8-1.27 8.42-1.47z" fill="#4db7e8"/><path d="m3.84 6.47-.73.15 1.14 1.25.4-.13-.8-1.27z" fill="#9ed3f1"/><path d="m5.4 8.93-.75-1.2 7.63-2.73z" fill="#15a9e1"/><path d="m5.26 9-1-1.13.4-.13.73 1.18z" fill="#65bbe9"/><path d="m4.25 7.88-.69.24 1.31 1.05.38-.18zm1.8 2.22-1.17-.93-.63.34 1.45.84z" fill="#9ed3f1"/><path d="m6.1 10.06-.85-1.06-.38.18 1.18.93.05-.04z" fill="#7ac0ea"/><path d="m6.15 10-.76-1.08 6.9-3.92z" fill="#049fdc"/><path d="m5.4 8.92-.15.07.85 1.07.07-.07-.78-1.07z" fill="#1ba7df"/><path d="m6.8 10.73-.64-.73 6.12-5-4.04 6.76z" fill="#0096d7"/><path d="m6.84 11.37-.74-1.32.07-.07.67.74 1.4 1.03-.05.1z" fill="#13a8e1"/><path d="m6.51 10.78-.81-.43.4-.3z" fill="#63bbe9"/><path d="m7.99 12.18-.48-.58.67.24-.2.34z" fill="#4db7e8"/><path d="m7.64 12.8-.79-1.42.65.22.49.57-.35.64zm-2.52-1.97.59-.49.8.43.35.61z" fill="#8fcef1"/><path d="m9.13 13.48-1.15-1.32.2-.32 1.24.95-.29.7z" fill="#9ed3f1"/><path d="m8.26 11.7-.08.14 1.24.95.12-.37-1.28-.71z" fill="#65bbe9"/><path d="m9.62 12.27-1.39-.56 1.32.74z" fill="#18a6de"/><path d="m9.61 12.27-1.37-.55 4.04-6.72z" fill="#049fdc"/><path d="m10.86 13.14-1.32-.7-.14.36 1.3 1.05z" fill="#9ed3f1"/><path d="m10.91 12.75-1.3-.49-.07.18 1.32.7.05-.4z" fill="#7ac0ea"/><path d="m10.92 12.76-1.32-.5 2.68-7.26z" fill="#2babe1"/><path d="m12.38 13.29-1.47-.53 1.37-7.76z" fill="#63bbe9"/><path d="m14 13.86-1.64-.57-.08-8.29z" fill="#8fcef1"/><path d="m12.36 13.27-1.45-.52-.06.39 1.51.86z" fill="#b9dbf3"/></svg>