<svg height="18" viewBox="0 0 18 18" width="18" xmlns="http://www.w3.org/2000/svg"><path d="m0 0h18v18h-18z" fill="#f0f3fa"/><path d="m11.9 7.7-2.4 4.3h-.48l-.62-5.3c-.03-.2-.08-.34-.17-.41a.45.45 0 0 0 -.23-.12l.04-.17h2.24l-.04.17c-.15.01-.27.06-.33.14-.06.09-.08.27-.06.57l.37 3.67-.28.33 1.91-3.4zm2.91-.55c.13-.25.19-.44.18-.58 0-.14-.07-.24-.19-.3-.1-.05-.27-.08-.47-.1l.03-.17h1.64l-.04.17a1.27 1.27 0 0 0 -.63.41c-.1.12-.21.3-.33.54l-2.48 4.88h-.49l-.64-5.3c-.02-.2-.07-.33-.13-.4-.07-.08-.14-.13-.2-.13l.04-.17h2.39l-.04.17c-.26.01-.43.06-.52.14-.1.09-.12.27-.1.57l.4 3.64-.3.3zm-9.16-1c-.21 0-.42.07-.63.22-.2.15-.4.36-.58.62a6.07 6.07 0 0 0 -.89 3.15c0 .54.08.96.22 1.26.15.3.34.45.57.45.21 0 .42-.07.62-.22.21-.15.4-.36.58-.62s.34-.56.47-.9a6.3 6.3 0 0 0 .43-2.26c0-.53-.08-.95-.23-1.25-.14-.3-.33-.45-.56-.45zm-3.65 3.9c0-.37.06-.73.17-1.12a4.77 4.77 0 0 1 1.27-2.03c.3-.27.65-.5 1.04-.66.38-.16.8-.24 1.24-.24.72 0 1.27.17 1.67.51s.61.82.61 1.45a4.4 4.4 0 0 1 -2.5 3.8c-.37.16-.78.24-1.23.24-.71 0-1.27-.17-1.67-.5a1.8 1.8 0 0 1 -.6-1.46z" fill="#2c3c7a"/></svg>