<svg height="18" viewBox="0 0 18 18" width="18" xmlns="http://www.w3.org/2000/svg" xmlns:xlink="http://www.w3.org/1999/xlink"><linearGradient id="a" gradientUnits="userSpaceOnUse" x1="12.22" x2="5.27" y1="3.92" y2="8.94"><stop offset=".16" stop-color="#258bf5"/><stop offset=".73" stop-color="#55b4ff"/><stop offset="1" stop-color="#3295f7"/></linearGradient><linearGradient id="b" gradientUnits="userSpaceOnUse" x1="14.95" x2="9.46" y1="10.61" y2="5.86"><stop offset="0" stop-color="#3461e0"/><stop offset=".31" stop-color="#5079e6"/><stop offset="1" stop-color="#2756de"/></linearGradient><linearGradient id="c" gradientUnits="userSpaceOnUse" x1="3.28" x2="8.13" y1="7.12" y2="13.59"><stop offset="0" stop-color="#353ad2"/><stop offset=".27" stop-color="#5757d9"/><stop offset="1" stop-color="#2028ce"/></linearGradient><linearGradient id="d" gradientUnits="userSpaceOnUse" x1="8.49" x2="13.28" y1="14.18" y2="9.02"><stop offset="0" stop-color="#c9844c"/><stop offset=".71" stop-color="#feb157"/><stop offset="1" stop-color="#db9350"/></linearGradient><path d="m0 0h18v18h-18z" fill="#f0f3fa"/><path d="m13.37 4.96a5 5 0 0 0 -3.24-1.18c-2.7 0-4.89 2.1-4.89 4.67 0 .69.15 1.33.43 1.92-.63-.78-1-1.75-1-2.8a4.68 4.68 0 0 1 4.78-4.57c1.62 0 3.05.78 3.92 1.96z" fill="url(#a)"/><path d="m13.54 12.7c.62-.93.9-2.08.7-3.25a4.86 4.86 0 0 0 -5.6-3.87 5 5 0 0 0 -1.9.71 4.82 4.82 0 0 1 2.71-1.39c2.6-.4 5.06 1.3 5.48 3.78a4.45 4.45 0 0 1 -1.4 4.02z" fill="url(#b)"/><path d="m4.52 5.47a4.5 4.5 0 0 0 -.76 3.24 4.85 4.85 0 0 0 5.52 3.97 5 5 0 0 0 1.92-.68c-.7.7-1.66 1.2-2.75 1.34a4.75 4.75 0 0 1 -5.4-3.88c-.23-1.54.37-3 1.47-3.99z" fill="url(#c)"/><path d="m5.06 13.5c.95.62 2.14.92 3.37.77a4.72 4.72 0 0 0 4.23-5.23 4.52 4.52 0 0 0 -.68-1.84c.73.69 1.23 1.6 1.37 2.65a4.61 4.61 0 0 1 -4.14 5.11 4.9 4.9 0 0 1 -4.15-1.47z" fill="url(#d)"/><ellipse cx="9" cy="9" fill="#212bd2" rx="1.21" ry="1.21"/><ellipse cx="9" cy="9" fill="#949ded" rx=".61" ry=".61"/></svg>