<svg height="18" width="18" xmlns="http://www.w3.org/2000/svg"><path d="m0 0h18v18h-18z" fill="#06f"/><path d="m5.56 5.42c-.3.3-.6.86-.56 1.88a10.8 10.8 0 0 0 1.18 4.43c.74 1.38 1.74 2.27 2.98 2.27.48 0 .95-.21 1.42-.62.46-.42.9-1.01 1.26-1.71a10.4 10.4 0 0 0 1.16-4.35c0-.95-.27-1.51-.57-1.84s-.63-.45-.83-.48c-.56 0-.97.3-1.42.86-.28.38-.67.69-1.16.7-.5.01-.9-.28-1.23-.69-.46-.56-.84-.87-1.29-.87-.23 0-.62.1-.94.42zm-.7-.7a2.39 2.39 0 0 1 1.64-.72c.96 0 1.6.67 2.06 1.24.24.3.39.32.43.32.06 0 .2-.04.4-.3.54-.72 1.23-1.26 2.23-1.26h.05c.44.04 1.03.28 1.5.8.5.55.84 1.37.83 2.53 0 1.4-.48 3.27-1.28 4.8a7 7 0 0 1 -1.48 2c-.59.51-1.29.87-2.08.87-1.79 0-3.06-1.29-3.86-2.8a11.8 11.8 0 0 1 -1.3-4.85c-.04-1.24.31-2.09.85-2.63z" fill="#fff"/></svg>