<svg height="18" viewBox="0 0 18 18" width="18" xmlns="http://www.w3.org/2000/svg"><path d="m0 0h18v18h-18z" fill="#f0f3fa"/><path d="m11.3 7.53h1.51a4.64 4.64 0 0 0 -4.2-2.65 4.6 4.6 0 0 0 -4.61 3.99c.2 1.25 1.2 3.16 4.15 3.37.4 0 1.37-.12 2.09-.6a5.82 5.82 0 0 1 2.85-1.09c.05-.22.1-.44.12-.67h-2.17a3 3 0 0 1 -2.6 1.47 2.96 2.96 0 0 1 -2.98-2.94 2.96 2.96 0 0 1 2.99-2.94c1.34 0 2.47.87 2.85 2.06zm1.63 3.55a2.5 2.5 0 0 0 -.29-.02c-.3 0-.77.23-1.35.5-.9.43-2.04.97-3.13.97-1.51 0-3.56-1.26-4.16-2.62.03.28.09.56.17.82.67.88 2.15 2.24 3.99 2.24.4 0 1.37-.09 2.09-.44a5.7 5.7 0 0 1 2.32-.74c.14-.22.26-.46.36-.71zm-.79 1.3h-.25c-.41 0-.71.12-1.07.26-.54.21-1.22.48-2.66.48a6.05 6.05 0 0 1 -3.65-1.55 4.65 4.65 0 0 0 7.63.82z" fill="#005ca5"/><g fill="#f8192f"><path d="m9.92 9.88a2.09 2.09 0 0 1 -3.54-1.47 2.08 2.08 0 0 1 3.96-.88h.64a2.68 2.68 0 0 0 -2.52-1.77 2.66 2.66 0 0 0 -2.68 2.65 2.68 2.68 0 0 0 4.9 1.47z"/><path d="m7.86 9.88h-.74l1.04-5.88h.6l1.04 5.3.15-1.18h.59l-.3 1.76h-1.19l-.6-3.53z"/><path d="m11.07 8.41-.15.59h.58l.15-.59zm-.23-.3-.3 1.18h1.19l.3-1.17h-1.2zm1.72.3-.16.59h.57l.15-.59h-.57zm-.24-.3-.3 1.18h1.2l.3-1.17h-1.2z" fill-rule="evenodd"/><path d="m13.9 9 .14-.59h.88l.08-.3h-1.19l-.3 1.18h1.2l.07-.29h-.89z"/></g></svg>