<svg height="18" width="18" xmlns="http://www.w3.org/2000/svg"><path d="m0 0h18v18h-18z" fill="#ef4638"/><g fill="#fff"><path d="m4.068 10.685a.672.672 0 0 1 -.47.088c-.394-.046-.469-.34-.455-.555.037-.74.289-1.947.608-2.549a.802.802 0 0 1 .317-.336v-.29c-.35.067-.68.219-.99.4-.544.314-1.058 1.092-1.078 1.857v.12c.044 1.155.905 1.58 1.653 1.58.136 0 .279-.018.415-.046v-.27zm.462-3.462c.435.007.476.45.46.648-.035.41-.219 1.25-.378 1.802-.136.477-.28.845-.544 1.012v.269c.316-.064.598-.177.724-.237.922-.44 1.35-1.388 1.35-2.24 0-1.004-.697-1.477-1.67-1.477-.136 0-.272.014-.404.042v.29a.901.901 0 0 1 .462-.109z"/><path d="m10.253 7-.279 1.143h-.156c.013-1.115-.915-.915-1.038-.912-1.213.07-1.56 2.843-1.52 3.071.12.645 1.024.642 1.248.007.099-.273.17-.762.31-1.309h-.481l.08-.286h2.213l-.058.286h-.632l-.357 1.429c-.826.697-3.224.998-3.404-.761-.146-1.445 1.326-2.573 2.511-2.668.37 0 .897.074 1.122.358l.257-.358zm.473 2.286h.238l-.415 1.714h-.238zm.786-2.286h-.258l-.405 1.714h.255zm-.179 1.714-.07.286h1.363l-.51 1.714h-.438l-.058.286h3.469l.39-1.429h-.136c-.472.828-.982 1.147-1.489 1.143h-.585l.521-1.714c.66.01.74.033.711.571h.126l.394-1.53h-.15c-.176.645-.67.673-.85.673h-.166l.354-1.428h.411c.027 0 .966.026.976.857h.163l.241-1.143h-3.326l-.058.286h.432l-.36 1.428z"/></g></svg>