<svg height="18" width="18" xmlns="http://www.w3.org/2000/svg"><path d="m0 0h18v18h-18z" fill="#f0f3fa"/><path d="m5 8.1v4.9h5.72c-.87-.4-1.47-2.54-1.8-3.73a112.8 112.8 0 0 0 -.07-.22c-.27-.96-.92-3.27-1.96-3.19-.29-.02-1.05.41-1.89 2.24zm6.32 4.9h1.68v-2.47c-.26.86-.84 2.17-1.68 2.47z" fill="#ee3a43"/><path d="m6.35 5h-1.35v2.15c.24-.74.7-1.76 1.35-2.15zm6.65 4.55c-.95 2.12-1.64 2.48-1.94 2.48-1 0-1.62-2.06-1.95-3.13 0-.04-.02-.07-.03-.1l-.16-.6c-.28-1.04-.72-2.7-1.52-3.2h5.6z" fill="#007ac3"/></svg>