<svg height="18" viewBox="0 0 18 18" width="18" xmlns="http://www.w3.org/2000/svg"><path d="m0 0h18v18h-18z" fill="#f0f3fa"/><circle cx="9" cy="9" fill="#536169" r="5"/><path d="m8.33 8.69h4.64v-.94h-3.82c-.24.34-.52.66-.82.94zm-.39-.94c-.35.37-.76.69-1.2.94h-2v-.02a4.35 4.35 0 0 0 2.28-.92z" fill="#798388"/><path d="m12.97 7.8a5.94 5.94 0 0 0 -5.22 6.04c.3.08.62.13.95.15l-.01-.3a5 5 0 0 1 4.42-4.97l-.14-.93z" fill="#f0f3fa"/><path d="m13.2 9.34a4.38 4.38 0 0 0 -3.88 4.65 5 5 0 0 0 .93-.15 3.42 3.42 0 0 1 3.08-3.57z" fill="#f0f3fa"/><path d="m9.67 9.31h-4.67v.94h3.86c.24-.34.52-.66.82-.94zm.39.94c.35-.37.76-.69 1.2-.94h1.94v.03c-.83.1-1.6.42-2.22.91z" fill="#798388"/><g fill="#f0f3fa"><path d="m4.84 9.28.15.93a5.94 5.94 0 0 0 5.26-6.05 5 5 0 0 0 -.95-.16l.01.3a5 5 0 0 1 -4.47 4.97z"/><path d="m4.75 8.67-.15-.93a3.44 3.44 0 0 0 3.15-3.58 5 5 0 0 1 .93-.16v.3a4.38 4.38 0 0 1 -3.93 4.36z"/></g></svg>