<svg height="18" viewBox="0 0 18 18" width="18" xmlns="http://www.w3.org/2000/svg"><path d="m0 0h18v18h-18z" fill="#f0f3fa"/><g fill="#0e5daa"><path d="m12.64 12.43a4.98 4.98 0 0 0 -3.64-8.43 5 5 0 0 0 -3.56 8.51c.54-.18 1.63-.68 1.63-1.38 0-.86-1.07-1.3-1.07-2.13 0-1.24 1.8-3 3-3 1.3 0 3 1.62 3 3 0 .83-.8 1.3-.8 2.13.15.57.97 1.04 1.44 1.3z"/><path d="m12 13c-.76-.5-2-1-2-2 0-.86.93-1.17 1-2-.12-.7-1.24-2-2-2-.74 0-1.8 1.38-1.93 2 .12.84.93 1.1.93 2 0 1.1-1.06 1.5-2 2 .73.42 1.5 1 3 1 1.83 0 2.23-.52 3-1z"/></g></svg>