<svg height="18" viewBox="0 0 18 18" width="18" xmlns="http://www.w3.org/2000/svg" xmlns:xlink="http://www.w3.org/1999/xlink"><linearGradient id="a"><stop offset="0" stop-color="#e7811d"/><stop offset="1" stop-color="#e7811d" stop-opacity=".4"/></linearGradient><linearGradient id="b" gradientUnits="userSpaceOnUse" x1="8.82" x2="8.82" xlink:href="#a" y1="8.68" y2="13.02"/><linearGradient id="c" gradientUnits="userSpaceOnUse" x1="6.76" x2="3.94" xlink:href="#a" y1="6.85" y2="12.59"/><linearGradient id="d" gradientUnits="userSpaceOnUse" x1="12.34" x2="14.79" xlink:href="#a" y1="12.33" y2="12.33"/><path d="m0 0h18v18h-18z" fill="#f0f3fa"/><path d="m10.65 7.6c-1.4 0-2.52 1.22-2.52 2.71 0 1.08.58 2 1.43 2.45l-.2.26a3.46 3.46 0 0 1 1.29-6.74z" fill="url(#b)"/><path d="m7.68 3c-1.2 2.28-3.28 7.64-4.18 10.03.5-.5.51-.67 1-1.37a6.95 6.95 0 0 0 1.32-1.78l2.54-5.32z" fill="url(#c)"/><path d="m7.8 6.15.65-1.37 2.44 5.72h-1.23zm2.85 2.55.18-.01a1.8 1.8 0 0 1 1.28 3.08 2.3 2.3 0 0 0 -1.46-4.18v1.1zm-.65 3.97h-3.9l1.42 1.33h2.48z" fill="#e7811d"/><path d="m15.5 11.67h-4v1.33h1.97l1.07-.41-1.26-.26h1.48l.54-.39c-1.09-.1-.32-.23.2-.27z" fill="url(#d)"/></svg>