<svg height="18" viewBox="0 0 18 18" width="18" xmlns="http://www.w3.org/2000/svg"><path d="m0 0h18v18h-18z" fill="#f0f3fa"/><path d="m8.7 10.64c.2-.43.3-.93.3-1.5v-.27c0-.57-.1-1.07-.31-1.51s-.5-.77-.89-1a2.42 2.42 0 0 0 -1.3-.36 2.32 2.32 0 0 0 -2.19 1.36c-.2.44-.31.94-.31 1.52v.28c0 .57.1 1.06.32 1.5a2.32 2.32 0 0 0 2.18 1.34 2.3 2.3 0 0 0 2.19-1.36zm-2.2-3.64c.82 0 1.2.64 1.2 1.87v.28c0 1.21-.38 1.85-1.2 1.85s-1.2-.68-1.2-1.87v-.28c0-1.22.39-1.85 1.2-1.85zm4.1 4h1.82l.35 1h1.23l-2-6h-1l-2 6h1.27l.34-1zm1.58-1h-1.32l.66-2.29z"/></svg>