<svg height="18" width="18" xmlns="http://www.w3.org/2000/svg"><path d="m0 0h18v18h-18z" fill="#46b555"/><circle cx="8.726" cy="9.274" fill="#fff" r="4.726"/><circle cx="12.562" cy="5.393" fill="#fff" r="2.438"/><path d="m11.074 5.178c1.356.729 2.026 2.16 2.126 2.568.556-.103 1.222-.676 1.327-.89-.714-1.595-2.066-2.649-2.624-2.92-.61.364-.798.863-.83 1.242zm1.58 4.23c-3.498-.576-4.063-3.528-3.837-4.863.964.05 1.165.17 1.382.236-.444 1.972 1.195 3.012 2.182 3.041a3.96 3.96 0 0 1 .273 1.586z" fill="#46b555"/></svg>