<svg height="18" viewBox="0 0 18 18" width="18" xmlns="http://www.w3.org/2000/svg"><path d="m0 0h18v18h-18z" fill="#f0f3fa"/><path d="m12.3 5.07v.02c.55.77.79 1.73.67 2.68-.22 1.91-1.72 3.3-3.34 3.08-1.3-.17-2.28-1.28-2.52-2.7a3.1 3.1 0 0 0 .89 3.54c.28.28.63.48 1.01.6h-.18a3.33 3.33 0 0 1 -1.64-.55 3.65 3.65 0 0 1 .07-6.04 3.33 3.33 0 0 1 4.61 1.1l.03.03c-.45-1.64-1.64-2.83-3.6-2.83-.63 0-1.24.16-1.79.47a4.98 4.98 0 0 0 -1.84 1.86 5.22 5.22 0 0 0 -.67 2.57c0 2.81 2.24 5.1 5 5.1s5-2.29 5-5.1a5.2 5.2 0 0 0 -1.7-3.82z" fill="#3040e8"/></svg>