<svg height="18" viewBox="0 0 18 18" width="18" xmlns="http://www.w3.org/2000/svg"><path d="m0 0h18v18h-18z" fill="#f0f3fa"/><path d="m4.43 4v3.13c-.5.02-.75.19-1.02.5-.37.42-.41.99-.41 1.2v.16h1.4c.01 0 .04.01.04.03v4.98h9.56v-10z" fill="#231815"/><path d="m4.67 4.35.01-.02.02-.01h3.07l.01.03v1.92a.03.03 0 0 1 0 .02.03.03 0 0 1 -.03.01h-3.07v-1.96z" fill="#addef8"/><path d="m5.6 6.5h-.9a.03.03 0 0 0 -.03.03v3.2l.03.02h.9c.02 0 .03-.01.03-.03v-3.2a.03.03 0 0 0 -.03-.02z" fill="#ffe037"/><path d="m12.09 9.72-.01.02-.02.01h-4.03v-5.5l.02-.01h4.03v5.49z" fill="#d7000f"/><path d="m13.73 4.25h-1.38a.03.03 0 0 0 -.02.03v5.44c0 .02 0 .03.02.03h1.38c.02 0 .03-.01.03-.03v-5.44a.03.03 0 0 0 -.03-.03z" fill="#addef8"/><path d="m6.1 13.72v.02l-.02.01h-1.4v-2.25l.02-.01h1.4z" fill="#d7000f"/><path d="m13.66 10h-1.33v3.57zm-1.23 3.75h1.3l.02-.01.01-.02v-3.55z" fill="#ffe037"/><path d="m12.08 13.72v.02a.03.03 0 0 1 -.02.01h-5.81v-2.42h-1.58v-1.33h.03 7.36a.03.03 0 0 1 .02 0zm-4.3-7.22h-1.91v.74h1.91zm0 .84h-1.91v.72h1.91zm0 .86h-1.91v.73h1.91zm0 .87h-1.91v.68h1.91z" fill="#fff"/></svg>