<svg height="18" viewBox="0 0 18 18" width="18" xmlns="http://www.w3.org/2000/svg" xmlns:xlink="http://www.w3.org/1999/xlink"><linearGradient id="a" gradientUnits="userSpaceOnUse" x1="8.96" x2="5.13" y1="7.58" y2="11.72"><stop offset="0" stop-color="#1c8da5"/><stop offset="1" stop-color="#3b3871"/></linearGradient><linearGradient id="b" gradientUnits="userSpaceOnUse" x1="10.01" x2="7" y1="5.56" y2="9.86"><stop offset="0" stop-color="#831f5f"/><stop offset="1" stop-color="#483471"/></linearGradient><linearGradient id="c" gradientUnits="userSpaceOnUse" x1="10.64" x2="8.13" y1="4.05" y2="9.49"><stop offset="0" stop-color="#9d1f5f"/><stop offset="1" stop-color="#e61c68"/></linearGradient><linearGradient id="d" gradientUnits="userSpaceOnUse" x1="9" x2="13.52" y1="10.39" y2="6.33"><stop offset="0" stop-color="#e42c6a"/><stop offset="1" stop-color="#ea5c2e"/></linearGradient><linearGradient id="e" gradientUnits="userSpaceOnUse" x1="13.06" x2="10.55" y1="9.2" y2="13.64"><stop offset="0" stop-color="#ef5d27"/><stop offset=".97" stop-color="#f7c800"/></linearGradient><linearGradient id="f" gradientUnits="userSpaceOnUse" x1="10.18" x2="6.43" y1="8.45" y2="13.08"><stop offset="0" stop-color="#a4d7da"/><stop offset="1" stop-color="#1d96a7"/></linearGradient><path d="m0 0h18v18h-18z" fill="#f0f3fa"/><path d="m6.25 9.86c-.47 1.09.08 2.48.45 2.97-1.76 0-3.66-2.16-2.16-4.19 1.71-2.31 4.38-1.5 5.12-.67-1.38-.32-2.75.35-3.41 1.89z" fill="url(#a)"/><path d="m6.88 7.18a3.76 3.76 0 0 0 -2.53 1.79c-.86-1.45.21-4.02 2.81-3.77 2.97.28 3.54 2.86 3.13 3.87-.38-1.29-1.66-2.1-3.4-1.89z" fill="url(#b)"/><path d="m9.61 6.35c-.76-.93-2.29-1.2-2.92-1.15.88-1.44 3.76-1.88 4.87.36a3.1 3.1 0 0 1 -1.92 4.52c.97-.96 1.05-2.41-.03-3.73z" fill="url(#c)"/><path d="m11.75 8.18c.47-1.08-.04-2.47-.4-2.96 1.75 0 3.6 2.14 2.1 4.16-1.71 2.32-4.37 1.52-5.1.7 1.37.31 2.74-.35 3.4-1.9z" fill="url(#d)"/><path d="m11.15 10.83a3.75 3.75 0 0 0 2.5-1.83c.89 1.44-.15 4.02-2.75 3.8-2.98-.22-3.58-2.8-3.2-3.81.4 1.29 1.69 2.07 3.44 1.85z" fill="url(#e)"/><path d="m8.39 11.66c.75.93 2.27 1.22 2.9 1.17-.88 1.42-3.75 1.83-4.84-.4a3.07 3.07 0 0 1 1.94-4.48c-.98.95-1.07 2.4 0 3.71z" fill="url(#f)"/></svg>