<svg height="18" viewBox="0 0 18 18" width="18" xmlns="http://www.w3.org/2000/svg" xmlns:xlink="http://www.w3.org/1999/xlink"><linearGradient id="a"><stop offset="0" stop-color="#d75d13"/><stop offset="1" stop-color="#fbbe42"/></linearGradient><linearGradient id="b" gradientUnits="userSpaceOnUse" x1="6.91" x2="8.52" xlink:href="#a" y1="4.44" y2="7.7"/><linearGradient id="c" gradientUnits="userSpaceOnUse" x1="6.87" x2="8.49" xlink:href="#a" y1="13.56" y2="10.3"/><linearGradient id="d" gradientUnits="userSpaceOnUse" x1="4.43" x2="7.69" xlink:href="#a" y1="6.87" y2="8.46"/><linearGradient id="e" gradientUnits="userSpaceOnUse" x1="13.57" x2="10.31" xlink:href="#a" y1="6.87" y2="8.45"/><linearGradient id="f" gradientUnits="userSpaceOnUse" x1="11.11" x2="9.49" xlink:href="#a" y1="4.44" y2="7.7"/><linearGradient id="g" gradientUnits="userSpaceOnUse" x1="11.13" x2="9.51" xlink:href="#a" y1="13.56" y2="10.3"/><linearGradient id="h" gradientUnits="userSpaceOnUse" x1="4.44" x2="7.68" xlink:href="#a" y1="11.13" y2="9.52"/><linearGradient id="i" gradientUnits="userSpaceOnUse" x1="13.56" x2="10.32" xlink:href="#a" y1="11.13" y2="9.52"/><path d="m0 0h18v18h-18z" fill="#f0f3fa"/><path d="m8.73 4.7v2.7c0 .34-.4.5-.64.27l-2-2a.57.57 0 0 1 .15-.91l1.51-.7a.7.7 0 0 1 .98.64z" fill="url(#b)"/><path d="m8.69 13.3v-2.7c0-.34-.4-.5-.65-.27l-2 1.99c-.28.28-.2.76.17.92l1.5.7a.7.7 0 0 0 .98-.64z" fill="url(#c)"/><path d="m4.7 8.69h2.69c.34 0 .5-.42.27-.66l-2-2a.57.57 0 0 0 -.91.17l-.69 1.5a.7.7 0 0 0 .64.99z" fill="url(#d)"/><path d="m13.3 8.69h-2.67c-.34 0-.5-.4-.27-.64l1.98-2.01c.28-.28.75-.2.92.17l.68 1.5c.2.47-.13.98-.63.98z" fill="url(#e)"/><path d="m9.28 4.7v2.7c0 .34.41.5.65.27l2-2a.57.57 0 0 0 -.16-.92l-1.5-.69a.7.7 0 0 0 -.99.64z" fill="url(#f)"/><path d="m9.31 13.3v-2.7c0-.34.4-.5.64-.27l2 1.99c.29.28.2.76-.16.92l-1.5.7a.7.7 0 0 1 -.98-.64z" fill="url(#g)"/><path d="m4.69 9.3h2.68c.33 0 .5.4.27.64l-1.97 2.01a.56.56 0 0 1 -.91-.16l-.7-1.5a.7.7 0 0 1 .63-.98z" fill="url(#h)"/><path d="m13.3 9.31h-2.67c-.34 0-.5.4-.27.63l1.97 2.01c.27.28.75.2.91-.16l.7-1.5a.69.69 0 0 0 -.63-.98z" fill="url(#i)"/></svg>