<svg height="18" width="18" xmlns="http://www.w3.org/2000/svg"><path d="m0 0h18v18h-18z" fill="#f0f3fa"/><path d="m5.5 7.5c0 1.97 1.47 3.5 3.5 3.5 2.02 0 3.5-1.53 3.5-3.5 0-1.9-1.42-3.5-3.5-3.5-2 0-3.5 1.54-3.5 3.5zm1.5 0c0-1.38.84-2.53 2-2.53s2 1.16 2 2.53c0 1.36-.87 2.5-2 2.5-1.12 0-2-1.13-2-2.49zm1.54 5.76c.6.35 1.25.74 2.05.74 1.14 0 2.04-.88 2.41-1.53l-.45-.47c-.58.81-1.1 1.3-1.96 1.3-.55 0-1.05-.3-1.56-.61-.57-.34-1.15-.69-1.87-.69-1.49-0-2.16 1.67-2.16 1.67l.58.33s.5-1.3 1.58-1.3c.44 0 .89.27 1.38.56z" fill="#027ea7"/></svg>