<svg height="18" viewBox="0 0 18 18" width="18" xmlns="http://www.w3.org/2000/svg"><path d="m0 0h18v18h-18z" fill="#f0f3fa"/><path d="m12.39 8h-2.79c-.32 0-.6-.22-.6-.5s.27-.5.61-.5h2.78c.33 0 .61.22.61.5s-.28.5-.61.5zm-1.39 2.92v-1.8c0-.35.22-.64.5-.64s.5.29.5.64v1.8c0 .35-.22.64-.5.64s-.5-.29-.5-.64zm-2-5.55v-1.74c0-.35.22-.63.5-.63s.5.28.5.63v1.74c0 .35-.22.63-.5.63s-.5-.28-.5-.63zm0 9.01v-2.76c0-.34.22-.62.5-.62s.5.28.5.62v2.76c0 .34-.22.62-.5.62s-.5-.28-.5-.62zm-1.64-6.73v-1.8c0-.35.22-.64.5-.64s.5.29.5.65v1.79c0 .35-.22.64-.5.64-.27 0-.5-.29-.5-.64zm0 4.92v-.93c0-.35.22-.64.5-.64s.5.29.5.64v.93c0 .35-.22.64-.5.64-.27 0-.5-.29-.5-.64zm5.7-4.27h1.32c.34 0 .62.22.62.5 0 .27-.28.5-.62.5h-1.32c-.35 0-.63-.23-.63-.5 0-.28.28-.5.63-.5zm-9.9 0h1.4c.36 0 .66.22.66.5 0 .27-.3.5-.66.5h-1.4c-.36 0-.66-.23-.66-.5 0-.28.3-.5.66-.5zm2.84 2.62v-1.8c0-.35.22-.64.5-.64s.5.29.5.64v1.8c0 .35-.22.64-.5.64s-.5-.29-.5-.64zm2.92-.51c.48 0 .87-.4.87-.88a.88.88 0 0 0 -.87-.88c-.48 0-.86.4-.86.88 0 .49.38.88.86.88z" fill="#e20177"/><path d="m14.5 8a.5.5 0 1 0 0-1 .5.5 0 0 0 0 1z" fill="#009ddc"/><path d="m7.86 15a.5.5 0 1 0 0-1 .5.5 0 0 0 0 1z" fill="#54b948"/><path d="m6.5 8a.5.5 0 1 0 0-1 .5.5 0 0 0 0 1z" fill="#1b4298"/></svg>