<svg height="18" viewBox="0 0 18 18" width="18" xmlns="http://www.w3.org/2000/svg" xmlns:xlink="http://www.w3.org/1999/xlink"><linearGradient id="a" gradientUnits="userSpaceOnUse" x1="0" x2="18" y1="9" y2="9"><stop offset="0" stop-color="#13515c"/><stop offset="1" stop-color="#2b828c"/></linearGradient><path d="m0 0h18v18h-18z" fill="url(#a)"/><path d="m13 9.21a4 4 0 1 1 -6.88-2.98l-.7-.73a4.99 4.99 0 0 0 3.58 8.5 5 5 0 0 0 5-4.79z" fill="#f5ffff"/><path d="m11.86 6.2a3.99 3.99 0 0 1 1.13 2.5h1a4.99 4.99 0 0 0 -1.44-3.23z" fill="#f48900"/><path d="m11.48 5.87a3.98 3.98 0 0 0 -2.28-.87v-1c1.13.04 2.16.46 2.98 1.13z" fill="#ffb500"/><path d="m8.71 4a4.98 4.98 0 0 0 -2.91 1.16l.66.76c.63-.52 1.4-.85 2.26-.91v-1z" fill="#f48900"/></svg>