<svg height="18" viewBox="0 0 18 18" width="18" xmlns="http://www.w3.org/2000/svg"><path d="m0 0h18v18h-18z" fill="#b2895d"/><g fill="#a25223"><path d="m9 15a6 6 0 1 0 0-12 6 6 0 0 0 0 12zm.03-.75a5.26 5.26 0 1 0 -5.28-5.25c0 2.9 2.36 5.25 5.28 5.25z" fill-rule="evenodd"/><path d="m6.6 8.61c-.67 0-1.2-.5-1.2-1.12v-2.1h1.6v1.61h1.2v-1h1.6v1h1.2v-1.61h1.6v2.1c0 .62-.53 1.12-1.19 1.12h-1.61v.72h1.61c.66 0 1.19.5 1.19 1.13v2.1h-1.6v-1.56h-4v1.56h-1.6v-2.1c0-.62.53-1.13 1.2-1.13h1.6v-.72z"/></g></svg>