<svg height="18" width="18" xmlns="http://www.w3.org/2000/svg"><path d="m0 0h18v18h-18z" fill="#d3003f"/><g fill="#fff"><path d="m3 7.401v.388l12-3.402v-.387zm0 6.599 12-3.401v-.388l-12 3.402zm8.799-7.822 3.201-.903v-.388l-3.652 1.035s.013.123.013.183c0 .6-.61 1.02-1.299 1.021-.727 0-.93-.576-.93-.576l-6.132 1.738v.388l5.913-1.676s.32.544 1.118.543c.798 0 1.627-.42 1.768-1.366z"/><path d="m12.776 6.792 2.224-.63v-.388l-2.513.719c-.188 1.23-1.4 1.822-2.456 1.823-1.095.001-1.548-.692-1.548-.692l-5.483 1.552v.387l5.397-1.529c.352.418.938.67 1.658.669 1.274-.002 2.456-.799 2.721-1.91z"/><path d="m13.274 7.539 1.726-.49v-.387l-1.887.535c-.313 1.456-1.784 2.113-2.973 2.113-.368 0-1.166-.023-1.845-.748l-5.295 1.501v.388l5.331-1.511c.613.647 1.442.734 1.912.733 1.798-.001 2.917-1.336 3.031-2.134z"/><path d="m13.45 8.376 1.55-.44v-.386l-1.594.452c-.41 1.7-2.077 2.175-3.046 2.176-.782 0-1.283-.18-1.909-.772l-5.451 1.544v.388l5.604-1.588c.653.64 1.388.726 1.85.726 1.9-.002 2.794-1.288 2.996-2.1z"/><path d="m13.332 9.297 1.668-.474v-.387l-1.575.446a4.924 4.924 0 0 1 -.093.415zm-4.16 1.179-6.172 1.75v-.388l5.882-1.667c.125.125.29.305.29.305zm3.95-.62 1.878-.532v.387l-2.313.655c-.323.32-.99.756-1.897.757-.164 0-.376-.04-.525-.07l-7.265 2.06v-.388l6.68-1.886s-.18-.095-.314-.205c0 0 .571.235 1.217.234.973 0 2.076-.482 2.647-1.341 0 0-.083.248-.108.329z"/></g></svg>