<svg fill="none" height="18" width="18" xmlns="http://www.w3.org/2000/svg"><path d="m0 0h18v18h-18z" fill="#f0f3fa"/><path clip-rule="evenodd" d="m8.578 4a5.002 5.002 0 0 0 -4.578 4.488h.073a4.493 4.493 0 0 0 4.505-4.488zm-.016 10a5.002 5.002 0 0 1 -4.554-4.409h.081c2.316 0 4.21 1.918 4.473 4.409zm5.418-4.441a5.002 5.002 0 0 1 -4.548 4.44 4.99 4.99 0 0 1 4.548-4.44zm-4.553-5.557a5.002 5.002 0 0 1 4.573 4.668c-2.572-.194-4.576-2.122-4.576-4.49 0-.06 0-.119.003-.178z" fill="#475940" fill-rule="evenodd"/></svg>