<svg height="18" viewBox="0 0 18 18" width="18" xmlns="http://www.w3.org/2000/svg"><path d="m0 0h18v18h-18z" fill="#036755"/><path d="m14 10.44a1.35 1.35 0 0 1 -.8 1.3 4.08 4.08 0 0 1 -1.33.27h-2.7v-.4c.46 0 .82-.19.82-.7v-3.77c0-.52-.34-.7-.82-.7v-.44h2.55c.27 0 .56.03.86.1.3.06.57.2.81.42.25.22.37.54.37.96 0 .3-.1.57-.3.8-.2.22-.52.4-.98.55.31.06.58.17.81.31a1.45 1.45 0 0 1 .7 1.3zm-1.18-2.96c0-.62-.58-1-1.33-1h-.49v2.12h.4c.85 0 1.42-.46 1.42-1.13zm.18 2.88c0-.8-.6-1.27-1.28-1.27h-.72v1.55c0 .22.1.64.3.78.09.07.24.1.44.1.67 0 1.26-.53 1.26-1.16zm-4-1.36c0 .53-.12 1.02-.35 1.48s-.58.83-1.03 1.1c-.46.28-1 .42-1.62.42-.5 0-.95-.09-1.34-.26-.38-.18-.7-.42-.94-.71a3.01 3.01 0 0 1 -.54-.98 3.35 3.35 0 0 1 .16-2.52c.22-.46.56-.83 1.01-1.1.45-.29 1-.43 1.62-.43.58 0 1.06.1 1.46.3s.72.46.94.77c.23.3.39.63.49.97.1.33.14.66.14.96zm-1-.02c0-1.12-.63-2.48-2-2.48-1.35 0-2 1.33-2 2.48s.66 2.52 2.01 2.52c1.34 0 1.99-1.39 1.99-2.52z" fill="#fff"/></svg>