<svg height="18" viewBox="0 0 18 18" width="18" xmlns="http://www.w3.org/2000/svg"><path d="m0 0h18v18h-18z" fill="#f0f3fa"/><g fill="#ee6623"><path d="m9 14a5 5 0 1 0 0-10 5 5 0 0 0 0 10zm-.08-6.91.08-.09.08.09c.34.38 1.09 1.22 2.55 1.56.35.4.37 1 .37 1.39 0 1.87-1.08 3.46-3 3.46-1.85 0-3-1.6-3-3.46 0-.39.02-.98.37-1.4 1.46-.33 2.21-1.17 2.55-1.55z"/><path d="m6 9.41h1.47v.59h-1.47zm4.6 0h1.93v.59h-1.93z"/><path d="m8 11a1 1 0 1 0 0-2 1 1 0 0 0 0 2zm0-.5a.5.5 0 1 0 0-1 .5.5 0 0 0 0 1z" fill-rule="evenodd"/><path d="m10.03 11.06a1.03 1.03 0 1 0 0-2.06 1.03 1.03 0 0 0 0 2.06zm0-.52a.51.51 0 1 0 0-1.03.51.51 0 0 0 0 1.03z" fill-rule="evenodd"/></g></svg>