<svg height="18" width="18" xmlns="http://www.w3.org/2000/svg"><path d="m0 0h18v18h-18z" fill="#ee2934"/><path d="m10.268 12.554c.65-.806.974-1.808.974-3.002 0-1.003-.294-1.804-.803-2.464-.49-.634-1.112-.945-1.875-.945-.973 0-1.82.332-2.475 1.138-.65.806-1.018 1.808-1.018 3.012 0 1.008.304 1.867.813 2.522.51.655 1.177.953 1.959.953.968-.005 1.775-.408 2.425-1.214zm-6.268-8.554v5.511c.247-.866.741-1.647 1.478-2.347 1.114-1.058 2.43-1.587 3.943-1.587.938 0 1.7.312 2.285.932s.877 1.43.877 2.428c0 1.446-.56 2.695-1.68 3.753a5.747 5.747 0 0 1 -2.177 1.31h5.274v-10z" fill="#fff"/></svg>