<svg height="18" width="18" xmlns="http://www.w3.org/2000/svg"><path d="m0 0h18v18h-18z" fill="#f0f3fa"/><path d="m8.67 5.74c1.88-1.77 1.92-2.57 1.7-2.74.75.47 1.2 1.54-.83 3.34-2.04 1.8-2.44 2.96-2.39 3.3-.27-.57-.35-2.14 1.52-3.9z" fill="#56b34d"/><path d="m8.67 8.45c1.88-1.77 1.92-2.56 1.7-2.74.75.48 1.2 1.55-.83 3.35-2.04 1.8-2.44 2.94-2.39 3.29-.27-.56-.35-2.13 1.52-3.9z" fill="#077cbd"/><path d="m8.67 11.1c1.88-1.77 1.92-2.56 1.7-2.73.75.47 1.2 1.54-.83 3.34-2.04 1.79-2.44 2.94-2.39 3.29-.27-.56-.35-2.13 1.52-3.9z" fill="#56b34d"/></svg>