<svg height="18" width="18" xmlns="http://www.w3.org/2000/svg"><path d="m0 0h18v18h-18z" fill="#cc2131"/><path d="m13.474 4.3c.028 0 .368-.01.521 0v8.587c0 .239.023.534-.025.762-.029.153-.172.33-.334.348-.086.01-.181 0-.277 0l-4.533.003-4.537-.002c0-.457.01-.89.048-1.3.028-.41.133-.81.21-1.18.315-1.495 1.088-2.847 1.919-3.838.487-.571 1.002-1.095 1.623-1.533.926-.657 1.604-1.085 3.256-1.561.21-.057.43-.095.649-.133.162-.029.324-.067.487-.086.324-.038.649-.067.993-.067z" fill="#fff"/><path d="m4.364 4.032c.286-.038.644-.024.94-.024h8.698c0 1.344 0 .393-2.755.787-3.227.99-5.503 3.109-6.487 6.327-.238 2.889.43 2.889-.75 2.889v-8.883c0-.248-.028-.543.01-.772a.457.457 0 0 1 .344-.324z" fill="#fff"/><path d="m9 5c2.175 0 3.997 1.269 3.997 4s-1.82 4-3.995 4-4.002-1.269-4.002-4 1.825-4 4-4zm-2.395 4c0 1.725.977 2.83 2.397 2.83s2.396-1.105 2.396-2.83c.014-1.862-.978-2.77-2.398-2.77s-2.382.908-2.395 2.77z" fill="#cc2131"/></svg>