<svg height="18" viewBox="0 0 18 18" width="18" xmlns="http://www.w3.org/2000/svg"><path d="m0 0h18v18h-18z" fill="#f0f3fa"/><path d="m4 5h10v8h-10zm3.28 2.85a2.1 2.1 0 0 0 .94 3.08 2.05 2.05 0 0 0 1.94-.2 2.08 2.08 0 0 0 .88-2.14 2.1 2.1 0 0 0 -1.64-1.64 2.05 2.05 0 0 0 -2.12.9zm1.4 3.57c.46 0 .9-.18 1.28-.4l-.15.05c-.23.08-.5.18-.72.18-1.28 0-2.32-1-2.32-2.23a2.28 2.28 0 0 1 3.12-2.08 2.6 2.6 0 0 0 -1.22-.36 2.45 2.45 0 0 0 -2.47 2.42 2.45 2.45 0 0 0 2.48 2.42zm.32-5.42a3 3 0 1 0 0 6 3 3 0 0 0 0-6z" fill="#2b2a69"/></svg>