<svg height="18" viewBox="0 0 18 18" width="18" xmlns="http://www.w3.org/2000/svg"><path d="m0 0h18v18h-18z" fill="#f0f3fa"/><path d="m7.3 6.43c-.68.29-1.32.6-1.9.96 1.05-.8 2.25-1.37 3.5-1.78 3.1-1.01 5.88-.76 6.48.7.36.86-.12 1.97-1.18 3.05.75-.94 1.06-1.87.75-2.62-.7-1.65-4.12-1.8-7.66-.3zm3.4 5.14c.68-.29 1.32-.6 1.9-.96-1.05.8-2.25 1.37-3.5 1.78-3.1 1.01-5.88.76-6.48-.7-.36-.86.12-1.97 1.18-3.05-.75.94-1.06 1.87-.75 2.62.7 1.65 4.12 1.8 7.66.3z" fill="#0074b1"/><path d="m13.45 11h-1.15a23.9 23.9 0 0 0 -1.35-1.81h-.47v1.27c0 .06.01.12.04.17.02.05.07.09.14.11a2.47 2.47 0 0 0 .42.06v.2h-1.86v-.2a8.86 8.86 0 0 0 .4-.06c.06-.02.1-.06.13-.1.03-.05.04-.11.04-.18v-2.9a.48.48 0 0 0 -.03-.17c-.02-.05-.07-.09-.14-.12a1.77 1.77 0 0 0 -.4-.07v-.2h2.04c.18 0 .35.02.5.05.17.04.3.1.44.17a.82.82 0 0 1 .4.73c0 .16-.02.3-.07.41a.84.84 0 0 1 -.22.3c-.1.09-.2.16-.33.22-.12.06-.26.1-.41.15a45.2 45.2 0 0 1 1.03 1.31c.09.11.17.2.23.25l.22.13c.05.03.11.04.2.06l.19.02v.2zm-1.58-2.98a.76.76 0 0 0 -.22-.58.86.86 0 0 0 -.62-.21h-.55v1.72h.4c.27 0 .54-.09.72-.25.18-.17.27-.4.27-.68z" fill="#0069aa"/><path d="m8.68 8.03a1.15 1.15 0 0 1 -.49.99c-.15.1-.32.19-.5.24s-.37.07-.58.07h-.6v1.1c0 .07.01.13.03.19.03.05.07.09.15.11a2.52 2.52 0 0 0 .44.06v.21h-1.88v-.2a8.55 8.55 0 0 0 .4-.07c.05-.02.1-.06.12-.1a.38.38 0 0 0 .05-.2v-2.83a.54.54 0 0 0 -.03-.18c-.02-.06-.07-.1-.14-.13a2.3 2.3 0 0 0 -.42-.08v-.21h2.11c.4 0 .71.1.96.28.25.19.37.43.37.75zm-.9.7c.06-.09.1-.19.13-.29a1.3 1.3 0 0 0 -.01-.6.77.77 0 0 0 -.14-.31.7.7 0 0 0 -.28-.21 1.04 1.04 0 0 0 -.42-.08h-.55v1.84h.43c.22 0 .4-.04.53-.1a.77.77 0 0 0 .3-.25z" fill="#10bdc9"/></svg>