<!-- by TradingView --><svg xmlns="http://www.w3.org/2000/svg" width="18" height="18"><path fill="url(#aemh2vddv)" d="M0 0h18v18H0z"/><path opacity=".8" d="M8.72 3h.58v2c.66.05 1.27.26 1.8.59l.44-.6.47.34-.44.6a4 4 0 011.39 2.48H14V9h-1c0 .75-.2 1.45-.57 2.05l.57.44-.35.46-.55-.42c-.3.37-.68.7-1.1.93v1.24h-.57l-.01-.96c-.35.13-.73.22-1.12.25V15h-.58v-2.01a3.98 3.98 0 01-1.12-.24v.95h-.57v-1.22a4.02 4.02 0 01-1.13-.95l-.55.42-.35-.46.57-.44C5.2 10.45 5 9.75 5 9H4v-.58h1.04a4 4 0 011.4-2.5L6 5.35 6.47 5l.44.59a3.98 3.98 0 011.8-.58V3zm0 3.62a2.4 2.4 0 000 4.76V10h.58v1.38a2.4 2.4 0 000-4.76v1.4h-.58v-1.4z" fill="#A0D035"/><defs><linearGradient id="aemh2vddv" x1="3.35" y1="3.12" x2="21.9" y2="24.43" gradientUnits="userSpaceOnUse"><stop stop-color="#1A1E21"/><stop offset="1" stop-color="#06060A"/></linearGradient></defs></svg>