<svg height="18" width="18" xmlns="http://www.w3.org/2000/svg"><path d="m0 0h18v18h-18z" fill="#ab131b"/><path d="m14.56 7.084c-.848-.671-2.801-1.354-3.628-1.445l-.622-.068c-.664-.074-1.03-.114-1.31-.114s-1.932.184-1.932.184c-.827.09-2.78.773-3.628 1.445-.397.314-.44.537-.44 1.28v2.89c0 .155.013.378.13.548.134.196.309.196.51.196h10.72c.202 0 .376 0 .51-.196.117-.17.13-.393.13-.547v-2.893c0-.742-.043-.964-.44-1.28z" fill="#077954"/><path d="m13.999 10.677c0 .07-.008.17-.078.238-.082.081-.196.081-.355.08h-9.133c-.16 0-.274 0-.355-.08-.07-.069-.078-.169-.078-.238v-2.095c0-.415.038-.493.317-.643 2.443-1.317 6.922-1.317 9.366 0 .279.15.317.228.317.643v2.095z" fill="#fff"/><path d="m10.787 6.797-.019-.018c-.07-.091-.977-.237-1.747-.223-.77-.014-1.733.154-1.784.251l-.009.012-.005-.031-.223-1.37a.065.065 0 0 1 .01-.03c.077-.131.935-.388 1.99-.388.46.003.94.067 1.391.176.333.08.572.165.612.235a.072.072 0 0 1 .003.04c-.012.067-.197 1.206-.199 1.22z" fill="#077954"/><path d="m5 9.005h8v1h-8z" fill="#df2a27"/></svg>