<svg height="18" viewBox="0 0 18 18" width="18" xmlns="http://www.w3.org/2000/svg"><path d="m0 0h18v18h-18z" fill="#f0f3fa"/><path d="m7.44 3.87c-.6.48-.6 1.07-.6 1.4l3.1 2.67 1.75-1.38c-.33-2.5-1.76-3.1-2.36-3.1v-.46h-.66v.47c-.24 0-.78.05-1.23.4z" fill="#aeeb17"/><path d="m9.75 8.28-3.09-2.63c-.15 1.34-.09.87-1.2 2.84-.87 1.58-.31 2.91.08 3.38l4.21-3.6z" fill="#fdd21a"/><path d="m8.43 10 3.38-3.08c2.12 2.83.93 5.3.08 6.18z" fill="#fc6109"/><path d="m5.76 12.23 2.31-1.96 3.7 3.1c-.2.54-1.03 1.62-2.75 1.63-1.71.01-2.89-1.85-3.26-2.77z" fill="#fc1512"/></svg>