<svg fill="none" height="18" width="18" xmlns="http://www.w3.org/2000/svg"><path d="m0 0h18v18h-18z" fill="#4a317a"/><path clip-rule="evenodd" d="m8.734 4.547c-.172.115-.14.308-.103.39.066.164.242.199.315.174l.12-.05c.177-.074.436-.182.605-.268a1.18 1.18 0 0 1 .48-.134c.197-.008.56.07.575.565.012.372-.428.548-.792.694a2.854 2.854 0 0 0 -.32.142c-.853.483-1.094 1.125-1.125 1.578-.446-.478-1.082-.638-1.462-.638h-.984c-1.675.053-2.043 1.159-2.043 1.674v4.993c.017.11.168.333.5.333s.487-.222.5-.333v-4.69c.018-.72.573-.97.887-.977h.879c.43 0 1.234 0 1.234.976 0 1.07-.77 1.043-1.195 1.024h-1.12c-.164-.002-.391.18-.4.49-.01.31.18.504.328.51h1.444c.667-.016 1.989-.473 1.942-2.024a2.139 2.139 0 0 0 -.249-.976h2.822c.144.233.355.427.61.56-.697.28-1.183.91-1.183 1.64 0 .993.895 1.797 2 1.797s2-.804 2-1.796c0-.731-.486-1.36-1.184-1.64.49-.257.82-.737.82-1.287 0-.82-.732-1.484-1.636-1.484s-1.636.665-1.636 1.484v.049h-1.993c.133-.635.581-.75.897-.813.2-.04.595-.305.873-.586.287-.29.451-1.064-.162-1.599a1.31 1.31 0 0 0 -1.307-.248c-.24.11-.766.356-.937.47zm4.266 3.713c.552 0 1-.426 1-.952 0-.525-.448-.951-1-.951s-1 .426-1 .951c0 .526.448.952 1 .952zm.005 3.024c.635 0 1.15-.482 1.15-1.077s-.514-1.078-1.15-1.078c-.635 0-1.15.483-1.15 1.078s.515 1.077 1.15 1.077z" fill="#fff" fill-rule="evenodd"/></svg>