<svg height="18" viewBox="0 0 18 18" width="18" xmlns="http://www.w3.org/2000/svg"><path d="m0 0h18v18h-18z" fill="#f0f3fa"/><path d="m3.4 13h7.58c.14 0 .26-.09.34-.24l1.68-3.31-.76-.5 1.2-.45 1.52-3.07c.1-.18 0-.43-.16-.43h-8.21c-.07 0-.13.05-.17.13l-3.35 7.02c-.18.37.02.85.34.85zm3.15-5.58-1.7 3.58h1.7l1.38-2.98c.1-.3.54-.92 1.43-.92 1.12 0 1.5.7 1.5 1.35 0 .64-.66 1.3-1.42 1.3-.61 0-1.05-.34-1.19-.5l-.5.83c.07.22.47.67 1.52.67 1.32 0 2.58-.78 2.89-1.97.3-1.18-.34-2.78-2.63-2.78-1.83 0-2.75.95-2.98 1.42zm3.83.83c0 .41-.4.75-.92.75-.5 0-.92-.34-.92-.75s.41-.75.92-.75.92.34.92.75z" fill="#023f73" fill-rule="evenodd"/></svg>