<svg height="18" viewBox="0 0 18 18" width="18" xmlns="http://www.w3.org/2000/svg" xmlns:xlink="http://www.w3.org/1999/xlink"><linearGradient id="a" gradientUnits="userSpaceOnUse" x1="13.86" x2="9.26" y1="6.58" y2="12.83"><stop offset=".19" stop-color="#01539f"/><stop offset=".4" stop-color="#fdfeff"/><stop offset=".63" stop-color="#01539f"/></linearGradient><path d="m0 0h18v18h-18z" fill="#f0f3fa"/><path d="m8.53 6.86a2753 2753 0 0 1 -5.53-.86h13l-3.58 1.12a4.91 4.91 0 0 1 -1.03 1.57l.9.1.5.56v.19h-.79l-1.79.85-.75 1.44-.8.81.27.36h-1.46l.59-.36-.86-.43.78-.1-1-.53.92-.08-1.26-.48 1.17-.2-1.86-.67 1.86-.27-2.56-.66 2.65-.2-3.34-.74 3.7-.3-4.55-.86z" fill="url(#a)"/></svg>