<svg height="18" width="18" xmlns="http://www.w3.org/2000/svg" xmlns:xlink="http://www.w3.org/1999/xlink"><linearGradient id="a" gradientUnits="userSpaceOnUse" x1="3.35" x2="21.9" y1="3.12" y2="24.43"><stop offset="0" stop-color="#1a1e21"/><stop offset="1" stop-color="#06060a"/></linearGradient><linearGradient id="b" gradientUnits="userSpaceOnUse" x1="10.72" x2="6.85" y1="11.62" y2="3.28"><stop offset=".22" stop-color="#00aee6"/><stop offset=".38" stop-color="#00a9e6"/><stop offset=".55" stop-color="#009de6"/><stop offset=".71" stop-color="#0089e6"/><stop offset=".87" stop-color="#016de6"/><stop offset="1" stop-color="#0251e6"/></linearGradient><path d="m0 0h18v18h-18z" fill="url(#a)"/><path d="m5 15 3-2.31v-1.69h-3z" fill="#50bf34"/><path d="m13.3 4.9c-.47-.59-1.2-.9-2.15-.9h-6.15l2.88 2.5h2.34c.58 0 .78.29.78.82v.34c0 .54-.2.84-.78.84h-2.34l-2.88 2.5h6.15c.96 0 1.68-.32 2.16-.92.48-.57.69-1.36.69-2.42v-.34c0-1.05-.21-1.87-.7-2.41z" fill="url(#b)"/><path d="m8 11.58v-.58h-3z" fill="#087538"/></svg>