<svg height="18" viewBox="0 0 18 18" width="18" xmlns="http://www.w3.org/2000/svg"><path d="m0 0h18v18h-18z" fill="#f0f3fa"/><path d="m9 3.83 4.38 2.55v5.24l-4.38 2.62-4.38-2.62v-5.24zm0-.83-.38.22-4.24 2.55-.38.23v6l.38.23 4.24 2.54.38.23.38-.23 4.24-2.55.38-.22v-6l-.38-.23-4.25-2.55z" fill="#008d84"/><path d="m13 6.63v4.76l-4 2.34-4-2.34v-4.76l4-2.23 4 2.24zm-3.4.98a.9.9 0 0 1 .5-.13c.6 0 1.1.51 1.09 1.17 0 .7-.52 1.2-1.17 1.2-.17 0-.31-.02-.43-.07l-.14-.06a.3.3 0 0 0 -.1-.02c-.07 0-.13.05-.2.14-.21.37-.61.53-1.04.53-.25 0-.4-.06-.65-.25v.45c0 .32 0 .6.38.7l-.02.06h-1.18l.02-.09c.35-.05.35-.29.34-.58v-1.96c0-.33-.05-.52-.37-.56l.01-.08.78-.11v.01c.03.09.03.17.03.24v.02c.26-.17.52-.23.82-.23.27 0 .54.1.73.27v-1.46c0-.32-.1-.52-.42-.56l.02-.08.82-.11v1.73a.89.89 0 0 1 .18-.17zm.88 1.85a1.62 1.62 0 0 0 .14-1.24c-.05-.14-.11-.27-.2-.37a.67.67 0 0 0 -.21-.2.49.49 0 0 0 -.24-.06c-.1 0-.19.03-.27.1a.53.53 0 0 0 -.19.23c-.06.14-.1.38-.1.71a3.93 3.93 0 0 0 .12.86.46.46 0 0 0 .43.27c.21 0 .38-.1.52-.3zm-3.02-.26c0 .4.02 1.06.57 1.06.57 0 .83-.58.83-1.08s-.24-1.07-.8-1.07c-.58 0-.6.68-.6 1.1z" fill="#0e406a" fill-rule="evenodd"/></svg>