<svg height="18" width="18" xmlns="http://www.w3.org/2000/svg"><path d="m0 0h18v18h-18z" fill="#003865"/><g fill="#fff"><path d="m6.842 7.035c-.85.077-1.95.453-2.565.723-1.095.558-1.84 1.198-2.277 1.651.278-.007.57 0 .876.027 1.036.091 1.859.333 2.505.627.56-.528 1.474-1.426 2.65-1.77 2.038-.595 3.379.386 3.379.386s-1.044-1.962-4.568-1.644z"/><path d="m11.27 10.98c.83-.075 1.905-.442 2.506-.705 1.07-.546 1.796-1.171 2.224-1.614a7.291 7.291 0 0 1 -.855-.026c-1.012-.09-1.816-.325-2.448-.613-.547.516-1.44 1.394-2.589 1.729-1.991.582-3.3-.376-3.3-.376s1.02 1.917 4.463 1.605z"/></g></svg>