<svg height="18" viewBox="0 0 18 18" width="18" xmlns="http://www.w3.org/2000/svg"><path d="m0 0h18v18h-18z" fill="#f0f3fa"/><path d="m6.44 7.97c.63 0 1.15-.5 1.15-1.12s-.52-1.12-1.15-1.12a1.13 1.13 0 0 0 -1.12 1.37c-.14.57-.63.77-.98.81h-.16c-.65-.01-1.18.49-1.18 1.09 0 .63.53 1.13 1.18 1.13.1 0 .19-.01.28-.03.5.12.76.54.86.82a1.13 1.13 0 0 0 1.12 1.34c.63 0 1.15-.5 1.15-1.12s-.52-1.12-1.15-1.12c-.12 0-.24.02-.35.06-.44-.14-.67-.54-.76-.83a1.06 1.06 0 0 0 0-.48c.19-.48.57-.74.85-.84.09.02.17.03.26.03z" fill="#001f62"/><path d="m7.94 4.62a1.13 1.13 0 0 0 1.4 1.09c.29.1.67.35.86.84a1.06 1.06 0 0 0 0 .48c-.1.28-.32.68-.76.82a1.17 1.17 0 0 0 -.35-.05 1.13 1.13 0 0 0 -1.15 1.2v.09a1.13 1.13 0 0 0 1.4 1.09c.29.1.67.35.86.84a1.07 1.07 0 0 0 0 .48c-.1.28-.32.68-.76.82a1.17 1.17 0 0 0 -.35-.05c-.64 0-1.15.5-1.15 1.11 0 .62.51 1.12 1.15 1.12a1.13 1.13 0 0 0 1.12-1.34c.1-.28.36-.7.86-.82.1.02.18.03.28.03.65 0 1.18-.5 1.18-1.12a1.15 1.15 0 0 0 -1.35-1.1c-.34-.05-.83-.25-.97-.81a1.1 1.1 0 0 0 .02-.34 1.12 1.12 0 0 0 -.02-.3c.1-.29.36-.7.86-.83.1.02.18.03.28.03.65 0 1.18-.5 1.18-1.12a1.15 1.15 0 0 0 -1.35-1.1c-.34-.05-.83-.25-.97-.81a1.13 1.13 0 0 0 -1.12-1.37c-.64 0-1.15.5-1.15 1.12z" fill="#04abd6"/><ellipse cx="13.76" cy="9" fill="#75d857" rx="1.24" ry="1.2"/></svg>