<svg height="18" width="18" xmlns="http://www.w3.org/2000/svg"><path d="m0 0h18v18h-18z" fill="#f0f3fa"/><path d="m3.232 10.704.491-2.68h2.853c.472 0 .945.164.756.9-.151.59-.819.775-1.134.775h-1.663l-.17 1.005h-1.132z" fill="#1b5ea8"/><path d="m10.317 8.024h-3.06c.725.696.063 1.386-.36 1.657l-.17 1.023h2.91c.87-.094.979-.658 1.02-.948.04-.283-.176-.397-.302-.453-.038-.02-.009-.129.038-.133a.703.703 0 0 0 .567-.617c.043-.476-.36-.529-.643-.529z" fill="#1b5ea8"/><path d="m4.667 9.03.095-.503h1.505c.1 0 .214.038.233.132a.333.333 0 0 1 -.283.37h-1.55zm3.308 1.004.095-.467h1.284c.07 0 .208.03.208.151a.317.317 0 0 1 -.283.316zm.189-1.004.094-.483h1.285c.07 0 .208.03.208.151 0 .212-.19.331-.284.331h-1.303z" fill="#f0f3fa"/><path d="m10.62 9.265c.737-.397.541-1.052.32-1.24.958-.013 2.886 0 2.967 0 .095 0 .303.106.246.314-.09.332-.36.355-.51.355h-1.663c-.075 0-.189.038-.227.113-.085.17-.037.325.076.325h1.795c.132 0 .321.095.321.246-.019.34-.302.453-.491.453h-1.834l-.242.873h-1.171c.755-.514.668-1.173.412-1.44z" fill="#1b5ea8"/><path d="m13.404 3.527c.03.01.06.02.087.031l-.087-.031c-1.379-.472-5.065-.712-8.226 1.94-4.1 3.438-2.683 7.217-1.152 8.332-1.077-.718-2.4-2.117-1.927-4.686.575-3.128 4.08-5.155 5.554-5.612.662-.205 1.984-.566 3.382-.49.84 0 2.038.4 2.369.516zm-8.808 10.618c1.379.472 5.065.712 8.226-1.94 4.1-3.438 2.683-7.217 1.152-8.332 1.077.718 2.4 2.116 1.928 4.686-.576 3.128-4.082 5.155-5.555 5.611-.662.206-1.984.567-3.382.492-.84 0-2.038-.4-2.369-.517z" fill="#c72f41"/></svg>