<svg height="18" width="18" xmlns="http://www.w3.org/2000/svg"><path d="m0 0h18v18h-18z" fill="#a9431e"/><path d="m9 14c-1.215 0-1.987-1.026-2-2.02.006-1.678 1.348-3.28 2-4.98.538 1.688 1.825 3.246 2 4.98 0 1.05-.785 2.02-2 2.02z"/><path d="m4.722 6.373c1.217-1.919 3.152-2.36 3.958-2.373l-1.731 4.248c-.244.594-.683 1.534-.763 3.02-.08 1.485.904 2.44 1.406 2.732-2.15-.882-2.87-2.13-3.164-2.733-.415-.852-.822-3.134.294-4.894zm8.544 0c-1.302-1.975-3.152-2.36-3.959-2.373l1.732 4.248c.245.594.683 1.534.763 3.02.08 1.485-.904 2.44-1.406 2.732 2.15-.882 2.87-2.13 3.164-2.733.415-.852.853-3.154-.294-4.894z" fill="#fff"/></svg>