<svg height="18" viewBox="0 0 18 18" width="18" xmlns="http://www.w3.org/2000/svg"><path d="m0 0h18v18h-18z" fill="#f0f3fa"/><path d="m8.05 3.13 5.3 9.87h-10.35z" fill="#bbb"/><path d="m8 3.23v6.38l-2.46-1.58z" fill="#eaeaea"/><path d="m8 3.23v6.38l2.56-1.82-2.5-4.66z" fill="#d7d7d7"/><path d="m11.08 3-6.31 11 3.33-.99.6-5.38c1.2-.29 3.93-1.8 3.98.28.04 1.67-1.9 2.52-2.88 2.74l-.2 1.97 5.4-1.61z" fill="#9d2318"/><path d="m12.65 11.71-1.02-1.9c-.6.46-1.34.73-1.83.84l-.2 1.97 3.05-.9zm-2.45-4.58-.7-1.35-4.16 7.22h2.76l.6-5.37c.25-.06.56-.17.89-.29z" fill="#791b13"/></svg>