<svg fill="none" height="18" width="18" xmlns="http://www.w3.org/2000/svg"><path d="m0 0h18v18h-18z" fill="#f0f3fa"/><g clip-rule="evenodd" fill-rule="evenodd"><path d="m8.01 6c1.675 0 2.44-.62 3.29-.626.294-.001.733.07 1.04.267.183.118.436.363.66.644v-1.435c-.437-.583-1.286-.842-1.828-.851-2.212.001-2.552 1.641-7.172.851 0 0 1.777 1.15 4.01 1.15z" fill="#005899"/><path d="m11.864 6.702c.904-.022 1.136-.429 1.136-.429-.211-.328-.469-.58-.9-.64-.795-.109-1.676.667-2.1.554 0 0 .879.54 1.864.515z" fill="#00a85d"/><path d="m8.4 11.677v2.323h-1.403v-7h2.59c1.371 0 2.413.816 2.413 2.328 0 1.499-1.043 2.35-2.412 2.35h-1.188zm-.002-3.277h1.102c.694 0 1.048.372 1.046 1.006 0 .612-.35.994-1.046.994h-1.1z" fill="#385660"/></g></svg>