<svg height="18" viewBox="0 0 18 18" width="18" xmlns="http://www.w3.org/2000/svg" xmlns:xlink="http://www.w3.org/1999/xlink"><linearGradient id="a"><stop offset="0" stop-color="#fff"/><stop offset="1" stop-color="#009d56"/></linearGradient><linearGradient id="b" gradientUnits="userSpaceOnUse" x1="-.25" x2="12.89" xlink:href="#a" y1="12.54" y2="12.54"/><linearGradient id="c" gradientUnits="userSpaceOnUse" x1="-.21" x2="12.94" xlink:href="#a" y1="12.55" y2="12.55"/><linearGradient id="d" gradientUnits="userSpaceOnUse" x1="-.23" x2="12.91" xlink:href="#a" y1="11.72" y2="11.72"/><linearGradient id="e" gradientUnits="userSpaceOnUse" x1="-.18" x2="12.96" xlink:href="#a" y1="11.72" y2="11.72"/><path d="m0 0h18v18h-18z" fill="#f0f3fa"/><path d="m14.08 11.53s-1.64.89-3.31.2c-1.61-.67-2.73-.21-2.73-.21s1.6-.87 3.25-.23c1.6.68 2.8.24 2.8.24z" fill="url(#b)"/><path d="m8.04 11.54s-1.65.89-3.31.2c-1.61-.67-2.73-.21-2.73-.21s1.6-.87 3.25-.23c1.6.67 2.8.24 2.8.24z" fill="url(#c)"/><path d="m16 10.7s-1.65.9-3.31.21c-1.61-.67-2.73-.21-2.73-.21s1.6-.87 3.25-.23c1.6.68 2.79.23 2.79.23z" fill="url(#d)"/><path d="m9.96 10.7s-1.65.9-3.31.21c-1.61-.67-2.73-.21-2.73-.21s1.6-.87 3.25-.23c1.6.67 2.79.23 2.79.23z" fill="url(#e)"/><path d="m14.99 7.1-.06.43a1.33 1.33 0 0 1 -.38.8c-.07.07-.15.12-.23.17.3.16.45.5.39.96l-.05.45c-.09.65-.53 1.09-1.1 1.09h-2.38l.52-4.17-1.46 4.17h-.85l-.35-3.45-1.21 3.45h-.85l-.32-3.22v-.03l-.05.38c-.08.65-.53 1.08-1.1 1.08h-1.54l-.22 1.79h-.75l.62-5h2.29c.24 0 .44.08.59.22l-.02-.22h.77l.33 3.82 1.3-3.82h.73l.34 3.82 1.3-3.82h2.9c.59 0 .92.43.84 1.1zm-9.3-.39h-1.4l-.24 1.79h1.4c.22 0 .37-.16.4-.41l.12-.96c.03-.25-.08-.42-.3-.42zm8 2.15h-1.5l-.17 1.43h1.5c.21 0 .36-.18.4-.43l.07-.6c.03-.25-.09-.4-.3-.4zm.55-1.73c.03-.25-.08-.42-.3-.42h-1.48l-.18 1.43h1.48c.22 0 .37-.16.4-.41z" fill="#231f20"/></svg>