<svg height="18" viewBox="0 0 18 18" width="18" xmlns="http://www.w3.org/2000/svg"><path d="m0 0h18v18h-18z" fill="#f0f3fa"/><path d="m9 6.32v3.47c0 .74.37 2.21 1.8 2.21.6 0 1.07-.12 1.23-.18.16.06.62.18 1.16.18.69 0 1.81-.4 1.81-2.2v-3.49c0-.18-.1-.32-.24-.32h-.92c-.13 0-.24.14-.24.32v3.88c0 .2-.07.6-.4.6h-.22c-.17 0-.3-.17-.3-.39v-4.1c0-.17-.11-.31-.24-.31h-.88c-.13 0-.24.14-.24.32v3.94c0 .3-.2.55-.43.55h-.2c-.17 0-.3-.18-.3-.4v-4.1c0-.17-.11-.31-.24-.31h-.9c-.15.01-.25.15-.25.33zm-6 5.45v-5.47c0-.11.08-.21.18-.22 3.82-.34 4.82.45 4.82 2.05 0 1.62-1.06 2.22-2.2 2.22-.93 0-1.3-.05-1.33-.07v1.5c0 .12-.03.22-.13.22h-1.15c-.1 0-.19-.1-.19-.23zm1.47-2.5v-2.01c.67-.12 2.02-.08 2.02.98 0 1.07-1.35 1.14-2.02 1.05z" fill="#c20813" fill-rule="evenodd"/></svg>