<svg height="18" viewBox="0 0 18 18" width="18" xmlns="http://www.w3.org/2000/svg"><path d="m0 0h18v18h-18z" fill="#f0f3fa"/><path d="m8.47 3.62a.8.8 0 0 1 -.13-.1c-.13-.13-.1-.2.1-.18.2 0 .31-.08.34-.26 0-.05.03-.08.09-.08h.05c.03.02.05.05.06.08.02.19.14.28.36.26.21-.01.24.04.07.17l-.15.12c-.06.04-.07.09-.04.14s.05.1.05.16c.02.17-.04.2-.18.08-.13-.12-.27-.13-.4-.03-.15.12-.22.08-.19-.1l.03-.14c0-.05-.02-.1-.06-.12z" fill="#e70012"/><path d="m8.5 10.1-2.5.43-1.96.07h-.03v-.03l-.01-.04a10.4 10.4 0 0 0 4.25-1.23 7.42 7.42 0 0 0 2.6-2.13c.84-1.1.94-2.52-.29-3.42a5.3 5.3 0 0 0 -.49-.33c-.22-.12-.2-.16.05-.1 1.6.42 4.58 1.42 3.73 3.47-.71 1.71-3.48 2.86-5.35 3.3z" fill="#e70012"/><path d="m8.25 9.3c-.7.4-1.43.69-2.2.88a20.76 20.76 0 0 1 2-6.17.06.06 0 0 1 .04 0c.03.02.03.04.03.06-.28 1.3-.31 2.6-.1 3.93.07.43.14.86.23 1.3zm.25.8c.42 1.35 1.02 2.61 1.8 3.78.03.06.02.12-.06.12h-3.98c-.02 0-.04-.05-.06-.06a11.2 11.2 0 0 1 -.2-3.41l2.5-.42z" fill="#0d3982"/></svg>