<svg height="18" viewBox="0 0 18 18" width="18" xmlns="http://www.w3.org/2000/svg"><path d="m0 0h18v18h-18z" fill="#3e4f47"/><g fill="#ddceac"><path d="m9 15a6 6 0 1 0 0-12 6 6 0 0 0 0 12zm0-.35a5.65 5.65 0 1 0 0-11.3 5.65 5.65 0 0 0 0 11.3z" fill-rule="evenodd"/><path d="m7.1 6h-1.1l-1 4h1.23l.75-3h1.2c.2 0 .47.04.47.33 0 .3-.3.3-.5.3l-.08.01h-.46c-.43.03-.6.55-.61.82h.95c.6 0 1.76-.39 1.76-1.39 0-.8-.77-1.05-1.15-1.07z"/><path d="m8 12 .65-3.25c.8-.17 1.41-.87 1.5-1.75h1.6c.42.03 1.25.34 1.25 1.34 0 1.04-.87 1.5-1.54 1.62l.83 2.04h-.66c-.42 0-.8-.27-.98-.69l-.5-1.31h-.15c.01-.34.16-.96.63-1h.5c.2-.01.62-.16.62-.6 0-.35-.3-.4-.5-.4h-1.22l-.8 4z"/></g></svg>