<svg height="18" width="18" xmlns="http://www.w3.org/2000/svg"><path d="m0 9a9 9 0 1 1 18 0 9 9 0 0 1 -18 0z" fill="#f0f3fa"/><circle cx="9" cy="9" fill="#e8a713" r="6"/><path d="m9 14a5 5 0 1 0 0-10 5 5 0 0 0 0 10zm-.87-8c.09.07.15.24.15.38 0 .2.03.23.15.18 1.2-.4 2.35-.18 3 1.09.15.29.28.35.36.35.11 0 .14 0 0 .08l-.05.02c-.1.04-.18.07-.18.27 0 .1-.07.23-.15.28l-.04.01c-.05.02-.1.05-.14.11-.02.05-.02.12-.02.19l-.01.13c-.03.22-.1.39-.18.42-.1.04-.12.13-.08.5.06.42.05.44-.11.44h-.25c-.04.03-.04.06-.03.1 0 .03.02.06-.01.1-.02.04-.04.04-.06.05a.11.11 0 0 0 -.07.04l-.02.05c-.03.04-.05.07-.14.07 0 .33-.19.48-.49.3-.33-.21-.39-.13-.46.25-.04.22 0 .38.17.73.26.51.32.83-.04.24-.3-.49-1.55-1.08-2.1-1l-.28.05.26-.32c.2-.24.27-.43.3-.74.02-.22.02-.4 0-.4-.03 0-.19.07-.35.17s-.31.15-.34.13c-.02-.03.04-.19.13-.36.15-.28.16-.4.12-1.05-.04-.58-.01-.9.15-1.23.1-.2.24-.36.37-.53l.06-.08c.07-.09.11-.15.07-.2-.03-.03-.24.09-.47.25-.2.15-.39.24-.6.29-.57.09-1.22.1-1.75-.15l-.1-.06a.138.138 0 0 1 -.06-.11c0-.13 2.56-1.17 2.86-1.17.16 0 .35.05.43.13z" fill="#8a1d04"/></svg>