<svg height="18" viewBox="0 0 18 18" width="18" xmlns="http://www.w3.org/2000/svg"><path d="m0 0h18v18h-18z" fill="#f0f3fa"/><path d="m9.31 2.24c0 2.69 4.69 5.11 4.69 8.6 0 2.27-1.89 4-4.57 4.16h-.86c-2.6-.19-4.57-1.9-4.57-4.16 0-3.49 4.72-5.91 4.72-8.6.04-.3.6-.34.6 0z" fill="#8e744a"/><path d="m7.39 7h1.66c.34 0 .73 0 1.08.04.73.07 1.38.56 1.7 1.2.3.64.19 1.62-.2 2.15-.7 1-1.86 1.16-3 1.16-.28 1.32-.55 2.45-.55 2.45h-2.04l1.2-5h1.88l-.27 1.27c.54 0 .93-.41.97-.94 0-.26 0-.64-.27-.79a4.6 4.6 0 0 0 -1.25-.14h-.9c-.46 0-.73-.12-.97-.5-.15-.26-.34-.56-.42-.9h1.39z" fill="#f0f3fa"/></svg>