<svg height="18" viewBox="0 0 18 18" width="18" xmlns="http://www.w3.org/2000/svg" xmlns:xlink="http://www.w3.org/1999/xlink"><linearGradient id="a" gradientUnits="userSpaceOnUse" x1="3.35" x2="21.9" y1="3.12" y2="24.43"><stop offset="0" stop-color="#1a1e21"/><stop offset="1" stop-color="#06060a"/></linearGradient><linearGradient id="b"><stop offset="0" stop-color="#6d2672"/><stop offset=".55" stop-color="#af45a6"/><stop offset="1" stop-color="#f264da"/></linearGradient><linearGradient id="c" gradientUnits="userSpaceOnUse" x1="3.99" x2="8.34" xlink:href="#b" y1="9" y2="9"/><linearGradient id="d" gradientUnits="userSpaceOnUse" x1="14" x2="9.67" y1="9" y2="9"><stop offset="0" stop-color="#f264da"/><stop offset=".55" stop-color="#af45a6"/><stop offset="1" stop-color="#6d2672"/></linearGradient><linearGradient id="e" gradientUnits="userSpaceOnUse" x1="7.33" x2="10.66" xlink:href="#b" y1="5.3" y2="5.3"/><linearGradient id="f" gradientUnits="userSpaceOnUse" x1="7.33" x2="10.66" xlink:href="#b" y1="12.71" y2="12.71"/><path d="m0 0h18v18h-18z" fill="url(#a)"/><path d="m4 12.53h2.23l2.1-3.53-2.1-3.53h-2.23l2.12 3.54z" fill="url(#c)"/><path d="m14 12.53h-2.22l-2.11-3.53 2.11-3.53h2.22l-2.13 3.54z" fill="url(#d)"/><path d="m10.67 3v2.47l-.84 1.24-.83 1.23-1.67-2.47v-2.47l1.67 2.25z" fill="url(#e)"/><path d="m10.67 15v-2.47l-1.67-2.47-1.67 2.47v2.47l1.67-2.24z" fill="url(#f)"/></svg>