<svg height="18" viewBox="0 0 18 18" width="18" xmlns="http://www.w3.org/2000/svg"><path d="m0 0h18v18h-18z" fill="#588e22"/><path d="m3 7h1l-.1.45c.3-.26.51-.45.92-.45.85 0 1.18.79 1.18 1.53 0 .97-.58 2.2-1.7 2.2-.44 0-.7-.2-.93-.58l-.37 1.85h-1zm.53 2.12c0 .4.2.88.65.88.67 0 .82-.95.82-1.49 0-.4-.09-.84-.54-.84-.66 0-.93.9-.93 1.45zm2.64.88h.83l-.17 1h-.83zm4.85 1h-1.02l.08-.47c-.3.3-.5.47-.9.47-.74 0-1.18-.65-1.18-1.5 0-1.1.7-2.5 1.71-2.5.46 0 .74.19.97.57l.34-1.57h.98zm-2.02-1.77c0 .44.14 1.03.53 1.03.62 0 .9-.82.9-1.45 0-.43-.19-1.08-.58-1.08-.62 0-.85.89-.85 1.5zm6.92.09h-2.92v.1c0 .46.42.85.9.85.37 0 .67-.18.88-.54l1.01.15a2.1 2.1 0 0 1 -1.89 1.12c-1.04 0-1.9-.7-1.9-1.78 0-1.3 1.05-2.22 2.33-2.22.97 0 1.67.66 1.67 1.65 0 .25-.03.47-.08.67zm-.92-.63c0-.48-.3-.95-.8-.95-.54 0-.98.45-1.09.95z" fill="#fff"/></svg>