<svg height="18" viewBox="0 0 18 18" width="18" xmlns="http://www.w3.org/2000/svg"><path d="m0 0h18v18h-18z" fill="#f0f3fa"/><path d="m4.82 9.29c.84-.4 2.31-.52 4.18-.29l.53-1.94c-2.7-.35-4.67.04-5 1.27l-.01.05c-.06.29.05.6.3.9z" fill="#3d96f7"/><path d="m13.18 8.71c-.85.4-2.31.52-4.18.29l-.53 1.94c2.7.35 4.67-.04 5-1.27l.01-.05c.06-.29-.05-.6-.3-.9z" fill="#0000c9"/><path d="m6.33 4-.53 1.94c3.16.23 6.37 1.52 7.38 2.77.39-.18.64-.42.74-.72l-.44 1.63v.05l.35-1.31c.12-.42.17-.63.17-.8 0-1.5-3.93-3.33-7.67-3.56z" fill="#3d96f7"/><path d="m13.18 8.71c.25.31.36.62.3.91l.44-1.62c-.1.3-.36.54-.74.72z" fill="#3d96f7"/><g fill="#0000c9"><path d="m4.82 9.29c-.39.18-.64.42-.75.72-.05.2-.07.32-.07.43 0 1.5 3.93 3.33 7.67 3.56l.53-1.94c-3.16-.23-6.37-1.52-7.38-2.77z"/><path d="m4.82 9.29c-.25-.31-.36-.62-.3-.91l-.44 1.61v.02c.1-.3.35-.54.74-.72z"/></g></svg>