<svg height="18" viewBox="0 0 18 18" width="18" xmlns="http://www.w3.org/2000/svg"><path d="m0 0h18v18h-18z" fill="#f0f3fa"/><path d="m6.5 10.18v-5.16c0-.4-.1-.68-.53-.76a6.04 6.04 0 0 0 -.72 0c-.17 0-.25 0-.25-.13 0-.12.1-.12.32-.12h4.59c1.67-.13 3.59 1.01 3.59 2.9 0 1.33-.96 2.37-2.23 2.82-.53.18-1.17.27-1.74.27-.13 0-.19 0-.19-.11 0-.12.14-.16.42-.16 1.24-.08 1.74-1.36 1.74-2.51 0-1.33-.88-2.62-2.24-2.6a1.93 1.93 0 0 0 -.55 0c-.1 0-.21.1-.21.25v5.32c0 1.51 0 2.31.07 2.86.07.38.32.67.64.72h.55c.15 0 .24 0 .24.1s-.1.13-.28.13h-4.39c-.2 0-.33 0-.33-.13 0-.14.14-.1.36-.13h.42c.22 0 .66-.28.72-.73z"/></svg>