<!-- by TradingView --><svg width="18" height="18" viewBox="0 0 18 18" xmlns="http://www.w3.org/2000/svg"><path fill="#321E37" d="M0 0h18v18H0z"/><path d="M13 5H4.5c0 .75.6 1.42 1.35 1.42h5.5l.74-.47-.5.65v5.75c0 .7.7 1.15 1.41 1.15V5Zm-2.83 2.83H4.5c0 .74.6 1.42 1.33 1.42H8.5l.78-.48-.52.68v2.8c0 .69.72 1.25 1.42 1.25V7.83ZM4.5 10.66h2.83v2.83c-.64 0-1.41-.54-1.41-1.2v-.13l.58-.6-.7.52h-.07c-.68 0-1.23-.71-1.23-1.42Z" fill="url(#ajwhnzovc)"/><defs><linearGradient id="ajwhnzovc" x1="5.05" y1="12.48" x2="12.09" y2="6.77" gradientUnits="userSpaceOnUse"><stop stop-color="#F28C9B"/><stop offset="1" stop-color="#EC4459"/></linearGradient></defs></svg>