<svg height="18" viewBox="0 0 18 18" width="18" xmlns="http://www.w3.org/2000/svg" xmlns:xlink="http://www.w3.org/1999/xlink"><linearGradient id="a" gradientUnits="userSpaceOnUse" x1="3.35" x2="21.9" y1="3.12" y2="24.43"><stop offset="0" stop-color="#1a1e21"/><stop offset="1" stop-color="#06060a"/></linearGradient><linearGradient id="b" gradientUnits="userSpaceOnUse" x1="9" x2="9" y1="3" y2="15"><stop offset="0" stop-color="#f8f8f8"/><stop offset=".54" stop-color="#616161"/><stop offset="1" stop-color="#3b3b3b"/></linearGradient><linearGradient id="c" gradientUnits="userSpaceOnUse" x1="6.88" x2="11.2" y1="11.51" y2="11.51"><stop offset="0" stop-color="#525252"/><stop offset=".41" stop-color="#fff"/></linearGradient><linearGradient id="d" gradientUnits="userSpaceOnUse" x1="7.85" x2="6.23" y1="9.58" y2="11.08"><stop offset="0" stop-color="#fff"/><stop offset=".96" stop-color="#1a1a1a"/></linearGradient><linearGradient id="e" gradientUnits="userSpaceOnUse" x1="9.3" x2="10.73" y1="9.36" y2="10.93"><stop offset="0" stop-color="#3a3a3a"/><stop offset=".63" stop-color="#f1f1f1"/><stop offset="1" stop-color="#fff"/></linearGradient><linearGradient id="f" gradientUnits="userSpaceOnUse" x1="8.8" x2="9.24" y1="8.62" y2="9.14"><stop offset="0" stop-color="#474747"/><stop offset="1" stop-color="#fff"/></linearGradient><path d="m0 0h18v18h-18z" fill="url(#a)"/><path d="m15 9a6 6 0 1 1 -12 0 6 6 0 0 1 12 0z" fill="url(#b)"/><path d="m14.65 9a5.65 5.65 0 1 1 -11.3 0 5.65 5.65 0 0 1 11.3 0z"/><path d="m9 12.91a3.91 3.91 0 1 0 0-7.81 3.91 3.91 0 0 0 0 7.82zm0 .18a4.09 4.09 0 1 0 0-8.19 4.09 4.09 0 0 0 0 8.18z" fill="#a1a1a1" fill-rule="evenodd"/><path d="m9.18 12.1a4.06 4.06 0 0 1 -2.87-1.1c2.39 1.3 4.67.5 5.51-.07a3.57 3.57 0 0 1 -2.64 1.17z" fill="url(#c)"/><path d="m9.07 11.54c-3.04.06-4.47-3.15-4.8-4.77l4.49 2.5.3 2.27z" fill="url(#d)"/><path d="m9 11.51c3.04.07 4.47-3.15 4.8-4.77l-4.5 2.5-.3 2.28z" fill="url(#e)"/><path d="m8.96 8.42.85-.17-.43.68c-.13.17-.48.34-.64.08-.2-.35.07-.54.22-.59z" fill="url(#f)"/><path d="m9.17 4.54c-2.43 0-3.58 1.35-3.84 1.87l-.63-.31c.37-.74 1.75-2.26 4.47-2.26 1 0 2.75.41 3.92 2.22l-.59.38a4.01 4.01 0 0 0 -3.33-1.9zm3.01 8.52a5.05 5.05 0 0 1 -3 1.08c-2.96 0-4.34-1.75-4.74-2.67l.64-.28c.31.71 1.47 2.25 4.1 2.25.97 0 1.88-.4 2.58-.94.35-.27.63-.56.85-.83.21-.28.33-.52.37-.68l.68.17c-.07.3-.25.62-.5.94s-.58.66-.98.96z" fill="#fff" fill-opacity=".8"/></svg>