<svg height="18" viewBox="0 0 18 18" width="18" xmlns="http://www.w3.org/2000/svg"><path d="m0 0h18v18h-18z" fill="#f0f3fa"/><path d="m10 10.73s-1.4-1.94-1.5-2.03c-.38-.38-.59-1.15-.06-1.7.37-.4.85-.38 1.2-.24.21.1.4.24.53.42.13-.14.28-.31.53-.42.36-.14.83-.15 1.2.23.6.6.34 1.38 0 1.7-.13.14-1.65 2.03-1.65 2.03v.28h.84c.74 0 1.3-.31 1.74-.62.45-.33.8-.78 1-1.3.16-.44.21-1.31.13-1.77a2.67 2.67 0 0 0 -.55-1.25 2.74 2.74 0 0 0 -2.31-1.06h-5.62a.47.47 0 0 0 -.44.3.5.5 0 0 0 -.04.2v5.91c0 .69.27 1.35.75 1.83a2.54 2.54 0 0 0 3.6 0c.49-.48.65-.88.65-1.57z" fill="#e65550"/></svg>