<svg height="18" viewBox="0 0 18 18" width="18" xmlns="http://www.w3.org/2000/svg"><path d="m0 0h18v18h-18z" fill="#f0f3fa"/><path d="m8 4.18 1-1.18 1 1.18-1 2.82zm-.74.43-1.26-.61.2 1.38 1.8 1.62zm3.48 0 1.26-.61-.2 1.38-1.8 1.62z" fill="#02b214"/><path d="m7.5 7 1.5 1.5-1.5 1.5-1.5-1.5zm3 0 1.5 1.5-1.5 1.5-1.5-1.5zm-3 3 1.5 1.5-1.5 1.5-1.5-1.5zm3 0 1.5 1.5-1.5 1.5-1.5-1.5zm-1.5-1 1 1-1 1-1-1zm-2.5 4 .5.5-.5.5-.5-.5zm5 0 .5.5-.5.5-.5-.5zm-1 1 .5.5-.5.5-.5-.5zm-3 0 .5.5-.5.5-.5-.5zm1.5-2 1 1-1 1-1-1z" fill="#f3c337"/></svg>