<svg height="18" viewBox="0 0 18 18" width="18" xmlns="http://www.w3.org/2000/svg"><path d="m0 0h18v18h-18z" fill="#f0f3fa"/><path d="m8.29 5h1.4v1.54h-1.4zm-3.32 2.24a2.12 2.12 0 0 1 1.83.01c1.29.68 1.4 2.64.15 3.43-.57.37-1.31.46-1.95.22-.19-.07-.34-.22-.51-.34v2.44h-1.49v-6h1.25l.08.7c.2-.16.4-.36.64-.46zm.22.66a.9.9 0 0 0 -.7.9c0 .33-.02.7.11.93.34.57 1.21.58 1.59.05.2-.29.25-.59.2-.94-.03-.3-.16-.6-.4-.78a1 1 0 0 0 -.8-.16zm8.3-.9h1.5l-1.51 2.04 1.52 1.96h-1.6l-.83-1.2-.87 1.2h-1.55l1.58-1.95-1.54-2.05h1.57l.9 1.36zm-5.2 0h1.41v4h-1.4v-4z"/><path d="m15 5v1.5c-1.56-.19-4.97-.6-5.12-.68.05-.04 5.12-.82 5.12-.82z" fill="#ed1c24"/></svg>