<svg height="18" width="18" xmlns="http://www.w3.org/2000/svg"><path d="m0 0h18v18h-18z" fill="#083970"/><g fill="#fff"><path d="m4 9.054h10v3.944h-10z"/><path d="m8.375 4.647h1.25v4.553h-1.25zm.313-.933h.625v.679h-.625z"/><path d="m8.844 3.466h.313v.679h-.313z"/><path d="m8.498 4.057h1.004v.343h-1.004z"/><rect height=".343" rx=".171" width="4.375" x="6.813" y="3.029"/><path d="m7.75 7.143h2.5v.686h-2.5zm0 .844h2.5v.686h-2.5zm-1.406.386h.469v.681h-.469zm.625 0h.469v.681h-.469z"/><path d="m6.188 8.527h1.406v.381h-1.406zm4.375-.154h.469v.681h-.469zm.625 0h.469v.681h-.469z"/><path d="m10.406 8.527h1.406v.381h-1.406zm-4.062 4.471h.469v.686h-.469zm.625 0h.469v.686h-.469z"/><path d="m6.188 13.136h1.406v.342h-1.406zm4.375-.138h.469v.687h-.469zm.625 0h.469v.687h-.469z"/><path d="m10.406 13.136h1.406v.342h-1.406zm-2.343-6.336h1.875v.361h-1.875zm-.313 6.032c0-.093.075-.168.168-.168h2.164c.093 0 .168.075.168.168v.011c0 .087-.07.156-.156.156a.156.156 0 0 0 -.157.157v.53a.686.686 0 0 1 -.685.685h-.504a.686.686 0 0 1 -.686-.686v-.53a.156.156 0 0 0 -.156-.155.156.156 0 0 1 -.156-.157zm1.563-8.778 1.323-.998.176.282-1.323.998zm-.625 0-1.324-.998-.176.282 1.323.998zm-.313-1.898a.156.156 0 0 1 .312 0v.873h-.312zm.469 2.244h.313v.343h-.313z"/></g></svg>