<svg height="18" viewBox="0 0 18 18" width="18" xmlns="http://www.w3.org/2000/svg"><path d="m0 0h18v18h-18z" fill="#f0f3fa"/><path d="m4.93 8.77c0 .14.02.15.06.01a7 7 0 0 1 1.48-2.62l.01.01c.44.73.31 1.65.04 2.43-.17.49-.35 1-.56 1.54a4.94 4.94 0 0 0 -.27 2.64c0 .04 0 .04-.04.02a5.1 5.1 0 0 1 -1.63-4.2 5.04 5.04 0 0 1 7.1-4.15c.07.04.06.06-.02.06l-.68.06c-.16.02-.32-.04-.49-.06a4.39 4.39 0 0 0 -5 4.26z" fill="#004679"/><path d="m13.22 5.78a6.32 6.32 0 0 0 -3.85.97 6.9 6.9 0 0 0 -1.72 1.55.03.03 0 0 1 -.02-.01c-.43-.91.03-1.72.77-2.27 1.39-1.04 3.13-1.22 4.82-1.04a6.4 6.4 0 0 1 1.76.46c.03 0 .03.02 0 .04a3.1 3.1 0 0 0 -.64.54c-.33.38-.66.75-.97 1.13-.5.6-1.02 1.05-1.64 1.43a5.78 5.78 0 0 1 -3.43.66 3.34 3.34 0 0 0 -.55.98c-.3.84-.1 1.82.43 2.5.35.42.9.57 1.46.55a4.18 4.18 0 0 0 3.26-1.8c.72-1.03.97-2.2.73-3.48-.03-.14.1-.3.15-.43a.03.03 0 0 1 .06 0 5.11 5.11 0 0 1 -3.02 6.23 4.3 4.3 0 0 1 -2.1.13 2.24 2.24 0 0 1 -1.66-1.48c-.58-1.64.32-3.26 1.46-4.4.99-.99 2.14-1.65 3.44-1.98.44-.1.86-.19 1.25-.24.04 0 .04-.02 0-.04z" fill="#659d42"/></svg>