<svg height="18" viewBox="0 0 18 18" width="18" xmlns="http://www.w3.org/2000/svg"><path d="m0 0h18v18h-18z" fill="#1d4174"/><path d="m10.86 11.8a4 4 0 0 1 -2.1 1.13l-.03.01a4 4 0 1 1 3.03-2.59.3.3 0 0 1 .14-.03c.17 0 .3.12.3.28a.3.3 0 0 1 -.3.29.3.3 0 0 1 -.3-.29c0-.04.02-.09.04-.12l-.07-.05-.17.24h.03v.33h-.27v1.48c0 .1.05.19.12.19h.15v.33h-.32c-.14 0-.25-.15-.25-.34zm0-.41c-.48.56-1.11.99-1.84 1.2v-1.75a.75.75 0 0 0 1.21-.59.75.75 0 0 0 -1.21-.59v-.16h-.29v3.15a3.74 3.74 0 0 1 -4.45-3.65 3.72 3.72 0 0 1 3.42-3.71v3.71h.3v-3.72h-.02.02c1.55 0 2.88.94 3.44 2.29a.67.67 0 0 0 -.3-.07c-.36 0-.53.2-.57.3v.37c.03-.13.2-.42.47-.42s.38.2.39.3v.95h.28v-.27a3.78 3.78 0 0 1 -.38 1.94h-.17v-.67h-.3v.67h-.29v.33h.29zm-4.4-2.39a.75.75 0 1 0 -.46-1.34v-.16h-.29v3.59h.29v-2.25c.13.1.29.16.46.16zm-.46-.94v.38a.5.5 0 1 0 0-.38zm3.02 2v.38a.5.5 0 1 0 0-.38zm-.73-1.81c0 .41.38.75.85.75.22 0 .42-.07.57-.2v.2h.29v-1.5h-.29v.2a.93.93 0 0 0 -.57-.2c-.47 0-.85.34-.85.75zm1.42-.01c0-.27-.26-.49-.57-.49s-.57.22-.57.5.26.5.57.5.57-.22.57-.49zm-1.21 2.01a.75.75 0 1 1 -1.5 0 .75.75 0 0 1 1.5 0zm-.25 0a.5.5 0 1 1 -1 0 .5.5 0 0 1 1 0zm2.04-1.25h.28v-1.5h-.28zm1.33 2v1.68c0 .17.14.32.32.32h.4v-.33h-.18a.16.16 0 0 1 -.16-.16v-1.51zm.98-1h.4v1.66l.52-.66h.4l-.66.84.74 1.16h-.4l-.57-.87-.03.03v.84h-.4z" fill="#fff" fill-rule="evenodd"/></svg>