<svg height="18" viewBox="0 0 18 18" width="18" xmlns="http://www.w3.org/2000/svg"><path d="m0 0h18v18h-18z" fill="#1a315d"/><path d="m9.28 4.1 4.55 3.11c.14.1.2.3.16.44l-1.76 5.08a.45.45 0 0 1 -.4.27h-5.67a.45.45 0 0 1 -.4-.27l-1.74-5.08a.43.43 0 0 1 .16-.44l4.58-3.14c.13-.1.36-.1.49 0l.04.03zm-.27.53-.58.67v.03l-.01.02.51.7c.03.03.08.03.1 0l.54-.7c.03-.03.03-.09 0-.13l-.52-.62zm-.25 7.76a2.9 2.9 0 0 0 3.18-2.72c.14-1.67-1-3.04-2.62-3.15a2.92 2.92 0 0 0 -3.16 2.76c-.14 1.66.99 3 2.6 3.11zm-2.06-3.39h4.64c.2 0 .2.16.18.24-.12 1.55-.86 2.76-2.52 2.76-1.67 0-2.42-1.26-2.52-2.8 0-.18.13-.2.2-.2z" fill="#fff"/></svg>