<svg height="18" viewBox="0 0 18 18" width="18" xmlns="http://www.w3.org/2000/svg"><path d="m0 0h18v18h-18z" fill="#f0f3fa"/><path d="m15 8.83v-3.21a7.04 7.04 0 0 0 -.44-.62v3.83c0 .96-.77 1.74-1.7 1.74-.92 0-1.67-.74-1.71-1.66v-.07c0-1.21-.96-2.2-2.15-2.2s-2.15.99-2.15 2.2v.07a1.72 1.72 0 0 1 -1.7 1.66c-.94 0-1.7-.78-1.7-1.74h-.45c0 1.21.96 2.2 2.15 2.2s2.15-.99 2.15-2.2v-.07c.04-.92.79-1.66 1.7-1.66s1.66.74 1.7 1.66v.08c0 1.2.96 2.18 2.15 2.18s2.15-.98 2.15-2.19z" fill="#2f3232"/><path d="m14.56 7.5a2.14 2.14 0 0 0 -3.86 1.33v.08a1.72 1.72 0 0 1 -1.7 1.66c-.91 0-1.66-.74-1.7-1.66v-.08c0-1.2-.96-2.19-2.15-2.19s-2.15.98-2.15 2.2v3.54c.14.21.28.42.44.62v-4.17c0-.96.77-1.74 1.7-1.74.92 0 1.67.74 1.71 1.66v.08c0 1.2.96 2.19 2.15 2.19s2.15-.99 2.15-2.2v-.07c.04-.92.79-1.66 1.7-1.66.94 0 1.7.78 1.7 1.73v-1.32z" fill="#98c07a"/></svg>