<svg height="18" width="18" xmlns="http://www.w3.org/2000/svg"><path d="m0 0h18v18h-18z" fill="#b5333c"/><circle cx="9" cy="9" fill="#fff" r="5"/><path d="m13.813 12.066-.89-1.79h-.002c.444-.443.98-1.091.98-2.185 0-.59-.096-1.054-.28-1.46a5.002 5.002 0 0 1 .192 5.435zm-1.444 1.558v-3.065l1.03 2.107a5.034 5.034 0 0 1 -1.03.958zm-6.61-.755.039-.012.072-.024v-.006a2.142 2.142 0 0 0 1.378-1.674v2.848a5.029 5.029 0 0 1 -1.489-1.132zm-.527-6.043v5.348a5.002 5.002 0 0 1 0-5.348zm2.016-1.827v2.648c-.166-.87-.97-1.333-1.5-1.504.421-.47.93-.858 1.5-1.144zm2.242 2.131c-.187-.986-.709-1.741-1.553-2.414a5.018 5.018 0 0 1 1.553-.248zm2.879-1.196c1.171.835 1.366 2.954 0 4.062v-4.063zm-2.057-1.394c.502.083.98.24 1.42.46v1.343c-.248-.734-.722-1.311-1.42-1.803zm1.42 4.492v4.968a5.011 5.011 0 0 1 -1.605.487v-3.397c.382-.204 1.215-.868 1.605-2.058zm-1.605-3.885c1.69 1.052 1.629 4.064 0 5.249v-5.25zm-.637 3.658v5.728c-.562 0-1.1-.097-1.604-.266v-3.163c.374-.207 1.323-.898 1.604-2.3zm-1.604-3.33c1.465.954 1.59 3.839 0 4.946zm-1.368 3.918-.002-.004s.583-.352.732-1.075v2.157c-.126-.657-.621-1.005-.73-1.078zm-.648-.207v-2.401c1.03.416 1.202 1.79 0 2.4zm0 2.984v-2.538c1.162.626 1.058 2.008 0 2.538zm-2.87-9.17v13h13v-13z" fill="#b5333c"/></svg>