<svg height="18" width="18" xmlns="http://www.w3.org/2000/svg"><path d="m0 0h18v18h-18z" fill="#f0f3fa"/><path d="m5.3 5h7.4c.15 0 .3.14.3.32v7.36c0 .17-.13.32-.3.32h-7.4a.32.32 0 0 1 -.3-.32v-7.36a.3.3 0 0 1 .3-.32zm.14.52c.28-.01 3.67-.14 5.61 1.82 0 0-1.54-1.18-5.03-.66a4.9 4.9 0 0 0 -.58-1.16zm1 2.78c1.06-.29 4.48-.89 5.53.33-.67-2.16-5.02-1.59-5.78-1.48.11.34.2.73.26 1.15zm.08.56c.83-.23 5.5-1.44 5.97.84-1.48-1.01-5 .12-5.92.46.01-.27 0-.56-.01-.87v-.04zm5.48 3.04c2.72-3.5-3.5-1.93-5.48-1.08a4.58 4.58 0 0 1 -.51 1.71c.78-.38 3.92-1.75 5.44-1.84.8-.05 1.14.1.55 1.21z" fill="#019ee0" fill-rule="evenodd"/></svg>