<svg height="18" viewBox="0 0 18 18" width="18" xmlns="http://www.w3.org/2000/svg" xmlns:xlink="http://www.w3.org/1999/xlink"><linearGradient id="a" gradientUnits="userSpaceOnUse" x1="6.26" x2="7.78" y1="10.76" y2="12.84"><stop offset="0" stop-color="#103766"/><stop offset="1" stop-color="#01569d"/></linearGradient><linearGradient id="b" gradientUnits="userSpaceOnUse" x1="8.52" x2="4.56" y1="5.91" y2="10.31"><stop offset=".74" stop-color="#c92656"/><stop offset="1" stop-color="#d43f53"/></linearGradient><linearGradient id="c" gradientUnits="userSpaceOnUse" x1="9.69" x2="11.44" y1="5.6" y2="7.77"><stop offset="0" stop-color="#c7295a"/><stop offset="1" stop-color="#7e3455"/></linearGradient><linearGradient id="d" gradientUnits="userSpaceOnUse" x1="13.67" x2="9.7" y1="7.79" y2="12.31"><stop offset="0" stop-color="#0076be"/><stop offset=".59" stop-color="#0156a7"/></linearGradient><path d="m0 0h18v18h-18z" fill="#f0f3fa"/><path d="m5.38 11.18 1.92-1.68-.29.63a.27.27 0 0 0 .08.33l1.57 1.39c.03.03.05.07.05.1 0 .05-.02.1-.05.12l-.99.88a.2.2 0 0 1 -.26 0l-2.02-1.77z" fill="url(#a)"/><path d="m3.08 9.16a.23.23 0 0 1 0-.36l4.23-3.7c.11-.1.3-.1.4 0l1.45 1.26a1.2 1.2 0 0 1 0 1.86l-1.95 1.71c-.44.39-.62.9-.61 1.42 0 .33.05.65.24.95l.23.36z" fill="url(#b)"/><path d="m12.62 6.82-1.92 1.68.29-.63a.27.27 0 0 0 -.08-.33l-1.56-1.39a.15.15 0 0 1 -.05-.1c0-.05.02-.1.05-.12l.99-.88a.2.2 0 0 1 .26 0z" fill="url(#c)"/><path d="m14.92 8.84c.1.1.1.26 0 .36l-4.23 3.7c-.11.1-.3.1-.4 0l-1.45-1.26a1.2 1.2 0 0 1 0-1.86l1.95-1.71c.43-.38.6-.88.61-1.4 0-.33-.04-.66-.24-.97l-.23-.36z" fill="url(#d)"/></svg>