<svg height="18" viewBox="0 0 18 18" width="18" xmlns="http://www.w3.org/2000/svg" xmlns:xlink="http://www.w3.org/1999/xlink"><linearGradient id="a" gradientUnits="userSpaceOnUse" x1="3.35" x2="21.9" y1="3.12" y2="24.43"><stop offset="0" stop-color="#1a1e21"/><stop offset="1" stop-color="#06060a"/></linearGradient><path d="m0 0h18v18h-18z" fill="url(#a)"/><path d="m11.25 5.5 2.25-1-4.5 3.86c-1.64-1.52-1.57-1.47-1.57-1.47l-1.6-1.46 3.17 1.05zm-4.48 7-2.27 1 4.52-3.87 1.58 1.47 1.59 1.46-3.17-1.05z" fill="#50b580"/><path d="m6.02 7.01-.97-1.97 3.45 3.97-1.16 1.25-1.16 1.26.84-2.5-1-2zm5.98 3.99s-.07-.12.96 1.97l-3.44-3.97 1.16-1.25 1.16-1.26-.83 2.5z" fill="#5dc0c9"/></svg>