<svg height="18" viewBox="0 0 18 18" width="18" xmlns="http://www.w3.org/2000/svg"><path d="m0 0h18v18h-18z" fill="#f0f3fa"/><g fill="#0033a0"><path d="m8.8 7.5h-.8v3h2v-.75h-1.2zm1.2 0h1c.5 0 .9.5.9 1.13 0 .62-.4 1.12-.9 1.12h-.36v.75h-.64zm.91.75h-.27v.75h.27c.2 0 .36-.17.36-.37 0-.21-.16-.38-.36-.38zm-4.91-.75h1.05c.53 0 .95.5.95 1.13 0 .62-.42 1.12-.95 1.12h-.38v.75h-.67zm.95.75h-.28v.75h.28c.21 0 .38-.17.38-.37 0-.21-.17-.38-.38-.38z"/><path d="m13.75 10.56a5 5 0 0 1 -9.5 0h-1.09a7.78 7.78 0 0 1 0-3.12h1.09a5 5 0 0 1 9.5 0h1.1a7.79 7.79 0 0 1 -.01 3.12zm-4.75 2.44a4 4 0 1 0 0-8 4 4 0 0 0 0 8z"/></g></svg>