<svg height="18" width="18" xmlns="http://www.w3.org/2000/svg"><path d="m0 0h18v18h-18z" fill="#4c80b2"/><path d="m8 12.646c0 .34.09.59.167.749.077.149.22.255.429.318.22.064.566.096 1.039.096.033 0 .05.032.05.096 0 .063-.017.095-.05.095h-1.056-3.529c-.034-0-.05-.032-.05-.095 0-.064.016-.096.05-.096.351 0 .54-.026.54-.026.171 0 .275-.128.33-.277.055-.159.082-.398.082-.716v-7.373c0-.365.008-.931-.412-1.067-.165-.063-.2-.111-.54-.111-.034 0-.05-.032-.05-.096 0-.063.016-.143.05-.143h4.32c1.122 0 2.007.228 2.656.685.649.446.973 1.14.973 2.086 0 .658-.174 1.41-.526 1.867a3.288 3.288 0 0 1 -1.369 1.035 4.28 4.28 0 0 1 -1.698.327c-.297 0-.555-.003-.775-.056-.022 0-.033-.027-.033-.08 0-.032.005-.063.016-.095.022-.032.044-.043.066-.032.165.042.352.064.561.064.506 0 .924-.229 1.254-.685.34-.457.51-1.277.51-2.116s-.188-1.508-.562-1.965c-.363-.456-.896-.685-1.6-.685-.308 0-.517.07-.627.207-.11.138-.216.409-.216.812z" fill="#fff"/></svg>