<svg height="18" viewBox="0 0 18 18" width="18" xmlns="http://www.w3.org/2000/svg"><path d="m0 0h18v18h-18z" fill="#f0f3fa"/><path d="m9.67 14c.92 0 1.66-.7 1.66-1.56 0-.87-.74-1.56-1.66-1.56s-1.67.7-1.67 1.56.75 1.56 1.67 1.56z" fill="#ee5723"/><path d="m6.33 11.5c.74 0 1.34-.56 1.34-1.25s-.6-1.25-1.34-1.25c-.73 0-1.33.56-1.33 1.25s.6 1.25 1.33 1.25z" fill="#fcb017"/><path d="m6 8.19c.55 0 1-.42 1-.94s-.45-.94-1-.94-1 .42-1 .94.45.94 1 .94z" fill="#1fa8c3"/><path d="m7.33 5.56c.37 0 .67-.28.67-.62 0-.35-.3-.63-.67-.63a.64.64 0 0 0 -.66.63c0 .34.3.62.66.62z" fill="#008b76"/><path d="m9.42 4.78c.23 0 .41-.17.41-.39s-.18-.39-.41-.39-.42.17-.42.4c0 .2.19.38.42.38z" fill="#432f90"/><path d="m11 5.41c.18 0 .33-.14.33-.31s-.15-.31-.33-.31-.33.14-.33.3c0 .18.15.32.33.32z" fill="#331d5c"/><path d="m11.67 6.81c.18 0 .33-.14.33-.31s-.15-.31-.33-.31c-.19 0-.34.14-.34.31s.15.31.34.31z" fill="#006d5c"/><path d="m11.03 7.75c.17 0 .3-.13.3-.28 0-.16-.13-.28-.3-.28-.16 0-.3.12-.3.28 0 .15.14.28.3.28z" fill="#127c90"/><path d="m9.58 7.9c.14 0 .25-.1.25-.23s-.1-.23-.25-.23c-.13 0-.25.1-.25.23s.12.24.25.24z" fill="#c78c10"/><path d="m8.5 7.12c.1 0 .17-.07.17-.15 0-.09-.08-.16-.17-.16-.1 0-.17.07-.17.16 0 .08.08.15.17.15z" fill="#b94318"/></svg>