<svg height="18" viewBox="0 0 18 18" width="18" xmlns="http://www.w3.org/2000/svg" xmlns:xlink="http://www.w3.org/1999/xlink"><linearGradient id="a"><stop offset=".28" stop-color="#0076cf" stop-opacity=".3"/><stop offset=".74" stop-color="#0076cf"/></linearGradient><linearGradient id="b" gradientUnits="userSpaceOnUse" x1="6.1" x2="10.72" xlink:href="#a" y1="7.03" y2="13.54"/><linearGradient id="c" gradientUnits="userSpaceOnUse" x1="6.17" x2="11.48" xlink:href="#a" y1="6.41" y2="13.06"/><path d="m0 0h18v18h-18z" fill="#f0f3fa"/><path d="m9 4c.66 2.34 3.53 4.51 3.53 7.34 0 1.09-.83 2.07-1.77 2.66a5.32 5.32 0 0 0 3.24-4.79 5.1 5.1 0 0 0 -5-5.21zm-3.53 7.37c0-2.84 2.91-4.98 3.53-7.37a5.15 5.15 0 0 0 -5 5.2c0 2.17 1.39 4 3.24 4.8-.86-.56-1.77-1.5-1.77-2.63z" fill="#53565a"/><path d="m6 10.83c.35-2.2 2.7-3.91 3-5.83.3 1.92 2.65 3.63 3 5.83-.42.55-1.62 1-3 1-1.42-.04-2.58-.48-3-1z" fill="url(#b)"/><path d="m9 14c-.94 0-1.8-.35-2.33-.93.56.29 1.39.45 2.33.45s1.77-.2 2.33-.45c-.56.58-1.39.93-2.33.93z" fill="#0076cf"/><path d="m9 12.27c1.44 0 2.62-.5 3-1.13v.12c0 .27-.04.54-.11.82-.5.54-1.6.93-2.89.93-1.3 0-2.43-.4-2.89-.93a2.81 2.81 0 0 1 -.11-.82v-.12c.38.66 1.56 1.13 3 1.13z" fill="url(#c)"/></svg>