<svg height="18" viewBox="0 0 18 18" width="18" xmlns="http://www.w3.org/2000/svg"><path d="m0 0h18v18h-18z" fill="#f0f3fa"/><circle cx="9.5" cy="3.5" fill="#f6911e" r=".5"/><circle cx="13.5" cy="5.5" fill="#a9a435" r=".5"/><circle cx="5.5" cy="4.5" fill="#ffc508" r=".5"/><circle cx="7.5" cy="4.5" fill="#eb1c2b" r=".5"/><circle cx="9.5" cy="5.5" fill="#9f1d20" r=".5"/><circle cx="6.5" cy="6.5" fill="#7e3e96" r=".5"/><circle cx="5.5" cy="8.5" fill="#25a9df" r=".5"/><circle cx="11.5" cy="6.5" fill="#005a94" r=".5"/><circle cx="12.5" cy="9.5" fill="#ffc508" r=".5"/><circle cx="11.5" cy="11.5" fill="#f6911e" r=".5"/><circle cx="9.5" cy="12.5" fill="#a9a435" r=".5"/><circle cx="6.5" cy="11.5" fill="#eb1c2b" r=".5"/><circle cx="4.5" cy="6.5" fill="#a9a435" r=".5"/><circle cx="11.5" cy="4.5" fill="#25a9df" r=".5"/><circle cx="13.5" cy="7.5" fill="#7e3e96" r=".5"/><circle cx="13.5" cy="11.5" fill="#9f1d20" r=".5"/><circle cx="10.5" cy="13.5" fill="#005a94" r=".5"/><circle cx="6.5" cy="13.5" fill="#ffc508" r=".5"/><circle cx="4.5" cy="10.5" fill="#f6911e" r=".5"/><circle cx="3.5" cy="8.5" fill="#005a94" r=".5"/><circle cx="4.5" cy="12.5" fill="#9f1d20" r=".5"/><circle cx="8.5" cy="14.5" fill="#7e3e96" r=".5"/><circle cx="12.5" cy="13.5" fill="#25a9df" r=".5"/><circle cx="14.5" cy="9.5" fill="#eb1c2b" r=".5"/></svg>