<svg height="18" viewBox="0 0 18 18" width="18" xmlns="http://www.w3.org/2000/svg"><path d="m0 0h18v18h-18z" fill="#2e008c"/><path d="m8.5 5.19v-1.19c-3.78.38-3.73 3.5-3.31 5 .16-.71.74-2.14 1.99-2.38 1.18-.23 1.32-1.03 1.32-1.43zm0 7.61v1.2c-3.78-.38-3.73-3.5-3.31-5 .16.71.74 2.14 1.99 2.38 1.18.23 1.32 1.03 1.32 1.43zm1-7.61v-1.19c3.78.38 3.73 3.5 3.31 5-.16-.71-.74-2.14-1.99-2.38-1.18-.23-1.32-1.03-1.32-1.43zm0 7.61v1.2c3.78-.38 3.73-3.5 3.31-5-.16.71-.74 2.14-1.99 2.38-1.18.23-1.32 1.03-1.32 1.43z" fill="#fff"/><ellipse cx="9" cy="9" fill="#f4a020" rx=".99" ry="1"/></svg>