<svg height="18" width="18" xmlns="http://www.w3.org/2000/svg"><path d="m0 0h18v18h-18z" fill="#0163a0"/><path d="m14 6.844v4.999a.367.367 0 0 1 -.055.171.398.398 0 0 1 -.131.13l-.175.099-1.332.72-1.12.49-.187.098v-5.406l-4.777-2.706 2.374-1.28.219-.117a.435.435 0 0 1 .372 0l3.292 1.78 1.519.821v.2h.001zm-4 1.9-.915-.554-2.399-1.297a.442.442 0 0 0 -.372 0l-1.814 1.107-.185.101 3.685 1.995v3.904l1.626-1.15.188-.098a.398.398 0 0 0 .131-.13.368.368 0 0 0 .055-.172zm-6 3.306 3 1.35v-2.703z" fill="#45c328"/></svg>