<svg height="18" viewBox="0 0 18 18" width="18" xmlns="http://www.w3.org/2000/svg"><path d="m0 0h18v18h-18z" fill="#f0f3fa"/><path d="m9.84 4c1.5 0 3.2.82 3.16 2.51 0 1.9-1.73 2.98-3.43 3.08-.5.03-.98.01-1.47.02-.1 0-.1 0-.1.09v2.96c0 .8.86.82 1.48.83.02 0 .03.01.03.04v.43c0 .03 0 .04-.04.04h-4.42c-.04 0-.05-.01-.05-.06v-.4c0-.04.01-.05.05-.05.66-.04 1.45-.1 1.45-.9v-7.13c0-.81-.77-.91-1.44-.95-.06-.01-.06-.02-.06-.06v-.4c0-.04 0-.05.05-.05zm-1.84 4.93c0 .08.05.07.13.07h1.37c1.13 0 2-1 2-2.5.04-1.18-1.03-1.91-2.3-1.92h-1.13c-.05 0-.07 0-.07.06v4.3z" fill="#0078be"/></svg>