<svg height="18" viewBox="0 0 18 18" width="18" xmlns="http://www.w3.org/2000/svg"><path d="m0 0h18v18h-18z" fill="#0177c9"/><path d="m13.02 6a1 1 0 0 0 -.68.25l-.04.04a.53.53 0 0 0 -.48-.29h-1.5l-.11.78.24.07c.04 0 .08.02.11.05v.06l-.01.08-.89 4.95-.02.16v.14c0 .18.05.36.15.5.05.06.11.12.19.16.07.03.14.05.22.05h1.36l.17-.9-.3-.02.64-3.54c.02-.16.08-.3.18-.42a.36.36 0 0 1 .12-.1l.15-.02h.47c.2.02.41-.05.58-.2.15-.2.25-.57.28-.84l.15-.96zm-2.82 7h1.36l.17-.9-.3-.02.64-3.54m-2.3-3.11c-.19-.29-.62-.43-1.02-.43h-2.78l-.05.27h.09c.02 0 .05.01.07.03a.2.2 0 0 1 .05.06c.05.07.08.16.08.25v.14l-1.21 7.25h1.7l.5-2.75h.3c1.04 0 2.1-.3 2.53-2.64.24-1.35-.06-1.9-.25-2.18m-1.44 2.21c-.04.17-.1.32-.17.47a.57.57 0 0 1 -.2.19.53.53 0 0 1 -.28.06h-.13l.34-1.81h.16c.05 0 .1 0 .15.02a.3.3 0 0 1 .11.1c.07.12.1.27.08.4 0 .2-.02.39-.06.57" fill="#fff"/></svg>