<svg height="18" width="18" xmlns="http://www.w3.org/2000/svg"><path d="m0 0h18v18h-18z" fill="#d63700"/><g fill="#fff"><path d="m9.857 9h-1.636l.39.6h1.168z"/><path d="m8 12h-1v-6h3v.6h-2zm-5 0v-6h1.87c.585 0 1.636.46 1.636 1.652 0 .676-.327 1.948-1.636 1.948h-.506l-.314-.6h.897c.974 0 1.132-2.4-.077-2.4h-.87v5.4zm12-3h-1v2.107c-2.5.893-3.601-2.84-1.688-4.13.779-.526 1.74-.358 2.22-.159l.234-.596c-1.363-.477-3.078-.238-3.818 1.232-.454.9-.701 2.86.585 3.853 1.534 1.185 2.974.57 3.467.199z"/></g></svg>