<svg fill="none" height="18" width="18" xmlns="http://www.w3.org/2000/svg" xmlns:xlink="http://www.w3.org/1999/xlink"><linearGradient id="a" gradientUnits="userSpaceOnUse" x1="14.967" x2="9.994" y1="8.036" y2="10.74"><stop offset=".463" stop-color="#8c85b1"/><stop offset=".755" stop-color="#daa466"/></linearGradient><path d="m0 0h18v18h-18z" fill="#0a395f"/><path d="m6.767 9.346c.155.212.233.48.233.804 0 .434-.152.767-.455 1-.304.233-.745.35-1.326.35h-2.219v-5h2.086c.532 0 .956.114 1.246.343.29.228.435.546.435.95 0 .262-.056.488-.169.679-.113.19-.278.335-.469.435.27.081.483.228.638.44zm-3.102-2.346v1.679h1.362c.34 0 .617-.068.8-.204.185-.136.277-.335.277-.596 0-.262-.092-.461-.276-.597a1.358 1.358 0 0 0 -.801-.282zm2.378 3.722c.19-.134.286-.344.286-.63 0-.557-.379-.835-1.136-.835h-1.528v1.743h1.528c.376 0 .66-.145.85-.278z" fill="#1ba3d3"/><path d="m8.672 6.5h.656v5h-.656z" fill="#dfaf59"/><path d="m14.383 9h.617v1.879c-.23.2-.571.354-.877.46-.306.107-.625.161-.957.161a2.5 2.5 0 0 1 -1.27-.325 2.343 2.343 0 0 1 -.886-.894 2.554 2.554 0 0 1 -.322-1.281c0-.475.107-.903.322-1.285.214-.382.511-.68.89-.894s.72-.321 1.195-.321c.372 0 .71.064 1.013.192.304.128.562.316.774.562l-.411.433c-.372-.377-.82-.601-1.376-.601-.952 0-1.785.601-1.785 1.914 0 1.285 1.128 1.875 1.89 1.875.417 0 .873-.102 1.184-.311v-1.564z" fill="url(#a)"/></svg>