<svg height="18" viewBox="0 0 18 18" width="18" xmlns="http://www.w3.org/2000/svg"><path d="m0 0h18v18h-18z" fill="#f0f3fa"/><path d="m7.54 11.57a9.88 9.88 0 0 1 -3.16-.57l-.07.3c.35.18 1.48.56 3.23.68 3 .15 5.03-.56 5.66-.93h-1.49c-1.34.44-2.55.52-4.17.52z" fill="#d52029"/><path d="m12.63 7.77a2 2 0 0 0 -.5-.35l-.1-.02h-2.94v.08c.1.01.3.06.3.15 0 .05-.03.1-.05.13l-.57.69v-1.05h-.66l-.63 1.05v-1.05h-1.07v.08c.1.01.32.08.38.25v1.81h.6l.82-1.13v1.13h.67l1.32-1.94c.01-.02.04-.05.06-.05s.04.08.04.11l-.5 1.64c-.03.11.02.24.1.24h1.04v-.04a.23.23 0 0 1 -.23-.15l.2-.67h.37c.1.28.34.86.5.91h3.02l.03-.13c-.04-.09-.21-.11-.48-.14l-.3-.04v.12a2.29 2.29 0 0 1 -1.85-.7c.1 0 .52-.17.58-.65l-.15-.27zm-1.63.58.18-.59h.54c.06.02.12.07.12.2 0 .17-.1.4-.39.4h-.45z"/><path d="m3.8 7.45-.02.02v.06c.08.03.25.12.23.3a85.9 85.9 0 0 1 -.6 2.68c-.01.01-.03.04-.06.04a.87.87 0 0 1 -.17-.13l-.09.84-.72-.98c.32.82.9 1.62 1.6 1.72.1 0 .23-.23.36-.8l.35-1.64h.8c.4 0 1.2-.2 1.2-1.05 0-.64-.47-1.05-.74-1.06h-2.13zm1 1.57.2-.96h.64c.07.03.2.12.2.33 0 .26-.14.63-.58.63z"/><g fill="#d52029"><path d="m14.79 9.43h-3.12c-.17-.06-.41-.58-.52-.86h-.36l-.15.5-.05.16c.05.13.17.16.23.15v.05h-1.05c-.08 0-.13-.13-.1-.24l.38-1.25.13-.4c0-.04-.02-.12-.05-.12-.02 0-.04.03-.05.05l-1.32 1.96h-.64v-1.15l-.86 1.15h-.6v-1.83c-.06-.17-.27-.22-.37-.23v-.08h1.07v1.03l.62-1.03h.67v1.03l.57-.7a.22.22 0 0 0 .05-.12c0-.1-.2-.14-.3-.15v-.05h2.94c.37.03.75.24.75.52 0 .56-.48.74-.58.74.56.66 1.5.75 1.88.71v-.32c-.3-2.5-5.39-2.63-6.32-2.63s-2.7.31-3.66.77-1.7 1.05-1.7 1.86c0 .8.91 1.48.95 1.48.03 0 .05-.03.05-.04.2-.83.59-2.52.6-2.69.02-.17-.14-.32-.22-.34v-.08h2.16c.27 0 .74.47.74 1.11 0 .85-.8 1.06-1.2 1.05h-.8l-.35 1.64c-.13.57-.27.8-.36.8-1.06-.16-1.85-1.92-1.85-2.89 0-2.34 5.34-2.99 6.4-2.99 1.07 0 2.77.22 3.8.57 2.5.77 2.62 1.95 2.63 2.37 0 .17-.01.33-.04.49zm-3.73-1.8-.18.6h.45c.3 0 .39-.23.39-.4 0-.13-.06-.18-.12-.2zm-6.38 1.27.2-.96h.64c.07.03.2.12.2.33 0 .26-.14.63-.59.63z" fill-rule="evenodd"/><path d="m4.75 9.66-.25 1.22h10.73l.77-1.22z"/></g></svg>