<svg height="18" viewBox="0 0 18 18" width="18" xmlns="http://www.w3.org/2000/svg"><path d="m0 0h18v18h-18z" fill="#f0f3fa"/><path d="m11 12h.43c1.97 0 2.57-1.18 2.57-2.63v-.74c0-1.45-.6-2.63-2.57-2.63h-1.43v1h1.21c1.4 0 1.79.7 1.79 1.74v.52c0 1.04-.38 1.74-1.79 1.74h-.21z" fill="#abc832"/><path d="m9 6.49 1.44-1.43c.1-.1.33-.06.43.04l.02.02a.4.4 0 0 1 .11.29c0 .07-.03.14-.08.19l-.92.89.9.94a.31.31 0 0 1 0 .45l-.02.03a.32.32 0 0 1 -.45 0z" fill="#abc832"/><g fill="#a69f9c"><path d="m9 11.49-1.44-1.43c-.1-.1-.33-.06-.43.04l-.02.02a.4.4 0 0 0 -.11.29c0 .07.03.14.08.19l.92.89-.9.94a.31.31 0 0 0 0 .45l.02.03c.12.12.33.12.45 0z"/><path d="m8 6h-1.43c-1.97 0-2.57 1.18-2.57 2.63v.74c0 1.45.6 2.63 2.57 2.63h1.43v-1h-1.21c-1.4 0-1.79-.7-1.79-1.74v-.52c0-1.04.38-1.74 1.79-1.74h1.21z"/></g></svg>