<svg height="18" viewBox="0 0 18 18" width="18" xmlns="http://www.w3.org/2000/svg"><path d="m0 0h18v18h-18z" fill="#f0f3fa"/><path d="m3 12.41 1.19-7.41h10.81l-1.23 8a6.71 6.71 0 0 0 -2.19-.53.29.29 0 0 0 .02-.09c0-.15-.1-.26-.24-.26h-1.26l1.85-2.72c.12-.16.01-.4-.18-.4h-1.93c-.12 0-.23.11-.23.25s.1.27.23.27h1.26l-1.85 2.72a.27.27 0 0 0 -.04.22c-.75.05-1.38.15-1.95.25l-.3.05.18-.96c.12.09.41.11.54.11.77 0 1.64-.47 1.64-1.7 0-.96-.78-1.21-1.12-1.21h-.77c-.3 0-.57.23-.63.55l-.6 3.31c-.29.03-.57.05-.86.05a5.36 5.36 0 0 1 -2.35-.5zm4.26-1.36.23-1.27c0-.08.06-.25.32-.25h.36c.17 0 .5.12.46.6-.03.6-.18 1.15-.88 1.15h-.26c-.17 0-.23-.15-.23-.23z" fill="#e70027"/></svg>