<svg height="18" viewBox="0 0 18 18" width="18" xmlns="http://www.w3.org/2000/svg" xmlns:xlink="http://www.w3.org/1999/xlink"><linearGradient id="a" gradientUnits="userSpaceOnUse" x1="11.18" x2="12.5" y1="8.14" y2="11.13"><stop offset="0" stop-color="#74c9e6"/><stop offset=".48" stop-color="#0075be"/><stop offset="1" stop-color="#0d4a89"/></linearGradient><linearGradient id="b" gradientUnits="userSpaceOnUse" x1="3.56" x2="10.52" y1="10.28" y2="11.71"><stop offset="0" stop-color="#0c437c"/><stop offset="1" stop-color="#019ee1"/></linearGradient><linearGradient id="c" gradientUnits="userSpaceOnUse" x1="14" x2="9.63" y1="10.75" y2="15.2"><stop offset="0" stop-color="#a8cef2"/><stop offset=".42" stop-color="#0085d0"/><stop offset="1" stop-color="#0c4ca3"/></linearGradient><linearGradient id="d" gradientUnits="userSpaceOnUse" x1="6.82" x2="5.5" y1="9.86" y2="6.87"><stop offset="0" stop-color="#ffd591"/><stop offset=".48" stop-color="#ef8203"/><stop offset="1" stop-color="#ec6911"/></linearGradient><linearGradient id="e" gradientUnits="userSpaceOnUse" x1="14.44" x2="7.48" y1="7.72" y2="6.29"><stop offset="0" stop-color="#e85700"/><stop offset="1" stop-color="#ffb42b"/></linearGradient><linearGradient id="f" gradientUnits="userSpaceOnUse" x1="4" x2="8.37" y1="7.25" y2="2.8"><stop offset="0" stop-color="#f8ecc2"/><stop offset=".42" stop-color="#f6af00"/><stop offset="1" stop-color="#da6112"/></linearGradient><path d="m0 0h18v18h-18z" fill="#f0f3fa"/><path d="m11.6 7.87-1.13 3.25c1.15.08 3.63-.05 4.4-1.15.76-1.1-1.86-1.86-3.27-2.1z" fill="url(#a)"/><path d="m7.09 13.99c-.28-.24-2.6-2.66-3.71-3.84 1.96.92 5.57 1.04 7.13 1l-1.21 3.83c-1.37.02-1.86-.7-2.2-1z" fill="url(#b)"/><path d="m10.6 14.3c-.64.65-1.17.73-1.35.7.38-1.27 1.17-3.8 1.23-3.9 2.66 0 4.12-.84 4.51-1.26l-4.4 4.47z" fill="url(#c)"/><path d="m6.4 10.13 1.13-3.25c-1.15-.08-3.63.05-4.4 1.15-.76 1.1 1.86 1.86 3.27 2.1z" fill="url(#d)"/><path d="m10.91 4.01c.28.24 2.6 2.66 3.71 3.84-1.96-.92-5.57-1.04-7.13-1l1.21-3.83c1.37-.02 1.86.7 2.2 1z" fill="url(#e)"/><path d="m7.4 3.7c.64-.65 1.17-.73 1.35-.7-.38 1.27-1.17 3.8-1.23 3.9-2.66 0-4.12.84-4.51 1.26l4.4-4.47z" fill="url(#f)"/></svg>