<svg height="18" viewBox="0 0 18 18" width="18" xmlns="http://www.w3.org/2000/svg"><path d="m0 0h18v18h-18z" fill="#f0f3fa"/><path d="m5 10.78c0 .74.23 1.43.62 2.02.5-.24 1.07-.37 1.65-.37.36 0 .8.13 1.3.25.65.15 1.4.32 2.16.32a4.05 4.05 0 0 0 1.86-.57c.27-.5.41-1.06.41-1.65a3.9 3.9 0 0 0 -4-3.78c-2.2 0-4 1.7-4 3.78zm7.28 1.49c.29-.5.45-1.06.45-1.65 0-1.93-1.67-3.5-3.73-3.5s-3.73 1.57-3.73 3.5c0 .51.12 1 .34 1.44l5.05-.06c.46.07 1.2.14 1.62.27z" fill="#005aab" fill-rule="evenodd"/><path d="m7.86 12.03-1.43-.43c-.2.16-.47.46-.5.47s1.32 0 1.93-.04z" fill="#005aab"/><path d="m10.14 12 1.43-.4c.2.16.45.43.48.44.03.02-1.3 0-1.9-.04zm-1.14.77v-.46h.29v.53z" fill="#47a6dc"/><path d="m6.4 13.84a7.26 7.26 0 0 1 -.4-.54c.16-.11.75-.3 1.6-.3 1.22 0 1.66.6 2.94.6.63 0 .92-.1 1.46-.4-.35.3-.88.8-1.76.8-.89 0-1.9-.5-2.54-.5-.63 0-.98.16-1.3.34z" fill="#005aab"/><path d="m8.43 4.53.57-.13v.47l-.57.13z" fill="#47a6dc"/><path d="m9.57 4.53-.57-.13v.47l.57.12v-.47z" fill="#005aab"/><path d="m9 3v1.05l-.29.08.25-.5v-.63z" fill="#47a6dc"/><path d="m9 3v1.05l.29.08-.25-.5v-.63z" fill="#005aab"/><path d="m9 12.3v-1.12l-1.14.28v.54h-1.43v-.4c-.2-.05-.55-.14-.67-.14-.16 0-.2 0-.36.05.06.32.25.82.38 1.05.16-.07.53-.25 1.21-.25.69 0 1.45.2 1.72.28v-.28h.29z" fill="#47a6dc"/><path d="m9 12.18v-1l1.14.28v.54h1.43v-.4c.2-.05.55-.14.67-.14.16 0 .32 0 .47.05 0 .3-.25.82-.38 1.05a3.63 3.63 0 0 0 -1.32-.22c-.69 0-1.4.17-1.68.25v-.41z" fill="#005aab"/><path d="m8 6.2 1-.2v.8l-1 .2z" fill="#47a6dc"/><path d="m10 6.2-1-.2v.8l1 .2z" fill="#005aab"/><path d="m8 5.2 1-.2v.8l-1 .2z" fill="#47a6dc"/><path d="m10 5.2-1-.2v.8l1 .2z" fill="#005aab"/><path d="m8.43 7.11.57-.11v.45l-.57.11z" fill="#47a6dc"/><path d="m9.57 7.11-.57-.11v.45l.57.11z" fill="#005aab"/><path d="m8.43 7.9.57-.1v.45l-.57.1v-.44z" fill="#47a6dc"/><path d="m9.57 7.9-.57-.1v.45l.57.1v-.44z" fill="#005aab"/><path d="m8.43 8.7.57-.1v.45l-.57.11z" fill="#47a6dc"/><path d="m9.57 8.7-.57-.1v.45l.57.11z" fill="#005aab"/><path d="m8.43 9.55.57-.11v.45l-.57.11z" fill="#47a6dc"/><path d="m9.57 9.55-.57-.11v.45l.57.11z" fill="#005aab"/><path d="m8.43 10.54.57-.11v.45l-.57.1z" fill="#47a6dc"/><path d="m9.57 10.54-.57-.11v.45l.57.1z" fill="#005aab"/></svg>