<svg height="18" viewBox="0 0 18 18" width="18" xmlns="http://www.w3.org/2000/svg"><path d="m0 0h18v18h-18z" fill="#f0f3fa"/><path d="m8.2 7.59c-.34-2.56-3.27-3.37-4.7-3.33 3.44 1.68 3.91 4.74 3.72 6.05.9-.92 1.09-1.88.98-2.72z" fill="#03ca59"/><path d="m10.11 7.06c0-1.9-1.67-2.79-2.54-3.06.26.11.77.97.72 3.48-.05 2.5-.84 3.94-1.23 4.34 1.52-.89 3.05-2.48 3.05-4.76z" fill="#03ca59"/><path d="m10.54 7.52c.05-1.3-.22-2.61-.37-3.11 1.04-.08 2.89 1.12 2.83 3.45-.07 2.98-4.93 6.01-7.44 7.14 4.15-3.17 4.92-5.86 4.98-7.48z" fill="#272cad"/></svg>