<svg height="18" viewBox="0 0 18 18" width="18" xmlns="http://www.w3.org/2000/svg" xmlns:xlink="http://www.w3.org/1999/xlink"><linearGradient id="a" gradientUnits="userSpaceOnUse" x1="8.37" x2="8.37" y1="3" y2="9.42"><stop offset=".52" stop-color="#17bffd"/><stop offset="1" stop-color="#2788fd"/></linearGradient><linearGradient id="b" gradientUnits="userSpaceOnUse" x1="9.5" x2="9.5" y1="9.72" y2="14"><stop offset="0" stop-color="#05b6a4"/><stop offset=".63" stop-color="#02ecd3"/></linearGradient><path d="m0 0h18v18h-18z" fill="#192d6a"/><path d="m5 9.28v-2.92c.02.02.1.08.2.11.15.04.3.06.41.13.12.06.09.06.1.16 0 .11.32.18.35.2.04.02.13-.05.14-.04.02 0 .08.08.12.08s.38-.2.4-.32.08-.13.16-.26c.07-.13.14-.38.14-.56 0-.17.07-.25.11-.36.04-.1-.04-.15-.1-.28-.06-.14.02-.16.06-.24.04-.07-.04-.13-.07-.22-.03-.1.06-.16.1-.28.06-.12-.03-.12-.04-.19-.02-.06.16-.17.13-.24-.02-.08-.07.01-.12 0-.04-.02.08-.2.15-.3.02.01.07.03.1 0 .05-.04-.06-.08-.03-.14s.11-.28.12-.41c0-.13.01-.07.08-.11.08-.04.14-.09.19-.09.04 0 0 .06-.03.09-.02.03.05.02.1.09.06.07.05.16.07.28.03.12 0 .16 0 .2.01.03.18-.02.2.04 0 .06-.05.1-.09.16-.04.07.05.08.12.1.06.02.1.05.08.15s0 .1.03.1.05.11.03.19c-.01.07 0 .07.05.17s-.05.17-.02.2c.04.05.12.2.1.28 0 .06.12.1.19.09.06-.02.06-.1.07-.13.02-.03.06.04.07.04a.4.4 0 0 0 .1-.1c.04-.04.06.07.08.15 0 .07.06.07.13.1.07.02.07.02.08.1.02.06.12.07.19.09.06.01.05.07.02.1-.02.05-.04.08-.02.1.02.01.02.02 0 .07s0 .13 0 .18.02.14.1.25c.09.12 0 .1-.03.19-.02.08.16.23.2.24.03.02.07 0 .1.04.04.05-.01.08-.03.13-.01.05.1.17.15.29.06.1-.05.24-.07.34-.01.09.13.16.2.22.06.07-.05.11-.05.22s.17.13.28.17c.12.04.11 0 .17.09.05.09.12.04.18 0 .05-.04.02 0 .08.04.05.04.04.07.04.16 0 .07.04.07.07.06.01-.02.05-.08.08-.06.04.02.03.05.05.1.03.05.03 0 .1.02.05 0 .13.09.14.13 0 .04.02.02.05.04.02.01.03-.02.03-.04 0-.03.03-.1.05 0 .03.09.02.02.08.04.06.01.05.06.07.07s.06.1.08.15c.02.04-.04 0-.08-.05-.04-.04-.03.02-.05.05v.04l.13.18c.05.05.07.04.14.07s.01.07 0 .1c-.03.03.02.02.05.06.04.04 0 .05.03.09l.16.15h-6.23l.07-.12-.1-.18c0-.9.47-1.78.71-2.1v-.06l-.05.05c-.79.63-.98 1.87-.97 2.4h-.04v-.13z" fill="url(#a)"/><path d="m5 9.87v2.3h1.06a3.63 3.63 0 0 1 -.74-1.42 3.62 3.62 0 0 1 -.15-1.03h-.03v.15zm.5-.15h6.9c-.02.02-.05.09-.02.2v.06l.01.17v.21c0 .06 0 .08.05.13l.07.06c.02.01.04.02.09.08l.07.08c.07.09.14.16.2.13l.01-.01c.05-.03.06-.04.08 0l.05.04c.03.03.06.05.07.09v.04c-.01.03-.02.06.05.1.06.05.13.1.18.12l.05.03.03.04a.67.67 0 0 0 .02.1c.01.05.02.07.09.1l.06.03c.04.01.06.02.05.07v.17c0 .05.05.08.09.11l.06.08c.02.03.01.03 0 .05l-.03.1v.09c.01 0 .03.02.03.12.01.1.03.15.04.19l.01.07v.04c0 .04 0 .05-.05.07-.07.03-.05.08.05.22l.06.09c.06.08.1.13.08.18 0 .03 0 .05.03.07.02.03.04.06-.02.08a2.66 2.66 0 0 0 -.18.1l-.03.02c-.04.02-.06.03-.16.01a.65.65 0 0 1 -.13-.04c-.05-.01-.08-.03-.1 0a.53.53 0 0 1 -.16.12l-.04.01c-.03.01-.05.02-.06.04l.02.04c.01.03.03.06.03.1-.02.06-.16.14-.19.15l-.04-.04c0-.03-.02-.06-.04-.03-.02.06-.1.19-.17.19v-.05c0-.04 0-.1-.04-.12a.92.92 0 0 1 -.2-.15c-.04-.04-.13-.02-.2 0-.05 0-.1.02-.11 0l-.02-.02c-.04-.05-.08-.1-.14-.1l-.06.03c-.07.02-.14.05-.2.04a.34.34 0 0 0 -.18.03c-.03.02-.23.34-.23.34h-4.73v-1.83h-.47a4.65 4.65 0 0 1 -.67-2.2l.14-.18-.1-.07z" fill="url(#b)"/></svg>