<svg height="18" width="18" xmlns="http://www.w3.org/2000/svg"><path d="m0 0h18v18h-18z" fill="#0c416d"/><path d="m9 14a5 5 0 1 0 0-10 5 5 0 0 0 0 10zm0-2.5a2.5 2.5 0 1 0 0-5 2.5 2.5 0 0 0 0 5z" fill="#fff" fill-rule="evenodd"/><path d="m11.81 11.3-.72-1.2-1.15.81v1.21l-.13.63.07.08.29.08h1.4l.06-.04.03-.12z" fill="#0c416d"/><path d="m8.32 9.55a.2.2 0 0 1 .14-.34h1.75a.2.2 0 0 1 .14.06l1.07 1.07-.15.14-1.06-1.07h-1.75l1.4 1.4-.15.14-1.4-1.4z" fill="#fff"/><path d="m12.44 11.5 2.19 2.19h-2.04l-.93-.94.15-1.4-.62-.48v-.32a.2.2 0 0 1 .28-.18l.71.3a.2.2 0 0 1 .12.15z" fill="#fff"/><path d="m11.09 10.55a.3.3 0 0 1 .42-.27l.71.3a.3.3 0 0 1 .18.22l.13.65 2.34 2.34h-2.32l-1-1 .16-1.4-.62-.46zm.34-.09a.1.1 0 0 0 -.14.1v.27l.63.47-.16 1.41.87.88h1.75l-2.04-2.04-.14-.7a.1.1 0 0 0 -.06-.08l-.71-.3z" fill="#0c416d"/><path d="m9.4 12.4v-1.8a.1.1 0 0 1 .1-.1h.5v2h-.5a.1.1 0 0 1 -.1-.1z" fill="#fff"/><path d="m9.52 10.62v1.77h.37v-1.79h-.39zm-.23-.02c0-.12.1-.21.21-.21h.61v2.22h-.61a.21.21 0 0 1 -.21-.21z" fill="#0c416d"/></svg>