<svg height="18" viewBox="0 0 18 18" width="18" xmlns="http://www.w3.org/2000/svg"><path d="m0 0h18v18h-18z" fill="#f0f3fa"/><path d="m9 9.5-2.41-1.17v2.45l2.41 1.22z" fill="#1c4594"/><path d="m11.53 8.33-2.53 1.17v2.5l2.53-1.33z" fill="#135ba8"/><path d="m9 9.5-2.41-1.17 2.47-1.16 2.47 1.16z" fill="#228bd0"/><path d="m5.54 7.67-1.54-1v1.16l1 .61v1.47l-1 .59v1.67l5 2.83v-1.83l-3.46-1.8z" fill="#1c4594"/><path d="m9 15v-1.83l1.52.92zm2.68-1.46-1.55-.92 2.46-1.29v-3.66l1.41-1v5.5z" fill="#135ba8"/><path d="m14 6.67-1.41 1.02-3.53-1.86-3.53 1.87-1.53-1.03 1-.67.88.67 1.77-1v-1l1.4-.67z" fill="#228bd0"/><path d="m6.24 6v-.93l.7-.37v.93z" fill="#135ba8"/><path d="m6.24 5.07-.71-.37v.93l.7.37v-.93z" fill="#1c4594"/><path d="m6.24 4.33-.71.37.7.37.71-.37z" fill="#228bd0"/><path d="m3.76 10v-.93l.71-.37v.93l-.7.37z" fill="#135ba8"/><path d="m3.76 9.07-.7-.37v.93l.7.37z" fill="#1c4594"/><path d="m3.76 8.33-.7.37.7.37.71-.37-.7-.37z" fill="#228bd0"/><path d="m2.7 8v-.93l.71-.37v.93l-.7.37z" fill="#135ba8"/><path d="m2.7 7.07-.7-.37v.93l.7.37z" fill="#1c4594"/><path d="m2.7 6.33-.7.37.7.37.71-.37-.7-.37z" fill="#228bd0"/><path d="m4.12 6v-.93l.7-.37v.93z" fill="#135ba8"/><path d="m4.12 5.07-.7-.37v.93l.7.37z" fill="#1c4594"/><path d="m4.12 4.33-.7.37.7.37.7-.37z" fill="#228bd0"/></svg>