<svg height="18" width="18" xmlns="http://www.w3.org/2000/svg"><path d="m0 0h18v18h-18z" fill="#ad1bac"/><path d="m10.043 8.044c0 1.479-1.489 2.64-2.926 2.05a2.005 2.005 0 0 1 -1.11-1.132c-.332-.823-.189-1.92.445-2.558.576-.578 1.505-.727 2.25-.416.84.352 1.341 1.154 1.341 2.056zm3.957 5.455c-1.839-.027-3-1.066-3-3.474v-5.025h-1v.995c-.558-.686-1.358-1.1-2.252-1.1-1.19 0-2.268.738-2.738 1.822-.516 1.186-.267 2.745.677 3.641.742.707 1.865 1.011 2.856.719.601-.177 1.077-.57 1.463-1.052 0 1.775.472 2.881 1.403 3.67.63.534 1.624.82 2.591.83z" fill="#fff"/></svg>