<svg height="18" width="18" xmlns="http://www.w3.org/2000/svg" xmlns:xlink="http://www.w3.org/1999/xlink"><linearGradient id="a" gradientUnits="userSpaceOnUse" x1="3.35" x2="21.9" y1="3.12" y2="24.43"><stop offset="0" stop-color="#1a1e21"/><stop offset="1" stop-color="#06060a"/></linearGradient><path d="m0 0h18v18h-18z" fill="url(#a)"/><path d="m11.3 8.84c.12-.07.53-.23 1.23-.21.89.02 1.43.53 1.47 1.16v2.21h-.75v-.18c-.1.07-.43.18-.72.18-.42 0-1.53-.08-1.53-1.03 0-.99 1.12-1.13 1.53-1.13.2 0 .47 0 .72.05 0-.33-.29-1-1.94-.49v-.56zm1.95 1.54v.65c-.02.13-.17.41-.68.45-.62.06-.82-.3-.82-.52s.11-.58.56-.58z" fill="#fff" fill-rule="evenodd"/><path d="m8.33 5.79c.43 0 .83.12 1.17.35a2.36 2.36 0 1 0 -2.22 4.1v-.26a2.25 2.25 0 0 1 -1.12-1.96 2.2 2.2 0 0 1 2.17-2.22z" fill="#fad13e"/><path d="m9.49 9.83a2.09 2.09 0 1 0 -3.06-1.05 1.91 1.91 0 0 1 1.86-2.34 1.9 1.9 0 0 1 1.2 3.39z" fill="#fad13e"/><path d="m10.17 6.33 3.01-1.7-2.65 2.18zm-2.07-.93.63-3.4-.03 3.44-.6-.03zm-2.08.98-2.18-2.7 2.6 2.27zm-.56 2.22-3.46-.13 3.4-.49.06.6zm1.34 1.8-2.28 2.6 1.8-2.94.5.34zm2.4-4.8 1.55-2.11-1.05 2.4zm-2.27 0-.65-2.53 1.2 2.34-.55.2zm-1.46 1.83-2.37-1.08 2.57.53-.19.55zm.48 2.29-2.38 1.07 2.1-1.57z" fill="#009bdb"/><path d="m7 7.77v4.23h.74v-3.6h1.24c.22-.01.66.1.68.63.02.52-.45.65-.68.68h-.72l-.31.53h.55l1.33 1.76h.92l-1.27-1.69c.77-.24.94-.95.93-1.28a1.23 1.23 0 0 0 -1.3-1.26z" fill="#fff"/></svg>