<svg height="18" viewBox="0 0 18 18" width="18" xmlns="http://www.w3.org/2000/svg" xmlns:xlink="http://www.w3.org/1999/xlink"><linearGradient id="a" gradientUnits="userSpaceOnUse" x1="4" x2="11.97" y1="7.75" y2="11.34"><stop offset="0" stop-color="#231f20"/><stop offset=".4" stop-color="#767475"/><stop offset=".75" stop-color="#b9b9b9"/></linearGradient><linearGradient id="b" gradientUnits="userSpaceOnUse" x1="7.13" x2="11.81" y1="9.55" y2="6.81"><stop offset="0" stop-color="#c1c1c1"/><stop offset=".25" stop-color="#615f60"/><stop offset=".52" stop-color="#353132"/><stop offset=".77" stop-color="#696969"/><stop offset="1" stop-color="#cbcbcb"/></linearGradient><linearGradient id="c" gradientUnits="userSpaceOnUse" x1="7.25" x2="11.3" y1="11.34" y2="8.35"><stop offset="0" stop-color="#252324"/><stop offset=".55" stop-color="#858384"/><stop offset="1" stop-color="#c8c8c8"/></linearGradient><path d="m0 0h18v18h-18z" fill="#f0f3fa"/><path d="m13.59 7.01a4.53 4.53 0 1 0 -4.19 6.97l-.4.02a5 5 0 1 1 4.59-6.99z" fill="url(#a)"/><path d="m12.08 7.17a2.81 2.81 0 0 0 -3.97 3.97 2.8 2.8 0 1 1 3.97-3.97z" fill="url(#b)"/><path d="m10 8v6h1v-2.5l.95 2.5h1.05l-1-2.5c1-.5 1-.97 1-1.75 0-1.26-1.2-1.75-1.95-1.75zm1 1v1.5h.04c.32 0 .96 0 .96-.75 0-.76-.79-.75-.98-.75z" fill="#881a1b" fill-rule="evenodd"/><path d="m10 12.43h-.22a3.28 3.28 0 1 1 .08-6.55 3.13 3.13 0 0 0 .14 6.24z" fill="url(#c)"/></svg>