<svg height="18" viewBox="0 0 18 18" width="18" xmlns="http://www.w3.org/2000/svg"><path d="m0 0h18v18h-18z" fill="#f0f3fa"/><path d="m12.26 6.38a1.4 1.4 0 0 1 .84-1.27 1.36 1.36 0 0 1 1.5.3 1.39 1.39 0 0 1 -.97 2.36c-.37 0-.71-.15-.97-.4a1.4 1.4 0 0 1 -.4-.99z"/><path d="m3 6.38a1.4 1.4 0 0 1 .85-1.27 1.36 1.36 0 0 1 1.5.3 1.39 1.39 0 0 1 -.98 2.36c-.36 0-.71-.15-.97-.4a1.4 1.4 0 0 1 -.4-.99zm3.09 0a1.4 1.4 0 0 1 .84-1.27 1.36 1.36 0 0 1 1.5.3 1.39 1.39 0 0 1 -.97 2.36c-.37 0-.72-.15-.97-.4a1.4 1.4 0 0 1 -.4-.99zm6.17 3.12a1.4 1.4 0 0 1 .84-1.28 1.36 1.36 0 0 1 1.5.3 1.39 1.39 0 0 1 -.97 2.36c-.37 0-.71-.14-.97-.4a1.4 1.4 0 0 1 -.4-.98z" fill="#c3c5c7"/><path d="m9.17 6.38a1.4 1.4 0 0 1 .85-1.27 1.36 1.36 0 0 1 1.5.3 1.39 1.39 0 0 1 -.98 2.36c-.36 0-.71-.15-.97-.4a1.4 1.4 0 0 1 -.4-.99z" fill="#b4121b"/><path d="m9.17 9.5a1.4 1.4 0 0 1 .85-1.28 1.36 1.36 0 0 1 1.5.3 1.39 1.39 0 0 1 -.98 2.36c-.36 0-.7-.14-.97-.4a1.4 1.4 0 0 1 -.4-.98z" fill="#faaf3f"/><path d="m6.09 12.62a1.4 1.4 0 0 1 .84-1.28 1.36 1.36 0 0 1 1.5.3 1.39 1.39 0 0 1 -.97 2.36 1.36 1.36 0 0 1 -1.27-.85 1.4 1.4 0 0 1 -.1-.53z" fill="#c3c5c7"/><path d="m9.17 12.62a1.4 1.4 0 0 1 .85-1.28 1.36 1.36 0 0 1 1.5.3 1.39 1.39 0 0 1 -.98 2.36c-.36 0-.71-.15-.97-.4a1.4 1.4 0 0 1 -.4-.98z" fill="#00843f"/></svg>