<svg height="18" viewBox="0 0 18 18" width="18" xmlns="http://www.w3.org/2000/svg"><path d="m0 0h18v18h-18z" fill="#f0f3fa"/><path d="m11.54 13a2.63 2.63 0 0 1 -2.29 1.22c-1 0-1.84-.49-2.29-1.22h-.96c.51 1.19 1.77 2 3.25 2s2.74-.81 3.25-2z" fill="#56be91"/><path d="m9.14 8.67a1.79 1.79 0 0 1 -1.84-1.78c0-1 .82-1.72 1.84-1.72 1.05 0 1.92.71 1.92 1.72 0 1-.87 1.78-1.92 1.78zm3.36 3.33a3.69 3.69 0 0 0 -1.42-2.81 2.8 2.8 0 0 0 1.24-2.3c0-1.63-1.42-2.89-3.18-2.89-1.7 0-3.07 1.2-3.14 2.76v5.24h1.3v-2.64c.92.46 1.9.32 2.63.66s1.25.95 1.25 1.98z" fill="#463966"/></svg>