<svg height="18" viewBox="0 0 18 18" width="18" xmlns="http://www.w3.org/2000/svg"><path d="m0 0h18v18h-18z" fill="#f0f3fa"/><path d="m9.03 5.2-5.96.83a.98.98 0 0 0 -.87.97v4.12c0 .49.38.9.88.96l5.95.73 5.89-.73c.5-.06.88-.47.88-.96v-4.13c0-.48-.37-.89-.87-.96z"/><g fill="#fecc0c"><path d="m9.03 5 5.93.84c.6.08 1.04.58 1.04 1.15v4.12c0 .58-.45 1.08-1.06 1.15l-5.91.74-5.97-.74a1.18 1.18 0 0 1 -1.06-1.15v-4.12c0-.57.44-1.07 1.04-1.15zm0 .4-5.93.83c-.4.05-.7.38-.7.76v4.12c0 .39.3.72.71.77l5.92.73 5.86-.73c.4-.05.7-.38.7-.77v-4.12c0-.38-.29-.7-.69-.77z"/><path d="m9 10.47.2.46.51.04-.39.32.12.47-.43-.25-.44.25.12-.47-.38-.32.5-.04.2-.46z"/><path d="m13.96 9.9a43 43 0 0 0 -10.08 0l-.26-1.98c1.78-.24 6.35-.57 10.6 0z" fill-opacity=".9"/></g></svg>