<svg height="18" viewBox="0 0 18 18" width="18" xmlns="http://www.w3.org/2000/svg"><path d="m0 0h18v18h-18z" fill="#f0f3fa"/><path d="m4.5 7c0-2 1.7-2.83 2.56-3a3.18 3.18 0 0 0 -2.19 3 2.79 2.79 0 0 0 2.16 2.77v-2.8h.28v3.25c-.47-.03-2.81-.73-2.81-3.22z" fill="#f00"/><path d="m7.31 14h.12c.02-.15.11-.45.27-.5v-.17c-.04-.02-.11-.06-.11-.14s.12-.15.18-.18v-6.16h4.38c.06 1.01-.42 3.03-2.88 3.04-.05 0-.1.03-.1.08v.07l.03.06 3.97 3.73h-1.65l-2.77-3.73c-.04-.07-.15-.03-.15.05v2.7a.06.06 0 0 0 -.06.06c0 .03.03.04.06.07.05.04.12.1.12.2 0 .17-.01.2-.15.32v.07c.07.04.21.17.26.33h-1.13v.1h1.3v-.11c-.03-.1-.13-.33-.24-.4a.61.61 0 0 0 .1-.31.61.61 0 0 0 -.14-.33v-2.55l2.64 3.7h2.14v-.12l-4.07-3.8c1.05 0 3.09-.63 2.9-3.3a.09.09 0 0 0 -.08-.08h-4.54a.08.08 0 0 0 -.09.09v6.1c-.06.03-.2.14-.2.29s.11.24.17.26c-.1.05-.28.23-.28.56zm1.42-4.33c.77-.1 2.27-.77 2.21-2.61 0-.05.04-.09.09-.09h.85c.05 0 .09.04.09.08-.04.99-.72 2.77-3.24 2.62zm-.24 4.09h-.75c.04-.18.1-.33.13-.4a.28.28 0 0 1 -.11-.22c0-.09.04-.17.11-.22v-5.94h.47v5.93c.08.05.13.14.13.23 0 .1-.05.18-.13.23.1.16.14.32.15.39zm.17-4.38v-.24l.03-.03c.09-.02.2-.05.31-.11v-1.98l.02-.02h.24l.02.03v1.8c.37-.32.72-.88.73-1.82 0-.01.01-.03.03-.03h.32c.02 0 .03.02.03.03-.01 1.7-1.11 2.3-1.7 2.4a.03.03 0 0 1 -.03-.02z" fill="#283c92"/><path d="m11.64 13.78-2.92-3.96 4.1 3.96z" fill="#fa1d2e"/><path d="m5.7 6.76c0 .42.18.89.26 1.07-.05-.66-.03-.48-.03-1.07 0-.73.97-2.1 2.58-2.1 1.28 0 2.07.9 2.3 1.34h1.08a3.35 3.35 0 0 0 -3-2 3 3 0 0 0 -3.18 2.76z" fill="#ea1825"/></svg>