<svg height="18" viewBox="0 0 18 18" width="18" xmlns="http://www.w3.org/2000/svg"><path d="m6.38 6.2c-.5-.11-.96.32-1.13.55a4.4 4.4 0 0 0 -.25 1.38c-.01.82.21 1.48.38 1.78.1-.44.7-.55 1-.55.3-.33 1.12-.41 1.5-.41.8-.44 1.83-.18 2.25 0 .8-.11 1.33.23 1.5.41.7 0 .96.37 1 .55.25-.55.37-1.23.37-1.78s-.16-1.09-.25-1.38c-.3-.55-.87-.6-1.12-.55-.3-.55-1.21-.6-1.63-.55-.7-.44-1.62-.18-2 0-.87-.14-1.42.28-1.62.55z" fill="#fafcfb"/><path d="m6.38 6.2c-.6 0-1 .37-1.13.55a3.35 3.35 0 0 1 1.5-2.06c-.37.41-.37 1.19-.37 1.51zm5.25 0c.6 0 1 .37 1.12.55a3.35 3.35 0 0 0 -1.5-2.06c.38.41.38 1.19.38 1.51z" fill="#a21420"/><path d="m8 5.65c-.9-.11-1.46.32-1.62.55-.1-.99.2-1.42.37-1.51.2-.44 1-.55 1.38-.55-.1.44-.13 1.19-.13 1.51zm2 0c.9-.11 1.46.32 1.63.55.1-.99-.21-1.42-.38-1.51-.2-.44-1-.55-1.37-.55.1.44.12 1.19.12 1.51z" fill="#c8162c"/><path d="m10 5.65c-.7-.44-1.62-.18-2 0 0-.66.08-1.28.13-1.51.07-.05.37-.14.87-.14s.8.1.88.14c.1.33.12 1.14.12 1.51z" fill="#d71e2c"/><path d="m9 14.45h-.5l.25.55h.25z" fill="#404040"/><path d="m9.5 14.45h-.5v.55h.25z" fill="#616065"/><path d="m8.75 13.9h-.25c-.7-.44-2.37-2.84-3.12-3.99.1-.44.7-.55 1-.55.2 1 1.66 3.44 2.37 4.54zm.5 0h.25c.7-.44 2.38-2.84 3.13-3.99-.1-.44-.71-.55-1-.55-.2 1-1.67 3.44-2.38 4.54z" fill="#062f6f"/><path d="m7.88 8.95c-.7-.11-1.3.23-1.5.41.2 1.1 1.66 3.49 2.37 4.54-.37-.83-.79-3.62-.87-4.95zm2.25 0c.7-.11 1.25.14 1.5.41-.2 1.1-1.67 3.49-2.38 4.54.25-.83.8-3.62.88-4.95z" fill="#00368c"/><path d="m9 8.67c-.6 0-1 .19-1.12.28.1 2.53.37 3.99.87 4.95h.5c.63-1.1.8-3.67.88-4.95-.13-.1-.53-.28-1.13-.28z" fill="#003ea5"/></svg>