<svg height="18" width="18" xmlns="http://www.w3.org/2000/svg"><path d="m0 0h18v18h-18z" fill="#222c65"/><path d="m4 6c0-1.1.9-2 2-2h6a2 2 0 0 1 2 2v6a2 2 0 0 1 -2 2h-6a2 2 0 0 1 -2-2z" fill="#fedc00"/><path d="m6.5 5c-.83 0-1.5.67-1.5 1.5v5c0 .83.67 1.5 1.5 1.5h5c.83 0 1.5-.67 1.5-1.5v-5c0-.83-.67-1.5-1.5-1.5zm.71 1.5-.85 5h1.64l.32-1.83h.68c.49-.02.67.27.64.5l-.01.05c-.06.34-.17 1.02-.16 1.28h1.59c-.04-.24 0-.45.05-.71.04-.2.08-.43.11-.72a.88.88 0 0 0 -.6-.92 1.75 1.75 0 0 0 1.02-1.56c0-.9-1.1-1.1-1.65-1.09zm1.3 2 .2-1h.77c.42 0 .54.27.55.4 0 .47-.48.6-.71.6h-.8z" fill="#222c65" fill-rule="evenodd"/></svg>