<svg height="18" viewBox="0 0 18 18" width="18" xmlns="http://www.w3.org/2000/svg"><path d="m0 0h18v18h-18z" fill="#f0f3fa"/><path d="m9 10.83v-1.83l1.56.92z" fill="#8b2489"/><path d="m7.44 9.92 1.56-.92v1.83z" fill="#2e519e"/><path d="m10.56 9.92-1.56-.92 1.56-.92z" fill="#e5202a"/><path d="m7.44 8.08 1.56.92-1.56.92z" fill="#2aace4"/><path d="m9 9v-1.83l1.56.91z" fill="#f1bd12"/><path d="m7.44 8.08 1.56-.91v1.83z" fill="#a3d326"/><path d="m9 12v3l-1.25-2.25z" fill="#4753aa"/><path d="m9 12v3l1.25-2.25z" fill="#4e3297"/><path d="m9 15-2.5-1.5 1.25-.75z" fill="#2952a4"/><path d="m9 15 2.5-1.5-1.25-.75z" fill="#8c258a"/><path d="m7.75 12.76-1.25-2.26 2.5 1.5z" fill="#3d64b2"/><path d="m10.25 12.76 1.25-2.26-2.5 1.5z" fill="#ad2c95"/><path d="m6.5 13.5v-3l1.25 2.25z" fill="#2563b2"/><path d="m11.5 13.5v-3l-1.25 2.25z" fill="#d21381"/><path d="m6.5 13.5-2.5-1.5 1.24-.74z" fill="#3386b7"/><path d="m6.5 10.5-1.26.76 1.26 2.24z" fill="#2c91d1"/><path d="m11.5 13.5 2.5-1.5-1.24-.74z" fill="#e51c86"/><path d="m11.5 10.5 1.26.76-1.26 2.24z" fill="#d61070"/><path d="m5.24 11.26 1.26-.76-2.5-1.43z" fill="#37b9ef"/><path d="m12.76 11.26-1.26-.76 2.5-1.43z" fill="#e60988"/><path d="m4 12 1.24-.74-1.24-2.2z" fill="#2aace2"/><path d="m14 12-1.24-.74 1.24-2.2z" fill="#e71c7a"/><path d="m6.5 10.5-2.5-1.43 1.37-.84z" fill="#4cbdc4"/><path d="m11.5 10.5 2.5-1.43-1.37-.84z" fill="#e81855"/><path d="m6.5 10.5v-2.97l-1.13.7z" fill="#5dc6a7"/><path d="m11.5 10.5v-2.97l1.13.7z" fill="#eb3e36"/><path d="m4 9.07v-3.07l1.37 2.23z" fill="#3fa87e"/><path d="m14 9.07v-3.07l-1.37 2.23z" fill="#e5202a"/><path d="m4 6h2.5v1.53l-1.13.7z" fill="#3eb04c"/><path d="m14 6-2.5 1.53 1.13.7z" fill="#e7322b"/><path d="m14 6h-2.5v1.53z" fill="#eb4a2c"/><path d="m6.5 6h2.5l-2.5 1.53z" fill="#a1d428"/><path d="m11.5 6h-2.5l2.5 1.53z" fill="#eb6f30"/><path d="m6.5 6h-2.5l2.5-1.5z" fill="#60c148"/><path d="m11.5 6h2.5l-2.5-1.5z" fill="#f4aa24"/><path d="m9 6h-2.5v-1.5z" fill="#c2dd1a"/><path d="m9 6h2.5v-1.5z" fill="#f4ba17"/><path d="m9 4.5v1.5l-2.5-1.5z" fill="#f0e515"/><path d="m9 4.5v1.5l2.5-1.5z" fill="#fac507"/><path d="m9 4.5h-2.5l2.5-1.5z" fill="#fef100"/><path d="m9 4.5h2.5l-2.5-1.5z" fill="#f8bd12"/></svg>