<svg height="18" viewBox="0 0 18 18" width="18" xmlns="http://www.w3.org/2000/svg"><path d="m0 0h18v18h-18z" fill="#f0f3fa"/><path d="m9 7h-3.07c-.34-.02-.95.44-.93.76v4.24h-1v-3.98c0-.23.03-.45.09-.67.05-.18.13-.35.24-.52a1.72 1.72 0 0 1 .75-.64 2.01 2.01 0 0 1 .84-.19h3.08z" fill="#601d72"/><path d="m15 6c-.14.5-.3 1-.48 1.5-.18.48-.39.95-.63 1.4-.23.44-.5.85-.8 1.24-.28.37-.6.7-.97.98-.35.27-.74.49-1.15.64-.44.16-.9.24-1.36.24a.53.53 0 0 1 -.24-.06.62.62 0 0 1 -.2-.15.7.7 0 0 1 -.12-.23.82.82 0 0 1 -.05-.28v-5.28h1v4.88c2.17 0 3.47-3.06 3.9-4.88z" fill="#e50019"/></svg>