<svg height="18" viewBox="0 0 18 18" width="18" xmlns="http://www.w3.org/2000/svg"><path d="m0 0h18v18h-18z" fill="#f0f3fa"/><path d="m14 5h-10v8h10zm-5.31 7 1.97-5v4.18a5.19 5.19 0 0 0 0 .18c-.1.33-.42.42-.72.39h-.01v.25h2.85v-.23c-.3.01-.71-.13-.78-.47v-4.5c0-.4.45-.6.78-.6v-.2h-2.1l-1.67 4.15-1.67-4.15h-2.11-.01v.2c.28 0 .79.1.77.48v4.53c.02.22-.13.4-.32.48-.14.06-.3.08-.46.07v.24h1.95v-.22c-.11 0-.22-.01-.33-.04-.24-.06-.5-.3-.5-.52v-4.42l2.06 5.2h.28z" fill="#0579c5" fill-rule="evenodd"/></svg>