<svg height="18" width="18" xmlns="http://www.w3.org/2000/svg"><path d="m0 0h18v18h-18z" fill="#a2292c"/><path d="m12.902 13.485c-.142-.07-.32-.172-.747-.86l-.855-1.34-.996-1.58-.072-.138c.036 0 .107-.034.143-.034 1.139-.378 1.815-1.375 1.815-2.818 0-.722-.285-1.375-.854-1.856-.071-.069-.178-.137-.25-.206-.781-.481-1.586-.653-3.166-.653h-2.956c-.142 0-.178.103-.107.172.072.069.143.172.143.447v7.728c-.036.31-.107.412-.143.481-.07.069-.035.172.143.172h2v-3h1.097l1.352 2.076.356.618c.427.687.819 1.134 1.495 1.237.071 0 .427.069.57.069h.142c.285 0 .57-.103.748-.172 0 0 .035-.034.07-.034.25-.138.179-.275.072-.31zm-4.461-5.485h-1.441v-2h1.452c.994 0 1.815 0 1.815 1 0 .412-.047 1-1.827 1z" fill="#fff"/></svg>