<!-- by TradingView --><svg width="18" height="18" viewBox="0 0 18 18" xmlns="http://www.w3.org/2000/svg"><path fill="#F0F3FA" d="M0 0h18v18H0z"/><path d="M7.14 13.77a.5.5 0 0 1-.32-.12l-2.66-2.21a.44.44 0 0 1-.15-.42.45.45 0 0 1 .29-.34l3.95-1.45a.36.36 0 0 1 .36.07c.1.09.14.22.1.35l-1.09 3.76a.5.5 0 0 1-.48.36Zm-2.78-2.93a.27.27 0 0 0-.08.46l2.65 2.22a.33.33 0 0 0 .52-.16L8.54 9.6a.17.17 0 0 0-.05-.17.18.18 0 0 0-.18-.04l-3.95 1.45Z" fill="#5ACDEC"/><path d="M7.26 13.74a.47.47 0 0 1-.36-.17l-2.52-3.01a.5.5 0 0 1-.1-.5c.06-.17.21-.3.4-.33l4.3-.82c.15-.02.3.03.4.16.1.12.12.28.05.42L7.7 13.46a.46.46 0 0 1-.43.28ZM4.7 9.9a.33.33 0 0 0-.26.22.32.32 0 0 0 .07.33l2.52 3.01a.29.29 0 0 0 .48-.07l1.75-3.98a.23.23 0 0 0-.03-.24.24.24 0 0 0-.23-.08l-4.3.81Z" fill="#40B9D3"/><path d="M7.35 13.75a.43.43 0 0 1-.37-.21L4.6 9.64a.45.45 0 0 1-.01-.46.47.47 0 0 1 .4-.24l4.83-.13c.15 0 .27.06.34.19.08.12.07.26 0 .38l-2.43 4.15a.43.43 0 0 1-.37.22ZM5 9.03v.08c-.1 0-.2.06-.25.15-.05.1-.04.2.01.3l2.38 3.89c.05.08.13.12.22.12.1 0 .18-.05.22-.12l2.44-4.16a.2.2 0 0 0 0-.2.2.2 0 0 0-.18-.1l-4.84.12v-.08Z" fill="#80B5C1"/><path d="M7.34 13.77h-.05a.4.4 0 0 1-.33-.25l-2-4.62a.47.47 0 0 1 .05-.48.5.5 0 0 1 .46-.2l5.11.52c.15.01.28.1.33.24.06.13.04.28-.05.4l-3.2 4.22a.4.4 0 0 1-.32.17ZM5.4 8.39c-.1 0-.2.05-.25.13a.3.3 0 0 0-.03.31l2 4.63c.03.07.1.12.18.13.08 0 .16-.02.2-.09l3.2-4.23a.22.22 0 0 0 .04-.22.22.22 0 0 0-.19-.14L5.45 8.4H5.4Z" fill="#86A0A1"/><path d="M7.46 13.81H7.4a.37.37 0 0 1-.3-.24L5.1 8.3a.53.53 0 0 1 .1-.54.55.55 0 0 1 .53-.18l5.55 1.19a.4.4 0 0 1 .3.26.4.4 0 0 1-.07.4l-3.75 4.26a.38.38 0 0 1-.29.13ZM5.6 7.74c-.1 0-.2.04-.28.12-.09.1-.11.24-.06.37l2.01 5.28a.2.2 0 0 0 .16.12.2.2 0 0 0 .18-.06l3.75-4.27a.22.22 0 0 0 .05-.22.23.23 0 0 0-.17-.15L5.69 7.74a.4.4 0 0 0-.09 0Z" fill="#999388"/><path d="m7.5 13.84-.1-.01a.35.35 0 0 1-.24-.25L5.5 7.52a.45.45 0 0 1 .14-.46c.12-.12.3-.16.47-.1l5.78 1.82c.16.05.28.18.32.34.04.16-.01.32-.13.44l-4.33 4.18a.35.35 0 0 1-.25.1ZM5.96 7.1a.3.3 0 0 0-.2.08.28.28 0 0 0-.08.28l1.65 6.07c.02.06.06.1.12.12.06.01.13 0 .17-.05l4.33-4.18c.08-.07.1-.17.08-.27a.3.3 0 0 0-.2-.21L6.06 7.12a.3.3 0 0 0-.09-.01Z" fill="#BE7D5E"/><path d="M7.56 13.82a.4.4 0 0 1-.13-.02.38.38 0 0 1-.26-.29l-1.4-6.8a.38.38 0 0 1 .13-.38.4.4 0 0 1 .4-.06l6.27 2.55a.45.45 0 0 1 .13.78L7.8 13.73a.4.4 0 0 1-.25.09Zm-1.41-7.4c-.05 0-.1.02-.13.05a.2.2 0 0 0-.08.2l1.4 6.8a.2.2 0 0 0 .15.16c.07.03.15.01.2-.04l4.9-4.13a.28.28 0 0 0 .09-.26.29.29 0 0 0-.18-.22L6.23 6.44a.22.22 0 0 0-.08-.02Z" fill="#BE7D5E"/><path d="M7.56 13.86c-.04 0-.09-.01-.13-.03a.35.35 0 0 1-.23-.28L6.06 6.1c-.03-.2.06-.4.23-.51a.55.55 0 0 1 .56-.04l6.4 3.19a.53.53 0 0 1 .08.89l-5.55 4.15a.37.37 0 0 1-.22.08ZM6.24 6.08l1.14 7.45c.01.06.05.11.11.14.06.02.13.01.18-.03l5.55-4.15a.35.35 0 0 0-.06-.6L6.77 5.7a.37.37 0 0 0-.38.03.35.35 0 0 0-.15.35Z" fill="#CF714A"/><path d="M7.59 13.87a.38.38 0 0 1-.16-.03.36.36 0 0 1-.2-.3L6.3 5.36c-.02-.2.08-.4.25-.52.18-.1.4-.11.59 0l6.71 3.96a.56.56 0 0 1 .03.95l-6.09 4.07a.37.37 0 0 1-.2.06Zm-.74-8.95a.38.38 0 0 0-.2.06.36.36 0 0 0-.17.35l.92 8.2c0 .06.05.12.1.15.07.02.14.02.2-.02l6.08-4.06a.39.39 0 0 0-.02-.66L7.04 4.98a.38.38 0 0 0-.19-.06Z" fill="#DF6234"/><path d="M7.33 14a.6.6 0 0 1-.28-.07.56.56 0 0 1-.3-.5V4.55c0-.2.1-.38.29-.48.19-.1.4-.1.59.02l7.15 4.54c.14.08.22.23.22.38 0 .16-.08.3-.22.39l-7.13 4.5a.6.6 0 0 1-.32.1Zm-.01-9.82a.4.4 0 0 0-.2.04c-.12.07-.2.2-.2.33v8.88c0 .14.08.27.21.34.14.08.3.07.43-.01l7.13-4.5a.28.28 0 0 0 0-.48L7.53 4.24a.4.4 0 0 0-.21-.06Z" fill="#EF4F22"/></svg>