<svg height="18" viewBox="0 0 18 18" width="18" xmlns="http://www.w3.org/2000/svg"><path d="m0 0h18v18h-18z" fill="#f0f3fa"/><path d="m10.76 9.55c-.17.6-.28.93-.71.91l1.1-3.96h-1.22l-1.1 3.96h-.46l.63-2.4h-1.07c-.16 0-.2.17-.24.32l-.88 3.12h2.6c1.06 0 1.97.18 2.35-1.18l.8-2.89c.21.53.44 1.1.44 1.7a4.66 4.66 0 0 1 -6.45 4.22 5 5 0 0 0 5.47-8.35l-1.26 4.54z" fill="#dd1d25"/><path d="m7.24 8.48c.17-.61.18-.73.64-.73h1.22l.4-1.25h-.9c-1.07 0-2-.15-2.37 1.21l-.79 2.87a4.66 4.66 0 0 1 -.44-1.72 4.66 4.66 0 0 1 6.45-4.2 5 5 0 0 0 -5.45 8.34l1.25-4.52z" fill="#100f0d"/></svg>