<svg fill="none" height="18" width="18" xmlns="http://www.w3.org/2000/svg"><path d="m0 0h18v18h-18z" fill="#f0f3fa"/><path d="m13.793 6.602c0 .62-.482 1.122-1.077 1.122s-1.077-.502-1.077-1.122.482-1.122 1.077-1.122 1.077.502 1.077 1.122z" fill="#292f7d"/><ellipse cx="10.815" cy="5.238" fill="#815473" rx=".824" ry=".858"/><path d="m9.752 4.717c0 .43-.334.778-.746.778s-.746-.348-.746-.778c0-.429.334-.777.746-.777s.746.348.746.777zm-1.951.323a.65.65 0 0 1 -.637.663.65.65 0 0 1 -.636-.663.65.65 0 0 1 .636-.663.65.65 0 0 1 .637.663zm-1.516 1.26c0 .33-.257.597-.573.597a.585.585 0 0 1 -.573-.597c0-.33.257-.597.573-.597s.573.267.573.597z" fill="#815473"/><path d="m4.13 11.242c0-.655.51-1.186 1.139-1.186s1.139.531 1.139 1.187c0 .655-.51 1.186-1.14 1.186-.628 0-1.138-.531-1.138-1.187z" fill="#292f7d"/><g fill="#815473"><ellipse cx="7.279" cy="12.685" rx=".871" ry=".907" transform="matrix(-1 -0 0 -1 14.558 25.37)"/><path d="m8.403 13.235c0-.454.353-.822.789-.822s.789.368.789.822-.353.822-.79.822c-.435 0-.788-.368-.788-.822zm2.063-.341c0-.387.301-.701.673-.701s.673.314.673.701a.688.688 0 0 1 -.673.701.688.688 0 0 1 -.673-.701zm1.603-1.332c0-.348.271-.63.605-.63.335 0 .606.282.606.63s-.271.63-.605.63a.619.619 0 0 1 -.606-.63z"/></g></svg>