<svg height="18" width="18" xmlns="http://www.w3.org/2000/svg"><path d="m0 0h18v18h-18z" fill="#2f6745"/><g fill="#fff"><path d="m5.43 4.939c.393-.55 1.083-.901 1.763-.939h3.538c-.542 0-1.044.17-1.438.484-.474.35-1.214.922-1.293 1.481v9.035c-1.153-.521-1.88-1.13-2.995-1.69v-7.14c-.039-.436.138-.853.424-1.232z"/><path d="m10.544 4.521c.463-.066.936 0 1.37.209.542.275.897.758 1.045 1.346.108.522 0 1.072-.286 1.527a2.224 2.224 0 0 1 -1.4.862c-.364.038-.758 0-1.113-.142a2.083 2.083 0 0 1 -1.114-1.071c-.256-.588-.217-1.318.178-1.84.275-.473.778-.786 1.32-.89z"/></g></svg>