<svg fill="none" height="18" width="18" xmlns="http://www.w3.org/2000/svg"><path d="m0 0h18v18h-18z" fill="#14467a"/><path d="m7.786 10.35c-1.03-.961-.82-2.11-.587-2.563 0 .856.824 1.672 1.228 2.03a45.007 45.007 0 0 0 2.566 2.07c1.062.788 1.693 1.687 1.876 2.038h-.69c-.32-.332-1.086-.939-1.414-1.19-.617-.473-1.95-1.425-2.979-2.386z" fill="#21aa89"/><path d="m8.483 8.822c-1.63-1.793-.68-2.628 0-2.822-.57.573-.123 1.393.173 1.772.354.455 1.357 1.523 2.557 2.338 1.2.816 1.659 1.755 1.738 2.123v1.68h-.06c-.05-.515-.437-1.774-1.592-2.685-1.12-.883-2.643-2.215-2.816-2.406z" fill="#21aa89"/><path d="m5.5 4.5h7v8.975h-7z" stroke="#fff"/></svg>