<svg height="18" viewBox="0 0 18 18" width="18" xmlns="http://www.w3.org/2000/svg"><path d="m0 0h18v18h-18z" fill="#f0f3fa"/><path d="m3 6h1v6h-1z" fill="#0094b5"/><circle cx="6" cy="7" fill="#0094b5" r="1"/><circle cx="8" cy="7" fill="#f9941c" r="1"/><circle cx="8" cy="11" fill="#f9941c" r="1"/><path d="m14.99 9.5c.08-1.18-.29-3.5-2.4-3.5-1.7 0-2.59 1.67-2.59 3.01 0 1.49.83 2.99 2.7 2.99 1.04 0 1.7-.44 1.9-.65l-.52-.77c-.15.16-.65.42-1.37.42-1.21 0-1.65-1.15-1.71-1.5zm-3.99-1h3c-.08-.44-.28-1.5-1.34-1.5-1.16 0-1.57 1.06-1.66 1.5z" fill="#0faf4b" fill-rule="evenodd"/></svg>