<!-- by TradingView --><svg width="18" height="18" viewBox="0 0 18 18" xmlns="http://www.w3.org/2000/svg"><path fill="#F0F3FA" d="M0 0h18v18H0z"/><path fill="#0094B5" d="M3 6h1v6H3z"/><circle cx="6" cy="7" r="1" fill="#0094B5"/><circle cx="8" cy="7" r="1" fill="#F9941C"/><circle cx="8" cy="11" r="1" fill="#F9941C"/><path fill-rule="evenodd" d="M14.99 9.5c.08-1.18-.29-3.5-2.4-3.5C10.89 6 10 7.67 10 9.01c0 1.49.83 2.99 2.7 2.99 1.04 0 1.7-.44 1.9-.65l-.52-.77c-.15.16-.65.42-1.37.42-1.21 0-1.65-1.15-1.71-1.5h3.99ZM11 8.5h3c-.08-.44-.28-1.5-1.34-1.5C11.5 7 11.09 8.06 11 8.5Z" fill="#0FAF4B"/></svg>