<svg height="18" viewBox="0 0 18 18" width="18" xmlns="http://www.w3.org/2000/svg"><path d="m0 0h18v18h-18z" fill="#f0f3fa"/><path d="m9 3-1.31 6.26a3.96 3.96 0 0 1 2.62 0z" fill="#7eaf00"/><path d="m16 8.83c-1-.06-1.89-.57-2.42-1.38-.51-.81-.45-2.09.04-2.83-.3.38-.75.66-1.26.72-.43.04-.87-.08-1.2-.32-.38-.21-.8-.36-1.23-.47l.38 1.77a2.75 2.75 0 0 1 1.31 3.77 3 3 0 0 1 -3.93 1.25 2.77 2.77 0 0 1 0-5.04l.38-1.77a6 6 0 0 0 -1.23.47c-.33.26-.77.36-1.2.32a1.87 1.87 0 0 1 -1.26-.72c.49.74.55 2.02.04 2.83a3.08 3.08 0 0 1 -2.42 1.4c.42.06 1.91.51 2.44 1.47.54.96.45 2.1-.22 2.98 1.22-1 3.05-.88 4.11.3.36.4.6.89.67 1.42a2.88 2.88 0 0 1 3.29-2.36c.55.08 1.07.3 1.49.64a2.7 2.7 0 0 1 -.22-2.98c.53-.96 2.02-1.4 2.44-1.47z" fill="#009ebd"/></svg>