<svg height="18" viewBox="0 0 18 18" width="18" xmlns="http://www.w3.org/2000/svg"><path d="m0 0h18v18h-18z" fill="#f0f3fa"/><path d="m3.6 6h3.18c.9 0 1.91.54 1.91 1.55 0 .74-.57 1.27-1.24 1.47l1.04 1.58c.08.13.24.35.5.67.24.32.45.6.62.73h-1.36c-.84 0-1.29-.44-1.68-1.14l-.86-1.48v1.64c0 .4.15.76.45.98h-2.55c.26-.19.39-.55.39-.98v-4.1c0-.42-.13-.73-.4-.92zm2.11.85v2.1c.6-.1 1.16-.57 1.16-1.2 0-.51-.48-.9-.99-.9zm3.92-.85h2.92c.8 0 1.7.43 1.7 1.35 0 .63-.44 1.08-1.01 1.24a1.5 1.5 0 0 1 1.39 1.54c0 1.22-1.05 1.87-2.12 1.87h-2.88c.25-.19.37-.5.37-.93v-4.13c0-.44-.12-.75-.37-.94zm2.05.9v1.4l.21.01c.4 0 .66-.3.66-.81 0-.26-.07-.44-.19-.53a.63.63 0 0 0 -.4-.15.7.7 0 0 0 -.28.06zm0 2.2v1.93c.2.06.37.1.54.1.53 0 .73-.54.73-1.02 0-.55-.3-1.01-.87-1.01z" fill="#002776"/></svg>