<svg height="18" width="18" xmlns="http://www.w3.org/2000/svg"><path d="m0 0h18v18h-18z" fill="#faca22"/><path d="m5 11v2h9v-2h-.4c-.68 0-1.15-.87-1.48-1.48l-.12-.22c.65-.54 1-1.14 1-1.92 0-1.49-1.24-2.38-2.63-2.38h-5.37v2l.5.22v3.51zm6.28-1.45.46.89c.56 1 .86 1.02 1.2 1.05l.06.01v.5h-2.84l-1-4c-.16-.66 1.23-.83 2.26-.9v-.1c-1.66-.74-3.78.13-4.42.42.18.4.37.75.37.75s.33-.18.63-.17c.25.01.5.16.5.6v3.4h-2.5v-.5c.48-.22.5-.43.5-.78v-3.45c0-.42-.07-.58-.5-.77v-.5h4.55c.68 0 1.45.6 1.45 1.42 0 .51-.08 1.25-1 1.58z" fill="#1a1919"/></svg>