<svg height="18" viewBox="0 0 18 18" width="18" xmlns="http://www.w3.org/2000/svg"><path d="m0 0h18v18h-18z" fill="#f0f3fa"/><path d="m13.86 4.01-7.13 2.95c-.59.24-.73.6-.73.85v6.59c0 .07.07.12.15.1l3.3-1.53c.22-.1.55-.33.55-.8v-3.64l3.45-1.29c.32-.14.55-.53.55-1.04v-2.1c0-.09-.06-.13-.14-.1z" fill="#007ec1"/><path d="m6.14 14.48 3.39-1.53c.2-.1.47-.33.47-.8v-3.65l-3.33 1.52c-.56.25-.66.62-.67.9v3.47c0 .07.07.13.14.1z" fill="#00406e"/><path d="m6 10.9c0-.27.11-.64.67-.89l3.33-1.51v.6l-3.33 1.25c-.5.2-.66.56-.67.83v-.26z" fill="#000824"/></svg>