<svg height="18" viewBox="0 0 18 18" width="18" xmlns="http://www.w3.org/2000/svg"><path d="m0 0h18v18h-18z" fill="#0079c2"/><path d="m10.9 11c-.37 0-.76.2-.9.31.57 0 .9.69 1.73.69.84 0 1.17-.48 1.27-.59-.83 0-1.63-.41-2.1-.41zm4.1-.98a3.6 3.6 0 0 0 -2.33-1.02c-.79 0-1.41.3-2 .56-.48.23-.93.44-1.42.44-.56 0-1.12-.29-1.64-.56a3.05 3.05 0 0 0 -1.23-.44 2.3 2.3 0 0 0 -1.38.58c.52 0 1.1.3 1.68.6.6.3 1.2.61 1.75.61s1-.2 1.48-.39c.47-.2.96-.4 1.53-.4.7 0 1.54.38 2.18.67.41.18.75.33.92.33.23 0 .38-.03.46-.06zm0-2.84a2.29 2.29 0 0 0 -.7-.18 2.6 2.6 0 0 0 -1.47.5c-.41.25-.82.5-1.47.5-.63 0-1.1-.25-1.56-.5-.48-.25-.96-.5-1.63-.5-.52 0-1.03.31-1.47.59-.35.22-.67.41-.92.41s-.53-.13-.85-.27c-.4-.19-.85-.4-1.37-.4-.36 0-.98.35-1.37.57l-.19.1c.54 0 .96.21 1.39.42.41.2.82.4 1.33.4.49 0 .84-.19 1.2-.39.38-.21.77-.43 1.37-.43.76 0 1.22.29 1.66.55.37.23.72.45 1.22.45.53 0 1.1-.26 1.67-.5.56-.26 1.1-.5 1.6-.5.63 0 1.2.28 1.56.52z" fill="#f0f3fa"/></svg>