<svg height="18" width="18" xmlns="http://www.w3.org/2000/svg"><path d="m0 0h18v18h-18z" fill="#f80"/><circle cx="9" cy="9" fill="#fff" r="5"/><path d="m8.16 10-.34 2h-1.82l1-6h2.714c.43 0 .818.044 1.12.088 1.261.183 1.683 1.536.86 2.54-.215.263-.473.438-.86.57.493.166.817.386.817.963 0 .491-.172.96-.172 1.445 0 .131.043.219.13.219l-.044.175h-2.023v-.175-.35c0-.132.043-.307.086-.482s.043-.35.043-.482c-.001-.511-.513-.511-.908-.511zm.262-1.416h.775c.301 0 .517-.044.689-.131.578-.339.388-1.052-.388-1.052h-.904z" fill="#0074ae"/></svg>