<svg height="18" viewBox="0 0 18 18" width="18" xmlns="http://www.w3.org/2000/svg"><path d="m0 0h18v18h-18z" fill="#f0f3fa"/><path d="m6 12h6l-.92-2z" fill="#009fe8"/><path d="m3.06 11.26c.46 1.09 3.5.96 6.78-.28 3.28-1.25 5.56-3.15 5.1-4.24s-3.5-.96-6.78.28c-3.28 1.25-5.56 3.15-5.1 4.24zm.98-.59c.36.83 2.58.63 5.46-.45 2.64-.98 4.48-2.36 4.5-3.22a.5.5 0 0 0 -.04-.22c-.36-.82-2.88-.62-5.76.45-2.68 1-4.2 2.27-4.2 3.27 0 .06.02.12.04.17z" fill="#004099" fill-rule="evenodd"/><path d="m9.78 6h-3.78v4.68c.91-.16 3.1-.46 4.56-1.28l-.26-.48c.62-.2 1.07-.76 1.07-1.42 0-.83-.71-1.5-1.6-1.5z" fill="#009fe8"/></svg>