<svg height="18" viewBox="0 0 18 18" width="18" xmlns="http://www.w3.org/2000/svg"><path d="m0 0h18v18h-18z" fill="#f0f3fa"/><path d="m3 6.6v4.7c0 .39.34.7.75.7s.83-.31.83-.7v-1.54l2.87 2.08c.15.1.33.16.51.16.38 0 .71-.24.81-.58l.73-2.52 1.1 2.68c.1.26.38.43.68.43s.58-.18.68-.44l1.05-2.67.75 2.67c.07.26.32.44.6.44.4 0 .7-.34.63-.7l-1.05-4.76a.72.72 0 0 0 -.72-.54c-.3 0-.57.17-.68.43l-1.3 3.14-1.29-3.15a.71.71 0 0 0 -.65-.43.7.7 0 0 0 -.7.53c-.2.95-.66 2.97-.91 4.07l-1.5-1.14c.75-.2 1.55-.69 1.55-1.66 0-1.4-1.25-1.78-1.82-1.8h-2.27c-.35-0-.65.27-.65.6zm1.58.6h.93c.36 0 .65.27.65.6s-.3.6-.65.6h-.93z"/></svg>