<svg height="18" viewBox="0 0 18 18" width="18" xmlns="http://www.w3.org/2000/svg"><path d="m9 6c-2.21 0-6 1-6 3 0 2.18 4.8 3 6 3 1.8 0 6-.6 6-3s-4.25-3-6-3zm2.43 1-.35.14a4.98 4.98 0 0 0 -.4-.41c.27.04.51.15.75.27zm1.64 3.54c.75-.4 1.15-.84 1.28-1.24h-.7c-.06.48-.28.89-.58 1.24zm-.02-1.84h-1.23a2.74 2.74 0 0 0 -.38-1.05c.22-.1.43-.2.6-.3.54.38.9.82 1 1.35zm.6 0a2.34 2.34 0 0 0 -.58-1.24c.75.4 1.15.84 1.28 1.24zm-.6.6c-.11.56-.52 1.03-1.1 1.41a5.4 5.4 0 0 0 -.58-.28c.22-.34.39-.72.44-1.13zm-1.74 1.76-.32-.13c-.1.12-.22.24-.34.35.24-.04.44-.12.66-.22zm-6.06-3.75c-.38.38-.65.84-.73 1.39h-.87c.23-.7.98-1.11 1.6-1.4zm-1.6 1.99h.87c.08.55.35 1.01.73 1.4-.62-.29-1.37-.7-1.6-1.4zm1.48 0c.1.5.43.92.9 1.28.2-.1.41-.19.65-.27-.18-.3-.31-.65-.36-1.01h-1.2zm1.53 1.66c.25.13.54.3.83.34-.16-.15-.31-.3-.45-.48-.14.04-.26.09-.38.14zm0-3.92.37.14a5 5 0 0 1 .46-.48c-.28.04-.58.21-.82.34zm.02.65a5.62 5.62 0 0 1 -.63-.28c-.48.36-.82.79-.92 1.29h1.19c.05-.36.18-.7.36-1zm4.52 1.61c-.06.32-.2.64-.41.93a6.61 6.61 0 0 0 -1.49-.26v-.67zm-.35-1.45c.18.27.3.55.36.85h-1.91v-.6c.58-.03 1.1-.12 1.55-.25zm-.4-.52c-.35.09-.73.14-1.15.16v-.89l.3.02c.3.2.59.45.84.71zm-.1 3.4c-.25.26-.53.48-.79.66h-.26v-.82c.39.02.74.08 1.06.16zm-1.78-4.12h.14v.88a6.15 6.15 0 0 1 -1.02-.13c.27-.3.6-.55.88-.75zm-1.3 1.27c-.16.26-.28.54-.33.82h1.76v-.6c-.53-.03-1-.1-1.43-.22zm-.33 1.42c.05.29.17.57.35.84.42-.1.9-.17 1.42-.19v-.65h-1.78zm1.63 2.1h.14v-.85c-.36.01-.7.05-1 .1.26.28.55.53.86.74z" fill="#b2b9c1" fill-rule="evenodd"/></svg>