<svg height="18" width="18" xmlns="http://www.w3.org/2000/svg"><path d="m0 0h18v18h-18z" fill="#f0f3fa"/><path d="m9 14a5 5 0 1 0 0-10 5 5 0 0 0 0 10zm0 1a6 6 0 1 0 0-12 6 6 0 0 0 0 12z" fill="#3a8ac7" fill-rule="evenodd"/><path d="m9 11.5a2.5 2.5 0 1 0 0-5 2.5 2.5 0 0 0 0 5zm0 1a3.5 3.5 0 1 0 0-7 3.5 3.5 0 0 0 0 7z" fill="#3a8ac7" fill-rule="evenodd"/><path d="m14.22 6.04a6.01 6.01 0 0 0 -3.62-2.82l-.26.96a5.01 5.01 0 0 1 3.01 2.36zm-9.56 5.44a5.01 5.01 0 0 0 3.02 2.34l-.27.97a6.01 6.01 0 0 1 -3.62-2.81zm7.38-.74a3.5 3.5 0 0 1 -2.1 1.63l-.27-.96a2.5 2.5 0 0 0 1.5-1.17zm-3.97-5.12a3.5 3.5 0 0 0 -2.12 1.66l.87.5c.33-.58.87-1.01 1.52-1.2z" fill="#f0f3fa" opacity=".6"/></svg>