<svg height="18" viewBox="0 0 18 18" width="18" xmlns="http://www.w3.org/2000/svg"><path d="m0 0h18v18h-18z" fill="#f0f3fa"/><path d="m6 5h2v8h-2z" fill="#023f84"/><path d="m11.9 6.29a5.17 5.17 0 0 0 -2.9-.79v-.5c.93 0 2.22.17 3.27.9 1.14.8 1.73 1.96 1.73 4.1h-.59c.08-1.98-.63-3.1-1.51-3.71z" fill="#056ab2"/><path d="m11.23 7.16c-.65-.5-1.5-.66-2.23-.66v-.5c.81 0 1.84.18 2.62.8.8.61 1.28 1.47 1.2 3.2h-.58c.11-1.47-.38-2.35-1.01-2.84z" fill="#056ab2"/><path d="m10.46 7.96a2.2 2.2 0 0 0 -1.46-.46v-.5c.62 0 1.34.14 1.88.61.55.48.83 1.1.77 2.39h-.6c.09-1.06-.2-1.7-.59-2.04z" fill="#023f84"/></svg>