<svg height="18" width="18" xmlns="http://www.w3.org/2000/svg"><path d="m0 0h18v18h-18z" fill="#0073b0"/><g fill="#fff"><path d="m8.004 8h.643v3.893h-.643z"/><path d="m4 8v1.999h.643v-1.33h.737c.16 0 .176.153.098.21l-.478.36.43.76h.76l-.455-.76h-.005l.133-.117.002-.002c.161-.114.243-.23.243-.418v-.032c0-.314-.28-.667-.625-.669h-1.483zm8.357 0v1.999h.643v-1.33h.737c.16 0 .176.153.099.21l-.479.36.43.76h.761l-.456-.76h-.006l.133-.117.002-.002c.161-.114.243-.23.243-.418v-.032c0-.314-.28-.667-.625-.669h-1.482zm-2.981 1.612a.533.533 0 1 0 0-1.066.533.533 0 0 0 0 1.066zm0 .546a1.08 1.08 0 1 0 0-2.158 1.08 1.08 0 0 0 0 2.158z" fill-rule="evenodd"/><path d="m7.039 9.612a.533.533 0 1 0 0-1.066.533.533 0 0 0 0 1.066zm0 .546a1.08 1.08 0 1 0 0-2.158 1.08 1.08 0 0 0 0 2.158zm4.354-.546c.208 0 .389-.12.476-.294h.576a1.08 1.08 0 1 1 -.051-.643h-.654a.53.53 0 0 0 -.82.157h.794v.486h-.798a.533.533 0 0 0 .477.294z" fill-rule="evenodd"/><path d="m15 6.6h-12a.4.4 0 0 0 -.4.4v4c0 .22.18.4.4.4h12a.4.4 0 0 0 .4-.4v-4a.4.4 0 0 0 -.4-.4zm-12-.6a1 1 0 0 0 -1 1v4a1 1 0 0 0 1 1h12a1 1 0 0 0 1-1v-4a1 1 0 0 0 -1-1z" fill-rule="evenodd"/></g></svg>