<svg height="18" viewBox="0 0 18 18" width="18" xmlns="http://www.w3.org/2000/svg"><path d="m0 0h18v18h-18z" fill="#175d3b"/><path d="m11.49 3h-5.06l-3.43 3.43v5.11l3.43 3.46h5.06l3.51-3.45v-5.12zm-8.19 3.55 3.06-3.05v1.6l-1.94 1.92v2.98l-1.12 1.13zm4.75-2.14-1.16-1.11h4.47l3.17 3.09h-1.6l-2.03-1.99h-2.85zm5.53 3.57 1.12-1.1v4.54l-3.19 3.13v-1.58l2.07-2.03zm-3.67 5.6 1.1 1.12h-4.46l-3.05-3.08h1.6l1.94 1.95h2.88zm-3-.56-1.4-1.4h1.4zm2.7.25h-2.2l1.17-1.06 1.04 1.06zm1.3.89-.58-.59h.32l.25.59zm-.87-.89h.48l-1.55-3.57a.68.68 0 0 1 -.15-.03l-.59 1.77 1.8 1.84zm-1.49-3.75-.6 1.8h-2.73l-.39-.4 3.61-1.52zm-.1-.92-1.79-.61v-2.79l.39-.4 1.53 3.66a.69.69 0 0 0 -.13.13zm.4-.26-1.52-3.64h.6l1.94 1.86-.83 1.75a.7.7 0 0 0 -.2.02zm.73.3a.69.69 0 0 0 -.24-.24l.8-1.71h2.67l.4.38-3.63 1.56zm.07.58a.68.68 0 0 0 .03-.3l3.6-1.55v.48l-1.96 1.95-1.67-.57zm-.38.41a.69.69 0 0 0 .22-.15l1.72.59v2.78l-.38.38zm-.94-.76a.69.69 0 0 0 0 .25l-3.61 1.53v-.53l1.83-1.85zm2.88 5.25-.26-.6.26-.25zm1.9-3.14-1.6 1.57v-1.57zm.17-2.7v2.38l-1.15-1.26 1.15-1.14zm.88-1.3-.58.58v-.32l.58-.25zm-.05-.3-.6.26-.27-.25h.87zm-3.14-1.78 1.53 1.5h-1.53zm-2.6-.18h2.28l-1.25 1-1.04-1zm-1.44-.96.69.66h-.42zm-.27.14.26.63-.26.26v-.9zm-1.91 3.22 1.61-1.62v1.6h-1.61zm-.03 2.58v-2.17l1.02 1.13zm-.9 1.33.6-.6v.35zm.97.29-.26-.27-.61.27zm1.57-3.9h-1.34l.93 1.03.41-.42zm1.64 4.2h-.8v1.45l1.17-1.07zm3.51-1.6v.66h1.38l-.97-1.06-.4.4zm-1.4-3.63h.56v-1.31l-1.05.84z" fill="#fff" fill-rule="evenodd"/></svg>