<svg height="18" width="18" xmlns="http://www.w3.org/2000/svg"><path d="m0 0h18v18h-18z" fill="#0f7fca"/><g fill="#fff"><path d="m2.5 8.182c.276 0 .5.22.5.49v1.832c0 .27-.224.49-.5.49s-.5-.22-.5-.49v-1.831c0-.271.224-.491.5-.491z"/><path d="m2 7.501c0-.272.221-.493.494-.493h1.622c.928 0 1.429 1.085.827 1.79l-.896 1.047a.099.099 0 0 0 .075.163h.491a.493.493 0 1 1 0 .986h-.49c-.928 0-1.429-1.085-.827-1.789l.896-1.048a.099.099 0 0 0 -.076-.162h-1.622a.493.493 0 0 1 -.494-.495z"/><path d="m7.306 10.027c.568 0 1.028-.46 1.028-1.026s-.46-.995-1.028-.995h-1.724c.347-.59.99-.998 1.724-.998 1.103 0 1.996.893 1.996 1.993 0 1.101-.893 1.993-1.996 1.993a1.994 1.994 0 0 1 -1.996-1.993c-.007-.13.002-.244.024-.34a.488.488 0 0 1 .975.034c0 .099-.015.208-.03.306 0 .567.46 1.026 1.027 1.026z"/><path d="m10.04 9.009c-.993-.537-.602-2.009.532-2.009h1.421c.276 0 .5.218.5.487 0 .27-.224.52-.5.52h-1.42c-.039 0-.055.01-.064.017a.107.107 0 0 0 -.033.055.104.104 0 0 0 .001.064c.004.01.013.028.047.046l1.53.797c.992.537.6 2.014-.534 2.014h-1.51a.503.503 0 0 1 -.496-.503.5.5 0 0 1 .495-.499h1.511c.038 0 .055-.01.063-.017a.107.107 0 0 0 .034-.056.105.105 0 0 0 -.002-.064c-.004-.01-.013-.027-.046-.045l-1.53-.807z"/><path d="m13.417 9.013c-.992-.536-.6-2.005.534-2.005h1.42c.277 0 .5.218.5.486 0 .269-.223.518-.5.518h-1.42c-.038 0-.055.01-.064.018a.107.107 0 0 0 -.033.055.105.105 0 0 0 .002.064c.004.01.013.028.046.046l1.53.795c.992.536.601 2.01-.533 2.01h-1.511a.499.499 0 0 1 0-1h1.51c.039 0 .055-.01.064-.017a.106.106 0 0 0 .033-.056.104.104 0 0 0 -.001-.064c-.004-.01-.013-.027-.047-.045z"/></g></svg>