<svg height="18" viewBox="0 0 18 18" width="18" xmlns="http://www.w3.org/2000/svg"><path d="m0 0h18v18h-18z" fill="#ca1001"/><path d="m14 9.18c0 1.68-.79 3.17-2 4.11v-2.18l-1.36-2.8c.22-.34.36-.75.36-1.2 0-1.13-.9-2.05-2-2.05s-2 .92-2 2.06c0 .44.14.85.36 1.18l-1.36 2.81v2.18a5.19 5.19 0 0 1 -2-4.11 5.07 5.07 0 0 1 5-5.15c2.76 0 5 2.3 5 5.15zm-3 4.71v1.11c2.33-.85 4-3.14 4-5.82a6.09 6.09 0 0 0 -6-6.18c-3.31 0-6 2.76-6 6.18a6.17 6.17 0 0 0 4 5.82v-3h4v1.9zm-1.15-4.89.98 2.01h-3.66l.98-2.02a1.95 1.95 0 0 0 1.7 0zm.15-1.89c0 .57-.45 1.03-1 1.03s-1-.46-1-1.03.45-1.03 1-1.03 1 .46 1 1.03z" fill="#fbfffd"/></svg>