<svg height="18" width="18" xmlns="http://www.w3.org/2000/svg"><path d="m0 0h18v18h-18z" fill="#f6b541"/><g fill="#fff"><path d="m4 13.99c.054.03.812-.014.952-.005.074-.135 1.907-4.946 1.963-5.09.328-.848.649-1.7.98-2.547.26-.666.568-1.15 1.193-1.5.85-.477 1.893-.49 2.792-.06a3.3 3.3 0 0 1 1.644 1.795c.216.606.337 1.396 0 2.272a3.368 3.368 0 0 1 -.757 1.156c-.202.207-.45.393-.69.539-.08.047-.175.09-.245.136a.533.533 0 0 0 .08.195c.283-.103.81-.493 1.039-.714.74-.714 1.057-1.576 1.049-2.582a3.845 3.845 0 0 0 -.05-.616c-.076-.407-.172-.771-.382-1.143a3.495 3.495 0 0 0 -1.524-1.462c-.969-.485-1.81-.396-2.551-.241-.635.132-1.538.53-2.104 1.38-.247.373-.444.993-.612 1.416-.931 2.354-1.832 4.721-2.777 7.071z"/><path d="m8.252 13.998c.086-.17.168-.421.242-.606.561-1.403 1.109-2.814 1.67-4.217.081-.203.161-.402.241-.607.074-.189.154-.423.238-.602.197-.426.591-.727 1.008-.496.576.32.546 1.262.148 1.796-.08.107-.296.315-.468.367l.084.21a1.5 1.5 0 0 0 .585-.425c.15-.21.254-.373.324-.696a2.186 2.186 0 0 0 -.013-.933 1.28 1.28 0 0 0 -.358-.652c-.312-.312-1.063-.455-1.527-.18-.445.263-.558.68-.783 1.245-.384.968-.783 1.927-1.17 2.898-.194.484-.388.968-.586 1.45-.065.155-.575 1.396-.58 1.449l.944-.002h.001z"/><path d="m10.671 9.39-1.836 4.61h3.673z"/><path d="m6.633 14c.7-1.802 1.43-3.615 2.143-5.415.234-.589.462-1.23.717-1.804.613-1.381 2.4-.976 3.093.13.765 1.222.192 2.722-1.02 3.322l.084.207a2.625 2.625 0 0 0 1.174-3.732 2.503 2.503 0 0 0 -1.616-1.185c-.718-.155-1.598-.014-2.134.542-.442.46-.704 1.28-.946 1.88l-.815 2.017c-.54 1.337-1.119 2.692-1.628 4.038z"/></g></svg>