<svg height="18" width="18" xmlns="http://www.w3.org/2000/svg" xmlns:xlink="http://www.w3.org/1999/xlink"><linearGradient id="a" gradientUnits="userSpaceOnUse" x1="3.349" x2="21.904" y1="3.122" y2="24.434"><stop offset="0" stop-color="#1a1e21"/><stop offset="1" stop-color="#06060a"/></linearGradient><path d="m0 0h18v18h-18z" fill="url(#a)"/><path d="m10.473 9h-2.404c-.161.622-.66 2.779 1.451 3.909 1.689.904 3.264.668 3.84.438-.864-1.003-.483-.763-1.04-2.557-.446-1.435-1.417-1.79-1.847-1.79zm1.568-4h-2.755l-1.114 3.52h3.122c.376-.05 1.208-.463 1.524-1.716.317-1.253-.386-1.725-.777-1.804zm-3.503 0h-2.83l-1.74 6h2.748z" fill="#eab020"/></svg>