<svg height="18" width="18" xmlns="http://www.w3.org/2000/svg"><path d="m0 0h18v18h-18z" fill="#f0f3fa"/><path d="m10.8 8h-1.5v.3h1.5zm0 .9h-1.5v.3h1.5zm0 .6h-1.5v.3h1.5zm0-1.04h-1.5v.3h1.5zm-1.5 2.54h1.5v-1.05h-1.5zm.3-.77h.9v.47h-.9zm2.25-1.33v-.9h-.3v.9h-.45v.3h.45v1.8h.3v-1.8h.74v-.3zm-7.03 1.43a7 7 0 0 0 .7-.4l-.16-.28c-.25.18-.51.33-.79.46-.11-.14-.2-.44-.26-.6h1.2v-1.51h-1.18v-.3h-.3v.3h-1.03v2.63a.6.6 0 0 1 -.17.04v.33a6.5 6.5 0 0 0 1.3-.32v-.32c-.35.13-.82.23-.82.23v-1.09h.68c.06.34.24.77.5.98.5.44 1.2.52 1.2.52v-.32c-.6-.12-.87-.35-.87-.35zm-1.52-2.02h1.9v.3h-1.9zm0 .9v-.3h1.9v.3zm12.1 1.49h-2.1v-2.1h-.29v2.4h2.69v-2.4h-.3z"/><path d="m12.71 8v.3h1.5v.3h-.74v1.8h1.76v-1.8h-.73v-.3h1.5v-.3h-3.3zm1.5 2.1h-.45v-.45h.45zm0-.75h-.45v-.45h.45zm.74.75h-.45v-.45h.45zm0-1.2v.45h-.45v-.45zm-8.84-.9v1.2h2.4v-1.2h-2.41zm2.1.9h-1.81v-.6h1.8v.6zm-2.4.6v1.5h1.5v-1.5h-1.51zm1.2 1.2h-.9v-.9h.9zm.59-1.2v1.5h1.2v-1.5zm.9 1.2h-.6v-.9h.6z"/><path d="m3 6h6v1h-6z" opacity=".6"/></svg>