<svg height="18" viewBox="0 0 18 18" width="18" xmlns="http://www.w3.org/2000/svg"><path d="m0 0h18v18h-18z" fill="#f0f3fa"/><g fill="#b41d23"><path d="m10.37 4c.09 0 .16.07.16.16 0 .14-.17.25-.2.4v2.88c.67.33 1.06.85 1.34 1.56h-5.34c.26-.67.7-1.21 1.34-1.53v-2.9c-.03-.17-.17-.26-.17-.43.02-.09.07-.14.16-.14h2.7z"/><path d="m4.53 9c-.12 0-.2-.07-.2-.15v-3.9c0-.14-.18-.28-.27-.36-.04-.04-.06-.07-.06-.12 0-.12.13-.16.23-.16h2.54c.06 0 .1.01.15.04.06.03.08.08.08.13 0 .03-.02.12-.06.12-.1.09-.27.23-.27.36v2.68c-.46.38-.68.84-.89 1.36zm8.94 0c.12 0 .2-.07.2-.15v-3.9c0-.14.18-.28.27-.36.04-.04.06-.07.06-.12 0-.12-.13-.16-.23-.16h-2.54c-.06 0-.1.01-.15.04a.15.15 0 0 0 -.08.13c0 .03.02.12.06.12.1.09.27.23.27.36v2.68c.46.38.68.84.89 1.36zm.2 3.74v-.59c0-.07-.08-.15-.15-.15h-1.1c-.13.47-.4.89-.75 1.22.2.3.54.5.93.5.6 0 1.07-.44 1.07-.98zm-7.67-.74h6a3.2 3.2 0 0 1 -3.01 2 3.17 3.17 0 0 1 -2.99-2zm-1.67.14c0-.08.09-.14.17-.14h1.08c.12.46.4.88.75 1.21-.18.28-.52.5-.88.5h-.05c-.6 0-1.07-.44-1.07-.98v-.6z"/><path d="m4 10h10v1h-10z" opacity=".5"/></g></svg>