<svg height="18" viewBox="0 0 18 18" width="18" xmlns="http://www.w3.org/2000/svg"><path d="m0 0h18v18h-18z" fill="#3c4758"/><path d="m12.36 6h-2.71c-.55 0-1.4-.03-1.54.69-.21 1.11 1.4 1.24 2.07 1.48.71.25 1.2.58 1.5.97.27.4.41.87.41 1.4a4.56 4.56 0 0 1 -.5 2.08c-.2.34-.46.62-.79.82-.32.2-.71.35-1.16.44-.44.08-.97.12-1.57.12h-3.07l.64-2h2.72c.64 0 1.46.08 1.62-.78.03-.19.05-.4-.03-.58a.72.72 0 0 0 -.32-.35 1.94 1.94 0 0 0 -.4-.18l-1.08-.37c-1.11-.39-1.87-1.08-1.82-2.54.07-1.7.9-2.8 2.36-3.08.44-.08.9-.12 1.42-.12h2.89z" fill="#f0b323"/></svg>