<svg height="18" width="18" xmlns="http://www.w3.org/2000/svg"><path d="m0 0h18v18h-18z" fill="#427dc0"/><g fill="#fff"><path d="m11.07 13.537c-.188-1.275.11-4.18 2.812-5.594.657 3.259-1.6 5.088-2.811 5.595zm2.078-7.337-4.063-.015h-4.218s1.26-2.185 4.218-2.185c2.664 0 4.063 2.2 4.063 2.2z"/><path d="m4 9.114c0-1.575.568-2.461.861-2.928h8.28c.09.122.29.488.322.562-5.742.251-8.709 1.683-9.463 2.366z"/><path d="m4.111 9.957c1.961-2.207 7.086-2.945 9.415-3.035.16.28.305.791.305.856-3.24 1.59-3.708 4.691-3.534 6.039-1.938.553-3.61-.278-4.204-.762.126-.386.503-1.06.676-1.349l-.676-.227c-.19.252-.483.817-.606 1.068-.913-.848-1.297-2.08-1.376-2.59z"/></g><path d="m8.561 9.076c-.604.333-1.238.928-1.479 1.183l.55.311c.264-.368 1.004-.967 1.341-1.22zm2.447-1.178c-.442.146-1.007.415-1.235.532l.228.266c.156-.135.875-.454 1.215-.597l-.208-.2zm2.672-.62-.33.038.11.142.271-.055-.05-.125z" fill="#427dc0"/><path d="m13.367 7.316c-.25.037-1.278.256-1.475.317l.143.194c.239-.093 1.237-.318 1.43-.37l-.098-.14z" fill="#427dc0"/></svg>