<svg height="18" width="18" xmlns="http://www.w3.org/2000/svg"><path d="m0 0h18v18h-18z" fill="#f06c00"/><path d="m8.57 14c-.8 0-1.67-.22-2.4-.61-.14-.1-.17-.17-.17-.33v-.8c0-.14.05-.28.3-.28.12 0 .2.07.38.22a3.5 3.5 0 0 0 2.07.83c.99 0 1.66-.68 1.66-1.51 0-2.18-4.41-1.51-4.41-4.73 0-1.49 1.02-2.79 2.9-2.79.94 0 1.79.2 2.26.41.13.07.16.14.16.29v.92c0 .14-.04.26-.2.26-.12 0-.22-.1-.38-.22a2.77 2.77 0 0 0 -1.81-.74c-.8 0-1.41.48-1.41 1.22 0 1.82 4.48 1.63 4.48 4.56 0 2.22-1.64 3.3-3.43 3.3z" fill="#fff"/></svg>