<svg height="18" viewBox="0 0 18 18" width="18" xmlns="http://www.w3.org/2000/svg"><path d="m0 0h18v18h-18z" fill="#f0f3fa"/><path d="m4 5v7h11v-5.12z" fill="#bcbcbc"/><path d="m3.06 9a6.93 6.93 0 0 0 .39 3.27c-.14-.63-.23-1.83-.26-2.36l.25.4-.05-.5c0-4.09 3.2-5.27 4.82-5.27 1.63 0 3.14 1.64 3.14 3.78 0 2.13-1.22 3.2-2 3.2-.8 0-1.24-.33-1.24-1.42 0-1.08.39-1.55.63-1.6.24-.06.6-.6-.09-.6-.68 0-1.2.9-1.2 1.91s.27 2.46 1.9 2.46c1.62 0 2.62-1.76 2.62-3.95-0-2.2-1.54-4.32-3.67-4.32s-3.76 1.59-4.02 1.81.03.38-.38.83c-.4.45-.37.87-.37.94-.2.28-.3 1.43-.34 1.97l-.13-.56z" fill="#135d66"/><path d="m14.94 9a6.93 6.93 0 0 0 -.39-3.27c.14.63.23 1.83.26 2.36l-.25-.4.05.5c0 4.09-3.2 5.27-4.82 5.27-1.63 0-3.14-1.64-3.14-3.78 0-2.13 1.22-3.2 2-3.2.8 0 1.24.33 1.24 1.42 0 1.08-.39 1.55-.63 1.6-.23.06-.6.6.09.6s1.2-.9 1.2-1.91-.27-2.46-1.9-2.46c-1.62 0-2.62 1.76-2.62 3.95 0 2.2 1.55 4.32 3.67 4.32 2.13 0 3.76-1.59 4.02-1.8.26-.23-.03-.39.38-.84.4-.45.37-.87.37-.94.2-.28.3-1.43.34-1.97l.13.56z" fill="#797a4e"/></svg>