<svg height="18" viewBox="0 0 18 18" width="18" xmlns="http://www.w3.org/2000/svg"><path d="m0 0h18v18h-18z" fill="#f0f3fa"/><path d="m7.18 4h5.82v8.04c0 .25-.06.51-.17.75-.1.24-.27.45-.47.64a2.4 2.4 0 0 1 -1.54.58h-5.82v-8.06c0-.52.23-1.02.64-1.38.4-.37.96-.58 1.54-.58z" fill="#113675"/><path d="m8.45 7.76-.16-.05c-.64-.2-1.29-.47-1.29-1.36 0-.82.68-1.35 1.67-1.35.28 0 .51.06.71.1.14.05.27.08.38.08.13-.01.26-.06.37-.15h.02v1.27c-.4-.68-.8-1.16-1.48-1.16-.43 0-.78.25-.78.69 0 .51.47.69 1.01.85l.08.03c.7.22 1.47.46 1.47 1.48 0 .59-.4 1-.91 1.22v-.72c0-.56-.51-.72-1.1-.92zm-1.45.5h.03c.16.73.5.91.9 1.12l.07.02.01.02v.18l-.01.02h-.02a2.42 2.42 0 0 0 -.5-.08.77.77 0 0 0 -.44.16h-.01l-.01-.01h-.02z" fill="#fff"/><path d="m10.6 10.7v-.05c.6-.03 1.21-.36 1.21-1 0-.59-.38-.94-1.12-1.05-.03.17-.08.34-.15.5v.01c.1.17.22.5.21.69 0 .6-.44.8-1.04.8h-.71v-1.68c0-.12-.03-.32-.17-.32h-.83c.16.18.28.47.26.7v2.9c0 .4-.13.65-.26.8h2.27c1.2 0 1.73-.44 1.73-1.21s-.68-1.06-1.4-1.1zm-.79 2.12h-.81v-2.05h.81c.72 0 1.19.36 1.19 1.02s-.47 1.03-1.19 1.03z" fill="#e87425"/></svg>