<svg height="18" viewBox="0 0 18 18" width="18" xmlns="http://www.w3.org/2000/svg" xmlns:xlink="http://www.w3.org/1999/xlink"><linearGradient id="a" gradientUnits="userSpaceOnUse" x1="9.63" x2="4.25" y1="7.68" y2="8.9"><stop offset="0" stop-color="#5990ca"/><stop offset="1" stop-color="#2c4a90"/></linearGradient><linearGradient id="b"><stop offset="0" stop-color="#a9d161"/><stop offset="1" stop-color="#86c64c"/></linearGradient><linearGradient id="c" gradientUnits="userSpaceOnUse" x1="8.38" x2="14.05" xlink:href="#b" y1="9.63" y2="9.17"/><linearGradient id="d" gradientUnits="userSpaceOnUse" x1="12.65" x2="4.19" y1="5.71" y2="7.54"><stop offset="0" stop-color="#5c92ce"/><stop offset=".21" stop-color="#7dc4f8"/><stop offset=".84" stop-color="#4258a3"/></linearGradient><linearGradient id="e" gradientUnits="userSpaceOnUse" x1="4.77" x2="13.81" xlink:href="#b" y1="11.63" y2="10.52"/><linearGradient id="f" gradientUnits="userSpaceOnUse" x1="13.16" x2="6.97" xlink:href="#b" y1="5.12" y2="5.72"/><linearGradient id="g" gradientUnits="userSpaceOnUse" x1="14" x2="7.33" xlink:href="#b" y1="7.16" y2="7.79"/><linearGradient id="h" gradientUnits="userSpaceOnUse" x1="4" x2="12.12" y1="9.78" y2="11.07"><stop offset="0" stop-color="#213492"/><stop offset="1" stop-color="#39609e"/></linearGradient><path d="m0 0h18v18h-18z" fill="#f0f3fa"/><path d="m7.67 7.13c1.53 0 1.94.69 1.96 1.1 0 .37-.23 1.4-1.96 1.4-1.72 0-3.67-.37-3.67-1.08 0-.7 1.77-1.44 3.67-1.44z" fill="url(#a)"/><path d="m10.33 10.88c-1.53 0-1.94-.7-1.96-1.1 0-.38.23-1.4 1.96-1.4 1.72 0 3.67.36 3.67 1.06s-1.77 1.44-3.67 1.44z" fill="url(#c)"/><path d="m9.6 8.45c-.07.36-.34.9-1.2 1.1.07-.36.34-.9 1.2-1.1z" fill="#158942"/><path d="m9.22 5.1c-3.86 0-4.97 1.7-5.03 2.56.53-.75 2.34-1.14 4.6-1.14 2.25 0 3.73.34 3.94.34.2 0 .5-.1.5-.34 0-.44-.57-1.43-4-1.43z" fill="url(#d)"/><path d="m8.78 12.75c3.86 0 4.97-1.55 5.03-2.41-.53.75-2.34 1.2-4.6 1.2-2.25 0-3.73-.4-3.94-.4-.2 0-.5.1-.5.34 0 .44.57 1.27 4 1.27z" fill="url(#e)"/><path d="m13.16 6.23-.02-.05c-.56-.88-2.91-1.24-3.71-1.24-.82 0-1.69.13-1.92.13s-.51-.07-.51-.3c0-.36.72-.77 2.12-.77a4.83 4.83 0 0 1 4.04 2.22z" fill="url(#f)"/><path d="m4.84 11.77.02.05c.56.88 2.91 1.24 3.71 1.24.82 0 1.69-.13 1.92-.13s.51.07.51.3c0 .35-.72.76-2.12.76a4.83 4.83 0 0 1 -4.04-2.22z" fill="#2b479b"/><path d="m9.08 4c-1.81 0-3.17.99-3.63 1.48a6.8 6.8 0 0 1 3.3-.86c1.4 0 1.5-.22 1.5-.3 0-.1-.12-.32-1.17-.32z" fill="#506da9"/><path d="m9.87 4.06a4.82 4.82 0 0 0 -1.6 0l-.44.1c-.55.15-.83.39-.83.6 0 .04 0 .07.02.1a7.16 7.16 0 0 1 1.73-.24c1.4 0 1.5-.22 1.5-.3 0-.07-.05-.18-.38-.26z" fill="#158942"/><path d="m9.1 14c1.8 0 3-.99 3.45-1.48-.53.36-1.73.86-3.13.86s-1.36.22-1.36.3c0 .1-.02.32 1.03.32z" fill="#a2cc5e"/><path d="m11 13.17v.07c0 .34-.72.75-2.12.75h-.1c-.72-.04-.72-.22-.72-.3 0-.1 0-.31 1.36-.31.57 0 1.1-.09 1.57-.2z" fill="#182954"/><path d="m12.65 6.55a2.04 2.04 0 0 1 1.35 1.85c-.91-.93-4.86-.96-5.52-.96s-1.04 0-1.04-.65c0-.63.92-.92 2-.92 1.1 0 1.87.2 3.21.68z" fill="url(#g)"/><path d="m9.1 7.45a2.7 2.7 0 0 0 -1.42-.33h-.19c.13.31.48.32 1 .32h.61zm3.99-.68a8.7 8.7 0 0 0 -3.64-.9c-.95 0-1.77.22-1.97.7a22.03 22.03 0 0 1 4.9.25l.35.04c.11 0 .25-.03.36-.1z" fill="#158942"/><path d="m5.65 11.5c-1.31-.4-1.65-1.42-1.65-1.89 1.12.94 5.81.78 6.62.78.8 0 1.5.2 1.5.85 0 .64-1.21.88-2.54.88s-2.29-.16-3.93-.64z" fill="url(#h)"/><path d="m4.98 11.2c.19.11.41.22.67.3 1.64.47 2.6.63 3.93.63s2.55-.24 2.55-.88v-.02c-.8.2-1.8.3-2.92.3-1.72 0-3-.23-3.6-.34l-.34-.05c-.09 0-.2.01-.29.06z" fill="#182954"/><path d="m8.7 10.4c.28.26.79.47 1.63.47a7.7 7.7 0 0 0 1.55-.16c-.27-.23-.74-.31-1.26-.31z" fill="#07663a"/></svg>