<svg height="18" viewBox="0 0 18 18" width="18" xmlns="http://www.w3.org/2000/svg" xmlns:xlink="http://www.w3.org/1999/xlink"><linearGradient id="a" gradientUnits="userSpaceOnUse" x1="6.05" x2="14.46" y1="4.94" y2="7.01"><stop offset="0" stop-color="#f8ba01"/><stop offset="1" stop-color="#e88800"/></linearGradient><linearGradient id="b" gradientUnits="userSpaceOnUse" x1="4.93" x2="9.06" y1="9.77" y2="10.81"><stop offset="0" stop-color="#f7ec82"/><stop offset="1" stop-color="#f06173" stop-opacity="0"/></linearGradient><linearGradient id="c" gradientUnits="userSpaceOnUse" x1="8.6" x2="8.6" y1="4.2" y2="13.8"><stop offset="0" stop-color="#d7000f"/><stop offset="1" stop-color="#9c0001"/></linearGradient><linearGradient id="d" gradientUnits="userSpaceOnUse" x1="5.56" x2="8.53" y1="7.1" y2="10.54"><stop offset="0" stop-color="#f06173"/><stop offset="1" stop-color="#f06173" stop-opacity="0"/></linearGradient><path d="m0 0h18v18h-18z" fill="#f0f3fa"/><path d="m4.87 12.86c.8 1.47 3.24 1.2 4.35.9 1.46-.32 3.4-.99 4.17-1.97a2.8 2.8 0 0 0 .6-2.02 6.31 6.31 0 0 0 -1.32-2.56 14.94 14.94 0 0 0 -2.53-2.45c-.3-.2-1.84-1.2-2.91-.54a4.7 4.7 0 0 0 -1.98 2.77c-.3 1.04-1.38 4.04-.38 5.87z" fill="url(#a)"/><path d="m5.3 12.43c.7 1.3 2.84 1.06 3.82.79 1.29-.28 2.99-.87 3.67-1.73.54-.7.58-1.47.52-1.78a5.56 5.56 0 0 0 -1.15-2.25 13.15 13.15 0 0 0 -2.23-2.16c-.25-.17-1.62-1.05-2.56-.48a4.13 4.13 0 0 0 -1.74 2.44c-.27.91-1.22 3.55-.33 5.17z" fill="url(#b)"/><path d="m4 10.2c0 1.64 2.14 2.65 3.22 2.95 1.35.47 3.27.9 4.36.47a2.52 2.52 0 0 0 1.42-1.38c.12-.37.32-1.46.08-2.79-.3-1.66-.85-3.02-1-3.33-.15-.3-.98-1.92-2.17-1.92-1.2 0-2.2.6-2.92 1.3-.72.71-2.99 2.66-2.99 4.7z" fill="url(#c)"/><path d="m4.55 10.06c0 1.44 1.89 2.33 2.83 2.6 1.2.41 2.88.78 3.84.4.77-.3 1.15-.92 1.25-1.2.11-.34.28-1.3.07-2.46a13.57 13.57 0 0 0 -.87-2.93c-.14-.28-.87-1.7-1.92-1.7a3.7 3.7 0 0 0 -2.55 1.15c-.64.63-2.64 2.34-2.64 4.14z" fill="url(#d)"/><g fill="#fffcff"><path d="m5.69 8-.08.6h3.01a.3.3 0 0 0 .26-.32c0-.25-.13-.29-.2-.28h-3zm-.34 2.4-.08.6h3.16a.3.3 0 0 0 .26-.31c0-.26-.14-.3-.2-.29zm.22-.6.08-.6h2.78c.07 0 .2.03.2.28a.3.3 0 0 1 -.26.32z"/><path d="m10.4 9.2h-1c-.1.08-.26.13-.37.17l-.07.02.06-.43c.12-.1.4-.35.49-.62s.32-.34.42-.34h1.87c.35 0 .4.3.43.5l.02.1c.04.17.18.33.25.4l-.07.38a.87.87 0 0 1 -.37-.18h-1l-.06.5h1.08l-.05.3h-1.06l-.1.7h1.32l-.07.3h-3.3l.08-.3h1.3l.1-.7h-1.08l.05-.3h1.07l.07-.5zm1.34-.3h-1.89c.05-.08.16-.27.22-.41s.2-.19.26-.19h1.04c.09 0 .16.15.2.22z" fill-rule="evenodd"/></g></svg>