<svg height="18" viewBox="0 0 18 18" width="18" xmlns="http://www.w3.org/2000/svg"><path d="m0 0h18v18h-18z" fill="#f0f3fa"/><path d="m8 7.18c0-.9 1.2-1.18 1.95-1.18.83 0 1.3.7 2.05.73.57.02 1.02-.67 1-1.26-.05-1.17-1.66-1.47-2.57-1.47-1.64.01-5.42 1.01-5.43 3.23 0 .47.17.92.56 1.24.85.7 2.56 1.2 3.74 1.7.3.12.72.29.7.68-.04.75-1.03 1.14-1.68 1.15-1.48.01-.89-.8-1.28-1.34-.16-.21-.5-.31-.83-.3-.72.04-1.18.65-1.2 1.36-.08 1.69 1.75 2.28 3.09 2.28 1.82 0 3.96-1.3 3.9-3.34-.08-2.36-2.5-2.43-4-3.48z" fill="#2571b9"/></svg>