<svg height="18" width="18" xmlns="http://www.w3.org/2000/svg"><path d="m0 0h18v18h-18z" fill="#0088ce"/><path d="m5 10h.67c.5 1.62 1.86 3.3 3.7 3.3.96 0 2-.43 2-1.5 0-.9-.65-1.26-1.48-1.4l-.99-.19a6.25 6.25 0 0 1 -2.73-.98 2.78 2.78 0 0 1 -1.17-2.2c0-2.05 1.7-3.03 3.64-3.03.86 0 1.7.25 2.4.73l.76-.73h.77v4h-.69c-.37-1.7-1.7-3.3-3.4-3.3-.87 0-1.89.4-1.89 1.38 0 .95.9 1.22 1.7 1.38l.87.16c1.98.4 3.85.96 3.85 3.28a2.97 2.97 0 0 1 -1.15 2.37c-.7.54-1.65.73-2.53.73a4.4 4.4 0 0 1 -2.74-.9l-.87.9h-.72z" fill="#fff"/></svg>