<svg fill="none" height="18" width="18" xmlns="http://www.w3.org/2000/svg" xmlns:xlink="http://www.w3.org/1999/xlink"><linearGradient id="a" gradientUnits="userSpaceOnUse" x1="7" x2="7" y1="8" y2="12"><stop offset="0" stop-color="#181b1e"/><stop offset="1" stop-color="#181b1e"/></linearGradient><path d="m0 0h18v18h-18z" fill="#f0f3fa"/><g clip-rule="evenodd" fill-rule="evenodd"><path d="m16 7s-1.356-1-4.848-1c-3.49 0-5.152 1.422-5.152 2.139 0 .716.78 1.549 2 1.861 0 0-1.5-.855-1.5-1.63s1.647-1.87 5.534-1.87c2.52-.012 3.966.5 3.966.5z" fill="#22458c"/><path d="m2 11s.98 1 4.623 1c3.644 0 5.377-1.422 5.377-2.139 0-.716-.727-1.549-2-1.861 0 0 1.5.944 1.5 1.718 0 .775-1.733 1.782-5.789 1.782-2.64.012-3.711-.5-3.711-.5z" fill="url(#a)"/></g></svg>