<svg height="18" viewBox="0 0 18 18" width="18" xmlns="http://www.w3.org/2000/svg"><path d="m0 0h18v18h-18z" fill="#f0f3fa"/><path d="m5.25 11.9c0 .65.83 1.17 1.2 1.4a5.54 5.54 0 0 1 1.75-4.66c1.65-1.69 4.34-2.04 4.49-2.08.15-.03.37-.13.37-.35s-.24-.65-.75-.65c-.5 0-3.04.28-4.88 2.03-1.84 1.74-2.18 3.54-2.18 4.32z" fill="#db000d"/><path d="m7.13 12.8c0 1.06 1.05 1.24 1.58 1.2a.99.99 0 0 1 -.38-.73c0-.45.27-1.56 1.58-2.8a7.49 7.49 0 0 1 3.73-1.58c.07.01.34-.48.36-.59.02-.1-.27-.55-.75-.55-.7 0-2.92.6-4.08 1.58-1.17.97-2.04 2.16-2.04 3.48zm-3.13-2.92c0 .58.42 1.32.63 1.62 0-1.82.46-2.91 2.1-4.55 1.75-1.75 4.46-1.85 4.46-2.25 0-.2.04-.38-.92-.38-.95 0-2.69.4-4.23 1.86-1.54 1.44-2.04 2.97-2.04 3.7z" fill="#db000d"/><g fill="#003a92"><path d="m5.67 5.23a5.74 5.74 0 0 1 3.64-1.23c-.7.2-2.2.5-3.36 1.48a7.27 7.27 0 0 0 -1.95 2.58c0-.5.33-1.75 1.67-2.83z"/><path d="m9.78 13.45c.43.5 1.62.18 2.65-.72 1.04-.9 1.53-2.05 1.1-2.55s-1.61-.19-2.65.72c-1.04.9-1.53 2.04-1.1 2.55zm1.15-.78c.17.19.7.02 1.2-.37.48-.39.74-.85.57-1.04-.17-.18-.71-.02-1.2.37-.49.4-.74.86-.57 1.04z" fill-rule="evenodd"/></g></svg>