<svg height="18" viewBox="0 0 18 18" width="18" xmlns="http://www.w3.org/2000/svg"><path d="m0 0h18v18h-18z" fill="#f0f3fa"/><path d="m14 4.23-.3-.13c-.67.26-2.6.77-4.95.77-.66 0-2.19-.16-3.03-.87l-.72.5c.8.55 2.64 2.22 3.62 4.46a7.9 7.9 0 0 0 -.76 3.57c0 1.8.74 2.4 1.1 2.47.43-.19 1.27-1.12 1.27-3.36a6.89 6.89 0 0 0 -.71-2.87 6.58 6.58 0 0 1 3.22-2.93c-.5-.12-1.91.12-3.46 2.06a9.81 9.81 0 0 0 -1.6-2.26c1.2-.02 4.15-.31 6.32-1.41zm-5.03 6.09c.27.55.62 1.98-.12 3.23a5.92 5.92 0 0 1 .12-3.23z" fill="#160b8b"/></svg>