<svg height="18" viewBox="0 0 18 18" width="18" xmlns="http://www.w3.org/2000/svg"><path d="m0 0h18v18h-18z" fill="#f0f3fa"/><path d="m8.42 5.28-.18-2.28.66.31-.16.13.08 1.8zm-2.97.85-1.1-.6v.76l.3-.04c-.12.74.33 1.09.58 1.17a4.06 4.06 0 0 1 2.97-2.32l-.38-1.68-.55.71.16.06.17.54c-.33.07-.8.33-.98.45l-.58-.95-.38.63.18.02.38.54c-.28.13-.63.53-.77.71zm3.57-1.53.72.06c.02.15-.07.43-.58.39.04.08.2.26.5.26.4 0 .53-.33.56-.5l.25-1.37c-.05.02-.18.06-.33.08h-.08c-.28.02-.93.03-1.04 1.08zm1.38-.05.37-1 .4.48-.2.22-.02.1c.16.07.47.27.72.44.14.1.18.3.08.46l-.23.32c.14.1.33.35.41.45l1.22-1.1v-.22l.66.31-1.95 1.68a3.97 3.97 0 0 0 -1.72-1.42l.19-.43c.25.09.61.31.76.42.15-.23.06-.33 0-.35l-.7-.36zm1.52 2.4 2.08-1.15v.74l-.19-.1-1.67.92-.22-.4zm-.92 0c-.4-.3-.88-.46-1.4-.46a2.47 2.47 0 0 0 -2.41 2.51 2.47 2.47 0 0 0 2.43 2.51c.51 0 1-.17 1.39-.46-.53.59-1.28.95-2.1.95-1.61 0-2.91-1.34-2.91-3s1.3-3 2.9-3c.82 0 1.57.36 2.1.95zm2.3 5.42-1.29-.94a.3.3 0 0 1 -.07-.4l.17-.26a.27.27 0 0 1 .39-.07l1.29.95c.12.1.15.28.06.4l-.17.25a.27.27 0 0 1 -.37.07zm.08-.4-1.07-.76a.08.08 0 0 1 -.02-.1.07.07 0 0 1 .1-.03l1.07.78c.03.02.04.06.02.1a.07.07 0 0 1 -.1.02zm-8.55-.31-.2-.3-.53.4a.26.26 0 0 0 -.06.34l.21.31c.08.11.22.14.33.06l.7-.5v-.6l.25-.2a.07.07 0 0 1 .1.01c.03.04.02.09-.01.11l-.29.22.2.28.4-.3c.1-.08.13-.24.05-.35l-.22-.3a.23.23 0 0 0 -.32-.07l-.5.37v.6l-.4.32a.07.07 0 0 1 -.11-.02.08.08 0 0 1 .02-.11zm1.52-.01-1.33 1.74.3.23.45-.58.22.16c.09.07.2.05.27-.04l.6-.83a.21.21 0 0 0 -.04-.29l-.47-.4zm.04.51-.43.58.08.05c.03.02.07.01.1-.02l.32-.44a.09.09 0 0 0 -.01-.12zm1.11.29-.83 2.07.33.13.82-2.04zm.7 2.55v-2.25h.49l.15.96.17-.96h.46v2.25h-.37v-.97l-.18.97h-.18l-.2-.97v.97zm2.33-.22-.58-2.14.47-.2.96 2-.27.15-.2-.45-.2.09.1.44zm.09-.9.14-.05-.34-.74.2.8zm1.47-.22-1.03-1.25a.3.3 0 0 1 .03-.4l.23-.2c.12-.11.29-.1.39.03l.31.4-.27.23-.24-.29a.07.07 0 0 0 -.1 0 .08.08 0 0 0 0 .1l.85 1.03c.02.03.07.03.1 0a.08.08 0 0 0 0-.1l-.3-.36.27-.24.4.5c.1.12.08.3-.04.4l-.22.19a.27.27 0 0 1 -.38-.04z" fill="#0f3490" fill-rule="evenodd"/></svg>