<svg fill="none" height="18" viewBox="0 0 18 18" width="18" xmlns="http://www.w3.org/2000/svg"><path d="m0 0h18v18h-18z" fill="#f0f3fa"/><path d="m9 14.07v-2.46h-2.36l.02.21c0 .33-.43.94-.98.94-.56 0-1.1-.52-1.1-1.17 0-.39.13-.64.23-.84.07-.13.12-.25.12-.37 0-.25-.33-.28-.5-.26v-.37l-.23-.3c.09.02.27.05.3.08l.06.03c.17.07.61.25.61.73 0 .3-.1.47-.2.64-.11.18-.22.36-.22.66 0 .6.53.92.87.92.35 0 .65-.26.65-.83v-.07h-1.1c-.07-.02-.16-.04-.16-.13 0-.13.23-.47.56-.67l-.06-.25.41.31c.14.05.46.19.6.37h2.48v-.37h-2.68c-.09 0-.26-.06-.26-.25 0-.2.17-.31.26-.35l2.39-1.57-.15.72-.15-.11-1.76 1.2h2.35v-1.9l.6.56-.23.13v1.18h2.03c.13 0 .2.11.2.25v1.62c0 .22-.14.38-.36.38h-.38a.35.35 0 0 1 -.38-.38v-.75h-1.1v2.05a5.43 5.43 0 0 0 3.2-1.47l-.39-.3-.22.1.19-.54.65.5c.1-.12.2-.24.27-.35l-.59-.48-.22.1.19-.54.81.62c.1-.16.16-.3.2-.44l-.72-.5-.2.13.2-.56 1.25.86a5.77 5.77 0 0 1 -5 3.28zm1.6-2.83h-1.22v-.37h1.86v1.26c0 .15-.06.23-.14.23h-.02c-.08 0-.21-.06-.21-.15v-.72a.26.26 0 0 0 -.25-.25zm-4.83.07c-.2 0-.28-.07-.3-.1a.48.48 0 0 1 .29-.12c.12 0 .22.06.26.1 0 .04-.06.12-.25.12zm1.83.94c.07-.05.34-.22.39-.5.14.13.41.5.41.97 0 .6-.33 1-1.11 1-.64 0-.93-.3-1-.46v-.34h.12c.06.22.33.65.88.65.54 0 .72-.62.75-.93-.03-.12-.16-.38-.46-.38z" fill="#007e3d" fill-rule="evenodd"/><circle cx="9" cy="9" r="5.75" stroke="#007e3d" stroke-width=".5"/><path d="m14 8h-10v-1h2v-2h1v2h1v-3h.7v3h.66v-2.67h.64v2.67h1v-2.39h1v2.39h2z" fill="#007e3d"/></svg>