<svg height="18" viewBox="0 0 18 18" width="18" xmlns="http://www.w3.org/2000/svg"><path d="m0 0h18v18h-18z" fill="#f0f3fa"/><path d="m14 11v-1h-.84c-.63 0-1.16-.44-1.16-1 0-.54.53-1 1.16-1h.8l1.04-1h-1.6c-1.32 0-2.4.94-2.4 2.1 0 1.05.97 1.9 2.16 1.9zm-11-1v1h1.68c.79 0 1.43-.55 1.43-1.23v-.13c0-.46-.5-1.14-1.3-1.14h-.33c-.17 0-.32-.07-.32-.23 0-.15.15-.27.32-.27h2.16l.99-1h-3.15c-.82 0-1.48.57-1.48 1.26v.1c0 .45.6 1.14 1.45 1.14h.17c.16 0 .3.14.3.28s-.14.22-.3.22zm4-1.96v2.96h1v-3h.98c.3 0 .53.27.53.55 0 .27-.24.45-.53.45h-.48v1h.42c.87 0 1.58-.67 1.58-1.49 0-.83-.7-1.51-1.58-1.51h-.83z" fill="#707074"/><path d="m15 10h1v1h-1z" fill="#ffc429"/></svg>