<svg height="18" viewBox="0 0 18 18" width="18" xmlns="http://www.w3.org/2000/svg" xmlns:xlink="http://www.w3.org/1999/xlink"><linearGradient id="a" gradientUnits="userSpaceOnUse" x1="4.18" x2="6" y1="9.93" y2="8.1"><stop offset=".73" stop-color="#39c428"/><stop offset="1" stop-color="#228117"/></linearGradient><linearGradient id="b" gradientUnits="userSpaceOnUse" x1="6.21" x2="8.1" y1="9.95" y2="11.85"><stop offset="0" stop-color="#1b6c12"/><stop offset=".27" stop-color="#268e1a"/></linearGradient><linearGradient id="c" gradientUnits="userSpaceOnUse" x1="6.25" x2="8.11" y1="5.99" y2="7.86"><stop offset="0" stop-color="#4bfa36"/><stop offset="1" stop-color="#32b323"/></linearGradient><linearGradient id="d" gradientUnits="userSpaceOnUse" x1="12.52" x2="10.54" y1="6.7" y2="10.6"><stop offset="0" stop-color="#209efa"/><stop offset="1" stop-color="#006bfc"/></linearGradient><path d="m0 0h18v18h-18z" fill="#f0f3fa"/><path d="m3 9 2-2 2.02 2-2.02 2z" fill="url(#a)"/><path d="m5 11 2.02-2 2 2-2 2z" fill="url(#b)"/><path d="m5 7 2.02-2 2 2-2 2z" fill="url(#c)"/><path d="m7.02 9 3.98-3.97 4 3.97-4 3.97-3.97-3.97z" fill="url(#d)"/><path d="m8.15 7.87-1.13 1.13 3.98 3.97 2.36-2.35c-2.97-.6-4.67-2.03-5.22-2.75z" fill="#0033e3"/><path d="m9 8h4v2h-4z" fill="#f0f3fa" fill-opacity=".7"/></svg>