<svg height="18" viewBox="0 0 18 18" width="18" xmlns="http://www.w3.org/2000/svg"><path d="m0 0h18v18h-18z" fill="#f0f3fa"/><path d="m11.95 9.05a9.9 9.9 0 0 0 -1.63-1.67 9.32 9.32 0 0 0 -4.92-2.21l-.12.06c-.27.15-.53.33-.77.53l-.04.03.48-.04.2-.02.44-.03c1.53 0 3.51.85 5.17 2.2a11.14 11.14 0 0 1 1.19 1.15zm.56-3.06a6.7 6.7 0 0 0 -.4-.33 4.23 4.23 0 0 1 1.23 2 3.38 3.38 0 0 1 -.5 2.8c0 .03-.02.04-.03.06l-.01.02.02.05.01.02.05-.07.03.07-.05.07.03.08.02.07c.28.92.13 1.68-.44 2.15-.37.32-.93.48-1.6.48-.77 0-1.7-.22-2.64-.64h-.19l-.37-.04-.17-.02.48.26.18.1h.01c1.13.57 2.26.88 3.19.88.68 0 1.25-.17 1.64-.5.62-.5.76-1.36.4-2.39l-.01-.03-.03-.08c1.13-1.61.71-3.64-.85-5.01z" fill="#009584"/><path d="m12.42 9.83c.82-1.8-.12-3.83-2.26-4.83a6.08 6.08 0 0 0 -2.56-.56c-1.07 0-2.12.28-2.95.8h-.01l-.01.01c.15-.02.31-.03.48-.03 1.54 0 3.52.84 5.17 2.2.92.76 1.65 1.6 2.13 2.43zm.49.79h-.01l-.02.02a5.5 5.5 0 0 1 -4.5 2.05c-.23 0-.46-.01-.69-.04h-.01a7.4 7.4 0 0 0 3.2.89c.67 0 1.24-.17 1.63-.5.63-.52.77-1.38.4-2.42z" fill="#82c55b"/><path d="m10.69 4.64c-2.27-1.07-5.01-.76-6.65.64l-.04.03.5-.04.12-.08a5.98 5.98 0 0 1 5.57-.25c2.18 1.03 3.11 3.13 2.3 4.92-.1.19-.2.38-.33.56-1 1.44-3 2.14-4.96 1.9l-.17-.03.48.27a9.33 9.33 0 0 0 .53.05c1.93.1 3.8-.62 4.8-2a.48.48 0 0 0 .03-.04c1.42-2.04.45-4.69-2.18-5.93z" fill="#c7db49"/><path d="m5 10h5v1h-5zm0-2h5v1h-5z" fill="#00b7b2" fill-opacity=".7"/></svg>