<svg height="18" viewBox="0 0 18 18" width="18" xmlns="http://www.w3.org/2000/svg"><path d="m0 0h18v18h-18z" fill="#f0f3fa"/><path d="m3 7.33s0-.77.9-1.4c.74-.53 2.18-.93 3.96-.93 1.42 0 2.44.19 2.44.19s-2.65-.13-4.38.31c-.85.22-1.54.46-2 .76-.74.5-.92 1.07-.92 1.07z" fill="#0e95d3"/><path d="m15 10.78s.05.68-.85 1.32c-.74.52-2.18.9-3.96.9a14 14 0 0 1 -2.52-.22s2.03.16 3.94-.17a8.2 8.2 0 0 0 2.53-.8c.74-.51.86-1.03.86-1.03z" fill="#184180"/><path d="m3 8.08v2.8s.3.7 2.1 1.17c.8.2 1.97.4 3.53.4.38 0 6.07-.12 6.07-2.15 0-1.42-2.68-1.51-2.68-1.51s-.11 1.08-3.44 1.08c-4.88 0-5.58-1.8-5.58-1.8z" fill="#184180"/><path d="m15 9.83v-2.73s-.23-.71-2.04-1.18c-.81-.2-1.98-.4-3.55-.4-.4 0-6.11.12-6.11 2.15 0 1.43 2.7 1.52 2.7 1.52s.11-1.08 3.46-1.08c4.91-.01 5.54 1.72 5.54 1.72z" fill="#0e95d3"/><path d="m4 10.93v-1.23c3.82 1.44 7.59.66 9 .09v1.14c-3.16 1.4-7.32.58-9 0zm.7-3.96v1.27c3.77-1.49 7.51-.68 8.9-.08v-1.2c-3.12-1.44-7.24-.6-8.9 0z" fill="#f0f3fa" fill-opacity=".6"/></svg>