<svg height="18" viewBox="0 0 18 18" width="18" xmlns="http://www.w3.org/2000/svg" xmlns:xlink="http://www.w3.org/1999/xlink"><linearGradient id="a" gradientUnits="userSpaceOnUse" x1="4.67" x2="5.61" y1="7.95" y2="12.98"><stop offset="0" stop-color="#9f7d0d"/><stop offset=".3" stop-color="#ac8609"/><stop offset=".38" stop-color="#dbbd00"/><stop offset=".43" stop-color="#ae880a"/><stop offset=".69" stop-color="#a68107"/><stop offset="1" stop-color="#8d6909"/></linearGradient><linearGradient id="b" gradientUnits="userSpaceOnUse" x1="3.16" x2="4.51" y1="9.2" y2="12.55"><stop offset=".25" stop-color="#977b0e"/><stop offset=".41" stop-color="#725a03"/><stop offset=".62" stop-color="#977b0e"/><stop offset="1" stop-color="#866b09"/></linearGradient><linearGradient id="c" gradientUnits="userSpaceOnUse" x1="5.92" x2="5.02" y1="10.6" y2="11.89"><stop offset="0" stop-color="#f9ec85"/><stop offset="1" stop-color="#f9ec85" stop-opacity="0"/></linearGradient><linearGradient id="d" gradientUnits="userSpaceOnUse" x1="9.32" x2="7.02" y1="4.66" y2="7.44"><stop offset=".56" stop-color="#ffe991"/><stop offset=".69" stop-color="#7e6004"/></linearGradient><linearGradient id="e" gradientUnits="userSpaceOnUse" x1="10.88" x2="13.82" y1="5.77" y2="6.08"><stop offset="0" stop-color="#a38104"/><stop offset=".24" stop-color="#6f5700"/><stop offset=".54" stop-color="#a07f00"/><stop offset=".76" stop-color="#6f5509"/><stop offset="1" stop-color="#997407"/></linearGradient><linearGradient id="f" gradientUnits="userSpaceOnUse" x1="9.71" x2="10.25" y1="4.72" y2="8"><stop offset=".43" stop-color="#ffeb9b"/><stop offset=".52" stop-color="#967704"/></linearGradient><linearGradient id="g" gradientUnits="userSpaceOnUse" x1="9.53" x2="6.29" y1="11.31" y2="12.66"><stop offset="0" stop-color="#9d7a0b"/><stop offset=".74" stop-color="#f6cd33"/><stop offset=".85" stop-color="#d9bd0a"/><stop offset=".96" stop-color="#ab8b1f"/></linearGradient><linearGradient id="h" gradientUnits="userSpaceOnUse" x1="10.33" x2="13.86" y1="10.28" y2="9.5"><stop offset="0" stop-color="#a47a02"/><stop offset="1" stop-color="#745f02"/></linearGradient><linearGradient id="i" gradientUnits="userSpaceOnUse" x1="11.05" x2="10.41" y1="12.67" y2="10.54"><stop offset=".52" stop-color="#faeea0"/><stop offset=".79" stop-color="#faeea0" stop-opacity="0"/></linearGradient><path d="m0 0h18v18h-18z" fill="#f0f3fa"/><path d="m4.41 7.95-.3.93c.36.14 1.2.4 1.46 1.17.2.65-.92 2.2-1.57 2.93h1.1c.75-.64 2.23-2.19 2.12-3.26-.1-1.06-1.91-1.62-2.8-1.77z" fill="url(#a)"/><path d="m4.09 12.88.88-.48.65-.68c.29-.41.85-1.39.78-1.98-.07-.6-1.09-1-1.6-1.12h-.3l-.38.23-.01.03.09.04c.4.14 1.13.41 1.37 1.13.2.62-.83 2.07-1.48 2.83z" fill="url(#b)"/><path d="m4.69 12.12c.18.1.36.16.43.1.14-.1.4-.43.52-.59l.4-.73c.06-.15.14-.47-.1-.53a.56.56 0 0 0 -.37.05c-.1.48-.48 1.13-.88 1.7z" fill="url(#c)"/><path d="m4.4 8.02a.76.76 0 0 0 .2.27c.12.11.26.24.16.38-.1.12-.18.1-.26.08l-.06-.01c-.06 0-.2.05-.32.1l.27-.82z" fill="#f9ec85"/><path d="m8 7.96c-1.34.49-2.8-.2-3.35-.6l.25-1.06c.4.28 1.42.74 2.39.31.96-.42 1.32-1.83 1.38-2.48l.88-.13c.05 1.12-.22 3.47-1.55 3.96z" fill="#907204"/><path d="m8.73 4.12.37.4c-.1.77-.53 2.39-1.4 2.75-.88.36-1.98.05-2.42-.15l-.33-.8c.41.29 1.4.7 2.35.3.96-.43 1.32-1.84 1.38-2.49h.05z" fill="url(#d)"/><path d="m5.22 7.1c-.03-.07-.18-.15-.25-.19-.08.15.1.21.15.31.06.1-.11.14-.12.16l.26-.11c.1-.04 0-.1-.04-.18z" fill="#f8d657"/><path d="m8.16 6.77c-.26.4-.83.57-1.1.6.13 0 .4.05.5.07.14.02.35-.1.43-.15.07-.06-.05-.07 0-.18z" fill="#d2b240"/><path d="m10.18 7.85c-.85-.68-.35-2.82 0-3.81l.92.13c-.15.43-.35 1.48.09 2.18.43.7 1.87.39 2.53.13l.23.81c-.9.47-2.92 1.23-3.77.56z" fill="url(#e)"/><path d="m10.17 4.07.35.43c-.14.7-.32 2.2.13 2.67.3.3.1.61-.2.83-.1-.04-.19-.09-.27-.15-.84-.67-.36-2.77-.01-3.78z" fill="url(#f)"/><path d="m11.65 7.24c-.9-.03-1.1-.25-1.09-.35-.05.11.05.38.83.5.96 0 2.02-.3 2.43-.46v-.09c-.35.14-1.27.42-2.17.4z" fill="#7e6004"/><path d="m7.06 13h-1.28c.5-.7 1.75-2.1 2.82-2.1s1.73 1.4 1.92 2.1h-1.34c-.04-.18-.26-.54-.86-.54s-1.09.36-1.26.54z" fill="#765d00"/><path d="m5.82 12.95.94-.42c.3-.27 1.07-.8 1.74-.8s1.01.53 1.1.8l.9.4c-.22-.73-.87-2.03-1.9-2.03-1.04 0-2.26 1.33-2.78 2.05z" fill="url(#g)"/><path d="m9.5 12.58c0 .03-.21.25-.32.36 0-.08.13-.52.17-.56.05-.04.15.17.15.2z" fill="#fff087"/><path d="m12.3 13h-1.1c-1-1.32-1.11-2.34-1.04-2.69.34-1.64 2.7-2.26 3.83-2.37v.96c-.7.15-2.12.7-2.37 1.57-.2.7.36 1.97.66 2.52z" fill="url(#h)"/><path d="m13.64 8.53c-.71.15-2.24.7-2.69 1.76-.22.53-.52.52-.8.32 0-.12 0-.22.02-.3.34-1.64 2.7-2.26 3.83-2.37v.04z" fill="#a68107"/><path d="m11.2 12.99a4.7 4.7 0 0 1 -1.04-2.31c.3.08.7.27.82.63.13.45.36.93.45 1.12l-.22.56z" fill="url(#i)"/><path d="m13.6 8.54.38-.54v.88z" fill="#a4830a"/></svg>