<svg height="18" viewBox="0 0 18 18" width="18" xmlns="http://www.w3.org/2000/svg"><path d="m0 0h18v18h-18z" fill="#f0f3fa"/><g fill="#dfd41c"><ellipse cx="6.75" cy="7.36" rx=".75" ry=".73"/><path d="m7.31 9.73c0 .3-.25.54-.56.54a.55.55 0 0 1 -.56-.54c0-.3.25-.55.56-.55s.56.25.56.55zm-.18 2c0 .2-.17.36-.38.36a.37.37 0 0 1 -.38-.36c0-.2.17-.37.38-.37.2 0 .38.17.38.37zm-.1 1.72c0 .16-.12.28-.28.28a.28.28 0 0 1 -.28-.28c0-.15.12-.27.28-.27s.28.12.28.27zm-.09 1.37c0 .1-.09.18-.19.18a.18.18 0 0 1 -.19-.18c0-.1.09-.18.19-.18s.19.08.19.18z"/><ellipse cx="9" cy="5.18" rx=".75" ry=".73"/><path d="m9.56 7.55c0 .3-.25.54-.56.54a.55.55 0 0 1 -.56-.54c0-.3.25-.55.56-.55s.56.24.56.55zm-.18 2c0 .2-.17.36-.38.36a.37.37 0 0 1 -.38-.36c0-.2.17-.37.38-.37.2 0 .38.16.38.37zm-.1 1.72c0 .15-.12.28-.28.28a.28.28 0 0 1 -.28-.28c0-.15.12-.27.28-.27s.28.12.28.27zm-.09 1.37c0 .1-.09.18-.19.18a.18.18 0 0 1 -.19-.18c0-.1.09-.19.19-.19s.19.09.19.19z"/><ellipse cx=".75" cy=".73" rx=".75" ry=".73" transform="matrix(1 0 0 -1 10.5 11.36)"/><path d="m11.81 8.27c0-.3-.25-.54-.56-.54a.55.55 0 0 0 -.56.54c0 .3.25.55.56.55s.56-.25.56-.55zm-.18-2c0-.2-.17-.36-.38-.36-.2 0-.38.16-.38.36s.17.37.38.37c.2 0 .38-.17.38-.37zm-.1-1.72a.28.28 0 0 0 -.28-.28.28.28 0 0 0 -.28.28c0 .15.12.27.28.27s.28-.12.28-.27zm-.09-1.37c0-.1-.09-.18-.19-.18s-.19.08-.19.18.09.18.19.18.19-.08.19-.18z"/></g></svg>