<svg fill="none" height="18" width="18" xmlns="http://www.w3.org/2000/svg"><path d="m0 0h18v18h-18z" fill="#295ca5"/><path d="m8.987 6.549c-.15-.256-.38-.622-.635-.731-.256-.11-.63-.073-.832.112-.21.193-.336.479-.48.72-.176.295-.401.705-.401.705l1.48.801z" fill="#38783b"/><path clip-rule="evenodd" d="m7.923 5.821a.653.653 0 0 0 -.361.151c-.099.091-.18.205-.254.33a6.049 6.049 0 0 0 -.114.2c-.034.06-.067.12-.102.178a22.037 22.037 0 0 0 -.372.652l1.374.744.824-1.526a3.513 3.513 0 0 0 -.257-.386c-.107-.135-.22-.244-.334-.293a.804.804 0 0 0 -.404-.05zm-1.284 1.534-.054-.027-.027.05 1.586.858.911-1.688-.016-.028a3.77 3.77 0 0 0 -.282-.427c-.11-.14-.238-.268-.38-.329a.928.928 0 0 0 -.47-.059.775.775 0 0 0 -.429.183c-.11.102-.198.227-.275.355a6.17 6.17 0 0 0 -.11.193l-.006.01c-.034.06-.066.119-.1.175a22.16 22.16 0 0 0 -.392.689l-.01.018z" fill="#fff" fill-rule="evenodd"/><path d="m8.65 11.775v-1.601h-1.811c-.111.194-.254.374-.349.577a.597.597 0 0 0 -.05.304.754.754 0 0 0 .34.592.867.867 0 0 0 .442.128h1.43z" fill="#38783b"/><path clip-rule="evenodd" d="m6.803 10.116h1.907v1.718h-1.49a.93.93 0 0 1 -.476-.137.812.812 0 0 1 -.366-.638.654.654 0 0 1 .055-.332 2.476 2.476 0 0 1 .214-.364c.048-.072.095-.144.137-.217l.018-.03zm.07.117c-.039.066-.082.13-.123.195l-.041.062a2.373 2.373 0 0 0 -.165.285.54.54 0 0 0 -.044.275c.017.222.12.429.311.548.14.088.3.12.41.12h1.37v-1.486h-1.718z" fill="#fff" fill-rule="evenodd"/><path d="m7.952 9.437-.548-.336c-.217.355-.618 1.01-.827 1.345-.055.09-.121.177-.165.273a.85.85 0 0 0 -.072.32 237.4 237.4 0 0 1 -.732-1.363c-.152-.287-.11-.45.05-.697.127-.197.245-.399.366-.599l-.5-.288h1.564z" fill="#38783b"/><path clip-rule="evenodd" d="m5.306 8.034h1.816l.915 1.457-.613-.308a241.098 241.098 0 0 1 -.85 1.378c-.04.061-.078.118-.107.181a.795.795 0 0 0 -.067.297l.022.283-.136-.256c-.188-.348-.567-1.05-.732-1.363-.079-.15-.111-.274-.098-.397a.835.835 0 0 1 .15-.358c.096-.148.187-.299.278-.45l.056-.098-.635-.367zm.438.116.362.21-.03.05-.087.144c-.091.153-.183.306-.28.456a.727.727 0 0 0 -.132.309c-.01.092.012.193.085.33.142.269.442.827.643 1.199a.851.851 0 0 1 .052-.153c.032-.072.078-.14.12-.205.017-.026.034-.05.048-.074.209-.335.61-.99.827-1.345l.031-.052.378.232-.707-1.1h-1.31z" fill="#fff" fill-rule="evenodd"/><path d="m11.71 7.836-1.446.8.898 1.522h.665c.477 0 .849-.572.62-1.09-.063-.139-.16-.268-.239-.4z" fill="#38783b"/><path clip-rule="evenodd" d="m11.732 7.756.529.883a4.012 4.012 0 0 0 .124.196c.043.067.084.137.117.21a.857.857 0 0 1 -.048.792.743.743 0 0 1 -.627.38h-.7l-.946-1.602 1.552-.86zm-1.386.902.85 1.441h.63a.622.622 0 0 0 .523-.32.744.744 0 0 0 .042-.687 1.522 1.522 0 0 0 -.11-.196l-.042-.067c-.028-.043-.057-.088-.083-.131l-.468-.783z" fill="#fff" fill-rule="evenodd"/><path d="m9.948 9.565-.798 1.41.798 1.313v-.577h.632c.505.013.631-.096.781-.304l.831-1.281a.542.542 0 0 1 -.299.112 87.607 87.607 0 0 1 -1.945-.016z" fill="#38783b"/><path clip-rule="evenodd" d="m9.22 10.974.667 1.099v-.42h.694c.25.006.396-.018.497-.064a.577.577 0 0 0 .232-.214l.714-1.1a.453.453 0 0 1 -.13.021 87.73 87.73 0 0 1 -1.947-.015l-.06-.002v-.485l-.668 1.18zm.756-1.522.032.713c.629.011 1.257.017 1.885.015a.482.482 0 0 0 .264-.102l.282-.217-.195.296-.832 1.282-.001.002a.695.695 0 0 1 -.281.254c-.127.057-.296.081-.551.075h-.57v.733l-.929-1.527z" fill="#fff" fill-rule="evenodd"/><path d="m9.669 5.766h-1.23c.185.064.454.454.565.641l.715 1.17-.582.32 1.662-.08.748-1.33-.498.288-.372-.592c-.037-.058-.071-.115-.117-.167-.215-.247-.448-.235-.891-.25z" fill="#38783b"/><g clip-rule="evenodd" fill="#fff" fill-rule="evenodd"><path d="m8.418 5.822-.3-.114h1.552l.095.003c.175.005.322.01.448.036a.675.675 0 0 1 .394.232c.045.052.08.108.114.161l.008.013.34.542.637-.368-.87 1.546-1.789.06.588-.378-.684-1.119a3.25 3.25 0 0 0 -.25-.36 1.552 1.552 0 0 0 -.153-.166.415.415 0 0 0 -.13-.088zm.213.003c.056.051.113.114.166.18.106.131.202.277.259.373l.746 1.22-.415.228 1.375-.066.627-1.113-.36.208-.404-.642a1.967 1.967 0 0 0 -.007-.01c-.034-.055-.065-.104-.104-.15a.554.554 0 0 0 -.327-.192 2.532 2.532 0 0 0 -.424-.033l-.095-.003h-1.038z"/><path d="m13.751 11.481c1.209-.69 1.849-1.581 1.849-2.481s-.641-1.791-1.849-2.481c-1.196-.684-2.875-1.119-4.751-1.119s-3.555.435-4.751 1.119c-1.209.69-1.849 1.581-1.849 2.481s.641 1.791 1.849 2.481c1.196.684 2.875 1.119 4.751 1.119s3.555-.435 4.751-1.119zm-4.751 1.519c3.866 0 7-1.79 7-4s-3.134-4-7-4-7 1.79-7 4 3.134 4 7 4z"/><path d="m9 12.6c2.628 0 4.6-1.69 4.6-3.6s-1.972-3.6-4.6-3.6-4.6 1.69-4.6 3.6 1.972 3.6 4.6 3.6zm0 .4c2.761 0 5-1.79 5-4s-2.239-4-5-4-5 1.79-5 4 2.239 4 5 4z"/></g><circle cx="9.001" cy="9.001" fill="#e5e5e5" r="1.001"/></svg>