<svg height="18" viewBox="0 0 18 18" width="18" xmlns="http://www.w3.org/2000/svg" xmlns:xlink="http://www.w3.org/1999/xlink"><linearGradient id="a" gradientUnits="userSpaceOnUse" x1="8.08" x2="8.54" y1="8.27" y2="9.97"><stop offset="0" stop-color="#003e4b"/><stop offset="1" stop-color="#0b6e35"/></linearGradient><linearGradient id="b" gradientUnits="userSpaceOnUse" x1="4" x2="13.69" y1="7.62" y2="7.62"><stop offset="0" stop-color="#7dbee8"/><stop offset="1" stop-color="#00386b"/></linearGradient><linearGradient id="c" gradientUnits="userSpaceOnUse" x1="4" x2="14" y1="11.46" y2="11.46"><stop offset="0" stop-color="#c4dbed"/><stop offset="1" stop-color="#019e4d"/></linearGradient><path d="m0 0h18v18h-18z" fill="#f0f3fa"/><path d="m8.58 7.25 5.42.92-4.67 2.53-5.33-1.14 4.58-2.3z" fill="url(#a)"/><path d="m9.45 4.12a1.15 1.15 0 0 0 -1.04 0l-3.9 2a.91.91 0 0 0 -.51.8v2.64l9.69-3.14a1 1 0 0 0 -.35-.3l-3.9-2z" fill="url(#b)"/><path d="m14 8.17-10 3.27c.1.14.23.27.4.36l4 2.07c.33.17.74.17 1.07 0l4-2.07a.95.95 0 0 0 .53-.83z" fill="url(#c)"/></svg>