<svg height="18" width="18" xmlns="http://www.w3.org/2000/svg"><path d="m0 0h18v18h-18z" fill="#00a0df"/><path d="m11.076 11.025c-.22.387-1.836 1.975-3.626 1.975s-2.39-1.194-2.445-2.229c-.166-3.124 3.947-5.771 6.32-5.771 1.186 0 1.648.677 1.675 1.194.016.319-.37.52-.64.52-.716 0-.854-1.237-1.794-1.237-1.365 0-4.093 3.443-3.994 5.294.054 1.014.837 1.433 1.553 1.433.805 0 1.68-.634 2.112-.933.259-.17.557-.43.602-.46a.053.053 0 0 1 .066.008l.163.158c.007.006.01.014.012.023a.04.04 0 0 1 -.004.025z" fill="#fff"/></svg>