<svg height="18" width="18" xmlns="http://www.w3.org/2000/svg"><path d="m0 0h18v18h-18z" fill="#006bb6"/><path d="m8.049 8h2.559c1.213 0 1.868.603 1.672 1.683-.164.901-.31 1.672-.595 2.805-.28 1.112-1.298 1.512-2.418 1.512h-5.267l.366-2h4.245c.553-.005 1.237.048 1.389-.5.09-.325.223-.935.266-1.17.06-.332-.119-.33-.557-.33l-2.903-.002c-.667 0-1.462-.724-1.4-1.623.024-.354.116-.9.28-2.002.38-2.562 1.776-2.37 2.414-2.37h4.9l-.39 1.997s-2.768-.001-4.038-.004c-.873-.001-.868.405-1.007 1.095-.092.474-.264.909.484.909z" fill="#fff"/></svg>