<svg height="18" viewBox="0 0 18 18" width="18" xmlns="http://www.w3.org/2000/svg"><path d="m0 0h18v18h-18z" fill="#f0f3fa"/><path d="m8.76 6.16c-.02.15-.24.36-.35.44-.08-.05-.5-.16-1.57-.16-1.33 0-1.84.42-1.84.64s.5.38 1.63.6 2.37.52 2.37 1.2c0 .91-1.83 1.12-2.7 1.12-.85 0-2.18-.19-2.3-.25 0-.1.18-.32.27-.42.27.06 1.06.16 1.98.16 1.15.01 1.75-.32 1.75-.59 0-.29-.54-.5-1.7-.7-1.14-.2-2.3-.45-2.3-1.12 0-.68 1.12-1.08 2.63-1.08s1.96.1 2.13.16zm5.09.06c0 .18-.21.35-.32.41a6.16 6.16 0 0 0 -1.28-.16c-1.7 0-2.25.73-2.25 1.48 0 1.17.87 1.58 2.04 1.58s1.5-.13 1.64-.13c.12.03.26.29.32.41-.27.06-1.05.19-1.96.19-1.14 0-3.04-.31-3.04-2.05 0-1.73 2.22-1.95 3.04-1.95s1.76.19 1.81.22z" fill="#4d4e49"/><ellipse cx="9" cy="11.5" fill="#d3d9eb" rx="6" ry="1.5"/><path d="m4 11h10v1h-10z" fill="#8690ce"/></svg>