<svg height="18" viewBox="0 0 18 18" width="18" xmlns="http://www.w3.org/2000/svg"><path d="m0 0h18v18h-18z" fill="#f0f3fa"/><path d="m6.88 9.87c.18.12.27.29.27.52 0 .41-.37.61-1.01.61-.86 0-1.3-.36-1.3-1h-1.34c0 .38.1.8.32 1.08s.53.51.95.68c.4.16.87.24 1.37.24.72 0 1.3-.14 1.72-.43.43-.29.64-.69.64-1.19 0-.45-.17-.83-.52-1.14-.35-.3-.9-.56-1.67-.77a3.9 3.9 0 0 1 -.95-.36c-.21-.12-.32-.28-.32-.47 0-.41.39-.64 1.04-.64.68 0 1.08.27 1.08.8h1.34c0-.35-.1-.66-.3-.93-.2-.28-.49-.5-.85-.64a3.57 3.57 0 0 0 -2.5-.02c-.37.14-.65.33-.85.58s-.3.53-.3.84c0 .6.37 1.1 1.11 1.45.27.13.64.26 1.1.4.47.13.8.26.97.39zm7.12 2.13v-1h-3v-1.5h2.58v-1h-2.58v-1.5h3v-1h-4.3v6z"/></svg>