<svg height="18" width="18" xmlns="http://www.w3.org/2000/svg"><path d="m0 0h18v18h-18z" fill="#f0f3fa"/><path d="m10.29 8c1.06.51 2.19 1.3 2.19 2.63 0 .28-.03.55-.09.8-.96-.18-2-.48-3.14-.94-.2-.21-.51-.43-.99-.65-1.12-.55-2.06-1.34-2.06-2.54 0-1.99 1.77-3.3 4.3-3.3 1.14 0 2.04.24 2.5.5l-.68 1.98c-.4-.17-1.1-.4-1.96-.4-.75 0-1.26.32-1.26.84 0 .38.4.72 1.19 1.07zm-4.6 3.28c.55.27 1.62.66 2.56.66.24 0 .45-.04.62-.1 1.01.4 1.95.7 2.83.88-.8.84-2.12 1.3-3.71 1.28a6 6 0 0 1 -2.99-.75l.7-1.97z" fill="#1b3281"/></svg>