<svg height="18" width="18" xmlns="http://www.w3.org/2000/svg" xmlns:xlink="http://www.w3.org/1999/xlink"><linearGradient id="a" gradientUnits="userSpaceOnUse" x1="10.181" x2="4.009" y1="7.648" y2="10.549"><stop offset="0" stop-color="#00bee1"/><stop offset="1" stop-color="#001d43"/></linearGradient><linearGradient id="b" gradientUnits="userSpaceOnUse" x1="12.278" x2="8.004" y1="7.216" y2="9.759"><stop offset="0" stop-color="#ffd900"/><stop offset="1" stop-color="#f7901e"/></linearGradient><path d="m0 0h18v18h-18z" fill="#f0f3fa"/><path d="m16 10.778h-.002s-4.564-1.104-11.144 1.222c0 0 .654-.7 2.627-1.843a8.1 8.1 0 0 0 .373-.228c-1.735.088-3.7.337-5.854.846 0 0 .888-.782 3.465-1.933 2.671-1.194 1.468-1.758.603-2.446-.865-.689 3.06-1.112 9.932 4.382z" fill="url(#a)"/><path d="m7.798 8.157c.685.44 1.597.77.057 1.773 5.007-.255 8.08.825 8.144.848-5.841-3.774-8.936-3.094-8.201-2.621z" fill="url(#b)"/></svg>