<svg height="18" viewBox="0 0 18 18" width="18" xmlns="http://www.w3.org/2000/svg"><path d="m0 0h18v18h-18z" fill="#f0f3fa"/><path d="m9.08 5h-5.08v4h5.08zm-1.02.29v1.01h-.09c-.22-.3-.8-.91-1.52-.9-.9 0-1.04.4-1.03.6 0 .2.24.5 1.31.68s1.62.38 1.64.93c.03.55-.54 1.04-1.79 1.06a5.09 5.09 0 0 1 -1.4-.2l-.42.23h-.13v-1.13h.1c.22.35.9 1.02 1.85 1.02.96.01 1.19-.42 1.19-.64 0-.16-.22-.51-1.19-.67-1.21-.2-1.85-.41-1.85-.97 0-.55.63-1.02 1.72-1.02.29 0 .9.06 1.23.18l.3-.18z" fill="#00477f"/><path d="m14 5h-5v4h5zm-4.69.29h1.23l2.31 2.5v-1.72c0-.24-.16-.7-.79-.7v-.07h1.63v.08c-.24 0-.64.13-.63.7v2.62h-.4l-2.5-2.75v2c0 .21.16.63.75.63v.12h-1.61v-.1c.23 0 .61-.12.63-.62v-2.05c0-.19-.09-.56-.63-.56v-.07z" fill="#00477f"/><path d="m9 9h-5v4h5zm-4.37.29h3.75v1.14h-.1c-.1-.32-.5-.97-1.29-1h-1.11v1.5h.67c.22-.04.68-.22.77-.66h.12v1.41h-.12a.8.8 0 0 0 -.77-.63h-.67v1.21c-.01.12.04.35.62.32v.13h-1.87v-.13c.23.02.61-.02.62-.32v-2.6c-.01-.1-.09-.29-.62-.24v-.12z" fill="#839bc1"/><path d="m14 9h-5v4h5zm-.84.29v1.14h-.09c-.12-.35-.58-1.06-1.4-1.02-1.02.05-1.4.83-1.42 1.65-.02.81.8 1.48 1.61 1.44s1.2-.43 1.4-.79l.12.09c-.1.25-.56.78-1.56.9-1.24.14-2.18-.67-2.2-1.64-.01-.98.95-1.72 2.06-1.77.26 0 .85.04 1.15.22z" fill="#00477f"/></svg>