<svg height="18" viewBox="0 0 18 18" width="18" xmlns="http://www.w3.org/2000/svg"><path d="m0 9a9 9 0 1 1 18 0 9 9 0 0 1 -18 0z" fill="#f0f3fa"/><path d="m10.88 7.22c-.53-.25-1.56-.48-2.18-.62a.85.85 0 0 1 -.7-.86c-0-.22.3-.74 1-.74.84 0 .8 1 .8 1h1.74c-.04-.95-.7-2-2.7-2-2.4 0-2.84 1.41-2.84 2s.32 1.34.97 1.72c.61.37 1.8.6 2.37.75.57.16.66.36.66.67 0 .27-.12.86-1 .86-1.05 0-1.23-1-1.23-1h-1.77c.03 1.04.8 2 2.97 2 1.27 0 3.06-.42 3.03-2a1.85 1.85 0 0 0 -1.12-1.78z"/><path d="m4 12v1h5.84l.16-1z" fill="#0082ca"/><path d="m9 13h5v-1h-5z" fill="#79bd36"/></svg>