<svg height="18" viewBox="0 0 18 18" width="18" xmlns="http://www.w3.org/2000/svg"><path d="m0 0h18v18h-18z" fill="#f0f3fa"/><path d="m4.3 11.93c-.8-.7-1.3-1.66-1.3-2.78a3.68 3.68 0 0 1 3.72-3.65c1.37 0 2.37.59 3.18 1.7.05.07.08.21 0 .3l-5.3 4.47c-.09.07-.23.04-.3-.03z" fill="#263488"/><path d="m10.16 7.74a.33.33 0 0 1 .05-.34l2.14-1.86c.08-.07.23-.04.3.03l2.15 1.77c.15.11.19.19.2.34v4.07c0 .18-.08.25-.23.25h-4.98c-.14 0-.2-.16-.12-.28.49-.64.82-1.34.83-2.37.01-.65-.1-1.12-.34-1.61z" fill="#fc0e1a"/></svg>