<svg height="18" width="18" xmlns="http://www.w3.org/2000/svg"><path d="m0 0h18v18h-18z" fill="#f0f3fa"/><path d="m6 8.54-.86-.23c-.36-.08-.72-.24-.72-.68 0-.47.45-.63.85-.63.45 0 1.13.1 1.17.71h1.06c0-1.1-1.02-1.71-2.18-1.71-1.04 0-2 .63-2 1.74 0 .68.37 1.2 1 1.41.58.23 1.11.28 1.68.52.28.12.44.3.44.62 0 .57-.6.71-.97.71-.82 0-1.47-.3-1.47-1h-1c0 1.33 1.2 2 2.42 2 1.14 0 2.08-.57 2.08-1.82 0-1-.64-1.43-1.5-1.64z" fill="#434c4d"/><path d="m14 6-1 4-1-4h-1l-1 4-1-4h-1l1.5 6h1l1-4 1 4h1l1.5-6z" fill="#79b801"/></svg>