<svg height="18" viewBox="0 0 18 18" width="18" xmlns="http://www.w3.org/2000/svg" xmlns:xlink="http://www.w3.org/1999/xlink"><linearGradient id="a" gradientUnits="userSpaceOnUse" x1="4" x2="12.65" y1="9.5" y2="5.62"><stop offset="0" stop-color="#853cfd"/><stop offset=".38" stop-color="#5278ff"/><stop offset=".54" stop-color="#22a8ff"/><stop offset=".72" stop-color="#27c9c7"/><stop offset="1" stop-color="#32f971"/></linearGradient><path d="m0 0h18v18h-18z" fill="#f0f3fa"/><path d="m9.65 5 3.35 1.24-1.91 7.76-7.09-4.49 1.37-3zm-3.95 2.35-.83 1.8 2.36.22zm2.7 2.51 1.96 2.49-.46-3zm2.12-.83.43 2.8 1.07-4.35zm1.55-2.5-2.02-.75.35 2.47zm-2.26 2.22-1.79.62-1.9-2.5 3.26-1.14zm-.3 3.54-1.8-2.29-2.1-.19 3.9 2.47z" fill="url(#a)" fill-rule="evenodd"/></svg>