<svg height="18" width="18" xmlns="http://www.w3.org/2000/svg" xmlns:xlink="http://www.w3.org/1999/xlink"><linearGradient id="a" gradientUnits="userSpaceOnUse" x1="10.92" x2="6.71" y1="3.91" y2="14.36"><stop offset="0" stop-color="#98c3e2"/><stop offset=".31" stop-color="#3195c8"/><stop offset=".61" stop-color="#54a0ce"/><stop offset=".98" stop-color="#94bdde"/></linearGradient><path d="m0 0h18v18h-18z" fill="#f0f3fa"/><path d="m5.88 5.73-1.1.25a1 1 0 0 0 -.74 1.26l1.04 3.63zm.37 7.8a1 1 0 0 0 .59.04l6.39-1.55a1 1 0 0 0 .72-1.27l-.47-1.54zm7.21-4.38-1.2-3.95a1 1 0 0 0 -1.18-.68l-.81.2-3.1 7.45 6.3-3.02zm-3.6-4.35-3.76 6.93.26-6.11 3.52-.82z" fill="url(#a)"/></svg>