<svg height="18" viewBox="0 0 18 18" width="18" xmlns="http://www.w3.org/2000/svg"><path d="m0 0h18v18h-18z" fill="#f0f3fa"/><path d="m9.67 7.11v-1l-1.34-.73v1.94a1.11 1.11 0 0 0 .55.94c.55.27 1.22.65 1.22.65.68.4.57.55.57.95v3.38c0 .1-.04.2-.12.27a.38.38 0 0 1 -.27.12h-2.56c-.1 0-.2-.04-.27-.12a.4.4 0 0 1 -.12-.27v-2.01l-1.33-.69v2.83c0 .43.17.85.47 1.15s.7.48 1.13.48h2.8c.43 0 .83-.17 1.13-.48.3-.3.47-.72.47-1.15v-3.94c0-1.26-1.48-1.73-2.33-2.32z" fill="#3a6178"/><path d="m10.4 3h-2.8c-.43 0-.83.17-1.13.48-.3.3-.47.72-.47 1.15v4.84s1.29.72 2.33 1.24v1.13l1.34.73v-2.6l-2.34-1.26v-3.95c0-.1.04-.2.12-.27a.38.38 0 0 1 .27-.12h2.56c.1 0 .2.04.27.12a.4.4 0 0 1 .12.27v2.02l1.33.59v-2.74c0-.43-.17-.85-.47-1.15s-.7-.48-1.13-.48z" fill="#74b22e"/></svg>