<svg fill="none" height="18" width="18" xmlns="http://www.w3.org/2000/svg"><path d="m0 0h18v18h-18z" fill="#f0f3fa"/><path clip-rule="evenodd" d="m8.894 4.001a5.953 5.953 0 0 0 -1.49.2l1.307 1.19zm-1.651.249c-.654.21-1.105.533-1.416.886l2.31.428zm-1.452.927c-.66.78-.653 1.689-.652 1.85v.013c0 .194 0 2.3 2.861 2.746v-3.728l-2.209-.88zm4.209.893v.93h2.752a2.557 2.557 0 0 0 -.523-1.77zm2.174-.907c-.312-.377-.77-.711-1.424-.923l-.905 1.325 2.33-.402zm-1.583-.971c-.431-.122-.941-.192-1.541-.192h-.007l.221 1.391 1.326-1.2zm-.591 7.475v-3.673c2.434.391 3 1.992 3 2.806 0 1.06-.53 3.184-3.95 3.2-3.419.016-4.045-2.021-4.045-3h2.995v.667a1 1 0 1 0 2 0z" fill="#225e9c" fill-rule="evenodd"/></svg>