<svg height="18" viewBox="0 0 18 18" width="18" xmlns="http://www.w3.org/2000/svg"><path d="m0 0h18v18h-18z" fill="#f0f3fa"/><g fill="#2f518e"><path d="m6.66 7h-.7c-.64 0-.72-.04-.86 0-.74.2-1.3.7-1.5 1.48-.03.15-.04.23-.04.5 0 .2 0 .36.02.44.12.46.3.8.63 1.1l.17.17-1.38 2.31h12l-1.36-2.25.2-.19c.11-.1.24-.23.28-.3.27-.37.41-.82.41-1.25 0-.98-.6-1.75-1.53-2-.14-.04-.23 0-.92 0h-.74l-2.34-4.01zm3.52 0h-2.36l1.18-2.1zm3.43 1.31a1.6 1.6 0 0 1 -.91 2.19h-7.31a1.62 1.62 0 0 1 -1.05-1.85 1.3 1.3 0 0 1 1.1-1h7.26c.4.13.72.3.9.66zm-.48 3.69h-8.26l.42-1h7.43l.4 1z"/><path d="m6 8h6v2h-6z" opacity=".5"/></g></svg>