<svg height="18" viewBox="0 0 18 18" width="18" xmlns="http://www.w3.org/2000/svg" xmlns:xlink="http://www.w3.org/1999/xlink"><linearGradient id="a" gradientUnits="userSpaceOnUse" x1="10.39" x2="8.11" y1="4.91" y2="4.51"><stop offset="0" stop-color="#00477b"/><stop offset="1" stop-color="#00833c"/></linearGradient><linearGradient id="b"><stop offset="0" stop-color="#01497a"/><stop offset="1" stop-color="#00833c"/></linearGradient><linearGradient id="c" gradientUnits="userSpaceOnUse" x1="10.72" x2="8.09" xlink:href="#b" y1="6" y2="6"/><linearGradient id="d" gradientUnits="userSpaceOnUse" x1="10.8" x2="8.33" xlink:href="#b" y1="7.13" y2="7.13"/><linearGradient id="e"><stop offset="0" stop-color="#00833c"/><stop offset="1" stop-color="#00477b"/></linearGradient><linearGradient id="f" gradientUnits="userSpaceOnUse" x1="10.3" x2="8.91" xlink:href="#e" y1="11.1" y2="10.11"/><linearGradient id="g" gradientUnits="userSpaceOnUse" x1="9.52" x2="7.93" xlink:href="#e" y1="13.04" y2="11.98"/><path d="m0 0h18v18h-18z" fill="#f0f3fa"/><path d="m10.07 9.26c1.54-2.36.98-4.2-.3-5.31-.06-.05-.15.01-.1.07.99 1.27 1.03 2.33.81 3.14-.24.89-.8 1.8-1.4 2.57-.44.55-.99 1.18-1.52 2.03a3.59 3.59 0 0 0 -.56 1.92c0 .13.17.13.2 0l.08-.3c.08-.37.19-.72.38-1.06.61-1.1 1.78-2.2 2.41-3.06z" fill="#00477b"/><path d="m10.36 5.18-2.16-.34.08-.5 2.17.35-.08.5z" fill="url(#a)"/><path d="m10.7 6.24-2.36-.1.02-.5 2.36.1z" fill="url(#c)"/><path d="m10.79 7.35-2.22.03v-.5l2.2-.03z" fill="url(#d)"/><path d="m10.18 11.24-1.46-.77.23-.44 1.46.77z" fill="url(#f)"/><path d="m7.88 5.34c0-1.01.36-1.81.7-2.3.05-.08.18-.03.15.07a5.47 5.47 0 0 0 -.01 3.48c.32.88 1 1.62 1.46 2.46.61 1.2.37 2.36-.04 3.18a7.4 7.4 0 0 1 -1.72 2.03c-.41.37-.8.67-.94.72-.26.09-.22-.13 0-.31a9.31 9.31 0 0 0 1.77-1.86c.43-.64.67-1.18.75-1.42a3.35 3.35 0 0 0 -.72-2.84 4.97 4.97 0 0 1 -1.4-3.21z" fill="#00833c"/><path d="m9.35 13.1-1.65-1.33.31-.39 1.65 1.33-.3.4z" fill="url(#g)"/></svg>