<svg height="18" viewBox="0 0 18 18" width="18" xmlns="http://www.w3.org/2000/svg" xmlns:xlink="http://www.w3.org/1999/xlink"><linearGradient id="a" gradientUnits="userSpaceOnUse" x1="12.54" x2="4.47" y1="5.46" y2="11.54"><stop offset="0" stop-color="#cb474f"/><stop offset=".52" stop-color="#fe7c1d"/><stop offset="1" stop-color="#fa8125" stop-opacity=".17"/></linearGradient><linearGradient id="b" gradientUnits="userSpaceOnUse" x1="13.64" x2="7.23" y1="7.45" y2="14.3"><stop offset="0" stop-color="#6bbedd"/><stop offset=".5" stop-color="#4851f0"/><stop offset="1" stop-color="#4d59e2" stop-opacity=".19"/></linearGradient><linearGradient id="c" gradientUnits="userSpaceOnUse" x1="9.11" x2="6.79" y1="8.89" y2="6.57"><stop offset="0" stop-color="#43a84a"/><stop offset=".88" stop-color="#ebb74b"/></linearGradient><linearGradient id="d" gradientUnits="userSpaceOnUse" x1="11.87" x2="7.9" y1="8.34" y2="12.32"><stop offset="0" stop-color="#358ca8"/><stop offset=".47" stop-color="#0d9b69"/><stop offset="1" stop-color="#10ab51"/></linearGradient><path d="m0 0h18v18h-18z" fill="#f0f3fa"/><path d="m12.54 5.46a5 5 0 1 0 -7.08 7.08l1.34-1.34a3.13 3.13 0 0 1 4.42-4.42l1.33-1.33z" fill="url(#a)"/><path d="m12.54 5.46a5 5 0 1 1 -7.08 7.08l1.34-1.34a3.13 3.13 0 0 0 4.42-4.42l1.33-1.33z" fill="url(#b)"/><path d="m11.21 6.8a3.13 3.13 0 0 0 -4.42 4.41l4.42-4.42z" fill="url(#c)"/><path d="m11.21 6.8a3.13 3.13 0 1 1 -4.42 4.41l4.42-4.42z" fill="url(#d)"/></svg>