<svg height="18" width="18" xmlns="http://www.w3.org/2000/svg"><path d="m0 0h18v18h-18z" fill="#241c71"/><path d="m6.75 9.6a5.73 5.73 0 0 1 .73-3.25c-1.14-.87-2.3-1.18-3.18-.47-1.5 1.2-.68 4.03.79 5.5 1.04 1.03 2.17 1.53 3.12 1.35-.81-.5-1.34-1.65-1.46-3.14z" fill="#79cede"/><path d="m13.5 7.9a2.1 2.1 0 0 0 -1.91-.51c.1.49.17.99.19 1.5.1 2.53-.64 3.58-1.65 3.94.82.3 1.78.06 2.9-1.37.98-1.27 1.36-2.67.47-3.56zm-5-.62c.38.4.72.85 1.02 1.33a3.8 3.8 0 0 1 2.07-1.22c-.3-1.35-.95-2.3-2-2.39-.88-.06-1.6.51-2.1 1.34.35.29.7.6 1 .94zm.68 4.96c-.27.25-.6.42-.96.5.34.2.73.29 1.11.25.27-.01.54-.07.8-.16a2.87 2.87 0 0 1 -.95-.6z" fill="#a66bf9"/><path d="m9.31 8.87.2-.26a8.13 8.13 0 0 0 -2.03-2.26 5.73 5.73 0 0 0 -.73 3.25c.12 1.48.65 2.64 1.47 3.13.36-.07.7-.24.96-.5-.85-.82-.74-2.13.13-3.36z" fill="#1d54ce"/><path d="m11.78 8.88c-.02-.5-.08-1-.19-1.5-.8.17-1.53.6-2.07 1.23.95 1.59.55 2.7-.23 3.53l-.1.1c.05.05.1.1.17.14.23.2.5.35.78.45 1-.36 1.74-1.4 1.64-3.95z" fill="#5e40dd"/><path d="m9.18 12.24.1-.1c.79-.84 1.19-1.94.23-3.53-.08.08-.14.17-.2.26-.87 1.23-.98 2.54-.13 3.37z" fill="#1825c6"/></svg>