<svg height="18" width="18" xmlns="http://www.w3.org/2000/svg"><path d="m0 0h18v18h-18z" fill="#f0f3fa"/><path d="m14 4.51v3.34l-1 .54v-2.22l-4 2.23v-1.15z" fill="#0092c8"/><path d="m13 8.39v-2.23l-1 .55v1.12z" fill="#0072a6"/><path d="m13.01 4 .99.52-5 2.74-5-2.75.98-.51 4 2.18 4.04-2.18z" fill="#2aace3"/><path d="m9 7.25v1.15l-4-2.15v2.15l4 2.16v4.44l-5-2.76v-1.14l4 2.2v-2.13l-4-2.23v-4.44l5 2.74z" fill="#0072a6"/><path d="m6 6.76-1-.53v2.18l1-.54v-1.1z" fill="#0092c8"/><path d="m10 10.02-3.99-2.16-1.01.54 4 2.18zm-4.93.52-1.07.56 4 2.21v-1.2zm6.93.59-2 1.03v1.18l3.02-1.68zm2-2.2-.93-.55-2.07 1.07 1.03.59 1.97-1.1z" fill="#2aace3"/><path d="m11 10.58v-1.14l1 .54v1.14zm2 .01-1 .55 1 .52v-1.06z" fill="#0072a6"/><path d="m14 8.93-2 1.07v1.15l1-.55v1.07l-3 1.63v-3.27l-1 .55v4.42l5-2.76v-3.3z" fill="#0092c8"/></svg>