<svg height="18" viewBox="0 0 18 18" width="18" xmlns="http://www.w3.org/2000/svg" xmlns:xlink="http://www.w3.org/1999/xlink"><linearGradient id="a" gradientUnits="userSpaceOnUse" x1="9.5" x2="11.34" y1="10.59" y2="13.71"><stop offset=".54" stop-color="#999"/><stop offset=".62" stop-color="#fff"/><stop offset=".78" stop-color="#3b499f"/></linearGradient><path d="m0 0h18v18h-18z" fill="#f0f3fa"/><path d="m7.97 7.1h-1.73c0-.16-.14-.38-.67-.38-.52 0-.69.24-.7.35 0 .42 1.27.64 1.37.64 1.73.38 1.9 1.3 1.9 1.6s-.07 1.89-2.57 1.89c-2 0-2.54-1.1-2.57-1.7h1.75c0 .28.4.49.82.49s.84-.23.84-.44.01-.16-1.54-.66c-1.56-.5-1.74-1.12-1.74-1.55 0-.44.34-1.84 2.44-1.84 1.69 0 2.3 1.03 2.4 1.6z" fill="#3b499f"/><path d="m13.5 8.17h-1.44v1.06h1.44v1.28h1.5v-4.01h-1.5z" fill="#999"/><path d="m12.3 6.5v5.42c0 .87-.82 1.58-1.68 1.58h-.58c-.58.03-1.82-.19-2.14-1.22h1.61l.06.17c.1.2.34.27.57.27.32 0 .69-.35.69-.68v-.88c-.3.5-.84.82-1.44.82h-.18c-.94 0-1.7-.8-1.7-1.8v-.67c0-.99.76-1.8 1.7-1.8h.18c.6 0 1.13.33 1.44.82v-2.03zm-3 3.2c0-.42.32-.76.71-.76h.08c.4 0 .71.34.71.76v.3c0 .42-.32.76-.71.76h-.09c-.4 0-.71-.34-.71-.77v-.29z" fill="url(#a)" fill-rule="evenodd"/></svg>