<svg height="18" viewBox="0 0 18 18" width="18" xmlns="http://www.w3.org/2000/svg"><path d="m0 0h18v18h-18z" fill="#f0f3fa"/><path d="m8.65 6v-2l-.95 2.06c-2.69.25-4.7 1.27-4.7 2.48 0 .87 1.03 1.64 2.6 2.1l-1.54 3.36 4.59-2.23v-5.23a14.26 14.26 0 0 1 .7 0v5.23l4.6 2.23-1.55-3.36c1.57-.46 2.6-1.23 2.6-2.1 0-1.21-2.01-2.23-4.7-2.48l-.95-2.06v2a14.37 14.37 0 0 0 -.7 0zm1.9.62 1.4 3.06c1.25-.32 2.05-.83 2.05-1.4 0-.77-1.46-1.43-3.44-1.66zm-3.1 0c-2.01.23-3.45.89-3.45 1.66 0 .57.81 1.08 2.04 1.4l1.4-3.06z" fill="#0b3f8d" fill-rule="evenodd"/></svg>