<svg height="18" viewBox="0 0 18 18" width="18" xmlns="http://www.w3.org/2000/svg"><path d="m0 0h18v18h-18z" fill="#f0f3fa"/><path d="m6.81 11c.3 0 .53.24.53.51s-.24.48-.53.48h-1.58c-1.54 0-2.83-1-3.15-2.32h1.07a2.36 2.36 0 0 0 2.17 1.33h1.5zm-1.9-1.5h.47c.22 0 .4-.22.4-.5s-.18-.5-.4-.5h-3.33a2.77 2.77 0 0 0 0 1h2.87zm-2.83-1.16a3.19 3.19 0 0 1 3.15-2.3h.19c.8.02 2.83.43 3.61 1.77-.35.5-.46.88-.47 1-.72-1.54-2.48-1.81-3.14-1.81h-.1c-1 0-1.9.53-2.2 1.34z" fill="#042a73"/><path d="m8.65 9.24v2.76c.58 0 .97-.59 1.05-.88v-1.88c-0-.61 1.04-2.24 2.98-2.24 1.92 0 2.32 1.51 2.32 2s-.32 2-2.32 2c-1.61 0-2.41-1-2.68-1.55v1.43a3.92 3.92 0 0 0 2.59 1.12c1.17-.03 3.4-.66 3.4-3 0-2.33-2.08-2.97-3.17-3-2.98 0-4.02 2.16-4.17 3.24z" fill="#cd001e"/></svg>