<svg height="18" viewBox="0 0 18 18" width="18" xmlns="http://www.w3.org/2000/svg"><path d="m0 0h18v18h-18z" fill="#f0f3fa"/><path d="m9 14a5 5 0 1 0 0-10 5 5 0 0 0 0 10zm-3.23-8h1.23c0-1 .52-1 1-1s.85-.16 1-.5c.15.34.5.5 1 .5s1 0 1 1h1.38l.11.37c.2.66.51 1.7.51 2.55 0 1.69-.62 2.38-2.15 3.22-.06-.1-.28-.33-.77-.33-.5 0-.62.22-.62.33.26 0 .77.07.77.34s-.51.3-.77.28c0 .25-.1.74-.46.74-.37 0-.46-.5-.46-.74-.3.02-.77 0-.77-.28 0-.27.56-.34.77-.34 0-.1-.25-.33-.62-.33s-.61.22-.61.33c-1.23-.33-2.31-.84-2.31-3.22 0-.8.37-1.8.6-2.45l.18-.47z" fill="#dc4f17"/><path d="m8.25 7h-2.25v.67h.3v2.89h-.3v.44h1.35v-.44h-.3v-2.9h.3l1.35 3.34h.6l1.2-3.33h.3v2.89h-.3v.44h1.5v-.44h-.3v-2.9h.3v-.66h-1.8l-.9 2.44z" fill="#ee5104"/></svg>