<svg height="18" viewBox="0 0 18 18" width="18" xmlns="http://www.w3.org/2000/svg"><path d="m0 0h18v18h-18z" fill="#f0f3fa"/><path d="m2 12v-6h4.56l-.34 1.01c-.1-.11-.31-.37-.44-.37h-2.78v1.71h2.92l-.29 1.05c-.02-.13-.14-.4-.39-.4h-2.24v3zm4.96-1.42-.46.54a3.2 3.2 0 0 0 2.16.88c.84 0 2.34-.3 2.34-1.57 0-1.15-1.43-1.82-2.13-2.14l-.2-.1c-.57-.28-.79-.68-.79-.98 0-.23.14-.78 1.12-.78.77 0 1.36.59 1.5.87l.5-.57c-.3-.24-1-.73-2-.73s-2.33.46-2.33 1.51c0 .94 1.38 1.72 2.31 2.24l.33.19c.32.18.48.45.48.7 0 .47-.5.93-1.13.93-.8 0-1.51-.68-1.7-.99zm9.04-3.9-.57.59c-.17-.25-.72-.84-1.47-.84-.94 0-1.96 1.1-1.96 2.7s.98 2.44 1.83 2.44c.68 0 1.1-.39 1.21-.54v-1.58a.62.62 0 0 0 -.68.36l-.31-.81h1.95v2.49a5.1 5.1 0 0 1 -2.17.51c-1.13 0-2.83-1-2.83-3s1.64-3 2.96-3c1.06 0 1.8.48 2.04.68z" fill="#0080d4"/></svg>