<svg height="18" viewBox="0 0 18 18" width="18" xmlns="http://www.w3.org/2000/svg"><path d="m0 0h18v18h-18z" fill="#f0f3fa"/><path d="m10.55 6.68c1.43.04 3.09.36 3.32 1.43.16.9-.56 1.55-1.48 2l-.06.3c1.73-.72 2.8-1.7 2.66-2.57-.19-1.04-1.99-1.61-4.34-1.54l-.1.37zm-1.76-.19-.19.03c-3.3.59-5.8 2.12-5.59 3.42.14.81 1.28 1.34 2.92 1.5l.09-.28c-.9-.13-1.64-.46-1.77-1.22-.33-1.99 3.4-2.99 4.4-3.16l.09-.01z" fill="#2347a3"/><path d="m10.3 6h-1.1l-1.34 4.5h4.04l.24-1h-2.94z" fill="#66c52e"/><path d="m8.6 7.5h-1.12l-1.34 4.5h4.04l.25-1h-2.94l1.1-3.5z" fill="#2347a3"/></svg>