<svg height="18" viewBox="0 0 18 18" width="18" xmlns="http://www.w3.org/2000/svg" xmlns:xlink="http://www.w3.org/1999/xlink"><linearGradient id="a" gradientUnits="userSpaceOnUse" x1="9" x2="9" y1="3" y2="15"><stop offset="0" stop-color="#079e8b"/><stop offset=".42" stop-color="#1bbfa4"/><stop offset="1" stop-color="#01a18e"/></linearGradient><path d="m0 0h18v18h-18z" fill="#f0f3fa"/><path d="m3.43 7.96c-.57.58-.57 1.5 0 2.08l3.41 3.41c.44-.5.92-1.56.92-2.86 0-1.35-.59-1.97-1.22-2.62-.48-.5-.97-1-1.25-1.87zm1.97-1.96c.22.49.5 1.06.78 1.42.13.18.34.38.57.59.66.62 1.5 1.4 1.37 2.59-.04.3-.06.56-.07.8-.08.94-.12 1.49-.8 2.47l.71.71c.58.57 1.5.57 2.08 0l.83-.83a5 5 0 0 1 -.81-3.33 4.47 4.47 0 0 1 3.03-3.93l-1.19-1.2c-.27.85-1.09 1.93-1.66 2.65-.57.7-1.06 2.41-1.24 3.18.11-.77-.33-1.61-.8-2.52-.29-.55-.59-1.12-.79-1.72-.3-.9-.32-1.9-.27-2.63l-1.74 1.74zm1.8-1.8c.02.87.26 1.96.4 2.5.14.57 1 2.24 1.41 3 .14-.54.58-1.18 1.1-1.94l.49-.7c.45-.68.86-1.48 1.1-1.98l-1.65-1.65a1.47 1.47 0 0 0 -2.08 0zm6 2.39c-2.57 1.56-2.64 2.43-2.73 3.65l-.05.52c-.1.92.34 1.94.77 2.67l3.39-3.4c.57-.57.57-1.5 0-2.07l-1.39-1.36z" fill="url(#a)"/></svg>