<svg height="18" viewBox="0 0 18 18" width="18" xmlns="http://www.w3.org/2000/svg"><path d="m0 0h18v18h-18z" fill="#f0f3fa"/><path d="m10.84 4.05-.04.02c-.57.18-.88.75-.68 1.29l2.01 5.61c.2.54.81.82 1.38.64l.04-.01c.57-.18.88-.76.69-1.29l-2.02-5.61a1.1 1.1 0 0 0 -1.38-.64z" fill="#8fb73d"/><path d="m8.37 5.39-.05.01c-.57.18-.87.74-.67 1.25l1.65 4.35c.2.5.8.78 1.38.6l.05-.01c.56-.18.87-.74.67-1.25l-1.65-4.34c-.2-.5-.81-.78-1.38-.6z" fill="#6fa341"/><path d="m5.9 6.4-.06.02c-.57.18-.86.76-.66 1.28l1.28 3.3c.2.52.83.8 1.4.6l.06-.01c.57-.2.87-.77.66-1.29l-1.28-3.3c-.2-.52-.83-.8-1.4-.6z" fill="#5e8453"/><path d="m3.7 7.73-.08.03a.94.94 0 0 0 -.56 1.21l.82 2.09c.2.49.75.73 1.25.54l.07-.02c.5-.19.75-.73.56-1.22l-.82-2.09a.97.97 0 0 0 -1.25-.54z" fill="#477060"/><path d="m13.93 12h-4.86c-.6 0-1.07.44-1.07.97v.07c0 .53.48.96 1.07.96h4.86c.6 0 1.07-.44 1.07-.97v-.07c0-.53-.48-.96-1.07-.96z" fill="#b2d233"/></svg>