<svg height="18" viewBox="0 0 18 18" width="18" xmlns="http://www.w3.org/2000/svg"><path d="m0 0h18v18h-18z" fill="#f0f3fa"/><path d="m9.23 5.94a5.2 5.2 0 0 0 -2.1.42l-.41-.84a6.06 6.06 0 0 1 2.51-.52c.8 0 1.5.27 2 .78.5.52.77 1.23.77 2.04v3.77c0 .39-.27.75-.7 1-.44.25-1.1.41-2.07.41-1.2 0-2.02-.24-2.55-.7a2.1 2.1 0 0 1 -.68-1.65c0-.55.14-1.18.68-1.65.53-.46 1.35-.7 2.55-.7h1.85v-.48c0-.6-.2-1.06-.5-1.37s-.76-.5-1.35-.5zm1.85 3.3h-1.85c-1.1 0-1.67.22-1.95.47-.26.23-.36.54-.36.94 0 .39.1.7.36.93.28.25.84.48 1.95.48.88 0 1.37-.15 1.62-.3.18-.1.22-.18.23-.2v-2.31z" fill="#78ccc5"/></svg>