<svg height="18" viewBox="0 0 18 18" width="18" xmlns="http://www.w3.org/2000/svg"><path d="m0 0h18v18h-18z" fill="#f0f3fa"/><g fill="#0089da"><path d="m7 9.63v-.3c0-1.08.67-1.96 1.5-1.96s1.5.88 1.5 1.95v.3h-.23c0-.5-.34-1.12-.92-1.12s-.85.63-.85 1.13z"/><path d="m8 9.63v.3c0 1.07-.67 1.95-1.5 1.95s-1.5-.88-1.5-1.97v-.3h.23c0 .5.34 1.13.92 1.13s.85-.63.85-1.13h1zm2 0v-.3c0-1.08.67-1.96 1.5-1.96s1.5.88 1.5 1.95v.3h-.23c0-.5-.34-1.12-.92-1.12s-.85.63-.85 1.13z"/><path d="m11 9.63v.3c0 1.07-.67 1.95-1.5 1.95s-1.5-.88-1.5-1.97v-.3h.23c0 .5.34 1.13.92 1.13s.85-.56.85-1.13h1z"/></g><path d="m9.55 4.64c-.26-.45-.84-.45-1.1 0l-4.07 6.86c-.3.5.02 1.19.55 1.19h8.14c.53 0 .85-.68.55-1.19zm-1.32-.17c.37-.63 1.17-.63 1.54 0l4.07 6.87c.42.7-.03 1.66-.77 1.66h-8.14c-.74 0-1.19-.95-.77-1.66z" fill="#0b88c5"/></svg>