<svg height="18" viewBox="0 0 18 18" width="18" xmlns="http://www.w3.org/2000/svg"><path d="m0 0h18v18h-18z" fill="#f0f3fa"/><path d="m6.4 5.93c-.32 0-.48.19-.48.4v1.74c0 .09.06.24.32.13.26-.1 1.84-1.73 2.6-2.53v-.4l-.33-.14v-.13h.98v.13l-.33.14v.4l2.44 2.53c.17.13.52.08.65-.13.13-.22.06-1.47 0-2 0 0-.16-.14-.48-.14v-.13h.97v.13c-.1 0-.32.03-.32.14v.13l1.94 5.33c.16.27.52.27.65.27v.13h-1.3v-.13c.16 0 .49-.13.49-.27 0-.13-1.62-2.13-2.1-2.13-.5 0-2.77 2.8-2.93 3.07v.13c.11.09.4.27.65.27v.13h-1.62v-.13c.22 0 .65-.06.65-.27v-.13c-.81-.94-2.7-3.07-3.08-3.07-.49 0-1.79 1.87-1.95 2.13 0 .1.07.27.33.27v.13h-1.15v-.13c.16 0 .52-.05.65-.27.16-.26 2.1-5.06 2.1-5.2v-.13c0-.13-.19-.27-.32-.27l.01-.13h.97v.13zm2.6-.13-2.1 3.2 2.1 3.33 2.1-3.33z"/><path d="m8 9 1-2 1 2-1 2z"/></svg>