<svg height="18" viewBox="0 0 18 18" width="18" xmlns="http://www.w3.org/2000/svg"><path d="m0 0h18v18h-18z" fill="#f0f3fa"/><g fill="#e20c15"><path d="m6.5 11.5 1.52-7.43c.01-.05-.06-.1-.1-.05l-2.05 2.12a.93.93 0 0 0 -.23.44l-1.64 7.04c-.05.2.1.38.29.38h5.91c.15 0 .28-.05.39-.15l2.9-2.26c.04-.05 0-.12-.07-.09-.63.35-1.54.55-2.13.55h-4.33c-.33 0-.5-.36-.46-.55z"/><path d="m12.51 8h-3.43c-.07 0-.13 0-.14.08l-.58 2.64c-.02.1.05.28.14.28h3.37c.89 0 1.92-.32 2.12-1.56.14-.94-.89-1.44-1.49-1.44zm.32-4h-3c-.06 0-.18.07-.2.13l-.55 2.33c-.02.1.05.19.14.19h2.92c.9 0 1.52-.64 1.67-1.56.12-.76-.54-1.09-.98-1.09z"/></g></svg>