<svg height="18" viewBox="0 0 18 18" width="18" xmlns="http://www.w3.org/2000/svg"><path d="m0 0h18v18h-18z" fill="#f0f3fa"/><path d="m4.13 12.48c.64 1.09 3.33.41 6.02-1.5.32-.24.63-.47.91-.71l.07.14c.33.66 1.21.78 1.97.28s1.1-1.44.77-2.1c-.14-.29-.4-.47-.69-.55.73-1.03 1.01-1.96.69-2.52-.64-1.09-3.33-.41-6.02 1.5-.44.32-.85.65-1.22.98h.14l-.52.8h.64l.51-.8h.6l-1.31 2h-.6l.53-.8h-.62l-.53.8h-.67c-.7 1.01-.98 1.92-.66 2.48zm9.05-4.44c-.39-.1-.85-.01-1.28.27-.7.47-1.05 1.31-.84 1.96.88-.74 1.61-1.5 2.12-2.23zm-2.53.36.35-.4h-1.08c-.33.04-1.02.25-1.02.72 0 .14.25.32.47.48.15.1.28.2.28.25 0 .1-.06.14-.1.15h-1.25l-.3.4h1.55c.25-.06.85-.27.85-.67 0-.18-.26-.37-.48-.53-.15-.1-.27-.2-.27-.25 0-.07.06-.13.24-.15z" fill="#5126a2" fill-rule="evenodd"/></svg>