<svg height="18" viewBox="0 0 18 18" width="18" xmlns="http://www.w3.org/2000/svg" xmlns:xlink="http://www.w3.org/1999/xlink"><linearGradient id="a" gradientUnits="userSpaceOnUse" x1="5.15" x2="12.49" y1="5.15" y2="12.71"><stop offset="0" stop-color="#6ac6f2"/><stop offset=".59" stop-color="#0082ce"/></linearGradient><path d="m0 0h18v18h-18z" fill="#f0f3fa"/><path d="m4 5a1 1 0 0 1 1-1h8a1 1 0 0 1 1 1v8a1 1 0 0 1 -1 1h-8a1 1 0 0 1 -1-1z" fill="#0082ce"/><path d="m5 5.8c0-.44.36-.8.8-.8h6.4c.44 0 .8.36.8.8v6.4a.8.8 0 0 1 -.8.8h-6.4a.8.8 0 0 1 -.8-.8z" fill="url(#a)"/><g fill="#f0f3fa"><path d="m7.92 9.1h-.92c0-.18-.2-.37-.48-.37-.35 0-.52.14-.52.31 0 .18.08.22.8.44s1.2.7 1.2 1.3c0 .62-.23 1.22-1.52 1.22-1.02 0-1.45-.9-1.48-1.35h.92c0 .44.28.62.56.62.35 0 .52-.14.52-.36 0-.21-.28-.34-.64-.43-.64-.22-1.36-.52-1.36-1.35s.8-1.13 1.48-1.13c1.18 0 1.45.7 1.44 1.1z"/><path d="m9 8h-1v4h1v-1h1.14c.48 0 .86-.48.86-1.07v-.85c0-.6-.38-1.07-.86-1.07h-1.14zm0 1v1h.71c.16 0 .29-.16.29-.36v-.28c0-.2-.13-.36-.29-.36z" fill-rule="evenodd"/><path d="m11 8h1v1.45h1v-1.45h1v4h-1v-1.45h-1v1.45h-1z"/></g></svg>