<svg height="18" viewBox="0 0 18 18" width="18" xmlns="http://www.w3.org/2000/svg" xmlns:xlink="http://www.w3.org/1999/xlink"><linearGradient id="a" gradientUnits="userSpaceOnUse" x1="9" x2="9" y1="5" y2="13"><stop offset="0" stop-color="#78c7ee"/><stop offset=".77" stop-color="#004890"/><stop offset=".88" stop-color="#0060a8"/><stop offset="1" stop-color="#0858a1"/></linearGradient><path d="m0 0h18v18h-18z" fill="#f0f3fa"/><path d="m8.3 5.8c.28-.64-.8-.8-1.36-.8h-.35c-1.03 0-2.06 3-1.71 3.4.27.32.11 1.33 0 1.6l-.86 2.46c-.08.26.08.54.32.54h2.04c.13 0 .25-.09.3-.22l1.2-2.56c.05-.13.17-.22.3-.22h1.29c.25 0 .42.31.3.58l-.87 1.84c-.11.27.05.58.3.58h1.85c.28 0 .69-.4 1.03-1.2l1.9-6.27c.08-.26-.09-.53-.32-.53h-1.58c-.27 0-.57.53-.68.8l-.94 1.98c-.06.13-.17.22-.3.22h-2.33c-.25 0-.42-.31-.3-.58z" fill="url(#a)"/></svg>