<svg height="18" viewBox="0 0 18 18" width="18" xmlns="http://www.w3.org/2000/svg"><path d="m0 0h18v18h-18z" fill="#f0f3fa"/><path d="m11.63 12.4a4.62 4.62 0 0 0 -2.63-8.4 4.6 4.6 0 0 0 -3.74 7.3l3.79-3.21.4 1.2 1.52-.43-2.79 4.3.31.04 2.96-4.64 2.01-.45-2.54 4.29h.7zm-.15.1h-.74l2.52-4.24-1.74.39-2.92 4.55a4.62 4.62 0 0 0 2.88-.71zm-3.4.64c-.4-.08-.76-.21-1.1-.38l.67-1.03-.4.19v-.2l-.92.65a4.63 4.63 0 0 1 -1-1l3.67-3.1.39 1.16 1.35-.39-2.67 4.1zm-1.66-.7.74-.52v.16l.2-.1-.48.73a4.57 4.57 0 0 1 -.46-.28z" fill="#e72b31"/><path d="m7.84 13.5 2.9-4.47-1.35.39-.39-1.16-5 4.24v1.5l3.26-2.27v.19l.39-.2-1.17 1.78zm5.42-5.24-1.74.39-3.1 4.85h3.1l.58-1h-1.36zm.2 4.24h-.98l-.58 1h.97l.58-1zm-.2 1 .58-1h1.16l-.58 1z"/></svg>