<svg height="18" viewBox="0 0 18 18" width="18" xmlns="http://www.w3.org/2000/svg"><path d="m0 0h18v18h-18z" fill="#000073"/><path d="m10.54 7.7.04-.03c.64-.5 1.42-.46 1.68-.42-.1-.3-.58-1.25-1.96-1.25-.78 0-1.3.4-1.59.73-.34.39-.43.85-.44 1.1-.12 1.57-.7 2.33-.9 2.49-.71.56-1.38.53-1.64.48a2 2 0 0 0 2 1.2 2.06 2.06 0 0 0 1.43-.56c.45-.43.65-1.52.67-1.72.1-.97.5-1.85.71-2.03zm3.46-1.5a.48.48 0 0 0 -.18-.36l-1.07-.79s-.21-.17-.21.1v3.65c0 .23-.07.9-.71 1.43-.79.64-1.62.57-1.91.53.16.3.74 1.23 2.06 1.23 1.21 0 2.03-.96 2.03-1.9l-.01-3.9zm-7.82 1.58a2.44 2.44 0 0 1 1.9-.52 2.27 2.27 0 0 0 -2.04-1.26 2.03 2.03 0 0 0 -2.04 1.97v3.83c0 .23.18.36.18.36l1.08.79s.21.17.21-.1v-3.68c0-.23.06-.86.7-1.39z" fill="#fff"/></svg>