<svg height="18" viewBox="0 0 18 18" width="18" xmlns="http://www.w3.org/2000/svg"><path d="m0 0h18v18h-18z" fill="#f0f3fa"/><g fill="#c40117"><path d="m9 3a6.06 6.06 0 0 1 6 5.99 8.92 8.92 0 0 1 -.14 1.29h-.5v-.02a5.5 5.5 0 1 0 -1.3 2.44.17.17 0 0 1 .14-.05h.51c.05 0 .06.02.03.05a6 6 0 0 1 -10.74-3.75 5.94 5.94 0 0 1 6-5.95z"/><path d="m11.6 4.84a4.9 4.9 0 1 0 .63 7.85.2.2 0 0 1 .15-.05h.29c.08 0 .1.02.03.08a5.25 5.25 0 1 1 1.38-2.44h-.33l-.01-.01a4.9 4.9 0 0 0 -2.14-5.43z"/><path d="m7.84 7.14.55-.45a.02.02 0 0 1 .02 0l1.17.53a.02.02 0 0 1 0 .01l.9 2.8a.02.02 0 0 1 0 .03h-4.58a.02.02 0 0 1 -.02-.02l.7-4.9a.02.02 0 0 1 .02-.02.02.02 0 0 1 .02 0l1.14 1a.02.02 0 0 1 0 .01l.04 1a.02.02 0 0 0 .03 0zm2.9 2.91-.54-1.58v-.02l1.41-1.77h.01a.02.02 0 0 1 .02 0l1.36 3.36v.02h-2.24zm-5.09 2.13h9.17l.01.03v.31h-9.23l-.01-.02v-.01l.02-.28.01-.02.02-.01zm.2-1.64-.13 1.24h8.98v-1.24z"/></g></svg>