<svg height="18" viewBox="0 0 18 18" width="18" xmlns="http://www.w3.org/2000/svg"><path d="m0 0h18v18h-18z" fill="#f0f3fa"/><path d="m9 15a6 6 0 1 0 0-12 6 6 0 0 0 0 12zm2.54-8.26-5.9 1.95c-.54-.1-.7-1.03.37-1.62.98-.54 2.15-1.04 3.63-1.3 1.49-.27 1.78.1 1.96.35.14.2.02.5-.06.62zm-5.3 3.75c-.24.09-.28.18-.27.21 0 .02.02.05.1.02l.08-.06c.03-.02.05-.04.08-.04.56-.07 2.54.31 3.46.5.84-.97 2.31-2.34 2.39-2.4s.1-.07.25-.07c.12 0 .1-.05.1-.07-.08-.09-.24-.05-.3-.02-1.87.6-5.66 1.85-5.9 1.93zm.02.97-.18-.57c.23-.12.63-.1.8-.08l1.74.2-1.98.65a.3.3 0 0 1 -.38-.2zm6.2-2.65.18.57a.3.3 0 0 1 -.19.38l-1.98.65 1.3-1.2c.13-.11.44-.36.7-.4z" fill="#e51937" fill-rule="evenodd"/><g fill="#f0f3fa"><path d="m14.4 9a5.4 5.4 0 1 1 -10.8 0 5.4 5.4 0 0 1 10.8 0zm-5.4 4.8a4.8 4.8 0 1 0 0-9.6 4.8 4.8 0 0 0 0 9.6z"/><path d="m4.73 9.48c.09-.07 5.35-1.87 7.97-2.76l.32 1.06-7.87 2.78zm6.27 3.63c1.8-.9 2.3-2.13 2.26-2.8l-.84.06c.01.23-.2 1.2-1.8 2-1.5.74-3.04.12-3.62-.28l-.48.68c.71.5 2.6 1.28 4.48.34z" opacity=".7"/></g></svg>