<svg height="18" viewBox="0 0 18 18" width="18" xmlns="http://www.w3.org/2000/svg"><path d="m0 0h18v18h-18z" fill="#f0f3fa"/><path d="m5.03 13.12c1.67 1.57 4.81.98 7-1.3 2.2-2.27 2.62-5.38.94-6.94a3.29 3.29 0 0 0 -.85-.57c.66.35 1.27 1.05 1.34 2.34.1 2.1-1.87 6.09-6.14 7.33-.8 0-2.32-.39-2.32-2.02 0-1.69.78-3.1 2.03-4.41 1.03-1.09 2.27-2.17 3.97-2.55l-1.52 4.04a2.53 2.53 0 0 0 -.44-.04c-.5 0-2.82 1.03-3.04 3.29 0 .5.42 1.09 1.32 1.09s2.53-.8 4.27-3.06a6.7 6.7 0 0 0 1.45-3.82c0-1.12-.89-2.26-1.8-2.45-1.66-.26-3.7.5-5.27 2.12-2.2 2.28-2.62 5.4-.94 6.95z" fill="#c6ab75"/></svg>