<svg height="18" width="18" xmlns="http://www.w3.org/2000/svg"><path d="m0 0h18v18h-18z" fill="#ffd500"/><path d="m9.002 13.269c-.358 0-.586-.269-.586-.269-.294-.012-2.591-.007-2.591-.007l-.182-2.2s-1.415-.95-1.53-1.06c-.678-2.935 1.777-5.733 4.887-5.733s5.566 2.798 4.886 5.733c-.114.11-1.53 1.06-1.53 1.06l-.265 2.2s-2.298-.007-2.591.007c0-.002-.14.269-.498.269z" fill="#ed1c24"/><path d="m9.003 10.084-.216-5.19c-.261-.052-.93.01-1.288.263l1.04 4.946-1.419-4.743c-.34-.003-1.028.545-1.079.707l2.074 4.208-2.33-3.845c-.228.082-.731.962-.65 1.064l2.595 3.028-2.67-2.585s-.348.504-.123 1.356l1.509 1.038.134 1.669h1.85s.318.305.533.305c.214 0 .5-.305.5-.305h1.851l.243-1.669 1.509-1.037c.227-.854-.122-1.357-.122-1.357l-2.67 2.585 2.597-3.026c.08-.103-.423-.984-.652-1.064l-2.33 3.846 2.074-4.207c-.051-.162-.739-.71-1.078-.707l-1.421 4.742 1.041-4.945c-.358-.254-1.025-.316-1.288-.264l-.215 5.187z" fill="#fcfcfc"/></svg>