<svg height="18" viewBox="0 0 18 18" width="18" xmlns="http://www.w3.org/2000/svg"><path d="m0 0h18v18h-18z" fill="#f0f3fa"/><path d="m12.85 10.45c2.02-.91 3.29-2.05 3.14-3-.22-1.42-3.53-1.87-7.4-1.02-3.85.86-6.8 2.7-6.58 4.12s3.53 1.87 7.4 1.02c.74-.17 1.45-.37 2.11-.6l.27.03h1.59v-.55zm0 0h-.87a.95.95 0 0 1 -.94-.96c0-.53.43-.96.94-.96h1.4v-.53h-1.59c-.73 0-1.33.62-1.33 1.38v.24c0 .67.46 1.22 1.06 1.35.47-.16.92-.34 1.33-.52zm-4.72-2.45h-1.82c-.45 0-.82.4-.82.89 0 .5.37.9.82.9h1.06c.17 0 .3.14.3.33 0 .18-.13.33-.3.33h-1.87v.55h2.03c.46 0 .84-.4.84-.9s-.38-.9-.84-.9h-1.08c-.16 0-.3-.16-.3-.34s.14-.32.3-.32h1.67v-.54zm1.6 1.5c0 .18-.13.33-.3.33-.15 0-.28-.15-.28-.33s.13-.33.29-.33.29.15.29.33z" fill="#d41619" fill-rule="evenodd"/></svg>