<svg height="18" viewBox="0 0 18 18" width="18" xmlns="http://www.w3.org/2000/svg"><path d="m0 0h18v18h-18z" fill="#f0f3fa"/><path d="m12.54 6.93a1.46 1.46 0 1 0 0-2.93 1.46 1.46 0 0 0 0 2.93z" fill="#e60012"/><path d="m8.23 5.46c0 .76.54 1.37 1.22 1.37.67 0 1.22-.6 1.22-1.37 0-.75-.54-1.37-1.22-1.37-.67 0-1.22.61-1.22 1.37zm-2.36.01c0 .7.44 1.27.98 1.27.53 0 .97-.57.97-1.27 0-.71-.44-1.28-.97-1.28-.54 0-.98.57-.98 1.28zm-1.87 0c0 .65.33 1.18.73 1.18s.73-.53.73-1.18c0-.66-.32-1.19-.73-1.19-.4 0-.73.53-.73 1.19zm8.54 4.3c.75 0 1.37-.54 1.37-1.22 0-.67-.61-1.22-1.37-1.22s-1.37.55-1.37 1.22.6 1.22 1.37 1.22z" fill="#221815"/><path d="m9.45 9.72a1.17 1.17 0 1 0 0-2.34 1.17 1.17 0 0 0 0 2.34z" fill="#e60012"/><path d="m5.92 8.55c0 .6.41 1.08.92 1.08.52 0 .93-.48.93-1.07 0-.6-.4-1.08-.92-1.09-.51 0-.93.49-.93 1.08zm-1.87 0c0 .55.3.99.68.99s.69-.44.69-.99c0-.54-.31-.98-.69-.98s-.68.44-.68.98zm8.49 3.58c.7 0 1.27-.44 1.27-.97 0-.54-.57-.98-1.27-.98s-1.28.43-1.28.97.57.98 1.28.98zm-3.09-.05c.6 0 1.08-.42 1.07-.93 0-.51-.48-.92-1.08-.92s-1.07.42-1.07.93.49.92 1.08.92z" fill="#221815"/><path d="m6.85 12.04a.88.88 0 1 0 0-1.76.88.88 0 0 0 0 1.76z" fill="#e60012"/><path d="m4.1 11.15c0 .44.28.79.63.79s.63-.35.64-.78c0-.44-.28-.79-.63-.79s-.64.35-.64.78zm8.44 2.85c.65 0 1.18-.33 1.18-.73s-.53-.73-1.18-.73c-.66 0-1.19.32-1.19.73 0 .4.53.73 1.19.73zm-3.09-.04c.54 0 .98-.31.98-.7 0-.37-.44-.68-.98-.68-.55 0-.99.31-.98.7 0 .37.44.68.98.68zm-2.6-.06c.43 0 .78-.28.78-.63s-.35-.63-.78-.63c-.44 0-.79.28-.78.63 0 .36.35.64.78.64z" fill="#221815"/><path d="m4.73 13.86a.58.58 0 1 0 0-1.17.58.58 0 0 0 0 1.17z" fill="#e60012"/></svg>