<svg height="18" viewBox="0 0 18 18" width="18" xmlns="http://www.w3.org/2000/svg"><path d="m0 0h18v18h-18z" fill="#f0f3fa"/><path d="m7.7 7.17.02.01c.15.11.4.13.58.13h1.3c.08 0 .14.06.13.14 0 .07-.07.13-.14.13h-5.3a5.33 5.33 0 0 1 4.96-3.58 4.7 4.7 0 0 1 4.73 5 5.3 5.3 0 0 1 -5.24 5 4.68 4.68 0 0 1 -4.61-3.62h2.97a2.68 2.68 0 0 0 2.4 1.44 3 3 0 0 0 2.95-2.83 2.67 2.67 0 0 0 -2.68-2.83c-.76 0-1.5.3-2.05.84-.03.03-.04.06-.04.08s0 .05.02.07v.01zm-3.62 2.98h5.37c.08 0 .14-.07.14-.14s-.06-.14-.13-.14h-1.34c-.47 0-1.25-.1-1.33-.7v-.06h-2.79c0 .35.01.7.07 1.04zm-.08-1.28h6.92c.08 0 .15-.06.15-.13 0-.08-.05-.14-.13-.14h-2.7c-.36 0-1-.07-1.14-.46a.4.4 0 0 1 -.03-.21c0-.03.02-.07.04-.09h-2.9c-.1.35-.18.68-.2 1.05v-.02z" fill="#f08300"/></svg>