<svg height="18" viewBox="0 0 18 18" width="18" xmlns="http://www.w3.org/2000/svg" xmlns:xlink="http://www.w3.org/1999/xlink"><linearGradient id="a"><stop offset=".11" stop-color="#0f1a32"/><stop offset="1" stop-color="#00a264"/></linearGradient><linearGradient id="b" gradientUnits="userSpaceOnUse" x1="9.44" x2="6.89" xlink:href="#a" y1="7.8" y2="9.85"/><linearGradient id="c" gradientUnits="userSpaceOnUse" x1="8.56" x2="11.11" xlink:href="#a" y1="10.2" y2="8.15"/><path d="m0 0h18v18h-18z" fill="#f0f3fa"/><path d="m9.06 8.55-1.24 1.3a.47.47 0 1 1 -.7-.64c.32-.35.64-.62.86-.84.55-.5 1.37-.4 2.02-.25-.38-.04-.82.32-.94.43z" fill="url(#b)"/><path d="m8.94 9.45 1.24-1.3a.47.47 0 1 1 .7.64c-.32.35-.64.62-.86.84-.55.5-1.37.4-2.02.25.38.04.82-.32.94-.43z" fill="url(#c)"/><g fill="#0f162f"><path d="m9 15a6 6 0 1 0 0-12 6 6 0 0 0 0 12zm0-1a5 5 0 1 0 0-10 5 5 0 0 0 0 10z" fill-rule="evenodd"/><path d="m5.55 7.75 3.8-4.08 1.65-.17c-1.36 1.35-4.03 4.62-4.34 4.89-.37.33-.46.67-.46 1.03 0 .37.12.67.3.91.92 1.25 1.95 1 2.7 1-.08.23-.52.67-1.6.67-1.31 0-2.6-1.47-2.6-2.58 0-.9.37-1.48.55-1.67z"/><path d="m12.45 10.25-3.8 4.08-1.65.17c1.36-1.35 4.03-4.62 4.34-4.89.37-.33.46-.67.46-1.03 0-.37-.12-.67-.3-.91-.92-1.25-1.95-1-2.7-1 .08-.23.52-.67 1.6-.67 1.31 0 2.6 1.47 2.6 2.58a2.5 2.5 0 0 1 -.55 1.67z"/></g></svg>