<svg height="18" viewBox="0 0 18 18" width="18" xmlns="http://www.w3.org/2000/svg" xmlns:xlink="http://www.w3.org/1999/xlink"><linearGradient id="a" gradientUnits="userSpaceOnUse" x1="9.54" x2="9.54" y1="5.08" y2="14"><stop offset="0" stop-color="#045bab"/><stop offset="1" stop-color="#00b7f0"/></linearGradient><linearGradient id="b" gradientUnits="userSpaceOnUse" x1="8.48" x2="8.48" y1="4" y2="13.02"><stop offset="0" stop-color="#00b7f1"/><stop offset="1" stop-color="#0565b2"/></linearGradient><linearGradient id="c" gradientUnits="userSpaceOnUse" x1="4.03" x2="10.67" y1="8.9" y2="8.9"><stop offset="0" stop-color="#feffff"/><stop offset=".85" stop-color="#6095cf"/></linearGradient><path d="m0 0h18v18h-18z" fill="#f0f3fa"/><path d="m9 14a5 5 0 0 0 4-8c-.7-.52-1.5-1-2.5-1-2.1 0-3.02 1.24-3.2 2h3.7v3.76c-.59.74-1.85 2.02-3.42 2.02-1.25 0-2.2-.43-2.54-.73a5.12 5.12 0 0 0 3.96 1.95z" fill="url(#a)"/><path d="m11 11c-.17.76-1.25 2.02-3.34 2.02a4.3 4.3 0 0 1 -2.62-.96 5 5 0 1 1 7.96-6.06c-.38-.3-1.32-1-2.5-1-1.57 0-3.1 1.45-3.1 2.43v3.57z" fill="url(#b)"/><g fill="url(#c)"><path d="m10.4 12c.33-.34.53-.7.6-1h-6.58a5 5 0 0 0 .58 1z"/><path d="m4.1 10h3.3v-1h-3.4c0 .34.03.68.1 1z"/><path d="m4.1 8h3.3v-.57c0-.14.03-.28.08-.43h-3.06c-.14.32-.25.65-.32 1z"/><path d="m5 6h3.19a5.28 5.28 0 0 1 2.31-1h-4.5c-.38.28-.72.62-1 1z"/></g></svg>