<svg height="18" viewBox="0 0 18 18" width="18" xmlns="http://www.w3.org/2000/svg"><path d="m0 0h18v18h-18z" fill="#f0f3fa"/><path d="m4.87 7h-1.87c.27 0 .3.27.3.4v3.2c0 .2-.13.4-.3.4h1.87c-.16 0-.33-.27-.33-.4v-1c.11.2.5.64.63.8s.05.47 0 .6h1.83l-.33-.4-1.17-2 .5-.8.67-.8h-1.5c.4.16.27.6.16.8l-.8 1v-1.4zm5.96 0h-3.66l-.17 1.2h.33l.67-.87h.33v3.27c0 .16-.22.33-.33.4h2c-.27 0-.33-.27-.33-.4v-3.27h.33l.67.87h.33zm2.42 4c.8 0 1.54-.67 1.75-1.6l-.33-.28c-.12.63-.5 1.08-.9 1.08-.48 0-1-.48-1-1.37 0-.88.47-1.5.96-1.5.36 0 .73.42.86 1h.23v-1.33h-.35c0 .07-.03.2-.17.2-.36 0-.35-.2-1.05-.2-.97 0-1.75.78-1.75 2 0 1.21.78 2 1.75 2z" fill="#930781"/></svg>