<svg height="18" viewBox="0 0 18 18" width="18" xmlns="http://www.w3.org/2000/svg"><path d="m0 0h18v18h-18z" fill="#f0f3fa"/><path d="m6 14.96c1.67.2 5.13-.34 5.66-4.18a4.79 4.79 0 0 0 -5.66 4.18z" fill="#bedea9"/><path d="m7.2 3c-.63 1.98-.62 6.29 4.46 7.68 1.5-4.86-2.35-7.14-4.46-7.68z" fill="#9777b5"/><path d="m10.58 4.98a4.2 4.2 0 0 0 -1.02 2.5c0 1.11.47 2.11.92 2.79.36.16.75.3 1.18.41.8-2.58.08-4.44-1.08-5.7z" fill="#393473"/><path d="m7.25 12.23c.4.26.97.52 1.62.52.91 0 1.85-.32 2.55-.9.1-.33.19-.68.24-1.06-2.13-.25-3.53.47-4.4 1.44z" fill="#66ae45"/></svg>