<svg height="18" viewBox="0 0 18 18" width="18" xmlns="http://www.w3.org/2000/svg"><path d="m0 0h18v18h-18z" fill="#f0f3fa"/><ellipse cx="9" cy="9" fill="#003f98" rx="6" ry="5"/><path d="m6.77 9h-1.67l2.3-3h1.7zm1.06 2h-1.69l3.51-5h1.72zm-1.2 2.5h1.67l5.37-7.5h-1.73z" fill="#f0f3fa"/><path d="m5 12.73a5.45 5.45 0 0 1 -.95-.9c.3-.22.77-.42 1.42-.42 1.04 0 1.8.32 2.05.48l-.25.29c-.57-.09-1.73-.08-2.27.55zm10-3.41a4.84 4.84 0 0 1 -2.4 3.68c-1.1.04-2.34-.01-3.39-.3l.34-.47c1.36.08 4.34-.4 5.43-2.91z" fill="#00aaeb"/></svg>