<!-- by TradingView --><svg width="18" height="18" viewBox="0 0 18 18" xmlns="http://www.w3.org/2000/svg"><path fill="#0F242F" d="M0 0h18v18H0z"/><path d="M6.13 10.2c0-.52-.14-.95-.43-1.25-.25-.23-.5-.38-1.03-.45l-.78-.18a.96.96 0 0 1-.53-.23.57.57 0 0 1-.17-.42c0-.4.4-.67 1-.67.37 0 .8.05 1.16.4l.7-.71A2.4 2.4 0 0 0 4.23 6c-1.24 0-1.99.74-1.99 1.78a1.6 1.6 0 0 0 .41 1.16c.26.26.62.42 1.1.5l.7.1c.18 0 .36.08.5.2a.66.66 0 0 1 .17.5c0 .48-.35.74-1.01.74-.53 0-1.02-.13-1.38-.5l-.72.74c.56.6 1.22.78 2.08.78 1.2 0 2.05-.65 2.05-1.8ZM11 12V6h-1v2.57H8V6H7v6h1V9.43h2V12h1Zm5-1.8c0-.52-.14-.95-.43-1.25a1.84 1.84 0 0 0-1.1-.45l-.74-.1a.96.96 0 0 1-.53-.23.57.57 0 0 1-.17-.42c0-.41.37-.75.96-.75.38 0 .8.05 1.17.4l.7-.71A2.4 2.4 0 0 0 14.02 6c-1.23 0-1.98.74-1.98 1.78a1.6 1.6 0 0 0 .4 1.16c.26.26.62.42 1.11.5l.76.1c.18 0 .36.08.5.2a.66.66 0 0 1 .17.5c0 .48-.42.74-1.08.74-.53 0-1.02-.13-1.38-.5l-.72.74c.56.6 1.21.78 2.08.78 1.2 0 2.12-.65 2.12-1.8Z" fill="#fff"/></svg>