<svg height="18" viewBox="0 0 18 18" width="18" xmlns="http://www.w3.org/2000/svg"><path d="m0 0h18v18h-18z" fill="#f0f3fa"/><g fill="#0b478e"><path d="m11 6 .25.2.46-.05-.11.23.4.12-.4.12.1.23-.45-.05-.25.2-.25-.2-.46.05.11-.23-.4-.12.4-.12-.1-.23.45.05z"/><path d="m12 6.63a2.27 2.27 0 0 0 0-.16h.96a2.53 2.53 0 0 1 0 5.06h-7.92a2.53 2.53 0 1 1 0-5.06h4.96a3.57 3.57 0 0 0 0 .16h-4.93a2.37 2.37 0 0 0 0 4.74h7.86a2.37 2.37 0 0 0 0-4.74zm-1.94.37h-5.06a2 2 0 1 0 0 4h8a2 2 0 1 0 0-4h-1.06c0 .05-.02.1-.04.15h1.06a1.85 1.85 0 0 1 0 3.7h-7.92a1.85 1.85 0 0 1 0-3.7h5.06zm-.03-.86h-4.96a2.86 2.86 0 0 0 0 5.72h7.86a2.86 2.86 0 1 0 0-5.72h-.96c0-.05-.02-.1-.03-.14h1.06a3 3 0 1 1 0 6h-8a3 3 0 1 1 0-6h5.06z"/><path d="m6.85 7.5h-1.85v1.74h.01l.3.2-.31.21v.85l.92-.63.93.63v-.85l-.3-.2.29-.21h.01zm-.93.55c-.1 0-.18.08-.18.18v.72a.18.18 0 1 0 .37 0v-.72c0-.1-.08-.18-.19-.18zm2.83-.55h-1.75v1.74h.01l.28.2-.29.21v.85l.88-.63.87.63v-.85l-.29-.2.28-.21h.01zm-.87.55c-.1 0-.18.07-.18.17v.74a.17.17 0 1 0 .35 0v-.74c0-.1-.08-.17-.17-.17z" fill-rule="evenodd"/><path d="m10.37 9.08h.51c.05.11.15.27.3.43.34-.14.54-.32.6-.43h.54c-.17.3-.49.52-.82.67.22.13.5.23.86.26v.49c-.5-.02-1.6-.34-2-1.42z"/><path d="m9.7 7.5c-.11 0-.2.08-.2.18v2.64c0 .1.09.18.2.18h.75v-.4h-.32v-1.25h2.02c.11 0 .2-.07.2-.17v-1c0-.1-.09-.18-.2-.18zm.43.36h1.6v.19h-1.6zm0 .55v.18h1.6v-.19h-1.6z"/></g></svg>