<svg height="18" viewBox="0 0 18 18" width="18" xmlns="http://www.w3.org/2000/svg"><path d="m0 0h18v18h-18z" fill="#f0f3fa"/><path d="m10.1 9.46h-1.45c.44.97.75 2 .75 3.05 0 1.34-1.56 2.14-2.4 2.38 0 .02 0 .08.1.11 2.91 0 3.88-1.83 3.88-3.37 0-.65-.4-1.38-.88-2.17z" fill="#80be00"/><path d="m9.02 12c-2.18 0-3.02-1.57-3.02-2.95v-.08c0-1.37.84-2.97 3.02-2.97s2.98 1.6 2.98 2.97v.08c0 1.38-.8 2.95-2.98 2.95zm0-.98c1.26 0 1.48-1.08 1.48-1.97v-.1c0-.86-.22-1.98-1.48-1.97-1.3 0-1.52 1.11-1.52 1.98v.09c0 .89.22 1.96 1.52 1.97z"/><path d="m11 3.13c-.78.3-2.4 1.24-2.4 2.71 0 1.2.74 2.34 1.36 3.39l.14.23h-1.46l-.17-.37c-.44-.94-1.07-1.82-1.07-2.62 0-1.72 1.58-2.8 3.53-3.47.06.03.07.1.07.13z" fill="#80bd00"/></svg>