<svg height="18" viewBox="0 0 18 18" width="18" xmlns="http://www.w3.org/2000/svg"><path d="m0 0h18v18h-18z" fill="#f0f3fa"/><path d="m4.4 6.3c.47-.38.9-.81 1.4-1.17.08-.09.19-.13.3-.13h6.38c.29 0 .52.3.52.65v.7c0 .37-.23.66-.52.66l-6.48-.01v1h6.13c.06 0 .13.01.18.05.42.37.83.85 1.25 1.22.28.24.44.38.44.88v.74c0 .6-.14.74-.52 1.09-.52.48-.57.46-1.17.9a.42.42 0 0 1 -.3.12h-7.49c-.29 0-.52-.3-.52-.65v-.7c0-.36.23-.65.52-.65l7.5.01v-1.01h-5.9a.41.41 0 0 1 -.18-.05c-.5-.31-1.05-.68-1.51-1.08-.27-.24-.43-.37-.43-.87v-.88c0-.48.14-.6.4-.8z" fill="#00aebb"/></svg>