<svg height="18" viewBox="0 0 18 18" width="18" xmlns="http://www.w3.org/2000/svg" xmlns:xlink="http://www.w3.org/1999/xlink"><linearGradient id="a" gradientUnits="userSpaceOnUse" x1="8.21" x2="6.23" y1="5.88" y2="7.17"><stop offset="0" stop-color="#fafefc"/><stop offset="1" stop-color="#00e164"/></linearGradient><linearGradient id="b" gradientUnits="userSpaceOnUse" x1="12.91" x2="10.68" y1="11.48" y2="12.86"><stop offset=".17" stop-color="#221ff5"/><stop offset="1" stop-color="#01e164"/></linearGradient><path d="m0 0h18v18h-18z" fill="#f0f3fa"/><path d="m9 14a5 5 0 1 0 0-10 5 5 0 0 0 0 10zm0-2a3 3 0 1 0 0-6 3 3 0 0 0 0 6z" fill="url(#a)" fill-rule="evenodd"/><path d="m9.15 6a3 3 0 0 1 .8 5.84l1.11 1.72a5 5 0 0 0 -1.91-9.56z" fill="url(#b)"/><circle cx="9" cy="5" fill="#00e2e8" r="1"/></svg>