<svg height="18" viewBox="0 0 18 18" width="18" xmlns="http://www.w3.org/2000/svg"><path d="m0 0h18v18h-18z" fill="#f0f3fa"/><path d="m12.76 9c0 .64-.15 1.25-.42 1.8h-7.06a4 4 0 0 1 -.37-1.17l-.91-.3h.87l-.01-.33c0-2.2 1.77-4 3.95-4s3.95 1.8 3.95 4zm-5.38-.13 1.06.1c.17-.05.56-.25.8-.65l.01-.03c.33-.54 1.48-2.46 2.59-3.02a7.18 7.18 0 0 1 -1.5-.15c-.13.06-.49.25-.66.63-.22.47-1.39 2.75-2.3 3.12zm-1.12.78 5.17.27c.6-1 2.17-3.19 3.57-3.96-.74-.28-2.43-.52-3.32.76l-.3.41c-.9 1.37-1.52 2.27-5.11 2.52z" fill="#e62129"/><path d="m6.11 11.9a4.07 4.07 0 0 1 -.47-.56h6.34c-.14.2-.3.39-.47.56h-5.41zm.72.55a3.83 3.83 0 0 0 3.96 0z" fill="#384a9f"/></svg>