<svg height="18" viewBox="0 0 18 18" width="18" xmlns="http://www.w3.org/2000/svg"><path d="m0 0h18v18h-18z" fill="#f0f3fa"/><g fill="#26706b"><path d="m4.31 9.41c.04-.35.12-.66.25-.93.2-.43.46-.8.77-1.1a5.72 5.72 0 0 1 3.43-1.74 5.73 5.73 0 0 1 1.52-.02c.26.03.56.1.89.23a2 2 0 0 1 .95.67h.01a.02.02 0 0 0 0-.04c-.49-.96-1.37-1.35-2.4-1.45a5.62 5.62 0 0 0 -1.9.11c-.31.07-.63.14-.92.26-.91.36-1.67.8-2.29 1.34a5.8 5.8 0 0 0 -1.14 1.35 3.27 3.27 0 0 0 -.46 1.29c-.16 1.4.78 2.39 2.06 2.68.47.1 1 .14 1.58.09l.57-.06c.09 0 .16-.04.23-.1l.16-.17c.06-.06.05-.1-.04-.08-.81.06-1.54-.09-2.2-.46-.67-.38-1.15-1.07-1.07-1.87z"/><path d="m10.61 8.34a6.56 6.56 0 0 0 -.04.12c-.02.01-.05.02-.08 0a.14.14 0 0 1 -.06-.07c-.1-.2-.3-.35-.6-.43a3.42 3.42 0 0 0 -1.14-.12v-.04c.63-.16 1.22-.1 1.78.17.17.08.32.21.43.4.02.02.02.05 0 .08h-.01a.04.04 0 0 1 -.01 0 .1.1 0 0 1 -.06 0 .11.11 0 0 1 -.05-.02 3.29 3.29 0 0 0 -.1-.1c-.03-.03-.05-.03-.06.01zm-.42-.33c.06.03.12.04.12.03 0-.02-.03-.05-.1-.08-.05-.03-.1-.04-.12-.03 0 .02.04.05.1.08z"/><path d="m11.36 8.41v-.07c.01-.04.03-.04.05-.01.07.09.17.14.3.14l.03-.01c.02-.02.03-.04.02-.06a.19.19 0 0 0 -.06-.07 3.4 3.4 0 0 0 -1.83-.68v.02a.02.02 0 0 0 .01.02c.38.08.9.24 1.12.57.08.1.17.23.32.2.02 0 .04-.02.04-.05zm-.2-.28c-.01.01-.06 0-.1-.03-.05-.03-.08-.07-.07-.08 0-.02.05 0 .1.02.05.03.08.07.07.09zm-3.64.57h.65a.08.08 0 0 1 .07.04l.14.25a.07.07 0 0 0 .06.03l.49.01a.17.17 0 0 0 .15-.1l.09-.18c0-.02.02-.03.04-.03a295.87 295.87 0 0 0 3.95-.02.2.2 0 0 1 .12.03l.04.05c.03.12.08.25.22.25h.43c.12 0 .19-.15.23-.26l.02-.02a.06.06 0 0 1 .05-.04l.65-.01c.05 0 .08-.03.08-.08v-.02a.08.08 0 0 0 -.02-.06.08.08 0 0 0 -.03-.02h-7.47l-.02.04v.1c.02.02.03.03.06.03z"/><path d="m9.93 9.83c.23-.29.45-.61.51-.97 0-.02.02-.03.03-.05a34.77 34.77 0 0 0 .52-.02c.07 0 .1.03.12.1.03.2.03.39 0 .58a6.3 6.3 0 0 1 -.78 2.18c-.25.44-.51.9-.82 1.3a.1.1 0 0 1 -.03.03l-.04.02h-2.76c-.1 0-.11-.04-.04-.1l.64-.53c.56-.44 1.11-.93 1.65-1.45.38-.36.71-.73 1-1.1zm.73-.78c-.01.07 0 .14.03.15.04 0 .08-.05.1-.13 0-.07 0-.14-.04-.15-.03 0-.07.05-.09.13zm-.18.72c-.04-.02-.04-.09 0-.16.02-.06.08-.1.1-.1.04.02.04.09 0 .16-.02.07-.07.11-.1.1zm-.26.39c-.05.07-.07.15-.04.17.02.02.09-.02.14-.1.05-.07.07-.15.04-.17s-.09.03-.14.1zm-.38.68c-.03-.02 0-.1.08-.17.06-.08.14-.12.17-.1.02.03-.01.11-.08.19-.07.07-.14.1-.17.08zm-.2.4c.09-.06.14-.13.12-.16s-.1 0-.19.07c-.08.06-.14.14-.12.17.02.02.1 0 .2-.07zm-.24.3c.02.03-.03.11-.11.18-.1.08-.18.1-.2.08-.03-.03.02-.11.11-.18.09-.08.18-.11.2-.08zm-.55.66c.1-.09.16-.18.14-.2-.03-.04-.12 0-.22.09-.1.08-.16.17-.14.2.03.03.13 0 .22-.1zm-.32.3c.04.04-.04.15-.16.25s-.25.15-.28.11c-.03-.03.04-.15.17-.25.12-.1.24-.15.27-.11z" fill-rule="evenodd"/><path d="m12.25 8.9c.23.36.47.8.58 1.21.25.94.3 1.85.22 2.81 0 .05-.03.08-.08.08h-2.96c-.04 0-.05-.02-.04-.06a.48.48 0 0 1 .05-.13l.06-.1c.14-.23.28-.45.4-.7l.02-.04c.5-1 .97-1.97.8-3.1a.06.06 0 0 1 .02-.06.06.06 0 0 1 .04-.02h.7c.08 0 .14.04.19.11zm-.33.3c-.03 0-.08-.05-.1-.13-.04-.08-.04-.15 0-.16.03-.01.07.04.1.12s.03.15 0 .16zm.08.56c-.04 0-.08-.05-.08-.11 0-.07.02-.12.06-.12.03 0 .07.04.07.1 0 .07-.02.12-.05.13zm.01.3a.06.06 0 0 0 -.06.07v.14c0 .03.03.06.06.06.04 0 .06-.03.06-.06v-.15a.06.06 0 0 0 -.06-.05zm0 .8c-.05 0-.08-.07-.08-.15s.03-.14.08-.14c.04 0 .07.07.07.14 0 .08-.03.15-.08.15zm-.02.2a.06.06 0 0 0 -.08.06l-.02.13c0 .03.02.06.06.07.04 0 .07-.02.08-.05l.01-.13a.06.06 0 0 0 -.05-.07zm-.05.47h.01c.04.01.06.05.05.09l-.05.14a.07.07 0 0 1 -.08.04h-.01a.07.07 0 0 1 -.05-.09l.04-.14a.07.07 0 0 1 .09-.04zm-.22.59c-.02.09 0 .17.04.19.05.01.11-.05.14-.14.02-.1 0-.18-.04-.2-.05-.01-.11.05-.14.15zm0 .7.09-.25a.06.06 0 0 0 -.03-.08h-.03l-.09.01h-.01a.06.06 0 0 0 -.04.04l-.08.24a.06.06 0 0 0 0 .06.06.06 0 0 0 .05.02h.08a.06.06 0 0 0 .06-.04z" fill-rule="evenodd"/></g></svg>