<svg height="18" viewBox="0 0 18 18" width="18" xmlns="http://www.w3.org/2000/svg"><path d="m0 0h18v18h-18z" fill="#f0f3fa"/><path d="m9.1 8.38c-4.4 0-6.56 1.75-7.1 2.62.55-.6 2.73-1.77 7.1-1.77s6.42 1.18 6.9 1.77c-.47-.87-2.51-2.62-6.9-2.62z" fill="#04b1d3"/><path d="m2.58 10.83v.17h.73v-.55a6 6 0 0 0 -.73.38zm0-.22c.18-.16.39-.33.64-.5a5.8 5.8 0 0 0 -.64.34zm0-.38a6.9 6.9 0 0 1 2.2-1.28v-1.95h-.74v1.74c-.24.12-.52.4-.73.6v-2.34h-.73zm2.2-.27c-.27.06-.51.14-.74.21v.83h.73v-1.04zm.14-.04.73-.16v.51h.83v.73h-1.56zm.73-1.25c-.26.07-.5.14-.73.23v-1.9h1.56v.73h-.83zm1.02.93v1.4h1.25c.23-.09.7-.45.7-1.19 0-.09 0-.21-.04-.34l-.61.02v.26c0 .47-.48.54-.72.52v-.73zm.58-1.25c-.2.02-.4.05-.58.09v-1.44h.9c.7 0 .9.52.9.92l-.02.33c-.2 0-.4.02-.59.03v-.12c0-.15-.05-.43-.28-.43h-.33zm1.55 1.12-.38 1.53h.57l.33-1.53a23.44 23.44 0 0 0 -.52 0zm.78-1.23h-.48l.3-1.24h.6l.29 1.28-.64-.04-.03-.17zm.3 1.24.3 1.52h.72l-.33-1.49-.68-.03zm1.16.07v1.45h.59v-1.38zm1.04.13.59 1.32h.41v-1.12c-.3-.07-.64-.14-1-.2zm1.28.27c.25.68.78 1.05 1.2 1.05.46 0 .73-.1.81-.16l.01-.08a7.53 7.53 0 0 0 -2.02-.81zm2.04.58.01-.12c-.15-.1-.32-.2-.52-.3.2.15.36.29.51.42zm.02-.36c0-.73-.2-.98-.33-1.15a.9.9 0 0 1 -.1-.13c-.1-.2-.04-.46 0-.57a.8.8 0 0 0 -.43.78c.05.04.15.18.15.43v.1c.28.18.51.36.7.54zm-1.46-.97a8.08 8.08 0 0 0 -.75-.32c.06-1.12.62-1.84 1.35-1.84.36 0 .57.14.63.21l-.17.67a.86.86 0 0 0 -.37-.08c-.2 0-.7.12-.7 1.23v.13zm-.88-.36a9.4 9.4 0 0 0 -.58-.18v-1.66h.58zm-.97-.28-.59-1.56h-.48v1.36c.38.05.74.12 1.07.2z" fill="#01419b"/></svg>