<svg height="18" viewBox="0 0 18 18" width="18" xmlns="http://www.w3.org/2000/svg"><path d="m0 0h18v18h-18z" fill="#f0f3fa"/><path d="m6.45 8.4c-.56-.23-.9-.38-1.02-.45-.14-.1-.22-.2-.22-.35 0-.37.37-.56 1.1-.56.52 0 1.08.11 1.68.34v-1.16c-.81-.15-1.43-.22-1.86-.22-.78 0-1.41.16-1.9.47-.48.31-.73.77-.73 1.37 0 1.77 2.04 1.28 3.03 2.16.68.56-.48.8-.96.8-.56 0-1.34-.1-2.07-.32v1.3c.66.14 1.47.22 2.15.22 1.28 0 2.85-.17 2.85-1.61 0-.46-.16-.84-.47-1.13-.26-.24-.8-.53-1.58-.86z" fill="#099"/><path d="m13.37 6h-2.85c-.41.02-.8.27-1.08.6-.28.32-.44.75-.44 1.2v2.4c0 .45.16.88.44 1.2.28.33.67.58 1.08.6h2.85c.83-.05 1.63-.97 1.63-1.8v-.2h-1v.2a.8.8 0 0 1 -.8.8h-2.2a1 1 0 0 1 -1-1v-2a1 1 0 0 1 1-1h2a1 1 0 0 1 1 1v.5h-2.5v1h3.5v-1.7c0-.45-.27-.88-.56-1.2a1.6 1.6 0 0 0 -1.07-.6z" fill="#641e8c"/></svg>