<svg height="18" viewBox="0 0 18 18" width="18" xmlns="http://www.w3.org/2000/svg"><path d="m0 0h18v18h-18z" fill="#f0f3fa"/><path d="m9.5 4.75a.75.75 0 1 1 -1.5 0 .75.75 0 0 1 1.5 0zm1.5 3.25a1 1 0 1 0 0-2 1 1 0 0 0 0 2zm-4-1a.5.5 0 1 1 -1 0 .5.5 0 0 1 1 0zm-2 2a.5.5 0 1 1 -1 0 .5.5 0 0 1 1 0zm1.5 2.5a.5.5 0 1 0 0-1 .5.5 0 0 0 0 1zm2.94-2.5a.75.75 0 1 1 -1.5 0 .75.75 0 0 1 1.5 0zm2.56 2a1 1 0 1 1 -2 0 1 1 0 0 1 2 0zm1.25-.75a1.25 1.25 0 1 0 0-2.5 1.25 1.25 0 0 0 0 2.5zm-4.5 3.75a.75.75 0 1 0 0-1.5.75.75 0 0 0 0 1.5z" fill="#f27121"/></svg>