<svg height="18" viewBox="0 0 18 18" width="18" xmlns="http://www.w3.org/2000/svg" xmlns:xlink="http://www.w3.org/1999/xlink"><linearGradient id="a" gradientUnits="userSpaceOnUse" x1="3" x2="7" y1="9.5" y2="9.5"><stop offset=".37" stop-color="#f39000"/><stop offset="1" stop-color="#e56208"/></linearGradient><linearGradient id="b" gradientUnits="userSpaceOnUse" x1="14.92" x2="11.34" y1="7.95" y2="7.95"><stop offset="0" stop-color="#331752"/><stop offset=".47" stop-color="#49257d"/><stop offset="1" stop-color="#331751"/></linearGradient><linearGradient id="c" gradientUnits="userSpaceOnUse" x1="7.17" x2="9.63" y1="9.56" y2="13.88"><stop offset=".43" stop-color="#f19200"/><stop offset="1" stop-color="#e86e0b"/></linearGradient><linearGradient id="d" gradientUnits="userSpaceOnUse" x1="10.54" x2="8.98" y1="8.98" y2="3.56"><stop offset="0" stop-color="#4a237e"/><stop offset="1" stop-color="#371a5c"/></linearGradient><path d="m0 0h18v18h-18z" fill="#f0f3fa"/><path d="m7 12h-4v-5h2.78c.38 0 .74.15 1 .4l.22.22z" fill="url(#a)"/><path d="m11 6h4v5h-2.78c-.38 0-.74-.15-1-.4l-.22-.22z" fill="url(#b)"/><path d="m7 15v-7.37l2.8 2.62c.4.38 1.2 1.4 1.2 2.44 0 1.84-2.67 2.31-4 2.31z" fill="url(#c)"/><path d="m11 3v7.38l-2.8-2.62c-.4-.39-1.2-1.41-1.2-2.46 0-1.83 2.67-2.29 4-2.3z" fill="url(#d)"/></svg>