<svg height="18" width="18" xmlns="http://www.w3.org/2000/svg"><path d="m0 0h18v18h-18z" fill="#81a9d1"/><path d="m11.24 4.272.248 1.728h-.394c-.146-1.033-.905-1.51-1.722-1.552-1.002-.05-2.372.62-2.372 1.897 0 1.427 2.182 1.935 3.16 2.356.589.2 1.804 1.003 1.84 2.46.042 1.819-1.914 2.839-3.184 2.839-1.016 0-2.107-.326-2.525-.49l-.291-1.51h.38c.305 1.265 1.692 1.552 2.436 1.51.745-.04 2.183-.605 2.183-1.86 0-1.132-1.461-1.797-2.183-2.025-.931-.294-2.933-1.295-2.816-3.067.147-2.214 2.467-2.558 3.371-2.558.725 0 1.548.181 1.87.272z" fill="#fff"/></svg>