<svg height="18" width="18" xmlns="http://www.w3.org/2000/svg"><path d="m0 0h18v18h-18z" fill="#d83831"/><path d="m4 7.175v6.825h7.305c2.069 0 2.659-2.066 2.695-3.098v-6.897c-1.58-.004-5.252-.009-7.312 0-2.06.008-2.65 2.117-2.688 3.17z"/><path d="m6.688 6h6.312l-1 1h-4.956c-.17.018-.544.29-.544.726 0 .437.374.76.544.774 1.274-.01 3.808 0 4.419 0 .688 0 1.537.277 1.537 1.707 0 1.143-1.025 1.693-1.537 1.793h-6.463l.998-1h4.854c.195-.01.629-.33.61-.793-.018-.463-.43-.703-.61-.707h-4.352c-.489-.09-1.518-.258-1.5-1.68.018-1.424 1.133-1.807 1.688-1.82z" fill="#d83831"/><path d="m8.5 12.002 3.5-6.002h-1.5c-.696.95-1.174.99-1.602 1l-.898 1.5h1.12l-2.12 3.502z" fill="#fff"/></svg>