<svg height="18" width="18" xmlns="http://www.w3.org/2000/svg"><path d="m0 0h18v18h-18z" fill="#f0f3fa"/><path d="m13.66 4.8-5.8-.8.13 9.91 5.67-.76c1.09-.36 1.35-1.1 1.34-1.43v-5.17c-.03-1.27-.9-1.7-1.34-1.75z" fill="#3d82b3"/><path d="m4.18 4.66 3.7-.66c1.2 0 1.62 1.2 1.62 1.68v6.4c-.1 1.68-1.44 1.97-2.1 1.91l-3.22-.68c-.93-.28-1.18-1.18-1.18-1.6v-5.01c.07-1.33.7-1.88 1.18-2.03z" fill="#19458c"/><path d="m12.7 6.43-1.05-.12v2.11h-1.6v1.16h1.6v2.11l1.06-.1v-2.01h1.58v-1.16h-1.58v-1.99zm-6.58-.48c2.06-.22 2.2.8 2.2 1.68l-1.2.11c-.06-.85-.7-.9-1.36-.78-.62.11-.96.36-.9.9.07.54.33.64.56.64.18 0 .5 0 1.7.11 1.22.11 1.43 1.26 1.42 1.75 0 .5 0 1.2-.64 1.52-.63.31-1.6.2-2.9 0-1.06-.17-1.17-1.34-1.1-1.9l.9.1c-.03.72.32.93.5.95l1.19.13c.28 0 .7-.13.71-.8.02-.67-.33-.76-.61-.8-.08-.01-.41-.1-1.4-.17-1.25-.1-1.28-1.25-1.28-1.53 0-.33-.2-1.65 2.21-1.9z" fill="#fff"/></svg>