<svg height="18" width="18" xmlns="http://www.w3.org/2000/svg"><path d="m0 0h18v18h-18z" fill="#7daed3"/><path d="m6.388 11c.212 1.063.53 1.307.988 1.78.46.472.953.708 1.553.708.565 0 .953-.157 1.2-.512a1.63 1.63 0 0 0 .353-1.023c0-.433-.14-.788-.388-1.024-.176-.157-.494-.394-.988-.67l-.812-.472c-.812-.433-1.376-.905-1.694-1.337-.318-.433-.6-.971-.6-1.601 0-1.928 1.42-2.849 3-2.849.46 0 1.024.079 1.447.236.424.158.67.236.741.236.141 0 .247-.039.283-.118.035-.078.105-.197.14-.354h.389v3h-.353a4.315 4.315 0 0 0 -.882-1.78c-.424-.511-1.06-.808-1.66-.808-.458 0-.987.14-1.234.415s-.353.59-.353.945c0 .433.106.787.353.984.211.236.74.551 1.517.984l.918.512c.423.236.741.512.988.787.459.552.706 1.181.706 1.93 0 1.94-1.562 2.952-3.141 2.952-.247 0-.494-.04-.777-.079-.399-.063-1.25-.573-1.588-.196-.035.078-.106.196-.141.354h-.353v-3z" fill="#fff"/></svg>