<svg fill="none" height="18" width="18" xmlns="http://www.w3.org/2000/svg"><path d="m0 0h18v18h-18z" fill="#17184d"/><path clip-rule="evenodd" d="m6.7 11v-4h-1.4v.524h.7v3.476zm.116-5.02c0-.242-.17-.48-.435-.48-.264 0-.438.238-.438.481s.174.44.438.44a.423.423 0 0 0 .435-.44zm4.511 2.3v2.72h-.665v-2.863c0-.574-.43-.59-.755-.59-.593 0-1.242.46-1.242.46v2.993h-.665v-3.995h.665v.589s.674-.59 1.429-.59c.714 0 1.233.29 1.233 1.276zm2.81 2.197c.386 0 1.203-.144 1.203-1.472 0-1.381-.73-1.48-1.204-1.48-.472 0-1.118.13-1.118 1.48 0 1.32.732 1.472 1.118 1.472zm0-3.472c.806 0 1.863.257 1.863 2 0 1.766-1.047 2-1.864 2-.816 0-1.82-.264-1.82-2 0-1.698 1.013-2 1.82-2zm-10.505 1.743c.453.166.906.438.906 1.125 0 .951-.777 1.132-1.528 1.132-.453 0-1.011-.159-1.011-.159v-.615s.671.181 1.01.181c.421 0 .803-.079.803-.539 0-.362-.196-.46-.536-.589l-.42-.158c-.29-.112-.856-.362-.856-1.042 0-.718.615-1.08 1.407-1.08.566 0 .97.159.97.159v.566s-.508-.152-.953-.152c-.404 0-.699.122-.699.47 0 .367.23.45.445.527l.043.016.42.158z" fill="#fff" fill-rule="evenodd"/></svg>