<svg height="18" viewBox="0 0 18 18" width="18" xmlns="http://www.w3.org/2000/svg"><path d="m0 0h18v18h-18z" fill="#f0f3fa"/><path d="m8.94 5h.41c.6.02 1.2.14 1.78.35a4.37 4.37 0 0 1 2.68 2.53h2.19v2.23l-.01.01h-.18a972.5 972.5 0 0 1 -2.46.94.2.2 0 0 0 -.08.07 4.79 4.79 0 0 1 -1.95 1.44 5.79 5.79 0 0 1 -3.91.17 4.44 4.44 0 0 1 -2.94-2.62h-2.47v-1.45h.57c-.23-.6-.03-1.34.63-1.33h1.52v-.02a4.84 4.84 0 0 1 4.23-2.32z" fill="#004583"/><g fill="#f0f3fa"><path d="m9.72 5.7a3.2 3.2 0 0 1 -1.1 0 1.52 1.52 0 0 1 -.8-.32l.01-.03a5.54 5.54 0 0 1 2.63.02c-.18.19-.48.28-.74.33zm-3.78.58a5.08 5.08 0 0 1 1.83-.9 1.06 1.06 0 0 0 .16.16 3.32 3.32 0 0 0 -1.3 1.28 2.44 2.44 0 0 1 -.7-.53v-.01zm5.06-.76a5.13 5.13 0 0 1 1.38.78 2.57 2.57 0 0 1 -.73.52 3.3 3.3 0 0 0 -1.3-1.28l.17-.17h.02l.47.15z"/><path d="m8.56 5.76a3.38 3.38 0 0 0 -.7 1.45 5.8 5.8 0 0 1 -1.12-.36 3.17 3.17 0 0 1 1.35-1.25 2.1 2.1 0 0 0 .48.15zm1.62.71a2.4 2.4 0 0 0 -.45-.72c.18-.03.34-.08.5-.14h.03a3.3 3.3 0 0 1 1.28 1.25 5.3 5.3 0 0 1 -1.12.34c-.06-.25-.14-.5-.24-.73z"/><path d="m7.94 7.2a2.81 2.81 0 0 1 .74-1.42 2.11 2.11 0 0 0 .44.04v1.5l-.01.01a5.08 5.08 0 0 1 -1.17-.13zm1.7-1.4a2.92 2.92 0 0 1 .7 1.42 5.55 5.55 0 0 1 -1.17.1v-1.5h.01v-.02l.43-.02h.03zm-3.04 1.07a5.49 5.49 0 0 0 -.4 1h-1.32a6.04 6.04 0 0 0 .02-.33 4.15 4.15 0 0 1 .98-1.2 2.44 2.44 0 0 0 .72.53zm5.47.99a3.32 3.32 0 0 0 -.38-1l.01-.01a2.19 2.19 0 0 0 .72-.53 3.52 3.52 0 0 1 1.1 1.56h-1.42c-.01 0-.02 0-.02-.02zm-5.75 0a5.45 5.45 0 0 1 .4-.94 5.63 5.63 0 0 0 1.11.38l-.1.57h-1.4zm5.27-.93a3.08 3.08 0 0 1 .37.95h-1.4v-.02a3.71 3.71 0 0 0 -.1-.59 5.22 5.22 0 0 0 1.13-.34zm-2.4.47a7.1 7.1 0 0 0 1.19-.08 4.22 4.22 0 0 1 .08.56h-1.26l-.02-.02v-.44c0-.02 0-.02.02-.02zm-1.39.46.11-.54h.02a7.79 7.79 0 0 0 1.19.09v.45c0 .01 0 .02-.02.02h-1.28v-.01h-.02z"/></g><path d="m3.02 9h.01a.02.02 0 0 0 0-.02c-.15-.25-.28-.59-.26-.88.02-.28.29-.43.52-.43h1.42v.43l.01.01h11.13v.01l.01.01v1.73c0 .02 0 .02-.02.02h-13.54v-.88z" fill="#d81718"/><path d="m6.22 10.14a6.2 6.2 0 0 0 .37 1.01 2.56 2.56 0 0 0 -.73.52 3.69 3.69 0 0 1 -1.1-1.55h1.45v.02zm.48.93a5.32 5.32 0 0 1 -.37-.95h1.4v.02a3.9 3.9 0 0 0 .09.59 5.8 5.8 0 0 0 -1.12.34zm2.4-.47a7.76 7.76 0 0 0 -1.19.08l-.1-.54.01-.02h1.3v.47l-.01.01zm1.38-.46a3.95 3.95 0 0 1 -.11.55 7.45 7.45 0 0 0 -1.2-.1v-.45c0-.01 0-.02.02-.02h1.27c.01 0 .02 0 .02.02zm.88.85a6 6 0 0 0 -.9-.28l.12-.57v-.01h1.38s.01 0 0 0a3.05 3.05 0 0 1 -.39.95h-.01a1.7 1.7 0 0 0 -.2-.1zm1.04.67a2.28 2.28 0 0 0 -.71-.52v-.01a4.3 4.3 0 0 0 .4-1h1.43c.02 0 .02 0 .01.01a3.66 3.66 0 0 1 -1.12 1.53h-.01zm1.16-1a3.66 3.66 0 0 0 .25-.54h1.19c.03 0 .03 0 0 .02l-1.42.54c-.02 0-.02 0-.01-.02zm-4.91 1.54a3 3 0 0 1 -.7-1.45 7.5 7.5 0 0 1 1.17-.08v1.5c0 .01 0 .02-.02.02a2.39 2.39 0 0 0 -.43.02h-.02zm1.72-1.43a3.2 3.2 0 0 1 -.77 1.45 2.3 2.3 0 0 0 -.43-.04v-1.5l.01-.02a8.43 8.43 0 0 1 1.19.11z" fill="#f0f3fa"/><path d="m7.87 10.8c.12.52.34 1.05.68 1.43v.02a2.44 2.44 0 0 0 -.49.14 3.34 3.34 0 0 1 -1.31-1.26 5.83 5.83 0 0 1 1.12-.33zm1.87 1.45v-.01a3.26 3.26 0 0 0 .71-1.45h.02a5.51 5.51 0 0 1 1.07.37 3.4 3.4 0 0 1 -1.32 1.23h-.02c-.15-.07-.3-.11-.46-.14z" fill="#f0f3fa"/><path d="m6.67 11.19a3.09 3.09 0 0 0 1.26 1.28l-.16.16h-.03a5.07 5.07 0 0 1 -1.8-.94 2.25 2.25 0 0 1 .72-.51zm5.7.53a5.33 5.33 0 0 1 -1.84.91l-.16-.16v-.02a3.36 3.36 0 0 0 1.3-1.27 2.5 2.5 0 0 1 .7.53zm-2.69.58a1.62 1.62 0 0 1 .79.33v.01h-.01a7.22 7.22 0 0 1 -2.63 0v-.01a.85.85 0 0 1 .22-.16 2.8 2.8 0 0 1 1.63-.17z" fill="#f0f3fa"/><path d="m3.46 8.55h11.56v.84h-11.56z" fill="#e8e8e8"/></svg>