<svg height="18" viewBox="0 0 18 18" width="18" xmlns="http://www.w3.org/2000/svg"><path d="m0 0h18v18h-18z" fill="#f0f3fa"/><g fill="#006b7a"><path d="m14.15 11.46h-.73l-.02-.01-.06-.62.01-.01 1.64-.64v-.01h.01v-.02l-4.53-7.14-.01-.01a.02.02 0 0 0 -.02 0l-1.42.98a.02.02 0 0 1 -.02 0l-1.43-.98a.02.02 0 0 0 -.02 0l-.01.01-4.54 7.14v.02h.01l1.64.64.01.01v.01l-.05.61c0 .01 0 .02-.02.02h-.73l-.03.01v2.51c0 .01 0 .02.02.02h10.31l.01-.02v-2.5c0-.02 0-.02-.02-.02zm-1.08.34h.73v1.88h-9.6v-1.88h.74l.13-1.19v-.01l-1.5-.58h-.01v-.03l4.09-6.47a.02.02 0 0 1 .02 0l1.31.89a.02.02 0 0 0 .02 0l1.32-.89a.02.02 0 0 1 .02 0l4.13 6.48v.02l-1.52.59v.01l.13 1.19z"/><path d="m5.4 13.45v-1.1h7.2v1.1z" fill-opacity=".6"/><path d="m4.06 10.02 3.69-6.04a.03.03 0 0 1 .03 0h.01l.85.57v3.94l-3.6 1.95a.03.03 0 0 1 -.02 0l-.94-.38h-.01l-.01-.02a.03.03 0 0 1 0-.02zm5.3-1.55v-3.9l.84-.6a.02.02 0 0 1 .02 0h.01l3.7 6.06h.01a.02.02 0 0 1 0 .02h-.01l-.95.39h-.02l-3.6-1.95zm3.21 2.41.14.92h-7.42l.14-.92 3.57-1.91a.02.02 0 0 1 .02 0l3.55 1.89z"/></g></svg>