<svg height="18" viewBox="0 0 18 18" width="18" xmlns="http://www.w3.org/2000/svg"><path d="m0 0h18v18h-18z" fill="#f0f3fa"/><path d="m9 14a5 5 0 1 0 0-10 5 5 0 0 0 0 10zm-1.25-6.1c.16-.3.94-1.09 1.88-1.09 1.28 0 2.07 1.2 2.75 2.22.4.6.75 1.15 1.15 1.38-1.43 0-2.16-.93-2.78-1.72-.45-.59-.85-1.1-1.44-1.1-.47 0-1.1.16-1.56.32zm-2.03 1.89c.16-.47.78-1.4 2.03-1.4 1.39 0 2.23 1.15 3 2.22.54.73 1.05 1.43 1.69 1.68-1.58.18-2.37-.73-3.1-1.56-.56-.65-1.08-1.25-1.9-1.25a4.1 4.1 0 0 0 -1.72.31z" fill="#0094dc"/></svg>