<svg height="18" viewBox="0 0 18 18" width="18" xmlns="http://www.w3.org/2000/svg"><path d="m0 0h18v18h-18z" fill="#f0f3fa"/><path d="m4.84 4a.85.85 0 0 0 -.84.85v9.15h2.23c-.45-.1-.8-.26-1.01-.42l.44-1.08c.43.29 1.03.49 1.69.49.72 0 1.37-.4 1.37-1.13 0-.5-.32-.83-1.04-1.22-.87-.48-1.52-1.07-1.52-1.98-0-1.46 1.24-2.36 2.75-2.36.83 0 1.36.2 1.66.38l-.42 1.08a2.78 2.78 0 0 0 -1.35-.34c-.82 0-1.29.49-1.29 1 0 .5.42.82 1.12 1.22.91.48 1.46 1.09 1.46 2.01 0 1.21-.78 2.05-1.94 2.34h2.41l1.01-5.36h1.29l-1 5.36h1.3c.46 0 .84-.38.84-.85v-9.14zm7.6 3.74h-.02c-.38 0-.65-.29-.65-.7 0-.46.36-.79.78-.79.4 0 .68.28.68.7a.77.77 0 0 1 -.8.79z" fill="#ba0c2f"/></svg>