<svg height="18" viewBox="0 0 18 18" width="18" xmlns="http://www.w3.org/2000/svg"><path d="m0 0h18v18h-18z" fill="#151c36"/><path d="m5 5.4v3.7c0 .2.17.37.37.37.05 0 .14-.03.2-.06l3.13-1.85c.17-.11.25-.34.14-.52a.34.34 0 0 0 -.14-.14l-3.16-1.85c-.17-.11-.4-.03-.51.15-.03.08-.03.14-.03.2zm5 0v3.7c0 .3.42.44.67.31l3.14-1.85c.17-.11.25-.34.14-.52a.34.34 0 0 0 -.14-.14l-3.16-1.85c-.22-.14-.78.08-.65.35zm-2.43 4.53v3.7c0 .2.17.37.37.37.05 0 .14-.03.2-.06l3.13-1.84c.17-.12.25-.35.14-.52a.34.34 0 0 0 -.14-.15l-3.14-1.85c-.17-.11-.4-.05-.5.12-.06.09-.09.14-.06.23z" fill="#fff"/></svg>