<svg height="18" width="18" xmlns="http://www.w3.org/2000/svg" xmlns:xlink="http://www.w3.org/1999/xlink"><linearGradient id="a"><stop offset="0" stop-color="#006288"/><stop offset="1" stop-color="#b2d235"/></linearGradient><linearGradient id="b" gradientUnits="userSpaceOnUse" x1="9.93" x2="7.29" xlink:href="#a" y1="12.21" y2="5.78"/><linearGradient id="c" gradientUnits="userSpaceOnUse" x1="5.18" x2="8.32" xlink:href="#a" y1="-2.28" y2="6.23"/><path d="m0 0h18v18h-18z" fill="#f0f3fa"/><path d="m13.46 9.31h-4.88c-.3 0-.52.17-.52.47s.23.47.52.47h.32c.2 0 .41.07.41.37 0 .25-.2.38-.4.38h-2.21c-.2 0-.37-.17-.37-.38s.15-.37.36-.37h.2c.3 0 .54-.17.54-.47s-.25-.47-.54-.47h-2.35c-.3 0-.54.17-.54.47s.24.47.54.47h.82c.2 0 .36.13.36.37s-.18.38-.4.38h-.12c-.3 0-.58.17-.58.53 0 .3.28.47.58.47h3.12c.22 0 .37.3.37.5s-.16.5-.37.5h-.62c-.3 0-.58.23-.58.53s.29.47.58.47h2.67c.3 0 .5-.17.5-.47s-.2-.53-.5-.53h-.68c-.2 0-.38-.28-.38-.5 0-.19.17-.5.38-.5h3.01c.3 0 .52-.17.52-.47s-.22-.53-.52-.53h-.54c-.2 0-.35-.17-.35-.38 0-.2.17-.37.4-.37h1.25c.3 0 .54-.17.54-.47-.01-.3-.24-.47-.54-.47zm-2.27 1.3c0 .2-.1.39-.32.39h-.6c-.19 0-.33-.17-.33-.38 0-.2.13-.37.34-.37h.6c.2.01.3.17.3.37z" fill="url(#b)"/><path d="m13.48 7.75h-.66c-.2 0-.38-.19-.38-.4s.17-.35.3-.35c.44 0 .63-.17.63-.47s-.26-.53-.55-.53h-3.12c-.2 0-.39-.3-.39-.5s.18-.5.4-.5h.67c.3 0 .5-.23.5-.53s-.2-.47-.5-.47h-2.72c-.3 0-.54.17-.54.47s.24.53.54.53h.65c.2 0 .38.28.38.5 0 .27-.18.5-.31.5-.4 0-.63.24-.63.53 0 .3.24.47.56.47.2 0 .38.14.38.35 0 .2-.17.4-.38.4h-1.6c-.19 0-.37-.19-.37-.4 0-.2.17-.35.38-.35.18 0 .56-.08.56-.47 0-.3-.19-.53-.48-.53h-1.48c-.3 0-.54.24-.54.53 0 .36.33.47.6.47.23 0 .34.14.34.35 0 .2-.18.4-.4.4h-.78c-.3 0-.54.17-.54.47s.24.47.54.47h5.32c.3 0 .52-.17.52-.47s-.2-.47-.58-.47c-.25 0-.49-.09-.49-.4 0-.2.15-.35.36-.35h1.77c.2 0 .35.14.35.35 0 .2-.14.4-.35.4-.3 0-.56.17-.56.47s.26.47.56.47h2.02c.3 0 .54-.17.54-.47s-.23-.47-.52-.47z" fill="url(#c)"/></svg>