<svg height="18" viewBox="0 0 18 18" width="18" xmlns="http://www.w3.org/2000/svg"><path d="m0 0h18v18h-18z" fill="#f0f3fa"/><path d="m9 14a5 5 0 1 0 0-10 5 5 0 0 0 0 10zm0 1a6 6 0 1 0 0-12 6 6 0 0 0 0 12z" fill="#132545" fill-rule="evenodd"/><path d="m9 12.96a3.96 3.96 0 1 0 0-7.92 3.96 3.96 0 0 0 0 7.92zm0 .5a4.46 4.46 0 1 0 0-8.92 4.46 4.46 0 0 0 0 8.92z" fill="#069bd6" fill-rule="evenodd"/><path d="m7.07 7.76h.38v.54h-.25c-.05 0-.1.04-.1.1v.42l.8.17c.48.07.65.4.68.57v.55c0 .3-.24.54-.54.54h-.37v-.56h.2c.06 0 .1-.04.1-.09v-.44l-.8-.17c-.49-.09-.63-.39-.65-.53v-.56c0-.3.24-.54.54-.54zm.38 2.33h-.25a.09.09 0 0 1 -.1-.09v-.17h-.58v.28c0 .3.24.54.54.54h.38v-.56zm.5-1.79h-.27v-.54h.37c.3 0 .54.24.54.54v.29h-.54v-.2a.09.09 0 0 0 -.1-.09z" fill="#132545"/><path d="m10.88 10.65h.59l-1.58-4.95h-.5l1.12 3.71h-.44l-.14.52h.74zm-2.29 1.65 1.35-4.48.26.85-1.04 3.63z" fill="#069bd6"/></svg>