<svg height="18" width="18" xmlns="http://www.w3.org/2000/svg"><path d="m0 0h18v18h-18z" fill="#006940"/><path d="m7.4 6c.4 0 .81.1.96.16l-.47.94a2.3 2.3 0 0 0 -1.04-.4c-.45 0-.76.19-.76.34 0 .14.15.31.9.55.62.18.74.46.74.68 0 1.06-1.8 1.68-2.86 1.73-.57.02-1.3-.14-1.6-.22l.46-.94c.33.2.8.43 1.37.42.58-.01.9-.22.92-.43.02-.16-.28-.29-.44-.33-1-.3-1.19-.67-1.16-.91.2-1.43 2.46-1.59 2.98-1.59zm-.15 4 1.92-4h1.68l-1.54 3.27h1.6c-.13-.19-.12-.52-.08-.66.75-2.43 3.67-2.81 5.17-2.53l-.58 1.06a1.13 1.13 0 0 0 -.87-.43c-1.44.06-1.94 1.33-2 1.9-.02.28.17.71.81.67a2.4 2.4 0 0 0 1.28-.47l-.46.94a3.9 3.9 0 0 1 -1.37.25c-1.15 0-1.65-.32-1.76-.49l-.24.49zm-4.16 0c.43.35 2.05.99 5.05 1s5.16-.64 5.86-1l-1.05 2h-10.95z" fill="#fff"/></svg>