<svg height="18" viewBox="0 0 18 18" width="18" xmlns="http://www.w3.org/2000/svg"><path d="m0 0h18v18h-18z" fill="#f0f3fa"/><path d="m14.27 13h-10.64c3.57-2.78 9.07-3.38 11.37-3.33v2.53c0 .44-.33.8-.73.8z" fill="#e50720"/><path d="m3 12.67v-6.6c0-.6.44-1.07.99-1.07h11.01v4.15c-3.19 0-7.38.5-12 3.52zm2.88-3.67.48-3h.33l.66 1.9.66-1.9h.38l.38 3h-.47l-.23-1.74-.66 1.74h-.15l-.63-1.74-.27 1.74h-.49zm-.5-2.24.27-.42a1.18 1.18 0 0 0 -.75-.34c-.42 0-.8.38-.8.85 0 .46.46.68.68.79.22.08.59.32.35.66-.23.33-.64 0-.82-.2l-.3.36c.1.18.43.54.85.54.53 0 .89-.45.89-.96 0-.42-.38-.71-.56-.81a8.28 8.28 0 0 0 -.06-.03c-.26-.14-.6-.31-.37-.6.1-.1.35-.22.63.16zm3.56 2.24 1.1-3h.36l1.1 3h-.55l-.18-.5h-1.11l-.18.5zm.9-1h.76l-.38-1.07z" fill="#004b82" fill-rule="evenodd"/></svg>