<svg height="18" viewBox="0 0 18 18" width="18" xmlns="http://www.w3.org/2000/svg"><path d="m18 0h-18v18h18z" fill="#f0f3fa"/><path d="m12.52 6.05c.5.32.99.65 1.48.95v5l-2 1-1.5-1-1.5-1c-1.46.94-1.53.98-1.52.99 0 0 .1-.04-1.48 1.01l-2-1v-4.9.07-.17c.5-.3.99-.63 1.48-.95 1.15-.75 2.3-1.5 3.52-2.05 1.22.55 2.38 1.3 3.52 2.05zm-6.84 4.94.32-2.99.53-.38c.23-.15.47-.28 2.47-1.62 2 1.34 2.24 1.47 2.47 1.62l.53.38.32 3-.82-.5-2.5-1.5-3.32 2z" fill="#5bc6cc" fill-rule="evenodd"/><path d="m6 8-2-1v5l2-.83zm6 0v3.03l2 .97v-5.65.65z" fill="#00aca0"/><path d="m6 10.79v2.21l-2-1zm6 0v2.21l2-1z" fill="#00927c"/></svg>