<svg height="18" viewBox="0 0 18 18" width="18" xmlns="http://www.w3.org/2000/svg" xmlns:xlink="http://www.w3.org/1999/xlink"><linearGradient id="a" gradientUnits="userSpaceOnUse" x1="8.98" x2="8.98" y1="3.16" y2="12.84"><stop offset="0" stop-color="#c7d2eb"/><stop offset="1" stop-color="#6f95cd"/></linearGradient><path d="m0 0h18v18h-18z" fill="#f0f3fa"/><path d="m14.7 12.84h-11.4c-.12 0-.2-.14-.13-.25l5.68-9.36c.06-.1.2-.1.25 0l5.73 9.36c.06.1 0 .25-.12.25z" fill="#0066b3"/><path d="m9.44 3.8-.34-.57a.14.14 0 0 0 -.25 0l-.43.72.43 8.89h.22l.37-9.05zm.1 9.04h-.18c.06-1.22.31-4.05.96-7.6l.7 1.15a61.7 61.7 0 0 0 -1.48 6.45zm.77 0h-.23c.34-1.32 1.06-3.8 1.72-5.2l.43.7a23.26 23.26 0 0 0 -1.92 4.5zm.82 0h-.28c.29-.69.91-1.94 1.98-3.5l.4.65c-.57.56-1.56 1.7-2.1 2.85zm-2.58 0c-.06-1.2-.31-4.01-.96-7.53l-.7 1.15a61.33 61.33 0 0 1 1.47 6.38zm-.73 0a37.42 37.42 0 0 0 -1.69-5.13l-.42.7a23 23 0 0 1 1.88 4.43zm-.77 0c-.28-.68-.9-1.9-1.94-3.45l-.39.65c.59.58 1.53 1.68 2.05 2.8z" fill="url(#a)"/><path d="m8.73 3.14c.12-.19.37-.19.5 0l5.72 9.36c.13.22-.01.5-.24.5h-11.42c-.23 0-.37-.28-.24-.5zm5.98 9.53-5.73-9.35-5.69 9.35z" fill="#6f6e70"/></svg>