<svg height="18" viewBox="0 0 18 18" width="18" xmlns="http://www.w3.org/2000/svg"><path d="m0 0h18v18h-18z" fill="#f0f3fa"/><g fill="#1ab7ea"><path d="m10.5 6.76s.7.84.68 1.84c0 .93-.63 1.82-1.95 1.87-1 .03-1.88-1.06-1.88-1.06s.78.88 1.79.87c1.2 0 1.75-.93 1.75-1.65 0-.71-.73-1.67-.73-1.67s0-.35.33-.2z"/><path d="m11.9 7.63s-.26 3.01-2.6 3.01c-2.35 0-2.8-2.51-2.63-3.04-.63 1.49.83 3.45 2.63 3.45a3.32 3.32 0 0 0 3.15-3.37c-.36-.7-.55-.05-.55-.05z"/><path d="m12.48 9.01s-1.04 2.43-3.14 2.43-3.2-1.86-3.27-3.18c-.02-.87.28-1.37.28-1.37s-.5.52-.54 1.41c-.04.9.95 3.75 3.51 3.67 2.4-.07 3.68-2.5 3.81-2.78.15-.26-.4-.53-.65-.18z"/><path d="m13.26 9.94c-.46.2-1.87 2.26-3.93 2.26a3.92 3.92 0 0 1 -3.91-4.06c0-1.63 1.16-2.9 1.16-2.9s-1.58 1.42-1.58 3.08c0 1.67 1.25 4.55 4.18 4.55 2.92 0 4.62-2.22 4.78-2.4.17-.2-.26-.72-.7-.52z"/><path d="m13.04 11.9s-1.44 1.17-4.04 1.17-4.4-2.3-4.4-4.52.69-3.09 2.17-4.56a4.84 4.84 0 0 0 -2.77 4.45 5.33 5.33 0 0 0 5.1 5.56c2.18 0 4-.73 4.63-1.23.64-.5-.3-1.17-.69-.88z"/></g></svg>