<svg height="18" viewBox="0 0 18 18" width="18" xmlns="http://www.w3.org/2000/svg"><path d="m0 0h18v18h-18z" fill="#0076bd"/><path d="m5.26 12.32a4.98 4.98 0 0 0 3.74 1.68 5.07 5.07 0 0 0 5-5.01h-1.22c-.36 0-.7.18-.87.36-.18.2-2.25 2.3-2.45 2.5 0 0-.37.45-1.06.45zm2.01-.43c.34 0 .54-.06.81-.3.32-.3 2.25-2.28 2.49-2.54.2-.22.65-.5 1.04-.5h2.39c-.02-.35-.1-.62-.18-.96h-1.99c-.35 0-.69.18-.87.35l-2.46 2.46s-.34.45-1.05.45h-3.08c.14.36.34.71.58 1.03l2.32.02zm-1.06-1.46c.35 0 .53-.04.8-.3.26-.25 2.3-2.24 2.5-2.48.19-.22.64-.5 1.04-.5h3.11a6.11 6.11 0 0 0 -.53-1h-2.38c-.36 0-.68.18-.85.35-.2.2-2.27 2.25-2.47 2.47 0 0-.35.45-1.06.45h-2.35c.04.36.1.67.2.99zm-2.21-1.42a5.02 5.02 0 0 1 8.78-3.3h-3.22c-.4 0-.83.28-1.04.5-.2.22-2.23 2.25-2.5 2.48-.24.26-.44.32-.8.32z" fill="#fff"/></svg>