<svg height="18" viewBox="0 0 18 18" width="18" xmlns="http://www.w3.org/2000/svg"><path d="m0 0h18v18h-18z" fill="#ea6831"/><path d="m5.43 8.6c-.51 0-1.12-.3-1.43-.6l-1 1.47c.67.35 1.4.53 2.17.53 1.3 0 2.75-.64 3.12-2.02.22-.93-.23-1.46-1.17-1.67a2.47 2.47 0 0 0 -.23-.03c-.35-.04-.9-.1-.9-.4 0-.24.5-.48.92-.48.5 0 .99.18 1.17.6l.89-1.47a2.9 2.9 0 0 0 -1.7-.53c-1.45 0-3.27.53-3.27 2.31 0 .69.55 1.26 1.26 1.39l.42.08.06.01c.2.04.64.11.64.38 0 .44-.67.44-.95.44zm5.35-1.6h-1.7l-2.02 6h1.56l.94-3 .16 3h.9s1.47-2.8 1.55-3l-.36 3h1.64l.55-6h-1.73l-1.5 3v-3z" fill="#fefefe"/></svg>