<svg height="18" viewBox="0 0 18 18" width="18" xmlns="http://www.w3.org/2000/svg" xmlns:xlink="http://www.w3.org/1999/xlink"><radialGradient id="a" cx="0" cy="0" gradientTransform="matrix(9.62395 0 0 10.0669 4.53 3.87)" gradientUnits="userSpaceOnUse" r="1"><stop offset=".24" stop-color="#e7b041"/><stop offset=".88" stop-color="#c7352d"/></radialGradient><radialGradient id="b" cx="0" cy="0" gradientTransform="matrix(8.9869 0 0 9.40058 11.2 6.58)" gradientUnits="userSpaceOnUse" r="1"><stop offset=".24" stop-color="#e7ae40"/><stop offset=".85" stop-color="#c9382f"/></radialGradient><linearGradient id="c" gradientUnits="userSpaceOnUse" x1="13.06" x2="5.1" y1="7.55" y2="13.63"><stop offset=".1" stop-color="#c9382f"/><stop offset=".2" stop-color="#d15734"/><stop offset=".48" stop-color="#e7ae40"/><stop offset=".9" stop-color="#c9382f"/></linearGradient><path d="m0 0h18v18h-18z" fill="#f0f3fa"/><path d="m9.26 4h-4.76c0 .91.23 1.76.64 2.5a4.7 4.7 0 0 0 4.12 2.5c1.76 0 3.29-1 4.11-2.5a4.72 4.72 0 0 0 -4.11-2.5z" fill="url(#a)"/><path d="m9.47 9.43c2.13 0 3.33-1.15 3.9-2.93a4.7 4.7 0 0 1 -4.13 2.5 4.7 4.7 0 0 0 -4.11 2.5c-.4.73-.63 1.57-.64 2.47.12-.74.51-1.43.85-2.04a4.72 4.72 0 0 1 4.12-2.5z" fill="url(#c)"/><path d="m13.44 6.64-.08-.14c-.55 1.78-1.76 2.93-3.9 2.93-1.75 0-3.3 1-4.12 2.49a6.74 6.74 0 0 0 -.84 2.05v.03h4.75c1.76 0 3.29-1 4.11-2.5a5.2 5.2 0 0 0 .08-4.86z" fill="url(#b)"/></svg>