<svg height="18" width="18" xmlns="http://www.w3.org/2000/svg"><path d="m0 0h18v18h-18z" fill="#007e44"/><path d="m10.02 8.92c0 1.143.976 2.033 2.058 2.033s2.059-.89 2.059-2.033-.977-2.033-2.059-2.033-2.059.89-2.059 2.033zm2.058 3.064c-1.8 0-3.227-1.34-3.227-3.064s1.427-3.064 3.227-3.064c1.16 0 2.164.557 2.732 1.414-.89-1.93-3.206-3.27-5.713-3.27-3.204 0-6.097 2.189-6.097 5a4.2 4.2 0 0 0 .689 2.282l2.311-5.282h.75l2.53 6h-1.284l-.371-1h-2.549l-.584 1.244c1.145 1.08 2.827 1.756 4.605 1.756 2.714 0 5.204-1.57 5.903-3.758-.513 1.04-1.62 1.742-2.922 1.742zm-6.6-1.984h1.753l-.856-2.429-.896 2.429z" fill="#fff"/></svg>