<!-- by TradingView --><svg width="18" height="18" viewBox="0 0 18 18" xmlns="http://www.w3.org/2000/svg"><path fill="#F0F3FA" d="M0 0h18v18H0z"/><path d="M9.26 4H4.5c0 .91.23 1.76.64 2.5A4.7 4.7 0 0 0 9.26 9c1.76 0 3.29-1 4.11-2.5A4.72 4.72 0 0 0 9.26 4Z" fill="url(#ammjdmnmr)"/><path d="M9.47 9.43c2.13 0 3.33-1.15 3.9-2.93A4.7 4.7 0 0 1 9.24 9a4.7 4.7 0 0 0-4.11 2.5c-.4.73-.63 1.57-.64 2.47.12-.74.51-1.43.85-2.04a4.72 4.72 0 0 1 4.12-2.5Z" fill="url(#bmmjdmnmr)"/><path d="m13.44 6.64-.08-.14c-.55 1.78-1.76 2.93-3.9 2.93-1.75 0-3.3 1-4.12 2.49a6.74 6.74 0 0 0-.84 2.05V14h4.75c1.76 0 3.29-1 4.11-2.5a5.2 5.2 0 0 0 .08-4.86Z" fill="url(#cmmjdmnmr)"/><defs><radialGradient id="ammjdmnmr" cx="0" cy="0" r="1" gradientUnits="userSpaceOnUse" gradientTransform="matrix(9.62395 0 0 10.0669 4.53 3.87)"><stop offset=".24" stop-color="#E7B041"/><stop offset=".88" stop-color="#C7352D"/></radialGradient><radialGradient id="cmmjdmnmr" cx="0" cy="0" r="1" gradientUnits="userSpaceOnUse" gradientTransform="matrix(8.9869 0 0 9.40058 11.2 6.58)"><stop offset=".24" stop-color="#E7AE40"/><stop offset=".85" stop-color="#C9382F"/></radialGradient><linearGradient id="bmmjdmnmr" x1="13.06" y1="7.55" x2="5.1" y2="13.63" gradientUnits="userSpaceOnUse"><stop offset=".1" stop-color="#C9382F"/><stop offset=".2" stop-color="#D15734"/><stop offset=".48" stop-color="#E7AE40"/><stop offset=".9" stop-color="#C9382F"/></linearGradient></defs></svg>