<svg height="18" width="18" xmlns="http://www.w3.org/2000/svg"><path d="m0 0h18v18h-18z" fill="#ed2024"/><path d="m14 5-.944 2.26c-.167-.195-.806-.26-1.092-.26h-2.82a.947.947 0 0 0 -.348.052c-.192.08-.315.31-.413.501-.142.279.062.447.324.447h2.168c.566 0 1.673 0 1.286 1.108-.29 1.025-.984 2.27-1.59 3.088-.576.78-1.454.813-2.275.806h-4.296l1.01-2.107c.153.066.43.106.769.13l3.017-.045c.478 0 .997-.941.49-.941h-2.464c-.826.03-1.135-.371-.925-1.11.255-.902.82-1.806 1.226-2.635.487-1.001 1.285-1.294 2.222-1.294z" fill="#fff"/></svg>