<svg height="18" viewBox="0 0 18 18" width="18" xmlns="http://www.w3.org/2000/svg" xmlns:xlink="http://www.w3.org/1999/xlink"><linearGradient id="a" gradientUnits="userSpaceOnUse" x1="8.73" x2="8.62" y1="5.5" y2="10.39"><stop offset="0" stop-color="#d0b38b"/><stop offset=".51" stop-color="#a8834c"/><stop offset="1" stop-color="#dec394"/></linearGradient><linearGradient id="b" gradientUnits="userSpaceOnUse" x1="6.07" x2="6.07" y1="5" y2="11.52"><stop offset="0" stop-color="#f4d6a0"/><stop offset=".34" stop-color="#f1d5a5"/><stop offset=".44" stop-color="#c19b5c"/><stop offset=".47" stop-color="#90693e"/><stop offset="1" stop-color="#9b6e37"/></linearGradient><linearGradient id="c" gradientUnits="userSpaceOnUse" x1="9.9" x2="9.48" y1="7.5" y2="12.89"><stop offset="0" stop-color="#7b643b"/><stop offset="1" stop-color="#e3cea5"/></linearGradient><linearGradient id="d" gradientUnits="userSpaceOnUse" x1="11.61" x2="11.61" y1="6.48" y2="13"><stop offset="0" stop-color="#f3d8a3"/><stop offset=".41" stop-color="#f2d89b"/><stop offset=".51" stop-color="#caa860"/><stop offset=".55" stop-color="#906a3b"/><stop offset="1" stop-color="#8f6b3a"/></linearGradient><path d="m0 0h18v18h-18z" fill="#f0f3fa"/><path d="m9.3 5.13-.14-.13-3.02 3 2.44 2.52h.15v-.13l-1.87-2.38z" fill="url(#a)"/><path d="m6.44 8.17 2.25 2.31c.02.02.02.05 0 .07l-.93.93a.06.06 0 0 1 -.08 0l-4.58-3.26a.23.23 0 0 1 0-.4l4.03-2.8.03-.01h2.01c.05 0 .08.05.05.08l-2.78 2.76c-.09.09-.09.23 0 .32z" fill="url(#b)"/><path d="m8.85 7.5v.13l1.4 1.71a1 1 0 0 1 -.02 1.3l-1.98 2.23v.13l3.3-2.88v-.37z" fill="url(#c)"/><path d="m9.82 6.52-1 .93a.04.04 0 0 0 0 .07l2.38 2.18c.1.1.1.24 0 .33l-3.1 2.89c-.03.03 0 .08.05.08h2.28l.04-.01 4.4-2.92c.16-.1.16-.3 0-.4l-4.97-3.16a.07.07 0 0 0 -.08 0z" fill="url(#d)"/></svg>