<svg height="18" viewBox="0 0 18 18" width="18" xmlns="http://www.w3.org/2000/svg"><path d="m0 0h18v18h-18z" fill="#f0f3fa"/><path d="m8.46 4.39c-2.13.71-2.53 1.77-2.46 2.21.05.39.45.61.8.61.34 0 .63-.07 1.23-.86.59-.8 1.44-1.4 2.74-1.56s1.33-.23 1.33-.3-.98-1-3.64-.1z" fill="#f78f1e"/><path d="m4.42 6.44c-.75 1.85-.11 2.88.22 3.08.28.17.64.1.84-.14s.24-.58.06-1.42c-.19-.84-.1-1.75.55-2.74.65-.98.6-1.03.56-1.07-.05-.04-1.29-.03-2.23 2.29zm8.18-.59c-1.86-.89-2.74-.42-2.95-.08-.19.3-.05.71.19.94.23.22.47.36 1.33.2a3.37 3.37 0 0 1 2.75.71c.98.74 1.03.7 1.07.65.05-.05-.08-1.3-2.4-2.42zm1.64 3.4c-.39-1.63-1.39-1.81-1.72-1.67-.3.1-.4.44-.43.72-.03.29 0 .51.56.86.56.34.95.93.97 1.98.03 1.05.08 1.05.14 1.04.05-.02.96-.9.48-2.93zm-1.18 1.25c.24.2.47 1.11-.46 2.26-1.17 1.42-2.16 1.15-2.19 1.1-.03-.03-.06-.07.64-.63s.93-1.17.92-1.8c0-.62.13-.77.34-.9.2-.12.54-.21.75-.03zm-7.03 1.49c-.29.08-1.3-.16-2.26-1.7-1.2-1.93-.65-2.67-.6-2.68.05 0 .1 0 .5.97s1 1.56 1.67 1.95.9.62.97.88c.07.25-.03.51-.28.58zm-.27 1.01c1.58.58 2.52.25 2.7.06.18-.17.13-.4-.07-.53s-.5-.18-1.24-.12a4.07 4.07 0 0 1 -2.36-.5c-.83-.46-.88-.44-.92-.41-.03.02-.1.78 1.89 1.5zm5.4-.37c-.06.25-.66 1-2.2 1.27-1.93.35-2.24-.34-2.23-.38.02-.04.05-.08.93-.1.88 0 1.57-.3 2.14-.71.56-.42.83-.52 1.05-.5s.37.2.31.42z" fill="#89103b"/></svg>