<svg height="18" viewBox="0 0 18 18" width="18" xmlns="http://www.w3.org/2000/svg"><path d="m0 0h18v18h-18z" fill="#f0f3fa"/><g fill="#f63"><path d="m9 3c-3.3 0-6 2.7-6 6s2.7 6 6 6 6-2.7 6-6-2.7-6-6-6zm3.42 10.37a.82.82 0 0 0 -1.34.78 5.53 5.53 0 0 1 -4.15 0 .82.82 0 0 0 -1.22-.86l-.12.09a5.55 5.55 0 0 1 -2.1-3.6.82.82 0 0 0 .15-1.5l-.14-.05c.2-1.42.95-2.71 2.08-3.6a.82.82 0 0 0 1.36-.62l-.02-.15a5.53 5.53 0 0 1 4.15 0 .82.82 0 0 0 1.22.86l.12-.09a5.55 5.55 0 0 1 2.08 3.6.82.82 0 0 0 -.13 1.48l.13.06a5.55 5.55 0 0 1 -2.07 3.6z"/><path d="m12 8.25a.75.75 0 1 0 0-1.5.75.75 0 0 0 0 1.5zm0 3.38a.75.75 0 1 0 0-1.5.75.75 0 0 0 0 1.5zm0-2.26a.38.38 0 1 0 0-.75.38.38 0 0 0 0 .75zm-1.5-2.62a.38.38 0 1 0 0-.75.38.38 0 0 0 0 .75zm3 1.88a.38.38 0 1 0 0-.76.38.38 0 0 0 0 .76zm-1.5 4.12a.38.38 0 1 0 0-.75.38.38 0 0 0 0 .75zm-1.5-7.5a.38.38 0 1 0 0-.75.38.38 0 0 0 0 .75zm-1.5 1.13a.75.75 0 1 0 0-1.5.75.75 0 0 0 0 1.5zm-1.5.37a.37.37 0 1 0 0-.75.37.37 0 0 0 0 .75zm-1.5-.75a.37.37 0 1 0 0-.75.37.37 0 0 0 0 .75zm0 2.25a.75.75 0 1 0 0-1.5.75.75 0 0 0 0 1.5zm0 1.12a.37.37 0 1 0 0-.75.37.37 0 0 0 0 .75zm-1.5.76a.37.37 0 1 0 0-.75.37.37 0 0 0 0 .74zm3 1.87a.38.38 0 1 0 0-.75.38.38 0 0 0 0 .75zm0 1.5a.38.38 0 1 0 0-.75.38.38 0 0 0 0 .75zm1.5-.37a.75.75 0 1 0 0-1.5.75.75 0 0 0 0 1.5zm1.5-1.13a.38.38 0 1 0 0-.75.38.38 0 0 0 0 .75zm-4.5-.37a.75.75 0 1 0 0-1.5.75.75 0 0 0 0 1.5z"/></g></svg>