<svg height="18" viewBox="0 0 18 18" width="18" xmlns="http://www.w3.org/2000/svg"><path d="m0 0h18v18h-18z" fill="#f0f3fa"/><path d="m5.8 10.36c-.57.07-.78.24-1.3.5-.55.26-.5.58-.5 1.45.43.01.52-.1.96-.26-.45.67-.83.43-.88.95h9.92v-6.1c-1.04.26-1.68.33 0-.3l-.16-1.6c-.16.1-8.9 6.84-8.03 5.36z" fill="#120f1b"/><path d="m6.72 7.26a8.7 8.7 0 0 0 -2.48 1.14l.02-.2c.04-.41.06-.55.32-.87.22-.2.51-.42.78-.61l.52-.4 1.2-1.32.62.04c-.15.14-.17.16-.17.18s.03.04-.02.21c.28-.04.29.02.31.03.04.01.1-.05.7-.45l1.02-.01c-.11.38-.35.57-.6.78a4 4 0 0 0 -.35.3l-.2.2c-.28.25-.55.5-.55.68.52-.07.95-.39 1.4-.73.55-.4 1.15-.85 2.02-.95l.04-.28h1.1c-.37.83-.95 1.18-1.9.93l-1.19.89-.32.25c-.53.42-.78.61-1.6.93-.46.1-1.2.49-1.7.77l-.2.13c-1.64 1-1.34 1.28-1.43-.04.62-.29.76-.22.85-.18.1.04.12.06.63-.46.24-.24.29-.25.36-.27a.84.84 0 0 0 .3-.16l.51-.53z" fill="#b99e11"/><path d="m5.5 10.6c.08-.03.23-.12.42-.4.51-.07 1.5-1 2.13-1.53 1.44-1.23 3.4-1.92 4.44-3.67h.4c-.4.93-.47.69.42.38.06.68-.62 1.15-.94 1.36l-.15.1-.21.2-.21.2-1.19 1.5c-.1.25-.06.28-.06.3 0 .03-.03.06-.23.23-.66.58-.88.85-1.07 1.08a4.7 4.7 0 0 1 -.84.81l-.89.6-.04.03c-.32.15-.82.38-1.06.41.97-.55 1.1-.75 1.2-.91a.82.82 0 0 1 .16-.2c.15-.14.26-.2.37-.24.12-.06.25-.12.46-.32.4-.4.34-.43.29-.46-.03-.01-.05-.02-.03-.06.04-.1.04-.1.09-.13.03-.02.09-.05.2-.14.22-.2.4-.33.53-.44.45-.35.52-.41.98-1.18.15-.26.22-.34.3-.4l.2-.27c-.5.08-1.85 1.09-2.26 1.5-.55.57-3.14 1.99-3.96 2.36.34-.65.44-.68.55-.71z" fill="#b99e11"/><path d="m10.52 5.92a6.87 6.87 0 0 1 -1.93 2.02 13.79 13.79 0 0 1 -3.57 1.86l-.46.19-.55.24c.13.1-.39.54 1.2-.1.35-.16.7-.28 1.02-.39l-.3.46c.7-.1 2.42-1.74 2.58-1.83.99-.51.96.01 1.84-1.12.26-.34.41-.47.8-.71.34-.22.53-.29.82-.66l.53-.88h-.15c-.4.89-.56.08-.74.92l-.47-.23c-.27-.04-.28.06-.61.23zm-3.94-.77c-.78 1.98-2.28 2.01-2.44 2.25-.06.1-.08.24-.01.7.02.26-.28.05.16.29.07-.59.3-.63.63-.99l.12-.14c.48-.52.35-.26.69-.54l1.4-1.69c-.28.04-.39.07-.55.1z" fill="#120f1b"/><path d="m7.84 6.93c.65.43 1.98-1.3 3.56-1.48l-.14-.45-1.04.01c-.32.4-.63.64-1.1 1.04-.35.3-.93.58-1.28.88zm-1.26-1.78a2.52 2.52 0 0 0 -1.66.01c-1.05.5-.88.5-.89.9.33-.14.1-.1.47-.26zm.97.32c-.3.46-1.62 1.6-2.11 1.88.74-.15 2.82-1.82 3.12-2.3-.5.03-.66.18-1.01.42zm-3.35 4.34c.65-.17 1.06-.46 1.65-.82.47-.27 1.26-.68 1.57-.99-.17.04-.42-.17-.67-.07-.35.16-.8.28-1.1.44-.39.23-1.06 1.11-1.54 1.18-.1.53-.05.14.08.26z" fill="#120f1b"/><path d="m13.32 5.4c.19-.23.02.13.13-.4h-.61c-.2.49-.18.4-.35.8.4-.19.46-.26.83-.4z" fill="#130f11"/></svg>