<svg height="18" viewBox="0 0 18 18" width="18" xmlns="http://www.w3.org/2000/svg"><path d="m0 0h18v18h-18z" fill="#f0f3fa"/><path d="m10.7 9a1.7 1.7 0 1 1 -3.4 0 1.7 1.7 0 0 1 3.4 0z" fill="#626463"/><path d="m12.53 7.98c-.22 0-.78-.02-1.2-.23-.44-.2-.8-.54-1.03-.96a2.77 2.77 0 0 1 -.3-1.42l.01-.21a.17.17 0 0 1 .19-.16h2.63a.17.17 0 0 1 .18.17v2.63a.17.17 0 0 1 -.17.17l-.22.01h-.08zm-4.72 5.02h-2.64a.17.17 0 0 1 -.17-.17v-2.62a.18.18 0 0 1 .17-.18h.3c.22 0 .78.02 1.2.22.44.21.8.55 1.04.97.22.43.32.93.3 1.42l-.02.2a.17.17 0 0 1 -.18.16zm5.01 0h-2.62a.17.17 0 0 1 -.17-.17l-.01-.22v-.08c0-.22.02-.78.23-1.2.2-.44.54-.8.96-1.03a2.78 2.78 0 0 1 1.42-.3l.21.01a.18.18 0 0 1 .16.18v2.63a.17.17 0 0 1 -.11.17.17.17 0 0 1 -.07.01zm-7.3-4.98h-.15l-.21-.03a.17.17 0 0 1 -.16-.17v-2.65a.17.17 0 0 1 .17-.17h2.63a.17.17 0 0 1 .18.17v.3a3 3 0 0 1 -.22 1.2c-.21.44-.55.8-.97 1.04-.39.2-.82.3-1.26.3z" fill="#3499cd"/></svg>