<svg height="18" viewBox="0 0 18 18" width="18" xmlns="http://www.w3.org/2000/svg" xmlns:xlink="http://www.w3.org/1999/xlink"><linearGradient id="a" gradientUnits="userSpaceOnUse" x1="8.1" x2="8.1" y1="14" y2="5.76"><stop offset="0" stop-color="#6b0b16"/><stop offset="1" stop-color="#e3183c"/></linearGradient><linearGradient id="b" gradientUnits="userSpaceOnUse" x1="8.87" x2="8.87" y1="14" y2="5.76"><stop offset="0" stop-color="#540b0f"/><stop offset="1" stop-color="#aa0f2b"/></linearGradient><linearGradient id="c" gradientUnits="userSpaceOnUse" x1="9.88" x2="9.88" y1="12.24" y2="4.01"><stop offset="0" stop-color="#d3d2d2"/><stop offset=".09" stop-color="#b2b1b1"/><stop offset=".4" stop-color="#444141"/><stop offset=".5" stop-color="#eaeae9"/><stop offset="1" stop-color="#c8c6c7"/></linearGradient><linearGradient id="d" gradientUnits="userSpaceOnUse" x1="9.89" x2="9.89" y1="11.87" y2="4.38"><stop offset="0" stop-color="#5a5758"/><stop offset=".27" stop-color="#a7a5a6"/><stop offset=".5" stop-color="#eaeae9"/><stop offset=".86" stop-color="#a7a5a6"/><stop offset="1" stop-color="#444141"/></linearGradient><path d="m0 0h18v18h-18z" fill="#f0f3fa"/><path d="m8.13 5.76a3.38 3.38 0 1 0 3.85 5.55l-.01.03a5.04 5.04 0 0 0 .03-.08v-.02c.15-.43.24-.88.24-1.36v-.06a4.12 4.12 0 0 0 -4.08-4.06h-.04zm-3.93 2.84v.03l-.01.02v.02l-.01.01v.02l-.01.02v.02l-.05.14a1.08 1.08 0 0 0 0 .03v.02l-.01.01v.04l-.01.01v.03l-.01.01a.13.13 0 0 0 0 .01v.04h-.01v.05a3.27 3.27 0 0 0 -.02.08v.01a.04.04 0 0 0 0 .02h-.01v.06l-.01.01v.07h-.01v.06a.1.1 0 0 1 0 .01v.02l-.01.02v.11h-.02v.24.01.04a4.12 4.12 0 0 0 4.12 4.11h.28v-.01h.1l.01-.01h.09l.01-.01h.07l.01-.01h.06l.03-.01h.03l.01-.01h.04l.02-.01h.04l.01-.01h.03l.02-.01h.02l.03-.01h.03v-.01h.04l.02-.01h.01l.03-.01h.01l.01-.01h.03l.01-.01h.03l.03-.02h.04v-.01h.03l.01-.01.04-.01h.01v-.01h.03l.01-.01h.02l.05-.03h.03l.01-.01h.01l.02-.01.06-.03h.03l.01-.01h.01l.07-.03h.01v-.01h.01l.02-.01.1-.05c.36-.17.69-.4.98-.66h.01v-.02h.02l.05-.05v-.01h.01v-.01h.01v-.01h.01v-.01l.02-.01v-.01c.02 0 .02-.01.03-.02v-.01h.02v-.02h.01v-.01h.01v-.01h.01v-.01h.01v-.01a.12.12 0 0 1 .02-.01v-.01h.01v-.01h.01v-.01h.01v-.01l.01-.01.01-.01.01-.01.03-.04h.01l.01-.02.02-.02.02-.02c-.42.15-.88.23-1.35.23h-.05a4.12 4.12 0 0 1 -3.14-6.76 4.1 4.1 0 0 1 -2.53 2.6zm7.7 2.9.02-.02.04-.1v-.03l-.05.16z" fill="url(#a)"/><path d="m8.12 5.76-.23.01c-.4.02-.79.1-1.15.23a4.12 4.12 0 0 0 3.13 6.77h.05c.47 0 .93-.09 1.35-.24a4.08 4.08 0 0 0 .71-1.22 3.38 3.38 0 1 1 -3.85-5.55z" fill="url(#b)"/><path d="m5.76 8.12a4.12 4.12 0 1 0 8.24 0 4.12 4.12 0 0 0 -8.24 0zm.5 0a3.63 3.63 0 1 1 7.25 0 3.63 3.63 0 0 1 -7.26 0z" fill="url(#c)"/><path d="m6.14 8.12a3.74 3.74 0 1 0 7.48 0 3.74 3.74 0 0 0 -7.48 0zm.36 0a3.38 3.38 0 1 1 6.76 0 3.38 3.38 0 0 1 -6.76 0z" fill="url(#d)"/></svg>