<svg height="18" viewBox="0 0 18 18" width="18" xmlns="http://www.w3.org/2000/svg" xmlns:xlink="http://www.w3.org/1999/xlink"><linearGradient id="a" gradientUnits="userSpaceOnUse" x1="14.46" x2="2.25" y1="1.77" y2="15.43"><stop offset=".25" stop-color="#5a4c7d"/><stop offset=".75" stop-color="#e90030"/></linearGradient><path d="m0 0h18v18h-18z" fill="url(#a)"/><path d="m12.74 5.34-1.58 1.26a6.13 6.13 0 0 0 -2.14-.57c-.73 0-1.2.2-1.2.82 0 .6.69.73 2.01 1.13 2.27.74 3.17 1.63 3.17 3.26 0 1.62-1.84 2.76-3.85 2.76-1.6 0-3.44-1.03-4.15-1.54.34-.3 1.15-.96 1.63-1.22.38.28 1.62.8 2.52.8s1.67-.32 1.67-.8c0-.5-.6-.94-2.31-1.35-1.71-.4-3.12-1.26-3.12-2.88 0-1.63 1.88-3.01 3.76-3.01 1.5 0 3.02.9 3.6 1.34z" fill="#f0f3fa"/></svg>