<svg height="18" width="18" xmlns="http://www.w3.org/2000/svg"><path d="m0 0h18v18h-18z" fill="#002d72"/><path d="m6.237 6.012 1.263-1.074c-.037.517.478 1.333.74 1.677l3.544 4.145c.167.182.32.764.12 1.19-.216.463-1.034.935-1.416 1.113.011-.604-.461-1.33-.699-1.618-.902-1.006-2.847-3.196-3.412-3.907-.566-.71-.393-1.32-.141-1.526zm5.643.69-1.545 1.298c-1.755-1.661-2.28-2.695-2.325-3.005-.023-.16-.031-.498.236-.757.224-.217.618-.3.769-.189.8.59 2.484 1.809 2.786 2.04.302.233.203.498.079.613zm-5.76 4.596 1.545-1.3c1.754 1.663 2.28 2.697 2.325 3.007.022.161.031.498-.236.758-.224.217-.618.3-.769.188-.8-.59-2.484-1.809-2.786-2.041-.302-.233-.203-.498-.079-.612z" fill="#febf3e"/></svg>