<svg height="18" viewBox="0 0 18 18" width="18" xmlns="http://www.w3.org/2000/svg"><path d="m0 0h18v18h-18z" fill="#f0f3fa"/><path d="m8.99 6.8c-.55-.6-1.31-2.42 0-4.8.57 1 1.38 3.37 0 4.8zm-.4-.2-.93-.7a5.68 5.68 0 0 0 -1.7-2.32c.42.05 1.4.33 1.99 1.01a4 4 0 0 0 .63 2.02zm.09.4c-.37.12-1.29.18-2.08-.59-.79-.76-1.4-.91-1.6-.9.4-.12 1.5-.15 2.66.72zm.74-.4.92-.7c.2-.53.83-1.72 1.7-2.32-.42.05-1.4.33-1.99 1.01a4 4 0 0 1 -.63 2.02zm-.1.4c.37.12 1.29.18 2.08-.59.79-.76 1.4-.91 1.6-.9-.4-.12-1.5-.15-2.66.72zm-1.8.7c.37-.28.8-.46 1.25-.5l-.82 1.04zm-1.07 1.34c.22-.47.52-.87.87-1.18l.46.6-.9 1.13zm-.43 1.65c.04-.5.14-.96.31-1.38l.4.49-.71.9zm-.02.44v.02l.86 1.1.91-1.15-.87-1.1-.9 1.14zm.34 1.78c-.16-.4-.27-.84-.32-1.3l.67.85zm.96 1.41c-.34-.3-.62-.69-.84-1.14l.4-.5.86 1.1zm1.35.67c-.41-.07-.8-.24-1.15-.5l.39-.49zm1.85-.5c-.35.27-.75.44-1.17.5l.77-.99.4.5zm1.04-1.29c-.22.45-.5.84-.84 1.14l-.44-.55.87-1.11zm.45-1.64c-.04.5-.16.96-.33 1.38l-.37-.48zm-.32-2.27c.18.44.3.93.33 1.44l-.74-.93zm-1-1.44c.36.3.66.7.88 1.17l-.45.57-.9-1.14.48-.6zm-.64.4.45-.57a2.5 2.5 0 0 0 -1.28-.48l.82 1.05zm-1.03-.91-.87 1.1.87 1.11.88-1.1-.88-1.12zm1.04 1.31-.87 1.1.89 1.13.88-1.1zm1.06 1.35-.88 1.1.91 1.14.87-1.11zm-.13 2.46-.91-1.16-.9 1.1.94 1.17zm-1.03 1.32-.94-1.17-.94 1.17.94 1.22.94-1.2zm-2.04-.21.93-1.16-.88-1.1-.92 1.15zm-.84-3.77.88 1.1.89-1.13-.88-1.1-.9 1.13zm1.93.18-.89 1.12.9 1.1.88-1.1z" fill="#f2ac34"/></svg>