<svg height="18" viewBox="0 0 18 18" width="18" xmlns="http://www.w3.org/2000/svg"><path d="m0 0h18v18h-18z" fill="#f0f3fa"/><ellipse cx="9" cy="8.97" fill="#f6cd55" rx="5" ry="4.97"/><path d="m5 5.98c-.07.51.07 1.05.72 1.43 1 .6 2.08.37 3.18.12.6-.14 1.21-.27 1.82-.27 1.57 0 2.75.39 3.18 2.7a4.96 4.96 0 0 0 -4.9-5.96 5 5 0 0 0 -4 1.98zm8 6.04c.07-.51-.07-1.05-.72-1.43-1-.6-2.08-.37-3.18-.12-.6.13-1.21.27-1.82.27-1.57 0-2.75-.39-3.18-2.7a4.95 4.95 0 0 0 4.9 5.96 5 5 0 0 0 4-1.98z" fill="#d1953c"/><path d="m13.97 8.47c-.3-2.15-2.91-3.23-4.35-3.23-.93 0-2.5.47-2.5 1.55 0 .5.36.8.75.94.34-.05.69-.12 1.03-.2.6-.14 1.21-.27 1.82-.27 1.53 0 2.7.37 3.15 2.55a3.56 3.56 0 0 0 .1-1.34zm-9.95 1.07c.3 2.15 2.92 3.22 4.36 3.22.93 0 2.5-.47 2.5-1.55 0-.5-.36-.8-.75-.94-.34.05-.69.12-1.03.2-.6.14-1.21.27-1.82.27-1.53 0-2.7-.37-3.15-2.55a3.56 3.56 0 0 0 -.1 1.35z" fill="#de0023"/></svg>