<svg height="18" viewBox="0 0 18 18" width="18" xmlns="http://www.w3.org/2000/svg"><path d="m0 0h18v18h-18z" fill="#003a5d"/><path d="m6.15 9.12.65.51.2.18v-1.33l-.36-.27a2.71 2.71 0 0 1 -.64-.64c-.13-.18-.2-.42-.2-.66 0-.13.03-.25.07-.37.05-.11.12-.2.2-.28.2-.18.45-.27.7-.25.07 0 .15 0 .23.02v-1.03h-.22c-.53 0-.95.2-1.28.58-.17.18-.3.41-.38.67-.09.26-.13.54-.12.82 0 .4.09.77.26 1.1.18.3.48.63.89.95zm.85 2.83a.96.96 0 0 1 -.36.07c-.62 0-1.17-.39-1.64-1.16v1.43a2.34 2.34 0 0 0 2 .68zm3.21 1.05h-2.21v-8h1.6c.66 0 1.18.09 1.56.27a1.92 1.92 0 0 1 1.14 1.81c0 .79-.4 1.35-1.23 1.69a2.5 2.5 0 0 1 1.4.73c.35.35.54.83.53 1.33 0 .38-.1.76-.32 1.09a2.3 2.3 0 0 1 -.93.78c-.48.22-1 .32-1.54.3z" fill="#fff"/><path d="m9.18 9.57.01.02c.4.3.57 1 .57 1.26 0 .64-.2 1.15-.6 1.45l-.02.03s2.21-.92 2.21-1.48-2.17-1.28-2.17-1.28z" fill="#003a5d"/></svg>