<svg height="18" viewBox="0 0 18 18" width="18" xmlns="http://www.w3.org/2000/svg"><path d="m0 0h18v18h-18z" fill="#f0f3fa"/><path d="m4 11.56h.21c0 .4.54 1.18 1.95 1.18 1.38 0 1.71-1 1.7-1.5 0-.29-.26-1.03-1.32-1.71-1.32-.86-2.2-1.67-2.2-2.65 0-.97.86-1.88 2.04-1.88.94 0 1.55.34 1.73.52v1.1h-.15a1.48 1.48 0 0 0 -1.58-1.39c-1.21 0-1.46.89-1.43 1.33.05.28.36.96 1.2 1.5 1.07.68 2.37 1.58 2.37 2.8s-.82 2.14-2.36 2.14c-1.23 0-2.03-.28-2.16-.42zm5.73 1.44h1.63l-.45-.8v-6.9c.76-.2 2.3-.07 2.3 2.03 0 1.37-.88 1.65-1.24 1.65-.3 0-.47-.1-.52-.15h-.13c.05.12.25.36.65.36.5 0 2.03-.2 2.03-2.15 0-1.94-1.96-2.04-2.32-2.04h-1.95l.27.29v6.92z" fill="#022368"/></svg>