<svg height="18" width="18" xmlns="http://www.w3.org/2000/svg"><path d="m0 0h18v18h-18z" fill="#1b2d81"/><path d="m11.137 4.5c-.855 0-1.581.311-2.137.622-.556-.31-1.24-.622-2.137-.622-1.752 0-2.863 1.156-2.863 3.2 0 2.444 2.265 4.844 5 6.8 2.735-1.911 5-4.311 5-6.8 0-2.044-1.154-3.2-2.863-3.2z" fill="#ccc"/><path d="m4.256 7.744c0 2.49 2.565 4.845 4.701 6.4a20.21 20.21 0 0 0 1.88-1.51c-2.862-2.491-5.597-4.757-6.537-5.557 0 .177-.043.4-.043.666z" fill="#3656cc"/><path d="m13.53 8.9c-2.094-1.778-3.333-2.711-4.7-3.556-.386-.222-1.112-.577-1.924-.577-.77 0-1.453.266-1.923.755-.3.311-.513.711-.598 1.2 1.068.8 4.017 2.978 6.966 5.422.982-.977 1.794-2.088 2.179-3.244z" fill="#e61c23"/><path d="m12.974 5.522c-.47-.489-1.11-.755-1.88-.755-.812 0-1.41.266-1.88.533.812.489 2.564 1.511 4.402 2.933.042-.178.042-.4.042-.578.043-.888-.213-1.644-.684-2.133z" fill="#fdbc11"/></svg>