<svg height="18" viewBox="0 0 18 18" width="18" xmlns="http://www.w3.org/2000/svg"><path d="m0 0h18v18h-18z" fill="#f0f3fa"/><path d="m7.55 9.04c-.41-.51-.7-1.14-.32-1.74.09-.15.32-.37.68-.66a236.65 236.65 0 0 1 1.1-.84c.01 0 .03 0 .04.02l5.93 4.53a.06.06 0 0 1 .01.07l-.01.02-5.93 4.55a.06.06 0 0 1 -.08 0l-5.95-4.56c-.02-.02-.02-.04 0-.06l1.23-.95a.06.06 0 0 1 .08 0l4.65 3.56c.02.02.04.02.06 0l3.34-2.56c.02-.02.02-.03 0-.05l-1.74-1.31c-.2-.16-.22-.14-.04.05.12.13.22.32.29.56.15.51.04 1.04-.38 1.37a144.36 144.36 0 0 1 -1.5 1.17h-.03l-5.96-4.59c-.03-.01-.03-.03 0-.05l5.96-4.57h.06l5.9 4.52a.1.1 0 0 1 .03.08.1.1 0 0 1 -.03.07l-1.18.9c-.02.02-.05.02-.07 0l-4.65-3.54a.05.05 0 0 0 -.06 0l-3.35 2.56a.02.02 0 0 0 0 .04l1.9 1.43a.02.02 0 0 0 .01 0 .02.02 0 0 0 0-.02z" fill="#00827e"/></svg>