<svg height="18" viewBox="0 0 18 18" width="18" xmlns="http://www.w3.org/2000/svg" xmlns:xlink="http://www.w3.org/1999/xlink"><linearGradient id="a" gradientUnits="userSpaceOnUse" x1="8.29" x2="6.34" y1="7.14" y2="9.86"><stop offset="0" stop-color="#fb850c"/><stop offset="1" stop-color="#fbc00a"/></linearGradient><path d="m0 0h18v18h-18z" fill="#f0f3fa"/><path d="m11.1 5h-8.1l3.9 8h8.1z" fill="#202d59"/><path d="m10.5 6h-6l2.5 6z" fill="#00499c"/><path d="m5.16 6.24-.16.76 2 5 1.82-3.16-.8.16.8-1.14-1.12.65.48-1.13-.95.8.32-1.29-.96.97.16-1.3-.64 1.14-.16-1.46-.47 1.3z" fill="url(#a)"/><path d="m4.5 6 2.5 6 3.5-6zm.3.2 2.23 5.35 3.12-5.35z" fill="#a9b6cf" fill-rule="evenodd"/></svg>