<svg height="18" width="18" xmlns="http://www.w3.org/2000/svg"><path d="m0 0h18v18h-18z" fill="#3a8abb"/><path d="m9.009 4.002c1.622 0 3.102 1.002 3.64 1.43l-1.199 1.568c-1.474-1.028-2.94-1.273-3.509-1.087-.326.106-.685.442-.666.903.023.576 1.493 1.159 2.99 1.491 1.198.266 1.869.739 2.038.99 1.068 1.276.675 2.628.345 3.145-.223.473-1.16 1.444-3.133 1.55-1.971.107-3.83-.989-4.514-1.55l1.313-1.442c1.124 1.223 2.987 1.14 3.777.977.177-.037.549-.24.622-.753.074-.514-.384-.805-.622-.886a18.013 18.013 0 0 1 -3.27-1.041c-.523-.214-1.857-1.01-1.821-2.481.046-1.839 1.938-2.814 4.008-2.814z" fill="#fff"/></svg>