<svg height="18" width="18" xmlns="http://www.w3.org/2000/svg"><path d="m0 0h18v18h-18z" fill="#f0f3fa"/><path d="m2 11 .77-1h.69l-.76 1z" fill="#92278f"/><rect fill="#92278f" height="1" rx=".5" width="1.27" x="13.73" y="7"/><path d="m12.18 7h-7.75a1.17 1.17 0 1 0 0 2.33h2.31a.33.33 0 1 1 0 .67h-3.1l-.78 1h4.31a1.17 1.17 0 1 0 0-2.33h-2.3a.33.33 0 1 1 0-.67h8.63c-.17-.6-.7-1-1.32-1zm-.05 2.67c1.45-.06 1.51-1.05 1.39-1.5h-1.34c.05 0 .15.04.15.2 0 .21-.17.3-.25.3h-2.82c-.44-.02-.54.32-.53.5v1.83h1.27v-1.06c0-.23.1-.28.17-.27zm2.87-1.5h-1.27v2.83h1.27z" fill="#edbc16"/></svg>