<svg height="18" viewBox="0 0 18 18" width="18" xmlns="http://www.w3.org/2000/svg" xmlns:xlink="http://www.w3.org/1999/xlink"><linearGradient id="a" gradientUnits="userSpaceOnUse" x1="8.43" x2="10.13" y1="9.54" y2="14.59"><stop offset="0" stop-color="#1e53a7"/><stop offset="1" stop-color="#0e86d2"/></linearGradient><path d="m0 0h18v18h-18z" fill="#f0f3fa"/><path d="m9.03 15-.06-.01a16.8 16.8 0 0 1 -2.84-.86c-1-.44-1.58-.94-1.8-1.54v-.03c-.18-.5-.17-1.12.03-1.95l.13-.52c.35-1.38.65-2.56-.32-3.52l-.17-.17.61-1.56.24.02.33.01c.58 0 2.12-.08 3.68-.8l.14-.07.14.06c1.56.73 3.1.81 3.68.81h.33l.24-.03.61 1.56-.17.17c-.97.96-.67 2.14-.32 3.51l.13.53c.2.84.21 1.46.03 1.96l-.02.04c-.14.42-.47.97-1.72 1.52-1.12.5-2.77.84-2.83.86z" fill="#fff"/><path d="m4.43 12.54v.01c.2.57.77 1.06 1.74 1.49 1.11.49 2.75.83 2.81.84l.05.01h.05c.06-.02 1.7-.36 2.81-.85 1.21-.54 1.53-1.07 1.67-1.47l.01-.03a3.3 3.3 0 0 0 -.03-1.9 37.6 37.6 0 0 0 -.12-.53c-.36-1.4-.67-2.61.34-3.62l.12-.11-.55-1.43-.17.02h-.34c-.6 0-2.15-.07-3.73-.81l-.09-.06-.09.05a9.17 9.17 0 0 1 -4.05.8h-.18l-.55 1.42.12.11c1 1 .7 2.22.35 3.62-.05.17-.1.35-.13.52-.2.81-.2 1.41-.04 1.9l.01.01zm4.6 2.46-.06-.01c-.07-.02-1.72-.36-2.84-.86-1-.44-1.58-.94-1.8-1.54v-.03a3.4 3.4 0 0 1 .03-1.95l.13-.52c.35-1.38.65-2.56-.32-3.52l-.17-.17.6-1.56.25.02.33.01c.58 0 2.12-.08 3.68-.8l.14-.07.14.06c1.56.73 3.1.81 3.68.81h.33l.24-.03.61 1.56-.17.17c-.97.96-.67 2.14-.32 3.51l.13.53c.2.84.21 1.46.02 1.96v.04c-.15.42-.48.97-1.73 1.52-1.12.5-2.77.84-2.83.86z" fill="#7a7878"/><path d="m12.93 7.42-8.38 4.55c.01.17.05.33.1.47v.01c.13.37.5.86 1.61 1.35 1.1.49 2.77.83 2.77.83s1.67-.34 2.77-.83c1.1-.5 1.41-.96 1.54-1.33l.01-.03c.16-.43.15-.98-.03-1.76-.28-1.17-.65-2.27-.39-3.26z" fill="url(#a)"/><path d="m4.68 10.68c-.1.43-.15.8-.14 1.1l8.46-4.6c.12-.3.31-.6.6-.88l-.44-1.1h-.35c-.67 0-2.22-.08-3.82-.83-1.6.75-3.15.84-3.82.84l-.35-.01-.43 1.1c1.11 1.1.77 2.43.41 3.86l-.13.52zm2.32-3.68a1 1 0 1 0 0 2 1 1 0 0 0 0-2z" fill="#ed2126" fill-rule="evenodd"/><path d="m6.98 8.8a.74.74 0 0 1 -.51-.22l.03-.02s.16.07.36.07a.7.7 0 0 0 .52-.22c.37-.4.26-.6.23-.8 0 0 .38.54-.19 1.04 0 0-.18.14-.44.14z" fill="#bababa"/><path d="m6.26 8.2.12.11.16.28-.03.03s-.2-.17-.25-.42zm.54.47.12-.19h.32l.07.18s-.1.06-.27.1c0 0-.16-.03-.23-.1zm-.33-.53.3.08.17-.3-.18-.26-.3.13zm.79-.23.16.3.22-.1-.01-.3-.22-.15zm-.5-.61s.26-.1.5.02l-.04.1h-.32l-.13-.12z" fill="#211e1e"/><path d="m8.95 11.33c-.1.02-.19-.03-.2-.12v-.09a.18.18 0 0 1 -.04-.1c-.01-.06.02-.12.1-.19a.64.64 0 0 1 .06-.04l1.2-.63.03.04.01.01c0-.12.1-.18.17-.2.08-.02.14 0 .17.03a.23.23 0 0 1 .14-.1c.08-.01.14 0 .17.03a.23.23 0 0 1 .13-.1c.09-.01.15.01.18.04a.23.23 0 0 1 .13-.1c.09-.02.15 0 .18.03l.04.04.12.04v.08a.35.35 0 0 0 -.01.13l.2.08c.1.05.14.13.14.14.01.03.02.06.01.09.03.02.05.05.06.09 0 .04 0 .09-.04.13a.2.2 0 0 1 -.1.06l-2.85.62z" fill="#aecdea"/><path d="m6 12h6v1h-6zm0-6h6v1h-6z" fill="#f0f3fa" fill-opacity=".7"/></svg>