<svg height="18" width="18" xmlns="http://www.w3.org/2000/svg"><path d="m0 0h18v18h-18z" fill="#018385"/><path d="m7.92 8.71-.84-.5c-.75-.46-1.08-.83-1.08-1.3 0-.53.52-.91 1.24-.91.93 0 1.76.8 1.76.8s.8-.8 1.76-.8c.72 0 1.24.38 1.24.9 0 .48-.33.85-1.08 1.31l-.84.5c-.49.29-.85.62-1.08 1-.23-.38-.6-.71-1.08-1zm-2.89 3.57c.63.48 1.33.72 2.07.72.85 0 1.52-.36 1.9-.95.38.6 1.05.95 1.9.95.74 0 1.44-.24 2.07-.72l-.47-.9-.16.12c-.43.32-.96.5-1.43.5-.69 0-1.2-.43-1.2-1.02 0-.48.36-.96 1-1.35l.84-.52c1.03-.61 1.45-1.2 1.45-2.04 0-1.22-.92-2.07-2.26-2.07-.62 0-1.2.17-1.74.53a3.04 3.04 0 0 0 -1.74-.53c-1.34 0-2.26.85-2.26 2.07 0 .83.42 1.42 1.45 2.04l.83.52c.65.39 1.01.87 1.01 1.35 0 .6-.51 1.02-1.2 1.02-.47 0-1-.18-1.43-.5l-.16-.12z" fill="#fff"/></svg>