<svg fill="none" height="18" viewBox="0 0 18 18" width="18" xmlns="http://www.w3.org/2000/svg"><path d="m0 0h18v18h-18z" fill="#ed642a"/><path clip-rule="evenodd" d="m5 7.125c0-2.26974 1.82466-4.125 4-4.125v1.48026c-1.39445 0-2.58696 1.18421-2.58696 2.64474s1.19251 2.64474 2.58696 2.64474v1.48026c-2.17534 0-4-1.83553-4-4.125zm4 6.3946c1.4379 0 2.4896-1.1842 2.4896-2.6447 0-1.46051-1.0517-2.64472-2.4896-2.64472v-1.48027c2.2539 0 4 1.83553 4 4.12499 0 2.2697-1.7461 4.125-4 4.125z" fill="#fff" fill-rule="evenodd"/></svg>