<svg height="18" viewBox="0 0 18 18" width="18" xmlns="http://www.w3.org/2000/svg"><path d="m0 0h18v18h-18z" fill="#f0f3fa"/><g fill="#004c97"><path d="m4 5.25v-.44l.81-.81h.44v.44l-.81.81zm8.75 8.75v-.44l.81-.81h.44v.44l-.81.81zm-8.75-6.87v-.46l2.67-2.67h.46v.46l-2.67 2.67zm3.44 0v-.46l2.66-2.67h.45v.46l-2.65 2.67h-.45zm3.44 3.43v-.46l2.66-2.66h.46v.46l-2.66 2.66zm0 1.57v-.47l2.66-2.66h.46v.46l-2.66 2.66h-.46zm0 1.87v-.46l2.66-2.66h.46v.46l-2.66 2.66zm-5.32-6.87v-.47l2.66-2.66h.47v.46l-2.66 2.67zm-1.25 4.68v-.44l7.37-7.37h.45v.44l-7.37 7.37h-.46zm-.31 2.19v-.45l9.55-9.55h.45v.45l-9.55 9.55zm2.81-.94v-.44l6.75-6.74h.44v.44l-6.74 6.74h-.46z"/><path d="m5.88 4.94h.45l.64.63v.46h-.47l-.63-.63v-.46zm1.56 1.71h.48l.77.77v.48h-.49l-.77-.78v-.47zm-1.56 3.29h.47l.77.77v.48h-.47l-.77-.77zm1.56.31h.48l.77.77v.48h-.49l-.77-.77v-.48zm.94-.94h.47l.77.77v.48h-.47l-.77-.77zm2.5-2.5h.47l.77.77v.48h-.47l-.77-.77zm.93 4.07h.48l.77.77v.47h-.48l-.77-.77zm-1.73-6.88h.45l3.45 3.48v.45h-.45l-3.45-3.47zm2.67.94h.48l.77.77v.48h-.48l-.77-.77zm-3.44 1.76h.45l.72.72v.46h-.45l-.72-.73zm1.88 1.68h.47l2.34 2.32v.48h-.48l-2.32-2.33v-.47z"/><path d="m11.81 4h.48l.77.77v.48h-.48l-.77-.77zm-2.65 1.1h.48l.6.6.01.49h-.48l-.61-.62zm-2.54-1.1h.45l1.64 1.64v.45h-.45l-1.64-1.64z"/></g></svg>