<svg height="18" viewBox="0 0 18 18" width="18" xmlns="http://www.w3.org/2000/svg"><path d="m0 0h18v18h-18z" fill="#f0f3fa"/><path d="m10.1 9.33c.45-.18.7-.7.7-1.12 0-.77-.72-1.2-1.46-1.2h-2.29v.28c.27.26.3.63.3.99v1.29c0 .86-.2 1.01-.3 1.1v.33h1.35v-1.43h.5l.86 1.43h1.33v-.33c-.5-.3-.72-.84-1-1.34zm-.95-.61h-.75v-.86h.75c.45 0 .6.14.6.43 0 .28-.16.43-.6.43zm-4.95-.52.02-.1c.4-2.1 2.78-3.08 4.8-3.1.73-.01 1.42.1 2.08.4l-.01.02a6.06 6.06 0 0 0 -2.12-.22c-1.45.08-2.8.64-3.51 1.89.4.05.8.18 1.14.37v.97h-.33s-.38-.43-1.17-.43c-.2 0-.8-.02-.9.22v.05c.1.36.93.29 1.2.35.66.12 1.35.36 1.35 1.1 0 .95-1.3 1.3-2.1 1.28-.61 0-1.2-.22-1.65-.46v-.97h.33s.5.4 1.32.43c.1 0 .84-.03.84-.24 0-.17-.31-.22-.43-.24-.8-.2-2.06-.18-2.06-1.24 0-.6.64-1.04 1.2-1.14zm9 .52h1.8v1.71c-.18.22-.54.37-1 .46v-1.19c0-.28-.62-.3-.8-.33v-.64zm.3 1.28c-.6 0-1.35-.3-1.35-1 0-.5.52-1 1.35-1s1.19.42 1.19.42h.31v-.97s-.61-.45-1.5-.45c-1.18 0-2.4.7-2.4 2 0 .87.6 1.62 1.48 1.85-.72 1.28-2.08 1.87-3.55 1.95-.68.03-1.55-.01-2.13-.22a4 4 0 0 0 1.8.42c2.4 0 4.43-.99 5.25-3.14 0 0-.15.14-.45.14z" fill="#231f20"/><path d="m3 12v-.5h7v.5z" fill="#e82c2a"/></svg>