<svg height="18" width="18" xmlns="http://www.w3.org/2000/svg"><path d="m0 0h18v18h-18z" fill="#0080c5"/><path d="m10.899 10-1.085-1.154s.94-.501 1.348-.866a2.82 2.82 0 0 0 .734-1.182c.149-.46.188-.956.114-1.438a2.97 2.97 0 0 0 -.537-1.31 2.504 2.504 0 0 0 -1.044-.834 3.126 3.126 0 0 0 -1.451-.2c-2.146.137-3.279 2.444-2.24 4.569.087.178.183.35.28.523l.132.24-.222.15c-.16.106-.322.213-.48.326-1.094.786-1.603 1.913-1.407 3.362.196 1.447 1.02 2.295 2.249 2.65 1.633.471 3.626-.054 4.5-1.412l1.21 1.576v-5zm-2.86-3.982c0-.664.305-1.178.801-1.353.543-.191 1.147.023 1.416.502a1.63 1.63 0 0 1 -.125 1.714c-.31.412-.734.627-1.167.82-.042.024-.14.049-.14.049s-.08-.072-.109-.114c-.363-.467-.692-.95-.675-1.618zm.292 3.82c1.169 1.162 2.563 2.743 2.563 2.743-2.737 2.538-5.894-.581-2.564-2.744z" fill="#fefefe"/></svg>