<svg height="18" viewBox="0 0 18 18" width="18" xmlns="http://www.w3.org/2000/svg"><path d="m0 0h18v18h-18z" fill="#f0f3fa"/><path d="m9.5 13.86v-4.85a.1.1 0 0 1 .04-.08l4.28-2.91c.08-.05.18.01.18.12v2.2l-3.66 2.4v.53l3.48-2.3c.08-.05.18.01.18.12v2.08l-4.32 2.81c-.08.05-.18-.01-.18-.12zm.84-3.66v-.5l2.66-1.8v.52zm0 2.08v-.5l2.66-1.87v.52l-2.66 1.84zm-6.34-1.14 4.32 2.84c.08.05.18-.01.18-.12v-3.05l-3.5-2.31v-.5l3.5 2.24v-1.34l-4.26-2.87c-.1-.08-.24.01-.24.15v3l3.38 2.28v.5l-3.15-2.08c-.1-.07-.24.02-.24.16v1.1z" fill="#293267" fill-rule="evenodd"/><path d="m8.41 7.36-.48-.97a.13.13 0 0 0 -.09-.07l-1.4-.25c-.05 0-.09-.06-.09-.1 0-.05.03-.1.06-.11l1.35-.56c.05-.02.06-.07.06-.13v-1.05c0-.04.04-.08.06-.1a.1.1 0 0 1 .11 0l1.21.7h.09l1.56-.4a.1.1 0 0 1 .1.03c.04.04.05.1.02.14l-.47.87a.15.15 0 0 0 .02.18l.8.74c.03.03.04.08.02.13-.01.04-.05.09-.09.09h-1.65l-.98.9c-.07.06-.16.04-.2-.04z" fill="#28bdfe"/></svg>