<svg height="18" viewBox="0 0 18 18" width="18" xmlns="http://www.w3.org/2000/svg" xmlns:xlink="http://www.w3.org/1999/xlink"><linearGradient id="a" gradientUnits="userSpaceOnUse" x1="6.36" x2="6.36" y1="4.02" y2="8.92"><stop offset="0" stop-color="#151a16"/><stop offset="1" stop-color="#413e73"/></linearGradient><linearGradient id="b" gradientUnits="userSpaceOnUse" x1="5.56" x2="5.56" y1="4.81" y2="11.14"><stop offset="0" stop-color="#eaeefa"/><stop offset=".58" stop-color="#e5e9f6"/><stop offset="1" stop-color="#d2c9df"/></linearGradient><linearGradient id="c" gradientUnits="userSpaceOnUse" x1="3.3" x2="5.82" y1="9.23" y2="11.21"><stop offset="0" stop-color="#18304a"/><stop offset=".35" stop-color="#3d4171"/><stop offset="1" stop-color="#9678ae"/></linearGradient><linearGradient id="d" gradientUnits="userSpaceOnUse" x1="5.65" x2="7.89" y1="10.57" y2="10.66"><stop offset="0" stop-color="#654181"/><stop offset="1" stop-color="#aa6bad"/></linearGradient><linearGradient id="e" gradientUnits="userSpaceOnUse" x1="4.71" x2="8.11" y1="8.97" y2="10.64"><stop offset="0" stop-color="#454a81"/><stop offset=".33" stop-color="#9b86be"/><stop offset="1" stop-color="#b989be"/></linearGradient><linearGradient id="f" gradientUnits="userSpaceOnUse" x1="14.78" x2="11.34" y1="9.34" y2="13.53"><stop offset="0" stop-color="#b7123d"/><stop offset="1" stop-color="#261514"/></linearGradient><linearGradient id="g" gradientUnits="userSpaceOnUse" x1="10.86" x2="14.54" y1="7.89" y2="9.21"><stop offset="0" stop-color="#a98fc6"/><stop offset="1" stop-color="#d0496a"/></linearGradient><linearGradient id="h" gradientUnits="userSpaceOnUse" x1="8.23" x2="12.6" y1="7.85" y2="8.92"><stop offset="0" stop-color="#3a1d46"/><stop offset="1" stop-color="#812264"/></linearGradient><path d="m0 0h18v18h-18z" fill="#f0f3fa"/><path d="m7.84 4.04c.1-.05.19-.04.23-.03a18.13 18.13 0 0 0 -3.05 2.37c-.78.56-.98 1.82-.99 2.39l-.98.64c-.21-.87.27-1.85.53-2.16 1.84-2.35 4.15-3.16 4.26-3.21z" fill="#3880b4"/><path d="m8.03 4.15c.08-.05.06-.1.04-.13-1.2.66-2.03 1.67-2.36 2.07a4.82 4.82 0 0 0 -1.08 2.45c.22.6.8.42 1.07.27-1.1-2.04 2.24-4.6 2.33-4.66z" fill="url(#a)"/><path d="m3.46 9.16.73-.51c0-.13.04-.57.31-1.2a9.4 9.4 0 0 1 1.74-2.13c-.76.3-2.3 1.51-2.64 2.47a2.5 2.5 0 0 0 -.14 1.37z" fill="#c0cbe7"/><path d="m3.33 9.24.14-.1c-.15-.5.06-1.18.18-1.46a5.54 5.54 0 0 1 2.33-2.2c-1.95.96-2.51 2.13-2.65 2.73-.11.48-.05.89 0 1.03z" fill="#a1b7e0"/><path d="m4.51 7.47c.6-1.3 1.96-2.4 2.52-2.74-1.33 1.17-2.33 2.57-2.45 4.17-.08 1.28 1.34 2 2.04 2.23h-.31c-.96-.31-1.6-.9-1.8-1.17-.25-.29-.6-1.2 0-2.5z" fill="url(#b)"/><path d="m4.2 10.72c-.72-.3-1.06-1-1.14-1.31l.25-.18c.34-.25.83-.59.88-.6 0 .33-.01.71.13 1 .43.87 1.5 1.37 2 1.5-.59 0-1.23-.05-2.13-.41z" fill="url(#c)"/><path d="m8.75 10.42a7.7 7.7 0 0 1 -3.58-.12c.27.32 1.04.71 1.36.84a9.78 9.78 0 0 0 4.04-1.13c-.39.14-1.38.33-1.82.41z" fill="url(#d)"/><path d="m5.22 10.36a1.8 1.8 0 0 1 -.59-1.84c.3.54.84.42 1.07.29.23.34.95 1.05 2.03 1.13s2.21-.03 2.64-.1c.07-.01.22-.02.25.05a.09.09 0 0 1 -.04.12c-.26.11-1.12.38-2.54.51a7.89 7.89 0 0 1 -2.82-.16z" fill="url(#e)"/><path d="m5.44 9.9c-.03-.14.25-.33.4-.4.75.48 1.16.56 2.15.64.8.06 1.79-.1 2.18-.2.06 0 .19-.02.2.03.02.04-.06.07-.1.09-.78.22-1.73.32-2.1.34-2.43.1-2.68-.33-2.73-.5z" fill="#cbbdde"/><path d="m9.71 13.99c-.02-.03.06-.1.1-.13.7-.36 1.57-1.1 1.92-1.42a5.73 5.73 0 0 0 1.92-2.17c.6-.5 1.12-1.2 1.3-1.49.58 3-4.88 5.13-4.96 5.16-.09.03-.25.09-.28.05z" fill="url(#f)"/><path d="m13.56 8.45c.45.63.24 1.49.08 1.83a7.53 7.53 0 0 0 1.32-1.5c-.1-1-1.54-2-3.7-1.85a11.2 11.2 0 0 0 -3.77.94c-.1.06-.06.1-.03.12a8.85 8.85 0 0 1 3.06-.73c1.4 0 2.48.4 3.04 1.19z" fill="url(#g)"/><path d="m14.08 7.98c.06.2-.3.43-.49.52-.21-.3-.7-.9-1.96-1.14-1-.18-2.08-.02-2.53.09.1-.04.9-.42 2.6-.32 1.68.1 2.32.6 2.38.85z" fill="#e8d9ec"/><path d="m9.72 13.84c-.06.05-.05.1-.03.13 1.58-1.02 1.07-.73 2.02-1.47.75-.59 1.17-1.4 1.28-1.71.16-.63-.28-.7-.5-.61-.03 1.44-1.86 3.04-2.77 3.66z" fill="#ea7f9c"/><path d="m12.49 10.18c-.01-.27-.04-.46-.05-.53.3-.58.32-1.25.28-1.5.2.13.58.55.62 1.16.04.6-.2 1.19-.33 1.4.03-.58-.34-.6-.52-.53z" fill="#b54079"/><path d="m7.7 8.05c3.42-.44 4.58.9 4.74 1.62.3-.54.33-1.21.29-1.53-.54-.45-1.46-.54-1.86-.54-1.26-.04-2.35.14-2.73.24-.25.03-.7.1-.69.15.01.07.17.07.25.06z" fill="url(#h)"/></svg>