<svg height="18" width="18" xmlns="http://www.w3.org/2000/svg"><path d="m0 0h18v18h-18z" fill="#646766"/><path d="m8.78 5.632c.998 0 1.75.22 1.818 1.368h2.017c-.115-2.049-1.825-3-3.741-3-1.717 0-3.554.937-3.555 2.889 0 1.79 1.425 2.339 2.836 2.713 1.397.373 2.821.547 2.821 1.577 0 .977-1.118 1.19-1.85 1.19-1.118 0-2.103-.099-2.103-1.369h-2.023c-.026 2.353 1.944 3 4.047 3 2.582 0 3.953-1.31 3.953-3.061 0-2.165-2.13-2.606-2.822-2.78-2.382-.615-2.835-.71-2.835-1.445 0-.802.772-1.082 1.438-1.082z" fill="#fff"/></svg>