<svg fill="none" height="18" viewBox="0 0 18 18" width="18" xmlns="http://www.w3.org/2000/svg"><path d="m0 0h18v18h-18z" fill="#f0f3fa"/><path d="m8.7486 3h.54c3.1602.2274 5.553 2.619 5.7114 5.7936v.42c-.1596 3.1656-2.544 5.574-5.7036 5.7864h-.615c-3.1644-.2202-5.4936-2.6352-5.6814-5.7936v-.42c.1788-3.183 2.5704-5.5776 5.7486-5.7864z" fill="#bd9a5f"/><path d="m7.33105 7.45978c.2838-.171.2202-.5676-.0042-.7128-.6618-.4284-2.244.3006-1.833 1.2588.3204.7458 1.4658 1.107 1.074 2.13182-.2814.7344-1.1418 1.1694-1.9002 1.2516-.4494.0492-.954-.0648-1.1982-.462-.288-.4692.003-1.07822.501-1.25582.1764-.063.3714-.0648.513.072.3606.34922-.225.96722-.45.63662-.012-.0176-.0094-.0326.0078-.045.0644-.0476.0972-.1128.0984-.1956.00012-.0144-.0031-.0286-.00938-.0416-.00629-.013-.01548-.0243-.02685-.0331-.01138-.0088-.02464-.0149-.03876-.0178-.01411-.0028-.02869-.0024-.04261.0013-.3366.0894-.3828.5394-.1884.7722.6906.8262 3.0378-.3246 1.9506-1.48562-.4068-.4344-.9744-.8502-.906-1.5006.0894-.855.9576-1.4046 1.7772-1.4814.3882-.036.873.0204 1.0812.378.279.4776-.0978 1.197-.6918 1.1286-.564-.0654-.3336-.8394.1014-.705.1332.0408.1854.1512.1542.2826-.00089.00402-.0006.00823.00082.01211.00143.00388.00393.00724.0072.00968.00327.00243.00716.00383.01117.00401.00402.00018.00799-.00086.01141-.003z" fill="#000"/><path d="m11.2539 8.30822c.2604-.2808.657-.648 1.062-.5994.1936.0236.2778.13939.2526.34739-.004.0328.0064.03821.0312.01621.2292-.2034.5478-.4326.8406-.4644.9114-.0984-.093 1.39379-.216 1.62959-.0666.1266-.1056.26761.0708.31621.02.0056.039.00339.057-.00661.4692-.26759.9114-.92519 1.1754-1.38419.0057-.01026.0145-.01846.0251-.02349.0106-.00502.0225-.00663.0341-.00459.0117.00203.0224.00761.0308.01596s.0141.01908.0162.03072c.0212.1168.0026.22459-.0558.32339-.2814.474-1.044 1.58879-1.7148 1.3962-.8478-.243.6978-1.60799.342-1.84319-.0172-.0112-.036-.0148-.0564-.0108-.6276.1254-1.1118 1.09979-1.2948 1.64519-.0232.0704-.0082.13.045.1788.0164.0156.0162.0308-.0006.0456-.138.12199-.279.18119-.423.17759-.3726-.0084-.1866-.45119-.087-.62278.1956-.338.388-.6778.5772-1.0194.075-.1344.027-.2952-.1554-.234-.6264.2082-1.131 1.09919-1.3242 1.6848-.0068.02039-.003.03879.0114.05519l.069.07859c.018.0204.0158.0382-.0066.0534-.1788.1248-.66001.2622-.64621-.13079.0012-.0292-.01-.035-.0336-.0174-.3204.24119-1.413.73799-1.5642.06239-.00106-.00458-.00332-.00883-.00654-.01229-.00321-.00345-.00727-.00599-.01175-.00734s-.0092-.00146-.01369-.00033c-.00449.00114-.00857.00348-.01182.00677-.24.23399-.921.68219-1.2564.44279-.1488-.1068-.1826-.2546-.1014-.44339.2-.4664.4938-.988.8814-1.5648.0256-.0376.016-.05299-.0288-.04619l-.4272.0636c-.00422.00055-.00853.00002-.0125-.00154-.00396-.00157-.00745-.00411-.01011-.00737-.00266-.00327-.00441-.00716-.00508-.01128-.00066-.00411-.00022-.00833.00129-.01221.1098-.2976.3684-.33841.6504-.32461.0236.0012.0406-.0088.051-.03l.2928-.58739c.0104-.0212.0074-.0406-.009-.0582-.213-.225.7446-.3792.5016.1266-.0724.15-.1516.2964-.2376.4392-.0128.0208-.0072.0314.0168.0318.1816.0044.3576-.0206.528-.075.0284-.0092.0394.0006.033.02939-.0858.372-.468.3372-.7566.3666-.0204.002-.0356.01201-.0456.03-.322.5612-.5916 1.049-.8088 1.4634-.0624.1192-.0492.21239.0396.27959.018.0136.0378.0166.0594.009.2216-.076.4146-.19258.579-.34978.0652-.0628.1228-.15481.1728-.27601.2712-.657.8904-1.44299 1.63981-1.57739.324-.0582.4614.2046.3708.4734-.1698.5034-.88141.82979-1.37221.87899-.0204.002-.0356.01181-.0456.0294-.1746.2958-.1734.77879.3312.6438.4398-.1176.72301-.3414.97741-.7452.0954-.1512.7434-1.1262.54-1.2366-.0063-.00336-.0115-.00837-.0151-.01448s-.0055-.0131-.0054-.0202c0-.0071.002-.01405.0058-.02009.0037-.00605.009-.01097.0153-.01423.1458-.0774.6294-.14459.5334.17281-.0112.0368-.0488.1182-.1128.2442-.0156.0308-.0118.0336.0114.0084zm-1.2258-.1686c-.32641.0828-.69901.50579-.89641.84059-.014.0236-.0076.0328.0192.0276.2772-.0534 1.06141-.402 1.01941-.77039-.0019-.01624-.0072-.03189-.0157-.04589-.0084-.014-.0197-.02604-.0332-.0353-.0135-.00927-.0288-.01554-.0449-.01841-.016-.00286-.0326-.00225-.0484.0018z" fill="#000"/><path d="m9.13123 8.98021c.1974-.3348.57-.7578.89637-.8406.0159-.00404.0324-.00465.0485-.00179.0161.00287.0314.00914.0448.0184.0135.00927.0248.0213.0333.03531.0084.014.0137.02965.0156.04588.042.3684-.74217.717-1.01937.7704-.0268.0052-.0332-.004-.0192-.0276z" fill="#bd9a5f"/><g fill="#000"><path clip-rule="evenodd" d="m7.21953 3.84592c3.02757-1.10832 6.16897.73464 7.03907 3.79776.0011.0039.0032.00744.006.01026.0029.00282.0064.00482.0103.00581.0038.00098.0078.0009.0117-.00022.0038-.00112.0072-.00325.01-.00617.0134-.01411.0166-.03527.0095-.06349-.3853-1.48662-1.2185-2.6306-2.4995-3.43196-3.20782-2.00802-7.48665-.0659-8.17657 3.68591-.08773.47686-.11815.97469-.09128 1.49347.00118.02822.01403.03547.03852.02177.02302-.01276.01943-.09271.01739-.13807-.00037-.00838-.0007-.01558-.00079-.02095-.02489-2.41072 1.39348-4.53725 3.62566-5.35412zm7.01407 6.50658c-1.3123 4.8033-7.45874 5.5724-9.96475 1.3175-.00188-.0032-.00463-.0058-.00792-.0074-.00329-.0017-.00698-.0023-.01061-.0019-.00364.0005-.00707.002-.00988.0044s-.00488.0056-.00596.0091c-.01189.0368.00084.0526.01556.0707.00584.0072.01199.0148.01703.0243.47853.9069 1.1483 1.6142 2.00932 2.1217 3.51719 2.0721 7.94891-.3405 8.19251-4.4853.006-.10641-.0065-.10863-.0373-.00665-.0539.17785-.0897.38571-.1224.575-.0249.14405-.0479.27735-.0756.37855z" fill-rule="evenodd"/><path d="m6 11h7v1h-7z" opacity=".5"/></g></svg>