<svg height="18" width="18" xmlns="http://www.w3.org/2000/svg"><path d="m0 0h18v18h-18z" fill="#00487a"/><path d="m6.24 14.587c-.218-.107-.233-.168-.233-.582 0-.765-.015-1.377 0-1.622.015-.168.047-.245.124-.245.094 0 .11.046.11.169 0 .137 0 .351.046.566.233 1.132 1.339 1.561 2.381 1.561 1.495 0 2.226-1.056 2.226-2.036 0-1.056-.451-1.668-1.79-2.755l-.7-.566c-1.65-1.332-2.024-2.282-2.024-3.322 0-1.638 1.246-2.755 3.223-2.755a6.15 6.15 0 0 1 1.447.153c.296.061.42.076.545.076s.155.03.155.108c0 .076-.062.581-.062 1.622 0 .245-.03.353-.11.353-.092 0-.108-.077-.123-.2-.016-.183-.11-.597-.203-.765-.093-.169-.513-.812-1.945-.812-1.074 0-1.915.66-1.915 1.777 0 .872.405 1.423 1.899 2.57l.436.338c1.837 1.423 2.273 2.372 2.273 3.596 0 .628-.25 1.792-1.323 2.542-.67.459-1.51.642-2.351.642-.731 0-1.448-.107-2.086-.413z" fill="#fff"/></svg>