<svg height="18" width="18" xmlns="http://www.w3.org/2000/svg"><path d="m0 0h18v18h-18z" fill="#21a6aa"/><path d="m5.619 5.363a9.198 9.198 0 0 1 1.004-.76l1.742 1.742-.902.862-1.843-1.844zm4.037.982 1.742-1.742c.266.164.73.555.955.76l-1.843 1.844-.853-.862zm.901 4.49 1.845 1.843a9.098 9.098 0 0 1 -1.004.751l-1.742-1.742.901-.853zm-1.537 1.515 1.435 1.435a4.886 4.886 0 0 1 -2.869 0zm-.655-.663-1.742 1.743a9.094 9.094 0 0 1 -1.004-.75l1.844-1.845.902.853zm2.828-1.53 1.086-1.085c.04-.041.04-.082 0-.123l-1.086-1.086 1.824-1.824a5.012 5.012 0 0 1 0 5.963l-1.824-1.844zm-5.473-1.207c-.04.04-.04.082 0 .123l1.086 1.086-1.823 1.824a5.01 5.01 0 0 1 0-5.964l1.823 1.824-1.085 1.107zm1.845-4.734a4.89 4.89 0 0 1 2.869 0l-1.434 1.434-1.434-1.435zm-.743 4.784.707-.707.707.707-.707.707zm2.915 0 .707-.707.737.737-.707.707zm-1.474-1.675.707-.707.737.737-.707.707zm.03 3.149.707-.707.737.737-.707.707z" fill="#fff"/></svg>