<svg height="18" viewBox="0 0 18 18" width="18" xmlns="http://www.w3.org/2000/svg" xmlns:xlink="http://www.w3.org/1999/xlink"><linearGradient id="a" gradientUnits="userSpaceOnUse" x1="9.17" x2="9.17" y1="4" y2="12.21"><stop offset=".07" stop-color="#68c07e"/><stop offset=".42" stop-color="#64bf7f"/><stop offset=".91" stop-color="#02a1a8"/></linearGradient><linearGradient id="b" gradientUnits="userSpaceOnUse" x1="13.35" x2="8.32" y1="10.97" y2="7.23"><stop offset=".14" stop-color="#0584b1"/><stop offset="1" stop-color="#47bb89"/></linearGradient><path d="m0 0h18v18h-18z" fill="#f0f3fa"/><path d="m4.33 7.43c.25-3.6 6.55-3.67 9.67-3.26-.11.23-.45.3-.6.32-5.68.31-6.43 1.88-6.5 2.71-.06.79.32 1.4.9 2.32.47.74.57 1.17.57 1.29-.05 1-1.33 1.3-1.68 1.4-.29.06-.53-.16-.62-.28-1.62-2.39-1.75-3.53-1.75-4.5z" fill="url(#a)"/><path d="m13.67 10.02c-.29 3.32-6.05 3.98-9.67 3.98-.04-.37.45-.5.61-.51 5.12-1.02 6.27-2.55 6.34-3.39.06-.67-.38-1.08-1-2-.5-.74-.66-1.08-.63-1.46.05-1 1.36-1.14 1.74-1.2.7-.09.87.2.96.31 1.72 2.4 1.65 3.3 1.65 4.27z" fill="url(#b)"/></svg>