<svg height="18" width="18" xmlns="http://www.w3.org/2000/svg"><path d="m0 0h18v18h-18z" fill="#ec3b43"/><path d="m10.419 7c-.03-.388-.2-.627-.422-.788-.22-.16-.52-.213-.838-.213-.47 0-1.229.263-1.159.891.08.722 1.626.76 2.553 1.094 1.642.589 2.277 1.497 2.403 2.633.254 2.3-1.75 3.383-3.722 3.383-2.085 0-4.071-.566-4.226-3h2.709c0 .707.608 1.01 1.517 1.01.547 0 1.388-.382 1.319-1.01-.077-.695-1.22-.824-2.528-1.265-1.15-.387-2.286-1.003-2.463-2.594-.238-2.151 1.638-3.141 3.468-3.141 1.933 0 3.76.648 3.97 3z" fill="#fff"/></svg>