<!-- by TradingView --><svg width="18" height="18" viewBox="0 0 18 18" xmlns="http://www.w3.org/2000/svg"><path fill="#F0F3FA" d="M0 0h18v18H0z"/><path d="M8.73 10.03v.22h-.21l.1-.26.11.04Zm.27.04v.18h.17l-.07-.18H9Zm.36-.07.1.25h.32l-.3-.31a.97.97 0 0 1-.12.06Zm.34-.24.46.49h.96l-1.32-.6-.1.11Zm.23-.37 4.03 1.86a3.51 3.51 0 0 0-.3-1.96h-3.7l-.03.1ZM10 9h3.5a2.83 2.83 0 0 0-1.58-1.12l-1.95.84c.02.1.03.18.03.28Zm-.14-.54 1.58-.68a3.68 3.68 0 0 0-.5-.03h-.69l-.5.54c.04.05.08.1.11.17Zm-.32-.36.33-.35H9.5l-.1.26.14.09Zm-.4-.16.07-.19H9v.18h.13Zm-.4.03v-.22h-.26l.1.28.15-.06Zm-.39.21-.16-.43H7.8l.47.5.07-.07Zm-.23.3-.69-.73H6.7c-.11 0-.2-.06-.2-.18s.09-.18.2-.18h.4L4.85 5c-.4.46-.7 1.04-.8 1.7l4.04 1.85.03-.06Zm-.1.35L4 6.99 4 7.26A3 3 0 0 0 4.52 9H8l.01-.17Zm.1.68-1.61.7c.18.03.36.04.55.04h.47l.63-.67a1.09 1.09 0 0 1-.04-.07Zm.21.29-.42.45h.32l.15-.4a1.03 1.03 0 0 1-.05-.05Zm.05.8h.35V14H7.04l1.34-3.4Zm.62 0V14h1.64L9.3 10.6H9Zm1.94 3.4L9.6 10.6h.51l2.61 2.8c-.5.37-1.11.6-1.78.6Zm2-.79-2.45-2.6h.84c.11 0 .17-.06.17-.18l2.4 1.1a3.3 3.3 0 0 1-.97 1.68Zm.73-5.82h-.6l.6-.25v.25Zm-1.32 0 1.32-.56V4.1l-3.08 3.28h1.76ZM10.97 4h2.42L10.2 7.4h-.57L10.97 4Zm-.29 0L9.35 7.4H9V4h1.68ZM8.73 4v3.4h-.4L7 4h1.73Zm-2 .02 1.32 3.37h-.57L5.05 4.8c.46-.42 1.03-.7 1.67-.78Zm1.2 5.27H4.75c.35.37.79.65 1.3.8l1.88-.8ZM4 10.6h.85l-.85.36v-.36Zm1.57 0L4 11.28V14h.01l3.18-3.4H5.57ZM6.75 14H4.4l3.18-3.4h.52L6.75 14Z" fill="#2350A3"/></svg>