<svg height="18" viewBox="0 0 18 18" width="18" xmlns="http://www.w3.org/2000/svg"><path d="m0 0h18v18h-18z" fill="#f0f3fa"/><path d="m8.73 10.03v.22h-.21l.1-.26zm.27.04v.18h.17l-.07-.18zm.36-.07.1.25h.32l-.3-.31a.97.97 0 0 1 -.12.06zm.34-.24.46.49h.96l-1.32-.6zm.23-.37 4.03 1.86a3.51 3.51 0 0 0 -.3-1.96h-3.7zm.07-.39h3.5a2.83 2.83 0 0 0 -1.58-1.12l-1.95.84c.02.1.03.18.03.28zm-.14-.54 1.58-.68a3.68 3.68 0 0 0 -.5-.03h-.69l-.5.54c.04.05.08.1.11.17zm-.32-.36.33-.35h-.37l-.1.26zm-.4-.16.07-.19h-.21v.18h.13zm-.4.03v-.22h-.26l.1.28.15-.06zm-.39.21-.16-.43h-.39l.47.5.07-.07zm-.23.3-.69-.73h-.73c-.11 0-.2-.06-.2-.18s.09-.18.2-.18h.4l-2.25-2.39c-.4.46-.7 1.04-.8 1.7l4.04 1.85.03-.06zm-.1.35-4.02-1.84v.27a3 3 0 0 0 .52 1.74h3.48l.01-.17zm.1.68-1.61.7c.18.03.36.04.55.04h.47l.63-.67a1.09 1.09 0 0 1 -.04-.07zm.21.29-.42.45h.32l.15-.4a1.03 1.03 0 0 1 -.05-.05zm.05.8h.35v3.4h-1.69zm.62 0v3.4h1.64l-1.34-3.4zm1.94 3.4-1.34-3.4h.51l2.61 2.8c-.5.37-1.11.6-1.78.6zm2-.79-2.45-2.6h.84c.11 0 .17-.06.17-.18l2.4 1.1a3.3 3.3 0 0 1 -.97 1.68zm.73-5.82h-.6l.6-.25zm-1.32 0 1.32-.56v-2.73l-3.08 3.28h1.76zm-1.38-3.39h2.42l-3.19 3.4h-.57zm-.29 0-1.33 3.4h-.35v-3.4zm-1.95 0v3.4h-.4l-1.33-3.4zm-2 .02 1.32 3.37h-.57l-2.43-2.59c.46-.42 1.03-.7 1.67-.78zm1.2 5.27h-3.18c.35.37.79.65 1.3.8zm-3.93 1.31h.85l-.85.36zm1.57 0-1.57.68v2.72h.01l3.18-3.4zm1.18 3.4h-2.35l3.18-3.4h.52z" fill="#2350a3"/></svg>