<svg height="18" viewBox="0 0 18 18" width="18" xmlns="http://www.w3.org/2000/svg"><path d="m0 0h18v18h-18z" fill="#f0f3fa"/><path d="m9 15a6 6 0 1 0 0-12 6 6 0 0 0 0 12z" fill="#fcefb9"/><path d="m9 14.53a5.53 5.53 0 1 0 0-11.06 5.53 5.53 0 0 0 0 11.06z" fill="#faeaa8" fill-opacity=".87"/><path d="m9 14.01a5.01 5.01 0 1 0 0-10.01 5.01 5.01 0 0 0 0 10z" fill="#ffe47f"/><path d="m9 13.54a4.54 4.54 0 1 0 0-9.08 4.54 4.54 0 0 0 0 9.08z" fill="#ffdb52"/><path d="m9 12.92a3.92 3.92 0 1 0 0-7.84 3.92 3.92 0 0 0 0 7.84z" fill="#ffd42c"/><path d="m9 12.45a3.45 3.45 0 1 0 0-6.9 3.45 3.45 0 0 0 0 6.9z" fill="#ffce13"/><path d="m9 12.08a3.08 3.08 0 1 0 0-6.16 3.08 3.08 0 0 0 0 6.16z" fill="#f0f3fa"/></svg>