<svg height="18" width="18" xmlns="http://www.w3.org/2000/svg"><path d="m0 0h18v18h-18z" fill="#fbbf14"/><path d="m12.54 12.54c-.9.9-2.16 1.46-3.54 1.46l.38-1.68c.6-.09 1.14-.37 1.57-.78zm-1.05-1.67 1.05 1.67a4.98 4.98 0 0 0 -3.54-8.54 4.98 4.98 0 0 0 -3.54 8.54c.9.9 2.16 1.46 3.54 1.46l-.38-1.68a2.85 2.85 0 0 1 -1.57-.78l-1.59 1 1.05-1.67c-.25-.41-.42-.9-.48-1.41l-2.03-.46 2.03-.46c.06-.52.23-1 .48-1.41l-1.05-1.67 1.59 1c.43-.41.97-.7 1.57-.78l.38-1.68.38 1.68c.6.09 1.14.37 1.57.78l1.59-1-1.05 1.67c.25.41.42.9.48 1.41l2.03.46-2.03.46c-.06.52-.23 1-.48 1.41z" fill="#fff"/></svg>