<svg fill="none" height="18" viewBox="0 0 18 18" width="18" xmlns="http://www.w3.org/2000/svg"><path d="m0 0h18v18h-18z" fill="#13387f"/><path d="m11.1436 7c-.3259 0-.5617-.19576-.6526-.53176-.1987-.88646-.63915-1.16247-1.50854-1.16247-.69723 0-1.48308.45859-1.48308 1.22009 0 2.06615 4.50062 1.65452 4.50062 4.57894 0 1.8538-1.4414 2.8952-2.99038 2.8952-1.34941 0-2.68832-.8399-2.9904-2.4173-.09747-.487.18506-.916.63883-.916.32611 0 .53919.1919.63884.5762.20827.9043.85704 1.3363 1.67182 1.3363.8075 0 1.53109-.6114 1.53109-1.312 0-1.74094-4.42421-1.55062-4.42421-4.66825 0-1.69218 1.51983-2.59895 2.90687-2.59895 1.28354 0 2.54464.59073 2.80004 2.08437.0914.47662-.1913.91563-.6389.91563z" fill="#f0f3fa"/></svg>