<svg height="18" viewBox="0 0 18 18" width="18" xmlns="http://www.w3.org/2000/svg"><path d="m0 0h18v18h-18z" fill="#f0f3fa"/><path d="m8.99 4s-1.49 1.7.03 3.61c0 0 1.6-1.8-.03-3.61z" fill="#ebf1c4"/><path d="m6.49 4.68s-.44 2.2 1.83 3.11c0 0 .48-2.36-1.83-3.11z" fill="#094"/><path d="m4.66 6.51s.74 2.14 3.15 1.79c0 0-.77-2.28-3.15-1.78z" fill="#009e4b"/><path d="m4 9.02s1.7 1.48 3.61-.03c0 0-1.8-1.6-3.61.03z" fill="#00a553"/><path d="m4.68 11.52s2.21.43 3.11-1.84c0 0-2.36-.48-3.11 1.84z" fill="#14ac5c"/><path d="m6.52 13.34s2.13-.73 1.78-3.15c0 0-2.3.77-1.78 3.15z" fill="#4bb465"/><path d="m9.02 14s1.48-1.7-.03-3.61c0 0-1.6 1.8.03 3.61z" fill="#6dbd71"/><path d="m11.52 13.32s.43-2.21-1.84-3.11c0 0-.47 2.36 1.84 3.1z" fill="#86c57e"/><path d="m13.34 11.48s-.73-2.13-3.15-1.78c0 0 .78 2.29 3.15 1.78z" fill="#9ece8b"/><path d="m14 8.97s-1.7-1.48-3.61.04c0 0 1.8 1.6 3.61-.04z" fill="#b3d798"/><path d="m13.32 6.48s-2.22-.43-3.11 1.84c0 0 2.36.47 3.1-1.84z" fill="#c7e0a7"/><path d="m11.47 4.65s-2.13.75-1.77 3.15c0 0 2.29-.77 1.77-3.15z" fill="#dae9b5"/></svg>