<svg height="18" viewBox="0 0 18 18" width="18" xmlns="http://www.w3.org/2000/svg"><path d="m0 0h18v18h-18z" fill="#f0f3fa"/><path d="m5 12.15c0 1.33 1.15 1.85 2.04 1.85.9 0 1.97-.61 1.97-1.85-.01-1.25-1.11-3.06-1.47-3.66l-.01-.01c-.35-.58-1.48-2.43-1.48-3.3 0-.68.52-1.07.77-1.17a2.04 2.04 0 0 0 -1.82 1.75z" fill="#51ab47"/><path d="m7.46 7.9c-1.7-.29-2.35-.93-2.46-1.2v-.75c0-1.4 1.43-2.02 2.06-1.95.5.06 1.06.25 1.27.38l5.27 2.8c.47.19 1.4.8 1.4 1.74 0 .97-.68 1.54-1.02 1.7l-2.51 1.3c.58-.4 1.64-1.47 1.28-2.54-.45-1.35-3.15-1.16-5.29-1.5z" fill="#d3dd26"/><path d="m5.45 4.74a2.28 2.28 0 0 1 1.37-.73c-.25.1-.77.49-.77 1.18 0 .64.63 1.84 1.1 2.65-1.47-.3-2.04-.86-2.15-1.14v-.9l.03-.2c.05-.26.18-.58.42-.87z" fill="#8cbd40"/><path d="m14.04 10.6a1088.2 1088.2 0 0 0 -6.21 3.26c-.28.1-.68.14-.81.14-1.38 0-2.02-1.03-2.02-1.7v-1.43c1.16-.55 4.02-1.66 6.15-1.66 2.14 0 3.3.42 3.62.63-.2.41-.58.67-.74.75z" fill="#51ab47"/><path d="m12.62 11.34-1.15.6c.58-.4 1.64-1.48 1.28-2.55a1.13 1.13 0 0 0 -.03-.09c1.15.13 1.82.4 2.05.54a2.02 2.02 0 0 1 -.73.76z" fill="#8ebc3a"/><path d="m8.22 9.7c-1.32.37-2.55.87-3.21 1.18v1.4c.01.26.07.48.17.67.1.21.26.42.46.59a2.27 2.27 0 0 0 2.53.14c.48-.3.84-.81.84-1.53 0-.74-.4-1.68-.79-2.45z" fill="#069949"/></svg>