<svg height="18" viewBox="0 0 18 18" width="18" xmlns="http://www.w3.org/2000/svg"><path d="m0 0h18v18h-18z" fill="#f0f3fa"/><path d="m11.48 5.76.46.59 1.5.7 1.48-.07z" fill="#8b9298"/><path d="m11.87 9.1.34-.87 1.3-.96 1.49-.07z" fill="#5c6670"/><path d="m8.72 4.74.26.45 1.06.52 1.14-.1z" fill="#ff8c44"/><path d="m8.5 7.28.38-.65 1.16-.76 1.15-.1-2.7 1.51z" fill="#ff5000"/><path d="m8.47 7.48.32.69 1.3.9h1.43l-3.05-1.6z" fill="#ee666c"/><path d="m8.13 11.38.5-1 1.45-1.06 1.46-.02z" fill="#d70036"/><path d="m6.65 4 .15.36.78.39.91-.1z" fill="#43b6c2"/><path d="m6.1 6.05.42-.53 1.03-.64.93-.1-2.37 1.27z" fill="#0096a9"/><path d="m6.07 6.2.14.53.9.65h1.11z" fill="#ffc25c"/><path d="m5.28 9.15.53-.75 1.26-.83h1.13l-2.9 1.58z" fill="#f7a800"/><path d="m5.22 9.38.14.84 1.04 1.14h1.36z" fill="#508898"/><path d="m4 14 .72-1.16 1.62-1.18h1.44z" fill="#00586f"/></svg>