<svg height="18" viewBox="0 0 18 18" width="18" xmlns="http://www.w3.org/2000/svg"><path d="m0 0h18v18h-18z" fill="#104d93"/><path d="m10.52 7.66c0-.54.1-1.26.81-1.25.71 0 .8.72.8 1.26 0 .53-.1 1.26-.81 1.25-.71 0-.8-.73-.8-1.26zm-1.52 1.44c.4.72 1.16 1.22 2.3 1.22 1.85.01 2.7-1.24 2.7-2.65s-.82-2.67-2.66-2.67c-1.17 0-1.94.5-2.34 1.21-.4-.7-1.16-1.2-2.3-1.2-1.86-.03-2.7 1.22-2.7 2.63 0 1.4.82 2.67 2.66 2.68 1.17.01 1.93-.5 2.34-1.22zm-3.13-1.44c0-.54.1-1.26.81-1.25.71 0 .8.72.8 1.26s-.1 1.26-.81 1.25c-.71 0-.8-.73-.8-1.26zm-.92 2.67c1.27.6 2.62 1 4.05 1 1.5.01 2.62-.42 4.06-1v1.64a8.79 8.79 0 0 1 -4.11 1.03 8.42 8.42 0 0 1 -4.02-1.03v-1.64z" fill="#fff"/></svg>