<svg height="18" width="18" xmlns="http://www.w3.org/2000/svg"><path d="m0 0h18v18h-18z" fill="#f0f3fa"/><path d="m2.94 10.64c-.27-.2-1-1-.93-1.42.07-.49.3-1.08 2.79-1.92 1.49-.5 3.9-.9 5.66-1.13a31.4 31.4 0 0 1 1.5-.17c-3.35.9-8.75 1.97-9.1 3.93-.03.12-.05.44.07.7v.01zm12.09-3.17c.27.2 1.03.9.96 1.31-.07.49-.3 1.08-2.79 1.92-1.45.5-3.78.88-5.54 1.11-.52.08-1.15.15-1.63.19 2.62-.6 8.72-1.87 9.08-3.81.02-.13.04-.45-.08-.72z" fill="#5ca746"/><path d="m9.07 8.37-5.95 1.85.73 1.23 5.97-1.7z" fill="#5ca746"/><path d="m14.06 6.68-4.4 1.52.67 1.3 4.52-1.6-.79-1.2z" fill="#f7931e"/></svg>