<svg height="18" viewBox="0 0 18 18" width="18" xmlns="http://www.w3.org/2000/svg"><path d="m0 0h18v18h-18z" fill="#f0f3fa"/><g fill-rule="evenodd"><path d="m11.45 7h2.4c.08 0 .15.07.15.15v3.72c0 .08-.07.13-.15.13h-2.75c-.08 0-.1.04-.1.12v2.74c0 .08-.08.14-.16.14h-3.7c-.09 0-.14-.08-.14-.16 0-.9.15-1.34.65-1.98.97-1.25 3.35-2.06 3.35-2.06s-.39-.15-.9-.09c-.55.07-.8.2-1.1.36l-.23.12s1.34-.97 1.85-1.76c.38-.58.83-1.42.83-1.42zm1.55 2.32s-.38.68-.95.68c-.31 0-.75-.26-.75-.26s.12-.74.75-.74c.4 0 .95.32.95.32z" fill="#3f6e2a"/><path d="m7 4.2v2.65c0 .08-.05.15-.12.15h-2.74a.15.15 0 0 0 -.14.15v3.7c0 .08.06.15.14.15h2.76s.4-.89 1.28-1.53 1.19-1.63.98-3.01c.4.45.64 1.3.64 1.78 0 0 .3-.6.58-1.08.34-.6.63-1.66.63-1.66v-1.29c0-.08-.06-.21-.2-.21h-3.65c-.08 0-.16.11-.16.2zm2.65 2.62s.33-.2.46-.4a.68.68 0 0 0 .12-.38c0-.25-.09-.46-.09-.46s-.42.19-.6.43c-.27.39.1.81.1.81zm-1.38-.89c.23.21.72.3.72.3s.44-.63-.03-1.06c-.29-.27-.96-.37-.96-.37v.27c0 .26.02.63.27.86z" fill="#81be3b"/></g></svg>