<svg height="18" viewBox="0 0 18 18" width="18" xmlns="http://www.w3.org/2000/svg"><path d="m0 0h18v18h-18z" fill="#f0f3fa"/><g fill-rule="evenodd"><path d="m9 15a6 6 0 1 0 0-12 6 6 0 0 0 0 12zm0-2a4 4 0 1 0 0-8 4 4 0 0 0 0 8z" fill="#e41b14"/><path d="m9 12a3 3 0 1 0 0-6 3 3 0 0 0 0 6zm.15-4.55-.15-1.23-.15 1.23-.4-1.18.1 1.24-.62-1.08.33 1.2-.8-.95.54 1.12-.98-.76.76.98-1.1-.56.93.81-1.2-.33 1.09.62-1.24-.1 1.18.4-1.22.14 1.23.15-1.18.4 1.24-.1-1.08.62 1.2-.33-.95.8 1.12-.54-.76.98.98-.76-.56 1.1.81-.93-.33 1.2.62-1.09-.1 1.24.4-1.18.15 1.23.15-1.23.4 1.18-.1-1.24.62 1.08-.33-1.2.8.95-.55-1.13.98.76-.76-.98 1.1.56-.93-.81 1.2.33-1.09-.62 1.24.1-1.18-.4 1.22-.14-1.23-.15 1.18-.4-1.24.1 1.08-.62-1.2.33.95-.8-1.12.54.76-.98-.98.76.56-1.1-.81.93.33-1.2-.62 1.09.1-1.24-.4 1.18z" fill="#e6b006"/></g></svg>