<svg height="18" viewBox="0 0 18 18" width="18" xmlns="http://www.w3.org/2000/svg"><path d="m0 0h18v18h-18z" fill="#f0f3fa"/><path d="m10.1 10.66c.95-.68 1.8-1.5 2.57-2.44.08-.1.18-.28.3-.54.9-2.06-1.65-1.93-2.71-1.72a15.66 15.66 0 0 0 -6.26 2.98v-.01a14.41 14.41 0 0 1 5.63-3.47 8.14 8.14 0 0 1 2.77-.46c.34 0 .65.08.95.22 1.21.57.49 1.87-.07 2.59a11.67 11.67 0 0 1 -3.18 2.85z" fill="#ec3b2e"/><path d="m7 10h-1.53c-.61 0-.68-1 .04-1h4c.65 0 .63 1 0 1h-1.48c-.03 0-.03.03-.03.05v2.3c0 .87-1 .85-1 .03v-2.32c0-.04.02-.06 0-.06z" fill="#07318d"/></svg>