<svg height="18" viewBox="0 0 18 18" width="18" xmlns="http://www.w3.org/2000/svg" xmlns:xlink="http://www.w3.org/1999/xlink"><linearGradient id="a"><stop offset=".04" stop-color="#fd7103"/><stop offset=".52" stop-color="#e03790"/><stop offset=".83" stop-color="#931c76"/></linearGradient><linearGradient id="b" gradientUnits="userSpaceOnUse" x1="7.85" x2="16.36" xlink:href="#a" y1="10.29" y2="8.24"/><linearGradient id="c" gradientUnits="userSpaceOnUse" x1="5.21" x2="14.9" y1="10.55" y2="8.06"><stop offset=".52" stop-color="#e03790"/><stop offset=".83" stop-color="#931c76"/></linearGradient><linearGradient id="d" gradientUnits="userSpaceOnUse" x1="7.11" x2="16.16" xlink:href="#a" y1="10.31" y2="7.86"/><linearGradient id="e" gradientUnits="userSpaceOnUse" x1="6.21" x2="15.58" y1="10.16" y2="7.15"><stop offset=".04" stop-color="#fd7103"/><stop offset=".52" stop-color="#e03790"/></linearGradient><linearGradient id="f"><stop offset=".04" stop-color="#fd7200"/><stop offset=".71" stop-color="#4a2874"/></linearGradient><linearGradient id="g" gradientUnits="userSpaceOnUse" x1="7.99" x2="3.95" xlink:href="#f" y1="5.42" y2="6.29"/><linearGradient id="h" gradientUnits="userSpaceOnUse" x1="9.98" x2="5.06" xlink:href="#f" y1="11.42" y2="12.75"/><linearGradient id="i" gradientUnits="userSpaceOnUse" x1="9.98" x2="2.9" xlink:href="#f" y1="6.47" y2="7.99"/><linearGradient id="j" gradientUnits="userSpaceOnUse" x1="10.98" x2="2.97" xlink:href="#f" y1="8.44" y2="10.35"/><path d="m0 0h18v18h-18z" fill="#f0f3fa"/><path d="m13.64 5.04c.3.12.44.46.32.75l-2.85 6.86a.58.58 0 0 1 -.75.3.57.57 0 0 1 -.32-.74l2.85-6.86c.12-.29.46-.43.75-.3z" fill="url(#b)"/><path d="m14.59 8.05c.34.12.5.48.36.8l-1.67 3.77c-.14.31-.53.46-.87.33-.34-.12-.5-.48-.36-.8l1.67-3.77c.14-.31.53-.46.87-.33z" fill="url(#c)"/><path d="m11.95 5.75c.13-.28-.02-.6-.34-.7-.32-.12-.68.01-.8.29l-2.76 5.9c-.13.29.02.6.34.72.32.11.68-.02.8-.3l2.76-5.9z" fill="url(#d)"/><path d="m8.59 6.04c.34.1.5.39.36.64l-1.67 3.02c-.14.25-.53.37-.87.26-.34-.1-.5-.39-.36-.64l1.67-3.02c.14-.25.53-.37.87-.26z" fill="url(#e)"/><path d="m4.01 6.58c-.06-.3.1-.6.35-.67l3.05-.9c.25-.07.51.11.58.4.06.3-.1.6-.35.68l-3.05.9c-.25.07-.51-.11-.58-.4z" fill="url(#g)"/><path d="m5.02 12.58c-.08-.3.11-.6.43-.67l3.81-.9c.32-.07.64.11.72.4.08.3-.11.6-.43.68l-3.81.9c-.32.07-.64-.11-.72-.4z" fill="url(#h)"/><path d="m3.02 8.53c-.07-.33.1-.66.38-.75l5.95-1.76c.28-.08.56.12.63.45s-.1.66-.38.75l-5.95 1.76c-.28.08-.56-.12-.63-.45z" fill="url(#i)"/><path d="m3.02 10.56a.58.58 0 0 1 .4-.7l6.9-1.84c.3-.08.59.1.66.42.08.3-.1.62-.4.7l-6.9 1.84a.55.55 0 0 1 -.66-.42z" fill="url(#j)"/></svg>