<svg height="18" viewBox="0 0 18 18" width="18" xmlns="http://www.w3.org/2000/svg"><path d="m0 0h18v18h-18z" fill="#f0f3fa"/><g fill="#0b97e4"><path d="m9 14a5 5 0 1 0 0-10 5 5 0 0 0 0 10zm0-.31a4.69 4.69 0 1 0 0-9.39 4.69 4.69 0 0 0 0 9.38z" fill-rule="evenodd"/><path d="m6.53 8.18-1.15-1.18a4.1 4.1 0 0 0 -.38 1.78c0 1.09.75 3.06 3.55 3.73.15.12.35.37.44.49.1-.12.31-.37.46-.5 2.8-.66 3.55-2.63 3.55-3.72a4.1 4.1 0 0 0 -.38-1.78l-1.15 1.18h.86v.4c0 .94-1.07 2-1.66 2.41v.51h-3.34v-.5c-.59-.42-1.66-1.48-1.66-2.42v-.4z"/><path d="m8.42 5h.18v1.14h.07v1.86h.66v-1.86h.07v-1.14h.18v1.14h.09v4.39c0 .22.21.24.33.22v.25h-.22c-.42 0-.45-.31-.45-.47v-2.24h-.66v2.24c0 .16-.03.47-.45.47h-.22v-.25c.12.02.33 0 .33-.22v-4.39h.09z"/></g></svg>