<svg height="18" width="18" xmlns="http://www.w3.org/2000/svg"><path d="m0 0h18v18h-18z" fill="#f0f3fa"/><path d="m15.94 7c.03 0 .06.04.06.15 0 .1-.03.18-.06.18h-.54l-1.42 4.61c0 .03-.03.06-.06.06h-.6a.07.07 0 0 1 -.07-.06l-1.37-3.86-1.3 3.87c-.01.03-.03.05-.07.05h-.6a.07.07 0 0 1 -.07-.05l-1.32-4.62h-.46c-.03 0-.06-.07-.06-.17s.03-.16.06-.16h2.2c.04 0 .07.06.07.16s-.03.17-.06.17h-.53l.87 3.56 1.25-3.82c0-.03.04-.07.06-.07h.66c.04 0 .07.04.07.07l1.34 3.86.99-3.6h-.58c-.03 0-.06-.09-.06-.18 0-.1.03-.15.06-.15z" fill="#3b1953"/><path d="m6.9 7c.08 0 .1.07.1.13v1.5c0 .02-.1.04-.16.04-.05 0-.13-.02-.14-.05l-.47-1.29h-1.23v4.4l.96-.02c.02 0 .06.04.06.15 0 .1-.03.14-.06.14h-2.92c-.03 0-.06-.04-.06-.14s.02-.15.06-.15l.96.01v-4.39h-1.23l-.48 1.29c0 .03-.09.05-.14.05-.06 0-.15-.02-.15-.05v-1.5c0-.05.02-.12.1-.12z" fill="#c61a41"/></svg>