<svg height="18" viewBox="0 0 18 18" width="18" xmlns="http://www.w3.org/2000/svg"><path d="m0 0h18v18h-18z" fill="#f0f3fa"/><g fill="#003a8e"><path d="m6 7h-2.93l-.07.8h.95l-.25 3.2h.86l.26-3.2h.99zm4.2 0h-.84l-.36 4h2.61l.12-.8h-1.65l.07-.8h1.48l.1-.8h-1.51l.07-.8h1.6l.11-.8z"/><path d="m6.34 7h1.71a.95.95 0 0 1 0 1.91h-.93.83a1.05 1.05 0 0 1 0 2.09h-1.95zm.66 3.2h.67a.4.4 0 0 0 0-.8h-.6zm.14-1.6.07-.8h.46a.4.4 0 1 1 0 .8z" fill-rule="evenodd"/><path d="m13.46 7h1.2l.34 4h-.9l-.04-.4h-.87l-.15.4h-1.04zm.02 2.8h.52l-.1-1.13-.4 1.13z"/></g></svg>