<svg height="18" viewBox="0 0 18 18" width="18" xmlns="http://www.w3.org/2000/svg"><path d="m0 0h18v18h-18z" fill="#f0f3fa"/><path d="m10.53 6c.52 0 .85.4 1.43.4.57 0 .99-.4 1.5-.4.41 0 .8.16 1.1.44a1.48 1.48 0 0 1 0 2.12c-.3.28-.69.44-1.1.44-.51 0-1.1-.4-1.5-.4s-.9.4-1.43.4c-.4 0-.8-.16-1.08-.44a1.48 1.48 0 0 1 0-2.12c.29-.28.68-.44 1.08-.44" fill="#1e4aff"/><path d="m6 7h-2v-1h-1v3.98c0 1.03.16 2 1.33 2.02h1.01v-1h-.84c-.5 0-.5-.65-.5-1.08v-1.92h2v1.98c0 1.03.33 2 1.5 2.02h.5v-1h-.5c-.5 0-.5-.57-.5-1v-2h1v-1h-1v-1h-1z" fill="#181715"/></svg>