<svg height="18" viewBox="0 0 18 18" width="18" xmlns="http://www.w3.org/2000/svg" xmlns:xlink="http://www.w3.org/1999/xlink"><linearGradient id="a" gradientUnits="userSpaceOnUse" x1="9" x2="9" y1="0" y2="18"><stop offset=".28" stop-color="#1156a4"/><stop offset=".51" stop-color="#243674"/><stop offset=".67" stop-color="#233877"/><stop offset="1" stop-color="#1155a3"/></linearGradient><path d="m0 0h18v18h-18z" fill="url(#a)"/><g fill="#fcffff"><path d="m4.23 8.36c.12-.22.4-.36.73-.36h.78c.18 0 .31.14.24.26l-.2.38c-.13.22-.42.36-.74.36h-.78c-.18 0-.31-.14-.24-.26l.2-.38zm2.88 0c.06-.22.2-.36.37-.36h.39c.1 0 .15.14.12.26l-.1.38c-.06.22-.2.36-.37.36h-.39c-.1 0-.15-.14-.12-.26zm-1 2c.06-.22.2-.36.37-.36h.39c.1 0 .15.14.12.26l-.1.38c-.06.22-.2.36-.37.36h-.39c-.1 0-.15-.14-.12-.26zm-1 2c.06-.22.2-.36.37-.36h.39c.1 0 .15.14.12.26l-.1.38c-.06.22-.2.36-.37.36h-.39c-.1 0-.15-.14-.12-.26zm4-2c.06-.22.2-.36.37-.36h.39c.1 0 .15.14.12.26l-.1.38c-.06.22-.2.36-.37.36h-.39c-.1 0-.15-.14-.12-.26zm1-2c.06-.22.2-.36.37-.36h.39c.1 0 .15.14.12.26l-.1.38c-.06.22-.2.36-.37.36h-.39c-.1 0-.15-.14-.12-.26zm-2 4c.06-.22.2-.36.37-.36h.39c.1 0 .15.14.12.26l-.1.38c-.06.22-.2.36-.37.36h-.39c-.1 0-.15-.14-.12-.26zm4.12-4c.12-.22.4-.36.73-.36h.78c.18 0 .31.14.24.26l-.2.38c-.13.22-.42.36-.74.36h-.78c-.18 0-.31-.14-.24-.26l.2-.38zm-7.03-2c.1-.22.36-.36.64-.36h8.93c.16 0 .27.14.21.26l-.18.38c-.1.22-.36.36-.64.36h-8.93c-.16 0-.27-.14-.21-.26z"/><path d="m6.73 13.99a.7.7 0 0 0 .64-.4l3.23-7.32c.06-.13-.05-.27-.21-.27l-.5.01a.7.7 0 0 0 -.64.4l-3.23 7.32c-.06.13.05.27.21.27z"/></g></svg>