<svg height="18" viewBox="0 0 18 18" width="18" xmlns="http://www.w3.org/2000/svg"><path d="m0 0h18v18h-18z" fill="#f0f3fa"/><path d="m9.22 9.86h1.91v1.31h-1.91zm-4.66-2.85a4.72 4.72 0 0 1 4.54-2.69l.12.01v2.8h-4.74z" fill="#e53b2c"/><path d="m9 13.38a4.4 4.4 0 0 0 4.38-4.38 4.4 4.4 0 0 0 -4.38-4.38 4.4 4.4 0 0 0 -4.38 4.38 4.4 4.4 0 0 0 4.38 4.38zm0 .62a5 5 0 1 0 0-10 5 5 0 0 0 0 10z" fill-rule="evenodd"/><path d="m13.2 7.4h-10.2v-.4h10.2z"/><path d="m9.4 4.31v9.4h-.4v-9.4zm2 .32v10.37h-.4v-10.37z"/><path d="m13.61 10h-9.28v-.4h9.28zm-.6 1.4h-8.06v-.4h8.05v.4z"/></svg>