<svg height="18" width="18" xmlns="http://www.w3.org/2000/svg"><path d="m0 0h18v18h-18z" fill="#f0f3fa"/><path d="m10.25 9.128c2.289 1.457 3.36 3.409 2.395 4.36-.966.95-3.605.54-5.894-.916-2.29-1.457-3.362-3.409-2.396-4.36.966-.95 3.605-.54 5.894.916z" fill="#ff2896"/><path d="m13 5-.255 1.416a.648.648 0 0 1 -.297.433c-.113.065-.254.158-.381.151h-1.542s-.48 2.842-.705 4.267c-.028.137-.036.281-.092.411a.56.56 0 0 1 -.269.289c-.113.05-.24.04-.36.033h-1.846l1.003-5h-2.277c.092-.47.177-1.017.268-1.486a.672.672 0 0 1 .234-.382.683.683 0 0 1 .389-.132z" fill="#570066"/></svg>