<svg height="18" width="18" xmlns="http://www.w3.org/2000/svg"><path d="m0 0h18v18h-18z" fill="#009ac8"/><path d="m12.84 6.5c.98.29 2 .66 2.74 1.49.3.36.54.9.36 1.44-.3.78-.97 1.17-1.6 1.53-2.31 1.1-5.19 1.23-7.8.84a8.4 8.4 0 0 1 -3.67-1.37c-.48-.37-1-.96-.84-1.74.25-.96 1.17-1.42 1.93-1.8a20 20 0 0 0 .42-.16c1.59-.58 3.3-.8 5.15-.71 1.14.03 2.25.2 3.31.48zm2.66 2.5c0 1.38-2.91 2.5-6.5 2.5s-6.5-1.12-6.5-2.5 2.91-2.5 6.5-2.5 6.5 1.12 6.5 2.5zm-11.03.77v-1.55h.42l-.14-.55h-1.05l-.14.55h.44v2.11h10v-2.11h.46l-.15-.55h-1.06l-.15.55h.45v1.55z" fill="#fff" fill-rule="evenodd"/><path d="m5 8h8v1.5h-8z" fill="#eaeaea"/></svg>