<svg height="18" width="18" xmlns="http://www.w3.org/2000/svg"><path d="m0 0h18v18h-18z" fill="#f0f3fa"/><path d="m9 6h-6v1.5h2v5.5h2v-5.5h2z" fill="#5b1a86"/><path d="m12.12 5.76c-1.05 0-2.15.27-2.6 1.37-.1.22-.15.42-.15.7 0 1.27 1.02 1.61 1.99 1.9.53.15 1.84.22 1.94.91.1.7-.47.99-1.18.99-.6 0-1-.34-1.12-.7h-2c.22 1.45 1.7 2.07 3.12 2.07 1.97 0 2.88-1.09 2.88-2.38 0-1.3-1.2-1.72-2.13-1.97-.76-.2-1.87-.19-1.87-.82 0-.46.22-.72 1-.72.54 0 1.03.09 1 .72h2c0-1.66-1.65-2.07-2.88-2.07z" fill="#0081cc"/></svg>