<svg height="18" width="18" xmlns="http://www.w3.org/2000/svg"><path d="m0 0h18v18h-18z" fill="#e82127"/><g fill="#fff"><path d="m9 15 1.5-8c1.334 0 1.654.272 1.715.872 0 0 .894-.335 1.346-1.016-1.761-.819-3.561-.856-3.561-.856l-1 1.25-1-1.25s-1.8.037-3.56.856c.45.68 1.345 1.016 1.345 1.016.061-.6.39-.871 1.715-.872z"/><path d="m9 5.608a11.35 11.35 0 0 1 4.688.955c.222-.403.312-.563.312-.563-1.823-.724-3.53-.994-5-1-1.47.006-3.177.276-5 1 0 0 .114.2.313.563a11.349 11.349 0 0 1 4.687-.956z"/></g></svg>