<svg height="18" width="18" xmlns="http://www.w3.org/2000/svg" xmlns:xlink="http://www.w3.org/1999/xlink"><linearGradient id="a" gradientUnits="userSpaceOnUse" x1="3.349" x2="21.904" y1="3.122" y2="24.434"><stop offset="0" stop-color="#1a1e21"/><stop offset="1" stop-color="#06060a"/></linearGradient><path d="m0 0h18v18h-18z" fill="url(#a)"/><g fill="#ed3939"><path d="m11.75 6h1.25v1.14c0 1.004 1 .86 1 .86v2s-.996.57-1.678 1.143c-.497.432-.934 1.076-.934 1.72 0 .423.061.714.192.996 0 0-.253.141-.69.141-.551-.07-1.172-.573-1.547-1.358-.498-.996-.743-2.213-1.302-2.213-.56 0-.56.643-.996.643-.498 0-.804-.926-.927-1.358-.314-.643-1.057-.709-1.118-1.714h2v-4h1.6v2h.586l-.21 1h-.682l-.226 1h.681s-.149 1.193-.149 2c0 1.072 1.18 1.425 1.609 1.425.62 0 1.18-.353 1.18-.353l.347-1.072h-.436c-.123 0-.245 0-.184-.362l.272-1.638h.682l.226-1h-.682z"/><path d="m9.7 7h1.119l-.5 3h-1.12l.5-3zm.8-2c.246 0 .5.197.5.533 0 .262-.254.467-.5.467-.254 0-.5-.205-.5-.467 0-.336.246-.533.5-.533z"/></g></svg>