<svg fill="none" height="18" viewBox="0 0 18 18" width="18" xmlns="http://www.w3.org/2000/svg"><path d="m0 0h18v18h-18z" fill="#f0f3fa"/><ellipse cx="9" cy="9" fill="#d4cfcf" rx="4" ry="3"/><path d="m9.35 10.18c.12.07.2.18.38.21.08.02.14-.04.2-.05.05 0 .1-.04.14-.04s.07.02.12.04c.06.02.12.1.17.13.07.04.14.08.25.07.07 0 .11-.03.16-.06.05-.04.13-.18.26-.18.22 0 .6.24.6.24l.44-.24h.55c-.11.18-.21.27-.27.34h-3.87l.63.48-1.6.24v.18l-.78-.08c-.3-.12-.52-.3-.73-.47a2.78 2.78 0 0 1 -.5-.56l1.23-1.16 1.15.74s.04.3.18.38l.04.02c.08.05.1.03.37-.02s.23-.09.32-.13.18-.22.32-.28c.05.02.18.17.24.2z" fill="#615a4c"/><path d="m9.02 12a4.4 4.4 0 0 0 3.45-1.5h-4.19l.74.56-1.63.28-.07.18-.71-.12c.63.35 1.44.6 2.41.6z" fill="#a29c79"/><path d="m5.14 8.63-.14.2v.42c.1.7.47 1.19.57 1.29.07.07.35.27.6.44l.6.11.19-.33-.42-.49v-.8l.42.53h.16l.17-.2.35.06-.17-.29v-.92l-.23-.13-.28-.24-.28-.28-.22.24h-.12l-.14.08h-.28l-.32.31z" fill="#343235"/><path d="m10 7 .23.72h.77l-.62.43.24.73-.62-.46-.62.46.24-.73-.62-.43h.75z" fill="#5a2d1a"/><path d="m15.65 9c0 3.07-2.92 5.65-6.65 5.65s-6.65-2.58-6.65-5.65 2.92-5.65 6.65-5.65 6.65 2.58 6.65 5.65z" stroke="#752839" stroke-width=".7"/><path d="m11.59 7.6h.34v.21h-.01l.28 1.54h.18v.3h-.14l.17.92c-.41.47-.9.84-1.57 1.1-.68.24-.01 0-.01 0l.41-2.02h-.17v-.3h.22l.3-1.54z" fill="#3d3b3f"/><path d="m14.3 9.01c0 2.33-2.3 4.29-5.29 4.29-3 0-5.31-1.96-5.31-4.29s2.32-4.31 5.31-4.31c3 0 5.29 1.98 5.29 4.31z" stroke="#716a68" stroke-width=".6"/></svg>