<svg height="18" viewBox="0 0 18 18" width="18" xmlns="http://www.w3.org/2000/svg"><path d="m0 0h18v18h-18z" fill="#f0f3fa"/><path d="m8.75 9.08c-3.4-.2-4.5 2.53-4.63 3.92.97-.92 3.93-.78 5.28-.6 4.23.57 5.5-2.36 5.6-3.9-1.04.75-2 .82-6.25.58z" fill="#30a86a"/><path d="m8.19 7.33c-3.4-.2-4.5 2.54-4.63 3.93.97-.92 3.93-.78 5.28-.6 4.23.56 5.5-2.37 5.6-3.9-1.04.75-2 .82-6.25.57z" fill="#c7cabf"/><path d="m7.63 5.58c-3.4-.2-4.5 2.52-4.63 3.92.97-.92 3.93-.78 5.29-.6 4.23.56 5.49-2.37 5.6-3.9-1.05.75-2.01.82-6.26.58z" fill="#376e8d"/></svg>