<svg height="18" viewBox="0 0 18 18" width="18" xmlns="http://www.w3.org/2000/svg"><path d="m0 0h18v18h-18z" fill="#f0f3fa"/><path d="m4 7.1v1.9h-1v-2.54c.53-.6 1.4-.96 2.22-.96 2.34 0 3.13 1.61 4 3.04l.08.14c.83 1.37 1.83 2.82 3.6 2.82.49 0 .94-.19 1.1-.31v-2.19h1v2.6c-.53.56-1.3.9-2.1.9-2.15 0-3.43-1.62-4.46-3.31-.94-1.54-1.45-2.69-3.22-2.69-.52 0-1.05.46-1.22.6z" fill="#024d96"/><path d="m13.97 7.07.03.02 1-.63c-.53-.6-1.4-.96-2.22-.96-2.18 0-3.01 1.4-3.82 2.74l-.17.3-.09.14c-.83 1.37-1.83 2.82-3.6 2.82-.49 0-.94-.19-1.1-.31l-1 .42c.53.55 1.3.89 2.1.89 2.15 0 3.43-1.62 4.46-3.31l.25-.4c.79-1.34 1.36-2.29 2.97-2.29.5 0 1 .41 1.19.57z" fill="#9a9a9b"/></svg>