<svg height="18" viewBox="0 0 18 18" width="18" xmlns="http://www.w3.org/2000/svg"><path d="m0 0h18v18h-18z" fill="#f0f3fa"/><path d="m7.07 6.3c.08.06.18.04.23-.04.04-.08.03-.19-.05-.23a.16.16 0 0 0 -.22.04c-.05.08-.03.19.04.24zm-.87 2.34c.15.07.34 0 .42-.17a.34.34 0 0 0 -.16-.44.32.32 0 0 0 -.43.17c-.08.16 0 .36.16.44zm2.91-3.05c.14.11.34.1.46-.04a.35.35 0 0 0 -.04-.47.32.32 0 0 0 -.45.04c-.12.14-.1.35.03.47zm-.84-1.29c.07-.07.07-.17.01-.24-.06-.08-.15-.08-.23-.02-.07.07-.07.17 0 .24.05.06.16.07.22.01zm1.93 2.6c.22.17.51.11.67-.1a.51.51 0 0 0 -.1-.7.48.48 0 0 0 -.67.1.5.5 0 0 0 .1.7zm-2.05.71c.15.1.35.05.45-.1a.34.34 0 0 0 -.1-.46c-.15-.1-.35-.05-.45.1a.35.35 0 0 0 .1.46zm-.21 2.12a.5.5 0 0 0 -.21-.67.5.5 0 0 0 -.67.21.5.5 0 0 0 .21.67.5.5 0 0 0 .67-.21zm1.99.03a.5.5 0 1 0 -.69.17.5.5 0 0 0 .69-.17zm-4.28-.12a.34.34 0 0 0 -.36-.3c-.18.01-.3.17-.29.36.02.18.18.31.36.3.17-.02.31-.18.29-.36zm2.05 1.4a.5.5 0 1 0 .26.66.51.51 0 0 0 -.26-.66zm5.38-.04a1 1 0 1 0 .92 1.08 1.01 1.01 0 0 0 -.92-1.08zm-.21-1.83a.74.74 0 0 0 -.2-1.04.74.74 0 0 0 -1.04.2.74.74 0 1 0 1.25.83zm-2.24 1.93a.76.76 0 0 0 -1.03.27c-.2.35-.09.81.27 1.03a.75.75 0 0 0 .76-1.3zm-7.38.59a.16.16 0 0 0 -.23.06c-.04.08-.02.18.06.23.08.04.17.02.22-.06s.02-.18-.05-.23zm2.35-.67a.47.47 0 0 0 -.58.36.5.5 0 0 0 .34.6c.26.08.53-.1.6-.36a.5.5 0 0 0 -.35-.6z" fill="#d81919"/></svg>