<svg height="18" viewBox="0 0 18 18" width="18" xmlns="http://www.w3.org/2000/svg"><path d="m0 0h18v18h-18z" fill="#f0f3fa"/><g fill="#013668"><path d="m10.32 3.8.03.26-.25-.1-.34.3.24.37v1.37h-2v-1.27l.3-.46-.33-.3-.17.1v-.21l-.88-.86-3.4 3.42c-.19.18-.52.62-.52 1.08v2.34c.03.16.17.56.52.9.34.33 2.93 2.67 4.19 3.8.16.16.66.47 1.31.47.66 0 1.24-.45 1.45-.67l4.09-3.67c.15-.13.44-.56.44-1.2v-2.27c0-.2-.15-.7-.7-1.19-.54-.48-2.33-2.14-3.16-2.91l-.82.72zm-3.49-.39-3.06 3.19c-.2.15-.44.4-.44.9 0 .49.23.84.4 1.02l4.01 3.9c.18.19.64.5 1.32.5s1.08-.37 1.26-.58l3.86-3.52c.2-.22.6-.67.6-1.27 0-.75-.25-.98-.59-1.3h-.01l-.52-.5-2.45-2.33-.64.53 2.99 2.82c.13.1.4.38.4.78 0 .5-.3.82-.46.97l-3.72 3.34c-.1.08-.37.24-.72.24-.44 0-.79-.3-.9-.4l-3.8-3.6a.93.93 0 0 1 -.19-.5c0-.22.18-.46.27-.56l3.1-3.02-.7-.6zm7.66 5.51v.74c.03.2-.02.7-.43 1.07-.4.38-2.72 2.38-3.83 3.34-.22.16-.78.47-1.2.47-.55 0-1.1-.31-1.3-.47l-3.9-3.47c-.1-.1-.33-.4-.33-.78v-1.24l.41.7 3.68 3.54c.2.22.7.56 1.42.56 1.11 0 1.93-.9 2.45-1.45l.14-.15 2.18-2.05c.2-.18.6-.55.71-.8zm-9.7-1.8 3.08-3.02.18.15-2.19 2.14h6.48l-2.31-2.14.17-.15 2.96 2.75c.14.12.4.44.4.76s-.2.61-.3.72l-3.42 3.06c-.09.11-.37.35-.76.35-.38 0-.63-.17-.7-.25l-3.56-3.38c-.08-.1-.24-.35-.24-.53 0-.17.13-.38.2-.46z" fill-rule="evenodd"/><path d="m6 7h6v1h-6zm1 2h4v1h-4z" fill-opacity=".7"/></g></svg>