<svg height="18" width="18" xmlns="http://www.w3.org/2000/svg"><path d="m0 0h18v18h-18z" fill="#f0f3fa"/><path d="m3.4 9.04a5.68 5.68 0 0 1 5.6-5.64 5.7 5.7 0 0 1 5.6 5.64 5.6 5.6 0 0 1 -11.2 0zm-.4-.04c0 3.32 2.72 6 6 6a6.04 6.04 0 0 0 6-6 6 6 0 1 0 -12 0zm6.68-.04c.13-1.58 1.29-2.66 3.32-2.66v.15c0 1.48 0 2.8-2.2 2.8h-.87zm-4.68-2.66c1.99 0 3.2 1.08 3.32 2.66l-.21.33h-.91c-2.2.01-2.2-1.36-2.2-2.84zm5.55 3.53c1.58 0 1.7.92 1.7 2.13-2.03 0-2.52-.88-2.57-1.92l.17-.2h.7zm-3.06.05h.7l.17.2c-.04 1.05-.5 1.92-2.57 1.92 0-1.2.12-2.12 1.7-2.12zm2.07-2.92c.04.04.08.13.04.17 0 0-.5 1-.45 1l.06.33.06.33c.04.34.04.67.04 1 0 .34 0 .67-.04 1l-.07.34c-.05.22-.1.44-.18.66-.08-.33-.17-.66-.2-1a8.06 8.06 0 0 1 .12-2.66l-.5-1c-.04-.08 0-.13.04-.17s.13 0 .17.04l.37.75.38-.75c.05-.04.13-.08.17-.04z"/></svg>