<svg height="18" viewBox="0 0 18 18" width="18" xmlns="http://www.w3.org/2000/svg"><path d="m0 0h18v18h-18z" fill="#f0f3fa"/><path d="m8.07 10a5.36 5.36 0 0 1 -2.27-2.76l-.04-.1c1.43-.19 3.08-.19 4.36.44l.3.17-2.36 2.25zm2.64-2.02-2.66 2.51.65.3c.82.29 1.76.37 2.45-.33.3-.29.41-.58.43-.86.02-.29-.07-.57-.23-.85a3.1 3.1 0 0 0 -.64-.77zm-2.97 2.8c.24.13.52.27.83.38.86.31 2 .45 2.87-.41.35-.36.52-.74.54-1.13.02-.38-.1-.74-.28-1.06a3.48 3.48 0 0 0 -.7-.86l.95-.9c.37-.34.87-.76 1.51-.76.36 0 .76.3.76.3h.78c-1.39.45-1.58 1.42-1.85 2.82a4.65 4.65 0 0 1 -1.05 2.44 3.1 3.1 0 0 1 -2.43.93c-.62 0-1.21-.23-1.77-.53-.3-.16-.6-.36-.84-.57zm2.98-3.3c-.15-.12-.3-.2-.41-.26-1.42-.7-3.21-.67-4.69-.46-.23-.64-.36-1.3-.53-2.13l-.13-.63s.84.37 1.54.7 1.34.51 1.94.67c1.04.29 1.96.54 2.88 1.53l-.6.57zm-2.27 5.2a5.31 5.31 0 0 1 -1.65-.97l-2.8 2.5v.29a8.53 8.53 0 0 1 4.45-1.82z" fill="#0158a7"/></svg>