<svg height="18" width="18" xmlns="http://www.w3.org/2000/svg"><path d="m0 0h18v18h-18z" fill="#f0f3fa"/><path d="m9.657 10.349 1.002-.556 2.79 1.547-3.792 2.102z" fill="#f6911e"/><path d="m5.866 5.068v2.069l3.791-2.102-1.866-1.035zm0 8.341 1.925 1.068 1.866-1.035-3.791-2.102v2.07z" fill="#e58f97"/><path d="m9.657 13.442 1.867 1.035 1.925-1.067v-2.07z" fill="#fcc489"/><path d="m5.866 11.34v-4.203l2.789 1.546v1.11l1.002.556v3.093z" fill="#d20c54"/><path d="m4 8.171v2.135l1.866 1.034v-4.203l-1.866 1.033zm7.524-4.171-1.867 1.035 3.79 2.102v-2.07l-1.922-1.067z" fill="#f7a288"/><path d="m9.657 8.127-1.002.556-2.79-1.546 3.792-2.102 3.791 2.102-2.79 1.546z" fill="#ef4936"/></svg>