<svg height="18" viewBox="0 0 18 18" width="18" xmlns="http://www.w3.org/2000/svg"><path d="m0 0h18v18h-18z" fill="#f0f3fa"/><path d="m5 7h-1v2.52c0 .2-.2.48-.52.48-.3 0-.46-.29-.48-.48v-.45l-1 .28v.57c.01.36.31 1.08 1.44 1.08s1.51-.72 1.56-1.08zm2.1 2.67h-1.6c.15 1.22 1.42 1.33 2.03 1.33.6 0 1.97-.27 1.97-1.28 0-.95-.91-1.1-1.53-1.2h-.1c-.57-.1-1.04-.3-1.04-.42 0-.11 0-.3.42-.3.36 0 .57.08.63.21h1.48c-.22-.89-1.06-1-1.83-1s-2.03.17-2.03 1.25c0 .92 1.03 1.07 1.7 1.16l.33.05c.48.1.54.19.54.37 0 .19-.14.35-.4.35-.33 0-.44-.25-.51-.42a.7.7 0 0 0 -.06-.1zm2.78-2.67 1.17 4h1.32l.63-2.01.56 2.01h1.4l1.04-4h-1.27l-.52 1.99-.65-1.99h-1.19l-.54 1.99-.65-1.99z" fill="#03a389"/></svg>