<svg height="18" viewBox="0 0 18 18" width="18" xmlns="http://www.w3.org/2000/svg"><path d="m0 0h18v18h-18z" fill="#f0f3fa"/><path d="m8.74 15c2.9 0 5.26-2.69 5.26-6s-2.36-6-5.26-6c-2 0-3.75 1.28-4.64 3.16a4.8 4.8 0 0 1 4.1-2.42c2.7 0 4.9 2.44 4.9 5.44s-2.2 5.43-4.9 5.43c-1.01 0-1.95-.34-2.73-.92.9.82 2.04 1.31 3.28 1.31z" fill="#a66e3b"/><path d="m11.24 5.46a3.66 3.66 0 0 0 -2.46-.97c-2.2 0-3.99 2.04-3.99 4.56s1.79 4.56 3.99 4.56c1.62 0 3.01-1.1 3.63-2.7-.6 1.91-2.2 3.27-4.07 3.27-2.4 0-4.34-2.24-4.34-5s1.94-5 4.34-5c1.11 0 2.13.49 2.9 1.28z" fill="#99c8d8"/><path d="m8.69 11.33c-.12 1.24-1.24 1.13-1.8.92.82.01 1.04-.6 1.04-.92l.03-.96c.12-.04.2-.1.22-.14-1.36.17-1.98-.5-2.13-.84.28.27.53.37.62.38-.16-.04-.5-.33-.56-.38a.45.45 0 0 1 -.12-.15 4.62 4.62 0 0 1 -.16-.4c-.07-.2.01-.24.06-.24.2.67.76.94 1.02.99-.71-.29-.96-.85-.99-1.1.18-.25.37.07.39.18.01.08.07.15.1.17l.28.24c.12.07.42.23.66.3.24.09.3.03.31-.01-.05-.13-.18-.19-.28-.4-.1-.22.01-.25.08-.24.32.27.64.41.76.44.5.08.5.55.47.78z" fill="#99c8d8"/><path d="m9.31 11.24c.12 1.23 1.25 1.12 1.8.91-.82.02-1.03-.6-1.04-.91l-.03-.97a.54.54 0 0 1 -.21-.13c1.36.16 2.12-.57 2.26-.97-.3.32-.66.5-.75.5.16-.03.5-.33.56-.38.06-.04.1-.11.12-.15s.08-.18.15-.4c.08-.2 0-.24-.05-.24-.2.67-.77.94-1.02 1 .71-.3.95-.86.99-1.1-.18-.26-.37.07-.4.17a.38.38 0 0 1 -.09.18l-.29.24c-.12.07-.41.22-.65.3s-.31.02-.31-.02c.05-.13.18-.18.28-.4.1-.21-.01-.25-.08-.24-.33.28-.65.41-.77.45-.5.07-.5.54-.47.77z" fill="#a66e3b"/><path d="m6.03 7.88 2.66 1.19-1.78-2.48c-.51.43-.8 1.04-.88 1.3z" fill="#c0dde5"/><path d="m11.89 7.86-2.67 1.19 1.78-2.48c.52.43.8 1.04.89 1.3z" fill="#c29c78"/><path d="m7.23 6.33 1.62 2.57-.13-3.09c-.67.01-1.27.34-1.49.5z" fill="#c0dde5"/><path d="m10.68 6.3-1.62 2.6.14-3.1c.67 0 1.27.34 1.5.5z" fill="#c29c78"/></svg>