<svg height="18" viewBox="0 0 18 18" width="18" xmlns="http://www.w3.org/2000/svg"><path d="m0 0h18v18h-18z" fill="#a6002c"/><path d="m4 6h-1.5v1h1.5v5h1v-5h1.5v-1zm3 0h2.33a1.5 1.5 0 0 1 .74 2.8 1.69 1.69 0 0 1 -.77 3.2h-2.3zm1 1h1.26c.32 0 .58.25.58.56s-.26.57-.58.57h-1.26zm0 2.5h1.37c.35 0 .63.34.63.75s-.28.75-.63.75h-1.37zm7.12-1.6.82-.63a2.46 2.46 0 0 0 -2.09-1.27c-1.41 0-2.55 1.34-2.55 3s1.14 3 2.55 3c.9 0 1.7-.55 2.15-1.38h-.01l-.84-.59c-.26.58-.74.97-1.28.97-.83 0-1.5-.9-1.5-2s.67-2 1.5-2c.52 0 .99.36 1.25.9z" fill="#fff" fill-rule="evenodd"/></svg>