<svg height="18" viewBox="0 0 18 18" width="18" xmlns="http://www.w3.org/2000/svg" xmlns:xlink="http://www.w3.org/1999/xlink"><linearGradient id="a" gradientUnits="userSpaceOnUse" x1="12.32" x2="7.81" y1="8.84" y2="15.17"><stop offset=".13" stop-color="#d87d6b"/><stop offset=".39" stop-color="#cc4a43"/></linearGradient><linearGradient id="b" gradientUnits="userSpaceOnUse" x1="5.84" x2="6.09" y1="6.43" y2="11.07"><stop offset=".13" stop-color="#d0699f"/><stop offset=".39" stop-color="#c7328b"/></linearGradient><linearGradient id="c" gradientUnits="userSpaceOnUse" x1="12.45" x2="9.37" y1="3.6" y2="8.45"><stop offset=".03" stop-color="#a478ab"/><stop offset=".39" stop-color="#843689"/></linearGradient><path d="m0 0h18v18h-18z" fill="#f0f3fa"/><path d="m10.9 8c-2.68 0-3.03 4.67-2.87 7 .61-.88 1.6-1.34 3.04-2.22 1.44-.87 1.93-1.91 1.93-2.8 0-.9-.83-1.98-2.1-1.98z" fill="url(#a)"/><path d="m5.43 6.4c-1.34 1.26.8 3.6 2.03 4.6-.13-.69.13-1.37.42-2.44.29-1.08.02-1.79-.42-2.2a1.55 1.55 0 0 0 -2.03.05z" fill="url(#b)"/><path d="m11.35 3c-2.12.03-2.44 3.35-2.33 5 .49-.63 1.28-.97 2.43-1.6 1.15-.66 1.54-1.4 1.55-2.03 0-.64-.64-1.4-1.65-1.38z" fill="url(#c)"/></svg>