<svg height="18" width="18" xmlns="http://www.w3.org/2000/svg"><path d="m0 0h18v18h-18z" fill="#406745"/><g fill="#f6f8fd"><path d="m12 6h-6v6h6zm-7-1v8h8v-8z" fill-rule="evenodd"/><path d="m5.944 8.987 1.233-2.011.558.744 1.11-1.687 1.865 2.607c-1.133.177-3.664.762-3.705 1.9-.017.319.371 1.199.996 1.456h2.517c-.346-.214-1.323-.949-1.495-1.456-.216-.633.037-1.173.612-1.484.575-.312 1.4-.353 1.699-.416-.624.171-1.826.669-1.935 1.049-.079.273-.036.921.585 1.38.64.474 1.108.856 1.229.927h.835v-.926c-.421-.215-1.007-.791-1.048-1.381-.051-.737 1.017-1.028 1.1-1.028l-.052 2.409v1.09h-6.104z"/><path d="m11.77 7.067a.775.775 0 1 1 -1.55 0 .775.775 0 0 1 1.55 0z"/></g></svg>