<svg height="18" viewBox="0 0 18 18" width="18" xmlns="http://www.w3.org/2000/svg"><path d="m0 0h18v18h-18z" fill="#f0f3fa"/><path d="m4 7v.36c.92-.43 2.91-1.78 3.5-3.73 1.14 2.04 4.24 3.97 6.5 4.37v-.33c-1.89-.28-6.13-2.74-6.34-4.67h-.28c0 1.17-2.16 3.48-3.38 4zm10 2h-10v-.3h10zm-10 .33v.67h1v4h.67v-4h8.33v-.67zm3 4.67v-3.5h1.8c.33.04 1.03.27 1.03.9 0 .4-.26.83-.55.83.24.07.72.3.72.8 0 .81-.83.97-1.25.97zm.67-2.86h.99c.28 0 .5.17.5.4 0 .21-.22.4-.5.4h-1v-.8zm0 1.43h1.17c.27 0 .5.18.5.4s-.23.4-.5.4h-1.17zm2.33 1.43 1.68-3.5h.6l1.72 3.5h-2.65l.21-.64h1.38l-.97-2.01-1.21 2.65z" fill-rule="evenodd"/><path d="m4 7.26v1.64l10-.03v-1.07c-.61-.16-2.2-.7-3.65-1.57a9 9 0 0 1 -2.88-3c-.17.39-.65 1.35-1.23 2.11a10.2 10.2 0 0 1 -2.24 1.92z" opacity=".5"/></svg>