<svg fill="none" height="18" viewBox="0 0 18 18" width="18" xmlns="http://www.w3.org/2000/svg" xmlns:xlink="http://www.w3.org/1999/xlink"><linearGradient id="a" gradientUnits="userSpaceOnUse" x1="9" x2="9" y1="3" y2="9"><stop offset="0" stop-color="#ec6942"/><stop offset=".405612" stop-color="#da0010"/><stop offset="1" stop-color="#a20001"/></linearGradient><linearGradient id="b" gradientUnits="userSpaceOnUse" x1="3" x2="9" y1="9" y2="9"><stop offset="0" stop-color="#f0d5a0"/><stop offset=".39274" stop-color="#efb320"/><stop offset="1" stop-color="#d49708"/></linearGradient><linearGradient id="c" gradientUnits="userSpaceOnUse" x1="15" x2="8.99997" y1="9" y2="9"><stop offset="0" stop-color="#f0d5a0"/><stop offset=".38989" stop-color="#efb320"/><stop offset="1" stop-color="#d49708"/></linearGradient><linearGradient id="d" gradientUnits="userSpaceOnUse" x1="9" x2="9" y1="9" y2="15"><stop offset="0" stop-color="#a20001"/><stop offset=".612622" stop-color="#da0010"/><stop offset="1" stop-color="#ec6942"/></linearGradient><path d="m0 0h18v18h-18z" fill="#f0f3fa"/><path d="m12 6c0 1.65685-1.3431 3-3 3-1.65685 0-3-1.34315-3-3s1.34315-3 3-3c1.6569 0 3 1.34315 3 3z" fill="url(#a)"/><path d="m9 9c0 1.6569-1.34315 3-3 3s-3-1.3431-3-3c0-1.65685 1.34315-3 3-3s3 1.34315 3 3z" fill="url(#b)"/><path d="m15 9c0 1.6569-1.3432 3-3 3-1.6569 0-3.00003-1.3431-3.00003-3 0-1.65685 1.34313-3 3.00003-3 1.6568 0 3 1.34315 3 3z" fill="url(#c)"/><path d="m12 12c0 1.6569-1.3431 3-3 3-1.65685 0-3-1.3431-3-3s1.34315-3 3-3c1.6569 0 3 1.3431 3 3z" fill="url(#d)"/><path d="m9 8.99619c-.00206-1.6551-1.34442-2.99619-3-2.99619 0 1.65685 1.34314 3 2.99999 3-1.65684 0-2.99998 1.3431-2.99999 3 1.65558 0 2.99795-1.3411 3-2.9962.00205 1.6551 1.3444 2.9962 3 2.9962 0-1.6569-1.3432-3-3.00001-3 1.65691 0 3.00001-1.34315 3.00001-3-1.6556 0-2.99795 1.34109-3 2.99619z" fill="#f0f3fa"/></svg>