<svg height="18" viewBox="0 0 18 18" width="18" xmlns="http://www.w3.org/2000/svg"><path d="m0 0h18v18h-18z" fill="#f0f3fa"/><g fill="#005432"><path d="m7.59 8.47.15-.88h2.51l.16.88h-.16c-.02-.35-.3-.53-.47-.53h-.31c-.13 0-.12.12-.12.18v2.12c0 .14.25.29.36.35v.17h-1.42v-.17c.25 0 .36-.24.36-.35v-2.12c0-.14-.07-.18-.12-.18h-.31c-.26 0-.42.35-.48.53h-.14z"/><path d="m9 14a5 5 0 1 0 0-10 5 5 0 0 0 0 10zm0 1a6 6 0 1 0 0-12 6 6 0 0 0 0 12z" fill-rule="evenodd"/><path d="m9 12a3 3 0 1 0 0-6 3 3 0 0 0 0 6zm0 1a4 4 0 1 0 0-8 4 4 0 0 0 0 8z" fill-opacity=".5" fill-rule="evenodd"/></g></svg>