<!-- by TradingView --><svg width="18" height="18" viewBox="0 0 18 18" xmlns="http://www.w3.org/2000/svg"><path fill="#F0F3FA" d="M0 0h18v18H0z"/><path d="M4 12.29v-6.2L9 3l5 3.1v5.8L9 15l-5-2.71Z"/><path d="m9.5 4.3-.75-.47v-.68l-.17.1v.58l-.74.47-.4-.33-.15.1.46.38v.96l-.74.32-.76-.49V4.7l-.17.1v.44l-.75.49-.44-.19-.18.12.54.22v.95l-.76.48-.49-.2v.19l.42.17v.96L4 8.78v.23l.5-.43.49.3v-.2l-.4-.26v-.96L5.32 7l.75.47v.48h.17v-.48L7 7l.75.47v.96l-.12.07a1.64 1.64 0 0 1 0 .21l.2-.13.17.1v-.2l-.08-.05v-.96L8.67 7l.75.47v.48h.16v-.48l.75-.47.75.47v.48h.14l.03.17v-.65L12 7l.75.47v.96l-.4.25v.2l.48-.3.17.1v-.2l-.08-.05v-.96l.75-.47.33.2V7l-.25-.16v-.89l-.17-.1v1l-.75.47-.75-.48v-.96l.8-.47-.17-.1-.72.43-.74-.32V4.4l-.17-.1v1.13l-.75.48-.75-.48v-.96l.8-.6-.16-.1-.72.55ZM5.35 8.9v1.27l.73.31v.95l-.75.48-.75-.48v-.95l.4-.17v-.19l-.48.2-.5-.2v.19l.42.17v.95L4 11.7v.2l.5-.32.75.48v.92l.17.09v-1.01l.75-.48.75.48V13l-.88.4.2.1.75-.34.76.48v.68l.17.1v-.78l.75-.48.75.48v.95l-.6.32L9 15l.58-.36v-1l.75-.48.75.48v.07l1.1-.67-.1-.04v-.95l.76-.48.73.3v.3l.17-.1v-.18l.26-.11v-.2l-.33.15-.75-.32v-.94l.14-.06H13v-.16l-.17.07-.48-.2v.18l.4.17v.95l-.75.48-.75-.48v-.95l.14-.06h-.1l-.02-.14-.1.05-.4-.18-.04.18.35.15v.95l-.75.48-.75-.48v-.95l.75-.32.05.02.04-.22v-.89l.17-.07.04-.21-.29.12-.03-.02a.75.75 0 0 1-.06.2V10l-.58.25v.16h-.34v-.16l-.39-.17a.56.56 0 0 1-.07.16l.55.23v.95l-.75.48-.75-.48v-.95l.3-.13a.44.44 0 0 1-.12-.14l-.27.12-.2-.09.04.18H7.6l.14.06v.95L7 11.9l-.75-.48v-.95l.42-.18v-.18l-.34.14v.16H6v-.16L5.42 10v-.95L6 8.68v-.2l-.65.4Zm1.32 0-.34-.21v-.2l.34.2v.21Zm.59.05a.23.23 0 0 0 .05-.1c.02-.04.02-.1.03-.16L7 8.9l-.01-.01v.1h.1l.1-.01.07-.04Zm-.18.34h-.1v.88H7l.32.13-.04-.2-.2-.1v-.71Zm2.25-.6L9 8.89v-.2l.33-.22v.2Zm-.66.22.02-.02v.76c0 .08 0 .15-.02.22 0 .06-.02.12-.05.16-.02.04-.06.06-.12.06l-.07-.01.15-.07v-.95l-.26-.17v-.2l.35.22Zm1-.43v.2l.32.21.01-.03.02-.15-.35-.23Zm2.32 1.69-.34.14-.04-.17.3-.13v-.94l-.53-.23-.04-.2.65.27v1.26Zm-.97-1.54.02.17-.08.04.03-.2.03-.01Zm2.65 1.53-.34.14v-.18l.25-.11v-.95l-.25-.16v-.2l.34.21.33-.14v.2l-.25.1V10l.25.1v.2l-.33-.15ZM7.92 5.41v-.95L8.67 4l.75.47v.95l-.75.32-.75-.32Zm2.5.64.75-.48.75.31v.95l-.75.48-.75-.48v-.78Zm.75 5.52.75.48v.96l-.75.48-.75-.48v-.96l.75-.48Zm-.92.48v.96l-.75.48-.75-.48v-.96l.75-.48.75.48Zm-1.67 0v.96l-.75.48-.75-.48v-.96l.75-.48.75.48ZM6.17 7.31l-.75-.48v-.96l.75-.47.75.47v.96l-.75.48Zm.91-.48v-.95l.75-.31.75.31v.95l-.75.48-.75-.48Zm1.67 0v-.95l.74-.31.76.48v.78l-.75.48-.75-.48Z" fill="#8E8F8E"/><path fill="#D9D9D9" d="M5 8h8v3H5z"/></svg>