<svg height="18" viewBox="0 0 18 18" width="18" xmlns="http://www.w3.org/2000/svg"><path d="m0 0h18v18h-18z" fill="#f0f3fa"/><path d="m4 12.29v-6.2l5-3.09 5 3.1v5.8l-5 3.1z"/><path d="m9.5 4.3-.75-.47v-.68l-.17.1v.58l-.74.47-.4-.33-.15.1.46.38v.96l-.74.32-.76-.49v-.54l-.17.1v.44l-.75.49-.44-.19-.18.12.54.22v.95l-.76.48-.49-.2v.19l.42.17v.96l-.42.35v.23l.5-.43.49.3v-.2l-.4-.26v-.96l.73-.46.75.47v.48h.17v-.48l.76-.47.75.47v.96l-.12.07a1.64 1.64 0 0 1 0 .21l.2-.13.17.1v-.2l-.08-.05v-.96l.75-.47.75.47v.48h.16v-.48l.75-.47.75.47v.48h.14l.03.17v-.65l.75-.47.75.47v.96l-.4.25v.2l.48-.3.17.1v-.2l-.08-.05v-.96l.75-.47.33.2v-.2l-.25-.16v-.89l-.17-.1v1l-.75.47-.75-.48v-.96l.8-.47-.17-.1-.72.43-.74-.32v-1.02l-.17-.1v1.13l-.75.48-.75-.48v-.96l.8-.6-.16-.1-.72.55zm-4.15 4.6v1.27l.73.31v.95l-.75.48-.75-.48v-.95l.4-.17v-.19l-.48.2-.5-.2v.19l.42.17v.95l-.42.27v.2l.5-.32.75.48v.92l.17.09v-1.01l.75-.48.75.48v.94l-.88.4.2.1.75-.34.76.48v.68l.17.1v-.78l.75-.48.75.48v.95l-.6.32.18.09.58-.36v-1l.75-.48.75.48v.07l1.1-.67-.1-.04v-.95l.76-.48.73.3v.3l.17-.1v-.18l.26-.11v-.2l-.33.15-.75-.32v-.94l.14-.06h-.06v-.16l-.17.07-.48-.2v.18l.4.17v.95l-.75.48-.75-.48v-.95l.14-.06h-.1l-.02-.14-.1.05-.4-.18-.04.18.35.15v.95l-.75.48-.75-.48v-.95l.75-.32.05.02.04-.22v-.89l.17-.07.04-.21-.29.12-.03-.02a.75.75 0 0 1 -.06.2v.92l-.58.25v.16h-.34v-.16l-.39-.17a.56.56 0 0 1 -.07.16l.55.23v.95l-.75.48-.75-.48v-.95l.3-.13a.44.44 0 0 1 -.12-.14l-.27.12-.2-.09.04.18h-.07l.14.06v.95l-.74.48-.75-.48v-.95l.42-.18v-.18l-.34.14v.16h-.33v-.16l-.58-.25v-.95l.58-.37v-.2l-.65.4zm1.32 0-.34-.21v-.2l.34.2zm.59.05a.23.23 0 0 0 .05-.1c.02-.04.02-.1.03-.16l-.34.21-.01-.01v.1h.1l.1-.01.07-.04zm-.18.34h-.1v.88h.02l.32.13-.04-.2-.2-.1zm2.25-.6-.33.2v-.2l.33-.22v.2zm-.66.22.02-.02v.76c0 .08 0 .15-.02.22 0 .06-.02.12-.05.16-.02.04-.06.06-.12.06l-.07-.01.15-.07v-.95l-.26-.17v-.2zm1-.43v.2l.32.21.01-.03.02-.15zm2.32 1.69-.34.14-.04-.17.3-.13v-.94l-.53-.23-.04-.2.65.27zm-.97-1.54.02.17-.08.04.03-.2zm2.65 1.53-.34.14v-.18l.25-.11v-.95l-.25-.16v-.2l.34.21.33-.14v.2l-.25.1v.93l.25.1v.2l-.33-.15zm-5.75-4.75v-.95l.75-.46.75.47v.95l-.75.32-.75-.32zm2.5.64.75-.48.75.31v.95l-.75.48-.75-.48zm.75 5.52.75.48v.96l-.75.48-.75-.48v-.96zm-.92.48v.96l-.75.48-.75-.48v-.96l.75-.48zm-1.67 0v.96l-.75.48-.75-.48v-.96l.75-.48zm-2.41-4.74-.75-.48v-.96l.75-.47.75.47v.96zm.91-.48v-.95l.75-.31.75.31v.95l-.75.48zm1.67 0v-.95l.74-.31.76.48v.78l-.75.48z" fill="#8e8f8e"/><path d="m5 8h8v3h-8z" fill="#d9d9d9"/></svg>