<svg height="18" viewBox="0 0 18 18" width="18" xmlns="http://www.w3.org/2000/svg"><path d="m0 0h18v18h-18z" fill="#f0f3fa"/><path d="m8.9 8.45c-1.67-.95-5.04-2.82-5.08-2.86l.8-.96 4.46 2.5 1.2-.13-.69 1.36z" fill="#f89520"/><path d="m10.28 7-.68 1.36-.6.08z" fill="#f05d2a"/><path d="m7.85 6.25-1.35-.75-.22-2.05 1.2-.45z" fill="#eb7b2f"/><path d="m9.26 9.2 3-5.41.97.8-2.65 4.78.13 1.2-1.36-.69z" fill="#f89520"/><path d="m10.71 10.57-1.36-.69-.07-.59z" fill="#f05d2a"/><path d="m11.46 8.15.75-1.36 2.34-.27.45 1.2z" fill="#eb7b2f"/><path d="m8.52 9.55c1.68.94 5.04 2.82 5.08 2.86l-.8.96-4.46-2.5-1.2.13.7-1.36z" fill="#f89520"/><path d="m7.15 11h-.01l.7-1.36.58-.08z" fill="#f05d2a"/><path d="m9.57 11.75 1.35.75.23 2.05-1.2.45z" fill="#eb7b2f"/><path d="m8.16 8.8-2.76 4.97-.96-.8 2.4-4.34-.14-1.2 1.36.69.09.68z" fill="#f89520"/><path d="m6.71 7.43 1.36.69.08.59-1.45-1.28z" fill="#f05d2a"/><path d="m5.96 9.85-.75 1.36-1.76.2-.45-1.21z" fill="#eb7b2f"/></svg>