<svg height="18" viewBox="0 0 18 18" width="18" xmlns="http://www.w3.org/2000/svg"><path d="m0 0h18v18h-18z" fill="#f0f3fa"/><path d="m11.37 7.14h-.14c1.07-2.32.18-2.94-.4-2.97-2.3 0-5 3.53-5.7 5.12-.15.34-1.27 2.92.48 2.92 1.4 0 3.33-1.75 4.11-2.65l-.58 2.5c-.6.57-2.1 1.69-3.44 1.69-1.33 0-1.69-1.12-1.7-1.68-.09-4.21 5.02-8.07 6.74-8.07.56 0 1.14.32 1.14 1.27 0 .76-.34 1.56-.5 1.87z" fill="#00a84d"/><path d="m9.45 10h-2l.34-1h3.87l-1.55 5h-1.88z" fill="#005bac"/><circle cx="10" cy="7.5" fill="#00a84d" r="1"/><circle cx="13.5" cy="6.5" fill="#00a84d" r=".5"/><path d="m13.81 10.78c-.32.62-.95.9-1.4.6-.44-.29-.54-1.03-.22-1.66.32-.62.95-.9 1.4-.6.44.29.54 1.03.22 1.66z" fill="#005bac"/></svg>