<svg height="18" width="18" xmlns="http://www.w3.org/2000/svg" xmlns:xlink="http://www.w3.org/1999/xlink"><linearGradient id="a"><stop offset="0" stop-color="#fff"/><stop offset="1" stop-color="#005bac"/></linearGradient><linearGradient id="b" gradientUnits="userSpaceOnUse" x1="8.45" x2="10.46" xlink:href="#a" y1="15.95" y2="9.87"/><linearGradient id="c" gradientUnits="userSpaceOnUse" x1="9.86" x2="9.86" xlink:href="#a" y1="1.91" y2="8.35"/><linearGradient id="d" gradientUnits="userSpaceOnUse" x1="-.32" x2="7" xlink:href="#a" y1="9.5" y2="9.5"/><linearGradient id="e" gradientUnits="userSpaceOnUse" x1="18.29" x2="11.5" xlink:href="#a" y1="6.5" y2="6.5"/><path d="m0 0h18v18h-18z" fill="#f0f3fa"/><path d="m11.5 7.5-.23 1h-1.7l-1.13 3.5h-1.12l1.12-3.5h-1.7l.24-1z" fill="#005bac"/><path d="m10.16 10-1.47 4h1.11l1.53-4h-1.18z" fill="url(#b)"/><path d="m9.95 3.5-1.08 3.5h1.08l1.1-3.5z" fill="url(#c)"/><path d="m2.15 9-.15 1h4.85l.15-1z" fill="url(#d)"/><path d="m11.62 6-.12 1h3.9l.1-1z" fill="url(#e)"/></svg>