<svg height="18" viewBox="0 0 18 18" width="18" xmlns="http://www.w3.org/2000/svg"><path d="m0 0h18v18h-18z" fill="#f0f3fa"/><path d="m13.32 11.43c-.2.73-1.99 1.26-4.03 1.2a8.4 8.4 0 0 1 -2.04-.3c.68.33 1.4.53 2.14.61 2.62.25 4.47-.36 4.76-1.06.15-.34.17-.9-1.26-1.31.29.16.53.5.43.86z" fill="#009dd3"/><path d="m11.94 5.64c1.02 0 2.02.06 3.04.2a12.3 12.3 0 0 0 -4.8-.84c-4.72 0-8.18 2.1-8.18 4.14 0 1.17 1.02 2.07 2.77 2.63a2.22 2.22 0 0 1 -.97-1.85c0-1.45 1.09-2.74 3.2-3.52v4.08c0 .42-.1.76-.46.76v.76h3.14v-.76c-.36 0-.68-.34-.68-.73v-4.56c1.07-.2 1.9-.3 2.94-.3z" fill="#c0c0c0"/><path d="m12 6.76c1-.14 2-.14 3 .03-1.05-.53-2.63-.75-5.06-.47-3.06.36-5.2 2.04-5.2 3.62 0 1.05 1 1.82 2.55 2.26a1.93 1.93 0 0 1 -.95-1.57c-.1-1.55 1.26-2.9 3.66-3.57v3.5c0 .42-.07.69-.44.69v.75h3.03v-.75c-.37 0-.59-.27-.59-.65z" fill="#009dd3"/></svg>