<svg height="18" viewBox="0 0 18 18" width="18" xmlns="http://www.w3.org/2000/svg"><path d="m0 0h18v18h-18z" fill="#f0f3fa"/><g fill="#397ac7"><path d="m9 3.35a5.65 5.65 0 1 0 .01 11.3 5.65 5.65 0 0 0 -.01-11.29zm0 11.65a6 6 0 1 1 .01-12.01 6 6 0 0 1 -.01 12.01z"/><path d="m9 4.06a4.95 4.95 0 1 0 .01 9.9 4.95 4.95 0 0 0 -.01-9.91zm0 10.23a5.3 5.3 0 1 1 .01-10.6 5.3 5.3 0 0 1 -.01 10.61z"/><path d="m8.48 11.55c-.04 0-.07-.04-.07-.1v-2c0-.04-.03-.08-.07-.08h-1.24c-.03 0-.1-.05-.1-.1v-.55c0-.05.07-.08.1-.08h1.24c.04 0 .07-.05.07-.1v-1.98c0-.05.03-.1.07-.1h1.04c.04 0 .07.05.07.1v1.98c0 .05.03.1.07.1h1.27c.03 0 .07.03.07.08v.56c0 .04-.04.09-.07.09h-1.27c-.04 0-.07.04-.07.08v2c0 .06-.03.1-.07.1zm3.45-.55c.04 0 .07-.04.07-.1v-3.8c0-.06-.03-.1-.07-.1h-1.36c-.04 0-.07-.04-.07-.09v-.35c0-.05.03-.1.07-.1h1.35c.04 0 .07-.03.07-.08v-1.3c0-.04-.03-.08-.07-.08h-5.84c-.04 0-.07.04-.07.09v1.3c0 .04.03.06.07.06h1.35c.04 0 .07.06.07.11v.35c0 .05-.03.09-.07.09h-1.36c-.04 0-.07.04-.07.1v3.8c0 .06.03.1.07.1h1.36c.04 0 .07.04.07.09v.37c0 .05-.03.09-.07.09h-1.35c-.04 0-.07.04-.07.09v1.27c0 .05.03.09.07.09h5.84c.04 0 .07-.04.07-.09v-1.27c0-.05-.03-.1-.07-.1h-1.35c-.04 0-.07-.03-.07-.08v-.37c0-.05.03-.1.07-.1h1.36z"/></g></svg>