<svg height="18" viewBox="0 0 18 18" width="18" xmlns="http://www.w3.org/2000/svg"><path d="m0 0h18v18h-18z" fill="#f0f3fa"/><path d="m15 9a6 6 0 1 1 -12 0 6 6 0 0 1 12 0zm-.67 0a5.33 5.33 0 1 1 -10.66 0 5.33 5.33 0 0 1 10.66 0zm-7.08-4.53h1.42v-.17c0-.17.14-.3.31-.3s.3.13.3.3v.17h1.44c.14 0 .25.07.25.2 0 .14-.11.27-.25.27h-1.43v.2h1.22c.25 0 .46.2.46.45v.93c0 .25-.2.45-.46.45h-.47c.2.14.54.38.8.53.13.08.2.3.13.43a.21.21 0 0 1 -.27.08 3.87 3.87 0 0 1 -1.41-.97v.68a.3.3 0 0 1 -.31.3.3.3 0 0 1 -.3-.3v-.68c-.26.23-.81.7-1.27.91a.25.25 0 0 1 -.3-.07.27.27 0 0 1 .07-.4c.29-.17.63-.4.74-.51h-.46a.46.46 0 0 1 -.46-.45v-.93c0-.25.2-.46.46-.46h1.21v-.19h-1.42c-.14 0-.25-.13-.25-.27 0-.13.11-.2.25-.2zm.32 1.31c0-.12.1-.22.23-.22h.92v.32h-.76c-.14 0-.25.1-.25.24 0 .13.11.23.25.23h.76v.24h-.92a.23.23 0 0 1 -.23-.23zm2.42.57h-.74v.24h.92c.13 0 .23-.1.23-.23v-.58c0-.12-.1-.22-.23-.22h-.92v.32h.75c.14 0 .25.1.25.24 0 .13-.1.23-.25.23zm-2.74 3.06c-.18 0-.25-.08-.25-.36 0-.16.13-.34.28-.34h1.42v-.16c0-.17.14-.31.3-.31.17 0 .3.14.3.31v.16h1.43c.15 0 .28.18.28.34 0 .28-.03.36-.25.36-.25 0-.25-.1-.25-.23h-3c0 .23-.14.23-.25.23zm-.21.48c0-.13.1-.24.21-.24h3.46c.12 0 .22.1.22.24s-.1.25-.22.25h-1.46v.45h1.46c.12 0 .22.1.22.23s-.1.24-.22.24h-.21v.47h.2c.13 0 .23.1.23.23s-.1.24-.22.24h-3.46c-.12 0-.21-.1-.21-.24 0-.13.1-.23.21-.23h1.5v-.47h-1.5c-.12 0-.21-.1-.21-.24 0-.13.1-.23.21-.23h1.5v-.45h-1.5c-.12 0-.21-.11-.21-.25zm2.96 1.64v-.47h-.75v.47z" fill="#231f20" fill-rule="evenodd"/></svg>