<svg height="18" viewBox="0 0 18 18" width="18" xmlns="http://www.w3.org/2000/svg"><path d="m0 0h18v18h-18z" fill="#f0f3fa"/><g fill="#4f589c"><path d="m9 15a2.5 2.5 0 1 0 0-5 2.5 2.5 0 0 0 0 5zm0-1a1.5 1.5 0 1 0 0-3 1.5 1.5 0 0 0 0 3z" fill-rule="evenodd"/><path d="m6.84 12.45c.02-.36.13-.7.3-.98a3.5 3.5 0 0 1 -1.64-3.05 2.01 2.01 0 0 1 -1-.14v.22c0 1.7.95 3.19 2.34 3.95zm-.38-7.67a4.5 4.5 0 1 1 4.38 7.82v-.06c0-.34-.08-.66-.22-.94a3.5 3.5 0 1 0 -3.52-6.04 2.02 2.02 0 0 0 -.64-.78z"/><path d="m10.56 4.93a2.5 2.5 0 1 1 2.46 4.02 3.4 3.4 0 0 0 .07-1.07 1.5 1.5 0 1 0 -1.55-2.53c-.3-.19-.63-.33-.98-.42z"/></g><path d="m5.5 9a2.5 2.5 0 1 0 0-5 2.5 2.5 0 0 0 0 5zm0-1a1.5 1.5 0 1 0 0-3 1.5 1.5 0 0 0 0 3z" fill="#de5b10" fill-rule="evenodd"/></svg>