<svg height="18" width="18" xmlns="http://www.w3.org/2000/svg"><path d="m0 0h18v18h-18z" fill="#00386e"/><path d="m8.005 11.521 1.26-4.906c-1.136-.357-3.25-.968-4.096-.535-.396.23-.616.84-.59 1.197.054.28.08.714.529.918.211.101.581.101.793-.077.184-.28.29-.587.687-.638a.723.723 0 0 1 .554.179c.264.255.159.586.053.765-.158.255-.449.484-.792.535-.634.077-1.11.051-1.612-.28-.687-.434-.819-1.122-.792-1.581.052-.459.404-1.375 1.197-1.783 1.004-.535 2.774-.28 3.804-.025l.502.127c1.347.332 2.536.918 4.069.56.105-.024-.053-.407.29-.381.185.025.185.28 0 .407-.766.587-1.349 1.314-3.144.842l-1.18 4.65c-.264 1.122-.29.97.476 1.02l-.133.485h-2.972l.093-.484c.819-.052.793-.128 1.004-.995z" fill="#fff"/></svg>