<svg height="18" viewBox="0 0 18 18" width="18" xmlns="http://www.w3.org/2000/svg"><path d="m0 0h18v18h-18z" fill="#f0f3fa"/><g fill="#bf8929"><path d="m4.17 6.82c0 .29.12.6.18.73a5.3 5.3 0 0 1 1.5-.37c.86 0 1.31.18 1.5.55a5.53 5.53 0 0 0 -1.5-.18c-.75 0-1.31.24-1.5.36v1.09c0 .3.17.9.75 1.1.56.17 1 .42 1.13.54 0-.06.15-.26.75-.55s.75-.85.75-1.09v-1.1c0-.17.18-.35.18-1.08 0-.58-.87-.97-1.3-1.1v-.54l-.39-.18c0 .44-.38.67-.57.73-1.3.18-1.5.72-1.5 1.09z"/><path d="m8.29 9.36c0 .73-.75 1.03-1.13 1.1 2.55 0 5.31-1.94 6.37-2.91-1.68 3.27-6.73 3.45-7.5 3.45-.74 0-1.49.36-1.86.55-.3.14-.13.3 0 .36 1.5-.73 3-.73 3.93-.36.94.36.75 1.45 1.69 1.45.75 0 .37-1.27.75-1.45.37-.19 1.5 1.09 2.24.36.57-.55-.37-1.46-.18-1.82.24-.46 1.65.3 1.87-.54.19-.73-.56-.91-.56-1.1 0-.18.19-.18.56-.54s.75-1.1.37-1.46c-.37-.36-1.12.37-1.5.19-.37-.19-.18-.91-.56-.91-.95 0-1.12 1.27-1.5 1.27-.37 0-.18-1.27-.93-1.27s-.95 1.82-1.13 1.82-.18-.55-.56-.55c-.3 0-.37.6-.37.9z"/></g></svg>