<svg height="18" viewBox="0 0 18 18" width="18" xmlns="http://www.w3.org/2000/svg" xmlns:xlink="http://www.w3.org/1999/xlink"><linearGradient id="a" gradientUnits="userSpaceOnUse" x1="7.26" x2="15.48" y1="10.44" y2="9.88"><stop offset="0" stop-color="#e71f19"/><stop offset=".49" stop-color="#e8a816"/><stop offset="1" stop-color="#c91023"/></linearGradient><path d="m0 0h18v18h-18z" fill="#f0f3fa"/><path d="m9.83 6h-6.07l-.64 2h1.95l-2.07 5h2.29l2-5h1.95l.6-2zm.38 0h5.65l-.6 2h-3.55l-2.05 5h-2.3z" fill="#0564a7"/><path d="m11.12 9.36c-3.1-.36-4.3 1.02-4.5 1.76 1.68-.76 3.7-.5 4.5-.28 3.43.46 4.68-1.36 4.88-2.33-.52.38-1 1.3-4.88.85z" fill="url(#a)"/></svg>