<svg height="18" viewBox="0 0 18 18" width="18" xmlns="http://www.w3.org/2000/svg"><path d="m0 0h18v18h-18z" fill="#f0f3fa"/><path d="m15 9.01c-1.3 4.04-4.55 5.68-6.01 5.99a8.93 8.93 0 0 1 -5.99-5.99c1.1-3.72 4.45-5.56 5.99-6.01a9.4 9.4 0 0 1 6.01 6.01zm-8.7 2.64a2.7 2.7 0 0 1 -2.2-2.65 2.7 2.7 0 0 1 2.23-2.65 2.71 2.71 0 0 1 5.36.16 2.7 2.7 0 0 1 2.22 2.65 2.7 2.7 0 0 1 -2.29 2.66 2.71 2.71 0 0 1 -5.32-.17zm-1.64-2.58c.17-.15.57-.44.82-.43.3.01.2.45.05.52-.12.07-.26.27-.36.43l3.75.2c0 .22-.16.74-.6.82-.13.03-.53-.03-1.08-.43 0 0-.03 0-.05-.02-.1-.04-.33-.15-.79-.15h-1.33c-.08.14-.28.38-.41.27-.14-.1-.01-.28.07-.36l.52-.8c-.03-.02-.15-.02-.35.14-.05 0-.17-.02-.24-.19zm1.88-2.07a.38.38 0 0 0 -.34.24c.91-.07 1.21.03 1.25.1 0 .07-.05.23-.24.24-.2.02-.35-.12-.4-.18l-.2.07.2.53h-.55c-.19 0-.25.15-.26.23v.77c0 .2 0 .47.12.47.1 0 .14-.23.14-.35.05-.13.2-.12.4-.12h.14c.2 0 .25.14.25.22s.01.24.1.25c.1.02.19-.1.23-.25.03-.14.14-.14.33-.14h.07c.19 0 .24.09.24.14 0 .13.05.38.23.32.19-.06.25-.33.26-.46v-.92c-.01-.16-.14-.16-.26-.16h-.8c.28-.11.81-.55.7-.76-.1-.2-1.12-.24-1.61-.24zm2.53 3.19c0-.14.02-.4.26-.44l.2-.03c.14 0 .16-.01.26-.13l.02-.04c.14-.17.4-.52.14-.8a7.84 7.84 0 0 0 -.57-.55l.4-.2h1.62l-.11-.68.25-.14.27.62h.96c.07 0 .2.05.15.16-.06.14-.34.25-.99.07-.01.06-.02.21.06.38l.06.12c.08.18.16.35.3.16.17-.23.18-.24.3-.15.09.06 0 .21-.07.32l-.04.08a.54.54 0 0 0 .44.65c.15-.08.46-.19.48 0 .02.22-.16.79-.54.62l-.44-.36c-.05-.04-.14-.08-.15.09v.32c-.05.15-.2.37-.33.13v-.85c0-.18 0-.43-.1-.43-.23 0-.43.24-.5.36.14.04.41.15.41.31 0 .2-.41.28-.86-.03-.15.13-.55.4-.86.37-.31-.02-.37-.17-.37-.24-.15.15-.49.43-.66.38z" fill="#da251d" fill-rule="evenodd"/></svg>