<svg height="18" viewBox="0 0 18 18" width="18" xmlns="http://www.w3.org/2000/svg"><path d="m0 0h18v18h-18z" fill="#f0f3fa"/><g fill="#377c14"><path d="m13.36 9.56v.02l-.03.02h-.03c-.86-.04-1.6.01-2.6.09-.73.06-1.51.19-2.25.44-.64.22-1.15.26-1.88.22-1.1-.05-2.17-.13-3.28-.01-.07 0-.1-.03-.1-.1l.01-.98a4.45 4.45 0 0 1 1 .1c.71.23 1.43.4 2.17.35.81-.05 1.57-.27 2.36-.42.34-.06.7-.05 1.04-.06.3 0 .6.07.91.05.19-.02.35.02.53.01.74-.04 1.43.14 2.15.27z"/><path d="m14.47 4.36h-10.94c-.1 0-.2.1-.2.21v8.86c0 .12.1.21.2.21h10.74c.1 0 .2-.1.4-.21v-8.86c0-.12-.1-.21-.2-.21zm-11.14-.36c-.18 0-.33.16-.33.36v9.28c0 .2.15.36.33.36h11.34c.18 0 .33-.16.33-.36v-9.28c0-.2-.15-.36-.33-.36z" fill-rule="evenodd"/><path d="m5 6h8v2h-8z" fill-opacity=".5"/></g><path d="m7.49 10.4h-2.64c.19.33 2.77.35 4.32.45 1.24.08 4.02.58 5.25.82v-1.96c-1.23-.16-4.34.05-4.83.16-.5.12-1.43.53-2.1.53z" fill="#719d48"/><path d="m4.82 10.45h-1.33v2.96h10.93v-1.69c-1.41-.3-4.7-.9-6.52-.9a9.85 9.85 0 0 1 -3.08-.37z" fill="#aec693"/></svg>