<svg height="18" width="18" xmlns="http://www.w3.org/2000/svg"><path d="m0 0h18v18h-18z" fill="#571f10"/><path d="m10.712 4.199c.584 0 .855-.057 1.059-.1.19-.056.298-.099.556-.099.53 0 1.678.726 1.678 2.263 0 .711-.353 1.18-1.046 1.18-1.18 0-1.167-1.678-1.86-1.678-.529 0-.474.768-.474.881v4.368c0 1.692 1.375.882 1.375 1.877 0 .44-.384 1.109-2.923 1.109-.692 0-3.077-.013-3.077-1.109 0-.753.688-.455.96-.995.135-.299.19-1.153.203-1.508l.109-3.144c.054-1.494-.23-1.48-.421-1.48-.61 0-.91 1.68-2.01 1.68-.528-.001-.841-.514-.841-1.026 0-1.209.93-2.418 1.703-2.418.095 0 .244.043.502.1.259.042.625.099 1.168.099z" fill="#fff"/></svg>