<svg fill="none" height="18" viewBox="0 0 18 18" width="18" xmlns="http://www.w3.org/2000/svg"><path d="m0 0h18v18h-18z" fill="#f0f3fa"/><path d="m8.34 3.2c.4-.26.91-.26 1.32 0l3.68 2.28c.4.25.66.72.66 1.24v4.56c0 .52-.25.99-.66 1.24l-3.68 2.29c-.4.25-.91.25-1.32 0l-3.68-2.29a1.45 1.45 0 0 1 -.66-1.24v-4.56c0-.52.25-.99.66-1.24l3.68-2.29z" fill="#fdd100"/><path d="m8.47 3.4a1 1 0 0 1 1.06 0l3.67 2.3c.34.2.55.6.55 1.03v4.56c0 .44-.21.82-.55 1.03l-3.67 2.28a1 1 0 0 1 -1.06 0l-3.67-2.3a1.2 1.2 0 0 1 -.55-1.03v-4.55c0-.44.21-.82.55-1.03z" stroke="#000" stroke-width=".5"/><path d="m6.88 8h-.88l.34-2h5.29l.37 2h-.9l-.21-1h-.89v4h1v1h-4v-1h1v-4h-.92z" fill="#000"/></svg>