<svg height="18" viewBox="0 0 18 18" width="18" xmlns="http://www.w3.org/2000/svg"><path d="m0 0h18v18h-18z" fill="#f0f3fa"/><g fill="#8b0304"><path d="m9.68 4.54a4.46 4.46 0 0 1 3.82 4.46c0 2.3-1.67 4.18-3.82 4.46zm0-.5a4.96 4.96 0 0 1 4.32 4.96 4.96 4.96 0 0 1 -4.82 5v-10c.17 0 .34.01.5.03z" fill-rule="evenodd"/><path d="m4 9c0-2.76 2.19-5 4.88-5v3.99l-.88.11-1.71-.28-.97-.82-.32.4.96 1.27 1.28.27.96 1.67v1.11l.64.28h.04v2a4.94 4.94 0 0 1 -4.88-5zm7.73-1.17-1.7.28-.85-.11v4l.96-.28v-1.1l.63-1.68 1.28-.27.95-1.25-.32-.42z"/></g></svg>