<svg height="18" viewBox="0 0 18 18" width="18" xmlns="http://www.w3.org/2000/svg"><path d="m0 0h18v18h-18z" fill="#138bca"/><g fill="#fff"><path d="m7.72 3.14a6.02 6.02 0 0 0 -1.36 11.28 4.9 4.9 0 0 0 2.68.58c.96 0 1.1-.02 1.76-.24a5.89 5.89 0 0 0 2.43-1.5 5.55 5.55 0 0 0 1.39-2.16c.58-1.62.5-3.25-.26-4.77a5.96 5.96 0 0 0 -6.64-3.2zm4.55 1.64a4.84 4.84 0 0 1 1.19 1.35c-3.08 1.76-5.85 1.6-8.92-.03a5.08 5.08 0 0 1 4.46-2.4c1.19.01 2.32.36 3.27 1.08zm-7.11 2.43a9.11 9.11 0 0 0 5.42.81l.42-.06-.4.43a9.19 9.19 0 0 0 -2.21 5.02l-.1.88a5.05 5.05 0 0 1 -1.3-.34 10.53 10.53 0 0 1 .85-3.87l.27-.59-.45-.03c-.8-.04-2-.4-3.14-.93-.85-.4-.86-.41-.63-1.09.21-.63.26-.73.32-.7zm8.92.15c.14.4.2 1.08.21 1.71a5.23 5.23 0 0 1 -1.33 3.54 5.4 5.4 0 0 1 -3.57 1.67l-.4.02.03-.46a8.03 8.03 0 0 1 4.8-6.96c.05 0 .17.22.26.48zm-9.88 1.75c.54.27 1.9.76 2.44.87l.44.1-.18.54c-.21.62-.46 1.8-.54 2.54l-.06.48-.23-.13c-.13-.07-.5-.4-.83-.72a3.94 3.94 0 0 1 -.96-1.32 7.4 7.4 0 0 1 -.45-1.2c-.1-.44-.16-1.37-.07-1.37z"/><path d="m9 14a5 5 0 1 0 0-10 5 5 0 0 0 0 10zm0 1a6 6 0 1 0 0-12 6 6 0 0 0 0 12z" fill-rule="evenodd"/></g></svg>