<svg height="18" viewBox="0 0 18 18" width="18" xmlns="http://www.w3.org/2000/svg" xmlns:xlink="http://www.w3.org/1999/xlink"><linearGradient id="a" gradientUnits="userSpaceOnUse" x1="3.35" x2="21.9" y1="3.12" y2="24.43"><stop offset="0" stop-color="#1a1e21"/><stop offset="1" stop-color="#06060a"/></linearGradient><path d="m0 0h18v18h-18z" fill="url(#a)"/><path d="m7.29 10.23-.32-2.88a12.8 12.8 0 0 1 1.41-.96c.12 0 1.26.96 1.42 1.05.15.1 1.51 1.46 1.93 2.2.42.72-.2 1.29-.56 1.5-.36.22-2.21 0-2.66-.08a3.53 3.53 0 0 1 -1.22-.83z" fill="#3bb09e"/><path d="m12.86 9.07-3.94-2.05 2.05 2.05v.79l2.96 3.05z" fill="#da5846"/><path d="m10.36 12.2 3.62.77-2-2.23-2.55-2.07.18 1.38c.53.2 1.62.62 1.7.69.08.06-.2.22-.36.3l-.6 1.17z" fill="#e4a831"/><path d="m9.59 7.69-.62-.33.33 1.27 1.69.77v-.34z" fill="#94a494"/><path d="m7.72 9.34.88 4.34 2.71.21 1.32-1.23-2.22-.44.52-1.1.38-.23v-.24l-1.66-.63-.33-1.35-.72-.26z" fill="#49c447"/><path d="m10.42 11.6-.77-1.48-1.44 1.73 1.72.8c.1.05.28-.2.35-.34l.42-.46z" fill="#f6ffff"/><path d="m13.01 14-1.71-.12 1.3-1.22.41 1.33z" fill="#e9ff2e"/><path d="m13 14-.38-1.34 1.38.32z" fill="#864726"/><path d="m8.12 11.26-3.35-1.13-.77-5.35.87-.78 3.66 1.95-.6.78.74.51-.63.93-.94-.47.43 2.28.31.15z" fill="#2fceff"/><path d="m8.76 7.28-.84-.6.6-.74 1.68.89.32 1.03-1.58-.81z" fill="#6167ff"/><path d="m4.96 4.1c-.2.2-.62.62-.79.7l.8 1.52v-2.21z" fill="#adffff"/></svg>