<svg height="18" viewBox="0 0 18 18" width="18" xmlns="http://www.w3.org/2000/svg"><path d="m0 0h18v18h-18z" fill="#f0f3fa"/><path d="m5.66 8h-2.66s.47-1.03.6-1.35c.12-.33.27-.65.73-.65h5.75c-.14.34-.76 1.9-1.46 1.9-.9 0-.67-1-3.35-1 0 0-.45.04-.15.33 0 0 .44.38.76.55.2.1 1.71.84 1.76 1.57.04.41-.36.73-.5.89-.09.1-.07.17 0 .24.05.05.19.18.3.25l-.46.97c-.44.84-.6 1.3-1.35 1.3h-1.93l1.95-5z" fill="#0e3192"/><path d="m11.17 6h3.83l-.55 1.4s-.19.6-.76.6h-1.62c-.37 0-.27.03-.16.11 0 0 1 .78 1.17.93.6.5 1 .92.97 1.95-.03.95-.75 2.01-1.8 2.01h-5.13l.66-1.7c.53-1.34 1.01-1.46 2.22-1 .67.3.78.4 1.37.76.35.2.9.55 1.05.4.22-.22-.92-1.8-1.5-2.15-.36-.2-.77-.36-1-.44-.75-.3-.69-.98-.3-1.73.32-.6.76-1.14 1.55-1.14z" fill="#00968d"/></svg>