<svg height="18" width="18" xmlns="http://www.w3.org/2000/svg"><path d="m0 0h18v18h-18z" fill="#eb0a1e"/><path d="m8.624 12.593c-.63-.403-1.093-1.795-1.093-3.449 0-.06 0-.12.002-.18-1.749-.279-3.013-1.051-3.045-1.964l-.005.01c-.428.545-.673 1.175-.673 1.846 0 1.974 2.118 3.592 4.804 3.735l.011.002zm-5.624-3.593c0-2.209 2.686-4 6-4s6 1.791 6 4-2.686 4-6 4-6-1.791-6-4zm6-3.423c.64 0 1.184.993 1.385 2.379l.001-.002c1.245-.198 2.116-.656 2.116-1.188 0-.714-1.568-1.292-3.502-1.292s-3.502.578-3.502 1.292c0 .532.871.99 2.116 1.188v.002c.203-1.386.746-2.379 1.386-2.379zm.387 7.014c2.686-.143 4.804-1.76 4.804-3.735 0-.67-.245-1.3-.673-1.845l-.005-.011c-.032.911-1.296 1.682-3.047 1.964l.001-.001.002.18c0 1.654-.464 3.046-1.093 3.449l.011-.002zm-.387-4.532c.287 0 .565-.013.832-.037-.133-.887-.455-1.514-.832-1.514s-.699.627-.832 1.515c.267.023.545.036.832.036zm0 3.29c.482 0 .874-1.026.895-2.313l.003.001a9.537 9.537 0 0 1 -1.796 0h.003c.02 1.285.413 2.311.895 2.311z" fill="#fff"/></svg>