<svg height="18" viewBox="0 0 18 18" width="18" xmlns="http://www.w3.org/2000/svg" xmlns:xlink="http://www.w3.org/1999/xlink"><pattern id="a" height="1" patternContentUnits="objectBoundingBox" width="1"/><pattern id="b" height="1" patternContentUnits="objectBoundingBox" width="1"/><linearGradient id="c" gradientUnits="userSpaceOnUse" x1="6.45" x2="11.09" y1="6.97" y2="12.13"><stop offset="0" stop-color="#ffe100"/><stop offset=".32" stop-color="#e60013"/><stop offset=".68" stop-color="#004ea2"/><stop offset="1" stop-color="#6fba2c"/></linearGradient><mask id="d" height="3" maskUnits="userSpaceOnUse" width="3" x="8" y="6"><path d="m9.77 6.85c-.52.33-1.12.87-1.6 1.43l.35.03.1-.12a6.12 6.12 0 0 1 1.62-1.34z" fill="#fff"/></mask><mask id="e" height="2" maskUnits="userSpaceOnUse" width="3" x="5" y="9"><path d="m7.33 9.27-.28.3c-.16.16-.78.71-1.31 1.16h.53a13 13 0 0 0 1.43-1.46h-.36z" fill="#fff"/></mask><path d="m0 0h18v18h-18z" fill="#f0f3fa"/><path d="m12.3 6.01c-.77.06-1.71.32-2.53.84h.47a4.67 4.67 0 0 1 2.38-.7c.46 0 .9.09 1.28.31.3.17.45.56.27.95-.16.36-.71.72-1.36.88-.42.1-1.23.2-1.96.2h-.07a18.2 18.2 0 0 1 -2.26-.18l-.35-.03a18.04 18.04 0 0 0 -1.2-.07 5.33 5.33 0 0 0 -2.6.72c-.9.57-1.24 1.18-1.34 1.72s.03 1.11.69 1.31a1 1 0 0 0 .28.04c.34 0 .78-.12 1.08-.32.34-.23.78-.6 1.18-.95h-.53c-.33.27-.63.51-.76.59-.27.15-.56.29-.78.29a.32.32 0 0 1 -.18-.05c-.27-.18-.05-.7.15-.94.3-.37.85-.78 1.46-1.03.47-.2 1.14-.3 1.7-.32h.36c.14 0 .27 0 .37.02.58.06 1.75.28 2.36.4a7.93 7.93 0 0 0 2.86 0c.88-.2 1.62-.73 1.71-1.73a1.63 1.63 0 0 0 -1-1.69 3.49 3.49 0 0 0 -1.7-.26z" fill="url(#c)"/><g mask="url(#d)"><path d="m8.11 6.8h2.2v1.56h-2.2z" fill="url(#a)"/></g><g mask="url(#e)"><path d="m5.67 9.21h2.07v1.56h-2.07z" fill="url(#b)"/></g></svg>