<svg height="18" viewBox="0 0 18 18" width="18" xmlns="http://www.w3.org/2000/svg" xmlns:xlink="http://www.w3.org/1999/xlink"><linearGradient id="a" gradientUnits="userSpaceOnUse" x1="3.38" x2="6" y1="8.63" y2="8.44"><stop offset="0" stop-color="#0ee3dd"/><stop offset="1" stop-color="#1bd7e2"/></linearGradient><linearGradient id="b" gradientUnits="userSpaceOnUse" x1="6" x2="8.06" y1="7.5" y2="8.63"><stop offset="0" stop-color="#15dcdf"/><stop offset="1" stop-color="#2eace6"/></linearGradient><linearGradient id="c" gradientUnits="userSpaceOnUse" x1="9" x2="11.25" y1="8.81" y2="6.19"><stop offset="0" stop-color="#439cf0"/><stop offset="1" stop-color="#7e4cf0"/></linearGradient><linearGradient id="d" gradientUnits="userSpaceOnUse" x1="9.56" x2="12.19" y1="9" y2="6.38"><stop offset="0" stop-color="#20cbe1"/><stop offset="1" stop-color="#3aaee5"/></linearGradient><linearGradient id="e" gradientUnits="userSpaceOnUse" x1="9" x2="7.5" y1="9.19" y2="12"><stop offset="0" stop-color="#11d3df"/><stop offset="1" stop-color="#08dcdf"/></linearGradient><linearGradient id="f" gradientUnits="userSpaceOnUse" x1="6.38" x2="7.5" y1="11.81" y2="9"><stop offset="0" stop-color="#26c7e3"/><stop offset="1" stop-color="#4b99e7"/></linearGradient><linearGradient id="g" gradientUnits="userSpaceOnUse" x1="14.63" x2="12" y1="9" y2="9.94"><stop offset="0" stop-color="#8949f6"/><stop offset="1" stop-color="#4796f2"/></linearGradient><linearGradient id="h" gradientUnits="userSpaceOnUse" x1="8.81" x2="7.13" y1="14.44" y2="12.19"><stop offset="0" stop-color="#0de4dd"/><stop offset="1" stop-color="#1dd3e1"/></linearGradient><linearGradient id="i" gradientUnits="userSpaceOnUse" x1="9.38" x2="12" y1="9.38" y2="9.75"><stop offset="0" stop-color="#1bc3e3"/><stop offset="1" stop-color="#37a2e8"/></linearGradient><linearGradient id="j" gradientUnits="userSpaceOnUse" x1="9" x2="6.19" y1="6.94" y2="6.94"><stop offset="0" stop-color="#499ce8"/><stop offset="1" stop-color="#21cde1"/></linearGradient><linearGradient id="k" gradientUnits="userSpaceOnUse" x1="9.38" x2="11.63" y1="3.56" y2="5.81"><stop offset="0" stop-color="#8a4cf6"/><stop offset="1" stop-color="#5294ed"/></linearGradient><linearGradient id="l" gradientUnits="userSpaceOnUse" x1="9.38" x2="11.81" y1="9.38" y2="11.81"><stop offset="0" stop-color="#22cce4"/><stop offset="1" stop-color="#43a5e6"/></linearGradient><path d="m0 0h18v18h-18z" fill="#f0f3fa"/><path d="m6 9h-3l3-3z" fill="url(#a)"/><path d="m6 9h3l-3-3z" fill="url(#b)"/><path d="m9 6h3l-3 3z" fill="url(#c)"/><path d="m12 9h-3l3-3z" fill="url(#d)"/><path d="m9 12h-3l3-3z" fill="url(#e)"/><path d="m6 9h3l-3 3z" fill="url(#f)"/><path d="m12 9h3l-3 3z" fill="url(#g)"/><path d="m9 12h-3l3 3z" fill="url(#h)"/><path d="m12 9h-3l3 3z" fill="url(#i)"/><path d="m9 6h-3l3 3z" fill="url(#j)"/><path d="m9 6h3l-3-3z" fill="url(#k)"/><path d="m9 12h3l-3-3z" fill="url(#l)"/></svg>