<svg height="18" viewBox="0 0 18 18" width="18" xmlns="http://www.w3.org/2000/svg"><path d="m0 0h18v18h-18z" fill="#f0f3fa"/><path d="m3 10a1 1 0 1 0 0-2 1 1 0 0 0 0 2z" fill="#e60000"/><path d="m5.4 10a1 1 0 1 0 0-2 1 1 0 0 0 0 2z" fill="#651265"/><path d="m7.8 10a1 1 0 1 0 0-2 1 1 0 0 0 0 2z" fill="#fabb00"/><path d="m10.2 10a1 1 0 1 0 0-2 1 1 0 0 0 0 2z" fill="#666577"/><path d="m12.6 10a1 1 0 1 0 0-2 1 1 0 0 0 0 2z" fill="#f26522"/><path d="m15 10a1 1 0 1 0 0-2 1 1 0 0 0 0 2z" fill="#024"/></svg>