<svg fill="none" height="18" viewBox="0 0 18 18" width="18" xmlns="http://www.w3.org/2000/svg"><path d="m0 0h18v18h-18z" fill="#f0f3fa"/><g clip-rule="evenodd" fill="#009e3a" fill-rule="evenodd"><path d="m3.5 7c.27616 0 .5.22384.5.5s-.22384.5-.5.5-.5-.22384-.5-.5.22384-.5.5-.5z"/><path d="m3.49999 9h.00002c.275 0 .49999.26836.49999.59637v1.80723c0 .328-.22499.5964-.49999.5964h-.00002c-.275 0-.49999-.2684-.49999-.5964v-1.80723c0-.32801.22499-.59637.49999-.59637z"/><path d="m9.5 7c.27616 0 .5.22384.5.5s-.22384.5-.5.5-.5-.22384-.5-.5.22384-.5.5-.5z"/><path d="m9.49999 9h.00002c.275 0 .49999.26836.49999.59637v1.80723c0 .328-.22499.5964-.49999.5964h-.00002c-.275 0-.49999-.2684-.49999-.5964v-1.80723c0-.32801.22499-.59637.49999-.59637z"/><path d="m12.5 5c.275 0 .5.3097.5.68823v5.62357c0 .3785-.225.6882-.5.6882s-.5-.3097-.5-.6882v-5.62357c0-.37853.225-.68823.5-.68823z"/><path d="m11.6053 7h3.8052l.5895.5-.5579.5h-3.8368c-.3329 0-.6053-.225-.6053-.5s.2724-.5.6053-.5z"/><path d="m6.4442 7h.1116c.79431 0 1.4442.73786 1.4442 1.6711v2.6733c0 .3605-.19314.6556-.5.6556h-.01746c-.2894 0-.48254-.2774-.48254-.6174v-2.60313c0-.5-.08791-.77947-.48146-.77947-.39354 0-.51854.27947-.51854.77947v2.60313c0 .34-.19934.6174-.48877.6174h-.01123c-.30686 0-.5-.295-.5-.6556v-2.6733c0-.93327.64989-1.6711 1.4442-1.6711z"/></g></svg>