<svg height="18" viewBox="0 0 18 18" width="18" xmlns="http://www.w3.org/2000/svg"><path d="m0 0h18v18h-18z" fill="#00a88f"/><path d="m9.67 5.82a2.83 2.83 0 0 1 4 4l-3.87 3.84c-.44.44-.92.44-1.36 0l4.65-4.65c.32-.32.5-.75.5-1.2 0-1-.96-1.82-1.84-1.82-.46 0-.96.12-1.29.44l-3.1 2.87-1.43-1.1a.56.56 0 0 1 0-.79.57.57 0 0 1 .8 0l.67.59zm-5.34 0a2.83 2.83 0 0 1 3.87-.12l-.85.67c-.3-.24-.7-.36-1.1-.37a1.9 1.9 0 0 0 -1.38.5c-.33.32-.45.89-.45 1.32s.16.87.5 1.2l2.47 2.75 3.88-4.35a.57.57 0 0 1 .8 0c.22.22.22.58 0 .8l-4.68 4.78-3.06-3.19a2.8 2.8 0 0 1 0-3.99z" fill="#f0f3fa"/></svg>