<svg fill="none" height="18" width="18" xmlns="http://www.w3.org/2000/svg"><path d="m0 0h18v18h-18z" fill="#a30d33"/><path clip-rule="evenodd" d="m9.675 6.753 2.437.001c.384 0 .525.219.524.437 0 .22-.142.439-.524.439h-1.28c-.67.003-1.244.434-1.244 1.055l.003 3.376c0 .311-.256.562-.591.562s-.591-.251-.591-.562l.003-3.376c0-.642-.57-1.055-1.24-1.055l-1.284.003c-.383 0-.525-.221-.524-.442 0-.218.141-.437.524-.437h2.556c-.264-.887-1.142-1.754-2.18-1.754-1.235 0-2.264 1.038-2.264 2.187v4.233c0 .68.592 1.177 1.324 1.177.731 0 1.323-.5 1.323-1.179v-2.782c0-.251.17-.422.441-.422.27 0 .441.17.441.422v3.632c0 .68.74 1.232 1.471 1.232.732 0 1.389-.553 1.389-1.232v-3.633c0-.251.172-.456.443-.456.27 0 .39.205.39.456v2.848c0 .679.723 1.114 1.455 1.114.731 0 1.323-.435 1.323-1.114v-4.377c0-1.15-1.039-2.096-2.264-2.096-1.031 0-1.792.863-2.061 1.743z" fill="#fff" fill-rule="evenodd"/></svg>