<svg height="18" width="18" xmlns="http://www.w3.org/2000/svg"><path d="m0 0h18v18h-18z" fill="#264355"/><path d="m3.484 6h5.866l-.17 1h-2.165l-1.36 6h-1.366l1.369-6h-2.345l.17-1z" fill="#fff"/><path d="m9.987 6.038h2.409c.67.017 1.367.069 1.874.425.915.641 1.15 1.726.86 3.044-.29 1.319-1.014 2.403-2.209 3.045-.661.355-1.385.422-2.055.448h-2.409zm-.353 5.962h1.467c1.014 0 1.639-.246 2.01-.645a3.686 3.686 0 0 0 .96-1.857c.145-.641.163-1.257-.136-1.856-.19-.39-.652-.642-1.657-.642h-1.467z" fill="#bababa"/></svg>