<svg height="18" viewBox="0 0 18 18" width="18" xmlns="http://www.w3.org/2000/svg" xmlns:xlink="http://www.w3.org/1999/xlink"><linearGradient id="a" gradientUnits="userSpaceOnUse" x1="5.01" x2="12.92" y1="11.87" y2="6.42"><stop offset=".01" stop-color="#70ccec"/><stop offset=".47" stop-color="#3899c4"/><stop offset="1" stop-color="#1aa787"/></linearGradient><path d="m0 0h18v18h-18z" fill="#f0f3fa"/><path d="m11.73 13.38a5.13 5.13 0 0 0 2.27-4.28c0-2.8-2.24-5.1-5-5.1-1.4 0-2.66.58-3.56 1.52 1.16.06 3.68.32 5.2.98 1.97.84 1.25 1.92.58 2.6-.22.23-.55.45-.9.66-.69.45-1.42.92-1.35 1.59.08.73 1.74 1.6 2.76 2.03zm-4.15.62a5.15 5.15 0 0 1 -2.47-8.1c1.09.2 5.08 1.01 5.15 1.78.05.51-.68.78-1.38 1.03-.36.12-.7.25-.93.4l-.07.04c-.68.45-1.69 1.1-1.73 2.57-.03.89.77 1.76 1.43 2.28z" fill="url(#a)"/></svg>