<svg height="18" viewBox="0 0 18 18" width="18" xmlns="http://www.w3.org/2000/svg"><path d="m0 0h18v18h-18z" fill="#f0f3fa"/><path d="m13.87 5.64c-1.12-.87-2.11-.04-3.04 1.36s-1.26 3.7-1.26 3.7a9.64 9.64 0 0 1 .92-4.45c.96-1.99 2.54-1.7 2.54-1.7a6 6 0 0 0 -8.06 0s1.58-.29 2.54 1.7c.66 1.4.97 2.92.92 4.45 0 0-.33-2.3-1.26-3.7s-1.92-2.23-3.04-1.36c-1.13.87-1.13 3.36-1.13 3.36a6 6 0 0 0 12 0s0-2.49-1.13-3.36zm-9.59 3.88s-.28-1.58.9-1.58 1.92 1.8 1.92 1.8c.48 1.27.81 2.58 1.01 3.92a4.76 4.76 0 0 1 -3.83-4.14zm9.44 0a4.76 4.76 0 0 1 -3.83 4.14c.2-1.34.54-2.65 1.01-3.92 0 0 .74-1.8 1.92-1.8s.9 1.58.9 1.58z" fill="#edaa00"/></svg>