<svg height="18" viewBox="0 0 18 18" width="18" xmlns="http://www.w3.org/2000/svg"><path d="m0 0h18v18h-18z" fill="#f0f3fa"/><path d="m9.7 10.17-.68-7-.02-.02h-.02l-.7 7-1.19.17v-.01l1.13-2.98h-.01a113.89 113.89 0 0 1 -.37.08l1.15-4.41h.01.01v.03a1100.5 1100.5 0 0 0 1.12 4.4l-.34-.1-.02.01 1.13 2.97v.01h-.01l-1.18-.15z" fill="#b3b2b2"/><path d="m9.7 10.17-.52-.07-.01-.02a10022.71 10022.71 0 0 0 -.17-5.06l-.02.3a1799.17 1799.17 0 0 0 -.17 4.78l-.53.07.7-7 .02-.01v.01zm-2.82-3.04.04-.1.04-.1a3595.44 3595.44 0 0 1 .86-2.28l-.59 3.47h-.02l-.24-.16-.14 2.4h-.01l-1.17.17c-.02 0-.03-.01-.02-.03a4796.6 4796.6 0 0 1 1.25-3.37z" fill="#929291"/><path d="m11.1 7.1c-.01-.06-.04-.11-.06-.17a5277.13 5277.13 0 0 0 -.84-2.2l-.01-.08c0-.01 0-.01 0 0l3.46 6.04-.9-.11-.02-.02z" fill="#d0d0d0"/><path d="m10.2 4.74c.02 0 .03.02.03.05h.01v.01l.8 2.13c.02.06.05.1.06.16l1.28 3.42c0 .01 0 .02-.02.02l-1.18-.16-.01-.02a2127.08 2127.08 0 0 1 -.15-2.38l-.22.15c-.02.01-.03 0-.03-.01z" fill="#929291"/><path d="m7.75 4.74h.02v.01a3595.44 3595.44 0 0 0 -.9 2.37l-1.6 3.44-.02.02a325.27 325.27 0 0 0 -.9.1z" fill="#d0d0d0"/><path d="m8.36 10.78-.08-.43.56-.08a.02.02 0 0 1 .02 0v.01l.02.35-.01.02-.5.13zm1.36-.43-.09.43-.5-.13v-.02l.01-.35h.01c0-.01 0-.01 0 0z" fill="#929291"/><path d="m8.28 10.35.08.43-1.15.32 1.02-.7v-.01l.01-.01v-.01h-.02zm1.44 0h.01v.03l.9.6.07.04c.04.02.07.05.09.08l-1.16-.32z" fill="#b3b2b2"/><path d="m9.73 10.35 3.91.57h.02v.02l.34 2.3c0 .02 0 .02-.02.01l-.08-.04a2727.46 2727.46 0 0 1 -2.64-1.8l-.12-.08v-.01h.01a589.52 589.52 0 0 1 1.97.43l-.06-.03a.28.28 0 0 0 -.06 0l-.13-.05-2.08-.57a.24.24 0 0 0 -.08-.08 1515.1 1515.1 0 0 1 -.97-.67zm-1.51.01.02.01v.02l-1.03.7a682.92 682.92 0 0 0 -2.16.6c-.04.03-.09.02-.13.04h.05l1.88-.41-.02.02a671.39 671.39 0 0 0 -2.83 1.9l.34-2.3.01-.02z" fill="#d0d0d0"/><path d="m9.6 10.97-.57 2.9c0 .04 0 .08-.06.08v-.02c0-.05 0-.12-.03-.21l-.54-2.75.48-.1h.01l.1 1.47a2.82 2.82 0 0 0 .02.2l.1-1.65c0-.02 0-.02.03-.02z" fill="#929291"/><path d="m8.4 10.97a2347.6 2347.6 0 0 1 .57 2.98l-1.12-2.15h-.01l-1.14.43v-.01l.11-.34c0-.02 0-.03-.02-.02l-2.76 1.37a672.08 672.08 0 0 1 2.82-1.92l1.55-.35zm1.2 0 1.55.34h-.01v.02l.12.08a2381.36 2381.36 0 0 0 2.64 1.8l-2.7-1.34c-.01 0-.02 0-.01.01l.12.34v.01a.01.01 0 0 1 -.02 0l-1.12-.42h-.02l-1.15 2.19a.07.07 0 0 1 -.03-.04c.06 0 .05-.04.06-.08l.57-2.9z" fill="#b3b2b2"/></svg>