<svg height="18" width="18" xmlns="http://www.w3.org/2000/svg"><path d="m0 0h18v18h-18z" fill="#e7b426"/><path d="m6.935 8.23a7.972 7.972 0 0 0 -.365.765s.183.435.369.775c.185.34.465.733.465.733l1.972-1.508-1.996-1.508s-.224.338-.445.744zm1.527-1.944c-.395.368-.724.755-.724.755l2.12 1.61 2.166-1.626-2.86-1.303s-.309.194-.702.564zm1.912 2.71 2.214 1.656 1.9-.97c.363-.199.516-.517.516-.71 0-.236-.119-.522-.49-.712l-1.888-.947zm-5.36 3.943s-.037 1.275.54 1.03l3.04-1.394s-.345-.267-.685-.606c-.34-.342-.62-.663-.62-.663l-2.276 1.634zm2.723-1.988s.329.385.724.755.701.588.701.588l2.826-1.357-2.129-1.595-2.122 1.61zm-2.085.218c-.34.605-.494.964-.494.964l1.798-1.272s-.168-.243-.28-.411c-.112-.171-.244-.421-.244-.421s-.44.533-.78 1.14zm-.258-7.168c-.423.015-.394 1.063-.394 1.063l2.275 1.632s.28-.323.621-.664c.34-.339.686-.581.686-.581l-3.042-1.421a.36.36 0 0 0 -.127-.03h-.019m-.25 1.867s.154.36.495.966c.339.607.78 1.14.78 1.14s.133-.25.245-.42c.11-.171.279-.412.279-.412l-1.8-1.274z" fill="#fff"/></svg>