<svg height="18" viewBox="0 0 18 18" width="18" xmlns="http://www.w3.org/2000/svg"><path d="m0 0h18v18h-18z" fill="#f0f3fa"/><path d="m9.57 3 .14.48h.46l-.37.3.14.48-.37-.3-.38.3.14-.48-.37-.3h.46zm-.12 2.94-2.45 1.12 2.51-.74v.16l-2.38 1.12 2.43-.76v-.27l2.38 1.1-2.43-.74v.18l-2.38 1.13 2.43-.76v-.28l2.38 1.08-2.43-.72v.2l-2.38 1.14 2.43-.76v-.3l2.38 1.1-2.43-.75v.22l-2.38 1.11 2.43-.76v-.33l2.38 1.11-2.44-.74v.2l-1.7.85.11.05 1.63-.5v-.34l2.39 1.12-2.43-.74v.23l-1.03.49.27.13.81-.25v-.32l2.38 1.09-2.43-.74v.23l-.35.18.4.2v-.33l2.38 1.1-2.43-.74v.25l2.43 1.11-2.43-.73v.25l2.43 1.11-2.43-.73v.25l2.43 1.12-2.43-.74v.25l2.5 1.15v-6.96l-2.4-.72v-1.44a.16.16 0 0 0 .13-.15.15.15 0 0 0 -.15-.16.15.15 0 0 0 -.15.16c0 .03 0 .06.02.08zm-2.45 3.83-2 1.02 2-.66v.24l1.95 1.01-1.95-.68v.22l1.95 1.03-1.95-.69v.23l1.95 1.01-1.95-.67v.25l1.95 1-1.95-.65v.23l2 1.03v-2.87l-2-.68v-.36zm0 .58-2 1.02 2-.66zm-2 1.59 2-1.02v.36zm2-.46-2 1.02 2-.66zm-2 1.6 2-1.01v.36l-2 .66zm2-.45-2 1.02 2-.66zm.99-7.43-.15-.47-.15.47h-.47l.38.28-.14.47.38-.29.38.3-.14-.48.38-.28zm3.27-.46.15.46h.47l-.38.3.14.46-.38-.29-.38.29.15-.47-.38-.29h.47z" fill="#04a6df"/></svg>