<svg height="18" viewBox="0 0 18 18" width="18" xmlns="http://www.w3.org/2000/svg" xmlns:xlink="http://www.w3.org/1999/xlink"><linearGradient id="a" gradientUnits="userSpaceOnUse" x1="0" x2="18" y1="13.5" y2="2.73"><stop offset="0" stop-color="#01506e"/><stop offset=".74" stop-color="#001a2b"/></linearGradient><path d="m0 0h18v18h-18z" fill="url(#a)"/><path d="m6.43 11.26-.93-.44a.94.94 0 0 1 -.5-.78v-1.83l.93.44c.28.13.5.48.5.78zm1.78 2.04-.93-.47a1 1 0 0 1 -.5-.82v-2.79l.94.47c.27.14.5.51.5.83v2.78zm1.79 1.7-.93-.45a.97.97 0 0 1 -.5-.8v-3.5l.93.45c.28.13.5.49.5.8zm2.53-5.45v.82c0 .24-.22.55-.5.69l-1.7.85v-.82c0-.24.23-.55.5-.69zm.74-2.06v.8c0 .23-.23.53-.5.67l-2.44 1.18v-.8c0-.23.23-.53.5-.67zm.73-2.06v.78c0 .23-.23.52-.5.66l-3.17 1.5v-.77c0-.23.23-.52.5-.66zm-5.75-.36.89-.48c.26-.14.71-.12 1.02.04l1.84.99-.89.47c-.26.14-.71.12-1.02-.04zm-2.62.65.87-.46c.26-.13.72-.11 1.01.04l2.62 1.35-.88.45c-.26.14-.72.12-1.01-.03zm-2.63.4.87-.5c.26-.16.71-.14 1 .03l3.39 1.95-.87.5c-.26.15-.71.14-1-.04z" fill="#f0f3fa"/></svg>