<svg height="18" viewBox="0 0 18 18" width="18" xmlns="http://www.w3.org/2000/svg"><path d="m13.38 4h-8.76a.62.62 0 0 0 -.62.62v8.76c0 .34.28.62.62.62h8.76c.34 0 .62-.28.62-.62v-8.76a.62.62 0 0 0 -.62-.62z" fill="#003"/><path d="m8.67 12.33h-2.07v-2.68h2.07c.18 0 .33-.14.33-.34s-.15-.31-.33-.31h-2.07v-1.65c0-.2-.12-.35-.3-.35s-.3.16-.3.35v5.3c0 .2.15.35.33.35h2.34c.18 0 .33-.14.33-.33 0-.2-.15-.34-.33-.34z" fill="#f0f3fa"/><path d="m12 7.26c0-.2-.14-.26-.3-.26h-2.1v-1.65c0-.2-.12-.35-.3-.35s-.3.16-.3.35v1.9c0 .2.14.42.32.42h2.08v2.66h-2.08c-.18 0-.32.14-.32.34s.14.33.32.33h2.38c.18 0 .3-.17.3-.37z" fill="#00aeef"/></svg>