<svg height="18" viewBox="0 0 18 18" width="18" xmlns="http://www.w3.org/2000/svg"><path d="m0 0h18v18h-18z" fill="#f0f3fa"/><path d="m8.5 6h-5l-.5 2h1.55l-.85 4h2.75c-.5-.2-.66-.3-.74-.53l.31-1.36c.37.28.87.6 1.5.6.68 0 1.14-.15 1.14-.5 0-.28-.24-.36-.76-.53l-.44-.15a1.5 1.5 0 0 1 -1.02-1.25v-.28h1.56z" fill="#f77822"/><path d="m10.59 6 .88.37-.44 1.46c-.08-.22-.45-.65-1.31-.65-.58 0-.98.2-.98.53 0 .1.21.17.5.26.64.2 1.63.62 1.63 1.63 0 1.48-1.49 2.4-1.92 2.4h2.97l1.08-4h1.47l.53-2z" fill="#004a9a"/></svg>