<svg height="18" width="18" xmlns="http://www.w3.org/2000/svg"><path d="m0 0h18v18h-18z" fill="#f0f3fa"/><path d="m5 7h1v-1h-3v1h1v3.6c-.02.43.1 1.33 1.23 1.4h3.69c.35 0 .99-.3 1.08-1.23v-1.47c0-.09-.03-.36-.22-.47l-2.15-1.12c-.05-.03-.14-.12-.13-.18v-.34c.01-.06.07-.19.22-.19h3.28v5h1v-2.5h1.5v2.5h1.27a.92.92 0 0 1 -.27-.6v-1.76c0-.14-.05-.5-.37-.73.15-.15.45-.46.45-.82v-1.22c-.02-.27-.46-.85-1.22-.87h-5.64c-.36 0-1.14.18-1.22 1.05v.74c-.01.15.11.5.51.73l1.85.91c.06.04.15.14.14.28v1c0 .07-.1.25-.48.29h-3.2c-.11 0-.33-.1-.32-.4zm7 0h1.62v1.5h-1.62z" fill="#0055a6"/></svg>