<svg height="18" width="18" xmlns="http://www.w3.org/2000/svg"><path d="m0 0h18v18h-18z" fill="#2b3a42"/><path d="m8.837 3h-.682c-.117 0-.152.115-.155.173v7.255c0 1.856 1.595 2.572 2.38 2.572h.42c.142 0 .193-.12.2-.18v-.613c0-.139-.06-.204-.113-.204h-.175c-1.236-.007-1.697-1.095-1.712-1.575v-4.425c.28.003.788 0 .871 0 .1 0 .133-.111.133-.18v-.612c0-.138-.068-.212-.133-.212h-.871v-1.826c0-.126-.108-.168-.163-.173zm1.953 11c-2.5.165-3.54-1.137-3.708-1.809-.03-.139-.125-.185-.169-.191-.192.002-.54.009-.714.013s-.205.12-.198.178c.57 3.047 4.586 2.804 4.788 2.804.162 0 .208-.117.211-.176v-.644c0-.124-.14-.169-.21-.176zm-3.897-9h-.765c-.128 0-.125.142-.128.183v.657c0 .119.082.15.128.16h.732c.115 0 .14-.093.14-.16v-.657c0-.118-.025-.167-.107-.183z" fill="#fff"/></svg>