<svg height="18" viewBox="0 0 18 18" width="18" xmlns="http://www.w3.org/2000/svg"><path d="m0 0h18v18h-18z" fill="#f0f3fa"/><path d="m3.22 8v3h.91v-3h1.22v-1h-3.35v1zm-1.07-.16h1.22v3.02h.63v-3.02h1.2v-.7h-3.05zm4.72-.84h-1.04l1.37 4h.8l.8-2.41.84 2.41h.78l1.41-4h-.97l-.82 2.36-.8-2.36h-.8l-.8 2.36zm1.67.14-.9 2.7-.88-2.7h-.72l1.27 3.72h.58l.91-2.73.95 2.73h.57l1.3-3.72h-.65l-.93 2.68-.92-2.68zm5.46 3.72a1.86 1.86 0 1 0 0-3.72 1.86 1.86 0 0 0 0 3.72zm1.29-1.86a1.29 1.29 0 1 1 -2.58 0 1.29 1.29 0 0 1 2.58 0zm.71 0a2 2 0 1 1 -4 0 2 2 0 0 1 4 0zm-.86 0a1.14 1.14 0 1 1 -2.28 0 1.14 1.14 0 0 1 2.28 0z" fill-rule="evenodd"/></svg>