<svg height="18" viewBox="0 0 18 18" width="18" xmlns="http://www.w3.org/2000/svg"><path d="m0 0h18v18h-18z" fill="#f0f3fa"/><path d="m9 4.3a4.73 4.73 0 1 1 -.01 9.45 4.73 4.73 0 0 1 0-9.46z" fill="#fff"/><path d="m9 14a5 5 0 1 1 .01-10.01 5 5 0 0 1 -.01 10.01zm0-9.7a4.7 4.7 0 1 0 .01 9.41 4.7 4.7 0 0 0 -.01-9.41z" fill="#334851"/><path d="m9 4.59a4.42 4.42 0 1 0 .01 8.83 4.42 4.42 0 0 0 -.01-8.82z" fill="#334851"/><path d="m7.42 12.14a.1.1 0 0 1 .02.07l-.03.06a.14.14 0 0 1 -.14.04.22.22 0 0 1 -.08-.03l-.05-.04-.08.1-.06-.05.26-.29.1.08a.2.2 0 0 1 .06.06zm-.13.1.05-.01c.02-.02.02-.03.02-.05a.09.09 0 0 0 -.04-.05l-.05-.03-.08.1.04.03a.1.1 0 0 0 .06.02zm.39.39-.16-.08-.06.04-.07-.03.34-.25.07.03-.06.4-.07-.04v-.07zm0-.06.03-.17-.14.11.12.06zm.5.31-.02-.14h-.02l-.06-.02-.05.12-.07-.02.12-.35.14.04c.05.01.09.03.1.06a.1.1 0 0 1 .02.1.12.12 0 0 1 -.1.08l.02.16zm-.02-.2a.1.1 0 0 0 .07 0c.01 0 .03-.01.03-.03v-.05c-.01-.01-.03-.03-.06-.03l-.06-.02-.04.12zm.72.02-.13-.02-.05.3-.07-.01.04-.3-.13-.02v-.06l.34.04v.06zm.56-.1.03.37-.09.01-.22-.25.02.26-.08.01-.03-.37h.1l.21.25-.02-.27h.08zm.29.01.02.08.2-.05.02.06-.2.05.03.1.22-.06.02.06-.3.08-.1-.36.29-.08.02.07zm.76.06-.12-.08h-.02l-.06.03.07.11-.07.03-.19-.33.13-.06a.2.2 0 0 1 .13-.02c.03.01.06.03.08.06l.02.07a.1.1 0 0 1 -.03.06l.13.1zm-.17-.13c.03-.01.04-.03.05-.04v-.05a.06.06 0 0 0 -.04-.03l-.07.01-.06.03.06.1zm.47-.06a.12.12 0 0 1 -.1-.05l.07-.04.04.02c.02 0 .05-.01.07-.03a.12.12 0 0 0 .05-.05v-.04l-.04-.02-.03.01a.68.68 0 0 0 -.05.02.65.65 0 0 1 -.08.04h-.06a.1.1 0 0 1 -.06-.04c-.02-.02-.03-.05-.02-.08 0-.04.04-.07.08-.1a.26.26 0 0 1 .08-.04h.07a.1.1 0 0 1 .06.04l-.06.04c-.01-.01-.03-.02-.05-.01a.14.14 0 0 0 -.06.02.12.12 0 0 0 -.04.05v.04l.03.01a.1.1 0 0 0 .04 0l.05-.03a.7.7 0 0 1 .07-.03h.07a.1.1 0 0 1 .05.03.1.1 0 0 1 .03.1l-.08.09a.23.23 0 0 1 -.13.05m-3.67-6.83.06.08.2-.12.03.06-.2.12.07.1.22-.14.04.07-.29.18-.25-.37.3-.18.04.06zm.9-.51.17.41-.1.04-.33-.23.12.3-.08.03-.16-.41.1-.04.32.23-.12-.3zm.52-.03.02.1.23-.03v.07l-.23.03.02.12.26-.03v.07l-.34.04-.06-.44.36-.04.01.08-.26.03zm.9.35-.06-.15h-.02l-.06-.01-.02.15-.09-.01.05-.44.16.02c.06 0 .1.02.14.05.03.03.04.06.04.1s-.02.06-.03.08a.13.13 0 0 1 -.07.05l.07.17h-.1zm-.07-.22c.03 0 .06 0 .07-.02a.07.07 0 0 0 .03-.05c0-.02 0-.04-.02-.05a.12.12 0 0 0 -.07-.03h-.07l-.01.14h.07zm.94.2-.08.22-.07-.02.02-.05a.2.2 0 0 1 -.17 0 .25.25 0 0 1 -.11-.06.19.19 0 0 1 -.05-.1l.01-.12a.24.24 0 0 1 .07-.1.2.2 0 0 1 .1-.05h.13c.06.03.1.06.13.1.03.03.04.08.03.13l-.09-.03a.1.1 0 0 0 -.02-.07.16.16 0 0 0 -.07-.05.14.14 0 0 0 -.12 0 .15.15 0 0 0 -.07.1.15.15 0 0 0 0 .11c.02.04.05.06.09.07.03.01.06.02.1 0a.12.12 0 0 0 .06-.05l-.13-.04.03-.06zm.39.3-.08.13-.07-.05.07-.12.02-.34.08.05-.01.23.2-.12.09.05z" fill="#b99660"/><g fill="#fff"><path d="m5 8.33h.8v1.67h.4v-1.67h.8v-.33h-2z"/><path d="m11 8.94c0-.52.45-.94 1-.94s1 .42 1 .94-.45.94-1 .94-1-.42-1-.94zm.33 0c0-.34.3-.63.67-.63s.67.29.67.63c0 .35-.3.63-.67.63s-.67-.28-.67-.63z" fill-rule="evenodd"/><path d="m11 11-1.72-2.02 1.72-1.98h-.52l-1.48 1.68-1.42-1.68h-.58l1.7 1.99-1.7 2.01h.52l1.48-1.67 1.4 1.67z"/></g></svg>