<svg height="18" width="18" xmlns="http://www.w3.org/2000/svg"><path d="m0 0h18v18h-18z" fill="#02a0de"/><g fill="#fff"><path d="m5.65 4.356h-.65v.645h.65zm1 3.294h-.65v.65h.65zm.036-1.65h-.65v.65h.65zm.667-.656h-.666v.656h.666zm-.053 1.656h-.65v.65h.65zm.703-1h-.65v.65h.65z"/><path d="m5 6h.65v3h.352v-.4h.648v1.4h.7v-2h.65v3.634s-.11 1.532 1.508 2.366c-1.663-.004-4.508-.667-4.508-3.644z"/><path d="m8.569 12.054s.058 1.212 1.437 1.84c1.268 0 2.994-.925 2.994-3.732 0 0-1.249 3.08-4.431 1.892z"/><path d="m10 12s2.168-.145 3-2.77v-4.23s-3 .377-3 2z"/></g></svg>