<svg height="18" viewBox="0 0 18 18" width="18" xmlns="http://www.w3.org/2000/svg"><path d="m0 0h18v18h-18z" fill="#f0f3fa"/><path d="m15 9a6 6 0 1 1 -12 0 6 6 0 0 1 12 0zm-.5 0a5.5 5.5 0 1 1 -11 0 5.5 5.5 0 0 1 11 0zm-5.47-5c-.98.4-2.95 1.22-3.03 1.27v7.4l3.03 1.33 2.97-1.32v-7.4zm.72 1.8h-1.5l.76-1.13.74 1.12zm-2.15-.03-.7-.23 1.27-.73zm2.1-.94.76.92.54-.23-1.3-.7zm.05 7.38h-1.5l.76 1.13zm-2.15.02-.7.22 1.27.73zm2.1.93.76-.92.54.23-1.3.7zm-2.96-6.92.75.36v4.78l-.75.31zm3.75.36.75-.36v5.45l-.75-.31zm-.75-.1h-1.5v5h1.5z" fill="#405d53" fill-rule="evenodd"/></svg>