<svg height="18" viewBox="0 0 18 18" width="18" xmlns="http://www.w3.org/2000/svg"><path d="m0 0h18v18h-18z" fill="#f0f3fa"/><path d="m15 9a6 6 0 1 1 -12 0 6 6 0 0 1 12 0zm-6-5.3c-2.9 0-5.3 2.4-5.3 5.3s2.4 5.3 5.3 5.3 5.3-2.4 5.3-5.3-2.4-5.3-5.3-5.3z" fill="#233e99"/><path d="m9.01 9.6c-1.05-.32-1.81-.85-1.81-1.95 0-.48.3-1.07.3-1.73 0-.9-1.18-1.1-2.17 0a4.8 4.8 0 0 0 1.5 7.36c3.33 1.59 5.5-2.6 2.2-3.66" fill="#fcb034"/><path d="m11.91 7.77c.42.1.74.38 1.03.83.57.9.7 2.33-.31 3.54a3.1 3.1 0 0 1 -2.06 1.03 2.4 2.4 0 0 1 -1.73-.62c-.55-.54-.52-1.75.7-1.84a1.88 1.88 0 0 0 1.42-.85c.2-.33.36-1 .33-1.53-.02-.4.2-.67.62-.56z" fill="#f47b20"/></svg>