<svg height="18" width="18" xmlns="http://www.w3.org/2000/svg"><path d="m0 0h18v18h-18z" fill="#0050a9"/><g fill="#fff"><path d="m8.616 5.731a4.108 4.108 0 0 0 -2.048-.542c-1.865 0-3.568 1.462-3.568 3.72 0 2.261 1.84 4.091 4.11 4.091h4.112c-2.27 0-4.111-1.831-4.111-4.09 0-1.512.818-2.65 1.507-3.17z"/><path d="m9.384 12.269a4.109 4.109 0 0 0 2.048.542c1.864 0 3.568-1.462 3.568-3.72 0-2.261-1.84-4.091-4.11-4.091h-4.112c2.27 0 4.11 1.831 4.11 4.09 0 1.512-.819 2.651-1.507 3.171l.002.008z"/></g></svg>