<svg height="18" viewBox="0 0 18 18" width="18" xmlns="http://www.w3.org/2000/svg"><path d="m0 0h18v18h-18z" fill="#f0f3fa"/><path d="m11 4v4.13c-.28.14-.34.2-.66.2-.24 0-.44-.03-.65-.1.44-.25.73-.76.86-1.28.17-.96-.07-2.29-.96-2.74-.39-.17-.77-.21-1.21-.21h-2.38v8c0 2.08 1.62 3 3 3s3-.92 3-3v-8zm-2.07 3.64a.71.71 0 0 1 -.72-.7c0-.36.34-.69.72-.69.41 0 .73.33.73.7.03.36-.32.69-.73.69zm-1.93-2.64h1.2c.77 0 1.18.13 1.56.66-1.04-.46-2.06-.13-2.76.68zm4 6.96c0 1.62-1.31 2.04-2 2.04-.69.01-2-.39-2-2.04v-3.7c0-.82.13-.94.47-1.24.14.56.22.95.67 1.31a3.1 3.1 0 0 0 2.86.52z"/></svg>