<svg height="18" width="18" xmlns="http://www.w3.org/2000/svg" xmlns:xlink="http://www.w3.org/1999/xlink"><linearGradient id="a" gradientUnits="userSpaceOnUse" x1="8.856" x2="8.856" y1="13.995" y2="4.34"><stop offset="0" stop-color="#fff"/><stop offset=".054" stop-color="#fffefc"/><stop offset=".09" stop-color="#fefbf4"/><stop offset=".12" stop-color="#fdf5e5"/><stop offset=".147" stop-color="#fbedd0"/><stop offset=".172" stop-color="#f9e3b4"/><stop offset=".195" stop-color="#f7d793"/><stop offset=".217" stop-color="#f4c86b"/><stop offset=".247" stop-color="#efaf28"/></linearGradient><path d="m0 0h18v18h-18z" fill="#1a4687"/><path d="m9.235 4.927.294.019v4.594c0 1.041 0 1.756-.294 2.567-.206.57-.503.872-.852 1.049-.295.149-.639.132-.961.064.856-.097 1.225-.437 1.52-1.113.293-.676.293-1.351.293-2.297v-4.883l-.882.424h.294v4.054c0 .95.008 1.882-.162 2.433-.172.498-.455.764-.72.912-.272.152-.6.13-.902.055-.043 0-.085-.021-.128-.021.085.21.255.4.486.437.067.189.28.34.492.378.152.264.45.4.772.4.425.02.79-.152 1.13-.34 1.045-.666 1.385-2.107 1.385-4.077v-5.582l-.882.477zm1.17 4.656c0 1.425-.079 2.255-.434 2.93-.234.445-.558.798-.909 1.01-.342.205-.762.168-1.154.092.899 0 1.517-.652 1.768-1.237.252-.584.442-1.351.442-2.702v-5.199l.294.064v5.042h-.006z" fill="url(#a)"/><path d="m8.206 11.568c-.322 1.041-1.094 1.232-1.35 1.232-.449 0-.856-.265-.856-1.992v-4.376l2.353-1.08v4.324c0 .54.005 1.417-.147 1.892z" fill="#fff"/></svg>