<svg height="18" width="18" xmlns="http://www.w3.org/2000/svg"><path d="m0 0h18v18h-18z" fill="#8b572a"/><g fill="#fff"><path d="m13.233 6.5h-8.493l-.163.5h8.842l-.187-.5zm.443 2.35h-9.366l-.18.4h9.754l-.207-.4zm-.46 2.153h-8.41l-.05.497h8.46z"/><path d="m9 13.5a4.5 4.5 0 1 0 0-9 4.5 4.5 0 0 0 0 9zm0 .5a5 5 0 1 0 0-10 5 5 0 0 0 0 10z" fill-rule="evenodd"/><path d="m11.26 12.235c.61-.81 1-1.952 1-3.235s-.39-2.425-1-3.235c-.608-.81-1.41-1.265-2.257-1.265-.845 0-1.648.455-2.257 1.265-.608.81-1 1.952-1 3.235s.392 2.425 1 3.235c.61.81 1.412 1.265 2.257 1.265.846 0 1.649-.455 2.257-1.265zm-2.257 1.765c2.075 0 3.757-2.239 3.757-5s-1.682-5-3.757-5-3.757 2.239-3.757 5 1.682 5 3.757 5z" fill-rule="evenodd"/><path d="m9.92 12.347c.34-.832.56-2.015.56-3.347s-.22-2.516-.56-3.347c-.17-.417-.359-.721-.544-.913-.183-.191-.33-.24-.432-.24-.103 0-.249.049-.432.24-.185.192-.375.496-.544.913-.339.831-.56 2.015-.56 3.347s.221 2.515.56 3.347c.17.417.359.721.544.913.183.191.33.24.432.24.103 0 .249-.049.432-.24.185-.192.375-.496.545-.913zm-.975 1.653c1.125 0 2.036-2.239 2.036-5s-.911-5-2.036-5-2.037 2.239-2.037 5 .912 5 2.036 5z" fill-rule="evenodd"/><path d="m8.778 13.932v-9.91h.415v9.91zm-4.099-8.885c.12-.074.254-.058.295.028s.028.225 0 .244c-.506.348-1.44 1.582-1.508 3.58-.068 1.996.913 3.326 1.465 3.766.017.014.064.136 0 .249-.065.113-.215.087-.252.073-.383-.37-1.714-1.526-1.678-4.089.035-2.563 1.527-3.758 1.678-3.85zm8.642 0c-.12-.074-.254-.058-.295.028s-.027.225 0 .244c.506.348 1.44 1.582 1.508 3.58.068 1.996-.913 3.326-1.465 3.766-.017.014-.064.136 0 .249.065.113.215.087.252.073.383-.37 1.714-1.526 1.678-4.089-.035-2.563-1.527-3.758-1.678-3.85zm-10.778 1.352c.076-.11.221-.125.329-.063s.087.26.073.298c-1.087 2.647-.022 5.03 0 5.078.013.03.047.186-.082.28s-.302-.005-.32-.05c-1.173-2.905-.095-5.406 0-5.543zm12.914 0c-.076-.11-.221-.125-.329-.063-.107.062-.087.26-.073.298 1.087 2.647.022 5.03 0 5.078-.014.03-.047.186.082.28s.302-.005.32-.05c1.173-2.905.095-5.406 0-5.543z"/></g></svg>