<svg height="18" viewBox="0 0 18 18" width="18" xmlns="http://www.w3.org/2000/svg" xmlns:xlink="http://www.w3.org/1999/xlink"><linearGradient id="a"><stop offset="0" stop-color="#0165a3"/><stop offset="1" stop-color="#015581"/></linearGradient><linearGradient id="b" gradientUnits="userSpaceOnUse" x1="5.47" x2="5.47" xlink:href="#a" y1="4" y2="14"/><linearGradient id="c" gradientUnits="userSpaceOnUse" x1="12.53" x2="12.53" xlink:href="#a" y1="4" y2="14"/><linearGradient id="d" gradientUnits="userSpaceOnUse" x1="9" x2="9" y1="4" y2="13"><stop offset="0" stop-color="#f13224"/><stop offset="1" stop-color="#ffb858"/></linearGradient><path d="m0 0h18v18h-18z" fill="#f0f3fa"/><path d="m4 5.65c.05-1.23 1.45-1.61 2-1.65v7.62c0 1.36.53 2.15.94 2.38h-1.42a1.68 1.68 0 0 1 -1.52-1.67z" fill="url(#b)"/><path d="m14 5.65c-.05-1.23-1.45-1.61-2-1.65v7.62c0 1.36-.53 2.15-.94 2.38h1.42a1.68 1.68 0 0 0 1.52-1.67z" fill="url(#c)"/><path d="m7 4h4v7.66c0 .74-.64 1.34-1.43 1.34h-1.14c-.8 0-1.43-.6-1.43-1.34z" fill="url(#d)"/></svg>