<svg height="18" viewBox="0 0 18 18" width="18" xmlns="http://www.w3.org/2000/svg"><path d="m0 0h18v18h-18z" fill="#0c4c8a"/><path d="m16 11h-10.06l.65 1h9.41zm-13.34-4-.66-1h5.47l2.62 3.5h5.91v1h-6.34l-2.63-3.5z" fill="#fffeff"/><path d="m3.13 7.5h3.67l2.45 3h-3.98zm1.87 1 .7 1h1.55l-.87-1z" fill="#fffeff"/><path d="m16 6h-.46v3h.46z" fill="#fefefe"/><path d="m11.45 6h-.45v2.14c0 .29.23.86.9.86.7 0 .92-.57.92-.86v-2.14h-.46v1.93c0 .14 0 .64-.45.64-.46 0-.46-.5-.46-.64zm3.2.84a.41.41 0 0 0 -.14-.29.45.45 0 0 0 -.31-.1.5.5 0 0 0 -.23.05.36.36 0 0 0 -.2.33c0 .06.01.11.03.16.03.04.06.08.1.1.04.04.08.07.13.09l.14.05.23.07c.08.02.17.06.25.1.09.04.16.1.23.17.06.06.12.14.15.24.04.1.06.2.06.33 0 .17-.03.32-.1.45a.75.75 0 0 1 -.31.3 1 1 0 0 1 -.49.11c-.18 0-.34-.04-.48-.1a.76.76 0 0 1 -.31-.31c-.08-.14-.12-.3-.13-.5h.43c0 .1.03.19.07.26.05.07.1.12.18.15.07.03.15.05.24.05.1 0 .17-.02.24-.05a.41.41 0 0 0 .17-.15.4.4 0 0 0 .06-.22.32.32 0 0 0 -.05-.19.4.4 0 0 0 -.15-.12 1.26 1.26 0 0 0 -.22-.1l-.27-.08c-.2-.06-.35-.15-.47-.28a.73.73 0 0 1 -.16-.5c0-.17.03-.32.1-.45a.8.8 0 0 1 .32-.3.9.9 0 0 1 .45-.11c.16 0 .31.04.44.1.12.08.22.18.3.3.07.13.1.28.1.44z" fill="#fffeff"/></svg>