<svg fill="none" height="18" width="18" xmlns="http://www.w3.org/2000/svg"><path d="m0 0h18v18h-18z" fill="#313d49"/><path d="m14.981 7.277c-.293-1.056-3.209-1.14-6.511-.189-2.133.615-3.905 1.512-4.814 2.354h1.416c.663-.562 1.958-1.184 3.508-1.63 2.378-.686 4.525-.669 4.71 0 .062.222-.16.46-.482.746l1.542.001c.498-.462.736-.907.632-1.281z" fill="#ec1d58"/><path d="m11.063 9.94c-.301 1.154-.933 2.06-2.892 2.06s-2.13-.906-1.828-2.06l1.025-3.94h1.688l-1.126 4.343c-.12.462.03.734.482.734s.743-.271.864-.734l1.125-4.343h1.688z" fill="#fff"/><path clip-rule="evenodd" d="m14.348 8.553c-.91.843-2.683 1.74-4.817 2.356-3.304.954-6.22.87-6.512-.185-.104-.374.135-.82.634-1.282h1.417c-.355.301-.424.586-.36.82.186.668 2.16.653 4.54-.034 1.588-.458 2.909-1.1 3.556-1.675z" fill="#ec1d58" fill-rule="evenodd"/></svg>