<svg height="18" width="18" xmlns="http://www.w3.org/2000/svg" xmlns:xlink="http://www.w3.org/1999/xlink"><linearGradient id="a" gradientUnits="userSpaceOnUse" x1="3.349" x2="21.904" y1="3.122" y2="24.434"><stop offset="0" stop-color="#1a1e21"/><stop offset="1" stop-color="#06060a"/></linearGradient><path d="m0 0h18v18h-18z" fill="url(#a)"/><path d="m4 5h1.5v6.072c0 .352.155.595.515.595.34 0 .485-.22.485-.595v-6.072h1.53v5.884c0 1.543-1.031 2.116-2.015 2.116-.947 0-2.015-.573-2.015-2.116zm6.5 4.81c0 1.666.605 1.857 1 1.857s1-.191 1-1.856v-1.622c0-1.665-.605-1.856-1-1.856s-1 .191-1 1.856v1.622zm1-4.81c1.513 0 2.5.962 2.5 4s-.987 4-2.5 4-2.5-.962-2.5-4 .987-4 2.5-4z" fill="#fff"/></svg>