<svg height="18" width="18" xmlns="http://www.w3.org/2000/svg"><path d="m0 0h18v18h-18z" fill="#008fff"/><path d="m12.904 4.5c-.204 0-.592.261-1.056.734s-.848 1.02-.848 1.86v3.078c0 1.238-.824 1.828-2.002 1.828-1.177 0-1.998-.59-1.998-1.828v-3.078c0-.841-.255-1.387-.718-1.86-.464-.474-.978-.734-1.183-.734a.092.092 0 0 0 -.071.028.096.096 0 0 0 -.028.072v5.774c0 2.505 2.13 3.356 3.998 3.356 1.872 0 4.002-.85 4.002-3.356v-5.774a.096.096 0 0 0 -.058-.093.091.091 0 0 0 -.038-.007z" fill="#fff"/></svg>