<svg height="18" viewBox="0 0 18 18" width="18" xmlns="http://www.w3.org/2000/svg"><path d="m0 0h18v18h-18z" fill="#323e48"/><path d="m4 6h-.5v1.38h.2v.7h.3v-.7h.19v-1.38h-.2zm.73 0h-.2v2.42h.2v1.04h.3v-1.04h.19v-2.42h-.5zm.83 0h.69v3.46h-.2v1.39h-.3v-1.39h-.19zm1.24 0h-.2v4.15h.2v2.08h.3v-2.08h.2v-4.15zm.83 0h.7v5.2h-.2v2.42h-.3v-2.43h-.2z" fill="#a5bac9"/><path d="m9.34 6h-.69v6.23h.2v2.77h.3v-2.77h.2v-6.23zm.84 0h.2v5.2h-.2v2.42h-.3v-2.43h-.2v-5.19zm1.23 0h-.7v4.31h.2v1.92h.3v-1.92h.2zm.83 0h.2v3.46h-.2v1.39h-.3v-1.39h-.19v-3.46h.5zm1.23 0h-.69v2.42h.2v1.04h.3v-1.04h.19zm1.03 0h-.69v1.38h.2v.7h.3v-.7h.19z" fill="#fff"/></svg>