<svg height="18" viewBox="0 0 18 18" width="18" xmlns="http://www.w3.org/2000/svg"><path d="m0 0h18v18h-18z" fill="#f0f3fa"/><path d="m13.85 6.86-4.43 1.98c-.55.25-.56.74-.04 1.03l3.7 2.02a.9.9 0 0 0 1-.1.66.66 0 0 0 -.02-1.04l-.6-.49a.83.83 0 0 1 .04-1.36l1.2-.87c.32-.22.4-.61.18-.91a.85.85 0 0 0 -1.03-.26z" fill="#7bbd26"/><path d="m10.2 5.08c-2.36 1.2-5.39 2.74-6.92 3.5-.34.17-.38.9-.07 1.11l4.52 3.07c.84.56 1.95.1 2.19-.92l.27-1.12-1.2-.79c-.58-.39-.57-1.06.05-1.4.55-.3 1.23-.69 1.93-1.1l.34-1.39c.16-.68-.5-1.26-1.11-.96zm-6.1 4.82c.17.16.49.12.7-.1.22-.21.26-.53.1-.7-.17-.16-.49-.12-.7.1-.22.21-.26.53-.1.7z" fill="#00489a" fill-rule="evenodd"/></svg>