<svg height="18" viewBox="0 0 18 18" width="18" xmlns="http://www.w3.org/2000/svg"><path d="m0 0h18v18h-18z" fill="#f0f3fa"/><path d="m5.1 4.68-.95 2.55c.4-.3 1.03-.23 1.3-.15l4.83 1.56c-.3-.97-.91-3.06-1.05-3.62a1.01 1.01 0 0 0 -.9-.76l-1.6-.23c-1.08-.16-1.53.35-1.63.65z" fill="#8ec43e"/><path d="m11.06 5.2-1.76-.3c.28.17.45.4.5.5l1.15 3.94-5.1-1.62c-.9-.22-1.29.15-1.37.37l-.4 1.15a1.87 1.87 0 0 0 .82 2.08l4.14 2.33c.17.09.53.36 1.08.35.55 0 1.01-.35 1.13-.49l2.33-2.66c.64-.7.43-1.52.24-1.85l-1.58-2.88a1.74 1.74 0 0 0 -1.17-.91z" fill="#005480"/></svg>