<svg height="18" width="18" xmlns="http://www.w3.org/2000/svg"><path d="m0 0h18v18h-18z" fill="#036db3"/><path d="m9.17 8.97.27.9c1.37-3.35 2.55-4.2 3.12-4.38a5.08 5.08 0 0 0 -.41-.37c-.52.13-1.6.87-2.98 3.85zm4.12-2.54c-.1-.16-.2-.32-.32-.47-.65.21-1.83 1.12-3.44 4.24l.23 1c1.62-3.31 2.83-4.41 3.53-4.77zm-4.29 2.05c.96-2.66 2.08-3.5 2.6-3.75a5 5 0 0 0 -5.2 0c.52.24 1.64 1.09 2.6 3.75zm-.44 1.38.27-.9c-1.37-2.96-2.46-3.69-2.98-3.83a3.5 3.5 0 0 0 -.4.37c.56.18 1.74 1.03 3.11 4.37zm.44 3.01c-2.3-3.83-3.76-5.27-4.6-5.82a5 5 0 1 0 9.2 0c-.83.54-2.3 2-4.6 5.82zm-.76-1.66c.07-.36.15-.7.23-1-1.61-3.14-2.8-4.04-3.44-4.26l-.32.48c.7.36 1.91 1.46 3.53 4.77zm.7-.06c-.13-.27-.25-.53-.38-.77l-.32.83.4.83.3-.9zm.42.9-.36-.78-.36.78.36.8zm-.03-1.93-.33-.78-.33.78.33.88.33-.87zm.03 1.93-.3-.9.37-.77.33.83z" fill="#94d4eb"/></svg>