<svg height="18" viewBox="0 0 18 18" width="18" xmlns="http://www.w3.org/2000/svg"><path d="m0 0h18v18h-18z" fill="#f0f3fa"/><path d="m9 12.33c3.44 0 6.23-1.27 6.23-2.85 0-.82-.75-1.56-1.96-2.08 1.66.57 2.73 1.47 2.73 2.48 0 1.72-3.13 3.12-7 3.12s-7-1.4-7-3.12c0-1 1.04-1.88 2.66-2.45-1.18.52-1.9 1.24-1.9 2.05 0 1.58 2.79 2.85 6.23 2.85z" fill="#13b6b3"/><path d="m7.8 5h-2.37v.38h.7c.64 1.32 2 4.73 2.6 6.34l2.2-4.48c.45-.92.97-1.57 1.18-1.86h.46v-.38h-1.77v.38h.43c.03.32-.36 1.12-.57 1.56l-1.7 3.54-1.48-3.8c-.31-.87-.4-1.3-.4-1.3h.72z" fill="#236997"/></svg>