<svg height="18" viewBox="0 0 18 18" width="18" xmlns="http://www.w3.org/2000/svg"><path d="m0 0h18v18h-18z" fill="#f0f3fa"/><path d="m7.52 11.76c-.11-.1-.21-.22-.3-.35l1.53 2.42c.14.23.36.23.5 0l1.53-2.42a2.18 2.18 0 0 1 -1.78.91c-.58 0-1.1-.21-1.48-.56z" fill="#016d4a"/><path d="m7.52 11.76c.38.35.9.56 1.48.56a2.18 2.18 0 0 0 1.78-.91l.06-.1c.16-.26.25-.57.25-.9 0-1.05-.74-2.23-2.12-3.1-1.37.87-2.06 2.05-2.06 3.1 0 .33.1.64.25.91l.06.09c.09.13.19.25.3.35z" fill="#009b4d"/><path d="m4.31 6c-.28-.01-.39.17-.25.4l3.1 4.92a1.78 1.78 0 0 1 -.25-.9c0-1.06.69-2.24 2.06-3.11a9.36 9.36 0 0 0 -4.67-1.31z" fill="#17b5ea"/><path d="m10.84 11.32 3.1-4.93c.14-.22.03-.4-.25-.39-2.03.07-3.6.59-4.72 1.3 1.38.88 2.12 2.06 2.12 3.11 0 .33-.1.64-.25.9z" fill="#7dbb47"/></svg>