<svg height="18" viewBox="0 0 18 18" width="18" xmlns="http://www.w3.org/2000/svg"><path d="m0 0h18v18h-18z" fill="#f0f3fa"/><path d="m14.92 8.33c.41.6-.78 1.84-2.67 2.77-1.89.92-3.76 1.18-4.17.57-.41-.6.78-1.84 2.67-2.77 1.89-.92 3.76-1.18 4.17-.57zm-9.19-1.83.13-.5.55 1.38-.14.37zm-.55 1v.25h-1.36l1.36.75-.54 1.5-.41.25.54-1.63-1.77-1.12z" fill="#0272b1"/><path d="m11.73 9a3 3 0 1 1 -6 0 3 3 0 0 1 6 0zm-3.69-1.36h-1.63l.13-.28h1.78zm-.54 2.45-.68-1.77-.28.27.28.68-.68-.4-.14.4z" fill="#e81b54" fill-rule="evenodd"/></svg>