<svg height="18" viewBox="0 0 18 18" width="18" xmlns="http://www.w3.org/2000/svg"><path d="m0 0h18v18h-18z" fill="#f0f3fa"/><path d="m11.69 6c.17 0 .31.15.31.32 0 .05-.01.1-.03.13l-2.64 6.3c-.07.14-.13.25-.33.25-.18 0-.26-.1-.33-.25l-2.64-6.3a.4.4 0 0 1 -.03-.13c0-.17.14-.32.31-.32a.3.3 0 0 1 .3.2l2.39 5.75 2.38-5.75c.06-.13.17-.2.3-.2z" fill="#425568"/><path d="m13.87 11.04c.12.1.17.3.1.45-1 2.1-2.87 3.51-5 3.51-2.09 0-3.92-1.47-4.93-3.5-.08-.16-.04-.36.09-.45.04-.04.1-.05.15-.05.08 0 .17.06.21.16.92 1.84 2.59 3.17 4.48 3.17 1.94 0 3.62-1.26 4.53-3.17.08-.15.24-.2.37-.12z" fill="#a5bcce"/><path d="m13.84 5.96c.15-.08.2-.25.12-.39a5.91 5.91 0 0 0 -4.99-2.57 6 6 0 0 0 -4.92 2.57c-.1.13-.05.3.1.39a.4.4 0 0 0 .18.04c.1 0 .2-.05.26-.14a5.31 5.31 0 0 1 4.38-2.26c1.9 0 3.55.89 4.44 2.26.08.13.28.18.43.1z" fill="#c6d981"/></svg>