<svg height="18" viewBox="0 0 18 18" width="18" xmlns="http://www.w3.org/2000/svg"><path d="m0 0h18v18h-18z" fill="#f0f3fa"/><path d="m14.11 10.6c-2.42-.26-3.25-1.37-3.33-1.52l-.04-.08.04-.08c.08-.13.9-1.26 3.33-1.53.25.52.54 1.05.89 1.59-.35.58-.64 1.11-.89 1.63zm-10.22 0a13.8 13.8 0 0 0 -.89-1.57c.35-.56.64-1.1.89-1.59 2.42.25 3.25 1.36 3.35 1.49l.04.08-.04.08c-.1.13-.93 1.26-3.35 1.53z" fill="#a690b3"/><path d="m11.5 13.76c-1.54-1.91-1.32-3.28-1.3-3.44l.02-.08s.03-.02.09-.02c.06-.02.18-.02.35-.02.55 0 1.66.16 3.08 1.32-.18.53-.35 1.1-.51 1.75-.64.12-1.2.29-1.73.5z" fill="#7c5d90"/><path d="m7.34 7.82c-.55 0-1.66-.16-3.08-1.31.18-.54.35-1.12.51-1.76.64-.14 1.21-.3 1.75-.5 1.54 1.93 1.32 3.29 1.3 3.45l-.02.08s-.02.02-.09.02c-.08.02-.2.02-.37.02zm3.32 0-.35-.02-.09-.02s-.02-.02-.02-.08c-.02-.14-.24-1.52 1.3-3.44.54.18 1.11.35 1.75.51.14.64.3 1.22.51 1.76-1.44 1.13-2.55 1.3-3.1 1.3z" fill="#c0b0ca"/><path d="m6.52 13.76c-.54-.18-1.11-.35-1.75-.51a12.6 12.6 0 0 0 -.51-1.76c1.42-1.15 2.55-1.31 3.08-1.31l.35.02.09.02s.02.02.02.08c.04.16.24 1.55-1.28 3.46z" fill="#7c5d90"/><path d="m9.01 7.27-.08-.04c-.13-.09-1.26-.91-1.52-3.34.51-.25 1.04-.54 1.58-.89.56.35 1.1.64 1.58.89-.26 2.43-1.37 3.25-1.52 3.34-.02.04-.04.04-.04.04z" fill="#dad1e0"/><path d="m9.01 15c-.56-.35-1.09-.64-1.58-.89.26-2.43 1.37-3.25 1.52-3.34l.08-.04.08.04c.13.09 1.26.91 1.53 3.34-.56.27-1.07.56-1.63.89z" fill="#522d6d"/></svg>