<svg height="18" width="18" xmlns="http://www.w3.org/2000/svg"><path d="m0 0h18v18h-18z" fill="#a9c145"/><path d="m6.75 4.673-.17-.483 1.379-1.19.197.595-.731.596.928.028.197.595zm-2.1 2.134-.416-.292.428-1.778.505.367-.248.914.77-.524.504.368zm-.429 2.989-.507.018-.714-1.682.622-.01.345.88.305-.884.622-.01zm1.444 2.675-.4.316-1.56-.936.497-.378.794.508-.27-.896.496-.378zm2.675 1.392-.15.489-1.81.126.194-.596.94-.038-.728-.58.194-.597zm2.967-.543.171.481-1.37 1.199-.201-.594.727-.6-.928-.023-.2-.594 1.8.131zm2.048-2.14.416.292-.428 1.778-.505-.367.248-.914-.77.524-.504-.367 1.543-.945zm.452-3.013.507-.01.686 1.696h-.623l-.33-.887-.319.879h-.622l.701-1.677zm-1.414-2.683.399-.316 1.56.933-.495.38-.794-.507.271.895-.496.38zm-2.668-1.351.15-.488 1.81-.13-.194.597-.939.04.73.579-.194.596z" fill="#fff"/></svg>