<svg height="18" viewBox="0 0 18 18" width="18" xmlns="http://www.w3.org/2000/svg"><path d="m0 0h18v18h-18z" fill="#f0f3fa"/><path d="m9 4c-.27 0-.52.1-.7.27-.2.17-.3.4-.3.65v8.16c0 .24.1.48.3.65a1.04 1.04 0 0 0 1.41 0c.18-.17.29-.4.29-.65v-8.16c0-.24-.1-.48-.3-.65a1.04 1.04 0 0 0 -.7-.27zm-4.7 2.28a1.03 1.03 0 0 1 1.41 0c.18.17.29.41.29.66v5.12c0 .25-.1.49-.3.66a1.03 1.03 0 0 1 -1.41 0 .92.92 0 0 1 -.29-.66v-5.12c0-.25.1-.49.3-.66zm9.7 5.78v-5.12c0-.25-.1-.49-.3-.66a1.03 1.03 0 0 0 -.7-.28c-.27 0-.52.1-.7.28a.92.92 0 0 0 -.3.66v5.12c0 .25.1.49.3.66a1.03 1.03 0 0 0 1.41 0c.18-.17.29-.41.29-.66z" fill="#a3a7aa"/><path d="m9.02 14c-.18 0-.35-.04-.5-.12a.96.96 0 0 1 -.38-.3.78.78 0 0 1 -.02-.87l3.97-6.26a1 1 0 0 1 .6-.42c.27-.06.55-.03.78.08.24.11.41.3.49.52.07.22.04.46-.09.67l-3.96 6.25a.95.95 0 0 1 -.38.33c-.15.08-.33.12-.51.12z" fill="#6fd44e"/><path d="m9.88 5.46-3.98 7.03c-.13.23-.35.4-.6.47-.27.07-.54.04-.78-.08a1 1 0 0 1 -.49-.59.96.96 0 0 1 .08-.75l3.99-7.03a1 1 0 0 1 .6-.47 1.05 1.05 0 0 1 1.09.33.98.98 0 0 1 .21.72.96.96 0 0 1 -.11.37z" fill="#003970"/></svg>