<svg height="18" width="18" xmlns="http://www.w3.org/2000/svg" xmlns:xlink="http://www.w3.org/1999/xlink"><linearGradient id="a" gradientUnits="userSpaceOnUse" x1="3.35" x2="21.9" y1="3.12" y2="24.43"><stop offset="0" stop-color="#1a1e21"/><stop offset="1" stop-color="#06060a"/></linearGradient><linearGradient id="b" gradientUnits="userSpaceOnUse" x1="6.78" x2="4.05" y1="6.93" y2="12.38"><stop offset=".08" stop-color="#fa7daa"/><stop offset="1" stop-color="#ef3177"/></linearGradient><linearGradient id="c" gradientUnits="userSpaceOnUse" x1="11.39" x2="13.77" y1="12.29" y2="6.74"><stop offset="0" stop-color="#f85792"/><stop offset="1" stop-color="#fdaecb"/></linearGradient><linearGradient id="d" gradientUnits="userSpaceOnUse" x1="9.02" x2="9.02" y1="5.05" y2="12.46"><stop offset="0" stop-color="#fff"/><stop offset="1" stop-color="#c0c1c3"/></linearGradient><path d="m0 0h18v18h-18z" fill="url(#a)"/><path d="m5.47 9.89 2.35-2.73v2.14l-2.52 2.95a.92.92 0 0 1 -.52.25c-.54.03-.77-.41-.77-.73v-4.41c0-.23.22-.71.74-.71s.73.48.73.71v2.53z" fill="url(#b)"/><path d="m12.53 9.26-2.35 2.72v-2.14l2.52-2.94a.92.92 0 0 1 .52-.25c.54-.03.77.4.77.73v4.4c0 .24-.22.72-.74.72s-.73-.49-.73-.71v-2.53z" fill="url(#c)"/><path d="m9 6.45c.4 0 .74-.32.74-.72a.734.734 0 0 0 -1.47 0c0 .4.32.72.73.72zm0 .2c-.4 0-.73.33-.73.73v4.38a.74.74 0 1 0 1.47 0v-4.38c0-.4-.33-.73-.74-.73z" fill="url(#d)"/></svg>