<svg height="18" width="18" xmlns="http://www.w3.org/2000/svg"><path d="m0 0h18v18h-18z" fill="#f0f3fa"/><path d="m11.38 11.48c-4.13 3.2-8.22-2.3-7.6-5.38a.02.02 0 0 0 -.03-.01 6 6 0 0 0 2.16 8.05.6.6 0 0 0 .25.1c.78.2 3.42.53 5.24-2.74a.02.02 0 0 0 -.02-.02z" fill="#703e97"/><path d="m9.96 5.7c4.84 1.97 2.11 8.27-.86 9.27-.01 0-.02.01-.01.02l.01.01a6 6 0 0 0 5.9-5.9c0-.08-.01-.18-.04-.26-.22-.78-1.25-3.22-5-3.17a.01.01 0 0 0 0 .03z" fill="#f1cb14"/><g fill="#2a276e"><path d="m5.66 9.82c-.71-5.18 6.1-5.96 8.46-3.89a.01.01 0 1 0 .03-.02 6 6 0 0 0 -8.06-2.16.95.95 0 0 0 -.21.17c-.57.58-2.17 2.7-.25 5.91a.02.02 0 0 0 .03-.01z"/><circle cx="9" cy="9" fill-opacity=".6" r="2.67"/></g></svg>