<svg height="18" viewBox="0 0 18 18" width="18" xmlns="http://www.w3.org/2000/svg"><path d="m0 0h18v18h-18z" fill="#f0f3fa"/><path d="m4.89 4.8 1.13 2.42-2.5-.34a.46.46 0 0 0 -.52.42c-.02.24.13.46.36.52l3.97.9c.16.04.32-.02.43-.14a.5.5 0 0 0 .05-.57l-2.18-3.68a.4.4 0 0 0 -.66-.06l-.02.02a.48.48 0 0 0 -.06.51z" fill="#057b80"/><path d="m9.48 4.22-.82 1.98-1.1-1.77a.35.35 0 0 0 -.5-.1c-.16.1-.2.31-.12.48l1.52 3c.06.12.18.2.3.2.17.01.32-.1.37-.26l1-3.29a.36.36 0 0 0 -.02-.27.33.33 0 0 0 -.29-.18h-.01a.35.35 0 0 0 -.33.22zm-4.21 7.7 1.63-.82-.24 1.85c-.03.19.1.36.28.38.16.02.3-.1.35-.26l.64-2.92a.35.35 0 0 0 -.1-.32.3.3 0 0 0 -.38-.05l-2.49 1.59a.32.32 0 0 0 -.04.49c.1.1.24.12.35.06z" fill="#22ac90"/><path d="m8.67 14.7.82-2.44 1.47 2.03c.14.2.43.25.62.08.17-.14.21-.4.1-.6l-2.09-3.47a.43.43 0 0 0 -.37-.22c-.2 0-.37.15-.42.35l-.94 4.05c-.03.11 0 .23.05.33.08.12.21.2.36.19h.01c.18-.01.33-.13.39-.3z" fill="#057b80"/><path d="m14.67 9.51-2.66-.98 2.22-1.76a.54.54 0 0 0 .09-.74.48.48 0 0 0 -.66-.12l-3.79 2.5a.53.53 0 0 0 -.23.44c0 .24.16.45.38.5l4.42 1.13c.12.03.24.01.35-.06.14-.1.22-.26.21-.43v-.02a.51.51 0 0 0 -.33-.46z" fill="#037c4d"/></svg>