<svg height="18" viewBox="0 0 18 18" width="18" xmlns="http://www.w3.org/2000/svg" xmlns:xlink="http://www.w3.org/1999/xlink"><linearGradient id="a" gradientUnits="userSpaceOnUse" x1="15.46" x2="6.56" y1="7.22" y2="10.36"><stop offset="0" stop-color="#499fd8"/><stop offset="1" stop-color="#115fa1"/></linearGradient><linearGradient id="b" gradientUnits="userSpaceOnUse" x1="15.73" x2="11.25" y1="9.18" y2="10.58"><stop offset="0" stop-color="#dfe0e2"/><stop offset=".48" stop-color="#bbbcbe"/><stop offset="1" stop-color="#999a9e"/></linearGradient><linearGradient id="c" gradientUnits="userSpaceOnUse" x1="2.98" x2="8.04" y1="6.51" y2="11.84"><stop offset="0" stop-color="#1b67a5"/><stop offset="1" stop-color="#4499d2"/></linearGradient><linearGradient id="d" gradientUnits="userSpaceOnUse" x1="12.42" x2="8.01" y1="9.75" y2="12.52"><stop offset="0" stop-color="#e3e4e6"/><stop offset=".53" stop-color="#aaabaf"/><stop offset=".9" stop-color="#898a8e"/></linearGradient><path d="m0 0h18v18h-18z" fill="#f0f3fa"/><path d="m9.17 6.5-2.63 4.32c.34 1.4 1.36.82 1.82.35l1.85-3.17h3.66c1.46-.06 2.03.59 2.13.96 0-2.21-1.43-2.4-2.24-2.46h-4.6z" fill="url(#a)"/><path d="m13.7 9.75h-.77c-.63.13-1.4 1.04-1.72 1.53h2.17c1.78 0 2.5-1.09 2.5-1.67 0-1.17-1.02-1.26-1.83-1.21.47.67.06 1.35-.35 1.35z" fill="url(#b)"/><path d="m5.5 12.38-3.5-5.88h2.1l2.48 4.26c.76 1.25 1.6.62 1.93.15l-.83 1.37c-.2.24-.5.71-1.1.72-.57 0-.91-.37-1.08-.62z" fill="url(#c)"/><path d="m10.22 9.75-2.04 3.25h2l.93-1.46a4.23 4.23 0 0 1 1.9-1.8h-2.79z" fill="url(#d)"/></svg>