<svg height="18" viewBox="0 0 18 18" width="18" xmlns="http://www.w3.org/2000/svg" xmlns:xlink="http://www.w3.org/1999/xlink"><linearGradient id="a" gradientUnits="userSpaceOnUse" x1="13.76" x2="8.69" y1="2.77" y2="13.88"><stop offset="0" stop-color="#cdcbcc"/><stop offset=".4" stop-color="#6c6a6b"/><stop offset=".55" stop-color="#f0f5f5"/><stop offset=".66" stop-color="#d0d3d5"/><stop offset=".75" stop-color="#535152"/></linearGradient><linearGradient id="b"><stop offset="0" stop-color="#fdfdfd"/><stop offset=".57" stop-color="#c2c0c1"/><stop offset=".77" stop-color="#292829"/><stop offset=".89" stop-color="#cbcbcb"/></linearGradient><linearGradient id="c" gradientUnits="userSpaceOnUse" x1="13.55" x2="10.72" xlink:href="#b" y1="4.41" y2="13.84"/><linearGradient id="d" gradientUnits="userSpaceOnUse" x1="11.27" x2="9.85" y1="10.14" y2="13.22"><stop offset="0" stop-color="#585657"/><stop offset=".43" stop-color="#726e70"/><stop offset=".62" stop-color="#b1acaf"/><stop offset=".78" stop-color="#605e5f"/><stop offset="1" stop-color="#d4d2d3"/></linearGradient><linearGradient id="e" gradientUnits="userSpaceOnUse" x1="4.24" x2="9.31" y1="2.77" y2="13.88"><stop offset="0" stop-color="#cdcbcc"/><stop offset=".34" stop-color="#444343"/><stop offset=".4" stop-color="#6c6a6b"/><stop offset=".57" stop-color="#8c8a8b"/><stop offset=".67" stop-color="#ccc"/></linearGradient><linearGradient id="f" gradientUnits="userSpaceOnUse" x1="4.45" x2="7.28" xlink:href="#b" y1="4.41" y2="13.84"/><linearGradient id="g" gradientUnits="userSpaceOnUse" x1="6.73" x2="8.15" y1="10.14" y2="13.22"><stop offset=".43" stop-color="#726e70"/><stop offset=".62" stop-color="#b1acaf"/><stop offset=".78" stop-color="#605e5f"/><stop offset="1" stop-color="#d4d2d3"/></linearGradient><linearGradient id="h" gradientUnits="userSpaceOnUse" x1="6.08" x2="8.94" y1="7.07" y2="9.77"><stop offset="0" stop-color="#c1c1c1"/><stop offset=".41" stop-color="#eceaeb"/><stop offset=".68" stop-color="#8f8b8a"/></linearGradient><linearGradient id="i" gradientUnits="userSpaceOnUse" x1="7.94" x2="12.09" y1="9.32" y2="8.48"><stop offset=".15" stop-color="#504c4e"/><stop offset=".38" stop-color="#cecccd"/><stop offset=".67" stop-color="#efedee"/><stop offset=".99" stop-color="#524e50"/></linearGradient><path d="m0 0h18v18h-18z" fill="#14161a"/><path d="m11.89 9.93-2.09 3.07c1.04 0 3.14-1.48 3.74-2.66.41-.82.66-2.26 0-3.89-.41-1.02-1.86-2.45-2.69-2.45.28.14.96.53 1.45 1.02.63.62 1.04 1.84 1.04 3.07s-1.24 2.46-1.45 2.66c-.17.16-.07-.48 0-.82z" fill="url(#a)"/><path d="m13.96 7.68c-.18-1.83-2.06-3.68-3.11-3.68 1.25.2 2.5 2.05 2.7 2.66s.43 2.07 0 3.07c-.62 1.43-1.92 1.9-2.7 2.25l-1.04 1.02c.63-.07 1.87-.4 2.7-1.23a4.54 4.54 0 0 0 1.45-4.09z" fill="url(#c)"/><path d="m10.85 11.98-1.04 1.02 2.08-3.07z" fill="url(#d)"/><path d="m6.11 9.93 2.09 3.07c-1.04 0-3.14-1.48-3.74-2.66a4.79 4.79 0 0 1 0-3.89c.41-1.02 1.86-2.45 2.69-2.45-.28.14-.96.53-1.45 1.02-.63.62-1.04 1.84-1.04 3.07s1.24 2.46 1.45 2.66c.17.16.07-.48 0-.82z" fill="url(#e)"/><path d="m4.04 7.68c.18-1.83 2.06-3.68 3.11-3.68-1.25.2-2.5 2.05-2.7 2.66s-.43 2.07 0 3.07c.62 1.43 1.92 1.9 2.7 2.25l1.04 1.02a4.95 4.95 0 0 1 -2.7-1.23 4.54 4.54 0 0 1 -1.45-4.09z" fill="url(#f)"/><path d="m7.15 11.98 1.04 1.02-2.09-3.07 1.04 2.05z" fill="url(#g)"/><path d="m9.19 10.14-2.7-3.28 3.53 2.05z" fill="url(#h)"/><path d="m11.68 6.86-2.48 3.28-1.05-1.24 3.53-2.05z" fill="url(#i)"/></svg>