<svg height="18" width="18" xmlns="http://www.w3.org/2000/svg"><path d="m0 0h18v18h-18z" fill="#f0f3fa"/><path d="m13.94 6.94-1.21-1.65c-.09-.12-.23-.12-.32 0l-1.73 2.34-1.68 2.3v4.07l.61-.83 4.32-5.81c.09-.11.1-.3 0-.42z" fill="#ff753a"/><path d="m7.32 7.65-1.73-2.36c-.1-.12-.23-.12-.32 0l-1.2 1.65a.39.39 0 0 0 0 .42l1.35 1.82 3.58 4.82v-4.07z" fill="#ffb025"/><path d="m7.32 7.64 1.68 2.29 1.68-2.3 1-1.35-1.13-1.54c-.07-.09-.17-.09-.24 0l-.23.31c-.06.09-.17.09-.23 0l-.73-.99c-.06-.08-.16-.08-.23 0l-.72 1c-.07.08-.17.08-.24 0l-.23-.32c-.06-.09-.17-.09-.23 0l-1.16 1.54 1 1.36zm1.68-2.94c0-.1.08-.12.14-.04l1.2 1.64c.06.08.03.12-.06.1l-.43-.15c-.1-.03-.18.03-.18.13v.29c0 .1-.05.12-.1.04l-.43-.61a.74.74 0 0 1 -.14-.35z" fill="#006dae"/></svg>