<svg height="18" viewBox="0 0 18 18" width="18" xmlns="http://www.w3.org/2000/svg"><path d="m0 0h18v18h-18z" fill="#f0f3fa"/><path d="m6.83 10.46 2.18-3.46 2.13 3.45a2.33 2.33 0 0 1 -1.98 3.55h-.4a2.3 2.3 0 0 1 -1.94-3.54z" fill="#e5bf44"/><path d="m6.42 10.26a3 3 0 0 0 -.29 1.27l-1.73-2.72c-.59-.92-.5-2.12.2-2.95a2.45 2.45 0 0 1 3.92.24l.24.37c-.68 1.09-2.1 3.36-2.33 3.8z" fill="#abc27c"/><path d="m11.58 10.26a3 3 0 0 1 .29 1.27l1.74-2.72c.59-.92.5-2.12-.2-2.95a2.45 2.45 0 0 0 -3.92.24l-.24.37c.68 1.09 2.1 3.36 2.33 3.8z" fill="#8faaa1"/></svg>