<svg fill="none" height="18" width="18" xmlns="http://www.w3.org/2000/svg" xmlns:xlink="http://www.w3.org/1999/xlink"><linearGradient id="a" gradientUnits="userSpaceOnUse" x1="3.349" x2="21.904" y1="3.122" y2="24.434"><stop offset="0" stop-color="#1a1e21"/><stop offset="1" stop-color="#06060a"/></linearGradient><path d="m0 0h18v18h-18z" fill="url(#a)"/><path d="m12 8.362a.826.826 0 0 1 -.07.201l-2.106 3.104c-.132.202-.458.333-.83.333s-.698-.13-.83-.333l-2.122-3.167a.61.61 0 0 1 -.042-.136v-3.364h-2v3.236c0 .456.242.904.446 1.2l2.28 3.562c.411.618 1.364 1.002 2.268 1.002.953 0 1.822-.387 2.226-1.002l2.303-3.488c.257-.393.477-.787.477-1.274v-3.236h-2z" fill="#fff"/></svg>