<svg height="18" width="18" xmlns="http://www.w3.org/2000/svg"><path d="m0 0h18v18h-18z" fill="#f0f3fa"/><ellipse cx="9" cy="9" fill="#231f20" rx="8" ry="3"/><path d="m3.9 7.9c0-.19.15-.34.34-.34h.8c.12 0 .24.07.3.18l1.03 1.91 1.04-1.91a.35.35 0 0 1 .3-.18h.78a.35.35 0 1 1 0 .7h-.56l-1.25 2.3a.35.35 0 0 1 -.62 0l-1.24-2.3h-.58a.35.35 0 0 1 -.35-.35z" fill="#ff9c21"/><path d="m9.71 8.82a.65.65 0 0 1 1.3 0v1.57c0 .19.17.35.36.35.2 0 .35-.16.35-.35v-1.57a.66.66 0 0 1 1.32 0v1.57a.35.35 0 1 0 .7 0v-1.57a1.36 1.36 0 0 0 -2.37-.91 1.35 1.35 0 0 0 -2.36.9v1.58a.35.35 0 1 0 .7 0z" fill="#fff"/></svg>