<svg height="18" viewBox="0 0 18 18" width="18" xmlns="http://www.w3.org/2000/svg"><path d="m0 0h18v18h-18z" fill="#f0f3fa"/><path d="m5.88 7h.98l-1.42 4h-1.04l-1.4-4h.97c.32.97-.02.04.96 3 .93-3 .65-2.06.95-3zm5.12 2c0 1.1-.65 2-2 2s-2-.9-2-2c0-1.12.66-2 2.02-2 1.37 0 1.98.9 1.98 2zm-3 0c0 .6.19 1.33 1.02 1.33.84 0 .98-.72.98-1.33 0-.6-.16-1.33-1-1.33s-1 .72-1 1.33zm5.71-1.33c-.82 0-1 .72-1 1.33 0 .64.1 1.32.96 1.32.36 0 .89-.07 1.33-.21v.7c-.39.13-1 .19-1.41.19-1.36 0-2.01-.88-2.01-2s.79-2 2.11-2c.46 0 .89.12 1.31.26l-.3.67c-.3-.13-.66-.26-.99-.26z" fill="#4fa609"/></svg>