<svg height="18" viewBox="0 0 18 18" width="18" xmlns="http://www.w3.org/2000/svg"><path d="m0 0h18v18h-18z" fill="#3266bc"/><path d="m14 9c0-2.75-2.25-5-5-5s-5 2.25-5 5a5 5 0 0 0 10 0zm-6.56 2.16-1.79-4.85c.34-.41.75-.77 1.21-1.03l1.29 3.72h1.78l1.23-3.7c.43.24.82.57 1.14.96l-1.82 4.9-.48-1.16h-2.04zm3.54 1.65 2.04-5.33a4.3 4.3 0 0 1 -2.04 5.33zm-.91.24.01.11a4.35 4.35 0 0 1 -2.23-.02v-.09l1.15-2.35zm-5.12-5.47 1.99 5.19a4.29 4.29 0 0 1 -2-5.2zm5.15-2.73a4.27 4.27 0 0 0 -2.18 0l1.08 3.2z" fill="#fff" fill-rule="evenodd"/></svg>