<svg height="18" width="18" xmlns="http://www.w3.org/2000/svg"><path d="m0 0h18v18h-18z" fill="#2a5e78"/><path d="m12.18 10s-.36-1.65-.4-1.96c-.05-.58.06-1.13.54-1.35.09-.04.12-.03.15.08l.77 3.09.75 3.01v.1c0 .02-.03.03-.09.03h-.8c-.07 0-.07 0-.09-.07-.16-.65-.32-1.14-.47-1.79-.02-.1-.05-.14-.14-.14h-2.7c-.08 0-.1-.01-.11-.05v-.08c.1-.63.64-.87 1.21-.87zm-8.18-4.88c0-.06.04-.12.1-.12h.74c.07 0 .1.02.13.1l1.08 4.71c.14.64.08 1.29-.48 1.5a.15.15 0 0 1 -.06.02c-.03 0-.04-.02-.06-.08l-.61-2.6c-.27-1.17-.57-2.35-.84-3.53zm8.23.79c.02.04-.01.09-.05.09h-1.58c-.48 0-.55.3-.65.74l-.05.26c-.18.77-.36 1.73-.54 2.5-.14.6-.26 1.21-.42 1.8-.3 1.07-.79 1.7-1.77 1.7-.73 0-1.39-.12-1.7-1h1.63c.39 0 .65-.13.78-.54.14-.4.2-.73.3-1.14.25-1.1.6-2.55.84-3.65.25-1.07.66-1.69 1.71-1.67.7.01 1.25.14 1.5.91z" fill="#fff"/></svg>