<svg height="18" viewBox="0 0 18 18" width="18" xmlns="http://www.w3.org/2000/svg"><path d="m18 0h-18v18h18z" fill="#f0f3fa"/><path d="m7.88 7.75c.22 0 .43.03.63.1s.36.17.52.3c.16.14.28.31.35.5a2.13 2.13 0 0 1 0 1.44c-.09.23-.22.41-.4.54a1.84 1.84 0 0 1 -2.23-.01c-.17-.13-.3-.3-.38-.52-.08-.2-.12-.45-.12-.73 0-.27.04-.5.12-.7.08-.21.2-.39.36-.52.16-.14.33-.24.52-.3.2-.07.4-.1.63-.1zm0 2.6c.14 0 .27-.02.37-.06.1-.05.2-.11.26-.2.07-.1.13-.2.16-.32.04-.12.06-.26.06-.41 0-.17-.02-.31-.06-.43a.74.74 0 0 0 -.18-.3.83.83 0 0 0 -.61-.24.92.92 0 0 0 -.35.06c-.1.04-.2.1-.27.19a.76.76 0 0 0 -.18.3c-.04.12-.06.26-.06.43s.02.32.07.44c.03.12.1.22.17.3a.8.8 0 0 0 .62.25zm.3-2.42a1.97 1.97 0 0 0 -.88.07 1.48 1.48 0 0 0 -.48.27 1.08 1.08 0 0 0 -.31.46 2.14 2.14 0 0 0 0 1.3 1.12 1.12 0 0 0 .56.61 1.56 1.56 0 0 0 .52.18 1.87 1.87 0 0 0 .84-.07 1.65 1.65 0 0 0 .5-.26.96.96 0 0 0 .19-.2l.14-.25a2.42 2.42 0 0 0 .08-1.04 1.4 1.4 0 0 0 -.21-.53 1.43 1.43 0 0 0 -.94-.55zm-.08 2.57a1.24 1.24 0 0 1 -.43 0 .95.95 0 0 1 -.46-.23l-.03-.03-.01-.01a1 1 0 0 1 -.21-.36 1.9 1.9 0 0 1 0-1 1.01 1.01 0 0 1 .2-.35.96.96 0 0 1 .32-.22.95.95 0 0 1 .4-.07c.06 0 .13 0 .2.02a.96.96 0 0 1 .63.42 1.28 1.28 0 0 1 .14.43 1.82 1.82 0 0 1 -.04.72 1.05 1.05 0 0 1 -.19.37.83.83 0 0 1 -.52.3zm-1.92-2.57-1.23 3.07h-.65l-1.3-3.25h.8l.12.32a150.73 150.73 0 0 1 .7 1.87l.08-.2c.04-.05.4-1.03.62-1.61l.15-.38h.78zm-1.32 2.9 1.17-2.91h-.47l-.11.28a42.7 42.7 0 0 1 -.66 1.7v.01l-.04.1-.13.36-.12-.37a9.46 9.46 0 0 0 -.14-.37l-.01-.04v-.03c0-.02-.1-.3-.24-.62l-.31-.8-.09-.22h-.49l1.18 2.91zm10.93.17h-.68l-.73-1.12-.74 1.12h-.89l1.2-1.69-1.1-1.56h.89l.02.04a86.33 86.33 0 0 1 .6.93l.7-.97h.87l-1.13 1.53 1.2 1.72zm-3.93 0h.89l-1.2-1.72 1.13-1.53h-.88l-.68.97a18.83 18.83 0 0 0 -.6-.93l-.04-.04h-.88l1.1 1.56-1.2 1.69h.89l.74-1.12zm.6-.17h-.54l-.7-1.06-.1-.15-.09.15-.7 1.06h-.53l.99-1.4.07-.12-.07-.11-.9-1.28h.53a118.83 118.83 0 0 1 .54.81l.06.1.1.14.1-.14.64-.91h.52l-.92 1.25-.09.11.08.12z" fill="#2b2a29"/></svg>