<svg fill="none" height="18" viewBox="0 0 18 18" width="18" xmlns="http://www.w3.org/2000/svg" xmlns:xlink="http://www.w3.org/1999/xlink"><linearGradient id="a" gradientUnits="userSpaceOnUse" x1="9" x2="9" y1="4.3125" y2="12.75"><stop offset="0" stop-color="#bcbcc1"/><stop offset=".715247" stop-color="#5b5c5e"/></linearGradient><path d="m0 0h18v18h-18z" fill="#f0f3fa"/><g clip-rule="evenodd" fill-rule="evenodd"><path d="m12.7864 4h-7.57278c-.66749 0-1.21362.54613-1.21362 1.21362v7.57278c0 .6675.54613 1.2136 1.21362 1.2136h7.57278c.6675 0 1.2136-.5461 1.2136-1.2136v-7.57278c0-.66749-.5461-1.21362-1.2136-1.21362zm-.2366.3125h-7.09956c-.62577 0-1.13774.51197-1.13774 1.13774v7.09956c0 .6257.51197 1.1377 1.13774 1.1377h7.09956c.6257 0 1.1377-.512 1.1377-1.1377v-7.09956c0-.62577-.512-1.13774-1.1377-1.13774z" fill="#59595b"/><path d="m5.45024 4.3125h7.09956c.6257 0 1.1377.51197 1.1377 1.13774v7.09956c0 .6257-.512 1.1377-1.1377 1.1377h-7.09956c-.62577 0-1.13774-.512-1.13774-1.1377v-7.09956c0-.62577.51197-1.13774 1.13774-1.13774z" fill="#3b3b3b"/><path d="m5.45088 4.3125h7.10352c.5893 0 1.0778.45208 1.1331 1.02535-.6902 2.46207-2.2617 3.15544-5.83353 4.17011-2.30236.65404-3.19232 2.05574-3.51826 3.24204-.01523-.0736-.02321-.1497-.02321-.2276v-7.07594c0-.62369.51226-1.13396 1.13838-1.13396z" fill="url(#a)"/><path d="m9 6h-1.20131l-.79871 2.16872-.79867-2.16872h-1.20131l1.47308 4h1.05383z" fill="#f0f3fa"/><path d="m10.007 8.25564c.0624-.03135.5357-.25564 1.3188-.25564.842 0 1.6742.43518 1.6742 1.39815 0 .94405-.3627 1.57665-2 1.60115v1.0007h-1v-3.74074-.00535zm.993.34504v1.79882c.5847-.0059 1-.0822 1-.98346 0-.76874-.7162-.82374-1-.81536z" fill="#f0f3fa"/></g></svg>