<svg height="18" viewBox="0 0 18 18" width="18" xmlns="http://www.w3.org/2000/svg"><path d="m0 0h18v18h-18z" fill="#f0f3fa"/><path d="m9.14 14.9c-.05.1-.15.13-.23.08a12.13 12.13 0 0 1 -.46-.8.22.22 0 0 1 .03-.25c.99-1.8 1.99-3.63 3-5.42l1.21-2.19c.07-.11-.02-.32-.15-.32h-5.44c-.17 0-.36-.02-.43-.2l-.3-.5c-.06-.11.02-.3.15-.3h7.82c.1 0 .16.09.16.19 0 .03 0 .07-.02.09-1.79 3.18-3.57 6.4-5.34 9.63z" fill="#46c1be"/><path d="m7.87 10.93c.05.1.17.12.26.07a.13.13 0 0 0 .07-.07l.56-1.01 1.49-2.74c.06-.12.2-.18.32-.18h.65c.11 0 .2.11.2.21 0 .04-.02.07-.04.1l-3.18 5.8c-.05.1-.16.11-.26.06a.13.13 0 0 1 -.07-.07l-4.34-7.82c-.05-.07-.03-.2.03-.25.03-.01.07-.03.12-.03h.8a.2.2 0 0 1 .18.12l2.32 4.21c.28.52.58 1.05.9 1.6z" fill="#004a73"/></svg>