<svg height="18" viewBox="0 0 18 18" width="18" xmlns="http://www.w3.org/2000/svg"><path d="m0 0h18v18h-18z" fill="#f0f3fa"/><path d="m7.17 10.41c-.66.37-1.33 1.15-1.02 3.26.73-2.04 1.8-3.41 2.02-3.7-.13.09-.2.12-.3.15-.24.08-.48.17-.7.3z" fill="#f5a800"/><path d="m8.17 9.98-.02.03c-.26.34-1.3 1.69-2 3.66l.2-.11c.78-.45 2.54-1.46 1.97-3.1z" fill="#fdbd50"/><path d="m8.63 9.17v.35c.77-.5 2.2-1.95 2.86-3.04-1.38.39-3.09.89-2.86 2.7z" fill="#8dc6eb"/><path d="m11.5 6.48a12.16 12.16 0 0 1 -2.87 3.04c2.33-.08 2.56-1.37 2.8-2.7l.06-.34z" fill="#5eb3e4"/><path d="m8.32 9.22-.04.5s-.43-1.08-1.25-2.42a23.76 23.76 0 0 0 -2.52-3.3c.99.37 1.73.74 2.22 1.04 1.64 1.02 1.9 2.37 1.6 4.18z" fill="#ee7623"/><path d="m4.5 4a23.76 23.76 0 0 1 2.53 3.3c.82 1.34 1.25 2.42 1.25 2.42-.09-.04-.3-.08-.4-.09l-.28-.05c-1-.18-3.23-.55-3.1-5.58z" fill="#f8995c"/><path d="m8.56 10.17c0-.1-.08-.26-.1-.32a20.04 20.04 0 0 0 5.04 4.15s-1.78 0-3.04-.6c-1.24-.57-1.87-1.88-1.9-3.23z" fill="#00205c"/><path d="m8.56 10.17c.03 1.35.66 2.66 1.9 3.24 1.26.59 3.04.59 3.04.59-1.04-3.57-2.48-4.63-4.62-4.15-.2.04-.37.01-.43 0 2.1 2.52 5.05 4.15 5.05 4.15s-1.78 0-3.04-.6c-1.24-.57-1.87-1.88-1.9-3.23z" fill="#686f9a"/></svg>