<svg height="18" viewBox="0 0 18 18" width="18" xmlns="http://www.w3.org/2000/svg" xmlns:xlink="http://www.w3.org/1999/xlink"><linearGradient id="a" gradientUnits="userSpaceOnUse" x1="3.35" x2="21.9" y1="3.12" y2="24.43"><stop offset="0" stop-color="#1a1e21"/><stop offset="1" stop-color="#06060a"/></linearGradient><path d="m0 0h18v18h-18z" fill="url(#a)"/><path d="m10.65 11.5-.4 1h-.47c-.2.14-.31.5-.78.5s-.62-.36-.81-.5h-.43l-.4-1h.64c.24.25.63.53 1 .53.38 0 .76-.28 1-.53zm-4.2-5.5c.66.72 1.52 1 2.55 1a3.4 3.4 0 0 0 2.62-1h1.91l.47-1h-2.12c-.74.74-1.76 1-2.88 1s-2.14-.26-2.88-1h-2.12l.53 1zm2.55 7.6a.7.7 0 0 1 -.47-.16h-.33l.8 1.56.82-1.56h-.34a.72.72 0 0 1 -.48.15zm1.5-4.1c-.37.37-.94 1-1.5 1s-1.13-.63-1.5-1h-1.05l.47 1h.85c.31.27.73 1 1.23 1 .48 0 .92-.73 1.23-1h.85l.42-1zm1-2.84c-.6.67-1.55.84-2.5.84s-1.75-.17-2.34-.84h-1.77l.4.79h1.56a2.9 2.9 0 0 0 2.15 1.05c.85 0 1.65-.44 2.17-1.05h1.56l.53-.79zm-.48 1.34c-.48.53-1.26 1-2.02 1s-1.54-.47-2.02-1h-1.4l.57 1h1.2c.41.45 1 1 1.65 1s1.24-.55 1.65-1h1.2l.57-1z" fill="#0091d9"/></svg>