<svg height="18" viewBox="0 0 18 18" width="18" xmlns="http://www.w3.org/2000/svg" xmlns:xlink="http://www.w3.org/1999/xlink"><linearGradient id="a"><stop offset="0" stop-color="#a09d98"/><stop offset=".45" stop-color="#eceae6"/><stop offset="1" stop-color="#a6a29e"/></linearGradient><linearGradient id="b" gradientUnits="userSpaceOnUse" x1="11.75" x2="10.24" xlink:href="#a" y1="10" y2="12.17"/><linearGradient id="c" gradientUnits="userSpaceOnUse" x1="7.12" x2="8.76" xlink:href="#a" y1="9.75" y2="10.43"/><linearGradient id="d" gradientUnits="userSpaceOnUse" x1="10.12" x2="11.5" xlink:href="#a" y1="6.88" y2="9.12"/><linearGradient id="e" gradientUnits="userSpaceOnUse" x1="6.5" x2="5.62" y1="6.75" y2="8.62"><stop offset="0" stop-color="#a5a19c"/><stop offset=".62" stop-color="#eeece8"/><stop offset="1" stop-color="#a19e99"/></linearGradient><linearGradient id="f" gradientUnits="userSpaceOnUse" x1="9.37" x2="7.75" y1="7.38" y2="7.38"><stop offset="0" stop-color="#a5a19c"/><stop offset=".46" stop-color="#eeece8"/><stop offset="1" stop-color="#a19e99"/></linearGradient><path d="m0 0h18v18h-18z" fill="#f0f3fa"/><path d="m13.37 10.38-4.62-1.26 2 4.38 2.62-3.13z" fill="url(#b)"/><path d="m8.5 11.63.25-2.5-3 1.24z" fill="url(#c)"/><path d="m11 5.88-2 2.5-.25.75.25.12 3.75-.25z" fill="url(#d)"/><path d="m3.87 8.5 4.88.63-3.13-3.5z" fill="url(#e)"/><path d="m6.75 5.75 2 3.38 1.25-3.63z" fill="url(#f)"/><path d="m5.6 5.59c.3.27.13 1.13-.4 1.91-.54.78-1.23 1.19-1.55.91-.31-.27-.13-1.13.4-1.91.54-.78 1.23-1.19 1.55-.91z" fill="#e7c93d"/><path d="m10 5.48c.03.33-.67.67-1.57.75s-1.65-.12-1.68-.46c-.03-.33.67-.67 1.57-.75s1.65.12 1.68.46z" fill="#8a3d7b"/><path d="m13.84 6.59c.39.99.05 2.03-.75 2.33-.81.3-1.78-.26-2.18-1.26-.39-.99-.05-2.03.75-2.33.81-.3 1.78.26 2.18 1.26z" fill="#93b54d"/><path d="m13.53 12.97c-.67.92-1.77 1.3-2.48.83-.7-.47-.74-1.6-.08-2.52.67-.92 1.77-1.3 2.48-.83.7.47.74 1.6.08 2.52z" fill="#3fa1cd"/><path d="m8.45 11.91c-.2.8-1.09 1.26-1.96 1.03-.87-.22-1.4-1.05-1.2-1.85.22-.8 1.1-1.26 1.97-1.03.87.22 1.4 1.05 1.2 1.85z" fill="#b41d69"/></svg>