<svg height="18" viewBox="0 0 18 18" width="18" xmlns="http://www.w3.org/2000/svg"><path d="m0 0h18v18h-18z" fill="#f0f3fa"/><path d="m6.69 14c1.29-4.21-1.27-7.7-2.69-9h3.55l.24.9c-.25.21-.75.74-.75 1.84s.51 1.7.98 1.9c-.02.76-.16 2.62-.72 4.36h-.6zm1.81-4.02c-.03 1-.61 3.1-.9 4.02h.35c.42-.71 1.31-2.4 1.6-3.46-.26-.07-.81-.4-1.05-.56zm-.02 4.02c.65-1.03 1.99-3.54 2.92-9h2.6c-.71 1.96-2.68 6.5-4.9 9z" fill="#15497c"/><path d="m9.96 9.42-.2.63c-1.94-.64-2.34-1.92-2.3-2.47 0-1.87 2.37-2.66 3.59-2.57l-.42 2.04c-.58.09-1.73.42-1.73 1.1 0 .69.7 1.13 1.06 1.27z" fill="#008751"/></svg>