<svg height="18" viewBox="0 0 18 18" width="18" xmlns="http://www.w3.org/2000/svg"><path d="m0 0h18v18h-18z" fill="#f0f3fa"/><path d="m13 5h-8v8h8z" fill="#ffe412"/><g fill="#231f20"><path d="m13 11.42c0 1.08-.5 1.58-1.5 1.58h-5c-.78 0-1.5-.5-1.5-1.41v-5.09c0-1 .72-1.5 1.5-1.5h5c.78 0 1.5.5 1.5 1.5zm-1.5-7.42h-5a2.67 2.67 0 0 0 -2.5 2.5v5.04c0 1.15.8 2.46 2 2.46h6c1.17 0 2-1.43 2-2.58v-4.92c0-1.5-1.31-2.5-2.5-2.5z"/><path d="m11 7h1.38l-2.38 4h-.98v-2.17l-1.02 2.17h-1l-.53-4h1.53v2.39l1.02-2.39h.98v2.5z"/></g></svg>