<svg height="18" viewBox="0 0 18 18" width="18" xmlns="http://www.w3.org/2000/svg"><path d="m0 0h18v18h-18z" fill="#f0f3fa"/><g fill-rule="evenodd"><path d="m11.1 12.7c-.2.01-.39-.01-.57-.06-1.36-.4-2.07-2.3-1.6-4.26.48-1.95 1.97-3.2 3.33-2.8s2.07 2.3 1.6 4.25a4.82 4.82 0 0 1 -.62 1.45 4.81 4.81 0 0 1 -4.31 2.72 5.4 5.4 0 0 1 -3.03-1.08l1.6.15c.2.09.74.26 1.43.26.67 0 1.48-.27 2.16-.62zm2.24-3.22c-.32 1.62-1.46 2.73-2.55 2.47-1.09-.25-1.71-1.77-1.4-3.4.32-1.62 1.23-2.5 2.55-2.55 1 0 1.72 1.85 1.4 3.48z" fill="#075575"/><path d="m7.26 13.36c1.8 0 3.26-2.1 3.26-4.68 0-2.59-1.46-4.68-3.26-4.68s-3.26 2.1-3.26 4.68 1.46 4.68 3.26 4.68zm.2-.7c1.46-.08 2.57-1.94 2.47-4.15-.1-2.2-1.36-3.92-2.83-3.84-1.46.08-2.57 1.94-2.47 4.15.1 2.2 1.37 3.93 2.83 3.84z" fill="#689dd4"/></g></svg>