<svg height="18" viewBox="0 0 18 18" width="18" xmlns="http://www.w3.org/2000/svg"><path d="m0 0h18v18h-18z" fill="#0098d8"/><g fill="#fff"><path d="m2.75 7c-.18 0-.3.16-.23.3l2 4.5c.12.26.53.25.63 0l1.3-3.3 1.31 3.3c.1.26.52.27.63 0l1.88-4.5c.06-.14-.06-.3-.24-.3h-.35c-.1 0-.2.06-.24.15l-1.34 3.24-1.25-3.14a.42.42 0 0 0 -.4-.25c-.17 0-.33.1-.39.25l-1.25 3.17-1.47-3.28a.25.25 0 0 0 -.23-.14z"/><path d="m11.3 7a.3.3 0 0 0 -.3.3v4.4c0 .17.13.3.3.3h.23a.3.3 0 0 0 .3-.3v-1.37h1.5a1.67 1.67 0 1 0 0-3.33zm.53.83v1.67h1.5a.83.83 0 1 0 0-1.67z" fill-rule="evenodd"/></g></svg>