<svg height="18" viewBox="0 0 18 18" width="18" xmlns="http://www.w3.org/2000/svg"><path d="m0 0h18v18h-18z" fill="#3c6e8e"/><g fill="#fff"><path d="m3 7.95v-1.95h7.76c-.17.06-.84.38-2.11 1.08-1.6.87-3 1.22-3.89 1.22-.7 0-1.47-.24-1.76-.35z"/><path d="m3 10.21v-1.91c.18.23.99.7 2.82.7 2.3 0 3.7-1.4 5.47-2.27 1.42-.7 3.21-.75 3.71-.73v2.12a13 13 0 0 0 -1.59-.17c-.53 0-1.94 0-4.06 1.22-2.11 1.22-3 1.57-4.23 1.57-1 0-1.83-.35-2.12-.53z"/><path d="m5.82 11.43a4.79 4.79 0 0 1 -2.82-.87v1.92c.12.17.78.52 2.47.52 3.18 0 4.94-2.61 8.12-2.61.7 0 1.23.11 1.41.17v-2.05c-2.47 0-4.41 1.18-5.3 1.7a7.27 7.27 0 0 1 -3.88 1.22z"/></g></svg>