<svg height="18" width="18" xmlns="http://www.w3.org/2000/svg" xmlns:xlink="http://www.w3.org/1999/xlink"><linearGradient id="a" gradientUnits="userSpaceOnUse" x1="3.14" x2="15.54" y1="8.49" y2="8.61"><stop offset=".58" stop-color="#fff"/><stop offset=".88" stop-color="#d2d2d2"/></linearGradient><linearGradient id="b" gradientUnits="userSpaceOnUse" x1="3.19" x2="14.3" y1="9.19" y2="10.27"><stop offset=".71" stop-color="#d9d9d9"/><stop offset=".9" stop-color="#0f0f0f"/></linearGradient><linearGradient id="c" gradientUnits="userSpaceOnUse" x1="7.08" x2="7.08" y1="10.43" y2="11"><stop offset="0" stop-color="#d9d9d9"/><stop offset="1" stop-color="#090505"/></linearGradient><path d="m0 0h18v18h-18z" fill="#dd140a"/><path d="m3.18 8.33c-.2.12-.42.33-.47.37-.44.4-.62.83-.68 1.14.3-.27 2.62-1.51 4.33-1.37 1.37.12 4.19 1.01 5.42 1.44 1 .17 2.25-.09 2.75-.3.16-.04.61-.09.7-.15.1-.06.03-.3-.24-.3-.18 0-.35-.03-.6 0-.25.04-.25-.06-.22-.11l1.83-3.05h-1.5l-3.66 2.64c-.33.3-.97.13-1.26 0-1.77-.66-3.27-1-4.22-1-1.22.08-1.95.54-2.18.69z" fill="url(#a)"/><path d="m2 10.3.03-.48a8.17 8.17 0 0 1 4-1.38c1.53 0 4.33.96 5.77 1.47 0 0 2.2-.09 3.2-.31 0 0-.52.37-.87.53-.27.13-1.3.4-1.77.51-.63-.23-2.09-.62-2.78-.82h-.02c-.87-.25-2.16-.61-3.65-.64-1.2-.02-3.1.73-3.9 1.11z" fill="url(#b)"/><path d="m5.75 9.14a11.2 11.2 0 0 0 -3.75 1.15c0 .66.7.71 1.11.71h6.69c1.03 0 2.17-.26 2.6-.37l-1.83-.57c-.66-.25-3.18-.98-4.82-.92z" fill="url(#c)"/></svg>