<svg height="18" width="18" xmlns="http://www.w3.org/2000/svg" xmlns:xlink="http://www.w3.org/1999/xlink"><linearGradient id="a" gradientUnits="userSpaceOnUse" x1="13" x2="4.72" y1="4.28" y2="12.93"><stop offset="0" stop-color="#8bc53f"/><stop offset="1" stop-color="#0f9644"/></linearGradient><path d="m0 0h18v18h-18z" fill="#f0f3fa"/><path d="m5.48 9.48a.51.51 0 0 1 0-.72l3.18-3.24c.19-.2.5-.2.7 0l3.18 3.24c.19.2.19.52 0 .72l-3.18 3.24c-.2.2-.51.2-.7 0z" fill="#606060"/><path d="m5.94 3.75.73-.75.96.98a1.95 1.95 0 0 1 2.76 0l.94-.97.73.75-.94.96.74.75.94-.96.73.75-.94.96.74.75.94-.96.73.75-.94.96c.75.78.75 2.03 0 2.82l.7.71-.73.75-.7-.71-.74.75.7.71-.73.75-.7-.71-.74.75.7.71-.73.75-.7-.71c-.77.75-2 .75-2.76-.01l-.7.72-.74-.75.7-.72-.73-.75-.7.72-.74-.75.7-.72-.73-.75-.69.72-.74-.75.7-.72a2.05 2.05 0 0 1 0-2.8l-.96-.98.73-.75.96.98.74-.75-.96-.98.73-.75.96.98.74-.75zm-1.22 6.1a1.02 1.02 0 0 1 0-1.44l3.6-3.67a.98.98 0 0 1 1.4 0l3.59 3.67c.39.4.39 1.04 0 1.43l-3.6 3.67a.98.98 0 0 1 -1.4 0l-3.6-3.67z" fill="url(#a)" fill-rule="evenodd"/></svg>