<svg height="18" viewBox="0 0 18 18" width="18" xmlns="http://www.w3.org/2000/svg"><path d="m0 0h18v18h-18z" fill="#f0f3fa"/><path d="m9.95 6.75a1.75 1.75 0 1 1 3.5 0 1.75 1.75 0 0 1 -3.5 0z" fill="#0086cd"/><path d="m2 9.5c0-1.38 1.14-2.5 2.55-2.5h8.9c1.4 0 2.55 1.12 2.55 2.5s-1.14 2.5-2.55 2.5h-8.9a2.52 2.52 0 0 1 -2.55-2.5z" fill="#0086cd"/><path d="m2.33 9.45a2.3 2.3 0 0 1 2.35-2.22h8.66c1.3 0 2.36 1 2.36 2.22a2.3 2.3 0 0 1 -2.36 2.23h-8.66c-1.3 0-2.35-1-2.35-2.23z" fill="#fff"/><path d="m2.64 9.45c0-1.05.94-1.9 2.11-1.9h8.5c1.17 0 2.11.85 2.11 1.9 0 1.06-.94 1.91-2.11 1.91h-8.5c-1.17 0-2.11-.85-2.11-1.9z" fill="#0086cd"/><path d="m10.27 6.75a1.43 1.43 0 1 1 2.87 0 1.43 1.43 0 0 1 -2.87 0z" fill="#fff"/><path d="m11.7 5.64a1.11 1.11 0 1 0 0 2.22 1.11 1.11 0 0 0 0-2.22z" fill="#0b318f"/><path d="m11.23 6.74c0-.26.21-.47.47-.47.27 0 .48.21.48.47 0 .27-.21.48-.48.48a.47.47 0 0 1 -.47-.48z" fill="#fff"/><path d="m4 8.5h10v2h-10z" fill="#f0f3fa" fill-opacity=".9"/></svg>