<svg height="18" viewBox="0 0 18 18" width="18" xmlns="http://www.w3.org/2000/svg"><path d="m0 0h18v18h-18z" fill="#f0f3fa"/><path d="m13 9.8c0 1.77-1.8 3.2-4 3.2s-4-1.43-4-3.2 1.8-3.2 4-3.2 4 1.43 4 3.2z" fill="#21469c"/><path d="m2 7h5.74l.52 1.52.44-2.52h1.15l-.55.6.44 1.92.53-1.52h5.73l-6.14 3.44c-.08-.23-.37-.68-.85-.68-.61 0-.79.44-.88.67v.01zm4.9 5.63.98-1.45c.11.18.5.34.43-.07-.09-.36-.08-1.1.66-1.13.06 0 .65 0 .85.77-.15-.02-.44.01-.42.27.02.33.49.24.78.16l.97 1.45z" fill="#e50011"/></svg>