<svg height="18" width="18" xmlns="http://www.w3.org/2000/svg"><path d="m0 0h18v18h-18z" fill="#267e44"/><path d="m9.051 11.995h2.424s.469.069.772-.425c.385-.644 1.584-2.546 1.584-2.546s.371-.434.013-1.063a82.955 82.955 0 0 0 -1.198-1.901s.207.434-.096.928c-.427.689-2.865 4.686-2.865 4.686s-.193.3-.427.135c-.124-.09-.11-.21 0-.42.11-.209 1.212-1.93 1.212-1.93s.193-.27.207-.57c0-.239.013-.269-.138-.538-.18-.315-1.529-2.351-1.529-2.351s-1.35 2.036-1.53 2.35c-.165.285-.138.3-.138.54 0 .299.193.569.193.569s1.116 1.721 1.212 1.93c.11.21.124.33 0 .42-.234.18-.427-.135-.427-.135s-2.438-4.012-2.865-4.7c-.303-.48-.096-.914-.096-.914s-.88 1.362-1.197 1.9c-.372.63.014 1.063.014 1.063s1.198 1.902 1.583 2.546c.303.509.772.425.772.425h2.52z" fill="#fff"/></svg>