<svg height="18" viewBox="0 0 18 18" width="18" xmlns="http://www.w3.org/2000/svg"><path d="m0 0h18v18h-18z" fill="#f0f3fa"/><path d="m10.98 5h-.4a.15.15 0 0 0 -.13.1l-2.43 7.65-2.32-7.38a.51.51 0 0 0 -.48-.37h-1.7c-.36 0-.6.36-.5.7l2.48 7.98c.05.2.22.32.41.32h2.15c.2 0 .36-.13.42-.32l2.64-8.48c.03-.1-.04-.2-.14-.2z" fill="#09b5e7"/><path d="m14.85 5h-.4a.15.15 0 0 0 -.13.1l-2.43 7.65-2.31-7.38a.51.51 0 0 0 -.49-.37h-1.69c-.36 0-.6.36-.5.7l2.47 7.98c.06.2.23.32.42.32h2.15c.19 0 .36-.13.42-.32l2.64-8.48c.03-.1-.04-.2-.14-.2z" fill="#3a5896"/></svg>