<svg height="18" viewBox="0 0 18 18" width="18" xmlns="http://www.w3.org/2000/svg" xmlns:xlink="http://www.w3.org/1999/xlink"><linearGradient id="a" gradientUnits="userSpaceOnUse" x1="7.7" x2="3.71" y1="6.16" y2="8.11"><stop offset="0" stop-color="#fad103"/><stop offset=".7" stop-color="#8c500e"/></linearGradient><linearGradient id="b" gradientUnits="userSpaceOnUse" x1="8.24" x2="17.17" y1="6.65" y2="8.08"><stop offset=".39" stop-color="#9a630a"/><stop offset=".67" stop-color="#e5b40c"/></linearGradient><linearGradient id="c" gradientUnits="userSpaceOnUse" x1="10.24" x2="15.24" y1="8.67" y2="12.64"><stop offset=".19" stop-color="#feeb01"/><stop offset=".66" stop-color="#c87519"/><stop offset=".83" stop-color="#a56821"/></linearGradient><linearGradient id="d" gradientUnits="userSpaceOnUse" x1="8.21" x2="1.15" y1="8.26" y2="10.73"><stop offset=".34" stop-color="#feeb01"/><stop offset=".6" stop-color="#c77519"/></linearGradient><path d="m0 0h18v18h-18z" fill="#f0f3fa"/><path d="m6.6 8.54 2.4-1.2 2.67 1.2-1 3.37-.63-2.5-1.04-.39-1 .4-.63 2.75-.78-3.62z" fill="#a2690c"/><path d="m5.12 12.44h1.72l-.87-2.57zm7.67 0h-2l1.12-2.51z" fill="#7b4807"/><path d="m5.53 5.63-2.53 1.09 1.18.49.57 3.1.85-2.28 2.47-1.23z" fill="url(#a)"/><path d="m12.45 5.63-2.48 1.17 2.48 1.26.82 2.21.53-3.1 1.2-.44z" fill="url(#b)"/><path d="m6.66 5.14-1.13.49 2.13 1.17-2.13 1.23 1.2.55 2.27-1.23 2.25 1.32 1.2-.6-2.15-1.27 2.14-1.18-1.06-.5-2.38 1.17z" fill="#feeb01"/><path d="m7.92 4.49 1.08-.49 1.13.49.37 1.1-1.5.69-1.4-.68z" fill="#ce910d"/><path d="m9 9h-.95l.28.5.67.47.53-.43.52-.54z" fill="#feeb01"/><path d="m10.07 14h-2.21l1.14-4.03z" fill="#935d15"/><path d="m10.07 14-1.07-4.04 1.05-.96.58 2.67.61-3 1.23-.62.75 2.07.5-2.93 1.28-.46-1.05 5.07-1.16.64-.87-2.4-.76 3.37z" fill="url(#c)"/><path d="m7.86 14 1.14-4.03-.95-.97-.7 2.6-.62-3.02-1.2-.56-.71 2.08-.56-2.91-1.26-.46 1.05 5.07 1.07.64.87-2.47.89 3.45z" fill="url(#d)"/></svg>