<svg height="18" viewBox="0 0 18 18" width="18" xmlns="http://www.w3.org/2000/svg"><path d="m0 0h18v18h-18z" fill="#2d4266"/><path d="m13.56 6h-2.6c-.05 0-.1.02-.14.06a.25.25 0 0 0 -.08.13l-.5 2.64-.22 1.16-.52 2.82c-.02.1.05.19.16.19h.78c.05 0 .1-.02.15-.06a.25.25 0 0 0 .08-.13l.51-2.81h1.7c.94 0 1.8-.73 1.98-1.7l.11-.54c.18-.96-.47-1.76-1.4-1.76zm.26 1.67-.13.55c-.06.32-.48.78-.78.78h-1.37c-.1 0-.17-.15-.15-.25l.32-1.54c0-.06.04-.1.08-.14s.09-.07.14-.07h1.53c.3 0 .41.35.36.67zm-4.16-1.47-.98 5.09c-.18.9-1.07 1.7-1.98 1.7h-1.24c-.95 0-1.6-.8-1.43-1.75l.97-5.04c.01-.05.04-.1.09-.13.04-.04.1-.06.15-.06h.8c.11 0 .18.09.16.2l-.99 5.16c-.05.31.02.64.33.64h1.83l1.1-5.8c.02-.11.12-.2.23-.2h.8c.11 0 .19.09.16.2z" fill="#fff"/></svg>