<svg fill="none" height="18" width="18" xmlns="http://www.w3.org/2000/svg"><path d="m0 0h18v18h-18z" fill="#0b385c"/><path d="m14 6-2.273 7h-.909l-1.818-5.25-1.818 5.25h-1.004l-2.178-7h.91l1.817 5.25 1.818-5.25h.91l1.818 5.25 1.817-5.25z" fill="#f0f3fa"/><path clip-rule="evenodd" d="m9.882 10.819c2.718-1.173 4.526-2.714 4.039-3.443-.487-.728-3.086-.367-5.803.805-2.718 1.173-4.526 2.714-4.039 3.443.488.728 3.086.367 5.803-.805zm-.303-.453c2.437-1.052 4.117-2.346 3.752-2.89-.364-.544-2.634-.133-5.07.918-2.437 1.052-4.117 2.345-3.753 2.89.364.544 2.635.133 5.071-.918z" fill="#edb700" fill-rule="evenodd"/></svg>