<svg height="18" viewBox="0 0 18 18" width="18" xmlns="http://www.w3.org/2000/svg" xmlns:xlink="http://www.w3.org/1999/xlink"><linearGradient id="a" gradientUnits="userSpaceOnUse" x1="3.35" x2="21.9" y1="3.12" y2="24.43"><stop offset="0" stop-color="#1a1e21"/><stop offset="1" stop-color="#06060a"/></linearGradient><linearGradient id="b" gradientUnits="userSpaceOnUse" x1="6.53" x2="5.01" y1="10.63" y2="12.05"><stop offset="0" stop-color="#7e6431"/><stop offset=".19" stop-color="#40361b"/><stop offset=".35" stop-color="#6a5633"/><stop offset=".66" stop-color="#8a744b"/><stop offset="1" stop-color="#fdfedf"/></linearGradient><linearGradient id="c" gradientUnits="userSpaceOnUse" x1="11.31" x2="8.91" y1="11.88" y2="13.23"><stop offset="0" stop-color="#fdf6ca"/><stop offset=".19" stop-color="#5c5028"/><stop offset=".37" stop-color="#7c6a44"/><stop offset=".62" stop-color="#8a7a49"/><stop offset="1" stop-color="#eedea4"/></linearGradient><linearGradient id="d" gradientUnits="userSpaceOnUse" x1="6.81" x2="5.57" y1="8.63" y2="10.02"><stop offset="0" stop-color="#dbc58f"/><stop offset=".21" stop-color="#5e522d"/><stop offset=".44" stop-color="#877148"/><stop offset=".72" stop-color="#857041"/><stop offset="1" stop-color="#fefced"/></linearGradient><linearGradient id="e" gradientUnits="userSpaceOnUse" x1="11.03" x2="9" y1="4.5" y2="12.63"><stop offset="0" stop-color="#f9fbdd"/><stop offset=".06" stop-color="#62502b"/><stop offset=".19" stop-color="#776436"/><stop offset=".33" stop-color="#f8eac1"/><stop offset=".43" stop-color="#8e7745"/><stop offset=".51" stop-color="#433010"/><stop offset=".63" stop-color="#70592d"/><stop offset=".84" stop-color="#6e5d31"/><stop offset="1" stop-color="#b69f6b"/></linearGradient><path d="m0 0h18v18h-18z" fill="url(#a)"/><path d="m4 11.63.84-1.88c1.47.4 2.77 2.17 3.24 3l-4.08-1.13z" fill="url(#b)"/><path d="m10.75 11.38a2.73 2.73 0 0 1 -.42-1.38l-1.69 2.88 4.36 1.12c-.52-.67-1.91-2.13-2.25-2.63z" fill="url(#c)"/><path d="m6.67 9.13a2.8 2.8 0 0 1 .7-2.38c-1.12.5-2.06 2.04-2.39 2.75 1.7 1.1 2.68 2.3 2.96 2.75-.28-.63-.99-1.75-1.27-3.13z" fill="url(#d)"/><path d="m7.66 6.13.28.12c.38-.34.8-.4 1.02-.39-.37 0-1 .41-1.3.64h.42c.04.06.2.2.42.25s.52-.15.63-.25c-.07.25-.35.5-.63.5-.23 0-.47-.2-.56-.31l-.28.06c-.7.63-.85 2-.7 2.5.09.33.3.89.52 1.44l.32.81c.22.6.37 1.08.42 1.25l.28.13c.11-.5 1.02-1.94 1.46-2.64a13.6 13.6 0 0 0 .34-.6c.03-.09.03-.18.03-.39 0-.22.1-.32.19-.35l.09-.03-.1.03c-.3.03-.65-.22-.86-.38l-.03-.02-.28-.25c-.04.17-.2.45-.42.75s-.56 1-.56 1l.07-.3c.04-.19.05-.25.35-.7l.41-.65c.19-.3.32-.52.43-.6a.54.54 0 0 0 0 .5c.23-.3.66-.46.85-.5-.24.17-.68.55-.56.75.1.19.28.16.48.14l.22-.02c.22 0 .56.17.7.26.05-.09.17-.26.28-.26.12 0 .24-.08.28-.12.12.1.61.13.85.13.05-.09.14-.33.14-.63s-.1-.3-.14-.25l-.14-.25-.14.13c-.24-.13-.7-.53-.7-1.13s.46-1.17.7-1.38l.28.25c0-.4-.1-.58-.14-.62 0-.24-.06-.32-.1-.39-.02-.04-.04-.06-.04-.11 0-.13-.14-.25-.28-.25-.12 0-.9.33-1.27.5 0-.2-.28-.17-.42-.13a18.7 18.7 0 0 0 -2.81 1.75zm2.25-.88c.18-.17.62-.5.84-.5.05.13.06.4-.28.5s-.52.04-.56 0z" fill="url(#e)"/></svg>