<svg height="18" viewBox="0 0 18 18" width="18" xmlns="http://www.w3.org/2000/svg"><path d="m0 0h18v18h-18z" fill="#1b234c"/><path d="m8.6 11h-3.4l-1.2 3h1.07l.98-2.27a.15.15 0 0 1 .09-.08.17.17 0 0 1 .12 0c.03 0 .07.04.08.07.02.04.02.08 0 .11l-.94 2.17h1.11l.99-2.27c0-.02.01-.03.03-.05a.17.17 0 0 1 .22 0l.04.04a.13.13 0 0 1 0 .11l-.95 2.17h1.16l1.1-2.5c.15-.52-.5-.5-.5-.5zm4.88 0h-3.4l-1.06 3h1.07l.85-2.27c0-.02.02-.03.03-.05a.17.17 0 0 1 .22-.01l.04.05a.13.13 0 0 1 0 .11l-.8 2.17h1.1l.85-2.27c0-.02.02-.03.03-.05a.16.16 0 0 1 .11-.05.17.17 0 0 1 .12.04l.03.05a.13.13 0 0 1 0 .11l-.8 2.17h1.13l.96-2.5c.17-.57-.49-.5-.49-.5zm-8.48-1.02h8v-6.02h-8zm7.34-.6h-6.67v-4.82h6.67zm-1.3-3.73h-.6l-.42 1.66-.55-1.66h-.6l-.55 1.65-.42-1.65h-.62l.71 2.5h.62l.56-1.72.57 1.71h.6l.72-2.5z" fill="#fff"/></svg>