<svg height="18" viewBox="0 0 18 18" width="18" xmlns="http://www.w3.org/2000/svg"><path d="m0 0h18v18h-18z" fill="#f0f3fa"/><path d="m7.85 6-1.5 5.2h1.5l1.14-5.2zm-2.17 5.4c-.03 0-.04-.01-.03-.04l1.58-5.34a.02.02 0 0 0 0-.01l-.02-.01h-3.16a.01.01 0 0 0 -.01.01l-2.04 5.98.01.01h11.3c.03 0 .04 0 .05-.03a1961.51 1961.51 0 0 1 2.62-5.95 17066.68 17066.68 0 0 0 -3.39 5.4h-1.45c-.02 0-.02 0-.02-.02l.54-3.34c0-.05 0-.06-.03-.02l-2.26 3.36zm4.08-2.4 2.01-2.98v-.02a.01.01 0 0 0 0-.01h-1.29c-.02 0-.03.01-.03.03l-.72 2.96c-.01.05 0 .05.03.01zm2.99-.04.47-2.93c0-.02.01-.03.03-.03h1.27c.02 0 .02 0 .01.03l-1.75 2.94c-.03.05-.04.05-.03 0z" fill="#e60012"/></svg>