<svg height="18" viewBox="0 0 18 18" width="18" xmlns="http://www.w3.org/2000/svg" xmlns:xlink="http://www.w3.org/1999/xlink"><linearGradient id="a" gradientUnits="userSpaceOnUse" x1="3" x2="10.2" y1="9" y2="9"><stop offset="0" stop-color="#f7f727"/><stop offset=".04" stop-color="#f8e820"/><stop offset=".12" stop-color="#f8d517"/><stop offset=".2" stop-color="#f9ca12"/><stop offset=".28" stop-color="#f9c610"/><stop offset=".67" stop-color="#f57b1f"/><stop offset=".89" stop-color="#f5441a"/><stop offset="1" stop-color="#f41717"/></linearGradient><linearGradient id="b" gradientUnits="userSpaceOnUse" x1="9.34" x2="10.42" y1="8.94" y2="8.15"><stop offset="0" stop-color="#f5441a"/><stop offset=".78" stop-color="#89130a"/></linearGradient><linearGradient id="c" gradientUnits="userSpaceOnUse" x1="10.49" x2="14.34" y1="9.95" y2="8.01"><stop offset="0" stop-color="#004983"/><stop offset=".09" stop-color="#0b5d91"/><stop offset=".26" stop-color="#1d7fa9"/><stop offset=".44" stop-color="#2b9abb"/><stop offset=".62" stop-color="#35adc9"/><stop offset=".8" stop-color="#3bb8d0"/><stop offset="1" stop-color="#3dbcd3"/></linearGradient><path d="m0 0h18v18h-18z" fill="#f0f3fa"/><path d="m9.15 8.06-.52.8c-.15.21-.28.44-.46.63-.2.21-.4.27-.66.14a1.86 1.86 0 0 1 -.62-.62c-.14-.2-.26-.4-.38-.6-.32-.55-.6-1.15-.98-1.66a3 3 0 0 0 -.17-.2c-.38-.43-.91-.69-1.43-.47-.37.16-.6.52-.73.94a4.32 4.32 0 0 0 -.2 1.48c0 .07.04.13.1.14h.01c.06 0 .12-.04.13-.11.05-.27.11-.54.2-.8.08-.21.18-.43.34-.58.12-.14.3-.17.45-.1.09.05.16.1.23.16.4.37.67.92.92 1.42.3.6.57 1.23.86 1.85a6 6 0 0 0 .44.8c.2.3.45.62.8.7.18.04.37.01.54-.08.2-.1.38-.25.52-.43.34-.39.57-.86.8-1.33a7.7 7.7 0 0 1 .78-1.24.36.36 0 0 1 .07-.06c-.4-.83-1.04-.78-1.04-.78z" fill="url(#a)"/><path d="m10.41 8.55a2.56 2.56 0 0 0 -.24-.2c-.27-.21-.63-.46-.96-.31l-.06.02s.64-.04 1.05.78a.4.4 0 0 1 .43-.07 2.49 2.49 0 0 0 -.22-.22z" fill="url(#b)"/><path d="m14.9 6.93c-.08-.03-.16.02-.2.1-.2.46-.42.93-.69 1.35-.18.3-.38.57-.65.76-.21.15-.44.2-.67.1a1.26 1.26 0 0 1 -.46-.38c-.27-.33-.47-.72-.7-1.1-.18-.31-.37-.64-.62-.89-.19-.18-.39-.29-.64-.2a.8.8 0 0 0 -.3.2c-.32.34-.56.77-.82 1.18.02 0 .04 0 .06-.02.33-.14.7.1.96.31l.24.2.22.22.04.06c.42.47.7 1.04 1 1.62.19.37.4.77.69 1.05.13.13.28.24.45.25.13 0 .26-.05.36-.14.6-.48.92-1.4 1.18-2.15s.47-1.52.64-2.3a.18.18 0 0 0 -.1-.22z" fill="url(#c)"/></svg>