<svg height="18" viewBox="0 0 18 18" width="18" xmlns="http://www.w3.org/2000/svg"><path d="m0 0h18v18h-18z" fill="#f0f3fa"/><path d="m15 6h-1.76l-.58.6h2.05zm-.44 1.05h-2.63l-.59.6h2.93l.3-.6zm-.44 1.05h-2.62l-.59.6h2.93l.3-.6zm-.44 1.05h-3.07l-.3.6h3.08l.3-.6zm-.44 1.2h-3.22l-.29.6h3.22l.3-.6zm-.44 1.05h-3.5l-.74.6h4.1z" fill="#143088"/><path d="m7.5 6h-4.5c.75.15 1.2 1.35 1.5 2.1l1.2 3.9 3-4.2v-.6c0-.84-.8-1.15-1.2-1.2z" fill="#192c92"/><path d="m14.1 6h-3.77c-.7 0-1.43 1-1.73 1.5l-2.9 4.5h3.04c1.16 0 2.56-4.04 3.48-4.8.72-.6 1.44-1.15 1.88-1.2z" fill="#3dbcdc"/></svg>