<svg height="18" width="18" xmlns="http://www.w3.org/2000/svg"><path d="m0 0h18v18h-18z" fill="#f4de66"/><path d="m13 5s-3.2.64-4 4.28v5.72c3.77-.93 3.99-5.3 4-6z" fill="#15384e"/><path d="m13 5h-8s3.2.64 4 4.28c.8-3.64 4-4.28 4-4.28z" fill="#7cc2bc"/><path d="m9 9.29c-.8-3.64-4-4.29-4-4.29v4c.01.7.23 5.08 4 6z"/><path d="m6.3 7.3a.99.99 0 0 0 0 1.4c.38.4 1.01.4 1.4 0a.99.99 0 0 0 0-1.4.99.99 0 0 0 -1.4 0zm4 0a.99.99 0 0 0 0 1.4c.39.4 1.01.4 1.4 0a.99.99 0 0 0 0-1.4.99.99 0 0 0 -1.4 0z" fill="#fff"/></svg>