<svg height="18" width="18" xmlns="http://www.w3.org/2000/svg"><path d="m0 0h18v18h-18z" fill="#70bb51"/><g fill="#fff"><path d="m10.892 12.431c-.225 0-.438-.03-.639-.087a4.009 4.009 0 0 1 -1.253 1.236 2.8 2.8 0 0 0 1.45.42c2.006 0 3.371-2.307 3.533-4.268-.064.26-.477 2.7-3.092 2.7z"/><path d="m11.391 6.302c-.965 0-1.43.619-1.43.619.997.111 2.22.888 2.22 2.497 0 1.563-.926 2.273-1.683 2.51a4.627 4.627 0 0 1 -.245.416c.2.056.414.087.64.087 2.614 0 3.027-2.44 3.09-2.699.012-.131.017-.26.017-.388 0-2.2-1.519-3.042-2.609-3.042zm-4.283 6.129c.555 0 1.04-.187 1.428-.488-.133.044-.296.08-.46.08-.739 0-2.257-.604-2.257-2.605 0-1.61 1.223-2.386 2.22-2.497 0 0-.465-.62-1.43-.62-1.089.001-2.609.845-2.609 3.044 0 .128.005.257.016.388.064.262.469 2.7 3.092 2.7z"/><path d="m8.075 12.023c.165 0 .328-.036.461-.08a2.54 2.54 0 0 0 .472-.48 2.929 2.929 0 0 1 -.52-1.624c0-.8.388-1.142.517-1.233a1.22 1.22 0 0 0 -.738-.284c-.275 0-1.018.209-1.194 1.147v.002a2.982 2.982 0 0 0 -.017.112c-.018.157-.028.33-.028.52 0 .752.29 1.425.516 1.838.197.057.38.082.531.082z"/><path d="m9.014 7.58c-1.21 0-1.787.984-1.94 1.889.175-.938.918-1.147 1.193-1.147.171 0 .471.064.738.283.29.24.54.644.54 1.29a2.64 2.64 0 0 1 -.536 1.568c-.43.57-1.09.968-1.9.968-2.624 0-3.029-2.437-3.092-2.699.161 1.96 1.527 4.268 3.533 4.268 1.958 0 3.455-2.186 3.455-4.017 0-1.269-.652-2.404-1.99-2.404zm.036-.748s-.418-.444-.447-1.05c-.021-.44.14-1.114.771-1.488 1.476-.873 2.76.397 2.61 1.22 0 0-1.099-.552-2.111.11-.745.486-.823 1.208-.823 1.208z"/></g></svg>