<svg height="18" viewBox="0 0 18 18" width="18" xmlns="http://www.w3.org/2000/svg"><path d="m0 0h18v18h-18z" fill="#003b49"/><path d="m11.84 5h-.64a.11.11 0 0 0 -.1.07l-1.82 3.86a.13.13 0 0 0 0 .11l1.8 3.9c.02.03.06.06.1.06h.7c.08 0 .14-.1.1-.18l-1.72-3.78a.13.13 0 0 1 0-.11l1.7-3.7c.04-.1-.04-.23-.13-.22zm-5.68 0h.64c.05 0 .09.03.1.07l1.81 3.86c.02.03.02.08 0 .11l-1.8 3.9a.11.11 0 0 1 -.1.06h-.7c-.08 0-.14-.1-.1-.18l1.72-3.78a.13.13 0 0 0 0-.11l-1.7-3.7c-.03-.1.04-.23.13-.23z" fill="#fff"/></svg>