<svg height="18" width="18" xmlns="http://www.w3.org/2000/svg"><path d="m0 0h18v18h-18z" fill="#f0f3fa"/><path d="m5.71 5h-2.71l2.53 4-2.53 4h2.71l1.17-1.85 1.17 1.85h2.71l-2.52-4 2.52-4h-2.7l-1.19 1.85z" fill="#b6d43e"/><path d="m12.86 6h-2.2v6h2.2c.6 0 2.13-.18 2.14-1.57 0-1.12-.96-1.51-1.45-1.57l.08-.04c.36-.14 1.1-.45 1.1-1.52s-1.23-1.31-1.86-1.3zm.1.67h-1.58v2h1.16c.77 0 1.47-.38 1.47-1.16 0-.6-.69-.83-1.04-.84zm-1.58 2.66h1.38c.77 0 1.52.37 1.52 1.08 0 .78-.94.92-1.79.92h-1.1v-2z" fill="#838383" fill-rule="evenodd"/></svg>