<svg height="18" viewBox="0 0 18 18" width="18" xmlns="http://www.w3.org/2000/svg"><path d="m0 0h18v18h-18z" fill="#f0f3fa"/><g fill="#ea591d"><path d="m5.93 7h1.42l-.34 1h-1.42zm-1.29 4h2.12l-.63 2h-2.13z"/><path d="m6.65 10.23c.28.9 1.28 2.77 3.48 2.77 2.74 0 3.87-2.55 3.87-4.04s-1.3-3.96-3.67-3.96c-.96 0-2.33.6-2.33 1.87 0 1.25.91 1.62 1.63 1.92.46.19.84.35.84.68 0 .46-.45.53-1.04.53-.58 0-1.11-.26-1.69-.65-.07.05-.1.1-.1.12.26.36.87 1.04 1.8 1.04 1.14 0 1.91-.44 1.91-1.58 0-.6-.46-.86-1.12-1.21l-.43-.23c-.4-.23-.8-.56-.8-.99 0-.34.34-.51.8-.51.69 0 2.2.32 2.2 2.43 0 1.5-.64 3.03-2.34 3.03s-2.42-1.13-2.42-2.46h-1.95l-.29 1.01h1.64v.23z"/></g></svg>