<svg height="18" viewBox="0 0 18 18" width="18" xmlns="http://www.w3.org/2000/svg"><path d="m0 0h18v18h-18z" fill="#f0f3fa"/><g fill="#c89f01"><path d="m6.12 7.25-2.12.39c.95.43 1.57 1.47 1.57 1.98 0 .52-.23.96-.23 1.06s0 .2.13.32c.75-1.63 4.66-3.35 6.53-4-.24.02-.76.05-.9 0-.11.06-.58.16-.8.2l.53.05a50.58 50.58 0 0 0 -3.41 1.49 3.02 3.02 0 0 0 -1.3-1.49z"/><path d="m8.93 6.1c-.76.15-1.9.5-1.93.5 1.05.51 1.7 2.15 1.7 2.75s-.34 1.16-.34 1.27c0 .12.01.24.15.38.82-1.9 5.43-4.24 7.49-5-.27.02-.83.05-.99 0a5 5 0 0 1 -.87.23l.57.06c-1.13.49-3.5 1.59-3.89 1.82a5.4 5.4 0 0 0 -1.9-2zm-6.93 4.9c0-.55.38-1 .84-1h1.94v.18h-1.94c-.38 0-.69.37-.69.82s.31.82.7.82h7.15v.18h-7.16c-.46 0-.84-.45-.84-1zm13 .33h-.3a.19.19 0 0 0 -.06-.08.43.43 0 0 0 -.11-.07 1.12 1.12 0 0 0 -.62 0 .48.48 0 0 0 -.21.12.28.28 0 0 0 -.08.2c0 .08.03.15.08.2.05.06.12.1.2.12.1.03.2.05.3.05a1.17 1.17 0 0 0 .33-.05.42.42 0 0 0 .1-.06.2.2 0 0 0 .07-.09h.3a.3.3 0 0 1 -.1.14.6.6 0 0 1 -.17.1l-.24.07a1.7 1.7 0 0 1 -.74-.04.74.74 0 0 1 -.3-.17.37.37 0 0 1 -.12-.27c0-.1.04-.2.12-.27a.74.74 0 0 1 .3-.17 1.73 1.73 0 0 1 .97.03.6.6 0 0 1 .18.1.3.3 0 0 1 .1.14zm-3.33-.2v-.13h1.66v.13h-.67v.87h-.32v-.87zm-1.32-.13.48.4h.01l.48-.4h.34l-.62.5.63.5h-.35l-.48-.39h-.01l-.48.39h-.35l.63-.5-.63-.5z"/></g></svg>