<svg height="18" viewBox="0 0 18 18" width="18" xmlns="http://www.w3.org/2000/svg"><path d="m0 0h18v18h-18z" fill="#f0f3fa"/><g fill="#007dc6"><path d="m12 11-1 1c-2.34.21-4 .5-4 1.1 0 .46.66.7 1 .77v.13c-1.41-.25-2-.89-2-1.23.04-1.25 4.02-1.7 6-1.77zm3-6-1.17 1.5c-8.3.27-9.83 2.33-9.83 2.7s.47.7.47.8c-1.13-.47-1.45-1.05-1.47-1.28 0-.87 1.38-1.76 3.42-2.44 2.43-.81 5.78-1.33 8.58-1.28z"/><path d="m14 8-1.25 1.5c-6.55.15-7.26 1.45-7.26 1.74 0 .23 1.2.63 1.36.7 0 .06-.1.23-.1.27-1.38-.34-2.75-.73-2.75-1.51 0-1.51 6-2.7 10-2.7z"/></g></svg>