<!-- by TradingView --><svg width="18" height="18" viewBox="0 0 18 18" xmlns="http://www.w3.org/2000/svg"><path fill="#F0F3FA" d="M0 0h18v18H0z"/><path d="M6 5H4.5l2.56 4L4 13h2c-.33-.16-.33-.57-.33-.57L7.5 9.79 10 13h1.78c1.36 0 2.22-.5 2.22-1.47 0-.96-1.01-1.44-1.39-1.67-.38-.23-1.58-.86-1.58-1.43s.28-.88.97-.86c.64.02 1.05.33 1.26.57V7.3C13.1 7.19 12.76 7 12 7c-.94 0-1.8.55-1.8 1.48 0 .8 1.12 1.66 1.46 1.81.34.16 1.34.55 1.34 1.24 0 .7-.77.9-1.23.9-.34 0-.83 0-1.1-.29l-2.52-3.5L10.83 5H9.4c.2.25.22.44.16.57L7.89 8.25 6 5Z" fill="#006595"/><path d="M5.39 7.22h-.83L9 14h1.11c-.3-.06-.52-.47-.79-.75L5.4 7.22Z" fill="#7EAFCF"/></svg>