<svg height="18" viewBox="0 0 18 18" width="18" xmlns="http://www.w3.org/2000/svg"><path d="m0 0h18v18h-18z" fill="#f0f3fa"/><path d="m6 5h-1.5l2.56 4-3.06 4h2c-.33-.16-.33-.57-.33-.57l1.83-2.64 2.5 3.21h1.78c1.36 0 2.22-.5 2.22-1.47 0-.96-1.01-1.44-1.39-1.67s-1.58-.86-1.58-1.43.28-.88.97-.86c.64.02 1.05.33 1.26.57v-.84c-.16-.11-.5-.3-1.26-.3-.94 0-1.8.55-1.8 1.48 0 .8 1.12 1.66 1.46 1.81.34.16 1.34.55 1.34 1.24 0 .7-.77.9-1.23.9-.34 0-.83 0-1.1-.29l-2.52-3.5 2.68-3.64h-1.43c.2.25.22.44.16.57l-1.67 2.68z" fill="#006595"/><path d="m5.39 7.22h-.83l4.44 6.78h1.11c-.3-.06-.52-.47-.79-.75l-3.92-6.03z" fill="#7eafcf"/></svg>