<svg height="18" viewBox="0 0 18 18" width="18" xmlns="http://www.w3.org/2000/svg"><path d="m0 0h18v18h-18z" fill="#f0f3fa"/><path d="m6.86 8.53a.47.47 0 0 1 -.34-.14l-2.38-2.59a.5.5 0 0 1 0-.7.47.47 0 0 1 .68 0l2.38 2.6a.5.5 0 0 1 .13.25v.13a.49.49 0 0 1 -.48.46zm4.28 0a.47.47 0 0 1 -.26-.08.49.49 0 0 1 -.21-.4.5.5 0 0 1 .14-.36l2.37-2.57a.47.47 0 0 1 .68 0 .5.5 0 0 1 0 .69l-2.38 2.58a.47.47 0 0 1 -.34.14z" fill="#385a7e"/><path d="m11 11.44v1.02a4 4 0 0 0 2-3.46c0-.42-.03-.55-.07-.72l-.78.6c0 1.28-.43 1.86-1.15 2.56zm-4 0v1.02a4 4 0 0 1 -2-3.46c0-.42.03-.55.07-.72l.78.6c0 1.28.43 1.86 1.15 2.56zm2.82-5.48a3.03 3.03 0 0 0 -1.64 0l-.7-.66a3.95 3.95 0 0 1 3.05 0l-.7.66z" fill="#6287ae"/><path d="m5.62 4.14a.48.48 0 0 0 -.82.33c0 .13.06.25.15.33l1.19 1.18c.24-.22.5-.4.79-.56l-1.3-1.28zm7.43.66c.09-.08.14-.2.14-.33a.48.48 0 0 0 -.82-.33l-1.29 1.26c.29.15.55.34.8.55l1.17-1.16z" fill="#a0ce00"/><path d="m7.75 14.55c.01.25.25.45.5.45s.49-.2.5-.45v-7.19c0-.12-.1-.24-.19-.33l-1.63-1.61c-.28.15-.55.34-.79.55l1.61 1.59v7zm1.5-7.15v7.13c0 .25.24.47.5.47s.5-.22.5-.47v-6.97l1.62-1.6c-.24-.21-.5-.4-.79-.55l-1.7 1.66a.46.46 0 0 0 -.13.33z" fill="#055946"/></svg>