<svg height="18" viewBox="0 0 18 18" width="18" xmlns="http://www.w3.org/2000/svg"><path d="m0 0h18v18h-18z" fill="#f0f3fa"/><path d="m14 4h-10v10h10zm-1 1h-8v8h8z" fill="#004ea2" fill-rule="evenodd"/><path d="m6.94 7.8a.13.13 0 0 0 0 .19l1.96 1.76c.06.05.16.05.22 0l1.95-1.76a.13.13 0 0 0 0-.2l-1.97-1.74a.16.16 0 0 0 -.22 0zm5.06.6v3.26c0 .16-.14.29-.3.29h-2.1c-.16 0-.3-.13-.3-.29v-1.15c0-.08.03-.15.09-.2l2.2-2.08c.04-.04.1-.07.17-.07.13 0 .24.1.24.23zm-6 .04v3.27c0 .16.14.29.3.29h2.1c.16 0 .3-.13.3-.29v-1.15a.28.28 0 0 0 -.09-.2l-2.2-2.08a.25.25 0 0 0 -.17-.07c-.13 0-.24.1-.24.23z" fill="#e60012"/></svg>