<svg height="18" viewBox="0 0 18 18" width="18" xmlns="http://www.w3.org/2000/svg" xmlns:xlink="http://www.w3.org/1999/xlink"><linearGradient id="a" gradientUnits="userSpaceOnUse" x1="5.33" x2="8.07" y1="4.59" y2="10.98"><stop offset=".75" stop-color="#ea2330"/><stop offset=".9" stop-color="#a71a23"/></linearGradient><path d="m0 0h18v18h-18z" fill="#f0f3fa"/><path d="m9.43 9.42s-1.9-3.66-2.27-4.2c-.38-.57-.87-1.22-1.45-1.22-.57 0-.71.54-.71.73 0 .2.2.45.52.7.35.26 2.04 3.3 3.18 5.63l.86-.52z" fill="url(#a)"/><path d="m12.82 5.24c-.48.92-2.82 6.76-4.68 8.34-.57.3-.98.42-1.3.42-.78 0-.87-.7-.84-.8.05-.13.08-.56.64-.56.57 0 1.05-.36 1.81-1.75.82-1.47 2.42-4.84 2.74-5.35.63-1.22 1.1-1.58 1.4-1.54.29 0 .4.22.41.49 0 .24-.07.53-.18.75z" fill="#ea2330"/></svg>