<svg fill="none" height="18" width="18" xmlns="http://www.w3.org/2000/svg"><path d="m0 0h18v18h-18z" fill="#00adc2"/><g clip-rule="evenodd" fill="#242347" fill-rule="evenodd"><path d="m14 8.986c0-2.754-2.26-4.986-5.014-4.986-2.783 0-5.016 2.232-4.986 4.986 0 2.782 2.232 5.014 4.986 5.014a5.016 5.016 0 0 0 5.014-5.014zm-2 .014c0-1.642-1.326-3-3-3-1.673 0-3.03 1.358-3 3 0 1.642 1.327 3 3 3 1.642 0 3-1.326 3-3z"/><path d="m14 14.174-1.42.813s-.903.18-1.483-.783c-.613-.994-2.097-3.432-2.097-3.432l1.323-.722s1-.271 1.516.451c.484.723 2.161 3.673 2.161 3.673z"/></g></svg>