<svg fill="none" height="18" width="18" xmlns="http://www.w3.org/2000/svg" xmlns:xlink="http://www.w3.org/1999/xlink"><linearGradient id="a" gradientUnits="userSpaceOnUse" x1="3.349" x2="21.904" y1="3.122" y2="24.434"><stop offset="0" stop-color="#1a1e21"/><stop offset="1" stop-color="#06060a"/></linearGradient><path d="m0 0h18v18h-18z" fill="url(#a)"/><g fill="#fff"><path d="m7.633 10.607 1.05-1.05-.354-.353-1.05 1.05-1.049-1.05-.354.354 1.05 1.049-1.05 1.05.354.353 1.05-1.05 1.049 1.05.353-.354-1.049-1.05z"/><path d="m10.277 9.765h-1.213v-.5h2.925v.5h-1.213v2.238h-.5v-2.238zm-3.245-2.04-1.336-1.336.35-.35 1.233 1.234 1.234-1.234.35.35-1.336 1.336v1.278h-.495zm3.468-1.222a1 1 0 1 0 1 1h.5a1.5 1.5 0 1 1 -.441-1.063l-.353.354a.996.996 0 0 0 -.706-.291z"/><path d="m9.484 8.143 1.53-1.529.298-.282.247.106.162.176-1.883 1.883z"/></g><circle cx="9" cy="9" r="6" stroke="#fff" stroke-width=".5"/></svg>