<svg height="18" viewBox="0 0 18 18" width="18" xmlns="http://www.w3.org/2000/svg"><path d="m0 0h18v18h-18z" fill="#f0f3fa"/><g fill="#e1000c"><path d="m10.1 7c.17.03.28.16.25.3l-.3 1.41h2.06l.28-1.49c.02-.14.18-.24.35-.22s.28.16.26.3l-.64 3.48c-.03.14-.18.24-.35.22s-.29-.16-.26-.3l.25-1.4h-2.06l-.33 1.5c-.03.14-.19.23-.35.2-.17-.02-.29-.15-.26-.3l.74-3.48c.03-.14.2-.23.36-.2zm-3.97.03a.26.26 0 0 1 .36.1l.78 1.36 1.28-1.4c.1-.11.26-.12.36-.02.11.1.12.26.02.36l-1.47 1.62-.34 1.74a.26.26 0 0 1 -.5-.1l.33-1.71-.92-1.6a.26.26 0 0 1 .1-.35z"/><path d="m9 14a5 5 0 1 0 0-10 5 5 0 0 0 0 10zm.47-.94a4.14 4.14 0 0 0 4.22-4.06 4.14 4.14 0 0 0 -4.22-4.06 4.14 4.14 0 0 0 -4.22 4.06 4.14 4.14 0 0 0 4.22 4.06z" fill-rule="evenodd"/></g></svg>