<svg height="18" viewBox="0 0 18 18" width="18" xmlns="http://www.w3.org/2000/svg"><path d="m0 0h18v18h-18z" fill="#f0f3fa"/><path d="m8.9 4.02a.24.24 0 0 1 .2 0l3.75 1.71c.1.04.15.14.15.24v3.16c0 1.41-.67 2.5-1.49 3.29a8.09 8.09 0 0 1 -2.42 1.56.24.24 0 0 1 -.18 0 8.09 8.09 0 0 1 -2.42-1.56 4.52 4.52 0 0 1 -1.49-3.29v-3.16c0-.12 0-.13.15-.24l3.75-1.7zm-3.4 2.13v2.98c0 1.22.58 2.17 1.33 2.9.7.7 1.56 1.16 2.17 1.42.6-.26 1.46-.73 2.17-1.42a3.98 3.98 0 0 0 1.33-2.9v-2.98l-3.5-1.6z" fill="#191919"/><path d="m9 8 2.5-1.5.5 1-2.5 1.5z" fill="#f9bd15"/><path d="m8.5 12v-2h1v2z" fill="#f25a27"/><path d="m8.5 9-2.5-1.5.5-.88 2.5 1.38.5 1v1h-1z" fill="#86c040"/></svg>