<svg height="18" viewBox="0 0 18 18" width="18" xmlns="http://www.w3.org/2000/svg"><path d="m0 0h18v18h-18z" fill="#f0f3fa"/><path d="m10.05 5.79a.07.07 0 0 1 -.03-.03l-1-1.75a.02.02 0 0 0 -.03 0l-4.99 8.96a.03.03 0 0 0 0 .02h.01l.01.01h9.96l.02-.01a.03.03 0 0 0 0-.03l-2.96-5.33v-.06l.73-1.4a.12.12 0 0 0 0-.1l-.01-.07-.08-.16a.1.1 0 0 0 -.03-.03.08.08 0 0 0 -.04-.01h-1.52l-.03-.01zm-1.41 5.2-.01-.01v-.03a515.18 515.18 0 0 1 2.77-4.94l-.02-.01h-2l-.04.01a.07.07 0 0 0 -.02.03l-3.49 6.23.01.02.02.01a9053.16 9053.16 0 0 0 5.48-.01l.02-.03.66-1.24a.02.02 0 0 0 0-.02h-3.39z" fill="#0055a2" fill-rule="evenodd"/></svg>