<svg height="18" viewBox="0 0 18 18" width="18" xmlns="http://www.w3.org/2000/svg"><path d="m0 0h18v18h-18z" fill="#f0f3fa"/><g fill="#231f20"><path d="m11.16 5.56a3.6 3.6 0 0 0 -2.04-.56c-1.49 0-2.42.55-3 1.22-.58.68-.81 1.5-.84 2.08l-.02.24h-2.76v2.96h13v-2.96h-2.78l-.03-.22c-.19-1.47-.83-2.3-1.53-2.76zm2 2.44a3.96 3.96 0 0 0 -1.73-2.86 4.1 4.1 0 0 0 -2.32-.64c-1.62.01-2.7.61-3.37 1.4-.6.69-.86 1.46-.94 2.1h-2.8v4h14v-4h-2.85z" fill-rule="evenodd"/><path d="m7.36 7.72c.18.15 0 .68-.11.92 0 .48.32.28.49.12.02.16.17.21.24.21.36 0 .4-.5.4-.8 0-.28.46-.45.83-.24.3.18.56.08.65 0 .02-.07.13-.23.45-.3.31-.06.38.42.38.66-.13.2-.3.63 0 .68.3.06.4-.47.41-.74h.18v.53c.02.07.12.21.28.21s.15-.1.15-.14v-.66c.25-.25.23-1 .04-1.01-.15-.01-.19-.2-.19-.3.18-.05.2-.52.2-.74-.18-.74-.87-.88-1.2-.86-.96.19-2.6.08-3.31 0a2.23 2.23 0 0 1 -.9-.36l-.15.27c-.11.09-.3.4-.37.55-.11.05-.33.2-.3.4.02.25.54.34.81.38s.44.13.49.54c.05.4.32.49.53.68z"/><path d="m4 9h10v2h-10z" opacity=".65"/></g></svg>