<svg height="18" viewBox="0 0 18 18" width="18" xmlns="http://www.w3.org/2000/svg"><path d="m0 0h18v18h-18z" fill="#f0f3fa"/><path d="m4 5.46v5.78c2.65-.84 4.4 0 4.94.52 2.28 1.72 4.32 1.28 5.06.85v-5.94a4.5 4.5 0 0 1 -4.3-.54 5.8 5.8 0 0 0 -5.7-.67z" fill="#30903c"/><path d="m14 7.95-.85.28-3.34.93-3.54.68-.93 1.1c1.9-.25 3.16.39 3.6.82 2.28 1.72 4.32 1.28 5.06.85z" fill="#d2232a"/><path d="m13.52 6.84c-.76.84-2.15 1.85-4.84 1.75a5.36 5.36 0 0 0 -4.68 2.25v.4c.7-.22 1.32-.32 1.88-.35a4.97 4.97 0 0 1 3.76-1.06 5.37 5.37 0 0 0 4.36-1.5v-1.67a3.9 3.9 0 0 1 -.48.17z" fill="#ffc80b"/></svg>