<svg fill="none" height="18" width="18" xmlns="http://www.w3.org/2000/svg" xmlns:xlink="http://www.w3.org/1999/xlink"><linearGradient id="a" gradientUnits="userSpaceOnUse" x1="16.393" x2="2.411" y1="13.339" y2="3.857"><stop offset="0" stop-color="#4b2c87"/><stop offset=".407" stop-color="#6c35a4"/><stop offset=".989" stop-color="#be42ce"/></linearGradient><path d="m0 0h18v18h-18z" fill="url(#a)"/><path clip-rule="evenodd" d="m6.616 5.126c.016-.074.074-.126.14-.126h5.226c2.422 0 2.985 2.765 2.164 4.882-.72 1.858-2.033 3.118-4.184 3.118h-4.865c-.094 0-.163-.102-.14-.207l.677-3.238h-1.99c-.096 0-.166-.107-.138-.214l.316-1.225c.018-.07.075-.119.138-.119h2.003l.653-2.87zm1.47 1.588h2.99c1.483 0 1.721 1.003 1.515 2.117-.271 1.46-1.042 2.455-2.68 2.455h-2.834l1.01-4.572z" fill="#fff" fill-rule="evenodd"/></svg>