<svg height="18" viewBox="0 0 18 18" width="18" xmlns="http://www.w3.org/2000/svg"><path d="m0 0h18v18h-18z" fill="#f0f3fa"/><path d="m14 13s-2-2.46-7.49-2.46c-1.01 0-1.5.79-1.51 1.26 0 .62.83 1.2 1.73 1.2 1.09 0 2.5-1.04 4.59-.94.85.04 1.78.3 2.68.94z" fill="#83c661"/><path d="m13.06 6.2s-.9-.17-2.62 2.5a8.83 8.83 0 0 1 -3 2.94h2.4c.59-.34 1.23-.77 1.84-1.26 1.8-1.46 2.32-2.68 2.32-3.24s-.4-.96-.94-.94z" fill="#e60572"/><path d="m8.75 10.69a6.03 6.03 0 0 1 -3.56 1.64c.32.4.94.67 1.54.67 1.44 0 2.82-1.13 3.95-1.89-.56-.17-1.2-.32-1.93-.42z" fill="#a0005b"/><path d="m4 5s1.33 1.4 3.8 1.4c2.45 0 3.51-.4 4.58-.4s1.29.35 1.5.63c.2.28.35 1.75-2.6 1.75s-7.06-1.13-7.28-3.38z" fill="#00b5d0"/><path d="m13.87 6.63a.9.9 0 0 1 .05.1c.16.43.06 1.65-2.64 1.65l-.62-.01c1.5-2.21 2.4-2.14 2.4-2.14a.9.9 0 0 1 .81.4z" fill="#5e2880"/></svg>