<svg height="18" viewBox="0 0 18 18" width="18" xmlns="http://www.w3.org/2000/svg" xmlns:xlink="http://www.w3.org/1999/xlink"><linearGradient id="a" gradientUnits="userSpaceOnUse" x1="6.15" x2="10.19" y1="12.22" y2="5.05"><stop offset="0" stop-color="#dadada"/><stop offset="1" stop-color="#d1d1d1"/></linearGradient><path d="m0 0h18v18h-18z" fill="#f0f3fa"/><path d="m7.72 7-2.72-4h5z" fill="#2bafe0"/><path d="m7.35 6.45.37.55 1.53-2.7.13-.45z" fill="#3a6b7c"/><path d="m10.09 11 2.84 4h-5.23l2.38-4z" fill="#2bafe0"/><path d="m10.48 11.55-.4-.55-1.59 2.7-.13.45z" fill="#3a6b7c"/><path d="m5.27 11.05 2.45 3.95c.38-.6 3.68-5.56 5.28-7.97l-2.82-4.02c-1.28 1.51-3.8 5.99-4.9 8.04z" fill="url(#a)"/><path d="m10.03 3.18 2.66 3.87-5.03 7.86.06.09c.38-.6 3.68-5.56 5.28-7.97l-2.82-4.02z" fill="#cbcbcb"/><path d="m10.32 3.21-4.96 7.98-.09-.14c1.11-2.05 3.64-6.53 4.9-8.05l.15.2z" fill="#f2f2f2"/></svg>