<svg height="18" viewBox="0 0 18 18" width="18" xmlns="http://www.w3.org/2000/svg"><path d="m0 0h18v18h-18z" fill="#181b1e"/><g fill="#f0f3fa"><path d="m4 4h10v10h-10zm.31.32h9.36v9.36h-9.37v-9.36z" fill-rule="evenodd"/><path d="m5 5h2v1.36h-1.67v.3h5.67v-1.66h2v4.33h-7.67v2.5l.84.84.83-.84v-.83h6v2h-.33v-1.67h-5.34v.67l-1 1h-.33l-1-1v-3h7.67v-3.67h-1.34v1.67h-6.33v-1h1.67v-.67h-1.67z"/><path d="m8 12.67h2.67v-1.67h.33v2h-3z"/><path d="m9 11v1.67h-.33v-1.67zm2 1h1.67v.33h-1.67zm-1-6.67h-1.67v1.67h-.33v-2h2z"/><path d="m9.67 6.33h-1.67v-.33h1.67z"/></g></svg>