<svg height="18" viewBox="0 0 18 18" width="18" xmlns="http://www.w3.org/2000/svg"><path d="m0 0h18v18h-18z" fill="#9f0000"/><g fill="#fff"><path d="m14 8.93c0-1.9-1.3-3.45-1.88-3.93.34.84.88 1.7.88 3.35s-1.86 3.15-3.56 3.15-2.44-1.1-2.44-2.06c0-.95.46-1.93 1.69-2.36-.17-.03-.35-.08-.51-.08-1.45 0-2.62 1.35-2.62 3.18a3.83 3.83 0 0 0 3.88 3.82c3.17 0 4.56-2.69 4.56-5.07z"/><path d="m8.74 4c3.23 0 3.7 2.83 3.7 4.33-.4-.94-1.73-2.83-3.7-2.83a3.87 3.87 0 0 0 -3.96 3.75c0 1.6.76 3.08 1.22 3.75-.68-.6-2-2-2-3.88-0-3.6 3.06-5.12 4.74-5.12z"/></g></svg>