<svg height="18" viewBox="0 0 18 18" width="18" xmlns="http://www.w3.org/2000/svg" xmlns:xlink="http://www.w3.org/1999/xlink"><linearGradient id="a"><stop offset="0" stop-color="#00a28f"/><stop offset="1" stop-color="#069b87"/></linearGradient><linearGradient id="b" gradientUnits="userSpaceOnUse" x1="9.18" x2="9.18" xlink:href="#a" y1="3" y2="7.73"/><linearGradient id="c"><stop offset="0" stop-color="#0ba73a"/><stop offset="1" stop-color="#78bd2f"/></linearGradient><linearGradient id="d" gradientUnits="userSpaceOnUse" x1="7.73" x2="3" xlink:href="#c" y1="8.82" y2="8.82"/><linearGradient id="e" gradientUnits="userSpaceOnUse" x1="7.04" x2="3.69" xlink:href="#c" y1="9.03" y2="5.69"/><linearGradient id="f"><stop offset="0" stop-color="#016bc1"/><stop offset="1" stop-color="#0397e1"/></linearGradient><linearGradient id="g" gradientUnits="userSpaceOnUse" x1="15" x2="10.27" xlink:href="#f" y1="8.82" y2="8.82"/><linearGradient id="h" gradientUnits="userSpaceOnUse" x1="10.64" x2="13.18" xlink:href="#f" y1="7.73" y2="5.18"/><linearGradient id="i" gradientUnits="userSpaceOnUse" x1="13.25" x2="10.71" xlink:href="#f" y1="13.55" y2="11"/><linearGradient id="j" gradientUnits="userSpaceOnUse" x1="8.82" x2="8.82" xlink:href="#a" y1="10.27" y2="15"/><path d="m0 0h18v18h-18z" fill="#f0f3fa"/><path d="m8.45 5.18c0 1.17.49 2.18.73 2.55.24-.37.73-1.38.73-2.55 0-1.16-.49-1.94-.73-2.18a3.26 3.26 0 0 0 -.73 2.18z" fill="url(#b)"/><path d="m5.54 8.1c-1.16 0-2.18.48-2.54.72.36.24 1.38.73 2.54.73 1.17 0 1.94-.49 2.19-.73a3.26 3.26 0 0 0 -2.19-.73z" fill="url(#d)"/><path d="m7.04 5.95a5.05 5.05 0 0 0 -2.32-1.29c.09.43.47 1.5 1.29 2.32a3.26 3.26 0 0 0 2.06 1.02c0-.35-.21-1.24-1.03-2.06z" fill="url(#e)"/><path d="m12.82 8.1c-1.17 0-2.18.48-2.55.72.37.24 1.38.73 2.55.73 1.16 0 1.94-.49 2.18-.73a3.26 3.26 0 0 0 -2.18-.73z" fill="url(#g)"/><path d="m11.56 5.48a5.05 5.05 0 0 0 -1.29 2.32c.43-.09 1.5-.47 2.32-1.29a3.26 3.26 0 0 0 1.03-2.06c-.35 0-1.24.21-2.06 1.03z" fill="url(#h)"/><path d="m12.33 11.3c.82.82 1.2 1.89 1.29 2.32a5.04 5.04 0 0 1 -2.32-1.29 3.26 3.26 0 0 1 -1.03-2.06c.35 0 1.24.2 2.06 1.03z" fill="url(#i)"/><path d="m8.45 12.45c0 1.17.49 2.19.73 2.55.24-.36.73-1.38.73-2.55 0-1.16-.49-1.93-.73-2.18a3.26 3.26 0 0 0 -.73 2.18z" fill="url(#j)"/></svg>