<svg height="18" viewBox="0 0 18 18" width="18" xmlns="http://www.w3.org/2000/svg" xmlns:xlink="http://www.w3.org/1999/xlink"><linearGradient id="a" gradientUnits="userSpaceOnUse" x1="8.53" x2="8.22" y1="6" y2="11.28"><stop offset="0" stop-color="#5ebbeb"/><stop offset="1" stop-color="#003384"/></linearGradient><path d="m0 0h18v18h-18z" fill="#f0f3fa"/><g fill="url(#a)"><path d="m7.84 6h-3.66a.11.11 0 0 0 -.1.06l-.44.75c-.04.08.01.19.1.19h1.54c.09 0 .14.09.1.17l-2.37 4.65c-.04.08.02.18.1.18h4.57c.45-.03.87-.21 1.29-.39l.83-.36c.22-.1.44-.25.68-.25h2.16c.05-.03.08-.08.13-.13l.61-.62c.04-.04.1-.09.09-.15-.01-.05-.05-.1-.12-.1h-2.1c-.22 0-.41.13-.62.2l-1.67.6c-.12.03-.58.2-1.02.2h-1.94c-.09 0-.14-.2-.1-.28l2.04-4.55c.04-.08-.02-.17-.1-.17z"/><path d="m8.26 7.03-.72.76c-.07.07-.02.2.09.2h1.69l.13-.01c.25-.06.47-.2.7-.31s.47-.23.7-.31c.44-.16 1.08-.36 1.15-.36h2.48c.04 0 .07-.02.1-.05l.4-.76c.05-.08 0-.19-.1-.19h-2.54c-.23 0-.44.17-.65.28l-.76.4c-.26.13-.52.3-.81.31l-.17.01h-1.6c-.04 0-.07 0-.09.03z"/><path d="m7.6 9.04-.62.76c-.08.07-.02.2.08.2h1.62c.4 0 .74-.23 1.1-.38l.9-.38c.22-.09.42-.24.65-.24h2.71c.04 0 .07-.02.1-.05l.4-.78c.05-.08 0-.17-.1-.17h-2.53c-.24 0-.44.14-.66.24l-1.08.51-.06.03c-.12.05-.5.22-.61.22h-1.83a.11.11 0 0 0 -.08.04z"/></g></svg>