<svg height="18" viewBox="0 0 18 18" width="18" xmlns="http://www.w3.org/2000/svg"><path d="m0 0h18v18h-18z" fill="#f0f3fa"/><path d="m15 9a6 6 0 1 1 -12 0 6 6 0 0 1 12 0zm-6-5.65 5 2.83v5.64l-5 2.83-5-2.83v-5.64zm-1.13 3.6-2.04.8a5.58 5.58 0 0 0 -1.07 2.66c0 .5.3 1.48 1.64 1.48 1.55 0 2.4-1.1 2.97-2.21a.27.27 0 0 1 .36-.13l.06.03c.13.07.18.22.11.34l-.47.88c-.17.35-.7 1.03-1.5 1.03v.15c.8.08 2.56 0 3.28-1.06.72-1.04 1.34-2.3 1.55-2.8l-1.42-.9-.92 1.73a.27.27 0 0 1 -.34.1l-.12-.05a.24.24 0 0 1 -.12-.32l1.66-3.48c.04-.1-.03-.21-.15-.21h-1.41a.37.37 0 0 0 -.33.2l-3.01 6.05a.3.3 0 0 1 -.4.12.27.27 0 0 1 -.12-.35l1.92-3.92c.04-.08-.04-.17-.13-.13z" fill="#0001fc" fill-rule="evenodd"/></svg>