<svg height="18" viewBox="0 0 18 18" width="18" xmlns="http://www.w3.org/2000/svg"><path d="m0 0h18v18h-18z" fill="#f0f3fa"/><g fill="#004684"><path d="m9 11.81c-.61 0-1.96-.06-2.6-.38-.5.61-1.6 2-2.09 2.57l4.69-1.45 4.69 1.45c-.49-.58-1.58-1.96-2.1-2.57-.63.32-1.98.39-2.59.38z"/><path d="m7.53 7-.12.21c-1.28.1-1.41.92-1.41 1.24s.24.85 1.2.85c.76 0 1.5-.28 1.8-.42.3.14 1.04.42 1.8.42.96 0 1.2-.53 1.2-.85s-.08-1.13-1.37-1.24a27.8 27.8 0 0 0 -.11-.21c2.02.3 3.48 1.2 3.48 2.22 0 1.26-2.24 2.28-5 2.28s-5-1.02-5-2.28c0-1.03 1.49-1.94 3.53-2.23z"/><path d="m7 9c.13-.36 1.39-3.48 2-5 .61 1.52 1.87 4.64 2 5-1.23 0-1.84-.34-2-.5-.16.16-.77.5-2 .5z"/></g></svg>