<svg height="18" viewBox="0 0 18 18" width="18" xmlns="http://www.w3.org/2000/svg"><path d="m0 0h18v18h-18z" fill="#f0f3fa"/><path d="m12.44 5.56-6.69 7.24s-.24-.2-.38-.34l-.33-.39 7.4-6.5z" fill="#e59732"/><path d="m9.83 4.07a3.94 3.94 0 0 0 -3.9 3.13l6.5-2.58-8.43 4.38a4.97 4.97 0 0 1 5.83-4.93zm4.03 3.93c-.08 2.76-2.05 3.82-3.03 4l2.39-6.44-4.22 8.44a5.04 5.04 0 0 0 4.86-6z" fill="#135b9f"/><path d="m4.54 11.25c-.15-.3-.33-.74-.4-1.07l7.99-4.93c-2.38 1.9-7.22 5.67-7.6 6zm2.02 2.11c.26.16.72.34 1.05.44l5.14-7.93a668.4 668.4 0 0 1 -6.2 7.49z" fill="#e59732"/></svg>