<svg height="18" viewBox="0 0 18 18" width="18" xmlns="http://www.w3.org/2000/svg"><path d="m0 0h18v18h-18z" fill="#f0f3fa"/><path d="m7.44 4h-3.44v10h4.84l3.8-3.71-.14 1.7v.51h-.41l-1.52 1.5h3.43v-10h-4.84l-3.8 3.7.14-1.23v-.97h.42zm5.06 4.44v-2.94h-2.9l-.21.22c.7.35 1.18.98 1.18 1.89 0 .88-.51 1.38-1.05 1.9l-.35.35c-.64.66-.1 1.24.32 1.24.15 0 .29-.04.4-.08zm-5.03 2c0 .86.66 1.51 1.14 1.84l-.23.22h-2.88v-2.94l2.46-2.44c.28-.17.75-.32 1.05.08.34.47.02.78-.19 1-.05.05-.1.1-.12.14l-.19.18c-.35.3-1.04.9-1.04 1.92z" fill="#00937d" fill-rule="evenodd"/></svg>