<svg height="18" viewBox="0 0 18 18" width="18" xmlns="http://www.w3.org/2000/svg"><path d="m0 0h18v18h-18z" fill="#f0f3fa"/><g fill="#009464"><circle cx="5.5" cy="7.5" r="1.5"/><circle cx="12.5" cy="7.5" r="1.5"/><path d="m10.5 5.5a1.5 1.5 0 1 1 -3 0 1.5 1.5 0 0 1 3 0z"/></g><path d="m5.3 10.87-1.3-.87v1.13l1.3.87zm.4 0 1.3-.87v1.13l-1.3.87zm6.6 0-1.3-.87v1.13l1.3.87zm.38 0 1.3-.87v1.13l-1.3.87zm-3.88.02-1.36-.95v1.23l1.36.96zm.4 0 1.36-.95v1.23l-1.36.96zm-.02-1.88 1.35-.95v1.24l-1.35.95zm-.4 0-1.34-.95v1.24l1.35.95v-1.24z" fill="#003693"/><path d="m13 10v1.75a2.25 2.25 0 0 1 -4.5 0v-4.31h1v4.31a1.25 1.25 0 1 0 2.5 0v-1.75z" fill="#003693"/><path d="m5 10v1.75a2.25 2.25 0 0 0 4.5 0v-4.31h-1v4.31a1.25 1.25 0 1 1 -2.5 0v-1.75z" fill="#003693"/></svg>