<svg height="18" viewBox="0 0 18 18" width="18" xmlns="http://www.w3.org/2000/svg"><path d="m0 0h18v18h-18z" fill="#237ae2"/><path d="m2 7.99c0-.55.37-.99.83-.99h1.7c.45 0 .82.44.82.99v.42c0 .05-.04.1-.08.1h-.78a.1.1 0 0 1 -.1-.1v-.2c0-.21-.13-.39-.31-.39h-.73c-.18 0-.35.18-.35.4v1.55c0 .22.17.4.35.4h.73c.18 0 .31-.18.31-.4v-.37c0-.05.05-.07.1-.07h.78c.04 0 .08.02.08.07v.61c0 .55-.37.99-.83.99h-1.7c-.45 0-.82-.44-.82-.99v-2.01zm3.54-.89c0-.06.04-.1.1-.1h.8c.06 0 .1.04.1.1v1.4h2.37c.05 0 .09.05.09.1v2.3a.1.1 0 0 1 -.1.1h-.8a.1.1 0 0 1 -.1-.1v-1.57h-1.46v1.57a.1.1 0 0 1 -.1.1h-.8a.1.1 0 0 1 -.1-.1zm7.46.6c0 .04.04.09.1.09h.9v3.11c0 .06.04.1.1.1h.8a.1.1 0 0 0 .1-.1v-3.1h.9a.1.1 0 0 0 .1-.1v-.6a.1.1 0 0 0 -.1-.09h-2.8a.1.1 0 0 0 -.1.1v.6z" fill="#fff"/><path d="m8 7.1c0-.06.04-.1.1-.1h.8c.06 0 .1.04.1.1v.8a.1.1 0 0 1 -.1.1h-.8a.1.1 0 0 1 -.1-.1z" fill="#d41518"/><path d="m9.22 7.2v3.7c0 .06.04.1.1.1h.78c.05 0 .1-.04.1-.1v-2.25l1.75 2.21c.07.09.17.14.28.14h.38c.1 0 .18-.09.18-.2v-3.7c0-.06-.04-.1-.09-.1h-.8c-.04 0-.08.04-.08.1v2.24l-1.72-2.2a.35.35 0 0 0 -.28-.14h-.42c-.1 0-.18.09-.18.2z" fill="#fff"/></svg>