<svg height="18" viewBox="0 0 18 18" width="18" xmlns="http://www.w3.org/2000/svg"><path d="m0 0h18v18h-18z" fill="#f0f3fa"/><path d="m9.36 5.1a.64.64 0 0 0 -.69 0l-5.47 3.48a.41.41 0 0 0 0 .7l2.42 1.6-.21.58h1.1l2.16 1.43c.22.15.5.15.7 0l5.45-3.61a.41.41 0 0 0 0-.7l-2.74-1.75.22-.06v-.57l-.87.2zm1.66 1.41-1.7-1.11a.56.56 0 0 0 -.62 0l-4.93 3.21a.38.38 0 0 0 -.08.08h1.71v.27l2.16-.58-.84 2.57h3.04l.14.51h-2.88l1.05.7v-.53h.2v.68l.43.28c.06.04.12.07.19.09v-1.05h.2v1.06a.56.56 0 0 0 .24-.1l.27-.18v-.78h.21v.64l.77-.53-.72-2.11.2-.07.7 2.06.67-.46-1.08-2.13.06-.03h-.51v-.3h4.41a.39.39 0 0 0 -.08-.09l-2.56-1.67-2.07.58v3.33h-2.7l.13-.31h1.67v-2.78l-3.3.92v-.86zm-.44 2.49 1.03 2.04.6-.4a236.3 236.3 0 0 1 -1.04-1.6l-.01-.04.02-.01h-.6zm.81 0a12.02 12.02 0 0 0 .38.58l.6.94.53-.36-.92-1.11.05-.05zm.82 0 .87 1.04.5-.34-.64-.65.06-.05h-.8zm.98 0 .57.58.47-.33c.1-.06.15-.15.16-.25zm-9.42.26a.38.38 0 0 1 -.17-.26h1.07l-.5.54-.41-.28zm.6.4.43.3.47-.53.16.14-.45.5.74.51.52-1.4-.84.18v-.36h-.63l.1.1zm3.3-.66-.48 1.23h.39l.17-.6.12.25.2-.19v.54h.32v-1.23l-.45.32-.26-.32z" fill="#00458e" fill-rule="evenodd"/></svg>