<svg height="18" viewBox="0 0 18 18" width="18" xmlns="http://www.w3.org/2000/svg"><path d="m0 0h18v18h-18z" fill="#005bac"/><path d="m10.82 12.83a4.08 4.08 0 0 1 -3.5.05 4.36 4.36 0 0 1 -2.65-4.26 273.4 273.4 0 0 0 -.02-4.62h-.62c-.02 0-.02 0-.02.03l-.01 4.53c0 .71.03 1.25.11 1.63a4.87 4.87 0 0 0 2.59 3.25c1.24.62 2.52.72 3.84.32a4.77 4.77 0 0 0 3.43-5.09 4.5 4.5 0 0 0 -1.25-2.62 4.8 4.8 0 0 0 -2.6-1.46 5.25 5.25 0 0 0 -3.9.7l.39.64h.02a4.33 4.33 0 0 1 6.08 1.44 3.93 3.93 0 0 1 -1.89 5.46zm-3.47-5.93c.14-.13.27-.05.4.24.02.04.05.05.09.03.8-.4 1.58-.4 2.37-.02.08.04.13.02.15-.07.03-.1.1-.18.18-.22.06-.03.14 0 .24.07.83.6 1.25 1.4 1.24 2.37-.01.96-.46 1.73-1.34 2.3-.06.04-.12.03-.17-.01a.53.53 0 0 1 -.15-.22c-.03-.08-.08-.1-.16-.06-.78.38-1.57.38-2.36-.02-.03-.01-.05 0-.07.02l-.16.24c-.05.09-.12.1-.2.05-.6-.4-1.01-.92-1.22-1.57-.1-.28-.2-.71-.19-1.3v-4.72l-.01-.01h-.63a577.63 577.63 0 0 1 -.03 5.03 3.47 3.47 0 0 0 2.02 3.35c.97.47 1.97.52 3 .16a3.6 3.6 0 0 0 2.39-3c.09-.98-.2-1.85-.87-2.6a3.88 3.88 0 0 0 -4.9-.65c-.05.04-.06.08-.03.14l.28.45c.03.06.08.07.13.02zm3.06 4.01c.4-.39.59-.86.59-1.41s-.2-1.02-.59-1.41c-.39-.4-.86-.59-1.41-.59s-1.02.2-1.41.59c-.4.39-.59.86-.59 1.41s.2 1.02.59 1.41c.39.4.86.59 1.41.59s1.02-.2 1.41-.59zm-.28-.28c.3-.32.46-.69.46-1.13s-.15-.81-.46-1.13a1.53 1.53 0 0 0 -1.13-.46c-.44 0-.81.15-1.13.46-.3.32-.46.69-.46 1.13s.15.81.46 1.13c.32.3.69.46 1.13.46s.81-.15 1.13-.46zm.04-1.32c0 .3-.12.56-.34.78-.23.21-.5.32-.83.32-.32 0-.6-.11-.83-.32a1.02 1.02 0 0 1 -.34-.78c0-.3.12-.56.34-.77.23-.21.5-.32.83-.32.32 0 .6.1.83.32.22.21.34.47.34.77zm-1.17.72c.42 0 .76-.32.76-.72s-.34-.71-.76-.71-.76.32-.76.71c0 .4.34.72.76.72z" fill="#fff" fill-rule="evenodd"/></svg>