<svg height="18" viewBox="0 0 18 18" width="18" xmlns="http://www.w3.org/2000/svg"><path d="m0 0h18v18h-18z" fill="#f0f3fa"/><path d="m14 9a5 5 0 1 1 -10 0 5 5 0 0 1 10 0zm-5 4v-2.12c0-.57.26-1.18.86-1.18.19 0 .27.05.35.1.07.05.15.1.35.1.4 0 .44-.52.44-.9 0-.45-.08-.57-.53-.57s-.85.3-1.24.91c-.38.62-.81 1.16-1.7 1.16-.76-.02-1.53-.6-1.53-1.44 0-.77.23-1.69 1-1.69a.9.9 0 0 1 .39.1c.11.05.23.1.4.1.22 0 .21-.21.21-.4v-2.03a4 4 0 0 0 1 7.86zm0-8v2.12c0 .6-.13 1.17-.77 1.17a.81.81 0 0 1 -.34-.08.8.8 0 0 0 -.34-.07c-.4 0-.55.4-.55.86s.15.64.55.64c.51 0 1.03-.64 1.03-.64s.8-1.43 1.9-1.43c.74.03 1.52.6 1.52 1.43 0 .77-.21 1.71-.86 1.71-.28 0-.37-.08-.46-.16-.08-.06-.15-.12-.32-.12-.24 0-.36.25-.36.44v2a4 4 0 0 0 -1-7.87z" fill="#c10632"/></svg>