<svg height="18" viewBox="0 0 18 18" width="18" xmlns="http://www.w3.org/2000/svg"><path d="m0 0h18v18h-18z" fill="#f0f3fa"/><path d="m13 12.34-1.03-2.6c-.1.32-1.2 1.76-3.12 1.76s-3.4-1.39-3.4-3.53c0-2.95 2.47-3.81 3.95-3.81.77 0 1.54.3 1.86.42a3.8 3.8 0 0 0 -2.16-.58c-3 0-5.1 2.4-5.1 5.08 0 2.69 2.49 4.92 5.1 4.92 2.09 0 3.47-1.1 3.9-1.66z" fill="#3b2884"/><path d="m7.22 8-.3-1-.89 2 1.2-1z" fill="#e7d332"/><path d="m10.8 8 .3-1 .9 2z" fill="#9e8423"/><path d="m6.03 9 1.2-1h3.58l1.19 1z" fill="#a99222"/><path d="m11.1 7-.3 1h-3.58l-.3-1z" fill="#cfb403"/></svg>