<svg height="18" viewBox="0 0 18 18" width="18" xmlns="http://www.w3.org/2000/svg"><path d="m0 0h18v18h-18z" fill="#f0f3fa"/><path d="m4.7 7.66c-.66-.09-2.1-.35-2.7-.72.14.32.4.63 1.3.82.52.11 1.34.6 1.7.74v2.56c0 .31.16.6.42.76l3.15 2.06c.26.16.58.16.84 0l3.17-2.06a.88.88 0 0 0 .42-.76v-2.56c.36-.14 1.17-.55 1.7-.66.9-.2 1.16-.51 1.3-.83-.62.37-1.68.42-2.73.75-.46.13-.87.25-1.16.37-.97.4-1.39 1.33-2.21 1.84-.04.03-.16.03-.23.03-.12 0-.24 0-.24.14 0 .22.4.54.94.3-.18.28-.86.62-1.37.62a7.5 7.5 0 0 1 -1.16-.12c.2-.16.62-.73.62-.97 0-.1-1.54-1.36-2.5-1.84a6.05 6.05 0 0 0 -1.26-.47z" fill="#3eb134"/><path d="m9.4 4.12a.7.7 0 0 0 -.8 0l-3.2 2.15a.94.94 0 0 0 -.4.78v.37c.58.05 1.34.14 1.78.29.62.2 1.73 1.61 2.22 2.29.54-.64 1.71-1.97 2.13-2.19.39-.2 1.35-.35 1.87-.41v-.35a.94.94 0 0 0 -.4-.78z" fill="#0075c1"/></svg>