<svg height="18" viewBox="0 0 18 18" width="18" xmlns="http://www.w3.org/2000/svg"><path d="m0 0h18v18h-18z" fill="#f0f3fa"/><path d="m14.98 5.19c-.06-.1-.16-.19-.28-.19h-5.98c-.17 0-.3.15-.3.31 0 .17.13.36.3.36h5.17l-3.63 3.73c-.12.12-.15.35-.03.47.13.13.33.16.45.04l4.24-4.39c.08-.08.1-.2.06-.33zm-3.87 1.14c.12 0 .22.11.28.22.04.13.02.26-.06.34l-4.26 4.5c-.12.13-.34.09-.46-.04s-.08-.35.04-.48l3.65-3.87h-5.2c-.16 0-.3-.17-.3-.34 0-.18.14-.33.3-.33h6zm-7.81 6.67c-.13 0-.23-.08-.29-.19-.04-.12-.02-.24.06-.33l4.24-4.32c.12-.12.34-.1.46.02.12.13.08.36-.04.48l-3.58 3.67h5.15c.17 0 .3.2.3.36 0 .17-.13.31-.3.31z"/></svg>