<svg height="18" width="18" xmlns="http://www.w3.org/2000/svg"><path d="m0 0h18v18h-18z" fill="#f60"/><g fill="#fff"><path d="m14.345 11.335.655.905c-.435.423-1.957 1.76-4.242 1.76-3.216 0-3.444-2.636-6.651-2.636l-1.107-.007v-1l3.053-3.017h-2.682l.829-1.34h4.32l-.713 1.34-2.878 3.018c2.692 0 3.332 2.339 5.973 2.339 1.615-.005 2.98-.876 3.443-1.362z"/><path d="m11.056 10.586c-.655 0-1.052-.513-1.052-1.246 0-.995.598-2.353 1.627-2.353.785 0 1.03.677 1.03 1.224 0 1.06-.641 2.375-1.605 2.375zm.728-4.586c-1.836 0-3.11 1.564-3.11 3.37 0 1.272.842 2.198 2.203 2.198 1.836 0 3.123-1.551 3.123-3.357 0-1.181-.764-2.211-2.216-2.211z"/></g></svg>