<svg height="18" width="18" xmlns="http://www.w3.org/2000/svg"><path d="m0 0h18v18h-18z" fill="#f44238"/><path d="m12.86 5h-2.02c-.07 0-.15.06-.15.14v.73c0 .08.08.13.15.13h.43l-6.27 5.97v.89c0 .08.06.14.14.14h2.72c.08 0 .14-.06.14-.14v-.71c0-.08-.06-.15-.14-.15h-1.44l5.58-5.3v.33c0 .08.08.13.15.13h.7c.09 0 .15-.05.15-.13v-1.89a.14.14 0 0 0 -.14-.14zm-6.86 1h3.59c.07 0 .14-.04.14-.12v-.74a.14.14 0 0 0 -.14-.14h-4.45a.14.14 0 0 0 -.14.14v1.71c0 .08.06.15.14.15h.7c.08 0 .16-.07.16-.15zm6 6h-2.85c-.07 0-.15.06-.15.14v.73c0 .07.08.13.15.13h3.71c.08 0 .14-.06.14-.13v-1.71c0-.08-.06-.16-.14-.16h-.7c-.07 0-.16.08-.16.16z" fill="#fff"/></svg>