<svg height="18" viewBox="0 0 18 18" width="18" xmlns="http://www.w3.org/2000/svg"><path d="m0 0h18v18h-18z" fill="#08a6e3"/><path d="m3.77 10.18a3.15 3.15 0 0 1 -.77-2.08c0-1.7 1.34-3.1 3-3.1s3 1.39 3 3.1a3.1 3.1 0 0 1 -1.92 2.9l-.63-1.65c.49-.19.84-.68.84-1.25a1.3 1.3 0 0 0 -1.29-1.33c-.71 0-1.29.6-1.29 1.33 0 .36.14.69.36.93z" fill="#4e4e54"/><path d="m14.23 10.18c.48-.55.77-1.28.77-2.08 0-1.7-1.34-3.1-3-3.1s-3 1.39-3 3.1c0 1.32.8 2.45 1.92 2.9l.63-1.65a1.33 1.33 0 0 1 -.84-1.25c0-.73.58-1.33 1.29-1.33s1.29.6 1.29 1.33c0 .36-.14.69-.36.93z" fill="#4e4e54"/><g fill="#fffdff"><circle cx="12.5" cy="10.5" r=".5"/><path d="m5.1 11.2a.5.5 0 0 1 .7-.1c.85.64 1.66.9 2.7.9 1.13 0 2.22-.42 2.65-.85a.5.5 0 1 1 .7.7 3.75 3.75 0 0 1 -2.85 1.15 6.64 6.64 0 0 1 -3.8-1.1.5.5 0 0 1 -.1-.7z"/></g></svg>