<svg height="18" viewBox="0 0 18 18" width="18" xmlns="http://www.w3.org/2000/svg"><path d="m0 0h18v18h-18z" fill="#f0f3fa"/><path d="m11.25 3.45a6.1 6.1 0 0 0 -4.54-.02c.32.18.87.6 2.3.6s1.87-.37 2.24-.58zm-8.09 4.14a5.94 5.94 0 0 1 2.8-3.77l2.04.87v2.71l-1.81 2.33zm4.32 7.22a6.1 6.1 0 0 1 -4.48-6.04l2.47 1.88 2 4.16zm3.39-.12c-.6.2-1.52.31-2.2.31l-1.96-4.35 2.29-2.15 3 2.44zm4.1-4.96a5.99 5.99 0 0 1 -2.59 4.22l-.12-.06.79-3.24z" fill="#1d87c4"/><path d="m15 8.55a5.99 5.99 0 0 0 -2.67-4.54l-2.33.7v2.69l2.87 2.62z" fill="#96cdef"/></svg>