<svg height="18" viewBox="0 0 18 18" width="18" xmlns="http://www.w3.org/2000/svg"><path d="m0 0h18v18h-18z" fill="#f0f3fa"/><path d="m14 13.6v-3.31l-.03-.07-.03-.06-.04-.06-.06-.04-.06-.03-.07-.02-.07-.01h-3.34l-.07.03-.06.03-.05.04-.05.06-.03.06-.02.07-.01.07v3.35l.03.07.03.06.04.05.06.05.06.03.07.02.07.01h3.28l.07-.01.07-.02.06-.03.06-.05.04-.05.03-.06.02-.07.01-.07v-.04z" fill="#f5ab18"/><path d="m4.32 14h3.42l.06-.02.06-.03.05-.04.04-.04.03-.06.01-.05.01-.06v-4.46l-.02-.05-.03-.05-.03-.04-.04-.04-.05-.03-.05-.02-.05-.01h-.13l-.05.02-.05.03-.05.04-.04.04-.02.02-3.34 4.37-.03.05-.02.05-.01.06v.05l.01.06.02.05.03.04.04.04.05.04.05.02.06.02h.06z" fill="#0f367a"/><path d="m13.46 4h-3.22l-.05.02-.06.03-.04.04-.04.05-.03.05-.01.05-.01.06v4.46l.02.05.02.05.03.04.04.04.05.03.05.02.05.01h.11l.05-.02.05-.03.04-.03.03-.04.02-.03 3.13-4.37.03-.05.02-.05.01-.06v-.05l-.01-.06-.02-.05-.03-.04-.04-.04-.04-.04-.05-.02-.06-.02h-.05z"/><path d="m8 6v-.14l-.02-.15-.03-.14-.03-.14-.05-.14-.05-.13-.07-.13-.08-.12-.08-.12-.09-.11-.1-.1-.1-.1-.12-.1-.12-.08-.12-.07-.13-.06-.14-.05-.13-.05-.15-.03-.14-.04h-.14-.29l-.14.03-.14.02-.14.04-.14.05-.13.06-.13.07-.12.07-.12.09-.1.1-.11.1-.1.1-.08.12-.08.12-.07.13-.06.13-.06.14-.03.13-.04.14-.02.14-.01.15v.14l.01.15.02.14.04.14.04.14.05.13.06.14.07.12.07.12.09.12.1.1.1.1.11.1.12.09.12.07.13.07.13.06.14.05.14.03.14.03.14.02.14.01h.15l.14-.01.14-.03.15-.04.13-.04.14-.05.13-.07.12-.07.12-.08.11-.09.11-.1.1-.1.1-.1.08-.12.08-.13.06-.13.06-.13.04-.14.04-.13.02-.15.01-.15z" fill="#c7161d"/></svg>