<svg height="18" viewBox="0 0 18 18" width="18" xmlns="http://www.w3.org/2000/svg" xmlns:xlink="http://www.w3.org/1999/xlink"><linearGradient id="a" gradientUnits="userSpaceOnUse" x1="12.13" x2="6.19" y1="5.25" y2="12.91"><stop offset="0" stop-color="#a37919"/><stop offset="1" stop-color="#e1ca73"/></linearGradient><path d="m0 0h18v18h-18z" fill="#f0f3fa"/><g fill="url(#a)"><path d="m12.68 12.38a4.98 4.98 0 0 0 1.2-4.44 16.08 16.08 0 0 0 -7.24-3.35c-.37.2-.72.45-1.03.74 1.63.36 4.57 1.14 5.73 1.95 1.12.78-.3 1.4-.78 1.56-.15.05-.72.19-1.33.34-.74.17-1.54.36-1.8.45 1.28.73 3.72 2.09 5.25 2.75z"/><path d="m11.42 13.38c-1.77-1.02-4.45-2.82-4.92-3.13-.63-.63-.47-.63-.47-.94-.16.16-.16.47 0 .78.33.66 3.18 2.41 5 3.48.13-.06.26-.12.39-.2z"/><path d="m10.82 13.66a4.99 4.99 0 0 1 -6.82-4.66c0-1.24.45-2.37 1.2-3.24l.42.15c1.38.56 3.5 1.53 4.63 2.09h-.25c-2.5.3-4.29.42-4.44 1.63-.05 1.2 3.3 3.02 5.26 4.03z"/><path d="m5.2 5.75.42.16c1.53.56 3.74 1.49 4.94 2.09h.31v-.25c-1.43-.65-4.3-1.9-5.44-2.26z"/><path d="m6.88 4.47c1.57.28 4.45 1.2 6.94 3.21l-.09-.3a10.26 10.26 0 0 0 -6.5-3.06z"/><path d="m8.03 4.1a5.02 5.02 0 0 1 5.37 2.52c-1.8-1.6-3.92-2.3-5.37-2.53z"/></g></svg>