<svg height="18" viewBox="0 0 18 18" width="18" xmlns="http://www.w3.org/2000/svg"><path d="m0 0h18v18h-18z" fill="#005cbb"/><path d="m2 7.57v-.57h4.04l.19.57-2.7 2.86h2.7v.57h-4.23v-.58l2.73-2.85zm4.4-.57 1.04 4h.98l.86-2.66.63 2.66h1.02l.87-2.76c.04-.11.16-.4.3-.62-.25.08-.9.42-1.45 1.1l-.27.83-.55-2.04a1.6 1.6 0 0 0 -.36-.51h-.87l-.72 2.55-.64-2.55zm4.66 0-.35 1.32a3.6 3.6 0 0 1 2.34-1.32h-2zm4.94 1.5v-.5h-3.05c-.53 0-.95.38-.95.85s.42.9.95.9h1.63c.26 0 .47.14.47.37 0 .24-.2.38-.47.38h-2.43v.5h2.87c.54 0 .98-.4.98-.88s-.44-.87-.98-.87h-1.52c-.26 0-.46-.19-.46-.42s.2-.33.46-.33z" fill="#fff"/></svg>