<svg height="18" width="18" xmlns="http://www.w3.org/2000/svg"><path d="m0 0h18v18h-18z" fill="#4c1767"/><path d="m10.77 7.92a12.9 12.9 0 0 0 -5.73-1l.73.68a5.9 5.9 0 0 1 2.44.14 8.96 8.96 0 0 0 -5.21 3.26h1.19c4.5-2.86 9.72-1.27 11.81-.18a11.23 11.23 0 0 0 -10.23-1.3c.83-.8 3.68-1.4 5-1.6z" fill="#fff"/><path d="m5.67 6.63c.07-.51.73-.63.96-.63-.4.18-.44.48-.4.63.46 1.97 3.42 3.62 4.47 3.53.19-.02.57-.15.6-.57.02-.41-.3-1.05-.52-1.32.32.36 1.1 1.27 1.1 1.89s-.64.84-1.02.84c-2.15 0-5.35-3.07-5.19-4.37z" fill="#009f9b"/></svg>