<svg height="48" viewBox="0 0 172 48" width="172" xmlns="http://www.w3.org/2000/svg"><g fill="none" fill-rule="evenodd"><rect fill="#fff" height="48" rx="6" width="48"/><g fill-rule="nonzero"><path d="m2.82925385 15.1278582v-2.1505225h7.42679135c1.1788558 0 2.2471938-.230847 3.2050141-.6925411.9578204-.4616941 1.7314445-1.0995609 2.3208723-1.9136005.1818812-.2511902.1796692-.1744393.4614583-.78654125.281789-.61210192.4226836-1.27938462.4226836-2.00184809 0-1.60377948-.6704742-2.90988776-2.0114227-3.91832486-1.3409484-1.0084371-3.0576571-1.51265565-5.15012614-1.51265565-2.26767387-.00022631-3.96842927-.00039605-5.1022662-.00050921l-1.20989249-2.15131504 6.31215869.00130177c1.94511204-.02429969 3.66918864.29159627 5.17222974.94768787 1.5030411.65609161 2.674529 1.5551801 3.5144637 2.69726549.8399348 1.14208539 1.2599021 2.4542686 1.2599021 3.93654963 0 1.03313872-.2330744 1.98696753-.6992232 2.86148644-.4661488.8745189-.4227876.7058203-.6933001 1.0386137-.928349 1.1420853-2.1882511 2.0350989-3.7797064 2.6790407-1.5914553.6439417-3.3744746.9659126-5.34905803.9659126zm-2.82925385 10.4245666v-22.157297l2.84994662 1.82806995-.02069277 20.32922705zm17.1933178-1.5418559-6.5096041-8.9967976 2.0728054-.6393692c1.389365 1.7910815 2.4984875 3.2695993 3.3273676 4.4355534.8288801 1.165954 2.0032171 2.8994919 3.523011 5.2006134z" fill="#1e2c6d" transform="translate(15.3852 11.3684)"/><g transform="translate(13.8947 13.5004)"><path d="m7.90315997 21.878599v-3.0530209c.88488909 0 1.70746597-.1730133 2.46773063-.51904.7602647-.3460266 1.4263655-.8288784 1.9983027-1.4485553.5719371-.6196769 1.0168157-1.3426334 1.3346358-2.1688693s.4767302-1.7182418.4767302-2.6760177c0-.957776-.1589101-1.8497819-.4767302-2.67601777-.3178201-.8262359-.7626987-1.54919231-1.3346358-2.16886923-.5719372-.61967693-1.238038-1.10252872-1.9983027-1.44855537-.76026466-.34602665-1.58284154-.51903998-2.46773063-.51903998v-3.05302092c1.84516484 0 3.47675733.42016474 4.89477753 1.26049421 1.4180201.84032948 2.5289996 2.00150802 3.3329385 3.48353563.8039388 1.48202761 1.2059083 3.18918543 1.2059083 5.12147343 0 1.9167263-.402804 3.6173512-1.2084119 5.1018745-.805608 1.4845234-1.9168656 2.6495923-3.3337731 3.4952069-1.4169074.8456146-3.04738721 1.2684218-4.89143933 1.2684218zm-3.87225908 0v-3.0530209h3.87225908v3.0530209zm-1.99621633 0v-19.73100647h3.09864181v19.73100647zm1.99621633-16.67798555v-3.05302092h3.87225908v3.05302092z" fill="#1e2c6d"/><path d="m9.93784455 0-.00095376.15838495.39097961.06785425c1.0865743.21141902 2.1089722.57138245 3.0620018 1.0814334l.4041791.22778679c1.7384167 1.03019891 3.1155593 2.469567 4.1025639 4.28906853.9862226 1.81806005 1.4748536 3.89326855 1.4748536 6.18856788 0 2.280699-.4900281 4.3495813-1.4775279 6.1692835-.9875907 1.8198698-2.3629599 3.2618394-4.0978796 4.2972447-1.114075.6648832-2.3284102 1.1140593-3.6339914 1.3500928l-.22517911.0354053.00095376.1610695h-9.93784455v-24.0261916zm-2.03468457 2.14759254h-5.8684754v19.73100646h5.8684754c1.84405211 0 3.47453192-.4228072 4.89143932-1.2684218 1.4169075-.8456146 2.5281651-2.0106835 3.3337731-3.4952069.8056079-1.4845233 1.2084119-3.1851482 1.2084119-5.1018745 0-1.932288-.4019695-3.63944582-1.2059083-5.12147343-.8039389-1.4820276-1.9149184-2.64320614-3.3329385-3.48353562-1.4180202-.84032947-3.04961269-1.26049421-4.89477752-1.26049421zm0 3.05302092c.88488909 0 1.70746596.17301333 2.46773062.51903998.7602647.34602665 1.4263656.82887844 1.9983027 1.44855536.5719371.61967693 1.0168157 1.34263334 1.3346358 2.16886923.3178201.82623587.4767302 1.71824177.4767302 2.67601777 0 .9577759-.1589101 1.8497818-.4767302 2.6760177s-.7626987 1.5491924-1.3346358 2.1688693-1.238038 1.1025287-1.9983027 1.4485553c-.76026466.3460267-1.58284153.51904-2.46773062.51904l-2.77066814-.0005872v-13.62513245zm0 2.14759254-.73598356-.00075501v9.32994731l.73598356.0005873c.61240029 0 1.16073469-.1153317 1.66206444-.3435068.51637968-.2350249.96089188-.5572486 1.34653478-.9750813.3869271-.419224.6872189-.9072176.9068421-1.4781712.2172397-.5647575.3272734-1.1824067.3272734-1.8681305s-.1100337-1.3033731-.3272734-1.8681305c-.2196232-.57095364-.519915-1.0589472-.9068421-1.47817123-.3856429-.41783267-1.02388005-.86772419-1.34653478-.97508132-.32265472-.10735712-1.04966415-.34350675-1.66206444-.34350675z" fill="#fff"/></g></g><text fill="#fff" font-family="Figtree-Light, Figtree" font-size="22" font-weight="300" letter-spacing=".8"><tspan x="61.324635" y="33">do</tspan> <tspan font-family="Figtree-Light_Regular, Figtree" font-weight="normal" x="88.466635" y="33">Riskless</tspan></text></g></svg>