<svg height="29" viewBox="0 0 29 29" width="29"><g fill="none" fill-rule="evenodd"><path d="m-5-5h40v40h-40z"/><path d="m20.833 18.333h-1.316l-.467-.45c2-2.333 3.033-5.516 2.467-8.9-.784-4.633-4.65-8.333-9.317-8.9-7.05-.866-12.983 5.067-12.117 12.117.567 4.667 4.267 8.533 8.9 9.317a10.834 10.834 0 0 0 8.9-2.467l.45.467v1.316l7.084 7.084a1.76 1.76 0 0 0 2.483 0 1.76 1.76 0 0 0 0-2.484zm-10 0a7.49 7.49 0 0 1 -7.5-7.5c0-4.15 3.35-7.5 7.5-7.5s7.5 3.35 7.5 7.5-3.35 7.5-7.5 7.5z" fill="#b8c4ce" fill-rule="nonzero"/></g></svg>