<svg height="40" viewBox="0 0 40 40" width="40"><g fill="none" fill-rule="evenodd"><circle cx="20" cy="20" fill="#3547a4" fill-rule="nonzero" r="20"/><path d="m8.333 8.333h23.334v23.334h-23.334z"/><path d="m20.056 18.778c-2.523-.656-3.334-1.334-3.334-2.39 0-1.21 1.122-2.055 3-2.055 1.578 0 2.367.6 2.656 1.556.133.444.5.778.966.778h.334c.733 0 1.255-.723 1-1.411-.467-1.312-1.556-2.4-3.29-2.823v-.766c0-.923-.744-1.667-1.666-1.667s-1.666.744-1.666 1.667v.733c-2.156.467-3.89 1.867-3.89 4.011 0 2.567 2.123 3.845 5.223 4.589 2.778.667 3.333 1.644 3.333 2.678 0 .766-.544 1.989-3 1.989-1.833 0-2.778-.656-3.144-1.59-.167-.433-.545-.744-1-.744h-.311c-.745 0-1.267.756-.99 1.445.634 1.544 2.112 2.455 3.779 2.81v.745c0 .923.744 1.667 1.666 1.667s1.667-.744 1.667-1.667v-.722c2.167-.411 3.889-1.667 3.889-3.944 0-3.156-2.7-4.234-5.222-4.89z" fill="#fff"/></g></svg>