<svg height="40" viewBox="0 0 40 40" width="40" ><g fill="none" fill-rule="evenodd"><circle cx="20" cy="20" fill="#3547a4" fill-rule="nonzero" r="20"/><path d="m8.333 8.333h23.334v23.334h-23.334z"/><path d="m26.806 11.25h-13.612a1.95 1.95 0 0 0 -1.944 1.944v13.612a1.95 1.95 0 0 0 1.944 1.944h13.612a1.95 1.95 0 0 0 1.944-1.944v-13.612a1.95 1.95 0 0 0 -1.944-1.944zm-10.696 13.611a.975.975 0 0 1 -.972-.972v-4.861c0-.535.437-.972.972-.972s.972.437.972.972v4.86a.975.975 0 0 1 -.972.973zm3.889 0a.975.975 0 0 1 -.972-.972v-7.779c0-.535.437-.972.972-.972s.972.437.972.972v7.778a.975.975 0 0 1 -.972.972zm3.889 0a.975.975 0 0 1 -.972-.972v-1.945c0-.534.437-.972.972-.972s.972.438.972.972v1.945a.975.975 0 0 1 -.972.972z" fill="#fff" fill-rule="nonzero"/></g></svg>